<svg width="388" height="39" viewBox="0 0 388 39" fill="none" xmlns="http://www.w3.org/2000/svg">
<g filter="url(#filter0_d_800_18)">
<path d="M4.78895 31.9114V27.8645L11.4424 17.6443C11.9454 16.8897 12.4141 16.1581 12.8485 15.4493C13.3058 14.7405 13.6716 14.0203 13.946 13.2887C14.2432 12.557 14.3918 11.7911 14.3918 10.9908C14.3918 10.1906 14.2318 9.59614 13.9117 9.20745C13.5916 8.81876 13.1572 8.62442 12.6084 8.62442C11.9911 8.62442 11.511 8.7959 11.168 9.13886C10.825 9.48182 10.585 9.9391 10.4478 10.5107C10.3335 11.0823 10.2763 11.7225 10.2763 12.4313V13.8031H4.72036V12.3284C4.72036 10.6822 4.98329 9.21888 5.50916 7.9385C6.03503 6.63525 6.86957 5.6178 8.01277 4.88616C9.15597 4.13165 10.6536 3.75439 12.5055 3.75439C14.9977 3.75439 16.8726 4.40601 18.1301 5.70926C19.4105 6.98964 20.0507 8.78447 20.0507 11.0937C20.0507 12.2141 19.8677 13.2544 19.5019 14.2147C19.159 15.1749 18.6902 16.1124 18.0958 17.0269C17.5242 17.9186 16.9069 18.856 16.2438 19.8392L11.168 27.4186H19.2961V31.9114H4.78895ZM30.4311 32.4258C28.3962 32.4258 26.8529 32.0714 25.8011 31.3626C24.7722 30.631 24.0749 29.6135 23.7091 28.3103C23.3432 27.0071 23.1603 25.498 23.1603 23.7832H28.682C28.682 24.835 28.7391 25.6924 28.8535 26.3554C28.9678 27.0185 29.1736 27.4986 29.4708 27.7959C29.7909 28.0702 30.2367 28.196 30.8083 28.1731C31.4028 28.1503 31.8258 27.9102 32.0773 27.4529C32.3288 26.9956 32.4774 26.344 32.5231 25.498C32.5917 24.6292 32.626 23.5889 32.626 22.3771C32.626 21.4625 32.5689 20.6509 32.4545 19.9421C32.3631 19.2333 32.1573 18.6731 31.8372 18.2616C31.54 17.8272 31.0827 17.61 30.4654 17.61C29.8938 17.61 29.4251 17.8157 29.0592 18.2273C28.6934 18.6388 28.4305 19.279 28.2704 20.1479H23.3318L23.8462 4.13164H36.8101V8.93308H28.4419L28.1332 14.6605C28.3619 14.3404 28.7963 14.066 29.4365 13.8374C30.0767 13.5859 30.7626 13.4259 31.4942 13.3573C32.9118 13.1972 34.1007 13.4601 35.061 14.1461C36.0442 14.8091 36.7758 15.8266 37.256 17.1984C37.759 18.5702 38.0105 20.2507 38.0105 22.2399C38.0105 23.7261 37.919 25.0979 37.7361 26.3554C37.5532 27.5901 37.1988 28.6647 36.6729 29.5793C36.1471 30.4709 35.3811 31.1683 34.3751 31.6713C33.3691 32.1743 32.0544 32.4258 30.4311 32.4258ZM49.2523 32.4258C47.5833 32.4258 46.1886 32.0943 45.0682 31.4312C43.9479 30.7453 43.1019 29.8079 42.5303 28.619C41.9587 27.43 41.6729 26.0468 41.6729 24.4692V11.8825C41.6729 10.2592 41.9359 8.84162 42.4617 7.62983C43.0105 6.39518 43.845 5.43489 44.9653 4.74897C46.0857 4.06305 47.5147 3.72009 49.2523 3.72009C50.99 3.72009 52.4076 4.06305 53.505 4.74897C54.6254 5.43489 55.4485 6.39518 55.9743 7.62983C56.5231 8.84162 56.7974 10.2592 56.7974 11.8825V24.4692C56.7974 26.0239 56.5116 27.4072 55.94 28.619C55.3684 29.8079 54.5225 30.7453 53.4021 31.4312C52.2818 32.0943 50.8985 32.4258 49.2523 32.4258ZM49.2523 27.3157C49.8011 27.3157 50.1897 27.1442 50.4184 26.8013C50.6699 26.4355 50.8185 26.0239 50.8642 25.5666C50.9328 25.0865 50.9671 24.6749 50.9671 24.332V12.0197C50.9671 11.631 50.9443 11.1966 50.8985 10.7165C50.8528 10.2135 50.7042 9.77905 50.4527 9.41322C50.224 9.02454 49.8239 8.83019 49.2523 8.83019C48.6807 8.83019 48.2692 9.02454 48.0177 9.41322C47.789 9.77905 47.6518 10.2135 47.6061 10.7165C47.5604 11.1966 47.5375 11.631 47.5375 12.0197V24.332C47.5375 24.6749 47.5718 25.0865 47.6404 25.5666C47.709 26.0239 47.8576 26.4355 48.0863 26.8013C48.3378 27.1442 48.7265 27.3157 49.2523 27.3157ZM61.3178 31.9114L61.7979 4.13164H68.3828L71.4351 20.285L74.7275 4.13164H81.0723L81.5524 31.9114H77.1968L76.6824 13.4259L73.4586 31.9114H69.5831L66.1535 13.2887L65.742 31.9114H61.3178ZM86.2545 31.9114V4.13164H92.3934V27.7616H98.7725V31.9114H86.2545ZM111.607 31.9114V4.13164H119.255C121.13 4.13164 122.753 4.33742 124.125 4.74897C125.497 5.16052 126.56 5.9036 127.314 6.97821C128.092 8.02995 128.48 9.52754 128.48 11.471C128.48 12.6142 128.389 13.6316 128.206 14.5233C128.023 15.415 127.68 16.1924 127.177 16.8554C126.697 17.4956 126 18.0329 125.085 18.4674L128.892 31.9114H122.547L119.495 19.4619H117.746V31.9114H111.607ZM117.746 15.9295H119.46C120.329 15.9295 121.004 15.7808 121.484 15.4836C121.964 15.1635 122.296 14.7177 122.478 14.1461C122.684 13.5516 122.787 12.8428 122.787 12.0197C122.787 10.8308 122.57 9.9048 122.136 9.24174C121.701 8.57869 120.901 8.24716 119.735 8.24716H117.746V15.9295ZM140.545 32.3229C138.465 32.3229 136.819 31.9571 135.607 31.2255C134.395 30.4938 133.526 29.4421 133 28.0702C132.475 26.6984 132.212 25.0636 132.212 23.1659V12.8428C132.212 10.9222 132.475 9.28747 133 7.9385C133.526 6.58952 134.395 5.56064 135.607 4.85186C136.819 4.12021 138.465 3.75439 140.545 3.75439C142.649 3.75439 144.307 4.12021 145.518 4.85186C146.753 5.56064 147.633 6.58952 148.159 7.9385C148.685 9.28747 148.948 10.9222 148.948 12.8428V23.1659C148.948 25.0636 148.685 26.6984 148.159 28.0702C147.633 29.4421 146.753 30.4938 145.518 31.2255C144.307 31.9571 142.649 32.3229 140.545 32.3229ZM140.545 27.9673C141.186 27.9673 141.654 27.8073 141.952 27.4872C142.249 27.1671 142.443 26.7556 142.535 26.2525C142.626 25.7495 142.672 25.2351 142.672 24.7092V11.3338C142.672 10.7851 142.626 10.2706 142.535 9.79048C142.443 9.28747 142.249 8.87592 141.952 8.55582C141.654 8.23573 141.186 8.07568 140.545 8.07568C139.951 8.07568 139.505 8.23573 139.208 8.55582C138.911 8.87592 138.716 9.28747 138.625 9.79048C138.533 10.2706 138.488 10.7851 138.488 11.3338V24.7092C138.488 25.2351 138.522 25.7495 138.591 26.2525C138.682 26.7556 138.865 27.1671 139.139 27.4872C139.437 27.8073 139.905 27.9673 140.545 27.9673ZM161.395 32.3229C159.269 32.3229 157.6 31.98 156.388 31.294C155.199 30.5853 154.365 29.5678 153.884 28.2417C153.404 26.8927 153.164 25.2465 153.164 23.3031V4.13164H159.235V24.2291C159.235 24.8007 159.28 25.3723 159.372 25.9439C159.463 26.5155 159.658 26.9842 159.955 27.35C160.275 27.7158 160.755 27.8987 161.395 27.8987C162.058 27.8987 162.538 27.7158 162.836 27.35C163.133 26.9842 163.316 26.5155 163.384 25.9439C163.476 25.3723 163.522 24.8007 163.522 24.2291V4.13164H169.626V23.3031C169.626 25.2465 169.375 26.8927 168.872 28.2417C168.392 29.5678 167.557 30.5853 166.368 31.294C165.179 31.98 163.522 32.3229 161.395 32.3229ZM174.218 31.9114V4.13164H178.54L184.233 17.5071V4.13164H189.308V31.9114H185.159L179.466 17.5071V31.9114H174.218ZM194.129 31.9114V4.13164H201.159C203.583 4.13164 205.469 4.44031 206.818 5.05764C208.167 5.6521 209.116 6.60095 209.665 7.9042C210.213 9.18458 210.488 10.8537 210.488 12.9114V22.9944C210.488 25.075 210.213 26.7784 209.665 28.1045C209.116 29.4078 208.167 30.3681 206.818 30.9854C205.492 31.6027 203.629 31.9114 201.228 31.9114H194.129ZM200.268 27.6587H201.228C202.165 27.6587 202.84 27.5215 203.251 27.2471C203.663 26.9728 203.914 26.5612 204.006 26.0125C204.12 25.4637 204.177 24.7778 204.177 23.9547V11.8482C204.177 11.0251 204.109 10.3621 203.972 9.85907C203.857 9.35606 203.594 8.99024 203.183 8.7616C202.771 8.53296 202.108 8.41864 201.194 8.41864H200.268V27.6587ZM232.327 32.3229C230.224 32.3229 228.555 31.9457 227.32 31.1912C226.108 30.4138 225.251 29.3392 224.748 27.9673C224.245 26.5726 223.993 24.9379 223.993 23.063V13.0486C223.993 11.128 224.245 9.48182 224.748 8.10998C225.251 6.71527 226.108 5.64067 227.32 4.88616C228.555 4.13165 230.224 3.75439 232.327 3.75439C234.385 3.75439 235.986 4.09735 237.129 4.78327C238.295 5.44632 239.118 6.38375 239.598 7.59554C240.078 8.80733 240.318 10.202 240.318 11.7796V14.1804H234.317V11.4024C234.317 10.8537 234.282 10.3278 234.214 9.82477C234.168 9.32177 234.008 8.91022 233.734 8.59012C233.459 8.24716 232.99 8.07568 232.327 8.07568C231.687 8.07568 231.207 8.24716 230.887 8.59012C230.59 8.93308 230.395 9.3675 230.304 9.89337C230.235 10.3964 230.201 10.9337 230.201 11.5053V24.572C230.201 25.1894 230.247 25.761 230.338 26.2868C230.453 26.7898 230.658 27.2014 230.956 27.5215C231.276 27.8187 231.733 27.9673 232.327 27.9673C232.968 27.9673 233.425 27.8073 233.699 27.4872C233.974 27.1442 234.145 26.7098 234.214 26.184C234.282 25.6581 234.317 25.1208 234.317 24.572V21.6569H240.318V24.0576C240.318 25.6352 240.078 27.0528 239.598 28.3103C239.141 29.545 238.329 30.5281 237.163 31.2598C236.02 31.9685 234.408 32.3229 232.327 32.3229ZM252.338 32.3229C250.258 32.3229 248.611 31.9571 247.4 31.2255C246.188 30.4938 245.319 29.4421 244.793 28.0702C244.267 26.6984 244.004 25.0636 244.004 23.1659V12.8428C244.004 10.9222 244.267 9.28747 244.793 7.9385C245.319 6.58952 246.188 5.56064 247.4 4.85186C248.611 4.12021 250.258 3.75439 252.338 3.75439C254.442 3.75439 256.099 4.12021 257.311 4.85186C258.546 5.56064 259.426 6.58952 259.952 7.9385C260.478 9.28747 260.741 10.9222 260.741 12.8428V23.1659C260.741 25.0636 260.478 26.6984 259.952 28.0702C259.426 29.4421 258.546 30.4938 257.311 31.2255C256.099 31.9571 254.442 32.3229 252.338 32.3229ZM252.338 27.9673C252.978 27.9673 253.447 27.8073 253.744 27.4872C254.042 27.1671 254.236 26.7556 254.327 26.2525C254.419 25.7495 254.465 25.2351 254.465 24.7092V11.3338C254.465 10.7851 254.419 10.2706 254.327 9.79048C254.236 9.28747 254.042 8.87592 253.744 8.55582C253.447 8.23573 252.978 8.07568 252.338 8.07568C251.744 8.07568 251.298 8.23573 251.001 8.55582C250.704 8.87592 250.509 9.28747 250.418 9.79048C250.326 10.2706 250.281 10.7851 250.281 11.3338V24.7092C250.281 25.2351 250.315 25.7495 250.383 26.2525C250.475 26.7556 250.658 27.1671 250.932 27.4872C251.229 27.8073 251.698 27.9673 252.338 27.9673ZM265.163 31.9114V4.13164H269.484L275.177 17.5071V4.13164H280.253V31.9114H276.103L270.41 17.5071V31.9114H265.163ZM287.577 31.9114V8.69301H283.393V4.13164H297.9V8.69301H293.75V31.9114H287.577ZM298.153 31.9114L303.401 4.13164H310.397L315.576 31.9114H309.917L308.991 26.0468H304.91L303.949 31.9114H298.153ZM305.458 22.3771H308.408L306.933 11.5396L305.458 22.3771ZM319.101 31.9114V4.13164H325.24V31.9114H319.101ZM330.068 31.9114V4.13164H334.389L340.082 17.5071V4.13164H345.158V31.9114H341.008L335.315 17.5071V31.9114H330.068ZM349.978 31.9114V4.13164H362.462V8.31575H356.117V15.2092H360.953V19.4619H356.117V27.7616H362.531V31.9114H349.978ZM366.004 31.9114V4.13164H373.652C375.527 4.13164 377.15 4.33742 378.522 4.74897C379.894 5.16052 380.957 5.9036 381.711 6.97821C382.489 8.02995 382.877 9.52754 382.877 11.471C382.877 12.6142 382.786 13.6316 382.603 14.5233C382.42 15.415 382.077 16.1924 381.574 16.8554C381.094 17.4956 380.397 18.0329 379.482 18.4674L383.289 31.9114H376.944L373.892 19.4619H372.143V31.9114H366.004ZM372.143 15.9295H373.857C374.726 15.9295 375.401 15.7808 375.881 15.4836C376.361 15.1635 376.693 14.7177 376.876 14.1461C377.081 13.5516 377.184 12.8428 377.184 12.0197C377.184 10.8308 376.967 9.9048 376.533 9.24174C376.098 8.57869 375.298 8.24716 374.132 8.24716H372.143V15.9295Z" fill="white"/>
</g>
<defs>
<filter id="filter0_d_800_18" x="0.000703335" y="0.000215054" width="388.008" height="38.1456" filterUnits="userSpaceOnUse" color-interpolation-filters="sRGB">
<feFlood flood-opacity="0" result="BackgroundImageFix"/>
<feColorMatrix in="SourceAlpha" type="matrix" values="0 0 0 0 0 0 0 0 0 0 0 0 0 0 0 0 0 0 127 0" result="hardAlpha"/>
<feOffset dy="1"/>
<feGaussianBlur stdDeviation="2.36"/>
<feComposite in2="hardAlpha" operator="out"/>
<feColorMatrix type="matrix" values="0 0 0 0 0 0 0 0 0 0 0 0 0 0 0 0 0 0 0.25 0"/>
<feBlend mode="normal" in2="BackgroundImageFix" result="effect1_dropShadow_800_18"/>
<feBlend mode="normal" in="SourceGraphic" in2="effect1_dropShadow_800_18" result="shape"/>
</filter>
</defs>
</svg>
