<svg width="174" height="36" viewBox="0 0 174 36" fill="none" xmlns="http://www.w3.org/2000/svg">
<path d="M14.9531 14.466V10.0277C14.9531 8.9814 14.9531 8.4588 15.2782 8.1337C15.6033 7.80859 16.1259 7.80859 17.1723 7.80859H23.8297C24.876 7.80859 25.3986 7.80859 25.7237 8.1337C26.0488 8.4588 26.0488 8.9814 26.0488 10.0277V14.466C26.0488 15.5123 26.0488 16.0349 25.7237 16.36C25.3986 16.6851 24.876 16.6851 23.8297 16.6851H17.1723C16.1259 16.6851 15.6033 16.6851 15.2782 16.36C14.9531 16.0349 14.9531 15.5123 14.9531 14.466Z" stroke="white" stroke-width="0.832174" stroke-linecap="round"/>
<path d="M24.3857 9.47765V9.47266M24.3857 11.1392V11.1348M24.3857 12.8014V12.7964" stroke="white" stroke-width="0.832174" stroke-linecap="round" stroke-linejoin="round"/>
<path d="M16.6191 13.9109V10.5822C16.6191 10.0591 16.6191 9.79776 16.7817 9.63521C16.9442 9.47266 17.2055 9.47266 17.7287 9.47266H21.6122C22.1353 9.47266 22.3966 9.47266 22.5592 9.63521C22.7218 9.79776 22.7218 10.0591 22.7218 10.5822V13.9109C22.7218 14.4341 22.7218 14.6954 22.5592 14.8579C22.3966 15.0205 22.1353 15.0205 21.6122 15.0205H17.7287C17.2055 15.0205 16.9442 15.0205 16.7817 14.8579C16.6191 14.6954 16.6191 14.4341 16.6191 13.9109Z" stroke="white" stroke-width="0.832174" stroke-linejoin="round"/>
<path d="M16.6191 16.6846V17.7941M24.3861 16.6846V17.7941" stroke="white" stroke-width="0.832174" stroke-linecap="round"/>
<path d="M4.275 30.1933L3.665 33.6533H3.21L3.665 31.0733L2.06 33.6533H1.74L1.04 31.0833L0.585 33.6533H0.13L0.745 30.1933H1.235L2.01 33.0533L3.79 30.1933H4.275ZM5.23164 30.4683C5.15831 30.4683 5.09664 30.445 5.04664 30.3983C4.99997 30.3483 4.97664 30.2867 4.97664 30.2133C4.97664 30.1133 5.01331 30.0283 5.08664 29.9583C5.15997 29.885 5.24497 29.8483 5.34164 29.8483C5.41831 29.8483 5.47997 29.8717 5.52664 29.9183C5.57331 29.965 5.59664 30.0267 5.59664 30.1033C5.59664 30.2033 5.55997 30.29 5.48664 30.3633C5.41331 30.4333 5.32831 30.4683 5.23164 30.4683ZM5.37664 30.9133L4.89164 33.6533H4.43664L4.92164 30.9133H5.37664ZM5.73711 32.2783C5.78711 31.995 5.88711 31.7483 6.03711 31.5383C6.19044 31.325 6.37878 31.16 6.60211 31.0433C6.82544 30.9267 7.06711 30.8683 7.32711 30.8683C7.66378 30.8683 7.92544 30.95 8.11211 31.1133C8.30211 31.2767 8.40711 31.5033 8.42711 31.7933H7.93711C7.92044 31.6267 7.85211 31.495 7.73211 31.3983C7.61544 31.3017 7.45711 31.2533 7.25711 31.2533C6.99711 31.2533 6.77044 31.3433 6.57711 31.5233C6.38711 31.7 6.26378 31.9517 6.20711 32.2783C6.19044 32.3883 6.18211 32.48 6.18211 32.5533C6.18211 32.7967 6.24711 32.985 6.37711 33.1183C6.50711 33.2483 6.68044 33.3133 6.89711 33.3133C7.09711 33.3133 7.27044 33.2667 7.41711 33.1733C7.56711 33.08 7.68211 32.9467 7.76211 32.7733H8.25211C8.13211 33.0533 7.94711 33.2783 7.69711 33.4483C7.44711 33.615 7.15711 33.6983 6.82711 33.6983C6.48378 33.6983 6.21044 33.6 6.00711 33.4033C5.80711 33.2067 5.70711 32.9383 5.70711 32.5983C5.70711 32.495 5.71711 32.3883 5.73711 32.2783ZM9.55422 31.4333C9.66422 31.2533 9.80255 31.1133 9.96922 31.0133C10.1359 30.9133 10.3259 30.8633 10.5392 30.8633L10.4542 31.3333H10.3342C10.0976 31.3333 9.89922 31.3967 9.73922 31.5233C9.58255 31.65 9.47755 31.8633 9.42422 32.1633L9.15922 33.6533H8.70422L9.18922 30.9133H9.64422L9.55422 31.4333ZM11.7745 33.6983C11.5445 33.6983 11.3411 33.6517 11.1645 33.5583C10.9911 33.4617 10.8561 33.3283 10.7595 33.1583C10.6628 32.985 10.6145 32.785 10.6145 32.5583C10.6145 32.2483 10.6861 31.965 10.8295 31.7083C10.9728 31.4483 11.1695 31.2433 11.4195 31.0933C11.6728 30.9433 11.9545 30.8683 12.2645 30.8683C12.4945 30.8683 12.6978 30.9167 12.8745 31.0133C13.0545 31.1067 13.1928 31.24 13.2895 31.4133C13.3895 31.5833 13.4395 31.7833 13.4395 32.0133C13.4395 32.3233 13.3661 32.6067 13.2195 32.8633C13.0728 33.12 12.8728 33.3233 12.6195 33.4733C12.3661 33.6233 12.0845 33.6983 11.7745 33.6983ZM11.8295 33.3133C12.0461 33.3133 12.2411 33.255 12.4145 33.1383C12.5878 33.0183 12.7228 32.8617 12.8195 32.6683C12.9195 32.4717 12.9695 32.2617 12.9695 32.0383C12.9695 31.785 12.8961 31.5917 12.7495 31.4583C12.6028 31.3217 12.4195 31.2533 12.1995 31.2533C11.9828 31.2533 11.7895 31.3133 11.6195 31.4333C11.4495 31.55 11.3178 31.7067 11.2245 31.9033C11.1311 32.1 11.0845 32.3117 11.0845 32.5383C11.0845 32.785 11.1545 32.9767 11.2945 33.1133C11.4345 33.2467 11.6128 33.3133 11.8295 33.3133ZM17.9027 30.9133L16.5627 33.6533H16.0927L15.8227 31.4733L14.7727 33.6533H14.3027L13.9277 30.9133H14.3927L14.6177 33.2133L15.6977 30.9133H16.1677L16.4277 33.1983L17.4527 30.9133H17.9027ZM17.9393 32.2733C17.9893 31.9933 18.0893 31.7483 18.2393 31.5383C18.3926 31.325 18.5776 31.16 18.7943 31.0433C19.0143 30.9267 19.2476 30.8683 19.4943 30.8683C19.7343 30.8683 19.9326 30.92 20.0893 31.0233C20.2459 31.1267 20.3543 31.2567 20.4143 31.4133L20.5043 30.9133H20.9643L20.4793 33.6533H20.0193L20.1143 33.1433C19.9943 33.3033 19.8359 33.4367 19.6393 33.5433C19.4426 33.6467 19.2259 33.6983 18.9893 33.6983C18.7759 33.6983 18.5876 33.6533 18.4243 33.5633C18.2609 33.47 18.1343 33.3383 18.0443 33.1683C17.9543 32.9983 17.9093 32.8017 17.9093 32.5783C17.9093 32.4783 17.9193 32.3767 17.9393 32.2733ZM20.2643 32.2783C20.2776 32.2083 20.2843 32.1333 20.2843 32.0533C20.2843 31.81 20.2109 31.6183 20.0643 31.4783C19.9209 31.335 19.7376 31.2633 19.5143 31.2633C19.3443 31.2633 19.1809 31.3033 19.0243 31.3833C18.8709 31.4633 18.7393 31.58 18.6293 31.7333C18.5193 31.8867 18.4459 32.0667 18.4093 32.2733C18.3959 32.3433 18.3893 32.42 18.3893 32.5033C18.3893 32.75 18.4609 32.945 18.6043 33.0883C18.7476 33.2283 18.9309 33.2983 19.1543 33.2983C19.3243 33.2983 19.4859 33.2583 19.6393 33.1783C19.7959 33.095 19.9293 32.9767 20.0393 32.8233C20.1526 32.6667 20.2276 32.485 20.2643 32.2783ZM22.3432 33.2233L23.6032 30.9133H24.0932L22.5332 33.6533H21.9982L21.4082 30.9133H21.8982L22.3432 33.2233ZM25.7259 30.8683C25.9559 30.8683 26.1542 30.9133 26.3209 31.0033C26.4909 31.09 26.6192 31.2133 26.7059 31.3733C26.7959 31.53 26.8409 31.71 26.8409 31.9133C26.8409 31.9833 26.8326 32.0683 26.8159 32.1683C26.8026 32.255 26.7809 32.345 26.7509 32.4383H24.5609C24.5542 32.505 24.5509 32.5533 24.5509 32.5833C24.5509 32.8133 24.6192 32.9933 24.7559 33.1233C24.8959 33.25 25.0776 33.3133 25.3009 33.3133C25.4976 33.3133 25.6692 33.2683 25.8159 33.1783C25.9659 33.085 26.0792 32.9617 26.1559 32.8083H26.6459C26.5259 33.0717 26.3409 33.2867 26.0909 33.4533C25.8442 33.6167 25.5576 33.6983 25.2309 33.6983C24.8876 33.6983 24.6109 33.6 24.4009 33.4033C24.1942 33.2033 24.0909 32.9317 24.0909 32.5883C24.0909 32.4917 24.1009 32.3883 24.1209 32.2783C24.1709 31.995 24.2726 31.7467 24.4259 31.5333C24.5792 31.32 24.7676 31.1567 24.9909 31.0433C25.2176 30.9267 25.4626 30.8683 25.7259 30.8683ZM26.3559 32.1083C26.3659 32.0417 26.3709 31.98 26.3709 31.9233C26.3709 31.71 26.3026 31.545 26.1659 31.4283C26.0326 31.3117 25.8576 31.2533 25.6409 31.2533C25.4076 31.2533 25.1959 31.33 25.0059 31.4833C24.8159 31.6333 24.6876 31.8417 24.6209 32.1083H26.3559ZM29.4115 31.6283L29.3415 32.0133H27.3465L27.4165 31.6283H29.4115ZM30.8704 33.6983C30.5837 33.6983 30.3487 33.63 30.1654 33.4933C29.9821 33.3567 29.8904 33.1733 29.8904 32.9433C29.8904 32.9 29.8921 32.8683 29.8954 32.8483H30.3404C30.3271 32.9917 30.3687 33.1083 30.4654 33.1983C30.5654 33.2883 30.7087 33.3333 30.8954 33.3333C31.0821 33.3333 31.2321 33.2983 31.3454 33.2283C31.4621 33.155 31.5204 33.0533 31.5204 32.9233C31.5204 32.8133 31.4737 32.7267 31.3804 32.6633C31.2871 32.6 31.1437 32.5317 30.9504 32.4583C30.7804 32.395 30.6404 32.335 30.5304 32.2783C30.4204 32.2217 30.3271 32.1433 30.2504 32.0433C30.1737 31.94 30.1354 31.81 30.1354 31.6533C30.1354 31.5 30.1787 31.3633 30.2654 31.2433C30.3554 31.1233 30.4787 31.0317 30.6354 30.9683C30.7954 30.9017 30.9771 30.8683 31.1804 30.8683C31.4604 30.8683 31.6904 30.9383 31.8704 31.0783C32.0504 31.2183 32.1404 31.4017 32.1404 31.6283C32.1404 31.6717 32.1387 31.705 32.1354 31.7283H31.7004L31.7054 31.6683C31.7054 31.535 31.6537 31.43 31.5504 31.3533C31.4504 31.2733 31.3171 31.2333 31.1504 31.2333C30.9871 31.2333 30.8521 31.27 30.7454 31.3433C30.6421 31.4167 30.5904 31.515 30.5904 31.6383C30.5904 31.755 30.6387 31.8467 30.7354 31.9133C30.8321 31.98 30.9821 32.0533 31.1854 32.1333C31.3554 32.2 31.4921 32.2617 31.5954 32.3183C31.6987 32.3717 31.7871 32.4467 31.8604 32.5433C31.9337 32.64 31.9704 32.7617 31.9704 32.9083C31.9704 33.0683 31.9221 33.2083 31.8254 33.3283C31.7321 33.4483 31.6021 33.54 31.4354 33.6033C31.2687 33.6667 31.0804 33.6983 30.8704 33.6983ZM32.5877 32.2733C32.6377 31.9933 32.7377 31.7483 32.8877 31.5383C33.041 31.325 33.226 31.16 33.4427 31.0433C33.6627 30.9267 33.896 30.8683 34.1427 30.8683C34.3827 30.8683 34.581 30.92 34.7377 31.0233C34.8944 31.1267 35.0027 31.2567 35.0627 31.4133L35.1527 30.9133H35.6127L35.1277 33.6533H34.6677L34.7627 33.1433C34.6427 33.3033 34.4844 33.4367 34.2877 33.5433C34.091 33.6467 33.8744 33.6983 33.6377 33.6983C33.4244 33.6983 33.236 33.6533 33.0727 33.5633C32.9094 33.47 32.7827 33.3383 32.6927 33.1683C32.6027 32.9983 32.5577 32.8017 32.5577 32.5783C32.5577 32.4783 32.5677 32.3767 32.5877 32.2733ZM34.9127 32.2783C34.926 32.2083 34.9327 32.1333 34.9327 32.0533C34.9327 31.81 34.8594 31.6183 34.7127 31.4783C34.5694 31.335 34.386 31.2633 34.1627 31.2633C33.9927 31.2633 33.8294 31.3033 33.6727 31.3833C33.5194 31.4633 33.3877 31.58 33.2777 31.7333C33.1677 31.8867 33.0944 32.0667 33.0577 32.2733C33.0444 32.3433 33.0377 32.42 33.0377 32.5033C33.0377 32.75 33.1094 32.945 33.2527 33.0883C33.396 33.2283 33.5794 33.2983 33.8027 33.2983C33.9727 33.2983 34.1344 33.2583 34.2877 33.1783C34.4444 33.095 34.5777 32.9767 34.6877 32.8233C34.801 32.6667 34.876 32.485 34.9127 32.2783ZM37.5916 30.2133C37.3883 30.2133 37.2383 30.2533 37.1416 30.3333C37.0483 30.41 36.9866 30.5383 36.9566 30.7183L36.9216 30.9133H37.4966L37.4316 31.2883H36.8566L36.4366 33.6533H35.9816L36.3966 31.2883H36.0466L36.1116 30.9133H36.4616L36.4966 30.7183C36.5533 30.4117 36.6733 30.1883 36.8566 30.0483C37.0399 29.905 37.3066 29.8333 37.6566 29.8333L37.5916 30.2133ZM39.2171 30.8683C39.4471 30.8683 39.6454 30.9133 39.8121 31.0033C39.9821 31.09 40.1104 31.2133 40.1971 31.3733C40.2871 31.53 40.3321 31.71 40.3321 31.9133C40.3321 31.9833 40.3238 32.0683 40.3071 32.1683C40.2938 32.255 40.2721 32.345 40.2421 32.4383H38.0521C38.0454 32.505 38.0421 32.5533 38.0421 32.5833C38.0421 32.8133 38.1104 32.9933 38.2471 33.1233C38.3871 33.25 38.5688 33.3133 38.7921 33.3133C38.9888 33.3133 39.1604 33.2683 39.3071 33.1783C39.4571 33.085 39.5704 32.9617 39.6471 32.8083H40.1371C40.0171 33.0717 39.8321 33.2867 39.5821 33.4533C39.3354 33.6167 39.0488 33.6983 38.7221 33.6983C38.3788 33.6983 38.1021 33.6 37.8921 33.4033C37.6854 33.2033 37.5821 32.9317 37.5821 32.5883C37.5821 32.4917 37.5921 32.3883 37.6121 32.2783C37.6621 31.995 37.7638 31.7467 37.9171 31.5333C38.0704 31.32 38.2588 31.1567 38.4821 31.0433C38.7088 30.9267 38.9538 30.8683 39.2171 30.8683ZM39.8471 32.1083C39.8571 32.0417 39.8621 31.98 39.8621 31.9233C39.8621 31.71 39.7938 31.545 39.6571 31.4283C39.5238 31.3117 39.3488 31.2533 39.1321 31.2533C38.8988 31.2533 38.6871 31.33 38.4971 31.4833C38.3071 31.6333 38.1788 31.8417 38.1121 32.1083H39.8471Z" fill="white"/>
<line x1="52.7787" y1="5.02441" x2="52.7787" y2="30.6298" stroke="white" stroke-width="1.02421"/>
<g clip-path="url(#clip0_1486_2589)">
<path d="M77.8281 7.25391L79.5351 8.96093M79.5351 8.96093L81.2422 7.25391M79.5351 8.96093V16.6425M73.9873 14.5088L75.6943 12.8017M75.6943 12.8017L73.9873 11.0947M75.6943 12.8017H83.3759M81.2422 18.3496L79.5351 16.6425M79.5351 16.6425L77.8281 18.3496M85.083 11.0947L83.3759 12.8017M83.3759 12.8017L85.083 14.5088M76.5478 9.81444L77.8281 11.0947M77.8281 14.5088L76.5478 15.789M82.5224 9.81444L81.2422 11.0947M81.2422 14.5088L82.5224 15.789" stroke="white" stroke-width="0.713292" stroke-linecap="round" stroke-linejoin="round"/>
</g>
<path d="M66.2482 30.1683L66.1832 30.5233H64.6732L64.4632 31.7183H65.6932L65.6282 32.0733H64.3982L64.1182 33.6533H63.6632L64.2832 30.1683H66.2482ZM67.0327 31.4333C67.1427 31.2533 67.2811 31.1133 67.4477 31.0133C67.6144 30.9133 67.8044 30.8633 68.0177 30.8633L67.9327 31.3333H67.8127C67.5761 31.3333 67.3777 31.3967 67.2177 31.5233C67.0611 31.65 66.9561 31.8633 66.9027 32.1633L66.6377 33.6533H66.1827L66.6677 30.9133H67.1227L67.0327 31.4333ZM69.723 30.8683C69.953 30.8683 70.1513 30.9133 70.318 31.0033C70.488 31.09 70.6163 31.2133 70.703 31.3733C70.793 31.53 70.838 31.71 70.838 31.9133C70.838 31.9833 70.8296 32.0683 70.813 32.1683C70.7996 32.255 70.778 32.345 70.748 32.4383H68.558C68.5513 32.505 68.548 32.5533 68.548 32.5833C68.548 32.8133 68.6163 32.9933 68.753 33.1233C68.893 33.25 69.0746 33.3133 69.298 33.3133C69.4946 33.3133 69.6663 33.2683 69.813 33.1783C69.963 33.085 70.0763 32.9617 70.153 32.8083H70.643C70.523 33.0717 70.338 33.2867 70.088 33.4533C69.8413 33.6167 69.5546 33.6983 69.228 33.6983C68.8846 33.6983 68.608 33.6 68.398 33.4033C68.1913 33.2033 68.088 32.9317 68.088 32.5883C68.088 32.4917 68.098 32.3883 68.118 32.2783C68.168 31.995 68.2696 31.7467 68.423 31.5333C68.5763 31.32 68.7646 31.1567 68.988 31.0433C69.2146 30.9267 69.4596 30.8683 69.723 30.8683ZM70.353 32.1083C70.363 32.0417 70.368 31.98 70.368 31.9233C70.368 31.71 70.2996 31.545 70.163 31.4283C70.0296 31.3117 69.8546 31.2533 69.638 31.2533C69.4046 31.2533 69.193 31.33 69.003 31.4833C68.813 31.6333 68.6846 31.8417 68.618 32.1083H70.353ZM72.8236 30.8683C73.0536 30.8683 73.2519 30.9133 73.4186 31.0033C73.5886 31.09 73.7169 31.2133 73.8036 31.3733C73.8936 31.53 73.9386 31.71 73.9386 31.9133C73.9386 31.9833 73.9302 32.0683 73.9136 32.1683C73.9002 32.255 73.8786 32.345 73.8486 32.4383H71.6586C71.6519 32.505 71.6486 32.5533 71.6486 32.5833C71.6486 32.8133 71.7169 32.9933 71.8536 33.1233C71.9936 33.25 72.1752 33.3133 72.3986 33.3133C72.5952 33.3133 72.7669 33.2683 72.9136 33.1783C73.0636 33.085 73.1769 32.9617 73.2536 32.8083H73.7436C73.6236 33.0717 73.4386 33.2867 73.1886 33.4533C72.9419 33.6167 72.6552 33.6983 72.3286 33.6983C71.9852 33.6983 71.7086 33.6 71.4986 33.4033C71.2919 33.2033 71.1886 32.9317 71.1886 32.5883C71.1886 32.4917 71.1986 32.3883 71.2186 32.2783C71.2686 31.995 71.3702 31.7467 71.5236 31.5333C71.6769 31.32 71.8652 31.1567 72.0886 31.0433C72.3152 30.9267 72.5602 30.8683 72.8236 30.8683ZM73.4536 32.1083C73.4636 32.0417 73.4686 31.98 73.4686 31.9233C73.4686 31.71 73.4002 31.545 73.2636 31.4283C73.1302 31.3117 72.9552 31.2533 72.7386 31.2533C72.5052 31.2533 72.2936 31.33 72.1036 31.4833C71.9136 31.6333 71.7852 31.8417 71.7186 32.1083H73.4536ZM74.6591 33.2783H76.0041L75.9341 33.6533H74.0691L74.1341 33.2783L75.8191 31.2833H74.4991L74.5641 30.9133H76.4041L76.3391 31.2833L74.6591 33.2783ZM78.1995 30.8683C78.4295 30.8683 78.6279 30.9133 78.7945 31.0033C78.9645 31.09 79.0929 31.2133 79.1795 31.3733C79.2695 31.53 79.3145 31.71 79.3145 31.9133C79.3145 31.9833 79.3062 32.0683 79.2895 32.1683C79.2762 32.255 79.2545 32.345 79.2245 32.4383H77.0345C77.0279 32.505 77.0245 32.5533 77.0245 32.5833C77.0245 32.8133 77.0929 32.9933 77.2295 33.1233C77.3695 33.25 77.5512 33.3133 77.7745 33.3133C77.9712 33.3133 78.1429 33.2683 78.2895 33.1783C78.4395 33.085 78.5529 32.9617 78.6295 32.8083H79.1195C78.9995 33.0717 78.8145 33.2867 78.5645 33.4533C78.3179 33.6167 78.0312 33.6983 77.7045 33.6983C77.3612 33.6983 77.0845 33.6 76.8745 33.4033C76.6679 33.2033 76.5645 32.9317 76.5645 32.5883C76.5645 32.4917 76.5745 32.3883 76.5945 32.2783C76.6445 31.995 76.7462 31.7467 76.8995 31.5333C77.0529 31.32 77.2412 31.1567 77.4645 31.0433C77.6912 30.9267 77.9362 30.8683 78.1995 30.8683ZM78.8295 32.1083C78.8395 32.0417 78.8445 31.98 78.8445 31.9233C78.8445 31.71 78.7762 31.545 78.6395 31.4283C78.5062 31.3117 78.3312 31.2533 78.1145 31.2533C77.8812 31.2533 77.6695 31.33 77.4795 31.4833C77.2895 31.6333 77.1612 31.8417 77.0945 32.1083H78.8295ZM80.4751 31.4333C80.5851 31.2533 80.7235 31.1133 80.8901 31.0133C81.0568 30.9133 81.2468 30.8633 81.4601 30.8633L81.3751 31.3333H81.2551C81.0185 31.3333 80.8201 31.3967 80.6601 31.5233C80.5035 31.65 80.3985 31.8633 80.3451 32.1633L80.0801 33.6533H79.6251L80.1101 30.9133H80.5651L80.4751 31.4333ZM83.7504 31.6283L83.6804 32.0133H81.6854L81.7554 31.6283H83.7504ZM85.2093 33.6983C84.9226 33.6983 84.6876 33.63 84.5043 33.4933C84.3209 33.3567 84.2293 33.1733 84.2293 32.9433C84.2293 32.9 84.2309 32.8683 84.2343 32.8483H84.6793C84.6659 32.9917 84.7076 33.1083 84.8043 33.1983C84.9043 33.2883 85.0476 33.3333 85.2343 33.3333C85.4209 33.3333 85.5709 33.2983 85.6843 33.2283C85.8009 33.155 85.8593 33.0533 85.8593 32.9233C85.8593 32.8133 85.8126 32.7267 85.7193 32.6633C85.6259 32.6 85.4826 32.5317 85.2893 32.4583C85.1193 32.395 84.9793 32.335 84.8693 32.2783C84.7593 32.2217 84.6659 32.1433 84.5893 32.0433C84.5126 31.94 84.4743 31.81 84.4743 31.6533C84.4743 31.5 84.5176 31.3633 84.6043 31.2433C84.6943 31.1233 84.8176 31.0317 84.9743 30.9683C85.1343 30.9017 85.3159 30.8683 85.5193 30.8683C85.7993 30.8683 86.0293 30.9383 86.2093 31.0783C86.3893 31.2183 86.4793 31.4017 86.4793 31.6283C86.4793 31.6717 86.4776 31.705 86.4743 31.7283H86.0393L86.0443 31.6683C86.0443 31.535 85.9926 31.43 85.8893 31.3533C85.7893 31.2733 85.6559 31.2333 85.4893 31.2333C85.3259 31.2333 85.1909 31.27 85.0843 31.3433C84.9809 31.4167 84.9293 31.515 84.9293 31.6383C84.9293 31.755 84.9776 31.8467 85.0743 31.9133C85.1709 31.98 85.3209 32.0533 85.5243 32.1333C85.6943 32.2 85.8309 32.2617 85.9343 32.3183C86.0376 32.3717 86.1259 32.4467 86.1993 32.5433C86.2726 32.64 86.3093 32.7617 86.3093 32.9083C86.3093 33.0683 86.2609 33.2083 86.1643 33.3283C86.0709 33.4483 85.9409 33.54 85.7743 33.6033C85.6076 33.6667 85.4193 33.6983 85.2093 33.6983ZM86.9266 32.2733C86.9766 31.9933 87.0766 31.7483 87.2266 31.5383C87.3799 31.325 87.5649 31.16 87.7816 31.0433C88.0016 30.9267 88.2349 30.8683 88.4816 30.8683C88.7216 30.8683 88.9199 30.92 89.0766 31.0233C89.2332 31.1267 89.3416 31.2567 89.4016 31.4133L89.4916 30.9133H89.9516L89.4666 33.6533H89.0066L89.1016 33.1433C88.9816 33.3033 88.8232 33.4367 88.6266 33.5433C88.4299 33.6467 88.2132 33.6983 87.9766 33.6983C87.7632 33.6983 87.5749 33.6533 87.4116 33.5633C87.2482 33.47 87.1216 33.3383 87.0316 33.1683C86.9416 32.9983 86.8966 32.8017 86.8966 32.5783C86.8966 32.4783 86.9066 32.3767 86.9266 32.2733ZM89.2516 32.2783C89.2649 32.2083 89.2716 32.1333 89.2716 32.0533C89.2716 31.81 89.1982 31.6183 89.0516 31.4783C88.9082 31.335 88.7249 31.2633 88.5016 31.2633C88.3316 31.2633 88.1682 31.3033 88.0116 31.3833C87.8582 31.4633 87.7266 31.58 87.6166 31.7333C87.5066 31.8867 87.4332 32.0667 87.3966 32.2733C87.3832 32.3433 87.3766 32.42 87.3766 32.5033C87.3766 32.75 87.4482 32.945 87.5916 33.0883C87.7349 33.2283 87.9182 33.2983 88.1416 33.2983C88.3116 33.2983 88.4732 33.2583 88.6266 33.1783C88.7832 33.095 88.9166 32.9767 89.0266 32.8233C89.1399 32.6667 89.2149 32.485 89.2516 32.2783ZM91.9305 30.2133C91.7271 30.2133 91.5771 30.2533 91.4805 30.3333C91.3871 30.41 91.3255 30.5383 91.2955 30.7183L91.2605 30.9133H91.8355L91.7705 31.2883H91.1955L90.7755 33.6533H90.3205L90.7355 31.2883H90.3855L90.4505 30.9133H90.8005L90.8355 30.7183C90.8921 30.4117 91.0121 30.1883 91.1955 30.0483C91.3788 29.905 91.6455 29.8333 91.9955 29.8333L91.9305 30.2133ZM93.556 30.8683C93.786 30.8683 93.9843 30.9133 94.151 31.0033C94.321 31.09 94.4493 31.2133 94.536 31.3733C94.626 31.53 94.671 31.71 94.671 31.9133C94.671 31.9833 94.6626 32.0683 94.646 32.1683C94.6326 32.255 94.611 32.345 94.581 32.4383H92.391C92.3843 32.505 92.381 32.5533 92.381 32.5833C92.381 32.8133 92.4493 32.9933 92.586 33.1233C92.726 33.25 92.9076 33.3133 93.131 33.3133C93.3276 33.3133 93.4993 33.2683 93.646 33.1783C93.796 33.085 93.9093 32.9617 93.986 32.8083H94.476C94.356 33.0717 94.171 33.2867 93.921 33.4533C93.6743 33.6167 93.3876 33.6983 93.061 33.6983C92.7176 33.6983 92.441 33.6 92.231 33.4033C92.0243 33.2033 91.921 32.9317 91.921 32.5883C91.921 32.4917 91.931 32.3883 91.951 32.2783C92.001 31.995 92.1026 31.7467 92.256 31.5333C92.4093 31.32 92.5976 31.1567 92.821 31.0433C93.0476 30.9267 93.2926 30.8683 93.556 30.8683ZM94.186 32.1083C94.196 32.0417 94.201 31.98 94.201 31.9233C94.201 31.71 94.1326 31.545 93.996 31.4283C93.8626 31.3117 93.6876 31.2533 93.471 31.2533C93.2376 31.2533 93.026 31.33 92.836 31.4833C92.646 31.6333 92.5176 31.8417 92.451 32.1083H94.186Z" fill="white"/>
<line x1="107.311" y1="5.02441" x2="107.311" y2="30.6298" stroke="white" stroke-width="1.02421"/>
<g clip-path="url(#clip1_1486_2589)">
<path d="M149.746 14.4181C149.248 14.7213 148.675 14.8808 148.091 14.8789C147.602 14.8751 147.118 14.775 146.668 14.5846C146.321 15.0747 146.135 15.6608 146.136 16.2614V17.7952C146.136 17.8522 146.125 17.9087 146.102 17.9611C146.08 18.0134 146.046 18.0606 146.005 18.0996C145.963 18.1386 145.914 18.1687 145.86 18.1879C145.807 18.2071 145.75 18.2151 145.693 18.2113C145.586 18.202 145.486 18.1526 145.414 18.073C145.342 17.9934 145.303 17.8895 145.304 17.7822V17.1352L143.296 15.1265C142.997 15.2379 142.681 15.2962 142.362 15.2987C141.924 15.2998 141.493 15.1798 141.118 14.9518C139.985 14.2631 139.375 12.6784 139.493 10.7108C139.499 10.609 139.542 10.5129 139.614 10.4408C139.686 10.3687 139.782 10.3256 139.884 10.3197C141.852 10.2037 143.436 10.8117 144.123 11.945C144.393 12.3892 144.51 12.9092 144.458 13.4263C144.455 13.4663 144.44 13.5046 144.416 13.5365C144.391 13.5683 144.358 13.5924 144.32 13.6057C144.282 13.6191 144.241 13.6212 144.202 13.6118C144.163 13.6024 144.128 13.5818 144.1 13.5527L143.102 12.5072C143.023 12.4325 142.918 12.3915 142.81 12.3928C142.701 12.3942 142.597 12.4379 142.521 12.5147C142.444 12.5914 142.4 12.6951 142.399 12.8036C142.397 12.9121 142.439 13.0168 142.513 13.0955L145.316 15.9691C145.319 15.9285 145.322 15.8879 145.327 15.8479C145.418 15.0764 145.758 14.3558 146.296 13.7956L148.927 11.015C149.005 10.937 149.049 10.8312 149.049 10.7208C149.049 10.6105 149.006 10.5046 148.928 10.4265C148.849 10.3485 148.744 10.3046 148.633 10.3045C148.523 10.3045 148.417 10.3483 148.339 10.4263L145.79 13.1215C145.765 13.1485 145.733 13.1682 145.697 13.1785C145.661 13.1888 145.623 13.1894 145.587 13.1802C145.551 13.1709 145.519 13.1522 145.492 13.126C145.466 13.0998 145.447 13.067 145.438 13.031C145.191 12.1218 145.3 11.2168 145.771 10.4398C146.7 8.90653 148.861 8.08579 151.553 8.24391C151.655 8.24985 151.751 8.29297 151.823 8.36507C151.895 8.43717 151.938 8.53324 151.944 8.63503C152.1 11.3276 151.28 13.4892 149.746 14.4181Z" fill="white"/>
</g>
<path d="M121.934 30.1683L121.869 30.5233H120.359L120.149 31.7183H121.379L121.314 32.0733H120.084L119.804 33.6533H119.349L119.969 30.1683H121.934ZM123.073 33.6983C122.843 33.6983 122.64 33.6517 122.463 33.5583C122.29 33.4617 122.155 33.3283 122.058 33.1583C121.962 32.985 121.913 32.785 121.913 32.5583C121.913 32.2483 121.985 31.965 122.128 31.7083C122.272 31.4483 122.468 31.2433 122.718 31.0933C122.972 30.9433 123.253 30.8683 123.563 30.8683C123.793 30.8683 123.997 30.9167 124.173 31.0133C124.353 31.1067 124.492 31.24 124.588 31.4133C124.688 31.5833 124.738 31.7833 124.738 32.0133C124.738 32.3233 124.665 32.6067 124.518 32.8633C124.372 33.12 124.172 33.3233 123.918 33.4733C123.665 33.6233 123.383 33.6983 123.073 33.6983ZM123.128 33.3133C123.345 33.3133 123.54 33.255 123.713 33.1383C123.887 33.0183 124.022 32.8617 124.118 32.6683C124.218 32.4717 124.268 32.2617 124.268 32.0383C124.268 31.785 124.195 31.5917 124.048 31.4583C123.902 31.3217 123.718 31.2533 123.498 31.2533C123.282 31.2533 123.088 31.3133 122.918 31.4333C122.748 31.55 122.617 31.7067 122.523 31.9033C122.43 32.1 122.383 32.3117 122.383 32.5383C122.383 32.785 122.453 32.9767 122.593 33.1133C122.733 33.2467 122.912 33.3133 123.128 33.3133ZM126.272 33.6983C126.042 33.6983 125.838 33.6517 125.662 33.5583C125.488 33.4617 125.353 33.3283 125.257 33.1583C125.16 32.985 125.112 32.785 125.112 32.5583C125.112 32.2483 125.183 31.965 125.327 31.7083C125.47 31.4483 125.667 31.2433 125.917 31.0933C126.17 30.9433 126.452 30.8683 126.762 30.8683C126.992 30.8683 127.195 30.9167 127.372 31.0133C127.552 31.1067 127.69 31.24 127.787 31.4133C127.887 31.5833 127.937 31.7833 127.937 32.0133C127.937 32.3233 127.863 32.6067 127.717 32.8633C127.57 33.12 127.37 33.3233 127.117 33.4733C126.863 33.6233 126.582 33.6983 126.272 33.6983ZM126.327 33.3133C126.543 33.3133 126.738 33.255 126.912 33.1383C127.085 33.0183 127.22 32.8617 127.317 32.6683C127.417 32.4717 127.467 32.2617 127.467 32.0383C127.467 31.785 127.393 31.5917 127.247 31.4583C127.1 31.3217 126.917 31.2533 126.697 31.2533C126.48 31.2533 126.287 31.3133 126.117 31.4333C125.947 31.55 125.815 31.7067 125.722 31.9033C125.628 32.1 125.582 32.3117 125.582 32.5383C125.582 32.785 125.652 32.9767 125.792 33.1133C125.932 33.2467 126.11 33.3133 126.327 33.3133ZM128.335 32.2733C128.385 31.9933 128.485 31.7483 128.635 31.5383C128.788 31.325 128.975 31.16 129.195 31.0433C129.415 30.9267 129.648 30.8683 129.895 30.8683C130.105 30.8683 130.293 30.9183 130.46 31.0183C130.626 31.115 130.745 31.2433 130.815 31.4033L131.07 29.9533H131.53L130.875 33.6533H130.415L130.51 33.1383C130.393 33.3017 130.236 33.4367 130.04 33.5433C129.843 33.6467 129.626 33.6983 129.39 33.6983C129.176 33.6983 128.988 33.6533 128.825 33.5633C128.661 33.47 128.533 33.3383 128.44 33.1683C128.35 32.9983 128.305 32.8017 128.305 32.5783C128.305 32.4783 128.315 32.3767 128.335 32.2733ZM130.66 32.2783C130.673 32.2083 130.68 32.1333 130.68 32.0533C130.68 31.81 130.606 31.6183 130.46 31.4783C130.316 31.335 130.133 31.2633 129.91 31.2633C129.74 31.2633 129.576 31.3033 129.42 31.3833C129.266 31.4633 129.135 31.58 129.025 31.7333C128.915 31.8867 128.841 32.0667 128.805 32.2733C128.791 32.3433 128.785 32.42 128.785 32.5033C128.785 32.75 128.856 32.945 129 33.0883C129.143 33.2283 129.326 33.2983 129.55 33.2983C129.72 33.2983 129.881 33.2583 130.035 33.1783C130.191 33.095 130.325 32.9767 130.435 32.8233C130.548 32.6667 130.623 32.485 130.66 32.2783ZM133.904 31.6283L133.834 32.0133H131.839L131.909 31.6283H133.904ZM136.023 30.8683C136.259 30.8683 136.458 30.92 136.618 31.0233C136.778 31.1267 136.886 31.2567 136.943 31.4133L137.033 30.9133H137.493L136.998 33.7133C136.954 33.9633 136.861 34.185 136.718 34.3783C136.578 34.575 136.399 34.7283 136.183 34.8383C135.966 34.9483 135.726 35.0033 135.463 35.0033C135.103 35.0033 134.818 34.9167 134.608 34.7433C134.398 34.5733 134.296 34.3433 134.303 34.0533H134.758C134.778 34.22 134.856 34.3533 134.993 34.4533C135.133 34.5567 135.313 34.6083 135.533 34.6083C135.783 34.6083 136.001 34.53 136.188 34.3733C136.374 34.2167 136.493 33.9967 136.543 33.7133L136.643 33.1383C136.523 33.2983 136.364 33.4317 136.168 33.5383C135.974 33.645 135.759 33.6983 135.523 33.6983C135.309 33.6983 135.121 33.6533 134.958 33.5633C134.794 33.47 134.666 33.3383 134.573 33.1683C134.483 32.9983 134.438 32.8017 134.438 32.5783C134.438 32.4783 134.448 32.3767 134.468 32.2733C134.518 31.9933 134.618 31.7483 134.768 31.5383C134.921 31.325 135.106 31.16 135.323 31.0433C135.543 30.9267 135.776 30.8683 136.023 30.8683ZM136.793 32.2783C136.806 32.2083 136.813 32.1333 136.813 32.0533C136.813 31.81 136.739 31.6183 136.593 31.4783C136.449 31.335 136.266 31.2633 136.043 31.2633C135.873 31.2633 135.709 31.3033 135.553 31.3833C135.399 31.4633 135.268 31.58 135.158 31.7333C135.048 31.8867 134.974 32.0667 134.938 32.2733C134.924 32.3433 134.918 32.42 134.918 32.5033C134.918 32.75 134.989 32.945 135.133 33.0883C135.276 33.2283 135.459 33.2983 135.683 33.2983C135.853 33.2983 136.014 33.2583 136.168 33.1783C136.324 33.095 136.458 32.9767 136.568 32.8233C136.681 32.6667 136.756 32.485 136.793 32.2783ZM138.626 31.4333C138.736 31.2533 138.875 31.1133 139.041 31.0133C139.208 30.9133 139.398 30.8633 139.611 30.8633L139.526 31.3333H139.406C139.17 31.3333 138.971 31.3967 138.811 31.5233C138.655 31.65 138.55 31.8633 138.496 32.1633L138.231 33.6533H137.776L138.261 30.9133H138.716L138.626 31.4333ZM139.712 32.2733C139.762 31.9933 139.862 31.7483 140.012 31.5383C140.165 31.325 140.35 31.16 140.567 31.0433C140.787 30.9267 141.02 30.8683 141.267 30.8683C141.507 30.8683 141.705 30.92 141.862 31.0233C142.018 31.1267 142.127 31.2567 142.187 31.4133L142.277 30.9133H142.737L142.252 33.6533H141.792L141.887 33.1433C141.767 33.3033 141.608 33.4367 141.412 33.5433C141.215 33.6467 140.998 33.6983 140.762 33.6983C140.548 33.6983 140.36 33.6533 140.197 33.5633C140.033 33.47 139.907 33.3383 139.817 33.1683C139.727 32.9983 139.682 32.8017 139.682 32.5783C139.682 32.4783 139.692 32.3767 139.712 32.2733ZM142.037 32.2783C142.05 32.2083 142.057 32.1333 142.057 32.0533C142.057 31.81 141.983 31.6183 141.837 31.4783C141.693 31.335 141.51 31.2633 141.287 31.2633C141.117 31.2633 140.953 31.3033 140.797 31.3833C140.643 31.4633 140.512 31.58 140.402 31.7333C140.292 31.8867 140.218 32.0667 140.182 32.2733C140.168 32.3433 140.162 32.42 140.162 32.5033C140.162 32.75 140.233 32.945 140.377 33.0883C140.52 33.2283 140.703 33.2983 140.927 33.2983C141.097 33.2983 141.258 33.2583 141.412 33.1783C141.568 33.095 141.702 32.9767 141.812 32.8233C141.925 32.6667 142 32.485 142.037 32.2783ZM143.091 32.2733C143.141 31.9933 143.241 31.7483 143.391 31.5383C143.544 31.325 143.731 31.16 143.951 31.0433C144.171 30.9267 144.404 30.8683 144.651 30.8683C144.861 30.8683 145.049 30.9183 145.216 31.0183C145.382 31.115 145.501 31.2433 145.571 31.4033L145.826 29.9533H146.286L145.631 33.6533H145.171L145.266 33.1383C145.149 33.3017 144.992 33.4367 144.796 33.5433C144.599 33.6467 144.382 33.6983 144.146 33.6983C143.932 33.6983 143.744 33.6533 143.581 33.5633C143.417 33.47 143.289 33.3383 143.196 33.1683C143.106 32.9983 143.061 32.8017 143.061 32.5783C143.061 32.4783 143.071 32.3767 143.091 32.2733ZM145.416 32.2783C145.429 32.2083 145.436 32.1333 145.436 32.0533C145.436 31.81 145.362 31.6183 145.216 31.4783C145.072 31.335 144.889 31.2633 144.666 31.2633C144.496 31.2633 144.332 31.3033 144.176 31.3833C144.022 31.4633 143.891 31.58 143.781 31.7333C143.671 31.8867 143.597 32.0667 143.561 32.2733C143.547 32.3433 143.541 32.42 143.541 32.5033C143.541 32.75 143.612 32.945 143.756 33.0883C143.899 33.2283 144.082 33.2983 144.306 33.2983C144.476 33.2983 144.637 33.2583 144.791 33.1783C144.947 33.095 145.081 32.9767 145.191 32.8233C145.304 32.6667 145.379 32.485 145.416 32.2783ZM148.075 30.8683C148.305 30.8683 148.503 30.9133 148.67 31.0033C148.84 31.09 148.968 31.2133 149.055 31.3733C149.145 31.53 149.19 31.71 149.19 31.9133C149.19 31.9833 149.181 32.0683 149.165 32.1683C149.151 32.255 149.13 32.345 149.1 32.4383H146.91C146.903 32.505 146.9 32.5533 146.9 32.5833C146.9 32.8133 146.968 32.9933 147.105 33.1233C147.245 33.25 147.426 33.3133 147.65 33.3133C147.846 33.3133 148.018 33.2683 148.165 33.1783C148.315 33.085 148.428 32.9617 148.505 32.8083H148.995C148.875 33.0717 148.69 33.2867 148.44 33.4533C148.193 33.6167 147.906 33.6983 147.58 33.6983C147.236 33.6983 146.96 33.6 146.75 33.4033C146.543 33.2033 146.44 32.9317 146.44 32.5883C146.44 32.4917 146.45 32.3883 146.47 32.2783C146.52 31.995 146.621 31.7467 146.775 31.5333C146.928 31.32 147.116 31.1567 147.34 31.0433C147.566 30.9267 147.811 30.8683 148.075 30.8683ZM148.705 32.1083C148.715 32.0417 148.72 31.98 148.72 31.9233C148.72 31.71 148.651 31.545 148.515 31.4283C148.381 31.3117 148.206 31.2533 147.99 31.2533C147.756 31.2533 147.545 31.33 147.355 31.4833C147.165 31.6333 147.036 31.8417 146.97 32.1083H148.705ZM154.779 30.8633C155.059 30.8633 155.283 30.94 155.449 31.0933C155.619 31.2433 155.704 31.4633 155.704 31.7533C155.704 31.86 155.696 31.955 155.679 32.0383L155.394 33.6533H154.944L155.219 32.1033C155.233 32.0333 155.239 31.9583 155.239 31.8783C155.239 31.675 155.184 31.5217 155.074 31.4183C154.968 31.3117 154.816 31.2583 154.619 31.2583C154.393 31.2583 154.198 31.3283 154.034 31.4683C153.874 31.605 153.764 31.8033 153.704 32.0633L153.419 33.6533H152.969L153.244 32.1033C153.258 32.0267 153.264 31.95 153.264 31.8733C153.264 31.6733 153.209 31.5217 153.099 31.4183C152.993 31.3117 152.841 31.2583 152.644 31.2583C152.408 31.2583 152.206 31.335 152.039 31.4883C151.873 31.6383 151.764 31.8567 151.714 32.1433V32.1333L151.444 33.6533H150.989L151.474 30.9133H151.929L151.859 31.3083C151.973 31.165 152.113 31.055 152.279 30.9783C152.446 30.9017 152.621 30.8633 152.804 30.8633C153.034 30.8633 153.228 30.915 153.384 31.0183C153.544 31.1217 153.649 31.2733 153.699 31.4733C153.813 31.28 153.966 31.13 154.159 31.0233C154.356 30.9167 154.563 30.8633 154.779 30.8633ZM156.211 32.2733C156.261 31.9933 156.361 31.7483 156.511 31.5383C156.664 31.325 156.849 31.16 157.066 31.0433C157.286 30.9267 157.519 30.8683 157.766 30.8683C158.006 30.8683 158.204 30.92 158.361 31.0233C158.517 31.1267 158.626 31.2567 158.686 31.4133L158.776 30.9133H159.236L158.751 33.6533H158.291L158.386 33.1433C158.266 33.3033 158.107 33.4367 157.911 33.5433C157.714 33.6467 157.497 33.6983 157.261 33.6983C157.047 33.6983 156.859 33.6533 156.696 33.5633C156.532 33.47 156.406 33.3383 156.316 33.1683C156.226 32.9983 156.181 32.8017 156.181 32.5783C156.181 32.4783 156.191 32.3767 156.211 32.2733ZM158.536 32.2783C158.549 32.2083 158.556 32.1333 158.556 32.0533C158.556 31.81 158.482 31.6183 158.336 31.4783C158.192 31.335 158.009 31.2633 157.786 31.2633C157.616 31.2633 157.452 31.3033 157.296 31.3833C157.142 31.4633 157.011 31.58 156.901 31.7333C156.791 31.8867 156.717 32.0667 156.681 32.2733C156.667 32.3433 156.661 32.42 156.661 32.5033C156.661 32.75 156.732 32.945 156.876 33.0883C157.019 33.2283 157.202 33.2983 157.426 33.2983C157.596 33.2983 157.757 33.2583 157.911 33.1783C158.067 33.095 158.201 32.9767 158.311 32.8233C158.424 32.6667 158.499 32.485 158.536 32.2783ZM160.21 32.9033C160.2 32.9533 160.195 32.9967 160.195 33.0333C160.195 33.1167 160.22 33.1767 160.27 33.2133C160.323 33.25 160.408 33.2683 160.525 33.2683H160.86L160.79 33.6533H160.38C160.163 33.6533 160 33.6117 159.89 33.5283C159.783 33.445 159.73 33.3083 159.73 33.1183C159.73 33.045 159.736 32.9733 159.75 32.9033L160.035 31.2883H159.685L159.75 30.9133H160.105L160.225 30.2233H160.685L160.565 30.9133H161.275L161.21 31.2883H160.495L160.21 32.9033ZM163.016 30.8683C163.246 30.8683 163.444 30.9133 163.611 31.0033C163.781 31.09 163.909 31.2133 163.996 31.3733C164.086 31.53 164.131 31.71 164.131 31.9133C164.131 31.9833 164.123 32.0683 164.106 32.1683C164.093 32.255 164.071 32.345 164.041 32.4383H161.851C161.844 32.505 161.841 32.5533 161.841 32.5833C161.841 32.8133 161.909 32.9933 162.046 33.1233C162.186 33.25 162.368 33.3133 162.591 33.3133C162.788 33.3133 162.959 33.2683 163.106 33.1783C163.256 33.085 163.369 32.9617 163.446 32.8083H163.936C163.816 33.0717 163.631 33.2867 163.381 33.4533C163.134 33.6167 162.848 33.6983 162.521 33.6983C162.178 33.6983 161.901 33.6 161.691 33.4033C161.484 33.2033 161.381 32.9317 161.381 32.5883C161.381 32.4917 161.391 32.3883 161.411 32.2783C161.461 31.995 161.563 31.7467 161.716 31.5333C161.869 31.32 162.058 31.1567 162.281 31.0433C162.508 30.9267 162.753 30.8683 163.016 30.8683ZM163.646 32.1083C163.656 32.0417 163.661 31.98 163.661 31.9233C163.661 31.71 163.593 31.545 163.456 31.4283C163.323 31.3117 163.148 31.2533 162.931 31.2533C162.698 31.2533 162.486 31.33 162.296 31.4833C162.106 31.6333 161.978 31.8417 161.911 32.1083H163.646ZM165.292 31.4333C165.402 31.2533 165.54 31.1133 165.707 31.0133C165.873 30.9133 166.063 30.8633 166.277 30.8633L166.192 31.3333H166.072C165.835 31.3333 165.637 31.3967 165.477 31.5233C165.32 31.65 165.215 31.8633 165.162 32.1633L164.897 33.6533H164.442L164.927 30.9133H165.382L165.292 31.4333ZM167.102 30.4683C167.028 30.4683 166.967 30.445 166.917 30.3983C166.87 30.3483 166.847 30.2867 166.847 30.2133C166.847 30.1133 166.883 30.0283 166.957 29.9583C167.03 29.885 167.115 29.8483 167.212 29.8483C167.288 29.8483 167.35 29.8717 167.397 29.9183C167.443 29.965 167.467 30.0267 167.467 30.1033C167.467 30.2033 167.43 30.29 167.357 30.3633C167.283 30.4333 167.198 30.4683 167.102 30.4683ZM167.247 30.9133L166.762 33.6533H166.307L166.792 30.9133H167.247ZM167.607 32.2733C167.657 31.9933 167.757 31.7483 167.907 31.5383C168.061 31.325 168.246 31.16 168.462 31.0433C168.682 30.9267 168.916 30.8683 169.162 30.8683C169.402 30.8683 169.601 30.92 169.757 31.0233C169.914 31.1267 170.022 31.2567 170.082 31.4133L170.172 30.9133H170.632L170.147 33.6533H169.687L169.782 33.1433C169.662 33.3033 169.504 33.4367 169.307 33.5433C169.111 33.6467 168.894 33.6983 168.657 33.6983C168.444 33.6983 168.256 33.6533 168.092 33.5633C167.929 33.47 167.802 33.3383 167.712 33.1683C167.622 32.9983 167.577 32.8017 167.577 32.5783C167.577 32.4783 167.587 32.3767 167.607 32.2733ZM169.932 32.2783C169.946 32.2083 169.952 32.1333 169.952 32.0533C169.952 31.81 169.879 31.6183 169.732 31.4783C169.589 31.335 169.406 31.2633 169.182 31.2633C169.012 31.2633 168.849 31.3033 168.692 31.3833C168.539 31.4633 168.407 31.58 168.297 31.7333C168.187 31.8867 168.114 32.0667 168.077 32.2733C168.064 32.3433 168.057 32.42 168.057 32.5033C168.057 32.75 168.129 32.945 168.272 33.0883C168.416 33.2283 168.599 33.2983 168.822 33.2983C168.992 33.2983 169.154 33.2583 169.307 33.1783C169.464 33.095 169.597 32.9767 169.707 32.8233C169.821 32.6667 169.896 32.485 169.932 32.2783ZM172.026 29.9533L171.371 33.6533H170.916L171.571 29.9533H172.026Z" fill="white"/>
<defs>
<clipPath id="clip0_1486_2589">
<rect width="13.3148" height="13.3148" fill="white" transform="translate(72.876 6.14551)"/>
</clipPath>
<clipPath id="clip1_1486_2589">
<rect width="13.3148" height="13.3148" fill="white" transform="translate(139.062 6.14551)"/>
</clipPath>
</defs>
</svg>
