<svg width="124" height="37" viewBox="0 0 124 37" fill="none" xmlns="http://www.w3.org/2000/svg">
<path d="M21.27 13.3927C21.3433 13.3927 21.4083 13.421 21.465 13.4777L21.995 14.0527C21.7017 14.416 21.34 14.6943 20.91 14.8877C20.4833 15.081 19.97 15.1777 19.37 15.1777C18.8333 15.1777 18.35 15.086 17.92 14.9027C17.4933 14.7193 17.1283 14.4643 16.825 14.1377C16.5217 13.811 16.2883 13.421 16.125 12.9677C15.965 12.5143 15.885 12.0193 15.885 11.4827C15.885 10.9393 15.9717 10.4427 16.145 9.99266C16.3183 9.53932 16.5617 9.14932 16.875 8.82266C17.1917 8.49599 17.5683 8.24266 18.005 8.06266C18.4417 7.87932 18.925 7.78766 19.455 7.78766C19.9817 7.78766 20.4483 7.87432 20.855 8.04766C21.265 8.22099 21.6133 8.44766 21.9 8.72766L21.45 9.35266C21.4233 9.39266 21.3883 9.42766 21.345 9.45766C21.305 9.48766 21.2483 9.50266 21.175 9.50266C21.125 9.50266 21.0733 9.48932 21.02 9.46266C20.9667 9.43266 20.9083 9.39766 20.845 9.35766C20.7817 9.31432 20.7083 9.26766 20.625 9.21766C20.5417 9.16766 20.445 9.12266 20.335 9.08266C20.225 9.03932 20.0967 9.00432 19.95 8.97766C19.8067 8.94766 19.64 8.93266 19.45 8.93266C19.1267 8.93266 18.83 8.99099 18.56 9.10766C18.2933 9.22099 18.0633 9.38766 17.87 9.60766C17.6767 9.82432 17.5267 10.091 17.42 10.4077C17.3133 10.721 17.26 11.0793 17.26 11.4827C17.26 11.8893 17.3167 12.251 17.43 12.5677C17.5467 12.8843 17.7033 13.151 17.9 13.3677C18.0967 13.5843 18.3283 13.751 18.595 13.8677C18.8617 13.981 19.1483 14.0377 19.455 14.0377C19.6383 14.0377 19.8033 14.0277 19.95 14.0077C20.1 13.9877 20.2367 13.956 20.36 13.9127C20.4867 13.8693 20.605 13.8143 20.715 13.7477C20.8283 13.6777 20.94 13.5927 21.05 13.4927C21.0833 13.4627 21.1183 13.4393 21.155 13.4227C21.1917 13.4027 21.23 13.3927 21.27 13.3927ZM25.4313 12.9077C25.0747 12.9243 24.7747 12.956 24.5313 13.0027C24.288 13.046 24.093 13.1027 23.9463 13.1727C23.7997 13.2427 23.6947 13.3243 23.6313 13.4177C23.568 13.511 23.5363 13.6127 23.5363 13.7227C23.5363 13.9393 23.5997 14.0943 23.7263 14.1877C23.8563 14.281 24.0247 14.3277 24.2313 14.3277C24.4847 14.3277 24.703 14.2827 24.8863 14.1927C25.073 14.0993 25.2547 13.9593 25.4313 13.7727V12.9077ZM22.6013 10.6827C23.1913 10.1427 23.9013 9.87266 24.7313 9.87266C25.0313 9.87266 25.2997 9.92266 25.5363 10.0227C25.773 10.1193 25.973 10.256 26.1363 10.4327C26.2997 10.606 26.423 10.8143 26.5063 11.0577C26.593 11.301 26.6363 11.5677 26.6363 11.8577V15.0977H26.0763C25.9597 15.0977 25.8697 15.081 25.8063 15.0477C25.743 15.011 25.693 14.9393 25.6563 14.8327L25.5463 14.4627C25.4163 14.5793 25.2897 14.6827 25.1663 14.7727C25.043 14.8593 24.9147 14.9327 24.7813 14.9927C24.648 15.0527 24.5047 15.0977 24.3513 15.1277C24.2013 15.161 24.0347 15.1777 23.8513 15.1777C23.6347 15.1777 23.4347 15.1493 23.2513 15.0927C23.068 15.0327 22.9097 14.9443 22.7763 14.8277C22.643 14.711 22.5397 14.566 22.4663 14.3927C22.393 14.2193 22.3563 14.0177 22.3563 13.7877C22.3563 13.6577 22.378 13.5293 22.4213 13.4027C22.4647 13.2727 22.5347 13.1493 22.6313 13.0327C22.7313 12.916 22.8597 12.806 23.0163 12.7027C23.173 12.5993 23.3647 12.5093 23.5913 12.4327C23.8213 12.356 24.088 12.2943 24.3913 12.2477C24.6947 12.1977 25.0413 12.1677 25.4313 12.1577V11.8577C25.4313 11.5143 25.358 11.261 25.2113 11.0977C25.0647 10.931 24.853 10.8477 24.5763 10.8477C24.3763 10.8477 24.2097 10.871 24.0763 10.9177C23.9463 10.9643 23.8313 11.0177 23.7313 11.0777C23.6313 11.1343 23.5397 11.186 23.4563 11.2327C23.3763 11.2793 23.2863 11.3027 23.1863 11.3027C23.0997 11.3027 23.0263 11.281 22.9663 11.2377C22.9063 11.191 22.858 11.1377 22.8213 11.0777L22.6013 10.6827ZM28.9645 10.8577C29.1245 10.551 29.3145 10.311 29.5345 10.1377C29.7545 9.96099 30.0145 9.87266 30.3145 9.87266C30.5511 9.87266 30.7411 9.92432 30.8845 10.0277L30.8045 10.9527C30.7878 11.0127 30.7628 11.056 30.7295 11.0827C30.6995 11.106 30.6578 11.1177 30.6045 11.1177C30.5545 11.1177 30.4795 11.1093 30.3795 11.0927C30.2828 11.076 30.1878 11.0677 30.0945 11.0677C29.9578 11.0677 29.8361 11.0877 29.7295 11.1277C29.6228 11.1677 29.5261 11.226 29.4395 11.3027C29.3561 11.376 29.2811 11.466 29.2145 11.5727C29.1511 11.6793 29.0911 11.801 29.0345 11.9377V15.0977H27.7995V9.96766H28.5245C28.6511 9.96766 28.7395 9.99099 28.7895 10.0377C28.8395 10.081 28.8728 10.161 28.8895 10.2777L28.9645 10.8577ZM33.2399 15.1777C32.7933 15.1777 32.4499 15.0527 32.2099 14.8027C31.9733 14.5493 31.8549 14.201 31.8549 13.7577V10.8927H31.3299C31.2633 10.8927 31.2066 10.871 31.1599 10.8277C31.1133 10.7843 31.0899 10.7193 31.0899 10.6327V10.1427L31.9149 10.0077L32.1749 8.60766C32.1916 8.54099 32.2233 8.48932 32.2699 8.45266C32.3166 8.41599 32.3766 8.39766 32.4499 8.39766H33.0899V10.0127H34.4599V10.8927H33.0899V13.6727C33.0899 13.8327 33.1283 13.9577 33.2049 14.0477C33.2849 14.1377 33.3933 14.1827 33.5299 14.1827C33.6066 14.1827 33.6699 14.1743 33.7199 14.1577C33.7733 14.1377 33.8183 14.1177 33.8549 14.0977C33.8949 14.0777 33.9299 14.0593 33.9599 14.0427C33.9899 14.0227 34.0199 14.0127 34.0499 14.0127C34.0866 14.0127 34.1166 14.0227 34.1399 14.0427C34.1633 14.0593 34.1883 14.086 34.2149 14.1227L34.5849 14.7227C34.4049 14.8727 34.1983 14.986 33.9649 15.0627C33.7316 15.1393 33.4899 15.1777 33.2399 15.1777ZM37.4816 9.88766C37.8616 9.88766 38.2066 9.94932 38.5166 10.0727C38.8299 10.196 39.0966 10.371 39.3166 10.5977C39.5399 10.8243 39.7116 11.101 39.8316 11.4277C39.9516 11.7543 40.0116 12.1193 40.0116 12.5227C40.0116 12.9293 39.9516 13.296 39.8316 13.6227C39.7116 13.9493 39.5399 14.2277 39.3166 14.4577C39.0966 14.6877 38.8299 14.8643 38.5166 14.9877C38.2066 15.111 37.8616 15.1727 37.4816 15.1727C37.0982 15.1727 36.7499 15.111 36.4366 14.9877C36.1232 14.8643 35.8549 14.6877 35.6316 14.4577C35.4116 14.2277 35.2399 13.9493 35.1166 13.6227C34.9966 13.296 34.9366 12.9293 34.9366 12.5227C34.9366 12.1193 34.9966 11.7543 35.1166 11.4277C35.2399 11.101 35.4116 10.8243 35.6316 10.5977C35.8549 10.371 36.1232 10.196 36.4366 10.0727C36.7499 9.94932 37.0982 9.88766 37.4816 9.88766ZM37.4816 14.2227C37.9082 14.2227 38.2232 14.0793 38.4266 13.7927C38.6332 13.506 38.7366 13.086 38.7366 12.5327C38.7366 11.9793 38.6332 11.5577 38.4266 11.2677C38.2232 10.9777 37.9082 10.8327 37.4816 10.8327C37.0482 10.8327 36.7266 10.9793 36.5166 11.2727C36.3099 11.5627 36.2066 11.9827 36.2066 12.5327C36.2066 13.0827 36.3099 13.5027 36.5166 13.7927C36.7266 14.0793 37.0482 14.2227 37.4816 14.2227ZM42.1088 10.5977C42.2121 10.4943 42.3204 10.3993 42.4338 10.3127C42.5504 10.2227 42.6721 10.1477 42.7988 10.0877C42.9288 10.0243 43.0671 9.97599 43.2138 9.94266C43.3604 9.90599 43.5204 9.88766 43.6938 9.88766C43.9738 9.88766 44.2221 9.93599 44.4388 10.0327C44.6554 10.126 44.8354 10.2593 44.9788 10.4327C45.1254 10.6027 45.2354 10.8077 45.3088 11.0477C45.3854 11.2843 45.4238 11.546 45.4238 11.8327V15.0977H44.1888V11.8327C44.1888 11.5193 44.1171 11.2777 43.9738 11.1077C43.8304 10.9343 43.6121 10.8477 43.3188 10.8477C43.1054 10.8477 42.9054 10.896 42.7188 10.9927C42.5321 11.0893 42.3554 11.221 42.1888 11.3877V15.0977H40.9538V9.96766H41.7088C41.8688 9.96766 41.9738 10.0427 42.0238 10.1927L42.1088 10.5977ZM58.7766 7.86766L56.5316 15.0977H55.3166L53.7366 10.1577C53.6932 10.0377 53.6532 9.89099 53.6166 9.71766C53.5966 9.80099 53.5766 9.87932 53.5566 9.95266C53.5366 10.026 53.5149 10.0943 53.4916 10.1577L51.8966 15.0977H50.6766L48.4366 7.86766H49.5616C49.6782 7.86766 49.7749 7.89599 49.8516 7.95266C49.9316 8.00599 49.9849 8.07932 50.0116 8.17266L51.2416 12.4977C51.2682 12.6043 51.2932 12.721 51.3166 12.8477C51.3432 12.971 51.3699 13.101 51.3966 13.2377C51.4232 13.0977 51.4516 12.966 51.4816 12.8427C51.5149 12.7193 51.5499 12.6043 51.5866 12.4977L53.0066 8.17266C53.0332 8.09599 53.0849 8.02599 53.1616 7.96266C53.2416 7.89932 53.3382 7.86766 53.4516 7.86766H53.8466C53.9632 7.86766 54.0582 7.89599 54.1316 7.95266C54.2049 8.00932 54.2599 8.08266 54.2966 8.17266L55.7116 12.4977C55.7816 12.7043 55.8449 12.9427 55.9016 13.2127C55.9449 12.9493 55.9932 12.711 56.0466 12.4977L57.2766 8.17266C57.2966 8.08932 57.3466 8.01766 57.4266 7.95766C57.5099 7.89766 57.6082 7.86766 57.7216 7.86766H58.7766ZM62.1689 11.9427C62.1689 11.7827 62.1456 11.6327 62.0989 11.4927C62.0556 11.3493 61.9889 11.2243 61.8989 11.1177C61.8089 11.011 61.6939 10.9277 61.5539 10.8677C61.4172 10.8043 61.2572 10.7727 61.0739 10.7727C60.7172 10.7727 60.4356 10.8743 60.2289 11.0777C60.0256 11.281 59.8956 11.5693 59.8389 11.9427H62.1689ZM59.8139 12.6877C59.8339 12.951 59.8806 13.1793 59.9539 13.3727C60.0272 13.5627 60.1239 13.721 60.2439 13.8477C60.3639 13.971 60.5056 14.0643 60.6689 14.1277C60.8356 14.1877 61.0189 14.2177 61.2189 14.2177C61.4189 14.2177 61.5906 14.1943 61.7339 14.1477C61.8806 14.101 62.0072 14.0493 62.1139 13.9927C62.2239 13.936 62.3189 13.8843 62.3989 13.8377C62.4822 13.791 62.5622 13.7677 62.6389 13.7677C62.7422 13.7677 62.8189 13.806 62.8689 13.8827L63.2239 14.3327C63.0872 14.4927 62.9339 14.6277 62.7639 14.7377C62.5939 14.8443 62.4156 14.931 62.2289 14.9977C62.0456 15.061 61.8572 15.106 61.6639 15.1327C61.4739 15.1593 61.2889 15.1727 61.1089 15.1727C60.7522 15.1727 60.4206 15.1143 60.1139 14.9977C59.8072 14.8777 59.5406 14.7027 59.3139 14.4727C59.0872 14.2393 58.9089 13.9527 58.7789 13.6127C58.6489 13.2693 58.5839 12.8727 58.5839 12.4227C58.5839 12.0727 58.6406 11.7443 58.7539 11.4377C58.8672 11.1277 59.0289 10.8593 59.2389 10.6327C59.4522 10.4027 59.7106 10.221 60.0139 10.0877C60.3206 9.95432 60.6656 9.88766 61.0489 9.88766C61.3722 9.88766 61.6706 9.93932 61.9439 10.0427C62.2172 10.146 62.4522 10.2977 62.6489 10.4977C62.8456 10.6943 62.9989 10.9377 63.1089 11.2277C63.2222 11.5143 63.2789 11.8427 63.2789 12.2127C63.2789 12.3993 63.2589 12.526 63.2189 12.5927C63.1789 12.656 63.1022 12.6877 62.9889 12.6877H59.8139ZM65.4857 9.96766V15.0977H64.2457V9.96766H65.4857ZM65.6557 8.47266C65.6557 8.57932 65.634 8.67932 65.5907 8.77266C65.5474 8.86599 65.489 8.94766 65.4157 9.01766C65.3457 9.08766 65.2624 9.14432 65.1657 9.18766C65.069 9.22766 64.9657 9.24766 64.8557 9.24766C64.749 9.24766 64.6474 9.22766 64.5507 9.18766C64.4574 9.14432 64.3757 9.08766 64.3057 9.01766C64.2357 8.94766 64.179 8.86599 64.1357 8.77266C64.0957 8.67932 64.0757 8.57932 64.0757 8.47266C64.0757 8.36266 64.0957 8.25932 64.1357 8.16266C64.179 8.06599 64.2357 7.98266 64.3057 7.91266C64.3757 7.84266 64.4574 7.78766 64.5507 7.74766C64.6474 7.70432 64.749 7.68266 64.8557 7.68266C64.9657 7.68266 65.069 7.70432 65.1657 7.74766C65.2624 7.78766 65.3457 7.84266 65.4157 7.91266C65.489 7.98266 65.5474 8.06599 65.5907 8.16266C65.634 8.25932 65.6557 8.36266 65.6557 8.47266ZM68.6198 12.4077C68.7731 12.4077 68.9064 12.3877 69.0198 12.3477C69.1331 12.3043 69.2264 12.246 69.2998 12.1727C69.3764 12.0993 69.4331 12.011 69.4698 11.9077C69.5098 11.8043 69.5298 11.691 69.5298 11.5677C69.5298 11.3143 69.4531 11.1143 69.2998 10.9677C69.1498 10.8177 68.9231 10.7427 68.6198 10.7427C68.3164 10.7427 68.0881 10.8177 67.9348 10.9677C67.7848 11.1143 67.7098 11.3143 67.7098 11.5677C67.7098 11.6877 67.7281 11.7993 67.7648 11.9027C67.8048 12.006 67.8614 12.096 67.9348 12.1727C68.0114 12.246 68.1064 12.3043 68.2198 12.3477C68.3364 12.3877 68.4698 12.4077 68.6198 12.4077ZM70.0148 15.3277C70.0148 15.2277 69.9848 15.146 69.9248 15.0827C69.8648 15.0193 69.7831 14.971 69.6798 14.9377C69.5764 14.901 69.4548 14.8743 69.3148 14.8577C69.1781 14.841 69.0314 14.8293 68.8748 14.8227C68.7214 14.8127 68.5614 14.8043 68.3948 14.7977C68.2314 14.791 68.0714 14.7777 67.9148 14.7577C67.7781 14.8343 67.6664 14.9243 67.5798 15.0277C67.4964 15.131 67.4548 15.251 67.4548 15.3877C67.4548 15.4777 67.4764 15.561 67.5198 15.6377C67.5664 15.7177 67.6381 15.786 67.7348 15.8427C67.8348 15.8993 67.9631 15.9427 68.1198 15.9727C68.2764 16.006 68.4681 16.0227 68.6948 16.0227C68.9248 16.0227 69.1231 16.0043 69.2898 15.9677C69.4564 15.9343 69.5931 15.886 69.6998 15.8227C69.8098 15.7627 69.8898 15.6893 69.9398 15.6027C69.9898 15.5193 70.0148 15.4277 70.0148 15.3277ZM71.2448 10.1427V10.6027C71.2448 10.7493 71.1564 10.8393 70.9798 10.8727L70.5198 10.9577C70.5898 11.1343 70.6248 11.3277 70.6248 11.5377C70.6248 11.791 70.5731 12.021 70.4698 12.2277C70.3698 12.431 70.2298 12.6043 70.0498 12.7477C69.8698 12.891 69.6564 13.0027 69.4098 13.0827C69.1664 13.1593 68.9031 13.1977 68.6198 13.1977C68.5198 13.1977 68.4231 13.1927 68.3298 13.1827C68.2364 13.1727 68.1448 13.1593 68.0548 13.1427C67.8948 13.2393 67.8148 13.3477 67.8148 13.4677C67.8148 13.571 67.8614 13.6477 67.9548 13.6977C68.0514 13.7443 68.1781 13.7777 68.3348 13.7977C68.4914 13.8177 68.6698 13.831 68.8698 13.8377C69.0698 13.841 69.2748 13.851 69.4848 13.8677C69.6948 13.8843 69.8998 13.9143 70.0998 13.9577C70.2998 13.9977 70.4781 14.0627 70.6348 14.1527C70.7914 14.2427 70.9164 14.366 71.0098 14.5227C71.1064 14.676 71.1548 14.8743 71.1548 15.1177C71.1548 15.3443 71.0981 15.5643 70.9848 15.7777C70.8748 15.991 70.7131 16.181 70.4998 16.3477C70.2898 16.5143 70.0298 16.6477 69.7198 16.7477C69.4131 16.851 69.0631 16.9027 68.6698 16.9027C68.2831 16.9027 67.9464 16.8643 67.6598 16.7877C67.3731 16.7143 67.1348 16.6143 66.9448 16.4877C66.7548 16.3643 66.6131 16.221 66.5198 16.0577C66.4264 15.8943 66.3798 15.7243 66.3798 15.5477C66.3798 15.3077 66.4514 15.1077 66.5948 14.9477C66.7414 14.7843 66.9414 14.6543 67.1948 14.5577C67.0581 14.4877 66.9498 14.3943 66.8698 14.2777C66.7898 14.161 66.7498 14.0077 66.7498 13.8177C66.7498 13.741 66.7631 13.6627 66.7898 13.5827C66.8198 13.4993 66.8614 13.4177 66.9148 13.3377C66.9714 13.2577 67.0414 13.1827 67.1248 13.1127C67.2081 13.0393 67.3064 12.9743 67.4198 12.9177C67.1598 12.7777 66.9548 12.591 66.8048 12.3577C66.6581 12.1243 66.5848 11.851 66.5848 11.5377C66.5848 11.2843 66.6348 11.056 66.7348 10.8527C66.8381 10.646 66.9798 10.471 67.1598 10.3277C67.3431 10.181 67.5581 10.0693 67.8048 9.99266C68.0548 9.91599 68.3264 9.87766 68.6198 9.87766C68.8398 9.87766 69.0464 9.90099 69.2398 9.94766C69.4331 9.99099 69.6098 10.056 69.7698 10.1427H71.2448ZM73.263 10.5177C73.463 10.331 73.683 10.1793 73.923 10.0627C74.163 9.94599 74.4446 9.88766 74.768 9.88766C75.048 9.88766 75.2963 9.93599 75.513 10.0327C75.7296 10.126 75.9096 10.2593 76.053 10.4327C76.1996 10.6027 76.3096 10.8077 76.383 11.0477C76.4596 11.2843 76.498 11.546 76.498 11.8327V15.0977H75.263V11.8327C75.263 11.5193 75.1913 11.2777 75.048 11.1077C74.9046 10.9343 74.6863 10.8477 74.393 10.8477C74.1796 10.8477 73.9796 10.896 73.793 10.9927C73.6063 11.0893 73.4296 11.221 73.263 11.3877V15.0977H72.028V7.66766H73.263V10.5177ZM79.3141 15.1777C78.8675 15.1777 78.5241 15.0527 78.2841 14.8027C78.0475 14.5493 77.9291 14.201 77.9291 13.7577V10.8927H77.4041C77.3375 10.8927 77.2808 10.871 77.2341 10.8277C77.1875 10.7843 77.1641 10.7193 77.1641 10.6327V10.1427L77.9891 10.0077L78.2491 8.60766C78.2658 8.54099 78.2975 8.48932 78.3441 8.45266C78.3908 8.41599 78.4508 8.39766 78.5241 8.39766H79.1641V10.0127H80.5341V10.8927H79.1641V13.6727C79.1641 13.8327 79.2025 13.9577 79.2791 14.0477C79.3591 14.1377 79.4675 14.1827 79.6041 14.1827C79.6808 14.1827 79.7441 14.1743 79.7941 14.1577C79.8475 14.1377 79.8925 14.1177 79.9291 14.0977C79.9691 14.0777 80.0041 14.0593 80.0341 14.0427C80.0641 14.0227 80.0941 14.0127 80.1241 14.0127C80.1608 14.0127 80.1908 14.0227 80.2141 14.0427C80.2375 14.0593 80.2625 14.086 80.2891 14.1227L80.6591 14.7227C80.4791 14.8727 80.2725 14.986 80.0391 15.0627C79.8058 15.1393 79.5641 15.1777 79.3141 15.1777Z" fill="white"/>
<path d="M47.908 27.8183C48.5853 27.2743 49.116 26.829 49.5 26.4823C49.884 26.1303 50.2067 25.765 50.468 25.3863C50.7347 25.0023 50.868 24.6263 50.868 24.2583C50.868 23.9117 50.7827 23.6397 50.612 23.4423C50.4467 23.2397 50.1773 23.1383 49.804 23.1383C49.4413 23.1383 49.1587 23.253 48.956 23.4823C48.7587 23.7063 48.652 24.0077 48.636 24.3863H47.932C47.9533 23.789 48.1347 23.3277 48.476 23.0023C48.8173 22.677 49.2573 22.5143 49.796 22.5143C50.3453 22.5143 50.78 22.6663 51.1 22.9703C51.4253 23.2743 51.588 23.693 51.588 24.2263C51.588 24.669 51.4547 25.101 51.188 25.5223C50.9267 25.9383 50.628 26.3063 50.292 26.6263C49.956 26.941 49.5267 27.309 49.004 27.7303H51.756V28.3383H47.908V27.8183ZM52.9496 28.4503C52.8109 28.4503 52.6936 28.4023 52.5976 28.3063C52.5016 28.2103 52.4536 28.093 52.4536 27.9543C52.4536 27.8157 52.5016 27.6983 52.5976 27.6023C52.6936 27.5063 52.8109 27.4583 52.9496 27.4583C53.0829 27.4583 53.1949 27.5063 53.2856 27.6023C53.3816 27.6983 53.4296 27.8157 53.4296 27.9543C53.4296 28.093 53.3816 28.2103 53.2856 28.3063C53.1949 28.4023 53.0829 28.4503 52.9496 28.4503ZM54.2773 25.4503C54.2773 24.533 54.4266 23.8183 54.7253 23.3063C55.0239 22.789 55.5466 22.5303 56.2933 22.5303C57.0346 22.5303 57.5546 22.789 57.8533 23.3063C58.1519 23.8183 58.3012 24.533 58.3012 25.4503C58.3012 26.3837 58.1519 27.109 57.8533 27.6263C57.5546 28.1437 57.0346 28.4023 56.2933 28.4023C55.5466 28.4023 55.0239 28.1437 54.7253 27.6263C54.4266 27.109 54.2773 26.3837 54.2773 25.4503ZM57.5813 25.4503C57.5813 24.9863 57.5493 24.5943 57.4853 24.2743C57.4266 23.949 57.3013 23.6877 57.1093 23.4903C56.9226 23.293 56.6506 23.1943 56.2933 23.1943C55.9306 23.1943 55.6533 23.293 55.4613 23.4903C55.2746 23.6877 55.1493 23.949 55.0853 24.2743C55.0266 24.5943 54.9973 24.9863 54.9973 25.4503C54.9973 25.9303 55.0266 26.333 55.0853 26.6583C55.1493 26.9837 55.2746 27.245 55.4613 27.4423C55.6533 27.6397 55.9306 27.7383 56.2933 27.7383C56.6506 27.7383 56.9226 27.6397 57.1093 27.4423C57.3013 27.245 57.4266 26.9837 57.4853 26.6583C57.5493 26.333 57.5813 25.9303 57.5813 25.4503ZM59.3007 25.4503C59.3007 24.533 59.45 23.8183 59.7487 23.3063C60.0474 22.789 60.57 22.5303 61.3167 22.5303C62.058 22.5303 62.578 22.789 62.8767 23.3063C63.1754 23.8183 63.3247 24.533 63.3247 25.4503C63.3247 26.3837 63.1754 27.109 62.8767 27.6263C62.578 28.1437 62.058 28.4023 61.3167 28.4023C60.57 28.4023 60.0474 28.1437 59.7487 27.6263C59.45 27.109 59.3007 26.3837 59.3007 25.4503ZM62.6047 25.4503C62.6047 24.9863 62.5727 24.5943 62.5087 24.2743C62.45 23.949 62.3247 23.6877 62.1327 23.4903C61.946 23.293 61.674 23.1943 61.3167 23.1943C60.954 23.1943 60.6767 23.293 60.4847 23.4903C60.298 23.6877 60.1727 23.949 60.1087 24.2743C60.05 24.5943 60.0207 24.9863 60.0207 25.4503C60.0207 25.9303 60.05 26.333 60.1087 26.6583C60.1727 26.9837 60.298 27.245 60.4847 27.4423C60.6767 27.6397 60.954 27.7383 61.3167 27.7383C61.674 27.7383 61.946 27.6397 62.1327 27.4423C62.3247 27.245 62.45 26.9837 62.5087 26.6583C62.5727 26.333 62.6047 25.9303 62.6047 25.4503ZM64.3241 25.4503C64.3241 24.533 64.4735 23.8183 64.7721 23.3063C65.0708 22.789 65.5935 22.5303 66.3401 22.5303C67.0815 22.5303 67.6015 22.789 67.9001 23.3063C68.1988 23.8183 68.3481 24.533 68.3481 25.4503C68.3481 26.3837 68.1988 27.109 67.9001 27.6263C67.6015 28.1437 67.0815 28.4023 66.3401 28.4023C65.5935 28.4023 65.0708 28.1437 64.7721 27.6263C64.4735 27.109 64.3241 26.3837 64.3241 25.4503ZM67.6281 25.4503C67.6281 24.9863 67.5961 24.5943 67.5321 24.2743C67.4735 23.949 67.3481 23.6877 67.1561 23.4903C66.9695 23.293 66.6975 23.1943 66.3401 23.1943C65.9775 23.1943 65.7001 23.293 65.5081 23.4903C65.3215 23.6877 65.1961 23.949 65.1321 24.2743C65.0735 24.5943 65.0441 24.9863 65.0441 25.4503C65.0441 25.9303 65.0735 26.333 65.1321 26.6583C65.1961 26.9837 65.3215 27.245 65.5081 27.4423C65.7001 27.6397 65.9775 27.7383 66.3401 27.7383C66.6975 27.7383 66.9695 27.6397 67.1561 27.4423C67.3481 27.245 67.4735 26.9837 67.5321 26.6583C67.5961 26.333 67.6281 25.9303 67.6281 25.4503ZM74.0484 28.4023L72.3284 26.4663V28.4023H71.6004V22.4823H72.3284V25.9623L74.0164 24.0183H75.0324L72.9684 26.2023L75.0404 28.4023H74.0484ZM77.5256 23.9463C77.9042 23.9463 78.2349 24.029 78.5176 24.1943C78.8056 24.3597 79.0189 24.5677 79.1576 24.8183V24.0183H79.8936V28.4983C79.8936 28.8983 79.8082 29.253 79.6376 29.5623C79.4669 29.877 79.2216 30.1223 78.9016 30.2983C78.5869 30.4743 78.2189 30.5623 77.7976 30.5623C77.2216 30.5623 76.7416 30.4263 76.3576 30.1543C75.9736 29.8823 75.7469 29.5117 75.6776 29.0423H76.3976C76.4776 29.309 76.6429 29.5223 76.8936 29.6823C77.1442 29.8477 77.4456 29.9303 77.7976 29.9303C78.1976 29.9303 78.5229 29.805 78.7736 29.5543C79.0296 29.3037 79.1576 28.9517 79.1576 28.4983V27.5783C79.0136 27.8343 78.8002 28.0477 78.5176 28.2183C78.2349 28.389 77.9042 28.4743 77.5256 28.4743C77.1362 28.4743 76.7816 28.3783 76.4616 28.1863C76.1469 27.9943 75.8989 27.725 75.7176 27.3783C75.5362 27.0317 75.4456 26.637 75.4456 26.1943C75.4456 25.7463 75.5362 25.3543 75.7176 25.0183C75.8989 24.677 76.1469 24.413 76.4616 24.2263C76.7816 24.0397 77.1362 23.9463 77.5256 23.9463ZM79.1576 26.2023C79.1576 25.8717 79.0909 25.5837 78.9576 25.3383C78.8242 25.093 78.6429 24.9063 78.4136 24.7783C78.1896 24.645 77.9416 24.5783 77.6696 24.5783C77.3976 24.5783 77.1496 24.6423 76.9256 24.7703C76.7016 24.8983 76.5229 25.085 76.3896 25.3303C76.2562 25.5757 76.1896 25.8637 76.1896 26.1943C76.1896 26.5303 76.2562 26.8237 76.3896 27.0743C76.5229 27.3197 76.7016 27.509 76.9256 27.6423C77.1496 27.7703 77.3976 27.8343 77.6696 27.8343C77.9416 27.8343 78.1896 27.7703 78.4136 27.6423C78.6429 27.509 78.8242 27.3197 78.9576 27.0743C79.0909 26.8237 79.1576 26.533 79.1576 26.2023Z" fill="white"/>
<rect x="87.5" width="36.5" height="36.5" rx="18.25" fill="white"/>
<path fill-rule="evenodd" clip-rule="evenodd" d="M105.287 9.63593C105.426 9.54902 105.586 9.50293 105.75 9.50293C105.914 9.50293 106.075 9.54902 106.214 9.63593L112.255 13.4116L105.75 17.2379L99.2457 13.4116L105.287 9.63593ZM97.8825 14.6401C97.8777 14.6775 97.8754 14.7152 97.8755 14.7529V21.7529C97.8755 21.9013 97.9132 22.0473 97.9852 22.1771C98.0571 22.3069 98.1609 22.4163 98.2867 22.4949L104.875 26.6127V18.7534L97.8825 14.6401ZM106.625 26.6127L113.214 22.4949C113.34 22.4163 113.444 22.3069 113.516 22.1771C113.588 22.0473 113.625 21.9013 113.625 21.7529V14.7529C113.625 14.715 113.623 14.6774 113.618 14.6401L106.625 18.7526V26.6127Z" fill="#361269"/>
</svg>
