<svg width="124" height="37" viewBox="0 0 124 37" fill="none" xmlns="http://www.w3.org/2000/svg">
<path d="M35.7501 13.3985C35.8232 13.3985 35.888 13.4268 35.9444 13.4832L36.4726 14.0563C36.1803 14.4183 35.8199 14.6957 35.3914 14.8884C34.9662 15.081 34.4546 15.1774 33.8567 15.1774C33.3218 15.1774 32.8402 15.086 32.4117 14.9033C31.9865 14.7206 31.6227 14.4665 31.3204 14.141C31.0181 13.8154 30.7856 13.4268 30.6228 12.975C30.4634 12.5232 30.3837 12.0299 30.3837 11.4951C30.3837 10.9537 30.47 10.4587 30.6428 10.0102C30.8155 9.55848 31.058 9.16982 31.3703 8.84428C31.6858 8.51874 32.0612 8.26628 32.4964 8.0869C32.9315 7.9042 33.4132 7.81285 33.9414 7.81285C34.4662 7.81285 34.9313 7.89922 35.3365 8.07195C35.7451 8.24469 36.0923 8.47057 36.3779 8.74961L35.9295 9.37245C35.9029 9.41232 35.868 9.4472 35.8249 9.47709C35.785 9.50699 35.7285 9.52194 35.6554 9.52194C35.6056 9.52194 35.5541 9.50865 35.501 9.48207C35.4478 9.45218 35.3897 9.4173 35.3266 9.37744C35.2635 9.33425 35.1904 9.28775 35.1073 9.23792C35.0243 9.18809 34.928 9.14325 34.8183 9.10338C34.7087 9.0602 34.5808 9.02532 34.4347 8.99875C34.2918 8.96885 34.1257 8.9539 33.9364 8.9539C33.6142 8.9539 33.3185 9.01203 33.0495 9.1283C32.7837 9.24124 32.5545 9.40733 32.3618 9.62658C32.1692 9.8425 32.0197 10.1082 31.9134 10.4238C31.8071 10.7361 31.7539 11.0932 31.7539 11.4951C31.7539 11.9004 31.8104 12.2608 31.9233 12.5764C32.0396 12.892 32.1957 13.1577 32.3917 13.3736C32.5877 13.5895 32.8186 13.7556 33.0843 13.8719C33.3501 13.9848 33.6358 14.0413 33.9414 14.0413C34.1241 14.0413 34.2885 14.0313 34.4347 14.0114C34.5841 13.9915 34.7203 13.9599 34.8433 13.9167C34.9695 13.8736 35.0874 13.8187 35.197 13.7523C35.31 13.6825 35.4213 13.5978 35.5309 13.4982C35.5641 13.4683 35.599 13.445 35.6355 13.4284C35.6721 13.4085 35.7103 13.3985 35.7501 13.3985ZM39.8971 12.9152C39.5417 12.9318 39.2427 12.9634 39.0002 13.0099C38.7577 13.0531 38.5634 13.1095 38.4172 13.1793C38.2711 13.249 38.1664 13.3304 38.1033 13.4234C38.0402 13.5165 38.0086 13.6178 38.0086 13.7274C38.0086 13.9433 38.0717 14.0978 38.198 14.1908C38.3275 14.2838 38.4953 14.3303 38.7012 14.3303C38.9537 14.3303 39.1713 14.2855 39.354 14.1958C39.54 14.1028 39.721 13.9632 39.8971 13.7772V12.9152ZM37.0769 10.6979C37.6648 10.1597 38.3724 9.89066 39.1995 9.89066C39.4985 9.89066 39.7659 9.94049 40.0017 10.0401C40.2376 10.1365 40.4369 10.2727 40.5997 10.4487C40.7624 10.6215 40.8854 10.8291 40.9684 11.0716C41.0548 11.3141 41.098 11.5798 41.098 11.8688V15.0977H40.5399C40.4236 15.0977 40.3339 15.081 40.2708 15.0478C40.2077 15.0113 40.1579 14.9399 40.1213 14.8336L40.0117 14.4648C39.8822 14.5811 39.7559 14.6841 39.633 14.7738C39.5101 14.8601 39.3822 14.9332 39.2493 14.993C39.1165 15.0528 38.9736 15.0977 38.8208 15.1276C38.6713 15.1608 38.5053 15.1774 38.3225 15.1774C38.1066 15.1774 37.9073 15.1491 37.7246 15.0927C37.5419 15.0329 37.3841 14.9449 37.2513 14.8286C37.1184 14.7123 37.0154 14.5678 36.9423 14.3951C36.8692 14.2223 36.8327 14.0214 36.8327 13.7922C36.8327 13.6626 36.8543 13.5347 36.8975 13.4085C36.9407 13.2789 37.0104 13.156 37.1068 13.0398C37.2064 12.9235 37.3343 12.8139 37.4904 12.7109C37.6466 12.6079 37.8376 12.5182 38.0634 12.4418C38.2927 12.3654 38.5584 12.304 38.8607 12.2575C39.163 12.2076 39.5084 12.1778 39.8971 12.1678V11.8688C39.8971 11.5267 39.824 11.2742 39.6779 11.1114C39.5317 10.9453 39.3208 10.8623 39.0451 10.8623C38.8457 10.8623 38.6796 10.8856 38.5468 10.9321C38.4172 10.9786 38.3026 11.0317 38.203 11.0915C38.1033 11.148 38.012 11.1995 37.9289 11.246C37.8492 11.2925 37.7595 11.3157 37.6598 11.3157C37.5735 11.3157 37.5004 11.2941 37.4406 11.251C37.3808 11.2045 37.3326 11.1513 37.2961 11.0915L37.0769 10.6979ZM43.4181 10.8723C43.5775 10.5667 43.7668 10.3275 43.9861 10.1547C44.2053 9.97869 44.4644 9.89066 44.7634 9.89066C44.9993 9.89066 45.1886 9.94215 45.3314 10.0451L45.2517 10.9669C45.2351 11.0267 45.2102 11.0699 45.177 11.0965C45.1471 11.1197 45.1056 11.1314 45.0524 11.1314C45.0026 11.1314 44.9278 11.1231 44.8282 11.1065C44.7318 11.0898 44.6372 11.0815 44.5442 11.0815C44.408 11.0815 44.2867 11.1015 44.1804 11.1413C44.0741 11.1812 43.9778 11.2393 43.8914 11.3157C43.8084 11.3888 43.7336 11.4785 43.6672 11.5848C43.6041 11.6911 43.5443 11.8124 43.4878 11.9485V15.0977H42.2571V9.98533H42.9796C43.1058 9.98533 43.1938 10.0086 43.2437 10.0551C43.2935 10.0983 43.3267 10.178 43.3433 10.2943L43.4181 10.8723ZM47.6788 15.1774C47.2337 15.1774 46.8915 15.0528 46.6523 14.8037C46.4165 14.5512 46.2986 14.2041 46.2986 13.7623V10.9071H45.7754C45.7089 10.9071 45.6525 10.8856 45.606 10.8424C45.5595 10.7992 45.5362 10.7344 45.5362 10.648V10.1597L46.3584 10.0252L46.6175 8.63002C46.6341 8.56358 46.6656 8.5121 46.7121 8.47556C46.7586 8.43901 46.8184 8.42074 46.8915 8.42074H47.5293V10.0302H48.8946V10.9071H47.5293V13.6776C47.5293 13.837 47.5675 13.9616 47.6439 14.0513C47.7236 14.141 47.8316 14.1858 47.9678 14.1858C48.0442 14.1858 48.1073 14.1775 48.1571 14.1609C48.2103 14.141 48.2551 14.121 48.2917 14.1011C48.3315 14.0812 48.3664 14.0629 48.3963 14.0463C48.4262 14.0264 48.4561 14.0164 48.486 14.0164C48.5225 14.0164 48.5524 14.0264 48.5757 14.0463C48.5989 14.0629 48.6239 14.0895 48.6504 14.126L49.0192 14.7239C48.8398 14.8734 48.6338 14.9864 48.4013 15.0628C48.1688 15.1392 47.9279 15.1774 47.6788 15.1774ZM51.9058 9.90561C52.2845 9.90561 52.6283 9.96706 52.9372 10.09C53.2495 10.2129 53.5152 10.3873 53.7345 10.6132C53.9571 10.839 54.1281 11.1148 54.2477 11.4403C54.3673 11.7658 54.4271 12.1296 54.4271 12.5315C54.4271 12.9368 54.3673 13.3022 54.2477 13.6277C54.1281 13.9533 53.9571 14.2307 53.7345 14.4599C53.5152 14.6891 53.2495 14.8651 52.9372 14.988C52.6283 15.1109 52.2845 15.1724 51.9058 15.1724C51.5238 15.1724 51.1767 15.1109 50.8644 14.988C50.5522 14.8651 50.2848 14.6891 50.0622 14.4599C49.8429 14.2307 49.6719 13.9533 49.549 13.6277C49.4294 13.3022 49.3696 12.9368 49.3696 12.5315C49.3696 12.1296 49.4294 11.7658 49.549 11.4403C49.6719 11.1148 49.8429 10.839 50.0622 10.6132C50.2848 10.3873 50.5522 10.2129 50.8644 10.09C51.1767 9.96706 51.5238 9.90561 51.9058 9.90561ZM51.9058 14.2257C52.331 14.2257 52.6449 14.0828 52.8476 13.7972C53.0535 13.5115 53.1565 13.0929 53.1565 12.5415C53.1565 11.9901 53.0535 11.5699 52.8476 11.2809C52.6449 10.9919 52.331 10.8474 51.9058 10.8474C51.474 10.8474 51.1534 10.9935 50.9441 11.2858C50.7382 11.5748 50.6352 11.9934 50.6352 12.5415C50.6352 13.0896 50.7382 13.5082 50.9441 13.7972C51.1534 14.0828 51.474 14.2257 51.9058 14.2257ZM56.5171 10.6132C56.62 10.5102 56.728 10.4155 56.8409 10.3291C56.9572 10.2395 57.0784 10.1647 57.2047 10.1049C57.3342 10.0418 57.4721 9.99364 57.6182 9.96042C57.7644 9.92388 57.9239 9.90561 58.0966 9.90561C58.3756 9.90561 58.6231 9.95378 58.839 10.0501C59.0549 10.1431 59.2343 10.276 59.3772 10.4487C59.5233 10.6181 59.6329 10.8224 59.706 11.0616C59.7824 11.2975 59.8206 11.5582 59.8206 11.8439V15.0977H58.5899V11.8439C58.5899 11.5317 58.5185 11.2908 58.3756 11.1214C58.2328 10.9487 58.0152 10.8623 57.7229 10.8623C57.5103 10.8623 57.311 10.9105 57.125 11.0068C56.9389 11.1031 56.7629 11.2343 56.5968 11.4004V15.0977H55.366V9.98533H56.1184C56.2779 9.98533 56.3825 10.0601 56.4323 10.2096L56.5171 10.6132ZM67.4454 9.20304C67.4056 9.2728 67.3624 9.32429 67.3159 9.35751C67.2727 9.3874 67.2179 9.40235 67.1515 9.40235C67.0817 9.40235 67.0053 9.37744 66.9222 9.32761C66.8425 9.27446 66.7462 9.21633 66.6332 9.15321C66.5203 9.0901 66.3874 9.03363 66.2346 8.9838C66.0851 8.93065 65.9074 8.90407 65.7015 8.90407C65.5154 8.90407 65.3527 8.92733 65.2132 8.97383C65.0736 9.01702 64.9557 9.07847 64.8594 9.15819C64.7664 9.23792 64.6966 9.33425 64.6501 9.4472C64.6036 9.55682 64.5803 9.67806 64.5803 9.81094C64.5803 9.98035 64.6268 10.1215 64.7199 10.2345C64.8162 10.3474 64.9424 10.4437 65.0986 10.5235C65.2547 10.6032 65.4324 10.6746 65.6317 10.7377C65.831 10.8008 66.0353 10.8689 66.2446 10.942C66.4539 11.0118 66.6582 11.0948 66.8575 11.1912C67.0568 11.2842 67.2345 11.4038 67.3906 11.5499C67.5468 11.6928 67.6713 11.8688 67.7643 12.0781C67.8607 12.2874 67.9088 12.5415 67.9088 12.8405C67.9088 13.166 67.8524 13.4716 67.7394 13.7573C67.6298 14.0396 67.467 14.2871 67.2511 14.4997C67.0385 14.709 66.7777 14.8751 66.4688 14.998C66.1599 15.1176 65.8061 15.1774 65.4075 15.1774C65.1783 15.1774 64.9524 15.1541 64.7298 15.1076C64.5073 15.0644 64.293 15.0013 64.087 14.9183C63.8844 14.8352 63.6934 14.7356 63.514 14.6193C63.3347 14.503 63.1752 14.3735 63.0357 14.2307L63.4293 13.5879C63.4625 13.5414 63.5057 13.5032 63.5589 13.4733C63.612 13.4401 63.6685 13.4234 63.7283 13.4234C63.8113 13.4234 63.901 13.4583 63.9974 13.5281C64.0937 13.5945 64.2083 13.6693 64.3412 13.7523C64.474 13.8354 64.6285 13.9118 64.8046 13.9815C64.9839 14.048 65.1982 14.0812 65.4473 14.0812C65.8294 14.0812 66.125 13.9915 66.3343 13.8121C66.5436 13.6294 66.6482 13.3686 66.6482 13.0298C66.6482 12.8405 66.6 12.686 66.5037 12.5664C66.4107 12.4468 66.2861 12.3472 66.13 12.2674C65.9739 12.1844 65.7961 12.1146 65.5968 12.0582C65.3975 12.0017 65.1949 11.9402 64.9889 11.8738C64.783 11.8074 64.5803 11.7276 64.381 11.6346C64.1817 11.5416 64.004 11.4204 63.8479 11.2709C63.6917 11.1214 63.5655 10.9354 63.4692 10.7128C63.3762 10.4869 63.3297 10.2096 63.3297 9.8807C63.3297 9.61827 63.3812 9.36249 63.4841 9.11335C63.5904 8.86421 63.7432 8.64331 63.9425 8.45064C64.1419 8.25797 64.3877 8.10351 64.68 7.98724C64.9723 7.87098 65.3078 7.81285 65.6865 7.81285C66.1117 7.81285 66.5037 7.87928 66.8625 8.01216C67.2212 8.14503 67.5268 8.33105 67.7793 8.57023L67.4454 9.20304ZM70.1399 9.98533V15.0977H68.9041V9.98533H70.1399ZM70.3093 8.49549C70.3093 8.60179 70.2877 8.70144 70.2445 8.79445C70.2013 8.88746 70.1432 8.96885 70.0701 9.03861C70.0004 9.10837 69.9173 9.16484 69.821 9.20802C69.7246 9.24788 69.6217 9.26782 69.512 9.26782C69.4057 9.26782 69.3044 9.24788 69.2081 9.20802C69.1151 9.16484 69.0337 9.10837 68.9639 9.03861C68.8942 8.96885 68.8377 8.88746 68.7945 8.79445C68.7547 8.70144 68.7347 8.60179 68.7347 8.49549C68.7347 8.38587 68.7547 8.28289 68.7945 8.18655C68.8377 8.09022 68.8942 8.00718 68.9639 7.93742C69.0337 7.86766 69.1151 7.81285 69.2081 7.77298C69.3044 7.7298 69.4057 7.70821 69.512 7.70821C69.6217 7.70821 69.7246 7.7298 69.821 7.77298C69.9173 7.81285 70.0004 7.86766 70.0701 7.93742C70.1432 8.00718 70.2013 8.09022 70.2445 8.18655C70.2877 8.28289 70.3093 8.38587 70.3093 8.49549ZM75.0669 10.4936C75.0669 10.5799 75.0519 10.6647 75.022 10.7477C74.9922 10.8307 74.9523 10.8988 74.9025 10.952L72.4759 14.1509H74.9922V15.0977H71.0458V14.5844C71.0458 14.528 71.0591 14.4615 71.0857 14.3851C71.1122 14.3054 71.1521 14.2307 71.2052 14.1609L73.6568 10.9271H71.1903V9.98533H75.0669V10.4936ZM79.1844 11.9535C79.1844 11.7941 79.1611 11.6446 79.1146 11.5051C79.0714 11.3622 79.005 11.2377 78.9153 11.1314C78.8256 11.0251 78.711 10.942 78.5715 10.8822C78.4353 10.8191 78.2758 10.7876 78.0931 10.7876C77.7377 10.7876 77.457 10.8889 77.2511 11.0915C77.0484 11.2941 76.9189 11.5815 76.8624 11.9535H79.1844ZM76.8375 12.696C76.8574 12.9584 76.9039 13.1859 76.977 13.3786C77.0501 13.5679 77.1464 13.7257 77.266 13.852C77.3856 13.9749 77.5268 14.0679 77.6895 14.131C77.8556 14.1908 78.0383 14.2207 78.2376 14.2207C78.437 14.2207 78.608 14.1974 78.7509 14.1509C78.897 14.1044 79.0233 14.0529 79.1296 13.9965C79.2392 13.94 79.3339 13.8885 79.4136 13.842C79.4966 13.7955 79.5764 13.7722 79.6528 13.7722C79.7557 13.7722 79.8321 13.8104 79.882 13.8868L80.2357 14.3353C80.0995 14.4947 79.9467 14.6293 79.7773 14.7389C79.6079 14.8452 79.4302 14.9316 79.2442 14.998C79.0615 15.0611 78.8738 15.106 78.6811 15.1325C78.4918 15.1591 78.3074 15.1724 78.128 15.1724C77.7726 15.1724 77.4421 15.1143 77.1365 14.998C76.8308 14.8784 76.5651 14.704 76.3392 14.4748C76.1133 14.2423 75.9356 13.9566 75.8061 13.6178C75.6765 13.2756 75.6117 12.8803 75.6117 12.4319C75.6117 12.0831 75.6682 11.7559 75.7811 11.4503C75.8941 11.1413 76.0552 10.8739 76.2645 10.648C76.4771 10.4188 76.7345 10.2378 77.0368 10.1049C77.3424 9.97205 77.6862 9.90561 78.0682 9.90561C78.3905 9.90561 78.6878 9.9571 78.9601 10.0601C79.2325 10.1631 79.4667 10.3142 79.6627 10.5135C79.8587 10.7095 80.0115 10.952 80.1211 11.241C80.2341 11.5267 80.2905 11.8539 80.2905 12.2226C80.2905 12.4086 80.2706 12.5349 80.2308 12.6013C80.1909 12.6644 80.1145 12.696 80.0015 12.696H76.8375Z" fill="white"/>
<path d="M4.056 23.1863L1.832 28.4023H1.096L3.352 23.2583H0.264V22.6343H4.056V23.1863ZM4.77519 27.8183C5.45252 27.2743 5.98319 26.829 6.36719 26.4823C6.75119 26.1303 7.07385 25.765 7.33519 25.3863C7.60185 25.0023 7.73519 24.6263 7.73519 24.2583C7.73519 23.9117 7.64985 23.6397 7.47919 23.4423C7.31385 23.2397 7.04452 23.1383 6.67119 23.1383C6.30852 23.1383 6.02585 23.253 5.82319 23.4823C5.62585 23.7063 5.51919 24.0077 5.50319 24.3863H4.79919C4.82052 23.789 5.00185 23.3277 5.34319 23.0023C5.68452 22.677 6.12452 22.5143 6.66319 22.5143C7.21252 22.5143 7.64719 22.6663 7.96719 22.9703C8.29252 23.2743 8.45519 23.693 8.45519 24.2263C8.45519 24.669 8.32185 25.101 8.05519 25.5223C7.79385 25.9383 7.49519 26.3063 7.15919 26.6263C6.82319 26.941 6.39385 27.309 5.87119 27.7303H8.62319V28.3383H4.77519V27.8183ZM13.1528 23.2503H10.3448V25.0743C10.4674 24.9037 10.6488 24.765 10.8888 24.6583C11.1288 24.5463 11.3874 24.4903 11.6648 24.4903C12.1074 24.4903 12.4674 24.5837 12.7448 24.7703C13.0221 24.9517 13.2194 25.189 13.3368 25.4823C13.4594 25.7703 13.5208 26.077 13.5208 26.4023C13.5208 26.7863 13.4488 27.1303 13.3048 27.4343C13.1608 27.7383 12.9394 27.9783 12.6408 28.1543C12.3474 28.3303 11.9821 28.4183 11.5448 28.4183C10.9848 28.4183 10.5314 28.2743 10.1848 27.9863C9.83808 27.6983 9.62742 27.3143 9.55275 26.8343H10.2648C10.3341 27.1383 10.4808 27.3757 10.7048 27.5463C10.9288 27.717 11.2114 27.8023 11.5528 27.8023C11.9741 27.8023 12.2914 27.677 12.5048 27.4263C12.7181 27.1703 12.8248 26.8343 12.8248 26.4183C12.8248 26.0023 12.7181 25.6823 12.5048 25.4583C12.2914 25.229 11.9768 25.1143 11.5608 25.1143C11.2781 25.1143 11.0301 25.1837 10.8168 25.3223C10.6088 25.4557 10.4568 25.6397 10.3608 25.8743H9.67275V22.6103H13.1528V23.2503ZM19.973 27.2023L18.701 25.9303L17.429 27.2023L16.949 26.7223L18.221 25.4503L16.973 24.2023L17.437 23.7303L18.693 24.9863L19.949 23.7303L20.429 24.2103L19.173 25.4663L20.437 26.7383L19.973 27.2023ZM23.7184 27.1143V26.5623L26.5264 22.6743H27.3984V26.4823H28.1984V27.1143H27.3984V28.4023H26.6784V27.1143H23.7184ZM26.7104 23.4343L24.5584 26.4823H26.7104V23.4343ZM32.4857 23.1863L30.2617 28.4023H29.5257L31.7817 23.2583H28.6937V22.6343H32.4857V23.1863ZM33.2929 25.4503C33.2929 24.533 33.4422 23.8183 33.7409 23.3063C34.0395 22.789 34.5622 22.5303 35.3089 22.5303C36.0502 22.5303 36.5702 22.789 36.8689 23.3063C37.1675 23.8183 37.3169 24.533 37.3169 25.4503C37.3169 26.3837 37.1675 27.109 36.8689 27.6263C36.5702 28.1437 36.0502 28.4023 35.3089 28.4023C34.5622 28.4023 34.0395 28.1437 33.7409 27.6263C33.4422 27.109 33.2929 26.3837 33.2929 25.4503ZM36.5969 25.4503C36.5969 24.9863 36.5649 24.5943 36.5009 24.2743C36.4422 23.949 36.3169 23.6877 36.1249 23.4903C35.9382 23.293 35.6662 23.1943 35.3089 23.1943C34.9462 23.1943 34.6689 23.293 34.4769 23.4903C34.2902 23.6877 34.1649 23.949 34.1009 24.2743C34.0422 24.5943 34.0129 24.9863 34.0129 25.4503C34.0129 25.9303 34.0422 26.333 34.1009 26.6583C34.1649 26.9837 34.2902 27.245 34.4769 27.4423C34.6689 27.6397 34.9462 27.7383 35.3089 27.7383C35.6662 27.7383 35.9382 27.6397 36.1249 27.4423C36.3169 27.245 36.4422 26.9837 36.5009 26.6583C36.5649 26.333 36.5969 25.9303 36.5969 25.4503ZM43.8011 27.2023L42.5291 25.9303L41.2571 27.2023L40.7771 26.7223L42.0491 25.4503L40.8011 24.2023L41.2651 23.7303L42.5211 24.9863L43.7771 23.7303L44.2571 24.2103L43.0011 25.4663L44.2651 26.7383L43.8011 27.2023ZM51.4106 23.2503H48.6026V25.0743C48.7252 24.9037 48.9066 24.765 49.1466 24.6583C49.3866 24.5463 49.6452 24.4903 49.9226 24.4903C50.3652 24.4903 50.7252 24.5837 51.0026 24.7703C51.2799 24.9517 51.4772 25.189 51.5946 25.4823C51.7172 25.7703 51.7786 26.077 51.7786 26.4023C51.7786 26.7863 51.7066 27.1303 51.5626 27.4343C51.4186 27.7383 51.1972 27.9783 50.8986 28.1543C50.6052 28.3303 50.2399 28.4183 49.8026 28.4183C49.2426 28.4183 48.7892 28.2743 48.4426 27.9863C48.0959 27.6983 47.8852 27.3143 47.8106 26.8343H48.5226C48.5919 27.1383 48.7386 27.3757 48.9626 27.5463C49.1866 27.717 49.4692 27.8023 49.8106 27.8023C50.2319 27.8023 50.5492 27.677 50.7626 27.4263C50.9759 27.1703 51.0826 26.8343 51.0826 26.4183C51.0826 26.0023 50.9759 25.6823 50.7626 25.4583C50.5492 25.229 50.2346 25.1143 49.8186 25.1143C49.5359 25.1143 49.2879 25.1837 49.0746 25.3223C48.8666 25.4557 48.7146 25.6397 48.6186 25.8743H47.9306V22.6103H51.4106V23.2503ZM53.682 26.8503C53.7353 27.1543 53.858 27.389 54.05 27.5543C54.2473 27.7197 54.5113 27.8023 54.842 27.8023C55.2847 27.8023 55.61 27.629 55.818 27.2823C56.0313 26.9357 56.1327 26.3517 56.122 25.5303C56.01 25.7703 55.8233 25.9597 55.562 26.0983C55.3007 26.2317 55.01 26.2983 54.69 26.2983C54.3327 26.2983 54.0127 26.2263 53.73 26.0823C53.4527 25.933 53.234 25.717 53.074 25.4343C52.914 25.1517 52.834 24.8103 52.834 24.4103C52.834 23.8397 52.9993 23.381 53.33 23.0343C53.6607 22.6823 54.13 22.5063 54.738 22.5063C55.4847 22.5063 56.0073 22.749 56.306 23.2343C56.61 23.7197 56.762 24.4423 56.762 25.4023C56.762 26.0743 56.7007 26.629 56.578 27.0663C56.4607 27.5037 56.258 27.837 55.97 28.0663C55.6873 28.2957 55.298 28.4103 54.802 28.4103C54.258 28.4103 53.834 28.2637 53.53 27.9703C53.226 27.677 53.0527 27.3037 53.01 26.8503H53.682ZM54.81 25.6823C55.1673 25.6823 55.4607 25.573 55.69 25.3543C55.9193 25.1303 56.034 24.829 56.034 24.4503C56.034 24.0503 55.922 23.7277 55.698 23.4823C55.474 23.237 55.1593 23.1143 54.754 23.1143C54.3807 23.1143 54.082 23.2317 53.858 23.4663C53.6393 23.701 53.53 24.0103 53.53 24.3943C53.53 24.7837 53.6393 25.0957 53.858 25.3303C54.0767 25.565 54.394 25.6823 54.81 25.6823ZM57.7851 25.4503C57.7851 24.533 57.9344 23.8183 58.2331 23.3063C58.5317 22.789 59.0544 22.5303 59.8011 22.5303C60.5424 22.5303 61.0624 22.789 61.3611 23.3063C61.6597 23.8183 61.8091 24.533 61.8091 25.4503C61.8091 26.3837 61.6597 27.109 61.3611 27.6263C61.0624 28.1437 60.5424 28.4023 59.8011 28.4023C59.0544 28.4023 58.5317 28.1437 58.2331 27.6263C57.9344 27.109 57.7851 26.3837 57.7851 25.4503ZM61.0891 25.4503C61.0891 24.9863 61.0571 24.5943 60.9931 24.2743C60.9344 23.949 60.8091 23.6877 60.6171 23.4903C60.4304 23.293 60.1584 23.1943 59.8011 23.1943C59.4384 23.1943 59.1611 23.293 58.9691 23.4903C58.7824 23.6877 58.6571 23.949 58.5931 24.2743C58.5344 24.5943 58.5051 24.9863 58.5051 25.4503C58.5051 25.9303 58.5344 26.333 58.5931 26.6583C58.6571 26.9837 58.7824 27.245 58.9691 27.4423C59.1611 27.6397 59.4384 27.7383 59.8011 27.7383C60.1584 27.7383 60.4304 27.6397 60.6171 27.4423C60.8091 27.245 60.9344 26.9837 60.9931 26.6583C61.0571 26.333 61.0891 25.9303 61.0891 25.4503ZM70.3333 23.9383C70.6746 23.9383 70.9786 24.0103 71.2453 24.1543C71.512 24.293 71.7226 24.5037 71.8773 24.7863C72.032 25.069 72.1093 25.413 72.1093 25.8183V28.4023H71.3893V25.9223C71.3893 25.485 71.28 25.1517 71.0613 24.9223C70.848 24.6877 70.5573 24.5703 70.1893 24.5703C69.8106 24.5703 69.5093 24.693 69.2853 24.9383C69.0613 25.1783 68.9493 25.5277 68.9493 25.9863V28.4023H68.2293V25.9223C68.2293 25.485 68.12 25.1517 67.9013 24.9223C67.688 24.6877 67.3973 24.5703 67.0293 24.5703C66.6506 24.5703 66.3493 24.693 66.1253 24.9383C65.9013 25.1783 65.7893 25.5277 65.7893 25.9863V28.4023H65.0613V24.0183H65.7893V24.6503C65.9333 24.421 66.1253 24.245 66.3653 24.1223C66.6106 23.9997 66.88 23.9383 67.1733 23.9383C67.5413 23.9383 67.8666 24.021 68.1493 24.1863C68.432 24.3517 68.6426 24.5943 68.7813 24.9143C68.904 24.605 69.1066 24.365 69.3893 24.1943C69.672 24.0237 69.9866 23.9383 70.3333 23.9383ZM78.5755 23.9383C78.9168 23.9383 79.2208 24.0103 79.4875 24.1543C79.7542 24.293 79.9648 24.5037 80.1195 24.7863C80.2742 25.069 80.3515 25.413 80.3515 25.8183V28.4023H79.6315V25.9223C79.6315 25.485 79.5222 25.1517 79.3035 24.9223C79.0902 24.6877 78.7995 24.5703 78.4315 24.5703C78.0528 24.5703 77.7515 24.693 77.5275 24.9383C77.3035 25.1783 77.1915 25.5277 77.1915 25.9863V28.4023H76.4715V25.9223C76.4715 25.485 76.3622 25.1517 76.1435 24.9223C75.9302 24.6877 75.6395 24.5703 75.2715 24.5703C74.8928 24.5703 74.5915 24.693 74.3675 24.9383C74.1435 25.1783 74.0315 25.5277 74.0315 25.9863V28.4023H73.3035V24.0183H74.0315V24.6503C74.1755 24.421 74.3675 24.245 74.6075 24.1223C74.8528 23.9997 75.1222 23.9383 75.4155 23.9383C75.7835 23.9383 76.1088 24.021 76.3915 24.1863C76.6742 24.3517 76.8848 24.5943 77.0235 24.9143C77.1462 24.605 77.3488 24.365 77.6315 24.1943C77.9142 24.0237 78.2288 23.9383 78.5755 23.9383Z" fill="white"/>
<rect x="87" width="36.5" height="36.5" rx="18.25" fill="white"/>
<path fill-rule="evenodd" clip-rule="evenodd" d="M114.336 19.2572H96.164L98.043 21.1357C98.1359 21.2286 98.2096 21.3388 98.2598 21.4602C98.3101 21.5815 98.336 21.7116 98.336 21.8429C98.336 21.9743 98.3101 22.1043 98.2598 22.2257C98.2096 22.347 98.1359 22.4573 98.043 22.5502C97.9501 22.6431 97.8399 22.7167 97.7185 22.767C97.5972 22.8173 97.4671 22.8431 97.3358 22.8431C97.2044 22.8431 97.0743 22.8173 96.953 22.767C96.8316 22.7167 96.7214 22.6431 96.6285 22.5502L93.0935 19.0147L93.0685 18.9887C92.9681 18.8951 92.8879 18.7819 92.8331 18.6561C92.7783 18.5302 92.75 18.3944 92.75 18.2572C92.75 18.0107 92.839 17.7847 92.987 17.6107C93.0187 17.5667 93.054 17.525 93.093 17.4857L96.6285 13.9507C96.816 13.7631 97.0703 13.6577 97.3356 13.6577C97.6008 13.6576 97.8552 13.7629 98.0427 13.9504C98.2303 14.1379 98.3357 14.3923 98.3358 14.6575C98.3358 14.9227 98.2305 15.1771 98.043 15.3647L96.15 17.2572H114.349L112.456 15.3647C112.364 15.2718 112.29 15.1615 112.24 15.0402C112.189 14.9188 112.164 14.7888 112.164 14.6574C112.164 14.5261 112.189 14.396 112.24 14.2747C112.29 14.1533 112.364 14.0431 112.456 13.9502C112.644 13.7626 112.898 13.6572 113.164 13.6572C113.295 13.6572 113.425 13.6831 113.547 13.7334C113.668 13.7836 113.778 13.8573 113.871 13.9502L117.406 17.4857C117.446 17.525 117.482 17.5667 117.513 17.6107C117.661 17.7847 117.75 18.0107 117.75 18.2572C117.75 18.5462 117.627 18.8062 117.431 18.9887L117.406 19.0147L113.871 22.5497C113.683 22.7373 113.429 22.8427 113.164 22.8427C112.899 22.8428 112.644 22.7374 112.457 22.5499C112.269 22.3624 112.164 22.1081 112.164 21.8429C112.164 21.5776 112.269 21.3233 112.456 21.1357L114.336 19.2572Z" fill="#361269"/>
</svg>
