<svg width="124" height="37" viewBox="0 0 124 37" fill="none" xmlns="http://www.w3.org/2000/svg">
<path d="M9.424 14.0556C9.512 14.0556 9.59 14.0896 9.658 14.1576L10.294 14.8476C9.942 15.2836 9.508 15.6176 8.992 15.8496C8.48 16.0816 7.864 16.1976 7.144 16.1976C6.5 16.1976 5.92 16.0876 5.404 15.8676C4.892 15.6476 4.454 15.3416 4.09 14.9496C3.726 14.5576 3.446 14.0896 3.25 13.5456C3.058 13.0016 2.962 12.4076 2.962 11.7636C2.962 11.1116 3.066 10.5156 3.274 9.97556C3.482 9.43156 3.774 8.96356 4.15 8.57156C4.53 8.17956 4.982 7.87556 5.506 7.65956C6.03 7.43956 6.61 7.32956 7.246 7.32956C7.878 7.32956 8.438 7.43356 8.926 7.64156C9.418 7.84956 9.836 8.12156 10.18 8.45756L9.64 9.20756C9.608 9.25556 9.566 9.29756 9.514 9.33356C9.466 9.36956 9.398 9.38756 9.31 9.38756C9.25 9.38756 9.188 9.37156 9.124 9.33956C9.06 9.30356 8.99 9.26156 8.914 9.21356C8.838 9.16156 8.75 9.10556 8.65 9.04556C8.55 8.98556 8.434 8.93156 8.302 8.88356C8.17 8.83156 8.016 8.78956 7.84 8.75756C7.668 8.72156 7.468 8.70356 7.24 8.70356C6.852 8.70356 6.496 8.77356 6.172 8.91356C5.852 9.04956 5.576 9.24956 5.344 9.51356C5.112 9.77356 4.932 10.0936 4.804 10.4736C4.676 10.8496 4.612 11.2796 4.612 11.7636C4.612 12.2516 4.68 12.6856 4.816 13.0656C4.956 13.4456 5.144 13.7656 5.38 14.0256C5.616 14.2856 5.894 14.4856 6.214 14.6256C6.534 14.7616 6.878 14.8296 7.246 14.8296C7.466 14.8296 7.664 14.8176 7.84 14.7936C8.02 14.7696 8.184 14.7316 8.332 14.6796C8.484 14.6276 8.626 14.5616 8.758 14.4816C8.894 14.3976 9.028 14.2956 9.16 14.1756C9.2 14.1396 9.242 14.1116 9.286 14.0916C9.33 14.0676 9.376 14.0556 9.424 14.0556ZM14.4176 13.4736C13.9896 13.4936 13.6296 13.5316 13.3376 13.5876C13.0456 13.6396 12.8116 13.7076 12.6356 13.7916C12.4596 13.8756 12.3336 13.9736 12.2576 14.0856C12.1816 14.1976 12.1436 14.3196 12.1436 14.4516C12.1436 14.7116 12.2196 14.8976 12.3716 15.0096C12.5276 15.1216 12.7296 15.1776 12.9776 15.1776C13.2816 15.1776 13.5436 15.1236 13.7636 15.0156C13.9876 14.9036 14.2056 14.7356 14.4176 14.5116V13.4736ZM11.0216 10.8036C11.7296 10.1556 12.5816 9.83156 13.5776 9.83156C13.9376 9.83156 14.2596 9.89156 14.5436 10.0116C14.8276 10.1276 15.0676 10.2916 15.2636 10.5036C15.4596 10.7116 15.6076 10.9616 15.7076 11.2536C15.8116 11.5456 15.8636 11.8656 15.8636 12.2136V16.1016H15.1916C15.0516 16.1016 14.9436 16.0816 14.8676 16.0416C14.7916 15.9976 14.7316 15.9116 14.6876 15.7836L14.5556 15.3396C14.3996 15.4796 14.2476 15.6036 14.0996 15.7116C13.9516 15.8156 13.7976 15.9036 13.6376 15.9756C13.4776 16.0476 13.3056 16.1016 13.1216 16.1376C12.9416 16.1776 12.7416 16.1976 12.5216 16.1976C12.2616 16.1976 12.0216 16.1636 11.8016 16.0956C11.5816 16.0236 11.3916 15.9176 11.2316 15.7776C11.0716 15.6376 10.9476 15.4636 10.8596 15.2556C10.7716 15.0476 10.7276 14.8056 10.7276 14.5296C10.7276 14.3736 10.7536 14.2196 10.8056 14.0676C10.8576 13.9116 10.9416 13.7636 11.0576 13.6236C11.1776 13.4836 11.3316 13.3516 11.5196 13.2276C11.7076 13.1036 11.9376 12.9956 12.2096 12.9036C12.4856 12.8116 12.8056 12.7376 13.1696 12.6816C13.5336 12.6216 13.9496 12.5856 14.4176 12.5736V12.2136C14.4176 11.8016 14.3296 11.4976 14.1536 11.3016C13.9776 11.1016 13.7236 11.0016 13.3916 11.0016C13.1516 11.0016 12.9516 11.0296 12.7916 11.0856C12.6356 11.1416 12.4976 11.2056 12.3776 11.2776C12.2576 11.3456 12.1476 11.4076 12.0476 11.4636C11.9516 11.5196 11.8436 11.5476 11.7236 11.5476C11.6196 11.5476 11.5316 11.5216 11.4596 11.4696C11.3876 11.4136 11.3296 11.3496 11.2856 11.2776L11.0216 10.8036ZM18.6573 11.0136C18.8493 10.6456 19.0773 10.3576 19.3413 10.1496C19.6053 9.93756 19.9173 9.83156 20.2773 9.83156C20.5613 9.83156 20.7893 9.89356 20.9613 10.0176L20.8653 11.1276C20.8453 11.1996 20.8153 11.2516 20.7753 11.2836C20.7393 11.3116 20.6893 11.3256 20.6253 11.3256C20.5653 11.3256 20.4753 11.3156 20.3553 11.2956C20.2393 11.2756 20.1253 11.2656 20.0133 11.2656C19.8493 11.2656 19.7033 11.2896 19.5753 11.3376C19.4473 11.3856 19.3313 11.4556 19.2273 11.5476C19.1273 11.6356 19.0373 11.7436 18.9573 11.8716C18.8813 11.9996 18.8093 12.1456 18.7413 12.3096V16.1016H17.2593V9.94556H18.1293C18.2813 9.94556 18.3873 9.97356 18.4473 10.0296C18.5073 10.0816 18.5473 10.1776 18.5673 10.3176L18.6573 11.0136ZM23.7879 16.1976C23.2519 16.1976 22.8399 16.0476 22.5519 15.7476C22.2679 15.4436 22.1259 15.0256 22.1259 14.4936V11.0556H21.4959C21.4159 11.0556 21.3479 11.0296 21.2919 10.9776C21.2359 10.9256 21.2079 10.8476 21.2079 10.7436V10.1556L22.1979 9.99356L22.5099 8.31356C22.5299 8.23356 22.5679 8.17156 22.6239 8.12756C22.6799 8.08356 22.7519 8.06156 22.8399 8.06156H23.6079V9.99956H25.2519V11.0556H23.6079V14.3916C23.6079 14.5836 23.6539 14.7336 23.7459 14.8416C23.8419 14.9496 23.9719 15.0036 24.1359 15.0036C24.2279 15.0036 24.3039 14.9936 24.3639 14.9736C24.4279 14.9496 24.4819 14.9256 24.5259 14.9016C24.5739 14.8776 24.6159 14.8556 24.6519 14.8356C24.6879 14.8116 24.7239 14.7996 24.7599 14.7996C24.8039 14.7996 24.8399 14.8116 24.8679 14.8356C24.8959 14.8556 24.9259 14.8876 24.9579 14.9316L25.4019 15.6516C25.1859 15.8316 24.9379 15.9676 24.6579 16.0596C24.3779 16.1516 24.0879 16.1976 23.7879 16.1976ZM28.8779 9.84956C29.3339 9.84956 29.7479 9.92356 30.1199 10.0716C30.4959 10.2196 30.8159 10.4296 31.0799 10.7016C31.3479 10.9736 31.5539 11.3056 31.6979 11.6976C31.8419 12.0896 31.9139 12.5276 31.9139 13.0116C31.9139 13.4996 31.8419 13.9396 31.6979 14.3316C31.5539 14.7236 31.3479 15.0576 31.0799 15.3336C30.8159 15.6096 30.4959 15.8216 30.1199 15.9696C29.7479 16.1176 29.3339 16.1916 28.8779 16.1916C28.4179 16.1916 27.9999 16.1176 27.6239 15.9696C27.2479 15.8216 26.9259 15.6096 26.6579 15.3336C26.3939 15.0576 26.1879 14.7236 26.0399 14.3316C25.8959 13.9396 25.8239 13.4996 25.8239 13.0116C25.8239 12.5276 25.8959 12.0896 26.0399 11.6976C26.1879 11.3056 26.3939 10.9736 26.6579 10.7016C26.9259 10.4296 27.2479 10.2196 27.6239 10.0716C27.9999 9.92356 28.4179 9.84956 28.8779 9.84956ZM28.8779 15.0516C29.3899 15.0516 29.7679 14.8796 30.0119 14.5356C30.2599 14.1916 30.3839 13.6876 30.3839 13.0236C30.3839 12.3596 30.2599 11.8536 30.0119 11.5056C29.7679 11.1576 29.3899 10.9836 28.8779 10.9836C28.3579 10.9836 27.9719 11.1596 27.7199 11.5116C27.4719 11.8596 27.3479 12.3636 27.3479 13.0236C27.3479 13.6836 27.4719 14.1876 27.7199 14.5356C27.9719 14.8796 28.3579 15.0516 28.8779 15.0516ZM34.4305 10.7016C34.5545 10.5776 34.6845 10.4636 34.8205 10.3596C34.9605 10.2516 35.1065 10.1616 35.2585 10.0896C35.4145 10.0136 35.5805 9.95556 35.7565 9.91556C35.9325 9.87156 36.1245 9.84956 36.3325 9.84956C36.6685 9.84956 36.9665 9.90756 37.2265 10.0236C37.4865 10.1356 37.7025 10.2956 37.8745 10.5036C38.0505 10.7076 38.1825 10.9536 38.2705 11.2416C38.3625 11.5256 38.4085 11.8396 38.4085 12.1836V16.1016H36.9265V12.1836C36.9265 11.8076 36.8405 11.5176 36.6685 11.3136C36.4965 11.1056 36.2345 11.0016 35.8825 11.0016C35.6265 11.0016 35.3865 11.0596 35.1625 11.1756C34.9385 11.2916 34.7265 11.4496 34.5265 11.6496V16.1016H33.0445V9.94556H33.9505C34.1425 9.94556 34.2685 10.0356 34.3285 10.2156L34.4305 10.7016ZM54.4319 7.42556L51.7379 16.1016H50.2799L48.3839 10.1736C48.3319 10.0296 48.2839 9.85356 48.2399 9.64556C48.2159 9.74556 48.1919 9.83956 48.1679 9.92756C48.1439 10.0156 48.1179 10.0976 48.0899 10.1736L46.1759 16.1016H44.7119L42.0239 7.42556H43.3739C43.5139 7.42556 43.6299 7.45956 43.7219 7.52756C43.8179 7.59156 43.8819 7.67956 43.9139 7.79156L45.3899 12.9816C45.4219 13.1096 45.4519 13.2496 45.4799 13.4016C45.5119 13.5496 45.5439 13.7056 45.5759 13.8696C45.6079 13.7016 45.6419 13.5436 45.6779 13.3956C45.7179 13.2476 45.7599 13.1096 45.8039 12.9816L47.5079 7.79156C47.5399 7.69956 47.6019 7.61556 47.6939 7.53956C47.7899 7.46356 47.9059 7.42556 48.0419 7.42556H48.5159C48.6559 7.42556 48.7699 7.45956 48.8579 7.52756C48.9459 7.59556 49.0119 7.68356 49.0559 7.79156L50.7539 12.9816C50.8379 13.2296 50.9139 13.5156 50.9819 13.8396C51.0339 13.5236 51.0919 13.2376 51.1559 12.9816L52.6319 7.79156C52.6559 7.69156 52.7159 7.60556 52.8119 7.53356C52.9119 7.46156 53.0299 7.42556 53.1659 7.42556H54.4319ZM58.5027 12.3156C58.5027 12.1236 58.4747 11.9436 58.4187 11.7756C58.3667 11.6036 58.2867 11.4536 58.1787 11.3256C58.0707 11.1976 57.9327 11.0976 57.7647 11.0256C57.6007 10.9496 57.4087 10.9116 57.1887 10.9116C56.7607 10.9116 56.4227 11.0336 56.1747 11.2776C55.9307 11.5216 55.7747 11.8676 55.7067 12.3156H58.5027ZM55.6767 13.2096C55.7007 13.5256 55.7567 13.7996 55.8447 14.0316C55.9327 14.2596 56.0487 14.4496 56.1927 14.6016C56.3367 14.7496 56.5067 14.8616 56.7027 14.9376C56.9027 15.0096 57.1227 15.0456 57.3627 15.0456C57.6027 15.0456 57.8087 15.0176 57.9807 14.9616C58.1567 14.9056 58.3087 14.8436 58.4367 14.7756C58.5687 14.7076 58.6827 14.6456 58.7787 14.5896C58.8787 14.5336 58.9747 14.5056 59.0667 14.5056C59.1907 14.5056 59.2827 14.5516 59.3427 14.6436L59.7687 15.1836C59.6047 15.3756 59.4207 15.5376 59.2167 15.6696C59.0127 15.7976 58.7987 15.9016 58.5747 15.9816C58.3547 16.0576 58.1287 16.1116 57.8967 16.1436C57.6687 16.1756 57.4467 16.1916 57.2307 16.1916C56.8027 16.1916 56.4047 16.1216 56.0367 15.9816C55.6687 15.8376 55.3487 15.6276 55.0767 15.3516C54.8047 15.0716 54.5907 14.7276 54.4347 14.3196C54.2787 13.9076 54.2007 13.4316 54.2007 12.8916C54.2007 12.4716 54.2687 12.0776 54.4047 11.7096C54.5407 11.3376 54.7347 11.0156 54.9867 10.7436C55.2427 10.4676 55.5527 10.2496 55.9167 10.0896C56.2847 9.92956 56.6987 9.84956 57.1587 9.84956C57.5467 9.84956 57.9047 9.91156 58.2327 10.0356C58.5607 10.1596 58.8427 10.3416 59.0787 10.5816C59.3147 10.8176 59.4987 11.1096 59.6307 11.4576C59.7667 11.8016 59.8347 12.1956 59.8347 12.6396C59.8347 12.8636 59.8107 13.0156 59.7627 13.0956C59.7147 13.1716 59.6227 13.2096 59.4867 13.2096H55.6767ZM62.4828 9.94556V16.1016H60.9948V9.94556H62.4828ZM62.6868 8.15156C62.6868 8.27956 62.6608 8.39956 62.6088 8.51156C62.5568 8.62356 62.4868 8.72156 62.3988 8.80556C62.3148 8.88956 62.2148 8.95756 62.0988 9.00956C61.9828 9.05756 61.8588 9.08156 61.7268 9.08156C61.5988 9.08156 61.4768 9.05756 61.3608 9.00956C61.2488 8.95756 61.1508 8.88956 61.0668 8.80556C60.9828 8.72156 60.9148 8.62356 60.8628 8.51156C60.8148 8.39956 60.7908 8.27956 60.7908 8.15156C60.7908 8.01956 60.8148 7.89556 60.8628 7.77956C60.9148 7.66356 60.9828 7.56356 61.0668 7.47956C61.1508 7.39556 61.2488 7.32956 61.3608 7.28156C61.4768 7.22956 61.5988 7.20356 61.7268 7.20356C61.8588 7.20356 61.9828 7.22956 62.0988 7.28156C62.2148 7.32956 62.3148 7.39556 62.3988 7.47956C62.4868 7.56356 62.5568 7.66356 62.6088 7.77956C62.6608 7.89556 62.6868 8.01956 62.6868 8.15156ZM66.2437 12.8736C66.4277 12.8736 66.5877 12.8496 66.7237 12.8016C66.8597 12.7496 66.9717 12.6796 67.0597 12.5916C67.1517 12.5036 67.2197 12.3976 67.2637 12.2736C67.3117 12.1496 67.3357 12.0136 67.3357 11.8656C67.3357 11.5616 67.2437 11.3216 67.0597 11.1456C66.8797 10.9656 66.6077 10.8756 66.2437 10.8756C65.8797 10.8756 65.6057 10.9656 65.4217 11.1456C65.2417 11.3216 65.1517 11.5616 65.1517 11.8656C65.1517 12.0096 65.1737 12.1436 65.2177 12.2676C65.2657 12.3916 65.3337 12.4996 65.4217 12.5916C65.5137 12.6796 65.6277 12.7496 65.7637 12.8016C65.9037 12.8496 66.0637 12.8736 66.2437 12.8736ZM67.9177 16.3776C67.9177 16.2576 67.8817 16.1596 67.8097 16.0836C67.7377 16.0076 67.6397 15.9496 67.5157 15.9096C67.3917 15.8656 67.2457 15.8336 67.0777 15.8136C66.9137 15.7936 66.7377 15.7796 66.5497 15.7716C66.3657 15.7596 66.1737 15.7496 65.9737 15.7416C65.7777 15.7336 65.5857 15.7176 65.3977 15.6936C65.2337 15.7856 65.0997 15.8936 64.9957 16.0176C64.8957 16.1416 64.8457 16.2856 64.8457 16.4496C64.8457 16.5576 64.8717 16.6576 64.9237 16.7496C64.9797 16.8456 65.0657 16.9276 65.1817 16.9956C65.3017 17.0636 65.4557 17.1156 65.6437 17.1516C65.8317 17.1916 66.0617 17.2116 66.3337 17.2116C66.6097 17.2116 66.8477 17.1896 67.0477 17.1456C67.2477 17.1056 67.4117 17.0476 67.5397 16.9716C67.6717 16.8996 67.7677 16.8116 67.8277 16.7076C67.8877 16.6076 67.9177 16.4976 67.9177 16.3776ZM69.3937 10.1556V10.7076C69.3937 10.8836 69.2877 10.9916 69.0757 11.0316L68.5237 11.1336C68.6077 11.3456 68.6497 11.5776 68.6497 11.8296C68.6497 12.1336 68.5877 12.4096 68.4637 12.6576C68.3437 12.9016 68.1757 13.1096 67.9597 13.2816C67.7437 13.4536 67.4877 13.5876 67.1917 13.6836C66.8997 13.7756 66.5837 13.8216 66.2437 13.8216C66.1237 13.8216 66.0077 13.8156 65.8957 13.8036C65.7837 13.7916 65.6737 13.7756 65.5657 13.7556C65.3737 13.8716 65.2777 14.0016 65.2777 14.1456C65.2777 14.2696 65.3337 14.3616 65.4457 14.4216C65.5617 14.4776 65.7137 14.5176 65.9017 14.5416C66.0897 14.5656 66.3037 14.5816 66.5437 14.5896C66.7837 14.5936 67.0297 14.6056 67.2817 14.6256C67.5337 14.6456 67.7797 14.6816 68.0197 14.7336C68.2597 14.7816 68.4737 14.8596 68.6617 14.9676C68.8497 15.0756 68.9997 15.2236 69.1117 15.4116C69.2277 15.5956 69.2857 15.8336 69.2857 16.1256C69.2857 16.3976 69.2177 16.6616 69.0817 16.9176C68.9497 17.1736 68.7557 17.4016 68.4997 17.6016C68.2477 17.8016 67.9357 17.9616 67.5637 18.0816C67.1957 18.2056 66.7757 18.2676 66.3037 18.2676C65.8397 18.2676 65.4357 18.2216 65.0917 18.1296C64.7477 18.0416 64.4617 17.9216 64.2337 17.7696C64.0057 17.6216 63.8357 17.4496 63.7237 17.2536C63.6117 17.0576 63.5557 16.8536 63.5557 16.6416C63.5557 16.3536 63.6417 16.1136 63.8137 15.9216C63.9897 15.7256 64.2297 15.5696 64.5337 15.4536C64.3697 15.3696 64.2397 15.2576 64.1437 15.1176C64.0477 14.9776 63.9997 14.7936 63.9997 14.5656C63.9997 14.4736 64.0157 14.3796 64.0477 14.2836C64.0837 14.1836 64.1337 14.0856 64.1977 13.9896C64.2657 13.8936 64.3497 13.8036 64.4497 13.7196C64.5497 13.6316 64.6677 13.5536 64.8037 13.4856C64.4917 13.3176 64.2457 13.0936 64.0657 12.8136C63.8897 12.5336 63.8017 12.2056 63.8017 11.8296C63.8017 11.5256 63.8617 11.2516 63.9817 11.0076C64.1057 10.7596 64.2757 10.5496 64.4917 10.3776C64.7117 10.2016 64.9697 10.0676 65.2657 9.97556C65.5657 9.88356 65.8917 9.83756 66.2437 9.83756C66.5077 9.83756 66.7557 9.86556 66.9877 9.92156C67.2197 9.97356 67.4317 10.0516 67.6237 10.1556H69.3937ZM71.8156 10.6056C72.0556 10.3816 72.3196 10.1996 72.6076 10.0596C72.8956 9.91956 73.2336 9.84956 73.6216 9.84956C73.9576 9.84956 74.2556 9.90756 74.5156 10.0236C74.7756 10.1356 74.9916 10.2956 75.1636 10.5036C75.3396 10.7076 75.4716 10.9536 75.5596 11.2416C75.6516 11.5256 75.6976 11.8396 75.6976 12.1836V16.1016H74.2156V12.1836C74.2156 11.8076 74.1296 11.5176 73.9576 11.3136C73.7856 11.1056 73.5236 11.0016 73.1716 11.0016C72.9156 11.0016 72.6756 11.0596 72.4516 11.1756C72.2276 11.2916 72.0156 11.4496 71.8156 11.6496V16.1016H70.3336V7.18556H71.8156V10.6056ZM79.077 16.1976C78.541 16.1976 78.129 16.0476 77.841 15.7476C77.557 15.4436 77.415 15.0256 77.415 14.4936V11.0556H76.785C76.705 11.0556 76.637 11.0296 76.581 10.9776C76.525 10.9256 76.497 10.8476 76.497 10.7436V10.1556L77.487 9.99356L77.799 8.31356C77.819 8.23356 77.857 8.17156 77.913 8.12756C77.969 8.08356 78.041 8.06156 78.129 8.06156H78.897V9.99956H80.541V11.0556H78.897V14.3916C78.897 14.5836 78.943 14.7336 79.035 14.8416C79.131 14.9496 79.261 15.0036 79.425 15.0036C79.517 15.0036 79.593 14.9936 79.653 14.9736C79.717 14.9496 79.771 14.9256 79.815 14.9016C79.863 14.8776 79.905 14.8556 79.941 14.8356C79.977 14.8116 80.013 14.7996 80.049 14.7996C80.093 14.7996 80.129 14.8116 80.157 14.8356C80.185 14.8556 80.215 14.8876 80.247 14.9316L80.691 15.6516C80.475 15.8316 80.227 15.9676 79.947 16.0596C79.667 16.1516 79.377 16.1976 79.077 16.1976Z" fill="white"/>
<path d="M47.435 29.5612C47.5317 29.5612 47.6083 29.5896 47.665 29.6462C47.7217 29.7029 47.75 29.7762 47.75 29.8662V30.4062H42.97V30.1012C42.97 30.0379 42.9833 29.9729 43.01 29.9062C43.0367 29.8396 43.0783 29.7779 43.135 29.7212L45.43 27.4162C45.62 27.2229 45.7933 27.0379 45.95 26.8612C46.1067 26.6812 46.24 26.5012 46.35 26.3212C46.46 26.1412 46.545 25.9596 46.605 25.7762C46.665 25.5896 46.695 25.3912 46.695 25.1812C46.695 24.9712 46.6617 24.7879 46.595 24.6312C46.5283 24.4712 46.4367 24.3396 46.32 24.2362C46.2067 24.1329 46.0717 24.0562 45.915 24.0062C45.7583 23.9529 45.59 23.9262 45.41 23.9262C45.2267 23.9262 45.0583 23.9529 44.905 24.0062C44.7517 24.0596 44.615 24.1346 44.495 24.2312C44.3783 24.3246 44.28 24.4362 44.2 24.5662C44.12 24.6962 44.0633 24.8396 44.03 24.9962C43.99 25.1129 43.935 25.1912 43.865 25.2312C43.7983 25.2679 43.7033 25.2779 43.58 25.2612L43.115 25.1812C43.1617 24.8546 43.2517 24.5662 43.385 24.3162C43.5217 24.0629 43.6917 23.8512 43.895 23.6812C44.1017 23.5112 44.3367 23.3829 44.6 23.2962C44.8633 23.2062 45.1483 23.1612 45.455 23.1612C45.7583 23.1612 46.0417 23.2062 46.305 23.2962C46.5683 23.3862 46.7967 23.5179 46.99 23.6912C47.1833 23.8612 47.335 24.0696 47.445 24.3162C47.555 24.5629 47.61 24.8429 47.61 25.1562C47.61 25.4229 47.57 25.6712 47.49 25.9012C47.41 26.1279 47.3017 26.3446 47.165 26.5512C47.0283 26.7579 46.87 26.9596 46.69 27.1562C46.5133 27.3529 46.325 27.5512 46.125 27.7512L44.235 29.6812C44.3683 29.6446 44.5033 29.6162 44.64 29.5962C44.7767 29.5729 44.9083 29.5612 45.035 29.5612H47.435ZM48.8558 29.8562C48.8558 29.7696 48.8708 29.6879 48.9008 29.6112C48.9341 29.5346 48.9774 29.4679 49.0308 29.4112C49.0874 29.3546 49.1541 29.3096 49.2308 29.2762C49.3074 29.2429 49.3891 29.2262 49.4758 29.2262C49.5624 29.2262 49.6441 29.2429 49.7208 29.2762C49.7974 29.3096 49.8641 29.3546 49.9208 29.4112C49.9774 29.4679 50.0224 29.5346 50.0558 29.6112C50.0891 29.6879 50.1058 29.7696 50.1058 29.8562C50.1058 29.9462 50.0891 30.0296 50.0558 30.1062C50.0224 30.1796 49.9774 30.2446 49.9208 30.3012C49.8641 30.3579 49.7974 30.4012 49.7208 30.4313C49.6441 30.4646 49.5624 30.4813 49.4758 30.4813C49.3891 30.4813 49.3074 30.4646 49.2308 30.4313C49.1541 30.4012 49.0874 30.3579 49.0308 30.3012C48.9774 30.2446 48.9341 30.1796 48.9008 30.1062C48.8708 30.0296 48.8558 29.9462 48.8558 29.8562ZM56.1641 26.8262C56.1641 27.4529 56.0957 27.9962 55.9591 28.4562C55.8257 28.9129 55.6424 29.2912 55.4091 29.5912C55.1757 29.8912 54.8991 30.1146 54.5791 30.2612C54.2624 30.4079 53.9224 30.4813 53.5591 30.4813C53.1924 30.4813 52.8507 30.4079 52.5341 30.2612C52.2207 30.1146 51.9474 29.8912 51.7141 29.5912C51.4807 29.2912 51.2974 28.9129 51.1641 28.4562C51.0307 27.9962 50.9641 27.4529 50.9641 26.8262C50.9641 26.1996 51.0307 25.6562 51.1641 25.1962C51.2974 24.7362 51.4807 24.3562 51.7141 24.0562C51.9474 23.7529 52.2207 23.5279 52.5341 23.3812C52.8507 23.2346 53.1924 23.1612 53.5591 23.1612C53.9224 23.1612 54.2624 23.2346 54.5791 23.3812C54.8991 23.5279 55.1757 23.7529 55.4091 24.0562C55.6424 24.3562 55.8257 24.7362 55.9591 25.1962C56.0957 25.6562 56.1641 26.1996 56.1641 26.8262ZM55.2391 26.8262C55.2391 26.2796 55.1924 25.8212 55.0991 25.4512C55.0091 25.0779 54.8857 24.7779 54.7291 24.5512C54.5757 24.3246 54.3974 24.1629 54.1941 24.0662C53.9907 23.9662 53.7791 23.9162 53.5591 23.9162C53.3391 23.9162 53.1274 23.9662 52.9241 24.0662C52.7207 24.1629 52.5424 24.3246 52.3891 24.5512C52.2357 24.7779 52.1124 25.0779 52.0191 25.4512C51.9291 25.8212 51.8841 26.2796 51.8841 26.8262C51.8841 27.3729 51.9291 27.8312 52.0191 28.2012C52.1124 28.5712 52.2357 28.8696 52.3891 29.0962C52.5424 29.3229 52.7207 29.4862 52.9241 29.5862C53.1274 29.6829 53.3391 29.7312 53.5591 29.7312C53.7791 29.7312 53.9907 29.6829 54.1941 29.5862C54.3974 29.4862 54.5757 29.3229 54.7291 29.0962C54.8857 28.8696 55.0091 28.5712 55.0991 28.2012C55.1924 27.8312 55.2391 27.3729 55.2391 26.8262ZM61.9648 26.8262C61.9648 27.4529 61.8965 27.9962 61.7598 28.4562C61.6265 28.9129 61.4432 29.2912 61.2098 29.5912C60.9765 29.8912 60.6998 30.1146 60.3798 30.2612C60.0632 30.4079 59.7232 30.4813 59.3598 30.4813C58.9932 30.4813 58.6515 30.4079 58.3348 30.2612C58.0215 30.1146 57.7482 29.8912 57.5148 29.5912C57.2815 29.2912 57.0982 28.9129 56.9648 28.4562C56.8315 27.9962 56.7648 27.4529 56.7648 26.8262C56.7648 26.1996 56.8315 25.6562 56.9648 25.1962C57.0982 24.7362 57.2815 24.3562 57.5148 24.0562C57.7482 23.7529 58.0215 23.5279 58.3348 23.3812C58.6515 23.2346 58.9932 23.1612 59.3598 23.1612C59.7232 23.1612 60.0632 23.2346 60.3798 23.3812C60.6998 23.5279 60.9765 23.7529 61.2098 24.0562C61.4432 24.3562 61.6265 24.7362 61.7598 25.1962C61.8965 25.6562 61.9648 26.1996 61.9648 26.8262ZM61.0398 26.8262C61.0398 26.2796 60.9932 25.8212 60.8998 25.4512C60.8098 25.0779 60.6865 24.7779 60.5298 24.5512C60.3765 24.3246 60.1982 24.1629 59.9948 24.0662C59.7915 23.9662 59.5798 23.9162 59.3598 23.9162C59.1398 23.9162 58.9282 23.9662 58.7248 24.0662C58.5215 24.1629 58.3432 24.3246 58.1898 24.5512C58.0365 24.7779 57.9132 25.0779 57.8198 25.4512C57.7298 25.8212 57.6848 26.2796 57.6848 26.8262C57.6848 27.3729 57.7298 27.8312 57.8198 28.2012C57.9132 28.5712 58.0365 28.8696 58.1898 29.0962C58.3432 29.3229 58.5215 29.4862 58.7248 29.5862C58.9282 29.6829 59.1398 29.7312 59.3598 29.7312C59.5798 29.7312 59.7915 29.6829 59.9948 29.5862C60.1982 29.4862 60.3765 29.3229 60.5298 29.0962C60.6865 28.8696 60.8098 28.5712 60.8998 28.2012C60.9932 27.8312 61.0398 27.3729 61.0398 26.8262ZM67.7656 26.8262C67.7656 27.4529 67.6973 27.9962 67.5606 28.4562C67.4273 28.9129 67.244 29.2912 67.0106 29.5912C66.7773 29.8912 66.5006 30.1146 66.1806 30.2612C65.864 30.4079 65.524 30.4813 65.1606 30.4813C64.794 30.4813 64.4523 30.4079 64.1356 30.2612C63.8223 30.1146 63.549 29.8912 63.3156 29.5912C63.0823 29.2912 62.899 28.9129 62.7656 28.4562C62.6323 27.9962 62.5656 27.4529 62.5656 26.8262C62.5656 26.1996 62.6323 25.6562 62.7656 25.1962C62.899 24.7362 63.0823 24.3562 63.3156 24.0562C63.549 23.7529 63.8223 23.5279 64.1356 23.3812C64.4523 23.2346 64.794 23.1612 65.1606 23.1612C65.524 23.1612 65.864 23.2346 66.1806 23.3812C66.5006 23.5279 66.7773 23.7529 67.0106 24.0562C67.244 24.3562 67.4273 24.7362 67.5606 25.1962C67.6973 25.6562 67.7656 26.1996 67.7656 26.8262ZM66.8406 26.8262C66.8406 26.2796 66.794 25.8212 66.7006 25.4512C66.6106 25.0779 66.4873 24.7779 66.3306 24.5512C66.1773 24.3246 65.999 24.1629 65.7956 24.0662C65.5923 23.9662 65.3806 23.9162 65.1606 23.9162C64.9406 23.9162 64.729 23.9662 64.5256 24.0662C64.3223 24.1629 64.144 24.3246 63.9906 24.5512C63.8373 24.7779 63.714 25.0779 63.6206 25.4512C63.5306 25.8212 63.4856 26.2796 63.4856 26.8262C63.4856 27.3729 63.5306 27.8312 63.6206 28.2012C63.714 28.5712 63.8373 28.8696 63.9906 29.0962C64.144 29.3229 64.3223 29.4862 64.5256 29.5862C64.729 29.6829 64.9406 29.7312 65.1606 29.7312C65.3806 29.7312 65.5923 29.6829 65.7956 29.5862C65.999 29.4862 66.1773 29.3229 66.3306 29.0962C66.4873 28.8696 66.6106 28.5712 66.7006 28.2012C66.794 27.8312 66.8406 27.3729 66.8406 26.8262ZM72.225 23.0412V27.3762H72.455C72.5217 27.3762 72.5767 27.3679 72.62 27.3512C72.6667 27.3312 72.715 27.2929 72.765 27.2362L74.365 25.5212C74.4117 25.4646 74.46 25.4212 74.51 25.3912C74.5633 25.3579 74.6333 25.3412 74.72 25.3412H75.525L73.66 27.3262C73.57 27.4396 73.4733 27.5279 73.37 27.5912C73.43 27.6312 73.4833 27.6779 73.53 27.7312C73.58 27.7812 73.6267 27.8396 73.67 27.9062L75.65 30.4062H74.855C74.7783 30.4062 74.7117 30.3946 74.655 30.3712C74.6017 30.3446 74.555 30.2979 74.515 30.2312L72.85 28.1562C72.8 28.0862 72.75 28.0412 72.7 28.0212C72.6533 27.9979 72.58 27.9862 72.48 27.9862H72.225V30.4062H71.33V23.0412H72.225ZM78.1731 27.9312C78.3531 27.9312 78.5115 27.9062 78.6481 27.8562C78.7848 27.8062 78.8998 27.7362 78.9931 27.6462C79.0865 27.5562 79.1565 27.4496 79.2031 27.3262C79.2498 27.1996 79.2731 27.0612 79.2731 26.9112C79.2731 26.6012 79.1781 26.3546 78.9881 26.1712C78.8015 25.9879 78.5298 25.8962 78.1731 25.8962C77.8131 25.8962 77.5381 25.9879 77.3481 26.1712C77.1615 26.3546 77.0681 26.6012 77.0681 26.9112C77.0681 27.0612 77.0915 27.1996 77.1381 27.3262C77.1881 27.4496 77.2598 27.5562 77.3531 27.6462C77.4465 27.7362 77.5615 27.8062 77.6981 27.8562C77.8348 27.9062 77.9931 27.9312 78.1731 27.9312ZM79.7781 30.6813C79.7781 30.5579 79.7431 30.4579 79.6731 30.3812C79.6031 30.3046 79.5081 30.2446 79.3881 30.2012C79.2715 30.1579 79.1348 30.1279 78.9781 30.1112C78.8215 30.0912 78.6548 30.0762 78.4781 30.0662C78.3048 30.0562 78.1281 30.0462 77.9481 30.0362C77.7681 30.0262 77.5948 30.0096 77.4281 29.9862C77.2415 30.0729 77.0881 30.1829 76.9681 30.3162C76.8515 30.4463 76.7931 30.5996 76.7931 30.7763C76.7931 30.8896 76.8215 30.9946 76.8781 31.0913C76.9381 31.1913 77.0281 31.2763 77.1481 31.3463C77.2681 31.4196 77.4181 31.4763 77.5981 31.5163C77.7815 31.5596 77.9965 31.5813 78.2431 31.5813C78.4831 31.5813 78.6981 31.5596 78.8881 31.5163C79.0781 31.4729 79.2381 31.4113 79.3681 31.3313C79.5015 31.2513 79.6031 31.1563 79.6731 31.0463C79.7431 30.9363 79.7781 30.8146 79.7781 30.6813ZM80.6831 25.5412V25.8712C80.6831 25.9812 80.6131 26.0512 80.4731 26.0812L79.8981 26.1562C80.0115 26.3762 80.0681 26.6196 80.0681 26.8862C80.0681 27.1329 80.0198 27.3579 79.9231 27.5612C79.8298 27.7612 79.6998 27.9329 79.5331 28.0762C79.3665 28.2196 79.1665 28.3296 78.9331 28.4062C78.6998 28.4829 78.4465 28.5212 78.1731 28.5212C77.9365 28.5212 77.7131 28.4929 77.5031 28.4362C77.3965 28.5029 77.3148 28.5746 77.2581 28.6512C77.2015 28.7246 77.1731 28.7996 77.1731 28.8762C77.1731 28.9962 77.2215 29.0879 77.3181 29.1512C77.4181 29.2112 77.5481 29.2546 77.7081 29.2812C77.8681 29.3079 78.0498 29.3246 78.2531 29.3312C78.4598 29.3379 78.6698 29.3496 78.8831 29.3662C79.0998 29.3796 79.3098 29.4046 79.5131 29.4412C79.7198 29.4779 79.9031 29.5379 80.0631 29.6212C80.2231 29.7046 80.3515 29.8196 80.4481 29.9662C80.5481 30.1129 80.5981 30.3029 80.5981 30.5363C80.5981 30.7529 80.5431 30.9629 80.4331 31.1663C80.3265 31.3696 80.1715 31.5496 79.9681 31.7063C79.7648 31.8663 79.5148 31.9929 79.2181 32.0863C78.9248 32.1829 78.5931 32.2313 78.2231 32.2313C77.8531 32.2313 77.5298 32.1946 77.2531 32.1213C76.9765 32.0479 76.7465 31.9496 76.5631 31.8263C76.3798 31.7029 76.2415 31.5596 76.1481 31.3963C76.0581 31.2363 76.0131 31.0679 76.0131 30.8913C76.0131 30.6413 76.0915 30.4296 76.2481 30.2562C76.4048 30.0829 76.6198 29.9446 76.8931 29.8412C76.7431 29.7746 76.6231 29.6862 76.5331 29.5762C76.4465 29.4629 76.4031 29.3112 76.4031 29.1213C76.4031 29.0479 76.4165 28.9729 76.4431 28.8962C76.4698 28.8162 76.5098 28.7379 76.5631 28.6612C76.6198 28.5812 76.6881 28.5062 76.7681 28.4362C76.8481 28.3662 76.9415 28.3046 77.0481 28.2512C76.7981 28.1112 76.6031 27.9262 76.4631 27.6962C76.3231 27.4629 76.2531 27.1929 76.2531 26.8862C76.2531 26.6396 76.2998 26.4162 76.3931 26.2162C76.4898 26.0129 76.6231 25.8412 76.7931 25.7012C76.9631 25.5579 77.1648 25.4479 77.3981 25.3712C77.6348 25.2946 77.8931 25.2562 78.1731 25.2562C78.3931 25.2562 78.5981 25.2812 78.7881 25.3312C78.9781 25.3779 79.1515 25.4479 79.3081 25.5412H80.6831Z" fill="white"/>
<rect x="87.5" width="36.5" height="36.5" rx="18.25" fill="white"/>
<path fill-rule="evenodd" clip-rule="evenodd" d="M105.286 9.633C105.425 9.54609 105.586 9.5 105.75 9.5C105.914 9.5 106.075 9.54609 106.214 9.633L112.255 13.4086L105.75 17.235L99.2453 13.4086L105.286 9.633ZM97.882 14.6371C97.8772 14.6746 97.8749 14.7123 97.875 14.75V21.75C97.875 21.8984 97.9127 22.0444 97.9847 22.1742C98.0566 22.304 98.1604 22.4133 98.2863 22.492L104.875 26.6098V18.7505L97.882 14.6371ZM106.625 26.6098L113.214 22.492C113.34 22.4133 113.443 22.304 113.515 22.1742C113.587 22.0444 113.625 21.8984 113.625 21.75V14.75C113.625 14.7121 113.623 14.6745 113.618 14.6371L106.625 18.7496V26.6098Z" fill="#FF9045"/>
</svg>
