<svg width="310" height="73" viewBox="0 0 310 73" fill="none" xmlns="http://www.w3.org/2000/svg">
<g filter="url(#filter0_d_765_4189)">
<path d="M11.5038 30.504C9.60508 30.504 8.16508 30.1733 7.18375 29.512C6.22375 28.8293 5.57308 27.88 5.23175 26.664C4.89042 25.448 4.71975 24.04 4.71975 22.44H9.87175C9.87175 23.4213 9.92508 24.2213 10.0318 24.84C10.1384 25.4587 10.3304 25.9067 10.6078 26.184C10.9064 26.44 11.3224 26.5573 11.8558 26.536C12.4104 26.5147 12.8051 26.2907 13.0398 25.864C13.2744 25.4373 13.4131 24.8293 13.4558 24.04C13.5198 23.2293 13.5518 22.2587 13.5518 21.128C13.5518 20.2747 13.4984 19.5173 13.3918 18.856C13.3064 18.1947 13.1144 17.672 12.8158 17.288C12.5384 16.8827 12.1118 16.68 11.5358 16.68C11.0024 16.68 10.5651 16.872 10.2238 17.256C9.88242 17.64 9.63708 18.2373 9.48775 19.048H4.87975L5.35975 4.10398H17.4558V8.58399H9.64775L9.35975 13.928C9.57308 13.6293 9.97842 13.3733 10.5758 13.16C11.1731 12.9253 11.8131 12.776 12.4958 12.712C13.8184 12.5627 14.9278 12.808 15.8238 13.448C16.7411 14.0667 17.4238 15.016 17.8718 16.296C18.3411 17.576 18.5758 19.144 18.5758 21C18.5758 22.3867 18.4904 23.6667 18.3198 24.84C18.1491 25.992 17.8184 26.9947 17.3278 27.848C16.8371 28.68 16.1224 29.3307 15.1838 29.8C14.2451 30.2693 13.0184 30.504 11.5038 30.504ZM28.425 30.504C26.8677 30.504 25.5663 30.1947 24.521 29.576C23.4757 28.936 22.6863 28.0613 22.153 26.952C21.6197 25.8427 21.353 24.552 21.353 23.08V11.336C21.353 9.82132 21.5983 8.49865 22.089 7.36799C22.601 6.21599 23.3797 5.31999 24.425 4.67999C25.4703 4.03999 26.8037 3.71999 28.425 3.71999C30.0463 3.71999 31.369 4.03999 32.393 4.67999C33.4383 5.31999 34.2063 6.21599 34.697 7.36799C35.209 8.49865 35.465 9.82132 35.465 11.336V23.08C35.465 24.5307 35.1983 25.8213 34.665 26.952C34.1317 28.0613 33.3423 28.936 32.297 29.576C31.2517 30.1947 29.961 30.504 28.425 30.504ZM28.425 25.736C28.937 25.736 29.2997 25.576 29.513 25.256C29.7477 24.9147 29.8863 24.5307 29.929 24.104C29.993 23.656 30.025 23.272 30.025 22.952V11.464C30.025 11.1013 30.0037 10.696 29.961 10.248C29.9183 9.77865 29.7797 9.37332 29.545 9.03199C29.3317 8.66932 28.9583 8.48799 28.425 8.48799C27.8917 8.48799 27.5077 8.66932 27.273 9.03199C27.0597 9.37332 26.9317 9.77865 26.889 10.248C26.8463 10.696 26.825 11.1013 26.825 11.464V22.952C26.825 23.272 26.857 23.656 26.921 24.104C26.985 24.5307 27.1237 24.9147 27.337 25.256C27.5717 25.576 27.9343 25.736 28.425 25.736ZM46.0188 30.504C44.4614 30.504 43.1601 30.1947 42.1148 29.576C41.0694 28.936 40.2801 28.0613 39.7468 26.952C39.2134 25.8427 38.9468 24.552 38.9468 23.08V11.336C38.9468 9.82132 39.1921 8.49865 39.6828 7.36799C40.1948 6.21599 40.9734 5.31999 42.0188 4.67999C43.0641 4.03999 44.3974 3.71999 46.0188 3.71999C47.6401 3.71999 48.9628 4.03999 49.9868 4.67999C51.0321 5.31999 51.8001 6.21599 52.2908 7.36799C52.8028 8.49865 53.0588 9.82132 53.0588 11.336V23.08C53.0588 24.5307 52.7921 25.8213 52.2588 26.952C51.7254 28.0613 50.9361 28.936 49.8908 29.576C48.8454 30.1947 47.5548 30.504 46.0188 30.504ZM46.0188 25.736C46.5308 25.736 46.8934 25.576 47.1068 25.256C47.3414 24.9147 47.4801 24.5307 47.5228 24.104C47.5868 23.656 47.6188 23.272 47.6188 22.952V11.464C47.6188 11.1013 47.5974 10.696 47.5548 10.248C47.5121 9.77865 47.3734 9.37332 47.1388 9.03199C46.9254 8.66932 46.5521 8.48799 46.0188 8.48799C45.4854 8.48799 45.1014 8.66932 44.8668 9.03199C44.6534 9.37332 44.5254 9.77865 44.4828 10.248C44.4401 10.696 44.4188 11.1013 44.4188 11.464V22.952C44.4188 23.272 44.4508 23.656 44.5148 24.104C44.5788 24.5307 44.7174 24.9147 44.9308 25.256C45.1654 25.576 45.5281 25.736 46.0188 25.736ZM56.6365 30.024L57.0845 4.10398H63.2285L66.0765 19.176L69.1485 4.10398H75.0685L75.5165 30.024H71.4525L70.9725 12.776L67.9645 30.024H64.3485L61.1485 12.648L60.7645 30.024H56.6365ZM79.2638 30.024V4.10398H84.9918V26.152H90.9438V30.024H79.2638ZM101.639 30.024V4.10398H108.775C110.524 4.10398 112.039 4.29598 113.319 4.67999C114.599 5.06399 115.591 5.75732 116.295 6.75998C117.02 7.74132 117.383 9.13865 117.383 10.952C117.383 12.0187 117.297 12.968 117.127 13.8C116.956 14.632 116.636 15.3573 116.167 15.976C115.719 16.5733 115.068 17.0747 114.215 17.48L117.767 30.024H111.847L108.999 18.408H107.367V30.024H101.639ZM107.367 15.112H108.967C109.777 15.112 110.407 14.9733 110.855 14.696C111.303 14.3973 111.612 13.9813 111.783 13.448C111.975 12.8933 112.071 12.232 112.071 11.464C112.071 10.3547 111.868 9.49065 111.463 8.87199C111.057 8.25332 110.311 7.94398 109.223 7.94398H107.367V15.112ZM128 30.408C126.059 30.408 124.523 30.0667 123.392 29.384C122.262 28.7013 121.451 27.72 120.96 26.44C120.47 25.16 120.224 23.6347 120.224 21.864V12.232C120.224 10.44 120.47 8.91465 120.96 7.65598C121.451 6.39732 122.262 5.43732 123.392 4.77599C124.523 4.09332 126.059 3.75199 128 3.75199C129.963 3.75199 131.51 4.09332 132.64 4.77599C133.792 5.43732 134.614 6.39732 135.104 7.65598C135.595 8.91465 135.84 10.44 135.84 12.232V21.864C135.84 23.6347 135.595 25.16 135.104 26.44C134.614 27.72 133.792 28.7013 132.64 29.384C131.51 30.0667 129.963 30.408 128 30.408ZM128 26.344C128.598 26.344 129.035 26.1947 129.312 25.896C129.59 25.5973 129.771 25.2133 129.856 24.744C129.942 24.2747 129.984 23.7947 129.984 23.304V10.824C129.984 10.312 129.942 9.83199 129.856 9.38399C129.771 8.91465 129.59 8.53065 129.312 8.23199C129.035 7.93332 128.598 7.78399 128 7.78399C127.446 7.78399 127.03 7.93332 126.752 8.23199C126.475 8.53065 126.294 8.91465 126.208 9.38399C126.123 9.83199 126.08 10.312 126.08 10.824V23.304C126.08 23.7947 126.112 24.2747 126.176 24.744C126.262 25.2133 126.432 25.5973 126.688 25.896C126.966 26.1947 127.403 26.344 128 26.344ZM146.814 30.408C144.83 30.408 143.273 30.088 142.142 29.448C141.033 28.7867 140.254 27.8373 139.806 26.6C139.358 25.3413 139.134 23.8053 139.134 21.992V4.10398H144.798V22.856C144.798 23.3893 144.841 23.9227 144.926 24.456C145.012 24.9893 145.193 25.4267 145.47 25.768C145.769 26.1093 146.217 26.28 146.814 26.28C147.433 26.28 147.881 26.1093 148.158 25.768C148.436 25.4267 148.606 24.9893 148.67 24.456C148.756 23.9227 148.798 23.3893 148.798 22.856V4.10398H154.494V21.992C154.494 23.8053 154.26 25.3413 153.79 26.6C153.342 27.8373 152.564 28.7867 151.454 29.448C150.345 30.088 148.798 30.408 146.814 30.408ZM158.139 30.024V4.10398H162.171L167.483 16.584V4.10398H172.219V30.024H168.347L163.035 16.584V30.024H158.139ZM176.076 30.024V4.10398H182.636C184.898 4.10398 186.658 4.39198 187.916 4.96799C189.175 5.52265 190.06 6.40799 190.572 7.62399C191.084 8.81865 191.34 10.376 191.34 12.296V21.704C191.34 23.6453 191.084 25.2347 190.572 26.472C190.06 27.688 189.175 28.584 187.916 29.16C186.679 29.736 184.94 30.024 182.7 30.024H176.076ZM181.804 26.056H182.7C183.575 26.056 184.204 25.928 184.588 25.672C184.972 25.416 185.207 25.032 185.292 24.52C185.399 24.008 185.452 23.368 185.452 22.6V11.304C185.452 10.536 185.388 9.91732 185.26 9.44799C185.154 8.97865 184.908 8.63732 184.524 8.42399C184.14 8.21065 183.522 8.10398 182.668 8.10398H181.804V26.056ZM209.894 30.408C208.272 30.408 206.918 30.12 205.83 29.544C204.742 28.968 203.92 28.0827 203.366 26.888C202.811 25.672 202.502 24.104 202.438 22.184L207.334 21.448C207.355 22.5573 207.451 23.4533 207.622 24.136C207.814 24.8187 208.07 25.3093 208.39 25.608C208.731 25.9067 209.136 26.056 209.606 26.056C210.203 26.056 210.587 25.8533 210.758 25.448C210.95 25.0427 211.046 24.616 211.046 24.168C211.046 23.1013 210.79 22.2053 210.278 21.48C209.766 20.7333 209.072 19.9867 208.198 19.24L205.958 17.288C204.976 16.456 204.144 15.5173 203.462 14.472C202.8 13.4053 202.47 12.0933 202.47 10.536C202.47 8.33865 203.12 6.66399 204.422 5.51199C205.723 4.33865 207.494 3.75199 209.734 3.75199C211.12 3.75199 212.23 3.98665 213.062 4.45599C213.915 4.92532 214.555 5.54399 214.982 6.31199C215.43 7.05865 215.728 7.85865 215.878 8.71199C216.048 9.54399 216.144 10.344 216.166 11.112L211.238 11.72C211.216 10.952 211.163 10.2907 211.078 9.73599C211.014 9.15999 210.864 8.72265 210.63 8.42399C210.395 8.10399 210.032 7.94398 209.542 7.94398C209.008 7.94398 208.614 8.16799 208.358 8.61599C208.123 9.06399 208.006 9.51199 208.006 9.95999C208.006 10.92 208.23 11.7093 208.678 12.328C209.147 12.9253 209.755 13.5547 210.502 14.216L212.646 16.104C213.776 17.064 214.726 18.152 215.494 19.368C216.283 20.584 216.678 22.088 216.678 23.88C216.678 25.096 216.4 26.2053 215.846 27.208C215.291 28.1893 214.502 28.968 213.478 29.544C212.475 30.12 211.28 30.408 209.894 30.408ZM232.731 35.112C232.262 34.8987 231.697 34.5467 231.035 34.056C230.374 33.5867 229.713 33.0213 229.051 32.36C228.411 31.72 227.867 31.0587 227.419 30.376C227.334 30.3973 227.249 30.408 227.163 30.408C227.078 30.408 226.982 30.408 226.875 30.408C224.934 30.408 223.398 30.0667 222.267 29.384C221.137 28.7013 220.326 27.72 219.835 26.44C219.345 25.16 219.099 23.6347 219.099 21.864V12.232C219.099 10.44 219.345 8.91465 219.835 7.65598C220.326 6.39732 221.137 5.43732 222.267 4.77599C223.398 4.09332 224.934 3.75199 226.875 3.75199C228.838 3.75199 230.385 4.09332 231.515 4.77599C232.667 5.43732 233.489 6.39732 233.979 7.65598C234.47 8.91465 234.715 10.44 234.715 12.232V21.864C234.715 23.08 234.598 24.1787 234.363 25.16C234.15 26.1413 233.787 26.9947 233.275 27.72C232.785 28.4453 232.123 29.0213 231.291 29.448C231.569 29.7467 231.857 30.0347 232.155 30.312C232.454 30.6107 232.753 30.8773 233.051 31.112C233.35 31.368 233.649 31.5707 233.947 31.72L232.731 35.112ZM226.875 26.344C227.473 26.344 227.91 26.1947 228.187 25.896C228.465 25.5973 228.646 25.2133 228.731 24.744C228.817 24.2747 228.859 23.7947 228.859 23.304V10.824C228.859 10.312 228.817 9.83199 228.731 9.38399C228.646 8.91465 228.465 8.53065 228.187 8.23199C227.91 7.93332 227.473 7.78399 226.875 7.78399C226.278 7.78399 225.841 7.93332 225.563 8.23199C225.307 8.53065 225.137 8.91465 225.051 9.38399C224.987 9.83199 224.955 10.312 224.955 10.824V23.304C224.955 23.7947 224.987 24.2747 225.051 24.744C225.137 25.2133 225.307 25.5973 225.563 25.896C225.841 26.1947 226.278 26.344 226.875 26.344ZM245.689 30.408C243.705 30.408 242.148 30.088 241.017 29.448C239.908 28.7867 239.129 27.8373 238.681 26.6C238.233 25.3413 238.009 23.8053 238.009 21.992V4.10398H243.673V22.856C243.673 23.3893 243.716 23.9227 243.801 24.456C243.887 24.9893 244.068 25.4267 244.345 25.768C244.644 26.1093 245.092 26.28 245.689 26.28C246.308 26.28 246.756 26.1093 247.033 25.768C247.311 25.4267 247.481 24.9893 247.545 24.456C247.631 23.9227 247.673 23.3893 247.673 22.856V4.10398H253.369V21.992C253.369 23.8053 253.135 25.3413 252.665 26.6C252.217 27.8373 251.439 28.7867 250.329 29.448C249.22 30.088 247.673 30.408 245.689 30.408ZM255.516 30.024L260.412 4.10398H266.94L271.772 30.024H266.492L265.628 24.552H261.82L260.924 30.024H255.516ZM262.332 21.128H265.084L263.708 11.016L262.332 21.128ZM274.389 30.024V4.10398H281.525C283.274 4.10398 284.789 4.29598 286.069 4.67999C287.349 5.06399 288.341 5.75732 289.045 6.75998C289.77 7.74132 290.133 9.13865 290.133 10.952C290.133 12.0187 290.047 12.968 289.877 13.8C289.706 14.632 289.386 15.3573 288.917 15.976C288.469 16.5733 287.818 17.0747 286.965 17.48L290.517 30.024H284.597L281.749 18.408H280.117V30.024H274.389ZM280.117 15.112H281.717C282.527 15.112 283.157 14.9733 283.605 14.696C284.053 14.3973 284.362 13.9813 284.533 13.448C284.725 12.8933 284.821 12.232 284.821 11.464C284.821 10.3547 284.618 9.49065 284.213 8.87199C283.807 8.25332 283.061 7.94398 281.973 7.94398H280.117V15.112ZM293.576 30.024V4.10398H305.224V8.00799H299.304V14.44H303.816V18.408H299.304V26.152H305.288V30.024H293.576ZM90.8909 66.408C88.9282 66.408 87.3709 66.056 86.2189 65.352C85.0882 64.6267 84.2882 63.624 83.8189 62.344C83.3495 61.0427 83.1149 59.5173 83.1149 57.768V48.424C83.1149 46.632 83.3495 45.096 83.8189 43.816C84.2882 42.5147 85.0882 41.512 86.2189 40.808C87.3709 40.104 88.9282 39.752 90.8909 39.752C92.8109 39.752 94.3042 40.072 95.3709 40.712C96.4589 41.3307 97.2269 42.2053 97.6749 43.336C98.1229 44.4667 98.3469 45.768 98.3469 47.24V49.48H92.7469V46.888C92.7469 46.376 92.7149 45.8853 92.6509 45.416C92.6082 44.9467 92.4589 44.5627 92.2029 44.264C91.9469 43.944 91.5095 43.784 90.8909 43.784C90.2935 43.784 89.8455 43.944 89.5469 44.264C89.2695 44.584 89.0882 44.9893 89.0029 45.48C88.9389 45.9493 88.9069 46.4507 88.9069 46.984V59.176C88.9069 59.752 88.9495 60.2853 89.0349 60.776C89.1415 61.2453 89.3335 61.6293 89.6109 61.928C89.9095 62.2053 90.3362 62.344 90.8909 62.344C91.4882 62.344 91.9149 62.1947 92.1709 61.896C92.4269 61.576 92.5869 61.1707 92.6509 60.68C92.7149 60.1893 92.7469 59.688 92.7469 59.176V56.456H98.3469V58.696C98.3469 60.168 98.1229 61.4907 97.6749 62.664C97.2482 63.816 96.4909 64.7333 95.4029 65.416C94.3362 66.0773 92.8322 66.408 90.8909 66.408ZM108.922 66.408C106.981 66.408 105.445 66.0667 104.314 65.384C103.183 64.7013 102.373 63.72 101.882 62.44C101.391 61.16 101.146 59.6347 101.146 57.864V48.232C101.146 46.44 101.391 44.9147 101.882 43.656C102.373 42.3973 103.183 41.4373 104.314 40.776C105.445 40.0933 106.981 39.752 108.922 39.752C110.885 39.752 112.431 40.0933 113.562 40.776C114.714 41.4373 115.535 42.3973 116.026 43.656C116.517 44.9147 116.762 46.44 116.762 48.232V57.864C116.762 59.6347 116.517 61.16 116.026 62.44C115.535 63.72 114.714 64.7013 113.562 65.384C112.431 66.0667 110.885 66.408 108.922 66.408ZM108.922 62.344C109.519 62.344 109.957 62.1947 110.234 61.896C110.511 61.5973 110.693 61.2133 110.778 60.744C110.863 60.2747 110.906 59.7947 110.906 59.304V46.824C110.906 46.312 110.863 45.832 110.778 45.384C110.693 44.9147 110.511 44.5307 110.234 44.232C109.957 43.9333 109.519 43.784 108.922 43.784C108.367 43.784 107.951 43.9333 107.674 44.232C107.397 44.5307 107.215 44.9147 107.13 45.384C107.045 45.832 107.002 46.312 107.002 46.824V59.304C107.002 59.7947 107.034 60.2747 107.098 60.744C107.183 61.2133 107.354 61.5973 107.61 61.896C107.887 62.1947 108.325 62.344 108.922 62.344ZM120.248 66.024V40.104H124.28L129.592 52.584V40.104H134.328V66.024H130.456L125.144 52.584V66.024H120.248ZM140.522 66.024V44.36H136.618V40.104H150.154V44.36H146.282V66.024H140.522ZM149.75 66.024L154.646 40.104H161.174L166.006 66.024H160.726L159.862 60.552H156.054L155.158 66.024H149.75ZM156.566 57.128H159.318L157.942 47.016L156.566 57.128ZM168.655 66.024V40.104H174.383V66.024H168.655ZM178.248 66.024V40.104H182.28L187.592 52.584V40.104H192.328V66.024H188.456L183.144 52.584V66.024H178.248ZM196.186 66.024V40.104H207.834V44.008H201.914V50.44H206.426V54.408H201.914V62.152H207.898V66.024H196.186ZM210.498 66.024V40.104H217.634C219.383 40.104 220.898 40.296 222.178 40.68C223.458 41.064 224.45 41.7573 225.154 42.76C225.879 43.7413 226.242 45.1387 226.242 46.952C226.242 48.0187 226.157 48.968 225.986 49.8C225.815 50.632 225.495 51.3573 225.026 51.976C224.578 52.5733 223.927 53.0747 223.074 53.48L226.626 66.024H220.706L217.858 54.408H216.226V66.024H210.498ZM216.226 51.112H217.826C218.637 51.112 219.266 50.9733 219.714 50.696C220.162 50.3973 220.471 49.9813 220.642 49.448C220.834 48.8933 220.93 48.232 220.93 47.464C220.93 46.3547 220.727 45.4907 220.322 44.872C219.917 44.2533 219.17 43.944 218.082 43.944H216.226V51.112Z" fill="white"/>
</g>
<defs>
<filter id="filter0_d_765_4189" x="-0.000273228" y="-2.90871e-05" width="310.008" height="72.128" filterUnits="userSpaceOnUse" color-interpolation-filters="sRGB">
<feFlood flood-opacity="0" result="BackgroundImageFix"/>
<feColorMatrix in="SourceAlpha" type="matrix" values="0 0 0 0 0 0 0 0 0 0 0 0 0 0 0 0 0 0 127 0" result="hardAlpha"/>
<feOffset dy="1"/>
<feGaussianBlur stdDeviation="2.36"/>
<feComposite in2="hardAlpha" operator="out"/>
<feColorMatrix type="matrix" values="0 0 0 0 0 0 0 0 0 0 0 0 0 0 0 0 0 0 0.25 0"/>
<feBlend mode="normal" in2="BackgroundImageFix" result="effect1_dropShadow_765_4189"/>
<feBlend mode="normal" in="SourceGraphic" in2="effect1_dropShadow_765_4189" result="shape"/>
</filter>
</defs>
</svg>
