<svg width="124" height="37" viewBox="0 0 124 37" fill="none" xmlns="http://www.w3.org/2000/svg">
<rect width="36.5" height="36.5" rx="18.25" fill="white"/>
<path d="M16.4163 20.9974V18.2474M20.083 20.9974V18.2474M23.7497 20.9974V18.2474M9.08301 14.5807V10.9141M27.4163 12.7474H9.08301M27.4163 14.5807V10.9141M12.7497 20.9974V18.2474" stroke="#361269" stroke-width="2.06182" stroke-linecap="round" stroke-linejoin="round"/>
<path d="M25.583 18.248H10.9163C9.90382 18.248 9.08301 19.0689 9.08301 20.0814V23.748C9.08301 24.7606 9.90382 25.5814 10.9163 25.5814H25.583C26.5955 25.5814 27.4163 24.7606 27.4163 23.748V20.0814C27.4163 19.0689 26.5955 18.248 25.583 18.248Z" stroke="#361269" stroke-width="2.06182" stroke-linecap="round" stroke-linejoin="round"/>
<path d="M49.725 11.4827C49.725 12.0127 49.6367 12.4993 49.46 12.9427C49.2833 13.386 49.035 13.7677 48.715 14.0877C48.395 14.4077 48.01 14.656 47.56 14.8327C47.11 15.0093 46.61 15.0977 46.06 15.0977H43.305V7.86766H46.06C46.61 7.86766 47.11 7.95766 47.56 8.13766C48.01 8.31432 48.395 8.56266 48.715 8.88266C49.035 9.19932 49.2833 9.57932 49.46 10.0227C49.6367 10.466 49.725 10.9527 49.725 11.4827ZM48.345 11.4827C48.345 11.086 48.2917 10.731 48.185 10.4177C48.0817 10.101 47.93 9.83432 47.73 9.61766C47.5333 9.39766 47.2933 9.22932 47.01 9.11266C46.73 8.99599 46.4133 8.93766 46.06 8.93766H44.655V14.0277H46.06C46.4133 14.0277 46.73 13.9693 47.01 13.8527C47.2933 13.736 47.5333 13.5693 47.73 13.3527C47.93 13.1327 48.0817 12.866 48.185 12.5527C48.2917 12.236 48.345 11.8793 48.345 11.4827ZM51.9095 9.96766V15.0977H50.6695V9.96766H51.9095ZM52.0795 8.47266C52.0795 8.57932 52.0579 8.67932 52.0145 8.77266C51.9712 8.86599 51.9129 8.94766 51.8395 9.01766C51.7695 9.08766 51.6862 9.14432 51.5895 9.18766C51.4929 9.22766 51.3895 9.24766 51.2795 9.24766C51.1729 9.24766 51.0712 9.22766 50.9745 9.18766C50.8812 9.14432 50.7995 9.08766 50.7295 9.01766C50.6595 8.94766 50.6029 8.86599 50.5595 8.77266C50.5195 8.67932 50.4995 8.57932 50.4995 8.47266C50.4995 8.36266 50.5195 8.25932 50.5595 8.16266C50.6029 8.06599 50.6595 7.98266 50.7295 7.91266C50.7995 7.84266 50.8812 7.78766 50.9745 7.74766C51.0712 7.70432 51.1729 7.68266 51.2795 7.68266C51.3895 7.68266 51.4929 7.70432 51.5895 7.74766C51.6862 7.78766 51.7695 7.84266 51.8395 7.91266C51.9129 7.98266 51.9712 8.06599 52.0145 8.16266C52.0579 8.25932 52.0795 8.36266 52.0795 8.47266ZM53.1686 15.0977V9.96766H53.9236C54.0836 9.96766 54.1886 10.0427 54.2386 10.1927L54.3186 10.5727C54.4086 10.4727 54.5019 10.381 54.5986 10.2977C54.6986 10.2143 54.8036 10.1427 54.9136 10.0827C55.0269 10.0227 55.1469 9.97599 55.2736 9.94266C55.4036 9.90599 55.5453 9.88766 55.6986 9.88766C56.0219 9.88766 56.2869 9.97599 56.4936 10.1527C56.7036 10.326 56.8603 10.5577 56.9636 10.8477C57.0436 10.6777 57.1436 10.5327 57.2636 10.4127C57.3836 10.2893 57.5153 10.1893 57.6586 10.1127C57.8019 10.036 57.9536 9.97932 58.1136 9.94266C58.2769 9.90599 58.4403 9.88766 58.6036 9.88766C58.8869 9.88766 59.1386 9.93099 59.3586 10.0177C59.5786 10.1043 59.7636 10.231 59.9136 10.3977C60.0636 10.5643 60.1769 10.7677 60.2536 11.0077C60.3336 11.2477 60.3736 11.5227 60.3736 11.8327V15.0977H59.1386V11.8327C59.1386 11.506 59.0669 11.261 58.9236 11.0977C58.7803 10.931 58.5703 10.8477 58.2936 10.8477C58.1669 10.8477 58.0486 10.8693 57.9386 10.9127C57.8319 10.956 57.7369 11.0193 57.6536 11.1027C57.5736 11.1827 57.5103 11.2843 57.4636 11.4077C57.4169 11.531 57.3936 11.6727 57.3936 11.8327V15.0977H56.1536V11.8327C56.1536 11.4893 56.0836 11.2393 55.9436 11.0827C55.8069 10.926 55.6053 10.8477 55.3386 10.8477C55.1586 10.8477 54.9903 10.8927 54.8336 10.9827C54.6803 11.0693 54.5369 11.1893 54.4036 11.3427V15.0977H53.1686ZM64.8525 11.9427C64.8525 11.7827 64.8292 11.6327 64.7825 11.4927C64.7392 11.3493 64.6725 11.2243 64.5825 11.1177C64.4925 11.011 64.3775 10.9277 64.2375 10.8677C64.1008 10.8043 63.9408 10.7727 63.7575 10.7727C63.4008 10.7727 63.1192 10.8743 62.9125 11.0777C62.7092 11.281 62.5792 11.5693 62.5225 11.9427H64.8525ZM62.4975 12.6877C62.5175 12.951 62.5642 13.1793 62.6375 13.3727C62.7108 13.5627 62.8075 13.721 62.9275 13.8477C63.0475 13.971 63.1892 14.0643 63.3525 14.1277C63.5192 14.1877 63.7025 14.2177 63.9025 14.2177C64.1025 14.2177 64.2742 14.1943 64.4175 14.1477C64.5642 14.101 64.6908 14.0493 64.7975 13.9927C64.9075 13.936 65.0025 13.8843 65.0825 13.8377C65.1658 13.791 65.2458 13.7677 65.3225 13.7677C65.4258 13.7677 65.5025 13.806 65.5525 13.8827L65.9075 14.3327C65.7708 14.4927 65.6175 14.6277 65.4475 14.7377C65.2775 14.8443 65.0992 14.931 64.9125 14.9977C64.7292 15.061 64.5408 15.106 64.3475 15.1327C64.1575 15.1593 63.9725 15.1727 63.7925 15.1727C63.4358 15.1727 63.1042 15.1143 62.7975 14.9977C62.4908 14.8777 62.2242 14.7027 61.9975 14.4727C61.7708 14.2393 61.5925 13.9527 61.4625 13.6127C61.3325 13.2693 61.2675 12.8727 61.2675 12.4227C61.2675 12.0727 61.3242 11.7443 61.4375 11.4377C61.5508 11.1277 61.7125 10.8593 61.9225 10.6327C62.1358 10.4027 62.3942 10.221 62.6975 10.0877C63.0042 9.95432 63.3492 9.88766 63.7325 9.88766C64.0558 9.88766 64.3542 9.93932 64.6275 10.0427C64.9008 10.146 65.1358 10.2977 65.3325 10.4977C65.5292 10.6943 65.6825 10.9377 65.7925 11.2277C65.9058 11.5143 65.9625 11.8427 65.9625 12.2127C65.9625 12.3993 65.9425 12.526 65.9025 12.5927C65.8625 12.656 65.7858 12.6877 65.6725 12.6877H62.4975ZM68.0443 10.5977C68.1476 10.4943 68.256 10.3993 68.3693 10.3127C68.486 10.2227 68.6076 10.1477 68.7343 10.0877C68.8643 10.0243 69.0026 9.97599 69.1493 9.94266C69.296 9.90599 69.456 9.88766 69.6293 9.88766C69.9093 9.88766 70.1576 9.93599 70.3743 10.0327C70.591 10.126 70.771 10.2593 70.9143 10.4327C71.061 10.6027 71.171 10.8077 71.2443 11.0477C71.321 11.2843 71.3593 11.546 71.3593 11.8327V15.0977H70.1243V11.8327C70.1243 11.5193 70.0526 11.2777 69.9093 11.1077C69.766 10.9343 69.5476 10.8477 69.2543 10.8477C69.041 10.8477 68.841 10.896 68.6543 10.9927C68.4676 11.0893 68.291 11.221 68.1243 11.3877V15.0977H66.8893V9.96766H67.6443C67.8043 9.96766 67.9093 10.0427 67.9593 10.1927L68.0443 10.5977ZM75.6638 10.9677C75.6305 11.021 75.5955 11.0593 75.5588 11.0827C75.5222 11.1027 75.4755 11.1127 75.4188 11.1127C75.3588 11.1127 75.2938 11.096 75.2238 11.0627C75.1572 11.0293 75.0788 10.9927 74.9888 10.9527C74.8988 10.9093 74.7955 10.871 74.6788 10.8377C74.5655 10.8043 74.4305 10.7877 74.2738 10.7877C74.0305 10.7877 73.8388 10.8393 73.6988 10.9427C73.5622 11.046 73.4938 11.181 73.4938 11.3477C73.4938 11.4577 73.5288 11.551 73.5988 11.6277C73.6722 11.701 73.7672 11.766 73.8838 11.8227C74.0038 11.8793 74.1388 11.931 74.2888 11.9777C74.4388 12.021 74.5905 12.0693 74.7438 12.1227C74.9005 12.176 75.0538 12.2377 75.2038 12.3077C75.3538 12.3743 75.4872 12.461 75.6038 12.5677C75.7238 12.671 75.8188 12.796 75.8888 12.9427C75.9622 13.0893 75.9988 13.266 75.9988 13.4727C75.9988 13.7193 75.9538 13.9477 75.8638 14.1577C75.7772 14.3643 75.6472 14.5443 75.4738 14.6977C75.3005 14.8477 75.0855 14.966 74.8288 15.0527C74.5755 15.136 74.2822 15.1777 73.9488 15.1777C73.7722 15.1777 73.5988 15.161 73.4288 15.1277C73.2622 15.0977 73.1005 15.0543 72.9438 14.9977C72.7905 14.941 72.6472 14.8743 72.5138 14.7977C72.3838 14.721 72.2688 14.6377 72.1688 14.5477L72.4538 14.0777C72.4905 14.021 72.5338 13.9777 72.5838 13.9477C72.6338 13.9177 72.6972 13.9027 72.7738 13.9027C72.8505 13.9027 72.9222 13.9243 72.9888 13.9677C73.0588 14.011 73.1388 14.0577 73.2288 14.1077C73.3188 14.1577 73.4238 14.2043 73.5438 14.2477C73.6672 14.291 73.8222 14.3127 74.0088 14.3127C74.1555 14.3127 74.2805 14.296 74.3838 14.2627C74.4905 14.226 74.5772 14.1793 74.6438 14.1227C74.7138 14.066 74.7638 14.001 74.7938 13.9277C74.8272 13.851 74.8438 13.7727 74.8438 13.6927C74.8438 13.5727 74.8072 13.4743 74.7338 13.3977C74.6638 13.321 74.5688 13.2543 74.4488 13.1977C74.3322 13.141 74.1972 13.091 74.0438 13.0477C73.8938 13.001 73.7388 12.951 73.5788 12.8977C73.4222 12.8443 73.2672 12.7827 73.1138 12.7127C72.9638 12.6393 72.8288 12.5477 72.7088 12.4377C72.5922 12.3277 72.4972 12.1927 72.4238 12.0327C72.3538 11.8727 72.3188 11.6793 72.3188 11.4527C72.3188 11.2427 72.3605 11.0427 72.4438 10.8527C72.5272 10.6627 72.6488 10.4977 72.8088 10.3577C72.9722 10.2143 73.1738 10.101 73.4138 10.0177C73.6572 9.93099 73.9372 9.88766 74.2538 9.88766C74.6072 9.88766 74.9288 9.94599 75.2188 10.0627C75.5088 10.1793 75.7505 10.3327 75.9438 10.5227L75.6638 10.9677ZM78.2084 9.96766V15.0977H76.9684V9.96766H78.2084ZM78.3784 8.47266C78.3784 8.57932 78.3567 8.67932 78.3134 8.77266C78.27 8.86599 78.2117 8.94766 78.1384 9.01766C78.0684 9.08766 77.985 9.14432 77.8884 9.18766C77.7917 9.22766 77.6884 9.24766 77.5784 9.24766C77.4717 9.24766 77.37 9.22766 77.2734 9.18766C77.18 9.14432 77.0984 9.08766 77.0284 9.01766C76.9584 8.94766 76.9017 8.86599 76.8584 8.77266C76.8184 8.67932 76.7984 8.57932 76.7984 8.47266C76.7984 8.36266 76.8184 8.25932 76.8584 8.16266C76.9017 8.06599 76.9584 7.98266 77.0284 7.91266C77.0984 7.84266 77.18 7.78766 77.2734 7.74766C77.37 7.70432 77.4717 7.68266 77.5784 7.68266C77.6884 7.68266 77.7917 7.70432 77.8884 7.74766C77.985 7.78766 78.0684 7.84266 78.1384 7.91266C78.2117 7.98266 78.27 8.06599 78.3134 8.16266C78.3567 8.25932 78.3784 8.36266 78.3784 8.47266ZM81.7374 9.88766C82.1174 9.88766 82.4624 9.94932 82.7724 10.0727C83.0858 10.196 83.3524 10.371 83.5724 10.5977C83.7958 10.8243 83.9674 11.101 84.0874 11.4277C84.2074 11.7543 84.2674 12.1193 84.2674 12.5227C84.2674 12.9293 84.2074 13.296 84.0874 13.6227C83.9674 13.9493 83.7958 14.2277 83.5724 14.4577C83.3524 14.6877 83.0858 14.8643 82.7724 14.9877C82.4624 15.111 82.1174 15.1727 81.7374 15.1727C81.3541 15.1727 81.0058 15.111 80.6924 14.9877C80.3791 14.8643 80.1108 14.6877 79.8874 14.4577C79.6674 14.2277 79.4958 13.9493 79.3724 13.6227C79.2524 13.296 79.1924 12.9293 79.1924 12.5227C79.1924 12.1193 79.2524 11.7543 79.3724 11.4277C79.4958 11.101 79.6674 10.8243 79.8874 10.5977C80.1108 10.371 80.3791 10.196 80.6924 10.0727C81.0058 9.94932 81.3541 9.88766 81.7374 9.88766ZM81.7374 14.2227C82.1641 14.2227 82.4791 14.0793 82.6824 13.7927C82.8891 13.506 82.9924 13.086 82.9924 12.5327C82.9924 11.9793 82.8891 11.5577 82.6824 11.2677C82.4791 10.9777 82.1641 10.8327 81.7374 10.8327C81.3041 10.8327 80.9824 10.9793 80.7724 11.2727C80.5658 11.5627 80.4624 11.9827 80.4624 12.5327C80.4624 13.0827 80.5658 13.5027 80.7724 13.7927C80.9824 14.0793 81.3041 14.2227 81.7374 14.2227ZM86.3646 10.5977C86.4679 10.4943 86.5763 10.3993 86.6896 10.3127C86.8063 10.2227 86.9279 10.1477 87.0546 10.0877C87.1846 10.0243 87.3229 9.97599 87.4696 9.94266C87.6163 9.90599 87.7763 9.88766 87.9496 9.88766C88.2296 9.88766 88.4779 9.93599 88.6946 10.0327C88.9113 10.126 89.0913 10.2593 89.2346 10.4327C89.3813 10.6027 89.4913 10.8077 89.5646 11.0477C89.6413 11.2843 89.6796 11.546 89.6796 11.8327V15.0977H88.4446V11.8327C88.4446 11.5193 88.3729 11.2777 88.2296 11.1077C88.0863 10.9343 87.8679 10.8477 87.5746 10.8477C87.3613 10.8477 87.1613 10.896 86.9746 10.9927C86.7879 11.0893 86.6113 11.221 86.4446 11.3877V15.0977H85.2096V9.96766H85.9646C86.1246 9.96766 86.2296 10.0427 86.2796 10.1927L86.3646 10.5977Z" fill="white"/>
<path d="M42.804 23.2823V22.6183H44.308V28.4023H43.572V23.2823H42.804ZM45.3665 23.2823V22.6183H46.8705V28.4023H46.1345V23.2823H45.3665ZM51.681 23.1863L49.457 28.4023H48.721L50.977 23.2583H47.889V22.6343H51.681V23.1863ZM57.973 27.2023L56.701 25.9303L55.429 27.2023L54.949 26.7223L56.221 25.4503L54.973 24.2023L55.437 23.7303L56.693 24.9863L57.949 23.7303L58.429 24.2103L57.173 25.4663L58.437 26.7383L57.973 27.2023ZM62.9504 25.3943C62.6518 25.277 62.4224 25.1063 62.2624 24.8823C62.1024 24.6583 62.0224 24.3863 62.0224 24.0663C62.0224 23.7783 62.0944 23.5197 62.2384 23.2903C62.3824 23.0557 62.5958 22.8717 62.8784 22.7383C63.1664 22.5997 63.5131 22.5303 63.9184 22.5303C64.3238 22.5303 64.6678 22.5997 64.9504 22.7383C65.2384 22.8717 65.4544 23.0557 65.5984 23.2903C65.7478 23.5197 65.8224 23.7783 65.8224 24.0663C65.8224 24.3757 65.7398 24.6477 65.5744 24.8823C65.4091 25.1117 65.1824 25.2823 64.8944 25.3943C65.2251 25.4957 65.4864 25.6743 65.6784 25.9303C65.8758 26.181 65.9744 26.485 65.9744 26.8423C65.9744 27.189 65.8891 27.493 65.7184 27.7543C65.5478 28.0103 65.3051 28.2103 64.9904 28.3543C64.6811 28.493 64.3238 28.5623 63.9184 28.5623C63.5131 28.5623 63.1558 28.493 62.8464 28.3543C62.5424 28.2103 62.3051 28.0103 62.1344 27.7543C61.9638 27.493 61.8784 27.189 61.8784 26.8423C61.8784 26.485 61.9744 26.1783 62.1664 25.9223C62.3584 25.6663 62.6198 25.4903 62.9504 25.3943ZM65.1184 24.1543C65.1184 23.829 65.0118 23.5783 64.7984 23.4023C64.5851 23.2263 64.2918 23.1383 63.9184 23.1383C63.5504 23.1383 63.2598 23.2263 63.0464 23.4023C62.8331 23.5783 62.7264 23.8317 62.7264 24.1623C62.7264 24.461 62.8358 24.701 63.0544 24.8823C63.2784 25.0637 63.5664 25.1543 63.9184 25.1543C64.2758 25.1543 64.5638 25.0637 64.7824 24.8823C65.0064 24.6957 65.1184 24.453 65.1184 24.1543ZM63.9184 25.7143C63.5238 25.7143 63.2011 25.8077 62.9504 25.9943C62.6998 26.1757 62.5744 26.4503 62.5744 26.8183C62.5744 27.1597 62.6944 27.4343 62.9344 27.6423C63.1798 27.8503 63.5078 27.9543 63.9184 27.9543C64.3291 27.9543 64.6544 27.8503 64.8944 27.6423C65.1344 27.4343 65.2544 27.1597 65.2544 26.8183C65.2544 26.461 65.1318 26.189 64.8864 26.0023C64.6411 25.8103 64.3184 25.7143 63.9184 25.7143ZM67.9973 25.3943C67.6986 25.277 67.4693 25.1063 67.3093 24.8823C67.1493 24.6583 67.0693 24.3863 67.0693 24.0663C67.0693 23.7783 67.1413 23.5197 67.2853 23.2903C67.4293 23.0557 67.6426 22.8717 67.9253 22.7383C68.2133 22.5997 68.56 22.5303 68.9653 22.5303C69.3706 22.5303 69.7146 22.5997 69.9973 22.7383C70.2853 22.8717 70.5013 23.0557 70.6453 23.2903C70.7946 23.5197 70.8693 23.7783 70.8693 24.0663C70.8693 24.3757 70.7866 24.6477 70.6213 24.8823C70.456 25.1117 70.2293 25.2823 69.9413 25.3943C70.272 25.4957 70.5333 25.6743 70.7253 25.9303C70.9226 26.181 71.0213 26.485 71.0213 26.8423C71.0213 27.189 70.936 27.493 70.7653 27.7543C70.5946 28.0103 70.352 28.2103 70.0373 28.3543C69.728 28.493 69.3706 28.5623 68.9653 28.5623C68.56 28.5623 68.2026 28.493 67.8933 28.3543C67.5893 28.2103 67.352 28.0103 67.1813 27.7543C67.0106 27.493 66.9253 27.189 66.9253 26.8423C66.9253 26.485 67.0213 26.1783 67.2133 25.9223C67.4053 25.6663 67.6666 25.4903 67.9973 25.3943ZM70.1653 24.1543C70.1653 23.829 70.0586 23.5783 69.8453 23.4023C69.632 23.2263 69.3386 23.1383 68.9653 23.1383C68.5973 23.1383 68.3066 23.2263 68.0933 23.4023C67.88 23.5783 67.7733 23.8317 67.7733 24.1623C67.7733 24.461 67.8826 24.701 68.1013 24.8823C68.3253 25.0637 68.6133 25.1543 68.9653 25.1543C69.3226 25.1543 69.6106 25.0637 69.8293 24.8823C70.0533 24.6957 70.1653 24.453 70.1653 24.1543ZM68.9653 25.7143C68.5706 25.7143 68.248 25.8077 67.9973 25.9943C67.7466 26.1757 67.6213 26.4503 67.6213 26.8183C67.6213 27.1597 67.7413 27.4343 67.9813 27.6423C68.2266 27.8503 68.5546 27.9543 68.9653 27.9543C69.376 27.9543 69.7013 27.8503 69.9413 27.6423C70.1813 27.4343 70.3013 27.1597 70.3013 26.8183C70.3013 26.461 70.1786 26.189 69.9333 26.0023C69.688 25.8103 69.3653 25.7143 68.9653 25.7143ZM77.473 27.2023L76.201 25.9303L74.929 27.2023L74.449 26.7223L75.721 25.4503L74.473 24.2023L74.937 23.7303L76.193 24.9863L77.449 23.7303L77.929 24.2103L76.673 25.4663L77.937 26.7383L77.473 27.2023ZM82.4504 25.3943C82.1518 25.277 81.9224 25.1063 81.7624 24.8823C81.6024 24.6583 81.5224 24.3863 81.5224 24.0663C81.5224 23.7783 81.5944 23.5197 81.7384 23.2903C81.8824 23.0557 82.0958 22.8717 82.3784 22.7383C82.6664 22.5997 83.0131 22.5303 83.4184 22.5303C83.8238 22.5303 84.1678 22.5997 84.4504 22.7383C84.7384 22.8717 84.9544 23.0557 85.0984 23.2903C85.2478 23.5197 85.3224 23.7783 85.3224 24.0663C85.3224 24.3757 85.2398 24.6477 85.0744 24.8823C84.9091 25.1117 84.6824 25.2823 84.3944 25.3943C84.7251 25.4957 84.9864 25.6743 85.1784 25.9303C85.3758 26.181 85.4744 26.485 85.4744 26.8423C85.4744 27.189 85.3891 27.493 85.2184 27.7543C85.0478 28.0103 84.8051 28.2103 84.4904 28.3543C84.1811 28.493 83.8238 28.5623 83.4184 28.5623C83.0131 28.5623 82.6558 28.493 82.3464 28.3543C82.0424 28.2103 81.8051 28.0103 81.6344 27.7543C81.4638 27.493 81.3784 27.189 81.3784 26.8423C81.3784 26.485 81.4744 26.1783 81.6664 25.9223C81.8584 25.6663 82.1198 25.4903 82.4504 25.3943ZM84.6184 24.1543C84.6184 23.829 84.5118 23.5783 84.2984 23.4023C84.0851 23.2263 83.7918 23.1383 83.4184 23.1383C83.0504 23.1383 82.7598 23.2263 82.5464 23.4023C82.3331 23.5783 82.2264 23.8317 82.2264 24.1623C82.2264 24.461 82.3358 24.701 82.5544 24.8823C82.7784 25.0637 83.0664 25.1543 83.4184 25.1543C83.7758 25.1543 84.0638 25.0637 84.2824 24.8823C84.5064 24.6957 84.6184 24.453 84.6184 24.1543ZM83.4184 25.7143C83.0238 25.7143 82.7011 25.8077 82.4504 25.9943C82.1998 26.1757 82.0744 26.4503 82.0744 26.8183C82.0744 27.1597 82.1944 27.4343 82.4344 27.6423C82.6798 27.8503 83.0078 27.9543 83.4184 27.9543C83.8291 27.9543 84.1544 27.8503 84.3944 27.6423C84.6344 27.4343 84.7544 27.1597 84.7544 26.8183C84.7544 26.461 84.6318 26.189 84.3864 26.0023C84.1411 25.8103 83.8184 25.7143 83.4184 25.7143ZM86.4413 25.4503C86.4413 24.533 86.5906 23.8183 86.8893 23.3063C87.188 22.789 87.7106 22.5303 88.4573 22.5303C89.1986 22.5303 89.7186 22.789 90.0173 23.3063C90.316 23.8183 90.4653 24.533 90.4653 25.4503C90.4653 26.3837 90.316 27.109 90.0173 27.6263C89.7186 28.1437 89.1986 28.4023 88.4573 28.4023C87.7106 28.4023 87.188 28.1437 86.8893 27.6263C86.5906 27.109 86.4413 26.3837 86.4413 25.4503ZM89.7453 25.4503C89.7453 24.9863 89.7133 24.5943 89.6493 24.2743C89.5906 23.949 89.4653 23.6877 89.2733 23.4903C89.0866 23.293 88.8146 23.1943 88.4573 23.1943C88.0946 23.1943 87.8173 23.293 87.6253 23.4903C87.4386 23.6877 87.3133 23.949 87.2493 24.2743C87.1906 24.5943 87.1613 24.9863 87.1613 25.4503C87.1613 25.9303 87.1906 26.333 87.2493 26.6583C87.3133 26.9837 87.4386 27.245 87.6253 27.4423C87.8173 27.6397 88.0946 27.7383 88.4573 27.7383C88.8146 27.7383 89.0866 27.6397 89.2733 27.4423C89.4653 27.245 89.5906 26.9837 89.6493 26.6583C89.7133 26.333 89.7453 25.9303 89.7453 25.4503ZM98.9896 23.9383C99.3309 23.9383 99.6349 24.0103 99.9016 24.1543C100.168 24.293 100.379 24.5037 100.534 24.7863C100.688 25.069 100.766 25.413 100.766 25.8183V28.4023H100.046V25.9223C100.046 25.485 99.9362 25.1517 99.7176 24.9223C99.5042 24.6877 99.2136 24.5703 98.8456 24.5703C98.4669 24.5703 98.1656 24.693 97.9416 24.9383C97.7176 25.1783 97.6056 25.5277 97.6056 25.9863V28.4023H96.8856V25.9223C96.8856 25.485 96.7762 25.1517 96.5576 24.9223C96.3442 24.6877 96.0536 24.5703 95.6856 24.5703C95.3069 24.5703 95.0056 24.693 94.7816 24.9383C94.5576 25.1783 94.4456 25.5277 94.4456 25.9863V28.4023H93.7176V24.0183H94.4456V24.6503C94.5896 24.421 94.7816 24.245 95.0216 24.1223C95.2669 23.9997 95.5362 23.9383 95.8296 23.9383C96.1976 23.9383 96.5229 24.021 96.8056 24.1863C97.0882 24.3517 97.2989 24.5943 97.4376 24.9143C97.5602 24.605 97.7629 24.365 98.0456 24.1943C98.3282 24.0237 98.6429 23.9383 98.9896 23.9383ZM107.232 23.9383C107.573 23.9383 107.877 24.0103 108.144 24.1543C108.41 24.293 108.621 24.5037 108.776 24.7863C108.93 25.069 109.008 25.413 109.008 25.8183V28.4023H108.288V25.9223C108.288 25.485 108.178 25.1517 107.96 24.9223C107.746 24.6877 107.456 24.5703 107.088 24.5703C106.709 24.5703 106.408 24.693 106.184 24.9383C105.96 25.1783 105.848 25.5277 105.848 25.9863V28.4023H105.128V25.9223C105.128 25.485 105.018 25.1517 104.8 24.9223C104.586 24.6877 104.296 24.5703 103.928 24.5703C103.549 24.5703 103.248 24.693 103.024 24.9383C102.8 25.1783 102.688 25.5277 102.688 25.9863V28.4023H101.96V24.0183H102.688V24.6503C102.832 24.421 103.024 24.245 103.264 24.1223C103.509 23.9997 103.778 23.9383 104.072 23.9383C104.44 23.9383 104.765 24.021 105.048 24.1863C105.33 24.3517 105.541 24.5943 105.68 24.9143C105.802 24.605 106.005 24.365 106.288 24.1943C106.57 24.0237 106.885 23.9383 107.232 23.9383Z" fill="white"/>
</svg>
