<svg width="124" height="37" viewBox="0 0 124 37" fill="none" xmlns="http://www.w3.org/2000/svg">
<rect width="36.5" height="36.5" rx="18.25" fill="white"/>
<g clip-path="url(#clip0_1467_133)">
<path d="M27.0363 20.375L24.2238 15.0625H25C25.1492 15.0625 25.2923 15.0065 25.3977 14.9069C25.5032 14.8073 25.5625 14.6721 25.5625 14.5313C25.5625 14.3904 25.5032 14.2552 25.3977 14.1556C25.2923 14.056 25.1492 14 25 14H24.1113C23.507 13.3783 22.7788 12.8754 21.9684 12.5198C21.158 12.1643 20.2813 11.9632 19.3885 11.9281L19.375 11.875C19.375 11.5932 19.2565 11.323 19.0455 11.1237C18.8345 10.9244 18.5484 10.8125 18.25 10.8125C17.9516 10.8125 17.6655 10.9244 17.4545 11.1237C17.2435 11.323 17.125 11.5932 17.125 11.875V11.9281C15.3068 11.9995 13.5911 12.7424 12.3471 13.9968L11.5 14C11.3508 14 11.2077 14.056 11.1023 14.1556C10.9968 14.2552 10.9375 14.3904 10.9375 14.5313C10.9375 14.6721 10.9968 14.8073 11.1023 14.9069C11.2077 15.0065 11.3508 15.0625 11.5 15.0625H12.2763L9.46375 20.375H9.25C9.25 21.5438 10.7575 22.5 12.625 22.5C14.4925 22.5 16 21.5438 16 20.375H15.7863L12.9175 14.9669C12.9886 14.9275 13.0497 14.8738 13.0964 14.8096C13.5939 14.2575 14.2094 13.8109 14.9026 13.4992C15.5957 13.1876 16.3508 13.0179 17.1183 13.0013L17.125 24.625H16V25.6875H13.75V26.75H22.75V25.6875H20.5V24.625H19.375V13.0013C20.1338 13.0148 20.8806 13.1825 21.5647 13.4929C22.2488 13.8033 22.8541 14.2491 23.3395 14.8001C23.3915 14.8834 23.4666 14.9517 23.5566 14.9977L20.7138 20.375H20.5C20.5 21.5438 22.0075 22.5 23.875 22.5C25.7425 22.5 27.25 21.5438 27.25 20.375H27.0363ZM14.875 20.375H10.375L12.625 16.1888L14.875 20.375ZM21.625 20.375L23.875 16.1888L26.125 20.375H21.625Z" fill="#361269"/>
</g>
<path d="M49.265 11.4727V14.3977C48.8983 14.6677 48.5067 14.866 48.09 14.9927C47.6767 15.116 47.2333 15.1777 46.76 15.1777C46.17 15.1777 45.635 15.086 45.155 14.9027C44.6783 14.7193 44.27 14.4643 43.93 14.1377C43.5933 13.811 43.3333 13.421 43.15 12.9677C42.9667 12.5143 42.875 12.0193 42.875 11.4827C42.875 10.9393 42.9633 10.441 43.14 9.98766C43.3167 9.53432 43.5667 9.14432 43.89 8.81766C44.2167 8.49099 44.6117 8.23766 45.075 8.05766C45.5383 7.87766 46.0583 7.78766 46.635 7.78766C46.9283 7.78766 47.2017 7.81099 47.455 7.85766C47.7117 7.90432 47.9483 7.96932 48.165 8.05266C48.385 8.13266 48.585 8.23099 48.765 8.34766C48.945 8.46432 49.11 8.59266 49.26 8.73266L48.875 9.34266C48.815 9.43932 48.7367 9.49932 48.64 9.52266C48.5433 9.54266 48.4383 9.51766 48.325 9.44766C48.215 9.38432 48.105 9.32099 47.995 9.25766C47.885 9.19432 47.7617 9.13932 47.625 9.09266C47.4917 9.04599 47.34 9.00766 47.17 8.97766C47.0033 8.94766 46.81 8.93266 46.59 8.93266C46.2333 8.93266 45.91 8.99266 45.62 9.11266C45.3333 9.23266 45.0883 9.40432 44.885 9.62766C44.6817 9.85099 44.525 10.1193 44.415 10.4327C44.305 10.746 44.25 11.096 44.25 11.4827C44.25 11.896 44.3083 12.266 44.425 12.5927C44.545 12.916 44.7117 13.191 44.925 13.4177C45.1417 13.641 45.4017 13.8127 45.705 13.9327C46.0083 14.0493 46.3467 14.1077 46.72 14.1077C46.9867 14.1077 47.225 14.0793 47.435 14.0227C47.645 13.966 47.85 13.8893 48.05 13.7927V12.4827H47.14C47.0533 12.4827 46.985 12.4593 46.935 12.4127C46.8883 12.3627 46.865 12.3027 46.865 12.2327V11.4727H49.265ZM51.4527 10.8577C51.6127 10.551 51.8027 10.311 52.0227 10.1377C52.2427 9.96099 52.5027 9.87266 52.8027 9.87266C53.0394 9.87266 53.2294 9.92432 53.3727 10.0277L53.2927 10.9527C53.2761 11.0127 53.2511 11.056 53.2177 11.0827C53.1877 11.106 53.1461 11.1177 53.0927 11.1177C53.0427 11.1177 52.9677 11.1093 52.8677 11.0927C52.7711 11.076 52.6761 11.0677 52.5827 11.0677C52.4461 11.0677 52.3244 11.0877 52.2177 11.1277C52.1111 11.1677 52.0144 11.226 51.9277 11.3027C51.8444 11.376 51.7694 11.466 51.7027 11.5727C51.6394 11.6793 51.5794 11.801 51.5227 11.9377V15.0977H50.2877V9.96766H51.0127C51.1394 9.96766 51.2277 9.99099 51.2777 10.0377C51.3277 10.081 51.3611 10.161 51.3777 10.2777L51.4527 10.8577ZM56.1417 9.88766C56.5217 9.88766 56.8667 9.94932 57.1767 10.0727C57.4901 10.196 57.7567 10.371 57.9767 10.5977C58.2001 10.8243 58.3717 11.101 58.4917 11.4277C58.6117 11.7543 58.6717 12.1193 58.6717 12.5227C58.6717 12.9293 58.6117 13.296 58.4917 13.6227C58.3717 13.9493 58.2001 14.2277 57.9767 14.4577C57.7567 14.6877 57.4901 14.8643 57.1767 14.9877C56.8667 15.111 56.5217 15.1727 56.1417 15.1727C55.7584 15.1727 55.4101 15.111 55.0967 14.9877C54.7834 14.8643 54.5151 14.6877 54.2917 14.4577C54.0717 14.2277 53.9001 13.9493 53.7767 13.6227C53.6567 13.296 53.5967 12.9293 53.5967 12.5227C53.5967 12.1193 53.6567 11.7543 53.7767 11.4277C53.9001 11.101 54.0717 10.8243 54.2917 10.5977C54.5151 10.371 54.7834 10.196 55.0967 10.0727C55.4101 9.94932 55.7584 9.88766 56.1417 9.88766ZM56.1417 14.2227C56.5684 14.2227 56.8834 14.0793 57.0867 13.7927C57.2934 13.506 57.3967 13.086 57.3967 12.5327C57.3967 11.9793 57.2934 11.5577 57.0867 11.2677C56.8834 10.9777 56.5684 10.8327 56.1417 10.8327C55.7084 10.8327 55.3867 10.9793 55.1767 11.2727C54.9701 11.5627 54.8667 11.9827 54.8667 12.5327C54.8667 13.0827 54.9701 13.5027 55.1767 13.7927C55.3867 14.0793 55.7084 14.2227 56.1417 14.2227ZM62.7439 10.9677C62.7106 11.021 62.6756 11.0593 62.6389 11.0827C62.6022 11.1027 62.5556 11.1127 62.4989 11.1127C62.4389 11.1127 62.3739 11.096 62.3039 11.0627C62.2372 11.0293 62.1589 10.9927 62.0689 10.9527C61.9789 10.9093 61.8756 10.871 61.7589 10.8377C61.6456 10.8043 61.5106 10.7877 61.3539 10.7877C61.1106 10.7877 60.9189 10.8393 60.7789 10.9427C60.6422 11.046 60.5739 11.181 60.5739 11.3477C60.5739 11.4577 60.6089 11.551 60.6789 11.6277C60.7522 11.701 60.8472 11.766 60.9639 11.8227C61.0839 11.8793 61.2189 11.931 61.3689 11.9777C61.5189 12.021 61.6706 12.0693 61.8239 12.1227C61.9806 12.176 62.1339 12.2377 62.2839 12.3077C62.4339 12.3743 62.5672 12.461 62.6839 12.5677C62.8039 12.671 62.8989 12.796 62.9689 12.9427C63.0422 13.0893 63.0789 13.266 63.0789 13.4727C63.0789 13.7193 63.0339 13.9477 62.9439 14.1577C62.8572 14.3643 62.7272 14.5443 62.5539 14.6977C62.3806 14.8477 62.1656 14.966 61.9089 15.0527C61.6556 15.136 61.3622 15.1777 61.0289 15.1777C60.8522 15.1777 60.6789 15.161 60.5089 15.1277C60.3422 15.0977 60.1806 15.0543 60.0239 14.9977C59.8706 14.941 59.7272 14.8743 59.5939 14.7977C59.4639 14.721 59.3489 14.6377 59.2489 14.5477L59.5339 14.0777C59.5706 14.021 59.6139 13.9777 59.6639 13.9477C59.7139 13.9177 59.7772 13.9027 59.8539 13.9027C59.9306 13.9027 60.0022 13.9243 60.0689 13.9677C60.1389 14.011 60.2189 14.0577 60.3089 14.1077C60.3989 14.1577 60.5039 14.2043 60.6239 14.2477C60.7472 14.291 60.9022 14.3127 61.0889 14.3127C61.2356 14.3127 61.3606 14.296 61.4639 14.2627C61.5706 14.226 61.6572 14.1793 61.7239 14.1227C61.7939 14.066 61.8439 14.001 61.8739 13.9277C61.9072 13.851 61.9239 13.7727 61.9239 13.6927C61.9239 13.5727 61.8872 13.4743 61.8139 13.3977C61.7439 13.321 61.6489 13.2543 61.5289 13.1977C61.4122 13.141 61.2772 13.091 61.1239 13.0477C60.9739 13.001 60.8189 12.951 60.6589 12.8977C60.5022 12.8443 60.3472 12.7827 60.1939 12.7127C60.0439 12.6393 59.9089 12.5477 59.7889 12.4377C59.6722 12.3277 59.5772 12.1927 59.5039 12.0327C59.4339 11.8727 59.3989 11.6793 59.3989 11.4527C59.3989 11.2427 59.4406 11.0427 59.5239 10.8527C59.6072 10.6627 59.7289 10.4977 59.8889 10.3577C60.0522 10.2143 60.2539 10.101 60.4939 10.0177C60.7372 9.93099 61.0172 9.88766 61.3339 9.88766C61.6872 9.88766 62.0089 9.94599 62.2989 10.0627C62.5889 10.1793 62.8306 10.3327 63.0239 10.5227L62.7439 10.9677ZM67.1384 10.9677C67.1051 11.021 67.0701 11.0593 67.0334 11.0827C66.9968 11.1027 66.9501 11.1127 66.8934 11.1127C66.8334 11.1127 66.7684 11.096 66.6984 11.0627C66.6318 11.0293 66.5534 10.9927 66.4634 10.9527C66.3734 10.9093 66.2701 10.871 66.1534 10.8377C66.0401 10.8043 65.9051 10.7877 65.7484 10.7877C65.5051 10.7877 65.3134 10.8393 65.1734 10.9427C65.0368 11.046 64.9684 11.181 64.9684 11.3477C64.9684 11.4577 65.0034 11.551 65.0734 11.6277C65.1468 11.701 65.2418 11.766 65.3584 11.8227C65.4784 11.8793 65.6134 11.931 65.7634 11.9777C65.9134 12.021 66.0651 12.0693 66.2184 12.1227C66.3751 12.176 66.5284 12.2377 66.6784 12.3077C66.8284 12.3743 66.9618 12.461 67.0784 12.5677C67.1984 12.671 67.2934 12.796 67.3634 12.9427C67.4368 13.0893 67.4734 13.266 67.4734 13.4727C67.4734 13.7193 67.4284 13.9477 67.3384 14.1577C67.2518 14.3643 67.1218 14.5443 66.9484 14.6977C66.7751 14.8477 66.5601 14.966 66.3034 15.0527C66.0501 15.136 65.7568 15.1777 65.4234 15.1777C65.2468 15.1777 65.0734 15.161 64.9034 15.1277C64.7368 15.0977 64.5751 15.0543 64.4184 14.9977C64.2651 14.941 64.1218 14.8743 63.9884 14.7977C63.8584 14.721 63.7434 14.6377 63.6434 14.5477L63.9284 14.0777C63.9651 14.021 64.0084 13.9777 64.0584 13.9477C64.1084 13.9177 64.1718 13.9027 64.2484 13.9027C64.3251 13.9027 64.3968 13.9243 64.4634 13.9677C64.5334 14.011 64.6134 14.0577 64.7034 14.1077C64.7934 14.1577 64.8984 14.2043 65.0184 14.2477C65.1418 14.291 65.2968 14.3127 65.4834 14.3127C65.6301 14.3127 65.7551 14.296 65.8584 14.2627C65.9651 14.226 66.0518 14.1793 66.1184 14.1227C66.1884 14.066 66.2384 14.001 66.2684 13.9277C66.3018 13.851 66.3184 13.7727 66.3184 13.6927C66.3184 13.5727 66.2818 13.4743 66.2084 13.3977C66.1384 13.321 66.0434 13.2543 65.9234 13.1977C65.8068 13.141 65.6718 13.091 65.5184 13.0477C65.3684 13.001 65.2134 12.951 65.0534 12.8977C64.8968 12.8443 64.7418 12.7827 64.5884 12.7127C64.4384 12.6393 64.3034 12.5477 64.1834 12.4377C64.0668 12.3277 63.9718 12.1927 63.8984 12.0327C63.8284 11.8727 63.7934 11.6793 63.7934 11.4527C63.7934 11.2427 63.8351 11.0427 63.9184 10.8527C64.0018 10.6627 64.1234 10.4977 64.2834 10.3577C64.4468 10.2143 64.6484 10.101 64.8884 10.0177C65.1318 9.93099 65.4118 9.88766 65.7284 9.88766C66.0818 9.88766 66.4034 9.94599 66.6934 10.0627C66.9834 10.1793 67.2251 10.3327 67.4184 10.5227L67.1384 10.9677ZM80.5813 7.86766L78.3363 15.0977H77.1213L75.5413 10.1577C75.4979 10.0377 75.4579 9.89099 75.4213 9.71766C75.4013 9.80099 75.3813 9.87932 75.3613 9.95266C75.3413 10.026 75.3196 10.0943 75.2962 10.1577L73.7013 15.0977H72.4813L70.2413 7.86766H71.3663C71.4829 7.86766 71.5796 7.89599 71.6563 7.95266C71.7363 8.00599 71.7896 8.07932 71.8163 8.17266L73.0463 12.4977C73.0729 12.6043 73.0979 12.721 73.1213 12.8477C73.1479 12.971 73.1746 13.101 73.2013 13.2377C73.2279 13.0977 73.2563 12.966 73.2863 12.8427C73.3196 12.7193 73.3546 12.6043 73.3913 12.4977L74.8113 8.17266C74.8379 8.09599 74.8896 8.02599 74.9663 7.96266C75.0463 7.89932 75.1429 7.86766 75.2563 7.86766H75.6513C75.7679 7.86766 75.8629 7.89599 75.9363 7.95266C76.0096 8.00932 76.0646 8.08266 76.1013 8.17266L77.5163 12.4977C77.5863 12.7043 77.6496 12.9427 77.7063 13.2127C77.7496 12.9493 77.7979 12.711 77.8513 12.4977L79.0813 8.17266C79.1013 8.08932 79.1513 8.01766 79.2313 7.95766C79.3146 7.89766 79.4129 7.86766 79.5263 7.86766H80.5813ZM83.9736 11.9427C83.9736 11.7827 83.9503 11.6327 83.9036 11.4927C83.8603 11.3493 83.7936 11.2243 83.7036 11.1177C83.6136 11.011 83.4986 10.9277 83.3586 10.8677C83.2219 10.8043 83.0619 10.7727 82.8786 10.7727C82.5219 10.7727 82.2403 10.8743 82.0336 11.0777C81.8303 11.281 81.7003 11.5693 81.6436 11.9427H83.9736ZM81.6186 12.6877C81.6386 12.951 81.6853 13.1793 81.7586 13.3727C81.8319 13.5627 81.9286 13.721 82.0486 13.8477C82.1686 13.971 82.3103 14.0643 82.4736 14.1277C82.6403 14.1877 82.8236 14.2177 83.0236 14.2177C83.2236 14.2177 83.3953 14.1943 83.5386 14.1477C83.6853 14.101 83.8119 14.0493 83.9186 13.9927C84.0286 13.936 84.1236 13.8843 84.2036 13.8377C84.2869 13.791 84.3669 13.7677 84.4436 13.7677C84.5469 13.7677 84.6236 13.806 84.6736 13.8827L85.0286 14.3327C84.8919 14.4927 84.7386 14.6277 84.5686 14.7377C84.3986 14.8443 84.2203 14.931 84.0336 14.9977C83.8503 15.061 83.6619 15.106 83.4686 15.1327C83.2786 15.1593 83.0936 15.1727 82.9136 15.1727C82.5569 15.1727 82.2253 15.1143 81.9186 14.9977C81.6119 14.8777 81.3453 14.7027 81.1186 14.4727C80.8919 14.2393 80.7136 13.9527 80.5836 13.6127C80.4536 13.2693 80.3886 12.8727 80.3886 12.4227C80.3886 12.0727 80.4453 11.7443 80.5586 11.4377C80.6719 11.1277 80.8336 10.8593 81.0436 10.6327C81.2569 10.4027 81.5153 10.221 81.8186 10.0877C82.1253 9.95432 82.4703 9.88766 82.8536 9.88766C83.1769 9.88766 83.4753 9.93932 83.7486 10.0427C84.0219 10.146 84.2569 10.2977 84.4536 10.4977C84.6503 10.6943 84.8036 10.9377 84.9136 11.2277C85.0269 11.5143 85.0836 11.8427 85.0836 12.2127C85.0836 12.3993 85.0636 12.526 85.0236 12.5927C84.9836 12.656 84.9069 12.6877 84.7936 12.6877H81.6186ZM87.2904 9.96766V15.0977H86.0504V9.96766H87.2904ZM87.4604 8.47266C87.4604 8.57932 87.4387 8.67932 87.3954 8.77266C87.3521 8.86599 87.2937 8.94766 87.2204 9.01766C87.1504 9.08766 87.0671 9.14432 86.9704 9.18766C86.8737 9.22766 86.7704 9.24766 86.6604 9.24766C86.5537 9.24766 86.4521 9.22766 86.3554 9.18766C86.2621 9.14432 86.1804 9.08766 86.1104 9.01766C86.0404 8.94766 85.9837 8.86599 85.9404 8.77266C85.9004 8.67932 85.8804 8.57932 85.8804 8.47266C85.8804 8.36266 85.9004 8.25932 85.9404 8.16266C85.9837 8.06599 86.0404 7.98266 86.1104 7.91266C86.1804 7.84266 86.2621 7.78766 86.3554 7.74766C86.4521 7.70432 86.5537 7.68266 86.6604 7.68266C86.7704 7.68266 86.8737 7.70432 86.9704 7.74766C87.0671 7.78766 87.1504 7.84266 87.2204 7.91266C87.2937 7.98266 87.3521 8.06599 87.3954 8.16266C87.4387 8.25932 87.4604 8.36266 87.4604 8.47266ZM90.4245 12.4077C90.5778 12.4077 90.7111 12.3877 90.8245 12.3477C90.9378 12.3043 91.0311 12.246 91.1045 12.1727C91.1811 12.0993 91.2378 12.011 91.2745 11.9077C91.3145 11.8043 91.3345 11.691 91.3345 11.5677C91.3345 11.3143 91.2578 11.1143 91.1045 10.9677C90.9545 10.8177 90.7278 10.7427 90.4245 10.7427C90.1211 10.7427 89.8928 10.8177 89.7395 10.9677C89.5895 11.1143 89.5145 11.3143 89.5145 11.5677C89.5145 11.6877 89.5328 11.7993 89.5695 11.9027C89.6095 12.006 89.6661 12.096 89.7395 12.1727C89.8161 12.246 89.9111 12.3043 90.0245 12.3477C90.1411 12.3877 90.2745 12.4077 90.4245 12.4077ZM91.8195 15.3277C91.8195 15.2277 91.7895 15.146 91.7295 15.0827C91.6695 15.0193 91.5878 14.971 91.4845 14.9377C91.3811 14.901 91.2595 14.8743 91.1195 14.8577C90.9828 14.841 90.8361 14.8293 90.6795 14.8227C90.5261 14.8127 90.3661 14.8043 90.1995 14.7977C90.0361 14.791 89.8761 14.7777 89.7195 14.7577C89.5828 14.8343 89.4711 14.9243 89.3845 15.0277C89.3011 15.131 89.2595 15.251 89.2595 15.3877C89.2595 15.4777 89.2811 15.561 89.3245 15.6377C89.3711 15.7177 89.4428 15.786 89.5395 15.8427C89.6395 15.8993 89.7678 15.9427 89.9245 15.9727C90.0811 16.006 90.2728 16.0227 90.4995 16.0227C90.7295 16.0227 90.9278 16.0043 91.0945 15.9677C91.2611 15.9343 91.3978 15.886 91.5045 15.8227C91.6145 15.7627 91.6945 15.6893 91.7445 15.6027C91.7945 15.5193 91.8195 15.4277 91.8195 15.3277ZM93.0495 10.1427V10.6027C93.0495 10.7493 92.9611 10.8393 92.7845 10.8727L92.3245 10.9577C92.3945 11.1343 92.4295 11.3277 92.4295 11.5377C92.4295 11.791 92.3778 12.021 92.2745 12.2277C92.1745 12.431 92.0345 12.6043 91.8545 12.7477C91.6745 12.891 91.4611 13.0027 91.2145 13.0827C90.9711 13.1593 90.7078 13.1977 90.4245 13.1977C90.3245 13.1977 90.2278 13.1927 90.1345 13.1827C90.0411 13.1727 89.9495 13.1593 89.8595 13.1427C89.6995 13.2393 89.6195 13.3477 89.6195 13.4677C89.6195 13.571 89.6661 13.6477 89.7595 13.6977C89.8561 13.7443 89.9828 13.7777 90.1395 13.7977C90.2961 13.8177 90.4745 13.831 90.6745 13.8377C90.8745 13.841 91.0795 13.851 91.2895 13.8677C91.4995 13.8843 91.7045 13.9143 91.9045 13.9577C92.1045 13.9977 92.2828 14.0627 92.4395 14.1527C92.5961 14.2427 92.7211 14.366 92.8145 14.5227C92.9111 14.676 92.9595 14.8743 92.9595 15.1177C92.9595 15.3443 92.9028 15.5643 92.7895 15.7777C92.6795 15.991 92.5178 16.181 92.3045 16.3477C92.0945 16.5143 91.8345 16.6477 91.5245 16.7477C91.2178 16.851 90.8678 16.9027 90.4745 16.9027C90.0878 16.9027 89.7511 16.8643 89.4645 16.7877C89.1778 16.7143 88.9395 16.6143 88.7495 16.4877C88.5595 16.3643 88.4178 16.221 88.3245 16.0577C88.2311 15.8943 88.1845 15.7243 88.1845 15.5477C88.1845 15.3077 88.2561 15.1077 88.3995 14.9477C88.5461 14.7843 88.7461 14.6543 88.9995 14.5577C88.8628 14.4877 88.7545 14.3943 88.6745 14.2777C88.5945 14.161 88.5545 14.0077 88.5545 13.8177C88.5545 13.741 88.5678 13.6627 88.5945 13.5827C88.6245 13.4993 88.6661 13.4177 88.7195 13.3377C88.7761 13.2577 88.8461 13.1827 88.9295 13.1127C89.0128 13.0393 89.1111 12.9743 89.2245 12.9177C88.9645 12.7777 88.7595 12.591 88.6095 12.3577C88.4628 12.1243 88.3895 11.851 88.3895 11.5377C88.3895 11.2843 88.4395 11.056 88.5395 10.8527C88.6428 10.646 88.7845 10.471 88.9645 10.3277C89.1478 10.181 89.3628 10.0693 89.6095 9.99266C89.8595 9.91599 90.1311 9.87766 90.4245 9.87766C90.6445 9.87766 90.8511 9.90099 91.0445 9.94766C91.2378 9.99099 91.4145 10.056 91.5745 10.1427H93.0495ZM95.0677 10.5177C95.2677 10.331 95.4877 10.1793 95.7277 10.0627C95.9677 9.94599 96.2493 9.88766 96.5727 9.88766C96.8527 9.88766 97.101 9.93599 97.3177 10.0327C97.5343 10.126 97.7143 10.2593 97.8577 10.4327C98.0043 10.6027 98.1143 10.8077 98.1877 11.0477C98.2643 11.2843 98.3027 11.546 98.3027 11.8327V15.0977H97.0677V11.8327C97.0677 11.5193 96.996 11.2777 96.8527 11.1077C96.7093 10.9343 96.491 10.8477 96.1977 10.8477C95.9843 10.8477 95.7843 10.896 95.5977 10.9927C95.411 11.0893 95.2343 11.221 95.0677 11.3877V15.0977H93.8327V7.66766H95.0677V10.5177ZM101.119 15.1777C100.672 15.1777 100.329 15.0527 100.089 14.8027C99.8522 14.5493 99.7338 14.201 99.7338 13.7577V10.8927H99.2088C99.1422 10.8927 99.0855 10.871 99.0388 10.8277C98.9922 10.7843 98.9688 10.7193 98.9688 10.6327V10.1427L99.7938 10.0077L100.054 8.60766C100.07 8.54099 100.102 8.48932 100.149 8.45266C100.195 8.41599 100.255 8.39766 100.329 8.39766H100.969V10.0127H102.339V10.8927H100.969V13.6727C100.969 13.8327 101.007 13.9577 101.084 14.0477C101.164 14.1377 101.272 14.1827 101.409 14.1827C101.485 14.1827 101.549 14.1743 101.599 14.1577C101.652 14.1377 101.697 14.1177 101.734 14.0977C101.774 14.0777 101.809 14.0593 101.839 14.0427C101.869 14.0227 101.899 14.0127 101.929 14.0127C101.965 14.0127 101.995 14.0227 102.019 14.0427C102.042 14.0593 102.067 14.086 102.094 14.1227L102.464 14.7227C102.284 14.8727 102.077 14.986 101.844 15.0627C101.61 15.1393 101.369 15.1777 101.119 15.1777Z" fill="white"/>
<path d="M42.908 27.8183C43.5853 27.2743 44.116 26.829 44.5 26.4823C44.884 26.1303 45.2067 25.765 45.468 25.3863C45.7347 25.0023 45.868 24.6263 45.868 24.2583C45.868 23.9117 45.7827 23.6397 45.612 23.4423C45.4467 23.2397 45.1773 23.1383 44.804 23.1383C44.4413 23.1383 44.1587 23.253 43.956 23.4823C43.7587 23.7063 43.652 24.0077 43.636 24.3863H42.932C42.9533 23.789 43.1347 23.3277 43.476 23.0023C43.8173 22.677 44.2573 22.5143 44.796 22.5143C45.3453 22.5143 45.78 22.6663 46.1 22.9703C46.4253 23.2743 46.588 23.693 46.588 24.2263C46.588 24.669 46.4547 25.101 46.188 25.5223C45.9267 25.9383 45.628 26.3063 45.292 26.6263C44.956 26.941 44.5267 27.309 44.004 27.7303H46.756V28.3383H42.908V27.8183ZM47.4056 23.2823V22.6183H48.9096V28.4023H48.1736V23.2823H47.4056ZM50.5121 28.4503C50.3734 28.4503 50.2561 28.4023 50.1601 28.3063C50.0641 28.2103 50.0161 28.093 50.0161 27.9543C50.0161 27.8157 50.0641 27.6983 50.1601 27.6023C50.2561 27.5063 50.3734 27.4583 50.5121 27.4583C50.6454 27.4583 50.7574 27.5063 50.8481 27.6023C50.9441 27.6983 50.9921 27.8157 50.9921 27.9543C50.9921 28.093 50.9441 28.2103 50.8481 28.3063C50.7574 28.4023 50.6454 28.4503 50.5121 28.4503ZM55.3998 23.1863L53.1758 28.4023H52.4398L54.6958 23.2583H51.6077V22.6343H55.3998V23.1863ZM57.1429 26.8503C57.1963 27.1543 57.3189 27.389 57.5109 27.5543C57.7083 27.7197 57.9723 27.8023 58.3029 27.8023C58.7456 27.8023 59.0709 27.629 59.2789 27.2823C59.4923 26.9357 59.5936 26.3517 59.5829 25.5303C59.4709 25.7703 59.2843 25.9597 59.0229 26.0983C58.7616 26.2317 58.4709 26.2983 58.1509 26.2983C57.7936 26.2983 57.4736 26.2263 57.1909 26.0823C56.9136 25.933 56.6949 25.717 56.5349 25.4343C56.3749 25.1517 56.2949 24.8103 56.2949 24.4103C56.2949 23.8397 56.4603 23.381 56.7909 23.0343C57.1216 22.6823 57.5909 22.5063 58.1989 22.5063C58.9456 22.5063 59.4683 22.749 59.7669 23.2343C60.0709 23.7197 60.2229 24.4423 60.2229 25.4023C60.2229 26.0743 60.1616 26.629 60.0389 27.0663C59.9216 27.5037 59.7189 27.837 59.4309 28.0663C59.1483 28.2957 58.7589 28.4103 58.2629 28.4103C57.7189 28.4103 57.2949 28.2637 56.9909 27.9703C56.6869 27.677 56.5136 27.3037 56.4709 26.8503H57.1429ZM58.2709 25.6823C58.6283 25.6823 58.9216 25.573 59.1509 25.3543C59.3803 25.1303 59.4949 24.829 59.4949 24.4503C59.4949 24.0503 59.3829 23.7277 59.1589 23.4823C58.9349 23.237 58.6203 23.1143 58.2149 23.1143C57.8416 23.1143 57.5429 23.2317 57.3189 23.4663C57.1003 23.701 56.9909 24.0103 56.9909 24.3943C56.9909 24.7837 57.1003 25.0957 57.3189 25.3303C57.5376 25.565 57.8549 25.6823 58.2709 25.6823ZM61.246 25.4503C61.246 24.533 61.3953 23.8183 61.694 23.3063C61.9927 22.789 62.5153 22.5303 63.262 22.5303C64.0033 22.5303 64.5233 22.789 64.822 23.3063C65.1207 23.8183 65.27 24.533 65.27 25.4503C65.27 26.3837 65.1207 27.109 64.822 27.6263C64.5233 28.1437 64.0033 28.4023 63.262 28.4023C62.5153 28.4023 61.9927 28.1437 61.694 27.6263C61.3953 27.109 61.246 26.3837 61.246 25.4503ZM64.55 25.4503C64.55 24.9863 64.518 24.5943 64.454 24.2743C64.3953 23.949 64.27 23.6877 64.078 23.4903C63.8913 23.293 63.6193 23.1943 63.262 23.1943C62.8993 23.1943 62.622 23.293 62.43 23.4903C62.2433 23.6877 62.118 23.949 62.054 24.2743C61.9953 24.5943 61.966 24.9863 61.966 25.4503C61.966 25.9303 61.9953 26.333 62.054 26.6583C62.118 26.9837 62.2433 27.245 62.43 27.4423C62.622 27.6397 62.8993 27.7383 63.262 27.7383C63.6193 27.7383 63.8913 27.6397 64.078 27.4423C64.27 27.245 64.3953 26.9837 64.454 26.6583C64.518 26.333 64.55 25.9303 64.55 25.4503ZM70.9703 28.4023L69.2503 26.4663V28.4023H68.5223V22.4823H69.2503V25.9623L70.9383 24.0183H71.9543L69.8903 26.2023L71.9623 28.4023H70.9703ZM74.4474 23.9463C74.8261 23.9463 75.1568 24.029 75.4394 24.1943C75.7274 24.3597 75.9408 24.5677 76.0794 24.8183V24.0183H76.8154V28.4983C76.8154 28.8983 76.7301 29.253 76.5594 29.5623C76.3888 29.877 76.1434 30.1223 75.8234 30.2983C75.5088 30.4743 75.1408 30.5623 74.7194 30.5623C74.1434 30.5623 73.6634 30.4263 73.2794 30.1543C72.8954 29.8823 72.6688 29.5117 72.5994 29.0423H73.3194C73.3994 29.309 73.5648 29.5223 73.8154 29.6823C74.0661 29.8477 74.3674 29.9303 74.7194 29.9303C75.1194 29.9303 75.4448 29.805 75.6954 29.5543C75.9514 29.3037 76.0794 28.9517 76.0794 28.4983V27.5783C75.9354 27.8343 75.7221 28.0477 75.4394 28.2183C75.1568 28.389 74.8261 28.4743 74.4474 28.4743C74.0581 28.4743 73.7034 28.3783 73.3834 28.1863C73.0688 27.9943 72.8208 27.725 72.6394 27.3783C72.4581 27.0317 72.3674 26.637 72.3674 26.1943C72.3674 25.7463 72.4581 25.3543 72.6394 25.0183C72.8208 24.677 73.0688 24.413 73.3834 24.2263C73.7034 24.0397 74.0581 23.9463 74.4474 23.9463ZM76.0794 26.2023C76.0794 25.8717 76.0128 25.5837 75.8794 25.3383C75.7461 25.093 75.5648 24.9063 75.3354 24.7783C75.1114 24.645 74.8634 24.5783 74.5914 24.5783C74.3194 24.5783 74.0714 24.6423 73.8474 24.7703C73.6234 24.8983 73.4448 25.085 73.3114 25.3303C73.1781 25.5757 73.1114 25.8637 73.1114 26.1943C73.1114 26.5303 73.1781 26.8237 73.3114 27.0743C73.4448 27.3197 73.6234 27.509 73.8474 27.6423C74.0714 27.7703 74.3194 27.8343 74.5914 27.8343C74.8634 27.8343 75.1114 27.7703 75.3354 27.6423C75.5648 27.509 75.7461 27.3197 75.8794 27.0743C76.0128 26.8237 76.0794 26.533 76.0794 26.2023Z" fill="white"/>
<defs>
<clipPath id="clip0_1467_133">
<rect width="18" height="17" fill="white" transform="translate(9.25 9.75)"/>
</clipPath>
</defs>
</svg>
