<svg width="82" height="32" viewBox="0 0 82 32" fill="none" xmlns="http://www.w3.org/2000/svg">
<path d="M61 8.43119C61 5.98391 59.0161 4 56.5688 4H4.43119C1.98391 4 0 5.98391 0 8.43119V22.5688C0 25.0161 1.98391 27 4.43119 27H56.5688C59.0161 27 61 25.0161 61 22.5688V8.43119Z" fill="#8D8D8D"/>
<circle cx="15.8257" cy="15.8257" r="15.8257" transform="matrix(-1 0 0 1 81.6523 0)" fill="white"/>
<circle cx="13.2936" cy="13.2936" r="13.2936" transform="matrix(-1 0 0 1 79.1211 2.21484)" fill="#8D8D8D"/>
<path d="M24.7152 12.7273L24.7152 20L23.3871 20L20.223 15.4226L20.1697 15.4226L20.1697 20L18.6321 20L18.6321 12.7273L19.9815 12.7273L23.1207 17.3011L23.1847 17.3011L23.1847 12.7273L24.7152 12.7273ZM27.943 20.1065C27.3819 20.1065 26.899 19.9929 26.4941 19.7656C26.0917 19.536 25.7815 19.2116 25.5637 18.7926C25.3459 18.3712 25.237 17.8729 25.237 17.2976C25.237 16.7365 25.3459 16.2441 25.5637 15.8203C25.7815 15.3965 26.0881 15.0663 26.4835 14.8295C26.8812 14.5928 27.3476 14.4744 27.8826 14.4744C28.2425 14.4744 28.5775 14.5324 28.8876 14.6484C29.2001 14.7621 29.4724 14.9337 29.7044 15.1634C29.9387 15.393 30.121 15.6818 30.2512 16.0298C30.3815 16.3755 30.4466 16.7803 30.4466 17.2443L30.4466 17.6598L25.8407 17.6598L25.8407 16.7223L29.0225 16.7223C29.0225 16.5045 28.9752 16.3116 28.8805 16.1435C28.7858 15.9754 28.6544 15.844 28.4863 15.7493C28.3206 15.6522 28.1277 15.6037 27.9075 15.6037C27.6779 15.6037 27.4743 15.657 27.2967 15.7635C27.1215 15.8677 26.9842 16.0085 26.8848 16.1861C26.7853 16.3613 26.7344 16.5566 26.7321 16.772L26.7321 17.6634C26.7321 17.9332 26.7818 18.1664 26.8812 18.3629C26.983 18.5594 27.1262 18.7109 27.3109 18.8175C27.4956 18.924 27.7145 18.9773 27.9679 18.9773C28.1359 18.9773 28.2898 18.9536 28.4295 18.9062C28.5692 18.8589 28.6887 18.7879 28.7882 18.6932C28.8876 18.5985 28.9634 18.4825 29.0154 18.3452L30.4146 18.4375C30.3436 18.7737 30.198 19.0672 29.9778 19.3182C29.76 19.5668 29.4783 19.7609 29.1326 19.9006C28.7894 20.0379 28.3928 20.1065 27.943 20.1065ZM32.1003 14.5455L33.1017 16.4524L34.128 14.5455L35.6799 14.5455L34.0996 17.2727L35.7225 20L34.1777 20L33.1017 18.1143L32.0435 20L30.481 20L32.1003 17.2727L30.5378 14.5455L32.1003 14.5455ZM38.9796 14.5455L38.9796 15.6818L35.6948 15.6818L35.6948 14.5455L38.9796 14.5455ZM36.4405 13.2386L37.9533 13.2386L37.9533 18.3239C37.9533 18.4635 37.9746 18.5724 38.0172 18.6506C38.0598 18.7263 38.119 18.7796 38.1948 18.8104C38.2729 18.8411 38.3629 18.8565 38.4647 18.8565C38.5357 18.8565 38.6067 18.8506 38.6777 18.8388C38.7488 18.8246 38.8032 18.8139 38.8411 18.8068L39.079 19.9325C39.0033 19.9562 38.8967 19.9834 38.7594 20.0142C38.6221 20.0473 38.4552 20.0675 38.2587 20.0746C37.8941 20.0888 37.5745 20.0402 37.2999 19.929C37.0276 19.8177 36.8158 19.6449 36.6642 19.4105C36.5127 19.1761 36.4382 18.8802 36.4405 18.5227L36.4405 13.2386Z" fill="white"/>
<g clip-path="url(#clip0_1467_302)">
<path d="M64.9825 11.1108C64.6896 10.8178 64.6897 10.3428 64.9828 10.0499C65.2757 9.75734 65.7502 9.75741 66.043 10.0501L71.292 15.2972C71.3851 15.3898 71.4591 15.4999 71.5095 15.6211C71.56 15.7424 71.5859 15.8724 71.5859 16.0037C71.5859 16.1351 71.56 16.2651 71.5095 16.3863C71.4591 16.5076 71.3851 16.6177 71.292 16.7102L66.043 21.9601C65.7503 22.2529 65.2757 22.2529 64.9829 21.9602C64.6902 21.6675 64.6902 21.193 64.9829 20.9002L69.17 16.7123C69.5605 16.3218 69.5604 15.6887 69.1699 15.2982L64.9825 11.1108Z" fill="white"/>
<path d="M62.1821 12.6962C62.0712 12.5767 62.0403 12.4034 62.103 12.2529C62.2169 11.9796 62.5719 11.9093 62.7814 12.1187L66.1947 15.5308C66.2568 15.5926 66.306 15.6659 66.3397 15.7468C66.3733 15.8276 66.3906 15.9143 66.3906 16.0018C66.3906 16.0894 66.3733 16.1761 66.3397 16.2569C66.306 16.3377 66.2568 16.4111 66.1947 16.4728L62.7845 19.8836C62.5738 20.0943 62.2166 20.0233 62.1026 19.748C62.0401 19.5969 62.0714 19.4232 62.1827 19.3035L64.6188 16.6832C64.9754 16.2996 64.9757 15.7058 64.6194 15.322L62.1821 12.6962Z" fill="white"/>
</g>
<defs>
<clipPath id="clip0_1467_302">
<rect width="12" height="16" fill="white" transform="translate(60 8)"/>
</clipPath>
</defs>
</svg>
