<svg width="124" height="37" viewBox="0 0 124 37" fill="none" xmlns="http://www.w3.org/2000/svg">
<rect width="36.5" height="36.5" rx="18.25" fill="white"/>
<path d="M18.2491 14.2917C18.4734 14.2917 18.6616 14.2157 18.8136 14.0637C18.9656 13.9117 19.0413 13.7238 19.0408 13.5C19.0403 13.2762 18.9643 13.0883 18.8128 12.9363C18.6613 12.7843 18.4734 12.7083 18.2491 12.7083C18.0248 12.7083 17.8369 12.7843 17.6854 12.9363C17.534 13.0883 17.458 13.2762 17.4574 13.5C17.4569 13.7238 17.5329 13.9119 17.6854 14.0645C17.838 14.217 18.0259 14.2927 18.2491 14.2917ZM20.4856 14.2917H21.871C22.2668 14.2917 22.6099 14.4236 22.9002 14.6875C23.1904 14.9514 23.3686 15.2747 23.4345 15.6573L24.5627 23.574C24.6286 24.049 24.5067 24.468 24.1969 24.8311C23.8871 25.1942 23.4878 25.3755 22.9991 25.375H13.4991C13.0109 25.375 12.6117 25.1937 12.3013 24.8311C11.991 24.4685 11.8691 24.0495 11.9356 23.574L13.0637 15.6573C13.1297 15.2747 13.3078 14.9514 13.5981 14.6875C13.8883 14.4236 14.2314 14.2917 14.6272 14.2917H16.0127C15.9731 14.1597 15.9401 14.0312 15.9137 13.9061C15.8873 13.781 15.8741 13.6457 15.8741 13.5C15.8741 12.8403 16.105 12.2795 16.5668 11.8177C17.0286 11.3559 17.5894 11.125 18.2491 11.125C18.9088 11.125 19.4696 11.3559 19.9314 11.8177C20.3932 12.2795 20.6241 12.8403 20.6241 13.5C20.6241 13.6451 20.6109 13.7805 20.5845 13.9061C20.5581 14.0317 20.5252 14.1603 20.4856 14.2917Z" fill="#361269"/>
<path d="M52.925 7.86766L50.68 15.0977H49.465L47.885 10.1577C47.8417 10.0377 47.8017 9.89099 47.765 9.71766C47.745 9.80099 47.725 9.87932 47.705 9.95266C47.685 10.026 47.6633 10.0943 47.64 10.1577L46.045 15.0977H44.825L42.585 7.86766H43.71C43.8267 7.86766 43.9233 7.89599 44 7.95266C44.08 8.00599 44.1333 8.07932 44.16 8.17266L45.39 12.4977C45.4167 12.6043 45.4417 12.721 45.465 12.8477C45.4917 12.971 45.5183 13.101 45.545 13.2377C45.5717 13.0977 45.6 12.966 45.63 12.8427C45.6633 12.7193 45.6983 12.6043 45.735 12.4977L47.155 8.17266C47.1817 8.09599 47.2333 8.02599 47.31 7.96266C47.39 7.89932 47.4867 7.86766 47.6 7.86766H47.995C48.1117 7.86766 48.2067 7.89599 48.28 7.95266C48.3533 8.00932 48.4083 8.08266 48.445 8.17266L49.86 12.4977C49.93 12.7043 49.9933 12.9427 50.05 13.2127C50.0933 12.9493 50.1417 12.711 50.195 12.4977L51.425 8.17266C51.445 8.08932 51.495 8.01766 51.575 7.95766C51.6583 7.89766 51.7567 7.86766 51.87 7.86766H52.925ZM56.3173 11.9427C56.3173 11.7827 56.294 11.6327 56.2473 11.4927C56.204 11.3493 56.1373 11.2243 56.0473 11.1177C55.9573 11.011 55.8423 10.9277 55.7023 10.8677C55.5657 10.8043 55.4057 10.7727 55.2223 10.7727C54.8657 10.7727 54.584 10.8743 54.3773 11.0777C54.174 11.281 54.044 11.5693 53.9873 11.9427H56.3173ZM53.9623 12.6877C53.9823 12.951 54.029 13.1793 54.1023 13.3727C54.1757 13.5627 54.2723 13.721 54.3923 13.8477C54.5123 13.971 54.654 14.0643 54.8173 14.1277C54.984 14.1877 55.1673 14.2177 55.3673 14.2177C55.5673 14.2177 55.739 14.1943 55.8823 14.1477C56.029 14.101 56.1557 14.0493 56.2623 13.9927C56.3723 13.936 56.4673 13.8843 56.5473 13.8377C56.6307 13.791 56.7107 13.7677 56.7873 13.7677C56.8907 13.7677 56.9673 13.806 57.0173 13.8827L57.3723 14.3327C57.2357 14.4927 57.0823 14.6277 56.9123 14.7377C56.7423 14.8443 56.564 14.931 56.3773 14.9977C56.194 15.061 56.0057 15.106 55.8123 15.1327C55.6223 15.1593 55.4373 15.1727 55.2573 15.1727C54.9007 15.1727 54.569 15.1143 54.2623 14.9977C53.9557 14.8777 53.689 14.7027 53.4623 14.4727C53.2357 14.2393 53.0573 13.9527 52.9273 13.6127C52.7973 13.2693 52.7323 12.8727 52.7323 12.4227C52.7323 12.0727 52.789 11.7443 52.9023 11.4377C53.0157 11.1277 53.1773 10.8593 53.3873 10.6327C53.6007 10.4027 53.859 10.221 54.1623 10.0877C54.469 9.95432 54.814 9.88766 55.1973 9.88766C55.5207 9.88766 55.819 9.93932 56.0923 10.0427C56.3657 10.146 56.6007 10.2977 56.7973 10.4977C56.994 10.6943 57.1473 10.9377 57.2573 11.2277C57.3707 11.5143 57.4273 11.8427 57.4273 12.2127C57.4273 12.3993 57.4073 12.526 57.3673 12.5927C57.3273 12.656 57.2507 12.6877 57.1373 12.6877H53.9623ZM59.6341 9.96766V15.0977H58.3941V9.96766H59.6341ZM59.8041 8.47266C59.8041 8.57932 59.7825 8.67932 59.7391 8.77266C59.6958 8.86599 59.6375 8.94766 59.5641 9.01766C59.4941 9.08766 59.4108 9.14432 59.3141 9.18766C59.2175 9.22766 59.1141 9.24766 59.0041 9.24766C58.8975 9.24766 58.7958 9.22766 58.6991 9.18766C58.6058 9.14432 58.5241 9.08766 58.4541 9.01766C58.3841 8.94766 58.3275 8.86599 58.2841 8.77266C58.2441 8.67932 58.2241 8.57932 58.2241 8.47266C58.2241 8.36266 58.2441 8.25932 58.2841 8.16266C58.3275 8.06599 58.3841 7.98266 58.4541 7.91266C58.5241 7.84266 58.6058 7.78766 58.6991 7.74766C58.7958 7.70432 58.8975 7.68266 59.0041 7.68266C59.1141 7.68266 59.2175 7.70432 59.3141 7.74766C59.4108 7.78766 59.4941 7.84266 59.5641 7.91266C59.6375 7.98266 59.6958 8.06599 59.7391 8.16266C59.7825 8.25932 59.8041 8.36266 59.8041 8.47266ZM62.7682 12.4077C62.9215 12.4077 63.0549 12.3877 63.1682 12.3477C63.2815 12.3043 63.3749 12.246 63.4482 12.1727C63.5249 12.0993 63.5815 12.011 63.6182 11.9077C63.6582 11.8043 63.6782 11.691 63.6782 11.5677C63.6782 11.3143 63.6015 11.1143 63.4482 10.9677C63.2982 10.8177 63.0715 10.7427 62.7682 10.7427C62.4649 10.7427 62.2365 10.8177 62.0832 10.9677C61.9332 11.1143 61.8582 11.3143 61.8582 11.5677C61.8582 11.6877 61.8765 11.7993 61.9132 11.9027C61.9532 12.006 62.0099 12.096 62.0832 12.1727C62.1599 12.246 62.2549 12.3043 62.3682 12.3477C62.4849 12.3877 62.6182 12.4077 62.7682 12.4077ZM64.1632 15.3277C64.1632 15.2277 64.1332 15.146 64.0732 15.0827C64.0132 15.0193 63.9315 14.971 63.8282 14.9377C63.7249 14.901 63.6032 14.8743 63.4632 14.8577C63.3265 14.841 63.1799 14.8293 63.0232 14.8227C62.8699 14.8127 62.7099 14.8043 62.5432 14.7977C62.3799 14.791 62.2199 14.7777 62.0632 14.7577C61.9265 14.8343 61.8149 14.9243 61.7282 15.0277C61.6449 15.131 61.6032 15.251 61.6032 15.3877C61.6032 15.4777 61.6249 15.561 61.6682 15.6377C61.7149 15.7177 61.7865 15.786 61.8832 15.8427C61.9832 15.8993 62.1115 15.9427 62.2682 15.9727C62.4249 16.006 62.6165 16.0227 62.8432 16.0227C63.0732 16.0227 63.2715 16.0043 63.4382 15.9677C63.6049 15.9343 63.7415 15.886 63.8482 15.8227C63.9582 15.7627 64.0382 15.6893 64.0882 15.6027C64.1382 15.5193 64.1632 15.4277 64.1632 15.3277ZM65.3932 10.1427V10.6027C65.3932 10.7493 65.3049 10.8393 65.1282 10.8727L64.6682 10.9577C64.7382 11.1343 64.7732 11.3277 64.7732 11.5377C64.7732 11.791 64.7215 12.021 64.6182 12.2277C64.5182 12.431 64.3782 12.6043 64.1982 12.7477C64.0182 12.891 63.8049 13.0027 63.5582 13.0827C63.3149 13.1593 63.0515 13.1977 62.7682 13.1977C62.6682 13.1977 62.5715 13.1927 62.4782 13.1827C62.3849 13.1727 62.2932 13.1593 62.2032 13.1427C62.0432 13.2393 61.9632 13.3477 61.9632 13.4677C61.9632 13.571 62.0099 13.6477 62.1032 13.6977C62.1999 13.7443 62.3265 13.7777 62.4832 13.7977C62.6399 13.8177 62.8182 13.831 63.0182 13.8377C63.2182 13.841 63.4232 13.851 63.6332 13.8677C63.8432 13.8843 64.0482 13.9143 64.2482 13.9577C64.4482 13.9977 64.6265 14.0627 64.7832 14.1527C64.9399 14.2427 65.0649 14.366 65.1582 14.5227C65.2549 14.676 65.3032 14.8743 65.3032 15.1177C65.3032 15.3443 65.2465 15.5643 65.1332 15.7777C65.0232 15.991 64.8615 16.181 64.6482 16.3477C64.4382 16.5143 64.1782 16.6477 63.8682 16.7477C63.5615 16.851 63.2115 16.9027 62.8182 16.9027C62.4315 16.9027 62.0949 16.8643 61.8082 16.7877C61.5215 16.7143 61.2832 16.6143 61.0932 16.4877C60.9032 16.3643 60.7615 16.221 60.6682 16.0577C60.5749 15.8943 60.5282 15.7243 60.5282 15.5477C60.5282 15.3077 60.5999 15.1077 60.7432 14.9477C60.8899 14.7843 61.0899 14.6543 61.3432 14.5577C61.2065 14.4877 61.0982 14.3943 61.0182 14.2777C60.9382 14.161 60.8982 14.0077 60.8982 13.8177C60.8982 13.741 60.9115 13.6627 60.9382 13.5827C60.9682 13.4993 61.0099 13.4177 61.0632 13.3377C61.1199 13.2577 61.1899 13.1827 61.2732 13.1127C61.3565 13.0393 61.4549 12.9743 61.5682 12.9177C61.3082 12.7777 61.1032 12.591 60.9532 12.3577C60.8065 12.1243 60.7332 11.851 60.7332 11.5377C60.7332 11.2843 60.7832 11.056 60.8832 10.8527C60.9865 10.646 61.1282 10.471 61.3082 10.3277C61.4915 10.181 61.7065 10.0693 61.9532 9.99266C62.2032 9.91599 62.4749 9.87766 62.7682 9.87766C62.9882 9.87766 63.1949 9.90099 63.3882 9.94766C63.5815 9.99099 63.7582 10.056 63.9182 10.1427H65.3932ZM67.4114 10.5177C67.6114 10.331 67.8314 10.1793 68.0714 10.0627C68.3114 9.94599 68.5931 9.88766 68.9164 9.88766C69.1964 9.88766 69.4447 9.93599 69.6614 10.0327C69.8781 10.126 70.0581 10.2593 70.2014 10.4327C70.3481 10.6027 70.4581 10.8077 70.5314 11.0477C70.6081 11.2843 70.6464 11.546 70.6464 11.8327V15.0977H69.4114V11.8327C69.4114 11.5193 69.3397 11.2777 69.1964 11.1077C69.0531 10.9343 68.8347 10.8477 68.5414 10.8477C68.3281 10.8477 68.1281 10.896 67.9414 10.9927C67.7547 11.0893 67.5781 11.221 67.4114 11.3877V15.0977H66.1764V7.66766H67.4114V10.5177ZM73.4626 15.1777C73.0159 15.1777 72.6726 15.0527 72.4326 14.8027C72.1959 14.5493 72.0776 14.201 72.0776 13.7577V10.8927H71.5526C71.4859 10.8927 71.4292 10.871 71.3826 10.8277C71.3359 10.7843 71.3126 10.7193 71.3126 10.6327V10.1427L72.1376 10.0077L72.3976 8.60766C72.4142 8.54099 72.4459 8.48932 72.4926 8.45266C72.5392 8.41599 72.5992 8.39766 72.6726 8.39766H73.3126V10.0127H74.6826V10.8927H73.3126V13.6727C73.3126 13.8327 73.3509 13.9577 73.4276 14.0477C73.5076 14.1377 73.6159 14.1827 73.7526 14.1827C73.8292 14.1827 73.8926 14.1743 73.9426 14.1577C73.9959 14.1377 74.0409 14.1177 74.0776 14.0977C74.1176 14.0777 74.1526 14.0593 74.1826 14.0427C74.2126 14.0227 74.2426 14.0127 74.2726 14.0127C74.3092 14.0127 74.3392 14.0227 74.3626 14.0427C74.3859 14.0593 74.4109 14.086 74.4376 14.1227L74.8076 14.7227C74.6276 14.8727 74.4209 14.986 74.1876 15.0627C73.9542 15.1393 73.7126 15.1777 73.4626 15.1777Z" fill="white"/>
<path d="M42.804 23.2823V22.6183H44.308V28.4023H43.572V23.2823H42.804ZM46.4945 26.8503C46.5478 27.1543 46.6705 27.389 46.8625 27.5543C47.0598 27.7197 47.3238 27.8023 47.6545 27.8023C48.0972 27.8023 48.4225 27.629 48.6305 27.2823C48.8438 26.9357 48.9452 26.3517 48.9345 25.5303C48.8225 25.7703 48.6358 25.9597 48.3745 26.0983C48.1132 26.2317 47.8225 26.2983 47.5025 26.2983C47.1452 26.2983 46.8252 26.2263 46.5425 26.0823C46.2652 25.933 46.0465 25.717 45.8865 25.4343C45.7265 25.1517 45.6465 24.8103 45.6465 24.4103C45.6465 23.8397 45.8118 23.381 46.1425 23.0343C46.4732 22.6823 46.9425 22.5063 47.5505 22.5063C48.2972 22.5063 48.8198 22.749 49.1185 23.2343C49.4225 23.7197 49.5745 24.4423 49.5745 25.4023C49.5745 26.0743 49.5132 26.629 49.3905 27.0663C49.2732 27.5037 49.0705 27.837 48.7825 28.0663C48.4998 28.2957 48.1105 28.4103 47.6145 28.4103C47.0705 28.4103 46.6465 28.2637 46.3425 27.9703C46.0385 27.677 45.8652 27.3037 45.8225 26.8503H46.4945ZM47.6225 25.6823C47.9798 25.6823 48.2732 25.573 48.5025 25.3543C48.7318 25.1303 48.8465 24.829 48.8465 24.4503C48.8465 24.0503 48.7345 23.7277 48.5105 23.4823C48.2865 23.237 47.9718 23.1143 47.5665 23.1143C47.1932 23.1143 46.8945 23.2317 46.6705 23.4663C46.4518 23.701 46.3425 24.0103 46.3425 24.3943C46.3425 24.7837 46.4518 25.0957 46.6705 25.3303C46.8892 25.565 47.2065 25.6823 47.6225 25.6823ZM50.9496 28.4503C50.8109 28.4503 50.6936 28.4023 50.5976 28.3063C50.5016 28.2103 50.4536 28.093 50.4536 27.9543C50.4536 27.8157 50.5016 27.6983 50.5976 27.6023C50.6936 27.5063 50.8109 27.4583 50.9496 27.4583C51.0829 27.4583 51.1949 27.5063 51.2856 27.6023C51.3816 27.6983 51.4296 27.8157 51.4296 27.9543C51.4296 28.093 51.3816 28.2103 51.2856 28.3063C51.1949 28.4023 51.0829 28.4503 50.9496 28.4503ZM52.1893 27.8183C52.8666 27.2743 53.3973 26.829 53.7812 26.4823C54.1653 26.1303 54.4879 25.765 54.7493 25.3863C55.0159 25.0023 55.1493 24.6263 55.1493 24.2583C55.1493 23.9117 55.0639 23.6397 54.8933 23.4423C54.7279 23.2397 54.4586 23.1383 54.0853 23.1383C53.7226 23.1383 53.4399 23.253 53.2373 23.4823C53.0399 23.7063 52.9333 24.0077 52.9173 24.3863H52.2133C52.2346 23.789 52.4159 23.3277 52.7573 23.0023C53.0986 22.677 53.5386 22.5143 54.0773 22.5143C54.6266 22.5143 55.0613 22.6663 55.3813 22.9703C55.7066 23.2743 55.8693 23.693 55.8693 24.2263C55.8693 24.669 55.7359 25.101 55.4693 25.5223C55.2079 25.9383 54.9093 26.3063 54.5733 26.6263C54.2373 26.941 53.8079 27.309 53.2853 27.7303H56.0373V28.3383H52.1893V27.8183ZM57.8148 26.8503C57.8681 27.1543 57.9908 27.389 58.1828 27.5543C58.3801 27.7197 58.6441 27.8023 58.9748 27.8023C59.4175 27.8023 59.7428 27.629 59.9508 27.2823C60.1641 26.9357 60.2655 26.3517 60.2548 25.5303C60.1428 25.7703 59.9561 25.9597 59.6948 26.0983C59.4335 26.2317 59.1428 26.2983 58.8228 26.2983C58.4655 26.2983 58.1455 26.2263 57.8628 26.0823C57.5855 25.933 57.3668 25.717 57.2068 25.4343C57.0468 25.1517 56.9668 24.8103 56.9668 24.4103C56.9668 23.8397 57.1321 23.381 57.4628 23.0343C57.7935 22.6823 58.2628 22.5063 58.8708 22.5063C59.6175 22.5063 60.1401 22.749 60.4388 23.2343C60.7428 23.7197 60.8948 24.4423 60.8948 25.4023C60.8948 26.0743 60.8335 26.629 60.7108 27.0663C60.5935 27.5037 60.3908 27.837 60.1028 28.0663C59.8201 28.2957 59.4308 28.4103 58.9348 28.4103C58.3908 28.4103 57.9668 28.2637 57.6628 27.9703C57.3588 27.677 57.1855 27.3037 57.1428 26.8503H57.8148ZM58.9428 25.6823C59.3001 25.6823 59.5935 25.573 59.8228 25.3543C60.0521 25.1303 60.1668 24.829 60.1668 24.4503C60.1668 24.0503 60.0548 23.7277 59.8308 23.4823C59.6068 23.237 59.2921 23.1143 58.8868 23.1143C58.5135 23.1143 58.2148 23.2317 57.9908 23.4663C57.7721 23.701 57.6628 24.0103 57.6628 24.3943C57.6628 24.7837 57.7721 25.0957 57.9908 25.3303C58.2095 25.565 58.5268 25.6823 58.9428 25.6823ZM65.9787 23.9463C66.3574 23.9463 66.688 24.029 66.9707 24.1943C67.2587 24.3597 67.472 24.5677 67.6107 24.8183V24.0183H68.3467V28.4983C68.3467 28.8983 68.2614 29.253 68.0907 29.5623C67.92 29.877 67.6747 30.1223 67.3547 30.2983C67.04 30.4743 66.672 30.5623 66.2507 30.5623C65.6747 30.5623 65.1947 30.4263 64.8107 30.1543C64.4267 29.8823 64.2 29.5117 64.1307 29.0423H64.8507C64.9307 29.309 65.096 29.5223 65.3467 29.6823C65.5974 29.8477 65.8987 29.9303 66.2507 29.9303C66.6507 29.9303 66.976 29.805 67.2267 29.5543C67.4827 29.3037 67.6107 28.9517 67.6107 28.4983V27.5783C67.4667 27.8343 67.2534 28.0477 66.9707 28.2183C66.688 28.389 66.3574 28.4743 65.9787 28.4743C65.5894 28.4743 65.2347 28.3783 64.9147 28.1863C64.6 27.9943 64.352 27.725 64.1707 27.3783C63.9894 27.0317 63.8987 26.637 63.8987 26.1943C63.8987 25.7463 63.9894 25.3543 64.1707 25.0183C64.352 24.677 64.6 24.413 64.9147 24.2263C65.2347 24.0397 65.5894 23.9463 65.9787 23.9463ZM67.6107 26.2023C67.6107 25.8717 67.544 25.5837 67.4107 25.3383C67.2774 25.093 67.096 24.9063 66.8667 24.7783C66.6427 24.645 66.3947 24.5783 66.1227 24.5783C65.8507 24.5783 65.6027 24.6423 65.3787 24.7703C65.1547 24.8983 64.976 25.085 64.8427 25.3303C64.7094 25.5757 64.6427 25.8637 64.6427 26.1943C64.6427 26.5303 64.7094 26.8237 64.8427 27.0743C64.976 27.3197 65.1547 27.509 65.3787 27.6423C65.6027 27.7703 65.8507 27.8343 66.1227 27.8343C66.3947 27.8343 66.6427 27.7703 66.8667 27.6423C67.096 27.509 67.2774 27.3197 67.4107 27.0743C67.544 26.8237 67.6107 26.533 67.6107 26.2023Z" fill="white"/>
</svg>
