<svg width="420" height="87" viewBox="0 0 420 87" fill="none" xmlns="http://www.w3.org/2000/svg">
<g filter="url(#filter0_d_1104_92)">
<rect x="13.6016" y="10.3628" width="392" height="58.892" rx="10.5249" fill="#FEFFFE"/>
</g>
<circle cx="43.3389" cy="38.2329" r="21.0498" fill="#D9F2EE"/>
<circle cx="43.5575" cy="38.2327" r="17.8114" fill="#0C2461"/>
<path d="M40.281 45.3568C39.5718 45.3568 38.9791 45.2159 38.5031 44.9342C38.027 44.6427 37.6676 44.2444 37.4247 43.7392C37.1818 43.234 37.0604 42.6462 37.0604 41.9759V36.6276C37.0604 35.9378 37.1721 35.3355 37.3956 34.8205C37.6287 34.2959 37.9833 33.8879 38.4594 33.5964C38.9354 33.305 39.5426 33.1592 40.281 33.1592C41.0194 33.1592 41.6217 33.305 42.088 33.5964C42.5641 33.8879 42.9138 34.2959 43.1373 34.8205C43.3705 35.3355 43.487 35.9378 43.487 36.6276V41.9759C43.487 42.6365 43.3656 43.2243 43.1227 43.7392C42.8798 44.2444 42.5204 44.6427 42.0443 44.9342C41.5683 45.2159 40.9805 45.3568 40.281 45.3568ZM40.281 43.1854C40.5142 43.1854 40.6793 43.1125 40.7765 42.9668C40.8833 42.8114 40.9465 42.6365 40.9659 42.4422C40.9951 42.2382 41.0096 42.0633 41.0096 41.9176V36.6859C41.0096 36.5207 40.9999 36.3361 40.9805 36.1321C40.9611 35.9184 40.8979 35.7338 40.791 35.5783C40.6939 35.4132 40.5239 35.3306 40.281 35.3306C40.0381 35.3306 39.8632 35.4132 39.7564 35.5783C39.6592 35.7338 39.6009 35.9184 39.5815 36.1321C39.5621 36.3361 39.5523 36.5207 39.5523 36.6859V41.9176C39.5523 42.0633 39.5669 42.2382 39.5961 42.4422C39.6252 42.6365 39.6884 42.8114 39.7855 42.9668C39.8924 43.1125 40.0575 43.1854 40.281 43.1854ZM48.3807 45.3568C47.5549 45.3568 46.904 45.2013 46.4279 44.8904C45.9616 44.5796 45.6264 44.1472 45.4224 43.5935C45.2281 43.03 45.1309 42.3839 45.1309 41.6553V41.2326H47.5646C47.5646 41.2424 47.5646 41.2958 47.5646 41.3929C47.5646 41.4901 47.5646 41.5775 47.5646 41.6553C47.5646 42.0439 47.5889 42.3596 47.6375 42.6025C47.6861 42.8454 47.7735 43.0251 47.8998 43.1417C48.0261 43.2486 48.201 43.302 48.4244 43.302C48.6479 43.302 48.813 43.2437 48.9199 43.1271C49.0365 43.0105 49.1142 42.8357 49.1531 42.6025C49.1919 42.3693 49.2114 42.0779 49.2114 41.7281C49.2114 41.1452 49.1288 40.7032 48.9636 40.402C48.8082 40.0911 48.4779 39.9308 47.9727 39.9211C47.9629 39.9211 47.9095 39.9211 47.8124 39.9211C47.7152 39.9211 47.618 39.9211 47.5209 39.9211V38.2452C47.5889 38.2452 47.6569 38.2452 47.7249 38.2452C47.7929 38.2452 47.8561 38.2452 47.9144 38.2452C48.4293 38.2452 48.7742 38.1043 48.949 37.8226C49.1239 37.5408 49.2114 37.1036 49.2114 36.511C49.2114 36.0544 49.1482 35.7046 49.0219 35.4618C48.9053 35.2189 48.6819 35.0974 48.3516 35.0974C48.0309 35.0974 47.8172 35.2334 47.7103 35.5055C47.6132 35.7775 47.5646 36.1273 47.5646 36.5547C47.5646 36.6519 47.5646 36.7539 47.5646 36.8608C47.5646 36.9579 47.5646 37.0599 47.5646 37.1668H45.1309V36.4527C45.1309 35.7435 45.2572 35.146 45.5098 34.6602C45.7721 34.1648 46.1413 33.7907 46.6174 33.5381C47.1031 33.2855 47.6812 33.1592 48.3516 33.1592C49.0316 33.1592 49.6145 33.2807 50.1003 33.5236C50.5861 33.7664 50.9601 34.1259 51.2224 34.602C51.4847 35.0683 51.6159 35.6512 51.6159 36.3507C51.6159 37.0405 51.475 37.6186 51.1933 38.0849C50.9115 38.5512 50.5715 38.8378 50.1732 38.9447C50.4452 39.0418 50.6881 39.1973 50.9018 39.411C51.1253 39.6248 51.3001 39.9162 51.4264 40.2854C51.5527 40.6449 51.6159 41.1063 51.6159 41.6698C51.6159 42.3888 51.509 43.0251 51.2953 43.5789C51.0913 44.1327 50.7512 44.5698 50.2752 44.8904C49.7991 45.2013 49.1676 45.3568 48.3807 45.3568Z" fill="#FEFFFE"/>
<path d="M77.7866 32.7863C77.1367 32.7863 76.6191 32.6654 76.2337 32.4236C75.8484 32.1818 75.5726 31.8342 75.4063 31.3808C75.2401 30.9274 75.157 30.3909 75.157 29.7713V26.337C75.157 25.7173 75.2401 25.1884 75.4063 24.7501C75.5726 24.3043 75.8484 23.9643 76.2337 23.73C76.6191 23.4958 77.1367 23.3787 77.7866 23.3787C78.4515 23.3787 78.9729 23.4958 79.3507 23.73C79.7361 23.9643 80.0119 24.3043 80.1781 24.7501C80.3519 25.1884 80.4388 25.7173 80.4388 26.337V29.7827C80.4388 30.3947 80.3519 30.9274 80.1781 31.3808C80.0119 31.8266 79.7361 32.1742 79.3507 32.4236C78.9729 32.6654 78.4515 32.7863 77.7866 32.7863ZM77.7866 31.5508C78.0661 31.5508 78.2702 31.4904 78.3986 31.3695C78.5346 31.2486 78.6253 31.0823 78.6706 30.8708C78.716 30.6592 78.7387 30.4287 78.7387 30.1794V25.9516C78.7387 25.6947 78.716 25.4642 78.6706 25.2602C78.6253 25.0562 78.5346 24.8975 78.3986 24.7841C78.2702 24.6632 78.0661 24.6028 77.7866 24.6028C77.5221 24.6028 77.3218 24.6632 77.1858 24.7841C77.0498 24.8975 76.9591 25.0562 76.9138 25.2602C76.8685 25.4642 76.8458 25.6947 76.8458 25.9516V30.1794C76.8458 30.4287 76.8647 30.6592 76.9025 30.8708C76.9478 31.0823 77.0385 31.2486 77.1745 31.3695C77.3105 31.4904 77.5145 31.5508 77.7866 31.5508ZM83.0188 32.6616L81.1712 23.4807H82.6561L83.8688 29.9753L85.0023 23.4807H86.5211L84.6736 32.6616H83.0188ZM86.5834 32.6616L88.4196 23.4807H90.2104L92.0466 32.6616H90.4938L90.1311 30.5421H88.5329L88.1589 32.6616H86.5834ZM88.7029 29.4766H89.9497L89.3263 25.6229L88.7029 29.4766ZM92.9699 32.6616V23.4807H94.6474V31.5055H96.869V32.6616H92.9699ZM102.968 32.7863C102.295 32.7863 101.766 32.6541 101.381 32.3896C101.003 32.1251 100.739 31.7662 100.587 31.3128C100.436 30.8519 100.361 30.3229 100.361 29.726V26.4503C100.361 25.8231 100.436 25.2791 100.587 24.8181C100.739 24.3572 101.003 24.0021 101.381 23.7527C101.766 23.5033 102.295 23.3787 102.968 23.3787C103.602 23.3787 104.097 23.4882 104.452 23.7074C104.815 23.9189 105.072 24.225 105.223 24.6255C105.374 25.0259 105.45 25.4907 105.45 26.0196V26.7903H103.84V25.9969C103.84 25.74 103.825 25.5058 103.795 25.2942C103.772 25.0826 103.701 24.9164 103.58 24.7955C103.466 24.667 103.266 24.6028 102.979 24.6028C102.692 24.6028 102.48 24.6708 102.344 24.8068C102.216 24.9353 102.133 25.1128 102.095 25.3395C102.057 25.5587 102.038 25.808 102.038 26.0876V30.0774C102.038 30.4098 102.065 30.6856 102.118 30.9048C102.17 31.1164 102.265 31.2788 102.401 31.3922C102.545 31.4979 102.737 31.5508 102.979 31.5508C103.259 31.5508 103.455 31.4866 103.568 31.3582C103.689 31.2221 103.765 31.0446 103.795 30.8254C103.825 30.6063 103.84 30.3607 103.84 30.0887V29.2613H105.45V29.998C105.45 30.5421 105.378 31.0257 105.235 31.4488C105.091 31.8644 104.838 32.1931 104.475 32.4349C104.12 32.6692 103.618 32.7863 102.968 32.7863ZM109.111 32.7863C108.462 32.7863 107.944 32.6654 107.559 32.4236C107.173 32.1818 106.897 31.8342 106.731 31.3808C106.565 30.9274 106.482 30.3909 106.482 29.7713V26.337C106.482 25.7173 106.565 25.1884 106.731 24.7501C106.897 24.3043 107.173 23.9643 107.559 23.73C107.944 23.4958 108.462 23.3787 109.111 23.3787C109.776 23.3787 110.298 23.4958 110.676 23.73C111.061 23.9643 111.337 24.3043 111.503 24.7501C111.677 25.1884 111.764 25.7173 111.764 26.337V29.7827C111.764 30.3947 111.677 30.9274 111.503 31.3808C111.337 31.8266 111.061 32.1742 110.676 32.4236C110.298 32.6654 109.776 32.7863 109.111 32.7863ZM109.111 31.5508C109.391 31.5508 109.595 31.4904 109.723 31.3695C109.859 31.2486 109.95 31.0823 109.995 30.8708C110.041 30.6592 110.063 30.4287 110.063 30.1794V25.9516C110.063 25.6947 110.041 25.4642 109.995 25.2602C109.95 25.0562 109.859 24.8975 109.723 24.7841C109.595 24.6632 109.391 24.6028 109.111 24.6028C108.847 24.6028 108.647 24.6632 108.511 24.7841C108.375 24.8975 108.284 25.0562 108.239 25.2602C108.193 25.4642 108.171 25.6947 108.171 25.9516V30.1794C108.171 30.4287 108.19 30.6592 108.227 30.8708C108.273 31.0823 108.363 31.2486 108.499 31.3695C108.635 31.4904 108.839 31.5508 109.111 31.5508ZM113.005 32.6616V23.4807H114.172L116.405 28.7172V23.4807H117.788V32.6616H116.677L114.433 27.1757V32.6616H113.005ZM120.099 32.6616V24.7161H118.637V23.4807H123.216V24.7161H121.777V32.6616H120.099ZM123.1 32.6616L124.936 23.4807H126.727L128.563 32.6616H127.01L126.647 30.5421H125.049L124.675 32.6616H123.1ZM125.219 29.4766H126.466L125.842 25.6229L125.219 29.4766ZM129.531 32.6616V23.4807H131.186V32.6616H129.531ZM132.607 32.6616V23.4807H133.775L136.008 28.7172V23.4807H137.391V32.6616H136.28L134.036 27.1757V32.6616H132.607ZM138.784 32.6616V23.4807H142.638V24.6595H140.461V27.3004H142.173V28.4679H140.461V31.5055H142.66V32.6616H138.784ZM143.632 32.6616V23.4807H145.831C146.451 23.4807 146.972 23.5562 147.395 23.7074C147.826 23.8509 148.151 24.1003 148.37 24.4554C148.597 24.8106 148.71 25.2942 148.71 25.9063C148.71 26.2765 148.676 26.609 148.608 26.9037C148.54 27.1984 148.423 27.4515 148.257 27.6631C148.098 27.8671 147.875 28.0258 147.588 28.1392L148.869 32.6616H147.191L146.08 28.4565H145.31V32.6616H143.632ZM145.31 27.4024H145.831C146.156 27.4024 146.413 27.3571 146.602 27.2664C146.798 27.1682 146.938 27.017 147.021 26.813C147.104 26.6014 147.146 26.3332 147.146 26.0083C147.146 25.5473 147.059 25.2035 146.885 24.9768C146.719 24.7426 146.398 24.6255 145.922 24.6255H145.31V27.4024ZM152.265 32.7863C151.713 32.7863 151.252 32.6805 150.882 32.4689C150.512 32.2498 150.232 31.9324 150.043 31.5168C149.854 31.1012 149.748 30.5912 149.726 29.9867L151.165 29.7033C151.18 30.0585 151.222 30.3721 151.29 30.6441C151.365 30.9161 151.475 31.1277 151.619 31.2788C151.77 31.4224 151.966 31.4942 152.208 31.4942C152.48 31.4942 152.673 31.4148 152.786 31.2561C152.899 31.0899 152.956 30.8821 152.956 30.6327C152.956 30.2323 152.865 29.9036 152.684 29.6466C152.503 29.3897 152.261 29.1328 151.959 28.8759L150.802 27.8558C150.478 27.5762 150.217 27.2664 150.02 26.9264C149.831 26.5788 149.737 26.1518 149.737 25.6456C149.737 24.9202 149.949 24.361 150.372 23.9681C150.795 23.5751 151.373 23.3787 152.106 23.3787C152.537 23.3787 152.896 23.4467 153.183 23.5827C153.47 23.7111 153.697 23.8925 153.863 24.1267C154.037 24.361 154.165 24.6292 154.248 24.9315C154.331 25.2262 154.384 25.5398 154.407 25.8723L152.979 26.1216C152.964 25.8345 152.93 25.5776 152.877 25.3509C152.831 25.1242 152.744 24.9466 152.616 24.8181C152.495 24.6897 152.314 24.6255 152.072 24.6255C151.823 24.6255 151.63 24.7086 151.494 24.8748C151.365 25.0335 151.301 25.2337 151.301 25.4755C151.301 25.7854 151.365 26.0423 151.494 26.2463C151.622 26.4428 151.807 26.6468 152.049 26.8584L153.194 27.8671C153.572 28.1845 153.893 28.5585 154.157 28.9892C154.429 29.4124 154.565 29.9262 154.565 30.5307C154.565 30.969 154.467 31.3582 154.271 31.6982C154.082 32.0382 153.814 32.3065 153.466 32.5029C153.126 32.6918 152.726 32.7863 152.265 32.7863Z" fill="#0C2461"/>
<path d="M75.0202 45.4194V44.803L76.6555 43.1999C76.8119 43.042 76.9422 42.9017 77.0465 42.779C77.1508 42.6563 77.229 42.5375 77.2811 42.4225C77.3332 42.3075 77.3593 42.1848 77.3593 42.0545C77.3593 41.9058 77.3256 41.7785 77.2581 41.6727C77.1906 41.5654 77.0979 41.4826 76.9798 41.4243C76.8617 41.366 76.7275 41.3369 76.5773 41.3369C76.4224 41.3369 76.2867 41.3691 76.1702 41.4335C76.0536 41.4964 75.9632 41.5861 75.8988 41.7026C75.8359 41.8191 75.8045 41.9579 75.8045 42.1189H74.9926C74.9926 41.8199 75.0608 41.56 75.1973 41.3392C75.3337 41.1184 75.5216 40.9474 75.7608 40.8263C76.0015 40.7052 76.2775 40.6446 76.5888 40.6446C76.9046 40.6446 77.1822 40.7036 77.4214 40.8217C77.6606 40.9398 77.8461 41.1015 77.978 41.307C78.1114 41.5125 78.1781 41.7471 78.1781 42.0108C78.1781 42.1871 78.1444 42.3604 78.0769 42.5306C78.0094 42.7008 77.8906 42.8894 77.7204 43.0964C77.5517 43.3034 77.3148 43.5541 77.0097 43.8485L76.1978 44.6742V44.7064H78.2494V45.4194H75.0202ZM80.6805 45.4838C80.3738 45.4838 80.0994 45.4263 79.8571 45.3113C79.6148 45.1948 79.4224 45.0353 79.2798 44.8329C79.1387 44.6305 79.0636 44.399 79.0544 44.1383H79.8824C79.8977 44.3315 79.9813 44.4895 80.1331 44.6121C80.2849 44.7333 80.4674 44.7938 80.6805 44.7938C80.8477 44.7938 80.9964 44.7555 81.1267 44.6788C81.2571 44.6022 81.3598 44.4956 81.4349 44.3591C81.5101 44.2227 81.5469 44.067 81.5453 43.8922C81.5469 43.7144 81.5093 43.5564 81.4326 43.4184C81.356 43.2804 81.2509 43.1723 81.1175 43.0941C80.9841 43.0144 80.8308 42.9745 80.6575 42.9745C80.5164 42.973 80.3777 42.999 80.2412 43.0527C80.1047 43.1064 79.9966 43.1769 79.9169 43.2643L79.1464 43.1378L79.3925 40.709H82.1249V41.422H80.0986L79.9629 42.6709H79.9905C80.0779 42.5682 80.2013 42.4831 80.3608 42.4156C80.5203 42.3466 80.6951 42.3121 80.8852 42.3121C81.1704 42.3121 81.425 42.3796 81.6488 42.5145C81.8727 42.6479 82.049 42.8319 82.1778 43.0665C82.3066 43.3011 82.371 43.5695 82.371 43.8715C82.371 44.1828 82.299 44.4603 82.1548 44.7041C82.0122 44.9464 81.8137 45.1373 81.5591 45.2768C81.3061 45.4148 81.0133 45.4838 80.6805 45.4838ZM84.8827 45.5091C84.5039 45.5091 84.1788 45.4133 83.9074 45.2216C83.6376 45.0284 83.4298 44.7501 83.2841 44.3867C83.14 44.0218 83.0679 43.5825 83.0679 43.0688C83.0695 42.5551 83.1423 42.1181 83.2864 41.7578C83.4321 41.3959 83.6399 41.1199 83.9097 40.9298C84.1811 40.7397 84.5055 40.6446 84.8827 40.6446C85.2599 40.6446 85.5842 40.7397 85.8556 40.9298C86.127 41.1199 86.3347 41.3959 86.4789 41.7578C86.6245 42.1197 86.6974 42.5567 86.6974 43.0688C86.6974 43.584 86.6245 44.0241 86.4789 44.389C86.3347 44.7524 86.127 45.03 85.8556 45.2216C85.5857 45.4133 85.2614 45.5091 84.8827 45.5091ZM84.8827 44.7892C85.1771 44.7892 85.4094 44.6443 85.5796 44.3545C85.7513 44.0632 85.8372 43.6346 85.8372 43.0688C85.8372 42.6947 85.7981 42.3803 85.7199 42.1258C85.6417 41.8713 85.5313 41.6796 85.3887 41.5508C85.2461 41.4205 85.0774 41.3553 84.8827 41.3553C84.5898 41.3553 84.3582 41.501 84.188 41.7923C84.0178 42.0821 83.932 42.5076 83.9304 43.0688C83.9289 43.4445 83.9665 43.7604 84.0431 44.0164C84.1213 44.2725 84.2317 44.4657 84.3743 44.596C84.517 44.7248 84.6864 44.7892 84.8827 44.7892ZM87.4708 45.4194V41.8866H88.2666V42.4869H88.308C88.3816 42.2845 88.5035 42.1266 88.6737 42.0131C88.8439 41.8981 89.047 41.8406 89.2832 41.8406C89.5224 41.8406 89.724 41.8989 89.8881 42.0154C90.0537 42.1304 90.1702 42.2876 90.2377 42.4869H90.2745C90.3527 42.2906 90.4845 42.1342 90.6701 42.0177C90.8572 41.8996 91.0787 41.8406 91.3348 41.8406C91.6599 41.8406 91.9251 41.9433 92.1306 42.1488C92.3361 42.3543 92.4388 42.654 92.4388 43.0481V45.4194H91.6039V43.1769C91.6039 42.9576 91.5456 42.7974 91.4291 42.6962C91.3126 42.5935 91.17 42.5421 91.0013 42.5421C90.8004 42.5421 90.6432 42.605 90.5298 42.7307C90.4178 42.8549 90.3619 43.0167 90.3619 43.216V45.4194H89.5454V43.1424C89.5454 42.9599 89.4902 42.8143 89.3798 42.7054C89.2709 42.5965 89.1283 42.5421 88.952 42.5421C88.8324 42.5421 88.7235 42.5728 88.6254 42.6341C88.5272 42.6939 88.449 42.779 88.3908 42.8894C88.3325 42.9983 88.3034 43.1255 88.3034 43.2712V45.4194H87.4708ZM94.1161 40.709V45.4194H93.2835V40.709H94.1161ZM95.9498 44.7754L95.9199 45.0284C95.8984 45.2216 95.8601 45.4179 95.8049 45.6172C95.7512 45.8181 95.6945 46.0029 95.6347 46.1715C95.5749 46.3402 95.5266 46.4728 95.4898 46.5694H94.9286C94.95 46.4759 94.9792 46.3486 95.016 46.1876C95.0543 46.0266 95.0911 45.8457 95.1264 45.6448C95.1616 45.444 95.1854 45.24 95.1977 45.033L95.2138 44.7754H95.9498ZM98.2492 44.5454V43.8669L100.248 40.709H100.814V41.675H100.469L99.1232 43.8071V43.8439H101.913V44.5454H98.2492ZM100.496 45.4194V44.3384L100.506 44.0348V40.709H101.311V45.4194H100.496ZM104.389 45.5091C104.01 45.5091 103.685 45.4133 103.414 45.2216C103.144 45.0284 102.936 44.7501 102.791 44.3867C102.646 44.0218 102.574 43.5825 102.574 43.0688C102.576 42.5551 102.649 42.1181 102.793 41.7578C102.939 41.3959 103.146 41.1199 103.416 40.9298C103.688 40.7397 104.012 40.6446 104.389 40.6446C104.766 40.6446 105.091 40.7397 105.362 40.9298C105.633 41.1199 105.841 41.3959 105.985 41.7578C106.131 42.1197 106.204 42.5567 106.204 43.0688C106.204 43.584 106.131 44.0241 105.985 44.389C105.841 44.7524 105.633 45.03 105.362 45.2216C105.092 45.4133 104.768 45.5091 104.389 45.5091ZM104.389 44.7892C104.684 44.7892 104.916 44.6443 105.086 44.3545C105.258 44.0632 105.344 43.6346 105.344 43.0688C105.344 42.6947 105.305 42.3803 105.226 42.1258C105.148 41.8713 105.038 41.6796 104.895 41.5508C104.753 41.4205 104.584 41.3553 104.389 41.3553C104.096 41.3553 103.865 41.501 103.695 41.7923C103.524 42.0821 103.438 42.5076 103.437 43.0688C103.435 43.4445 103.473 43.7604 103.55 44.0164C103.628 44.2725 103.738 44.4657 103.881 44.596C104.023 44.7248 104.193 44.7892 104.389 44.7892ZM108.709 45.5091C108.33 45.5091 108.005 45.4133 107.734 45.2216C107.464 45.0284 107.256 44.7501 107.111 44.3867C106.966 44.0218 106.894 43.5825 106.894 43.0688C106.896 42.5551 106.969 42.1181 107.113 41.7578C107.259 41.3959 107.466 41.1199 107.736 40.9298C108.008 40.7397 108.332 40.6446 108.709 40.6446C109.086 40.6446 109.411 40.7397 109.682 40.9298C109.953 41.1199 110.161 41.3959 110.305 41.7578C110.451 42.1197 110.524 42.5567 110.524 43.0688C110.524 43.584 110.451 44.0241 110.305 44.389C110.161 44.7524 109.953 45.03 109.682 45.2216C109.412 45.4133 109.088 45.5091 108.709 45.5091ZM108.709 44.7892C109.004 44.7892 109.236 44.6443 109.406 44.3545C109.578 44.0632 109.664 43.6346 109.664 43.0688C109.664 42.6947 109.625 42.3803 109.546 42.1258C109.468 41.8713 109.358 41.6796 109.215 41.5508C109.073 41.4205 108.904 41.3553 108.709 41.3553C108.416 41.3553 108.185 41.501 108.015 41.7923C107.844 42.0821 107.758 42.5076 107.757 43.0688C107.755 43.4445 107.793 43.7604 107.87 44.0164C107.948 44.2725 108.058 44.4657 108.201 44.596C108.343 44.7248 108.513 44.7892 108.709 44.7892ZM111.297 45.4194V41.8866H112.093V42.4869H112.134C112.208 42.2845 112.33 42.1266 112.5 42.0131C112.67 41.8981 112.874 41.8406 113.11 41.8406C113.349 41.8406 113.55 41.8989 113.715 42.0154C113.88 42.1304 113.997 42.2876 114.064 42.4869H114.101C114.179 42.2906 114.311 42.1342 114.497 42.0177C114.684 41.8996 114.905 41.8406 115.161 41.8406C115.486 41.8406 115.752 41.9433 115.957 42.1488C116.163 42.3543 116.265 42.654 116.265 43.0481V45.4194H115.43V43.1769C115.43 42.9576 115.372 42.7974 115.256 42.6962C115.139 42.5935 114.996 42.5421 114.828 42.5421C114.627 42.5421 114.47 42.605 114.356 42.7307C114.244 42.8549 114.188 43.0167 114.188 43.216V45.4194H113.372V43.1424C113.372 42.9599 113.317 42.8143 113.206 42.7054C113.097 42.5965 112.955 42.5421 112.778 42.5421C112.659 42.5421 112.55 42.5728 112.452 42.6341C112.354 42.6939 112.276 42.779 112.217 42.8894C112.159 42.9983 112.13 43.1255 112.13 43.2712V45.4194H111.297ZM117.943 40.709V45.4194H117.11V40.709H117.943ZM119.776 44.7754L119.746 45.0284C119.725 45.2216 119.687 45.4179 119.631 45.6172C119.578 45.8181 119.521 46.0029 119.461 46.1715C119.401 46.3402 119.353 46.4728 119.316 46.5694H118.755C118.777 46.4759 118.806 46.3486 118.842 46.1876C118.881 46.0266 118.918 45.8457 118.953 45.6448C118.988 45.444 119.012 45.24 119.024 45.033L119.04 44.7754H119.776ZM123.798 45.4838C123.492 45.4838 123.217 45.4263 122.975 45.3113C122.733 45.1948 122.54 45.0353 122.398 44.8329C122.257 44.6305 122.182 44.399 122.172 44.1383H123C123.016 44.3315 123.099 44.4895 123.251 44.6121C123.403 44.7333 123.585 44.7938 123.798 44.7938C123.966 44.7938 124.114 44.7555 124.245 44.6788C124.375 44.6022 124.478 44.4956 124.553 44.3591C124.628 44.2227 124.665 44.067 124.663 43.8922C124.665 43.7144 124.627 43.5564 124.551 43.4184C124.474 43.2804 124.369 43.1723 124.235 43.0941C124.102 43.0144 123.949 42.9745 123.775 42.9745C123.634 42.973 123.496 42.999 123.359 43.0527C123.223 43.1064 123.115 43.1769 123.035 43.2643L122.264 43.1378L122.51 40.709H125.243V41.422H123.217L123.081 42.6709H123.108C123.196 42.5682 123.319 42.4831 123.479 42.4156C123.638 42.3466 123.813 42.3121 124.003 42.3121C124.288 42.3121 124.543 42.3796 124.767 42.5145C124.991 42.6479 125.167 42.8319 125.296 43.0665C125.425 43.3011 125.489 43.5695 125.489 43.8715C125.489 44.1828 125.417 44.4603 125.273 44.7041C125.13 44.9464 124.932 45.1373 124.677 45.2768C124.424 45.4148 124.131 45.4838 123.798 45.4838ZM128.001 45.5091C127.622 45.5091 127.297 45.4133 127.025 45.2216C126.755 45.0284 126.548 44.7501 126.402 44.3867C126.258 44.0218 126.186 43.5825 126.186 43.0688C126.187 42.5551 126.26 42.1181 126.404 41.7578C126.55 41.3959 126.758 41.1199 127.028 40.9298C127.299 40.7397 127.623 40.6446 128.001 40.6446C128.378 40.6446 128.702 40.7397 128.973 40.9298C129.245 41.1199 129.453 41.3959 129.597 41.7578C129.742 42.1197 129.815 42.5567 129.815 43.0688C129.815 43.584 129.742 44.0241 129.597 44.389C129.453 44.7524 129.245 45.03 128.973 45.2216C128.704 45.4133 128.379 45.5091 128.001 45.5091ZM128.001 44.7892C128.295 44.7892 128.527 44.6443 128.697 44.3545C128.869 44.0632 128.955 43.6346 128.955 43.0688C128.955 42.6947 128.916 42.3803 128.838 42.1258C128.76 41.8713 128.649 41.6796 128.507 41.5508C128.364 41.4205 128.195 41.3553 128.001 41.3553C127.708 41.3553 127.476 41.501 127.306 41.7923C127.136 42.0821 127.05 42.5076 127.048 43.0688C127.047 43.4445 127.084 43.7604 127.161 44.0164C127.239 44.2725 127.35 44.4657 127.492 44.596C127.635 44.7248 127.804 44.7892 128.001 44.7892ZM132.321 45.5091C131.942 45.5091 131.617 45.4133 131.345 45.2216C131.076 45.0284 130.868 44.7501 130.722 44.3867C130.578 44.0218 130.506 43.5825 130.506 43.0688C130.507 42.5551 130.58 42.1181 130.724 41.7578C130.87 41.3959 131.078 41.1199 131.348 40.9298C131.619 40.7397 131.943 40.6446 132.321 40.6446C132.698 40.6446 133.022 40.7397 133.293 40.9298C133.565 41.1199 133.773 41.3959 133.917 41.7578C134.062 42.1197 134.135 42.5567 134.135 43.0688C134.135 43.584 134.062 44.0241 133.917 44.389C133.773 44.7524 133.565 45.03 133.293 45.2216C133.024 45.4133 132.699 45.5091 132.321 45.5091ZM132.321 44.7892C132.615 44.7892 132.847 44.6443 133.017 44.3545C133.189 44.0632 133.275 43.6346 133.275 43.0688C133.275 42.6947 133.236 42.3803 133.158 42.1258C133.08 41.8713 132.969 41.6796 132.827 41.5508C132.684 41.4205 132.515 41.3553 132.321 41.3553C132.028 41.3553 131.796 41.501 131.626 41.7923C131.456 42.0821 131.37 42.5076 131.368 43.0688C131.367 43.4445 131.404 43.7604 131.481 44.0164C131.559 44.2725 131.67 44.4657 131.812 44.596C131.955 44.7248 132.124 44.7892 132.321 44.7892ZM134.909 45.4194V41.8866H135.704V42.4869H135.746C135.819 42.2845 135.941 42.1266 136.112 42.0131C136.282 41.8981 136.485 41.8406 136.721 41.8406C136.96 41.8406 137.162 41.8989 137.326 42.0154C137.492 42.1304 137.608 42.2876 137.676 42.4869H137.712C137.791 42.2906 137.922 42.1342 138.108 42.0177C138.295 41.8996 138.517 41.8406 138.773 41.8406C139.098 41.8406 139.363 41.9433 139.569 42.1488C139.774 42.3543 139.877 42.654 139.877 43.0481V45.4194H139.042V43.1769C139.042 42.9576 138.984 42.7974 138.867 42.6962C138.75 42.5935 138.608 42.5421 138.439 42.5421C138.238 42.5421 138.081 42.605 137.968 42.7307C137.856 42.8549 137.8 43.0167 137.8 43.216V45.4194H136.983V43.1424C136.983 42.9599 136.928 42.8143 136.818 42.7054C136.709 42.5965 136.566 42.5421 136.39 42.5421C136.27 42.5421 136.161 42.5728 136.063 42.6341C135.965 42.6939 135.887 42.779 135.829 42.8894C135.77 42.9983 135.741 43.1255 135.741 43.2712V45.4194H134.909ZM141.554 40.709V45.4194H140.721V40.709H141.554ZM143.388 44.7754L143.358 45.0284C143.336 45.2216 143.298 45.4179 143.243 45.6172C143.189 45.8181 143.132 46.0029 143.073 46.1715C143.013 46.3402 142.965 46.4728 142.928 46.5694H142.366C142.388 46.4759 142.417 46.3486 142.454 46.1876C142.492 46.0266 142.529 45.8457 142.564 45.6448C142.6 45.444 142.623 45.24 142.636 45.033L142.652 44.7754H143.388ZM76.9361 51.709V56.4194H76.0828V52.5393H76.0552L74.9535 53.2431V52.4611L76.1242 51.709H76.9361ZM79.8732 56.5091C79.4945 56.5091 79.1694 56.4133 78.898 56.2216C78.6281 56.0284 78.4204 55.7501 78.2747 55.3867C78.1306 55.0218 78.0585 54.5825 78.0585 54.0688C78.06 53.5551 78.1329 53.1181 78.277 52.7578C78.4227 52.3959 78.6304 52.1199 78.9003 51.9298C79.1717 51.7397 79.496 51.6446 79.8732 51.6446C80.2504 51.6446 80.5747 51.7397 80.8461 51.9298C81.1175 52.1199 81.3253 52.3959 81.4694 52.7578C81.6151 53.1197 81.6879 53.5567 81.6879 54.0688C81.6879 54.584 81.6151 55.0241 81.4694 55.389C81.3253 55.7524 81.1175 56.03 80.8461 56.2216C80.5762 56.4133 80.2519 56.5091 79.8732 56.5091ZM79.8732 55.7892C80.1676 55.7892 80.3999 55.6443 80.5701 55.3545C80.7419 55.0632 80.8277 54.6346 80.8277 54.0688C80.8277 53.6947 80.7886 53.3803 80.7104 53.1258C80.6322 52.8713 80.5218 52.6796 80.3792 52.5508C80.2366 52.4205 80.0679 52.3553 79.8732 52.3553C79.5803 52.3553 79.3488 52.501 79.1786 52.7923C79.0084 53.0821 78.9225 53.5076 78.921 54.0688C78.9195 54.4445 78.957 54.7604 79.0337 55.0164C79.1119 55.2725 79.2223 55.4657 79.3649 55.596C79.5075 55.7248 79.6769 55.7892 79.8732 55.7892ZM84.1932 56.5091C83.8145 56.5091 83.4894 56.4133 83.218 56.2216C82.9481 56.0284 82.7404 55.7501 82.5947 55.3867C82.4506 55.0218 82.3785 54.5825 82.3785 54.0688C82.38 53.5551 82.4529 53.1181 82.597 52.7578C82.7427 52.3959 82.9504 52.1199 83.2203 51.9298C83.4917 51.7397 83.816 51.6446 84.1932 51.6446C84.5704 51.6446 84.8947 51.7397 85.1661 51.9298C85.4375 52.1199 85.6453 52.3959 85.7894 52.7578C85.9351 53.1197 86.0079 53.5567 86.0079 54.0688C86.0079 54.584 85.9351 55.0241 85.7894 55.389C85.6453 55.7524 85.4375 56.03 85.1661 56.2216C84.8963 56.4133 84.572 56.5091 84.1932 56.5091ZM84.1932 55.7892C84.4876 55.7892 84.7199 55.6443 84.8901 55.3545C85.0619 55.0632 85.1477 54.6346 85.1477 54.0688C85.1477 53.6947 85.1086 53.3803 85.0304 53.1258C84.9522 52.8713 84.8418 52.6796 84.6992 52.5508C84.5566 52.4205 84.388 52.3553 84.1932 52.3553C83.9004 52.3553 83.6688 52.501 83.4986 52.7923C83.3284 53.0821 83.2425 53.5076 83.241 54.0688C83.2395 54.4445 83.277 54.7604 83.3537 55.0164C83.4319 55.2725 83.5423 55.4657 83.6849 55.596C83.8275 55.7248 83.997 55.7892 84.1932 55.7892ZM88.5132 56.5091C88.1345 56.5091 87.8094 56.4133 87.538 56.2216C87.2682 56.0284 87.0604 55.7501 86.9147 55.3867C86.7706 55.0218 86.6985 54.5825 86.6985 54.0688C86.7001 53.5551 86.7729 53.1181 86.917 52.7578C87.0627 52.3959 87.2705 52.1199 87.5403 51.9298C87.8117 51.7397 88.136 51.6446 88.5132 51.6446C88.8904 51.6446 89.2147 51.7397 89.4861 51.9298C89.7575 52.1199 89.9653 52.3959 90.1095 52.7578C90.2551 53.1197 90.328 53.5567 90.328 54.0688C90.328 54.584 90.2551 55.0241 90.1095 55.389C89.9653 55.7524 89.7575 56.03 89.4861 56.2216C89.2163 56.4133 88.892 56.5091 88.5132 56.5091ZM88.5132 55.7892C88.8076 55.7892 89.0399 55.6443 89.2101 55.3545C89.3819 55.0632 89.4677 54.6346 89.4677 54.0688C89.4677 53.6947 89.4286 53.3803 89.3504 53.1258C89.2722 52.8713 89.1618 52.6796 89.0192 52.5508C88.8766 52.4205 88.708 52.3553 88.5132 52.3553C88.2204 52.3553 87.9888 52.501 87.8186 52.7923C87.6484 53.0821 87.5626 53.5076 87.561 54.0688C87.5595 54.4445 87.5971 54.7604 87.6737 55.0164C87.7519 55.2725 87.8623 55.4657 88.0049 55.596C88.1475 55.7248 88.317 55.7892 88.5132 55.7892ZM91.1013 56.4194V52.8866H91.8971V53.4869H91.9385C92.0121 53.2845 92.134 53.1266 92.3042 53.0131C92.4744 52.8981 92.6776 52.8406 92.9138 52.8406C93.153 52.8406 93.3546 52.8989 93.5187 53.0154C93.6843 53.1304 93.8008 53.2876 93.8683 53.4869H93.9051C93.9833 53.2906 94.1151 53.1342 94.3007 53.0177C94.4877 52.8996 94.7093 52.8406 94.9654 52.8406C95.2904 52.8406 95.5557 52.9433 95.7612 53.1488C95.9666 53.3543 96.0694 53.654 96.0694 54.0481V56.4194H95.2345V54.1769C95.2345 53.9576 95.1762 53.7974 95.0597 53.6962C94.9431 53.5935 94.8005 53.5421 94.6319 53.5421C94.431 53.5421 94.2738 53.605 94.1604 53.7307C94.0484 53.8549 93.9925 54.0167 93.9925 54.216V56.4194H93.176V54.1424C93.176 53.9599 93.1208 53.8143 93.0104 53.7054C92.9015 53.5965 92.7589 53.5421 92.5825 53.5421C92.4629 53.5421 92.3541 53.5728 92.2559 53.6341C92.1578 53.6939 92.0796 53.779 92.0213 53.8894C91.9631 53.9983 91.9339 54.1255 91.9339 54.2712V56.4194H91.1013ZM97.7467 51.709V56.4194H96.9141V51.709H97.7467Z" fill="#878C90"/>
<path d="M212.356 40.8534V40.251H214.902V40.8534H212.356ZM216.066 40.8534V40.251H218.611V40.8534H216.066ZM219.776 40.8534V40.251H222.321V40.8534H219.776ZM223.485 40.8534V40.251H226.031V40.8534H223.485ZM227.195 40.8534V40.251H229.74V40.8534H227.195ZM230.905 40.8534V40.251H233.45V40.8534H230.905ZM234.614 40.8534V40.251H237.16V40.8534H234.614ZM238.324 40.8534V40.251H240.869V40.8534H238.324ZM242.034 40.8534V40.251H244.579V40.8534H242.034ZM245.743 40.8534V40.251H248.289V40.8534H245.743ZM249.453 40.8534V40.251H251.998V40.8534H249.453ZM253.162 40.8534V40.251H255.708V40.8534H253.162ZM256.872 40.8534V40.251H259.418V40.8534H256.872ZM260.582 40.8534V40.251H263.127V40.8534H260.582ZM264.291 40.8534V40.251H266.837V40.8534H264.291ZM268.001 40.8534V40.251H270.546V40.8534H268.001ZM271.711 40.8534V40.251H274.256V40.8534H271.711ZM275.42 40.8534V40.251H277.966V40.8534H275.42ZM279.13 40.8534V40.251H281.675V40.8534H279.13ZM282.84 40.8534V40.251H285.385V40.8534H282.84ZM286.549 40.8534V40.251H289.095V40.8534H286.549ZM290.259 40.8534V40.251H292.804V40.8534H290.259ZM293.969 40.8534V40.251H296.514V40.8534H293.969ZM297.678 40.8534V40.251H300.224V40.8534H297.678ZM301.388 40.8534V40.251H303.933V40.8534H301.388ZM305.097 40.8534V40.251H307.643V40.8534H305.097ZM308.807 40.8534V40.251H311.353V40.8534H308.807ZM312.517 40.8534V40.251H315.062V40.8534H312.517ZM316.226 40.8534V40.251H318.772V40.8534H316.226ZM319.936 40.8534V40.251H322.481V40.8534H319.936ZM323.646 40.8534V40.251H326.191V40.8534H323.646ZM327.355 40.8534V40.251H329.901V40.8534H327.355ZM331.065 40.8534V40.251H333.61V40.8534H331.065ZM334.775 40.8534V40.251H337.32V40.8534H334.775Z" fill="#8F8E8E"/>
<rect x="337.667" y="21.6367" width="50.1956" height="37.2419" rx="5.26245" fill="#F1F3F2" stroke="#ADB4B7" stroke-width="0.809607"/>
<path d="M354.448 39.8628C354.448 38.1918 354.768 36.8753 355.41 35.9135C356.061 34.9517 357.105 34.4708 358.543 34.4708C359.981 34.4708 361.02 34.9517 361.661 35.9135C362.312 36.8753 362.638 38.1918 362.638 39.8628C362.638 41.5532 362.312 42.8794 361.661 43.8412C361.02 44.803 359.981 45.2839 358.543 45.2839C357.105 45.2839 356.061 44.803 355.41 43.8412C354.768 42.8794 354.448 41.5532 354.448 39.8628ZM360.19 39.8628C360.19 38.8815 360.083 38.1286 359.869 37.604C359.655 37.0696 359.213 36.8025 358.543 36.8025C357.872 36.8025 357.43 37.0696 357.217 37.604C357.003 38.1286 356.896 38.8815 356.896 39.8628C356.896 40.5234 356.935 41.0723 357.013 41.5095C357.09 41.937 357.246 42.2868 357.479 42.5588C357.722 42.8211 358.076 42.9522 358.543 42.9522C359.009 42.9522 359.359 42.8211 359.592 42.5588C359.835 42.2868 359.995 41.937 360.073 41.5095C360.151 41.0723 360.19 40.5234 360.19 39.8628ZM364.042 37.6914C364.081 36.6519 364.421 35.8504 365.062 35.2869C365.703 34.7234 366.573 34.4417 367.67 34.4417C368.399 34.4417 369.021 34.568 369.536 34.8206C370.06 35.0732 370.454 35.418 370.716 35.8552C370.988 36.2924 371.124 36.783 371.124 37.3271C371.124 37.9683 370.964 38.4929 370.643 38.901C370.323 39.2993 369.949 39.5713 369.521 39.7171V39.7753C370.075 39.9599 370.512 40.266 370.833 40.6934C371.153 41.1209 371.314 41.6698 371.314 42.3402C371.314 42.9425 371.173 43.4769 370.891 43.9432C370.619 44.3998 370.216 44.7593 369.682 45.0216C369.157 45.2839 368.53 45.4151 367.802 45.4151C366.636 45.4151 365.703 45.1285 365.004 44.5553C364.314 43.9821 363.95 43.1174 363.911 41.9613H366.33C366.339 42.3888 366.461 42.7288 366.694 42.9814C366.927 43.2243 367.267 43.3457 367.714 43.3457C368.093 43.3457 368.385 43.2388 368.589 43.0251C368.802 42.8017 368.909 42.5102 368.909 42.1507C368.909 41.6844 368.759 41.3492 368.457 41.1452C368.166 40.9315 367.695 40.8246 367.044 40.8246H366.577V38.799H367.044C367.539 38.799 367.938 38.7164 368.239 38.5512C368.55 38.3763 368.705 38.0703 368.705 37.6331C368.705 37.2834 368.608 37.0114 368.414 36.817C368.219 36.6227 367.952 36.5256 367.612 36.5256C367.243 36.5256 366.966 36.6373 366.782 36.8608C366.607 37.0842 366.505 37.3611 366.475 37.6914H364.042Z" fill="#36404B"/>
<defs>
<filter id="filter0_d_1104_92" x="0.000161171" y="-0.000179291" width="419.203" height="86.0949" filterUnits="userSpaceOnUse" color-interpolation-filters="sRGB">
<feFlood flood-opacity="0" result="BackgroundImageFix"/>
<feColorMatrix in="SourceAlpha" type="matrix" values="0 0 0 0 0 0 0 0 0 0 0 0 0 0 0 0 0 0 127 0" result="hardAlpha"/>
<feOffset dy="3.23843"/>
<feGaussianBlur stdDeviation="6.8007"/>
<feComposite in2="hardAlpha" operator="out"/>
<feColorMatrix type="matrix" values="0 0 0 0 0 0 0 0 0 0 0 0 0 0 0 0 0 0 0.17 0"/>
<feBlend mode="normal" in2="BackgroundImageFix" result="effect1_dropShadow_1104_92"/>
<feBlend mode="normal" in="SourceGraphic" in2="effect1_dropShadow_1104_92" result="shape"/>
</filter>
</defs>
</svg>
