<svg width="101" height="17" viewBox="0 0 101 17" fill="none" xmlns="http://www.w3.org/2000/svg">
<path d="M-3.90559e-05 15.708V0.308007H7.03996C8.44796 0.308007 9.65796 0.53534 10.67 0.990007C11.6966 1.44467 12.4886 2.10467 13.046 2.97001C13.6033 3.82067 13.882 4.83267 13.882 6.00601C13.882 7.16467 13.6033 8.16934 13.046 9.02001C12.4886 9.85601 11.6966 10.5013 10.67 10.956C9.65796 11.396 8.44796 11.616 7.03996 11.616H2.41996L4.35596 9.79001V15.708H-3.90559e-05ZM9.52596 15.708L5.69796 10.098H10.34L14.19 15.708H9.52596ZM4.35596 10.252L2.41996 8.25001H6.77596C7.68529 8.25001 8.35996 8.05201 8.79996 7.65601C9.25463 7.26001 9.48196 6.71001 9.48196 6.00601C9.48196 5.28734 9.25463 4.73001 8.79996 4.33401C8.35996 3.93801 7.68529 3.74001 6.77596 3.74001H2.41996L4.35596 1.73801V10.252ZM20.1791 12.298L19.9371 7.41401L26.5591 0.308007H31.3551L24.7551 7.45801L22.3351 9.98801L20.1791 12.298ZM16.2851 15.708V0.308007H20.5971V15.708H16.2851ZM26.6251 15.708L21.6091 9.35001L24.4471 6.31401L31.6851 15.708H26.6251ZM39.2304 15.708V0.308007H46.2704C47.6784 0.308007 48.8884 0.53534 49.9004 0.990007C50.9271 1.44467 51.7191 2.10467 52.2764 2.97001C52.8338 3.82067 53.1124 4.83267 53.1124 6.00601C53.1124 7.16467 52.8338 8.16934 52.2764 9.02001C51.7191 9.87067 50.9271 10.5307 49.9004 11C48.8884 11.4547 47.6784 11.682 46.2704 11.682H41.6504L43.5864 9.79001V15.708H39.2304ZM43.5864 10.252L41.6504 8.25001H46.0064C46.9158 8.25001 47.5904 8.05201 48.0304 7.65601C48.4851 7.26001 48.7124 6.71001 48.7124 6.00601C48.7124 5.28734 48.4851 4.73001 48.0304 4.33401C47.5904 3.93801 46.9158 3.74001 46.0064 3.74001H41.6504L43.5864 1.73801V10.252ZM63.2171 16.016C61.9851 16.016 60.8485 15.818 59.8071 15.422C58.7658 15.026 57.8565 14.4687 57.0791 13.75C56.3165 13.0167 55.7225 12.166 55.2971 11.198C54.8718 10.23 54.6591 9.16667 54.6591 8.00801C54.6591 6.84934 54.8718 5.78601 55.2971 4.81801C55.7225 3.85001 56.3165 3.00667 57.0791 2.28801C57.8565 1.55467 58.7658 0.990007 59.8071 0.594007C60.8485 0.198007 61.9851 6.79493e-06 63.2171 6.79493e-06C64.4638 6.79493e-06 65.6005 0.198007 66.6271 0.594007C67.6685 0.990007 68.5705 1.55467 69.3331 2.28801C70.0958 3.00667 70.6898 3.85001 71.1151 4.81801C71.5551 5.78601 71.7751 6.84934 71.7751 8.00801C71.7751 9.16667 71.5551 10.2373 71.1151 11.22C70.6898 12.188 70.0958 13.0313 69.3331 13.75C68.5705 14.4687 67.6685 15.026 66.6271 15.422C65.6005 15.818 64.4638 16.016 63.2171 16.016ZM63.2171 12.408C63.8038 12.408 64.3465 12.3053 64.8451 12.1C65.3585 11.8947 65.7985 11.6013 66.1651 11.22C66.5465 10.824 66.8398 10.3547 67.0451 9.81201C67.2651 9.26934 67.3751 8.66801 67.3751 8.00801C67.3751 7.33334 67.2651 6.73201 67.0451 6.20401C66.8398 5.66134 66.5465 5.19934 66.1651 4.81801C65.7985 4.42201 65.3585 4.12134 64.8451 3.91601C64.3465 3.71067 63.8038 3.60801 63.2171 3.60801C62.6305 3.60801 62.0805 3.71067 61.5671 3.91601C61.0685 4.12134 60.6285 4.42201 60.2471 4.81801C59.8805 5.19934 59.5871 5.66134 59.3671 6.20401C59.1618 6.73201 59.0591 7.33334 59.0591 8.00801C59.0591 8.66801 59.1618 9.26934 59.3671 9.81201C59.5871 10.3547 59.8805 10.824 60.2471 11.22C60.6285 11.6013 61.0685 11.8947 61.5671 12.1C62.0805 12.3053 62.6305 12.408 63.2171 12.408ZM74.0566 15.708V0.308007H78.4126V12.254H85.7606V15.708H74.0566ZM89.81 15.708V9.19601L90.822 11.814L83.936 0.308007H88.534L93.506 8.64601H90.844L95.838 0.308007H100.062L93.198 11.814L94.166 9.19601V15.708H89.81Z" fill="#0C2461"/>
</svg>
