<svg width="420" height="86" viewBox="0 0 420 86" fill="none" xmlns="http://www.w3.org/2000/svg">
<g filter="url(#filter0_d_1104_82)">
<rect x="13.6016" y="10.3628" width="392" height="57.9718" rx="10.5249" fill="#FEFFFE"/>
</g>
<circle cx="43.3389" cy="37.6958" r="21.0498" fill="#D9F2EE"/>
<circle cx="43.5575" cy="37.6956" r="17.8114" fill="#0C2461"/>
<path d="M40.281 44.8197C39.5718 44.8197 38.9791 44.6788 38.5031 44.3971C38.027 44.1056 37.6676 43.7073 37.4247 43.2021C37.1818 42.6969 37.0604 42.1091 37.0604 41.4387V36.0905C37.0604 35.4007 37.1721 34.7983 37.3956 34.2834C37.6287 33.7588 37.9833 33.3508 38.4594 33.0593C38.9354 32.7679 39.5426 32.6221 40.281 32.6221C41.0194 32.6221 41.6217 32.7679 42.088 33.0593C42.5641 33.3508 42.9138 33.7588 43.1373 34.2834C43.3705 34.7983 43.487 35.4007 43.487 36.0905V41.4387C43.487 42.0994 43.3656 42.6872 43.1227 43.2021C42.8798 43.7073 42.5204 44.1056 42.0443 44.3971C41.5683 44.6788 40.9805 44.8197 40.281 44.8197ZM40.281 42.6483C40.5142 42.6483 40.6793 42.5754 40.7765 42.4297C40.8833 42.2743 40.9465 42.0994 40.9659 41.9051C40.9951 41.7011 41.0096 41.5262 41.0096 41.3805V36.1488C41.0096 35.9836 40.9999 35.799 40.9805 35.595C40.9611 35.3813 40.8979 35.1967 40.791 35.0412C40.6939 34.8761 40.5239 34.7935 40.281 34.7935C40.0381 34.7935 39.8632 34.8761 39.7564 35.0412C39.6592 35.1967 39.6009 35.3813 39.5815 35.595C39.5621 35.799 39.5523 35.9836 39.5523 36.1488V41.3805C39.5523 41.5262 39.5669 41.7011 39.5961 41.9051C39.6252 42.0994 39.6884 42.2743 39.7855 42.4297C39.8924 42.5754 40.0575 42.6483 40.281 42.6483ZM45.1747 44.6011V42.8815L48.0018 38.5387C48.2155 38.2181 48.4147 37.9072 48.5993 37.6061C48.7936 37.3049 48.949 36.9989 49.0656 36.688C49.1919 36.3771 49.2551 36.0516 49.2551 35.7116C49.2551 35.3716 49.1871 35.119 49.0511 34.9538C48.915 34.7886 48.7304 34.7061 48.4973 34.7061C48.235 34.7061 48.0309 34.7789 47.8852 34.9246C47.7395 35.0704 47.6375 35.2647 47.5792 35.5076C47.5306 35.7504 47.5063 36.0225 47.5063 36.3236V36.9066H45.1455V36.2799C45.1455 35.5804 45.2572 34.9587 45.4807 34.4146C45.7041 33.8608 46.0587 33.4285 46.5445 33.1176C47.0303 32.797 47.6666 32.6367 48.4536 32.6367C49.5125 32.6367 50.3092 32.9136 50.8435 33.4674C51.3876 34.0114 51.6596 34.7741 51.6596 35.7553C51.6596 36.2314 51.5819 36.6734 51.4264 37.0814C51.2807 37.4895 51.0815 37.8878 50.829 38.2764C50.5861 38.6553 50.3238 39.0536 50.042 39.4714L47.8852 42.692H51.339V44.6011H45.1747Z" fill="#FEFFFE"/>
<path d="M75.293 32.1245V22.9436H77.4919C78.1115 22.9436 78.6329 23.0191 79.056 23.1703C79.4867 23.3138 79.8117 23.5632 80.0308 23.9183C80.2575 24.2735 80.3708 24.7571 80.3708 25.3691C80.3708 25.7394 80.3368 26.0719 80.2688 26.3666C80.2008 26.6613 80.0837 26.9144 79.9174 27.126C79.7588 27.33 79.5358 27.4887 79.2487 27.602L80.5295 32.1245H78.852L77.7412 27.9194H76.9705V32.1245H75.293ZM76.9705 26.8653H77.4919C77.8168 26.8653 78.0737 26.82 78.2626 26.7293C78.4591 26.6311 78.5989 26.4799 78.682 26.2759C78.7651 26.0643 78.8067 25.7961 78.8067 25.4712C78.8067 25.0102 78.7198 24.6664 78.546 24.4397C78.3797 24.2055 78.0586 24.0883 77.5825 24.0883H76.9705V26.8653ZM84.0737 32.2492C83.4238 32.2492 82.9062 32.1283 82.5208 31.8865C82.1355 31.6447 81.8597 31.2971 81.6934 30.8437C81.5272 30.3903 81.4441 29.8538 81.4441 29.2342V25.7999C81.4441 25.1802 81.5272 24.6513 81.6934 24.213C81.8597 23.7672 82.1355 23.4272 82.5208 23.1929C82.9062 22.9587 83.4238 22.8416 84.0737 22.8416C84.7386 22.8416 85.26 22.9587 85.6378 23.1929C86.0232 23.4272 86.299 23.7672 86.4652 24.213C86.639 24.6513 86.7259 25.1802 86.7259 25.7999V29.2455C86.7259 29.8576 86.639 30.3903 86.4652 30.8437C86.299 31.2895 86.0232 31.6371 85.6378 31.8865C85.26 32.1283 84.7386 32.2492 84.0737 32.2492ZM84.0737 31.0137C84.3532 31.0137 84.5573 30.9533 84.6857 30.8324C84.8217 30.7115 84.9124 30.5452 84.9578 30.3337C85.0031 30.1221 85.0258 29.8916 85.0258 29.6423V25.4145C85.0258 25.1576 85.0031 24.9271 84.9578 24.7231C84.9124 24.5191 84.8217 24.3604 84.6857 24.247C84.5573 24.1261 84.3532 24.0657 84.0737 24.0657C83.8092 24.0657 83.6089 24.1261 83.4729 24.247C83.3369 24.3604 83.2462 24.5191 83.2009 24.7231C83.1556 24.9271 83.1329 25.1576 83.1329 25.4145V29.6423C83.1329 29.8916 83.1518 30.1221 83.1896 30.3337C83.2349 30.5452 83.3256 30.7115 83.4616 30.8324C83.5976 30.9533 83.8016 31.0137 84.0737 31.0137ZM90.4831 32.2492C89.803 32.2492 89.274 32.1245 88.8962 31.8752C88.5184 31.6258 88.2577 31.2706 88.1141 30.8097C87.9706 30.3488 87.8988 29.7972 87.8988 29.1549V22.9436H89.531V29.3476C89.531 29.6347 89.5499 29.9067 89.5876 30.1636C89.6254 30.413 89.7123 30.617 89.8483 30.7757C89.9919 30.9268 90.2035 31.0024 90.4831 31.0024C90.7778 31.0024 90.9893 30.9268 91.1178 30.7757C91.2538 30.617 91.3407 30.413 91.3785 30.1636C91.4238 29.9067 91.4465 29.6347 91.4465 29.3476V22.9436H93.0673V29.1549C93.0673 29.7972 92.9955 30.3488 92.852 30.8097C92.7084 31.2706 92.4477 31.6258 92.0699 31.8752C91.6996 32.1245 91.1707 32.2492 90.4831 32.2492ZM94.3867 32.1245V22.9436H95.5542L97.7871 28.1801V22.9436H99.1699V32.1245H98.0591L95.8149 26.6386V32.1245H94.3867ZM100.563 32.1245V22.9436H102.728C103.476 22.9436 104.058 23.0456 104.474 23.2496C104.897 23.4536 105.195 23.7672 105.369 24.1904C105.55 24.6135 105.641 25.15 105.641 25.7999V29.1549C105.641 29.8198 105.55 30.3752 105.369 30.821C105.195 31.2593 104.9 31.588 104.485 31.8071C104.077 32.0187 103.514 32.1245 102.796 32.1245H100.563ZM102.241 30.9571H102.751C103.136 30.9571 103.412 30.8891 103.578 30.753C103.744 30.617 103.846 30.4206 103.884 30.1636C103.922 29.8992 103.941 29.578 103.941 29.2002V25.6865C103.941 25.3163 103.914 25.0178 103.861 24.7911C103.809 24.5644 103.699 24.3982 103.533 24.2924C103.367 24.1866 103.098 24.1337 102.728 24.1337H102.241V30.9571ZM111.941 32.2492C111.389 32.2492 110.928 32.1434 110.558 31.9318C110.188 31.7127 109.908 31.3953 109.719 30.9797C109.53 30.5641 109.425 30.0541 109.402 29.4496L110.841 29.1662C110.856 29.5214 110.898 29.8349 110.966 30.107C111.042 30.379 111.151 30.5906 111.295 30.7417C111.446 30.8853 111.642 30.9571 111.884 30.9571C112.156 30.9571 112.349 30.8777 112.462 30.719C112.576 30.5528 112.632 30.345 112.632 30.0956C112.632 29.6952 112.542 29.3664 112.36 29.1095C112.179 28.8526 111.937 28.5957 111.635 28.3388L110.479 27.3187C110.154 27.0391 109.893 26.7293 109.697 26.3893C109.508 26.0417 109.413 25.6147 109.413 25.1085C109.413 24.383 109.625 23.8239 110.048 23.4309C110.471 23.038 111.049 22.8416 111.782 22.8416C112.213 22.8416 112.572 22.9096 112.859 23.0456C113.146 23.174 113.373 23.3554 113.539 23.5896C113.713 23.8239 113.841 24.0921 113.924 24.3944C114.007 24.6891 114.06 25.0027 114.083 25.3351L112.655 25.5845C112.64 25.2974 112.606 25.0404 112.553 24.8138C112.507 24.5871 112.421 24.4095 112.292 24.281C112.171 24.1526 111.99 24.0883 111.748 24.0883C111.499 24.0883 111.306 24.1715 111.17 24.3377C111.042 24.4964 110.977 24.6966 110.977 24.9384C110.977 25.2482 111.042 25.5052 111.17 25.7092C111.298 25.9056 111.484 26.1097 111.725 26.3212L112.87 27.33C113.248 27.6474 113.569 28.0214 113.834 28.4521C114.106 28.8753 114.242 29.3891 114.242 29.9936C114.242 30.4319 114.143 30.821 113.947 31.1611C113.758 31.5011 113.49 31.7694 113.142 31.9658C112.802 32.1547 112.402 32.2492 111.941 32.2492ZM119.707 33.9494C119.518 33.8587 119.314 33.7227 119.094 33.5413C118.883 33.36 118.671 33.1522 118.46 32.9179C118.256 32.6912 118.078 32.4645 117.927 32.2379C117.897 32.2454 117.863 32.2492 117.825 32.2492C117.795 32.2492 117.761 32.2492 117.723 32.2492C117.073 32.2492 116.556 32.1283 116.17 31.8865C115.785 31.6447 115.509 31.2971 115.343 30.8437C115.176 30.3903 115.093 29.8538 115.093 29.2342V25.7999C115.093 25.1802 115.176 24.6513 115.343 24.213C115.509 23.7672 115.785 23.4272 116.17 23.1929C116.556 22.9587 117.073 22.8416 117.723 22.8416C118.388 22.8416 118.913 22.9587 119.298 23.1929C119.684 23.4272 119.96 23.7672 120.126 24.213C120.292 24.6513 120.375 25.1802 120.375 25.7999V29.2455C120.375 29.6838 120.334 30.0805 120.251 30.4357C120.167 30.7908 120.031 31.1006 119.843 31.3651C119.654 31.622 119.404 31.8223 119.094 31.9658C119.193 32.0716 119.295 32.1812 119.4 32.2945C119.506 32.4079 119.612 32.5137 119.718 32.6119C119.824 32.7101 119.926 32.7895 120.024 32.8499L119.707 33.9494ZM117.723 31.0137C118.003 31.0137 118.21 30.9533 118.346 30.8324C118.482 30.7115 118.573 30.5452 118.618 30.3337C118.664 30.1221 118.686 29.8916 118.686 29.6423V25.4145C118.686 25.1576 118.664 24.9271 118.618 24.7231C118.573 24.5191 118.482 24.3604 118.346 24.247C118.21 24.1261 118.003 24.0657 117.723 24.0657C117.451 24.0657 117.247 24.1261 117.111 24.247C116.975 24.3604 116.884 24.5191 116.839 24.7231C116.801 24.9271 116.782 25.1576 116.782 25.4145V29.6423C116.782 29.8916 116.801 30.1221 116.839 30.3337C116.884 30.5452 116.975 30.7115 117.111 30.8324C117.247 30.9533 117.451 31.0137 117.723 31.0137ZM124.143 32.2492C123.463 32.2492 122.934 32.1245 122.557 31.8752C122.179 31.6258 121.918 31.2706 121.775 30.8097C121.631 30.3488 121.559 29.7972 121.559 29.1549V22.9436H123.191V29.3476C123.191 29.6347 123.21 29.9067 123.248 30.1636C123.286 30.413 123.373 30.617 123.509 30.7757C123.652 30.9268 123.864 31.0024 124.143 31.0024C124.438 31.0024 124.65 30.9268 124.778 30.7757C124.914 30.617 125.001 30.413 125.039 30.1636C125.084 29.9067 125.107 29.6347 125.107 29.3476V22.9436H126.728V29.1549C126.728 29.7972 126.656 30.3488 126.512 30.8097C126.369 31.2706 126.108 31.6258 125.73 31.8752C125.36 32.1245 124.831 32.2492 124.143 32.2492ZM127.516 32.1245L129.352 22.9436H131.143L132.979 32.1245H131.426L131.064 30.005H129.466L129.091 32.1245H127.516ZM129.636 28.9395H130.882L130.259 25.0858L129.636 28.9395ZM133.903 32.1245V22.9436H136.101C136.721 22.9436 137.242 23.0191 137.666 23.1703C138.096 23.3138 138.421 23.5632 138.64 23.9183C138.867 24.2735 138.98 24.7571 138.98 25.3691C138.98 25.7394 138.946 26.0719 138.878 26.3666C138.81 26.6613 138.693 26.9144 138.527 27.126C138.368 27.33 138.145 27.4887 137.858 27.602L139.139 32.1245H137.462L136.351 27.9194H135.58V32.1245H133.903ZM135.58 26.8653H136.101C136.426 26.8653 136.683 26.82 136.872 26.7293C137.069 26.6311 137.208 26.4799 137.292 26.2759C137.375 26.0643 137.416 25.7961 137.416 25.4712C137.416 25.0102 137.329 24.6664 137.156 24.4397C136.989 24.2055 136.668 24.0883 136.192 24.0883H135.58V26.8653ZM140.256 32.1245V22.9436H144.11V24.1224H141.934V26.7633H143.645V27.9307H141.934V30.9684H144.132V32.1245H140.256ZM150.331 32.2492C149.659 32.2492 149.13 32.117 148.744 31.8525C148.367 31.588 148.102 31.2291 147.951 30.7757C147.8 30.3148 147.724 29.7858 147.724 29.1889V25.9132C147.724 25.286 147.8 24.742 147.951 24.281C148.102 23.8201 148.367 23.465 148.744 23.2156C149.13 22.9662 149.659 22.8416 150.331 22.8416C150.966 22.8416 151.461 22.9511 151.816 23.1703C152.179 23.3818 152.436 23.6879 152.587 24.0883C152.738 24.4888 152.814 24.9536 152.814 25.4825V26.2532H151.204V25.4598C151.204 25.2029 151.189 24.9687 151.159 24.7571C151.136 24.5455 151.064 24.3793 150.943 24.2584C150.83 24.1299 150.63 24.0657 150.343 24.0657C150.055 24.0657 149.844 24.1337 149.708 24.2697C149.579 24.3982 149.496 24.5757 149.459 24.8024C149.421 25.0216 149.402 25.2709 149.402 25.5505V29.5402C149.402 29.8727 149.428 30.1485 149.481 30.3677C149.534 30.5792 149.629 30.7417 149.765 30.855C149.908 30.9608 150.101 31.0137 150.343 31.0137C150.622 31.0137 150.819 30.9495 150.932 30.821C151.053 30.685 151.128 30.5075 151.159 30.2883C151.189 30.0692 151.204 29.8236 151.204 29.5516V28.7242H152.814V29.4609C152.814 30.005 152.742 30.4886 152.598 30.9117C152.455 31.3273 152.201 31.656 151.839 31.8978C151.484 32.1321 150.981 32.2492 150.331 32.2492ZM156.475 32.2492C155.825 32.2492 155.308 32.1283 154.922 31.8865C154.537 31.6447 154.261 31.2971 154.095 30.8437C153.929 30.3903 153.845 29.8538 153.845 29.2342V25.7999C153.845 25.1802 153.929 24.6513 154.095 24.213C154.261 23.7672 154.537 23.4272 154.922 23.1929C155.308 22.9587 155.825 22.8416 156.475 22.8416C157.14 22.8416 157.661 22.9587 158.039 23.1929C158.425 23.4272 158.7 23.7672 158.867 24.213C159.04 24.6513 159.127 25.1802 159.127 25.7999V29.2455C159.127 29.8576 159.04 30.3903 158.867 30.8437C158.7 31.2895 158.425 31.6371 158.039 31.8865C157.661 32.1283 157.14 32.2492 156.475 32.2492ZM156.475 31.0137C156.755 31.0137 156.959 30.9533 157.087 30.8324C157.223 30.7115 157.314 30.5452 157.359 30.3337C157.404 30.1221 157.427 29.8916 157.427 29.6423V25.4145C157.427 25.1576 157.404 24.9271 157.359 24.7231C157.314 24.5191 157.223 24.3604 157.087 24.247C156.959 24.1261 156.755 24.0657 156.475 24.0657C156.211 24.0657 156.01 24.1261 155.874 24.247C155.738 24.3604 155.648 24.5191 155.602 24.7231C155.557 24.9271 155.534 25.1576 155.534 25.4145V29.6423C155.534 29.8916 155.553 30.1221 155.591 30.3337C155.636 30.5452 155.727 30.7115 155.863 30.8324C155.999 30.9533 156.203 31.0137 156.475 31.0137ZM160.368 32.1245V22.9436H161.536L163.768 28.1801V22.9436H165.151V32.1245H164.041L161.796 26.6386V32.1245H160.368ZM167.463 32.1245V24.179H166V22.9436H170.58V24.179H169.14V32.1245H167.463ZM170.463 32.1245L172.299 22.9436H174.09L175.926 32.1245H174.374L174.011 30.005H172.413L172.039 32.1245H170.463ZM172.583 28.9395H173.829L173.206 25.0858L172.583 28.9395ZM176.895 32.1245V22.9436H178.55V32.1245H176.895ZM179.971 32.1245V22.9436H181.139L183.371 28.1801V22.9436H184.754V32.1245H183.643L181.399 26.6386V32.1245H179.971ZM186.147 32.1245V22.9436H190.001V24.1224H187.825V26.7633H189.537V27.9307H187.825V30.9684H190.024V32.1245H186.147ZM190.996 32.1245V22.9436H193.195C193.814 22.9436 194.336 23.0191 194.759 23.1703C195.189 23.3138 195.514 23.5632 195.733 23.9183C195.96 24.2735 196.073 24.7571 196.073 25.3691C196.073 25.7394 196.039 26.0719 195.971 26.3666C195.903 26.6613 195.786 26.9144 195.62 27.126C195.461 27.33 195.239 27.4887 194.951 27.602L196.232 32.1245H194.555L193.444 27.9194H192.673V32.1245H190.996ZM192.673 26.8653H193.195C193.519 26.8653 193.776 26.82 193.965 26.7293C194.162 26.6311 194.302 26.4799 194.385 26.2759C194.468 26.0643 194.509 25.7961 194.509 25.4712C194.509 25.0102 194.422 24.6664 194.249 24.4397C194.082 24.2055 193.761 24.0883 193.285 24.0883H192.673V26.8653ZM199.628 32.2492C199.077 32.2492 198.616 32.1434 198.245 31.9318C197.875 31.7127 197.596 31.3953 197.407 30.9797C197.218 30.5641 197.112 30.0541 197.089 29.4496L198.529 29.1662C198.544 29.5214 198.585 29.8349 198.653 30.107C198.729 30.379 198.839 30.5906 198.982 30.7417C199.133 30.8853 199.33 30.9571 199.572 30.9571C199.844 30.9571 200.036 30.8777 200.15 30.719C200.263 30.5528 200.32 30.345 200.32 30.0956C200.32 29.6952 200.229 29.3664 200.048 29.1095C199.866 28.8526 199.624 28.5957 199.322 28.3388L198.166 27.3187C197.841 27.0391 197.58 26.7293 197.384 26.3893C197.195 26.0417 197.101 25.6147 197.101 25.1085C197.101 24.383 197.312 23.8239 197.735 23.4309C198.158 23.038 198.737 22.8416 199.47 22.8416C199.9 22.8416 200.259 22.9096 200.546 23.0456C200.833 23.174 201.06 23.3554 201.226 23.5896C201.4 23.8239 201.529 24.0921 201.612 24.3944C201.695 24.6891 201.748 25.0027 201.77 25.3351L200.342 25.5845C200.327 25.2974 200.293 25.0404 200.24 24.8138C200.195 24.5871 200.108 24.4095 199.98 24.281C199.859 24.1526 199.677 24.0883 199.436 24.0883C199.186 24.0883 198.993 24.1715 198.857 24.3377C198.729 24.4964 198.665 24.6966 198.665 24.9384C198.665 25.2482 198.729 25.5052 198.857 25.7092C198.986 25.9056 199.171 26.1097 199.413 26.3212L200.558 27.33C200.935 27.6474 201.257 28.0214 201.521 28.4521C201.793 28.8753 201.929 29.3891 201.929 29.9936C201.929 30.4319 201.831 30.821 201.634 31.1611C201.445 31.5011 201.177 31.7694 200.83 31.9658C200.49 32.1547 200.089 32.2492 199.628 32.2492Z" fill="#0C2461"/>
<path d="M76.7107 45.4545C76.3795 45.4545 76.0851 45.3978 75.8275 45.2843C75.5714 45.1709 75.369 45.0129 75.2203 44.8105C75.0715 44.6081 74.9926 44.3743 74.9834 44.109H75.8482C75.8558 44.2363 75.898 44.3475 75.9747 44.4425C76.0513 44.5361 76.1533 44.6089 76.2806 44.661C76.4078 44.7132 76.5504 44.7392 76.7084 44.7392C76.877 44.7392 77.0266 44.7101 77.1569 44.6518C77.2872 44.592 77.3892 44.5092 77.4628 44.4034C77.5364 44.2976 77.5724 44.1757 77.5709 44.0377C77.5724 43.8951 77.5356 43.7694 77.4605 43.6605C77.3854 43.5517 77.2765 43.4666 77.1339 43.4052C76.9928 43.3439 76.8226 43.3132 76.6233 43.3132H76.207V42.6554H76.6233C76.7873 42.6554 76.9307 42.627 77.0534 42.5703C77.1776 42.5136 77.275 42.4338 77.3455 42.3311C77.416 42.2268 77.4505 42.1065 77.449 41.97C77.4505 41.8366 77.4206 41.7208 77.3593 41.6227C77.2995 41.523 77.2144 41.4456 77.104 41.3904C76.9951 41.3352 76.8671 41.3076 76.7199 41.3076C76.5757 41.3076 76.4423 41.3337 76.3197 41.3858C76.197 41.4379 76.0981 41.5123 76.023 41.6089C75.9478 41.704 75.908 41.8174 75.9034 41.9493H75.0823C75.0884 41.6856 75.1643 41.454 75.31 41.2547C75.4572 41.0538 75.6534 40.8974 75.8988 40.7855C76.1441 40.672 76.4193 40.6153 76.7245 40.6153C77.0388 40.6153 77.3118 40.6743 77.5433 40.7924C77.7764 40.9089 77.9565 41.0661 78.0838 41.2639C78.2111 41.4617 78.2747 41.6802 78.2747 41.9194C78.2762 42.1847 78.198 42.407 78.0401 42.5864C77.8837 42.7658 77.6782 42.8831 77.4237 42.9383V42.9751C77.7549 43.0211 78.0087 43.1438 78.185 43.3431C78.3629 43.5409 78.451 43.787 78.4495 44.0814C78.4495 44.3452 78.3744 44.5813 78.2241 44.7898C78.0754 44.9968 77.8699 45.1594 77.6077 45.2774C77.347 45.3955 77.048 45.4545 76.7107 45.4545ZM80.9801 45.4798C80.6014 45.4798 80.2763 45.384 80.0049 45.1923C79.735 44.9991 79.5272 44.7208 79.3816 44.3574C79.2374 43.9925 79.1654 43.5532 79.1654 43.0395C79.1669 42.5258 79.2397 42.0888 79.3839 41.7285C79.5295 41.3666 79.7373 41.0906 80.0072 40.9005C80.2786 40.7104 80.6029 40.6153 80.9801 40.6153C81.3573 40.6153 81.6816 40.7104 81.953 40.9005C82.2244 41.0906 82.4322 41.3666 82.5763 41.7285C82.722 42.0904 82.7948 42.5274 82.7948 43.0395C82.7948 43.5547 82.722 43.9948 82.5763 44.3597C82.4322 44.7231 82.2244 45.0007 81.953 45.1923C81.6831 45.384 81.3588 45.4798 80.9801 45.4798ZM80.9801 44.7599C81.2745 44.7599 81.5068 44.615 81.677 44.3252C81.8487 44.0339 81.9346 43.6053 81.9346 43.0395C81.9346 42.6654 81.8955 42.351 81.8173 42.0965C81.7391 41.842 81.6287 41.6503 81.4861 41.5215C81.3435 41.3912 81.1748 41.326 80.9801 41.326C80.6872 41.326 80.4557 41.4717 80.2855 41.763C80.1153 42.0528 80.0294 42.4783 80.0279 43.0395C80.0264 43.4152 80.0639 43.7311 80.1406 43.9871C80.2188 44.2432 80.3292 44.4364 80.4718 44.5667C80.6144 44.6955 80.7838 44.7599 80.9801 44.7599ZM85.3001 45.4798C84.9214 45.4798 84.5963 45.384 84.3249 45.1923C84.055 44.9991 83.8473 44.7208 83.7016 44.3574C83.5575 43.9925 83.4854 43.5532 83.4854 43.0395C83.4869 42.5258 83.5598 42.0888 83.7039 41.7285C83.8496 41.3666 84.0573 41.0906 84.3272 40.9005C84.5986 40.7104 84.9229 40.6153 85.3001 40.6153C85.6773 40.6153 86.0016 40.7104 86.273 40.9005C86.5444 41.0906 86.7522 41.3666 86.8963 41.7285C87.042 42.0904 87.1148 42.5274 87.1148 43.0395C87.1148 43.5547 87.042 43.9948 86.8963 44.3597C86.7522 44.7231 86.5444 45.0007 86.273 45.1923C86.0031 45.384 85.6788 45.4798 85.3001 45.4798ZM85.3001 44.7599C85.5945 44.7599 85.8268 44.615 85.997 44.3252C86.1688 44.0339 86.2546 43.6053 86.2546 43.0395C86.2546 42.6654 86.2155 42.351 86.1373 42.0965C86.0591 41.842 85.9487 41.6503 85.8061 41.5215C85.6635 41.3912 85.4948 41.326 85.3001 41.326C85.0072 41.326 84.7757 41.4717 84.6055 41.763C84.4353 42.0528 84.3494 42.4783 84.3479 43.0395C84.3464 43.4152 84.3839 43.7311 84.4606 43.9871C84.5388 44.2432 84.6492 44.4364 84.7918 44.5667C84.9344 44.6955 85.1038 44.7599 85.3001 44.7599ZM87.8882 45.3901V41.8573H88.684V42.4576H88.7254C88.799 42.2552 88.9209 42.0973 89.0911 41.9838C89.2613 41.8688 89.4645 41.8113 89.7006 41.8113C89.9398 41.8113 90.1415 41.8696 90.3055 41.9861C90.4711 42.1011 90.5877 42.2583 90.6551 42.4576H90.6919C90.7701 42.2613 90.902 42.1049 91.0875 41.9884C91.2746 41.8703 91.4962 41.8113 91.7522 41.8113C92.0773 41.8113 92.3426 41.914 92.548 42.1195C92.7535 42.325 92.8563 42.6247 92.8563 43.0188V45.3901H92.0213V43.1476C92.0213 42.9283 91.9631 42.7681 91.8465 42.6669C91.73 42.5642 91.5874 42.5128 91.4187 42.5128C91.2179 42.5128 91.0607 42.5757 90.9472 42.7014C90.8353 42.8256 90.7793 42.9874 90.7793 43.1867V45.3901H89.9628V43.1131C89.9628 42.9306 89.9076 42.785 89.7972 42.6761C89.6884 42.5672 89.5458 42.5128 89.3694 42.5128C89.2498 42.5128 89.141 42.5435 89.0428 42.6048C88.9447 42.6646 88.8665 42.7497 88.8082 42.8601C88.7499 42.969 88.7208 43.0962 88.7208 43.2419V45.3901H87.8882ZM94.5335 40.6797V45.3901H93.7009V40.6797H94.5335ZM96.3672 44.7461L96.3373 44.9991C96.3159 45.1923 96.2775 45.3886 96.2223 45.5879C96.1687 45.7888 96.1119 45.9736 96.0521 46.1422C95.9923 46.3109 95.944 46.4435 95.9072 46.5401H95.346C95.3675 46.4466 95.3966 46.3193 95.4334 46.1583C95.4718 45.9973 95.5086 45.8164 95.5438 45.6155C95.5791 45.4147 95.6029 45.2107 95.6151 45.0037L95.6312 44.7461H96.3672ZM100.389 45.4545C100.083 45.4545 99.8083 45.397 99.566 45.282C99.3237 45.1655 99.1313 45.006 98.9887 44.8036C98.8476 44.6012 98.7725 44.3697 98.7633 44.109H99.5913C99.6066 44.3022 99.6902 44.4602 99.842 44.5828C99.9938 44.704 100.176 44.7645 100.389 44.7645C100.557 44.7645 100.705 44.7262 100.836 44.6495C100.966 44.5729 101.069 44.4663 101.144 44.3298C101.219 44.1934 101.256 44.0377 101.254 43.8629C101.256 43.6851 101.218 43.5271 101.142 43.3891C101.065 43.2511 100.96 43.143 100.826 43.0648C100.693 42.9851 100.54 42.9452 100.366 42.9452C100.225 42.9437 100.087 42.9697 99.9501 43.0234C99.8136 43.0771 99.7055 43.1476 99.6258 43.235L98.8553 43.1085L99.1014 40.6797H101.834V41.3927H99.8075L99.6718 42.6416H99.6994C99.7868 42.5389 99.9102 42.4538 100.07 42.3863C100.229 42.3173 100.404 42.2828 100.594 42.2828C100.879 42.2828 101.134 42.3503 101.358 42.4852C101.582 42.6186 101.758 42.8026 101.887 43.0372C102.016 43.2718 102.08 43.5402 102.08 43.8422C102.08 44.1535 102.008 44.431 101.864 44.6748C101.721 44.9171 101.523 45.108 101.268 45.2475C101.015 45.3855 100.722 45.4545 100.389 45.4545ZM104.592 45.4798C104.213 45.4798 103.888 45.384 103.616 45.1923C103.346 44.9991 103.139 44.7208 102.993 44.3574C102.849 43.9925 102.777 43.5532 102.777 43.0395C102.778 42.5258 102.851 42.0888 102.995 41.7285C103.141 41.3666 103.349 41.0906 103.619 40.9005C103.89 40.7104 104.214 40.6153 104.592 40.6153C104.969 40.6153 105.293 40.7104 105.564 40.9005C105.836 41.0906 106.044 41.3666 106.188 41.7285C106.333 42.0904 106.406 42.5274 106.406 43.0395C106.406 43.5547 106.333 43.9948 106.188 44.3597C106.044 44.7231 105.836 45.0007 105.564 45.1923C105.295 45.384 104.97 45.4798 104.592 45.4798ZM104.592 44.7599C104.886 44.7599 105.118 44.615 105.288 44.3252C105.46 44.0339 105.546 43.6053 105.546 43.0395C105.546 42.6654 105.507 42.351 105.429 42.0965C105.351 41.842 105.24 41.6503 105.098 41.5215C104.955 41.3912 104.786 41.326 104.592 41.326C104.299 41.326 104.067 41.4717 103.897 41.763C103.727 42.0528 103.641 42.4783 103.639 43.0395C103.638 43.4152 103.675 43.7311 103.752 43.9871C103.83 44.2432 103.941 44.4364 104.083 44.5667C104.226 44.6955 104.395 44.7599 104.592 44.7599ZM108.912 45.4798C108.533 45.4798 108.208 45.384 107.936 45.1923C107.666 44.9991 107.459 44.7208 107.313 44.3574C107.169 43.9925 107.097 43.5532 107.097 43.0395C107.098 42.5258 107.171 42.0888 107.315 41.7285C107.461 41.3666 107.669 41.0906 107.939 40.9005C108.21 40.7104 108.534 40.6153 108.912 40.6153C109.289 40.6153 109.613 40.7104 109.884 40.9005C110.156 41.0906 110.364 41.3666 110.508 41.7285C110.653 42.0904 110.726 42.5274 110.726 43.0395C110.726 43.5547 110.653 43.9948 110.508 44.3597C110.364 44.7231 110.156 45.0007 109.884 45.1923C109.615 45.384 109.29 45.4798 108.912 45.4798ZM108.912 44.7599C109.206 44.7599 109.438 44.615 109.608 44.3252C109.78 44.0339 109.866 43.6053 109.866 43.0395C109.866 42.6654 109.827 42.351 109.749 42.0965C109.671 41.842 109.56 41.6503 109.418 41.5215C109.275 41.3912 109.106 41.326 108.912 41.326C108.619 41.326 108.387 41.4717 108.217 41.763C108.047 42.0528 107.961 42.4783 107.959 43.0395C107.958 43.4152 107.995 43.7311 108.072 43.9871C108.15 44.2432 108.261 44.4364 108.403 44.5667C108.546 44.6955 108.715 44.7599 108.912 44.7599ZM111.5 45.3901V41.8573H112.295V42.4576H112.337C112.41 42.2552 112.532 42.0973 112.703 41.9838C112.873 41.8688 113.076 41.8113 113.312 41.8113C113.551 41.8113 113.753 41.8696 113.917 41.9861C114.083 42.1011 114.199 42.2583 114.267 42.4576H114.303C114.382 42.2613 114.513 42.1049 114.699 41.9884C114.886 41.8703 115.108 41.8113 115.364 41.8113C115.689 41.8113 115.954 41.914 116.159 42.1195C116.365 42.325 116.468 42.6247 116.468 43.0188V45.3901H115.633V43.1476C115.633 42.9283 115.575 42.7681 115.458 42.6669C115.341 42.5642 115.199 42.5128 115.03 42.5128C114.829 42.5128 114.672 42.5757 114.559 42.7014C114.447 42.8256 114.391 42.9874 114.391 43.1867V45.3901H113.574V43.1131C113.574 42.9306 113.519 42.785 113.409 42.6761C113.3 42.5672 113.157 42.5128 112.981 42.5128C112.861 42.5128 112.752 42.5435 112.654 42.6048C112.556 42.6646 112.478 42.7497 112.42 42.8601C112.361 42.969 112.332 43.0962 112.332 43.2419V45.3901H111.5ZM118.145 40.6797V45.3901H117.312V40.6797H118.145ZM119.979 44.7461L119.949 44.9991C119.927 45.1923 119.889 45.3886 119.834 45.5879C119.78 45.7888 119.723 45.9736 119.664 46.1422C119.604 46.3109 119.555 46.4435 119.519 46.5401H118.957C118.979 46.4466 119.008 46.3193 119.045 46.1583C119.083 45.9973 119.12 45.8164 119.155 45.6155C119.191 45.4147 119.214 45.2107 119.227 45.0037L119.243 44.7461H119.979ZM75.1927 56.3901L77.196 52.4249V52.3927H74.8707V51.6797H78.0792V52.4088L76.0782 56.3901H75.1927ZM80.3959 56.4545C80.0892 56.4545 79.8148 56.397 79.5725 56.282C79.3302 56.1655 79.1378 56.006 78.9952 55.8036C78.8541 55.6012 78.779 55.3697 78.7698 55.109H79.5978C79.6131 55.3022 79.6967 55.4602 79.8485 55.5828C80.0003 55.704 80.1828 55.7645 80.3959 55.7645C80.563 55.7645 80.7118 55.7262 80.8421 55.6495C80.9724 55.5729 81.0752 55.4663 81.1503 55.3298C81.2254 55.1934 81.2622 55.0377 81.2607 54.8629C81.2622 54.6851 81.2247 54.5271 81.148 54.3891C81.0713 54.2511 80.9663 54.143 80.8329 54.0648C80.6995 53.9851 80.5462 53.9452 80.3729 53.9452C80.2318 53.9437 80.0931 53.9697 79.9566 54.0234C79.8201 54.0771 79.712 54.1476 79.6323 54.235L78.8618 54.1085L79.1079 51.6797H81.8403V52.3927H79.814L79.6783 53.6416H79.7059C79.7933 53.5389 79.9167 53.4538 80.0762 53.3863C80.2357 53.3173 80.4105 53.2828 80.6006 53.2828C80.8858 53.2828 81.1403 53.3503 81.3642 53.4852C81.5881 53.6186 81.7644 53.8026 81.8932 54.0372C82.022 54.2718 82.0864 54.5402 82.0864 54.8422C82.0864 55.1535 82.0143 55.431 81.8702 55.6748C81.7276 55.9171 81.529 56.108 81.2745 56.2475C81.0215 56.3855 80.7286 56.4545 80.3959 56.4545ZM84.598 56.4798C84.2193 56.4798 83.8942 56.384 83.6228 56.1923C83.3529 55.9991 83.1452 55.7208 82.9995 55.3574C82.8554 54.9925 82.7833 54.5532 82.7833 54.0395C82.7848 53.5258 82.8577 53.0888 83.0018 52.7285C83.1475 52.3666 83.3552 52.0906 83.6251 51.9005C83.8965 51.7104 84.2208 51.6153 84.598 51.6153C84.9752 51.6153 85.2995 51.7104 85.5709 51.9005C85.8423 52.0906 86.0501 52.3666 86.1942 52.7285C86.3399 53.0904 86.4127 53.5274 86.4127 54.0395C86.4127 54.5547 86.3399 54.9948 86.1942 55.3597C86.0501 55.7231 85.8423 56.0007 85.5709 56.1923C85.3011 56.384 84.9768 56.4798 84.598 56.4798ZM84.598 55.7599C84.8924 55.7599 85.1247 55.615 85.2949 55.3252C85.4667 55.0339 85.5525 54.6053 85.5525 54.0395C85.5525 53.6654 85.5134 53.351 85.4352 53.0965C85.357 52.842 85.2466 52.6503 85.104 52.5215C84.9614 52.3912 84.7928 52.326 84.598 52.326C84.3052 52.326 84.0736 52.4717 83.9034 52.763C83.7332 53.0528 83.6474 53.4783 83.6458 54.0395C83.6443 54.4152 83.6819 54.7311 83.7585 54.9871C83.8367 55.2432 83.9471 55.4364 84.0897 55.5667C84.2323 55.6955 84.4018 55.7599 84.598 55.7599ZM87.1861 56.3901V52.8573H87.9819V53.4576H88.0233C88.0969 53.2552 88.2188 53.0973 88.389 52.9838C88.5592 52.8688 88.7624 52.8113 88.9985 52.8113C89.2377 52.8113 89.4394 52.8696 89.6034 52.9861C89.769 53.1011 89.8856 53.2583 89.9531 53.4576H89.9899C90.0681 53.2613 90.1999 53.1049 90.3855 52.9884C90.5725 52.8703 90.7941 52.8113 91.0502 52.8113C91.3752 52.8113 91.6405 52.914 91.846 53.1195C92.0514 53.325 92.1542 53.6247 92.1542 54.0188V56.3901H91.3193V54.1476C91.3193 53.9283 91.261 53.7681 91.1445 53.6669C91.0279 53.5642 90.8853 53.5128 90.7167 53.5128C90.5158 53.5128 90.3586 53.5757 90.2452 53.7014C90.1332 53.8256 90.0773 53.9874 90.0773 54.1867V56.3901H89.2607V54.1131C89.2607 53.9306 89.2055 53.785 89.0951 53.6761C88.9863 53.5672 88.8437 53.5128 88.6673 53.5128C88.5477 53.5128 88.4389 53.5435 88.3407 53.6048C88.2426 53.6646 88.1644 53.7497 88.1061 53.8601C88.0479 53.969 88.0187 54.0962 88.0187 54.2419V56.3901H87.1861ZM93.8315 51.6797V56.3901H92.9989V51.6797H93.8315ZM98.0583 52.8573V53.5013H96.0274V52.8573H98.0583ZM96.5288 52.0109H97.3614V55.3275C97.3614 55.4395 97.3783 55.5253 97.412 55.5851C97.4473 55.6434 97.4933 55.6833 97.55 55.7047C97.6068 55.7262 97.6696 55.7369 97.7386 55.7369C97.7908 55.7369 97.8383 55.7331 97.8812 55.7254C97.9257 55.7178 97.9594 55.7109 97.9824 55.7047L98.1227 56.3556C98.0783 56.371 98.0146 56.3878 97.9318 56.4062C97.8506 56.4246 97.7509 56.4354 97.6328 56.4384C97.4243 56.4446 97.2364 56.4131 97.0693 56.3441C96.9022 56.2736 96.7695 56.1647 96.6714 56.0175C96.5748 55.8703 96.5273 55.6863 96.5288 55.4655V52.0109ZM99.7713 56.4614C99.5474 56.4614 99.3458 56.4216 99.1664 56.3418C98.9885 56.2606 98.8474 56.141 98.7432 55.983C98.6404 55.8251 98.5891 55.6304 98.5891 55.3988C98.5891 55.1995 98.6259 55.0347 98.6995 54.9043C98.7731 54.774 98.8735 54.6697 99.0008 54.5915C99.128 54.5133 99.2714 54.4543 99.4309 54.4144C99.5919 54.373 99.7582 54.3431 99.93 54.3247C100.137 54.3033 100.305 54.2841 100.434 54.2672C100.562 54.2488 100.656 54.2212 100.714 54.1844C100.774 54.1461 100.804 54.087 100.804 54.0073V53.9935C100.804 53.8202 100.753 53.6861 100.65 53.591C100.547 53.4959 100.399 53.4484 100.206 53.4484C100.002 53.4484 99.8403 53.4929 99.7207 53.5818C99.6026 53.6707 99.5229 53.7758 99.4815 53.8969L98.7041 53.7865C98.7654 53.5718 98.8666 53.3924 99.0077 53.2483C99.1487 53.1026 99.3212 52.9938 99.5252 52.9217C99.7291 52.8481 99.9545 52.8113 100.201 52.8113C100.372 52.8113 100.541 52.8312 100.71 52.8711C100.878 52.911 101.032 52.9769 101.172 53.0689C101.312 53.1594 101.423 53.2828 101.508 53.4392C101.594 53.5956 101.637 53.7911 101.637 54.0257V56.3901H100.836V55.9048H100.809C100.758 56.003 100.687 56.095 100.595 56.1808C100.504 56.2652 100.39 56.3334 100.252 56.3855C100.116 56.4361 99.9553 56.4614 99.7713 56.4614ZM99.9875 55.8496C100.155 55.8496 100.3 55.8167 100.422 55.7507C100.545 55.6833 100.639 55.5943 100.705 55.4839C100.773 55.3735 100.806 55.2532 100.806 55.1228V54.7065C100.78 54.728 100.736 54.7479 100.673 54.7663C100.612 54.7847 100.543 54.8008 100.466 54.8146C100.389 54.8284 100.313 54.8407 100.238 54.8514C100.163 54.8622 100.098 54.8714 100.043 54.879C99.9185 54.8959 99.8073 54.9235 99.7092 54.9618C99.611 55.0002 99.5336 55.0538 99.4769 55.1228C99.4201 55.1903 99.3918 55.2777 99.3918 55.385C99.3918 55.5384 99.4477 55.6541 99.5597 55.7323C99.6716 55.8105 99.8142 55.8496 99.9875 55.8496ZM103.306 51.6797V56.3901H102.474V51.6797H103.306ZM104.995 51.6797V56.3901H104.163V51.6797H104.995ZM106.829 55.7461L106.799 55.9991C106.778 56.1923 106.739 56.3886 106.684 56.5879C106.63 56.7888 106.574 56.9736 106.514 57.1422C106.454 57.3109 106.406 57.4435 106.369 57.5401H105.808C105.829 57.4466 105.858 57.3193 105.895 57.1583C105.933 56.9973 105.97 56.8164 106.005 56.6155C106.041 56.4147 106.065 56.2107 106.077 56.0037L106.093 55.7461H106.829ZM111.129 51.6797V56.3901H110.276V52.51H110.248L109.147 53.2138V52.4318L110.317 51.6797H111.129ZM114.066 56.4798C113.688 56.4798 113.363 56.384 113.091 56.1923C112.821 55.9991 112.614 55.7208 112.468 55.3574C112.324 54.9925 112.252 54.5532 112.252 54.0395C112.253 53.5258 112.326 53.0888 112.47 52.7285C112.616 52.3666 112.824 52.0906 113.094 51.9005C113.365 51.7104 113.689 51.6153 114.066 51.6153C114.444 51.6153 114.768 51.7104 115.039 51.9005C115.311 52.0906 115.519 52.3666 115.663 52.7285C115.808 53.0904 115.881 53.5274 115.881 54.0395C115.881 54.5547 115.808 54.9948 115.663 55.3597C115.519 55.7231 115.311 56.0007 115.039 56.1923C114.77 56.384 114.445 56.4798 114.066 56.4798ZM114.066 55.7599C114.361 55.7599 114.593 55.615 114.763 55.3252C114.935 55.0339 115.021 54.6053 115.021 54.0395C115.021 53.6654 114.982 53.351 114.904 53.0965C114.825 52.842 114.715 52.6503 114.572 52.5215C114.43 52.3912 114.261 52.326 114.066 52.326C113.774 52.326 113.542 52.4717 113.372 52.763C113.202 53.0528 113.116 53.4783 113.114 54.0395C113.113 54.4152 113.15 54.7311 113.227 54.9871C113.305 55.2432 113.416 55.4364 113.558 55.5667C113.701 55.6955 113.87 55.7599 114.066 55.7599ZM118.386 56.4798C118.008 56.4798 117.683 56.384 117.411 56.1923C117.141 55.9991 116.934 55.7208 116.788 55.3574C116.644 54.9925 116.572 54.5532 116.572 54.0395C116.573 53.5258 116.646 53.0888 116.79 52.7285C116.936 52.3666 117.144 52.0906 117.414 51.9005C117.685 51.7104 118.009 51.6153 118.386 51.6153C118.764 51.6153 119.088 51.7104 119.359 51.9005C119.631 52.0906 119.839 52.3666 119.983 52.7285C120.128 53.0904 120.201 53.5274 120.201 54.0395C120.201 54.5547 120.128 54.9948 119.983 55.3597C119.839 55.7231 119.631 56.0007 119.359 56.1923C119.09 56.384 118.765 56.4798 118.386 56.4798ZM118.386 55.7599C118.681 55.7599 118.913 55.615 119.083 55.3252C119.255 55.0339 119.341 54.6053 119.341 54.0395C119.341 53.6654 119.302 53.351 119.224 53.0965C119.145 52.842 119.035 52.6503 118.892 52.5215C118.75 52.3912 118.581 52.326 118.386 52.326C118.094 52.326 117.862 52.4717 117.692 52.763C117.522 53.0528 117.436 53.4783 117.434 54.0395C117.433 54.4152 117.47 54.7311 117.547 54.9871C117.625 55.2432 117.736 55.4364 117.878 55.5667C118.021 55.6955 118.19 55.7599 118.386 55.7599ZM122.706 56.4798C122.328 56.4798 122.003 56.384 121.731 56.1923C121.461 55.9991 121.254 55.7208 121.108 55.3574C120.964 54.9925 120.892 54.5532 120.892 54.0395C120.893 53.5258 120.966 53.0888 121.11 52.7285C121.256 52.3666 121.464 52.0906 121.734 51.9005C122.005 51.7104 122.329 51.6153 122.706 51.6153C123.084 51.6153 123.408 51.7104 123.679 51.9005C123.951 52.0906 124.159 52.3666 124.303 52.7285C124.448 53.0904 124.521 53.5274 124.521 54.0395C124.521 54.5547 124.448 54.9948 124.303 55.3597C124.159 55.7231 123.951 56.0007 123.679 56.1923C123.41 56.384 123.085 56.4798 122.706 56.4798ZM122.706 55.7599C123.001 55.7599 123.233 55.615 123.403 55.3252C123.575 55.0339 123.661 54.6053 123.661 54.0395C123.661 53.6654 123.622 53.351 123.544 53.0965C123.466 52.842 123.355 52.6503 123.212 52.5215C123.07 52.3912 122.901 52.326 122.706 52.326C122.414 52.326 122.182 52.4717 122.012 52.763C121.842 53.0528 121.756 53.4783 121.754 54.0395C121.753 54.4152 121.79 54.7311 121.867 54.9871C121.945 55.2432 122.056 55.4364 122.198 55.5667C122.341 55.6955 122.51 55.7599 122.706 55.7599ZM125.295 56.3901V52.8573H126.09V53.4576H126.132C126.205 53.2552 126.327 53.0973 126.498 52.9838C126.668 52.8688 126.871 52.8113 127.107 52.8113C127.346 52.8113 127.548 52.8696 127.712 52.9861C127.878 53.1011 127.994 53.2583 128.062 53.4576H128.098C128.177 53.2613 128.308 53.1049 128.494 52.9884C128.681 52.8703 128.903 52.8113 129.159 52.8113C129.484 52.8113 129.749 52.914 129.954 53.1195C130.16 53.325 130.263 53.6247 130.263 54.0188V56.3901H129.428V54.1476C129.428 53.9283 129.369 53.7681 129.253 53.6669C129.136 53.5642 128.994 53.5128 128.825 53.5128C128.624 53.5128 128.467 53.5757 128.354 53.7014C128.242 53.8256 128.186 53.9874 128.186 54.1867V56.3901H127.369V54.1131C127.369 53.9306 127.314 53.785 127.204 53.6761C127.095 53.5672 126.952 53.5128 126.776 53.5128C126.656 53.5128 126.547 53.5435 126.449 53.6048C126.351 53.6646 126.273 53.7497 126.215 53.8601C126.156 53.969 126.127 54.0962 126.127 54.2419V56.3901H125.295ZM131.94 51.6797V56.3901H131.107V51.6797H131.94Z" fill="#878C90"/>
<path d="M212.356 40.3163V39.7139H214.902V40.3163H212.356ZM216.066 40.3163V39.7139H218.611V40.3163H216.066ZM219.776 40.3163V39.7139H222.321V40.3163H219.776ZM223.485 40.3163V39.7139H226.031V40.3163H223.485ZM227.195 40.3163V39.7139H229.74V40.3163H227.195ZM230.905 40.3163V39.7139H233.45V40.3163H230.905ZM234.614 40.3163V39.7139H237.16V40.3163H234.614ZM238.324 40.3163V39.7139H240.869V40.3163H238.324ZM242.034 40.3163V39.7139H244.579V40.3163H242.034ZM245.743 40.3163V39.7139H248.289V40.3163H245.743ZM249.453 40.3163V39.7139H251.998V40.3163H249.453ZM253.162 40.3163V39.7139H255.708V40.3163H253.162ZM256.872 40.3163V39.7139H259.418V40.3163H256.872ZM260.582 40.3163V39.7139H263.127V40.3163H260.582ZM264.291 40.3163V39.7139H266.837V40.3163H264.291ZM268.001 40.3163V39.7139H270.546V40.3163H268.001ZM271.711 40.3163V39.7139H274.256V40.3163H271.711ZM275.42 40.3163V39.7139H277.966V40.3163H275.42ZM279.13 40.3163V39.7139H281.675V40.3163H279.13ZM282.84 40.3163V39.7139H285.385V40.3163H282.84ZM286.549 40.3163V39.7139H289.095V40.3163H286.549ZM290.259 40.3163V39.7139H292.804V40.3163H290.259ZM293.969 40.3163V39.7139H296.514V40.3163H293.969ZM297.678 40.3163V39.7139H300.224V40.3163H297.678ZM301.388 40.3163V39.7139H303.933V40.3163H301.388ZM305.097 40.3163V39.7139H307.643V40.3163H305.097ZM308.807 40.3163V39.7139H311.353V40.3163H308.807ZM312.517 40.3163V39.7139H315.062V40.3163H312.517ZM316.226 40.3163V39.7139H318.772V40.3163H316.226ZM319.936 40.3163V39.7139H322.481V40.3163H319.936ZM323.646 40.3163V39.7139H326.191V40.3163H323.646ZM327.355 40.3163V39.7139H329.901V40.3163H327.355ZM331.065 40.3163V39.7139H333.61V40.3163H331.065ZM334.775 40.3163V39.7139H337.32V40.3163H334.775Z" fill="#8F8E8E"/>
<rect x="337.667" y="21.0996" width="50.1956" height="37.2419" rx="5.26245" fill="#F1F3F2" stroke="#ADB4B7" stroke-width="0.809607"/>
<path d="M354.197 39.3257C354.197 37.6546 354.517 36.3382 355.159 35.3764C355.81 34.4146 356.854 33.9337 358.292 33.9337C359.73 33.9337 360.769 34.4146 361.41 35.3764C362.061 36.3382 362.387 37.6546 362.387 39.3257C362.387 41.0161 362.061 42.3423 361.41 43.3041C360.769 44.2659 359.73 44.7468 358.292 44.7468C356.854 44.7468 355.81 44.2659 355.159 43.3041C354.517 42.3423 354.197 41.0161 354.197 39.3257ZM359.939 39.3257C359.939 38.3444 359.832 37.5915 359.618 37.0669C359.404 36.5325 358.962 36.2654 358.292 36.2654C357.621 36.2654 357.179 36.5325 356.966 37.0669C356.752 37.5915 356.645 38.3444 356.645 39.3257C356.645 39.9863 356.684 40.5352 356.762 40.9724C356.839 41.3999 356.995 41.7496 357.228 42.0217C357.471 42.284 357.826 42.4151 358.292 42.4151C358.758 42.4151 359.108 42.284 359.341 42.0217C359.584 41.7496 359.744 41.3999 359.822 40.9724C359.9 40.5352 359.939 39.9863 359.939 39.3257ZM363.616 42.794C363.946 42.5317 364.097 42.4103 364.068 42.4297C365.02 41.6428 365.768 40.9967 366.312 40.4915C366.866 39.9863 367.332 39.4568 367.711 38.9031C368.09 38.3493 368.279 37.8101 368.279 37.2855C368.279 36.8871 368.187 36.5763 368.002 36.3528C367.818 36.1293 367.541 36.0176 367.172 36.0176C366.803 36.0176 366.511 36.1585 366.297 36.4402C366.093 36.7123 365.991 37.1009 365.991 37.6061H363.587C363.606 36.7803 363.781 36.0905 364.111 35.5367C364.451 34.9829 364.894 34.5749 365.438 34.3126C365.991 34.0503 366.603 33.9191 367.274 33.9191C368.43 33.9191 369.299 34.2154 369.882 34.8081C370.475 35.4007 370.771 36.1731 370.771 37.1252C370.771 38.1647 370.417 39.1314 369.707 40.0252C368.998 40.9093 368.095 41.7739 366.997 42.6192H370.932V44.6448H363.616V42.794Z" fill="#36404B"/>
<defs>
<filter id="filter0_d_1104_82" x="0.000161171" y="-0.000179291" width="419.203" height="85.1745" filterUnits="userSpaceOnUse" color-interpolation-filters="sRGB">
<feFlood flood-opacity="0" result="BackgroundImageFix"/>
<feColorMatrix in="SourceAlpha" type="matrix" values="0 0 0 0 0 0 0 0 0 0 0 0 0 0 0 0 0 0 127 0" result="hardAlpha"/>
<feOffset dy="3.23843"/>
<feGaussianBlur stdDeviation="6.8007"/>
<feComposite in2="hardAlpha" operator="out"/>
<feColorMatrix type="matrix" values="0 0 0 0 0 0 0 0 0 0 0 0 0 0 0 0 0 0 0.17 0"/>
<feBlend mode="normal" in2="BackgroundImageFix" result="effect1_dropShadow_1104_82"/>
<feBlend mode="normal" in="SourceGraphic" in2="effect1_dropShadow_1104_82" result="shape"/>
</filter>
</defs>
</svg>
