<svg width="420" height="86" viewBox="0 0 420 86" fill="none" xmlns="http://www.w3.org/2000/svg">
<g filter="url(#filter0_d_1104_72)">
<rect x="13.6016" y="10.3628" width="392" height="57.9718" rx="10.5249" fill="#FEFFFE"/>
</g>
<circle cx="43.3389" cy="38.0786" r="21.0498" fill="#D9F2EE"/>
<circle cx="43.5575" cy="38.0785" r="17.8114" fill="#0C2461"/>
<path d="M40.281 45.2025C39.5718 45.2025 38.9791 45.0616 38.5031 44.7799C38.027 44.4884 37.6676 44.0901 37.4247 43.5849C37.1818 43.0797 37.0604 42.4919 37.0604 41.8216V36.4733C37.0604 35.7835 37.1721 35.1812 37.3956 34.6663C37.6287 34.1416 37.9833 33.7336 38.4594 33.4421C38.9354 33.1507 39.5426 33.0049 40.281 33.0049C41.0194 33.0049 41.6217 33.1507 42.088 33.4421C42.5641 33.7336 42.9138 34.1416 43.1373 34.6663C43.3705 35.1812 43.487 35.7835 43.487 36.4733V41.8216C43.487 42.4822 43.3656 43.07 43.1227 43.5849C42.8798 44.0901 42.5204 44.4884 42.0443 44.7799C41.5683 45.0616 40.9805 45.2025 40.281 45.2025ZM40.281 43.0311C40.5142 43.0311 40.6793 42.9582 40.7765 42.8125C40.8833 42.6571 40.9465 42.4822 40.9659 42.2879C40.9951 42.0839 41.0096 41.909 41.0096 41.7633V36.5316C41.0096 36.3664 40.9999 36.1818 40.9805 35.9778C40.9611 35.7641 40.8979 35.5795 40.791 35.424C40.6939 35.2589 40.5239 35.1763 40.281 35.1763C40.0381 35.1763 39.8632 35.2589 39.7564 35.424C39.6592 35.5795 39.6009 35.7641 39.5815 35.9778C39.5621 36.1818 39.5523 36.3664 39.5523 36.5316V41.7633C39.5523 41.909 39.5669 42.0839 39.5961 42.2879C39.6252 42.4822 39.6884 42.6571 39.7855 42.8125C39.8924 42.9582 40.0575 43.0311 40.281 43.0311ZM46.5154 44.9839V35.5843C46.4085 35.6426 46.2871 35.7009 46.151 35.7592C46.015 35.8175 45.8693 35.8807 45.7139 35.9487C45.5681 36.007 45.4224 36.0653 45.2767 36.1235C45.1406 36.1818 45.0144 36.2401 44.8978 36.2984V34.4914C45.0046 34.4331 45.1552 34.3554 45.3495 34.2582C45.5438 34.1513 45.7527 34.0348 45.9762 33.9085C46.1996 33.7822 46.4085 33.6559 46.6028 33.5296C46.7971 33.3935 46.9428 33.277 47.04 33.1798H48.949V44.9839H46.5154Z" fill="#FEFFFE"/>
<path d="M75.293 31.5073V22.3264H77.4919C78.1115 22.3264 78.6329 22.4019 79.056 22.5531C79.4867 22.6966 79.8117 22.946 80.0308 23.3011C80.2575 23.6563 80.3708 24.1399 80.3708 24.752C80.3708 25.1222 80.3368 25.4547 80.2688 25.7494C80.2008 26.0441 80.0837 26.2972 79.9174 26.5088C79.7588 26.7128 79.5358 26.8715 79.2487 26.9849L80.5295 31.5073H78.852L77.7412 27.3022H76.9705V31.5073H75.293ZM76.9705 26.2481H77.4919C77.8168 26.2481 78.0737 26.2028 78.2626 26.1121C78.4591 26.0139 78.5989 25.8627 78.682 25.6587C78.7651 25.4471 78.8067 25.1789 78.8067 24.854C78.8067 24.393 78.7198 24.0492 78.546 23.8225C78.3797 23.5883 78.0586 23.4712 77.5825 23.4712H76.9705V26.2481ZM84.0737 31.632C83.4238 31.632 82.9062 31.5111 82.5208 31.2693C82.1355 31.0275 81.8597 30.6799 81.6934 30.2265C81.5272 29.7731 81.4441 29.2366 81.4441 28.617V25.1827C81.4441 24.5631 81.5272 24.0341 81.6934 23.5958C81.8597 23.15 82.1355 22.81 82.5208 22.5757C82.9062 22.3415 83.4238 22.2244 84.0737 22.2244C84.7386 22.2244 85.26 22.3415 85.6378 22.5757C86.0232 22.81 86.299 23.15 86.4652 23.5958C86.639 24.0341 86.7259 24.5631 86.7259 25.1827V28.6284C86.7259 29.2404 86.639 29.7731 86.4652 30.2265C86.299 30.6723 86.0232 31.0199 85.6378 31.2693C85.26 31.5111 84.7386 31.632 84.0737 31.632ZM84.0737 30.3965C84.3532 30.3965 84.5573 30.3361 84.6857 30.2152C84.8217 30.0943 84.9124 29.9281 84.9578 29.7165C85.0031 29.5049 85.0258 29.2744 85.0258 29.0251V24.7973C85.0258 24.5404 85.0031 24.3099 84.9578 24.1059C84.9124 23.9019 84.8217 23.7432 84.6857 23.6298C84.5573 23.5089 84.3532 23.4485 84.0737 23.4485C83.8092 23.4485 83.6089 23.5089 83.4729 23.6298C83.3369 23.7432 83.2462 23.9019 83.2009 24.1059C83.1556 24.3099 83.1329 24.5404 83.1329 24.7973V29.0251C83.1329 29.2744 83.1518 29.5049 83.1896 29.7165C83.2349 29.9281 83.3256 30.0943 83.4616 30.2152C83.5976 30.3361 83.8016 30.3965 84.0737 30.3965ZM90.4831 31.632C89.803 31.632 89.274 31.5073 88.8962 31.258C88.5184 31.0086 88.2577 30.6535 88.1141 30.1925C87.9706 29.7316 87.8988 29.18 87.8988 28.5377V22.3264H89.531V28.7304C89.531 29.0175 89.5499 29.2895 89.5876 29.5465C89.6254 29.7958 89.7123 29.9998 89.8483 30.1585C89.9919 30.3096 90.2035 30.3852 90.4831 30.3852C90.7778 30.3852 90.9893 30.3096 91.1178 30.1585C91.2538 29.9998 91.3407 29.7958 91.3785 29.5465C91.4238 29.2895 91.4465 29.0175 91.4465 28.7304V22.3264H93.0673V28.5377C93.0673 29.18 92.9955 29.7316 92.852 30.1925C92.7084 30.6535 92.4477 31.0086 92.0699 31.258C91.6996 31.5073 91.1707 31.632 90.4831 31.632ZM94.3867 31.5073V22.3264H95.5542L97.7871 27.5629V22.3264H99.1699V31.5073H98.0591L95.8149 26.0214V31.5073H94.3867ZM100.563 31.5073V22.3264H102.728C103.476 22.3264 104.058 22.4284 104.474 22.6324C104.897 22.8364 105.195 23.15 105.369 23.5732C105.55 23.9963 105.641 24.5328 105.641 25.1827V28.5377C105.641 29.2026 105.55 29.758 105.369 30.2039C105.195 30.6421 104.9 30.9708 104.485 31.19C104.077 31.4015 103.514 31.5073 102.796 31.5073H100.563ZM102.241 30.3399H102.751C103.136 30.3399 103.412 30.2719 103.578 30.1358C103.744 29.9998 103.846 29.8034 103.884 29.5465C103.922 29.282 103.941 28.9608 103.941 28.583V25.0693C103.941 24.6991 103.914 24.4006 103.861 24.1739C103.809 23.9472 103.699 23.781 103.533 23.6752C103.367 23.5694 103.098 23.5165 102.728 23.5165H102.241V30.3399ZM112.099 31.632C111.427 31.632 110.898 31.4998 110.513 31.2353C110.135 30.9708 109.87 30.6119 109.719 30.1585C109.568 29.6976 109.493 29.1686 109.493 28.5717V25.296C109.493 24.6688 109.568 24.1248 109.719 23.6638C109.87 23.2029 110.135 22.8478 110.513 22.5984C110.898 22.349 111.427 22.2244 112.099 22.2244C112.734 22.2244 113.229 22.3339 113.584 22.5531C113.947 22.7646 114.204 23.0707 114.355 23.4712C114.506 23.8716 114.582 24.3364 114.582 24.8653V25.6361H112.972V24.8426C112.972 24.5857 112.957 24.3515 112.927 24.1399C112.904 23.9283 112.832 23.7621 112.712 23.6412C112.598 23.5127 112.398 23.4485 112.111 23.4485C111.824 23.4485 111.612 23.5165 111.476 23.6525C111.348 23.781 111.264 23.9585 111.227 24.1852C111.189 24.4044 111.17 24.6537 111.17 24.9333V28.9231C111.17 29.2555 111.196 29.5313 111.249 29.7505C111.302 29.9621 111.397 30.1245 111.533 30.2379C111.676 30.3436 111.869 30.3965 112.111 30.3965C112.39 30.3965 112.587 30.3323 112.7 30.2039C112.821 30.0678 112.897 29.8903 112.927 29.6711C112.957 29.452 112.972 29.2064 112.972 28.9344V28.107H114.582V28.8437C114.582 29.3878 114.51 29.8714 114.366 30.2945C114.223 30.7101 113.97 31.0388 113.607 31.2806C113.252 31.5149 112.749 31.632 112.099 31.632ZM118.243 31.632C117.593 31.632 117.076 31.5111 116.69 31.2693C116.305 31.0275 116.029 30.6799 115.863 30.2265C115.697 29.7731 115.614 29.2366 115.614 28.617V25.1827C115.614 24.5631 115.697 24.0341 115.863 23.5958C116.029 23.15 116.305 22.81 116.69 22.5757C117.076 22.3415 117.593 22.2244 118.243 22.2244C118.908 22.2244 119.43 22.3415 119.807 22.5757C120.193 22.81 120.469 23.15 120.635 23.5958C120.809 24.0341 120.895 24.5631 120.895 25.1827V28.6284C120.895 29.2404 120.809 29.7731 120.635 30.2265C120.469 30.6723 120.193 31.0199 119.807 31.2693C119.43 31.5111 118.908 31.632 118.243 31.632ZM118.243 30.3965C118.523 30.3965 118.727 30.3361 118.855 30.2152C118.991 30.0943 119.082 29.9281 119.127 29.7165C119.173 29.5049 119.195 29.2744 119.195 29.0251V24.7973C119.195 24.5404 119.173 24.3099 119.127 24.1059C119.082 23.9019 118.991 23.7432 118.855 23.6298C118.727 23.5089 118.523 23.4485 118.243 23.4485C117.979 23.4485 117.778 23.5089 117.642 23.6298C117.506 23.7432 117.416 23.9019 117.37 24.1059C117.325 24.3099 117.302 24.5404 117.302 24.7973V29.0251C117.302 29.2744 117.321 29.5049 117.359 29.7165C117.404 29.9281 117.495 30.0943 117.631 30.2152C117.767 30.3361 117.971 30.3965 118.243 30.3965ZM122.136 31.5073V22.3264H123.304L125.537 27.5629V22.3264H126.919V31.5073H125.809L123.564 26.0214V31.5073H122.136ZM129.231 31.5073V23.5618H127.769V22.3264H132.348V23.5618H130.908V31.5073H129.231ZM132.231 31.5073L134.067 22.3264H135.858L137.695 31.5073H136.142L135.779 29.3878H134.181L133.807 31.5073H132.231ZM134.351 28.3223H135.598L134.974 24.4686L134.351 28.3223ZM138.663 31.5073V22.3264H140.318V31.5073H138.663ZM141.739 31.5073V22.3264H142.907L145.14 27.5629V22.3264H146.522V31.5073H145.412L143.167 26.0214V31.5073H141.739ZM147.916 31.5073V22.3264H151.769V23.5052H149.593V26.1461H151.305V27.3136H149.593V30.3512H151.792V31.5073H147.916ZM152.764 31.5073V22.3264H154.963C155.582 22.3264 156.104 22.4019 156.527 22.5531C156.958 22.6966 157.283 22.946 157.502 23.3011C157.728 23.6563 157.842 24.1399 157.842 24.752C157.842 25.1222 157.808 25.4547 157.74 25.7494C157.672 26.0441 157.555 26.2972 157.388 26.5088C157.23 26.7128 157.007 26.8715 156.72 26.9849L158 31.5073H156.323L155.212 27.3022H154.441V31.5073H152.764ZM154.441 26.2481H154.963C155.288 26.2481 155.545 26.2028 155.733 26.1121C155.93 26.0139 156.07 25.8627 156.153 25.6587C156.236 25.4471 156.278 25.1789 156.278 24.854C156.278 24.393 156.191 24.0492 156.017 23.8225C155.851 23.5883 155.529 23.4712 155.053 23.4712H154.441V26.2481ZM161.396 31.632C160.845 31.632 160.384 31.5262 160.014 31.3146C159.643 31.0955 159.364 30.7781 159.175 30.3625C158.986 29.9469 158.88 29.4369 158.857 28.8324L160.297 28.549C160.312 28.9042 160.354 29.2178 160.422 29.4898C160.497 29.7618 160.607 29.9734 160.75 30.1245C160.901 30.2681 161.098 30.3399 161.34 30.3399C161.612 30.3399 161.804 30.2605 161.918 30.1018C162.031 29.9356 162.088 29.7278 162.088 29.4784C162.088 29.078 161.997 28.7493 161.816 28.4923C161.634 28.2354 161.393 27.9785 161.09 27.7216L159.934 26.7015C159.609 26.4219 159.349 26.1121 159.152 25.7721C158.963 25.4245 158.869 24.9975 158.869 24.4913C158.869 23.7659 159.08 23.2067 159.504 22.8138C159.927 22.4208 160.505 22.2244 161.238 22.2244C161.668 22.2244 162.027 22.2924 162.314 22.4284C162.602 22.5568 162.828 22.7382 162.995 22.9724C163.168 23.2067 163.297 23.4749 163.38 23.7772C163.463 24.0719 163.516 24.3855 163.539 24.718L162.11 24.9673C162.095 24.6802 162.061 24.4233 162.008 24.1966C161.963 23.9699 161.876 23.7923 161.748 23.6638C161.627 23.5354 161.446 23.4712 161.204 23.4712C160.954 23.4712 160.762 23.5543 160.626 23.7205C160.497 23.8792 160.433 24.0794 160.433 24.3213C160.433 24.6311 160.497 24.888 160.626 25.092C160.754 25.2885 160.939 25.4925 161.181 25.7041L162.326 26.7128C162.704 27.0302 163.025 27.4042 163.289 27.8349C163.561 28.2581 163.697 28.7719 163.697 29.3764C163.697 29.8147 163.599 30.2039 163.403 30.5439C163.214 30.8839 162.945 31.1522 162.598 31.3486C162.258 31.5375 161.857 31.632 161.396 31.632Z" fill="#0C2461"/>
<path d="M75.0202 43.3628V42.7464L76.6555 41.1433C76.8119 40.9853 76.9422 40.845 77.0465 40.7224C77.1508 40.5997 77.229 40.4809 77.2811 40.3659C77.3332 40.2509 77.3593 40.1282 77.3593 39.9979C77.3593 39.8491 77.3256 39.7219 77.2581 39.6161C77.1906 39.5087 77.0979 39.4259 76.9798 39.3677C76.8617 39.3094 76.7275 39.2803 76.5773 39.2803C76.4224 39.2803 76.2867 39.3125 76.1702 39.3769C76.0536 39.4397 75.9632 39.5294 75.8988 39.646C75.8359 39.7625 75.8045 39.9013 75.8045 40.0623H74.9926C74.9926 39.7633 75.0608 39.5034 75.1973 39.2826C75.3337 39.0618 75.5216 38.8908 75.7608 38.7697C76.0015 38.6485 76.2775 38.5879 76.5888 38.5879C76.9046 38.5879 77.1822 38.647 77.4214 38.7651C77.6606 38.8831 77.8461 39.0449 77.978 39.2504C78.1114 39.4558 78.1781 39.6904 78.1781 39.9542C78.1781 40.1305 78.1444 40.3038 78.0769 40.474C78.0094 40.6442 77.8906 40.8328 77.7204 41.0398C77.5517 41.2468 77.3148 41.4975 77.0097 41.7919L76.1978 42.6176V42.6498H78.2494V43.3628H75.0202ZM80.6805 43.4272C80.3738 43.4272 80.0994 43.3697 79.8571 43.2547C79.6148 43.1382 79.4224 42.9787 79.2798 42.7763C79.1387 42.5739 79.0636 42.3424 79.0544 42.0817H79.8824C79.8977 42.2749 79.9813 42.4328 80.1331 42.5555C80.2849 42.6766 80.4674 42.7372 80.6805 42.7372C80.8477 42.7372 80.9964 42.6989 81.1267 42.6222C81.2571 42.5455 81.3598 42.439 81.4349 42.3025C81.5101 42.166 81.5469 42.0104 81.5453 41.8356C81.5469 41.6577 81.5093 41.4998 81.4326 41.3618C81.356 41.2238 81.2509 41.1157 81.1175 41.0375C80.9841 40.9577 80.8308 40.9179 80.6575 40.9179C80.5164 40.9163 80.3777 40.9424 80.2412 40.9961C80.1047 41.0497 79.9966 41.1203 79.9169 41.2077L79.1464 41.0812L79.3925 38.6524H82.1249V39.3654H80.0986L79.9629 40.6143H79.9905C80.0779 40.5115 80.2013 40.4264 80.3608 40.359C80.5203 40.29 80.6951 40.2555 80.8852 40.2555C81.1704 40.2555 81.425 40.3229 81.6488 40.4579C81.8727 40.5913 82.049 40.7753 82.1778 41.0099C82.3066 41.2445 82.371 41.5128 82.371 41.8149C82.371 42.1261 82.299 42.4037 82.1548 42.6475C82.0122 42.8898 81.8137 43.0807 81.5591 43.2202C81.3061 43.3582 81.0133 43.4272 80.6805 43.4272ZM84.8827 43.4525C84.5039 43.4525 84.1788 43.3567 83.9074 43.165C83.6376 42.9718 83.4298 42.6935 83.2841 42.3301C83.14 41.9651 83.0679 41.5258 83.0679 41.0122C83.0695 40.4985 83.1423 40.0615 83.2864 39.7012C83.4321 39.3393 83.6399 39.0633 83.9097 38.8732C84.1811 38.683 84.5055 38.5879 84.8827 38.5879C85.2599 38.5879 85.5842 38.683 85.8556 38.8732C86.127 39.0633 86.3347 39.3393 86.4789 39.7012C86.6245 40.063 86.6974 40.5 86.6974 41.0122C86.6974 41.5274 86.6245 41.9674 86.4789 42.3324C86.3347 42.6958 86.127 42.9733 85.8556 43.165C85.5857 43.3567 85.2614 43.4525 84.8827 43.4525ZM84.8827 42.7326C85.1771 42.7326 85.4094 42.5877 85.5796 42.2979C85.7513 42.0065 85.8372 41.578 85.8372 41.0122C85.8372 40.638 85.7981 40.3237 85.7199 40.0692C85.6417 39.8146 85.5313 39.623 85.3887 39.4942C85.2461 39.3638 85.0774 39.2987 84.8827 39.2987C84.5898 39.2987 84.3582 39.4443 84.188 39.7357C84.0178 40.0255 83.932 40.451 83.9304 41.0122C83.9289 41.3878 83.9665 41.7037 84.0431 41.9598C84.1213 42.2158 84.2317 42.4091 84.3743 42.5394C84.517 42.6682 84.6864 42.7326 84.8827 42.7326ZM87.4708 43.3628V39.83H88.2666V40.4303H88.308C88.3816 40.2279 88.5035 40.0699 88.6737 39.9565C88.8439 39.8415 89.047 39.784 89.2832 39.784C89.5224 39.784 89.724 39.8422 89.8881 39.9588C90.0537 40.0738 90.1702 40.2309 90.2377 40.4303H90.2745C90.3527 40.234 90.4845 40.0776 90.6701 39.9611C90.8572 39.843 91.0787 39.784 91.3348 39.784C91.6599 39.784 91.9251 39.8867 92.1306 40.0922C92.3361 40.2976 92.4388 40.5974 92.4388 40.9915V43.3628H91.6039V41.1203C91.6039 40.901 91.5456 40.7408 91.4291 40.6396C91.3126 40.5368 91.17 40.4855 91.0013 40.4855C90.8004 40.4855 90.6432 40.5483 90.5298 40.6741C90.4178 40.7983 90.3619 40.96 90.3619 41.1594V43.3628H89.5454V41.0858C89.5454 40.9033 89.4902 40.7576 89.3798 40.6488C89.2709 40.5399 89.1283 40.4855 88.952 40.4855C88.8324 40.4855 88.7235 40.5161 88.6254 40.5775C88.5272 40.6373 88.449 40.7224 88.3908 40.8328C88.3325 40.9416 88.3034 41.0689 88.3034 41.2146V43.3628H87.4708ZM94.1161 38.6524V43.3628H93.2835V38.6524H94.1161ZM95.9498 42.7188L95.9199 42.9718C95.8984 43.165 95.8601 43.3613 95.8049 43.5606C95.7512 43.7615 95.6945 43.9462 95.6347 44.1149C95.5749 44.2836 95.5266 44.4162 95.4898 44.5128H94.9286C94.95 44.4193 94.9792 44.292 95.016 44.131C95.0543 43.97 95.0911 43.7891 95.1264 43.5882C95.1616 43.3873 95.1854 43.1834 95.1977 42.9764L95.2138 42.7188H95.9498ZM98.2492 42.4888V41.8103L100.248 38.6524H100.814V39.6184H100.469L99.1232 41.7505V41.7873H101.913V42.4888H98.2492ZM100.496 43.3628V42.2818L100.506 41.9782V38.6524H101.311V43.3628H100.496ZM104.389 43.4525C104.01 43.4525 103.685 43.3567 103.414 43.165C103.144 42.9718 102.936 42.6935 102.791 42.3301C102.646 41.9651 102.574 41.5258 102.574 41.0122C102.576 40.4985 102.649 40.0615 102.793 39.7012C102.939 39.3393 103.146 39.0633 103.416 38.8732C103.688 38.683 104.012 38.5879 104.389 38.5879C104.766 38.5879 105.091 38.683 105.362 38.8732C105.633 39.0633 105.841 39.3393 105.985 39.7012C106.131 40.063 106.204 40.5 106.204 41.0122C106.204 41.5274 106.131 41.9674 105.985 42.3324C105.841 42.6958 105.633 42.9733 105.362 43.165C105.092 43.3567 104.768 43.4525 104.389 43.4525ZM104.389 42.7326C104.684 42.7326 104.916 42.5877 105.086 42.2979C105.258 42.0065 105.344 41.578 105.344 41.0122C105.344 40.638 105.305 40.3237 105.226 40.0692C105.148 39.8146 105.038 39.623 104.895 39.4942C104.753 39.3638 104.584 39.2987 104.389 39.2987C104.096 39.2987 103.865 39.4443 103.695 39.7357C103.524 40.0255 103.438 40.451 103.437 41.0122C103.435 41.3878 103.473 41.7037 103.55 41.9598C103.628 42.2158 103.738 42.4091 103.881 42.5394C104.023 42.6682 104.193 42.7326 104.389 42.7326ZM108.709 43.4525C108.33 43.4525 108.005 43.3567 107.734 43.165C107.464 42.9718 107.256 42.6935 107.111 42.3301C106.966 41.9651 106.894 41.5258 106.894 41.0122C106.896 40.4985 106.969 40.0615 107.113 39.7012C107.259 39.3393 107.466 39.0633 107.736 38.8732C108.008 38.683 108.332 38.5879 108.709 38.5879C109.086 38.5879 109.411 38.683 109.682 38.8732C109.953 39.0633 110.161 39.3393 110.305 39.7012C110.451 40.063 110.524 40.5 110.524 41.0122C110.524 41.5274 110.451 41.9674 110.305 42.3324C110.161 42.6958 109.953 42.9733 109.682 43.165C109.412 43.3567 109.088 43.4525 108.709 43.4525ZM108.709 42.7326C109.004 42.7326 109.236 42.5877 109.406 42.2979C109.578 42.0065 109.664 41.578 109.664 41.0122C109.664 40.638 109.625 40.3237 109.546 40.0692C109.468 39.8146 109.358 39.623 109.215 39.4942C109.073 39.3638 108.904 39.2987 108.709 39.2987C108.416 39.2987 108.185 39.4443 108.015 39.7357C107.844 40.0255 107.758 40.451 107.757 41.0122C107.755 41.3878 107.793 41.7037 107.87 41.9598C107.948 42.2158 108.058 42.4091 108.201 42.5394C108.343 42.6682 108.513 42.7326 108.709 42.7326ZM111.297 43.3628V39.83H112.093V40.4303H112.134C112.208 40.2279 112.33 40.0699 112.5 39.9565C112.67 39.8415 112.874 39.784 113.11 39.784C113.349 39.784 113.55 39.8422 113.715 39.9588C113.88 40.0738 113.997 40.2309 114.064 40.4303H114.101C114.179 40.234 114.311 40.0776 114.497 39.9611C114.684 39.843 114.905 39.784 115.161 39.784C115.486 39.784 115.752 39.8867 115.957 40.0922C116.163 40.2976 116.265 40.5974 116.265 40.9915V43.3628H115.43V41.1203C115.43 40.901 115.372 40.7408 115.256 40.6396C115.139 40.5368 114.996 40.4855 114.828 40.4855C114.627 40.4855 114.47 40.5483 114.356 40.6741C114.244 40.7983 114.188 40.96 114.188 41.1594V43.3628H113.372V41.0858C113.372 40.9033 113.317 40.7576 113.206 40.6488C113.097 40.5399 112.955 40.4855 112.778 40.4855C112.659 40.4855 112.55 40.5161 112.452 40.5775C112.354 40.6373 112.276 40.7224 112.217 40.8328C112.159 40.9416 112.13 41.0689 112.13 41.2146V43.3628H111.297ZM117.943 38.6524V43.3628H117.11V38.6524H117.943ZM120.722 38.4315L119.204 44.0712H118.474L119.992 38.4315H120.722ZM122.881 43.4272C122.575 43.4272 122.3 43.3697 122.058 43.2547C121.816 43.1382 121.623 42.9787 121.481 42.7763C121.34 42.5739 121.264 42.3424 121.255 42.0817H122.083C122.099 42.2749 122.182 42.4328 122.334 42.5555C122.486 42.6766 122.668 42.7372 122.881 42.7372C123.048 42.7372 123.197 42.6989 123.327 42.6222C123.458 42.5455 123.561 42.439 123.636 42.3025C123.711 42.166 123.748 42.0104 123.746 41.8356C123.748 41.6577 123.71 41.4998 123.633 41.3618C123.557 41.2238 123.452 41.1157 123.318 41.0375C123.185 40.9577 123.032 40.9179 122.858 40.9179C122.717 40.9163 122.578 40.9424 122.442 40.9961C122.306 41.0497 122.197 41.1203 122.118 41.2077L121.347 41.0812L121.593 38.6524H124.326V39.3654H122.299L122.164 40.6143H122.191C122.279 40.5115 122.402 40.4264 122.562 40.359C122.721 40.29 122.896 40.2555 123.086 40.2555C123.371 40.2555 123.626 40.3229 123.85 40.4579C124.073 40.5913 124.25 40.7753 124.379 41.0099C124.507 41.2445 124.572 41.5128 124.572 41.8149C124.572 42.1261 124.5 42.4037 124.356 42.6475C124.213 42.8898 124.014 43.0807 123.76 43.2202C123.507 43.3582 123.214 43.4272 122.881 43.4272ZM127.083 43.4525C126.705 43.4525 126.38 43.3567 126.108 43.165C125.838 42.9718 125.631 42.6935 125.485 42.3301C125.341 41.9651 125.269 41.5258 125.269 41.0122C125.27 40.4985 125.343 40.0615 125.487 39.7012C125.633 39.3393 125.841 39.0633 126.111 38.8732C126.382 38.683 126.706 38.5879 127.083 38.5879C127.461 38.5879 127.785 38.683 128.056 38.8732C128.328 39.0633 128.536 39.3393 128.68 39.7012C128.825 40.063 128.898 40.5 128.898 41.0122C128.898 41.5274 128.825 41.9674 128.68 42.3324C128.536 42.6958 128.328 42.9733 128.056 43.165C127.786 43.3567 127.462 43.4525 127.083 43.4525ZM127.083 42.7326C127.378 42.7326 127.61 42.5877 127.78 42.2979C127.952 42.0065 128.038 41.578 128.038 41.0122C128.038 40.638 127.999 40.3237 127.921 40.0692C127.842 39.8146 127.732 39.623 127.589 39.4942C127.447 39.3638 127.278 39.2987 127.083 39.2987C126.791 39.2987 126.559 39.4443 126.389 39.7357C126.219 40.0255 126.133 40.451 126.131 41.0122C126.13 41.3878 126.167 41.7037 126.244 41.9598C126.322 42.2158 126.433 42.4091 126.575 42.5394C126.718 42.6682 126.887 42.7326 127.083 42.7326ZM131.403 43.4525C131.025 43.4525 130.7 43.3567 130.428 43.165C130.158 42.9718 129.951 42.6935 129.805 42.3301C129.661 41.9651 129.589 41.5258 129.589 41.0122C129.59 40.4985 129.663 40.0615 129.807 39.7012C129.953 39.3393 130.161 39.0633 130.431 38.8732C130.702 38.683 131.026 38.5879 131.403 38.5879C131.781 38.5879 132.105 38.683 132.376 38.8732C132.648 39.0633 132.856 39.3393 133 39.7012C133.145 40.063 133.218 40.5 133.218 41.0122C133.218 41.5274 133.145 41.9674 133 42.3324C132.856 42.6958 132.648 42.9733 132.376 43.165C132.106 43.3567 131.782 43.4525 131.403 43.4525ZM131.403 42.7326C131.698 42.7326 131.93 42.5877 132.1 42.2979C132.272 42.0065 132.358 41.578 132.358 41.0122C132.358 40.638 132.319 40.3237 132.241 40.0692C132.162 39.8146 132.052 39.623 131.909 39.4942C131.767 39.3638 131.598 39.2987 131.403 39.2987C131.111 39.2987 130.879 39.4443 130.709 39.7357C130.539 40.0255 130.453 40.451 130.451 41.0122C130.45 41.3878 130.487 41.7037 130.564 41.9598C130.642 42.2158 130.753 42.4091 130.895 42.5394C131.038 42.6682 131.207 42.7326 131.403 42.7326ZM135.528 44.7612C135.229 44.7612 134.972 44.7206 134.757 44.6393C134.543 44.5596 134.37 44.4522 134.24 44.3173C134.11 44.1824 134.019 44.0329 133.969 43.8688L134.718 43.6871C134.752 43.7561 134.801 43.8243 134.866 43.8918C134.93 43.9608 135.017 44.0175 135.125 44.062C135.236 44.108 135.375 44.131 135.542 44.131C135.778 44.131 135.973 44.0735 136.128 43.9585C136.283 43.845 136.361 43.658 136.361 43.3973V42.728H136.319C136.276 42.8139 136.213 42.902 136.131 42.9925C136.049 43.083 135.941 43.1589 135.806 43.2202C135.673 43.2815 135.505 43.3122 135.303 43.3122C135.031 43.3122 134.785 43.2486 134.564 43.1213C134.345 42.9925 134.17 42.8008 134.04 42.5463C133.911 42.2902 133.847 41.9697 133.847 41.5849C133.847 41.1969 133.911 40.8696 134.04 40.6028C134.17 40.3344 134.346 40.1313 134.567 39.9933C134.787 39.8537 135.033 39.784 135.305 39.784C135.512 39.784 135.682 39.8192 135.815 39.8898C135.95 39.9588 136.058 40.0423 136.137 40.1405C136.217 40.2371 136.278 40.3283 136.319 40.4142H136.365V39.83H137.186V43.4203C137.186 43.7224 137.114 43.9723 136.97 44.1701C136.826 44.3679 136.629 44.5159 136.379 44.614C136.129 44.7121 135.845 44.7612 135.528 44.7612ZM135.535 42.659C135.711 42.659 135.861 42.6161 135.986 42.5302C136.11 42.4443 136.204 42.3209 136.269 42.1599C136.333 41.9989 136.365 41.8057 136.365 41.5803C136.365 41.3579 136.333 41.1632 136.269 40.9961C136.206 40.8289 136.112 40.6994 135.988 40.6074C135.865 40.5138 135.714 40.4671 135.535 40.4671C135.349 40.4671 135.194 40.5154 135.07 40.612C134.946 40.7086 134.853 40.8412 134.79 41.0099C134.727 41.177 134.695 41.3671 134.695 41.5803C134.695 41.7965 134.727 41.9858 134.79 42.1484C134.854 42.3094 134.948 42.4351 135.073 42.5256C135.198 42.6145 135.352 42.659 135.535 42.659ZM139.017 42.7188L138.987 42.9718C138.966 43.165 138.927 43.3613 138.872 43.5606C138.819 43.7615 138.762 43.9462 138.702 44.1149C138.642 44.2836 138.594 44.4162 138.557 44.5128H137.996C138.017 44.4193 138.046 44.292 138.083 44.131C138.122 43.97 138.158 43.7891 138.194 43.5882C138.229 43.3873 138.253 43.1834 138.265 42.9764L138.281 42.7188H139.017ZM143.039 43.4272C142.733 43.4272 142.458 43.3697 142.216 43.2547C141.974 43.1382 141.781 42.9787 141.639 42.7763C141.497 42.5739 141.422 42.3424 141.413 42.0817H142.241C142.256 42.2749 142.34 42.4328 142.492 42.5555C142.644 42.6766 142.826 42.7372 143.039 42.7372C143.206 42.7372 143.355 42.6989 143.485 42.6222C143.616 42.5455 143.719 42.439 143.794 42.3025C143.869 42.166 143.906 42.0104 143.904 41.8356C143.906 41.6577 143.868 41.4998 143.791 41.3618C143.715 41.2238 143.61 41.1157 143.476 41.0375C143.343 40.9577 143.19 40.9179 143.016 40.9179C142.875 40.9163 142.736 40.9424 142.6 40.9961C142.463 41.0497 142.355 41.1203 142.276 41.2077L141.505 41.0812L141.751 38.6524H144.484V39.3654H142.457L142.322 40.6143H142.349C142.437 40.5115 142.56 40.4264 142.72 40.359C142.879 40.29 143.054 40.2555 143.244 40.2555C143.529 40.2555 143.784 40.3229 144.008 40.4579C144.231 40.5913 144.408 40.7753 144.537 41.0099C144.665 41.2445 144.73 41.5128 144.73 41.8149C144.73 42.1261 144.658 42.4037 144.514 42.6475C144.371 42.8898 144.172 43.0807 143.918 43.2202C143.665 43.3582 143.372 43.4272 143.039 43.4272ZM147.241 43.4525C146.863 43.4525 146.538 43.3567 146.266 43.165C145.996 42.9718 145.789 42.6935 145.643 42.3301C145.499 41.9651 145.427 41.5258 145.427 41.0122C145.428 40.4985 145.501 40.0615 145.645 39.7012C145.791 39.3393 145.999 39.0633 146.268 38.8732C146.54 38.683 146.864 38.5879 147.241 38.5879C147.619 38.5879 147.943 38.683 148.214 38.8732C148.486 39.0633 148.693 39.3393 148.838 39.7012C148.983 40.063 149.056 40.5 149.056 41.0122C149.056 41.5274 148.983 41.9674 148.838 42.3324C148.693 42.6958 148.486 42.9733 148.214 43.165C147.944 43.3567 147.62 43.4525 147.241 43.4525ZM147.241 42.7326C147.536 42.7326 147.768 42.5877 147.938 42.2979C148.11 42.0065 148.196 41.578 148.196 41.0122C148.196 40.638 148.157 40.3237 148.079 40.0692C148 39.8146 147.89 39.623 147.747 39.4942C147.605 39.3638 147.436 39.2987 147.241 39.2987C146.949 39.2987 146.717 39.4443 146.547 39.7357C146.377 40.0255 146.291 40.451 146.289 41.0122C146.288 41.3878 146.325 41.7037 146.402 41.9598C146.48 42.2158 146.59 42.4091 146.733 42.5394C146.876 42.6682 147.045 42.7326 147.241 42.7326ZM151.561 43.4525C151.183 43.4525 150.858 43.3567 150.586 43.165C150.316 42.9718 150.109 42.6935 149.963 42.3301C149.819 41.9651 149.747 41.5258 149.747 41.0122C149.748 40.4985 149.821 40.0615 149.965 39.7012C150.111 39.3393 150.319 39.0633 150.588 38.8732C150.86 38.683 151.184 38.5879 151.561 38.5879C151.939 38.5879 152.263 38.683 152.534 38.8732C152.806 39.0633 153.013 39.3393 153.158 39.7012C153.303 40.063 153.376 40.5 153.376 41.0122C153.376 41.5274 153.303 41.9674 153.158 42.3324C153.013 42.6958 152.806 42.9733 152.534 43.165C152.264 43.3567 151.94 43.4525 151.561 43.4525ZM151.561 42.7326C151.856 42.7326 152.088 42.5877 152.258 42.2979C152.43 42.0065 152.516 41.578 152.516 41.0122C152.516 40.638 152.477 40.3237 152.399 40.0692C152.32 39.8146 152.21 39.623 152.067 39.4942C151.925 39.3638 151.756 39.2987 151.561 39.2987C151.269 39.2987 151.037 39.4443 150.867 39.7357C150.697 40.0255 150.611 40.451 150.609 41.0122C150.608 41.3878 150.645 41.7037 150.722 41.9598C150.8 42.2158 150.911 42.4091 151.053 42.5394C151.196 42.6682 151.365 42.7326 151.561 42.7326ZM154.149 43.3628V39.83H154.945V40.4303H154.987C155.06 40.2279 155.182 40.0699 155.352 39.9565C155.523 39.8415 155.726 39.784 155.962 39.784C156.201 39.784 156.403 39.8422 156.567 39.9588C156.732 40.0738 156.849 40.2309 156.916 40.4303H156.953C157.031 40.234 157.163 40.0776 157.349 39.9611C157.536 39.843 157.757 39.784 158.014 39.784C158.339 39.784 158.604 39.8867 158.809 40.0922C159.015 40.2976 159.118 40.5974 159.118 40.9915V43.3628H158.283V41.1203C158.283 40.901 158.224 40.7408 158.108 40.6396C157.991 40.5368 157.849 40.4855 157.68 40.4855C157.479 40.4855 157.322 40.5483 157.209 40.6741C157.097 40.7983 157.041 40.96 157.041 41.1594V43.3628H156.224V41.0858C156.224 40.9033 156.169 40.7576 156.059 40.6488C155.95 40.5399 155.807 40.4855 155.631 40.4855C155.511 40.4855 155.402 40.5161 155.304 40.5775C155.206 40.6373 155.128 40.7224 155.07 40.8328C155.011 40.9416 154.982 41.0689 154.982 41.2146V43.3628H154.149ZM160.795 38.6524V43.3628H159.962V38.6524H160.795ZM162.629 42.7188L162.599 42.9718C162.577 43.165 162.539 43.3613 162.484 43.5606C162.43 43.7615 162.373 43.9462 162.313 44.1149C162.254 44.2836 162.205 44.4162 162.169 44.5128H161.607C161.629 44.4193 161.658 44.292 161.695 44.131C161.733 43.97 161.77 43.7891 161.805 43.5882C161.84 43.3873 161.864 43.1834 161.876 42.9764L161.893 42.7188H162.629ZM75.1927 54.3628L77.196 50.3976V50.3654H74.8707V49.6524H78.0792V50.3815L76.0782 54.3628H75.1927ZM80.3959 54.4272C80.0892 54.4272 79.8148 54.3697 79.5725 54.2547C79.3302 54.1382 79.1378 53.9787 78.9952 53.7763C78.8541 53.5739 78.779 53.3424 78.7698 53.0817H79.5978C79.6131 53.2749 79.6967 53.4328 79.8485 53.5555C80.0003 53.6766 80.1828 53.7372 80.3959 53.7372C80.563 53.7372 80.7118 53.6989 80.8421 53.6222C80.9724 53.5455 81.0752 53.439 81.1503 53.3025C81.2254 53.166 81.2622 53.0104 81.2607 52.8356C81.2622 52.6577 81.2247 52.4998 81.148 52.3618C81.0713 52.2238 80.9663 52.1157 80.8329 52.0375C80.6995 51.9577 80.5462 51.9179 80.3729 51.9179C80.2318 51.9163 80.0931 51.9424 79.9566 51.9961C79.8201 52.0497 79.712 52.1203 79.6323 52.2077L78.8618 52.0812L79.1079 49.6524H81.8403V50.3654H79.814L79.6783 51.6143H79.7059C79.7933 51.5115 79.9167 51.4264 80.0762 51.359C80.2357 51.29 80.4105 51.2555 80.6006 51.2555C80.8858 51.2555 81.1403 51.3229 81.3642 51.4579C81.5881 51.5913 81.7644 51.7753 81.8932 52.0099C82.022 52.2445 82.0864 52.5128 82.0864 52.8149C82.0864 53.1261 82.0143 53.4037 81.8702 53.6475C81.7276 53.8898 81.529 54.0807 81.2745 54.2202C81.0215 54.3582 80.7286 54.4272 80.3959 54.4272ZM84.598 54.4525C84.2193 54.4525 83.8942 54.3567 83.6228 54.165C83.3529 53.9718 83.1452 53.6935 82.9995 53.3301C82.8554 52.9651 82.7833 52.5258 82.7833 52.0122C82.7848 51.4985 82.8577 51.0615 83.0018 50.7012C83.1475 50.3393 83.3552 50.0633 83.6251 49.8732C83.8965 49.683 84.2208 49.5879 84.598 49.5879C84.9752 49.5879 85.2995 49.683 85.5709 49.8732C85.8423 50.0633 86.0501 50.3393 86.1942 50.7012C86.3399 51.063 86.4127 51.5 86.4127 52.0122C86.4127 52.5274 86.3399 52.9674 86.1942 53.3324C86.0501 53.6958 85.8423 53.9733 85.5709 54.165C85.3011 54.3567 84.9768 54.4525 84.598 54.4525ZM84.598 53.7326C84.8924 53.7326 85.1247 53.5877 85.2949 53.2979C85.4667 53.0065 85.5525 52.578 85.5525 52.0122C85.5525 51.638 85.5134 51.3237 85.4352 51.0692C85.357 50.8146 85.2466 50.623 85.104 50.4942C84.9614 50.3638 84.7928 50.2987 84.598 50.2987C84.3052 50.2987 84.0736 50.4443 83.9034 50.7357C83.7332 51.0255 83.6474 51.451 83.6458 52.0122C83.6443 52.3878 83.6819 52.7037 83.7585 52.9598C83.8367 53.2158 83.9471 53.4091 84.0897 53.5394C84.2323 53.6682 84.4018 53.7326 84.598 53.7326ZM87.1861 54.3628V50.83H87.9819V51.4303H88.0233C88.0969 51.2279 88.2188 51.0699 88.389 50.9565C88.5592 50.8415 88.7624 50.784 88.9985 50.784C89.2377 50.784 89.4394 50.8422 89.6034 50.9588C89.769 51.0738 89.8856 51.2309 89.9531 51.4303H89.9899C90.0681 51.234 90.1999 51.0776 90.3855 50.9611C90.5725 50.843 90.7941 50.784 91.0502 50.784C91.3752 50.784 91.6405 50.8867 91.846 51.0922C92.0514 51.2976 92.1542 51.5974 92.1542 51.9915V54.3628H91.3193V52.1203C91.3193 51.901 91.261 51.7408 91.1445 51.6396C91.0279 51.5368 90.8853 51.4855 90.7167 51.4855C90.5158 51.4855 90.3586 51.5483 90.2452 51.6741C90.1332 51.7983 90.0773 51.96 90.0773 52.1594V54.3628H89.2607V52.0858C89.2607 51.9033 89.2055 51.7576 89.0951 51.6488C88.9863 51.5399 88.8437 51.4855 88.6673 51.4855C88.5477 51.4855 88.4389 51.5161 88.3407 51.5775C88.2426 51.6373 88.1644 51.7224 88.1061 51.8328C88.0479 51.9416 88.0187 52.0689 88.0187 52.2146V54.3628H87.1861ZM93.8315 49.6524V54.3628H92.9989V49.6524H93.8315ZM98.0583 50.83V51.474H96.0274V50.83H98.0583ZM96.5288 49.9836H97.3614V53.3002C97.3614 53.4121 97.3783 53.498 97.412 53.5578C97.4473 53.6161 97.4933 53.6559 97.55 53.6774C97.6068 53.6989 97.6696 53.7096 97.7386 53.7096C97.7908 53.7096 97.8383 53.7058 97.8812 53.6981C97.9257 53.6904 97.9594 53.6835 97.9824 53.6774L98.1227 54.3283C98.0783 54.3436 98.0146 54.3605 97.9318 54.3789C97.8506 54.3973 97.7509 54.408 97.6328 54.4111C97.4243 54.4172 97.2364 54.3858 97.0693 54.3168C96.9022 54.2463 96.7695 54.1374 96.6714 53.9902C96.5748 53.843 96.5273 53.659 96.5288 53.4382V49.9836ZM99.7713 54.4341C99.5474 54.4341 99.3458 54.3942 99.1664 54.3145C98.9885 54.2332 98.8474 54.1136 98.7432 53.9557C98.6404 53.7978 98.5891 53.603 98.5891 53.3715C98.5891 53.1721 98.6259 53.0073 98.6995 52.877C98.7731 52.7466 98.8735 52.6424 99.0008 52.5642C99.128 52.486 99.2714 52.4269 99.4309 52.3871C99.5919 52.3457 99.7582 52.3158 99.93 52.2974C100.137 52.2759 100.305 52.2567 100.434 52.2399C100.562 52.2215 100.656 52.1939 100.714 52.1571C100.774 52.1187 100.804 52.0597 100.804 51.98V51.9662C100.804 51.7929 100.753 51.6587 100.65 51.5637C100.547 51.4686 100.399 51.4211 100.206 51.4211C100.002 51.4211 99.8403 51.4655 99.7207 51.5545C99.6026 51.6434 99.5229 51.7484 99.4815 51.8696L98.7041 51.7592C98.7654 51.5445 98.8666 51.3651 99.0077 51.221C99.1487 51.0753 99.3212 50.9664 99.5252 50.8944C99.7291 50.8208 99.9545 50.784 100.201 50.784C100.372 50.784 100.541 50.8039 100.71 50.8438C100.878 50.8836 101.032 50.9496 101.172 51.0416C101.312 51.132 101.423 51.2555 101.508 51.4119C101.594 51.5683 101.637 51.7638 101.637 51.9984V54.3628H100.836V53.8775H100.809C100.758 53.9756 100.687 54.0676 100.595 54.1535C100.504 54.2378 100.39 54.3061 100.252 54.3582C100.116 54.4088 99.9553 54.4341 99.7713 54.4341ZM99.9875 53.8223C100.155 53.8223 100.3 53.7893 100.422 53.7234C100.545 53.6559 100.639 53.567 100.705 53.4566C100.773 53.3462 100.806 53.2258 100.806 53.0955V52.6792C100.78 52.7006 100.736 52.7206 100.673 52.739C100.612 52.7574 100.543 52.7735 100.466 52.7873C100.389 52.8011 100.313 52.8133 100.238 52.8241C100.163 52.8348 100.098 52.844 100.043 52.8517C99.9185 52.8685 99.8073 52.8961 99.7092 52.9345C99.611 52.9728 99.5336 53.0265 99.4769 53.0955C99.4201 53.1629 99.3918 53.2503 99.3918 53.3577C99.3918 53.511 99.4477 53.6268 99.5597 53.705C99.6716 53.7832 99.8142 53.8223 99.9875 53.8223ZM103.306 49.6524V54.3628H102.474V49.6524H103.306ZM104.995 49.6524V54.3628H104.163V49.6524H104.995ZM106.829 53.7188L106.799 53.9718C106.778 54.165 106.739 54.3613 106.684 54.5606C106.63 54.7615 106.574 54.9462 106.514 55.1149C106.454 55.2836 106.406 55.4162 106.369 55.5128H105.808C105.829 55.4193 105.858 55.292 105.895 55.131C105.933 54.97 105.97 54.7891 106.005 54.5882C106.041 54.3873 106.065 54.1834 106.077 53.9764L106.093 53.7188H106.829ZM111.129 49.6524V54.3628H110.276V50.4827H110.248L109.147 51.1865V50.4045L110.317 49.6524H111.129ZM114.066 54.4525C113.688 54.4525 113.363 54.3567 113.091 54.165C112.821 53.9718 112.614 53.6935 112.468 53.3301C112.324 52.9651 112.252 52.5258 112.252 52.0122C112.253 51.4985 112.326 51.0615 112.47 50.7012C112.616 50.3393 112.824 50.0633 113.094 49.8732C113.365 49.683 113.689 49.5879 114.066 49.5879C114.444 49.5879 114.768 49.683 115.039 49.8732C115.311 50.0633 115.519 50.3393 115.663 50.7012C115.808 51.063 115.881 51.5 115.881 52.0122C115.881 52.5274 115.808 52.9674 115.663 53.3324C115.519 53.6958 115.311 53.9733 115.039 54.165C114.77 54.3567 114.445 54.4525 114.066 54.4525ZM114.066 53.7326C114.361 53.7326 114.593 53.5877 114.763 53.2979C114.935 53.0065 115.021 52.578 115.021 52.0122C115.021 51.638 114.982 51.3237 114.904 51.0692C114.825 50.8146 114.715 50.623 114.572 50.4942C114.43 50.3638 114.261 50.2987 114.066 50.2987C113.774 50.2987 113.542 50.4443 113.372 50.7357C113.202 51.0255 113.116 51.451 113.114 52.0122C113.113 52.3878 113.15 52.7037 113.227 52.9598C113.305 53.2158 113.416 53.4091 113.558 53.5394C113.701 53.6682 113.87 53.7326 114.066 53.7326ZM118.386 54.4525C118.008 54.4525 117.683 54.3567 117.411 54.165C117.141 53.9718 116.934 53.6935 116.788 53.3301C116.644 52.9651 116.572 52.5258 116.572 52.0122C116.573 51.4985 116.646 51.0615 116.79 50.7012C116.936 50.3393 117.144 50.0633 117.414 49.8732C117.685 49.683 118.009 49.5879 118.386 49.5879C118.764 49.5879 119.088 49.683 119.359 49.8732C119.631 50.0633 119.839 50.3393 119.983 50.7012C120.128 51.063 120.201 51.5 120.201 52.0122C120.201 52.5274 120.128 52.9674 119.983 53.3324C119.839 53.6958 119.631 53.9733 119.359 54.165C119.09 54.3567 118.765 54.4525 118.386 54.4525ZM118.386 53.7326C118.681 53.7326 118.913 53.5877 119.083 53.2979C119.255 53.0065 119.341 52.578 119.341 52.0122C119.341 51.638 119.302 51.3237 119.224 51.0692C119.145 50.8146 119.035 50.623 118.892 50.4942C118.75 50.3638 118.581 50.2987 118.386 50.2987C118.094 50.2987 117.862 50.4443 117.692 50.7357C117.522 51.0255 117.436 51.451 117.434 52.0122C117.433 52.3878 117.47 52.7037 117.547 52.9598C117.625 53.2158 117.736 53.4091 117.878 53.5394C118.021 53.6682 118.19 53.7326 118.386 53.7326ZM122.706 54.4525C122.328 54.4525 122.003 54.3567 121.731 54.165C121.461 53.9718 121.254 53.6935 121.108 53.3301C120.964 52.9651 120.892 52.5258 120.892 52.0122C120.893 51.4985 120.966 51.0615 121.11 50.7012C121.256 50.3393 121.464 50.0633 121.734 49.8732C122.005 49.683 122.329 49.5879 122.706 49.5879C123.084 49.5879 123.408 49.683 123.679 49.8732C123.951 50.0633 124.159 50.3393 124.303 50.7012C124.448 51.063 124.521 51.5 124.521 52.0122C124.521 52.5274 124.448 52.9674 124.303 53.3324C124.159 53.6958 123.951 53.9733 123.679 54.165C123.41 54.3567 123.085 54.4525 122.706 54.4525ZM122.706 53.7326C123.001 53.7326 123.233 53.5877 123.403 53.2979C123.575 53.0065 123.661 52.578 123.661 52.0122C123.661 51.638 123.622 51.3237 123.544 51.0692C123.466 50.8146 123.355 50.623 123.212 50.4942C123.07 50.3638 122.901 50.2987 122.706 50.2987C122.414 50.2987 122.182 50.4443 122.012 50.7357C121.842 51.0255 121.756 51.451 121.754 52.0122C121.753 52.3878 121.79 52.7037 121.867 52.9598C121.945 53.2158 122.056 53.4091 122.198 53.5394C122.341 53.6682 122.51 53.7326 122.706 53.7326ZM125.295 54.3628V50.83H126.09V51.4303H126.132C126.205 51.2279 126.327 51.0699 126.498 50.9565C126.668 50.8415 126.871 50.784 127.107 50.784C127.346 50.784 127.548 50.8422 127.712 50.9588C127.878 51.0738 127.994 51.2309 128.062 51.4303H128.098C128.177 51.234 128.308 51.0776 128.494 50.9611C128.681 50.843 128.903 50.784 129.159 50.784C129.484 50.784 129.749 50.8867 129.954 51.0922C130.16 51.2976 130.263 51.5974 130.263 51.9915V54.3628H129.428V52.1203C129.428 51.901 129.369 51.7408 129.253 51.6396C129.136 51.5368 128.994 51.4855 128.825 51.4855C128.624 51.4855 128.467 51.5483 128.354 51.6741C128.242 51.7983 128.186 51.96 128.186 52.1594V54.3628H127.369V52.0858C127.369 51.9033 127.314 51.7576 127.204 51.6488C127.095 51.5399 126.952 51.4855 126.776 51.4855C126.656 51.4855 126.547 51.5161 126.449 51.5775C126.351 51.6373 126.273 51.7224 126.215 51.8328C126.156 51.9416 126.127 52.0689 126.127 52.2146V54.3628H125.295ZM131.94 49.6524V54.3628H131.107V49.6524H131.94Z" fill="#878C90"/>
<path d="M212.356 40.6991V40.0967H214.902V40.6991H212.356ZM216.066 40.6991V40.0967H218.611V40.6991H216.066ZM219.776 40.6991V40.0967H222.321V40.6991H219.776ZM223.485 40.6991V40.0967H226.031V40.6991H223.485ZM227.195 40.6991V40.0967H229.74V40.6991H227.195ZM230.905 40.6991V40.0967H233.45V40.6991H230.905ZM234.614 40.6991V40.0967H237.16V40.6991H234.614ZM238.324 40.6991V40.0967H240.869V40.6991H238.324ZM242.034 40.6991V40.0967H244.579V40.6991H242.034ZM245.743 40.6991V40.0967H248.289V40.6991H245.743ZM249.453 40.6991V40.0967H251.998V40.6991H249.453ZM253.162 40.6991V40.0967H255.708V40.6991H253.162ZM256.872 40.6991V40.0967H259.418V40.6991H256.872ZM260.582 40.6991V40.0967H263.127V40.6991H260.582ZM264.291 40.6991V40.0967H266.837V40.6991H264.291ZM268.001 40.6991V40.0967H270.546V40.6991H268.001ZM271.711 40.6991V40.0967H274.256V40.6991H271.711ZM275.42 40.6991V40.0967H277.966V40.6991H275.42ZM279.13 40.6991V40.0967H281.675V40.6991H279.13ZM282.84 40.6991V40.0967H285.385V40.6991H282.84ZM286.549 40.6991V40.0967H289.095V40.6991H286.549ZM290.259 40.6991V40.0967H292.804V40.6991H290.259ZM293.969 40.6991V40.0967H296.514V40.6991H293.969ZM297.678 40.6991V40.0967H300.224V40.6991H297.678ZM301.388 40.6991V40.0967H303.933V40.6991H301.388ZM305.097 40.6991V40.0967H307.643V40.6991H305.097ZM308.807 40.6991V40.0967H311.353V40.6991H308.807ZM312.517 40.6991V40.0967H315.062V40.6991H312.517ZM316.226 40.6991V40.0967H318.772V40.6991H316.226ZM319.936 40.6991V40.0967H322.481V40.6991H319.936ZM323.646 40.6991V40.0967H326.191V40.6991H323.646ZM327.355 40.6991V40.0967H329.901V40.6991H327.355ZM331.065 40.6991V40.0967H333.61V40.6991H331.065ZM334.775 40.6991V40.0967H337.32V40.6991H334.775Z" fill="#8F8E8E"/>
<rect x="337.667" y="21.4824" width="50.1956" height="37.2419" rx="5.26245" fill="#F1F3F2" stroke="#ADB4B7" stroke-width="0.809607"/>
<path d="M356.12 39.7085C356.12 38.0375 356.441 36.721 357.082 35.7592C357.733 34.7974 358.777 34.3165 360.215 34.3165C361.653 34.3165 362.692 34.7974 363.334 35.7592C363.985 36.721 364.31 38.0375 364.31 39.7085C364.31 41.399 363.985 42.7251 363.334 43.6869C362.692 44.6487 361.653 45.1296 360.215 45.1296C358.777 45.1296 357.733 44.6487 357.082 43.6869C356.441 42.7251 356.12 41.399 356.12 39.7085ZM361.862 39.7085C361.862 38.7272 361.755 37.9743 361.541 37.4497C361.327 36.9153 360.885 36.6482 360.215 36.6482C359.545 36.6482 359.103 36.9153 358.889 37.4497C358.675 37.9743 358.568 38.7272 358.568 39.7085C358.568 40.3691 358.607 40.918 358.685 41.3552C358.763 41.7827 358.918 42.1325 359.151 42.4045C359.394 42.6668 359.749 42.798 360.215 42.798C360.681 42.798 361.031 42.6668 361.264 42.4045C361.507 42.1325 361.667 41.7827 361.745 41.3552C361.823 40.918 361.862 40.3691 361.862 39.7085ZM365.364 36.8522V34.5351H369.401V45.1733H366.807V36.8522H365.364Z" fill="#36404B"/>
<defs>
<filter id="filter0_d_1104_72" x="0.000161171" y="-0.000179291" width="419.203" height="85.1745" filterUnits="userSpaceOnUse" color-interpolation-filters="sRGB">
<feFlood flood-opacity="0" result="BackgroundImageFix"/>
<feColorMatrix in="SourceAlpha" type="matrix" values="0 0 0 0 0 0 0 0 0 0 0 0 0 0 0 0 0 0 127 0" result="hardAlpha"/>
<feOffset dy="3.23843"/>
<feGaussianBlur stdDeviation="6.8007"/>
<feComposite in2="hardAlpha" operator="out"/>
<feColorMatrix type="matrix" values="0 0 0 0 0 0 0 0 0 0 0 0 0 0 0 0 0 0 0.17 0"/>
<feBlend mode="normal" in2="BackgroundImageFix" result="effect1_dropShadow_1104_72"/>
<feBlend mode="normal" in="SourceGraphic" in2="effect1_dropShadow_1104_72" result="shape"/>
</filter>
</defs>
</svg>
