<svg width="420" height="86" viewBox="0 0 420 86" fill="none" xmlns="http://www.w3.org/2000/svg">
<g filter="url(#filter0_d_1104_102)">
<rect x="13.6016" y="10.3628" width="392" height="57.9718" rx="10.5249" fill="#FEFFFE"/>
</g>
<circle cx="43.3389" cy="38.147" r="21.0498" fill="#D9F2EE"/>
<circle cx="43.5575" cy="38.1468" r="17.8114" fill="#0C2461"/>
<path d="M40.281 45.2689C39.5718 45.2689 38.9791 45.128 38.5031 44.8463C38.027 44.5548 37.6676 44.1565 37.4247 43.6513C37.1818 43.1461 37.0604 42.5583 37.0604 41.888V36.5397C37.0604 35.8499 37.1721 35.2476 37.3956 34.7327C37.6287 34.208 37.9833 33.8 38.4594 33.5085C38.9354 33.2171 39.5426 33.0713 40.281 33.0713C41.0194 33.0713 41.6217 33.2171 42.088 33.5085C42.5641 33.8 42.9138 34.208 43.1373 34.7327C43.3705 35.2476 43.487 35.8499 43.487 36.5397V41.888C43.487 42.5486 43.3656 43.1364 43.1227 43.6513C42.8798 44.1565 42.5204 44.5548 42.0443 44.8463C41.5683 45.128 40.9805 45.2689 40.281 45.2689ZM40.281 43.0975C40.5142 43.0975 40.6793 43.0247 40.7765 42.8789C40.8833 42.7235 40.9465 42.5486 40.9659 42.3543C40.9951 42.1503 41.0096 41.9754 41.0096 41.8297V36.598C41.0096 36.4328 40.9999 36.2482 40.9805 36.0442C40.9611 35.8305 40.8979 35.6459 40.791 35.4904C40.6939 35.3253 40.5239 35.2427 40.281 35.2427C40.0381 35.2427 39.8632 35.3253 39.7564 35.4904C39.6592 35.6459 39.6009 35.8305 39.5815 36.0442C39.5621 36.2482 39.5523 36.4328 39.5523 36.598V41.8297C39.5523 41.9754 39.5669 42.1503 39.5961 42.3543C39.6252 42.5486 39.6884 42.7235 39.7855 42.8789C39.8924 43.0247 40.0575 43.0975 40.281 43.0975ZM48.5701 45.0503V42.398H44.9415V40.6055L48.0164 33.2462H50.8435V40.591H51.9365V42.398H50.8435V45.0503H48.5701ZM46.7922 40.591H48.5701V35.6799L46.7922 40.591Z" fill="#FEFFFE"/>
<path d="M77.6052 31.6984C77.0536 31.6984 76.5927 31.5926 76.2224 31.381C75.8521 31.1619 75.5726 30.8445 75.3836 30.4289C75.1947 30.0133 75.0889 29.5033 75.0663 28.8988L76.5058 28.6154C76.5209 28.9706 76.5624 29.2842 76.6304 29.5562C76.706 29.8282 76.8156 30.0398 76.9591 30.1909C77.1103 30.3345 77.3067 30.4063 77.5485 30.4063C77.8206 30.4063 78.0132 30.3269 78.1266 30.1683C78.2399 30.002 78.2966 29.7942 78.2966 29.5449C78.2966 29.1444 78.2059 28.8157 78.0246 28.5588C77.8432 28.3018 77.6014 28.0449 77.2992 27.788L76.1431 26.7679C75.8181 26.4883 75.5574 26.1785 75.361 25.8385C75.1721 25.4909 75.0776 25.0639 75.0776 24.5577C75.0776 23.8323 75.2892 23.2731 75.7123 22.8802C76.1355 22.4872 76.7136 22.2908 77.4465 22.2908C77.8772 22.2908 78.2362 22.3588 78.5233 22.4948C78.8104 22.6233 79.0371 22.8046 79.2034 23.0389C79.3772 23.2731 79.5056 23.5413 79.5887 23.8436C79.6719 24.1383 79.7248 24.4519 79.7474 24.7844L78.3193 25.0337C78.3042 24.7466 78.2702 24.4897 78.2173 24.263C78.1719 24.0363 78.085 23.8587 77.9566 23.7303C77.8357 23.6018 77.6543 23.5376 77.4125 23.5376C77.1632 23.5376 76.9705 23.6207 76.8345 23.7869C76.706 23.9456 76.6418 24.1459 76.6418 24.3877C76.6418 24.6975 76.706 24.9544 76.8345 25.1584C76.9629 25.3549 77.148 25.5589 77.3898 25.7705L78.5346 26.7792C78.9125 27.0966 79.2336 27.4706 79.4981 27.9014C79.7701 28.3245 79.9061 28.8383 79.9061 29.4428C79.9061 29.8811 79.8079 30.2703 79.6114 30.6103C79.4225 30.9503 79.1543 31.2186 78.8067 31.415C78.4666 31.604 78.0661 31.6984 77.6052 31.6984ZM81.8572 31.5737L80.5538 22.3928H81.9592L82.7187 28.3434L83.6708 22.4155H84.8155L85.7903 28.3434L86.5384 22.3928H87.9212L86.6404 31.5737H85.2803L84.2602 25.4191L83.2514 31.5737H81.8572ZM88.963 31.5737V22.3928H92.8167V23.5716H90.6405V26.2125H92.352V27.38H90.6405V30.4176H92.8394V31.5737H88.963ZM93.8112 31.5737V22.3928H97.6649V23.5716H95.4887V26.2125H97.2002V27.38H95.4887V30.4176H97.6876V31.5737H93.8112ZM99.5774 31.5737V23.6282H98.1153V22.3928H102.694V23.6282H101.255V31.5737H99.5774ZM106.286 31.5737V22.3928H108.541C108.949 22.3928 109.316 22.4306 109.641 22.5061C109.973 22.5817 110.257 22.7102 110.491 22.8915C110.733 23.0653 110.918 23.3033 111.046 23.6056C111.175 23.9078 111.239 24.2894 111.239 24.7504C111.239 25.1206 111.186 25.438 111.08 25.7025C110.982 25.9669 110.835 26.1785 110.638 26.3372C110.442 26.4883 110.196 26.5903 109.901 26.6432C110.264 26.7037 110.563 26.8321 110.797 27.0286C111.039 27.2175 111.216 27.4669 111.33 27.7767C111.45 28.0865 111.511 28.4605 111.511 28.8988C111.511 29.3371 111.454 29.7262 111.341 30.0662C111.235 30.3987 111.073 30.6783 110.854 30.905C110.642 31.1241 110.374 31.2904 110.049 31.4037C109.731 31.5171 109.357 31.5737 108.927 31.5737H106.286ZM107.963 30.3949H108.598C109.104 30.3949 109.448 30.274 109.629 30.0322C109.811 29.7829 109.901 29.4013 109.901 28.8875C109.901 28.5172 109.856 28.2187 109.765 27.992C109.682 27.7578 109.539 27.584 109.335 27.4706C109.138 27.3573 108.874 27.3006 108.541 27.3006H107.963V30.3949ZM107.963 26.1445H108.53C108.862 26.1445 109.119 26.0954 109.301 25.9972C109.482 25.8989 109.607 25.7478 109.675 25.5438C109.75 25.3398 109.788 25.0828 109.788 24.773C109.788 24.4481 109.731 24.1987 109.618 24.025C109.512 23.8436 109.35 23.7227 109.131 23.6622C108.912 23.5942 108.632 23.5602 108.292 23.5602H107.963V26.1445ZM115.089 31.6984C114.439 31.6984 113.921 31.5775 113.536 31.3357C113.15 31.0939 112.875 30.7463 112.708 30.2929C112.542 29.8396 112.459 29.3031 112.459 28.6834V25.2491C112.459 24.6295 112.542 24.1005 112.708 23.6622C112.875 23.2164 113.15 22.8764 113.536 22.6421C113.921 22.4079 114.439 22.2908 115.089 22.2908C115.754 22.2908 116.275 22.4079 116.653 22.6421C117.038 22.8764 117.314 23.2164 117.48 23.6622C117.654 24.1005 117.741 24.6295 117.741 25.2491V28.6948C117.741 29.3068 117.654 29.8396 117.48 30.2929C117.314 30.7388 117.038 31.0863 116.653 31.3357C116.275 31.5775 115.754 31.6984 115.089 31.6984ZM115.089 30.4629C115.368 30.4629 115.572 30.4025 115.701 30.2816C115.837 30.1607 115.927 29.9945 115.973 29.7829C116.018 29.5713 116.041 29.3408 116.041 29.0915V24.8637C116.041 24.6068 116.018 24.3763 115.973 24.1723C115.927 23.9683 115.837 23.8096 115.701 23.6963C115.572 23.5754 115.368 23.5149 115.089 23.5149C114.824 23.5149 114.624 23.5754 114.488 23.6963C114.352 23.8096 114.261 23.9683 114.216 24.1723C114.17 24.3763 114.148 24.6068 114.148 24.8637V29.0915C114.148 29.3408 114.167 29.5713 114.204 29.7829C114.25 29.9945 114.341 30.1607 114.477 30.2816C114.613 30.4025 114.817 30.4629 115.089 30.4629ZM118.271 31.5737L120.118 26.6999L118.327 22.3928H119.892L121.082 25.2377L122.125 22.3928H123.575L121.807 27.0173L123.711 31.5737H122.147L120.844 28.4907L119.71 31.5737H118.271ZM129.732 31.6984C129.06 31.6984 128.531 31.5662 128.145 31.3017C127.767 31.0372 127.503 30.6783 127.352 30.2249C127.201 29.764 127.125 29.235 127.125 28.6381V25.3624C127.125 24.7352 127.201 24.1912 127.352 23.7303C127.503 23.2693 127.767 22.9142 128.145 22.6648C128.531 22.4155 129.06 22.2908 129.732 22.2908C130.367 22.2908 130.862 22.4003 131.217 22.6195C131.58 22.8311 131.837 23.1371 131.988 23.5376C132.139 23.9381 132.214 24.4028 132.214 24.9317V25.7025H130.605V24.909C130.605 24.6521 130.59 24.4179 130.56 24.2063C130.537 23.9947 130.465 23.8285 130.344 23.7076C130.231 23.5791 130.031 23.5149 129.743 23.5149C129.456 23.5149 129.245 23.5829 129.109 23.7189C128.98 23.8474 128.897 24.025 128.859 24.2516C128.822 24.4708 128.803 24.7201 128.803 24.9997V28.9895C128.803 29.3219 128.829 29.5977 128.882 29.8169C128.935 30.0285 129.029 30.1909 129.165 30.3043C129.309 30.4101 129.502 30.4629 129.743 30.4629C130.023 30.4629 130.22 30.3987 130.333 30.2703C130.454 30.1342 130.529 29.9567 130.56 29.7375C130.59 29.5184 130.605 29.2728 130.605 29.0008V28.1734H132.214V28.9101C132.214 29.4542 132.143 29.9378 131.999 30.3609C131.855 30.7765 131.602 31.1052 131.24 31.347C130.884 31.5813 130.382 31.6984 129.732 31.6984ZM135.876 31.6984C135.226 31.6984 134.708 31.5775 134.323 31.3357C133.938 31.0939 133.662 30.7463 133.496 30.2929C133.329 29.8396 133.246 29.3031 133.246 28.6834V25.2491C133.246 24.6295 133.329 24.1005 133.496 23.6622C133.662 23.2164 133.938 22.8764 134.323 22.6421C134.708 22.4079 135.226 22.2908 135.876 22.2908C136.541 22.2908 137.062 22.4079 137.44 22.6421C137.825 22.8764 138.101 23.2164 138.267 23.6622C138.441 24.1005 138.528 24.6295 138.528 25.2491V28.6948C138.528 29.3068 138.441 29.8396 138.267 30.2929C138.101 30.7388 137.825 31.0863 137.44 31.3357C137.062 31.5775 136.541 31.6984 135.876 31.6984ZM135.876 30.4629C136.155 30.4629 136.359 30.4025 136.488 30.2816C136.624 30.1607 136.715 29.9945 136.76 29.7829C136.805 29.5713 136.828 29.3408 136.828 29.0915V24.8637C136.828 24.6068 136.805 24.3763 136.76 24.1723C136.715 23.9683 136.624 23.8096 136.488 23.6963C136.359 23.5754 136.155 23.5149 135.876 23.5149C135.611 23.5149 135.411 23.5754 135.275 23.6963C135.139 23.8096 135.048 23.9683 135.003 24.1723C134.958 24.3763 134.935 24.6068 134.935 24.8637V29.0915C134.935 29.3408 134.954 29.5713 134.992 29.7829C135.037 29.9945 135.128 30.1607 135.264 30.2816C135.4 30.4025 135.604 30.4629 135.876 30.4629ZM139.769 31.5737V22.3928H140.936L143.169 27.6293V22.3928H144.552V31.5737H143.441L141.197 26.0878V31.5737H139.769ZM146.864 31.5737V23.6282H145.401V22.3928H149.981V23.6282H148.541V31.5737H146.864ZM149.864 31.5737L151.7 22.3928H153.491L155.327 31.5737H153.774L153.412 29.4542H151.814L151.439 31.5737H149.864ZM151.984 28.3887H153.23L152.607 24.535L151.984 28.3887ZM156.296 31.5737V22.3928H157.951V31.5737H156.296ZM159.372 31.5737V22.3928H160.539L162.772 27.6293V22.3928H164.155V31.5737H163.044L160.8 26.0878V31.5737H159.372ZM165.548 31.5737V22.3928H169.402V23.5716H167.226V26.2125H168.937V27.38H167.226V30.4176H169.425V31.5737H165.548ZM170.397 31.5737V22.3928H172.595C173.215 22.3928 173.736 22.4683 174.16 22.6195C174.59 22.763 174.915 23.0124 175.134 23.3676C175.361 23.7227 175.474 24.2063 175.474 24.8184C175.474 25.1886 175.44 25.5211 175.372 25.8158C175.304 26.1105 175.187 26.3636 175.021 26.5752C174.862 26.7792 174.639 26.9379 174.352 27.0513L175.633 31.5737H173.956L172.845 27.3686H172.074V31.5737H170.397ZM172.074 26.3145H172.595C172.92 26.3145 173.177 26.2692 173.366 26.1785C173.563 26.0803 173.702 25.9291 173.786 25.7251C173.869 25.5136 173.91 25.2453 173.91 24.9204C173.91 24.4594 173.823 24.1156 173.65 23.8889C173.483 23.6547 173.162 23.5376 172.686 23.5376H172.074V26.3145ZM179.029 31.6984C178.477 31.6984 178.017 31.5926 177.646 31.381C177.276 31.1619 176.996 30.8445 176.808 30.4289C176.619 30.0133 176.513 29.5033 176.49 28.8988L177.93 28.6154C177.945 28.9706 177.986 29.2842 178.054 29.5562C178.13 29.8282 178.239 30.0398 178.383 30.1909C178.534 30.3345 178.731 30.4063 178.972 30.4063C179.244 30.4063 179.437 30.3269 179.55 30.1683C179.664 30.002 179.72 29.7942 179.72 29.5449C179.72 29.1444 179.63 28.8157 179.448 28.5588C179.267 28.3018 179.025 28.0449 178.723 27.788L177.567 26.7679C177.242 26.4883 176.981 26.1785 176.785 25.8385C176.596 25.4909 176.501 25.0639 176.501 24.5577C176.501 23.8323 176.713 23.2731 177.136 22.8802C177.559 22.4872 178.137 22.2908 178.87 22.2908C179.301 22.2908 179.66 22.3588 179.947 22.4948C180.234 22.6233 180.461 22.8046 180.627 23.0389C180.801 23.2731 180.929 23.5413 181.013 23.8436C181.096 24.1383 181.149 24.4519 181.171 24.7844L179.743 25.0337C179.728 24.7466 179.694 24.4897 179.641 24.263C179.596 24.0363 179.509 23.8587 179.38 23.7303C179.26 23.6018 179.078 23.5376 178.836 23.5376C178.587 23.5376 178.394 23.6207 178.258 23.7869C178.13 23.9456 178.066 24.1459 178.066 24.3877C178.066 24.6975 178.13 24.9544 178.258 25.1584C178.387 25.3549 178.572 25.5589 178.814 25.7705L179.959 26.7792C180.336 27.0966 180.657 27.4706 180.922 27.9014C181.194 28.3245 181.33 28.8383 181.33 29.4428C181.33 29.8811 181.232 30.2703 181.035 30.6103C180.846 30.9503 180.578 31.2186 180.231 31.415C179.89 31.604 179.49 31.6984 179.029 31.6984Z" fill="#0C2461"/>
<path d="M75.0202 44.5737V43.9573L76.6555 42.3542C76.8119 42.1963 76.9422 42.056 77.0465 41.9333C77.1508 41.8106 77.229 41.6918 77.2811 41.5768C77.3332 41.4618 77.3593 41.3391 77.3593 41.2088C77.3593 41.0601 77.3256 40.9328 77.2581 40.827C77.1906 40.7197 77.0979 40.6369 76.9798 40.5786C76.8617 40.5203 76.7275 40.4912 76.5773 40.4912C76.4224 40.4912 76.2867 40.5234 76.1702 40.5878C76.0536 40.6507 75.9632 40.7404 75.8988 40.8569C75.8359 40.9734 75.8045 41.1122 75.8045 41.2732H74.9926C74.9926 40.9742 75.0608 40.7143 75.1973 40.4935C75.3337 40.2727 75.5216 40.1017 75.7608 39.9806C76.0015 39.8595 76.2775 39.7989 76.5888 39.7989C76.9046 39.7989 77.1822 39.8579 77.4214 39.976C77.6606 40.0941 77.8461 40.2558 77.978 40.4613C78.1114 40.6668 78.1781 40.9014 78.1781 41.1651C78.1781 41.3414 78.1444 41.5147 78.0769 41.6849C78.0094 41.8551 77.8906 42.0437 77.7204 42.2507C77.5517 42.4577 77.3148 42.7084 77.0097 43.0028L76.1978 43.8285V43.8607H78.2494V44.5737H75.0202ZM80.6805 44.6381C80.3738 44.6381 80.0994 44.5806 79.8571 44.4656C79.6148 44.3491 79.4224 44.1896 79.2798 43.9872C79.1387 43.7848 79.0636 43.5533 79.0544 43.2926H79.8824C79.8977 43.4858 79.9813 43.6438 80.1331 43.7664C80.2849 43.8876 80.4674 43.9481 80.6805 43.9481C80.8477 43.9481 80.9964 43.9098 81.1267 43.8331C81.2571 43.7565 81.3598 43.6499 81.4349 43.5134C81.5101 43.377 81.5469 43.2213 81.5453 43.0465C81.5469 42.8686 81.5093 42.7107 81.4326 42.5727C81.356 42.4347 81.2509 42.3266 81.1175 42.2484C80.9841 42.1687 80.8308 42.1288 80.6575 42.1288C80.5164 42.1273 80.3777 42.1533 80.2412 42.207C80.1047 42.2607 79.9966 42.3312 79.9169 42.4186L79.1464 42.2921L79.3925 39.8633H82.1249V40.5763H80.0986L79.9629 41.8252H79.9905C80.0779 41.7225 80.2013 41.6374 80.3608 41.5699C80.5203 41.5009 80.6951 41.4664 80.8852 41.4664C81.1704 41.4664 81.425 41.5339 81.6488 41.6688C81.8727 41.8022 82.049 41.9862 82.1778 42.2208C82.3066 42.4554 82.371 42.7237 82.371 43.0258C82.371 43.3371 82.299 43.6146 82.1548 43.8584C82.0122 44.1007 81.8137 44.2916 81.5591 44.4311C81.3061 44.5691 81.0133 44.6381 80.6805 44.6381ZM84.8827 44.6634C84.5039 44.6634 84.1788 44.5676 83.9074 44.3759C83.6376 44.1827 83.4298 43.9044 83.2841 43.541C83.14 43.1761 83.0679 42.7368 83.0679 42.2231C83.0695 41.7094 83.1423 41.2724 83.2864 40.9121C83.4321 40.5502 83.6399 40.2742 83.9097 40.0841C84.1811 39.894 84.5055 39.7989 84.8827 39.7989C85.2599 39.7989 85.5842 39.894 85.8556 40.0841C86.127 40.2742 86.3347 40.5502 86.4789 40.9121C86.6245 41.274 86.6974 41.711 86.6974 42.2231C86.6974 42.7383 86.6245 43.1784 86.4789 43.5433C86.3347 43.9067 86.127 44.1843 85.8556 44.3759C85.5857 44.5676 85.2614 44.6634 84.8827 44.6634ZM84.8827 43.9435C85.1771 43.9435 85.4094 43.7986 85.5796 43.5088C85.7513 43.2175 85.8372 42.7889 85.8372 42.2231C85.8372 41.849 85.7981 41.5346 85.7199 41.2801C85.6417 41.0256 85.5313 40.8339 85.3887 40.7051C85.2461 40.5748 85.0774 40.5096 84.8827 40.5096C84.5898 40.5096 84.3582 40.6553 84.188 40.9466C84.0178 41.2364 83.932 41.6619 83.9304 42.2231C83.9289 42.5988 83.9665 42.9146 84.0431 43.1707C84.1213 43.4268 84.2317 43.62 84.3743 43.7503C84.517 43.8791 84.6864 43.9435 84.8827 43.9435ZM89.0072 45.9721C88.7082 45.9721 88.4513 45.9315 88.2367 45.8502C88.022 45.7705 87.8495 45.6632 87.7192 45.5282C87.5888 45.3933 87.4984 45.2438 87.4478 45.0797L88.1976 44.898C88.2313 44.967 88.2804 45.0353 88.3448 45.1027C88.4092 45.1717 88.4958 45.2285 88.6047 45.2729C88.7151 45.3189 88.8538 45.3419 89.021 45.3419C89.2571 45.3419 89.4526 45.2844 89.6075 45.1694C89.7623 45.056 89.8398 44.8689 89.8398 44.6082V43.9389H89.7984C89.7554 44.0248 89.6926 44.113 89.6098 44.2034C89.5285 44.2939 89.4204 44.3698 89.2855 44.4311C89.1521 44.4925 88.9842 44.5231 88.7818 44.5231C88.5104 44.5231 88.2643 44.4595 88.0435 44.3322C87.8242 44.2034 87.6494 44.0118 87.5191 43.7572C87.3903 43.5012 87.3259 43.1807 87.3259 42.7958C87.3259 42.4079 87.3903 42.0805 87.5191 41.8137C87.6494 41.5454 87.825 41.3422 88.0458 41.2042C88.2666 41.0647 88.5127 40.9949 88.7841 40.9949C88.9911 40.9949 89.1613 41.0302 89.2947 41.1007C89.4296 41.1697 89.5369 41.2533 89.6167 41.3514C89.6964 41.448 89.757 41.5392 89.7984 41.6251H89.8444V41.0409H90.6655V44.6312C90.6655 44.9333 90.5934 45.1832 90.4493 45.381C90.3051 45.5788 90.1081 45.7268 89.8582 45.8249C89.6082 45.9231 89.3246 45.9721 89.0072 45.9721ZM89.0141 43.8699C89.1904 43.8699 89.3407 43.827 89.4649 43.7411C89.5891 43.6553 89.6834 43.5318 89.7478 43.3708C89.8122 43.2098 89.8444 43.0166 89.8444 42.7912C89.8444 42.5689 89.8122 42.3741 89.7478 42.207C89.6849 42.0399 89.5914 41.9103 89.4672 41.8183C89.3445 41.7248 89.1935 41.678 89.0141 41.678C88.8285 41.678 88.6737 41.7263 88.5495 41.8229C88.4253 41.9195 88.3317 42.0521 88.2689 42.2208C88.206 42.3879 88.1746 42.5781 88.1746 42.7912C88.1746 43.0074 88.206 43.1968 88.2689 43.3593C88.3333 43.5203 88.4276 43.6461 88.5518 43.7365C88.6775 43.8255 88.8316 43.8699 89.0141 43.8699ZM92.4963 43.9297L92.4664 44.1827C92.4449 44.3759 92.4066 44.5722 92.3514 44.7715C92.2977 44.9724 92.241 45.1572 92.1812 45.3258C92.1214 45.4945 92.0731 45.6271 92.0363 45.7237H91.4751C91.4966 45.6302 91.5257 45.5029 91.5625 45.3419C91.6008 45.1809 91.6376 45 91.6729 44.7991C91.7082 44.5983 91.7319 44.3943 91.7442 44.1873L91.7603 43.9297H92.4963ZM96.5185 44.6381C96.2118 44.6381 95.9373 44.5806 95.6951 44.4656C95.4528 44.3491 95.2603 44.1896 95.1177 43.9872C94.9767 43.7848 94.9015 43.5533 94.8923 43.2926H95.7204C95.7357 43.4858 95.8193 43.6438 95.9711 43.7664C96.1229 43.8876 96.3053 43.9481 96.5185 43.9481C96.6856 43.9481 96.8343 43.9098 96.9647 43.8331C97.095 43.7565 97.1977 43.6499 97.2729 43.5134C97.348 43.377 97.3848 43.2213 97.3833 43.0465C97.3848 42.8686 97.3472 42.7107 97.2706 42.5727C97.1939 42.4347 97.0889 42.3266 96.9555 42.2484C96.8221 42.1687 96.6687 42.1288 96.4955 42.1288C96.3544 42.1273 96.2156 42.1533 96.0792 42.207C95.9427 42.2607 95.8346 42.3312 95.7549 42.4186L94.9843 42.2921L95.2304 39.8633H97.9629V40.5763H95.9366L95.8009 41.8252H95.8285C95.9159 41.7225 96.0393 41.6374 96.1988 41.5699C96.3582 41.5009 96.533 41.4664 96.7232 41.4664C97.0084 41.4664 97.2629 41.5339 97.4868 41.6688C97.7106 41.8022 97.887 41.9862 98.0158 42.2208C98.1446 42.4554 98.209 42.7237 98.209 43.0258C98.209 43.3371 98.1369 43.6146 97.9928 43.8584C97.8502 44.1007 97.6516 44.2916 97.3971 44.4311C97.1441 44.5691 96.8512 44.6381 96.5185 44.6381ZM100.721 44.6634C100.342 44.6634 100.017 44.5676 99.7454 44.3759C99.4755 44.1827 99.2677 43.9044 99.1221 43.541C98.9779 43.1761 98.9059 42.7368 98.9059 42.2231C98.9074 41.7094 98.9802 41.2724 99.1244 40.9121C99.27 40.5502 99.4778 40.2742 99.7477 40.0841C100.019 39.894 100.343 39.7989 100.721 39.7989C101.098 39.7989 101.422 39.894 101.694 40.0841C101.965 40.2742 102.173 40.5502 102.317 40.9121C102.462 41.274 102.535 41.711 102.535 42.2231C102.535 42.7383 102.462 43.1784 102.317 43.5433C102.173 43.9067 101.965 44.1843 101.694 44.3759C101.424 44.5676 101.099 44.6634 100.721 44.6634ZM100.721 43.9435C101.015 43.9435 101.247 43.7986 101.418 43.5088C101.589 43.2175 101.675 42.7889 101.675 42.2231C101.675 41.849 101.636 41.5346 101.558 41.2801C101.48 41.0256 101.369 40.8339 101.227 40.7051C101.084 40.5748 100.915 40.5096 100.721 40.5096C100.428 40.5096 100.196 40.6553 100.026 40.9466C99.8558 41.2364 99.7699 41.6619 99.7684 42.2231C99.7669 42.5988 99.8044 42.9146 99.8811 43.1707C99.9593 43.4268 100.07 43.62 100.212 43.7503C100.355 43.8791 100.524 43.9435 100.721 43.9435ZM105.041 44.6634C104.662 44.6634 104.337 44.5676 104.065 44.3759C103.796 44.1827 103.588 43.9044 103.442 43.541C103.298 43.1761 103.226 42.7368 103.226 42.2231C103.227 41.7094 103.3 41.2724 103.444 40.9121C103.59 40.5502 103.798 40.2742 104.068 40.0841C104.339 39.894 104.663 39.7989 105.041 39.7989C105.418 39.7989 105.742 39.894 106.014 40.0841C106.285 40.2742 106.493 40.5502 106.637 40.9121C106.782 41.274 106.855 41.711 106.855 42.2231C106.855 42.7383 106.782 43.1784 106.637 43.5433C106.493 43.9067 106.285 44.1843 106.014 44.3759C105.744 44.5676 105.419 44.6634 105.041 44.6634ZM105.041 43.9435C105.335 43.9435 105.567 43.7986 105.738 43.5088C105.909 43.2175 105.995 42.7889 105.995 42.2231C105.995 41.849 105.956 41.5346 105.878 41.2801C105.8 41.0256 105.689 40.8339 105.547 40.7051C105.404 40.5748 105.235 40.5096 105.041 40.5096C104.748 40.5096 104.516 40.6553 104.346 40.9466C104.176 41.2364 104.09 41.6619 104.088 42.2231C104.087 42.5988 104.124 42.9146 104.201 43.1707C104.279 43.4268 104.39 43.62 104.532 43.7503C104.675 43.8791 104.844 43.9435 105.041 43.9435ZM109.165 45.9721C108.866 45.9721 108.609 45.9315 108.395 45.8502C108.18 45.7705 108.007 45.6632 107.877 45.5282C107.747 45.3933 107.656 45.2438 107.606 45.0797L108.356 44.898C108.389 44.967 108.438 45.0353 108.503 45.1027C108.567 45.1717 108.654 45.2285 108.763 45.2729C108.873 45.3189 109.012 45.3419 109.179 45.3419C109.415 45.3419 109.611 45.2844 109.765 45.1694C109.92 45.056 109.998 44.8689 109.998 44.6082V43.9389H109.956C109.913 44.0248 109.851 44.113 109.768 44.2034C109.686 44.2939 109.578 44.3698 109.443 44.4311C109.31 44.4925 109.142 44.5231 108.94 44.5231C108.668 44.5231 108.422 44.4595 108.201 44.3322C107.982 44.2034 107.807 44.0118 107.677 43.7572C107.548 43.5012 107.484 43.1807 107.484 42.7958C107.484 42.4079 107.548 42.0805 107.677 41.8137C107.807 41.5454 107.983 41.3422 108.204 41.2042C108.425 41.0647 108.671 40.9949 108.942 40.9949C109.149 40.9949 109.319 41.0302 109.453 41.1007C109.588 41.1697 109.695 41.2533 109.775 41.3514C109.854 41.448 109.915 41.5392 109.956 41.6251H110.002V41.0409H110.823V44.6312C110.823 44.9333 110.751 45.1832 110.607 45.381C110.463 45.5788 110.266 45.7268 110.016 45.8249C109.766 45.9231 109.483 45.9721 109.165 45.9721ZM109.172 43.8699C109.348 43.8699 109.499 43.827 109.623 43.7411C109.747 43.6553 109.841 43.5318 109.906 43.3708C109.97 43.2098 110.002 43.0166 110.002 42.7912C110.002 42.5689 109.97 42.3741 109.906 42.207C109.843 42.0399 109.749 41.9103 109.625 41.8183C109.502 41.7248 109.351 41.678 109.172 41.678C108.986 41.678 108.832 41.7263 108.707 41.8229C108.583 41.9195 108.49 42.0521 108.427 42.2208C108.364 42.3879 108.333 42.5781 108.333 42.7912C108.333 43.0074 108.364 43.1968 108.427 43.3593C108.491 43.5203 108.586 43.6461 108.71 43.7365C108.835 43.8255 108.99 43.8699 109.172 43.8699ZM112.654 43.9297L112.624 44.1827C112.603 44.3759 112.565 44.5722 112.509 44.7715C112.456 44.9724 112.399 45.1572 112.339 45.3258C112.279 45.4945 112.231 45.6271 112.194 45.7237H111.633C111.655 45.6302 111.684 45.5029 111.72 45.3419C111.759 45.1809 111.796 45 111.831 44.7991C111.866 44.5983 111.89 44.3943 111.902 44.1873L111.918 43.9297H112.654ZM116.955 39.8633V44.5737H116.101V40.6936H116.074L114.972 41.3974V40.6154L116.143 39.8633H116.955ZM119.892 44.6634C119.513 44.6634 119.188 44.5676 118.917 44.3759C118.647 44.1827 118.439 43.9044 118.293 43.541C118.149 43.1761 118.077 42.7368 118.077 42.2231C118.079 41.7094 118.151 41.2724 118.296 40.9121C118.441 40.5502 118.649 40.2742 118.919 40.0841C119.19 39.894 119.515 39.7989 119.892 39.7989C120.269 39.7989 120.593 39.894 120.865 40.0841C121.136 40.2742 121.344 40.5502 121.488 40.9121C121.634 41.274 121.707 41.711 121.707 42.2231C121.707 42.7383 121.634 43.1784 121.488 43.5433C121.344 43.9067 121.136 44.1843 120.865 44.3759C120.595 44.5676 120.271 44.6634 119.892 44.6634ZM119.892 43.9435C120.186 43.9435 120.419 43.7986 120.589 43.5088C120.76 43.2175 120.846 42.7889 120.846 42.2231C120.846 41.849 120.807 41.5346 120.729 41.2801C120.651 41.0256 120.54 40.8339 120.398 40.7051C120.255 40.5748 120.087 40.5096 119.892 40.5096C119.599 40.5096 119.367 40.6553 119.197 40.9466C119.027 41.2364 118.941 41.6619 118.94 42.2231C118.938 42.5988 118.976 42.9146 119.052 43.1707C119.131 43.4268 119.241 43.62 119.384 43.7503C119.526 43.8791 119.696 43.9435 119.892 43.9435ZM124.212 44.6634C123.833 44.6634 123.508 44.5676 123.237 44.3759C122.967 44.1827 122.759 43.9044 122.613 43.541C122.469 43.1761 122.397 42.7368 122.397 42.2231C122.399 41.7094 122.472 41.2724 122.616 40.9121C122.761 40.5502 122.969 40.2742 123.239 40.0841C123.51 39.894 123.835 39.7989 124.212 39.7989C124.589 39.7989 124.913 39.894 125.185 40.0841C125.456 40.2742 125.664 40.5502 125.808 40.9121C125.954 41.274 126.027 41.711 126.027 42.2231C126.027 42.7383 125.954 43.1784 125.808 43.5433C125.664 43.9067 125.456 44.1843 125.185 44.3759C124.915 44.5676 124.591 44.6634 124.212 44.6634ZM124.212 43.9435C124.506 43.9435 124.739 43.7986 124.909 43.5088C125.08 43.2175 125.166 42.7889 125.166 42.2231C125.166 41.849 125.127 41.5346 125.049 41.2801C124.971 41.0256 124.86 40.8339 124.718 40.7051C124.575 40.5748 124.407 40.5096 124.212 40.5096C123.919 40.5096 123.687 40.6553 123.517 40.9466C123.347 41.2364 123.261 41.6619 123.26 42.2231C123.258 42.5988 123.296 42.9146 123.372 43.1707C123.451 43.4268 123.561 43.62 123.704 43.7503C123.846 43.8791 124.016 43.9435 124.212 43.9435ZM128.532 44.6634C128.153 44.6634 127.828 44.5676 127.557 44.3759C127.287 44.1827 127.079 43.9044 126.933 43.541C126.789 43.1761 126.717 42.7368 126.717 42.2231C126.719 41.7094 126.792 41.2724 126.936 40.9121C127.081 40.5502 127.289 40.2742 127.559 40.0841C127.83 39.894 128.155 39.7989 128.532 39.7989C128.909 39.7989 129.233 39.894 129.505 40.0841C129.776 40.2742 129.984 40.5502 130.128 40.9121C130.274 41.274 130.347 41.711 130.347 42.2231C130.347 42.7383 130.274 43.1784 130.128 43.5433C129.984 43.9067 129.776 44.1843 129.505 44.3759C129.235 44.5676 128.911 44.6634 128.532 44.6634ZM128.532 43.9435C128.826 43.9435 129.059 43.7986 129.229 43.5088C129.401 43.2175 129.486 42.7889 129.486 42.2231C129.486 41.849 129.447 41.5346 129.369 41.2801C129.291 41.0256 129.18 40.8339 129.038 40.7051C128.895 40.5748 128.727 40.5096 128.532 40.5096C128.239 40.5096 128.007 40.6553 127.837 40.9466C127.667 41.2364 127.581 41.6619 127.58 42.2231C127.578 42.5988 127.616 42.9146 127.692 43.1707C127.771 43.4268 127.881 43.62 128.024 43.7503C128.166 43.8791 128.336 43.9435 128.532 43.9435ZM132.656 45.9721C132.357 45.9721 132.101 45.9315 131.886 45.8502C131.671 45.7705 131.499 45.6632 131.368 45.5282C131.238 45.3933 131.148 45.2438 131.097 45.0797L131.847 44.898C131.881 44.967 131.93 45.0353 131.994 45.1027C132.058 45.1717 132.145 45.2285 132.254 45.2729C132.364 45.3189 132.503 45.3419 132.67 45.3419C132.906 45.3419 133.102 45.2844 133.257 45.1694C133.412 45.056 133.489 44.8689 133.489 44.6082V43.9389H133.448C133.405 44.0248 133.342 44.113 133.259 44.2034C133.178 44.2939 133.07 44.3698 132.935 44.4311C132.801 44.4925 132.633 44.5231 132.431 44.5231C132.16 44.5231 131.913 44.4595 131.693 44.3322C131.473 44.2034 131.299 44.0118 131.168 43.7572C131.039 43.5012 130.975 43.1807 130.975 42.7958C130.975 42.4079 131.039 42.0805 131.168 41.8137C131.299 41.5454 131.474 41.3422 131.695 41.2042C131.916 41.0647 132.162 40.9949 132.433 40.9949C132.64 40.9949 132.81 41.0302 132.944 41.1007C133.079 41.1697 133.186 41.2533 133.266 41.3514C133.346 41.448 133.406 41.5392 133.448 41.6251H133.494V41.0409H134.315V44.6312C134.315 44.9333 134.243 45.1832 134.098 45.381C133.954 45.5788 133.757 45.7268 133.507 45.8249C133.257 45.9231 132.974 45.9721 132.656 45.9721ZM132.663 43.8699C132.84 43.8699 132.99 43.827 133.114 43.7411C133.238 43.6553 133.333 43.5318 133.397 43.3708C133.461 43.2098 133.494 43.0166 133.494 42.7912C133.494 42.5689 133.461 42.3741 133.397 42.207C133.334 42.0399 133.241 41.9103 133.116 41.8183C132.994 41.7248 132.843 41.678 132.663 41.678C132.478 41.678 132.323 41.7263 132.199 41.8229C132.074 41.9195 131.981 42.0521 131.918 42.2208C131.855 42.3879 131.824 42.5781 131.824 42.7912C131.824 43.0074 131.855 43.1968 131.918 43.3593C131.982 43.5203 132.077 43.6461 132.201 43.7365C132.327 43.8255 132.481 43.8699 132.663 43.8699Z" fill="#878C90"/>
<path d="M212.356 40.7675V40.1651H214.902V40.7675H212.356ZM216.066 40.7675V40.1651H218.611V40.7675H216.066ZM219.776 40.7675V40.1651H222.321V40.7675H219.776ZM223.485 40.7675V40.1651H226.031V40.7675H223.485ZM227.195 40.7675V40.1651H229.74V40.7675H227.195ZM230.905 40.7675V40.1651H233.45V40.7675H230.905ZM234.614 40.7675V40.1651H237.16V40.7675H234.614ZM238.324 40.7675V40.1651H240.869V40.7675H238.324ZM242.034 40.7675V40.1651H244.579V40.7675H242.034ZM245.743 40.7675V40.1651H248.289V40.7675H245.743ZM249.453 40.7675V40.1651H251.998V40.7675H249.453ZM253.162 40.7675V40.1651H255.708V40.7675H253.162ZM256.872 40.7675V40.1651H259.418V40.7675H256.872ZM260.582 40.7675V40.1651H263.127V40.7675H260.582ZM264.291 40.7675V40.1651H266.837V40.7675H264.291ZM268.001 40.7675V40.1651H270.546V40.7675H268.001ZM271.711 40.7675V40.1651H274.256V40.7675H271.711ZM275.42 40.7675V40.1651H277.966V40.7675H275.42ZM279.13 40.7675V40.1651H281.675V40.7675H279.13ZM282.84 40.7675V40.1651H285.385V40.7675H282.84ZM286.549 40.7675V40.1651H289.095V40.7675H286.549ZM290.259 40.7675V40.1651H292.804V40.7675H290.259ZM293.969 40.7675V40.1651H296.514V40.7675H293.969ZM297.678 40.7675V40.1651H300.224V40.7675H297.678ZM301.388 40.7675V40.1651H303.933V40.7675H301.388ZM305.097 40.7675V40.1651H307.643V40.7675H305.097ZM308.807 40.7675V40.1651H311.353V40.7675H308.807ZM312.517 40.7675V40.1651H315.062V40.7675H312.517ZM316.226 40.7675V40.1651H318.772V40.7675H316.226ZM319.936 40.7675V40.1651H322.481V40.7675H319.936ZM323.646 40.7675V40.1651H326.191V40.7675H323.646ZM327.355 40.7675V40.1651H329.901V40.7675H327.355ZM331.065 40.7675V40.1651H333.61V40.7675H331.065ZM334.775 40.7675V40.1651H337.32V40.7675H334.775Z" fill="#8F8E8E"/>
<rect x="337.667" y="21.5488" width="50.1956" height="37.2419" rx="5.26245" fill="#F1F3F2" stroke="#ADB4B7" stroke-width="0.809607"/>
<path d="M353.428 39.7768C353.428 38.1058 353.749 36.7894 354.39 35.8276C355.041 34.8658 356.085 34.3849 357.523 34.3849C358.961 34.3849 360.001 34.8658 360.642 35.8276C361.293 36.7894 361.618 38.1058 361.618 39.7768C361.618 41.4673 361.293 42.7934 360.642 43.7553C360.001 44.7171 358.961 45.198 357.523 45.198C356.085 45.198 355.041 44.7171 354.39 43.7553C353.749 42.7934 353.428 41.4673 353.428 39.7768ZM359.17 39.7768C359.17 38.7956 359.063 38.0427 358.849 37.518C358.636 36.9837 358.194 36.7165 357.523 36.7165C356.853 36.7165 356.411 36.9837 356.197 37.518C355.983 38.0427 355.877 38.7956 355.877 39.7768C355.877 40.4375 355.915 40.9864 355.993 41.4236C356.071 41.8511 356.226 42.2008 356.46 42.4728C356.702 42.7352 357.057 42.8663 357.523 42.8663C357.99 42.8663 358.339 42.7352 358.573 42.4728C358.815 42.2008 358.976 41.8511 359.054 41.4236C359.131 40.9864 359.17 40.4375 359.17 39.7768ZM362.993 43.3472V41.3362L367.598 34.7492H370.382V41.1904H371.577V43.3472H370.382V45.2417H367.89V43.3472H362.993ZM368.065 37.4889L365.616 41.1904H368.065V37.4889Z" fill="#36404B"/>
<defs>
<filter id="filter0_d_1104_102" x="0.000161171" y="-0.000179291" width="419.203" height="85.1745" filterUnits="userSpaceOnUse" color-interpolation-filters="sRGB">
<feFlood flood-opacity="0" result="BackgroundImageFix"/>
<feColorMatrix in="SourceAlpha" type="matrix" values="0 0 0 0 0 0 0 0 0 0 0 0 0 0 0 0 0 0 127 0" result="hardAlpha"/>
<feOffset dy="3.23843"/>
<feGaussianBlur stdDeviation="6.8007"/>
<feComposite in2="hardAlpha" operator="out"/>
<feColorMatrix type="matrix" values="0 0 0 0 0 0 0 0 0 0 0 0 0 0 0 0 0 0 0.17 0"/>
<feBlend mode="normal" in2="BackgroundImageFix" result="effect1_dropShadow_1104_102"/>
<feBlend mode="normal" in="SourceGraphic" in2="effect1_dropShadow_1104_102" result="shape"/>
</filter>
</defs>
</svg>
