<svg width="420" height="86" viewBox="0 0 420 86" fill="none" xmlns="http://www.w3.org/2000/svg">
<g filter="url(#filter0_d_1104_112)">
<rect x="13.6016" y="10.3628" width="392" height="57.9718" rx="10.5249" fill="#FEFFFE"/>
</g>
<circle cx="43.3389" cy="37.7622" r="21.0498" fill="#D9F2EE"/>
<circle cx="43.5575" cy="37.762" r="17.8114" fill="#0C2461"/>
<path d="M40.281 44.8841C39.5718 44.8841 38.9791 44.7432 38.5031 44.4615C38.027 44.17 37.6676 43.7717 37.4247 43.2665C37.1818 42.7613 37.0604 42.1736 37.0604 41.5032V36.1549C37.0604 35.4651 37.1721 34.8628 37.3956 34.3479C37.6287 33.8233 37.9833 33.4152 38.4594 33.1238C38.9354 32.8323 39.5426 32.6866 40.281 32.6866C41.0194 32.6866 41.6217 32.8323 42.088 33.1238C42.5641 33.4152 42.9138 33.8233 43.1373 34.3479C43.3705 34.8628 43.487 35.4651 43.487 36.1549V41.5032C43.487 42.1638 43.3656 42.7516 43.1227 43.2665C42.8798 43.7717 42.5204 44.17 42.0443 44.4615C41.5683 44.7432 40.9805 44.8841 40.281 44.8841ZM40.281 42.7128C40.5142 42.7128 40.6793 42.6399 40.7765 42.4942C40.8833 42.3387 40.9465 42.1638 40.9659 41.9695C40.9951 41.7655 41.0096 41.5906 41.0096 41.4449V36.2132C41.0096 36.0481 40.9999 35.8635 40.9805 35.6595C40.9611 35.4457 40.8979 35.2611 40.791 35.1057C40.6939 34.9405 40.5239 34.8579 40.281 34.8579C40.0381 34.8579 39.8632 34.9405 39.7564 35.1057C39.6592 35.2611 39.6009 35.4457 39.5815 35.6595C39.5621 35.8635 39.5523 36.0481 39.5523 36.2132V41.4449C39.5523 41.5906 39.5669 41.7655 39.5961 41.9695C39.6252 42.1638 39.6884 42.3387 39.7855 42.4942C39.8924 42.6399 40.0575 42.7128 40.281 42.7128ZM48.2933 44.8841C47.4286 44.8841 46.7728 44.7335 46.3259 44.4324C45.8887 44.1215 45.5924 43.6891 45.437 43.1354C45.2815 42.5816 45.2038 41.9404 45.2038 41.2117H47.55C47.55 41.6586 47.5743 42.023 47.6229 42.3047C47.6715 42.5865 47.7589 42.7905 47.8852 42.9168C48.0212 43.0334 48.2107 43.0868 48.4536 43.0771C48.7062 43.0674 48.8859 42.9654 48.9928 42.771C49.0996 42.5767 49.1628 42.2999 49.1822 41.9404C49.2114 41.5712 49.2259 41.1292 49.2259 40.6143C49.2259 40.2256 49.2016 39.8807 49.1531 39.5796C49.1142 39.2784 49.0268 39.0404 48.8908 38.8655C48.7645 38.6809 48.5701 38.5886 48.3078 38.5886C48.065 38.5886 47.8658 38.6761 47.7103 38.8509C47.5549 39.0258 47.4432 39.2978 47.3752 39.667H45.2767L45.4953 32.8615H51.0038V34.9017H47.448L47.3169 37.3353C47.414 37.1993 47.5986 37.0827 47.8706 36.9856C48.1427 36.8787 48.4341 36.8107 48.745 36.7816C49.3474 36.7136 49.8526 36.8253 50.2606 37.1167C50.6784 37.3985 50.9893 37.8308 51.1933 38.4137C51.407 38.9967 51.5139 39.7107 51.5139 40.556C51.5139 41.1875 51.475 41.7704 51.3973 42.3047C51.3196 42.8293 51.169 43.286 50.9455 43.6746C50.7221 44.0535 50.3966 44.3498 49.9691 44.5635C49.5417 44.7773 48.983 44.8841 48.2933 44.8841Z" fill="#FEFFFE"/>
<path d="M77.6052 32.3136C77.0536 32.3136 76.5927 32.2079 76.2224 31.9963C75.8521 31.7771 75.5726 31.4598 75.3836 31.0442C75.1947 30.6286 75.0889 30.1185 75.0663 29.514L76.5058 29.2307C76.5209 29.5858 76.5624 29.8994 76.6304 30.1714C76.706 30.4435 76.8156 30.655 76.9591 30.8062C77.1103 30.9497 77.3067 31.0215 77.5485 31.0215C77.8206 31.0215 78.0132 30.9422 78.1266 30.7835C78.2399 30.6172 78.2966 30.4094 78.2966 30.1601C78.2966 29.7596 78.2059 29.4309 78.0246 29.174C77.8432 28.9171 77.6014 28.6602 77.2992 28.4032L76.1431 27.3831C75.8181 27.1036 75.5574 26.7937 75.361 26.4537C75.1721 26.1061 75.0776 25.6792 75.0776 25.1729C75.0776 24.4475 75.2892 23.8883 75.7123 23.4954C76.1355 23.1025 76.7136 22.906 77.4465 22.906C77.8772 22.906 78.2362 22.974 78.5233 23.11C78.8104 23.2385 79.0371 23.4198 79.2034 23.6541C79.3772 23.8883 79.5056 24.1566 79.5887 24.4588C79.6719 24.7535 79.7248 25.0671 79.7474 25.3996L78.3193 25.649C78.3042 25.3618 78.2702 25.1049 78.2173 24.8782C78.1719 24.6515 78.085 24.4739 77.9566 24.3455C77.8357 24.217 77.6543 24.1528 77.4125 24.1528C77.1632 24.1528 76.9705 24.2359 76.8345 24.4022C76.706 24.5608 76.6418 24.7611 76.6418 25.0029C76.6418 25.3127 76.706 25.5696 76.8345 25.7736C76.9629 25.9701 77.148 26.1741 77.3898 26.3857L78.5346 27.3945C78.9125 27.7118 79.2336 28.0859 79.4981 28.5166C79.7701 28.9397 79.9061 29.4536 79.9061 30.0581C79.9061 30.4963 79.8079 30.8855 79.6114 31.2255C79.4225 31.5656 79.1543 31.8338 78.8067 32.0303C78.4666 32.2192 78.0661 32.3136 77.6052 32.3136ZM81.8572 32.189L80.5538 23.008H81.9592L82.7187 28.9586L83.6708 23.0307H84.8155L85.7903 28.9586L86.5384 23.008H87.9212L86.6404 32.189H85.2803L84.2602 26.0343L83.2514 32.189H81.8572ZM88.963 32.189V23.008H92.8167V24.1868H90.6405V26.8277H92.352V27.9952H90.6405V31.0328H92.8394V32.189H88.963ZM93.8112 32.189V23.008H97.6649V24.1868H95.4887V26.8277H97.2002V27.9952H95.4887V31.0328H97.6876V32.189H93.8112ZM99.5774 32.189V24.2435H98.1153V23.008H102.694V24.2435H101.255V32.189H99.5774ZM106.286 32.189V23.008H108.541C108.949 23.008 109.316 23.0458 109.641 23.1214C109.973 23.1969 110.257 23.3254 110.491 23.5067C110.733 23.6805 110.918 23.9186 111.046 24.2208C111.175 24.5231 111.239 24.9047 111.239 25.3656C111.239 25.7359 111.186 26.0532 111.08 26.3177C110.982 26.5822 110.835 26.7937 110.638 26.9524C110.442 27.1036 110.196 27.2056 109.901 27.2585C110.264 27.3189 110.563 27.4474 110.797 27.6438C111.039 27.8327 111.216 28.0821 111.33 28.3919C111.45 28.7017 111.511 29.0758 111.511 29.514C111.511 29.9523 111.454 30.3414 111.341 30.6815C111.235 31.014 111.073 31.2935 110.854 31.5202C110.642 31.7394 110.374 31.9056 110.049 32.0189C109.731 32.1323 109.357 32.189 108.927 32.189H106.286ZM107.963 31.0102H108.598C109.104 31.0102 109.448 30.8893 109.629 30.6475C109.811 30.3981 109.901 30.0165 109.901 29.5027C109.901 29.1324 109.856 28.834 109.765 28.6073C109.682 28.373 109.539 28.1992 109.335 28.0859C109.138 27.9725 108.874 27.9159 108.541 27.9159H107.963V31.0102ZM107.963 26.7597H108.53C108.862 26.7597 109.119 26.7106 109.301 26.6124C109.482 26.5142 109.607 26.363 109.675 26.159C109.75 25.955 109.788 25.6981 109.788 25.3883C109.788 25.0633 109.731 24.814 109.618 24.6402C109.512 24.4588 109.35 24.3379 109.131 24.2775C108.912 24.2095 108.632 24.1755 108.292 24.1755H107.963V26.7597ZM115.089 32.3136C114.439 32.3136 113.921 32.1927 113.536 31.9509C113.15 31.7091 112.875 31.3615 112.708 30.9082C112.542 30.4548 112.459 29.9183 112.459 29.2987V25.8643C112.459 25.2447 112.542 24.7157 112.708 24.2775C112.875 23.8317 113.15 23.4916 113.536 23.2574C113.921 23.0231 114.439 22.906 115.089 22.906C115.754 22.906 116.275 23.0231 116.653 23.2574C117.038 23.4916 117.314 23.8317 117.48 24.2775C117.654 24.7157 117.741 25.2447 117.741 25.8643V29.31C117.741 29.9221 117.654 30.4548 117.48 30.9082C117.314 31.354 117.038 31.7016 116.653 31.9509C116.275 32.1927 115.754 32.3136 115.089 32.3136ZM115.089 31.0782C115.368 31.0782 115.572 31.0177 115.701 30.8968C115.837 30.7759 115.927 30.6097 115.973 30.3981C116.018 30.1865 116.041 29.9561 116.041 29.7067V25.4789C116.041 25.222 116.018 24.9916 115.973 24.7875C115.927 24.5835 115.837 24.4248 115.701 24.3115C115.572 24.1906 115.368 24.1301 115.089 24.1301C114.824 24.1301 114.624 24.1906 114.488 24.3115C114.352 24.4248 114.261 24.5835 114.216 24.7875C114.17 24.9916 114.148 25.222 114.148 25.4789V29.7067C114.148 29.9561 114.167 30.1865 114.204 30.3981C114.25 30.6097 114.341 30.7759 114.477 30.8968C114.613 31.0177 114.817 31.0782 115.089 31.0782ZM118.271 32.189L120.118 27.3151L118.327 23.008H119.892L121.082 25.853L122.125 23.008H123.575L121.807 27.6325L123.711 32.189H122.147L120.844 29.106L119.71 32.189H118.271ZM129.811 34.2972C129.343 34.2972 128.958 34.1914 128.655 33.9798C128.353 33.7758 128.111 33.4887 127.93 33.1184C127.749 32.7557 127.613 32.3363 127.522 31.8603C127.439 31.3767 127.386 30.859 127.363 30.3074C127.341 29.7558 127.329 29.1967 127.329 28.6299C127.329 28.0405 127.341 27.4663 127.363 26.9071C127.386 26.3479 127.439 25.8265 127.522 25.3429C127.613 24.8593 127.749 24.4362 127.93 24.0735C128.111 23.7108 128.353 23.4274 128.655 23.2234C128.958 23.0194 129.343 22.9173 129.811 22.9173V23.9828C129.577 23.9828 129.388 24.1037 129.245 24.3455C129.109 24.5873 129.007 24.9198 128.939 25.3429C128.871 25.7661 128.825 26.261 128.803 26.8277C128.788 27.3869 128.78 27.9876 128.78 28.6299C128.78 29.2873 128.788 29.8956 128.803 30.4548C128.825 31.014 128.871 31.5013 128.939 31.9169C129.014 32.3325 129.12 32.6537 129.256 32.8804C129.392 33.1146 129.577 33.2355 129.811 33.2431V34.2972ZM130.926 32.189V23.008H132.581V32.189H130.926ZM133.979 32.189L134.138 23.008H135.872L137.176 29.3667L138.536 23.008H140.213L140.383 32.189H139.137L139.001 25.8076L137.697 32.189H136.688L135.362 25.785L135.238 32.189H133.979ZM141.739 32.189V23.008H143.417V31.0328H145.638V32.189H141.739ZM146.181 34.2972V33.2317C146.415 33.2317 146.601 33.1146 146.737 32.8804C146.88 32.6461 146.986 32.3212 147.054 31.9056C147.122 31.4824 147.167 30.9913 147.19 30.4321C147.213 29.8729 147.224 29.2684 147.224 28.6186C147.224 27.9688 147.213 27.3642 147.19 26.8051C147.167 26.2384 147.122 25.7472 147.054 25.3316C146.994 24.9084 146.892 24.5797 146.748 24.3455C146.612 24.1037 146.423 23.979 146.181 23.9715V22.9173C146.65 22.9173 147.035 23.0194 147.337 23.2234C147.647 23.4198 147.893 23.7032 148.074 24.0735C148.255 24.4362 148.388 24.8593 148.471 25.3429C148.554 25.819 148.607 26.3366 148.629 26.8958C148.652 27.4474 148.663 28.0216 148.663 28.6186C148.663 29.1853 148.652 29.7445 148.629 30.2961C148.607 30.8477 148.554 31.3653 148.471 31.8489C148.388 32.3325 148.255 32.7557 148.074 33.1184C147.893 33.4887 147.647 33.7758 147.337 33.9798C147.035 34.1914 146.65 34.2972 146.181 34.2972ZM155.08 32.3136C154.407 32.3136 153.878 32.1814 153.493 31.9169C153.115 31.6525 152.851 31.2935 152.7 30.8402C152.548 30.3792 152.473 29.8503 152.473 29.2533V25.9777C152.473 25.3505 152.548 24.8064 152.7 24.3455C152.851 23.8846 153.115 23.5294 153.493 23.28C153.878 23.0307 154.407 22.906 155.08 22.906C155.715 22.906 156.209 23.0156 156.565 23.2347C156.927 23.4463 157.184 23.7523 157.335 24.1528C157.486 24.5533 157.562 25.018 157.562 25.5469V26.3177H155.953V25.5243C155.953 25.2674 155.937 25.0331 155.907 24.8215C155.885 24.61 155.813 24.4437 155.692 24.3228C155.579 24.1944 155.378 24.1301 155.091 24.1301C154.804 24.1301 154.592 24.1981 154.456 24.3342C154.328 24.4626 154.245 24.6402 154.207 24.8669C154.169 25.086 154.15 25.3354 154.15 25.615V29.6047C154.15 29.9372 154.177 30.213 154.23 30.4321C154.283 30.6437 154.377 30.8062 154.513 30.9195C154.657 31.0253 154.849 31.0782 155.091 31.0782C155.371 31.0782 155.567 31.014 155.681 30.8855C155.801 30.7495 155.877 30.5719 155.907 30.3528C155.937 30.1336 155.953 29.8881 155.953 29.616V28.7886H157.562V29.5254C157.562 30.0694 157.49 30.553 157.347 30.9762C157.203 31.3918 156.95 31.7205 156.587 31.9623C156.232 32.1965 155.73 32.3136 155.08 32.3136ZM161.224 32.3136C160.574 32.3136 160.056 32.1927 159.671 31.9509C159.285 31.7091 159.01 31.3615 158.843 30.9082C158.677 30.4548 158.594 29.9183 158.594 29.2987V25.8643C158.594 25.2447 158.677 24.7157 158.843 24.2775C159.01 23.8317 159.285 23.4916 159.671 23.2574C160.056 23.0231 160.574 22.906 161.224 22.906C161.888 22.906 162.41 23.0231 162.788 23.2574C163.173 23.4916 163.449 23.8317 163.615 24.2775C163.789 24.7157 163.876 25.2447 163.876 25.8643V29.31C163.876 29.9221 163.789 30.4548 163.615 30.9082C163.449 31.354 163.173 31.7016 162.788 31.9509C162.41 32.1927 161.888 32.3136 161.224 32.3136ZM161.224 31.0782C161.503 31.0782 161.707 31.0177 161.836 30.8968C161.972 30.7759 162.062 30.6097 162.108 30.3981C162.153 30.1865 162.176 29.9561 162.176 29.7067V25.4789C162.176 25.222 162.153 24.9916 162.108 24.7875C162.062 24.5835 161.972 24.4248 161.836 24.3115C161.707 24.1906 161.503 24.1301 161.224 24.1301C160.959 24.1301 160.759 24.1906 160.623 24.3115C160.487 24.4248 160.396 24.5835 160.351 24.7875C160.305 24.9916 160.283 25.222 160.283 25.4789V29.7067C160.283 29.9561 160.302 30.1865 160.339 30.3981C160.385 30.6097 160.475 30.7759 160.611 30.8968C160.747 31.0177 160.952 31.0782 161.224 31.0782ZM165.117 32.189V23.008H166.284L168.517 28.2446V23.008H169.9V32.189H168.789L166.545 26.7031V32.189H165.117ZM172.211 32.189V24.2435H170.749V23.008H175.328V24.2435H173.889V32.189H172.211ZM175.212 32.189L177.048 23.008H178.839L180.675 32.189H179.122L178.759 30.0694H177.161L176.787 32.189H175.212ZM177.331 29.004H178.578L177.955 25.1502L177.331 29.004ZM181.644 32.189V23.008H183.298V32.189H181.644ZM184.72 32.189V23.008H185.887L188.12 28.2446V23.008H189.503V32.189H188.392L186.148 26.7031V32.189H184.72ZM190.896 32.189V23.008H194.75V24.1868H192.574V26.8277H194.285V27.9952H192.574V31.0328H194.772V32.189H190.896ZM195.744 32.189V23.008H197.943C198.563 23.008 199.084 23.0836 199.507 23.2347C199.938 23.3783 200.263 23.6276 200.482 23.9828C200.709 24.3379 200.822 24.8215 200.822 25.4336C200.822 25.8039 200.788 26.1363 200.72 26.431C200.652 26.7257 200.535 26.9789 200.369 27.1904C200.21 27.3945 199.987 27.5532 199.7 27.6665L200.981 32.189H199.303L198.192 27.9839H197.422V32.189H195.744ZM197.422 26.9298H197.943C198.268 26.9298 198.525 26.8844 198.714 26.7937C198.91 26.6955 199.05 26.5444 199.133 26.3404C199.216 26.1288 199.258 25.8605 199.258 25.5356C199.258 25.0747 199.171 24.7309 198.997 24.5042C198.831 24.2699 198.51 24.1528 198.034 24.1528H197.422V26.9298Z" fill="#0C2461"/>
<path d="M76.6578 45.2534C76.3511 45.2534 76.0766 45.1959 75.8344 45.0809C75.5921 44.9643 75.3997 44.8049 75.2571 44.6025C75.116 44.4001 75.0409 44.1685 75.0317 43.9079H75.8597C75.875 44.1011 75.9586 44.259 76.1104 44.3817C76.2622 44.5028 76.4446 44.5634 76.6578 44.5634C76.8249 44.5634 76.9737 44.525 77.104 44.4484C77.2343 44.3717 77.3371 44.2651 77.4122 44.1287C77.4873 43.9922 77.5241 43.8366 77.5226 43.6618C77.5241 43.4839 77.4866 43.3259 77.4099 43.1879C77.3332 43.0499 77.2282 42.9418 77.0948 42.8636C76.9614 42.7839 76.808 42.744 76.6348 42.744C76.4937 42.7425 76.3549 42.7686 76.2185 42.8222C76.082 42.8759 75.9739 42.9464 75.8942 43.0338L75.1237 42.9073L75.3698 40.4785H78.1022V41.1915H76.0759L75.9402 42.4404H75.9678C76.0552 42.3377 76.1786 42.2526 76.3381 42.1851C76.4975 42.1161 76.6723 42.0816 76.8625 42.0816C77.1477 42.0816 77.4022 42.1491 77.6261 42.284C77.85 42.4174 78.0263 42.6014 78.1551 42.836C78.2839 43.0706 78.3483 43.339 78.3483 43.6411C78.3483 43.9523 78.2762 44.2299 78.1321 44.4737C77.9895 44.7159 77.7909 44.9068 77.5364 45.0464C77.2834 45.1844 76.9905 45.2534 76.6578 45.2534ZM80.8599 45.2787C80.4812 45.2787 80.1561 45.1828 79.8847 44.9912C79.6148 44.798 79.4071 44.5197 79.2614 44.1563C79.1173 43.7913 79.0452 43.352 79.0452 42.8383C79.0467 42.3247 79.1196 41.8877 79.2637 41.5273C79.4094 41.1655 79.6171 40.8895 79.887 40.6993C80.1584 40.5092 80.4827 40.4141 80.8599 40.4141C81.2371 40.4141 81.5614 40.5092 81.8328 40.6993C82.1042 40.8895 82.312 41.1655 82.4561 41.5273C82.6018 41.8892 82.6746 42.3262 82.6746 42.8383C82.6746 43.3535 82.6018 43.7936 82.4561 44.1586C82.312 44.522 82.1042 44.7995 81.8328 44.9912C81.563 45.1828 81.2387 45.2787 80.8599 45.2787ZM80.8599 44.5588C81.1543 44.5588 81.3866 44.4139 81.5568 44.1241C81.7286 43.8327 81.8144 43.4041 81.8144 42.8383C81.8144 42.4642 81.7753 42.1499 81.6971 41.8953C81.6189 41.6408 81.5085 41.4491 81.3659 41.3203C81.2233 41.19 81.0547 41.1248 80.8599 41.1248C80.567 41.1248 80.3355 41.2705 80.1653 41.5618C79.9951 41.8516 79.9092 42.2771 79.9077 42.8383C79.9062 43.214 79.9437 43.5299 80.0204 43.786C80.0986 44.042 80.209 44.2352 80.3516 44.3656C80.4942 44.4944 80.6637 44.5588 80.8599 44.5588ZM85.1799 45.2787C84.8012 45.2787 84.4761 45.1828 84.2047 44.9912C83.9349 44.798 83.7271 44.5197 83.5814 44.1563C83.4373 43.7913 83.3652 43.352 83.3652 42.8383C83.3667 42.3247 83.4396 41.8877 83.5837 41.5273C83.7294 41.1655 83.9372 40.8895 84.207 40.6993C84.4784 40.5092 84.8027 40.4141 85.1799 40.4141C85.5571 40.4141 85.8814 40.5092 86.1528 40.6993C86.4242 40.8895 86.632 41.1655 86.7761 41.5273C86.9218 41.8892 86.9946 42.3262 86.9946 42.8383C86.9946 43.3535 86.9218 43.7936 86.7761 44.1586C86.632 44.522 86.4242 44.7995 86.1528 44.9912C85.883 45.1828 85.5587 45.2787 85.1799 45.2787ZM85.1799 44.5588C85.4743 44.5588 85.7066 44.4139 85.8768 44.1241C86.0486 43.8327 86.1344 43.4041 86.1344 42.8383C86.1344 42.4642 86.0953 42.1499 86.0171 41.8953C85.9389 41.6408 85.8285 41.4491 85.6859 41.3203C85.5433 41.19 85.3747 41.1248 85.1799 41.1248C84.8871 41.1248 84.6555 41.2705 84.4853 41.5618C84.3151 41.8516 84.2293 42.2771 84.2277 42.8383C84.2262 43.214 84.2638 43.5299 84.3404 43.786C84.4186 44.042 84.529 44.2352 84.6716 44.3656C84.8142 44.4944 84.9837 44.5588 85.1799 44.5588ZM89.3044 46.5874C89.0054 46.5874 88.7486 46.5467 88.5339 46.4655C88.3193 46.3857 88.1468 46.2784 88.0164 46.1435C87.8861 46.0085 87.7956 45.859 87.745 45.695L88.4948 45.5133C88.5286 45.5823 88.5776 45.6505 88.642 45.718C88.7064 45.787 88.7931 45.8437 88.9019 45.8882C89.0123 45.9342 89.1511 45.9572 89.3182 45.9572C89.5544 45.9572 89.7499 45.8997 89.9048 45.7847C90.0596 45.6712 90.1371 45.4841 90.1371 45.2235V44.5542H90.0957C90.0527 44.64 89.9899 44.7282 89.9071 44.8187C89.8258 44.9091 89.7177 44.985 89.5827 45.0464C89.4493 45.1077 89.2814 45.1384 89.079 45.1384C88.8076 45.1384 88.5615 45.0747 88.3407 44.9475C88.1215 44.8187 87.9467 44.627 87.8163 44.3725C87.6875 44.1164 87.6231 43.7959 87.6231 43.411C87.6231 43.0231 87.6875 42.6957 87.8163 42.4289C87.9467 42.1606 88.1222 41.9574 88.343 41.8194C88.5638 41.6799 88.8099 41.6101 89.0813 41.6101C89.2883 41.6101 89.4585 41.6454 89.5919 41.7159C89.7269 41.7849 89.8342 41.8685 89.914 41.9666C89.9937 42.0632 90.0543 42.1545 90.0957 42.2403H90.1417V41.6561H90.9628V45.2465C90.9628 45.5485 90.8907 45.7985 90.7466 45.9963C90.6024 46.1941 90.4054 46.342 90.1555 46.4402C89.9055 46.5383 89.6218 46.5874 89.3044 46.5874ZM89.3113 44.4852C89.4877 44.4852 89.6379 44.4422 89.7621 44.3564C89.8864 44.2705 89.9807 44.1471 90.0451 43.9861C90.1095 43.8251 90.1417 43.6319 90.1417 43.4064C90.1417 43.1841 90.1095 42.9894 90.0451 42.8222C89.9822 42.6551 89.8887 42.5255 89.7644 42.4335C89.6418 42.34 89.4907 42.2932 89.3113 42.2932C89.1258 42.2932 88.9709 42.3415 88.8467 42.4381C88.7225 42.5347 88.629 42.6674 88.5661 42.836C88.5033 43.0032 88.4718 43.1933 88.4718 43.4064C88.4718 43.6227 88.5033 43.812 88.5661 43.9746C88.6305 44.1356 88.7248 44.2613 88.849 44.3518C88.9748 44.4407 89.1289 44.4852 89.3113 44.4852Z" fill="#878C90"/>
<path d="M212.356 40.3827V39.7803H214.902V40.3827H212.356ZM216.066 40.3827V39.7803H218.611V40.3827H216.066ZM219.776 40.3827V39.7803H222.321V40.3827H219.776ZM223.485 40.3827V39.7803H226.031V40.3827H223.485ZM227.195 40.3827V39.7803H229.74V40.3827H227.195ZM230.905 40.3827V39.7803H233.45V40.3827H230.905ZM234.614 40.3827V39.7803H237.16V40.3827H234.614ZM238.324 40.3827V39.7803H240.869V40.3827H238.324ZM242.034 40.3827V39.7803H244.579V40.3827H242.034ZM245.743 40.3827V39.7803H248.289V40.3827H245.743ZM249.453 40.3827V39.7803H251.998V40.3827H249.453ZM253.162 40.3827V39.7803H255.708V40.3827H253.162ZM256.872 40.3827V39.7803H259.418V40.3827H256.872ZM260.582 40.3827V39.7803H263.127V40.3827H260.582ZM264.291 40.3827V39.7803H266.837V40.3827H264.291ZM268.001 40.3827V39.7803H270.546V40.3827H268.001ZM271.711 40.3827V39.7803H274.256V40.3827H271.711ZM275.42 40.3827V39.7803H277.966V40.3827H275.42ZM279.13 40.3827V39.7803H281.675V40.3827H279.13ZM282.84 40.3827V39.7803H285.385V40.3827H282.84ZM286.549 40.3827V39.7803H289.095V40.3827H286.549ZM290.259 40.3827V39.7803H292.804V40.3827H290.259ZM293.969 40.3827V39.7803H296.514V40.3827H293.969ZM297.678 40.3827V39.7803H300.224V40.3827H297.678ZM301.388 40.3827V39.7803H303.933V40.3827H301.388ZM305.097 40.3827V39.7803H307.643V40.3827H305.097ZM308.807 40.3827V39.7803H311.353V40.3827H308.807ZM312.517 40.3827V39.7803H315.062V40.3827H312.517ZM316.226 40.3827V39.7803H318.772V40.3827H316.226ZM319.936 40.3827V39.7803H322.481V40.3827H319.936ZM323.646 40.3827V39.7803H326.191V40.3827H323.646ZM327.355 40.3827V39.7803H329.901V40.3827H327.355ZM331.065 40.3827V39.7803H333.61V40.3827H331.065ZM334.775 40.3827V39.7803H337.32V40.3827H334.775Z" fill="#8F8E8E"/>
<rect x="337.667" y="21.166" width="50.1956" height="37.2419" rx="5.26245" fill="#F1F3F2" stroke="#ADB4B7" stroke-width="0.809607"/>
<path d="M354.12 39.3921C354.12 37.7211 354.441 36.4046 355.082 35.4428C355.733 34.481 356.778 34.0001 358.215 34.0001C359.653 34.0001 360.693 34.481 361.334 35.4428C361.985 36.4046 362.31 37.7211 362.31 39.3921C362.31 41.0825 361.985 42.4087 361.334 43.3705C360.693 44.3323 359.653 44.8132 358.215 44.8132C356.778 44.8132 355.733 44.3323 355.082 43.3705C354.441 42.4087 354.12 41.0825 354.12 39.3921ZM359.862 39.3921C359.862 38.4108 359.755 37.6579 359.542 37.1333C359.328 36.5989 358.886 36.3318 358.215 36.3318C357.545 36.3318 357.103 36.5989 356.889 37.1333C356.676 37.6579 356.569 38.4108 356.569 39.3921C356.569 40.0527 356.608 40.6016 356.685 41.0388C356.763 41.4663 356.918 41.816 357.152 42.0881C357.395 42.3504 357.749 42.4815 358.215 42.4815C358.682 42.4815 359.032 42.3504 359.265 42.0881C359.508 41.816 359.668 41.4663 359.746 41.0388C359.823 40.6016 359.862 40.0527 359.862 39.3921ZM371.118 36.3901H366.571V38.4011C366.765 38.1874 367.037 38.0125 367.387 37.8765C367.737 37.7405 368.116 37.6725 368.524 37.6725C369.252 37.6725 369.855 37.8376 370.331 38.168C370.816 38.4983 371.171 38.9258 371.394 39.4504C371.618 39.975 371.73 40.5433 371.73 41.1554C371.73 42.2921 371.409 43.1956 370.768 43.866C370.127 44.5266 369.223 44.8569 368.057 44.8569C367.28 44.8569 366.605 44.7258 366.032 44.4635C365.458 44.1914 365.016 43.8174 364.705 43.3413C364.395 42.8653 364.225 42.3164 364.195 41.6946H366.629C366.687 41.9958 366.828 42.2484 367.052 42.4524C367.275 42.6467 367.581 42.7439 367.97 42.7439C368.426 42.7439 368.766 42.5981 368.99 42.3067C369.213 42.0152 369.325 41.6266 369.325 41.1408C369.325 40.6648 369.208 40.3005 368.975 40.0479C368.742 39.7953 368.402 39.669 367.955 39.669C367.625 39.669 367.353 39.7515 367.139 39.9167C366.925 40.0722 366.785 40.281 366.717 40.5433H364.312V34.2041H371.118V36.3901Z" fill="#36404B"/>
<defs>
<filter id="filter0_d_1104_112" x="0.000161171" y="-0.000179291" width="419.203" height="85.1745" filterUnits="userSpaceOnUse" color-interpolation-filters="sRGB">
<feFlood flood-opacity="0" result="BackgroundImageFix"/>
<feColorMatrix in="SourceAlpha" type="matrix" values="0 0 0 0 0 0 0 0 0 0 0 0 0 0 0 0 0 0 127 0" result="hardAlpha"/>
<feOffset dy="3.23843"/>
<feGaussianBlur stdDeviation="6.8007"/>
<feComposite in2="hardAlpha" operator="out"/>
<feColorMatrix type="matrix" values="0 0 0 0 0 0 0 0 0 0 0 0 0 0 0 0 0 0 0.17 0"/>
<feBlend mode="normal" in2="BackgroundImageFix" result="effect1_dropShadow_1104_112"/>
<feBlend mode="normal" in="SourceGraphic" in2="effect1_dropShadow_1104_112" result="shape"/>
</filter>
</defs>
</svg>
