<svg width="230" height="20" viewBox="0 0 230 20" fill="none" xmlns="http://www.w3.org/2000/svg">
<path d="M5.82448 19.5V4.732H0.00048438V1.3H15.8605V4.732H10.0365V19.5H5.82448ZM25.7098 19.5V16.77L25.4498 16.172V11.284C25.4498 10.4173 25.1811 9.74133 24.6438 9.256C24.1238 8.77067 23.3178 8.528 22.2258 8.528C21.4805 8.528 20.7438 8.64933 20.0158 8.892C19.3051 9.11733 18.6985 9.42933 18.1958 9.828L16.7398 6.994C17.5025 6.45667 18.4211 6.04067 19.4958 5.746C20.5705 5.45133 21.6625 5.304 22.7718 5.304C24.9038 5.304 26.5591 5.80667 27.7378 6.812C28.9165 7.81733 29.5058 9.386 29.5058 11.518V19.5H25.7098ZM21.4458 19.708C20.3538 19.708 19.4178 19.526 18.6378 19.162C17.8578 18.7807 17.2598 18.2693 16.8438 17.628C16.4278 16.9867 16.2198 16.2673 16.2198 15.47C16.2198 14.638 16.4191 13.91 16.8178 13.286C17.2338 12.662 17.8838 12.1767 18.7678 11.83C19.6518 11.466 20.8045 11.284 22.2258 11.284H25.9438V13.65H22.6678C21.7145 13.65 21.0558 13.806 20.6918 14.118C20.3451 14.43 20.1718 14.82 20.1718 15.288C20.1718 15.808 20.3711 16.224 20.7698 16.536C21.1858 16.8307 21.7491 16.978 22.4598 16.978C23.1358 16.978 23.7425 16.822 24.2798 16.51C24.8171 16.1807 25.2071 15.704 25.4498 15.08L26.0738 16.952C25.7791 17.8533 25.2418 18.538 24.4618 19.006C23.6818 19.474 22.6765 19.708 21.4458 19.708ZM41.4447 19.708C40.214 19.708 39.1567 19.448 38.2727 18.928C37.3887 18.408 36.7127 17.6193 36.2447 16.562C35.7767 15.4873 35.5427 14.1353 35.5427 12.506C35.5427 10.8593 35.7854 9.50733 36.2707 8.45C36.7734 7.39267 37.4667 6.604 38.3507 6.084C39.2347 5.564 40.266 5.304 41.4447 5.304C42.762 5.304 43.9407 5.59867 44.9807 6.188C46.038 6.77733 46.87 7.60933 47.4767 8.684C48.1007 9.75867 48.4127 11.0327 48.4127 12.506C48.4127 13.962 48.1007 15.2273 47.4767 16.302C46.87 17.3767 46.038 18.2173 44.9807 18.824C43.9407 19.4133 42.762 19.708 41.4447 19.708ZM33.1767 19.5V0.207999H37.2327V8.346L36.9727 12.48L37.0507 16.64V19.5H33.1767ZM40.7427 16.38C41.4187 16.38 42.0167 16.224 42.5367 15.912C43.074 15.6 43.4987 15.158 43.8107 14.586C44.14 13.9967 44.3047 13.3033 44.3047 12.506C44.3047 11.6913 44.14 10.998 43.8107 10.426C43.4987 9.854 43.074 9.412 42.5367 9.1C42.0167 8.788 41.4187 8.632 40.7427 8.632C40.0667 8.632 39.46 8.788 38.9227 9.1C38.3854 9.412 37.9607 9.854 37.6487 10.426C37.3367 10.998 37.1807 11.6913 37.1807 12.506C37.1807 13.3033 37.3367 13.9967 37.6487 14.586C37.9607 15.158 38.3854 15.6 38.9227 15.912C39.46 16.224 40.0667 16.38 40.7427 16.38ZM51.1279 19.5V0.207999H55.1839V19.5H51.1279ZM65.8902 19.708C64.2955 19.708 62.8915 19.396 61.6782 18.772C60.4822 18.148 59.5548 17.2987 58.8962 16.224C58.2375 15.132 57.9082 13.8927 57.9082 12.506C57.9082 11.102 58.2288 9.86267 58.8702 8.788C59.5288 7.696 60.4215 6.84667 61.5482 6.24C62.6748 5.616 63.9488 5.304 65.3702 5.304C66.7395 5.304 67.9702 5.59867 69.0622 6.188C70.1715 6.76 71.0468 7.592 71.6882 8.684C72.3295 9.75867 72.6502 11.05 72.6502 12.558C72.6502 12.714 72.6415 12.896 72.6242 13.104C72.6068 13.2947 72.5895 13.4767 72.5722 13.65H61.2102V11.284H70.4402L68.8802 11.986C68.8802 11.258 68.7328 10.6253 68.4382 10.088C68.1435 9.55067 67.7362 9.13467 67.2162 8.84C66.6962 8.528 66.0895 8.372 65.3962 8.372C64.7028 8.372 64.0875 8.528 63.5502 8.84C63.0302 9.13467 62.6228 9.55933 62.3282 10.114C62.0335 10.6513 61.8862 11.2927 61.8862 12.038V12.662C61.8862 13.4247 62.0508 14.1007 62.3802 14.69C62.7268 15.262 63.2035 15.704 63.8102 16.016C64.4342 16.3107 65.1622 16.458 65.9942 16.458C66.7395 16.458 67.3895 16.3453 67.9442 16.12C68.5162 15.8947 69.0362 15.5567 69.5042 15.106L71.6622 17.446C71.0208 18.174 70.2148 18.7373 69.2442 19.136C68.2735 19.5173 67.1555 19.708 65.8902 19.708ZM91.8398 19.812C90.4011 19.812 89.0665 19.578 87.8358 19.11C86.6225 18.642 85.5651 17.9833 84.6638 17.134C83.7798 16.2847 83.0865 15.288 82.5838 14.144C82.0985 13 81.8558 11.752 81.8558 10.4C81.8558 9.048 82.0985 7.8 82.5838 6.656C83.0865 5.512 83.7885 4.51533 84.6898 3.666C85.5911 2.81667 86.6485 2.158 87.8618 1.69C89.0751 1.222 90.3925 0.988 91.8138 0.988C93.2525 0.988 94.5698 1.222 95.7658 1.69C96.9791 2.158 98.0278 2.81667 98.9118 3.666C99.8131 4.51533 100.515 5.512 101.018 6.656C101.52 7.78267 101.772 9.03067 101.772 10.4C101.772 11.752 101.52 13.0087 101.018 14.17C100.515 15.314 99.8131 16.3107 98.9118 17.16C98.0278 17.992 96.9791 18.642 95.7658 19.11C94.5698 19.578 93.2611 19.812 91.8398 19.812ZM91.8138 16.224C92.6285 16.224 93.3738 16.0853 94.0498 15.808C94.7431 15.5307 95.3498 15.132 95.8698 14.612C96.3898 14.092 96.7885 13.4767 97.0658 12.766C97.3605 12.0553 97.5078 11.2667 97.5078 10.4C97.5078 9.53333 97.3605 8.74467 97.0658 8.034C96.7885 7.32333 96.3898 6.708 95.8698 6.188C95.3671 5.668 94.7691 5.26933 94.0758 4.992C93.3825 4.71467 92.6285 4.576 91.8138 4.576C90.9991 4.576 90.2451 4.71467 89.5518 4.992C88.8758 5.26933 88.2778 5.668 87.7578 6.188C87.2378 6.708 86.8305 7.32333 86.5358 8.034C86.2585 8.74467 86.1198 9.53333 86.1198 10.4C86.1198 11.2493 86.2585 12.038 86.5358 12.766C86.8305 13.4767 87.2291 14.092 87.7318 14.612C88.2518 15.132 88.8585 15.5307 89.5518 15.808C90.2451 16.0853 90.9991 16.224 91.8138 16.224ZM105.145 19.5V5.2C105.145 3.62267 105.613 2.366 106.549 1.43C107.485 0.476665 108.82 -1.54972e-06 110.553 -1.54972e-06C111.143 -1.54972e-06 111.706 0.0606654 112.243 0.181999C112.798 0.303332 113.266 0.493999 113.647 0.754L112.581 3.692C112.356 3.536 112.105 3.41467 111.827 3.328C111.55 3.24133 111.255 3.198 110.943 3.198C110.354 3.198 109.895 3.37133 109.565 3.718C109.253 4.04733 109.097 4.55 109.097 5.226V6.526L109.201 8.268V19.5H105.145ZM102.987 8.944V5.824H112.685V8.944H102.987ZM131.065 19.812C129.661 19.812 128.353 19.5867 127.139 19.136C125.943 18.668 124.903 18.0093 124.019 17.16C123.135 16.3107 122.442 15.314 121.939 14.17C121.454 13.026 121.211 11.7693 121.211 10.4C121.211 9.03067 121.454 7.774 121.939 6.63C122.442 5.486 123.135 4.48933 124.019 3.64C124.921 2.79067 125.969 2.14067 127.165 1.69C128.361 1.222 129.67 0.988 131.091 0.988C132.669 0.988 134.09 1.26533 135.355 1.82C136.638 2.35733 137.713 3.15467 138.579 4.212L135.875 6.708C135.251 5.99733 134.558 5.46867 133.795 5.122C133.033 4.758 132.201 4.576 131.299 4.576C130.45 4.576 129.67 4.71467 128.959 4.992C128.249 5.26933 127.633 5.668 127.113 6.188C126.593 6.708 126.186 7.32333 125.891 8.034C125.614 8.74467 125.475 9.53333 125.475 10.4C125.475 11.2667 125.614 12.0553 125.891 12.766C126.186 13.4767 126.593 14.092 127.113 14.612C127.633 15.132 128.249 15.5307 128.959 15.808C129.67 16.0853 130.45 16.224 131.299 16.224C132.201 16.224 133.033 16.0507 133.795 15.704C134.558 15.34 135.251 14.794 135.875 14.066L138.579 16.562C137.713 17.6193 136.638 18.4253 135.355 18.98C134.09 19.5347 132.66 19.812 131.065 19.812ZM147.311 19.708C145.821 19.708 144.495 19.396 143.333 18.772C142.189 18.148 141.279 17.2987 140.603 16.224C139.945 15.132 139.615 13.8927 139.615 12.506C139.615 11.102 139.945 9.86267 140.603 8.788C141.279 7.696 142.189 6.84667 143.333 6.24C144.495 5.616 145.821 5.304 147.311 5.304C148.785 5.304 150.102 5.616 151.263 6.24C152.425 6.84667 153.335 7.68733 153.993 8.762C154.652 9.83667 154.981 11.0847 154.981 12.506C154.981 13.8927 154.652 15.132 153.993 16.224C153.335 17.2987 152.425 18.148 151.263 18.772C150.102 19.396 148.785 19.708 147.311 19.708ZM147.311 16.38C147.987 16.38 148.594 16.224 149.131 15.912C149.669 15.6 150.093 15.158 150.405 14.586C150.717 13.9967 150.873 13.3033 150.873 12.506C150.873 11.6913 150.717 10.998 150.405 10.426C150.093 9.854 149.669 9.412 149.131 9.1C148.594 8.788 147.987 8.632 147.311 8.632C146.635 8.632 146.029 8.788 145.491 9.1C144.954 9.412 144.521 9.854 144.191 10.426C143.879 10.998 143.723 11.6913 143.723 12.506C143.723 13.3033 143.879 13.9967 144.191 14.586C144.521 15.158 144.954 15.6 145.491 15.912C146.029 16.224 146.635 16.38 147.311 16.38ZM166.194 5.304C167.304 5.304 168.292 5.52933 169.158 5.98C170.042 6.41333 170.736 7.08933 171.238 8.008C171.741 8.90933 171.992 10.0707 171.992 11.492V19.5H167.936V12.116C167.936 10.9893 167.685 10.1573 167.182 9.62C166.697 9.08267 166.004 8.814 165.102 8.814C164.461 8.814 163.88 8.95267 163.36 9.23C162.858 9.49 162.459 9.89733 162.164 10.452C161.887 11.0067 161.748 11.7173 161.748 12.584V19.5H157.692V5.512H161.566V9.386L160.838 8.216C161.341 7.28 162.06 6.56067 162.996 6.058C163.932 5.55533 164.998 5.304 166.194 5.304ZM181.389 19.708C179.742 19.708 178.46 19.292 177.541 18.46C176.622 17.6107 176.163 16.354 176.163 14.69V2.418H180.219V14.638C180.219 15.2273 180.375 15.6867 180.687 16.016C180.999 16.328 181.424 16.484 181.961 16.484C182.602 16.484 183.148 16.3107 183.599 15.964L184.691 18.824C184.275 19.1187 183.772 19.344 183.183 19.5C182.611 19.6387 182.013 19.708 181.389 19.708ZM174.005 8.944V5.824H183.703V8.944H174.005ZM193.478 19.708C191.883 19.708 190.479 19.396 189.266 18.772C188.07 18.148 187.143 17.2987 186.484 16.224C185.825 15.132 185.496 13.8927 185.496 12.506C185.496 11.102 185.817 9.86267 186.458 8.788C187.117 7.696 188.009 6.84667 189.136 6.24C190.263 5.616 191.537 5.304 192.958 5.304C194.327 5.304 195.558 5.59867 196.65 6.188C197.759 6.76 198.635 7.592 199.276 8.684C199.917 9.75867 200.238 11.05 200.238 12.558C200.238 12.714 200.229 12.896 200.212 13.104C200.195 13.2947 200.177 13.4767 200.16 13.65H188.798V11.284H198.028L196.468 11.986C196.468 11.258 196.321 10.6253 196.026 10.088C195.731 9.55067 195.324 9.13467 194.804 8.84C194.284 8.528 193.677 8.372 192.984 8.372C192.291 8.372 191.675 8.528 191.138 8.84C190.618 9.13467 190.211 9.55933 189.916 10.114C189.621 10.6513 189.474 11.2927 189.474 12.038V12.662C189.474 13.4247 189.639 14.1007 189.968 14.69C190.315 15.262 190.791 15.704 191.398 16.016C192.022 16.3107 192.75 16.458 193.582 16.458C194.327 16.458 194.977 16.3453 195.532 16.12C196.104 15.8947 196.624 15.5567 197.092 15.106L199.25 17.446C198.609 18.174 197.803 18.7373 196.832 19.136C195.861 19.5173 194.743 19.708 193.478 19.708ZM211.44 5.304C212.55 5.304 213.538 5.52933 214.404 5.98C215.288 6.41333 215.982 7.08933 216.484 8.008C216.987 8.90933 217.238 10.0707 217.238 11.492V19.5H213.182V12.116C213.182 10.9893 212.931 10.1573 212.428 9.62C211.943 9.08267 211.25 8.814 210.348 8.814C209.707 8.814 209.126 8.95267 208.606 9.23C208.104 9.49 207.705 9.89733 207.41 10.452C207.133 11.0067 206.994 11.7173 206.994 12.584V19.5H202.938V5.512H206.812V9.386L206.084 8.216C206.587 7.28 207.306 6.56067 208.242 6.058C209.178 5.55533 210.244 5.304 211.44 5.304ZM226.635 19.708C224.988 19.708 223.706 19.292 222.787 18.46C221.868 17.6107 221.409 16.354 221.409 14.69V2.418H225.465V14.638C225.465 15.2273 225.621 15.6867 225.933 16.016C226.245 16.328 226.67 16.484 227.207 16.484C227.848 16.484 228.394 16.3107 228.845 15.964L229.937 18.824C229.521 19.1187 229.018 19.344 228.429 19.5C227.857 19.6387 227.259 19.708 226.635 19.708ZM219.251 8.944V5.824H228.949V8.944H219.251Z" fill="#333636"/>
</svg>
