<svg width="420" height="87" viewBox="0 0 420 87" fill="none" xmlns="http://www.w3.org/2000/svg">
<g filter="url(#filter0_d_1104_122)">
<rect x="13.6016" y="10.3628" width="392" height="58.892" rx="10.5249" fill="#FEFFFE"/>
</g>
<circle cx="43.3389" cy="38.2993" r="21.0498" fill="#D9F2EE"/>
<circle cx="43.5575" cy="38.2992" r="17.8114" fill="#0C2461"/>
<path d="M40.281 45.4232C39.5718 45.4232 38.9791 45.2823 38.5031 45.0006C38.027 44.7091 37.6676 44.3108 37.4247 43.8056C37.1818 43.3004 37.0604 42.7126 37.0604 42.0423V36.694C37.0604 36.0042 37.1721 35.4019 37.3956 34.887C37.6287 34.3623 37.9833 33.9543 38.4594 33.6628C38.9354 33.3714 39.5426 33.2256 40.281 33.2256C41.0194 33.2256 41.6217 33.3714 42.088 33.6628C42.5641 33.9543 42.9138 34.3623 43.1373 34.887C43.3705 35.4019 43.487 36.0042 43.487 36.694V42.0423C43.487 42.7029 43.3656 43.2907 43.1227 43.8056C42.8798 44.3108 42.5204 44.7091 42.0443 45.0006C41.5683 45.2823 40.9805 45.4232 40.281 45.4232ZM40.281 43.2518C40.5142 43.2518 40.6793 43.179 40.7765 43.0332C40.8833 42.8778 40.9465 42.7029 40.9659 42.5086C40.9951 42.3046 41.0096 42.1297 41.0096 41.984V36.7523C41.0096 36.5871 40.9999 36.4025 40.9805 36.1985C40.9611 35.9848 40.8979 35.8002 40.791 35.6447C40.6939 35.4796 40.5239 35.397 40.281 35.397C40.0381 35.397 39.8632 35.4796 39.7564 35.6447C39.6592 35.8002 39.6009 35.9848 39.5815 36.1985C39.5621 36.4025 39.5523 36.5871 39.5523 36.7523V41.984C39.5523 42.1297 39.5669 42.3046 39.5961 42.5086C39.6252 42.7029 39.6884 42.8778 39.7855 43.0332C39.8924 43.179 40.0575 43.2518 40.281 43.2518ZM48.5993 45.3795C47.8318 45.3795 47.2051 45.2143 46.7194 44.884C46.2433 44.544 45.8936 44.0825 45.6701 43.4996C45.4467 42.9166 45.335 42.2511 45.335 41.5031V37.2332C45.335 36.4657 45.4224 35.7808 45.5973 35.1784C45.7819 34.5761 46.1073 34.1049 46.5737 33.7648C47.04 33.4151 47.7103 33.2402 48.5847 33.2402C49.3425 33.2402 49.94 33.3568 50.3772 33.59C50.8144 33.8231 51.1253 34.1632 51.3099 34.6101C51.4944 35.057 51.5867 35.6107 51.5867 36.2714C51.5867 36.3102 51.5867 36.3491 51.5867 36.388C51.5965 36.4171 51.6013 36.4463 51.6013 36.4754H49.3134C49.3134 35.9994 49.2745 35.6496 49.1968 35.4262C49.1288 35.193 48.9296 35.0764 48.5993 35.0764C48.3758 35.0764 48.2058 35.1444 48.0892 35.2804C47.9824 35.4164 47.9095 35.6545 47.8706 35.9945C47.8318 36.3345 47.8124 36.8106 47.8124 37.4226V38.4719C47.9289 38.2679 48.1184 38.1124 48.3807 38.0056C48.643 37.889 48.9393 37.8258 49.2696 37.8161C49.8914 37.7967 50.3869 37.9376 50.7561 38.2387C51.135 38.5399 51.407 38.9528 51.5722 39.4774C51.7373 39.9923 51.8199 40.5704 51.8199 41.2116C51.8199 42.0374 51.7228 42.7661 51.5285 43.3975C51.3341 44.0193 51.0038 44.5051 50.5375 44.8548C50.0712 45.2046 49.4251 45.3795 48.5993 45.3795ZM48.6284 43.587C48.8519 43.587 49.0122 43.5141 49.1093 43.3684C49.2162 43.213 49.2842 42.9895 49.3134 42.698C49.3522 42.3969 49.3717 42.0277 49.3717 41.5905C49.3717 41.2019 49.3571 40.8667 49.3279 40.585C49.3085 40.3032 49.2454 40.0846 49.1385 39.9292C49.0316 39.764 48.8519 39.6814 48.5993 39.6814C48.4827 39.6814 48.371 39.7057 48.2641 39.7543C48.1572 39.8029 48.065 39.866 47.9872 39.9438C47.9095 40.0118 47.8512 40.0798 47.8124 40.1478V42.0714C47.8124 42.3337 47.8318 42.5815 47.8706 42.8146C47.9192 43.0478 48.0018 43.2372 48.1184 43.383C48.2447 43.519 48.4147 43.587 48.6284 43.587Z" fill="#FEFFFE"/>
<path d="M76.2111 32.7261V24.7806H74.7489V23.5451H79.328V24.7806H77.8886V32.7261H76.2111ZM82.6795 32.8508C81.9995 32.8508 81.4705 32.7261 81.0927 32.4767C80.7149 32.2274 80.4542 31.8722 80.3106 31.4113C80.167 30.9503 80.0953 30.3987 80.0953 29.7564V23.5451H81.7274V29.9491C81.7274 30.2363 81.7463 30.5083 81.7841 30.7652C81.8219 31.0146 81.9088 31.2186 82.0448 31.3773C82.1884 31.5284 82.3999 31.604 82.6795 31.604C82.9742 31.604 83.1858 31.5284 83.3143 31.3773C83.4503 31.2186 83.5372 31.0146 83.5749 30.7652C83.6203 30.5083 83.643 30.2363 83.643 29.9491V23.5451H85.2638V29.7564C85.2638 30.3987 85.192 30.9503 85.0484 31.4113C84.9049 31.8722 84.6442 32.2274 84.2664 32.4767C83.8961 32.7261 83.3671 32.8508 82.6795 32.8508ZM86.5832 32.7261V23.5451H88.8388C89.2468 23.5451 89.6133 23.5829 89.9382 23.6585C90.2707 23.734 90.554 23.8625 90.7883 24.0438C91.0301 24.2176 91.2152 24.4557 91.3437 24.7579C91.4721 25.0602 91.5364 25.4418 91.5364 25.9027C91.5364 26.273 91.4835 26.5903 91.3777 26.8548C91.2795 27.1193 91.1321 27.3309 90.9356 27.4895C90.7392 27.6407 90.4936 27.7427 90.1989 27.7956C90.5616 27.856 90.8601 27.9845 91.0943 28.1809C91.3361 28.3698 91.5137 28.6192 91.627 28.929C91.7479 29.2388 91.8084 29.6129 91.8084 30.0511C91.8084 30.4894 91.7517 30.8786 91.6384 31.2186C91.5326 31.5511 91.3701 31.8306 91.151 32.0573C90.9394 32.2765 90.6712 32.4427 90.3462 32.5561C90.0289 32.6694 89.6548 32.7261 89.2241 32.7261H86.5832ZM88.2607 31.5473H88.8954C89.4017 31.5473 89.7455 31.4264 89.9269 31.1846C90.1082 30.9352 90.1989 30.5536 90.1989 30.0398C90.1989 29.6695 90.1536 29.3711 90.0629 29.1444C89.9798 28.9101 89.8362 28.7363 89.6322 28.623C89.4357 28.5096 89.1712 28.453 88.8388 28.453H88.2607V31.5473ZM88.2607 27.2968H88.8274C89.1599 27.2968 89.4168 27.2477 89.5982 27.1495C89.7795 27.0513 89.9042 26.9001 89.9722 26.6961C90.0478 26.4921 90.0856 26.2352 90.0856 25.9254C90.0856 25.6005 90.0289 25.3511 89.9155 25.1773C89.8097 24.9959 89.6473 24.875 89.4282 24.8146C89.209 24.7466 88.9294 24.7126 88.5894 24.7126H88.2607V27.2968ZM98.1195 32.8508C97.447 32.8508 96.918 32.7185 96.5327 32.454C96.1549 32.1896 95.8904 31.8306 95.7393 31.3773C95.5881 30.9163 95.5126 30.3874 95.5126 29.7904V26.5148C95.5126 25.8876 95.5881 25.3435 95.7393 24.8826C95.8904 24.4217 96.1549 24.0665 96.5327 23.8172C96.918 23.5678 97.447 23.4431 98.1195 23.4431C98.7542 23.4431 99.2492 23.5527 99.6043 23.7718C99.967 23.9834 100.224 24.2894 100.375 24.6899C100.526 25.0904 100.602 25.5551 100.602 26.0841V26.8548H98.9923V26.0614C98.9923 25.8045 98.9771 25.5702 98.9469 25.3586C98.9243 25.1471 98.8525 24.9808 98.7316 24.8599C98.6182 24.7315 98.418 24.6672 98.1308 24.6672C97.8437 24.6672 97.6321 24.7353 97.4961 24.8713C97.3676 24.9997 97.2845 25.1773 97.2467 25.404C97.209 25.6231 97.1901 25.8725 97.1901 26.1521V30.1418C97.1901 30.4743 97.2165 30.7501 97.2694 30.9692C97.3223 31.1808 97.4168 31.3433 97.5528 31.4566C97.6963 31.5624 97.889 31.6153 98.1308 31.6153C98.4104 31.6153 98.6069 31.5511 98.7202 31.4226C98.8411 31.2866 98.9167 31.109 98.9469 30.8899C98.9771 30.6708 98.9923 30.4252 98.9923 30.1531V29.3257H100.602V30.0625C100.602 30.6065 100.53 31.0901 100.386 31.5133C100.243 31.9289 99.9897 32.2576 99.627 32.4994C99.2718 32.7336 98.7693 32.8508 98.1195 32.8508ZM104.263 32.8508C103.613 32.8508 103.096 32.7299 102.71 32.488C102.325 32.2462 102.049 31.8987 101.883 31.4453C101.717 30.9919 101.634 30.4554 101.634 29.8358V26.4014C101.634 25.7818 101.717 25.2529 101.883 24.8146C102.049 24.3688 102.325 24.0287 102.71 23.7945C103.096 23.5602 103.613 23.4431 104.263 23.4431C104.928 23.4431 105.45 23.5602 105.827 23.7945C106.213 24.0287 106.489 24.3688 106.655 24.8146C106.829 25.2529 106.916 25.7818 106.916 26.4014V29.8471C106.916 30.4592 106.829 30.9919 106.655 31.4453C106.489 31.8911 106.213 32.2387 105.827 32.488C105.45 32.7299 104.928 32.8508 104.263 32.8508ZM104.263 31.6153C104.543 31.6153 104.747 31.5548 104.875 31.4339C105.011 31.313 105.102 31.1468 105.147 30.9352C105.193 30.7236 105.215 30.4932 105.215 30.2438V26.016C105.215 25.7591 105.193 25.5287 105.147 25.3246C105.102 25.1206 105.011 24.9619 104.875 24.8486C104.747 24.7277 104.543 24.6672 104.263 24.6672C103.999 24.6672 103.799 24.7277 103.663 24.8486C103.527 24.9619 103.436 25.1206 103.39 25.3246C103.345 25.5287 103.322 25.7591 103.322 26.016V30.2438C103.322 30.4932 103.341 30.7236 103.379 30.9352C103.424 31.1468 103.515 31.313 103.651 31.4339C103.787 31.5548 103.991 31.6153 104.263 31.6153ZM108.156 32.7261V23.5451H109.324L111.557 28.7817V23.5451H112.94V32.7261H111.829L109.585 27.2402V32.7261H108.156ZM115.251 32.7261V24.7806H113.789V23.5451H118.368V24.7806H116.928V32.7261H115.251ZM118.251 32.7261L120.088 23.5451H121.878L123.715 32.7261H122.162L121.799 30.6065H120.201L119.827 32.7261H118.251ZM120.371 29.5411H121.618L120.994 25.6873L120.371 29.5411ZM124.683 32.7261V23.5451H126.338V32.7261H124.683ZM127.759 32.7261V23.5451H128.927L131.16 28.7817V23.5451H132.542V32.7261H131.432L129.187 27.2402V32.7261H127.759ZM133.936 32.7261V23.5451H137.789V24.7239H135.613V27.3649H137.325V28.5323H135.613V31.57H137.812V32.7261H133.936ZM138.784 32.7261V23.5451H140.983C141.602 23.5451 142.124 23.6207 142.547 23.7718C142.978 23.9154 143.303 24.1647 143.522 24.5199C143.748 24.875 143.862 25.3586 143.862 25.9707C143.862 26.341 143.828 26.6735 143.76 26.9681C143.692 27.2628 143.575 27.516 143.408 27.7276C143.25 27.9316 143.027 28.0903 142.74 28.2036L144.02 32.7261H142.343L141.232 28.521H140.461V32.7261H138.784ZM140.461 27.4669H140.983C141.308 27.4669 141.565 27.4215 141.754 27.3309C141.95 27.2326 142.09 27.0815 142.173 26.8775C142.256 26.6659 142.298 26.3976 142.298 26.0727C142.298 25.6118 142.211 25.268 142.037 25.0413C141.871 24.807 141.55 24.6899 141.073 24.6899H140.461V27.4669ZM147.416 32.8508C146.865 32.8508 146.404 32.745 146.034 32.5334C145.663 32.3143 145.384 31.9969 145.195 31.5813C145.006 31.1657 144.9 30.6556 144.878 30.0511L146.317 29.7678C146.332 30.1229 146.374 30.4365 146.442 30.7085C146.517 30.9806 146.627 31.1921 146.77 31.3433C146.921 31.4868 147.118 31.5586 147.36 31.5586C147.632 31.5586 147.824 31.4793 147.938 31.3206C148.051 31.1544 148.108 30.9466 148.108 30.6972C148.108 30.2967 148.017 29.968 147.836 29.7111C147.654 29.4542 147.413 29.1973 147.11 28.9404L145.954 27.9202C145.629 27.6407 145.369 27.3309 145.172 26.9908C144.983 26.6432 144.889 26.2163 144.889 25.71C144.889 24.9846 145.1 24.4254 145.524 24.0325C145.947 23.6396 146.525 23.4431 147.258 23.4431C147.688 23.4431 148.047 23.5111 148.335 23.6471C148.622 23.7756 148.848 23.9569 149.015 24.1912C149.188 24.4254 149.317 24.6937 149.4 24.9959C149.483 25.2906 149.536 25.6042 149.559 25.9367L148.131 26.1861C148.115 25.8989 148.081 25.642 148.029 25.4153C147.983 25.1886 147.896 25.0111 147.768 24.8826C147.647 24.7541 147.466 24.6899 147.224 24.6899C146.974 24.6899 146.782 24.773 146.646 24.9393C146.517 25.098 146.453 25.2982 146.453 25.54C146.453 25.8498 146.517 26.1067 146.646 26.3107C146.774 26.5072 146.959 26.7112 147.201 26.9228L148.346 27.9316C148.724 28.2489 149.045 28.623 149.309 29.0537C149.581 29.4769 149.717 29.9907 149.717 30.5952C149.717 31.0335 149.619 31.4226 149.423 31.7626C149.234 32.1027 148.965 32.3709 148.618 32.5674C148.278 32.7563 147.877 32.8508 147.416 32.8508Z" fill="#0C2461"/>
<path d="M75.0202 45.7261V45.1097L76.6555 43.5066C76.8119 43.3486 76.9422 43.2083 77.0465 43.0857C77.1508 42.963 77.229 42.8441 77.2811 42.7291C77.3332 42.6141 77.3593 42.4915 77.3593 42.3611C77.3593 42.2124 77.3256 42.0851 77.2581 41.9793C77.1906 41.872 77.0979 41.7892 76.9798 41.7309C76.8617 41.6727 76.7275 41.6435 76.5773 41.6435C76.4224 41.6435 76.2867 41.6757 76.1702 41.7401C76.0536 41.803 75.9632 41.8927 75.8988 42.0092C75.8359 42.1258 75.8045 42.2645 75.8045 42.4255H74.9926C74.9926 42.1265 75.0608 41.8666 75.1973 41.6458C75.3337 41.425 75.5216 41.2541 75.7608 41.1329C76.0015 41.0118 76.2775 40.9512 76.5888 40.9512C76.9046 40.9512 77.1822 41.0103 77.4214 41.1283C77.6606 41.2464 77.8461 41.4082 77.978 41.6136C78.1114 41.8191 78.1781 42.0537 78.1781 42.3174C78.1781 42.4938 78.1444 42.667 78.0769 42.8372C78.0094 43.0074 77.8906 43.1961 77.7204 43.4031C77.5517 43.6101 77.3148 43.8608 77.0097 44.1552L76.1978 44.9809V45.0131H78.2494V45.7261H75.0202ZM80.6805 45.7905C80.3738 45.7905 80.0994 45.733 79.8571 45.618C79.6148 45.5014 79.4224 45.342 79.2798 45.1396C79.1387 44.9372 79.0636 44.7056 79.0544 44.445H79.8824C79.8977 44.6382 79.9813 44.7961 80.1331 44.9188C80.2849 45.0399 80.4674 45.1005 80.6805 45.1005C80.8477 45.1005 80.9964 45.0621 81.1267 44.9855C81.2571 44.9088 81.3598 44.8022 81.4349 44.6658C81.5101 44.5293 81.5469 44.3737 81.5453 44.1989C81.5469 44.021 81.5093 43.8631 81.4326 43.7251C81.356 43.5871 81.2509 43.479 81.1175 43.4008C80.9841 43.321 80.8308 43.2812 80.6575 43.2812C80.5164 43.2796 80.3777 43.3057 80.2412 43.3594C80.1047 43.413 79.9966 43.4836 79.9169 43.571L79.1464 43.4445L79.3925 41.0156H82.1249V41.7286H80.0986L79.9629 42.9775H79.9905C80.0779 42.8748 80.2013 42.7897 80.3608 42.7222C80.5203 42.6532 80.6951 42.6187 80.8852 42.6187C81.1704 42.6187 81.425 42.6862 81.6488 42.8211C81.8727 42.9545 82.049 43.1386 82.1778 43.3732C82.3066 43.6078 82.371 43.8761 82.371 44.1782C82.371 44.4894 82.299 44.767 82.1548 45.0108C82.0122 45.253 81.8137 45.4439 81.5591 45.5835C81.3061 45.7215 81.0133 45.7905 80.6805 45.7905ZM84.8827 45.8158C84.5039 45.8158 84.1788 45.7199 83.9074 45.5283C83.6376 45.3351 83.4298 45.0568 83.2841 44.6934C83.14 44.3284 83.0679 43.8891 83.0679 43.3755C83.0695 42.8618 83.1423 42.4248 83.2864 42.0644C83.4321 41.7026 83.6399 41.4266 83.9097 41.2364C84.1811 41.0463 84.5055 40.9512 84.8827 40.9512C85.2599 40.9512 85.5842 41.0463 85.8556 41.2364C86.127 41.4266 86.3347 41.7026 86.4789 42.0644C86.6245 42.4263 86.6974 42.8633 86.6974 43.3755C86.6974 43.8907 86.6245 44.3307 86.4789 44.6957C86.3347 45.0591 86.127 45.3366 85.8556 45.5283C85.5857 45.7199 85.2614 45.8158 84.8827 45.8158ZM84.8827 45.0959C85.1771 45.0959 85.4094 44.951 85.5796 44.6612C85.7513 44.3698 85.8372 43.9413 85.8372 43.3755C85.8372 43.0013 85.7981 42.687 85.7199 42.4324C85.6417 42.1779 85.5313 41.9862 85.3887 41.8574C85.2461 41.7271 85.0774 41.6619 84.8827 41.6619C84.5898 41.6619 84.3582 41.8076 84.188 42.0989C84.0178 42.3887 83.932 42.8142 83.9304 43.3755C83.9289 43.7511 83.9665 44.067 84.0431 44.3231C84.1213 44.5791 84.2317 44.7723 84.3743 44.9027C84.517 45.0315 84.6864 45.0959 84.8827 45.0959ZM87.4708 45.7261V42.1932H88.2666V42.7935H88.308C88.3816 42.5911 88.5035 42.4332 88.6737 42.3197C88.8439 42.2047 89.047 42.1472 89.2832 42.1472C89.5224 42.1472 89.724 42.2055 89.8881 42.322C90.0537 42.437 90.1702 42.5942 90.2377 42.7935H90.2745C90.3527 42.5973 90.4845 42.4409 90.6701 42.3243C90.8572 42.2063 91.0787 42.1472 91.3348 42.1472C91.6599 42.1472 91.9251 42.25 92.1306 42.4554C92.3361 42.6609 92.4388 42.9607 92.4388 43.3548V45.7261H91.6039V43.4836C91.6039 43.2643 91.5456 43.1041 91.4291 43.0028C91.3126 42.9001 91.17 42.8487 91.0013 42.8487C90.8004 42.8487 90.6432 42.9116 90.5298 43.0374C90.4178 43.1616 90.3619 43.3233 90.3619 43.5227V45.7261H89.5454V43.4491C89.5454 43.2666 89.4902 43.1209 89.3798 43.012C89.2709 42.9032 89.1283 42.8487 88.952 42.8487C88.8324 42.8487 88.7235 42.8794 88.6254 42.9407C88.5272 43.0005 88.449 43.0857 88.3908 43.1961C88.3325 43.3049 88.3034 43.4322 88.3034 43.5779V45.7261H87.4708ZM94.1161 41.0156V45.7261H93.2835V41.0156H94.1161ZM95.9498 45.0821L95.9199 45.3351C95.8984 45.5283 95.8601 45.7245 95.8049 45.9239C95.7512 46.1247 95.6945 46.3095 95.6347 46.4782C95.5749 46.6468 95.5266 46.7795 95.4898 46.8761H94.9286C94.95 46.7826 94.9792 46.6553 95.016 46.4943C95.0543 46.3333 95.0911 46.1523 95.1264 45.9515C95.1616 45.7506 95.1854 45.5467 95.1977 45.3397L95.2138 45.0821H95.9498ZM99.9719 45.7905C99.6653 45.7905 99.3908 45.733 99.1485 45.618C98.9063 45.5014 98.7138 45.342 98.5712 45.1396C98.4302 44.9372 98.355 44.7056 98.3458 44.445H99.1738C99.1892 44.6382 99.2727 44.7961 99.4245 44.9188C99.5763 45.0399 99.7588 45.1005 99.9719 45.1005C100.139 45.1005 100.288 45.0621 100.418 44.9855C100.548 44.9088 100.651 44.8022 100.726 44.6658C100.801 44.5293 100.838 44.3737 100.837 44.1989C100.838 44.021 100.801 43.8631 100.724 43.7251C100.647 43.5871 100.542 43.479 100.409 43.4008C100.276 43.321 100.122 43.2812 99.9489 43.2812C99.8079 43.2796 99.6691 43.3057 99.5326 43.3594C99.3962 43.413 99.2881 43.4836 99.2083 43.571L98.4378 43.4445L98.6839 41.0156H101.416V41.7286H99.39L99.2543 42.9775H99.2819C99.3693 42.8748 99.4928 42.7897 99.6522 42.7222C99.8117 42.6532 99.9865 42.6187 100.177 42.6187C100.462 42.6187 100.716 42.6862 100.94 42.8211C101.164 42.9545 101.34 43.1386 101.469 43.3732C101.598 43.6078 101.662 43.8761 101.662 44.1782C101.662 44.4894 101.59 44.767 101.446 45.0108C101.304 45.253 101.105 45.4439 100.851 45.5835C100.598 45.7215 100.305 45.7905 99.9719 45.7905ZM104.174 45.8158C103.795 45.8158 103.47 45.7199 103.199 45.5283C102.929 45.3351 102.721 45.0568 102.576 44.6934C102.431 44.3284 102.359 43.8891 102.359 43.3755C102.361 42.8618 102.434 42.4248 102.578 42.0644C102.724 41.7026 102.931 41.4266 103.201 41.2364C103.473 41.0463 103.797 40.9512 104.174 40.9512C104.551 40.9512 104.876 41.0463 105.147 41.2364C105.418 41.4266 105.626 41.7026 105.77 42.0644C105.916 42.4263 105.989 42.8633 105.989 43.3755C105.989 43.8907 105.916 44.3307 105.77 44.6957C105.626 45.0591 105.418 45.3366 105.147 45.5283C104.877 45.7199 104.553 45.8158 104.174 45.8158ZM104.174 45.0959C104.468 45.0959 104.701 44.951 104.871 44.6612C105.043 44.3698 105.129 43.9413 105.129 43.3755C105.129 43.0013 105.089 42.687 105.011 42.4324C104.933 42.1779 104.823 41.9862 104.68 41.8574C104.537 41.7271 104.369 41.6619 104.174 41.6619C103.881 41.6619 103.65 41.8076 103.479 42.0989C103.309 42.3887 103.223 42.8142 103.222 43.3755C103.22 43.7511 103.258 44.067 103.335 44.3231C103.413 44.5791 103.523 44.7723 103.666 44.9027C103.808 45.0315 103.978 45.0959 104.174 45.0959ZM108.494 45.8158C108.115 45.8158 107.79 45.7199 107.519 45.5283C107.249 45.3351 107.041 45.0568 106.896 44.6934C106.751 44.3284 106.679 43.8891 106.679 43.3755C106.681 42.8618 106.754 42.4248 106.898 42.0644C107.044 41.7026 107.251 41.4266 107.521 41.2364C107.793 41.0463 108.117 40.9512 108.494 40.9512C108.871 40.9512 109.196 41.0463 109.467 41.2364C109.738 41.4266 109.946 41.7026 110.09 42.0644C110.236 42.4263 110.309 42.8633 110.309 43.3755C110.309 43.8907 110.236 44.3307 110.09 44.6957C109.946 45.0591 109.738 45.3366 109.467 45.5283C109.197 45.7199 108.873 45.8158 108.494 45.8158ZM108.494 45.0959C108.788 45.0959 109.021 44.951 109.191 44.6612C109.363 44.3698 109.449 43.9413 109.449 43.3755C109.449 43.0013 109.409 42.687 109.331 42.4324C109.253 42.1779 109.143 41.9862 109 41.8574C108.857 41.7271 108.689 41.6619 108.494 41.6619C108.201 41.6619 107.97 41.8076 107.799 42.0989C107.629 42.3887 107.543 42.8142 107.542 43.3755C107.54 43.7511 107.578 44.067 107.655 44.3231C107.733 44.5791 107.843 44.7723 107.986 44.9027C108.128 45.0315 108.298 45.0959 108.494 45.0959ZM111.082 45.7261V42.1932H111.878V42.7935H111.919C111.993 42.5911 112.115 42.4332 112.285 42.3197C112.455 42.2047 112.658 42.1472 112.895 42.1472C113.134 42.1472 113.335 42.2055 113.5 42.322C113.665 42.437 113.782 42.5942 113.849 42.7935H113.886C113.964 42.5973 114.096 42.4409 114.282 42.3243C114.469 42.2063 114.69 42.1472 114.946 42.1472C115.271 42.1472 115.537 42.25 115.742 42.4554C115.947 42.6609 116.05 42.9607 116.05 43.3548V45.7261H115.215V43.4836C115.215 43.2643 115.157 43.1041 115.041 43.0028C114.924 42.9001 114.781 42.8487 114.613 42.8487C114.412 42.8487 114.255 42.9116 114.141 43.0374C114.029 43.1616 113.973 43.3233 113.973 43.5227V45.7261H113.157V43.4491C113.157 43.2666 113.102 43.1209 112.991 43.012C112.882 42.9032 112.74 42.8487 112.563 42.8487C112.444 42.8487 112.335 42.8794 112.237 42.9407C112.139 43.0005 112.06 43.0857 112.002 43.1961C111.944 43.3049 111.915 43.4322 111.915 43.5779V45.7261H111.082ZM117.728 41.0156V45.7261H116.895V41.0156H117.728Z" fill="#878C90"/>
<path d="M212.356 40.9198V40.3174H214.902V40.9198H212.356ZM216.066 40.9198V40.3174H218.611V40.9198H216.066ZM219.776 40.9198V40.3174H222.321V40.9198H219.776ZM223.485 40.9198V40.3174H226.031V40.9198H223.485ZM227.195 40.9198V40.3174H229.74V40.9198H227.195ZM230.905 40.9198V40.3174H233.45V40.9198H230.905ZM234.614 40.9198V40.3174H237.16V40.9198H234.614ZM238.324 40.9198V40.3174H240.869V40.9198H238.324ZM242.034 40.9198V40.3174H244.579V40.9198H242.034ZM245.743 40.9198V40.3174H248.289V40.9198H245.743ZM249.453 40.9198V40.3174H251.998V40.9198H249.453ZM253.162 40.9198V40.3174H255.708V40.9198H253.162ZM256.872 40.9198V40.3174H259.418V40.9198H256.872ZM260.582 40.9198V40.3174H263.127V40.9198H260.582ZM264.291 40.9198V40.3174H266.837V40.9198H264.291ZM268.001 40.9198V40.3174H270.546V40.9198H268.001ZM271.711 40.9198V40.3174H274.256V40.9198H271.711ZM275.42 40.9198V40.3174H277.966V40.9198H275.42ZM279.13 40.9198V40.3174H281.675V40.9198H279.13ZM282.84 40.9198V40.3174H285.385V40.9198H282.84ZM286.549 40.9198V40.3174H289.095V40.9198H286.549ZM290.259 40.9198V40.3174H292.804V40.9198H290.259ZM293.969 40.9198V40.3174H296.514V40.9198H293.969ZM297.678 40.9198V40.3174H300.224V40.9198H297.678ZM301.388 40.9198V40.3174H303.933V40.9198H301.388ZM305.097 40.9198V40.3174H307.643V40.9198H305.097ZM308.807 40.9198V40.3174H311.353V40.9198H308.807ZM312.517 40.9198V40.3174H315.062V40.9198H312.517ZM316.226 40.9198V40.3174H318.772V40.9198H316.226ZM319.936 40.9198V40.3174H322.481V40.9198H319.936ZM323.646 40.9198V40.3174H326.191V40.9198H323.646ZM327.355 40.9198V40.3174H329.901V40.9198H327.355ZM331.065 40.9198V40.3174H333.61V40.9198H331.065ZM334.775 40.9198V40.3174H337.32V40.9198H334.775Z" fill="#8F8E8E"/>
<rect x="337.667" y="21.7031" width="50.1956" height="37.2419" rx="5.26245" fill="#F1F3F2" stroke="#ADB4B7" stroke-width="0.809607"/>
<path d="M354.22 39.9292C354.22 38.2582 354.541 36.9417 355.182 35.9799C355.833 35.0181 356.877 34.5372 358.315 34.5372C359.753 34.5372 360.792 35.0181 361.434 35.9799C362.085 36.9417 362.41 38.2582 362.41 39.9292C362.41 41.6197 362.085 42.9458 361.434 43.9076C360.792 44.8694 359.753 45.3503 358.315 45.3503C356.877 45.3503 355.833 44.8694 355.182 43.9076C354.541 42.9458 354.22 41.6197 354.22 39.9292ZM359.962 39.9292C359.962 38.9479 359.855 38.195 359.641 37.6704C359.427 37.136 358.985 36.8689 358.315 36.8689C357.645 36.8689 357.203 37.136 356.989 37.6704C356.775 38.195 356.668 38.9479 356.668 39.9292C356.668 40.5898 356.707 41.1387 356.785 41.5759C356.863 42.0034 357.018 42.3532 357.251 42.6252C357.494 42.8875 357.849 43.0187 358.315 43.0187C358.781 43.0187 359.131 42.8875 359.364 42.6252C359.607 42.3532 359.768 42.0034 359.845 41.5759C359.923 41.1387 359.962 40.5898 359.962 39.9292ZM368.987 37.6267C368.91 37.2672 368.774 37 368.579 36.8252C368.385 36.6406 368.108 36.5483 367.749 36.5483C367.195 36.5483 366.797 36.7912 366.554 37.2769C366.311 37.753 366.185 38.5108 366.175 39.5503C366.389 39.2103 366.695 38.9431 367.093 38.7488C367.501 38.5545 367.948 38.4573 368.434 38.4573C369.386 38.4573 370.148 38.7585 370.722 39.3608C371.305 39.9632 371.596 40.8036 371.596 41.882C371.596 42.5912 371.45 43.213 371.159 43.7473C370.877 44.2816 370.459 44.6994 369.906 45.0006C369.362 45.3017 368.715 45.4523 367.967 45.4523C366.471 45.4523 365.432 44.986 364.849 44.0533C364.266 43.111 363.974 41.7605 363.974 40.0021C363.974 38.1562 364.28 36.7863 364.892 35.8925C365.514 34.989 366.505 34.5372 367.865 34.5372C368.594 34.5372 369.206 34.6829 369.702 34.9744C370.207 35.2561 370.586 35.6302 370.838 36.0965C371.101 36.5628 371.256 37.0729 371.305 37.6267H368.987ZM367.836 40.4247C367.418 40.4247 367.069 40.551 366.787 40.8036C366.515 41.0465 366.379 41.3962 366.379 41.8528C366.379 42.3192 366.505 42.6835 366.758 42.9458C367.02 43.2081 367.389 43.3393 367.865 43.3393C368.293 43.3393 368.628 43.213 368.871 42.9604C369.124 42.6981 369.25 42.3434 369.25 41.8965C369.25 41.4399 369.128 41.0805 368.885 40.8181C368.643 40.5558 368.293 40.4247 367.836 40.4247Z" fill="#36404B"/>
<defs>
<filter id="filter0_d_1104_122" x="0.000161171" y="-0.000179291" width="419.203" height="86.0949" filterUnits="userSpaceOnUse" color-interpolation-filters="sRGB">
<feFlood flood-opacity="0" result="BackgroundImageFix"/>
<feColorMatrix in="SourceAlpha" type="matrix" values="0 0 0 0 0 0 0 0 0 0 0 0 0 0 0 0 0 0 127 0" result="hardAlpha"/>
<feOffset dy="3.23843"/>
<feGaussianBlur stdDeviation="6.8007"/>
<feComposite in2="hardAlpha" operator="out"/>
<feColorMatrix type="matrix" values="0 0 0 0 0 0 0 0 0 0 0 0 0 0 0 0 0 0 0.17 0"/>
<feBlend mode="normal" in2="BackgroundImageFix" result="effect1_dropShadow_1104_122"/>
<feBlend mode="normal" in="SourceGraphic" in2="effect1_dropShadow_1104_122" result="shape"/>
</filter>
</defs>
</svg>
