<svg width="311" height="73" viewBox="0 0 311 73" fill="none" xmlns="http://www.w3.org/2000/svg">
<g filter="url(#filter0_d_893_1111)">
<path d="M11.8559 30.504C10.0426 30.504 8.61324 30.1627 7.56791 29.48C6.54391 28.7973 5.80791 27.848 5.35991 26.632C4.93324 25.3947 4.71991 23.976 4.71991 22.376V21.448H10.0639C10.0639 21.4693 10.0639 21.5867 10.0639 21.8C10.0639 22.0133 10.0639 22.2053 10.0639 22.376C10.0639 23.2293 10.1172 23.9227 10.2239 24.456C10.3306 24.9893 10.5226 25.384 10.7999 25.64C11.0772 25.8747 11.4612 25.992 11.9519 25.992C12.4426 25.992 12.8052 25.864 13.0399 25.608C13.2959 25.352 13.4666 24.968 13.5519 24.456C13.6372 23.944 13.6799 23.304 13.6799 22.536C13.6799 21.256 13.4986 20.2853 13.1359 19.624C12.7946 18.9413 12.0692 18.5893 10.9599 18.568C10.9386 18.568 10.8212 18.568 10.6079 18.568C10.3946 18.568 10.1812 18.568 9.96791 18.568V14.888C10.1172 14.888 10.2666 14.888 10.4159 14.888C10.5652 14.888 10.7039 14.888 10.8319 14.888C11.9626 14.888 12.7199 14.5787 13.1039 13.96C13.4879 13.3413 13.6799 12.3813 13.6799 11.08C13.6799 10.0773 13.5412 9.30932 13.2639 8.77599C13.0079 8.24265 12.5172 7.97599 11.7919 7.97599C11.0879 7.97599 10.6186 8.27465 10.3839 8.87199C10.1706 9.46932 10.0639 10.2373 10.0639 11.176C10.0639 11.3893 10.0639 11.6133 10.0639 11.848C10.0639 12.0613 10.0639 12.2853 10.0639 12.52H4.71991V10.952C4.71991 9.39465 4.99724 8.08265 5.55191 7.01599C6.12791 5.92799 6.93857 5.10665 7.98391 4.55198C9.05057 3.99732 10.3199 3.71999 11.7919 3.71999C13.2852 3.71999 14.5652 3.98665 15.6319 4.51999C16.6986 5.05332 17.5199 5.84265 18.0959 6.88799C18.6719 7.91199 18.9599 9.19199 18.9599 10.728C18.9599 12.2427 18.6506 13.512 18.0319 14.536C17.4132 15.56 16.6666 16.1893 15.7919 16.424C16.3892 16.6373 16.9226 16.9787 17.3919 17.448C17.8826 17.9173 18.2666 18.5573 18.5439 19.368C18.8212 20.1573 18.9599 21.1707 18.9599 22.408C18.9599 23.9867 18.7252 25.384 18.2559 26.6C17.8079 27.816 17.0612 28.776 16.0159 29.48C14.9706 30.1627 13.5839 30.504 11.8559 30.504ZM28.7414 30.504C27.1841 30.504 25.8827 30.1947 24.8374 29.576C23.7921 28.936 23.0027 28.0613 22.4694 26.952C21.9361 25.8427 21.6694 24.552 21.6694 23.08V11.336C21.6694 9.82132 21.9147 8.49865 22.4054 7.36799C22.9174 6.21599 23.6961 5.31999 24.7414 4.67999C25.7867 4.03999 27.1201 3.71999 28.7414 3.71999C30.3627 3.71999 31.6854 4.03999 32.7094 4.67999C33.7547 5.31999 34.5227 6.21599 35.0134 7.36799C35.5254 8.49865 35.7814 9.82132 35.7814 11.336V23.08C35.7814 24.5307 35.5147 25.8213 34.9814 26.952C34.4481 28.0613 33.6587 28.936 32.6134 29.576C31.5681 30.1947 30.2774 30.504 28.7414 30.504ZM28.7414 25.736C29.2534 25.736 29.6161 25.576 29.8294 25.256C30.0641 24.9147 30.2027 24.5307 30.2454 24.104C30.3094 23.656 30.3414 23.272 30.3414 22.952V11.464C30.3414 11.1013 30.3201 10.696 30.2774 10.248C30.2347 9.77865 30.0961 9.37332 29.8614 9.03199C29.6481 8.66932 29.2747 8.48799 28.7414 8.48799C28.2081 8.48799 27.8241 8.66932 27.5894 9.03199C27.3761 9.37332 27.2481 9.77865 27.2054 10.248C27.1627 10.696 27.1414 11.1013 27.1414 11.464V22.952C27.1414 23.272 27.1734 23.656 27.2374 24.104C27.3014 24.5307 27.4401 24.9147 27.6534 25.256C27.8881 25.576 28.2507 25.736 28.7414 25.736ZM46.3352 30.504C44.7778 30.504 43.4765 30.1947 42.4312 29.576C41.3858 28.936 40.5965 28.0613 40.0632 26.952C39.5298 25.8427 39.2632 24.552 39.2632 23.08V11.336C39.2632 9.82132 39.5085 8.49865 39.9992 7.36799C40.5112 6.21599 41.2898 5.31999 42.3352 4.67999C43.3805 4.03999 44.7138 3.71999 46.3352 3.71999C47.9565 3.71999 49.2792 4.03999 50.3032 4.67999C51.3485 5.31999 52.1165 6.21599 52.6072 7.36799C53.1192 8.49865 53.3752 9.82132 53.3752 11.336V23.08C53.3752 24.5307 53.1085 25.8213 52.5752 26.952C52.0418 28.0613 51.2525 28.936 50.2072 29.576C49.1618 30.1947 47.8712 30.504 46.3352 30.504ZM46.3352 25.736C46.8472 25.736 47.2098 25.576 47.4232 25.256C47.6578 24.9147 47.7965 24.5307 47.8392 24.104C47.9032 23.656 47.9352 23.272 47.9352 22.952V11.464C47.9352 11.1013 47.9138 10.696 47.8712 10.248C47.8285 9.77865 47.6898 9.37332 47.4552 9.03199C47.2418 8.66932 46.8685 8.48799 46.3352 8.48799C45.8018 8.48799 45.4178 8.66932 45.1832 9.03199C44.9698 9.37332 44.8418 9.77865 44.7992 10.248C44.7565 10.696 44.7352 11.1013 44.7352 11.464V22.952C44.7352 23.272 44.7672 23.656 44.8312 24.104C44.8952 24.5307 45.0338 24.9147 45.2472 25.256C45.4818 25.576 45.8445 25.736 46.3352 25.736ZM56.9529 30.024L57.4009 4.10398H63.5449L66.3929 19.176L69.4649 4.10398H75.3849L75.8329 30.024H71.7689L71.2889 12.776L68.2809 30.024H64.6649L61.4649 12.648L61.0809 30.024H56.9529ZM79.5802 30.024V4.10398H85.3082V26.152H91.2602V30.024H79.5802ZM101.955 30.024V4.10398H109.091C110.84 4.10398 112.355 4.29598 113.635 4.67999C114.915 5.06399 115.907 5.75732 116.611 6.75998C117.336 7.74132 117.699 9.13865 117.699 10.952C117.699 12.0187 117.614 12.968 117.443 13.8C117.272 14.632 116.952 15.3573 116.483 15.976C116.035 16.5733 115.384 17.0747 114.531 17.48L118.083 30.024H112.163L109.315 18.408H107.683V30.024H101.955ZM107.683 15.112H109.283C110.094 15.112 110.723 14.9733 111.171 14.696C111.619 14.3973 111.928 13.9813 112.099 13.448C112.291 12.8933 112.387 12.232 112.387 11.464C112.387 10.3547 112.184 9.49065 111.779 8.87199C111.374 8.25332 110.627 7.94398 109.539 7.94398H107.683V15.112ZM128.317 30.408C126.375 30.408 124.839 30.0667 123.709 29.384C122.578 28.7013 121.767 27.72 121.277 26.44C120.786 25.16 120.541 23.6347 120.541 21.864V12.232C120.541 10.44 120.786 8.91465 121.277 7.65598C121.767 6.39732 122.578 5.43732 123.709 4.77599C124.839 4.09332 126.375 3.75199 128.317 3.75199C130.279 3.75199 131.826 4.09332 132.957 4.77599C134.109 5.43732 134.93 6.39732 135.421 7.65598C135.911 8.91465 136.157 10.44 136.157 12.232V21.864C136.157 23.6347 135.911 25.16 135.421 26.44C134.93 27.72 134.109 28.7013 132.957 29.384C131.826 30.0667 130.279 30.408 128.317 30.408ZM128.317 26.344C128.914 26.344 129.351 26.1947 129.629 25.896C129.906 25.5973 130.087 25.2133 130.173 24.744C130.258 24.2747 130.301 23.7947 130.301 23.304V10.824C130.301 10.312 130.258 9.83199 130.173 9.38399C130.087 8.91465 129.906 8.53065 129.629 8.23199C129.351 7.93332 128.914 7.78399 128.317 7.78399C127.762 7.78399 127.346 7.93332 127.069 8.23199C126.791 8.53065 126.61 8.91465 126.525 9.38399C126.439 9.83199 126.397 10.312 126.397 10.824V23.304C126.397 23.7947 126.429 24.2747 126.493 24.744C126.578 25.2133 126.749 25.5973 127.005 25.896C127.282 26.1947 127.719 26.344 128.317 26.344ZM147.131 30.408C145.147 30.408 143.589 30.088 142.459 29.448C141.349 28.7867 140.571 27.8373 140.123 26.6C139.675 25.3413 139.451 23.8053 139.451 21.992V4.10398H145.115V22.856C145.115 23.3893 145.157 23.9227 145.243 24.456C145.328 24.9893 145.509 25.4267 145.787 25.768C146.085 26.1093 146.533 26.28 147.131 26.28C147.749 26.28 148.197 26.1093 148.475 25.768C148.752 25.4267 148.923 24.9893 148.987 24.456C149.072 23.9227 149.115 23.3893 149.115 22.856V4.10398H154.811V21.992C154.811 23.8053 154.576 25.3413 154.107 26.6C153.659 27.8373 152.88 28.7867 151.771 29.448C150.661 30.088 149.115 30.408 147.131 30.408ZM158.455 30.024V4.10398H162.487L167.799 16.584V4.10398H172.535V30.024H168.663L163.351 16.584V30.024H158.455ZM176.393 30.024V4.10398H182.953C185.214 4.10398 186.974 4.39198 188.233 4.96799C189.491 5.52265 190.377 6.40799 190.889 7.62399C191.401 8.81865 191.657 10.376 191.657 12.296V21.704C191.657 23.6453 191.401 25.2347 190.889 26.472C190.377 27.688 189.491 28.584 188.233 29.16C186.995 29.736 185.257 30.024 183.017 30.024H176.393ZM182.121 26.056H183.017C183.891 26.056 184.521 25.928 184.905 25.672C185.289 25.416 185.523 25.032 185.609 24.52C185.715 24.008 185.769 23.368 185.769 22.6V11.304C185.769 10.536 185.705 9.91732 185.577 9.44799C185.47 8.97865 185.225 8.63732 184.841 8.42399C184.457 8.21065 183.838 8.10398 182.985 8.10398H182.121V26.056ZM210.21 30.408C208.589 30.408 207.234 30.12 206.146 29.544C205.058 28.968 204.237 28.0827 203.682 26.888C203.127 25.672 202.818 24.104 202.754 22.184L207.65 21.448C207.671 22.5573 207.767 23.4533 207.938 24.136C208.13 24.8187 208.386 25.3093 208.706 25.608C209.047 25.9067 209.453 26.056 209.922 26.056C210.519 26.056 210.903 25.8533 211.074 25.448C211.266 25.0427 211.362 24.616 211.362 24.168C211.362 23.1013 211.106 22.2053 210.594 21.48C210.082 20.7333 209.389 19.9867 208.514 19.24L206.274 17.288C205.293 16.456 204.461 15.5173 203.778 14.472C203.117 13.4053 202.786 12.0933 202.786 10.536C202.786 8.33865 203.437 6.66399 204.738 5.51199C206.039 4.33865 207.81 3.75199 210.05 3.75199C211.437 3.75199 212.546 3.98665 213.378 4.45599C214.231 4.92532 214.871 5.54399 215.298 6.31199C215.746 7.05865 216.045 7.85865 216.194 8.71199C216.365 9.54399 216.461 10.344 216.482 11.112L211.554 11.72C211.533 10.952 211.479 10.2907 211.394 9.73599C211.33 9.15999 211.181 8.72265 210.946 8.42399C210.711 8.10399 210.349 7.94398 209.858 7.94398C209.325 7.94398 208.93 8.16799 208.674 8.61599C208.439 9.06399 208.322 9.51199 208.322 9.95999C208.322 10.92 208.546 11.7093 208.994 12.328C209.463 12.9253 210.071 13.5547 210.818 14.216L212.962 16.104C214.093 17.064 215.042 18.152 215.81 19.368C216.599 20.584 216.994 22.088 216.994 23.88C216.994 25.096 216.717 26.2053 216.162 27.208C215.607 28.1893 214.818 28.968 213.794 29.544C212.791 30.12 211.597 30.408 210.21 30.408ZM233.048 35.112C232.578 34.8987 232.013 34.5467 231.352 34.056C230.69 33.5867 230.029 33.0213 229.368 32.36C228.728 31.72 228.184 31.0587 227.736 30.376C227.65 30.3973 227.565 30.408 227.48 30.408C227.394 30.408 227.298 30.408 227.192 30.408C225.25 30.408 223.714 30.0667 222.584 29.384C221.453 28.7013 220.642 27.72 220.152 26.44C219.661 25.16 219.416 23.6347 219.416 21.864V12.232C219.416 10.44 219.661 8.91465 220.152 7.65598C220.642 6.39732 221.453 5.43732 222.584 4.77599C223.714 4.09332 225.25 3.75199 227.192 3.75199C229.154 3.75199 230.701 4.09332 231.832 4.77599C232.984 5.43732 233.805 6.39732 234.296 7.65598C234.786 8.91465 235.032 10.44 235.032 12.232V21.864C235.032 23.08 234.914 24.1787 234.68 25.16C234.466 26.1413 234.104 26.9947 233.592 27.72C233.101 28.4453 232.44 29.0213 231.608 29.448C231.885 29.7467 232.173 30.0347 232.472 30.312C232.77 30.6107 233.069 30.8773 233.368 31.112C233.666 31.368 233.965 31.5707 234.264 31.72L233.048 35.112ZM227.192 26.344C227.789 26.344 228.226 26.1947 228.504 25.896C228.781 25.5973 228.962 25.2133 229.048 24.744C229.133 24.2747 229.176 23.7947 229.176 23.304V10.824C229.176 10.312 229.133 9.83199 229.048 9.38399C228.962 8.91465 228.781 8.53065 228.504 8.23199C228.226 7.93332 227.789 7.78399 227.192 7.78399C226.594 7.78399 226.157 7.93332 225.88 8.23199C225.624 8.53065 225.453 8.91465 225.368 9.38399C225.304 9.83199 225.272 10.312 225.272 10.824V23.304C225.272 23.7947 225.304 24.2747 225.368 24.744C225.453 25.2133 225.624 25.5973 225.88 25.896C226.157 26.1947 226.594 26.344 227.192 26.344ZM246.006 30.408C244.022 30.408 242.464 30.088 241.334 29.448C240.224 28.7867 239.446 27.8373 238.998 26.6C238.55 25.3413 238.326 23.8053 238.326 21.992V4.10398H243.99V22.856C243.99 23.3893 244.032 23.9227 244.118 24.456C244.203 24.9893 244.384 25.4267 244.662 25.768C244.96 26.1093 245.408 26.28 246.006 26.28C246.624 26.28 247.072 26.1093 247.35 25.768C247.627 25.4267 247.798 24.9893 247.862 24.456C247.947 23.9227 247.99 23.3893 247.99 22.856V4.10398H253.686V21.992C253.686 23.8053 253.451 25.3413 252.982 26.6C252.534 27.8373 251.755 28.7867 250.646 29.448C249.536 30.088 247.99 30.408 246.006 30.408ZM255.832 30.024L260.728 4.10398H267.256L272.088 30.024H266.808L265.944 24.552H262.136L261.24 30.024H255.832ZM262.648 21.128H265.4L264.024 11.016L262.648 21.128ZM274.705 30.024V4.10398H281.841C283.59 4.10398 285.105 4.29598 286.385 4.67999C287.665 5.06399 288.657 5.75732 289.361 6.75998C290.086 7.74132 290.449 9.13865 290.449 10.952C290.449 12.0187 290.364 12.968 290.193 13.8C290.022 14.632 289.702 15.3573 289.233 15.976C288.785 16.5733 288.134 17.0747 287.281 17.48L290.833 30.024H284.913L282.065 18.408H280.433V30.024H274.705ZM280.433 15.112H282.033C282.844 15.112 283.473 14.9733 283.921 14.696C284.369 14.3973 284.678 13.9813 284.849 13.448C285.041 12.8933 285.137 12.232 285.137 11.464C285.137 10.3547 284.934 9.49065 284.529 8.87199C284.124 8.25332 283.377 7.94398 282.289 7.94398H280.433V15.112ZM293.893 30.024V4.10398H305.541V8.00799H299.621V14.44H304.133V18.408H299.621V26.152H305.605V30.024H293.893ZM91.1292 66.408C89.1665 66.408 87.6092 66.056 86.4572 65.352C85.3265 64.6267 84.5265 63.624 84.0572 62.344C83.5878 61.0427 83.3532 59.5173 83.3532 57.768V48.424C83.3532 46.632 83.5878 45.096 84.0572 43.816C84.5265 42.5147 85.3265 41.512 86.4572 40.808C87.6092 40.104 89.1665 39.752 91.1292 39.752C93.0492 39.752 94.5425 40.072 95.6092 40.712C96.6972 41.3307 97.4652 42.2053 97.9132 43.336C98.3612 44.4667 98.5852 45.768 98.5852 47.24V49.48H92.9852V46.888C92.9852 46.376 92.9532 45.8853 92.8892 45.416C92.8465 44.9467 92.6972 44.5627 92.4412 44.264C92.1852 43.944 91.7478 43.784 91.1292 43.784C90.5318 43.784 90.0838 43.944 89.7852 44.264C89.5078 44.584 89.3265 44.9893 89.2412 45.48C89.1772 45.9493 89.1452 46.4507 89.1452 46.984V59.176C89.1452 59.752 89.1878 60.2853 89.2732 60.776C89.3798 61.2453 89.5718 61.6293 89.8492 61.928C90.1478 62.2053 90.5745 62.344 91.1292 62.344C91.7265 62.344 92.1532 62.1947 92.4092 61.896C92.6652 61.576 92.8252 61.1707 92.8892 60.68C92.9532 60.1893 92.9852 59.688 92.9852 59.176V56.456H98.5852V58.696C98.5852 60.168 98.3612 61.4907 97.9132 62.664C97.4865 63.816 96.7292 64.7333 95.6412 65.416C94.5745 66.0773 93.0705 66.408 91.1292 66.408ZM109.16 66.408C107.219 66.408 105.683 66.0667 104.552 65.384C103.422 64.7013 102.611 63.72 102.12 62.44C101.63 61.16 101.384 59.6347 101.384 57.864V48.232C101.384 46.44 101.63 44.9147 102.12 43.656C102.611 42.3973 103.422 41.4373 104.552 40.776C105.683 40.0933 107.219 39.752 109.16 39.752C111.123 39.752 112.67 40.0933 113.8 40.776C114.952 41.4373 115.774 42.3973 116.264 43.656C116.755 44.9147 117 46.44 117 48.232V57.864C117 59.6347 116.755 61.16 116.264 62.44C115.774 63.72 114.952 64.7013 113.8 65.384C112.67 66.0667 111.123 66.408 109.16 66.408ZM109.16 62.344C109.758 62.344 110.195 62.1947 110.472 61.896C110.75 61.5973 110.931 61.2133 111.016 60.744C111.102 60.2747 111.144 59.7947 111.144 59.304V46.824C111.144 46.312 111.102 45.832 111.016 45.384C110.931 44.9147 110.75 44.5307 110.472 44.232C110.195 43.9333 109.758 43.784 109.16 43.784C108.606 43.784 108.19 43.9333 107.912 44.232C107.635 44.5307 107.454 44.9147 107.368 45.384C107.283 45.832 107.24 46.312 107.24 46.824V59.304C107.24 59.7947 107.272 60.2747 107.336 60.744C107.422 61.2133 107.592 61.5973 107.848 61.896C108.126 62.1947 108.563 62.344 109.16 62.344ZM120.486 66.024V40.104H124.518L129.83 52.584V40.104H134.566V66.024H130.694L125.382 52.584V66.024H120.486ZM140.76 66.024V44.36H136.856V40.104H150.392V44.36H146.52V66.024H140.76ZM149.988 66.024L154.884 40.104H161.412L166.244 66.024H160.964L160.1 60.552H156.292L155.396 66.024H149.988ZM156.804 57.128H159.556L158.18 47.016L156.804 57.128ZM168.893 66.024V40.104H174.621V66.024H168.893ZM178.486 66.024V40.104H182.518L187.83 52.584V40.104H192.566V66.024H188.694L183.382 52.584V66.024H178.486ZM196.424 66.024V40.104H208.072V44.008H202.152V50.44H206.664V54.408H202.152V62.152H208.136V66.024H196.424ZM210.736 66.024V40.104H217.872C219.622 40.104 221.136 40.296 222.416 40.68C223.696 41.064 224.688 41.7573 225.392 42.76C226.118 43.7413 226.48 45.1387 226.48 46.952C226.48 48.0187 226.395 48.968 226.224 49.8C226.054 50.632 225.734 51.3573 225.264 51.976C224.816 52.5733 224.166 53.0747 223.312 53.48L226.864 66.024H220.944L218.096 54.408H216.464V66.024H210.736ZM216.464 51.112H218.064C218.875 51.112 219.504 50.9733 219.952 50.696C220.4 50.3973 220.71 49.9813 220.88 49.448C221.072 48.8933 221.168 48.232 221.168 47.464C221.168 46.3547 220.966 45.4907 220.56 44.872C220.155 44.2533 219.408 43.944 218.32 43.944H216.464V51.112Z" fill="white"/>
</g>
<defs>
<filter id="filter0_d_893_1111" x="-0.000273228" y="-2.90871e-05" width="310.325" height="72.128" filterUnits="userSpaceOnUse" color-interpolation-filters="sRGB">
<feFlood flood-opacity="0" result="BackgroundImageFix"/>
<feColorMatrix in="SourceAlpha" type="matrix" values="0 0 0 0 0 0 0 0 0 0 0 0 0 0 0 0 0 0 127 0" result="hardAlpha"/>
<feOffset dy="1"/>
<feGaussianBlur stdDeviation="2.36"/>
<feComposite in2="hardAlpha" operator="out"/>
<feColorMatrix type="matrix" values="0 0 0 0 0 0 0 0 0 0 0 0 0 0 0 0 0 0 0.25 0"/>
<feBlend mode="normal" in2="BackgroundImageFix" result="effect1_dropShadow_893_1111"/>
<feBlend mode="normal" in="SourceGraphic" in2="effect1_dropShadow_893_1111" result="shape"/>
</filter>
</defs>
</svg>
