<svg width="124" height="37" viewBox="0 0 124 37" fill="none" xmlns="http://www.w3.org/2000/svg">
<rect width="36.5" height="36.5" rx="18.25" fill="white"/>
<path d="M16.4163 20.9974V18.2474M20.083 20.9974V18.2474M23.7497 20.9974V18.2474M9.08301 14.5807V10.9141M27.4163 12.7474H9.08301M27.4163 14.5807V10.9141M12.7497 20.9974V18.2474" stroke="#FF7904" stroke-width="2.06182" stroke-linecap="round" stroke-linejoin="round"/>
<path d="M25.583 18.248H10.9163C9.90382 18.248 9.08301 19.0689 9.08301 20.0814V23.748C9.08301 24.7606 9.90382 25.5814 10.9163 25.5814H25.583C26.5955 25.5814 27.4163 24.7606 27.4163 23.748V20.0814C27.4163 19.0689 26.5955 18.248 25.583 18.248Z" stroke="#FF7904" stroke-width="2.06182" stroke-linecap="round" stroke-linejoin="round"/>
<path d="M49.725 11.4827C49.725 12.0127 49.6367 12.4993 49.46 12.9427C49.2833 13.386 49.035 13.7677 48.715 14.0877C48.395 14.4077 48.01 14.656 47.56 14.8327C47.11 15.0093 46.61 15.0977 46.06 15.0977H43.305V7.86766H46.06C46.61 7.86766 47.11 7.95766 47.56 8.13766C48.01 8.31432 48.395 8.56266 48.715 8.88266C49.035 9.19932 49.2833 9.57932 49.46 10.0227C49.6367 10.466 49.725 10.9527 49.725 11.4827ZM48.345 11.4827C48.345 11.086 48.2917 10.731 48.185 10.4177C48.0817 10.101 47.93 9.83432 47.73 9.61766C47.5333 9.39766 47.2933 9.22932 47.01 9.11266C46.73 8.99599 46.4133 8.93766 46.06 8.93766H44.655V14.0277H46.06C46.4133 14.0277 46.73 13.9693 47.01 13.8527C47.2933 13.736 47.5333 13.5693 47.73 13.3527C47.93 13.1327 48.0817 12.866 48.185 12.5527C48.2917 12.236 48.345 11.8793 48.345 11.4827ZM51.9095 9.96766V15.0977H50.6695V9.96766H51.9095ZM52.0795 8.47266C52.0795 8.57932 52.0579 8.67932 52.0145 8.77266C51.9712 8.86599 51.9129 8.94766 51.8395 9.01766C51.7695 9.08766 51.6862 9.14432 51.5895 9.18766C51.4929 9.22766 51.3895 9.24766 51.2795 9.24766C51.1729 9.24766 51.0712 9.22766 50.9745 9.18766C50.8812 9.14432 50.7995 9.08766 50.7295 9.01766C50.6595 8.94766 50.6029 8.86599 50.5595 8.77266C50.5195 8.67932 50.4995 8.57932 50.4995 8.47266C50.4995 8.36266 50.5195 8.25932 50.5595 8.16266C50.6029 8.06599 50.6595 7.98266 50.7295 7.91266C50.7995 7.84266 50.8812 7.78766 50.9745 7.74766C51.0712 7.70432 51.1729 7.68266 51.2795 7.68266C51.3895 7.68266 51.4929 7.70432 51.5895 7.74766C51.6862 7.78766 51.7695 7.84266 51.8395 7.91266C51.9129 7.98266 51.9712 8.06599 52.0145 8.16266C52.0579 8.25932 52.0795 8.36266 52.0795 8.47266ZM53.1686 15.0977V9.96766H53.9236C54.0836 9.96766 54.1886 10.0427 54.2386 10.1927L54.3186 10.5727C54.4086 10.4727 54.5019 10.381 54.5986 10.2977C54.6986 10.2143 54.8036 10.1427 54.9136 10.0827C55.0269 10.0227 55.1469 9.97599 55.2736 9.94266C55.4036 9.90599 55.5453 9.88766 55.6986 9.88766C56.0219 9.88766 56.2869 9.97599 56.4936 10.1527C56.7036 10.326 56.8603 10.5577 56.9636 10.8477C57.0436 10.6777 57.1436 10.5327 57.2636 10.4127C57.3836 10.2893 57.5153 10.1893 57.6586 10.1127C57.8019 10.036 57.9536 9.97932 58.1136 9.94266C58.2769 9.90599 58.4403 9.88766 58.6036 9.88766C58.8869 9.88766 59.1386 9.93099 59.3586 10.0177C59.5786 10.1043 59.7636 10.231 59.9136 10.3977C60.0636 10.5643 60.1769 10.7677 60.2536 11.0077C60.3336 11.2477 60.3736 11.5227 60.3736 11.8327V15.0977H59.1386V11.8327C59.1386 11.506 59.0669 11.261 58.9236 11.0977C58.7803 10.931 58.5703 10.8477 58.2936 10.8477C58.1669 10.8477 58.0486 10.8693 57.9386 10.9127C57.8319 10.956 57.7369 11.0193 57.6536 11.1027C57.5736 11.1827 57.5103 11.2843 57.4636 11.4077C57.4169 11.531 57.3936 11.6727 57.3936 11.8327V15.0977H56.1536V11.8327C56.1536 11.4893 56.0836 11.2393 55.9436 11.0827C55.8069 10.926 55.6053 10.8477 55.3386 10.8477C55.1586 10.8477 54.9903 10.8927 54.8336 10.9827C54.6803 11.0693 54.5369 11.1893 54.4036 11.3427V15.0977H53.1686ZM64.8525 11.9427C64.8525 11.7827 64.8292 11.6327 64.7825 11.4927C64.7392 11.3493 64.6725 11.2243 64.5825 11.1177C64.4925 11.011 64.3775 10.9277 64.2375 10.8677C64.1008 10.8043 63.9408 10.7727 63.7575 10.7727C63.4008 10.7727 63.1192 10.8743 62.9125 11.0777C62.7092 11.281 62.5792 11.5693 62.5225 11.9427H64.8525ZM62.4975 12.6877C62.5175 12.951 62.5642 13.1793 62.6375 13.3727C62.7108 13.5627 62.8075 13.721 62.9275 13.8477C63.0475 13.971 63.1892 14.0643 63.3525 14.1277C63.5192 14.1877 63.7025 14.2177 63.9025 14.2177C64.1025 14.2177 64.2742 14.1943 64.4175 14.1477C64.5642 14.101 64.6908 14.0493 64.7975 13.9927C64.9075 13.936 65.0025 13.8843 65.0825 13.8377C65.1658 13.791 65.2458 13.7677 65.3225 13.7677C65.4258 13.7677 65.5025 13.806 65.5525 13.8827L65.9075 14.3327C65.7708 14.4927 65.6175 14.6277 65.4475 14.7377C65.2775 14.8443 65.0992 14.931 64.9125 14.9977C64.7292 15.061 64.5408 15.106 64.3475 15.1327C64.1575 15.1593 63.9725 15.1727 63.7925 15.1727C63.4358 15.1727 63.1042 15.1143 62.7975 14.9977C62.4908 14.8777 62.2242 14.7027 61.9975 14.4727C61.7708 14.2393 61.5925 13.9527 61.4625 13.6127C61.3325 13.2693 61.2675 12.8727 61.2675 12.4227C61.2675 12.0727 61.3242 11.7443 61.4375 11.4377C61.5508 11.1277 61.7125 10.8593 61.9225 10.6327C62.1358 10.4027 62.3942 10.221 62.6975 10.0877C63.0042 9.95432 63.3492 9.88766 63.7325 9.88766C64.0558 9.88766 64.3542 9.93932 64.6275 10.0427C64.9008 10.146 65.1358 10.2977 65.3325 10.4977C65.5292 10.6943 65.6825 10.9377 65.7925 11.2277C65.9058 11.5143 65.9625 11.8427 65.9625 12.2127C65.9625 12.3993 65.9425 12.526 65.9025 12.5927C65.8625 12.656 65.7858 12.6877 65.6725 12.6877H62.4975ZM68.0443 10.5977C68.1476 10.4943 68.256 10.3993 68.3693 10.3127C68.486 10.2227 68.6076 10.1477 68.7343 10.0877C68.8643 10.0243 69.0026 9.97599 69.1493 9.94266C69.296 9.90599 69.456 9.88766 69.6293 9.88766C69.9093 9.88766 70.1576 9.93599 70.3743 10.0327C70.591 10.126 70.771 10.2593 70.9143 10.4327C71.061 10.6027 71.171 10.8077 71.2443 11.0477C71.321 11.2843 71.3593 11.546 71.3593 11.8327V15.0977H70.1243V11.8327C70.1243 11.5193 70.0526 11.2777 69.9093 11.1077C69.766 10.9343 69.5476 10.8477 69.2543 10.8477C69.041 10.8477 68.841 10.896 68.6543 10.9927C68.4676 11.0893 68.291 11.221 68.1243 11.3877V15.0977H66.8893V9.96766H67.6443C67.8043 9.96766 67.9093 10.0427 67.9593 10.1927L68.0443 10.5977ZM75.6638 10.9677C75.6305 11.021 75.5955 11.0593 75.5588 11.0827C75.5222 11.1027 75.4755 11.1127 75.4188 11.1127C75.3588 11.1127 75.2938 11.096 75.2238 11.0627C75.1572 11.0293 75.0788 10.9927 74.9888 10.9527C74.8988 10.9093 74.7955 10.871 74.6788 10.8377C74.5655 10.8043 74.4305 10.7877 74.2738 10.7877C74.0305 10.7877 73.8388 10.8393 73.6988 10.9427C73.5622 11.046 73.4938 11.181 73.4938 11.3477C73.4938 11.4577 73.5288 11.551 73.5988 11.6277C73.6722 11.701 73.7672 11.766 73.8838 11.8227C74.0038 11.8793 74.1388 11.931 74.2888 11.9777C74.4388 12.021 74.5905 12.0693 74.7438 12.1227C74.9005 12.176 75.0538 12.2377 75.2038 12.3077C75.3538 12.3743 75.4872 12.461 75.6038 12.5677C75.7238 12.671 75.8188 12.796 75.8888 12.9427C75.9622 13.0893 75.9988 13.266 75.9988 13.4727C75.9988 13.7193 75.9538 13.9477 75.8638 14.1577C75.7772 14.3643 75.6472 14.5443 75.4738 14.6977C75.3005 14.8477 75.0855 14.966 74.8288 15.0527C74.5755 15.136 74.2822 15.1777 73.9488 15.1777C73.7722 15.1777 73.5988 15.161 73.4288 15.1277C73.2622 15.0977 73.1005 15.0543 72.9438 14.9977C72.7905 14.941 72.6472 14.8743 72.5138 14.7977C72.3838 14.721 72.2688 14.6377 72.1688 14.5477L72.4538 14.0777C72.4905 14.021 72.5338 13.9777 72.5838 13.9477C72.6338 13.9177 72.6972 13.9027 72.7738 13.9027C72.8505 13.9027 72.9222 13.9243 72.9888 13.9677C73.0588 14.011 73.1388 14.0577 73.2288 14.1077C73.3188 14.1577 73.4238 14.2043 73.5438 14.2477C73.6672 14.291 73.8222 14.3127 74.0088 14.3127C74.1555 14.3127 74.2805 14.296 74.3838 14.2627C74.4905 14.226 74.5772 14.1793 74.6438 14.1227C74.7138 14.066 74.7638 14.001 74.7938 13.9277C74.8272 13.851 74.8438 13.7727 74.8438 13.6927C74.8438 13.5727 74.8072 13.4743 74.7338 13.3977C74.6638 13.321 74.5688 13.2543 74.4488 13.1977C74.3322 13.141 74.1972 13.091 74.0438 13.0477C73.8938 13.001 73.7388 12.951 73.5788 12.8977C73.4222 12.8443 73.2672 12.7827 73.1138 12.7127C72.9638 12.6393 72.8288 12.5477 72.7088 12.4377C72.5922 12.3277 72.4972 12.1927 72.4238 12.0327C72.3538 11.8727 72.3188 11.6793 72.3188 11.4527C72.3188 11.2427 72.3605 11.0427 72.4438 10.8527C72.5272 10.6627 72.6488 10.4977 72.8088 10.3577C72.9722 10.2143 73.1738 10.101 73.4138 10.0177C73.6572 9.93099 73.9372 9.88766 74.2538 9.88766C74.6072 9.88766 74.9288 9.94599 75.2188 10.0627C75.5088 10.1793 75.7505 10.3327 75.9438 10.5227L75.6638 10.9677ZM78.2084 9.96766V15.0977H76.9684V9.96766H78.2084ZM78.3784 8.47266C78.3784 8.57932 78.3567 8.67932 78.3134 8.77266C78.27 8.86599 78.2117 8.94766 78.1384 9.01766C78.0684 9.08766 77.985 9.14432 77.8884 9.18766C77.7917 9.22766 77.6884 9.24766 77.5784 9.24766C77.4717 9.24766 77.37 9.22766 77.2734 9.18766C77.18 9.14432 77.0984 9.08766 77.0284 9.01766C76.9584 8.94766 76.9017 8.86599 76.8584 8.77266C76.8184 8.67932 76.7984 8.57932 76.7984 8.47266C76.7984 8.36266 76.8184 8.25932 76.8584 8.16266C76.9017 8.06599 76.9584 7.98266 77.0284 7.91266C77.0984 7.84266 77.18 7.78766 77.2734 7.74766C77.37 7.70432 77.4717 7.68266 77.5784 7.68266C77.6884 7.68266 77.7917 7.70432 77.8884 7.74766C77.985 7.78766 78.0684 7.84266 78.1384 7.91266C78.2117 7.98266 78.27 8.06599 78.3134 8.16266C78.3567 8.25932 78.3784 8.36266 78.3784 8.47266ZM81.7374 9.88766C82.1174 9.88766 82.4624 9.94932 82.7724 10.0727C83.0858 10.196 83.3524 10.371 83.5724 10.5977C83.7958 10.8243 83.9674 11.101 84.0874 11.4277C84.2074 11.7543 84.2674 12.1193 84.2674 12.5227C84.2674 12.9293 84.2074 13.296 84.0874 13.6227C83.9674 13.9493 83.7958 14.2277 83.5724 14.4577C83.3524 14.6877 83.0858 14.8643 82.7724 14.9877C82.4624 15.111 82.1174 15.1727 81.7374 15.1727C81.3541 15.1727 81.0058 15.111 80.6924 14.9877C80.3791 14.8643 80.1108 14.6877 79.8874 14.4577C79.6674 14.2277 79.4958 13.9493 79.3724 13.6227C79.2524 13.296 79.1924 12.9293 79.1924 12.5227C79.1924 12.1193 79.2524 11.7543 79.3724 11.4277C79.4958 11.101 79.6674 10.8243 79.8874 10.5977C80.1108 10.371 80.3791 10.196 80.6924 10.0727C81.0058 9.94932 81.3541 9.88766 81.7374 9.88766ZM81.7374 14.2227C82.1641 14.2227 82.4791 14.0793 82.6824 13.7927C82.8891 13.506 82.9924 13.086 82.9924 12.5327C82.9924 11.9793 82.8891 11.5577 82.6824 11.2677C82.4791 10.9777 82.1641 10.8327 81.7374 10.8327C81.3041 10.8327 80.9824 10.9793 80.7724 11.2727C80.5658 11.5627 80.4624 11.9827 80.4624 12.5327C80.4624 13.0827 80.5658 13.5027 80.7724 13.7927C80.9824 14.0793 81.3041 14.2227 81.7374 14.2227ZM86.3646 10.5977C86.4679 10.4943 86.5763 10.3993 86.6896 10.3127C86.8063 10.2227 86.9279 10.1477 87.0546 10.0877C87.1846 10.0243 87.3229 9.97599 87.4696 9.94266C87.6163 9.90599 87.7763 9.88766 87.9496 9.88766C88.2296 9.88766 88.4779 9.93599 88.6946 10.0327C88.9113 10.126 89.0913 10.2593 89.2346 10.4327C89.3813 10.6027 89.4913 10.8077 89.5646 11.0477C89.6413 11.2843 89.6796 11.546 89.6796 11.8327V15.0977H88.4446V11.8327C88.4446 11.5193 88.3729 11.2777 88.2296 11.1077C88.0863 10.9343 87.8679 10.8477 87.5746 10.8477C87.3613 10.8477 87.1613 10.896 86.9746 10.9927C86.7879 11.0893 86.6113 11.221 86.4446 11.3877V15.0977H85.2096V9.96766H85.9646C86.1246 9.96766 86.2296 10.0427 86.2796 10.1927L86.3646 10.5977Z" fill="white"/>
<path d="M42.804 23.2823V22.6183H44.308V28.4023H43.572V23.2823H42.804ZM45.3665 23.2823V22.6183H46.8705V28.4023H46.1345V23.2823H45.3665ZM51.681 23.1863L49.457 28.4023H48.721L50.977 23.2583H47.889V22.6343H51.681V23.1863ZM57.973 27.2023L56.701 25.9303L55.429 27.2023L54.949 26.7223L56.221 25.4503L54.973 24.2023L55.437 23.7303L56.693 24.9863L57.949 23.7303L58.429 24.2103L57.173 25.4663L58.437 26.7383L57.973 27.2023ZM62.8304 26.8503C62.8838 27.1543 63.0064 27.389 63.1984 27.5543C63.3958 27.7197 63.6598 27.8023 63.9904 27.8023C64.4331 27.8023 64.7584 27.629 64.9664 27.2823C65.1798 26.9357 65.2811 26.3517 65.2704 25.5303C65.1584 25.7703 64.9718 25.9597 64.7104 26.0983C64.4491 26.2317 64.1584 26.2983 63.8384 26.2983C63.4811 26.2983 63.1611 26.2263 62.8784 26.0823C62.6011 25.933 62.3824 25.717 62.2224 25.4343C62.0624 25.1517 61.9824 24.8103 61.9824 24.4103C61.9824 23.8397 62.1478 23.381 62.4784 23.0343C62.8091 22.6823 63.2784 22.5063 63.8864 22.5063C64.6331 22.5063 65.1558 22.749 65.4544 23.2343C65.7584 23.7197 65.9104 24.4423 65.9104 25.4023C65.9104 26.0743 65.8491 26.629 65.7264 27.0663C65.6091 27.5037 65.4064 27.837 65.1184 28.0663C64.8358 28.2957 64.4464 28.4103 63.9504 28.4103C63.4064 28.4103 62.9824 28.2637 62.6784 27.9703C62.3744 27.677 62.2011 27.3037 62.1584 26.8503H62.8304ZM63.9584 25.6823C64.3158 25.6823 64.6091 25.573 64.8384 25.3543C65.0678 25.1303 65.1824 24.829 65.1824 24.4503C65.1824 24.0503 65.0704 23.7277 64.8464 23.4823C64.6224 23.237 64.3078 23.1143 63.9024 23.1143C63.5291 23.1143 63.2304 23.2317 63.0064 23.4663C62.7878 23.701 62.6784 24.0103 62.6784 24.3943C62.6784 24.7837 62.7878 25.0957 63.0064 25.3303C63.2251 25.565 63.5424 25.6823 63.9584 25.6823ZM70.1575 23.9943C70.0402 23.4023 69.6748 23.1063 69.0615 23.1063C68.5868 23.1063 68.2322 23.2903 67.9975 23.6583C67.7628 24.021 67.6482 24.621 67.6535 25.4583C67.7762 25.181 67.9788 24.965 68.2615 24.8103C68.5495 24.6503 68.8695 24.5703 69.2215 24.5703C69.7708 24.5703 70.2082 24.741 70.5335 25.0823C70.8642 25.4237 71.0295 25.8957 71.0295 26.4983C71.0295 26.861 70.9575 27.1863 70.8135 27.4743C70.6748 27.7623 70.4615 27.9917 70.1735 28.1623C69.8908 28.333 69.5468 28.4183 69.1415 28.4183C68.5922 28.4183 68.1628 28.2957 67.8535 28.0503C67.5442 27.805 67.3282 27.4663 67.2055 27.0343C67.0828 26.6023 67.0215 26.069 67.0215 25.4343C67.0215 23.477 67.7042 22.4983 69.0695 22.4983C69.5922 22.4983 70.0028 22.6397 70.3015 22.9223C70.6002 23.205 70.7762 23.5623 70.8295 23.9943H70.1575ZM69.0695 25.1863C68.8402 25.1863 68.6242 25.2343 68.4215 25.3303C68.2188 25.421 68.0535 25.5623 67.9255 25.7543C67.8028 25.941 67.7415 26.1703 67.7415 26.4423C67.7415 26.8477 67.8588 27.1783 68.0935 27.4343C68.3282 27.685 68.6642 27.8103 69.1015 27.8103C69.4748 27.8103 69.7708 27.6957 69.9895 27.4663C70.2135 27.2317 70.3255 26.917 70.3255 26.5223C70.3255 26.1063 70.2188 25.781 70.0055 25.5463C69.7922 25.3063 69.4802 25.1863 69.0695 25.1863ZM77.4964 27.2023L76.2244 25.9303L74.9524 27.2023L74.4724 26.7223L75.7444 25.4503L74.4964 24.2023L74.9604 23.7303L76.2164 24.9863L77.4724 23.7303L77.9524 24.2103L76.6964 25.4663L77.9604 26.7383L77.4964 27.2023ZM85.1059 23.2503H82.2979V25.0743C82.4205 24.9037 82.6019 24.765 82.8419 24.6583C83.0819 24.5463 83.3405 24.4903 83.6179 24.4903C84.0605 24.4903 84.4205 24.5837 84.6979 24.7703C84.9752 24.9517 85.1725 25.189 85.2899 25.4823C85.4125 25.7703 85.4739 26.077 85.4739 26.4023C85.4739 26.7863 85.4019 27.1303 85.2579 27.4343C85.1139 27.7383 84.8925 27.9783 84.5939 28.1543C84.3005 28.3303 83.9352 28.4183 83.4979 28.4183C82.9379 28.4183 82.4845 28.2743 82.1379 27.9863C81.7912 27.6983 81.5805 27.3143 81.5059 26.8343H82.2179C82.2872 27.1383 82.4339 27.3757 82.6579 27.5463C82.8819 27.717 83.1645 27.8023 83.5059 27.8023C83.9272 27.8023 84.2445 27.677 84.4579 27.4263C84.6712 27.1703 84.7779 26.8343 84.7779 26.4183C84.7779 26.0023 84.6712 25.6823 84.4579 25.4583C84.2445 25.229 83.9299 25.1143 83.5139 25.1143C83.2312 25.1143 82.9832 25.1837 82.7699 25.3223C82.5619 25.4557 82.4099 25.6397 82.3139 25.8743H81.6259V22.6103H85.1059V23.2503ZM86.2493 23.2823V22.6183H87.7533V28.4023H87.0173V23.2823H86.2493ZM96.5286 23.9383C96.87 23.9383 97.174 24.0103 97.4406 24.1543C97.7073 24.293 97.918 24.5037 98.0726 24.7863C98.2273 25.069 98.3046 25.413 98.3046 25.8183V28.4023H97.5846V25.9223C97.5846 25.485 97.4753 25.1517 97.2566 24.9223C97.0433 24.6877 96.7526 24.5703 96.3846 24.5703C96.006 24.5703 95.7046 24.693 95.4806 24.9383C95.2566 25.1783 95.1446 25.5277 95.1446 25.9863V28.4023H94.4246V25.9223C94.4246 25.485 94.3153 25.1517 94.0966 24.9223C93.8833 24.6877 93.5926 24.5703 93.2246 24.5703C92.846 24.5703 92.5446 24.693 92.3206 24.9383C92.0966 25.1783 91.9846 25.5277 91.9846 25.9863V28.4023H91.2566V24.0183H91.9846V24.6503C92.1286 24.421 92.3206 24.245 92.5606 24.1223C92.806 23.9997 93.0753 23.9383 93.3686 23.9383C93.7366 23.9383 94.062 24.021 94.3446 24.1863C94.6273 24.3517 94.838 24.5943 94.9766 24.9143C95.0993 24.605 95.302 24.365 95.5846 24.1943C95.8673 24.0237 96.182 23.9383 96.5286 23.9383ZM104.771 23.9383C105.112 23.9383 105.416 24.0103 105.683 24.1543C105.949 24.293 106.16 24.5037 106.315 24.7863C106.469 25.069 106.547 25.413 106.547 25.8183V28.4023H105.827V25.9223C105.827 25.485 105.717 25.1517 105.499 24.9223C105.285 24.6877 104.995 24.5703 104.627 24.5703C104.248 24.5703 103.947 24.693 103.723 24.9383C103.499 25.1783 103.387 25.5277 103.387 25.9863V28.4023H102.667V25.9223C102.667 25.485 102.557 25.1517 102.339 24.9223C102.125 24.6877 101.835 24.5703 101.467 24.5703C101.088 24.5703 100.787 24.693 100.563 24.9383C100.339 25.1783 100.227 25.5277 100.227 25.9863V28.4023H99.4988V24.0183H100.227V24.6503C100.371 24.421 100.563 24.245 100.803 24.1223C101.048 23.9997 101.317 23.9383 101.611 23.9383C101.979 23.9383 102.304 24.021 102.587 24.1863C102.869 24.3517 103.08 24.5943 103.219 24.9143C103.341 24.605 103.544 24.365 103.827 24.1943C104.109 24.0237 104.424 23.9383 104.771 23.9383Z" fill="white"/>
</svg>
