<svg width="159" height="38" viewBox="0 0 159 38" fill="none" xmlns="http://www.w3.org/2000/svg">
<rect x="7.71511" y="0.27029" width="27.5696" height="26.4885" rx="13.2442" stroke="black" stroke-width="0.540581"/>
<path d="M15.6455 15.2717V10.5867C15.6455 9.48216 15.6455 8.9305 15.9887 8.58732C16.3319 8.24414 16.8835 8.24414 17.988 8.24414H25.0156C26.1201 8.24414 26.6717 8.24414 27.0149 8.58732C27.3581 8.9305 27.3581 9.48216 27.3581 10.5867V15.2717C27.3581 16.3762 27.3581 16.9278 27.0149 17.271C26.6717 17.6142 26.1201 17.6142 25.0156 17.6142H17.988C16.8835 17.6142 16.3319 17.6142 15.9887 17.271C15.6455 16.9278 15.6455 16.3762 15.6455 15.2717Z" stroke="black" stroke-width="0.878444" stroke-linecap="round"/>
<path d="M25.6021 10.0072V10.002M25.6021 11.7612V11.7565M25.6021 13.5157V13.5105" stroke="black" stroke-width="0.878444" stroke-linecap="round" stroke-linejoin="round"/>
<path d="M17.4028 14.687V11.1732C17.4028 10.621 17.4028 10.3451 17.5744 10.1735C17.746 10.002 18.0218 10.002 18.5741 10.002H22.6735C23.2257 10.002 23.5016 10.002 23.6732 10.1735C23.8448 10.3451 23.8448 10.621 23.8448 11.1732V14.687C23.8448 15.2392 23.8448 15.5151 23.6732 15.6867C23.5016 15.8582 23.2257 15.8582 22.6735 15.8582H18.5741C18.0218 15.8582 17.746 15.8582 17.5744 15.6867C17.4028 15.5151 17.4028 15.2392 17.4028 14.687Z" stroke="black" stroke-width="0.878444" stroke-linejoin="round"/>
<path d="M17.4028 17.6143V18.7855M25.6016 17.6143V18.7855" stroke="black" stroke-width="0.878444" stroke-linecap="round"/>
<path d="M4.50642 31.5441L3.8634 35.1914H3.38377L3.8634 32.4717L2.17151 35.1914H1.83419L1.0963 32.4823L0.616668 35.1914H0.137037L0.785329 31.5441H1.30185L2.11881 34.5589L3.99516 31.5441H4.50642ZM5.51484 31.834C5.43754 31.834 5.37253 31.8094 5.31983 31.7602C5.27064 31.7075 5.24604 31.6425 5.24604 31.5652C5.24604 31.4598 5.28469 31.3702 5.36199 31.2964C5.4393 31.2191 5.5289 31.1804 5.6308 31.1804C5.71161 31.1804 5.77662 31.205 5.82581 31.2542C5.875 31.3034 5.8996 31.3684 5.8996 31.4492C5.8996 31.5546 5.86095 31.646 5.78365 31.7233C5.70634 31.7971 5.61674 31.834 5.51484 31.834ZM5.66769 32.3031L5.15644 35.1914H4.67681L5.18806 32.3031H5.66769ZM6.04767 33.742C6.10038 33.4433 6.20579 33.1833 6.36391 32.9619C6.52555 32.737 6.72408 32.5631 6.9595 32.4401C7.19492 32.3171 7.44967 32.2556 7.72374 32.2556C8.07864 32.2556 8.35447 32.3417 8.55124 32.5139C8.75152 32.6861 8.86221 32.925 8.88329 33.2307H8.36677C8.3492 33.055 8.27716 32.9162 8.15067 32.8143C8.02769 32.7124 7.86078 32.6615 7.64996 32.6615C7.37588 32.6615 7.13694 32.7564 6.93315 32.9461C6.73286 33.1323 6.60285 33.3976 6.54312 33.742C6.52555 33.8579 6.51676 33.9546 6.51676 34.0319C6.51676 34.2884 6.58528 34.4869 6.72232 34.6274C6.85936 34.7645 7.04207 34.833 7.27047 34.833C7.48129 34.833 7.66401 34.7838 7.81862 34.6854C7.97674 34.587 8.09796 34.4465 8.18229 34.2638H8.69882C8.57232 34.5589 8.37731 34.7961 8.11377 34.9753C7.85024 35.151 7.54454 35.2388 7.19668 35.2388C6.83476 35.2388 6.54663 35.1352 6.33229 34.9279C6.12146 34.7206 6.01605 34.4377 6.01605 34.0793C6.01605 33.9704 6.02659 33.8579 6.04767 33.742ZM10.0714 32.8512C10.1874 32.6615 10.3332 32.5139 10.5089 32.4085C10.6846 32.3031 10.8849 32.2504 11.1097 32.2504L11.0201 32.7458H10.8936C10.6442 32.7458 10.4351 32.8126 10.2664 32.9461C10.1013 33.0796 9.9906 33.3045 9.93438 33.6207L9.65503 35.1914H9.1754L9.68665 32.3031H10.1663L10.0714 32.8512ZM12.4118 35.2388C12.1694 35.2388 11.955 35.1896 11.7688 35.0913C11.5861 34.9894 11.4438 34.8488 11.3419 34.6696C11.24 34.4869 11.189 34.2761 11.189 34.0371C11.189 33.7103 11.2646 33.4117 11.4157 33.1411C11.5668 32.867 11.7741 32.6509 12.0376 32.4928C12.3047 32.3347 12.6016 32.2556 12.9284 32.2556C13.1708 32.2556 13.3851 32.3066 13.5714 32.4085C13.7611 32.5069 13.9069 32.6474 14.0088 32.8301C14.1143 33.0094 14.167 33.2202 14.167 33.4626C14.167 33.7894 14.0897 34.0881 13.9351 34.3586C13.7804 34.6292 13.5696 34.8435 13.3026 35.0017C13.0355 35.1598 12.7386 35.2388 12.4118 35.2388ZM12.4698 34.833C12.6982 34.833 12.9038 34.7715 13.0865 34.6485C13.2692 34.522 13.4115 34.3569 13.5134 34.1531C13.6188 33.9458 13.6715 33.7244 13.6715 33.489C13.6715 33.2219 13.5942 33.0181 13.4396 32.8776C13.285 32.7335 13.0917 32.6615 12.8598 32.6615C12.6314 32.6615 12.4276 32.7247 12.2484 32.8512C12.0692 32.9742 11.9304 33.1394 11.8321 33.3467C11.7337 33.554 11.6845 33.7771 11.6845 34.016C11.6845 34.2761 11.7583 34.4781 11.9059 34.6222C12.0534 34.7627 12.2414 34.833 12.4698 34.833ZM18.8718 32.3031L17.4593 35.1914H16.9638L16.6792 32.8934L15.5724 35.1914H15.0769L14.6816 32.3031H15.1718L15.409 34.7276L16.5475 32.3031H17.0429L17.317 34.7118L18.3975 32.3031H18.8718ZM18.9104 33.7367C18.9631 33.4415 19.0685 33.1833 19.2266 32.9619C19.3882 32.737 19.5832 32.5631 19.8116 32.4401C20.0435 32.3171 20.2895 32.2556 20.5495 32.2556C20.8025 32.2556 21.0116 32.3101 21.1767 32.419C21.3419 32.528 21.4561 32.665 21.5193 32.8301L21.6142 32.3031H22.0991L21.5879 35.1914H21.103L21.2031 34.6538C21.0766 34.8225 20.9097 34.963 20.7024 35.0755C20.4951 35.1844 20.2667 35.2388 20.0172 35.2388C19.7923 35.2388 19.5938 35.1914 19.4216 35.0965C19.2494 34.9981 19.1159 34.8594 19.021 34.6802C18.9262 34.5009 18.8787 34.2936 18.8787 34.0582C18.8787 33.9528 18.8893 33.8456 18.9104 33.7367ZM21.3612 33.742C21.3753 33.6682 21.3823 33.5891 21.3823 33.5048C21.3823 33.2483 21.305 33.0462 21.1504 32.8987C20.9993 32.7476 20.806 32.672 20.5706 32.672C20.3914 32.672 20.2192 32.7142 20.0541 32.7985C19.8925 32.8829 19.7537 33.0058 19.6377 33.1675C19.5218 33.3291 19.4445 33.5188 19.4058 33.7367C19.3917 33.8105 19.3847 33.8913 19.3847 33.9792C19.3847 34.2392 19.4603 34.4447 19.6114 34.5958C19.7624 34.7434 19.9557 34.8172 20.1911 34.8172C20.3703 34.8172 20.5407 34.775 20.7024 34.6907C20.8675 34.6028 21.0081 34.4781 21.124 34.3165C21.2435 34.1513 21.3226 33.9598 21.3612 33.742ZM23.5527 34.7381L24.8809 32.3031H25.3974L23.7529 35.1914H23.189L22.567 32.3031H23.0836L23.5527 34.7381ZM27.1185 32.2556C27.361 32.2556 27.57 32.3031 27.7457 32.398C27.9249 32.4893 28.0602 32.6193 28.1516 32.788C28.2464 32.9531 28.2939 33.1429 28.2939 33.3572C28.2939 33.431 28.2851 33.5206 28.2675 33.626C28.2535 33.7174 28.2306 33.8122 28.199 33.9106H25.8904C25.8834 33.9809 25.8799 34.0319 25.8799 34.0635C25.8799 34.3059 25.9519 34.4957 26.096 34.6327C26.2436 34.7662 26.4351 34.833 26.6705 34.833C26.8778 34.833 27.0588 34.7856 27.2134 34.6907C27.3715 34.5923 27.491 34.4623 27.5718 34.3007H28.0883C27.9618 34.5783 27.7668 34.8049 27.5033 34.9806C27.2432 35.1528 26.9411 35.2388 26.5967 35.2388C26.2348 35.2388 25.9431 35.1352 25.7218 34.9279C25.5039 34.717 25.395 34.4307 25.395 34.0688C25.395 33.9669 25.4055 33.8579 25.4266 33.742C25.4793 33.4433 25.5865 33.1815 25.7481 32.9566C25.9098 32.7318 26.1083 32.5596 26.3437 32.4401C26.5827 32.3171 26.8409 32.2556 27.1185 32.2556ZM27.7826 33.5628C27.7932 33.4925 27.7984 33.4275 27.7984 33.3678C27.7984 33.1429 27.7264 32.9689 27.5823 32.846C27.4418 32.723 27.2573 32.6615 27.0289 32.6615C26.7829 32.6615 26.5598 32.7423 26.3595 32.9039C26.1592 33.0621 26.024 33.2817 25.9537 33.5628H27.7826ZM31.0036 33.0568L30.9298 33.4626H28.8268L28.9006 33.0568H31.0036ZM32.5415 35.2388C32.2393 35.2388 31.9916 35.1668 31.7983 35.0227C31.6051 34.8787 31.5084 34.6854 31.5084 34.443C31.5084 34.3973 31.5102 34.3639 31.5137 34.3428H31.9828C31.9687 34.4939 32.0127 34.6169 32.1146 34.7118C32.22 34.8066 32.3711 34.8541 32.5678 34.8541C32.7646 34.8541 32.9227 34.8172 33.0422 34.7434C33.1652 34.6661 33.2267 34.5589 33.2267 34.4219C33.2267 34.3059 33.1775 34.2146 33.0791 34.1478C32.9807 34.0811 32.8296 34.009 32.6258 33.9317C32.4466 33.865 32.299 33.8017 32.1831 33.742C32.0671 33.6822 31.9687 33.5997 31.8879 33.4943C31.8071 33.3853 31.7667 33.2483 31.7667 33.0831C31.7667 32.9215 31.8124 32.7774 31.9037 32.6509C31.9986 32.5245 32.1286 32.4278 32.2938 32.3611C32.4624 32.2908 32.6539 32.2556 32.8683 32.2556C33.1634 32.2556 33.4059 32.3294 33.5956 32.477C33.7854 32.6246 33.8802 32.8179 33.8802 33.0568C33.8802 33.1025 33.8785 33.1376 33.875 33.1622H33.4164L33.4217 33.099C33.4217 32.9584 33.3672 32.8477 33.2583 32.7669C33.1529 32.6826 33.0123 32.6404 32.8366 32.6404C32.6645 32.6404 32.5222 32.6791 32.4097 32.7564C32.3008 32.8337 32.2463 32.9373 32.2463 33.0673C32.2463 33.1903 32.2973 33.2869 32.3992 33.3572C32.5011 33.4275 32.6592 33.5048 32.8735 33.5891C33.0527 33.6594 33.1968 33.7244 33.3057 33.7841C33.4147 33.8404 33.5078 33.9194 33.5851 34.0213C33.6624 34.1232 33.701 34.2515 33.701 34.4061C33.701 34.5747 33.6501 34.7223 33.5482 34.8488C33.4498 34.9753 33.3128 35.0719 33.1371 35.1387C32.9614 35.2055 32.7629 35.2388 32.5415 35.2388ZM34.3517 33.7367C34.4045 33.4415 34.5099 33.1833 34.668 32.9619C34.8296 32.737 35.0246 32.5631 35.253 32.4401C35.4849 32.3171 35.7309 32.2556 35.9909 32.2556C36.2439 32.2556 36.453 32.3101 36.6181 32.419C36.7833 32.528 36.8975 32.665 36.9607 32.8301L37.0556 32.3031H37.5405L37.0292 35.1914H36.5443L36.6445 34.6538C36.518 34.8225 36.3511 34.963 36.1438 35.0755C35.9365 35.1844 35.7081 35.2388 35.4586 35.2388C35.2337 35.2388 35.0352 35.1914 34.863 35.0965C34.6908 34.9981 34.5573 34.8594 34.4624 34.6802C34.3676 34.5009 34.3201 34.2936 34.3201 34.0582C34.3201 33.9528 34.3307 33.8456 34.3517 33.7367ZM36.8026 33.742C36.8167 33.6682 36.8237 33.5891 36.8237 33.5048C36.8237 33.2483 36.7464 33.0462 36.5918 32.8987C36.4407 32.7476 36.2474 32.672 36.012 32.672C35.8328 32.672 35.6606 32.7142 35.4955 32.7985C35.3338 32.8829 35.1951 33.0058 35.0791 33.1675C34.9631 33.3291 34.8858 33.5188 34.8472 33.7367C34.8331 33.8105 34.8261 33.8913 34.8261 33.9792C34.8261 34.2392 34.9017 34.4447 35.0527 34.5958C35.2038 34.7434 35.3971 34.8172 35.6325 34.8172C35.8117 34.8172 35.9821 34.775 36.1438 34.6907C36.3089 34.6028 36.4495 34.4781 36.5654 34.3165C36.6849 34.1513 36.764 33.9598 36.8026 33.742ZM39.6265 31.5652C39.4122 31.5652 39.2541 31.6074 39.1522 31.6917C39.0538 31.7725 38.9888 31.9078 38.9572 32.0975L38.9203 32.3031H39.5264L39.4579 32.6984H38.8517L38.409 35.1914H37.9294L38.3668 32.6984H37.9979L38.0664 32.3031H38.4354L38.4723 32.0975C38.532 31.7743 38.6585 31.5388 38.8517 31.3913C39.045 31.2402 39.3261 31.1646 39.6951 31.1646L39.6265 31.5652ZM41.34 32.2556C41.5825 32.2556 41.7916 32.3031 41.9672 32.398C42.1464 32.4893 42.2817 32.6193 42.3731 32.788C42.468 32.9531 42.5154 33.1429 42.5154 33.3572C42.5154 33.431 42.5066 33.5206 42.489 33.626C42.475 33.7174 42.4521 33.8122 42.4205 33.9106H40.112C40.1049 33.9809 40.1014 34.0319 40.1014 34.0635C40.1014 34.3059 40.1735 34.4957 40.3175 34.6327C40.4651 34.7662 40.6566 34.833 40.892 34.833C41.0993 34.833 41.2803 34.7856 41.4349 34.6907C41.593 34.5923 41.7125 34.4623 41.7933 34.3007H42.3098C42.1833 34.5783 41.9883 34.8049 41.7248 34.9806C41.4648 35.1528 41.1626 35.2388 40.8182 35.2388C40.4563 35.2388 40.1647 35.1352 39.9433 34.9279C39.7255 34.717 39.6165 34.4307 39.6165 34.0688C39.6165 33.9669 39.6271 33.8579 39.6482 33.742C39.7009 33.4433 39.808 33.1815 39.9697 32.9566C40.1313 32.7318 40.3298 32.5596 40.5652 32.4401C40.8042 32.3171 41.0624 32.2556 41.34 32.2556ZM42.0041 33.5628C42.0147 33.4925 42.0199 33.4275 42.0199 33.3678C42.0199 33.1429 41.9479 32.9689 41.8039 32.846C41.6633 32.723 41.4788 32.6615 41.2504 32.6615C41.0045 32.6615 40.7813 32.7423 40.5811 32.9039C40.3808 33.0621 40.2455 33.2817 40.1752 33.5628H42.0041Z" fill="black"/>
<rect x="58.1043" y="0.27029" width="26.4885" height="26.4885" rx="13.2442" stroke="black" stroke-width="0.540581"/>
<path d="M69.548 7.6582L71.3499 9.46014M71.3499 9.46014L73.1519 7.6582M71.3499 9.46014V17.5689M65.4937 15.3164L67.2956 13.5145M67.2956 13.5145L65.4937 11.7126M67.2956 13.5145H75.4043M73.1519 19.3708L71.3499 17.5689M71.3499 17.5689L69.548 19.3708M77.2062 11.7126L75.4043 13.5145M75.4043 13.5145L77.2062 15.3164M68.1966 10.3611L69.548 11.7126M69.548 15.3164L68.1966 16.6679M74.5033 10.3611L73.1519 11.7126M73.1519 15.3164L74.5033 16.6679" stroke="black" stroke-width="0.752952" stroke-linecap="round" stroke-linejoin="round"/>
<path d="M57.2106 31.5178L57.1421 31.892H55.5503L55.329 33.1517H56.6256L56.557 33.5259H55.2605L54.9653 35.1914H54.4857L55.1392 31.5178H57.2106ZM58.0376 32.8512C58.1536 32.6615 58.2994 32.5139 58.4751 32.4085C58.6508 32.3031 58.851 32.2504 59.0759 32.2504L58.9863 32.7458H58.8598C58.6103 32.7458 58.4013 32.8126 58.2326 32.9461C58.0675 33.0796 57.9568 33.3045 57.9006 33.6207L57.6212 35.1914H57.1416L57.6528 32.3031H58.1325L58.0376 32.8512ZM60.8735 32.2556C61.1159 32.2556 61.325 32.3031 61.5007 32.398C61.6799 32.4893 61.8152 32.6193 61.9065 32.788C62.0014 32.9531 62.0488 33.1429 62.0488 33.3572C62.0488 33.431 62.04 33.5206 62.0225 33.626C62.0084 33.7174 61.9856 33.8122 61.954 33.9106H59.6454C59.6384 33.9809 59.6349 34.0319 59.6349 34.0635C59.6349 34.3059 59.7069 34.4957 59.851 34.6327C59.9985 34.7662 60.19 34.833 60.4255 34.833C60.6328 34.833 60.8137 34.7856 60.9683 34.6907C61.1265 34.5923 61.2459 34.4623 61.3267 34.3007H61.8433C61.7168 34.5783 61.5218 34.8049 61.2582 34.9806C60.9982 35.1528 60.696 35.2388 60.3517 35.2388C59.9898 35.2388 59.6981 35.1352 59.4767 34.9279C59.2589 34.717 59.15 34.4307 59.15 34.0688C59.15 33.9669 59.1605 33.8579 59.1816 33.742C59.2343 33.4433 59.3415 33.1815 59.5031 32.9566C59.6647 32.7318 59.8633 32.5596 60.0987 32.4401C60.3376 32.3171 60.5959 32.2556 60.8735 32.2556ZM61.5376 33.5628C61.5481 33.4925 61.5534 33.4275 61.5534 33.3678C61.5534 33.1429 61.4813 32.9689 61.3373 32.846C61.1967 32.723 61.0123 32.6615 60.7839 32.6615C60.5379 32.6615 60.3148 32.7423 60.1145 32.9039C59.9142 33.0621 59.7789 33.2817 59.7086 33.5628H61.5376ZM64.1419 32.2556C64.3843 32.2556 64.5934 32.3031 64.7691 32.398C64.9483 32.4893 65.0836 32.6193 65.1749 32.788C65.2698 32.9531 65.3173 33.1429 65.3173 33.3572C65.3173 33.431 65.3085 33.5206 65.2909 33.626C65.2768 33.7174 65.254 33.8122 65.2224 33.9106H62.9138C62.9068 33.9809 62.9033 34.0319 62.9033 34.0635C62.9033 34.3059 62.9753 34.4957 63.1194 34.6327C63.267 34.7662 63.4585 34.833 63.6939 34.833C63.9012 34.833 64.0822 34.7856 64.2368 34.6907C64.3949 34.5923 64.5144 34.4623 64.5952 34.3007H65.1117C64.9852 34.5783 64.7902 34.8049 64.5267 34.9806C64.2666 35.1528 63.9644 35.2388 63.6201 35.2388C63.2582 35.2388 62.9665 35.1352 62.7452 34.9279C62.5273 34.717 62.4184 34.4307 62.4184 34.0688C62.4184 33.9669 62.4289 33.8579 62.45 33.742C62.5027 33.4433 62.6099 33.1815 62.7715 32.9566C62.9332 32.7318 63.1317 32.5596 63.3671 32.4401C63.606 32.3171 63.8643 32.2556 64.1419 32.2556ZM64.806 33.5628C64.8165 33.4925 64.8218 33.4275 64.8218 33.3678C64.8218 33.1429 64.7498 32.9689 64.6057 32.846C64.4652 32.723 64.2807 32.6615 64.0523 32.6615C63.8063 32.6615 63.5832 32.7423 63.3829 32.9039C63.1826 33.0621 63.0474 33.2817 62.9771 33.5628H64.806ZM66.0768 34.7961H67.4947L67.4209 35.1914H65.4549L65.5234 34.7961L67.2996 32.6931H65.9082L65.9767 32.3031H67.9163L67.8478 32.6931L66.0768 34.7961ZM69.8089 32.2556C70.0513 32.2556 70.2604 32.3031 70.4361 32.398C70.6153 32.4893 70.7506 32.6193 70.8419 32.788C70.9368 32.9531 70.9842 33.1429 70.9842 33.3572C70.9842 33.431 70.9755 33.5206 70.9579 33.626C70.9438 33.7174 70.921 33.8122 70.8894 33.9106H68.5808C68.5738 33.9809 68.5703 34.0319 68.5703 34.0635C68.5703 34.3059 68.6423 34.4957 68.7864 34.6327C68.934 34.7662 69.1255 34.833 69.3609 34.833C69.5682 34.833 69.7492 34.7856 69.9038 34.6907C70.0619 34.5923 70.1813 34.4623 70.2622 34.3007H70.7787C70.6522 34.5783 70.4572 34.8049 70.1936 34.9806C69.9336 35.1528 69.6314 35.2388 69.2871 35.2388C68.9252 35.2388 68.6335 35.1352 68.4122 34.9279C68.1943 34.717 68.0854 34.4307 68.0854 34.0688C68.0854 33.9669 68.0959 33.8579 68.117 33.742C68.1697 33.4433 68.2769 33.1815 68.4385 32.9566C68.6001 32.7318 68.7987 32.5596 69.0341 32.4401C69.273 32.3171 69.5313 32.2556 69.8089 32.2556ZM70.473 33.5628C70.4835 33.4925 70.4888 33.4275 70.4888 33.3678C70.4888 33.1429 70.4168 32.9689 70.2727 32.846C70.1322 32.723 69.9477 32.6615 69.7193 32.6615C69.4733 32.6615 69.2502 32.7423 69.0499 32.9039C68.8496 33.0621 68.7143 33.2817 68.6441 33.5628H70.473ZM72.2077 32.8512C72.3236 32.6615 72.4694 32.5139 72.6451 32.4085C72.8208 32.3031 73.0211 32.2504 73.246 32.2504L73.1564 32.7458H73.0299C72.7804 32.7458 72.5713 32.8126 72.4027 32.9461C72.2375 33.0796 72.1268 33.3045 72.0706 33.6207L71.7913 35.1914H71.3116L71.8229 32.3031H72.3025L72.2077 32.8512ZM75.6602 33.0568L75.5864 33.4626H73.4834L73.5572 33.0568H75.6602ZM77.1981 35.2388C76.8959 35.2388 76.6482 35.1668 76.4549 35.0227C76.2616 34.8787 76.165 34.6854 76.165 34.443C76.165 34.3973 76.1668 34.3639 76.1703 34.3428H76.6394C76.6253 34.4939 76.6692 34.6169 76.7711 34.7118C76.8766 34.8066 77.0276 34.8541 77.2244 34.8541C77.4212 34.8541 77.5793 34.8172 77.6988 34.7434C77.8218 34.6661 77.8833 34.5589 77.8833 34.4219C77.8833 34.3059 77.8341 34.2146 77.7357 34.1478C77.6373 34.0811 77.4862 34.009 77.2824 33.9317C77.1032 33.865 76.9556 33.8017 76.8397 33.742C76.7237 33.6822 76.6253 33.5997 76.5445 33.4943C76.4637 33.3853 76.4233 33.2483 76.4233 33.0831C76.4233 32.9215 76.469 32.7774 76.5603 32.6509C76.6552 32.5245 76.7852 32.4278 76.9503 32.3611C77.119 32.2908 77.3105 32.2556 77.5248 32.2556C77.82 32.2556 78.0625 32.3294 78.2522 32.477C78.4419 32.6246 78.5368 32.8179 78.5368 33.0568C78.5368 33.1025 78.5351 33.1376 78.5315 33.1622H78.073L78.0783 33.099C78.0783 32.9584 78.0238 32.8477 77.9149 32.7669C77.8095 32.6826 77.6689 32.6404 77.4932 32.6404C77.3211 32.6404 77.1787 32.6791 77.0663 32.7564C76.9574 32.8337 76.9029 32.9373 76.9029 33.0673C76.9029 33.1903 76.9539 33.2869 77.0558 33.3572C77.1577 33.4275 77.3158 33.5048 77.5301 33.5891C77.7093 33.6594 77.8534 33.7244 77.9623 33.7841C78.0712 33.8404 78.1644 33.9194 78.2417 34.0213C78.319 34.1232 78.3576 34.2515 78.3576 34.4061C78.3576 34.5747 78.3067 34.7223 78.2048 34.8488C78.1064 34.9753 77.9693 35.0719 77.7937 35.1387C77.618 35.2055 77.4194 35.2388 77.1981 35.2388ZM79.0083 33.7367C79.061 33.4415 79.1665 33.1833 79.3246 32.9619C79.4862 32.737 79.6812 32.5631 79.9096 32.4401C80.1415 32.3171 80.3875 32.2556 80.6475 32.2556C80.9005 32.2556 81.1096 32.3101 81.2747 32.419C81.4399 32.528 81.5541 32.665 81.6173 32.8301L81.7122 32.3031H82.1971L81.6858 35.1914H81.2009L81.3011 34.6538C81.1746 34.8225 81.0077 34.963 80.8004 35.0755C80.593 35.1844 80.3647 35.2388 80.1152 35.2388C79.8903 35.2388 79.6918 35.1914 79.5196 35.0965C79.3474 34.9981 79.2139 34.8594 79.119 34.6802C79.0241 34.5009 78.9767 34.2936 78.9767 34.0582C78.9767 33.9528 78.9873 33.8456 79.0083 33.7367ZM81.4592 33.742C81.4732 33.6682 81.4803 33.5891 81.4803 33.5048C81.4803 33.2483 81.403 33.0462 81.2484 32.8987C81.0973 32.7476 80.904 32.672 80.6686 32.672C80.4894 32.672 80.3172 32.7142 80.1521 32.7985C79.9904 32.8829 79.8516 33.0058 79.7357 33.1675C79.6197 33.3291 79.5424 33.5188 79.5038 33.7367C79.4897 33.8105 79.4827 33.8913 79.4827 33.9792C79.4827 34.2392 79.5582 34.4447 79.7093 34.5958C79.8604 34.7434 80.0537 34.8172 80.2891 34.8172C80.4683 34.8172 80.6387 34.775 80.8004 34.6907C80.9655 34.6028 81.1061 34.4781 81.222 34.3165C81.3415 34.1513 81.4205 33.9598 81.4592 33.742ZM84.2831 31.5652C84.0688 31.5652 83.9107 31.6074 83.8088 31.6917C83.7104 31.7725 83.6454 31.9078 83.6137 32.0975L83.5768 32.3031H84.183L84.1145 32.6984H83.5083L83.0656 35.1914H82.586L83.0234 32.6984H82.6545L82.723 32.3031H83.0919L83.1288 32.0975C83.1886 31.7743 83.3151 31.5388 83.5083 31.3913C83.7016 31.2402 83.9827 31.1646 84.3516 31.1646L84.2831 31.5652ZM85.9966 32.2556C86.2391 32.2556 86.4481 32.3031 86.6238 32.398C86.803 32.4893 86.9383 32.6193 87.0297 32.788C87.1245 32.9531 87.172 33.1429 87.172 33.3572C87.172 33.431 87.1632 33.5206 87.1456 33.626C87.1316 33.7174 87.1087 33.8122 87.0771 33.9106H84.7686C84.7615 33.9809 84.758 34.0319 84.758 34.0635C84.758 34.3059 84.83 34.4957 84.9741 34.6327C85.1217 34.7662 85.3132 34.833 85.5486 34.833C85.7559 34.833 85.9369 34.7856 86.0915 34.6907C86.2496 34.5923 86.3691 34.4623 86.4499 34.3007H86.9664C86.8399 34.5783 86.6449 34.8049 86.3814 34.9806C86.1214 35.1528 85.8192 35.2388 85.4748 35.2388C85.1129 35.2388 84.8213 35.1352 84.5999 34.9279C84.382 34.717 84.2731 34.4307 84.2731 34.0688C84.2731 33.9669 84.2837 33.8579 84.3047 33.742C84.3574 33.4433 84.4646 33.1815 84.6262 32.9566C84.7879 32.7318 84.9864 32.5596 85.2218 32.4401C85.4608 32.3171 85.719 32.2556 85.9966 32.2556ZM86.6607 33.5628C86.6713 33.4925 86.6765 33.4275 86.6765 33.3678C86.6765 33.1429 86.6045 32.9689 86.4604 32.846C86.3199 32.723 86.1354 32.6615 85.907 32.6615C85.6611 32.6615 85.4379 32.7423 85.2376 32.9039C85.0374 33.0621 84.9021 33.2817 84.8318 33.5628H86.6607Z" fill="black"/>
<rect x="115.645" y="0.27029" width="26.4885" height="26.4885" rx="13.2442" stroke="black" stroke-width="0.540581"/>
<g clip-path="url(#clip0_1486_2548)">
<path d="M133.139 15.2205C132.613 15.5406 132.008 15.7089 131.392 15.7069C130.875 15.7028 130.365 15.5973 129.889 15.3962C129.523 15.9135 129.327 16.5322 129.328 17.1662V18.7853C129.328 18.8455 129.316 18.9051 129.292 18.9604C129.268 19.0157 129.233 19.0655 129.19 19.1067C129.146 19.1479 129.094 19.1796 129.037 19.1999C128.98 19.2201 128.92 19.2285 128.86 19.2245C128.747 19.2147 128.642 19.1626 128.566 19.0786C128.49 18.9946 128.448 18.8849 128.45 18.7716V18.0886L126.33 15.9683C126.014 16.0859 125.681 16.1474 125.345 16.15C124.881 16.1512 124.427 16.0245 124.031 15.7838C122.835 15.0569 122.191 13.384 122.316 11.307C122.322 11.1996 122.367 11.0982 122.443 11.0221C122.52 10.9459 122.621 10.9004 122.728 10.8942C124.805 10.7717 126.478 11.4135 127.203 12.6099C127.488 13.0788 127.612 13.6277 127.557 14.1735C127.554 14.2158 127.538 14.2562 127.512 14.2898C127.486 14.3234 127.451 14.3488 127.411 14.3629C127.371 14.377 127.328 14.3793 127.287 14.3693C127.246 14.3594 127.208 14.3377 127.179 14.3069L126.125 13.2034C126.042 13.1245 125.931 13.0811 125.817 13.0826C125.702 13.0841 125.593 13.1302 125.512 13.2112C125.431 13.2922 125.384 13.4016 125.383 13.5162C125.382 13.6307 125.425 13.7413 125.504 13.8243L128.462 16.8577C128.465 16.8149 128.469 16.772 128.473 16.7298C128.57 15.9154 128.929 15.1547 129.497 14.5633L132.274 11.6282C132.357 11.5459 132.403 11.4342 132.403 11.3177C132.403 11.2011 132.357 11.0894 132.275 11.007C132.192 10.9246 132.081 10.8782 131.964 10.8782C131.848 10.8781 131.736 10.9244 131.653 11.0067L128.963 13.8518C128.936 13.8803 128.902 13.9011 128.865 13.912C128.827 13.9229 128.787 13.9235 128.749 13.9137C128.711 13.904 128.676 13.8842 128.648 13.8565C128.621 13.8288 128.601 13.7942 128.591 13.7562C128.331 12.7965 128.445 11.8412 128.942 11.021C129.923 9.40245 132.205 8.53608 135.046 8.70299C135.154 8.70926 135.255 8.75478 135.331 8.83089C135.407 8.907 135.453 9.0084 135.459 9.11586C135.624 11.9582 134.758 14.2399 133.139 15.2205Z" fill="black"/>
</g>
<path d="M103.751 31.5178L103.683 31.892H102.091L101.87 33.1517H103.166L103.098 33.5259H101.801L101.506 35.1914H101.026L101.68 31.5178H103.751ZM104.952 35.2388C104.71 35.2388 104.496 35.1896 104.309 35.0913C104.127 34.9894 103.984 34.8488 103.882 34.6696C103.781 34.4869 103.73 34.2761 103.73 34.0371C103.73 33.7103 103.805 33.4117 103.956 33.1411C104.107 32.867 104.315 32.6509 104.578 32.4928C104.845 32.3347 105.142 32.2556 105.469 32.2556C105.711 32.2556 105.926 32.3066 106.112 32.4085C106.302 32.5069 106.447 32.6474 106.549 32.8301C106.655 33.0094 106.707 33.2202 106.707 33.4626C106.707 33.7894 106.63 34.0881 106.476 34.3586C106.321 34.6292 106.11 34.8435 105.843 35.0017C105.576 35.1598 105.279 35.2388 104.952 35.2388ZM105.01 34.833C105.239 34.833 105.444 34.7715 105.627 34.6485C105.81 34.522 105.952 34.3569 106.054 34.1531C106.159 33.9458 106.212 33.7244 106.212 33.489C106.212 33.2219 106.135 33.0181 105.98 32.8776C105.826 32.7335 105.632 32.6615 105.4 32.6615C105.172 32.6615 104.968 32.7247 104.789 32.8512C104.61 32.9742 104.471 33.1394 104.373 33.3467C104.274 33.554 104.225 33.7771 104.225 34.016C104.225 34.2761 104.299 34.4781 104.446 34.6222C104.594 34.7627 104.782 34.833 105.01 34.833ZM108.324 35.2388C108.081 35.2388 107.867 35.1896 107.681 35.0913C107.498 34.9894 107.356 34.8488 107.254 34.6696C107.152 34.4869 107.101 34.2761 107.101 34.0371C107.101 33.7103 107.176 33.4117 107.328 33.1411C107.479 32.867 107.686 32.6509 107.95 32.4928C108.217 32.3347 108.513 32.2556 108.84 32.2556C109.083 32.2556 109.297 32.3066 109.483 32.4085C109.673 32.5069 109.819 32.6474 109.921 32.8301C110.026 33.0094 110.079 33.2202 110.079 33.4626C110.079 33.7894 110.002 34.0881 109.847 34.3586C109.692 34.6292 109.482 34.8435 109.214 35.0017C108.947 35.1598 108.65 35.2388 108.324 35.2388ZM108.382 34.833C108.61 34.833 108.816 34.7715 108.998 34.6485C109.181 34.522 109.323 34.3569 109.425 34.1531C109.531 33.9458 109.583 33.7244 109.583 33.489C109.583 33.2219 109.506 33.0181 109.351 32.8776C109.197 32.7335 109.004 32.6615 108.772 32.6615C108.543 32.6615 108.34 32.7247 108.16 32.8512C107.981 32.9742 107.842 33.1394 107.744 33.3467C107.646 33.554 107.596 33.7771 107.596 34.016C107.596 34.2761 107.67 34.4781 107.818 34.6222C107.965 34.7627 108.153 34.833 108.382 34.833ZM110.499 33.7367C110.551 33.4415 110.657 33.1833 110.815 32.9619C110.977 32.737 111.173 32.5631 111.405 32.4401C111.637 32.3171 111.883 32.2556 112.143 32.2556C112.364 32.2556 112.563 32.3084 112.739 32.4138C112.914 32.5157 113.039 32.6509 113.113 32.8196L113.382 31.2911H113.867L113.176 35.1914H112.691L112.791 34.6485C112.668 34.8207 112.503 34.963 112.296 35.0755C112.089 35.1844 111.86 35.2388 111.611 35.2388C111.386 35.2388 111.187 35.1914 111.015 35.0965C110.843 34.9981 110.708 34.8594 110.609 34.6802C110.514 34.5009 110.467 34.2936 110.467 34.0582C110.467 33.9528 110.478 33.8456 110.499 33.7367ZM112.95 33.742C112.964 33.6682 112.971 33.5891 112.971 33.5048C112.971 33.2483 112.893 33.0462 112.739 32.8987C112.588 32.7476 112.394 32.672 112.159 32.672C111.98 32.672 111.808 32.7142 111.642 32.7985C111.481 32.8829 111.342 33.0058 111.226 33.1675C111.11 33.3291 111.033 33.5188 110.994 33.7367C110.98 33.8105 110.973 33.8913 110.973 33.9792C110.973 34.2392 111.049 34.4447 111.2 34.5958C111.351 34.7434 111.544 34.8172 111.779 34.8172C111.959 34.8172 112.129 34.775 112.291 34.6907C112.456 34.6028 112.596 34.4781 112.712 34.3165C112.832 34.1513 112.911 33.9598 112.95 33.742ZM116.369 33.0568L116.295 33.4626H114.192L114.266 33.0568H116.369ZM118.603 32.2556C118.852 32.2556 119.061 32.3101 119.23 32.419C119.398 32.528 119.513 32.665 119.572 32.8301L119.667 32.3031H120.152L119.63 35.2547C119.585 35.5182 119.486 35.7519 119.335 35.9557C119.188 36.163 119 36.3246 118.771 36.4406C118.543 36.5565 118.29 36.6145 118.012 36.6145C117.633 36.6145 117.332 36.5231 117.111 36.3404C116.89 36.1612 116.782 35.9188 116.79 35.6131H117.269C117.29 35.7887 117.373 35.9293 117.517 36.0347C117.664 36.1436 117.854 36.1981 118.086 36.1981C118.35 36.1981 118.58 36.1155 118.777 35.9504C118.973 35.7852 119.098 35.5533 119.151 35.2547L119.256 34.6485C119.13 34.8172 118.963 34.9577 118.755 35.0702C118.552 35.1826 118.325 35.2388 118.076 35.2388C117.851 35.2388 117.652 35.1914 117.48 35.0965C117.308 34.9981 117.173 34.8594 117.074 34.6802C116.979 34.5009 116.932 34.2936 116.932 34.0582C116.932 33.9528 116.942 33.8456 116.963 33.7367C117.016 33.4415 117.122 33.1833 117.28 32.9619C117.441 32.737 117.636 32.5631 117.865 32.4401C118.097 32.3171 118.343 32.2556 118.603 32.2556ZM119.414 33.742C119.428 33.6682 119.435 33.5891 119.435 33.5048C119.435 33.2483 119.358 33.0462 119.203 32.8987C119.052 32.7476 118.859 32.672 118.624 32.672C118.445 32.672 118.272 32.7142 118.107 32.7985C117.946 32.8829 117.807 33.0058 117.691 33.1675C117.575 33.3291 117.498 33.5188 117.459 33.7367C117.445 33.8105 117.438 33.8913 117.438 33.9792C117.438 34.2392 117.513 34.4447 117.664 34.5958C117.816 34.7434 118.009 34.8172 118.244 34.8172C118.423 34.8172 118.594 34.775 118.755 34.6907C118.921 34.6028 119.061 34.4781 119.177 34.3165C119.297 34.1513 119.376 33.9598 119.414 33.742ZM121.347 32.8512C121.463 32.6615 121.609 32.5139 121.785 32.4085C121.961 32.3031 122.161 32.2504 122.386 32.2504L122.296 32.7458H122.17C121.92 32.7458 121.711 32.8126 121.542 32.9461C121.377 33.0796 121.267 33.3045 121.21 33.6207L120.931 35.1914H120.451L120.963 32.3031H121.442L121.347 32.8512ZM122.491 33.7367C122.544 33.4415 122.65 33.1833 122.808 32.9619C122.969 32.737 123.164 32.5631 123.393 32.4401C123.625 32.3171 123.871 32.2556 124.131 32.2556C124.384 32.2556 124.593 32.3101 124.758 32.419C124.923 32.528 125.037 32.665 125.1 32.8301L125.195 32.3031H125.68L125.169 35.1914H124.684L124.784 34.6538C124.658 34.8225 124.491 34.963 124.283 35.0755C124.076 35.1844 123.848 35.2388 123.598 35.2388C123.373 35.2388 123.175 35.1914 123.003 35.0965C122.831 34.9981 122.697 34.8594 122.602 34.6802C122.507 34.5009 122.46 34.2936 122.46 34.0582C122.46 33.9528 122.47 33.8456 122.491 33.7367ZM124.942 33.742C124.956 33.6682 124.963 33.5891 124.963 33.5048C124.963 33.2483 124.886 33.0462 124.731 32.8987C124.58 32.7476 124.387 32.672 124.152 32.672C123.973 32.672 123.8 32.7142 123.635 32.7985C123.474 32.8829 123.335 33.0058 123.219 33.1675C123.103 33.3291 123.026 33.5188 122.987 33.7367C122.973 33.8105 122.966 33.8913 122.966 33.9792C122.966 34.2392 123.041 34.4447 123.192 34.5958C123.344 34.7434 123.537 34.8172 123.772 34.8172C123.951 34.8172 124.122 34.775 124.283 34.6907C124.449 34.6028 124.589 34.4781 124.705 34.3165C124.825 34.1513 124.904 33.9598 124.942 33.742ZM126.053 33.7367C126.106 33.4415 126.211 33.1833 126.37 32.9619C126.531 32.737 126.728 32.5631 126.96 32.4401C127.192 32.3171 127.438 32.2556 127.698 32.2556C127.919 32.2556 128.118 32.3084 128.293 32.4138C128.469 32.5157 128.594 32.6509 128.668 32.8196L128.936 31.2911H129.421L128.731 35.1914H128.246L128.346 34.6485C128.223 34.8207 128.058 34.963 127.851 35.0755C127.643 35.1844 127.415 35.2388 127.165 35.2388C126.941 35.2388 126.742 35.1914 126.57 35.0965C126.398 34.9981 126.262 34.8594 126.164 34.6802C126.069 34.5009 126.022 34.2936 126.022 34.0582C126.022 33.9528 126.032 33.8456 126.053 33.7367ZM128.504 33.742C128.518 33.6682 128.525 33.5891 128.525 33.5048C128.525 33.2483 128.448 33.0462 128.293 32.8987C128.142 32.7476 127.949 32.672 127.714 32.672C127.534 32.672 127.362 32.7142 127.197 32.7985C127.035 32.8829 126.897 33.0058 126.781 33.1675C126.665 33.3291 126.587 33.5188 126.549 33.7367C126.535 33.8105 126.528 33.8913 126.528 33.9792C126.528 34.2392 126.603 34.4447 126.754 34.5958C126.905 34.7434 127.099 34.8172 127.334 34.8172C127.513 34.8172 127.684 34.775 127.845 34.6907C128.01 34.6028 128.151 34.4781 128.267 34.3165C128.386 34.1513 128.465 33.9598 128.504 33.742ZM131.307 32.2556C131.549 32.2556 131.758 32.3031 131.934 32.398C132.113 32.4893 132.249 32.6193 132.34 32.788C132.435 32.9531 132.482 33.1429 132.482 33.3572C132.482 33.431 132.474 33.5206 132.456 33.626C132.442 33.7174 132.419 33.8122 132.387 33.9106H130.079C130.072 33.9809 130.068 34.0319 130.068 34.0635C130.068 34.3059 130.14 34.4957 130.284 34.6327C130.432 34.7662 130.624 34.833 130.859 34.833C131.066 34.833 131.247 34.7856 131.402 34.6907C131.56 34.5923 131.679 34.4623 131.76 34.3007H132.277C132.15 34.5783 131.955 34.8049 131.692 34.9806C131.432 35.1528 131.13 35.2388 130.785 35.2388C130.423 35.2388 130.132 35.1352 129.91 34.9279C129.692 34.717 129.583 34.4307 129.583 34.0688C129.583 33.9669 129.594 33.8579 129.615 33.742C129.668 33.4433 129.775 33.1815 129.937 32.9566C130.098 32.7318 130.297 32.5596 130.532 32.4401C130.771 32.3171 131.029 32.2556 131.307 32.2556ZM131.971 33.5628C131.982 33.4925 131.987 33.4275 131.987 33.3678C131.987 33.1429 131.915 32.9689 131.771 32.846C131.63 32.723 131.446 32.6615 131.217 32.6615C130.971 32.6615 130.748 32.7423 130.548 32.9039C130.348 33.0621 130.212 33.2817 130.142 33.5628H131.971ZM138.375 32.2504C138.67 32.2504 138.905 32.3312 139.081 32.4928C139.26 32.6509 139.35 32.8829 139.35 33.1886C139.35 33.301 139.341 33.4011 139.323 33.489L139.023 35.1914H138.549L138.839 33.5575C138.853 33.4837 138.86 33.4047 138.86 33.3203C138.86 33.106 138.802 32.9443 138.686 32.8354C138.573 32.723 138.413 32.6668 138.206 32.6668C137.967 32.6668 137.762 32.7405 137.589 32.8881C137.421 33.0322 137.305 33.2413 137.242 33.5153L136.941 35.1914H136.467L136.757 33.5575C136.771 33.4767 136.778 33.3959 136.778 33.3151C136.778 33.1042 136.72 32.9443 136.604 32.8354C136.491 32.723 136.332 32.6668 136.124 32.6668C135.875 32.6668 135.662 32.7476 135.486 32.9092C135.311 33.0673 135.197 33.2975 135.144 33.5997V33.5891L134.859 35.1914H134.38L134.891 32.3031H135.37L135.297 32.7195C135.416 32.5684 135.564 32.4524 135.739 32.3716C135.915 32.2908 136.1 32.2504 136.293 32.2504C136.535 32.2504 136.739 32.3048 136.904 32.4138C137.073 32.5227 137.184 32.6826 137.236 32.8934C137.356 32.6896 137.517 32.5315 137.721 32.419C137.929 32.3066 138.146 32.2504 138.375 32.2504ZM139.884 33.7367C139.936 33.4415 140.042 33.1833 140.2 32.9619C140.361 32.737 140.557 32.5631 140.785 32.4401C141.017 32.3171 141.263 32.2556 141.523 32.2556C141.776 32.2556 141.985 32.3101 142.15 32.419C142.315 32.528 142.429 32.665 142.493 32.8301L142.587 32.3031H143.072L142.561 35.1914H142.076L142.176 34.6538C142.05 34.8225 141.883 34.963 141.676 35.0755C141.468 35.1844 141.24 35.2388 140.99 35.2388C140.766 35.2388 140.567 35.1914 140.395 35.0965C140.223 34.9981 140.089 34.8594 139.994 34.6802C139.899 34.5009 139.852 34.2936 139.852 34.0582C139.852 33.9528 139.863 33.8456 139.884 33.7367ZM142.334 33.742C142.349 33.6682 142.356 33.5891 142.356 33.5048C142.356 33.2483 142.278 33.0462 142.124 32.8987C141.973 32.7476 141.779 32.672 141.544 32.672C141.365 32.672 141.193 32.7142 141.027 32.7985C140.866 32.8829 140.727 33.0058 140.611 33.1675C140.495 33.3291 140.418 33.5188 140.379 33.7367C140.365 33.8105 140.358 33.8913 140.358 33.9792C140.358 34.2392 140.434 34.4447 140.585 34.5958C140.736 34.7434 140.929 34.8172 141.164 34.8172C141.344 34.8172 141.514 34.775 141.676 34.6907C141.841 34.6028 141.981 34.4781 142.097 34.3165C142.217 34.1513 142.296 33.9598 142.334 33.742ZM144.099 34.4008C144.088 34.4535 144.083 34.4992 144.083 34.5378C144.083 34.6257 144.11 34.6889 144.162 34.7276C144.218 34.7662 144.308 34.7856 144.431 34.7856H144.784L144.71 35.1914H144.278C144.05 35.1914 143.878 35.1475 143.762 35.0596C143.649 34.9718 143.593 34.8277 143.593 34.6274C143.593 34.5501 143.6 34.4746 143.614 34.4008L143.915 32.6984H143.546L143.614 32.3031H143.988L144.115 31.5757H144.6L144.473 32.3031H145.222L145.153 32.6984H144.399L144.099 34.4008ZM147.057 32.2556C147.3 32.2556 147.509 32.3031 147.684 32.398C147.864 32.4893 147.999 32.6193 148.09 32.788C148.185 32.9531 148.233 33.1429 148.233 33.3572C148.233 33.431 148.224 33.5206 148.206 33.626C148.192 33.7174 148.169 33.8122 148.138 33.9106H145.829C145.822 33.9809 145.819 34.0319 145.819 34.0635C145.819 34.3059 145.891 34.4957 146.035 34.6327C146.182 34.7662 146.374 34.833 146.609 34.833C146.817 34.833 146.997 34.7856 147.152 34.6907C147.31 34.5923 147.43 34.4623 147.51 34.3007H148.027C147.901 34.5783 147.705 34.8049 147.442 34.9806C147.182 35.1528 146.88 35.2388 146.535 35.2388C146.173 35.2388 145.882 35.1352 145.66 34.9279C145.443 34.717 145.334 34.4307 145.334 34.0688C145.334 33.9669 145.344 33.8579 145.365 33.742C145.418 33.4433 145.525 33.1815 145.687 32.9566C145.848 32.7318 146.047 32.5596 146.282 32.4401C146.521 32.3171 146.78 32.2556 147.057 32.2556ZM147.721 33.5628C147.732 33.4925 147.737 33.4275 147.737 33.3678C147.737 33.1429 147.665 32.9689 147.521 32.846C147.38 32.723 147.196 32.6615 146.968 32.6615C146.722 32.6615 146.499 32.7423 146.298 32.9039C146.098 33.0621 145.963 33.2817 145.892 33.5628H147.721ZM149.456 32.8512C149.572 32.6615 149.718 32.5139 149.893 32.4085C150.069 32.3031 150.269 32.2504 150.494 32.2504L150.405 32.7458H150.278C150.029 32.7458 149.82 32.8126 149.651 32.9461C149.486 33.0796 149.375 33.3045 149.319 33.6207L149.04 35.1914H148.56L149.071 32.3031H149.551L149.456 32.8512ZM151.364 31.834C151.287 31.834 151.222 31.8094 151.169 31.7602C151.12 31.7075 151.095 31.6425 151.095 31.5652C151.095 31.4598 151.134 31.3702 151.211 31.2964C151.289 31.2191 151.378 31.1804 151.48 31.1804C151.561 31.1804 151.626 31.205 151.675 31.2542C151.724 31.3034 151.749 31.3684 151.749 31.4492C151.749 31.5546 151.71 31.646 151.633 31.7233C151.556 31.7971 151.466 31.834 151.364 31.834ZM151.517 32.3031L151.006 35.1914H150.526L151.037 32.3031H151.517ZM151.897 33.7367C151.95 33.4415 152.055 33.1833 152.213 32.9619C152.375 32.737 152.57 32.5631 152.798 32.4401C153.03 32.3171 153.276 32.2556 153.536 32.2556C153.789 32.2556 153.998 32.3101 154.163 32.419C154.329 32.528 154.443 32.665 154.506 32.8301L154.601 32.3031H155.086L154.575 35.1914H154.09L154.19 34.6538C154.063 34.8225 153.896 34.963 153.689 35.0755C153.482 35.1844 153.253 35.2388 153.004 35.2388C152.779 35.2388 152.58 35.1914 152.408 35.0965C152.236 34.9981 152.103 34.8594 152.008 34.6802C151.913 34.5009 151.865 34.2936 151.865 34.0582C151.865 33.9528 151.876 33.8456 151.897 33.7367ZM154.348 33.742C154.362 33.6682 154.369 33.5891 154.369 33.5048C154.369 33.2483 154.292 33.0462 154.137 32.8987C153.986 32.7476 153.793 32.672 153.557 32.672C153.378 32.672 153.206 32.7142 153.041 32.7985C152.879 32.8829 152.74 33.0058 152.624 33.1675C152.508 33.3291 152.431 33.5188 152.392 33.7367C152.378 33.8105 152.371 33.8913 152.371 33.9792C152.371 34.2392 152.447 34.4447 152.598 34.5958C152.749 34.7434 152.942 34.8172 153.178 34.8172C153.357 34.8172 153.527 34.775 153.689 34.6907C153.854 34.6028 153.995 34.4781 154.111 34.3165C154.23 34.1513 154.309 33.9598 154.348 33.742ZM156.555 31.2911L155.865 35.1914H155.385L156.076 31.2911H156.555Z" fill="black"/>
<defs>
<clipPath id="clip0_1486_2548">
<rect width="14.0551" height="14.0551" fill="white" transform="translate(121.861 6.4873)"/>
</clipPath>
</defs>
</svg>
