<svg width="141" height="37" viewBox="0 0 141 37" fill="none" xmlns="http://www.w3.org/2000/svg">
<rect width="36.5" height="36.5" rx="18.25" fill="white"/>
<path fill-rule="evenodd" clip-rule="evenodd" d="M27.336 19.2569H9.164L11.043 21.1354C11.1359 21.2283 11.2096 21.3386 11.2598 21.4599C11.3101 21.5813 11.336 21.7113 11.336 21.8427C11.336 21.974 11.3101 22.1041 11.2598 22.2254C11.2096 22.3468 11.1359 22.4571 11.043 22.5499C10.9501 22.6428 10.8399 22.7165 10.7185 22.7668C10.5972 22.817 10.4671 22.8429 10.3358 22.8429C10.2044 22.8429 10.0743 22.817 9.95299 22.7668C9.83164 22.7165 9.72138 22.6428 9.6285 22.5499L6.0935 19.0144L6.0685 18.9884C5.96805 18.8949 5.88793 18.7817 5.83314 18.6558C5.77834 18.53 5.75004 18.3942 5.75 18.2569C5.75 18.0104 5.839 17.7844 5.987 17.6104C6.01867 17.5664 6.054 17.5248 6.093 17.4854L9.6285 13.9504C9.81601 13.7629 10.0703 13.6575 10.3356 13.6574C10.6008 13.6574 10.8552 13.7627 11.0427 13.9502C11.2303 14.1377 11.3357 14.392 11.3358 14.6573C11.3358 14.9225 11.2305 15.1769 11.043 15.3644L9.15 17.2569H27.349L25.4565 15.3644C25.3636 15.2716 25.2899 15.1613 25.2397 15.0399C25.1894 14.9186 25.1635 14.7885 25.1635 14.6572C25.1635 14.5258 25.1894 14.3958 25.2397 14.2744C25.2899 14.1531 25.3636 14.0428 25.4565 13.9499C25.6441 13.7624 25.8985 13.657 26.1637 13.657C26.2951 13.657 26.4252 13.6829 26.5465 13.7331C26.6679 13.7834 26.7781 13.8571 26.871 13.9499L30.406 17.4854C30.446 17.5248 30.4815 17.5664 30.5125 17.6104C30.6605 17.7844 30.7495 18.0104 30.7495 18.2569C30.7495 18.5459 30.627 18.8059 30.431 18.9884L30.406 19.0144L26.871 22.5494C26.6835 22.737 26.4292 22.8424 26.1639 22.8425C25.8987 22.8425 25.6443 22.7372 25.4568 22.5497C25.2692 22.3622 25.1638 22.1078 25.1637 21.8426C25.1637 21.5774 25.269 21.323 25.4565 21.1354L27.336 19.2569Z" fill="#031022" fill-opacity="0.66"/>
<path d="M48.2501 13.3985C48.3232 13.3985 48.388 13.4268 48.4444 13.4832L48.9726 14.0563C48.6803 14.4183 48.3199 14.6957 47.8914 14.8884C47.4662 15.081 46.9546 15.1774 46.3567 15.1774C45.8218 15.1774 45.3402 15.086 44.9117 14.9033C44.4865 14.7206 44.1227 14.4665 43.8204 14.141C43.5181 13.8154 43.2856 13.4268 43.1228 12.975C42.9634 12.5232 42.8837 12.0299 42.8837 11.4951C42.8837 10.9537 42.97 10.4587 43.1428 10.0102C43.3155 9.55848 43.558 9.16982 43.8703 8.84428C44.1858 8.51874 44.5612 8.26628 44.9964 8.0869C45.4315 7.9042 45.9132 7.81285 46.4414 7.81285C46.9662 7.81285 47.4313 7.89922 47.8365 8.07195C48.2451 8.24469 48.5923 8.47057 48.8779 8.74961L48.4295 9.37245C48.4029 9.41232 48.368 9.4472 48.3249 9.47709C48.285 9.50699 48.2285 9.52194 48.1554 9.52194C48.1056 9.52194 48.0541 9.50865 48.001 9.48207C47.9478 9.45218 47.8897 9.4173 47.8266 9.37744C47.7635 9.33425 47.6904 9.28775 47.6073 9.23792C47.5243 9.18809 47.428 9.14325 47.3183 9.10338C47.2087 9.0602 47.0808 9.02532 46.9347 8.99875C46.7918 8.96885 46.6257 8.9539 46.4364 8.9539C46.1142 8.9539 45.8185 9.01203 45.5495 9.1283C45.2837 9.24124 45.0545 9.40733 44.8618 9.62658C44.6692 9.8425 44.5197 10.1082 44.4134 10.4238C44.3071 10.7361 44.2539 11.0932 44.2539 11.4951C44.2539 11.9004 44.3104 12.2608 44.4233 12.5764C44.5396 12.892 44.6957 13.1577 44.8917 13.3736C45.0877 13.5895 45.3186 13.7556 45.5843 13.8719C45.8501 13.9848 46.1358 14.0413 46.4414 14.0413C46.6241 14.0413 46.7885 14.0313 46.9347 14.0114C47.0841 13.9915 47.2203 13.9599 47.3433 13.9167C47.4695 13.8736 47.5874 13.8187 47.697 13.7523C47.81 13.6825 47.9213 13.5978 48.0309 13.4982C48.0641 13.4683 48.099 13.445 48.1355 13.4284C48.1721 13.4085 48.2103 13.3985 48.2501 13.3985ZM52.3971 12.9152C52.0417 12.9318 51.7427 12.9634 51.5002 13.0099C51.2577 13.0531 51.0634 13.1095 50.9172 13.1793C50.7711 13.249 50.6664 13.3304 50.6033 13.4234C50.5402 13.5165 50.5086 13.6178 50.5086 13.7274C50.5086 13.9433 50.5717 14.0978 50.698 14.1908C50.8275 14.2838 50.9953 14.3303 51.2012 14.3303C51.4537 14.3303 51.6713 14.2855 51.854 14.1958C52.04 14.1028 52.221 13.9632 52.3971 13.7772V12.9152ZM49.5769 10.6979C50.1648 10.1597 50.8724 9.89066 51.6995 9.89066C51.9985 9.89066 52.2659 9.94049 52.5017 10.0401C52.7376 10.1365 52.9369 10.2727 53.0997 10.4487C53.2624 10.6215 53.3854 10.8291 53.4684 11.0716C53.5548 11.3141 53.598 11.5798 53.598 11.8688V15.0977H53.0399C52.9236 15.0977 52.8339 15.081 52.7708 15.0478C52.7077 15.0113 52.6579 14.9399 52.6213 14.8336L52.5117 14.4648C52.3822 14.5811 52.2559 14.6841 52.133 14.7738C52.0101 14.8601 51.8822 14.9332 51.7493 14.993C51.6165 15.0528 51.4736 15.0977 51.3208 15.1276C51.1713 15.1608 51.0053 15.1774 50.8225 15.1774C50.6066 15.1774 50.4073 15.1491 50.2246 15.0927C50.0419 15.0329 49.8841 14.9449 49.7513 14.8286C49.6184 14.7123 49.5154 14.5678 49.4423 14.3951C49.3692 14.2223 49.3327 14.0214 49.3327 13.7922C49.3327 13.6626 49.3543 13.5347 49.3975 13.4085C49.4407 13.2789 49.5104 13.156 49.6068 13.0398C49.7064 12.9235 49.8343 12.8139 49.9904 12.7109C50.1466 12.6079 50.3376 12.5182 50.5634 12.4418C50.7927 12.3654 51.0584 12.304 51.3607 12.2575C51.663 12.2076 52.0084 12.1778 52.3971 12.1678V11.8688C52.3971 11.5267 52.324 11.2742 52.1779 11.1114C52.0317 10.9453 51.8208 10.8623 51.5451 10.8623C51.3457 10.8623 51.1796 10.8856 51.0468 10.9321C50.9172 10.9786 50.8026 11.0317 50.703 11.0915C50.6033 11.148 50.512 11.1995 50.4289 11.246C50.3492 11.2925 50.2595 11.3157 50.1598 11.3157C50.0735 11.3157 50.0004 11.2941 49.9406 11.251C49.8808 11.2045 49.8326 11.1513 49.7961 11.0915L49.5769 10.6979ZM55.9181 10.8723C56.0775 10.5667 56.2668 10.3275 56.4861 10.1547C56.7053 9.97869 56.9644 9.89066 57.2634 9.89066C57.4993 9.89066 57.6886 9.94215 57.8314 10.0451L57.7517 10.9669C57.7351 11.0267 57.7102 11.0699 57.677 11.0965C57.6471 11.1197 57.6056 11.1314 57.5524 11.1314C57.5026 11.1314 57.4278 11.1231 57.3282 11.1065C57.2318 11.0898 57.1372 11.0815 57.0442 11.0815C56.908 11.0815 56.7867 11.1015 56.6804 11.1413C56.5741 11.1812 56.4778 11.2393 56.3914 11.3157C56.3084 11.3888 56.2336 11.4785 56.1672 11.5848C56.1041 11.6911 56.0443 11.8124 55.9878 11.9485V15.0977H54.7571V9.98533H55.4796C55.6058 9.98533 55.6938 10.0086 55.7437 10.0551C55.7935 10.0983 55.8267 10.178 55.8433 10.2943L55.9181 10.8723ZM60.1788 15.1774C59.7337 15.1774 59.3915 15.0528 59.1523 14.8037C58.9165 14.5512 58.7986 14.2041 58.7986 13.7623V10.9071H58.2754C58.2089 10.9071 58.1525 10.8856 58.106 10.8424C58.0595 10.7992 58.0362 10.7344 58.0362 10.648V10.1597L58.8584 10.0252L59.1175 8.63002C59.1341 8.56358 59.1656 8.5121 59.2121 8.47556C59.2586 8.43901 59.3184 8.42074 59.3915 8.42074H60.0293V10.0302H61.3946V10.9071H60.0293V13.6776C60.0293 13.837 60.0675 13.9616 60.1439 14.0513C60.2236 14.141 60.3316 14.1858 60.4678 14.1858C60.5442 14.1858 60.6073 14.1775 60.6571 14.1609C60.7103 14.141 60.7551 14.121 60.7917 14.1011C60.8315 14.0812 60.8664 14.0629 60.8963 14.0463C60.9262 14.0264 60.9561 14.0164 60.986 14.0164C61.0225 14.0164 61.0524 14.0264 61.0757 14.0463C61.0989 14.0629 61.1239 14.0895 61.1504 14.126L61.5192 14.7239C61.3398 14.8734 61.1338 14.9864 60.9013 15.0628C60.6688 15.1392 60.4279 15.1774 60.1788 15.1774ZM64.4058 9.90561C64.7845 9.90561 65.1283 9.96706 65.4372 10.09C65.7495 10.2129 66.0152 10.3873 66.2345 10.6132C66.4571 10.839 66.6281 11.1148 66.7477 11.4403C66.8673 11.7658 66.9271 12.1296 66.9271 12.5315C66.9271 12.9368 66.8673 13.3022 66.7477 13.6277C66.6281 13.9533 66.4571 14.2307 66.2345 14.4599C66.0152 14.6891 65.7495 14.8651 65.4372 14.988C65.1283 15.1109 64.7845 15.1724 64.4058 15.1724C64.0238 15.1724 63.6767 15.1109 63.3644 14.988C63.0522 14.8651 62.7848 14.6891 62.5622 14.4599C62.3429 14.2307 62.1719 13.9533 62.049 13.6277C61.9294 13.3022 61.8696 12.9368 61.8696 12.5315C61.8696 12.1296 61.9294 11.7658 62.049 11.4403C62.1719 11.1148 62.3429 10.839 62.5622 10.6132C62.7848 10.3873 63.0522 10.2129 63.3644 10.09C63.6767 9.96706 64.0238 9.90561 64.4058 9.90561ZM64.4058 14.2257C64.831 14.2257 65.1449 14.0828 65.3476 13.7972C65.5535 13.5115 65.6565 13.0929 65.6565 12.5415C65.6565 11.9901 65.5535 11.5699 65.3476 11.2809C65.1449 10.9919 64.831 10.8474 64.4058 10.8474C63.974 10.8474 63.6534 10.9935 63.4441 11.2858C63.2382 11.5748 63.1352 11.9934 63.1352 12.5415C63.1352 13.0896 63.2382 13.5082 63.4441 13.7972C63.6534 14.0828 63.974 14.2257 64.4058 14.2257ZM69.0171 10.6132C69.12 10.5102 69.228 10.4155 69.3409 10.3291C69.4572 10.2395 69.5784 10.1647 69.7047 10.1049C69.8342 10.0418 69.9721 9.99364 70.1182 9.96042C70.2644 9.92388 70.4239 9.90561 70.5966 9.90561C70.8756 9.90561 71.1231 9.95378 71.339 10.0501C71.5549 10.1431 71.7343 10.276 71.8772 10.4487C72.0233 10.6181 72.1329 10.8224 72.206 11.0616C72.2824 11.2975 72.3206 11.5582 72.3206 11.8439V15.0977H71.0899V11.8439C71.0899 11.5317 71.0185 11.2908 70.8756 11.1214C70.7328 10.9487 70.5152 10.8623 70.2229 10.8623C70.0103 10.8623 69.811 10.9105 69.625 11.0068C69.4389 11.1031 69.2629 11.2343 69.0968 11.4004V15.0977H67.866V9.98533H68.6184C68.7779 9.98533 68.8825 10.0601 68.9323 10.2096L69.0171 10.6132ZM79.9454 9.20304C79.9056 9.2728 79.8624 9.32429 79.8159 9.35751C79.7727 9.3874 79.7179 9.40235 79.6515 9.40235C79.5817 9.40235 79.5053 9.37744 79.4222 9.32761C79.3425 9.27446 79.2462 9.21633 79.1332 9.15321C79.0203 9.0901 78.8874 9.03363 78.7346 8.9838C78.5851 8.93065 78.4074 8.90407 78.2015 8.90407C78.0154 8.90407 77.8527 8.92733 77.7132 8.97383C77.5736 9.01702 77.4557 9.07847 77.3594 9.15819C77.2664 9.23792 77.1966 9.33425 77.1501 9.4472C77.1036 9.55682 77.0803 9.67806 77.0803 9.81094C77.0803 9.98035 77.1268 10.1215 77.2199 10.2345C77.3162 10.3474 77.4424 10.4437 77.5986 10.5235C77.7547 10.6032 77.9324 10.6746 78.1317 10.7377C78.331 10.8008 78.5353 10.8689 78.7446 10.942C78.9539 11.0118 79.1582 11.0948 79.3575 11.1912C79.5568 11.2842 79.7345 11.4038 79.8906 11.5499C80.0468 11.6928 80.1713 11.8688 80.2643 12.0781C80.3607 12.2874 80.4088 12.5415 80.4088 12.8405C80.4088 13.166 80.3524 13.4716 80.2394 13.7573C80.1298 14.0396 79.967 14.2871 79.7511 14.4997C79.5385 14.709 79.2777 14.8751 78.9688 14.998C78.6599 15.1176 78.3061 15.1774 77.9075 15.1774C77.6783 15.1774 77.4524 15.1541 77.2298 15.1076C77.0073 15.0644 76.793 15.0013 76.587 14.9183C76.3844 14.8352 76.1934 14.7356 76.014 14.6193C75.8347 14.503 75.6752 14.3735 75.5357 14.2307L75.9293 13.5879C75.9625 13.5414 76.0057 13.5032 76.0589 13.4733C76.112 13.4401 76.1685 13.4234 76.2283 13.4234C76.3113 13.4234 76.401 13.4583 76.4974 13.5281C76.5937 13.5945 76.7083 13.6693 76.8412 13.7523C76.974 13.8354 77.1285 13.9118 77.3046 13.9815C77.4839 14.048 77.6982 14.0812 77.9473 14.0812C78.3294 14.0812 78.625 13.9915 78.8343 13.8121C79.0436 13.6294 79.1482 13.3686 79.1482 13.0298C79.1482 12.8405 79.1 12.686 79.0037 12.5664C78.9107 12.4468 78.7861 12.3472 78.63 12.2674C78.4739 12.1844 78.2961 12.1146 78.0968 12.0582C77.8975 12.0017 77.6949 11.9402 77.4889 11.8738C77.283 11.8074 77.0803 11.7276 76.881 11.6346C76.6817 11.5416 76.504 11.4204 76.3479 11.2709C76.1917 11.1214 76.0655 10.9354 75.9692 10.7128C75.8762 10.4869 75.8297 10.2096 75.8297 9.8807C75.8297 9.61827 75.8812 9.36249 75.9841 9.11335C76.0904 8.86421 76.2432 8.64331 76.4425 8.45064C76.6419 8.25797 76.8877 8.10351 77.18 7.98724C77.4723 7.87098 77.8078 7.81285 78.1865 7.81285C78.6117 7.81285 79.0037 7.87928 79.3625 8.01216C79.7212 8.14503 80.0268 8.33105 80.2793 8.57023L79.9454 9.20304ZM82.6399 9.98533V15.0977H81.4041V9.98533H82.6399ZM82.8093 8.49549C82.8093 8.60179 82.7877 8.70144 82.7445 8.79445C82.7013 8.88746 82.6432 8.96885 82.5701 9.03861C82.5004 9.10837 82.4173 9.16484 82.321 9.20802C82.2246 9.24788 82.1217 9.26782 82.012 9.26782C81.9057 9.26782 81.8044 9.24788 81.7081 9.20802C81.6151 9.16484 81.5337 9.10837 81.4639 9.03861C81.3942 8.96885 81.3377 8.88746 81.2945 8.79445C81.2547 8.70144 81.2347 8.60179 81.2347 8.49549C81.2347 8.38587 81.2547 8.28289 81.2945 8.18655C81.3377 8.09022 81.3942 8.00718 81.4639 7.93742C81.5337 7.86766 81.6151 7.81285 81.7081 7.77298C81.8044 7.7298 81.9057 7.70821 82.012 7.70821C82.1217 7.70821 82.2246 7.7298 82.321 7.77298C82.4173 7.81285 82.5004 7.86766 82.5701 7.93742C82.6432 8.00718 82.7013 8.09022 82.7445 8.18655C82.7877 8.28289 82.8093 8.38587 82.8093 8.49549ZM87.5669 10.4936C87.5669 10.5799 87.5519 10.6647 87.522 10.7477C87.4922 10.8307 87.4523 10.8988 87.4025 10.952L84.9759 14.1509H87.4922V15.0977H83.5458V14.5844C83.5458 14.528 83.5591 14.4615 83.5857 14.3851C83.6122 14.3054 83.6521 14.2307 83.7052 14.1609L86.1568 10.9271H83.6903V9.98533H87.5669V10.4936ZM91.6844 11.9535C91.6844 11.7941 91.6611 11.6446 91.6146 11.5051C91.5714 11.3622 91.505 11.2377 91.4153 11.1314C91.3256 11.0251 91.211 10.942 91.0715 10.8822C90.9353 10.8191 90.7758 10.7876 90.5931 10.7876C90.2377 10.7876 89.957 10.8889 89.7511 11.0915C89.5484 11.2941 89.4189 11.5815 89.3624 11.9535H91.6844ZM89.3375 12.696C89.3574 12.9584 89.4039 13.1859 89.477 13.3786C89.5501 13.5679 89.6464 13.7257 89.766 13.852C89.8856 13.9749 90.0268 14.0679 90.1895 14.131C90.3556 14.1908 90.5383 14.2207 90.7376 14.2207C90.937 14.2207 91.108 14.1974 91.2509 14.1509C91.397 14.1044 91.5233 14.0529 91.6296 13.9965C91.7392 13.94 91.8339 13.8885 91.9136 13.842C91.9966 13.7955 92.0764 13.7722 92.1528 13.7722C92.2557 13.7722 92.3321 13.8104 92.382 13.8868L92.7357 14.3353C92.5995 14.4947 92.4467 14.6293 92.2773 14.7389C92.1079 14.8452 91.9302 14.9316 91.7442 14.998C91.5615 15.0611 91.3738 15.106 91.1811 15.1325C90.9918 15.1591 90.8074 15.1724 90.628 15.1724C90.2726 15.1724 89.9421 15.1143 89.6365 14.998C89.3308 14.8784 89.0651 14.704 88.8392 14.4748C88.6133 14.2423 88.4356 13.9566 88.3061 13.6178C88.1765 13.2756 88.1117 12.8803 88.1117 12.4319C88.1117 12.0831 88.1682 11.7559 88.2811 11.4503C88.3941 11.1413 88.5552 10.8739 88.7645 10.648C88.9771 10.4188 89.2345 10.2378 89.5368 10.1049C89.8424 9.97205 90.1862 9.90561 90.5682 9.90561C90.8905 9.90561 91.1878 9.9571 91.4601 10.0601C91.7325 10.1631 91.9667 10.3142 92.1627 10.5135C92.3587 10.7095 92.5115 10.952 92.6211 11.241C92.7341 11.5267 92.7905 11.8539 92.7905 12.2226C92.7905 12.4086 92.7706 12.5349 92.7308 12.6013C92.6909 12.6644 92.6145 12.696 92.5015 12.696H89.3375Z" fill="#5D5A5A"/>
<path d="M42.908 27.8181C43.5853 27.2741 44.116 26.8288 44.5 26.4821C44.884 26.1301 45.2067 25.7648 45.468 25.3861C45.7347 25.0021 45.868 24.6261 45.868 24.2581C45.868 23.9114 45.7827 23.6394 45.612 23.4421C45.4467 23.2394 45.1773 23.1381 44.804 23.1381C44.4413 23.1381 44.1587 23.2528 43.956 23.4821C43.7587 23.7061 43.652 24.0074 43.636 24.3861H42.932C42.9533 23.7888 43.1347 23.3274 43.476 23.0021C43.8173 22.6768 44.2573 22.5141 44.796 22.5141C45.3453 22.5141 45.78 22.6661 46.1 22.9701C46.4253 23.2741 46.588 23.6928 46.588 24.2261C46.588 24.6688 46.4547 25.1008 46.188 25.5221C45.9267 25.9381 45.628 26.3061 45.292 26.6261C44.956 26.9408 44.5267 27.3088 44.004 27.7301H46.756V28.3381H42.908V27.8181ZM47.4216 27.1141V26.5621L50.2296 22.6741H51.1016V26.4821H51.9016V27.1141H51.1016V28.4021H50.3816V27.1141H47.4216ZM50.4136 23.4341L48.2616 26.4821H50.4136V23.4341ZM58.1136 27.2021L56.8416 25.9301L55.5696 27.2021L55.0896 26.7221L56.3616 25.4501L55.1136 24.2021L55.5776 23.7301L56.8336 24.9861L58.0896 23.7301L58.5696 24.2101L57.3136 25.4661L58.5776 26.7381L58.1136 27.2021ZM61.9471 27.8181C62.6244 27.2741 63.1551 26.8288 63.5391 26.4821C63.9231 26.1301 64.2457 25.7648 64.5071 25.3861C64.7737 25.0021 64.9071 24.6261 64.9071 24.2581C64.9071 23.9114 64.8217 23.6394 64.6511 23.4421C64.4857 23.2394 64.2164 23.1381 63.8431 23.1381C63.4804 23.1381 63.1977 23.2528 62.9951 23.4821C62.7977 23.7061 62.6911 24.0074 62.6751 24.3861H61.9711C61.9924 23.7888 62.1737 23.3274 62.5151 23.0021C62.8564 22.6768 63.2964 22.5141 63.8351 22.5141C64.3844 22.5141 64.8191 22.6661 65.1391 22.9701C65.4644 23.2741 65.6271 23.6928 65.6271 24.2261C65.6271 24.6688 65.4937 25.1008 65.2271 25.5221C64.9657 25.9381 64.6671 26.3061 64.3311 26.6261C63.9951 26.9408 63.5657 27.3088 63.0431 27.7301H65.7951V28.3381H61.9471V27.8181ZM66.4446 23.2821V22.6181H67.9486V28.4021H67.2126V23.2821H66.4446ZM69.5511 28.4501C69.4125 28.4501 69.2951 28.4021 69.1991 28.3061C69.1031 28.2101 69.0551 28.0928 69.0551 27.9541C69.0551 27.8154 69.1031 27.6981 69.1991 27.6021C69.2951 27.5061 69.4125 27.4581 69.5511 27.4581C69.6845 27.4581 69.7965 27.5061 69.8871 27.6021C69.9831 27.6981 70.0311 27.8154 70.0311 27.9541C70.0311 28.0928 69.9831 28.2101 69.8871 28.3061C69.7965 28.4021 69.6845 28.4501 69.5511 28.4501ZM74.5668 23.2501H71.7588V25.0741C71.8815 24.9034 72.0628 24.7648 72.3028 24.6581C72.5428 24.5461 72.8015 24.4901 73.0788 24.4901C73.5215 24.4901 73.8815 24.5834 74.1588 24.7701C74.4361 24.9514 74.6335 25.1888 74.7508 25.4821C74.8735 25.7701 74.9348 26.0768 74.9348 26.4021C74.9348 26.7861 74.8628 27.1301 74.7188 27.4341C74.5748 27.7381 74.3535 27.9781 74.0548 28.1541C73.7615 28.3301 73.3961 28.4181 72.9588 28.4181C72.3988 28.4181 71.9455 28.2741 71.5988 27.9861C71.2521 27.6981 71.0415 27.3141 70.9668 26.8341H71.6788C71.7481 27.1381 71.8948 27.3754 72.1188 27.5461C72.3428 27.7168 72.6255 27.8021 72.9668 27.8021C73.3881 27.8021 73.7055 27.6768 73.9188 27.4261C74.1321 27.1701 74.2388 26.8341 74.2388 26.4181C74.2388 26.0021 74.1321 25.6821 73.9188 25.4581C73.7055 25.2288 73.3908 25.1141 72.9748 25.1141C72.6921 25.1141 72.4441 25.1834 72.2308 25.3221C72.0228 25.4554 71.8708 25.6394 71.7748 25.8741H71.0868V22.6101H74.5668V23.2501ZM81.3871 27.2021L80.1151 25.9301L78.8431 27.2021L78.3631 26.7221L79.6351 25.4501L78.3871 24.2021L78.8511 23.7301L80.1071 24.9861L81.3631 23.7301L81.8431 24.2101L80.5871 25.4661L81.8511 26.7381L81.3871 27.2021ZM85.1165 23.2821V22.6181H86.6205V28.4021H85.8845V23.2821H85.1165ZM91.095 23.9941C90.9777 23.4021 90.6123 23.1061 89.999 23.1061C89.5243 23.1061 89.1697 23.2901 88.935 23.6581C88.7003 24.0208 88.5857 24.6208 88.591 25.4581C88.7137 25.1808 88.9163 24.9648 89.199 24.8101C89.487 24.6501 89.807 24.5701 90.159 24.5701C90.7083 24.5701 91.1457 24.7408 91.471 25.0821C91.8017 25.4234 91.967 25.8954 91.967 26.4981C91.967 26.8608 91.895 27.1861 91.751 27.4741C91.6123 27.7621 91.399 27.9914 91.111 28.1621C90.8283 28.3328 90.4843 28.4181 90.079 28.4181C89.5297 28.4181 89.1003 28.2954 88.791 28.0501C88.4817 27.8048 88.2657 27.4661 88.143 27.0341C88.0203 26.6021 87.959 26.0688 87.959 25.4341C87.959 23.4768 88.6417 22.4981 90.007 22.4981C90.5297 22.4981 90.9403 22.6394 91.239 22.9221C91.5377 23.2048 91.7137 23.5621 91.767 23.9941H91.095ZM90.007 25.1861C89.7777 25.1861 89.5617 25.2341 89.359 25.3301C89.1563 25.4208 88.991 25.5621 88.863 25.7541C88.7403 25.9408 88.679 26.1701 88.679 26.4421C88.679 26.8474 88.7963 27.1781 89.031 27.4341C89.2657 27.6848 89.6017 27.8101 90.039 27.8101C90.4123 27.8101 90.7083 27.6954 90.927 27.4661C91.151 27.2314 91.263 26.9168 91.263 26.5221C91.263 26.1061 91.1563 25.7808 90.943 25.5461C90.7297 25.3061 90.4177 25.1861 90.007 25.1861ZM93.3011 28.4501C93.1625 28.4501 93.0451 28.4021 92.9491 28.3061C92.8531 28.2101 92.8051 28.0928 92.8051 27.9541C92.8051 27.8154 92.8531 27.6981 92.9491 27.6021C93.0451 27.5061 93.1625 27.4581 93.3011 27.4581C93.4345 27.4581 93.5465 27.5061 93.6371 27.6021C93.7331 27.6981 93.7811 27.8154 93.7811 27.9541C93.7811 28.0928 93.7331 28.2101 93.6371 28.3061C93.5465 28.4021 93.4345 28.4501 93.3011 28.4501ZM98.3168 23.2501H95.5088V25.0741C95.6315 24.9034 95.8128 24.7648 96.0528 24.6581C96.2928 24.5461 96.5515 24.4901 96.8288 24.4901C97.2715 24.4901 97.6315 24.5834 97.9088 24.7701C98.1861 24.9514 98.3835 25.1888 98.5008 25.4821C98.6235 25.7701 98.6848 26.0768 98.6848 26.4021C98.6848 26.7861 98.6128 27.1301 98.4688 27.4341C98.3248 27.7381 98.1035 27.9781 97.8048 28.1541C97.5115 28.3301 97.1461 28.4181 96.7088 28.4181C96.1488 28.4181 95.6955 28.2741 95.3488 27.9861C95.0021 27.6981 94.7915 27.3141 94.7168 26.8341H95.4288C95.4981 27.1381 95.6448 27.3754 95.8688 27.5461C96.0928 27.7168 96.3755 27.8021 96.7168 27.8021C97.1381 27.8021 97.4555 27.6768 97.6688 27.4261C97.8821 27.1701 97.9888 26.8341 97.9888 26.4181C97.9888 26.0021 97.8821 25.6821 97.6688 25.4581C97.4555 25.2288 97.1408 25.1141 96.7248 25.1141C96.4421 25.1141 96.1941 25.1834 95.9808 25.3221C95.7728 25.4554 95.6208 25.6394 95.5248 25.8741H94.8368V22.6101H98.3168V23.2501ZM107.177 23.9381C107.518 23.9381 107.822 24.0101 108.089 24.1541C108.356 24.2928 108.566 24.5034 108.721 24.7861C108.876 25.0688 108.953 25.4128 108.953 25.8181V28.4021H108.233V25.9221C108.233 25.4848 108.124 25.1514 107.905 24.9221C107.692 24.6874 107.401 24.5701 107.033 24.5701C106.654 24.5701 106.353 24.6928 106.129 24.9381C105.905 25.1781 105.793 25.5274 105.793 25.9861V28.4021H105.073V25.9221C105.073 25.4848 104.964 25.1514 104.745 24.9221C104.532 24.6874 104.241 24.5701 103.873 24.5701C103.494 24.5701 103.193 24.6928 102.969 24.9381C102.745 25.1781 102.633 25.5274 102.633 25.9861V28.4021H101.905V24.0181H102.633V24.6501C102.777 24.4208 102.969 24.2448 103.209 24.1221C103.454 23.9994 103.724 23.9381 104.017 23.9381C104.385 23.9381 104.71 24.0208 104.993 24.1861C105.276 24.3514 105.486 24.5941 105.625 24.9141C105.748 24.6048 105.95 24.3648 106.233 24.1941C106.516 24.0234 106.83 23.9381 107.177 23.9381ZM115.419 23.9381C115.761 23.9381 116.065 24.0101 116.331 24.1541C116.598 24.2928 116.809 24.5034 116.963 24.7861C117.118 25.0688 117.195 25.4128 117.195 25.8181V28.4021H116.475V25.9221C116.475 25.4848 116.366 25.1514 116.147 24.9221C115.934 24.6874 115.643 24.5701 115.275 24.5701C114.897 24.5701 114.595 24.6928 114.371 24.9381C114.147 25.1781 114.035 25.5274 114.035 25.9861V28.4021H113.315V25.9221C113.315 25.4848 113.206 25.1514 112.987 24.9221C112.774 24.6874 112.483 24.5701 112.115 24.5701C111.737 24.5701 111.435 24.6928 111.211 24.9381C110.987 25.1781 110.875 25.5274 110.875 25.9861V28.4021H110.147V24.0181H110.875V24.6501C111.019 24.4208 111.211 24.2448 111.451 24.1221C111.697 23.9994 111.966 23.9381 112.259 23.9381C112.627 23.9381 112.953 24.0208 113.235 24.1861C113.518 24.3514 113.729 24.5941 113.867 24.9141C113.99 24.6048 114.193 24.3648 114.475 24.1941C114.758 24.0234 115.073 23.9381 115.419 23.9381Z" fill="#5D5A5A"/>
</svg>
