<svg width="390" height="26" viewBox="0 0 390 26" fill="none" xmlns="http://www.w3.org/2000/svg">
<path d="M0.909981 0.670136V7.64014H-1.94609e-05V0.670136H0.909981ZM2.12092 4.88014C2.12092 4.32014 2.23425 3.83014 2.46092 3.41014C2.68758 2.98347 2.99758 2.65347 3.39092 2.42014C3.79092 2.1868 4.23758 2.07014 4.73092 2.07014C5.15758 2.07014 5.55425 2.17014 5.92092 2.37014C6.28758 2.56347 6.56758 2.82014 6.76092 3.14014V0.240137H7.68092V7.64014H6.76092V6.61014C6.58092 6.9368 6.31425 7.2068 5.96092 7.42014C5.60758 7.6268 5.19425 7.73014 4.72092 7.73014C4.23425 7.73014 3.79092 7.61014 3.39092 7.37014C2.99758 7.13014 2.68758 6.79347 2.46092 6.36014C2.23425 5.9268 2.12092 5.43347 2.12092 4.88014ZM6.76092 4.89014C6.76092 4.4768 6.67758 4.1168 6.51092 3.81014C6.34425 3.50347 6.11758 3.27014 5.83092 3.11014C5.55092 2.94347 5.24092 2.86014 4.90092 2.86014C4.56092 2.86014 4.25092 2.94014 3.97092 3.10014C3.69092 3.26014 3.46758 3.49347 3.30092 3.80014C3.13425 4.1068 3.05092 4.4668 3.05092 4.88014C3.05092 5.30014 3.13425 5.6668 3.30092 5.98014C3.46758 6.2868 3.69092 6.52347 3.97092 6.69014C4.25092 6.85014 4.56092 6.93014 4.90092 6.93014C5.24092 6.93014 5.55092 6.85014 5.83092 6.69014C6.11758 6.52347 6.34425 6.2868 6.51092 5.98014C6.67758 5.6668 6.76092 5.30347 6.76092 4.89014ZM14.2187 4.69014C14.2187 4.86347 14.2087 5.0468 14.1887 5.24014H9.80873C9.84206 5.78014 10.0254 6.20347 10.3587 6.51014C10.6987 6.81014 11.1087 6.96014 11.5887 6.96014C11.9821 6.96014 12.3087 6.87014 12.5687 6.69014C12.8354 6.50347 13.0221 6.2568 13.1287 5.95014H14.1087C13.9621 6.4768 13.6687 6.9068 13.2287 7.24014C12.7887 7.5668 12.2421 7.73014 11.5887 7.73014C11.0687 7.73014 10.6021 7.61347 10.1887 7.38014C9.78206 7.1468 9.46206 6.8168 9.22873 6.39014C8.9954 5.9568 8.87873 5.4568 8.87873 4.89014C8.87873 4.32347 8.99206 3.8268 9.21873 3.40014C9.4454 2.97347 9.76206 2.6468 10.1687 2.42014C10.5821 2.1868 11.0554 2.07014 11.5887 2.07014C12.1087 2.07014 12.5687 2.18347 12.9687 2.41014C13.3687 2.6368 13.6754 2.95014 13.8887 3.35014C14.1087 3.74347 14.2187 4.19014 14.2187 4.69014ZM13.2787 4.50014C13.2787 4.15347 13.2021 3.8568 13.0487 3.61014C12.8954 3.3568 12.6854 3.1668 12.4187 3.04014C12.1587 2.9068 11.8687 2.84014 11.5487 2.84014C11.0887 2.84014 10.6954 2.9868 10.3687 3.28014C10.0487 3.57347 9.8654 3.98014 9.81873 4.50014H13.2787ZM15.0799 4.88014C15.0799 4.32014 15.1932 3.83014 15.4199 3.41014C15.6466 2.98347 15.9566 2.65347 16.3499 2.42014C16.7499 2.1868 17.1932 2.07014 17.6799 2.07014C18.1599 2.07014 18.5766 2.17347 18.9299 2.38014C19.2832 2.5868 19.5466 2.8468 19.7199 3.16014V2.16014H20.6399V7.64014H19.7199V6.62014C19.5399 6.94014 19.2699 7.2068 18.9099 7.42014C18.5566 7.6268 18.1432 7.73014 17.6699 7.73014C17.1832 7.73014 16.7432 7.61014 16.3499 7.37014C15.9566 7.13014 15.6466 6.79347 15.4199 6.36014C15.1932 5.9268 15.0799 5.43347 15.0799 4.88014ZM19.7199 4.89014C19.7199 4.4768 19.6366 4.1168 19.4699 3.81014C19.3032 3.50347 19.0766 3.27014 18.7899 3.11014C18.5099 2.94347 18.1999 2.86014 17.8599 2.86014C17.5199 2.86014 17.2099 2.94014 16.9299 3.10014C16.6499 3.26014 16.4266 3.49347 16.2599 3.80014C16.0932 4.1068 16.0099 4.4668 16.0099 4.88014C16.0099 5.30014 16.0932 5.6668 16.2599 5.98014C16.4266 6.2868 16.6499 6.52347 16.9299 6.69014C17.2099 6.85014 17.5199 6.93014 17.8599 6.93014C18.1999 6.93014 18.5099 6.85014 18.7899 6.69014C19.0766 6.52347 19.3032 6.2868 19.4699 5.98014C19.6366 5.6668 19.7199 5.30347 19.7199 4.89014ZM23.0877 0.240137V7.64014H22.1777V0.240137H23.0877ZM29.5347 2.91014H28.3847V7.64014H27.4747V2.91014H26.7647V2.16014H27.4747V1.77014C27.4747 1.1568 27.6313 0.710137 27.9447 0.430137C28.2647 0.14347 28.7747 0.000136137 29.4747 0.000136137V0.760136C29.0747 0.760136 28.7913 0.840136 28.6247 1.00014C28.4647 1.15347 28.3847 1.41014 28.3847 1.77014V2.16014H29.5347V2.91014ZM32.9857 7.73014C32.4724 7.73014 32.0057 7.61347 31.5857 7.38014C31.1724 7.1468 30.8457 6.8168 30.6057 6.39014C30.3724 5.9568 30.2557 5.4568 30.2557 4.89014C30.2557 4.33014 30.3757 3.8368 30.6157 3.41014C30.8624 2.9768 31.1957 2.6468 31.6157 2.42014C32.0357 2.1868 32.5057 2.07014 33.0257 2.07014C33.5457 2.07014 34.0157 2.1868 34.4357 2.42014C34.8557 2.6468 35.1857 2.97347 35.4257 3.40014C35.6724 3.8268 35.7957 4.32347 35.7957 4.89014C35.7957 5.4568 35.669 5.9568 35.4157 6.39014C35.169 6.8168 34.8324 7.1468 34.4057 7.38014C33.979 7.61347 33.5057 7.73014 32.9857 7.73014ZM32.9857 6.93014C33.3124 6.93014 33.619 6.85347 33.9057 6.70014C34.1924 6.5468 34.4224 6.3168 34.5957 6.01014C34.7757 5.70347 34.8657 5.33014 34.8657 4.89014C34.8657 4.45014 34.779 4.0768 34.6057 3.77014C34.4324 3.46347 34.2057 3.2368 33.9257 3.09014C33.6457 2.9368 33.3424 2.86014 33.0157 2.86014C32.6824 2.86014 32.3757 2.9368 32.0957 3.09014C31.8224 3.2368 31.6024 3.46347 31.4357 3.77014C31.269 4.0768 31.1857 4.45014 31.1857 4.89014C31.1857 5.3368 31.2657 5.71347 31.4257 6.02014C31.5924 6.3268 31.8124 6.5568 32.0857 6.71014C32.359 6.8568 32.659 6.93014 32.9857 6.93014ZM37.9022 3.05014C38.0622 2.7368 38.2888 2.49347 38.5822 2.32014C38.8822 2.1468 39.2455 2.06014 39.6722 2.06014V3.00014H39.4322C38.4122 3.00014 37.9022 3.55347 37.9022 4.66014V7.64014H36.9922V2.16014H37.9022V3.05014ZM45.6187 2.91014H44.4687V7.64014H43.5587V2.91014H42.8487V2.16014H43.5587V1.77014C43.5587 1.1568 43.7153 0.710137 44.0287 0.430137C44.3487 0.14347 44.8587 0.000136137 45.5587 0.000136137V0.760136C45.1587 0.760136 44.8753 0.840136 44.7087 1.00014C44.5487 1.15347 44.4687 1.41014 44.4687 1.77014V2.16014H45.6187V2.91014ZM51.5397 2.16014V7.64014H50.6297V6.83014C50.4563 7.11014 50.213 7.33014 49.8997 7.49014C49.593 7.64347 49.253 7.72014 48.8797 7.72014C48.453 7.72014 48.0697 7.63347 47.7297 7.46014C47.3897 7.28014 47.1197 7.01347 46.9197 6.66014C46.7263 6.3068 46.6297 5.8768 46.6297 5.37014V2.16014H47.5297V5.25014C47.5297 5.79014 47.6663 6.2068 47.9397 6.50014C48.213 6.7868 48.5863 6.93014 49.0597 6.93014C49.5463 6.93014 49.9297 6.78014 50.2097 6.48014C50.4897 6.18014 50.6297 5.74347 50.6297 5.17014V2.16014H51.5397ZM53.9862 0.240137V7.64014H53.0762V0.240137H53.9862ZM56.4471 0.240137V7.64014H55.5371V0.240137H56.4471ZM67.254 2.06014C67.6807 2.06014 68.0607 2.15014 68.394 2.33014C68.7274 2.50347 68.9907 2.7668 69.184 3.12014C69.3774 3.47347 69.474 3.90347 69.474 4.41014V7.64014H68.574V4.54014C68.574 3.99347 68.4374 3.5768 68.164 3.29014C67.8974 2.9968 67.534 2.85014 67.074 2.85014C66.6007 2.85014 66.224 3.00347 65.944 3.31014C65.664 3.61014 65.524 4.0468 65.524 4.62014V7.64014H64.624V4.54014C64.624 3.99347 64.4874 3.5768 64.214 3.29014C63.9474 2.9968 63.584 2.85014 63.124 2.85014C62.6507 2.85014 62.274 3.00347 61.994 3.31014C61.714 3.61014 61.574 4.0468 61.574 4.62014V7.64014H60.664V2.16014H61.574V2.95014C61.754 2.66347 61.994 2.44347 62.294 2.29014C62.6007 2.1368 62.9374 2.06014 63.304 2.06014C63.764 2.06014 64.1707 2.16347 64.524 2.37014C64.8774 2.5768 65.1407 2.88014 65.314 3.28014C65.4674 2.89347 65.7207 2.59347 66.074 2.38014C66.4274 2.1668 66.8207 2.06014 67.254 2.06014ZM75.9668 4.69014C75.9668 4.86347 75.9568 5.0468 75.9368 5.24014H71.5568C71.5901 5.78014 71.7734 6.20347 72.1068 6.51014C72.4468 6.81014 72.8568 6.96014 73.3368 6.96014C73.7301 6.96014 74.0568 6.87014 74.3168 6.69014C74.5834 6.50347 74.7701 6.2568 74.8768 5.95014H75.8568C75.7101 6.4768 75.4168 6.9068 74.9768 7.24014C74.5368 7.5668 73.9901 7.73014 73.3368 7.73014C72.8168 7.73014 72.3501 7.61347 71.9368 7.38014C71.5301 7.1468 71.2101 6.8168 70.9768 6.39014C70.7434 5.9568 70.6268 5.4568 70.6268 4.89014C70.6268 4.32347 70.7401 3.8268 70.9668 3.40014C71.1934 2.97347 71.5101 2.6468 71.9168 2.42014C72.3301 2.1868 72.8034 2.07014 73.3368 2.07014C73.8568 2.07014 74.3168 2.18347 74.7168 2.41014C75.1168 2.6368 75.4234 2.95014 75.6368 3.35014C75.8568 3.74347 75.9668 4.19014 75.9668 4.69014ZM75.0268 4.50014C75.0268 4.15347 74.9501 3.8568 74.7968 3.61014C74.6434 3.3568 74.4334 3.1668 74.1668 3.04014C73.9068 2.9068 73.6168 2.84014 73.2968 2.84014C72.8368 2.84014 72.4434 2.9868 72.1168 3.28014C71.7968 3.57347 71.6134 3.98014 71.5668 4.50014H75.0268ZM76.8279 4.88014C76.8279 4.32014 76.9413 3.83014 77.1679 3.41014C77.3946 2.98347 77.7046 2.65347 78.0979 2.42014C78.4979 2.1868 78.9413 2.07014 79.4279 2.07014C79.9079 2.07014 80.3246 2.17347 80.6779 2.38014C81.0313 2.5868 81.2946 2.8468 81.4679 3.16014V2.16014H82.3879V7.64014H81.4679V6.62014C81.2879 6.94014 81.0179 7.2068 80.6579 7.42014C80.3046 7.6268 79.8913 7.73014 79.4179 7.73014C78.9313 7.73014 78.4913 7.61014 78.0979 7.37014C77.7046 7.13014 77.3946 6.79347 77.1679 6.36014C76.9413 5.9268 76.8279 5.43347 76.8279 4.88014ZM81.4679 4.89014C81.4679 4.4768 81.3846 4.1168 81.2179 3.81014C81.0513 3.50347 80.8246 3.27014 80.5379 3.11014C80.2579 2.94347 79.9479 2.86014 79.6079 2.86014C79.2679 2.86014 78.9579 2.94014 78.6779 3.10014C78.3979 3.26014 78.1746 3.49347 78.0079 3.80014C77.8413 4.1068 77.7579 4.4668 77.7579 4.88014C77.7579 5.30014 77.8413 5.6668 78.0079 5.98014C78.1746 6.2868 78.3979 6.52347 78.6779 6.69014C78.9579 6.85014 79.2679 6.93014 79.6079 6.93014C79.9479 6.93014 80.2579 6.85014 80.5379 6.69014C80.8246 6.52347 81.0513 6.2868 81.2179 5.98014C81.3846 5.6668 81.4679 5.30347 81.4679 4.89014ZM84.8358 0.240137V7.64014H83.9258V0.240137H84.8358ZM90.9927 7.73014C90.5727 7.73014 90.196 7.66014 89.8627 7.52014C89.5294 7.37347 89.266 7.17347 89.0727 6.92014C88.8794 6.66014 88.7727 6.36347 88.7527 6.03014H89.6927C89.7194 6.30347 89.846 6.5268 90.0727 6.70014C90.306 6.87347 90.6094 6.96014 90.9827 6.96014C91.3294 6.96014 91.6027 6.88347 91.8027 6.73014C92.0027 6.5768 92.1027 6.38347 92.1027 6.15014C92.1027 5.91014 91.996 5.73347 91.7827 5.62014C91.5694 5.50014 91.2394 5.38347 90.7927 5.27014C90.386 5.16347 90.0527 5.0568 89.7927 4.95014C89.5394 4.8368 89.3194 4.67347 89.1327 4.46014C88.9527 4.24014 88.8627 3.95347 88.8627 3.60014C88.8627 3.32014 88.946 3.06347 89.1127 2.83014C89.2794 2.5968 89.516 2.41347 89.8227 2.28014C90.1294 2.14014 90.4794 2.07014 90.8727 2.07014C91.4794 2.07014 91.9694 2.22347 92.3427 2.53014C92.716 2.8368 92.916 3.2568 92.9427 3.79014H92.0327C92.0127 3.50347 91.896 3.27347 91.6827 3.10014C91.476 2.9268 91.196 2.84014 90.8427 2.84014C90.516 2.84014 90.256 2.91014 90.0627 3.05014C89.8694 3.19014 89.7727 3.37347 89.7727 3.60014C89.7727 3.78014 89.8294 3.93014 89.9427 4.05014C90.0627 4.16347 90.2094 4.2568 90.3827 4.33014C90.5627 4.3968 90.8094 4.47347 91.1227 4.56014C91.516 4.6668 91.836 4.77347 92.0827 4.88014C92.3294 4.98014 92.5394 5.13347 92.7127 5.34014C92.8927 5.5468 92.986 5.8168 92.9927 6.15014C92.9927 6.45014 92.9094 6.72014 92.7427 6.96014C92.576 7.20014 92.3394 7.39014 92.0327 7.53014C91.7327 7.66347 91.386 7.73014 90.9927 7.73014ZM99.2773 4.69014C99.2773 4.86347 99.2673 5.0468 99.2473 5.24014H94.8673C94.9007 5.78014 95.084 6.20347 95.4173 6.51014C95.7573 6.81014 96.1673 6.96014 96.6473 6.96014C97.0407 6.96014 97.3673 6.87014 97.6273 6.69014C97.894 6.50347 98.0807 6.2568 98.1873 5.95014H99.1673C99.0207 6.4768 98.7273 6.9068 98.2873 7.24014C97.8473 7.5668 97.3007 7.73014 96.6473 7.73014C96.1273 7.73014 95.6607 7.61347 95.2473 7.38014C94.8407 7.1468 94.5207 6.8168 94.2873 6.39014C94.054 5.9568 93.9373 5.4568 93.9373 4.89014C93.9373 4.32347 94.0507 3.8268 94.2773 3.40014C94.504 2.97347 94.8207 2.6468 95.2273 2.42014C95.6407 2.1868 96.114 2.07014 96.6473 2.07014C97.1673 2.07014 97.6273 2.18347 98.0273 2.41014C98.4273 2.6368 98.734 2.95014 98.9473 3.35014C99.1673 3.74347 99.2773 4.19014 99.2773 4.69014ZM98.3373 4.50014C98.3373 4.15347 98.2607 3.8568 98.1073 3.61014C97.954 3.3568 97.744 3.1668 97.4773 3.04014C97.2173 2.9068 96.9273 2.84014 96.6073 2.84014C96.1473 2.84014 95.754 2.9868 95.4273 3.28014C95.1073 3.57347 94.924 3.98014 94.8773 4.50014H98.3373ZM101.388 3.05014C101.548 2.7368 101.775 2.49347 102.068 2.32014C102.368 2.1468 102.732 2.06014 103.158 2.06014V3.00014H102.918C101.898 3.00014 101.388 3.55347 101.388 4.66014V7.64014H100.478V2.16014H101.388V3.05014ZM106.249 6.80014L107.949 2.16014H108.919L106.769 7.64014H105.709L103.559 2.16014H104.539L106.249 6.80014ZM110.284 1.27014C110.111 1.27014 109.964 1.21014 109.844 1.09014C109.724 0.970136 109.664 0.82347 109.664 0.650136C109.664 0.476803 109.724 0.330136 109.844 0.210136C109.964 0.0901364 110.111 0.0301363 110.284 0.0301363C110.451 0.0301363 110.591 0.0901364 110.704 0.210136C110.824 0.330136 110.884 0.476803 110.884 0.650136C110.884 0.82347 110.824 0.970136 110.704 1.09014C110.591 1.21014 110.451 1.27014 110.284 1.27014ZM110.724 2.16014V7.64014H109.814V2.16014H110.724ZM114.945 2.06014C115.612 2.06014 116.152 2.26347 116.565 2.67014C116.979 3.07014 117.185 3.65014 117.185 4.41014V7.64014H116.285V4.54014C116.285 3.99347 116.149 3.5768 115.875 3.29014C115.602 2.9968 115.229 2.85014 114.755 2.85014C114.275 2.85014 113.892 3.00014 113.605 3.30014C113.325 3.60014 113.185 4.0368 113.185 4.61014V7.64014H112.275V2.16014H113.185V2.94014C113.365 2.66014 113.609 2.44347 113.915 2.29014C114.229 2.1368 114.572 2.06014 114.945 2.06014ZM120.932 2.07014C121.405 2.07014 121.819 2.17347 122.172 2.38014C122.532 2.5868 122.799 2.8468 122.972 3.16014V2.16014H123.892V7.76014C123.892 8.26014 123.785 8.70347 123.572 9.09014C123.359 9.48347 123.052 9.79014 122.652 10.0101C122.259 10.2301 121.799 10.3401 121.272 10.3401C120.552 10.3401 119.952 10.1701 119.472 9.83014C118.992 9.49014 118.709 9.0268 118.622 8.44014H119.522C119.622 8.77347 119.829 9.04014 120.142 9.24014C120.455 9.4468 120.832 9.55014 121.272 9.55014C121.772 9.55014 122.179 9.39347 122.492 9.08014C122.812 8.7668 122.972 8.3268 122.972 7.76014V6.61014C122.792 6.93014 122.525 7.1968 122.172 7.41014C121.819 7.62347 121.405 7.73014 120.932 7.73014C120.445 7.73014 120.002 7.61014 119.602 7.37014C119.209 7.13014 118.899 6.79347 118.672 6.36014C118.445 5.9268 118.332 5.43347 118.332 4.88014C118.332 4.32014 118.445 3.83014 118.672 3.41014C118.899 2.98347 119.209 2.65347 119.602 2.42014C120.002 2.1868 120.445 2.07014 120.932 2.07014ZM122.972 4.89014C122.972 4.4768 122.889 4.1168 122.722 3.81014C122.555 3.50347 122.329 3.27014 122.042 3.11014C121.762 2.94347 121.452 2.86014 121.112 2.86014C120.772 2.86014 120.462 2.94014 120.182 3.10014C119.902 3.26014 119.679 3.49347 119.512 3.80014C119.345 4.1068 119.262 4.4668 119.262 4.88014C119.262 5.30014 119.345 5.6668 119.512 5.98014C119.679 6.2868 119.902 6.52347 120.182 6.69014C120.462 6.85014 120.772 6.93014 121.112 6.93014C121.452 6.93014 121.762 6.85014 122.042 6.69014C122.329 6.52347 122.555 6.2868 122.722 5.98014C122.889 5.6668 122.972 5.30347 122.972 4.89014ZM127.37 7.73014C126.95 7.73014 126.573 7.66014 126.24 7.52014C125.906 7.37347 125.643 7.17347 125.45 6.92014C125.256 6.66014 125.15 6.36347 125.13 6.03014H126.07C126.096 6.30347 126.223 6.5268 126.45 6.70014C126.683 6.87347 126.986 6.96014 127.36 6.96014C127.706 6.96014 127.98 6.88347 128.18 6.73014C128.38 6.5768 128.48 6.38347 128.48 6.15014C128.48 5.91014 128.373 5.73347 128.16 5.62014C127.946 5.50014 127.616 5.38347 127.17 5.27014C126.763 5.16347 126.43 5.0568 126.17 4.95014C125.916 4.8368 125.696 4.67347 125.51 4.46014C125.33 4.24014 125.24 3.95347 125.24 3.60014C125.24 3.32014 125.323 3.06347 125.49 2.83014C125.656 2.5968 125.893 2.41347 126.2 2.28014C126.506 2.14014 126.856 2.07014 127.25 2.07014C127.856 2.07014 128.346 2.22347 128.72 2.53014C129.093 2.8368 129.293 3.2568 129.32 3.79014H128.41C128.39 3.50347 128.273 3.27347 128.06 3.10014C127.853 2.9268 127.573 2.84014 127.22 2.84014C126.893 2.84014 126.633 2.91014 126.44 3.05014C126.246 3.19014 126.15 3.37347 126.15 3.60014C126.15 3.78014 126.206 3.93014 126.32 4.05014C126.44 4.16347 126.586 4.2568 126.76 4.33014C126.94 4.3968 127.186 4.47347 127.5 4.56014C127.893 4.6668 128.213 4.77347 128.46 4.88014C128.706 4.98014 128.916 5.13347 129.09 5.34014C129.27 5.5468 129.363 5.8168 129.37 6.15014C129.37 6.45014 129.286 6.72014 129.12 6.96014C128.953 7.20014 128.716 7.39014 128.41 7.53014C128.11 7.66347 127.763 7.73014 127.37 7.73014ZM131.594 6.38014L130.474 9.07014H129.864L130.594 6.38014H131.594ZM136.213 3.18014C136.399 2.85347 136.673 2.5868 137.033 2.38014C137.393 2.17347 137.803 2.07014 138.263 2.07014C138.756 2.07014 139.199 2.1868 139.593 2.42014C139.986 2.65347 140.296 2.98347 140.523 3.41014C140.749 3.83014 140.863 4.32014 140.863 4.88014C140.863 5.43347 140.749 5.9268 140.523 6.36014C140.296 6.79347 139.983 7.13014 139.583 7.37014C139.189 7.61014 138.749 7.73014 138.263 7.73014C137.789 7.73014 137.373 7.6268 137.013 7.42014C136.659 7.21347 136.393 6.95014 136.213 6.63014V7.64014H135.303V0.240137H136.213V3.18014ZM139.933 4.88014C139.933 4.4668 139.849 4.1068 139.683 3.80014C139.516 3.49347 139.289 3.26014 139.003 3.10014C138.723 2.94014 138.413 2.86014 138.073 2.86014C137.739 2.86014 137.429 2.94347 137.143 3.11014C136.863 3.27014 136.636 3.5068 136.463 3.82014C136.296 4.1268 136.213 4.48347 136.213 4.89014C136.213 5.30347 136.296 5.6668 136.463 5.98014C136.636 6.2868 136.863 6.52347 137.143 6.69014C137.429 6.85014 137.739 6.93014 138.073 6.93014C138.413 6.93014 138.723 6.85014 139.003 6.69014C139.289 6.52347 139.516 6.2868 139.683 5.98014C139.849 5.6668 139.933 5.30014 139.933 4.88014ZM146.921 2.16014V7.64014H146.011V6.83014C145.837 7.11014 145.594 7.33014 145.281 7.49014C144.974 7.64347 144.634 7.72014 144.261 7.72014C143.834 7.72014 143.451 7.63347 143.111 7.46014C142.771 7.28014 142.501 7.01347 142.301 6.66014C142.107 6.3068 142.011 5.8768 142.011 5.37014V2.16014H142.911V5.25014C142.911 5.79014 143.047 6.2068 143.321 6.50014C143.594 6.7868 143.967 6.93014 144.441 6.93014C144.927 6.93014 145.311 6.78014 145.591 6.48014C145.871 6.18014 146.011 5.74347 146.011 5.17014V2.16014H146.921ZM149.367 0.240137V7.64014H148.457V0.240137H149.367ZM153.978 7.64014L151.828 5.22014V7.64014H150.918V0.240137H151.828V4.59014L153.938 2.16014H155.208L152.628 4.89014L155.218 7.64014H153.978ZM160.99 2.07014C161.464 2.07014 161.877 2.17347 162.23 2.38014C162.59 2.5868 162.857 2.8468 163.03 3.16014V2.16014H163.95V7.76014C163.95 8.26014 163.844 8.70347 163.63 9.09014C163.417 9.48347 163.11 9.79014 162.71 10.0101C162.317 10.2301 161.857 10.3401 161.33 10.3401C160.61 10.3401 160.01 10.1701 159.53 9.83014C159.05 9.49014 158.767 9.0268 158.68 8.44014H159.58C159.68 8.77347 159.887 9.04014 160.2 9.24014C160.514 9.4468 160.89 9.55014 161.33 9.55014C161.83 9.55014 162.237 9.39347 162.55 9.08014C162.87 8.7668 163.03 8.3268 163.03 7.76014V6.61014C162.85 6.93014 162.584 7.1968 162.23 7.41014C161.877 7.62347 161.464 7.73014 160.99 7.73014C160.504 7.73014 160.06 7.61014 159.66 7.37014C159.267 7.13014 158.957 6.79347 158.73 6.36014C158.504 5.9268 158.39 5.43347 158.39 4.88014C158.39 4.32014 158.504 3.83014 158.73 3.41014C158.957 2.98347 159.267 2.65347 159.66 2.42014C160.06 2.1868 160.504 2.07014 160.99 2.07014ZM163.03 4.89014C163.03 4.4768 162.947 4.1168 162.78 3.81014C162.614 3.50347 162.387 3.27014 162.1 3.11014C161.82 2.94347 161.51 2.86014 161.17 2.86014C160.83 2.86014 160.52 2.94014 160.24 3.10014C159.96 3.26014 159.737 3.49347 159.57 3.80014C159.404 4.1068 159.32 4.4668 159.32 4.88014C159.32 5.30014 159.404 5.6668 159.57 5.98014C159.737 6.2868 159.96 6.52347 160.24 6.69014C160.52 6.85014 160.83 6.93014 161.17 6.93014C161.51 6.93014 161.82 6.85014 162.1 6.69014C162.387 6.52347 162.614 6.2868 162.78 5.98014C162.947 5.6668 163.03 5.30347 163.03 4.89014ZM166.398 3.05014C166.558 2.7368 166.785 2.49347 167.078 2.32014C167.378 2.1468 167.742 2.06014 168.168 2.06014V3.00014H167.928C166.908 3.00014 166.398 3.55347 166.398 4.66014V7.64014H165.488V2.16014H166.398V3.05014ZM168.879 4.88014C168.879 4.32014 168.992 3.83014 169.219 3.41014C169.445 2.98347 169.755 2.65347 170.149 2.42014C170.549 2.1868 170.992 2.07014 171.479 2.07014C171.959 2.07014 172.375 2.17347 172.729 2.38014C173.082 2.5868 173.345 2.8468 173.519 3.16014V2.16014H174.439V7.64014H173.519V6.62014C173.339 6.94014 173.069 7.2068 172.709 7.42014C172.355 7.6268 171.942 7.73014 171.469 7.73014C170.982 7.73014 170.542 7.61014 170.149 7.37014C169.755 7.13014 169.445 6.79347 169.219 6.36014C168.992 5.9268 168.879 5.43347 168.879 4.88014ZM173.519 4.89014C173.519 4.4768 173.435 4.1168 173.269 3.81014C173.102 3.50347 172.875 3.27014 172.589 3.11014C172.309 2.94347 171.999 2.86014 171.659 2.86014C171.319 2.86014 171.009 2.94014 170.729 3.10014C170.449 3.26014 170.225 3.49347 170.059 3.80014C169.892 4.1068 169.809 4.4668 169.809 4.88014C169.809 5.30014 169.892 5.6668 170.059 5.98014C170.225 6.2868 170.449 6.52347 170.729 6.69014C171.009 6.85014 171.319 6.93014 171.659 6.93014C171.999 6.93014 172.309 6.85014 172.589 6.69014C172.875 6.52347 173.102 6.2868 173.269 5.98014C173.435 5.6668 173.519 5.30347 173.519 4.89014ZM178.017 6.80014L179.717 2.16014H180.687L178.537 7.64014H177.477L175.327 2.16014H176.307L178.017 6.80014ZM182.052 1.27014C181.879 1.27014 181.732 1.21014 181.612 1.09014C181.492 0.970136 181.432 0.82347 181.432 0.650136C181.432 0.476803 181.492 0.330136 181.612 0.210136C181.732 0.0901364 181.879 0.0301363 182.052 0.0301363C182.219 0.0301363 182.359 0.0901364 182.472 0.210136C182.592 0.330136 182.652 0.476803 182.652 0.650136C182.652 0.82347 182.592 0.970136 182.472 1.09014C182.359 1.21014 182.219 1.27014 182.052 1.27014ZM182.492 2.16014V7.64014H181.582V2.16014H182.492ZM189.043 4.69014C189.043 4.86347 189.033 5.0468 189.013 5.24014H184.633C184.666 5.78014 184.85 6.20347 185.183 6.51014C185.523 6.81014 185.933 6.96014 186.413 6.96014C186.806 6.96014 187.133 6.87014 187.393 6.69014C187.66 6.50347 187.846 6.2568 187.953 5.95014H188.933C188.786 6.4768 188.493 6.9068 188.053 7.24014C187.613 7.5668 187.066 7.73014 186.413 7.73014C185.893 7.73014 185.426 7.61347 185.013 7.38014C184.606 7.1468 184.286 6.8168 184.053 6.39014C183.82 5.9568 183.703 5.4568 183.703 4.89014C183.703 4.32347 183.816 3.8268 184.043 3.40014C184.27 2.97347 184.586 2.6468 184.993 2.42014C185.406 2.1868 185.88 2.07014 186.413 2.07014C186.933 2.07014 187.393 2.18347 187.793 2.41014C188.193 2.6368 188.5 2.95014 188.713 3.35014C188.933 3.74347 189.043 4.19014 189.043 4.69014ZM188.103 4.50014C188.103 4.15347 188.026 3.8568 187.873 3.61014C187.72 3.3568 187.51 3.1668 187.243 3.04014C186.983 2.9068 186.693 2.84014 186.373 2.84014C185.913 2.84014 185.52 2.9868 185.193 3.28014C184.873 3.57347 184.69 3.98014 184.643 4.50014H188.103ZM192.184 7.73014C191.764 7.73014 191.387 7.66014 191.054 7.52014C190.721 7.37347 190.457 7.17347 190.264 6.92014C190.071 6.66014 189.964 6.36347 189.944 6.03014H190.884C190.911 6.30347 191.037 6.5268 191.264 6.70014C191.497 6.87347 191.801 6.96014 192.174 6.96014C192.521 6.96014 192.794 6.88347 192.994 6.73014C193.194 6.5768 193.294 6.38347 193.294 6.15014C193.294 5.91014 193.187 5.73347 192.974 5.62014C192.761 5.50014 192.431 5.38347 191.984 5.27014C191.577 5.16347 191.244 5.0568 190.984 4.95014C190.731 4.8368 190.511 4.67347 190.324 4.46014C190.144 4.24014 190.054 3.95347 190.054 3.60014C190.054 3.32014 190.137 3.06347 190.304 2.83014C190.471 2.5968 190.707 2.41347 191.014 2.28014C191.321 2.14014 191.671 2.07014 192.064 2.07014C192.671 2.07014 193.161 2.22347 193.534 2.53014C193.907 2.8368 194.107 3.2568 194.134 3.79014H193.224C193.204 3.50347 193.087 3.27347 192.874 3.10014C192.667 2.9268 192.387 2.84014 192.034 2.84014C191.707 2.84014 191.447 2.91014 191.254 3.05014C191.061 3.19014 190.964 3.37347 190.964 3.60014C190.964 3.78014 191.021 3.93014 191.134 4.05014C191.254 4.16347 191.401 4.2568 191.574 4.33014C191.754 4.3968 192.001 4.47347 192.314 4.56014C192.707 4.6668 193.027 4.77347 193.274 4.88014C193.521 4.98014 193.731 5.13347 193.904 5.34014C194.084 5.5468 194.177 5.8168 194.184 6.15014C194.184 6.45014 194.101 6.72014 193.934 6.96014C193.767 7.20014 193.531 7.39014 193.224 7.53014C192.924 7.66347 192.577 7.73014 192.184 7.73014ZM196.409 6.38014L195.289 9.07014H194.679L195.409 6.38014H196.409ZM201.027 3.18014C201.214 2.85347 201.487 2.5868 201.847 2.38014C202.207 2.17347 202.617 2.07014 203.077 2.07014C203.571 2.07014 204.014 2.1868 204.407 2.42014C204.801 2.65347 205.111 2.98347 205.337 3.41014C205.564 3.83014 205.677 4.32014 205.677 4.88014C205.677 5.43347 205.564 5.9268 205.337 6.36014C205.111 6.79347 204.797 7.13014 204.397 7.37014C204.004 7.61014 203.564 7.73014 203.077 7.73014C202.604 7.73014 202.187 7.6268 201.827 7.42014C201.474 7.21347 201.207 6.95014 201.027 6.63014V7.64014H200.117V0.240137H201.027V3.18014ZM204.747 4.88014C204.747 4.4668 204.664 4.1068 204.497 3.80014C204.331 3.49347 204.104 3.26014 203.817 3.10014C203.537 2.94014 203.227 2.86014 202.887 2.86014C202.554 2.86014 202.244 2.94347 201.957 3.11014C201.677 3.27014 201.451 3.5068 201.277 3.82014C201.111 4.1268 201.027 4.48347 201.027 4.89014C201.027 5.30347 201.111 5.6668 201.277 5.98014C201.451 6.2868 201.677 6.52347 201.957 6.69014C202.244 6.85014 202.554 6.93014 202.887 6.93014C203.227 6.93014 203.537 6.85014 203.817 6.69014C204.104 6.52347 204.331 6.2868 204.497 5.98014C204.664 5.6668 204.747 5.30014 204.747 4.88014ZM207.345 1.27014C207.172 1.27014 207.025 1.21014 206.905 1.09014C206.785 0.970136 206.725 0.82347 206.725 0.650136C206.725 0.476803 206.785 0.330136 206.905 0.210136C207.025 0.0901364 207.172 0.0301363 207.345 0.0301363C207.512 0.0301363 207.652 0.0901364 207.765 0.210136C207.885 0.330136 207.945 0.476803 207.945 0.650136C207.945 0.82347 207.885 0.970136 207.765 1.09014C207.652 1.21014 207.512 1.27014 207.345 1.27014ZM207.785 2.16014V7.64014H206.875V2.16014H207.785ZM210.246 3.05014C210.406 2.7368 210.633 2.49347 210.926 2.32014C211.226 2.1468 211.589 2.06014 212.016 2.06014V3.00014H211.776C210.756 3.00014 210.246 3.55347 210.246 4.66014V7.64014H209.336V2.16014H210.246V3.05014ZM217.786 2.16014L214.486 10.2201H213.546L214.626 7.58014L212.416 2.16014H213.426L215.146 6.60014L216.846 2.16014H217.786ZM218.361 4.88014C218.361 4.32014 218.474 3.83014 218.701 3.41014C218.928 2.98347 219.238 2.65347 219.631 2.42014C220.031 2.1868 220.474 2.07014 220.961 2.07014C221.441 2.07014 221.858 2.17347 222.211 2.38014C222.564 2.5868 222.828 2.8468 223.001 3.16014V2.16014H223.921V7.64014H223.001V6.62014C222.821 6.94014 222.551 7.2068 222.191 7.42014C221.838 7.6268 221.424 7.73014 220.951 7.73014C220.464 7.73014 220.024 7.61014 219.631 7.37014C219.238 7.13014 218.928 6.79347 218.701 6.36014C218.474 5.9268 218.361 5.43347 218.361 4.88014ZM223.001 4.89014C223.001 4.4768 222.918 4.1168 222.751 3.81014C222.584 3.50347 222.358 3.27014 222.071 3.11014C221.791 2.94347 221.481 2.86014 221.141 2.86014C220.801 2.86014 220.491 2.94014 220.211 3.10014C219.931 3.26014 219.708 3.49347 219.541 3.80014C219.374 4.1068 219.291 4.4668 219.291 4.88014C219.291 5.30014 219.374 5.6668 219.541 5.98014C219.708 6.2868 219.931 6.52347 220.211 6.69014C220.491 6.85014 220.801 6.93014 221.141 6.93014C221.481 6.93014 221.791 6.85014 222.071 6.69014C222.358 6.52347 222.584 6.2868 222.751 5.98014C222.918 5.6668 223.001 5.30347 223.001 4.89014ZM228.129 2.06014C228.796 2.06014 229.336 2.26347 229.749 2.67014C230.162 3.07014 230.369 3.65014 230.369 4.41014V7.64014H229.469V4.54014C229.469 3.99347 229.332 3.5768 229.059 3.29014C228.786 2.9968 228.412 2.85014 227.939 2.85014C227.459 2.85014 227.076 3.00014 226.789 3.30014C226.509 3.60014 226.369 4.0368 226.369 4.61014V7.64014H225.459V2.16014H226.369V2.94014C226.549 2.66014 226.792 2.44347 227.099 2.29014C227.412 2.1368 227.756 2.06014 228.129 2.06014ZM232.325 1.27014C232.152 1.27014 232.005 1.21014 231.885 1.09014C231.765 0.970136 231.705 0.82347 231.705 0.650136C231.705 0.476803 231.765 0.330136 231.885 0.210136C232.005 0.0901364 232.152 0.0301363 232.325 0.0301363C232.492 0.0301363 232.632 0.0901364 232.745 0.210136C232.865 0.330136 232.925 0.476803 232.925 0.650136C232.925 0.82347 232.865 0.970136 232.745 1.09014C232.632 1.21014 232.492 1.27014 232.325 1.27014ZM232.765 2.16014V7.64014H231.855V2.16014H232.765ZM236.256 7.73014C235.836 7.73014 235.46 7.66014 235.126 7.52014C234.793 7.37347 234.53 7.17347 234.336 6.92014C234.143 6.66014 234.036 6.36347 234.016 6.03014H234.956C234.983 6.30347 235.11 6.5268 235.336 6.70014C235.57 6.87347 235.873 6.96014 236.246 6.96014C236.593 6.96014 236.866 6.88347 237.066 6.73014C237.266 6.5768 237.366 6.38347 237.366 6.15014C237.366 5.91014 237.26 5.73347 237.046 5.62014C236.833 5.50014 236.503 5.38347 236.056 5.27014C235.65 5.16347 235.316 5.0568 235.056 4.95014C234.803 4.8368 234.583 4.67347 234.396 4.46014C234.216 4.24014 234.126 3.95347 234.126 3.60014C234.126 3.32014 234.21 3.06347 234.376 2.83014C234.543 2.5968 234.78 2.41347 235.086 2.28014C235.393 2.14014 235.743 2.07014 236.136 2.07014C236.743 2.07014 237.233 2.22347 237.606 2.53014C237.98 2.8368 238.18 3.2568 238.206 3.79014H237.296C237.276 3.50347 237.16 3.27347 236.946 3.10014C236.74 2.9268 236.46 2.84014 236.106 2.84014C235.78 2.84014 235.52 2.91014 235.326 3.05014C235.133 3.19014 235.036 3.37347 235.036 3.60014C235.036 3.78014 235.093 3.93014 235.206 4.05014C235.326 4.16347 235.473 4.2568 235.646 4.33014C235.826 4.3968 236.073 4.47347 236.386 4.56014C236.78 4.6668 237.1 4.77347 237.346 4.88014C237.593 4.98014 237.803 5.13347 237.976 5.34014C238.156 5.5468 238.25 5.8168 238.256 6.15014C238.256 6.45014 238.173 6.72014 238.006 6.96014C237.84 7.20014 237.603 7.39014 237.296 7.53014C236.996 7.66347 236.65 7.73014 236.256 7.73014ZM240.481 6.38014L239.361 9.07014H238.751L239.481 6.38014H240.481ZM243.849 4.88014C243.849 4.32014 243.963 3.83014 244.189 3.41014C244.416 2.98347 244.726 2.65347 245.119 2.42014C245.519 2.1868 245.963 2.07014 246.449 2.07014C246.929 2.07014 247.346 2.17347 247.699 2.38014C248.053 2.5868 248.316 2.8468 248.489 3.16014V2.16014H249.409V7.64014H248.489V6.62014C248.309 6.94014 248.039 7.2068 247.679 7.42014C247.326 7.6268 246.913 7.73014 246.439 7.73014C245.953 7.73014 245.513 7.61014 245.119 7.37014C244.726 7.13014 244.416 6.79347 244.189 6.36014C243.963 5.9268 243.849 5.43347 243.849 4.88014ZM248.489 4.89014C248.489 4.4768 248.406 4.1168 248.239 3.81014C248.073 3.50347 247.846 3.27014 247.559 3.11014C247.279 2.94347 246.969 2.86014 246.629 2.86014C246.289 2.86014 245.979 2.94014 245.699 3.10014C245.419 3.26014 245.196 3.49347 245.029 3.80014C244.863 4.1068 244.779 4.4668 244.779 4.88014C244.779 5.30014 244.863 5.6668 245.029 5.98014C245.196 6.2868 245.419 6.52347 245.699 6.69014C245.979 6.85014 246.289 6.93014 246.629 6.93014C246.969 6.93014 247.279 6.85014 247.559 6.69014C247.846 6.52347 248.073 6.2868 248.239 5.98014C248.406 5.6668 248.489 5.30347 248.489 4.89014ZM253.617 2.06014C254.284 2.06014 254.824 2.26347 255.237 2.67014C255.651 3.07014 255.857 3.65014 255.857 4.41014V7.64014H254.957V4.54014C254.957 3.99347 254.821 3.5768 254.547 3.29014C254.274 2.9968 253.901 2.85014 253.427 2.85014C252.947 2.85014 252.564 3.00014 252.277 3.30014C251.997 3.60014 251.857 4.0368 251.857 4.61014V7.64014H250.947V2.16014H251.857V2.94014C252.037 2.66014 252.281 2.44347 252.587 2.29014C252.901 2.1368 253.244 2.06014 253.617 2.06014ZM257.004 4.88014C257.004 4.32014 257.117 3.83014 257.344 3.41014C257.57 2.98347 257.88 2.65347 258.274 2.42014C258.674 2.1868 259.12 2.07014 259.614 2.07014C260.04 2.07014 260.437 2.17014 260.804 2.37014C261.17 2.56347 261.45 2.82014 261.644 3.14014V0.240137H262.564V7.64014H261.644V6.61014C261.464 6.9368 261.197 7.2068 260.844 7.42014C260.49 7.6268 260.077 7.73014 259.604 7.73014C259.117 7.73014 258.674 7.61014 258.274 7.37014C257.88 7.13014 257.57 6.79347 257.344 6.36014C257.117 5.9268 257.004 5.43347 257.004 4.88014ZM261.644 4.89014C261.644 4.4768 261.56 4.1168 261.394 3.81014C261.227 3.50347 261 3.27014 260.714 3.11014C260.434 2.94347 260.124 2.86014 259.784 2.86014C259.444 2.86014 259.134 2.94014 258.854 3.10014C258.574 3.26014 258.35 3.49347 258.184 3.80014C258.017 4.1068 257.934 4.4668 257.934 4.88014C257.934 5.30014 258.017 5.6668 258.184 5.98014C258.35 6.2868 258.574 6.52347 258.854 6.69014C259.134 6.85014 259.444 6.93014 259.784 6.93014C260.124 6.93014 260.434 6.85014 260.714 6.69014C261 6.52347 261.227 6.2868 261.394 5.98014C261.56 5.6668 261.644 5.30347 261.644 4.89014ZM268.998 2.91014H267.848V7.64014H266.938V2.91014H266.228V2.16014H266.938V1.77014C266.938 1.1568 267.094 0.710137 267.408 0.430137C267.728 0.14347 268.238 0.000136137 268.938 0.000136137V0.760136C268.538 0.760136 268.254 0.840136 268.088 1.00014C267.928 1.15347 267.848 1.41014 267.848 1.77014V2.16014H268.998V2.91014ZM269.719 4.88014C269.719 4.32014 269.832 3.83014 270.059 3.41014C270.285 2.98347 270.595 2.65347 270.989 2.42014C271.389 2.1868 271.832 2.07014 272.319 2.07014C272.799 2.07014 273.215 2.17347 273.569 2.38014C273.922 2.5868 274.185 2.8468 274.359 3.16014V2.16014H275.279V7.64014H274.359V6.62014C274.179 6.94014 273.909 7.2068 273.549 7.42014C273.195 7.6268 272.782 7.73014 272.309 7.73014C271.822 7.73014 271.382 7.61014 270.989 7.37014C270.595 7.13014 270.285 6.79347 270.059 6.36014C269.832 5.9268 269.719 5.43347 269.719 4.88014ZM274.359 4.89014C274.359 4.4768 274.275 4.1168 274.109 3.81014C273.942 3.50347 273.715 3.27014 273.429 3.11014C273.149 2.94347 272.839 2.86014 272.499 2.86014C272.159 2.86014 271.849 2.94014 271.569 3.10014C271.289 3.26014 271.065 3.49347 270.899 3.80014C270.732 4.1068 270.649 4.4668 270.649 4.88014C270.649 5.30014 270.732 5.6668 270.899 5.98014C271.065 6.2868 271.289 6.52347 271.569 6.69014C271.849 6.85014 272.159 6.93014 272.499 6.93014C272.839 6.93014 273.149 6.85014 273.429 6.69014C273.715 6.52347 273.942 6.2868 274.109 5.98014C274.275 5.6668 274.359 5.30347 274.359 4.89014ZM283.406 2.06014C283.833 2.06014 284.213 2.15014 284.546 2.33014C284.88 2.50347 285.143 2.7668 285.336 3.12014C285.53 3.47347 285.626 3.90347 285.626 4.41014V7.64014H284.726V4.54014C284.726 3.99347 284.59 3.5768 284.316 3.29014C284.05 2.9968 283.686 2.85014 283.226 2.85014C282.753 2.85014 282.376 3.00347 282.096 3.31014C281.816 3.61014 281.676 4.0468 281.676 4.62014V7.64014H280.776V4.54014C280.776 3.99347 280.64 3.5768 280.366 3.29014C280.1 2.9968 279.736 2.85014 279.276 2.85014C278.803 2.85014 278.426 3.00347 278.146 3.31014C277.866 3.61014 277.726 4.0468 277.726 4.62014V7.64014H276.816V2.16014H277.726V2.95014C277.906 2.66347 278.146 2.44347 278.446 2.29014C278.753 2.1368 279.09 2.06014 279.456 2.06014C279.916 2.06014 280.323 2.16347 280.676 2.37014C281.03 2.5768 281.293 2.88014 281.466 3.28014C281.62 2.89347 281.873 2.59347 282.226 2.38014C282.58 2.1668 282.973 2.06014 283.406 2.06014ZM287.589 1.27014C287.416 1.27014 287.269 1.21014 287.149 1.09014C287.029 0.970136 286.969 0.82347 286.969 0.650136C286.969 0.476803 287.029 0.330136 287.149 0.210136C287.269 0.0901364 287.416 0.0301363 287.589 0.0301363C287.756 0.0301363 287.896 0.0901364 288.009 0.210136C288.129 0.330136 288.189 0.476803 288.189 0.650136C288.189 0.82347 288.129 0.970136 288.009 1.09014C287.896 1.21014 287.756 1.27014 287.589 1.27014ZM288.029 2.16014V7.64014H287.119V2.16014H288.029ZM290.49 0.240137V7.64014H289.58V0.240137H290.49ZM296.761 2.16014L293.461 10.2201H292.521L293.601 7.58014L291.391 2.16014H292.401L294.121 6.60014L295.821 2.16014H296.761ZM301.252 3.17014C301.432 2.8568 301.698 2.5968 302.052 2.39014C302.412 2.1768 302.828 2.07014 303.302 2.07014C303.788 2.07014 304.228 2.1868 304.622 2.42014C305.022 2.65347 305.335 2.98347 305.562 3.41014C305.788 3.83014 305.902 4.32014 305.902 4.88014C305.902 5.43347 305.788 5.9268 305.562 6.36014C305.335 6.79347 305.022 7.13014 304.622 7.37014C304.228 7.61014 303.788 7.73014 303.302 7.73014C302.835 7.73014 302.422 7.6268 302.062 7.42014C301.708 7.2068 301.438 6.94347 301.252 6.63014V10.2401H300.342V2.16014H301.252V3.17014ZM304.972 4.88014C304.972 4.4668 304.888 4.1068 304.722 3.80014C304.555 3.49347 304.328 3.26014 304.042 3.10014C303.762 2.94014 303.452 2.86014 303.112 2.86014C302.778 2.86014 302.468 2.94347 302.182 3.11014C301.902 3.27014 301.675 3.5068 301.502 3.82014C301.335 4.1268 301.252 4.48347 301.252 4.89014C301.252 5.30347 301.335 5.6668 301.502 5.98014C301.675 6.2868 301.902 6.52347 302.182 6.69014C302.468 6.85014 302.778 6.93014 303.112 6.93014C303.452 6.93014 303.762 6.85014 304.042 6.69014C304.328 6.52347 304.555 6.2868 304.722 5.98014C304.888 5.6668 304.972 5.30014 304.972 4.88014ZM309.49 7.73014C308.976 7.73014 308.51 7.61347 308.09 7.38014C307.676 7.1468 307.35 6.8168 307.11 6.39014C306.876 5.9568 306.76 5.4568 306.76 4.89014C306.76 4.33014 306.88 3.8368 307.12 3.41014C307.366 2.9768 307.7 2.6468 308.12 2.42014C308.54 2.1868 309.01 2.07014 309.53 2.07014C310.05 2.07014 310.52 2.1868 310.94 2.42014C311.36 2.6468 311.69 2.97347 311.93 3.40014C312.176 3.8268 312.3 4.32347 312.3 4.89014C312.3 5.4568 312.173 5.9568 311.92 6.39014C311.673 6.8168 311.336 7.1468 310.91 7.38014C310.483 7.61347 310.01 7.73014 309.49 7.73014ZM309.49 6.93014C309.816 6.93014 310.123 6.85347 310.41 6.70014C310.696 6.5468 310.926 6.3168 311.1 6.01014C311.28 5.70347 311.37 5.33014 311.37 4.89014C311.37 4.45014 311.283 4.0768 311.11 3.77014C310.936 3.46347 310.71 3.2368 310.43 3.09014C310.15 2.9368 309.846 2.86014 309.52 2.86014C309.186 2.86014 308.88 2.9368 308.6 3.09014C308.326 3.2368 308.106 3.46347 307.94 3.77014C307.773 4.0768 307.69 4.45014 307.69 4.89014C307.69 5.3368 307.77 5.71347 307.93 6.02014C308.096 6.3268 308.316 6.5568 308.59 6.71014C308.863 6.8568 309.163 6.93014 309.49 6.93014ZM314.406 3.05014C314.566 2.7368 314.793 2.49347 315.086 2.32014C315.386 2.1468 315.749 2.06014 316.176 2.06014V3.00014H315.936C314.916 3.00014 314.406 3.55347 314.406 4.66014V7.64014H313.496V2.16014H314.406V3.05014ZM318.337 2.91014V6.14014C318.337 6.4068 318.393 6.5968 318.507 6.71014C318.62 6.8168 318.817 6.87014 319.097 6.87014H319.767V7.64014H318.947C318.44 7.64014 318.06 7.52347 317.807 7.29014C317.553 7.0568 317.427 6.67347 317.427 6.14014V2.91014H316.717V2.16014H317.427V0.780136H318.337V2.16014H319.767V2.91014H318.337ZM321.339 1.27014C321.166 1.27014 321.019 1.21014 320.899 1.09014C320.779 0.970136 320.719 0.82347 320.719 0.650136C320.719 0.476803 320.779 0.330136 320.899 0.210136C321.019 0.0901364 321.166 0.0301363 321.339 0.0301363C321.506 0.0301363 321.646 0.0901364 321.759 0.210136C321.879 0.330136 321.939 0.476803 321.939 0.650136C321.939 0.82347 321.879 0.970136 321.759 1.09014C321.646 1.21014 321.506 1.27014 321.339 1.27014ZM321.779 2.16014V7.64014H320.869V2.16014H321.779ZM325.72 7.73014C325.207 7.73014 324.74 7.61347 324.32 7.38014C323.907 7.1468 323.58 6.8168 323.34 6.39014C323.107 5.9568 322.99 5.4568 322.99 4.89014C322.99 4.33014 323.11 3.8368 323.35 3.41014C323.597 2.9768 323.93 2.6468 324.35 2.42014C324.77 2.1868 325.24 2.07014 325.76 2.07014C326.28 2.07014 326.75 2.1868 327.17 2.42014C327.59 2.6468 327.92 2.97347 328.16 3.40014C328.407 3.8268 328.53 4.32347 328.53 4.89014C328.53 5.4568 328.403 5.9568 328.15 6.39014C327.903 6.8168 327.567 7.1468 327.14 7.38014C326.713 7.61347 326.24 7.73014 325.72 7.73014ZM325.72 6.93014C326.047 6.93014 326.353 6.85347 326.64 6.70014C326.927 6.5468 327.157 6.3168 327.33 6.01014C327.51 5.70347 327.6 5.33014 327.6 4.89014C327.6 4.45014 327.513 4.0768 327.34 3.77014C327.167 3.46347 326.94 3.2368 326.66 3.09014C326.38 2.9368 326.077 2.86014 325.75 2.86014C325.417 2.86014 325.11 2.9368 324.83 3.09014C324.557 3.2368 324.337 3.46347 324.17 3.77014C324.003 4.0768 323.92 4.45014 323.92 4.89014C323.92 5.3368 324 5.71347 324.16 6.02014C324.327 6.3268 324.547 6.5568 324.82 6.71014C325.093 6.8568 325.393 6.93014 325.72 6.93014ZM332.397 2.06014C333.063 2.06014 333.603 2.26347 334.017 2.67014C334.43 3.07014 334.637 3.65014 334.637 4.41014V7.64014H333.737V4.54014C333.737 3.99347 333.6 3.5768 333.327 3.29014C333.053 2.9968 332.68 2.85014 332.207 2.85014C331.727 2.85014 331.343 3.00014 331.057 3.30014C330.777 3.60014 330.637 4.0368 330.637 4.61014V7.64014H329.727V2.16014H330.637V2.94014C330.817 2.66014 331.06 2.44347 331.367 2.29014C331.68 2.1368 332.023 2.06014 332.397 2.06014ZM338.063 7.73014C337.643 7.73014 337.266 7.66014 336.933 7.52014C336.6 7.37347 336.336 7.17347 336.143 6.92014C335.95 6.66014 335.843 6.36347 335.823 6.03014H336.763C336.79 6.30347 336.916 6.5268 337.143 6.70014C337.376 6.87347 337.68 6.96014 338.053 6.96014C338.4 6.96014 338.673 6.88347 338.873 6.73014C339.073 6.5768 339.173 6.38347 339.173 6.15014C339.173 5.91014 339.066 5.73347 338.853 5.62014C338.64 5.50014 338.31 5.38347 337.863 5.27014C337.456 5.16347 337.123 5.0568 336.863 4.95014C336.61 4.8368 336.39 4.67347 336.203 4.46014C336.023 4.24014 335.933 3.95347 335.933 3.60014C335.933 3.32014 336.016 3.06347 336.183 2.83014C336.35 2.5968 336.586 2.41347 336.893 2.28014C337.2 2.14014 337.55 2.07014 337.943 2.07014C338.55 2.07014 339.04 2.22347 339.413 2.53014C339.786 2.8368 339.986 3.2568 340.013 3.79014H339.103C339.083 3.50347 338.966 3.27347 338.753 3.10014C338.546 2.9268 338.266 2.84014 337.913 2.84014C337.586 2.84014 337.326 2.91014 337.133 3.05014C336.94 3.19014 336.843 3.37347 336.843 3.60014C336.843 3.78014 336.9 3.93014 337.013 4.05014C337.133 4.16347 337.28 4.2568 337.453 4.33014C337.633 4.3968 337.88 4.47347 338.193 4.56014C338.586 4.6668 338.906 4.77347 339.153 4.88014C339.4 4.98014 339.61 5.13347 339.783 5.34014C339.963 5.5468 340.056 5.8168 340.063 6.15014C340.063 6.45014 339.98 6.72014 339.813 6.96014C339.646 7.20014 339.41 7.39014 339.103 7.53014C338.803 7.66347 338.456 7.73014 338.063 7.73014ZM341.638 7.70014C341.464 7.70014 341.318 7.64014 341.198 7.52014C341.078 7.40014 341.018 7.25347 341.018 7.08014C341.018 6.9068 341.078 6.76014 341.198 6.64014C341.318 6.52014 341.464 6.46014 341.638 6.46014C341.804 6.46014 341.944 6.52014 342.058 6.64014C342.178 6.76014 342.238 6.9068 342.238 7.08014C342.238 7.25347 342.178 7.40014 342.058 7.52014C341.944 7.64014 341.804 7.70014 341.638 7.70014ZM350.773 2.71014C350.773 3.29014 350.573 3.77347 350.173 4.16014C349.78 4.54014 349.177 4.73014 348.363 4.73014H347.023V7.64014H346.113V0.670136H348.363C349.15 0.670136 349.747 0.860136 350.153 1.24014C350.567 1.62014 350.773 2.11014 350.773 2.71014ZM348.363 3.98014C348.87 3.98014 349.243 3.87014 349.483 3.65014C349.723 3.43014 349.843 3.1168 349.843 2.71014C349.843 1.85014 349.35 1.42014 348.363 1.42014H347.023V3.98014H348.363ZM352.814 3.05014C352.974 2.7368 353.201 2.49347 353.494 2.32014C353.794 2.1468 354.158 2.06014 354.584 2.06014V3.00014H354.344C353.324 3.00014 352.814 3.55347 352.814 4.66014V7.64014H351.904V2.16014H352.814V3.05014ZM360.635 4.69014C360.635 4.86347 360.625 5.0468 360.605 5.24014H356.225C356.258 5.78014 356.441 6.20347 356.775 6.51014C357.115 6.81014 357.525 6.96014 358.005 6.96014C358.398 6.96014 358.725 6.87014 358.985 6.69014C359.251 6.50347 359.438 6.2568 359.545 5.95014H360.525C360.378 6.4768 360.085 6.9068 359.645 7.24014C359.205 7.5668 358.658 7.73014 358.005 7.73014C357.485 7.73014 357.018 7.61347 356.605 7.38014C356.198 7.1468 355.878 6.8168 355.645 6.39014C355.411 5.9568 355.295 5.4568 355.295 4.89014C355.295 4.32347 355.408 3.8268 355.635 3.40014C355.861 2.97347 356.178 2.6468 356.585 2.42014C356.998 2.1868 357.471 2.07014 358.005 2.07014C358.525 2.07014 358.985 2.18347 359.385 2.41014C359.785 2.6368 360.091 2.95014 360.305 3.35014C360.525 3.74347 360.635 4.19014 360.635 4.69014ZM359.695 4.50014C359.695 4.15347 359.618 3.8568 359.465 3.61014C359.311 3.3568 359.101 3.1668 358.835 3.04014C358.575 2.9068 358.285 2.84014 357.965 2.84014C357.505 2.84014 357.111 2.9868 356.785 3.28014C356.465 3.57347 356.281 3.98014 356.235 4.50014H359.695ZM368.426 2.06014C368.853 2.06014 369.233 2.15014 369.566 2.33014C369.899 2.50347 370.163 2.7668 370.356 3.12014C370.549 3.47347 370.646 3.90347 370.646 4.41014V7.64014H369.746V4.54014C369.746 3.99347 369.609 3.5768 369.336 3.29014C369.069 2.9968 368.706 2.85014 368.246 2.85014C367.773 2.85014 367.396 3.00347 367.116 3.31014C366.836 3.61014 366.696 4.0468 366.696 4.62014V7.64014H365.796V4.54014C365.796 3.99347 365.659 3.5768 365.386 3.29014C365.119 2.9968 364.756 2.85014 364.296 2.85014C363.823 2.85014 363.446 3.00347 363.166 3.31014C362.886 3.61014 362.746 4.0468 362.746 4.62014V7.64014H361.836V2.16014H362.746V2.95014C362.926 2.66347 363.166 2.44347 363.466 2.29014C363.773 2.1368 364.109 2.06014 364.476 2.06014C364.936 2.06014 365.343 2.16347 365.696 2.37014C366.049 2.5768 366.313 2.88014 366.486 3.28014C366.639 2.89347 366.893 2.59347 367.246 2.38014C367.599 2.1668 367.993 2.06014 368.426 2.06014ZM372.609 1.27014C372.435 1.27014 372.289 1.21014 372.169 1.09014C372.049 0.970136 371.989 0.82347 371.989 0.650136C371.989 0.476803 372.049 0.330136 372.169 0.210136C372.289 0.0901364 372.435 0.0301363 372.609 0.0301363C372.775 0.0301363 372.915 0.0901364 373.029 0.210136C373.149 0.330136 373.209 0.476803 373.209 0.650136C373.209 0.82347 373.149 0.970136 373.029 1.09014C372.915 1.21014 372.775 1.27014 372.609 1.27014ZM373.049 2.16014V7.64014H372.139V2.16014H373.049ZM379.46 2.16014V7.64014H378.55V6.83014C378.376 7.11014 378.133 7.33014 377.82 7.49014C377.513 7.64347 377.173 7.72014 376.8 7.72014C376.373 7.72014 375.99 7.63347 375.65 7.46014C375.31 7.28014 375.04 7.01347 374.84 6.66014C374.646 6.3068 374.55 5.8768 374.55 5.37014V2.16014H375.45V5.25014C375.45 5.79014 375.586 6.2068 375.86 6.50014C376.133 6.7868 376.506 6.93014 376.98 6.93014C377.466 6.93014 377.85 6.78014 378.13 6.48014C378.41 6.18014 378.55 5.74347 378.55 5.17014V2.16014H379.46ZM387.586 2.06014C388.013 2.06014 388.393 2.15014 388.726 2.33014C389.059 2.50347 389.323 2.7668 389.516 3.12014C389.709 3.47347 389.806 3.90347 389.806 4.41014V7.64014H388.906V4.54014C388.906 3.99347 388.769 3.5768 388.496 3.29014C388.229 2.9968 387.866 2.85014 387.406 2.85014C386.933 2.85014 386.556 3.00347 386.276 3.31014C385.996 3.61014 385.856 4.0468 385.856 4.62014V7.64014H384.956V4.54014C384.956 3.99347 384.819 3.5768 384.546 3.29014C384.279 2.9968 383.916 2.85014 383.456 2.85014C382.983 2.85014 382.606 3.00347 382.326 3.31014C382.046 3.61014 381.906 4.0468 381.906 4.62014V7.64014H380.996V2.16014H381.906V2.95014C382.086 2.66347 382.326 2.44347 382.626 2.29014C382.933 2.1368 383.269 2.06014 383.636 2.06014C384.096 2.06014 384.503 2.16347 384.856 2.37014C385.209 2.5768 385.473 2.88014 385.646 3.28014C385.799 2.89347 386.053 2.59347 386.406 2.38014C386.759 2.1668 387.153 2.06014 387.586 2.06014ZM70.0601 22.7301C69.6401 22.7301 69.2634 22.6601 68.9301 22.5201C68.5968 22.3735 68.3334 22.1735 68.1401 21.9201C67.9468 21.6601 67.8401 21.3635 67.8201 21.0301H68.7601C68.7868 21.3035 68.9134 21.5268 69.1401 21.7001C69.3734 21.8735 69.6768 21.9601 70.0501 21.9601C70.3968 21.9601 70.6701 21.8835 70.8701 21.7301C71.0701 21.5768 71.1701 21.3835 71.1701 21.1501C71.1701 20.9101 71.0634 20.7335 70.8501 20.6201C70.6368 20.5001 70.3068 20.3835 69.8601 20.2701C69.4534 20.1635 69.1201 20.0568 68.8601 19.9501C68.6068 19.8368 68.3868 19.6735 68.2001 19.4601C68.0201 19.2401 67.9301 18.9535 67.9301 18.6001C67.9301 18.3201 68.0134 18.0635 68.1801 17.8301C68.3468 17.5968 68.5834 17.4135 68.8901 17.2801C69.1968 17.1401 69.5468 17.0701 69.9401 17.0701C70.5468 17.0701 71.0368 17.2235 71.4101 17.5301C71.7834 17.8368 71.9834 18.2568 72.0101 18.7901H71.1001C71.0801 18.5035 70.9634 18.2735 70.7501 18.1001C70.5434 17.9268 70.2634 17.8401 69.9101 17.8401C69.5834 17.8401 69.3234 17.9101 69.1301 18.0501C68.9368 18.1901 68.8401 18.3735 68.8401 18.6001C68.8401 18.7801 68.8968 18.9301 69.0101 19.0501C69.1301 19.1635 69.2768 19.2568 69.4501 19.3301C69.6301 19.3968 69.8768 19.4735 70.1901 19.5601C70.5834 19.6668 70.9034 19.7735 71.1501 19.8801C71.3968 19.9801 71.6068 20.1335 71.7801 20.3401C71.9601 20.5468 72.0534 20.8168 72.0601 21.1501C72.0601 21.4501 71.9768 21.7201 71.8101 21.9601C71.6434 22.2001 71.4068 22.3901 71.1001 22.5301C70.8001 22.6635 70.4534 22.7301 70.0601 22.7301ZM74.4547 17.9101V21.1401C74.4547 21.4068 74.5114 21.5968 74.6247 21.7101C74.738 21.8168 74.9347 21.8701 75.2147 21.8701H75.8847V22.6401H75.0647C74.558 22.6401 74.178 22.5235 73.9247 22.2901C73.6714 22.0568 73.5447 21.6735 73.5447 21.1401V17.9101H72.8347V17.1601H73.5447V15.7801H74.4547V17.1601H75.8847V17.9101H74.4547ZM77.8973 18.0501C78.0573 17.7368 78.284 17.4935 78.5773 17.3201C78.8773 17.1468 79.2406 17.0601 79.6673 17.0601V18.0001H79.4273C78.4073 18.0001 77.8973 18.5535 77.8973 19.6601V22.6401H76.9873V17.1601H77.8973V18.0501ZM85.7178 19.6901C85.7178 19.8635 85.7078 20.0468 85.6878 20.2401H81.3078C81.3411 20.7801 81.5244 21.2035 81.8578 21.5101C82.1978 21.8101 82.6078 21.9601 83.0878 21.9601C83.4811 21.9601 83.8078 21.8701 84.0678 21.6901C84.3344 21.5035 84.5211 21.2568 84.6278 20.9501H85.6078C85.4611 21.4768 85.1678 21.9068 84.7278 22.2401C84.2878 22.5668 83.7411 22.7301 83.0878 22.7301C82.5678 22.7301 82.1011 22.6135 81.6878 22.3801C81.2811 22.1468 80.9611 21.8168 80.7278 21.3901C80.4944 20.9568 80.3778 20.4568 80.3778 19.8901C80.3778 19.3235 80.4911 18.8268 80.7178 18.4001C80.9444 17.9735 81.2611 17.6468 81.6678 17.4201C82.0811 17.1868 82.5544 17.0701 83.0878 17.0701C83.6078 17.0701 84.0678 17.1835 84.4678 17.4101C84.8678 17.6368 85.1744 17.9501 85.3878 18.3501C85.6078 18.7435 85.7178 19.1901 85.7178 19.6901ZM84.7778 19.5001C84.7778 19.1535 84.7011 18.8568 84.5478 18.6101C84.3944 18.3568 84.1844 18.1668 83.9178 18.0401C83.6578 17.9068 83.3678 17.8401 83.0478 17.8401C82.5878 17.8401 82.1944 17.9868 81.8678 18.2801C81.5478 18.5735 81.3644 18.9801 81.3178 19.5001H84.7778ZM89.5889 17.0601C90.2556 17.0601 90.7956 17.2635 91.2089 17.6701C91.6223 18.0701 91.8289 18.6501 91.8289 19.4101V22.6401H90.9289V19.5401C90.9289 18.9935 90.7923 18.5768 90.5189 18.2901C90.2456 17.9968 89.8723 17.8501 89.3989 17.8501C88.9189 17.8501 88.5356 18.0001 88.2489 18.3001C87.9689 18.6001 87.8289 19.0368 87.8289 19.6101V22.6401H86.9189V17.1601H87.8289V17.9401C88.0089 17.6601 88.2523 17.4435 88.5589 17.2901C88.8723 17.1368 89.2156 17.0601 89.5889 17.0601ZM95.5754 17.0701C96.0487 17.0701 96.4621 17.1735 96.8154 17.3801C97.1754 17.5868 97.4421 17.8468 97.6154 18.1601V17.1601H98.5354V22.7601C98.5354 23.2601 98.4287 23.7035 98.2154 24.0901C98.0021 24.4835 97.6954 24.7901 97.2954 25.0101C96.9021 25.2301 96.4421 25.3401 95.9154 25.3401C95.1954 25.3401 94.5954 25.1701 94.1154 24.8301C93.6354 24.4901 93.3521 24.0268 93.2654 23.4401H94.1654C94.2654 23.7735 94.4721 24.0401 94.7854 24.2401C95.0987 24.4468 95.4754 24.5501 95.9154 24.5501C96.4154 24.5501 96.8221 24.3935 97.1354 24.0801C97.4554 23.7668 97.6154 23.3268 97.6154 22.7601V21.6101C97.4354 21.9301 97.1687 22.1968 96.8154 22.4101C96.4621 22.6235 96.0487 22.7301 95.5754 22.7301C95.0887 22.7301 94.6454 22.6101 94.2454 22.3701C93.8521 22.1301 93.5421 21.7935 93.3154 21.3601C93.0887 20.9268 92.9754 20.4335 92.9754 19.8801C92.9754 19.3201 93.0887 18.8301 93.3154 18.4101C93.5421 17.9835 93.8521 17.6535 94.2454 17.4201C94.6454 17.1868 95.0887 17.0701 95.5754 17.0701ZM97.6154 19.8901C97.6154 19.4768 97.5321 19.1168 97.3654 18.8101C97.1987 18.5035 96.9721 18.2701 96.6854 18.1101C96.4054 17.9435 96.0954 17.8601 95.7554 17.8601C95.4154 17.8601 95.1054 17.9401 94.8254 18.1001C94.5454 18.2601 94.3221 18.4935 94.1554 18.8001C93.9887 19.1068 93.9054 19.4668 93.9054 19.8801C93.9054 20.3001 93.9887 20.6668 94.1554 20.9801C94.3221 21.2868 94.5454 21.5235 94.8254 21.6901C95.1054 21.8501 95.4154 21.9301 95.7554 21.9301C96.0954 21.9301 96.4054 21.8501 96.6854 21.6901C96.9721 21.5235 97.1987 21.2868 97.3654 20.9801C97.5321 20.6668 97.6154 20.3035 97.6154 19.8901ZM101.183 17.9101V21.1401C101.183 21.4068 101.24 21.5968 101.353 21.7101C101.467 21.8168 101.663 21.8701 101.943 21.8701H102.613V22.6401H101.793C101.287 22.6401 100.907 22.5235 100.653 22.2901C100.4 22.0568 100.273 21.6735 100.273 21.1401V17.9101H99.5632V17.1601H100.273V15.7801H101.183V17.1601H102.613V17.9101H101.183ZM106.436 17.0601C106.849 17.0601 107.222 17.1501 107.556 17.3301C107.889 17.5035 108.149 17.7668 108.336 18.1201C108.529 18.4735 108.626 18.9035 108.626 19.4101V22.6401H107.726V19.5401C107.726 18.9935 107.589 18.5768 107.316 18.2901C107.042 17.9968 106.669 17.8501 106.196 17.8501C105.716 17.8501 105.332 18.0001 105.046 18.3001C104.766 18.6001 104.626 19.0368 104.626 19.6101V22.6401H103.716V15.2401H104.626V17.9401C104.806 17.6601 105.052 17.4435 105.366 17.2901C105.686 17.1368 106.042 17.0601 106.436 17.0601ZM115.008 17.9101H113.858V22.6401H112.948V17.9101H112.238V17.1601H112.948V16.7701C112.948 16.1568 113.105 15.7101 113.418 15.4301C113.738 15.1435 114.248 15.0001 114.948 15.0001V15.7601C114.548 15.7601 114.265 15.8401 114.098 16.0001C113.938 16.1535 113.858 16.4101 113.858 16.7701V17.1601H115.008V17.9101ZM118.459 22.7301C117.946 22.7301 117.479 22.6135 117.059 22.3801C116.646 22.1468 116.319 21.8168 116.079 21.3901C115.846 20.9568 115.729 20.4568 115.729 19.8901C115.729 19.3301 115.849 18.8368 116.089 18.4101C116.336 17.9768 116.669 17.6468 117.089 17.4201C117.509 17.1868 117.979 17.0701 118.499 17.0701C119.019 17.0701 119.489 17.1868 119.909 17.4201C120.329 17.6468 120.659 17.9735 120.899 18.4001C121.146 18.8268 121.269 19.3235 121.269 19.8901C121.269 20.4568 121.143 20.9568 120.889 21.3901C120.643 21.8168 120.306 22.1468 119.879 22.3801C119.453 22.6135 118.979 22.7301 118.459 22.7301ZM118.459 21.9301C118.786 21.9301 119.093 21.8535 119.379 21.7001C119.666 21.5468 119.896 21.3168 120.069 21.0101C120.249 20.7035 120.339 20.3301 120.339 19.8901C120.339 19.4501 120.253 19.0768 120.079 18.7701C119.906 18.4635 119.679 18.2368 119.399 18.0901C119.119 17.9368 118.816 17.8601 118.489 17.8601C118.156 17.8601 117.849 17.9368 117.569 18.0901C117.296 18.2368 117.076 18.4635 116.909 18.7701C116.743 19.0768 116.659 19.4501 116.659 19.8901C116.659 20.3368 116.739 20.7135 116.899 21.0201C117.066 21.3268 117.286 21.5568 117.559 21.7101C117.833 21.8568 118.133 21.9301 118.459 21.9301ZM123.376 18.0501C123.536 17.7368 123.762 17.4935 124.056 17.3201C124.356 17.1468 124.719 17.0601 125.146 17.0601V18.0001H124.906C123.886 18.0001 123.376 18.5535 123.376 19.6601V22.6401H122.466V17.1601H123.376V18.0501ZM130.802 22.7301C130.382 22.7301 130.006 22.6601 129.672 22.5201C129.339 22.3735 129.076 22.1735 128.882 21.9201C128.689 21.6601 128.582 21.3635 128.562 21.0301H129.502C129.529 21.3035 129.656 21.5268 129.882 21.7001C130.116 21.8735 130.419 21.9601 130.792 21.9601C131.139 21.9601 131.412 21.8835 131.612 21.7301C131.812 21.5768 131.912 21.3835 131.912 21.1501C131.912 20.9101 131.806 20.7335 131.592 20.6201C131.379 20.5001 131.049 20.3835 130.602 20.2701C130.196 20.1635 129.862 20.0568 129.602 19.9501C129.349 19.8368 129.129 19.6735 128.942 19.4601C128.762 19.2401 128.672 18.9535 128.672 18.6001C128.672 18.3201 128.756 18.0635 128.922 17.8301C129.089 17.5968 129.326 17.4135 129.632 17.2801C129.939 17.1401 130.289 17.0701 130.682 17.0701C131.289 17.0701 131.779 17.2235 132.152 17.5301C132.526 17.8368 132.726 18.2568 132.752 18.7901H131.842C131.822 18.5035 131.706 18.2735 131.492 18.1001C131.286 17.9268 131.006 17.8401 130.652 17.8401C130.326 17.8401 130.066 17.9101 129.872 18.0501C129.679 18.1901 129.582 18.3735 129.582 18.6001C129.582 18.7801 129.639 18.9301 129.752 19.0501C129.872 19.1635 130.019 19.2568 130.192 19.3301C130.372 19.3968 130.619 19.4735 130.932 19.5601C131.326 19.6668 131.646 19.7735 131.892 19.8801C132.139 19.9801 132.349 20.1335 132.522 20.3401C132.702 20.5468 132.796 20.8168 132.802 21.1501C132.802 21.4501 132.719 21.7201 132.552 21.9601C132.386 22.2001 132.149 22.3901 131.842 22.5301C131.542 22.6635 131.196 22.7301 130.802 22.7301ZM133.747 19.8801C133.747 19.3201 133.86 18.8301 134.087 18.4101C134.314 17.9835 134.624 17.6535 135.017 17.4201C135.417 17.1868 135.86 17.0701 136.347 17.0701C136.827 17.0701 137.244 17.1735 137.597 17.3801C137.95 17.5868 138.214 17.8468 138.387 18.1601V17.1601H139.307V22.6401H138.387V21.6201C138.207 21.9401 137.937 22.2068 137.577 22.4201C137.224 22.6268 136.81 22.7301 136.337 22.7301C135.85 22.7301 135.41 22.6101 135.017 22.3701C134.624 22.1301 134.314 21.7935 134.087 21.3601C133.86 20.9268 133.747 20.4335 133.747 19.8801ZM138.387 19.8901C138.387 19.4768 138.304 19.1168 138.137 18.8101C137.97 18.5035 137.744 18.2701 137.457 18.1101C137.177 17.9435 136.867 17.8601 136.527 17.8601C136.187 17.8601 135.877 17.9401 135.597 18.1001C135.317 18.2601 135.094 18.4935 134.927 18.8001C134.76 19.1068 134.677 19.4668 134.677 19.8801C134.677 20.3001 134.76 20.6668 134.927 20.9801C135.094 21.2868 135.317 21.5235 135.597 21.6901C135.877 21.8501 136.187 21.9301 136.527 21.9301C136.867 21.9301 137.177 21.8501 137.457 21.6901C137.744 21.5235 137.97 21.2868 138.137 20.9801C138.304 20.6668 138.387 20.3035 138.387 19.8901ZM143.075 17.9101H141.925V22.6401H141.015V17.9101H140.305V17.1601H141.015V16.7701C141.015 16.1568 141.171 15.7101 141.485 15.4301C141.805 15.1435 142.315 15.0001 143.015 15.0001V15.7601C142.615 15.7601 142.331 15.8401 142.165 16.0001C142.005 16.1535 141.925 16.4101 141.925 16.7701V17.1601H143.075V17.9101ZM149.136 19.6901C149.136 19.8635 149.126 20.0468 149.106 20.2401H144.726C144.759 20.7801 144.942 21.2035 145.276 21.5101C145.616 21.8101 146.026 21.9601 146.506 21.9601C146.899 21.9601 147.226 21.8701 147.486 21.6901C147.752 21.5035 147.939 21.2568 148.046 20.9501H149.026C148.879 21.4768 148.586 21.9068 148.146 22.2401C147.706 22.5668 147.159 22.7301 146.506 22.7301C145.986 22.7301 145.519 22.6135 145.106 22.3801C144.699 22.1468 144.379 21.8168 144.146 21.3901C143.912 20.9568 143.796 20.4568 143.796 19.8901C143.796 19.3235 143.909 18.8268 144.136 18.4001C144.362 17.9735 144.679 17.6468 145.086 17.4201C145.499 17.1868 145.972 17.0701 146.506 17.0701C147.026 17.0701 147.486 17.1835 147.886 17.4101C148.286 17.6368 148.592 17.9501 148.806 18.3501C149.026 18.7435 149.136 19.1901 149.136 19.6901ZM148.196 19.5001C148.196 19.1535 148.119 18.8568 147.966 18.6101C147.812 18.3568 147.602 18.1668 147.336 18.0401C147.076 17.9068 146.786 17.8401 146.466 17.8401C146.006 17.8401 145.612 17.9868 145.286 18.2801C144.966 18.5735 144.782 18.9801 144.736 19.5001H148.196ZM154.113 17.9101V21.1401C154.113 21.4068 154.17 21.5968 154.283 21.7101C154.396 21.8168 154.593 21.8701 154.873 21.8701H155.543V22.6401H154.723C154.216 22.6401 153.836 22.5235 153.583 22.2901C153.33 22.0568 153.203 21.6735 153.203 21.1401V17.9101H152.493V17.1601H153.203V15.7801H154.113V17.1601H155.543V17.9101H154.113ZM157.555 18.0501C157.715 17.7368 157.942 17.4935 158.235 17.3201C158.535 17.1468 158.899 17.0601 159.325 17.0601V18.0001H159.085C158.065 18.0001 157.555 18.5535 157.555 19.6601V22.6401H156.645V17.1601H157.555V18.0501ZM160.036 19.8801C160.036 19.3201 160.149 18.8301 160.376 18.4101C160.603 17.9835 160.913 17.6535 161.306 17.4201C161.706 17.1868 162.149 17.0701 162.636 17.0701C163.116 17.0701 163.533 17.1735 163.886 17.3801C164.239 17.5868 164.503 17.8468 164.676 18.1601V17.1601H165.596V22.6401H164.676V21.6201C164.496 21.9401 164.226 22.2068 163.866 22.4201C163.513 22.6268 163.099 22.7301 162.626 22.7301C162.139 22.7301 161.699 22.6101 161.306 22.3701C160.913 22.1301 160.603 21.7935 160.376 21.3601C160.149 20.9268 160.036 20.4335 160.036 19.8801ZM164.676 19.8901C164.676 19.4768 164.593 19.1168 164.426 18.8101C164.259 18.5035 164.033 18.2701 163.746 18.1101C163.466 17.9435 163.156 17.8601 162.816 17.8601C162.476 17.8601 162.166 17.9401 161.886 18.1001C161.606 18.2601 161.383 18.4935 161.216 18.8001C161.049 19.1068 160.966 19.4668 160.966 19.8801C160.966 20.3001 161.049 20.6668 161.216 20.9801C161.383 21.2868 161.606 21.5235 161.886 21.6901C162.166 21.8501 162.476 21.9301 162.816 21.9301C163.156 21.9301 163.466 21.8501 163.746 21.6901C164.033 21.5235 164.259 21.2868 164.426 20.9801C164.593 20.6668 164.676 20.3035 164.676 19.8901ZM169.804 17.0601C170.47 17.0601 171.01 17.2635 171.424 17.6701C171.837 18.0701 172.044 18.6501 172.044 19.4101V22.6401H171.144V19.5401C171.144 18.9935 171.007 18.5768 170.734 18.2901C170.46 17.9968 170.087 17.8501 169.614 17.8501C169.134 17.8501 168.75 18.0001 168.464 18.3001C168.184 18.6001 168.044 19.0368 168.044 19.6101V22.6401H167.134V17.1601H168.044V17.9401C168.224 17.6601 168.467 17.4435 168.774 17.2901C169.087 17.1368 169.43 17.0601 169.804 17.0601ZM175.47 22.7301C175.05 22.7301 174.674 22.6601 174.34 22.5201C174.007 22.3735 173.744 22.1735 173.55 21.9201C173.357 21.6601 173.25 21.3635 173.23 21.0301H174.17C174.197 21.3035 174.324 21.5268 174.55 21.7001C174.784 21.8735 175.087 21.9601 175.46 21.9601C175.807 21.9601 176.08 21.8835 176.28 21.7301C176.48 21.5768 176.58 21.3835 176.58 21.1501C176.58 20.9101 176.474 20.7335 176.26 20.6201C176.047 20.5001 175.717 20.3835 175.27 20.2701C174.864 20.1635 174.53 20.0568 174.27 19.9501C174.017 19.8368 173.797 19.6735 173.61 19.4601C173.43 19.2401 173.34 18.9535 173.34 18.6001C173.34 18.3201 173.424 18.0635 173.59 17.8301C173.757 17.5968 173.994 17.4135 174.3 17.2801C174.607 17.1401 174.957 17.0701 175.35 17.0701C175.957 17.0701 176.447 17.2235 176.82 17.5301C177.194 17.8368 177.394 18.2568 177.42 18.7901H176.51C176.49 18.5035 176.374 18.2735 176.16 18.1001C175.954 17.9268 175.674 17.8401 175.32 17.8401C174.994 17.8401 174.734 17.9101 174.54 18.0501C174.347 18.1901 174.25 18.3735 174.25 18.6001C174.25 18.7801 174.307 18.9301 174.42 19.0501C174.54 19.1635 174.687 19.2568 174.86 19.3301C175.04 19.3968 175.287 19.4735 175.6 19.5601C175.994 19.6668 176.314 19.7735 176.56 19.8801C176.807 19.9801 177.017 20.1335 177.19 20.3401C177.37 20.5468 177.464 20.8168 177.47 21.1501C177.47 21.4501 177.387 21.7201 177.22 21.9601C177.054 22.2001 176.817 22.3901 176.51 22.5301C176.21 22.6635 175.864 22.7301 175.47 22.7301ZM179.665 18.1701C179.845 17.8568 180.112 17.5968 180.465 17.3901C180.825 17.1768 181.242 17.0701 181.715 17.0701C182.202 17.0701 182.642 17.1868 183.035 17.4201C183.435 17.6535 183.748 17.9835 183.975 18.4101C184.202 18.8301 184.315 19.3201 184.315 19.8801C184.315 20.4335 184.202 20.9268 183.975 21.3601C183.748 21.7935 183.435 22.1301 183.035 22.3701C182.642 22.6101 182.202 22.7301 181.715 22.7301C181.248 22.7301 180.835 22.6268 180.475 22.4201C180.122 22.2068 179.852 21.9435 179.665 21.6301V25.2401H178.755V17.1601H179.665V18.1701ZM183.385 19.8801C183.385 19.4668 183.302 19.1068 183.135 18.8001C182.968 18.4935 182.742 18.2601 182.455 18.1001C182.175 17.9401 181.865 17.8601 181.525 17.8601C181.192 17.8601 180.882 17.9435 180.595 18.1101C180.315 18.2701 180.088 18.5068 179.915 18.8201C179.748 19.1268 179.665 19.4835 179.665 19.8901C179.665 20.3035 179.748 20.6668 179.915 20.9801C180.088 21.2868 180.315 21.5235 180.595 21.6901C180.882 21.8501 181.192 21.9301 181.525 21.9301C181.865 21.9301 182.175 21.8501 182.455 21.6901C182.742 21.5235 182.968 21.2868 183.135 20.9801C183.302 20.6668 183.385 20.3001 183.385 19.8801ZM187.903 22.7301C187.389 22.7301 186.923 22.6135 186.503 22.3801C186.089 22.1468 185.763 21.8168 185.523 21.3901C185.289 20.9568 185.173 20.4568 185.173 19.8901C185.173 19.3301 185.293 18.8368 185.533 18.4101C185.779 17.9768 186.113 17.6468 186.533 17.4201C186.953 17.1868 187.423 17.0701 187.943 17.0701C188.463 17.0701 188.933 17.1868 189.353 17.4201C189.773 17.6468 190.103 17.9735 190.343 18.4001C190.589 18.8268 190.713 19.3235 190.713 19.8901C190.713 20.4568 190.586 20.9568 190.333 21.3901C190.086 21.8168 189.749 22.1468 189.323 22.3801C188.896 22.6135 188.423 22.7301 187.903 22.7301ZM187.903 21.9301C188.229 21.9301 188.536 21.8535 188.823 21.7001C189.109 21.5468 189.339 21.3168 189.513 21.0101C189.693 20.7035 189.783 20.3301 189.783 19.8901C189.783 19.4501 189.696 19.0768 189.523 18.7701C189.349 18.4635 189.123 18.2368 188.843 18.0901C188.563 17.9368 188.259 17.8601 187.933 17.8601C187.599 17.8601 187.293 17.9368 187.013 18.0901C186.739 18.2368 186.519 18.4635 186.353 18.7701C186.186 19.0768 186.103 19.4501 186.103 19.8901C186.103 20.3368 186.183 20.7135 186.343 21.0201C186.509 21.3268 186.729 21.5568 187.003 21.7101C187.276 21.8568 187.576 21.9301 187.903 21.9301ZM192.819 18.0501C192.979 17.7368 193.206 17.4935 193.499 17.3201C193.799 17.1468 194.162 17.0601 194.589 17.0601V18.0001H194.349C193.329 18.0001 192.819 18.5535 192.819 19.6601V22.6401H191.909V17.1601H192.819V18.0501ZM196.75 17.9101V21.1401C196.75 21.4068 196.806 21.5968 196.92 21.7101C197.033 21.8168 197.23 21.8701 197.51 21.8701H198.18V22.6401H197.36C196.853 22.6401 196.473 22.5235 196.22 22.2901C195.966 22.0568 195.84 21.6735 195.84 21.1401V17.9101H195.13V17.1601H195.84V15.7801H196.75V17.1601H198.18V17.9101H196.75ZM201.608 19.8801C201.608 19.3201 201.722 18.8301 201.948 18.4101C202.175 17.9835 202.485 17.6535 202.878 17.4201C203.278 17.1868 203.722 17.0701 204.208 17.0701C204.688 17.0701 205.105 17.1735 205.458 17.3801C205.812 17.5868 206.075 17.8468 206.248 18.1601V17.1601H207.168V22.6401H206.248V21.6201C206.068 21.9401 205.798 22.2068 205.438 22.4201C205.085 22.6268 204.672 22.7301 204.198 22.7301C203.712 22.7301 203.272 22.6101 202.878 22.3701C202.485 22.1301 202.175 21.7935 201.948 21.3601C201.722 20.9268 201.608 20.4335 201.608 19.8801ZM206.248 19.8901C206.248 19.4768 206.165 19.1168 205.998 18.8101C205.832 18.5035 205.605 18.2701 205.318 18.1101C205.038 17.9435 204.728 17.8601 204.388 17.8601C204.048 17.8601 203.738 17.9401 203.458 18.1001C203.178 18.2601 202.955 18.4935 202.788 18.8001C202.622 19.1068 202.538 19.4668 202.538 19.8801C202.538 20.3001 202.622 20.6668 202.788 20.9801C202.955 21.2868 203.178 21.5235 203.458 21.6901C203.738 21.8501 204.048 21.9301 204.388 21.9301C204.728 21.9301 205.038 21.8501 205.318 21.6901C205.605 21.5235 205.832 21.2868 205.998 20.9801C206.165 20.6668 206.248 20.3035 206.248 19.8901ZM211.376 17.0601C212.043 17.0601 212.583 17.2635 212.996 17.6701C213.409 18.0701 213.616 18.6501 213.616 19.4101V22.6401H212.716V19.5401C212.716 18.9935 212.579 18.5768 212.306 18.2901C212.033 17.9968 211.659 17.8501 211.186 17.8501C210.706 17.8501 210.323 18.0001 210.036 18.3001C209.756 18.6001 209.616 19.0368 209.616 19.6101V22.6401H208.706V17.1601H209.616V17.9401C209.796 17.6601 210.039 17.4435 210.346 17.2901C210.659 17.1368 211.003 17.0601 211.376 17.0601ZM214.763 19.8801C214.763 19.3201 214.876 18.8301 215.103 18.4101C215.329 17.9835 215.639 17.6535 216.033 17.4201C216.433 17.1868 216.879 17.0701 217.373 17.0701C217.799 17.0701 218.196 17.1701 218.563 17.3701C218.929 17.5635 219.209 17.8201 219.403 18.1401V15.2401H220.323V22.6401H219.403V21.6101C219.223 21.9368 218.956 22.2068 218.603 22.4201C218.249 22.6268 217.836 22.7301 217.363 22.7301C216.876 22.7301 216.433 22.6101 216.033 22.3701C215.639 22.1301 215.329 21.7935 215.103 21.3601C214.876 20.9268 214.763 20.4335 214.763 19.8801ZM219.403 19.8901C219.403 19.4768 219.319 19.1168 219.153 18.8101C218.986 18.5035 218.759 18.2701 218.473 18.1101C218.193 17.9435 217.883 17.8601 217.543 17.8601C217.203 17.8601 216.893 17.9401 216.613 18.1001C216.333 18.2601 216.109 18.4935 215.943 18.8001C215.776 19.1068 215.693 19.4668 215.693 19.8801C215.693 20.3001 215.776 20.6668 215.943 20.9801C216.109 21.2868 216.333 21.5235 216.613 21.6901C216.893 21.8501 217.203 21.9301 217.543 21.9301C217.883 21.9301 218.193 21.8501 218.473 21.6901C218.759 21.5235 218.986 21.2868 219.153 20.9801C219.319 20.6668 219.403 20.3035 219.403 19.8901ZM229.526 19.6901C229.526 19.8635 229.516 20.0468 229.496 20.2401H225.116C225.15 20.7801 225.333 21.2035 225.666 21.5101C226.006 21.8101 226.416 21.9601 226.896 21.9601C227.29 21.9601 227.616 21.8701 227.876 21.6901C228.143 21.5035 228.33 21.2568 228.436 20.9501H229.416C229.27 21.4768 228.976 21.9068 228.536 22.2401C228.096 22.5668 227.55 22.7301 226.896 22.7301C226.376 22.7301 225.91 22.6135 225.496 22.3801C225.09 22.1468 224.77 21.8168 224.536 21.3901C224.303 20.9568 224.186 20.4568 224.186 19.8901C224.186 19.3235 224.3 18.8268 224.526 18.4001C224.753 17.9735 225.07 17.6468 225.476 17.4201C225.89 17.1868 226.363 17.0701 226.896 17.0701C227.416 17.0701 227.876 17.1835 228.276 17.4101C228.676 17.6368 228.983 17.9501 229.196 18.3501C229.416 18.7435 229.526 19.1901 229.526 19.6901ZM228.586 19.5001C228.586 19.1535 228.51 18.8568 228.356 18.6101C228.203 18.3568 227.993 18.1668 227.726 18.0401C227.466 17.9068 227.176 17.8401 226.856 17.8401C226.396 17.8401 226.003 17.9868 225.676 18.2801C225.356 18.5735 225.173 18.9801 225.126 19.5001H228.586ZM232.958 17.9101H231.808V22.6401H230.898V17.9101H230.188V17.1601H230.898V16.7701C230.898 16.1568 231.054 15.7101 231.368 15.4301C231.688 15.1435 232.198 15.0001 232.898 15.0001V15.7601C232.498 15.7601 232.214 15.8401 232.048 16.0001C231.888 16.1535 231.808 16.4101 231.808 16.7701V17.1601H232.958V17.9101ZM236.249 17.9101H235.099V22.6401H234.189V17.9101H233.479V17.1601H234.189V16.7701C234.189 16.1568 234.345 15.7101 234.659 15.4301C234.979 15.1435 235.489 15.0001 236.189 15.0001V15.7601C235.789 15.7601 235.505 15.8401 235.339 16.0001C235.179 16.1535 235.099 16.4101 235.099 16.7701V17.1601H236.249V17.9101ZM237.78 16.2701C237.606 16.2701 237.46 16.2101 237.34 16.0901C237.22 15.9701 237.16 15.8235 237.16 15.6501C237.16 15.4768 237.22 15.3301 237.34 15.2101C237.46 15.0901 237.606 15.0301 237.78 15.0301C237.946 15.0301 238.086 15.0901 238.2 15.2101C238.32 15.3301 238.38 15.4768 238.38 15.6501C238.38 15.8235 238.32 15.9701 238.2 16.0901C238.086 16.2101 237.946 16.2701 237.78 16.2701ZM238.22 17.1601V22.6401H237.31V17.1601H238.22ZM239.43 19.8901C239.43 19.3235 239.544 18.8301 239.77 18.4101C239.997 17.9835 240.31 17.6535 240.71 17.4201C241.117 17.1868 241.58 17.0701 242.1 17.0701C242.774 17.0701 243.327 17.2335 243.76 17.5601C244.2 17.8868 244.49 18.3401 244.63 18.9201H243.65C243.557 18.5868 243.374 18.3235 243.1 18.1301C242.834 17.9368 242.5 17.8401 242.1 17.8401C241.58 17.8401 241.16 18.0201 240.84 18.3801C240.52 18.7335 240.36 19.2368 240.36 19.8901C240.36 20.5501 240.52 21.0601 240.84 21.4201C241.16 21.7801 241.58 21.9601 242.1 21.9601C242.5 21.9601 242.834 21.8668 243.1 21.6801C243.367 21.4935 243.55 21.2268 243.65 20.8801H244.63C244.484 21.4401 244.19 21.8901 243.75 22.2301C243.31 22.5635 242.76 22.7301 242.1 22.7301C241.58 22.7301 241.117 22.6135 240.71 22.3801C240.31 22.1468 239.997 21.8168 239.77 21.3901C239.544 20.9635 239.43 20.4635 239.43 19.8901ZM246.315 16.2701C246.141 16.2701 245.995 16.2101 245.875 16.0901C245.755 15.9701 245.695 15.8235 245.695 15.6501C245.695 15.4768 245.755 15.3301 245.875 15.2101C245.995 15.0901 246.141 15.0301 246.315 15.0301C246.481 15.0301 246.621 15.0901 246.735 15.2101C246.855 15.3301 246.915 15.4768 246.915 15.6501C246.915 15.8235 246.855 15.9701 246.735 16.0901C246.621 16.2101 246.481 16.2701 246.315 16.2701ZM246.755 17.1601V22.6401H245.845V17.1601H246.755ZM253.306 19.6901C253.306 19.8635 253.296 20.0468 253.276 20.2401H248.896C248.929 20.7801 249.112 21.2035 249.446 21.5101C249.786 21.8101 250.196 21.9601 250.676 21.9601C251.069 21.9601 251.396 21.8701 251.656 21.6901C251.922 21.5035 252.109 21.2568 252.216 20.9501H253.196C253.049 21.4768 252.756 21.9068 252.316 22.2401C251.876 22.5668 251.329 22.7301 250.676 22.7301C250.156 22.7301 249.689 22.6135 249.276 22.3801C248.869 22.1468 248.549 21.8168 248.316 21.3901C248.082 20.9568 247.966 20.4568 247.966 19.8901C247.966 19.3235 248.079 18.8268 248.306 18.4001C248.532 17.9735 248.849 17.6468 249.256 17.4201C249.669 17.1868 250.142 17.0701 250.676 17.0701C251.196 17.0701 251.656 17.1835 252.056 17.4101C252.456 17.6368 252.762 17.9501 252.976 18.3501C253.196 18.7435 253.306 19.1901 253.306 19.6901ZM252.366 19.5001C252.366 19.1535 252.289 18.8568 252.136 18.6101C251.982 18.3568 251.772 18.1668 251.506 18.0401C251.246 17.9068 250.956 17.8401 250.636 17.8401C250.176 17.8401 249.782 17.9868 249.456 18.2801C249.136 18.5735 248.952 18.9801 248.906 19.5001H252.366ZM257.177 17.0601C257.843 17.0601 258.383 17.2635 258.797 17.6701C259.21 18.0701 259.417 18.6501 259.417 19.4101V22.6401H258.517V19.5401C258.517 18.9935 258.38 18.5768 258.107 18.2901C257.833 17.9968 257.46 17.8501 256.987 17.8501C256.507 17.8501 256.123 18.0001 255.837 18.3001C255.557 18.6001 255.417 19.0368 255.417 19.6101V22.6401H254.507V17.1601H255.417V17.9401C255.597 17.6601 255.84 17.4435 256.147 17.2901C256.46 17.1368 256.803 17.0601 257.177 17.0601ZM262.013 17.9101V21.1401C262.013 21.4068 262.07 21.5968 262.183 21.7101C262.297 21.8168 262.493 21.8701 262.773 21.8701H263.443V22.6401H262.623C262.117 22.6401 261.737 22.5235 261.483 22.2901C261.23 22.0568 261.103 21.6735 261.103 21.1401V17.9101H260.393V17.1601H261.103V15.7801H262.013V17.1601H263.443V17.9101H262.013ZM268.122 18.1701C268.302 17.8568 268.569 17.5968 268.922 17.3901C269.282 17.1768 269.699 17.0701 270.172 17.0701C270.659 17.0701 271.099 17.1868 271.492 17.4201C271.892 17.6535 272.205 17.9835 272.432 18.4101C272.659 18.8301 272.772 19.3201 272.772 19.8801C272.772 20.4335 272.659 20.9268 272.432 21.3601C272.205 21.7935 271.892 22.1301 271.492 22.3701C271.099 22.6101 270.659 22.7301 270.172 22.7301C269.705 22.7301 269.292 22.6268 268.932 22.4201C268.579 22.2068 268.309 21.9435 268.122 21.6301V25.2401H267.212V17.1601H268.122V18.1701ZM271.842 19.8801C271.842 19.4668 271.759 19.1068 271.592 18.8001C271.425 18.4935 271.199 18.2601 270.912 18.1001C270.632 17.9401 270.322 17.8601 269.982 17.8601C269.649 17.8601 269.339 17.9435 269.052 18.1101C268.772 18.2701 268.545 18.5068 268.372 18.8201C268.205 19.1268 268.122 19.4835 268.122 19.8901C268.122 20.3035 268.205 20.6668 268.372 20.9801C268.545 21.2868 268.772 21.5235 269.052 21.6901C269.339 21.8501 269.649 21.9301 269.982 21.9301C270.322 21.9301 270.632 21.8501 270.912 21.6901C271.199 21.5235 271.425 21.2868 271.592 20.9801C271.759 20.6668 271.842 20.3001 271.842 19.8801ZM273.63 19.8801C273.63 19.3201 273.743 18.8301 273.97 18.4101C274.196 17.9835 274.506 17.6535 274.9 17.4201C275.3 17.1868 275.743 17.0701 276.23 17.0701C276.71 17.0701 277.126 17.1735 277.48 17.3801C277.833 17.5868 278.096 17.8468 278.27 18.1601V17.1601H279.19V22.6401H278.27V21.6201C278.09 21.9401 277.82 22.2068 277.46 22.4201C277.106 22.6268 276.693 22.7301 276.22 22.7301C275.733 22.7301 275.293 22.6101 274.9 22.3701C274.506 22.1301 274.196 21.7935 273.97 21.3601C273.743 20.9268 273.63 20.4335 273.63 19.8801ZM278.27 19.8901C278.27 19.4768 278.186 19.1168 278.02 18.8101C277.853 18.5035 277.626 18.2701 277.34 18.1101C277.06 17.9435 276.75 17.8601 276.41 17.8601C276.07 17.8601 275.76 17.9401 275.48 18.1001C275.2 18.2601 274.976 18.4935 274.81 18.8001C274.643 19.1068 274.56 19.4668 274.56 19.8801C274.56 20.3001 274.643 20.6668 274.81 20.9801C274.976 21.2868 275.2 21.5235 275.48 21.6901C275.76 21.8501 276.07 21.9301 276.41 21.9301C276.75 21.9301 277.06 21.8501 277.34 21.6901C277.626 21.5235 277.853 21.2868 278.02 20.9801C278.186 20.6668 278.27 20.3035 278.27 19.8901ZM280.388 19.8901C280.388 19.3235 280.501 18.8301 280.728 18.4101C280.954 17.9835 281.268 17.6535 281.668 17.4201C282.074 17.1868 282.538 17.0701 283.058 17.0701C283.731 17.0701 284.284 17.2335 284.718 17.5601C285.158 17.8868 285.448 18.3401 285.588 18.9201H284.608C284.514 18.5868 284.331 18.3235 284.058 18.1301C283.791 17.9368 283.458 17.8401 283.058 17.8401C282.538 17.8401 282.118 18.0201 281.798 18.3801C281.478 18.7335 281.318 19.2368 281.318 19.8901C281.318 20.5501 281.478 21.0601 281.798 21.4201C282.118 21.7801 282.538 21.9601 283.058 21.9601C283.458 21.9601 283.791 21.8668 284.058 21.6801C284.324 21.4935 284.508 21.2268 284.608 20.8801H285.588C285.441 21.4401 285.148 21.8901 284.708 22.2301C284.268 22.5635 283.718 22.7301 283.058 22.7301C282.538 22.7301 282.074 22.6135 281.668 22.3801C281.268 22.1468 280.954 21.8168 280.728 21.3901C280.501 20.9635 280.388 20.4635 280.388 19.8901ZM289.862 22.6401L287.712 20.2201V22.6401H286.802V15.2401H287.712V19.5901L289.822 17.1601H291.092L288.512 19.8901L291.102 22.6401H289.862ZM291.608 19.8801C291.608 19.3201 291.722 18.8301 291.948 18.4101C292.175 17.9835 292.485 17.6535 292.878 17.4201C293.278 17.1868 293.722 17.0701 294.208 17.0701C294.688 17.0701 295.105 17.1735 295.458 17.3801C295.812 17.5868 296.075 17.8468 296.248 18.1601V17.1601H297.168V22.6401H296.248V21.6201C296.068 21.9401 295.798 22.2068 295.438 22.4201C295.085 22.6268 294.672 22.7301 294.198 22.7301C293.712 22.7301 293.272 22.6101 292.878 22.3701C292.485 22.1301 292.175 21.7935 291.948 21.3601C291.722 20.9268 291.608 20.4335 291.608 19.8801ZM296.248 19.8901C296.248 19.4768 296.165 19.1168 295.998 18.8101C295.832 18.5035 295.605 18.2701 295.318 18.1101C295.038 17.9435 294.728 17.8601 294.388 17.8601C294.048 17.8601 293.738 17.9401 293.458 18.1001C293.178 18.2601 292.955 18.4935 292.788 18.8001C292.622 19.1068 292.538 19.4668 292.538 19.8801C292.538 20.3001 292.622 20.6668 292.788 20.9801C292.955 21.2868 293.178 21.5235 293.458 21.6901C293.738 21.8501 294.048 21.9301 294.388 21.9301C294.728 21.9301 295.038 21.8501 295.318 21.6901C295.605 21.5235 295.832 21.2868 295.998 20.9801C296.165 20.6668 296.248 20.3035 296.248 19.8901ZM300.966 17.0701C301.439 17.0701 301.853 17.1735 302.206 17.3801C302.566 17.5868 302.833 17.8468 303.006 18.1601V17.1601H303.926V22.7601C303.926 23.2601 303.819 23.7035 303.606 24.0901C303.393 24.4835 303.086 24.7901 302.686 25.0101C302.293 25.2301 301.833 25.3401 301.306 25.3401C300.586 25.3401 299.986 25.1701 299.506 24.8301C299.026 24.4901 298.743 24.0268 298.656 23.4401H299.556C299.656 23.7735 299.863 24.0401 300.176 24.2401C300.489 24.4468 300.866 24.5501 301.306 24.5501C301.806 24.5501 302.213 24.3935 302.526 24.0801C302.846 23.7668 303.006 23.3268 303.006 22.7601V21.6101C302.826 21.9301 302.559 22.1968 302.206 22.4101C301.853 22.6235 301.439 22.7301 300.966 22.7301C300.479 22.7301 300.036 22.6101 299.636 22.3701C299.243 22.1301 298.933 21.7935 298.706 21.3601C298.479 20.9268 298.366 20.4335 298.366 19.8801C298.366 19.3201 298.479 18.8301 298.706 18.4101C298.933 17.9835 299.243 17.6535 299.636 17.4201C300.036 17.1868 300.479 17.0701 300.966 17.0701ZM303.006 19.8901C303.006 19.4768 302.923 19.1168 302.756 18.8101C302.589 18.5035 302.363 18.2701 302.076 18.1101C301.796 17.9435 301.486 17.8601 301.146 17.8601C300.806 17.8601 300.496 17.9401 300.216 18.1001C299.936 18.2601 299.713 18.4935 299.546 18.8001C299.379 19.1068 299.296 19.4668 299.296 19.8801C299.296 20.3001 299.379 20.6668 299.546 20.9801C299.713 21.2868 299.936 21.5235 300.216 21.6901C300.496 21.8501 300.806 21.9301 301.146 21.9301C301.486 21.9301 301.796 21.8501 302.076 21.6901C302.363 21.5235 302.589 21.2868 302.756 20.9801C302.923 20.6668 303.006 20.3035 303.006 19.8901ZM305.934 16.2701C305.761 16.2701 305.614 16.2101 305.494 16.0901C305.374 15.9701 305.314 15.8235 305.314 15.6501C305.314 15.4768 305.374 15.3301 305.494 15.2101C305.614 15.0901 305.761 15.0301 305.934 15.0301C306.101 15.0301 306.241 15.0901 306.354 15.2101C306.474 15.3301 306.534 15.4768 306.534 15.6501C306.534 15.8235 306.474 15.9701 306.354 16.0901C306.241 16.2101 306.101 16.2701 305.934 16.2701ZM306.374 17.1601V22.6401H305.464V17.1601H306.374ZM310.595 17.0601C311.261 17.0601 311.801 17.2635 312.215 17.6701C312.628 18.0701 312.835 18.6501 312.835 19.4101V22.6401H311.935V19.5401C311.935 18.9935 311.798 18.5768 311.525 18.2901C311.251 17.9968 310.878 17.8501 310.405 17.8501C309.925 17.8501 309.541 18.0001 309.255 18.3001C308.975 18.6001 308.835 19.0368 308.835 19.6101V22.6401H307.925V17.1601H308.835V17.9401C309.015 17.6601 309.258 17.4435 309.565 17.2901C309.878 17.1368 310.221 17.0601 310.595 17.0601ZM316.581 17.0701C317.055 17.0701 317.468 17.1735 317.821 17.3801C318.181 17.5868 318.448 17.8468 318.621 18.1601V17.1601H319.541V22.7601C319.541 23.2601 319.435 23.7035 319.221 24.0901C319.008 24.4835 318.701 24.7901 318.301 25.0101C317.908 25.2301 317.448 25.3401 316.921 25.3401C316.201 25.3401 315.601 25.1701 315.121 24.8301C314.641 24.4901 314.358 24.0268 314.271 23.4401H315.171C315.271 23.7735 315.478 24.0401 315.791 24.2401C316.105 24.4468 316.481 24.5501 316.921 24.5501C317.421 24.5501 317.828 24.3935 318.141 24.0801C318.461 23.7668 318.621 23.3268 318.621 22.7601V21.6101C318.441 21.9301 318.175 22.1968 317.821 22.4101C317.468 22.6235 317.055 22.7301 316.581 22.7301C316.095 22.7301 315.651 22.6101 315.251 22.3701C314.858 22.1301 314.548 21.7935 314.321 21.3601C314.095 20.9268 313.981 20.4335 313.981 19.8801C313.981 19.3201 314.095 18.8301 314.321 18.4101C314.548 17.9835 314.858 17.6535 315.251 17.4201C315.651 17.1868 316.095 17.0701 316.581 17.0701ZM318.621 19.8901C318.621 19.4768 318.538 19.1168 318.371 18.8101C318.205 18.5035 317.978 18.2701 317.691 18.1101C317.411 17.9435 317.101 17.8601 316.761 17.8601C316.421 17.8601 316.111 17.9401 315.831 18.1001C315.551 18.2601 315.328 18.4935 315.161 18.8001C314.995 19.1068 314.911 19.4668 314.911 19.8801C314.911 20.3001 314.995 20.6668 315.161 20.9801C315.328 21.2868 315.551 21.5235 315.831 21.6901C316.111 21.8501 316.421 21.9301 316.761 21.9301C317.101 21.9301 317.411 21.8501 317.691 21.6901C317.978 21.5235 318.205 21.2868 318.371 20.9801C318.538 20.6668 318.621 20.3035 318.621 19.8901ZM321.369 22.7001C321.196 22.7001 321.049 22.6401 320.929 22.5201C320.809 22.4001 320.749 22.2535 320.749 22.0801C320.749 21.9068 320.809 21.7601 320.929 21.6401C321.049 21.5201 321.196 21.4601 321.369 21.4601C321.536 21.4601 321.676 21.5201 321.789 21.6401C321.909 21.7601 321.969 21.9068 321.969 22.0801C321.969 22.2535 321.909 22.4001 321.789 22.5201C321.676 22.6401 321.536 22.7001 321.369 22.7001Z" fill="#716A6A"/>
</svg>
