<svg width="144" height="37" viewBox="0 0 144 37" fill="none" xmlns="http://www.w3.org/2000/svg">
<rect width="36.5" height="36.5" rx="18.25" fill="white"/>
<path d="M16.4163 20.9974V18.2474M20.083 20.9974V18.2474M23.7497 20.9974V18.2474M9.08301 14.5807V10.9141M27.4163 12.7474H9.08301M27.4163 14.5807V10.9141M12.7497 20.9974V18.2474" stroke="#031022" stroke-opacity="0.66" stroke-width="2.06182" stroke-linecap="round" stroke-linejoin="round"/>
<path d="M25.583 18.248H10.9163C9.90382 18.248 9.08301 19.0689 9.08301 20.0814V23.748C9.08301 24.7606 9.90382 25.5814 10.9163 25.5814H25.583C26.5955 25.5814 27.4163 24.7606 27.4163 23.748V20.0814C27.4163 19.0689 26.5955 18.248 25.583 18.248Z" stroke="#031022" stroke-opacity="0.66" stroke-width="2.06182" stroke-linecap="round" stroke-linejoin="round"/>
<path d="M49.725 11.4827C49.725 12.0127 49.6367 12.4993 49.46 12.9427C49.2833 13.386 49.035 13.7677 48.715 14.0877C48.395 14.4077 48.01 14.656 47.56 14.8327C47.11 15.0093 46.61 15.0977 46.06 15.0977H43.305V7.86766H46.06C46.61 7.86766 47.11 7.95766 47.56 8.13766C48.01 8.31432 48.395 8.56266 48.715 8.88266C49.035 9.19932 49.2833 9.57932 49.46 10.0227C49.6367 10.466 49.725 10.9527 49.725 11.4827ZM48.345 11.4827C48.345 11.086 48.2917 10.731 48.185 10.4177C48.0817 10.101 47.93 9.83432 47.73 9.61766C47.5333 9.39766 47.2933 9.22932 47.01 9.11266C46.73 8.99599 46.4133 8.93766 46.06 8.93766H44.655V14.0277H46.06C46.4133 14.0277 46.73 13.9693 47.01 13.8527C47.2933 13.736 47.5333 13.5693 47.73 13.3527C47.93 13.1327 48.0817 12.866 48.185 12.5527C48.2917 12.236 48.345 11.8793 48.345 11.4827ZM51.9095 9.96766V15.0977H50.6695V9.96766H51.9095ZM52.0795 8.47266C52.0795 8.57932 52.0579 8.67932 52.0145 8.77266C51.9712 8.86599 51.9129 8.94766 51.8395 9.01766C51.7695 9.08766 51.6862 9.14432 51.5895 9.18766C51.4929 9.22766 51.3895 9.24766 51.2795 9.24766C51.1729 9.24766 51.0712 9.22766 50.9745 9.18766C50.8812 9.14432 50.7995 9.08766 50.7295 9.01766C50.6595 8.94766 50.6029 8.86599 50.5595 8.77266C50.5195 8.67932 50.4995 8.57932 50.4995 8.47266C50.4995 8.36266 50.5195 8.25932 50.5595 8.16266C50.6029 8.06599 50.6595 7.98266 50.7295 7.91266C50.7995 7.84266 50.8812 7.78766 50.9745 7.74766C51.0712 7.70432 51.1729 7.68266 51.2795 7.68266C51.3895 7.68266 51.4929 7.70432 51.5895 7.74766C51.6862 7.78766 51.7695 7.84266 51.8395 7.91266C51.9129 7.98266 51.9712 8.06599 52.0145 8.16266C52.0579 8.25932 52.0795 8.36266 52.0795 8.47266ZM53.1686 15.0977V9.96766H53.9236C54.0836 9.96766 54.1886 10.0427 54.2386 10.1927L54.3186 10.5727C54.4086 10.4727 54.5019 10.381 54.5986 10.2977C54.6986 10.2143 54.8036 10.1427 54.9136 10.0827C55.0269 10.0227 55.1469 9.97599 55.2736 9.94266C55.4036 9.90599 55.5453 9.88766 55.6986 9.88766C56.0219 9.88766 56.2869 9.97599 56.4936 10.1527C56.7036 10.326 56.8603 10.5577 56.9636 10.8477C57.0436 10.6777 57.1436 10.5327 57.2636 10.4127C57.3836 10.2893 57.5153 10.1893 57.6586 10.1127C57.8019 10.036 57.9536 9.97932 58.1136 9.94266C58.2769 9.90599 58.4403 9.88766 58.6036 9.88766C58.8869 9.88766 59.1386 9.93099 59.3586 10.0177C59.5786 10.1043 59.7636 10.231 59.9136 10.3977C60.0636 10.5643 60.1769 10.7677 60.2536 11.0077C60.3336 11.2477 60.3736 11.5227 60.3736 11.8327V15.0977H59.1386V11.8327C59.1386 11.506 59.0669 11.261 58.9236 11.0977C58.7803 10.931 58.5703 10.8477 58.2936 10.8477C58.1669 10.8477 58.0486 10.8693 57.9386 10.9127C57.8319 10.956 57.7369 11.0193 57.6536 11.1027C57.5736 11.1827 57.5103 11.2843 57.4636 11.4077C57.4169 11.531 57.3936 11.6727 57.3936 11.8327V15.0977H56.1536V11.8327C56.1536 11.4893 56.0836 11.2393 55.9436 11.0827C55.8069 10.926 55.6053 10.8477 55.3386 10.8477C55.1586 10.8477 54.9903 10.8927 54.8336 10.9827C54.6803 11.0693 54.5369 11.1893 54.4036 11.3427V15.0977H53.1686ZM64.8525 11.9427C64.8525 11.7827 64.8292 11.6327 64.7825 11.4927C64.7392 11.3493 64.6725 11.2243 64.5825 11.1177C64.4925 11.011 64.3775 10.9277 64.2375 10.8677C64.1008 10.8043 63.9408 10.7727 63.7575 10.7727C63.4008 10.7727 63.1192 10.8743 62.9125 11.0777C62.7092 11.281 62.5792 11.5693 62.5225 11.9427H64.8525ZM62.4975 12.6877C62.5175 12.951 62.5642 13.1793 62.6375 13.3727C62.7108 13.5627 62.8075 13.721 62.9275 13.8477C63.0475 13.971 63.1892 14.0643 63.3525 14.1277C63.5192 14.1877 63.7025 14.2177 63.9025 14.2177C64.1025 14.2177 64.2742 14.1943 64.4175 14.1477C64.5642 14.101 64.6908 14.0493 64.7975 13.9927C64.9075 13.936 65.0025 13.8843 65.0825 13.8377C65.1658 13.791 65.2458 13.7677 65.3225 13.7677C65.4258 13.7677 65.5025 13.806 65.5525 13.8827L65.9075 14.3327C65.7708 14.4927 65.6175 14.6277 65.4475 14.7377C65.2775 14.8443 65.0992 14.931 64.9125 14.9977C64.7292 15.061 64.5408 15.106 64.3475 15.1327C64.1575 15.1593 63.9725 15.1727 63.7925 15.1727C63.4358 15.1727 63.1042 15.1143 62.7975 14.9977C62.4908 14.8777 62.2242 14.7027 61.9975 14.4727C61.7708 14.2393 61.5925 13.9527 61.4625 13.6127C61.3325 13.2693 61.2675 12.8727 61.2675 12.4227C61.2675 12.0727 61.3242 11.7443 61.4375 11.4377C61.5508 11.1277 61.7125 10.8593 61.9225 10.6327C62.1358 10.4027 62.3942 10.221 62.6975 10.0877C63.0042 9.95432 63.3492 9.88766 63.7325 9.88766C64.0558 9.88766 64.3542 9.93932 64.6275 10.0427C64.9008 10.146 65.1358 10.2977 65.3325 10.4977C65.5292 10.6943 65.6825 10.9377 65.7925 11.2277C65.9058 11.5143 65.9625 11.8427 65.9625 12.2127C65.9625 12.3993 65.9425 12.526 65.9025 12.5927C65.8625 12.656 65.7858 12.6877 65.6725 12.6877H62.4975ZM68.0443 10.5977C68.1476 10.4943 68.256 10.3993 68.3693 10.3127C68.486 10.2227 68.6076 10.1477 68.7343 10.0877C68.8643 10.0243 69.0026 9.97599 69.1493 9.94266C69.296 9.90599 69.456 9.88766 69.6293 9.88766C69.9093 9.88766 70.1576 9.93599 70.3743 10.0327C70.591 10.126 70.771 10.2593 70.9143 10.4327C71.061 10.6027 71.171 10.8077 71.2443 11.0477C71.321 11.2843 71.3593 11.546 71.3593 11.8327V15.0977H70.1243V11.8327C70.1243 11.5193 70.0526 11.2777 69.9093 11.1077C69.766 10.9343 69.5476 10.8477 69.2543 10.8477C69.041 10.8477 68.841 10.896 68.6543 10.9927C68.4676 11.0893 68.291 11.221 68.1243 11.3877V15.0977H66.8893V9.96766H67.6443C67.8043 9.96766 67.9093 10.0427 67.9593 10.1927L68.0443 10.5977ZM75.6638 10.9677C75.6305 11.021 75.5955 11.0593 75.5588 11.0827C75.5222 11.1027 75.4755 11.1127 75.4188 11.1127C75.3588 11.1127 75.2938 11.096 75.2238 11.0627C75.1572 11.0293 75.0788 10.9927 74.9888 10.9527C74.8988 10.9093 74.7955 10.871 74.6788 10.8377C74.5655 10.8043 74.4305 10.7877 74.2738 10.7877C74.0305 10.7877 73.8388 10.8393 73.6988 10.9427C73.5622 11.046 73.4938 11.181 73.4938 11.3477C73.4938 11.4577 73.5288 11.551 73.5988 11.6277C73.6722 11.701 73.7672 11.766 73.8838 11.8227C74.0038 11.8793 74.1388 11.931 74.2888 11.9777C74.4388 12.021 74.5905 12.0693 74.7438 12.1227C74.9005 12.176 75.0538 12.2377 75.2038 12.3077C75.3538 12.3743 75.4872 12.461 75.6038 12.5677C75.7238 12.671 75.8188 12.796 75.8888 12.9427C75.9622 13.0893 75.9988 13.266 75.9988 13.4727C75.9988 13.7193 75.9538 13.9477 75.8638 14.1577C75.7772 14.3643 75.6472 14.5443 75.4738 14.6977C75.3005 14.8477 75.0855 14.966 74.8288 15.0527C74.5755 15.136 74.2822 15.1777 73.9488 15.1777C73.7722 15.1777 73.5988 15.161 73.4288 15.1277C73.2622 15.0977 73.1005 15.0543 72.9438 14.9977C72.7905 14.941 72.6472 14.8743 72.5138 14.7977C72.3838 14.721 72.2688 14.6377 72.1688 14.5477L72.4538 14.0777C72.4905 14.021 72.5338 13.9777 72.5838 13.9477C72.6338 13.9177 72.6972 13.9027 72.7738 13.9027C72.8505 13.9027 72.9222 13.9243 72.9888 13.9677C73.0588 14.011 73.1388 14.0577 73.2288 14.1077C73.3188 14.1577 73.4238 14.2043 73.5438 14.2477C73.6672 14.291 73.8222 14.3127 74.0088 14.3127C74.1555 14.3127 74.2805 14.296 74.3838 14.2627C74.4905 14.226 74.5772 14.1793 74.6438 14.1227C74.7138 14.066 74.7638 14.001 74.7938 13.9277C74.8272 13.851 74.8438 13.7727 74.8438 13.6927C74.8438 13.5727 74.8072 13.4743 74.7338 13.3977C74.6638 13.321 74.5688 13.2543 74.4488 13.1977C74.3322 13.141 74.1972 13.091 74.0438 13.0477C73.8938 13.001 73.7388 12.951 73.5788 12.8977C73.4222 12.8443 73.2672 12.7827 73.1138 12.7127C72.9638 12.6393 72.8288 12.5477 72.7088 12.4377C72.5922 12.3277 72.4972 12.1927 72.4238 12.0327C72.3538 11.8727 72.3188 11.6793 72.3188 11.4527C72.3188 11.2427 72.3605 11.0427 72.4438 10.8527C72.5272 10.6627 72.6488 10.4977 72.8088 10.3577C72.9722 10.2143 73.1738 10.101 73.4138 10.0177C73.6572 9.93099 73.9372 9.88766 74.2538 9.88766C74.6072 9.88766 74.9288 9.94599 75.2188 10.0627C75.5088 10.1793 75.7505 10.3327 75.9438 10.5227L75.6638 10.9677ZM78.2084 9.96766V15.0977H76.9684V9.96766H78.2084ZM78.3784 8.47266C78.3784 8.57932 78.3567 8.67932 78.3134 8.77266C78.27 8.86599 78.2117 8.94766 78.1384 9.01766C78.0684 9.08766 77.985 9.14432 77.8884 9.18766C77.7917 9.22766 77.6884 9.24766 77.5784 9.24766C77.4717 9.24766 77.37 9.22766 77.2734 9.18766C77.18 9.14432 77.0984 9.08766 77.0284 9.01766C76.9584 8.94766 76.9017 8.86599 76.8584 8.77266C76.8184 8.67932 76.7984 8.57932 76.7984 8.47266C76.7984 8.36266 76.8184 8.25932 76.8584 8.16266C76.9017 8.06599 76.9584 7.98266 77.0284 7.91266C77.0984 7.84266 77.18 7.78766 77.2734 7.74766C77.37 7.70432 77.4717 7.68266 77.5784 7.68266C77.6884 7.68266 77.7917 7.70432 77.8884 7.74766C77.985 7.78766 78.0684 7.84266 78.1384 7.91266C78.2117 7.98266 78.27 8.06599 78.3134 8.16266C78.3567 8.25932 78.3784 8.36266 78.3784 8.47266ZM81.7374 9.88766C82.1174 9.88766 82.4624 9.94932 82.7724 10.0727C83.0858 10.196 83.3524 10.371 83.5724 10.5977C83.7958 10.8243 83.9674 11.101 84.0874 11.4277C84.2074 11.7543 84.2674 12.1193 84.2674 12.5227C84.2674 12.9293 84.2074 13.296 84.0874 13.6227C83.9674 13.9493 83.7958 14.2277 83.5724 14.4577C83.3524 14.6877 83.0858 14.8643 82.7724 14.9877C82.4624 15.111 82.1174 15.1727 81.7374 15.1727C81.3541 15.1727 81.0058 15.111 80.6924 14.9877C80.3791 14.8643 80.1108 14.6877 79.8874 14.4577C79.6674 14.2277 79.4958 13.9493 79.3724 13.6227C79.2524 13.296 79.1924 12.9293 79.1924 12.5227C79.1924 12.1193 79.2524 11.7543 79.3724 11.4277C79.4958 11.101 79.6674 10.8243 79.8874 10.5977C80.1108 10.371 80.3791 10.196 80.6924 10.0727C81.0058 9.94932 81.3541 9.88766 81.7374 9.88766ZM81.7374 14.2227C82.1641 14.2227 82.4791 14.0793 82.6824 13.7927C82.8891 13.506 82.9924 13.086 82.9924 12.5327C82.9924 11.9793 82.8891 11.5577 82.6824 11.2677C82.4791 10.9777 82.1641 10.8327 81.7374 10.8327C81.3041 10.8327 80.9824 10.9793 80.7724 11.2727C80.5658 11.5627 80.4624 11.9827 80.4624 12.5327C80.4624 13.0827 80.5658 13.5027 80.7724 13.7927C80.9824 14.0793 81.3041 14.2227 81.7374 14.2227ZM86.3646 10.5977C86.4679 10.4943 86.5763 10.3993 86.6896 10.3127C86.8063 10.2227 86.9279 10.1477 87.0546 10.0877C87.1846 10.0243 87.3229 9.97599 87.4696 9.94266C87.6163 9.90599 87.7763 9.88766 87.9496 9.88766C88.2296 9.88766 88.4779 9.93599 88.6946 10.0327C88.9113 10.126 89.0913 10.2593 89.2346 10.4327C89.3813 10.6027 89.4913 10.8077 89.5646 11.0477C89.6413 11.2843 89.6796 11.546 89.6796 11.8327V15.0977H88.4446V11.8327C88.4446 11.5193 88.3729 11.2777 88.2296 11.1077C88.0863 10.9343 87.8679 10.8477 87.5746 10.8477C87.3613 10.8477 87.1613 10.896 86.9746 10.9927C86.7879 11.0893 86.6113 11.221 86.4446 11.3877V15.0977H85.2096V9.96766H85.9646C86.1246 9.96766 86.2296 10.0427 86.2796 10.1927L86.3646 10.5977Z" fill="#5D5A5A"/>
<path d="M42.804 23.2821V22.6181H44.308V28.4021H43.572V23.2821H42.804ZM46.6145 25.3941C46.3158 25.2768 46.0865 25.1061 45.9265 24.8821C45.7665 24.6581 45.6865 24.3861 45.6865 24.0661C45.6865 23.7781 45.7585 23.5194 45.9025 23.2901C46.0465 23.0554 46.2598 22.8714 46.5425 22.7381C46.8305 22.5994 47.1772 22.5301 47.5825 22.5301C47.9878 22.5301 48.3318 22.5994 48.6145 22.7381C48.9025 22.8714 49.1185 23.0554 49.2625 23.2901C49.4118 23.5194 49.4865 23.7781 49.4865 24.0661C49.4865 24.3754 49.4038 24.6474 49.2385 24.8821C49.0732 25.1114 48.8465 25.2821 48.5585 25.3941C48.8892 25.4954 49.1505 25.6741 49.3425 25.9301C49.5398 26.1808 49.6385 26.4848 49.6385 26.8421C49.6385 27.1888 49.5532 27.4928 49.3825 27.7541C49.2118 28.0101 48.9692 28.2101 48.6545 28.3541C48.3452 28.4928 47.9878 28.5621 47.5825 28.5621C47.1772 28.5621 46.8198 28.4928 46.5105 28.3541C46.2065 28.2101 45.9692 28.0101 45.7985 27.7541C45.6278 27.4928 45.5425 27.1888 45.5425 26.8421C45.5425 26.4848 45.6385 26.1781 45.8305 25.9221C46.0225 25.6661 46.2838 25.4901 46.6145 25.3941ZM48.7825 24.1541C48.7825 23.8288 48.6758 23.5781 48.4625 23.4021C48.2492 23.2261 47.9558 23.1381 47.5825 23.1381C47.2145 23.1381 46.9238 23.2261 46.7105 23.4021C46.4972 23.5781 46.3905 23.8314 46.3905 24.1621C46.3905 24.4608 46.4998 24.7008 46.7185 24.8821C46.9425 25.0634 47.2305 25.1541 47.5825 25.1541C47.9398 25.1541 48.2278 25.0634 48.4465 24.8821C48.6705 24.6954 48.7825 24.4528 48.7825 24.1541ZM47.5825 25.7141C47.1878 25.7141 46.8652 25.8074 46.6145 25.9941C46.3638 26.1754 46.2385 26.4501 46.2385 26.8181C46.2385 27.1594 46.3585 27.4341 46.5985 27.6421C46.8438 27.8501 47.1718 27.9541 47.5825 27.9541C47.9932 27.9541 48.3185 27.8501 48.5585 27.6421C48.7985 27.4341 48.9185 27.1594 48.9185 26.8181C48.9185 26.4608 48.7958 26.1888 48.5505 26.0021C48.3052 25.8101 47.9825 25.7141 47.5825 25.7141ZM50.4294 27.1141V26.5621L53.2374 22.6741H54.1094V26.4821H54.9094V27.1141H54.1094V28.4021H53.3894V27.1141H50.4294ZM53.4214 23.4341L51.2694 26.4821H53.4214V23.4341ZM58.4766 20.8661L56.2846 29.7621H55.5646L57.7486 20.8661H58.4766ZM59.2493 23.2821V22.6181H60.7533V28.4021H60.0173V23.2821H59.2493ZM61.9878 24.0741C62.0251 23.5834 62.2145 23.1994 62.5558 22.9221C62.8971 22.6448 63.3398 22.5061 63.8838 22.5061C64.2465 22.5061 64.5585 22.5728 64.8198 22.7061C65.0865 22.8341 65.2865 23.0101 65.4198 23.2341C65.5585 23.4581 65.6278 23.7114 65.6278 23.9941C65.6278 24.3248 65.5318 24.6101 65.3398 24.8501C65.1531 25.0901 64.9078 25.2448 64.6038 25.3141V25.3541C64.9505 25.4394 65.2251 25.6074 65.4278 25.8581C65.6305 26.1088 65.7318 26.4368 65.7318 26.8421C65.7318 27.1461 65.6625 27.4208 65.5238 27.6661C65.3851 27.9061 65.1771 28.0954 64.8998 28.2341C64.6225 28.3728 64.2891 28.4421 63.8998 28.4421C63.3345 28.4421 62.8705 28.2954 62.5078 28.0021C62.1451 27.7034 61.9425 27.2821 61.8998 26.7381H62.6038C62.6411 27.0581 62.7718 27.3194 62.9958 27.5221C63.2198 27.7248 63.5185 27.8261 63.8918 27.8261C64.2651 27.8261 64.5478 27.7301 64.7398 27.5381C64.9371 27.3408 65.0358 27.0874 65.0358 26.7781C65.0358 26.3781 64.9025 26.0901 64.6358 25.9141C64.3691 25.7381 63.9665 25.6501 63.4278 25.6501H63.2438V25.0421H63.4358C63.9265 25.0368 64.2971 24.9568 64.5478 24.8021C64.7985 24.6421 64.9238 24.3968 64.9238 24.0661C64.9238 23.7834 64.8305 23.5568 64.6438 23.3861C64.4625 23.2154 64.2011 23.1301 63.8598 23.1301C63.5291 23.1301 63.2625 23.2154 63.0598 23.3861C62.8571 23.5568 62.7371 23.7861 62.6998 24.0741H61.9878ZM69.9388 23.9941C69.8214 23.4021 69.4561 23.1061 68.8428 23.1061C68.3681 23.1061 68.0134 23.2901 67.7788 23.6581C67.5441 24.0208 67.4294 24.6208 67.4348 25.4581C67.5574 25.1808 67.7601 24.9648 68.0428 24.8101C68.3308 24.6501 68.6508 24.5701 69.0028 24.5701C69.5521 24.5701 69.9894 24.7408 70.3148 25.0821C70.6454 25.4234 70.8108 25.8954 70.8108 26.4981C70.8108 26.8608 70.7388 27.1861 70.5948 27.4741C70.4561 27.7621 70.2428 27.9914 69.9548 28.1621C69.6721 28.3328 69.3281 28.4181 68.9228 28.4181C68.3734 28.4181 67.9441 28.2954 67.6348 28.0501C67.3254 27.8048 67.1094 27.4661 66.9868 27.0341C66.8641 26.6021 66.8028 26.0688 66.8028 25.4341C66.8028 23.4768 67.4854 22.4981 68.8508 22.4981C69.3734 22.4981 69.7841 22.6394 70.0828 22.9221C70.3814 23.2048 70.5574 23.5621 70.6108 23.9941H69.9388ZM68.8508 25.1861C68.6214 25.1861 68.4054 25.2341 68.2028 25.3301C68.0001 25.4208 67.8348 25.5621 67.7068 25.7541C67.5841 25.9408 67.5228 26.1701 67.5228 26.4421C67.5228 26.8474 67.6401 27.1781 67.8748 27.4341C68.1094 27.6848 68.4454 27.8101 68.8828 27.8101C69.2561 27.8101 69.5521 27.6954 69.7708 27.4661C69.9948 27.2314 70.1068 26.9168 70.1068 26.5221C70.1068 26.1061 70.0001 25.7808 69.7868 25.5461C69.5734 25.3061 69.2614 25.1861 68.8508 25.1861ZM77.2777 27.2021L76.0057 25.9301L74.7337 27.2021L74.2537 26.7221L75.5257 25.4501L74.2777 24.2021L74.7417 23.7301L75.9977 24.9861L77.2537 23.7301L77.7337 24.2101L76.4777 25.4661L77.7417 26.7381L77.2777 27.2021ZM81.0071 23.2821V22.6181H82.5111V28.4021H81.7751V23.2821H81.0071ZM83.6736 27.8181C84.351 27.2741 84.8816 26.8288 85.2656 26.4821C85.6496 26.1301 85.9723 25.7648 86.2336 25.3861C86.5003 25.0021 86.6336 24.6261 86.6336 24.2581C86.6336 23.9114 86.5483 23.6394 86.3776 23.4421C86.2123 23.2394 85.943 23.1381 85.5696 23.1381C85.207 23.1381 84.9243 23.2528 84.7216 23.4821C84.5243 23.7061 84.4176 24.0074 84.4016 24.3861H83.6976C83.719 23.7888 83.9003 23.3274 84.2416 23.0021C84.583 22.6768 85.023 22.5141 85.5616 22.5141C86.111 22.5141 86.5456 22.6661 86.8656 22.9701C87.191 23.2741 87.3536 23.6928 87.3536 24.2261C87.3536 24.6688 87.2203 25.1008 86.9536 25.5221C86.6923 25.9381 86.3936 26.3061 86.0576 26.6261C85.7216 26.9408 85.2923 27.3088 84.7696 27.7301H87.5216V28.3381H83.6736V27.8181ZM89.4192 25.3941C89.1205 25.2768 88.8912 25.1061 88.7312 24.8821C88.5712 24.6581 88.4912 24.3861 88.4912 24.0661C88.4912 23.7781 88.5632 23.5194 88.7072 23.2901C88.8512 23.0554 89.0645 22.8714 89.3472 22.7381C89.6352 22.5994 89.9819 22.5301 90.3872 22.5301C90.7925 22.5301 91.1365 22.5994 91.4192 22.7381C91.7072 22.8714 91.9232 23.0554 92.0672 23.2901C92.2165 23.5194 92.2912 23.7781 92.2912 24.0661C92.2912 24.3754 92.2085 24.6474 92.0432 24.8821C91.8779 25.1114 91.6512 25.2821 91.3632 25.3941C91.6939 25.4954 91.9552 25.6741 92.1472 25.9301C92.3445 26.1808 92.4432 26.4848 92.4432 26.8421C92.4432 27.1888 92.3579 27.4928 92.1872 27.7541C92.0165 28.0101 91.7739 28.2101 91.4592 28.3541C91.1499 28.4928 90.7925 28.5621 90.3872 28.5621C89.9819 28.5621 89.6245 28.4928 89.3152 28.3541C89.0112 28.2101 88.7739 28.0101 88.6032 27.7541C88.4325 27.4928 88.3472 27.1888 88.3472 26.8421C88.3472 26.4848 88.4432 26.1781 88.6352 25.9221C88.8272 25.6661 89.0885 25.4901 89.4192 25.3941ZM91.5872 24.1541C91.5872 23.8288 91.4805 23.5781 91.2672 23.4021C91.0539 23.2261 90.7605 23.1381 90.3872 23.1381C90.0192 23.1381 89.7285 23.2261 89.5152 23.4021C89.3019 23.5781 89.1952 23.8314 89.1952 24.1621C89.1952 24.4608 89.3045 24.7008 89.5232 24.8821C89.7472 25.0634 90.0352 25.1541 90.3872 25.1541C90.7445 25.1541 91.0325 25.0634 91.2512 24.8821C91.4752 24.6954 91.5872 24.4528 91.5872 24.1541ZM90.3872 25.7141C89.9925 25.7141 89.6699 25.8074 89.4192 25.9941C89.1685 26.1754 89.0432 26.4501 89.0432 26.8181C89.0432 27.1594 89.1632 27.4341 89.4032 27.6421C89.6485 27.8501 89.9765 27.9541 90.3872 27.9541C90.7979 27.9541 91.1232 27.8501 91.3632 27.6421C91.6032 27.4341 91.7232 27.1594 91.7232 26.8181C91.7232 26.4608 91.6005 26.1888 91.3552 26.0021C91.1099 25.8101 90.7872 25.7141 90.3872 25.7141ZM96.2501 20.8661L94.0581 29.7621H93.3381L95.5221 20.8661H96.2501ZM98.2708 25.3941C97.9721 25.2768 97.7428 25.1061 97.5828 24.8821C97.4228 24.6581 97.3428 24.3861 97.3428 24.0661C97.3428 23.7781 97.4148 23.5194 97.5588 23.2901C97.7028 23.0554 97.9161 22.8714 98.1988 22.7381C98.4868 22.5994 98.8334 22.5301 99.2388 22.5301C99.6441 22.5301 99.9881 22.5994 100.271 22.7381C100.559 22.8714 100.775 23.0554 100.919 23.2901C101.068 23.5194 101.143 23.7781 101.143 24.0661C101.143 24.3754 101.06 24.6474 100.895 24.8821C100.729 25.1114 100.503 25.2821 100.215 25.3941C100.545 25.4954 100.807 25.6741 100.999 25.9301C101.196 26.1808 101.295 26.4848 101.295 26.8421C101.295 27.1888 101.209 27.4928 101.039 27.7541C100.868 28.0101 100.625 28.2101 100.311 28.3541C100.001 28.4928 99.6441 28.5621 99.2388 28.5621C98.8334 28.5621 98.4761 28.4928 98.1668 28.3541C97.8628 28.2101 97.6254 28.0101 97.4548 27.7541C97.2841 27.4928 97.1988 27.1888 97.1988 26.8421C97.1988 26.4848 97.2948 26.1781 97.4868 25.9221C97.6787 25.6661 97.9401 25.4901 98.2708 25.3941ZM100.439 24.1541C100.439 23.8288 100.332 23.5781 100.119 23.4021C99.9054 23.2261 99.6121 23.1381 99.2388 23.1381C98.8708 23.1381 98.5801 23.2261 98.3668 23.4021C98.1534 23.5781 98.0468 23.8314 98.0468 24.1621C98.0468 24.4608 98.1561 24.7008 98.3748 24.8821C98.5988 25.0634 98.8868 25.1541 99.2388 25.1541C99.5961 25.1541 99.8841 25.0634 100.103 24.8821C100.327 24.6954 100.439 24.4528 100.439 24.1541ZM99.2388 25.7141C98.8441 25.7141 98.5214 25.8074 98.2708 25.9941C98.0201 26.1754 97.8947 26.4501 97.8947 26.8181C97.8947 27.1594 98.0148 27.4341 98.2548 27.6421C98.5001 27.8501 98.8281 27.9541 99.2388 27.9541C99.6494 27.9541 99.9748 27.8501 100.215 27.6421C100.455 27.4341 100.575 27.1594 100.575 26.8181C100.575 26.4608 100.452 26.1888 100.207 26.0021C99.9614 25.8101 99.6388 25.7141 99.2388 25.7141ZM102.07 23.2821V22.6181H103.574V28.4021H102.838V23.2821H102.07ZM110.309 27.2021L109.037 25.9301L107.765 27.2021L107.285 26.7221L108.557 25.4501L107.309 24.2021L107.773 23.7301L109.029 24.9861L110.285 23.7301L110.765 24.2101L109.509 25.4661L110.773 26.7381L110.309 27.2021ZM117.79 23.1861L115.566 28.4021H114.83L117.086 23.2581H113.998V22.6341H117.79V23.1861ZM118.51 27.8181C119.187 27.2741 119.718 26.8288 120.102 26.4821C120.486 26.1301 120.808 25.7648 121.07 25.3861C121.336 25.0021 121.47 24.6261 121.47 24.2581C121.47 23.9114 121.384 23.6394 121.214 23.4421C121.048 23.2394 120.779 23.1381 120.406 23.1381C120.043 23.1381 119.76 23.2528 119.558 23.4821C119.36 23.7061 119.254 24.0074 119.238 24.3861H118.534C118.555 23.7888 118.736 23.3274 119.078 23.0021C119.419 22.6768 119.859 22.5141 120.398 22.5141C120.947 22.5141 121.382 22.6661 121.702 22.9701C122.027 23.2741 122.19 23.6928 122.19 24.2261C122.19 24.6688 122.056 25.1008 121.79 25.5221C121.528 25.9381 121.23 26.3061 120.894 26.6261C120.558 26.9408 120.128 27.3088 119.606 27.7301H122.358V28.3381H118.51V27.8181ZM132.857 23.9381C133.198 23.9381 133.502 24.0101 133.769 24.1541C134.035 24.2928 134.246 24.5034 134.401 24.7861C134.555 25.0688 134.633 25.4128 134.633 25.8181V28.4021H133.913V25.9221C133.913 25.4848 133.803 25.1514 133.585 24.9221C133.371 24.6874 133.081 24.5701 132.713 24.5701C132.334 24.5701 132.033 24.6928 131.809 24.9381C131.585 25.1781 131.473 25.5274 131.473 25.9861V28.4021H130.753V25.9221C130.753 25.4848 130.643 25.1514 130.425 24.9221C130.211 24.6874 129.921 24.5701 129.553 24.5701C129.174 24.5701 128.873 24.6928 128.649 24.9381C128.425 25.1781 128.313 25.5274 128.313 25.9861V28.4021H127.585V24.0181H128.313V24.6501C128.457 24.4208 128.649 24.2448 128.889 24.1221C129.134 23.9994 129.403 23.9381 129.697 23.9381C130.065 23.9381 130.39 24.0208 130.673 24.1861C130.955 24.3514 131.166 24.5941 131.305 24.9141C131.427 24.6048 131.63 24.3648 131.913 24.1941C132.195 24.0234 132.51 23.9381 132.857 23.9381ZM141.099 23.9381C141.44 23.9381 141.744 24.0101 142.011 24.1541C142.278 24.2928 142.488 24.5034 142.643 24.7861C142.798 25.0688 142.875 25.4128 142.875 25.8181V28.4021H142.155V25.9221C142.155 25.4848 142.046 25.1514 141.827 24.9221C141.614 24.6874 141.323 24.5701 140.955 24.5701C140.576 24.5701 140.275 24.6928 140.051 24.9381C139.827 25.1781 139.715 25.5274 139.715 25.9861V28.4021H138.995V25.9221C138.995 25.4848 138.886 25.1514 138.667 24.9221C138.454 24.6874 138.163 24.5701 137.795 24.5701C137.416 24.5701 137.115 24.6928 136.891 24.9381C136.667 25.1781 136.555 25.5274 136.555 25.9861V28.4021H135.827V24.0181H136.555V24.6501C136.699 24.4208 136.891 24.2448 137.131 24.1221C137.376 23.9994 137.646 23.9381 137.939 23.9381C138.307 23.9381 138.632 24.0208 138.915 24.1861C139.198 24.3514 139.408 24.5941 139.547 24.9141C139.67 24.6048 139.872 24.3648 140.155 24.1941C140.438 24.0234 140.752 23.9381 141.099 23.9381Z" fill="#5D5A5A"/>
</svg>
