<svg width="141" height="37" viewBox="0 0 141 37" fill="none" xmlns="http://www.w3.org/2000/svg">
<rect width="36.5" height="36.5" rx="18.25" fill="white"/>
<path d="M18.2489 14.2914C18.4732 14.2914 18.6613 14.2154 18.8133 14.0634C18.9653 13.9114 19.0411 13.7235 19.0405 13.4998C19.04 13.276 18.964 13.0881 18.8125 12.9361C18.6611 12.7841 18.4732 12.7081 18.2489 12.7081C18.0246 12.7081 17.8367 12.7841 17.6852 12.9361C17.5337 13.0881 17.4577 13.276 17.4572 13.4998C17.4567 13.7235 17.5327 13.9117 17.6852 14.0642C17.8377 14.2167 18.0256 14.2925 18.2489 14.2914ZM20.4853 14.2914H21.8707C22.2666 14.2914 22.6096 14.4234 22.8999 14.6873C23.1902 14.9511 23.3683 15.2744 23.4343 15.657L24.5624 23.5737C24.6284 24.0487 24.5065 24.4678 24.1967 24.8309C23.8869 25.194 23.4876 25.3753 22.9989 25.3748H13.4989C13.0107 25.3748 12.6114 25.1935 12.3011 24.8309C11.9907 24.4683 11.8688 24.0492 11.9353 23.5737L13.0635 15.657C13.1294 15.2744 13.3075 14.9511 13.5978 14.6873C13.8881 14.4234 14.2312 14.2914 14.627 14.2914H16.0124C15.9728 14.1595 15.9398 14.031 15.9135 13.9059C15.8871 13.7808 15.8739 13.6454 15.8739 13.4998C15.8739 12.84 16.1048 12.2793 16.5666 11.8175C17.0284 11.3557 17.5891 11.1248 18.2489 11.1248C18.9086 11.1248 19.4694 11.3557 19.9312 11.8175C20.393 12.2793 20.6239 12.84 20.6239 13.4998C20.6239 13.6449 20.6107 13.7803 20.5843 13.9059C20.5579 14.0315 20.5249 14.16 20.4853 14.2914Z" fill="#031022" fill-opacity="0.66"/>
<path d="M52.925 7.86766L50.68 15.0977H49.465L47.885 10.1577C47.8417 10.0377 47.8017 9.89099 47.765 9.71766C47.745 9.80099 47.725 9.87932 47.705 9.95266C47.685 10.026 47.6633 10.0943 47.64 10.1577L46.045 15.0977H44.825L42.585 7.86766H43.71C43.8267 7.86766 43.9233 7.89599 44 7.95266C44.08 8.00599 44.1333 8.07932 44.16 8.17266L45.39 12.4977C45.4167 12.6043 45.4417 12.721 45.465 12.8477C45.4917 12.971 45.5183 13.101 45.545 13.2377C45.5717 13.0977 45.6 12.966 45.63 12.8427C45.6633 12.7193 45.6983 12.6043 45.735 12.4977L47.155 8.17266C47.1817 8.09599 47.2333 8.02599 47.31 7.96266C47.39 7.89932 47.4867 7.86766 47.6 7.86766H47.995C48.1117 7.86766 48.2067 7.89599 48.28 7.95266C48.3533 8.00932 48.4083 8.08266 48.445 8.17266L49.86 12.4977C49.93 12.7043 49.9933 12.9427 50.05 13.2127C50.0933 12.9493 50.1417 12.711 50.195 12.4977L51.425 8.17266C51.445 8.08932 51.495 8.01766 51.575 7.95766C51.6583 7.89766 51.7567 7.86766 51.87 7.86766H52.925ZM56.3173 11.9427C56.3173 11.7827 56.294 11.6327 56.2473 11.4927C56.204 11.3493 56.1373 11.2243 56.0473 11.1177C55.9573 11.011 55.8423 10.9277 55.7023 10.8677C55.5657 10.8043 55.4057 10.7727 55.2223 10.7727C54.8657 10.7727 54.584 10.8743 54.3773 11.0777C54.174 11.281 54.044 11.5693 53.9873 11.9427H56.3173ZM53.9623 12.6877C53.9823 12.951 54.029 13.1793 54.1023 13.3727C54.1757 13.5627 54.2723 13.721 54.3923 13.8477C54.5123 13.971 54.654 14.0643 54.8173 14.1277C54.984 14.1877 55.1673 14.2177 55.3673 14.2177C55.5673 14.2177 55.739 14.1943 55.8823 14.1477C56.029 14.101 56.1557 14.0493 56.2623 13.9927C56.3723 13.936 56.4673 13.8843 56.5473 13.8377C56.6307 13.791 56.7107 13.7677 56.7873 13.7677C56.8907 13.7677 56.9673 13.806 57.0173 13.8827L57.3723 14.3327C57.2357 14.4927 57.0823 14.6277 56.9123 14.7377C56.7423 14.8443 56.564 14.931 56.3773 14.9977C56.194 15.061 56.0057 15.106 55.8123 15.1327C55.6223 15.1593 55.4373 15.1727 55.2573 15.1727C54.9007 15.1727 54.569 15.1143 54.2623 14.9977C53.9557 14.8777 53.689 14.7027 53.4623 14.4727C53.2357 14.2393 53.0573 13.9527 52.9273 13.6127C52.7973 13.2693 52.7323 12.8727 52.7323 12.4227C52.7323 12.0727 52.789 11.7443 52.9023 11.4377C53.0157 11.1277 53.1773 10.8593 53.3873 10.6327C53.6007 10.4027 53.859 10.221 54.1623 10.0877C54.469 9.95432 54.814 9.88766 55.1973 9.88766C55.5207 9.88766 55.819 9.93932 56.0923 10.0427C56.3657 10.146 56.6007 10.2977 56.7973 10.4977C56.994 10.6943 57.1473 10.9377 57.2573 11.2277C57.3707 11.5143 57.4273 11.8427 57.4273 12.2127C57.4273 12.3993 57.4073 12.526 57.3673 12.5927C57.3273 12.656 57.2507 12.6877 57.1373 12.6877H53.9623ZM59.6341 9.96766V15.0977H58.3941V9.96766H59.6341ZM59.8041 8.47266C59.8041 8.57932 59.7825 8.67932 59.7391 8.77266C59.6958 8.86599 59.6375 8.94766 59.5641 9.01766C59.4941 9.08766 59.4108 9.14432 59.3141 9.18766C59.2175 9.22766 59.1141 9.24766 59.0041 9.24766C58.8975 9.24766 58.7958 9.22766 58.6991 9.18766C58.6058 9.14432 58.5241 9.08766 58.4541 9.01766C58.3841 8.94766 58.3275 8.86599 58.2841 8.77266C58.2441 8.67932 58.2241 8.57932 58.2241 8.47266C58.2241 8.36266 58.2441 8.25932 58.2841 8.16266C58.3275 8.06599 58.3841 7.98266 58.4541 7.91266C58.5241 7.84266 58.6058 7.78766 58.6991 7.74766C58.7958 7.70432 58.8975 7.68266 59.0041 7.68266C59.1141 7.68266 59.2175 7.70432 59.3141 7.74766C59.4108 7.78766 59.4941 7.84266 59.5641 7.91266C59.6375 7.98266 59.6958 8.06599 59.7391 8.16266C59.7825 8.25932 59.8041 8.36266 59.8041 8.47266ZM62.7682 12.4077C62.9215 12.4077 63.0549 12.3877 63.1682 12.3477C63.2815 12.3043 63.3749 12.246 63.4482 12.1727C63.5249 12.0993 63.5815 12.011 63.6182 11.9077C63.6582 11.8043 63.6782 11.691 63.6782 11.5677C63.6782 11.3143 63.6015 11.1143 63.4482 10.9677C63.2982 10.8177 63.0715 10.7427 62.7682 10.7427C62.4649 10.7427 62.2365 10.8177 62.0832 10.9677C61.9332 11.1143 61.8582 11.3143 61.8582 11.5677C61.8582 11.6877 61.8765 11.7993 61.9132 11.9027C61.9532 12.006 62.0099 12.096 62.0832 12.1727C62.1599 12.246 62.2549 12.3043 62.3682 12.3477C62.4849 12.3877 62.6182 12.4077 62.7682 12.4077ZM64.1632 15.3277C64.1632 15.2277 64.1332 15.146 64.0732 15.0827C64.0132 15.0193 63.9315 14.971 63.8282 14.9377C63.7249 14.901 63.6032 14.8743 63.4632 14.8577C63.3265 14.841 63.1799 14.8293 63.0232 14.8227C62.8699 14.8127 62.7099 14.8043 62.5432 14.7977C62.3799 14.791 62.2199 14.7777 62.0632 14.7577C61.9265 14.8343 61.8149 14.9243 61.7282 15.0277C61.6449 15.131 61.6032 15.251 61.6032 15.3877C61.6032 15.4777 61.6249 15.561 61.6682 15.6377C61.7149 15.7177 61.7865 15.786 61.8832 15.8427C61.9832 15.8993 62.1115 15.9427 62.2682 15.9727C62.4249 16.006 62.6165 16.0227 62.8432 16.0227C63.0732 16.0227 63.2715 16.0043 63.4382 15.9677C63.6049 15.9343 63.7415 15.886 63.8482 15.8227C63.9582 15.7627 64.0382 15.6893 64.0882 15.6027C64.1382 15.5193 64.1632 15.4277 64.1632 15.3277ZM65.3932 10.1427V10.6027C65.3932 10.7493 65.3049 10.8393 65.1282 10.8727L64.6682 10.9577C64.7382 11.1343 64.7732 11.3277 64.7732 11.5377C64.7732 11.791 64.7215 12.021 64.6182 12.2277C64.5182 12.431 64.3782 12.6043 64.1982 12.7477C64.0182 12.891 63.8049 13.0027 63.5582 13.0827C63.3149 13.1593 63.0515 13.1977 62.7682 13.1977C62.6682 13.1977 62.5715 13.1927 62.4782 13.1827C62.3849 13.1727 62.2932 13.1593 62.2032 13.1427C62.0432 13.2393 61.9632 13.3477 61.9632 13.4677C61.9632 13.571 62.0099 13.6477 62.1032 13.6977C62.1999 13.7443 62.3265 13.7777 62.4832 13.7977C62.6399 13.8177 62.8182 13.831 63.0182 13.8377C63.2182 13.841 63.4232 13.851 63.6332 13.8677C63.8432 13.8843 64.0482 13.9143 64.2482 13.9577C64.4482 13.9977 64.6265 14.0627 64.7832 14.1527C64.9399 14.2427 65.0649 14.366 65.1582 14.5227C65.2549 14.676 65.3032 14.8743 65.3032 15.1177C65.3032 15.3443 65.2465 15.5643 65.1332 15.7777C65.0232 15.991 64.8615 16.181 64.6482 16.3477C64.4382 16.5143 64.1782 16.6477 63.8682 16.7477C63.5615 16.851 63.2115 16.9027 62.8182 16.9027C62.4315 16.9027 62.0949 16.8643 61.8082 16.7877C61.5215 16.7143 61.2832 16.6143 61.0932 16.4877C60.9032 16.3643 60.7615 16.221 60.6682 16.0577C60.5749 15.8943 60.5282 15.7243 60.5282 15.5477C60.5282 15.3077 60.5999 15.1077 60.7432 14.9477C60.8899 14.7843 61.0899 14.6543 61.3432 14.5577C61.2065 14.4877 61.0982 14.3943 61.0182 14.2777C60.9382 14.161 60.8982 14.0077 60.8982 13.8177C60.8982 13.741 60.9115 13.6627 60.9382 13.5827C60.9682 13.4993 61.0099 13.4177 61.0632 13.3377C61.1199 13.2577 61.1899 13.1827 61.2732 13.1127C61.3565 13.0393 61.4549 12.9743 61.5682 12.9177C61.3082 12.7777 61.1032 12.591 60.9532 12.3577C60.8065 12.1243 60.7332 11.851 60.7332 11.5377C60.7332 11.2843 60.7832 11.056 60.8832 10.8527C60.9865 10.646 61.1282 10.471 61.3082 10.3277C61.4915 10.181 61.7065 10.0693 61.9532 9.99266C62.2032 9.91599 62.4749 9.87766 62.7682 9.87766C62.9882 9.87766 63.1949 9.90099 63.3882 9.94766C63.5815 9.99099 63.7582 10.056 63.9182 10.1427H65.3932ZM67.4114 10.5177C67.6114 10.331 67.8314 10.1793 68.0714 10.0627C68.3114 9.94599 68.5931 9.88766 68.9164 9.88766C69.1964 9.88766 69.4447 9.93599 69.6614 10.0327C69.8781 10.126 70.0581 10.2593 70.2014 10.4327C70.3481 10.6027 70.4581 10.8077 70.5314 11.0477C70.6081 11.2843 70.6464 11.546 70.6464 11.8327V15.0977H69.4114V11.8327C69.4114 11.5193 69.3397 11.2777 69.1964 11.1077C69.0531 10.9343 68.8347 10.8477 68.5414 10.8477C68.3281 10.8477 68.1281 10.896 67.9414 10.9927C67.7547 11.0893 67.5781 11.221 67.4114 11.3877V15.0977H66.1764V7.66766H67.4114V10.5177ZM73.4626 15.1777C73.0159 15.1777 72.6726 15.0527 72.4326 14.8027C72.1959 14.5493 72.0776 14.201 72.0776 13.7577V10.8927H71.5526C71.4859 10.8927 71.4292 10.871 71.3826 10.8277C71.3359 10.7843 71.3126 10.7193 71.3126 10.6327V10.1427L72.1376 10.0077L72.3976 8.60766C72.4142 8.54099 72.4459 8.48932 72.4926 8.45266C72.5392 8.41599 72.5992 8.39766 72.6726 8.39766H73.3126V10.0127H74.6826V10.8927H73.3126V13.6727C73.3126 13.8327 73.3509 13.9577 73.4276 14.0477C73.5076 14.1377 73.6159 14.1827 73.7526 14.1827C73.8292 14.1827 73.8926 14.1743 73.9426 14.1577C73.9959 14.1377 74.0409 14.1177 74.0776 14.0977C74.1176 14.0777 74.1526 14.0593 74.1826 14.0427C74.2126 14.0227 74.2426 14.0127 74.2726 14.0127C74.3092 14.0127 74.3392 14.0227 74.3626 14.0427C74.3859 14.0593 74.4109 14.086 74.4376 14.1227L74.8076 14.7227C74.6276 14.8727 74.4209 14.986 74.1876 15.0627C73.9542 15.1393 73.7126 15.1777 73.4626 15.1777Z" fill="#5D5A5A"/>
<path d="M42.908 27.8181C43.5853 27.2741 44.116 26.8288 44.5 26.4821C44.884 26.1301 45.2067 25.7648 45.468 25.3861C45.7347 25.0021 45.868 24.6261 45.868 24.2581C45.868 23.9114 45.7827 23.6394 45.612 23.4421C45.4467 23.2394 45.1773 23.1381 44.804 23.1381C44.4413 23.1381 44.1587 23.2528 43.956 23.4821C43.7587 23.7061 43.652 24.0074 43.636 24.3861H42.932C42.9533 23.7888 43.1347 23.3274 43.476 23.0021C43.8173 22.6768 44.2573 22.5141 44.796 22.5141C45.3453 22.5141 45.78 22.6661 46.1 22.9701C46.4253 23.2741 46.588 23.6928 46.588 24.2261C46.588 24.6688 46.4547 25.1008 46.188 25.5221C45.9267 25.9381 45.628 26.3061 45.292 26.6261C44.956 26.9408 44.5267 27.3088 44.004 27.7301H46.756V28.3381H42.908V27.8181ZM51.2856 23.2501H48.4776V25.0741C48.6002 24.9034 48.7816 24.7648 49.0216 24.6581C49.2616 24.5461 49.5202 24.4901 49.7976 24.4901C50.2402 24.4901 50.6002 24.5834 50.8776 24.7701C51.1549 24.9514 51.3522 25.1888 51.4696 25.4821C51.5922 25.7701 51.6536 26.0768 51.6536 26.4021C51.6536 26.7861 51.5816 27.1301 51.4376 27.4341C51.2936 27.7381 51.0722 27.9781 50.7736 28.1541C50.4802 28.3301 50.1149 28.4181 49.6776 28.4181C49.1176 28.4181 48.6642 28.2741 48.3176 27.9861C47.9709 27.6981 47.7602 27.3141 47.6856 26.8341H48.3976C48.4669 27.1381 48.6136 27.3754 48.8376 27.5461C49.0616 27.7168 49.3442 27.8021 49.6856 27.8021C50.1069 27.8021 50.4242 27.6768 50.6376 27.4261C50.8509 27.1701 50.9576 26.8341 50.9576 26.4181C50.9576 26.0021 50.8509 25.6821 50.6376 25.4581C50.4242 25.2288 50.1096 25.1141 49.6936 25.1141C49.4109 25.1141 49.1629 25.1834 48.9496 25.3221C48.7416 25.4554 48.5896 25.6394 48.4936 25.8741H47.8056V22.6101H51.2856V23.2501ZM52.973 28.4501C52.8343 28.4501 52.717 28.4021 52.621 28.3061C52.525 28.2101 52.477 28.0928 52.477 27.9541C52.477 27.8154 52.525 27.6981 52.621 27.6021C52.717 27.5061 52.8343 27.4581 52.973 27.4581C53.1063 27.4581 53.2183 27.5061 53.309 27.6021C53.405 27.6981 53.453 27.8154 53.453 27.9541C53.453 28.0928 53.405 28.2101 53.309 28.3061C53.2183 28.4021 53.1063 28.4501 52.973 28.4501ZM57.5247 23.9941C57.4074 23.4021 57.042 23.1061 56.4287 23.1061C55.954 23.1061 55.5994 23.2901 55.3647 23.6581C55.13 24.0208 55.0154 24.6208 55.0207 25.4581C55.1434 25.1808 55.346 24.9648 55.6287 24.8101C55.9167 24.6501 56.2367 24.5701 56.5887 24.5701C57.138 24.5701 57.5754 24.7408 57.9007 25.0821C58.2314 25.4234 58.3967 25.8954 58.3967 26.4981C58.3967 26.8608 58.3247 27.1861 58.1807 27.4741C58.042 27.7621 57.8287 27.9914 57.5407 28.1621C57.258 28.3328 56.914 28.4181 56.5087 28.4181C55.9594 28.4181 55.53 28.2954 55.2207 28.0501C54.9114 27.8048 54.6954 27.4661 54.5727 27.0341C54.45 26.6021 54.3887 26.0688 54.3887 25.4341C54.3887 23.4768 55.0714 22.4981 56.4367 22.4981C56.9594 22.4981 57.37 22.6394 57.6687 22.9221C57.9674 23.2048 58.1434 23.5621 58.1967 23.9941H57.5247ZM56.4367 25.1861C56.2074 25.1861 55.9914 25.2341 55.7887 25.3301C55.586 25.4208 55.4207 25.5621 55.2927 25.7541C55.17 25.9408 55.1087 26.1701 55.1087 26.4421C55.1087 26.8474 55.226 27.1781 55.4607 27.4341C55.6954 27.6848 56.0314 27.8101 56.4687 27.8101C56.842 27.8101 57.138 27.6954 57.3567 27.4661C57.5807 27.2314 57.6927 26.9168 57.6927 26.5221C57.6927 26.1061 57.586 25.7808 57.3727 25.5461C57.1594 25.3061 56.8474 25.1861 56.4367 25.1861ZM59.2028 27.1141V26.5621L62.0108 22.6741H62.8828V26.4821H63.6828V27.1141H62.8828V28.4021H62.1628V27.1141H59.2028ZM62.1948 23.4341L60.0428 26.4821H62.1948V23.4341ZM68.4709 23.9461C68.8495 23.9461 69.1802 24.0288 69.4629 24.1941C69.7509 24.3594 69.9642 24.5674 70.1029 24.8181V24.0181H70.8389V28.4981C70.8389 28.8981 70.7535 29.2528 70.5829 29.5621C70.4122 29.8768 70.1669 30.1221 69.8469 30.2981C69.5322 30.4741 69.1642 30.5621 68.7429 30.5621C68.1669 30.5621 67.6869 30.4261 67.3029 30.1541C66.9189 29.8821 66.6922 29.5114 66.6229 29.0421H67.3429C67.4229 29.3088 67.5882 29.5221 67.8389 29.6821C68.0895 29.8474 68.3909 29.9301 68.7429 29.9301C69.1429 29.9301 69.4682 29.8048 69.7189 29.5541C69.9749 29.3034 70.1029 28.9514 70.1029 28.4981V27.5781C69.9589 27.8341 69.7455 28.0474 69.4629 28.2181C69.1802 28.3888 68.8495 28.4741 68.4709 28.4741C68.0815 28.4741 67.7269 28.3781 67.4069 28.1861C67.0922 27.9941 66.8442 27.7248 66.6629 27.3781C66.4815 27.0314 66.3909 26.6368 66.3909 26.1941C66.3909 25.7461 66.4815 25.3541 66.6629 25.0181C66.8442 24.6768 67.0922 24.4128 67.4069 24.2261C67.7269 24.0394 68.0815 23.9461 68.4709 23.9461ZM70.1029 26.2021C70.1029 25.8714 70.0362 25.5834 69.9029 25.3381C69.7695 25.0928 69.5882 24.9061 69.3589 24.7781C69.1349 24.6448 68.8869 24.5781 68.6149 24.5781C68.3429 24.5781 68.0949 24.6421 67.8709 24.7701C67.6469 24.8981 67.4682 25.0848 67.3349 25.3301C67.2015 25.5754 67.1349 25.8634 67.1349 26.1941C67.1349 26.5301 67.2015 26.8234 67.3349 27.0741C67.4682 27.3194 67.6469 27.5088 67.8709 27.6421C68.0949 27.7701 68.3429 27.8341 68.6149 27.8341C68.8869 27.8341 69.1349 27.7701 69.3589 27.6421C69.5882 27.5088 69.7695 27.3194 69.9029 27.0741C70.0362 26.8234 70.1029 26.5328 70.1029 26.2021Z" fill="#5D5A5A"/>
</svg>
