<svg width="95" height="30" viewBox="0 0 95 30" fill="none" xmlns="http://www.w3.org/2000/svg">
<rect x="1" y="2" width="94" height="25" rx="11.712" fill="#248E51"/>
<rect x="12.4627" y="4.95289" width="78.9811" height="19.2197" rx="9.60987" stroke="white" stroke-width="0.300308"/>
<circle cx="14.7151" cy="14.7151" r="14.7151" fill="#248E51"/>
<circle cx="14.5663" cy="14.5643" r="11.2616" fill="white"/>
<path fill-rule="evenodd" clip-rule="evenodd" d="M8.28809 15.0535L18.8437 20.0975C19.0925 20.2169 19.3164 19.8585 19.1748 19.5672L16.8161 14.7153L19.1748 9.86347C19.316 9.57236 19.0925 9.21452 18.8437 9.33341L8.28809 14.3775C8.16364 14.4407 8.1072 14.5479 8.10742 14.7156C8.10753 14.8832 8.17964 15.0023 8.28809 15.0535Z" fill="#248E51"/>
<path d="M43.491 18L43.491 12.3513L45.7195 12.3513C46.148 12.3513 46.513 12.4331 46.8145 12.5968C47.1161 12.7586 47.3459 12.9838 47.5041 13.2725C47.6641 13.5594 47.744 13.8903 47.744 14.2654C47.744 14.6406 47.6631 14.9715 47.5013 15.2584C47.3395 15.5452 47.1051 15.7686 46.798 15.9286C46.4928 16.0886 46.1232 16.1686 45.6892 16.1686L44.2688 16.1686L44.2688 15.2115L45.4961 15.2115C45.726 15.2115 45.9154 15.172 46.0643 15.0929C46.2151 15.012 46.3273 14.9007 46.4008 14.7592C46.4762 14.6157 46.5139 14.4512 46.5139 14.2654C46.5139 14.0779 46.4762 13.9142 46.4008 13.7745C46.3273 13.6329 46.2151 13.5235 46.0643 13.4463C45.9135 13.3672 45.7223 13.3277 45.4906 13.3277L44.6852 13.3277L44.6852 18L43.491 18ZM48.1094 18L48.1094 13.7635L49.2485 13.7635L49.2485 14.5026L49.2926 14.5026C49.3698 14.2397 49.4995 14.0411 49.6815 13.9069C49.8636 13.7708 50.0732 13.7028 50.3104 13.7028C50.3692 13.7028 50.4327 13.7065 50.5007 13.7138C50.5687 13.7212 50.6285 13.7313 50.68 13.7442L50.68 14.7867C50.6248 14.7702 50.5485 14.7555 50.451 14.7426C50.3536 14.7297 50.2644 14.7233 50.1835 14.7233C50.0107 14.7233 49.8562 14.761 49.7201 14.8364C49.5859 14.9099 49.4792 15.0129 49.4002 15.1453C49.323 15.2777 49.2843 15.4303 49.2843 15.6032L49.2843 18L48.1094 18ZM52.6326 18.0827C52.1968 18.0827 51.8217 17.9945 51.5073 17.818C51.1947 17.6396 50.9538 17.3877 50.7846 17.0622C50.6155 16.7349 50.5309 16.3479 50.5309 15.901C50.5309 15.4652 50.6155 15.0828 50.7846 14.7536C50.9538 14.4245 51.1919 14.168 51.499 13.9841C51.8079 13.8002 52.1702 13.7083 52.5857 13.7083C52.8652 13.7083 53.1254 13.7533 53.3663 13.8434C53.609 13.9317 53.8205 14.065 54.0007 14.2434C54.1827 14.4217 54.3243 14.6461 54.4254 14.9164C54.5266 15.1848 54.5771 15.4993 54.5771 15.8597L54.5771 16.1824L50.9998 16.1824L50.9998 15.4542L53.4711 15.4542C53.4711 15.285 53.4343 15.1352 53.3608 15.0046C53.2872 14.8741 53.1852 14.772 53.0546 14.6985C52.9259 14.6231 52.776 14.5854 52.605 14.5854C52.4267 14.5854 52.2685 14.6268 52.1306 14.7095C51.9946 14.7904 51.8879 14.8998 51.8107 15.0377C51.7334 15.1738 51.6939 15.3255 51.6921 15.4928L51.6921 16.1851C51.6921 16.3947 51.7307 16.5759 51.8079 16.7285C51.887 16.8811 51.9982 16.9988 52.1417 17.0815C52.2851 17.1643 52.4552 17.2056 52.6519 17.2056C52.7825 17.2056 52.902 17.1873 53.0105 17.1505C53.119 17.1137 53.2118 17.0585 53.2891 16.985C53.3663 16.9114 53.4251 16.8213 53.4656 16.7147L54.5523 16.7864C54.4971 17.0475 54.384 17.2755 54.213 17.4704C54.0439 17.6635 53.8251 17.8143 53.5566 17.9228C53.29 18.0294 52.982 18.0827 52.6326 18.0827ZM58.7915 13.7635L57.3103 18L55.9864 18L54.5053 13.7635L55.7464 13.7635L56.6263 16.7947L56.6704 16.7947L57.5475 13.7635L58.7915 13.7635ZM59.0044 18L59.0044 13.7635L60.1794 13.7635L60.1794 18L59.0044 18ZM59.5946 13.2173C59.4199 13.2173 59.2701 13.1594 59.145 13.0436C59.0219 12.9259 58.9603 12.7852 58.9603 12.6216C58.9603 12.4598 59.0219 12.3209 59.145 12.2051C59.2701 12.0874 59.4199 12.0286 59.5946 12.0286C59.7693 12.0286 59.9183 12.0874 60.0415 12.2051C60.1665 12.3209 60.229 12.4598 60.229 12.6216C60.229 12.7852 60.1665 12.9259 60.0415 13.0436C59.9183 13.1594 59.7693 13.2173 59.5946 13.2173ZM62.6464 18.0827C62.218 18.0827 61.8475 17.9917 61.5349 17.8097C61.2241 17.6258 60.9841 17.3702 60.815 17.0429C60.6458 16.7138 60.5612 16.3322 60.5612 15.8983C60.5612 15.4607 60.6458 15.0782 60.815 14.7509C60.9841 14.4217 61.2241 14.1662 61.5349 13.9841C61.8475 13.8002 62.218 13.7083 62.6464 13.7083C63.0748 13.7083 63.4444 13.8002 63.7552 13.9841C64.0678 14.1662 64.3087 14.4217 64.4778 14.7509C64.647 15.0782 64.7316 15.4607 64.7316 15.8983C64.7316 16.3322 64.647 16.7138 64.4778 17.0429C64.3087 17.3702 64.0678 17.6258 63.7552 17.8097C63.4444 17.9917 63.0748 18.0827 62.6464 18.0827ZM62.6519 17.1726C62.8468 17.1726 63.0096 17.1174 63.1401 17.0071C63.2707 16.8949 63.369 16.7423 63.4352 16.5492C63.5033 16.3561 63.5373 16.1364 63.5373 15.89C63.5373 15.6436 63.5033 15.4239 63.4352 15.2308C63.369 15.0377 63.2707 14.8851 63.1401 14.7729C63.0096 14.6608 62.8468 14.6047 62.6519 14.6047C62.4552 14.6047 62.2897 14.6608 62.1554 14.7729C62.0231 14.8851 61.9228 15.0377 61.8548 15.2308C61.7886 15.4239 61.7555 15.6436 61.7555 15.89C61.7555 16.1364 61.7886 16.3561 61.8548 16.5492C61.9228 16.7423 62.0231 16.8949 62.1554 17.0071C62.2897 17.1174 62.4552 17.1726 62.6519 17.1726ZM67.824 16.1962L67.824 13.7635L68.999 13.7635L68.999 18L67.8709 18L67.8709 17.2305L67.8268 17.2305C67.7312 17.4787 67.5721 17.6782 67.3496 17.829C67.129 17.9798 66.8596 18.0552 66.5415 18.0552C66.2583 18.0552 66.0092 17.9908 65.794 17.8621C65.5789 17.7334 65.4106 17.5504 65.2893 17.3132C65.1698 17.076 65.1091 16.7919 65.1072 16.4609L65.1072 13.7635L66.2822 13.7635L66.2822 16.2513C66.2841 16.5014 66.3512 16.6991 66.4836 16.8443C66.6159 16.9896 66.7934 17.0622 67.0159 17.0622C67.1575 17.0622 67.2899 17.03 67.4131 16.9657C67.5363 16.8995 67.6356 16.802 67.7109 16.6733C67.7882 16.5446 67.8259 16.3856 67.824 16.1962ZM73.0754 14.9715L71.9997 15.0377C71.9814 14.9458 71.9418 14.863 71.8811 14.7895C71.8205 14.7141 71.7405 14.6543 71.6412 14.6102C71.5437 14.5642 71.427 14.5413 71.2909 14.5413C71.1089 14.5413 70.9553 14.5799 70.8303 14.6571C70.7052 14.7325 70.6427 14.8336 70.6427 14.9605C70.6427 15.0616 70.6832 15.1471 70.7641 15.217C70.845 15.2869 70.9838 15.343 71.1806 15.3853L71.9473 15.5397C72.3592 15.6243 72.6663 15.7604 72.8686 15.9479C73.0708 16.1355 73.172 16.3819 73.172 16.6871C73.172 16.9648 73.0901 17.2084 72.9265 17.418C72.7647 17.6276 72.5422 17.7913 72.259 17.909C71.9777 18.0248 71.6531 18.0827 71.2854 18.0827C70.7246 18.0827 70.2777 17.966 69.9449 17.7325C69.6139 17.4971 69.4199 17.1771 69.3629 16.7726L70.5186 16.7119C70.5535 16.8829 70.6381 17.0135 70.7724 17.1036C70.9066 17.1919 71.0785 17.236 71.2881 17.236C71.4941 17.236 71.6596 17.1965 71.7846 17.1174C71.9115 17.0365 71.9758 16.9326 71.9777 16.8057C71.9758 16.6991 71.9308 16.6117 71.8425 16.5437C71.7543 16.4738 71.6182 16.4205 71.4343 16.3837L70.7007 16.2375C70.2869 16.1548 69.9789 16.0114 69.7767 15.8073C69.5762 15.6032 69.476 15.343 69.476 15.0267C69.476 14.7546 69.5496 14.5201 69.6967 14.3234C69.8456 14.1266 70.0543 13.9749 70.3228 13.8683C70.5931 13.7616 70.9094 13.7083 71.2716 13.7083C71.8067 13.7083 72.2278 13.8214 72.5348 14.0476C72.8437 14.2737 73.0239 14.5817 73.0754 14.9715Z" fill="white"/>
</svg>
