<svg width="95" height="30" viewBox="0 0 95 30" fill="none" xmlns="http://www.w3.org/2000/svg">
<rect width="94" height="25" rx="11.712" transform="matrix(-1 0 0 1 94 2)" fill="#8D8D8D"/>
<rect x="-0.150154" y="0.150154" width="78.9811" height="19.2197" rx="9.60987" transform="matrix(-1 0 0 1 82.3872 4.80273)" stroke="white" stroke-width="0.300308"/>
<circle cx="14.7151" cy="14.7151" r="14.7151" transform="matrix(-1 0 0 1 95 0)" fill="#8D8D8D"/>
<circle cx="11.2616" cy="11.2616" r="11.2616" transform="matrix(-1 0 0 1 91.6953 3.30273)" fill="white"/>
<path fill-rule="evenodd" clip-rule="evenodd" d="M86.7119 15.0535L76.1563 20.0975C75.9075 20.2169 75.6836 19.8585 75.8252 19.5672L78.1839 14.7153L75.8252 9.86347C75.684 9.57236 75.9075 9.21452 76.1563 9.33341L86.7119 14.3775C86.8364 14.4407 86.8928 14.5479 86.8926 14.7156C86.8925 14.8832 86.8204 15.0023 86.7119 15.0535Z" fill="#8D8D8D"/>
<path d="M34.2157 12.3513L34.2157 18L33.1841 18L30.7266 14.4447L30.6852 14.4447L30.6852 18L29.491 18L29.491 12.3513L30.5391 12.3513L32.9773 15.9038L33.0269 15.9038L33.0269 12.3513L34.2157 12.3513ZM36.7227 18.0827C36.2869 18.0827 35.9118 17.9945 35.5974 17.818C35.2848 17.6396 35.0439 17.3877 34.8748 17.0622C34.7056 16.7349 34.621 16.3479 34.621 15.901C34.621 15.4652 34.7056 15.0828 34.8748 14.7536C35.0439 14.4245 35.282 14.168 35.5891 13.9841C35.898 13.8002 36.2603 13.7083 36.6758 13.7083C36.9553 13.7083 37.2155 13.7533 37.4564 13.8434C37.6991 13.9317 37.9106 14.065 38.0908 14.2434C38.2728 14.4217 38.4144 14.6461 38.5155 14.9164C38.6167 15.1848 38.6672 15.4993 38.6672 15.8597L38.6672 16.1824L35.0899 16.1824L35.0899 15.4542L37.5612 15.4542C37.5612 15.285 37.5244 15.1352 37.4509 15.0046C37.3773 14.8741 37.2753 14.772 37.1447 14.6985C37.016 14.6231 36.8661 14.5854 36.6951 14.5854C36.5168 14.5854 36.3586 14.6268 36.2207 14.7095C36.0847 14.7904 35.978 14.8998 35.9008 15.0377C35.8236 15.1738 35.784 15.3255 35.7822 15.4928L35.7822 16.1851C35.7822 16.3947 35.8208 16.5759 35.898 16.7285C35.9771 16.8811 36.0883 16.9988 36.2318 17.0815C36.3752 17.1643 36.5453 17.2056 36.742 17.2056C36.8726 17.2056 36.9921 17.1873 37.1006 17.1505C37.2091 17.1137 37.3019 17.0585 37.3792 16.985C37.4564 16.9114 37.5152 16.8213 37.5557 16.7147L38.6424 16.7864C38.5872 17.0475 38.4742 17.2755 38.3031 17.4704C38.134 17.6635 37.9152 17.8143 37.6467 17.9228C37.3801 18.0294 37.0721 18.0827 36.7227 18.0827ZM39.9517 13.7635L40.7295 15.2446L41.5266 13.7635L42.7319 13.7635L41.5045 15.8817L42.765 18L41.5652 18L40.7295 16.5354L39.9076 18L38.694 18L39.9517 15.8817L38.7381 13.7635L39.9517 13.7635ZM45.2948 13.7635L45.2948 14.6461L42.7435 14.6461L42.7435 13.7635L45.2948 13.7635ZM43.3227 12.7485L44.4977 12.7485L44.4977 16.6981C44.4977 16.8066 44.5143 16.8912 44.5474 16.9519C44.5805 17.0107 44.6264 17.0521 44.6853 17.076C44.7459 17.0999 44.8158 17.1119 44.8949 17.1119C44.95 17.1119 45.0052 17.1073 45.0604 17.0981C45.1155 17.087 45.1578 17.0788 45.1873 17.0733L45.372 17.9476C45.3132 17.966 45.2305 17.9871 45.1238 18.011C45.0172 18.0368 44.8875 18.0524 44.7349 18.0579C44.4517 18.069 44.2035 18.0313 43.9902 17.9448C43.7787 17.8584 43.6142 17.7242 43.4965 17.5421C43.3788 17.3601 43.3209 17.1303 43.3227 16.8526L43.3227 12.7485Z" fill="white"/>
</svg>
