<svg width="144" height="37" viewBox="0 0 144 37" fill="none" xmlns="http://www.w3.org/2000/svg">
<rect width="36.5" height="36.5" rx="18.25" fill="#CCFBE0"/>
<path d="M16.4163 20.9974V18.2474M20.083 20.9974V18.2474M23.7497 20.9974V18.2474M9.08301 14.5807V10.9141M27.4163 12.7474H9.08301M27.4163 14.5807V10.9141M12.7497 20.9974V18.2474" stroke="black" stroke-opacity="0.7" stroke-width="2.06182" stroke-linecap="round" stroke-linejoin="round"/>
<path d="M25.583 18.248H10.9163C9.90382 18.248 9.08301 19.0689 9.08301 20.0814V23.748C9.08301 24.7606 9.90382 25.5814 10.9163 25.5814H25.583C26.5955 25.5814 27.4163 24.7606 27.4163 23.748V20.0814C27.4163 19.0689 26.5955 18.248 25.583 18.248Z" stroke="black" stroke-opacity="0.7" stroke-width="2.06182" stroke-linecap="round" stroke-linejoin="round"/>
<path d="M49.725 11.4827C49.725 12.0127 49.6367 12.4993 49.46 12.9427C49.2833 13.386 49.035 13.7677 48.715 14.0877C48.395 14.4077 48.01 14.656 47.56 14.8327C47.11 15.0093 46.61 15.0977 46.06 15.0977H43.305V7.86766H46.06C46.61 7.86766 47.11 7.95766 47.56 8.13766C48.01 8.31432 48.395 8.56266 48.715 8.88266C49.035 9.19932 49.2833 9.57932 49.46 10.0227C49.6367 10.466 49.725 10.9527 49.725 11.4827ZM48.345 11.4827C48.345 11.086 48.2917 10.731 48.185 10.4177C48.0817 10.101 47.93 9.83432 47.73 9.61766C47.5333 9.39766 47.2933 9.22932 47.01 9.11266C46.73 8.99599 46.4133 8.93766 46.06 8.93766H44.655V14.0277H46.06C46.4133 14.0277 46.73 13.9693 47.01 13.8527C47.2933 13.736 47.5333 13.5693 47.73 13.3527C47.93 13.1327 48.0817 12.866 48.185 12.5527C48.2917 12.236 48.345 11.8793 48.345 11.4827ZM51.9095 9.96766V15.0977H50.6695V9.96766H51.9095ZM52.0795 8.47266C52.0795 8.57932 52.0579 8.67932 52.0145 8.77266C51.9712 8.86599 51.9129 8.94766 51.8395 9.01766C51.7695 9.08766 51.6862 9.14432 51.5895 9.18766C51.4929 9.22766 51.3895 9.24766 51.2795 9.24766C51.1729 9.24766 51.0712 9.22766 50.9745 9.18766C50.8812 9.14432 50.7995 9.08766 50.7295 9.01766C50.6595 8.94766 50.6029 8.86599 50.5595 8.77266C50.5195 8.67932 50.4995 8.57932 50.4995 8.47266C50.4995 8.36266 50.5195 8.25932 50.5595 8.16266C50.6029 8.06599 50.6595 7.98266 50.7295 7.91266C50.7995 7.84266 50.8812 7.78766 50.9745 7.74766C51.0712 7.70432 51.1729 7.68266 51.2795 7.68266C51.3895 7.68266 51.4929 7.70432 51.5895 7.74766C51.6862 7.78766 51.7695 7.84266 51.8395 7.91266C51.9129 7.98266 51.9712 8.06599 52.0145 8.16266C52.0579 8.25932 52.0795 8.36266 52.0795 8.47266ZM53.1686 15.0977V9.96766H53.9236C54.0836 9.96766 54.1886 10.0427 54.2386 10.1927L54.3186 10.5727C54.4086 10.4727 54.5019 10.381 54.5986 10.2977C54.6986 10.2143 54.8036 10.1427 54.9136 10.0827C55.0269 10.0227 55.1469 9.97599 55.2736 9.94266C55.4036 9.90599 55.5453 9.88766 55.6986 9.88766C56.0219 9.88766 56.2869 9.97599 56.4936 10.1527C56.7036 10.326 56.8603 10.5577 56.9636 10.8477C57.0436 10.6777 57.1436 10.5327 57.2636 10.4127C57.3836 10.2893 57.5153 10.1893 57.6586 10.1127C57.8019 10.036 57.9536 9.97932 58.1136 9.94266C58.2769 9.90599 58.4403 9.88766 58.6036 9.88766C58.8869 9.88766 59.1386 9.93099 59.3586 10.0177C59.5786 10.1043 59.7636 10.231 59.9136 10.3977C60.0636 10.5643 60.1769 10.7677 60.2536 11.0077C60.3336 11.2477 60.3736 11.5227 60.3736 11.8327V15.0977H59.1386V11.8327C59.1386 11.506 59.0669 11.261 58.9236 11.0977C58.7803 10.931 58.5703 10.8477 58.2936 10.8477C58.1669 10.8477 58.0486 10.8693 57.9386 10.9127C57.8319 10.956 57.7369 11.0193 57.6536 11.1027C57.5736 11.1827 57.5103 11.2843 57.4636 11.4077C57.4169 11.531 57.3936 11.6727 57.3936 11.8327V15.0977H56.1536V11.8327C56.1536 11.4893 56.0836 11.2393 55.9436 11.0827C55.8069 10.926 55.6053 10.8477 55.3386 10.8477C55.1586 10.8477 54.9903 10.8927 54.8336 10.9827C54.6803 11.0693 54.5369 11.1893 54.4036 11.3427V15.0977H53.1686ZM64.8525 11.9427C64.8525 11.7827 64.8292 11.6327 64.7825 11.4927C64.7392 11.3493 64.6725 11.2243 64.5825 11.1177C64.4925 11.011 64.3775 10.9277 64.2375 10.8677C64.1008 10.8043 63.9408 10.7727 63.7575 10.7727C63.4008 10.7727 63.1192 10.8743 62.9125 11.0777C62.7092 11.281 62.5792 11.5693 62.5225 11.9427H64.8525ZM62.4975 12.6877C62.5175 12.951 62.5642 13.1793 62.6375 13.3727C62.7108 13.5627 62.8075 13.721 62.9275 13.8477C63.0475 13.971 63.1892 14.0643 63.3525 14.1277C63.5192 14.1877 63.7025 14.2177 63.9025 14.2177C64.1025 14.2177 64.2742 14.1943 64.4175 14.1477C64.5642 14.101 64.6908 14.0493 64.7975 13.9927C64.9075 13.936 65.0025 13.8843 65.0825 13.8377C65.1658 13.791 65.2458 13.7677 65.3225 13.7677C65.4258 13.7677 65.5025 13.806 65.5525 13.8827L65.9075 14.3327C65.7708 14.4927 65.6175 14.6277 65.4475 14.7377C65.2775 14.8443 65.0992 14.931 64.9125 14.9977C64.7292 15.061 64.5408 15.106 64.3475 15.1327C64.1575 15.1593 63.9725 15.1727 63.7925 15.1727C63.4358 15.1727 63.1042 15.1143 62.7975 14.9977C62.4908 14.8777 62.2242 14.7027 61.9975 14.4727C61.7708 14.2393 61.5925 13.9527 61.4625 13.6127C61.3325 13.2693 61.2675 12.8727 61.2675 12.4227C61.2675 12.0727 61.3242 11.7443 61.4375 11.4377C61.5508 11.1277 61.7125 10.8593 61.9225 10.6327C62.1358 10.4027 62.3942 10.221 62.6975 10.0877C63.0042 9.95432 63.3492 9.88766 63.7325 9.88766C64.0558 9.88766 64.3542 9.93932 64.6275 10.0427C64.9008 10.146 65.1358 10.2977 65.3325 10.4977C65.5292 10.6943 65.6825 10.9377 65.7925 11.2277C65.9058 11.5143 65.9625 11.8427 65.9625 12.2127C65.9625 12.3993 65.9425 12.526 65.9025 12.5927C65.8625 12.656 65.7858 12.6877 65.6725 12.6877H62.4975ZM68.0443 10.5977C68.1476 10.4943 68.256 10.3993 68.3693 10.3127C68.486 10.2227 68.6076 10.1477 68.7343 10.0877C68.8643 10.0243 69.0026 9.97599 69.1493 9.94266C69.296 9.90599 69.456 9.88766 69.6293 9.88766C69.9093 9.88766 70.1576 9.93599 70.3743 10.0327C70.591 10.126 70.771 10.2593 70.9143 10.4327C71.061 10.6027 71.171 10.8077 71.2443 11.0477C71.321 11.2843 71.3593 11.546 71.3593 11.8327V15.0977H70.1243V11.8327C70.1243 11.5193 70.0526 11.2777 69.9093 11.1077C69.766 10.9343 69.5476 10.8477 69.2543 10.8477C69.041 10.8477 68.841 10.896 68.6543 10.9927C68.4676 11.0893 68.291 11.221 68.1243 11.3877V15.0977H66.8893V9.96766H67.6443C67.8043 9.96766 67.9093 10.0427 67.9593 10.1927L68.0443 10.5977ZM75.6638 10.9677C75.6305 11.021 75.5955 11.0593 75.5588 11.0827C75.5222 11.1027 75.4755 11.1127 75.4188 11.1127C75.3588 11.1127 75.2938 11.096 75.2238 11.0627C75.1572 11.0293 75.0788 10.9927 74.9888 10.9527C74.8988 10.9093 74.7955 10.871 74.6788 10.8377C74.5655 10.8043 74.4305 10.7877 74.2738 10.7877C74.0305 10.7877 73.8388 10.8393 73.6988 10.9427C73.5622 11.046 73.4938 11.181 73.4938 11.3477C73.4938 11.4577 73.5288 11.551 73.5988 11.6277C73.6722 11.701 73.7672 11.766 73.8838 11.8227C74.0038 11.8793 74.1388 11.931 74.2888 11.9777C74.4388 12.021 74.5905 12.0693 74.7438 12.1227C74.9005 12.176 75.0538 12.2377 75.2038 12.3077C75.3538 12.3743 75.4872 12.461 75.6038 12.5677C75.7238 12.671 75.8188 12.796 75.8888 12.9427C75.9622 13.0893 75.9988 13.266 75.9988 13.4727C75.9988 13.7193 75.9538 13.9477 75.8638 14.1577C75.7772 14.3643 75.6472 14.5443 75.4738 14.6977C75.3005 14.8477 75.0855 14.966 74.8288 15.0527C74.5755 15.136 74.2822 15.1777 73.9488 15.1777C73.7722 15.1777 73.5988 15.161 73.4288 15.1277C73.2622 15.0977 73.1005 15.0543 72.9438 14.9977C72.7905 14.941 72.6472 14.8743 72.5138 14.7977C72.3838 14.721 72.2688 14.6377 72.1688 14.5477L72.4538 14.0777C72.4905 14.021 72.5338 13.9777 72.5838 13.9477C72.6338 13.9177 72.6972 13.9027 72.7738 13.9027C72.8505 13.9027 72.9222 13.9243 72.9888 13.9677C73.0588 14.011 73.1388 14.0577 73.2288 14.1077C73.3188 14.1577 73.4238 14.2043 73.5438 14.2477C73.6672 14.291 73.8222 14.3127 74.0088 14.3127C74.1555 14.3127 74.2805 14.296 74.3838 14.2627C74.4905 14.226 74.5772 14.1793 74.6438 14.1227C74.7138 14.066 74.7638 14.001 74.7938 13.9277C74.8272 13.851 74.8438 13.7727 74.8438 13.6927C74.8438 13.5727 74.8072 13.4743 74.7338 13.3977C74.6638 13.321 74.5688 13.2543 74.4488 13.1977C74.3322 13.141 74.1972 13.091 74.0438 13.0477C73.8938 13.001 73.7388 12.951 73.5788 12.8977C73.4222 12.8443 73.2672 12.7827 73.1138 12.7127C72.9638 12.6393 72.8288 12.5477 72.7088 12.4377C72.5922 12.3277 72.4972 12.1927 72.4238 12.0327C72.3538 11.8727 72.3188 11.6793 72.3188 11.4527C72.3188 11.2427 72.3605 11.0427 72.4438 10.8527C72.5272 10.6627 72.6488 10.4977 72.8088 10.3577C72.9722 10.2143 73.1738 10.101 73.4138 10.0177C73.6572 9.93099 73.9372 9.88766 74.2538 9.88766C74.6072 9.88766 74.9288 9.94599 75.2188 10.0627C75.5088 10.1793 75.7505 10.3327 75.9438 10.5227L75.6638 10.9677ZM78.2084 9.96766V15.0977H76.9684V9.96766H78.2084ZM78.3784 8.47266C78.3784 8.57932 78.3567 8.67932 78.3134 8.77266C78.27 8.86599 78.2117 8.94766 78.1384 9.01766C78.0684 9.08766 77.985 9.14432 77.8884 9.18766C77.7917 9.22766 77.6884 9.24766 77.5784 9.24766C77.4717 9.24766 77.37 9.22766 77.2734 9.18766C77.18 9.14432 77.0984 9.08766 77.0284 9.01766C76.9584 8.94766 76.9017 8.86599 76.8584 8.77266C76.8184 8.67932 76.7984 8.57932 76.7984 8.47266C76.7984 8.36266 76.8184 8.25932 76.8584 8.16266C76.9017 8.06599 76.9584 7.98266 77.0284 7.91266C77.0984 7.84266 77.18 7.78766 77.2734 7.74766C77.37 7.70432 77.4717 7.68266 77.5784 7.68266C77.6884 7.68266 77.7917 7.70432 77.8884 7.74766C77.985 7.78766 78.0684 7.84266 78.1384 7.91266C78.2117 7.98266 78.27 8.06599 78.3134 8.16266C78.3567 8.25932 78.3784 8.36266 78.3784 8.47266ZM81.7374 9.88766C82.1174 9.88766 82.4624 9.94932 82.7724 10.0727C83.0858 10.196 83.3524 10.371 83.5724 10.5977C83.7958 10.8243 83.9674 11.101 84.0874 11.4277C84.2074 11.7543 84.2674 12.1193 84.2674 12.5227C84.2674 12.9293 84.2074 13.296 84.0874 13.6227C83.9674 13.9493 83.7958 14.2277 83.5724 14.4577C83.3524 14.6877 83.0858 14.8643 82.7724 14.9877C82.4624 15.111 82.1174 15.1727 81.7374 15.1727C81.3541 15.1727 81.0058 15.111 80.6924 14.9877C80.3791 14.8643 80.1108 14.6877 79.8874 14.4577C79.6674 14.2277 79.4958 13.9493 79.3724 13.6227C79.2524 13.296 79.1924 12.9293 79.1924 12.5227C79.1924 12.1193 79.2524 11.7543 79.3724 11.4277C79.4958 11.101 79.6674 10.8243 79.8874 10.5977C80.1108 10.371 80.3791 10.196 80.6924 10.0727C81.0058 9.94932 81.3541 9.88766 81.7374 9.88766ZM81.7374 14.2227C82.1641 14.2227 82.4791 14.0793 82.6824 13.7927C82.8891 13.506 82.9924 13.086 82.9924 12.5327C82.9924 11.9793 82.8891 11.5577 82.6824 11.2677C82.4791 10.9777 82.1641 10.8327 81.7374 10.8327C81.3041 10.8327 80.9824 10.9793 80.7724 11.2727C80.5658 11.5627 80.4624 11.9827 80.4624 12.5327C80.4624 13.0827 80.5658 13.5027 80.7724 13.7927C80.9824 14.0793 81.3041 14.2227 81.7374 14.2227ZM86.3646 10.5977C86.4679 10.4943 86.5763 10.3993 86.6896 10.3127C86.8063 10.2227 86.9279 10.1477 87.0546 10.0877C87.1846 10.0243 87.3229 9.97599 87.4696 9.94266C87.6163 9.90599 87.7763 9.88766 87.9496 9.88766C88.2296 9.88766 88.4779 9.93599 88.6946 10.0327C88.9113 10.126 89.0913 10.2593 89.2346 10.4327C89.3813 10.6027 89.4913 10.8077 89.5646 11.0477C89.6413 11.2843 89.6796 11.546 89.6796 11.8327V15.0977H88.4446V11.8327C88.4446 11.5193 88.3729 11.2777 88.2296 11.1077C88.0863 10.9343 87.8679 10.8477 87.5746 10.8477C87.3613 10.8477 87.1613 10.896 86.9746 10.9927C86.7879 11.0893 86.6113 11.221 86.4446 11.3877V15.0977H85.2096V9.96766H85.9646C86.1246 9.96766 86.2296 10.0427 86.2796 10.1927L86.3646 10.5977Z" fill="black"/>
<path d="M42.804 23.2823V22.6183H44.308V28.4023H43.572V23.2823H42.804ZM49.2465 23.2503H46.4385V25.0743C46.5612 24.9037 46.7425 24.765 46.9825 24.6583C47.2225 24.5463 47.4812 24.4903 47.7585 24.4903C48.2012 24.4903 48.5612 24.5837 48.8385 24.7703C49.1158 24.9517 49.3132 25.189 49.4305 25.4823C49.5532 25.7703 49.6145 26.077 49.6145 26.4023C49.6145 26.7863 49.5425 27.1303 49.3985 27.4343C49.2545 27.7383 49.0332 27.9783 48.7345 28.1543C48.4412 28.3303 48.0758 28.4183 47.6385 28.4183C47.0785 28.4183 46.6252 28.2743 46.2785 27.9863C45.9318 27.6983 45.7212 27.3143 45.6465 26.8343H46.3585C46.4278 27.1383 46.5745 27.3757 46.7985 27.5463C47.0225 27.717 47.3052 27.8023 47.6465 27.8023C48.0678 27.8023 48.3852 27.677 48.5985 27.4263C48.8118 27.1703 48.9185 26.8343 48.9185 26.4183C48.9185 26.0023 48.8118 25.6823 48.5985 25.4583C48.3852 25.229 48.0705 25.1143 47.6545 25.1143C47.3718 25.1143 47.1238 25.1837 46.9105 25.3223C46.7025 25.4557 46.5505 25.6397 46.4545 25.8743H45.7665V22.6103H49.2465V23.2503ZM50.4939 27.8183C51.1713 27.2743 51.7019 26.829 52.0859 26.4823C52.4699 26.1303 52.7926 25.765 53.0539 25.3863C53.3206 25.0023 53.4539 24.6263 53.4539 24.2583C53.4539 23.9117 53.3686 23.6397 53.1979 23.4423C53.0326 23.2397 52.7633 23.1383 52.3899 23.1383C52.0273 23.1383 51.7446 23.253 51.5419 23.4823C51.3446 23.7063 51.2379 24.0077 51.2219 24.3863H50.5179C50.5393 23.789 50.7206 23.3277 51.0619 23.0023C51.4033 22.677 51.8433 22.5143 52.3819 22.5143C52.9313 22.5143 53.3659 22.6663 53.6859 22.9703C54.0113 23.2743 54.1739 23.693 54.1739 24.2263C54.1739 24.669 54.0406 25.101 53.7739 25.5223C53.5126 25.9383 53.2139 26.3063 52.8779 26.6263C52.5419 26.941 52.1126 27.309 51.5899 27.7303H54.3419V28.3383H50.4939V27.8183ZM58.0235 20.8663L55.8315 29.7623H55.1115L57.2955 20.8663H58.0235ZM58.7962 23.2823V22.6183H60.3002V28.4023H59.5642V23.2823H58.7962ZM61.4627 27.8183C62.14 27.2743 62.6707 26.829 63.0547 26.4823C63.4387 26.1303 63.7614 25.765 64.0227 25.3863C64.2894 25.0023 64.4227 24.6263 64.4227 24.2583C64.4227 23.9117 64.3374 23.6397 64.1667 23.4423C64.0014 23.2397 63.732 23.1383 63.3587 23.1383C62.996 23.1383 62.7134 23.253 62.5107 23.4823C62.3134 23.7063 62.2067 24.0077 62.1907 24.3863H61.4867C61.508 23.789 61.6894 23.3277 62.0307 23.0023C62.372 22.677 62.812 22.5143 63.3507 22.5143C63.9 22.5143 64.3347 22.6663 64.6547 22.9703C64.98 23.2743 65.1427 23.693 65.1427 24.2263C65.1427 24.669 65.0094 25.101 64.7427 25.5223C64.4814 25.9383 64.1827 26.3063 63.8467 26.6263C63.5107 26.941 63.0814 27.309 62.5587 27.7303H65.3107V28.3383H61.4627V27.8183ZM66.0643 27.8183C66.7416 27.2743 67.2723 26.829 67.6562 26.4823C68.0403 26.1303 68.3629 25.765 68.6243 25.3863C68.8909 25.0023 69.0243 24.6263 69.0243 24.2583C69.0243 23.9117 68.9389 23.6397 68.7683 23.4423C68.6029 23.2397 68.3336 23.1383 67.9603 23.1383C67.5976 23.1383 67.3149 23.253 67.1123 23.4823C66.9149 23.7063 66.8083 24.0077 66.7923 24.3863H66.0883C66.1096 23.789 66.2909 23.3277 66.6323 23.0023C66.9736 22.677 67.4136 22.5143 67.9523 22.5143C68.5016 22.5143 68.9363 22.6663 69.2563 22.9703C69.5816 23.2743 69.7443 23.693 69.7443 24.2263C69.7443 24.669 69.6109 25.101 69.3443 25.5223C69.0829 25.9383 68.7843 26.3063 68.4483 26.6263C68.1123 26.941 67.6829 27.309 67.1603 27.7303H69.9123V28.3383H66.0643V27.8183ZM76.2386 27.2023L74.9666 25.9303L73.6946 27.2023L73.2146 26.7223L74.4866 25.4503L73.2386 24.2023L73.7026 23.7303L74.9586 24.9863L76.2146 23.7303L76.6946 24.2103L75.4386 25.4663L76.7026 26.7383L76.2386 27.2023ZM79.9681 23.2823V22.6183H81.4721V28.4023H80.7361V23.2823H79.9681ZM82.7066 24.0743C82.7439 23.5837 82.9332 23.1997 83.2746 22.9223C83.6159 22.645 84.0586 22.5063 84.6026 22.5063C84.9652 22.5063 85.2772 22.573 85.5386 22.7063C85.8052 22.8343 86.0052 23.0103 86.1386 23.2343C86.2772 23.4583 86.3466 23.7117 86.3466 23.9943C86.3466 24.325 86.2506 24.6103 86.0586 24.8503C85.8719 25.0903 85.6266 25.245 85.3226 25.3143V25.3543C85.6692 25.4397 85.9439 25.6077 86.1466 25.8583C86.3492 26.109 86.4506 26.437 86.4506 26.8423C86.4506 27.1463 86.3812 27.421 86.2426 27.6663C86.1039 27.9063 85.8959 28.0957 85.6186 28.2343C85.3412 28.373 85.0079 28.4423 84.6186 28.4423C84.0532 28.4423 83.5892 28.2957 83.2266 28.0023C82.8639 27.7037 82.6612 27.2823 82.6186 26.7383H83.3226C83.3599 27.0583 83.4906 27.3197 83.7146 27.5223C83.9386 27.725 84.2372 27.8263 84.6106 27.8263C84.9839 27.8263 85.2666 27.7303 85.4586 27.5383C85.6559 27.341 85.7546 27.0877 85.7546 26.7783C85.7546 26.3783 85.6212 26.0903 85.3546 25.9143C85.0879 25.7383 84.6852 25.6503 84.1466 25.6503H83.9626V25.0423H84.1546C84.6452 25.037 85.0159 24.957 85.2666 24.8023C85.5172 24.6423 85.6426 24.397 85.6426 24.0663C85.6426 23.7837 85.5492 23.557 85.3626 23.3863C85.1812 23.2157 84.9199 23.1303 84.5786 23.1303C84.2479 23.1303 83.9812 23.2157 83.7786 23.3863C83.5759 23.557 83.4559 23.7863 83.4186 24.0743H82.7066ZM87.3455 27.8183C88.0228 27.2743 88.5535 26.829 88.9375 26.4823C89.3215 26.1303 89.6442 25.765 89.9055 25.3863C90.1722 25.0023 90.3055 24.6263 90.3055 24.2583C90.3055 23.9117 90.2202 23.6397 90.0495 23.4423C89.8842 23.2397 89.6148 23.1383 89.2415 23.1383C88.8788 23.1383 88.5962 23.253 88.3935 23.4823C88.1962 23.7063 88.0895 24.0077 88.0735 24.3863H87.3695C87.3908 23.789 87.5722 23.3277 87.9135 23.0023C88.2548 22.677 88.6948 22.5143 89.2335 22.5143C89.7828 22.5143 90.2175 22.6663 90.5375 22.9703C90.8628 23.2743 91.0255 23.693 91.0255 24.2263C91.0255 24.669 90.8922 25.101 90.6255 25.5223C90.3642 25.9383 90.0655 26.3063 89.7295 26.6263C89.3935 26.941 88.9642 27.309 88.4415 27.7303H91.1935V28.3383H87.3455V27.8183ZM94.8751 20.8663L92.6831 29.7623H91.9631L94.1471 20.8663H94.8751ZM95.6478 23.2823V22.6183H97.1518V28.4023H96.4158V23.2823H95.6478ZM98.4023 25.4503C98.4023 24.533 98.5516 23.8183 98.8503 23.3063C99.1489 22.789 99.6716 22.5303 100.418 22.5303C101.16 22.5303 101.68 22.789 101.978 23.3063C102.277 23.8183 102.426 24.533 102.426 25.4503C102.426 26.3837 102.277 27.109 101.978 27.6263C101.68 28.1437 101.16 28.4023 100.418 28.4023C99.6716 28.4023 99.1489 28.1437 98.8503 27.6263C98.5516 27.109 98.4023 26.3837 98.4023 25.4503ZM101.706 25.4503C101.706 24.9863 101.674 24.5943 101.61 24.2743C101.552 23.949 101.426 23.6877 101.234 23.4903C101.048 23.293 100.776 23.1943 100.418 23.1943C100.056 23.1943 99.7783 23.293 99.5863 23.4903C99.3996 23.6877 99.2743 23.949 99.2103 24.2743C99.1516 24.5943 99.1223 24.9863 99.1223 25.4503C99.1223 25.9303 99.1516 26.333 99.2103 26.6583C99.2743 26.9837 99.3996 27.245 99.5863 27.4423C99.7783 27.6397 100.056 27.7383 100.418 27.7383C100.776 27.7383 101.048 27.6397 101.234 27.4423C101.426 27.245 101.552 26.9837 101.61 26.6583C101.674 26.333 101.706 25.9303 101.706 25.4503ZM103.338 27.8183C104.015 27.2743 104.546 26.829 104.93 26.4823C105.314 26.1303 105.636 25.765 105.898 25.3863C106.164 25.0023 106.298 24.6263 106.298 24.2583C106.298 23.9117 106.212 23.6397 106.042 23.4423C105.876 23.2397 105.607 23.1383 105.234 23.1383C104.871 23.1383 104.588 23.253 104.386 23.4823C104.188 23.7063 104.082 24.0077 104.066 24.3863H103.362C103.383 23.789 103.564 23.3277 103.906 23.0023C104.247 22.677 104.687 22.5143 105.226 22.5143C105.775 22.5143 106.21 22.6663 106.53 22.9703C106.855 23.2743 107.018 23.693 107.018 24.2263C107.018 24.669 106.884 25.101 106.618 25.5223C106.356 25.9383 106.058 26.3063 105.722 26.6263C105.386 26.941 104.956 27.309 104.434 27.7303H107.186V28.3383H103.338V27.8183ZM113.512 27.2023L112.24 25.9303L110.968 27.2023L110.488 26.7223L111.76 25.4503L110.512 24.2023L110.976 23.7303L112.232 24.9863L113.488 23.7303L113.968 24.2103L112.712 25.4663L113.976 26.7383L113.512 27.2023ZM117.258 27.1143V26.5623L120.066 22.6743H120.938V26.4823H121.738V27.1143H120.938V28.4023H120.218V27.1143H117.258ZM120.25 23.4343L118.098 26.4823H120.25V23.4343ZM126.153 23.2503H123.345V25.0743C123.467 24.9037 123.649 24.765 123.889 24.6583C124.129 24.5463 124.387 24.4903 124.665 24.4903C125.107 24.4903 125.467 24.5837 125.745 24.7703C126.022 24.9517 126.219 25.189 126.337 25.4823C126.459 25.7703 126.521 26.077 126.521 26.4023C126.521 26.7863 126.449 27.1303 126.305 27.4343C126.161 27.7383 125.939 27.9783 125.641 28.1543C125.347 28.3303 124.982 28.4183 124.545 28.4183C123.985 28.4183 123.531 28.2743 123.185 27.9863C122.838 27.6983 122.627 27.3143 122.553 26.8343H123.265C123.334 27.1383 123.481 27.3757 123.705 27.5463C123.929 27.717 124.211 27.8023 124.553 27.8023C124.974 27.8023 125.291 27.677 125.505 27.4263C125.718 27.1703 125.825 26.8343 125.825 26.4183C125.825 26.0023 125.718 25.6823 125.505 25.4583C125.291 25.229 124.977 25.1143 124.561 25.1143C124.278 25.1143 124.03 25.1837 123.817 25.3223C123.609 25.4557 123.457 25.6397 123.361 25.8743H122.673V22.6103H126.153V23.2503ZM132.88 23.9383C133.222 23.9383 133.526 24.0103 133.792 24.1543C134.059 24.293 134.27 24.5037 134.424 24.7863C134.579 25.069 134.656 25.413 134.656 25.8183V28.4023H133.936V25.9223C133.936 25.485 133.827 25.1517 133.608 24.9223C133.395 24.6877 133.104 24.5703 132.736 24.5703C132.358 24.5703 132.056 24.693 131.832 24.9383C131.608 25.1783 131.496 25.5277 131.496 25.9863V28.4023H130.776V25.9223C130.776 25.485 130.667 25.1517 130.448 24.9223C130.235 24.6877 129.944 24.5703 129.576 24.5703C129.198 24.5703 128.896 24.693 128.672 24.9383C128.448 25.1783 128.336 25.5277 128.336 25.9863V28.4023H127.608V24.0183H128.336V24.6503C128.48 24.421 128.672 24.245 128.912 24.1223C129.158 23.9997 129.427 23.9383 129.72 23.9383C130.088 23.9383 130.414 24.021 130.696 24.1863C130.979 24.3517 131.19 24.5943 131.328 24.9143C131.451 24.605 131.654 24.365 131.936 24.1943C132.219 24.0237 132.534 23.9383 132.88 23.9383ZM141.122 23.9383C141.464 23.9383 141.768 24.0103 142.034 24.1543C142.301 24.293 142.512 24.5037 142.666 24.7863C142.821 25.069 142.898 25.413 142.898 25.8183V28.4023H142.178V25.9223C142.178 25.485 142.069 25.1517 141.85 24.9223C141.637 24.6877 141.346 24.5703 140.978 24.5703C140.6 24.5703 140.298 24.693 140.074 24.9383C139.85 25.1783 139.738 25.5277 139.738 25.9863V28.4023H139.018V25.9223C139.018 25.485 138.909 25.1517 138.69 24.9223C138.477 24.6877 138.186 24.5703 137.818 24.5703C137.44 24.5703 137.138 24.693 136.914 24.9383C136.69 25.1783 136.578 25.5277 136.578 25.9863V28.4023H135.85V24.0183H136.578V24.6503C136.722 24.421 136.914 24.245 137.154 24.1223C137.4 23.9997 137.669 23.9383 137.962 23.9383C138.33 23.9383 138.656 24.021 138.938 24.1863C139.221 24.3517 139.432 24.5943 139.57 24.9143C139.693 24.605 139.896 24.365 140.178 24.1943C140.461 24.0237 140.776 23.9383 141.122 23.9383Z" fill="black" fill-opacity="0.59"/>
</svg>
