<svg width="143" height="37" viewBox="0 0 143 37" fill="none" xmlns="http://www.w3.org/2000/svg">
<rect width="36.5" height="36.5" rx="18.25" fill="#CCFBE0"/>
<g clip-path="url(#clip0_1467_742)">
<path d="M27.036 20.375L24.2235 15.0625H24.9998C25.1489 15.0625 25.292 15.0065 25.3975 14.9069C25.503 14.8073 25.5623 14.6721 25.5623 14.5313C25.5623 14.3904 25.503 14.2552 25.3975 14.1556C25.292 14.056 25.1489 14 24.9998 14H24.111C23.5067 13.3783 22.7785 12.8754 21.9681 12.5198C21.1577 12.1643 20.281 11.9632 19.3883 11.9281L19.3748 11.875C19.3748 11.5932 19.2562 11.323 19.0453 11.1237C18.8343 10.9244 18.5481 10.8125 18.2498 10.8125C17.9514 10.8125 17.6652 10.9244 17.4543 11.1237C17.2433 11.323 17.1248 11.5932 17.1248 11.875V11.9281C15.3066 11.9995 13.5908 12.7424 12.3469 13.9968L11.4998 14C11.3506 14 11.2075 14.056 11.102 14.1556C10.9965 14.2552 10.9373 14.3904 10.9373 14.5313C10.9373 14.6721 10.9965 14.8073 11.102 14.9069C11.2075 15.0065 11.3506 15.0625 11.4998 15.0625H12.276L9.46351 20.375H9.24976C9.24976 21.5438 10.7573 22.5 12.6248 22.5C14.4923 22.5 15.9998 21.5438 15.9998 20.375H15.786L12.9173 14.9669C12.9884 14.9275 13.0494 14.8738 13.0961 14.8096C13.5937 14.2575 14.2092 13.8109 14.9023 13.4992C15.5954 13.1876 16.3505 13.0179 17.118 13.0013L17.1248 24.625H15.9998V25.6875H13.7498V26.75H22.7498V25.6875H20.4998V24.625H19.3748V13.0013C20.1336 13.0148 20.8804 13.1825 21.5644 13.4929C22.2485 13.8033 22.8538 14.2491 23.3393 14.8001C23.3912 14.8834 23.4663 14.9517 23.5564 14.9977L20.7135 20.375H20.4998C20.4998 21.5438 22.0073 22.5 23.8748 22.5C25.7423 22.5 27.2498 21.5438 27.2498 20.375H27.036ZM14.8748 20.375H10.3748L12.6248 16.1888L14.8748 20.375ZM21.6248 20.375L23.8748 16.1888L26.1248 20.375H21.6248Z" fill="black" fill-opacity="0.7"/>
</g>
<path d="M49.265 11.4727V14.3977C48.8983 14.6677 48.5067 14.866 48.09 14.9927C47.6767 15.116 47.2333 15.1777 46.76 15.1777C46.17 15.1777 45.635 15.086 45.155 14.9027C44.6783 14.7193 44.27 14.4643 43.93 14.1377C43.5933 13.811 43.3333 13.421 43.15 12.9677C42.9667 12.5143 42.875 12.0193 42.875 11.4827C42.875 10.9393 42.9633 10.441 43.14 9.98766C43.3167 9.53432 43.5667 9.14432 43.89 8.81766C44.2167 8.49099 44.6117 8.23766 45.075 8.05766C45.5383 7.87766 46.0583 7.78766 46.635 7.78766C46.9283 7.78766 47.2017 7.81099 47.455 7.85766C47.7117 7.90432 47.9483 7.96932 48.165 8.05266C48.385 8.13266 48.585 8.23099 48.765 8.34766C48.945 8.46432 49.11 8.59266 49.26 8.73266L48.875 9.34266C48.815 9.43932 48.7367 9.49932 48.64 9.52266C48.5433 9.54266 48.4383 9.51766 48.325 9.44766C48.215 9.38432 48.105 9.32099 47.995 9.25766C47.885 9.19432 47.7617 9.13932 47.625 9.09266C47.4917 9.04599 47.34 9.00766 47.17 8.97766C47.0033 8.94766 46.81 8.93266 46.59 8.93266C46.2333 8.93266 45.91 8.99266 45.62 9.11266C45.3333 9.23266 45.0883 9.40432 44.885 9.62766C44.6817 9.85099 44.525 10.1193 44.415 10.4327C44.305 10.746 44.25 11.096 44.25 11.4827C44.25 11.896 44.3083 12.266 44.425 12.5927C44.545 12.916 44.7117 13.191 44.925 13.4177C45.1417 13.641 45.4017 13.8127 45.705 13.9327C46.0083 14.0493 46.3467 14.1077 46.72 14.1077C46.9867 14.1077 47.225 14.0793 47.435 14.0227C47.645 13.966 47.85 13.8893 48.05 13.7927V12.4827H47.14C47.0533 12.4827 46.985 12.4593 46.935 12.4127C46.8883 12.3627 46.865 12.3027 46.865 12.2327V11.4727H49.265ZM51.4527 10.8577C51.6127 10.551 51.8027 10.311 52.0227 10.1377C52.2427 9.96099 52.5027 9.87266 52.8027 9.87266C53.0394 9.87266 53.2294 9.92432 53.3727 10.0277L53.2927 10.9527C53.2761 11.0127 53.2511 11.056 53.2177 11.0827C53.1877 11.106 53.1461 11.1177 53.0927 11.1177C53.0427 11.1177 52.9677 11.1093 52.8677 11.0927C52.7711 11.076 52.6761 11.0677 52.5827 11.0677C52.4461 11.0677 52.3244 11.0877 52.2177 11.1277C52.1111 11.1677 52.0144 11.226 51.9277 11.3027C51.8444 11.376 51.7694 11.466 51.7027 11.5727C51.6394 11.6793 51.5794 11.801 51.5227 11.9377V15.0977H50.2877V9.96766H51.0127C51.1394 9.96766 51.2277 9.99099 51.2777 10.0377C51.3277 10.081 51.3611 10.161 51.3777 10.2777L51.4527 10.8577ZM56.1417 9.88766C56.5217 9.88766 56.8667 9.94932 57.1767 10.0727C57.4901 10.196 57.7567 10.371 57.9767 10.5977C58.2001 10.8243 58.3717 11.101 58.4917 11.4277C58.6117 11.7543 58.6717 12.1193 58.6717 12.5227C58.6717 12.9293 58.6117 13.296 58.4917 13.6227C58.3717 13.9493 58.2001 14.2277 57.9767 14.4577C57.7567 14.6877 57.4901 14.8643 57.1767 14.9877C56.8667 15.111 56.5217 15.1727 56.1417 15.1727C55.7584 15.1727 55.4101 15.111 55.0967 14.9877C54.7834 14.8643 54.5151 14.6877 54.2917 14.4577C54.0717 14.2277 53.9001 13.9493 53.7767 13.6227C53.6567 13.296 53.5967 12.9293 53.5967 12.5227C53.5967 12.1193 53.6567 11.7543 53.7767 11.4277C53.9001 11.101 54.0717 10.8243 54.2917 10.5977C54.5151 10.371 54.7834 10.196 55.0967 10.0727C55.4101 9.94932 55.7584 9.88766 56.1417 9.88766ZM56.1417 14.2227C56.5684 14.2227 56.8834 14.0793 57.0867 13.7927C57.2934 13.506 57.3967 13.086 57.3967 12.5327C57.3967 11.9793 57.2934 11.5577 57.0867 11.2677C56.8834 10.9777 56.5684 10.8327 56.1417 10.8327C55.7084 10.8327 55.3867 10.9793 55.1767 11.2727C54.9701 11.5627 54.8667 11.9827 54.8667 12.5327C54.8667 13.0827 54.9701 13.5027 55.1767 13.7927C55.3867 14.0793 55.7084 14.2227 56.1417 14.2227ZM62.7439 10.9677C62.7106 11.021 62.6756 11.0593 62.6389 11.0827C62.6022 11.1027 62.5556 11.1127 62.4989 11.1127C62.4389 11.1127 62.3739 11.096 62.3039 11.0627C62.2372 11.0293 62.1589 10.9927 62.0689 10.9527C61.9789 10.9093 61.8756 10.871 61.7589 10.8377C61.6456 10.8043 61.5106 10.7877 61.3539 10.7877C61.1106 10.7877 60.9189 10.8393 60.7789 10.9427C60.6422 11.046 60.5739 11.181 60.5739 11.3477C60.5739 11.4577 60.6089 11.551 60.6789 11.6277C60.7522 11.701 60.8472 11.766 60.9639 11.8227C61.0839 11.8793 61.2189 11.931 61.3689 11.9777C61.5189 12.021 61.6706 12.0693 61.8239 12.1227C61.9806 12.176 62.1339 12.2377 62.2839 12.3077C62.4339 12.3743 62.5672 12.461 62.6839 12.5677C62.8039 12.671 62.8989 12.796 62.9689 12.9427C63.0422 13.0893 63.0789 13.266 63.0789 13.4727C63.0789 13.7193 63.0339 13.9477 62.9439 14.1577C62.8572 14.3643 62.7272 14.5443 62.5539 14.6977C62.3806 14.8477 62.1656 14.966 61.9089 15.0527C61.6556 15.136 61.3622 15.1777 61.0289 15.1777C60.8522 15.1777 60.6789 15.161 60.5089 15.1277C60.3422 15.0977 60.1806 15.0543 60.0239 14.9977C59.8706 14.941 59.7272 14.8743 59.5939 14.7977C59.4639 14.721 59.3489 14.6377 59.2489 14.5477L59.5339 14.0777C59.5706 14.021 59.6139 13.9777 59.6639 13.9477C59.7139 13.9177 59.7772 13.9027 59.8539 13.9027C59.9306 13.9027 60.0022 13.9243 60.0689 13.9677C60.1389 14.011 60.2189 14.0577 60.3089 14.1077C60.3989 14.1577 60.5039 14.2043 60.6239 14.2477C60.7472 14.291 60.9022 14.3127 61.0889 14.3127C61.2356 14.3127 61.3606 14.296 61.4639 14.2627C61.5706 14.226 61.6572 14.1793 61.7239 14.1227C61.7939 14.066 61.8439 14.001 61.8739 13.9277C61.9072 13.851 61.9239 13.7727 61.9239 13.6927C61.9239 13.5727 61.8872 13.4743 61.8139 13.3977C61.7439 13.321 61.6489 13.2543 61.5289 13.1977C61.4122 13.141 61.2772 13.091 61.1239 13.0477C60.9739 13.001 60.8189 12.951 60.6589 12.8977C60.5022 12.8443 60.3472 12.7827 60.1939 12.7127C60.0439 12.6393 59.9089 12.5477 59.7889 12.4377C59.6722 12.3277 59.5772 12.1927 59.5039 12.0327C59.4339 11.8727 59.3989 11.6793 59.3989 11.4527C59.3989 11.2427 59.4406 11.0427 59.5239 10.8527C59.6072 10.6627 59.7289 10.4977 59.8889 10.3577C60.0522 10.2143 60.2539 10.101 60.4939 10.0177C60.7372 9.93099 61.0172 9.88766 61.3339 9.88766C61.6872 9.88766 62.0089 9.94599 62.2989 10.0627C62.5889 10.1793 62.8306 10.3327 63.0239 10.5227L62.7439 10.9677ZM67.1384 10.9677C67.1051 11.021 67.0701 11.0593 67.0334 11.0827C66.9968 11.1027 66.9501 11.1127 66.8934 11.1127C66.8334 11.1127 66.7684 11.096 66.6984 11.0627C66.6318 11.0293 66.5534 10.9927 66.4634 10.9527C66.3734 10.9093 66.2701 10.871 66.1534 10.8377C66.0401 10.8043 65.9051 10.7877 65.7484 10.7877C65.5051 10.7877 65.3134 10.8393 65.1734 10.9427C65.0368 11.046 64.9684 11.181 64.9684 11.3477C64.9684 11.4577 65.0034 11.551 65.0734 11.6277C65.1468 11.701 65.2418 11.766 65.3584 11.8227C65.4784 11.8793 65.6134 11.931 65.7634 11.9777C65.9134 12.021 66.0651 12.0693 66.2184 12.1227C66.3751 12.176 66.5284 12.2377 66.6784 12.3077C66.8284 12.3743 66.9618 12.461 67.0784 12.5677C67.1984 12.671 67.2934 12.796 67.3634 12.9427C67.4368 13.0893 67.4734 13.266 67.4734 13.4727C67.4734 13.7193 67.4284 13.9477 67.3384 14.1577C67.2518 14.3643 67.1218 14.5443 66.9484 14.6977C66.7751 14.8477 66.5601 14.966 66.3034 15.0527C66.0501 15.136 65.7568 15.1777 65.4234 15.1777C65.2468 15.1777 65.0734 15.161 64.9034 15.1277C64.7368 15.0977 64.5751 15.0543 64.4184 14.9977C64.2651 14.941 64.1218 14.8743 63.9884 14.7977C63.8584 14.721 63.7434 14.6377 63.6434 14.5477L63.9284 14.0777C63.9651 14.021 64.0084 13.9777 64.0584 13.9477C64.1084 13.9177 64.1718 13.9027 64.2484 13.9027C64.3251 13.9027 64.3968 13.9243 64.4634 13.9677C64.5334 14.011 64.6134 14.0577 64.7034 14.1077C64.7934 14.1577 64.8984 14.2043 65.0184 14.2477C65.1418 14.291 65.2968 14.3127 65.4834 14.3127C65.6301 14.3127 65.7551 14.296 65.8584 14.2627C65.9651 14.226 66.0518 14.1793 66.1184 14.1227C66.1884 14.066 66.2384 14.001 66.2684 13.9277C66.3018 13.851 66.3184 13.7727 66.3184 13.6927C66.3184 13.5727 66.2818 13.4743 66.2084 13.3977C66.1384 13.321 66.0434 13.2543 65.9234 13.1977C65.8068 13.141 65.6718 13.091 65.5184 13.0477C65.3684 13.001 65.2134 12.951 65.0534 12.8977C64.8968 12.8443 64.7418 12.7827 64.5884 12.7127C64.4384 12.6393 64.3034 12.5477 64.1834 12.4377C64.0668 12.3277 63.9718 12.1927 63.8984 12.0327C63.8284 11.8727 63.7934 11.6793 63.7934 11.4527C63.7934 11.2427 63.8351 11.0427 63.9184 10.8527C64.0018 10.6627 64.1234 10.4977 64.2834 10.3577C64.4468 10.2143 64.6484 10.101 64.8884 10.0177C65.1318 9.93099 65.4118 9.88766 65.7284 9.88766C66.0818 9.88766 66.4034 9.94599 66.6934 10.0627C66.9834 10.1793 67.2251 10.3327 67.4184 10.5227L67.1384 10.9677ZM80.5813 7.86766L78.3363 15.0977H77.1213L75.5413 10.1577C75.4979 10.0377 75.4579 9.89099 75.4213 9.71766C75.4013 9.80099 75.3813 9.87932 75.3613 9.95266C75.3413 10.026 75.3196 10.0943 75.2962 10.1577L73.7013 15.0977H72.4813L70.2413 7.86766H71.3663C71.4829 7.86766 71.5796 7.89599 71.6563 7.95266C71.7363 8.00599 71.7896 8.07932 71.8163 8.17266L73.0463 12.4977C73.0729 12.6043 73.0979 12.721 73.1213 12.8477C73.1479 12.971 73.1746 13.101 73.2013 13.2377C73.2279 13.0977 73.2563 12.966 73.2863 12.8427C73.3196 12.7193 73.3546 12.6043 73.3913 12.4977L74.8113 8.17266C74.8379 8.09599 74.8896 8.02599 74.9663 7.96266C75.0463 7.89932 75.1429 7.86766 75.2563 7.86766H75.6513C75.7679 7.86766 75.8629 7.89599 75.9363 7.95266C76.0096 8.00932 76.0646 8.08266 76.1013 8.17266L77.5163 12.4977C77.5863 12.7043 77.6496 12.9427 77.7063 13.2127C77.7496 12.9493 77.7979 12.711 77.8513 12.4977L79.0813 8.17266C79.1013 8.08932 79.1513 8.01766 79.2313 7.95766C79.3146 7.89766 79.4129 7.86766 79.5263 7.86766H80.5813ZM83.9736 11.9427C83.9736 11.7827 83.9503 11.6327 83.9036 11.4927C83.8603 11.3493 83.7936 11.2243 83.7036 11.1177C83.6136 11.011 83.4986 10.9277 83.3586 10.8677C83.2219 10.8043 83.0619 10.7727 82.8786 10.7727C82.5219 10.7727 82.2403 10.8743 82.0336 11.0777C81.8303 11.281 81.7003 11.5693 81.6436 11.9427H83.9736ZM81.6186 12.6877C81.6386 12.951 81.6853 13.1793 81.7586 13.3727C81.8319 13.5627 81.9286 13.721 82.0486 13.8477C82.1686 13.971 82.3103 14.0643 82.4736 14.1277C82.6403 14.1877 82.8236 14.2177 83.0236 14.2177C83.2236 14.2177 83.3953 14.1943 83.5386 14.1477C83.6853 14.101 83.8119 14.0493 83.9186 13.9927C84.0286 13.936 84.1236 13.8843 84.2036 13.8377C84.2869 13.791 84.3669 13.7677 84.4436 13.7677C84.5469 13.7677 84.6236 13.806 84.6736 13.8827L85.0286 14.3327C84.8919 14.4927 84.7386 14.6277 84.5686 14.7377C84.3986 14.8443 84.2203 14.931 84.0336 14.9977C83.8503 15.061 83.6619 15.106 83.4686 15.1327C83.2786 15.1593 83.0936 15.1727 82.9136 15.1727C82.5569 15.1727 82.2253 15.1143 81.9186 14.9977C81.6119 14.8777 81.3453 14.7027 81.1186 14.4727C80.8919 14.2393 80.7136 13.9527 80.5836 13.6127C80.4536 13.2693 80.3886 12.8727 80.3886 12.4227C80.3886 12.0727 80.4453 11.7443 80.5586 11.4377C80.6719 11.1277 80.8336 10.8593 81.0436 10.6327C81.2569 10.4027 81.5153 10.221 81.8186 10.0877C82.1253 9.95432 82.4703 9.88766 82.8536 9.88766C83.1769 9.88766 83.4753 9.93932 83.7486 10.0427C84.0219 10.146 84.2569 10.2977 84.4536 10.4977C84.6503 10.6943 84.8036 10.9377 84.9136 11.2277C85.0269 11.5143 85.0836 11.8427 85.0836 12.2127C85.0836 12.3993 85.0636 12.526 85.0236 12.5927C84.9836 12.656 84.9069 12.6877 84.7936 12.6877H81.6186ZM87.2904 9.96766V15.0977H86.0504V9.96766H87.2904ZM87.4604 8.47266C87.4604 8.57932 87.4387 8.67932 87.3954 8.77266C87.3521 8.86599 87.2937 8.94766 87.2204 9.01766C87.1504 9.08766 87.0671 9.14432 86.9704 9.18766C86.8737 9.22766 86.7704 9.24766 86.6604 9.24766C86.5537 9.24766 86.4521 9.22766 86.3554 9.18766C86.2621 9.14432 86.1804 9.08766 86.1104 9.01766C86.0404 8.94766 85.9837 8.86599 85.9404 8.77266C85.9004 8.67932 85.8804 8.57932 85.8804 8.47266C85.8804 8.36266 85.9004 8.25932 85.9404 8.16266C85.9837 8.06599 86.0404 7.98266 86.1104 7.91266C86.1804 7.84266 86.2621 7.78766 86.3554 7.74766C86.4521 7.70432 86.5537 7.68266 86.6604 7.68266C86.7704 7.68266 86.8737 7.70432 86.9704 7.74766C87.0671 7.78766 87.1504 7.84266 87.2204 7.91266C87.2937 7.98266 87.3521 8.06599 87.3954 8.16266C87.4387 8.25932 87.4604 8.36266 87.4604 8.47266ZM90.4245 12.4077C90.5778 12.4077 90.7111 12.3877 90.8245 12.3477C90.9378 12.3043 91.0311 12.246 91.1045 12.1727C91.1811 12.0993 91.2378 12.011 91.2745 11.9077C91.3145 11.8043 91.3345 11.691 91.3345 11.5677C91.3345 11.3143 91.2578 11.1143 91.1045 10.9677C90.9545 10.8177 90.7278 10.7427 90.4245 10.7427C90.1211 10.7427 89.8928 10.8177 89.7395 10.9677C89.5895 11.1143 89.5145 11.3143 89.5145 11.5677C89.5145 11.6877 89.5328 11.7993 89.5695 11.9027C89.6095 12.006 89.6661 12.096 89.7395 12.1727C89.8161 12.246 89.9111 12.3043 90.0245 12.3477C90.1411 12.3877 90.2745 12.4077 90.4245 12.4077ZM91.8195 15.3277C91.8195 15.2277 91.7895 15.146 91.7295 15.0827C91.6695 15.0193 91.5878 14.971 91.4845 14.9377C91.3811 14.901 91.2595 14.8743 91.1195 14.8577C90.9828 14.841 90.8361 14.8293 90.6795 14.8227C90.5261 14.8127 90.3661 14.8043 90.1995 14.7977C90.0361 14.791 89.8761 14.7777 89.7195 14.7577C89.5828 14.8343 89.4711 14.9243 89.3845 15.0277C89.3011 15.131 89.2595 15.251 89.2595 15.3877C89.2595 15.4777 89.2811 15.561 89.3245 15.6377C89.3711 15.7177 89.4428 15.786 89.5395 15.8427C89.6395 15.8993 89.7678 15.9427 89.9245 15.9727C90.0811 16.006 90.2728 16.0227 90.4995 16.0227C90.7295 16.0227 90.9278 16.0043 91.0945 15.9677C91.2611 15.9343 91.3978 15.886 91.5045 15.8227C91.6145 15.7627 91.6945 15.6893 91.7445 15.6027C91.7945 15.5193 91.8195 15.4277 91.8195 15.3277ZM93.0495 10.1427V10.6027C93.0495 10.7493 92.9611 10.8393 92.7845 10.8727L92.3245 10.9577C92.3945 11.1343 92.4295 11.3277 92.4295 11.5377C92.4295 11.791 92.3778 12.021 92.2745 12.2277C92.1745 12.431 92.0345 12.6043 91.8545 12.7477C91.6745 12.891 91.4611 13.0027 91.2145 13.0827C90.9711 13.1593 90.7078 13.1977 90.4245 13.1977C90.3245 13.1977 90.2278 13.1927 90.1345 13.1827C90.0411 13.1727 89.9495 13.1593 89.8595 13.1427C89.6995 13.2393 89.6195 13.3477 89.6195 13.4677C89.6195 13.571 89.6661 13.6477 89.7595 13.6977C89.8561 13.7443 89.9828 13.7777 90.1395 13.7977C90.2961 13.8177 90.4745 13.831 90.6745 13.8377C90.8745 13.841 91.0795 13.851 91.2895 13.8677C91.4995 13.8843 91.7045 13.9143 91.9045 13.9577C92.1045 13.9977 92.2828 14.0627 92.4395 14.1527C92.5961 14.2427 92.7211 14.366 92.8145 14.5227C92.9111 14.676 92.9595 14.8743 92.9595 15.1177C92.9595 15.3443 92.9028 15.5643 92.7895 15.7777C92.6795 15.991 92.5178 16.181 92.3045 16.3477C92.0945 16.5143 91.8345 16.6477 91.5245 16.7477C91.2178 16.851 90.8678 16.9027 90.4745 16.9027C90.0878 16.9027 89.7511 16.8643 89.4645 16.7877C89.1778 16.7143 88.9395 16.6143 88.7495 16.4877C88.5595 16.3643 88.4178 16.221 88.3245 16.0577C88.2311 15.8943 88.1845 15.7243 88.1845 15.5477C88.1845 15.3077 88.2561 15.1077 88.3995 14.9477C88.5461 14.7843 88.7461 14.6543 88.9995 14.5577C88.8628 14.4877 88.7545 14.3943 88.6745 14.2777C88.5945 14.161 88.5545 14.0077 88.5545 13.8177C88.5545 13.741 88.5678 13.6627 88.5945 13.5827C88.6245 13.4993 88.6661 13.4177 88.7195 13.3377C88.7761 13.2577 88.8461 13.1827 88.9295 13.1127C89.0128 13.0393 89.1111 12.9743 89.2245 12.9177C88.9645 12.7777 88.7595 12.591 88.6095 12.3577C88.4628 12.1243 88.3895 11.851 88.3895 11.5377C88.3895 11.2843 88.4395 11.056 88.5395 10.8527C88.6428 10.646 88.7845 10.471 88.9645 10.3277C89.1478 10.181 89.3628 10.0693 89.6095 9.99266C89.8595 9.91599 90.1311 9.87766 90.4245 9.87766C90.6445 9.87766 90.8511 9.90099 91.0445 9.94766C91.2378 9.99099 91.4145 10.056 91.5745 10.1427H93.0495ZM95.0677 10.5177C95.2677 10.331 95.4877 10.1793 95.7277 10.0627C95.9677 9.94599 96.2493 9.88766 96.5727 9.88766C96.8527 9.88766 97.101 9.93599 97.3177 10.0327C97.5343 10.126 97.7143 10.2593 97.8577 10.4327C98.0043 10.6027 98.1143 10.8077 98.1877 11.0477C98.2643 11.2843 98.3027 11.546 98.3027 11.8327V15.0977H97.0677V11.8327C97.0677 11.5193 96.996 11.2777 96.8527 11.1077C96.7093 10.9343 96.491 10.8477 96.1977 10.8477C95.9843 10.8477 95.7843 10.896 95.5977 10.9927C95.411 11.0893 95.2343 11.221 95.0677 11.3877V15.0977H93.8327V7.66766H95.0677V10.5177ZM101.119 15.1777C100.672 15.1777 100.329 15.0527 100.089 14.8027C99.8522 14.5493 99.7338 14.201 99.7338 13.7577V10.8927H99.2088C99.1422 10.8927 99.0855 10.871 99.0388 10.8277C98.9922 10.7843 98.9688 10.7193 98.9688 10.6327V10.1427L99.7938 10.0077L100.054 8.60766C100.07 8.54099 100.102 8.48932 100.149 8.45266C100.195 8.41599 100.255 8.39766 100.329 8.39766H100.969V10.0127H102.339V10.8927H100.969V13.6727C100.969 13.8327 101.007 13.9577 101.084 14.0477C101.164 14.1377 101.272 14.1827 101.409 14.1827C101.485 14.1827 101.549 14.1743 101.599 14.1577C101.652 14.1377 101.697 14.1177 101.734 14.0977C101.774 14.0777 101.809 14.0593 101.839 14.0427C101.869 14.0227 101.899 14.0127 101.929 14.0127C101.965 14.0127 101.995 14.0227 102.019 14.0427C102.042 14.0593 102.067 14.086 102.094 14.1227L102.464 14.7227C102.284 14.8727 102.077 14.986 101.844 15.0627C101.61 15.1393 101.369 15.1777 101.119 15.1777Z" fill="black"/>
<path d="M42.98 24.0743C43.0173 23.5837 43.2067 23.1997 43.548 22.9223C43.8893 22.645 44.332 22.5063 44.876 22.5063C45.2387 22.5063 45.5507 22.573 45.812 22.7063C46.0787 22.8343 46.2787 23.0103 46.412 23.2343C46.5507 23.4583 46.62 23.7117 46.62 23.9943C46.62 24.325 46.524 24.6103 46.332 24.8503C46.1453 25.0903 45.9 25.245 45.596 25.3143V25.3543C45.9427 25.4397 46.2173 25.6077 46.42 25.8583C46.6227 26.109 46.724 26.437 46.724 26.8423C46.724 27.1463 46.6547 27.421 46.516 27.6663C46.3773 27.9063 46.1693 28.0957 45.892 28.2343C45.6147 28.373 45.2813 28.4423 44.892 28.4423C44.3267 28.4423 43.8627 28.2957 43.5 28.0023C43.1373 27.7037 42.9347 27.2823 42.892 26.7383H43.596C43.6333 27.0583 43.764 27.3197 43.988 27.5223C44.212 27.725 44.5107 27.8263 44.884 27.8263C45.2573 27.8263 45.54 27.7303 45.732 27.5383C45.9293 27.341 46.028 27.0877 46.028 26.7783C46.028 26.3783 45.8947 26.0903 45.628 25.9143C45.3613 25.7383 44.9587 25.6503 44.42 25.6503H44.236V25.0423H44.428C44.9187 25.037 45.2893 24.957 45.54 24.8023C45.7907 24.6423 45.916 24.397 45.916 24.0663C45.916 23.7837 45.8227 23.557 45.636 23.3863C45.4547 23.2157 45.1933 23.1303 44.852 23.1303C44.5213 23.1303 44.2547 23.2157 44.052 23.3863C43.8493 23.557 43.7293 23.7863 43.692 24.0743H42.98ZM47.5149 23.2823V22.6183H49.0189V28.4023H48.2829V23.2823H47.5149ZM50.6214 28.4503C50.4828 28.4503 50.3654 28.4023 50.2694 28.3063C50.1734 28.2103 50.1254 28.093 50.1254 27.9543C50.1254 27.8157 50.1734 27.6983 50.2694 27.6023C50.3654 27.5063 50.4828 27.4583 50.6214 27.4583C50.7548 27.4583 50.8668 27.5063 50.9574 27.6023C51.0534 27.6983 51.1014 27.8157 51.1014 27.9543C51.1014 28.093 51.0534 28.2103 50.9574 28.3063C50.8668 28.4023 50.7548 28.4503 50.6214 28.4503ZM55.1731 23.9943C55.0558 23.4023 54.6905 23.1063 54.0771 23.1063C53.6025 23.1063 53.2478 23.2903 53.0131 23.6583C52.7785 24.021 52.6638 24.621 52.6691 25.4583C52.7918 25.181 52.9945 24.965 53.2771 24.8103C53.5651 24.6503 53.8851 24.5703 54.2371 24.5703C54.7865 24.5703 55.2238 24.741 55.5491 25.0823C55.8798 25.4237 56.0451 25.8957 56.0451 26.4983C56.0451 26.861 55.9731 27.1863 55.8291 27.4743C55.6905 27.7623 55.4771 27.9917 55.1891 28.1623C54.9065 28.333 54.5625 28.4183 54.1571 28.4183C53.6078 28.4183 53.1785 28.2957 52.8691 28.0503C52.5598 27.805 52.3438 27.4663 52.2211 27.0343C52.0985 26.6023 52.0371 26.069 52.0371 25.4343C52.0371 23.477 52.7198 22.4983 54.0851 22.4983C54.6078 22.4983 55.0185 22.6397 55.3171 22.9223C55.6158 23.205 55.7918 23.5623 55.8451 23.9943H55.1731ZM54.0851 25.1863C53.8558 25.1863 53.6398 25.2343 53.4371 25.3303C53.2345 25.421 53.0691 25.5623 52.9411 25.7543C52.8185 25.941 52.7571 26.1703 52.7571 26.4423C52.7571 26.8477 52.8745 27.1783 53.1091 27.4343C53.3438 27.685 53.6798 27.8103 54.1171 27.8103C54.4905 27.8103 54.7865 27.6957 55.0051 27.4663C55.2291 27.2317 55.3411 26.917 55.3411 26.5223C55.3411 26.1063 55.2345 25.781 55.0211 25.5463C54.8078 25.3063 54.4958 25.1863 54.0851 25.1863ZM57.0273 25.4503C57.0273 24.533 57.1766 23.8183 57.4753 23.3063C57.7739 22.789 58.2966 22.5303 59.0433 22.5303C59.7846 22.5303 60.3046 22.789 60.6033 23.3063C60.9019 23.8183 61.0512 24.533 61.0512 25.4503C61.0512 26.3837 60.9019 27.109 60.6033 27.6263C60.3046 28.1437 59.7846 28.4023 59.0433 28.4023C58.2966 28.4023 57.7739 28.1437 57.4753 27.6263C57.1766 27.109 57.0273 26.3837 57.0273 25.4503ZM60.3313 25.4503C60.3313 24.9863 60.2993 24.5943 60.2353 24.2743C60.1766 23.949 60.0513 23.6877 59.8593 23.4903C59.6726 23.293 59.4006 23.1943 59.0433 23.1943C58.6806 23.1943 58.4033 23.293 58.2113 23.4903C58.0246 23.6877 57.8993 23.949 57.8353 24.2743C57.7766 24.5943 57.7473 24.9863 57.7473 25.4503C57.7473 25.9303 57.7766 26.333 57.8353 26.6583C57.8993 26.9837 58.0246 27.245 58.2113 27.4423C58.4033 27.6397 58.6806 27.7383 59.0433 27.7383C59.4006 27.7383 59.6726 27.6397 59.8593 27.4423C60.0513 27.245 60.1766 26.9837 60.2353 26.6583C60.2993 26.333 60.3313 25.9303 60.3313 25.4503ZM62.0507 25.4503C62.0507 24.533 62.2 23.8183 62.4987 23.3063C62.7974 22.789 63.32 22.5303 64.0667 22.5303C64.808 22.5303 65.328 22.789 65.6267 23.3063C65.9254 23.8183 66.0747 24.533 66.0747 25.4503C66.0747 26.3837 65.9254 27.109 65.6267 27.6263C65.328 28.1437 64.808 28.4023 64.0667 28.4023C63.32 28.4023 62.7974 28.1437 62.4987 27.6263C62.2 27.109 62.0507 26.3837 62.0507 25.4503ZM65.3547 25.4503C65.3547 24.9863 65.3227 24.5943 65.2587 24.2743C65.2 23.949 65.0747 23.6877 64.8827 23.4903C64.696 23.293 64.424 23.1943 64.0667 23.1943C63.704 23.1943 63.4267 23.293 63.2347 23.4903C63.048 23.6877 62.9227 23.949 62.8587 24.2743C62.8 24.5943 62.7707 24.9863 62.7707 25.4503C62.7707 25.9303 62.8 26.333 62.8587 26.6583C62.9227 26.9837 63.048 27.245 63.2347 27.4423C63.4267 27.6397 63.704 27.7383 64.0667 27.7383C64.424 27.7383 64.696 27.6397 64.8827 27.4423C65.0747 27.245 65.2 26.9837 65.2587 26.6583C65.3227 26.333 65.3547 25.9303 65.3547 25.4503ZM71.7749 28.4023L70.0549 26.4663V28.4023H69.3269V22.4823H70.0549V25.9623L71.7429 24.0183H72.7589L70.6949 26.2023L72.7669 28.4023H71.7749ZM75.2521 23.9463C75.6308 23.9463 75.9615 24.029 76.2441 24.1943C76.5321 24.3597 76.7455 24.5677 76.8841 24.8183V24.0183H77.6201V28.4983C77.6201 28.8983 77.5348 29.253 77.3641 29.5623C77.1935 29.877 76.9481 30.1223 76.6281 30.2983C76.3135 30.4743 75.9455 30.5623 75.5241 30.5623C74.9481 30.5623 74.4681 30.4263 74.0841 30.1543C73.7001 29.8823 73.4735 29.5117 73.4041 29.0423H74.1241C74.2041 29.309 74.3695 29.5223 74.6201 29.6823C74.8708 29.8477 75.1721 29.9303 75.5241 29.9303C75.9241 29.9303 76.2495 29.805 76.5001 29.5543C76.7561 29.3037 76.8841 28.9517 76.8841 28.4983V27.5783C76.7401 27.8343 76.5268 28.0477 76.2441 28.2183C75.9615 28.389 75.6308 28.4743 75.2521 28.4743C74.8628 28.4743 74.5081 28.3783 74.1881 28.1863C73.8735 27.9943 73.6255 27.725 73.4441 27.3783C73.2628 27.0317 73.1721 26.637 73.1721 26.1943C73.1721 25.7463 73.2628 25.3543 73.4441 25.0183C73.6255 24.677 73.8735 24.413 74.1881 24.2263C74.5081 24.0397 74.8628 23.9463 75.2521 23.9463ZM76.8841 26.2023C76.8841 25.8717 76.8175 25.5837 76.6841 25.3383C76.5508 25.093 76.3695 24.9063 76.1401 24.7783C75.9161 24.645 75.6681 24.5783 75.3961 24.5783C75.1241 24.5783 74.8761 24.6423 74.6521 24.7703C74.4281 24.8983 74.2495 25.085 74.1161 25.3303C73.9828 25.5757 73.9161 25.8637 73.9161 26.1943C73.9161 26.5303 73.9828 26.8237 74.1161 27.0743C74.2495 27.3197 74.4281 27.509 74.6521 27.6423C74.8761 27.7703 75.1241 27.8343 75.3961 27.8343C75.6681 27.8343 75.9161 27.7703 76.1401 27.6423C76.3695 27.509 76.5508 27.3197 76.6841 27.0743C76.8175 26.8237 76.8841 26.533 76.8841 26.2023Z" fill="black" fill-opacity="0.59"/>
<defs>
<clipPath id="clip0_1467_742">
<rect width="18" height="17" fill="white" transform="translate(9.25 9.75)"/>
</clipPath>
</defs>
</svg>
