<svg width="185" height="78" viewBox="0 0 185 78" fill="none" xmlns="http://www.w3.org/2000/svg">
<g filter="url(#filter0_d_989_521)">
<path d="M4.78895 31.9121V27.8652L11.4424 17.645C11.9454 16.8905 12.4141 16.1588 12.8485 15.45C13.3058 14.7413 13.6716 14.021 13.946 13.2894C14.2432 12.5578 14.3918 11.7918 14.3918 10.9916C14.3918 10.1913 14.2318 9.59687 13.9117 9.20818C13.5916 8.81949 13.1572 8.62515 12.6084 8.62515C11.9911 8.62515 11.511 8.79663 11.168 9.13959C10.825 9.48255 10.585 9.93983 10.4478 10.5114C10.3335 11.083 10.2763 11.7232 10.2763 12.432V13.8038H4.72036V12.3291C4.72036 10.6829 4.98329 9.21961 5.50916 7.93923C6.03503 6.63598 6.86957 5.61854 8.01277 4.88689C9.15597 4.13238 10.6536 3.75512 12.5055 3.75512C14.9977 3.75512 16.8726 4.40675 18.1301 5.70999C19.4105 6.99038 20.0507 8.7852 20.0507 11.0945C20.0507 12.2148 19.8677 13.2551 19.5019 14.2154C19.159 15.1757 18.6902 16.1131 18.0958 17.0277C17.5242 17.9194 16.9069 18.8568 16.2438 19.8399L11.168 27.4193H19.2961V31.9121H4.78895ZM30.4311 32.4265C28.3962 32.4265 26.8529 32.0722 25.8011 31.3634C24.7722 30.6317 24.0749 29.6143 23.7091 28.311C23.3432 27.0078 23.1603 25.4988 23.1603 23.784H28.682C28.682 24.8357 28.7391 25.6931 28.8535 26.3562C28.9678 27.0192 29.1736 27.4994 29.4708 27.7966C29.7909 28.071 30.2367 28.1967 30.8083 28.1738C31.4028 28.151 31.8258 27.9109 32.0773 27.4536C32.3288 26.9964 32.4774 26.3447 32.5231 25.4988C32.5917 24.6299 32.626 23.5896 32.626 22.3778C32.626 21.4633 32.5689 20.6516 32.4545 19.9428C32.3631 19.234 32.1573 18.6739 31.8372 18.2623C31.54 17.8279 31.0827 17.6107 30.4654 17.6107C29.8938 17.6107 29.4251 17.8165 29.0592 18.228C28.6934 18.6396 28.4305 19.2798 28.2704 20.1486H23.3318L23.8462 4.13238H36.8101V8.93381H28.4419L28.1332 14.6612C28.3619 14.3411 28.7963 14.0668 29.4365 13.8381C30.0767 13.5866 30.7626 13.4266 31.4942 13.358C32.9118 13.1979 34.1007 13.4609 35.061 14.1468C36.0442 14.8099 36.7758 15.8273 37.256 17.1991C37.759 18.571 38.0105 20.2515 38.0105 22.2406C38.0105 23.7268 37.919 25.0986 37.7361 26.3562C37.5532 27.5908 37.1988 28.6654 36.6729 29.58C36.1471 30.4717 35.3811 31.169 34.3751 31.672C33.3691 32.175 32.0544 32.4265 30.4311 32.4265ZM49.2523 32.4265C47.5833 32.4265 46.1886 32.095 45.0682 31.432C43.9479 30.746 43.1019 29.8086 42.5303 28.6197C41.9587 27.4308 41.6729 26.0475 41.6729 24.4699V11.8833C41.6729 10.2599 41.9359 8.84236 42.4617 7.63057C43.0105 6.39591 43.845 5.43562 44.9653 4.7497C46.0857 4.06379 47.5147 3.72083 49.2523 3.72083C50.99 3.72083 52.4076 4.06379 53.505 4.7497C54.6254 5.43562 55.4485 6.39591 55.9743 7.63057C56.5231 8.84236 56.7974 10.2599 56.7974 11.8833V24.4699C56.7974 26.0246 56.5116 27.4079 55.94 28.6197C55.3684 29.8086 54.5225 30.746 53.4021 31.432C52.2818 32.095 50.8985 32.4265 49.2523 32.4265ZM49.2523 27.3165C49.8011 27.3165 50.1897 27.145 50.4184 26.802C50.6699 26.4362 50.8185 26.0246 50.8642 25.5674C50.9328 25.0872 50.9671 24.6757 50.9671 24.3327V12.0204C50.9671 11.6318 50.9443 11.1973 50.8985 10.7172C50.8528 10.2142 50.7042 9.77978 50.4527 9.41396C50.224 9.02527 49.8239 8.83092 49.2523 8.83092C48.6807 8.83092 48.2692 9.02527 48.0177 9.41396C47.789 9.77978 47.6518 10.2142 47.6061 10.7172C47.5604 11.1973 47.5375 11.6318 47.5375 12.0204V24.3327C47.5375 24.6757 47.5718 25.0872 47.6404 25.5674C47.709 26.0246 47.8576 26.4362 48.0863 26.802C48.3378 27.145 48.7265 27.3165 49.2523 27.3165ZM68.6571 32.3237C66.7366 32.3237 65.2161 31.9235 64.0958 31.1233C62.9983 30.3231 62.2095 29.2027 61.7294 27.7623C61.2721 26.299 61.0434 24.6185 61.0434 22.7208V13.3923C61.0434 11.426 61.2949 9.72262 61.7979 8.28219C62.301 6.84176 63.1584 5.73286 64.3701 4.95548C65.6048 4.15524 67.2739 3.75512 69.3774 3.75512C71.4351 3.75512 73.047 4.09808 74.2131 4.784C75.402 5.46992 76.248 6.41878 76.751 7.63057C77.254 8.84236 77.5055 10.2599 77.5055 11.8833V13.6667H71.5037V11.4031C71.5037 10.8087 71.458 10.2599 71.3665 9.75692C71.2979 9.25391 71.115 8.85379 70.8178 8.55656C70.5434 8.23646 70.0861 8.07641 69.4459 8.07641C68.7829 8.07641 68.3027 8.25933 68.0055 8.62515C67.7083 8.96811 67.5139 9.40252 67.4225 9.9284C67.3539 10.4543 67.3196 11.003 67.3196 11.5746V24.4356C67.3196 25.0529 67.3768 25.6359 67.4911 26.1847C67.6283 26.7106 67.8569 27.145 68.177 27.4879C68.52 27.808 69.0001 27.9681 69.6174 27.9681C70.2576 27.9681 70.7492 27.7966 71.0922 27.4536C71.4351 27.1107 71.6752 26.6648 71.8124 26.1161C71.9496 25.5674 72.0181 24.9843 72.0181 24.367V21.1089H69.5145V17.5078H77.5398V31.9121H73.4929L73.1499 29.6143C72.7841 30.3917 72.2468 31.0433 71.538 31.5691C70.8292 32.0722 69.8689 32.3237 68.6571 32.3237ZM98.9024 32.3237C97.1648 32.3237 95.7129 32.015 94.5468 31.3977C93.3808 30.7803 92.5005 29.8315 91.9061 28.5511C91.3116 27.2479 90.9801 25.5674 90.9115 23.5096L96.1588 22.7208C96.1816 23.9097 96.2845 24.87 96.4674 25.6017C96.6732 26.3333 96.9476 26.8592 97.2905 27.1793C97.6563 27.4994 98.0908 27.6594 98.5938 27.6594C99.234 27.6594 99.6455 27.4422 99.8284 27.0078C100.034 26.5734 100.137 26.1161 100.137 25.6359C100.137 24.4927 99.8627 23.5325 99.314 22.7551C98.7652 21.9548 98.0222 21.1546 97.0847 20.3544L94.684 18.2623C93.6323 17.3706 92.7406 16.3646 92.0089 15.2443C91.3002 14.1011 90.9458 12.6949 90.9458 11.0259C90.9458 8.67088 91.6431 6.87606 93.0378 5.6414C94.4325 4.38388 96.3302 3.75512 98.7309 3.75512C100.217 3.75512 101.406 4.00663 102.298 4.50963C103.212 5.01264 103.898 5.6757 104.355 6.4988C104.836 7.29904 105.156 8.15644 105.316 9.071C105.499 9.96269 105.602 10.8201 105.624 11.6432L100.343 12.2948C100.32 11.4717 100.263 10.7629 100.171 10.1685C100.103 9.55114 99.9427 9.08243 99.6912 8.76233C99.4397 8.41937 99.051 8.24789 98.5252 8.24789C97.9536 8.24789 97.5306 8.48796 97.2562 8.96811C97.0047 9.44825 96.879 9.9284 96.879 10.4085C96.879 11.4374 97.119 12.2834 97.5992 12.9464C98.1022 13.5866 98.7538 14.2611 99.5541 14.9699L101.852 16.9934C103.064 18.0222 104.081 19.1883 104.904 20.4916C105.75 21.7948 106.173 23.4067 106.173 25.3273C106.173 26.6305 105.876 27.8195 105.281 28.8941C104.687 29.9458 103.841 30.7803 102.744 31.3977C101.669 32.015 100.389 32.3237 98.9024 32.3237ZM112.061 31.9121L108.7 4.13238H113.913L115.559 20.3201L117.651 4.16667H121.732L123.927 20.2172L125.608 4.13238H130.752L127.425 31.9121H122.075L119.709 15.1414L117.48 31.9121H112.061ZM134.431 31.9121V4.13238H146.915V8.31649H140.57V15.21H145.406V19.4627H140.57V27.7623H146.983V31.9121H134.431ZM150.456 31.9121V4.13238H162.94V8.31649H156.595V15.21H161.431V19.4627H156.595V27.7623H163.009V31.9121H150.456ZM168.985 31.9121V8.69374H164.801V4.13238H179.308V8.69374H175.158V31.9121H168.985ZM5.44057 70.9121V43.1324H12.677C13.8659 43.1324 14.9863 43.2238 16.038 43.4067C17.1126 43.5897 18.0615 43.944 18.8846 44.4699C19.7077 44.9729 20.3479 45.7046 20.8052 46.6649C21.2853 47.6023 21.5254 48.8484 21.5254 50.4031C21.5254 51.5235 21.3539 52.4723 21.0109 53.2497C20.6908 54.0042 20.2221 54.6101 19.6048 55.0674C19.0103 55.5247 18.2901 55.8333 17.4442 55.9934C18.5188 56.1305 19.4219 56.4849 20.1535 57.0565C20.8852 57.6053 21.4339 58.3484 21.7997 59.2858C22.1884 60.2232 22.3828 61.355 22.3828 62.6811C22.3828 64.1215 22.1884 65.3676 21.7997 66.4193C21.4339 67.4482 20.8966 68.2942 20.1878 68.9572C19.4791 69.6203 18.5988 70.1119 17.547 70.432C16.5182 70.7521 15.3292 70.9121 13.9803 70.9121H5.44057ZM11.5795 66.6251H12.8828C14.2318 66.6251 15.1578 66.2822 15.6608 65.5962C16.1866 64.9103 16.4496 63.9043 16.4496 62.5782C16.4496 61.5264 16.3353 60.6919 16.1066 60.0746C15.878 59.4573 15.5007 59.0114 14.9748 58.737C14.449 58.4398 13.7402 58.2912 12.8485 58.2912H11.5795V66.6251ZM11.5795 54.2443H12.7799C13.7173 54.2443 14.4261 54.1071 14.9063 53.8327C15.3864 53.5355 15.7065 53.1125 15.8665 52.5638C16.0495 52.015 16.1409 51.352 16.1409 50.5746C16.1409 49.843 16.0037 49.2371 15.7294 48.7569C15.4779 48.2539 15.0892 47.8767 14.5633 47.6251C14.0603 47.3736 13.4201 47.2479 12.6427 47.2479H11.5795V54.2443ZM34.2454 71.3237C32.1648 71.3237 30.5186 70.9578 29.3068 70.2262C28.095 69.4945 27.2262 68.4428 26.7003 67.071C26.1744 65.6991 25.9115 64.0643 25.9115 62.1666V51.8436C25.9115 49.923 26.1744 48.2882 26.7003 46.9392C27.2262 45.5903 28.095 44.5614 29.3068 43.8526C30.5186 43.1209 32.1648 42.7551 34.2454 42.7551C36.3489 42.7551 38.0066 43.1209 39.2183 43.8526C40.453 44.5614 41.3333 45.5903 41.8591 46.9392C42.385 48.2882 42.6479 49.923 42.6479 51.8436V62.1666C42.6479 64.0643 42.385 65.6991 41.8591 67.071C41.3333 68.4428 40.453 69.4945 39.2183 70.2262C38.0066 70.9578 36.3489 71.3237 34.2454 71.3237ZM34.2454 66.9681C34.8856 66.9681 35.3543 66.808 35.6516 66.4879C35.9488 66.1678 36.1431 65.7563 36.2346 65.2533C36.326 64.7503 36.3718 64.2358 36.3718 63.71V50.3345C36.3718 49.7858 36.326 49.2714 36.2346 48.7912C36.1431 48.2882 35.9488 47.8767 35.6516 47.5566C35.3543 47.2365 34.8856 47.0764 34.2454 47.0764C33.651 47.0764 33.2051 47.2365 32.9079 47.5566C32.6107 47.8767 32.4163 48.2882 32.3249 48.7912C32.2334 49.2714 32.1877 49.7858 32.1877 50.3345V63.71C32.1877 64.2358 32.222 64.7503 32.2906 65.2533C32.382 65.7563 32.5649 66.1678 32.8393 66.4879C33.1365 66.808 33.6052 66.9681 34.2454 66.9681ZM44.6829 70.9121L50.0674 55.9591L44.923 43.1324H50.719L53.7714 50.6432L56.2407 43.1324H61.3508L56.4807 57.571L61.8995 70.9121H56.1378L52.7425 62.6125L49.7587 70.9121H44.6829Z" fill="#42CDA8"/>
</g>
<defs>
<filter id="filter0_d_989_521" x="-0.00124979" y="0.000703335" width="184.03" height="77.0435" filterUnits="userSpaceOnUse" color-interpolation-filters="sRGB">
<feFlood flood-opacity="0" result="BackgroundImageFix"/>
<feColorMatrix in="SourceAlpha" type="matrix" values="0 0 0 0 0 0 0 0 0 0 0 0 0 0 0 0 0 0 127 0" result="hardAlpha"/>
<feOffset dy="1"/>
<feGaussianBlur stdDeviation="2.36"/>
<feComposite in2="hardAlpha" operator="out"/>
<feColorMatrix type="matrix" values="0 0 0 0 0 0 0 0 0 0 0 0 0 0 0 0 0 0 0.11 0"/>
<feBlend mode="normal" in2="BackgroundImageFix" result="effect1_dropShadow_989_521"/>
<feBlend mode="normal" in="SourceGraphic" in2="effect1_dropShadow_989_521" result="shape"/>
</filter>
</defs>
</svg>
