<svg width="143" height="37" viewBox="0 0 143 37" fill="none" xmlns="http://www.w3.org/2000/svg">
<rect width="36.5" height="36.5" rx="18.25" fill="#CCFBE0"/>
<path d="M18.2489 14.2917C18.4732 14.2917 18.6613 14.2157 18.8133 14.0637C18.9653 13.9117 19.0411 13.7238 19.0405 13.5C19.04 13.2762 18.964 13.0883 18.8125 12.9363C18.6611 12.7843 18.4732 12.7083 18.2489 12.7083C18.0246 12.7083 17.8367 12.7843 17.6852 12.9363C17.5337 13.0883 17.4577 13.2762 17.4572 13.5C17.4567 13.7238 17.5327 13.9119 17.6852 14.0645C17.8377 14.217 18.0256 14.2927 18.2489 14.2917ZM20.4853 14.2917H21.8707C22.2666 14.2917 22.6096 14.4236 22.8999 14.6875C23.1902 14.9514 23.3683 15.2747 23.4343 15.6573L24.5624 23.574C24.6284 24.049 24.5065 24.468 24.1967 24.8311C23.8869 25.1942 23.4876 25.3755 22.9989 25.375H13.4989C13.0107 25.375 12.6114 25.1937 12.3011 24.8311C11.9907 24.4685 11.8688 24.0495 11.9353 23.574L13.0635 15.6573C13.1294 15.2747 13.3075 14.9514 13.5978 14.6875C13.8881 14.4236 14.2312 14.2917 14.627 14.2917H16.0124C15.9728 14.1597 15.9398 14.0312 15.9135 13.9061C15.8871 13.781 15.8739 13.6457 15.8739 13.5C15.8739 12.8403 16.1048 12.2795 16.5666 11.8177C17.0284 11.3559 17.5891 11.125 18.2489 11.125C18.9086 11.125 19.4694 11.3559 19.9312 11.8177C20.393 12.2795 20.6239 12.8403 20.6239 13.5C20.6239 13.6451 20.6107 13.7805 20.5843 13.9061C20.5579 14.0317 20.5249 14.1603 20.4853 14.2917Z" fill="black" fill-opacity="0.7"/>
<path d="M52.925 7.86766L50.68 15.0977H49.465L47.885 10.1577C47.8417 10.0377 47.8017 9.89099 47.765 9.71766C47.745 9.80099 47.725 9.87932 47.705 9.95266C47.685 10.026 47.6633 10.0943 47.64 10.1577L46.045 15.0977H44.825L42.585 7.86766H43.71C43.8267 7.86766 43.9233 7.89599 44 7.95266C44.08 8.00599 44.1333 8.07932 44.16 8.17266L45.39 12.4977C45.4167 12.6043 45.4417 12.721 45.465 12.8477C45.4917 12.971 45.5183 13.101 45.545 13.2377C45.5717 13.0977 45.6 12.966 45.63 12.8427C45.6633 12.7193 45.6983 12.6043 45.735 12.4977L47.155 8.17266C47.1817 8.09599 47.2333 8.02599 47.31 7.96266C47.39 7.89932 47.4867 7.86766 47.6 7.86766H47.995C48.1117 7.86766 48.2067 7.89599 48.28 7.95266C48.3533 8.00932 48.4083 8.08266 48.445 8.17266L49.86 12.4977C49.93 12.7043 49.9933 12.9427 50.05 13.2127C50.0933 12.9493 50.1417 12.711 50.195 12.4977L51.425 8.17266C51.445 8.08932 51.495 8.01766 51.575 7.95766C51.6583 7.89766 51.7567 7.86766 51.87 7.86766H52.925ZM56.3173 11.9427C56.3173 11.7827 56.294 11.6327 56.2473 11.4927C56.204 11.3493 56.1373 11.2243 56.0473 11.1177C55.9573 11.011 55.8423 10.9277 55.7023 10.8677C55.5657 10.8043 55.4057 10.7727 55.2223 10.7727C54.8657 10.7727 54.584 10.8743 54.3773 11.0777C54.174 11.281 54.044 11.5693 53.9873 11.9427H56.3173ZM53.9623 12.6877C53.9823 12.951 54.029 13.1793 54.1023 13.3727C54.1757 13.5627 54.2723 13.721 54.3923 13.8477C54.5123 13.971 54.654 14.0643 54.8173 14.1277C54.984 14.1877 55.1673 14.2177 55.3673 14.2177C55.5673 14.2177 55.739 14.1943 55.8823 14.1477C56.029 14.101 56.1557 14.0493 56.2623 13.9927C56.3723 13.936 56.4673 13.8843 56.5473 13.8377C56.6307 13.791 56.7107 13.7677 56.7873 13.7677C56.8907 13.7677 56.9673 13.806 57.0173 13.8827L57.3723 14.3327C57.2357 14.4927 57.0823 14.6277 56.9123 14.7377C56.7423 14.8443 56.564 14.931 56.3773 14.9977C56.194 15.061 56.0057 15.106 55.8123 15.1327C55.6223 15.1593 55.4373 15.1727 55.2573 15.1727C54.9007 15.1727 54.569 15.1143 54.2623 14.9977C53.9557 14.8777 53.689 14.7027 53.4623 14.4727C53.2357 14.2393 53.0573 13.9527 52.9273 13.6127C52.7973 13.2693 52.7323 12.8727 52.7323 12.4227C52.7323 12.0727 52.789 11.7443 52.9023 11.4377C53.0157 11.1277 53.1773 10.8593 53.3873 10.6327C53.6007 10.4027 53.859 10.221 54.1623 10.0877C54.469 9.95432 54.814 9.88766 55.1973 9.88766C55.5207 9.88766 55.819 9.93932 56.0923 10.0427C56.3657 10.146 56.6007 10.2977 56.7973 10.4977C56.994 10.6943 57.1473 10.9377 57.2573 11.2277C57.3707 11.5143 57.4273 11.8427 57.4273 12.2127C57.4273 12.3993 57.4073 12.526 57.3673 12.5927C57.3273 12.656 57.2507 12.6877 57.1373 12.6877H53.9623ZM59.6341 9.96766V15.0977H58.3941V9.96766H59.6341ZM59.8041 8.47266C59.8041 8.57932 59.7825 8.67932 59.7391 8.77266C59.6958 8.86599 59.6375 8.94766 59.5641 9.01766C59.4941 9.08766 59.4108 9.14432 59.3141 9.18766C59.2175 9.22766 59.1141 9.24766 59.0041 9.24766C58.8975 9.24766 58.7958 9.22766 58.6991 9.18766C58.6058 9.14432 58.5241 9.08766 58.4541 9.01766C58.3841 8.94766 58.3275 8.86599 58.2841 8.77266C58.2441 8.67932 58.2241 8.57932 58.2241 8.47266C58.2241 8.36266 58.2441 8.25932 58.2841 8.16266C58.3275 8.06599 58.3841 7.98266 58.4541 7.91266C58.5241 7.84266 58.6058 7.78766 58.6991 7.74766C58.7958 7.70432 58.8975 7.68266 59.0041 7.68266C59.1141 7.68266 59.2175 7.70432 59.3141 7.74766C59.4108 7.78766 59.4941 7.84266 59.5641 7.91266C59.6375 7.98266 59.6958 8.06599 59.7391 8.16266C59.7825 8.25932 59.8041 8.36266 59.8041 8.47266ZM62.7682 12.4077C62.9215 12.4077 63.0549 12.3877 63.1682 12.3477C63.2815 12.3043 63.3749 12.246 63.4482 12.1727C63.5249 12.0993 63.5815 12.011 63.6182 11.9077C63.6582 11.8043 63.6782 11.691 63.6782 11.5677C63.6782 11.3143 63.6015 11.1143 63.4482 10.9677C63.2982 10.8177 63.0715 10.7427 62.7682 10.7427C62.4649 10.7427 62.2365 10.8177 62.0832 10.9677C61.9332 11.1143 61.8582 11.3143 61.8582 11.5677C61.8582 11.6877 61.8765 11.7993 61.9132 11.9027C61.9532 12.006 62.0099 12.096 62.0832 12.1727C62.1599 12.246 62.2549 12.3043 62.3682 12.3477C62.4849 12.3877 62.6182 12.4077 62.7682 12.4077ZM64.1632 15.3277C64.1632 15.2277 64.1332 15.146 64.0732 15.0827C64.0132 15.0193 63.9315 14.971 63.8282 14.9377C63.7249 14.901 63.6032 14.8743 63.4632 14.8577C63.3265 14.841 63.1799 14.8293 63.0232 14.8227C62.8699 14.8127 62.7099 14.8043 62.5432 14.7977C62.3799 14.791 62.2199 14.7777 62.0632 14.7577C61.9265 14.8343 61.8149 14.9243 61.7282 15.0277C61.6449 15.131 61.6032 15.251 61.6032 15.3877C61.6032 15.4777 61.6249 15.561 61.6682 15.6377C61.7149 15.7177 61.7865 15.786 61.8832 15.8427C61.9832 15.8993 62.1115 15.9427 62.2682 15.9727C62.4249 16.006 62.6165 16.0227 62.8432 16.0227C63.0732 16.0227 63.2715 16.0043 63.4382 15.9677C63.6049 15.9343 63.7415 15.886 63.8482 15.8227C63.9582 15.7627 64.0382 15.6893 64.0882 15.6027C64.1382 15.5193 64.1632 15.4277 64.1632 15.3277ZM65.3932 10.1427V10.6027C65.3932 10.7493 65.3049 10.8393 65.1282 10.8727L64.6682 10.9577C64.7382 11.1343 64.7732 11.3277 64.7732 11.5377C64.7732 11.791 64.7215 12.021 64.6182 12.2277C64.5182 12.431 64.3782 12.6043 64.1982 12.7477C64.0182 12.891 63.8049 13.0027 63.5582 13.0827C63.3149 13.1593 63.0515 13.1977 62.7682 13.1977C62.6682 13.1977 62.5715 13.1927 62.4782 13.1827C62.3849 13.1727 62.2932 13.1593 62.2032 13.1427C62.0432 13.2393 61.9632 13.3477 61.9632 13.4677C61.9632 13.571 62.0099 13.6477 62.1032 13.6977C62.1999 13.7443 62.3265 13.7777 62.4832 13.7977C62.6399 13.8177 62.8182 13.831 63.0182 13.8377C63.2182 13.841 63.4232 13.851 63.6332 13.8677C63.8432 13.8843 64.0482 13.9143 64.2482 13.9577C64.4482 13.9977 64.6265 14.0627 64.7832 14.1527C64.9399 14.2427 65.0649 14.366 65.1582 14.5227C65.2549 14.676 65.3032 14.8743 65.3032 15.1177C65.3032 15.3443 65.2465 15.5643 65.1332 15.7777C65.0232 15.991 64.8615 16.181 64.6482 16.3477C64.4382 16.5143 64.1782 16.6477 63.8682 16.7477C63.5615 16.851 63.2115 16.9027 62.8182 16.9027C62.4315 16.9027 62.0949 16.8643 61.8082 16.7877C61.5215 16.7143 61.2832 16.6143 61.0932 16.4877C60.9032 16.3643 60.7615 16.221 60.6682 16.0577C60.5749 15.8943 60.5282 15.7243 60.5282 15.5477C60.5282 15.3077 60.5999 15.1077 60.7432 14.9477C60.8899 14.7843 61.0899 14.6543 61.3432 14.5577C61.2065 14.4877 61.0982 14.3943 61.0182 14.2777C60.9382 14.161 60.8982 14.0077 60.8982 13.8177C60.8982 13.741 60.9115 13.6627 60.9382 13.5827C60.9682 13.4993 61.0099 13.4177 61.0632 13.3377C61.1199 13.2577 61.1899 13.1827 61.2732 13.1127C61.3565 13.0393 61.4549 12.9743 61.5682 12.9177C61.3082 12.7777 61.1032 12.591 60.9532 12.3577C60.8065 12.1243 60.7332 11.851 60.7332 11.5377C60.7332 11.2843 60.7832 11.056 60.8832 10.8527C60.9865 10.646 61.1282 10.471 61.3082 10.3277C61.4915 10.181 61.7065 10.0693 61.9532 9.99266C62.2032 9.91599 62.4749 9.87766 62.7682 9.87766C62.9882 9.87766 63.1949 9.90099 63.3882 9.94766C63.5815 9.99099 63.7582 10.056 63.9182 10.1427H65.3932ZM67.4114 10.5177C67.6114 10.331 67.8314 10.1793 68.0714 10.0627C68.3114 9.94599 68.5931 9.88766 68.9164 9.88766C69.1964 9.88766 69.4447 9.93599 69.6614 10.0327C69.8781 10.126 70.0581 10.2593 70.2014 10.4327C70.3481 10.6027 70.4581 10.8077 70.5314 11.0477C70.6081 11.2843 70.6464 11.546 70.6464 11.8327V15.0977H69.4114V11.8327C69.4114 11.5193 69.3397 11.2777 69.1964 11.1077C69.0531 10.9343 68.8347 10.8477 68.5414 10.8477C68.3281 10.8477 68.1281 10.896 67.9414 10.9927C67.7547 11.0893 67.5781 11.221 67.4114 11.3877V15.0977H66.1764V7.66766H67.4114V10.5177ZM73.4626 15.1777C73.0159 15.1777 72.6726 15.0527 72.4326 14.8027C72.1959 14.5493 72.0776 14.201 72.0776 13.7577V10.8927H71.5526C71.4859 10.8927 71.4292 10.871 71.3826 10.8277C71.3359 10.7843 71.3126 10.7193 71.3126 10.6327V10.1427L72.1376 10.0077L72.3976 8.60766C72.4142 8.54099 72.4459 8.48932 72.4926 8.45266C72.5392 8.41599 72.5992 8.39766 72.6726 8.39766H73.3126V10.0127H74.6826V10.8927H73.3126V13.6727C73.3126 13.8327 73.3509 13.9577 73.4276 14.0477C73.5076 14.1377 73.6159 14.1827 73.7526 14.1827C73.8292 14.1827 73.8926 14.1743 73.9426 14.1577C73.9959 14.1377 74.0409 14.1177 74.0776 14.0977C74.1176 14.0777 74.1526 14.0593 74.1826 14.0427C74.2126 14.0227 74.2426 14.0127 74.2726 14.0127C74.3092 14.0127 74.3392 14.0227 74.3626 14.0427C74.3859 14.0593 74.4109 14.086 74.4376 14.1227L74.8076 14.7227C74.6276 14.8727 74.4209 14.986 74.1876 15.0627C73.9542 15.1393 73.7126 15.1777 73.4626 15.1777Z" fill="black"/>
<path d="M42.908 27.8183C43.5853 27.2743 44.116 26.829 44.5 26.4823C44.884 26.1303 45.2067 25.765 45.468 25.3863C45.7347 25.0023 45.868 24.6263 45.868 24.2583C45.868 23.9117 45.7827 23.6397 45.612 23.4423C45.4467 23.2397 45.1773 23.1383 44.804 23.1383C44.4413 23.1383 44.1587 23.253 43.956 23.4823C43.7587 23.7063 43.652 24.0077 43.636 24.3863H42.932C42.9533 23.789 43.1347 23.3277 43.476 23.0023C43.8173 22.677 44.2573 22.5143 44.796 22.5143C45.3453 22.5143 45.78 22.6663 46.1 22.9703C46.4253 23.2743 46.588 23.693 46.588 24.2263C46.588 24.669 46.4547 25.101 46.188 25.5223C45.9267 25.9383 45.628 26.3063 45.292 26.6263C44.956 26.941 44.5267 27.309 44.004 27.7303H46.756V28.3383H42.908V27.8183ZM48.6536 25.3943C48.3549 25.277 48.1256 25.1063 47.9656 24.8823C47.8056 24.6583 47.7256 24.3863 47.7256 24.0663C47.7256 23.7783 47.7976 23.5197 47.9416 23.2903C48.0856 23.0557 48.2989 22.8717 48.5816 22.7383C48.8696 22.5997 49.2162 22.5303 49.6216 22.5303C50.0269 22.5303 50.3709 22.5997 50.6536 22.7383C50.9416 22.8717 51.1576 23.0557 51.3016 23.2903C51.4509 23.5197 51.5256 23.7783 51.5256 24.0663C51.5256 24.3757 51.4429 24.6477 51.2776 24.8823C51.1122 25.1117 50.8856 25.2823 50.5976 25.3943C50.9282 25.4957 51.1896 25.6743 51.3816 25.9303C51.5789 26.181 51.6776 26.485 51.6776 26.8423C51.6776 27.189 51.5922 27.493 51.4216 27.7543C51.2509 28.0103 51.0082 28.2103 50.6936 28.3543C50.3842 28.493 50.0269 28.5623 49.6216 28.5623C49.2162 28.5623 48.8589 28.493 48.5496 28.3543C48.2456 28.2103 48.0082 28.0103 47.8376 27.7543C47.6669 27.493 47.5816 27.189 47.5816 26.8423C47.5816 26.485 47.6776 26.1783 47.8696 25.9223C48.0616 25.6663 48.3229 25.4903 48.6536 25.3943ZM50.8216 24.1543C50.8216 23.829 50.7149 23.5783 50.5016 23.4023C50.2882 23.2263 49.9949 23.1383 49.6216 23.1383C49.2536 23.1383 48.9629 23.2263 48.7496 23.4023C48.5362 23.5783 48.4296 23.8317 48.4296 24.1623C48.4296 24.461 48.5389 24.701 48.7576 24.8823C48.9816 25.0637 49.2696 25.1543 49.6216 25.1543C49.9789 25.1543 50.2669 25.0637 50.4856 24.8823C50.7096 24.6957 50.8216 24.453 50.8216 24.1543ZM49.6216 25.7143C49.2269 25.7143 48.9042 25.8077 48.6536 25.9943C48.4029 26.1757 48.2776 26.4503 48.2776 26.8183C48.2776 27.1597 48.3976 27.4343 48.6376 27.6423C48.8829 27.8503 49.2109 27.9543 49.6216 27.9543C50.0322 27.9543 50.3576 27.8503 50.5976 27.6423C50.8376 27.4343 50.9576 27.1597 50.9576 26.8183C50.9576 26.461 50.8349 26.189 50.5896 26.0023C50.3442 25.8103 50.0216 25.7143 49.6216 25.7143ZM52.9964 28.4503C52.8578 28.4503 52.7404 28.4023 52.6444 28.3063C52.5484 28.2103 52.5004 28.093 52.5004 27.9543C52.5004 27.8157 52.5484 27.6983 52.6444 27.6023C52.7404 27.5063 52.8578 27.4583 52.9964 27.4583C53.1298 27.4583 53.2418 27.5063 53.3324 27.6023C53.4284 27.6983 53.4764 27.8157 53.4764 27.9543C53.4764 28.093 53.4284 28.2103 53.3324 28.3063C53.2418 28.4023 53.1298 28.4503 52.9964 28.4503ZM54.3081 24.0743C54.3455 23.5837 54.5348 23.1997 54.8761 22.9223C55.2175 22.645 55.6601 22.5063 56.2041 22.5063C56.5668 22.5063 56.8788 22.573 57.1401 22.7063C57.4068 22.8343 57.6068 23.0103 57.7401 23.2343C57.8788 23.4583 57.9481 23.7117 57.9481 23.9943C57.9481 24.325 57.8521 24.6103 57.6601 24.8503C57.4735 25.0903 57.2281 25.245 56.9241 25.3143V25.3543C57.2708 25.4397 57.5455 25.6077 57.7481 25.8583C57.9508 26.109 58.0521 26.437 58.0521 26.8423C58.0521 27.1463 57.9828 27.421 57.8441 27.6663C57.7055 27.9063 57.4975 28.0957 57.2201 28.2343C56.9428 28.373 56.6095 28.4423 56.2201 28.4423C55.6548 28.4423 55.1908 28.2957 54.8281 28.0023C54.4655 27.7037 54.2628 27.2823 54.2201 26.7383H54.9241C54.9615 27.0583 55.0921 27.3197 55.3161 27.5223C55.5401 27.725 55.8388 27.8263 56.2121 27.8263C56.5855 27.8263 56.8681 27.7303 57.0601 27.5383C57.2575 27.341 57.3561 27.0877 57.3561 26.7783C57.3561 26.3783 57.2228 26.0903 56.9561 25.9143C56.6895 25.7383 56.2868 25.6503 55.7481 25.6503H55.5641V25.0423H55.7561C56.2468 25.037 56.6175 24.957 56.8681 24.8023C57.1188 24.6423 57.2441 24.397 57.2441 24.0663C57.2441 23.7837 57.1508 23.557 56.9641 23.3863C56.7828 23.2157 56.5215 23.1303 56.1801 23.1303C55.8495 23.1303 55.5828 23.2157 55.3801 23.3863C55.1775 23.557 55.0575 23.7863 55.0201 24.0743H54.3081ZM59.9711 26.8503C60.0244 27.1543 60.1471 27.389 60.3391 27.5543C60.5364 27.7197 60.8004 27.8023 61.1311 27.8023C61.5737 27.8023 61.8991 27.629 62.1071 27.2823C62.3204 26.9357 62.4217 26.3517 62.4111 25.5303C62.2991 25.7703 62.1124 25.9597 61.8511 26.0983C61.5897 26.2317 61.2991 26.2983 60.9791 26.2983C60.6217 26.2983 60.3017 26.2263 60.0191 26.0823C59.7417 25.933 59.5231 25.717 59.3631 25.4343C59.2031 25.1517 59.1231 24.8103 59.1231 24.4103C59.1231 23.8397 59.2884 23.381 59.6191 23.0343C59.9497 22.6823 60.4191 22.5063 61.0271 22.5063C61.7737 22.5063 62.2964 22.749 62.5951 23.2343C62.8991 23.7197 63.0511 24.4423 63.0511 25.4023C63.0511 26.0743 62.9897 26.629 62.8671 27.0663C62.7497 27.5037 62.5471 27.837 62.2591 28.0663C61.9764 28.2957 61.5871 28.4103 61.0911 28.4103C60.5471 28.4103 60.1231 28.2637 59.8191 27.9703C59.5151 27.677 59.3417 27.3037 59.2991 26.8503H59.9711ZM61.0991 25.6823C61.4564 25.6823 61.7497 25.573 61.9791 25.3543C62.2084 25.1303 62.3231 24.829 62.3231 24.4503C62.3231 24.0503 62.2111 23.7277 61.9871 23.4823C61.7631 23.237 61.4484 23.1143 61.0431 23.1143C60.6697 23.1143 60.3711 23.2317 60.1471 23.4663C59.9284 23.701 59.8191 24.0103 59.8191 24.3943C59.8191 24.7837 59.9284 25.0957 60.1471 25.3303C60.3657 25.565 60.6831 25.6823 61.0991 25.6823ZM68.1349 23.9463C68.5136 23.9463 68.8443 24.029 69.1269 24.1943C69.4149 24.3597 69.6283 24.5677 69.7669 24.8183V24.0183H70.5029V28.4983C70.5029 28.8983 70.4176 29.253 70.2469 29.5623C70.0763 29.877 69.8309 30.1223 69.5109 30.2983C69.1963 30.4743 68.8283 30.5623 68.4069 30.5623C67.8309 30.5623 67.3509 30.4263 66.9669 30.1543C66.5829 29.8823 66.3563 29.5117 66.2869 29.0423H67.0069C67.0869 29.309 67.2523 29.5223 67.5029 29.6823C67.7536 29.8477 68.0549 29.9303 68.4069 29.9303C68.8069 29.9303 69.1323 29.805 69.3829 29.5543C69.6389 29.3037 69.7669 28.9517 69.7669 28.4983V27.5783C69.6229 27.8343 69.4096 28.0477 69.1269 28.2183C68.8443 28.389 68.5136 28.4743 68.1349 28.4743C67.7456 28.4743 67.3909 28.3783 67.0709 28.1863C66.7563 27.9943 66.5083 27.725 66.3269 27.3783C66.1456 27.0317 66.0549 26.637 66.0549 26.1943C66.0549 25.7463 66.1456 25.3543 66.3269 25.0183C66.5083 24.677 66.7563 24.413 67.0709 24.2263C67.3909 24.0397 67.7456 23.9463 68.1349 23.9463ZM69.7669 26.2023C69.7669 25.8717 69.7003 25.5837 69.5669 25.3383C69.4336 25.093 69.2523 24.9063 69.0229 24.7783C68.7989 24.645 68.5509 24.5783 68.2789 24.5783C68.0069 24.5783 67.7589 24.6423 67.5349 24.7703C67.3109 24.8983 67.1323 25.085 66.9989 25.3303C66.8656 25.5757 66.7989 25.8637 66.7989 26.1943C66.7989 26.5303 66.8656 26.8237 66.9989 27.0743C67.1323 27.3197 67.3109 27.509 67.5349 27.6423C67.7589 27.7703 68.0069 27.8343 68.2789 27.8343C68.5509 27.8343 68.7989 27.7703 69.0229 27.6423C69.2523 27.509 69.4336 27.3197 69.5669 27.0743C69.7003 26.8237 69.7669 26.533 69.7669 26.2023Z" fill="black" fill-opacity="0.59"/>
</svg>
