<svg width="143" height="37" viewBox="0 0 143 37" fill="none" xmlns="http://www.w3.org/2000/svg">
<rect width="36.5" height="36.5" rx="18.25" fill="#F8E1EE"/>
<path fill-rule="evenodd" clip-rule="evenodd" d="M27.336 19.2572H9.164L11.043 21.1357C11.1359 21.2286 11.2096 21.3388 11.2598 21.4602C11.3101 21.5815 11.336 21.7116 11.336 21.8429C11.336 21.9743 11.3101 22.1043 11.2598 22.2257C11.2096 22.347 11.1359 22.4573 11.043 22.5502C10.9501 22.6431 10.8399 22.7167 10.7185 22.767C10.5972 22.8173 10.4671 22.8431 10.3358 22.8431C10.2044 22.8431 10.0743 22.8173 9.95299 22.767C9.83164 22.7167 9.72138 22.6431 9.6285 22.5502L6.0935 19.0147L6.0685 18.9887C5.96805 18.8951 5.88793 18.7819 5.83314 18.6561C5.77834 18.5302 5.75004 18.3944 5.75 18.2572C5.75 18.0107 5.839 17.7847 5.987 17.6107C6.01867 17.5667 6.054 17.525 6.093 17.4857L9.6285 13.9507C9.81601 13.7631 10.0703 13.6577 10.3356 13.6577C10.6008 13.6576 10.8552 13.7629 11.0427 13.9504C11.2303 14.1379 11.3357 14.3923 11.3358 14.6575C11.3358 14.9227 11.2305 15.1771 11.043 15.3647L9.15 17.2572H27.349L25.4565 15.3647C25.3636 15.2718 25.2899 15.1615 25.2397 15.0402C25.1894 14.9188 25.1635 14.7888 25.1635 14.6574C25.1635 14.5261 25.1894 14.396 25.2397 14.2747C25.2899 14.1533 25.3636 14.0431 25.4565 13.9502C25.6441 13.7626 25.8985 13.6572 26.1637 13.6572C26.2951 13.6572 26.4252 13.6831 26.5465 13.7334C26.6679 13.7836 26.7781 13.8573 26.871 13.9502L30.406 17.4857C30.446 17.525 30.4815 17.5667 30.5125 17.6107C30.6605 17.7847 30.7495 18.0107 30.7495 18.2572C30.7495 18.5462 30.627 18.8062 30.431 18.9887L30.406 19.0147L26.871 22.5497C26.6835 22.7373 26.4291 22.8427 26.1639 22.8427C25.8987 22.8428 25.6443 22.7374 25.4568 22.5499C25.2692 22.3624 25.1638 22.1081 25.1637 21.8429C25.1637 21.5776 25.269 21.3233 25.4565 21.1357L27.336 19.2572Z" fill="black" fill-opacity="0.7"/>
<path d="M48.2501 13.3985C48.3232 13.3985 48.388 13.4268 48.4444 13.4832L48.9726 14.0563C48.6803 14.4183 48.3199 14.6957 47.8914 14.8884C47.4662 15.081 46.9546 15.1774 46.3567 15.1774C45.8218 15.1774 45.3402 15.086 44.9117 14.9033C44.4865 14.7206 44.1227 14.4665 43.8204 14.141C43.5181 13.8154 43.2856 13.4268 43.1228 12.975C42.9634 12.5232 42.8837 12.0299 42.8837 11.4951C42.8837 10.9537 42.97 10.4587 43.1428 10.0102C43.3155 9.55848 43.558 9.16982 43.8703 8.84428C44.1858 8.51874 44.5612 8.26628 44.9964 8.0869C45.4315 7.9042 45.9132 7.81285 46.4414 7.81285C46.9662 7.81285 47.4313 7.89922 47.8365 8.07195C48.2451 8.24469 48.5923 8.47057 48.8779 8.74961L48.4295 9.37245C48.4029 9.41232 48.368 9.4472 48.3249 9.47709C48.285 9.50699 48.2285 9.52194 48.1554 9.52194C48.1056 9.52194 48.0541 9.50865 48.001 9.48207C47.9478 9.45218 47.8897 9.4173 47.8266 9.37744C47.7635 9.33425 47.6904 9.28775 47.6073 9.23792C47.5243 9.18809 47.428 9.14325 47.3183 9.10338C47.2087 9.0602 47.0808 9.02532 46.9347 8.99875C46.7918 8.96885 46.6257 8.9539 46.4364 8.9539C46.1142 8.9539 45.8185 9.01203 45.5495 9.1283C45.2837 9.24124 45.0545 9.40733 44.8618 9.62658C44.6692 9.8425 44.5197 10.1082 44.4134 10.4238C44.3071 10.7361 44.2539 11.0932 44.2539 11.4951C44.2539 11.9004 44.3104 12.2608 44.4233 12.5764C44.5396 12.892 44.6957 13.1577 44.8917 13.3736C45.0877 13.5895 45.3186 13.7556 45.5843 13.8719C45.8501 13.9848 46.1358 14.0413 46.4414 14.0413C46.6241 14.0413 46.7885 14.0313 46.9347 14.0114C47.0841 13.9915 47.2203 13.9599 47.3433 13.9167C47.4695 13.8736 47.5874 13.8187 47.697 13.7523C47.81 13.6825 47.9213 13.5978 48.0309 13.4982C48.0641 13.4683 48.099 13.445 48.1355 13.4284C48.1721 13.4085 48.2103 13.3985 48.2501 13.3985ZM52.3971 12.9152C52.0417 12.9318 51.7427 12.9634 51.5002 13.0099C51.2577 13.0531 51.0634 13.1095 50.9172 13.1793C50.7711 13.249 50.6664 13.3304 50.6033 13.4234C50.5402 13.5165 50.5086 13.6178 50.5086 13.7274C50.5086 13.9433 50.5717 14.0978 50.698 14.1908C50.8275 14.2838 50.9953 14.3303 51.2012 14.3303C51.4537 14.3303 51.6713 14.2855 51.854 14.1958C52.04 14.1028 52.221 13.9632 52.3971 13.7772V12.9152ZM49.5769 10.6979C50.1648 10.1597 50.8724 9.89066 51.6995 9.89066C51.9985 9.89066 52.2659 9.94049 52.5017 10.0401C52.7376 10.1365 52.9369 10.2727 53.0997 10.4487C53.2624 10.6215 53.3854 10.8291 53.4684 11.0716C53.5548 11.3141 53.598 11.5798 53.598 11.8688V15.0977H53.0399C52.9236 15.0977 52.8339 15.081 52.7708 15.0478C52.7077 15.0113 52.6579 14.9399 52.6213 14.8336L52.5117 14.4648C52.3822 14.5811 52.2559 14.6841 52.133 14.7738C52.0101 14.8601 51.8822 14.9332 51.7493 14.993C51.6165 15.0528 51.4736 15.0977 51.3208 15.1276C51.1713 15.1608 51.0053 15.1774 50.8225 15.1774C50.6066 15.1774 50.4073 15.1491 50.2246 15.0927C50.0419 15.0329 49.8841 14.9449 49.7513 14.8286C49.6184 14.7123 49.5154 14.5678 49.4423 14.3951C49.3692 14.2223 49.3327 14.0214 49.3327 13.7922C49.3327 13.6626 49.3543 13.5347 49.3975 13.4085C49.4407 13.2789 49.5104 13.156 49.6068 13.0398C49.7064 12.9235 49.8343 12.8139 49.9904 12.7109C50.1466 12.6079 50.3376 12.5182 50.5634 12.4418C50.7927 12.3654 51.0584 12.304 51.3607 12.2575C51.663 12.2076 52.0084 12.1778 52.3971 12.1678V11.8688C52.3971 11.5267 52.324 11.2742 52.1779 11.1114C52.0317 10.9453 51.8208 10.8623 51.5451 10.8623C51.3457 10.8623 51.1796 10.8856 51.0468 10.9321C50.9172 10.9786 50.8026 11.0317 50.703 11.0915C50.6033 11.148 50.512 11.1995 50.4289 11.246C50.3492 11.2925 50.2595 11.3157 50.1598 11.3157C50.0735 11.3157 50.0004 11.2941 49.9406 11.251C49.8808 11.2045 49.8326 11.1513 49.7961 11.0915L49.5769 10.6979ZM55.9181 10.8723C56.0775 10.5667 56.2668 10.3275 56.4861 10.1547C56.7053 9.97869 56.9644 9.89066 57.2634 9.89066C57.4993 9.89066 57.6886 9.94215 57.8314 10.0451L57.7517 10.9669C57.7351 11.0267 57.7102 11.0699 57.677 11.0965C57.6471 11.1197 57.6056 11.1314 57.5524 11.1314C57.5026 11.1314 57.4278 11.1231 57.3282 11.1065C57.2318 11.0898 57.1372 11.0815 57.0442 11.0815C56.908 11.0815 56.7867 11.1015 56.6804 11.1413C56.5741 11.1812 56.4778 11.2393 56.3914 11.3157C56.3084 11.3888 56.2336 11.4785 56.1672 11.5848C56.1041 11.6911 56.0443 11.8124 55.9878 11.9485V15.0977H54.7571V9.98533H55.4796C55.6058 9.98533 55.6938 10.0086 55.7437 10.0551C55.7935 10.0983 55.8267 10.178 55.8433 10.2943L55.9181 10.8723ZM60.1788 15.1774C59.7337 15.1774 59.3915 15.0528 59.1523 14.8037C58.9165 14.5512 58.7986 14.2041 58.7986 13.7623V10.9071H58.2754C58.2089 10.9071 58.1525 10.8856 58.106 10.8424C58.0595 10.7992 58.0362 10.7344 58.0362 10.648V10.1597L58.8584 10.0252L59.1175 8.63002C59.1341 8.56358 59.1656 8.5121 59.2121 8.47556C59.2586 8.43901 59.3184 8.42074 59.3915 8.42074H60.0293V10.0302H61.3946V10.9071H60.0293V13.6776C60.0293 13.837 60.0675 13.9616 60.1439 14.0513C60.2236 14.141 60.3316 14.1858 60.4678 14.1858C60.5442 14.1858 60.6073 14.1775 60.6571 14.1609C60.7103 14.141 60.7551 14.121 60.7917 14.1011C60.8315 14.0812 60.8664 14.0629 60.8963 14.0463C60.9262 14.0264 60.9561 14.0164 60.986 14.0164C61.0225 14.0164 61.0524 14.0264 61.0757 14.0463C61.0989 14.0629 61.1239 14.0895 61.1504 14.126L61.5192 14.7239C61.3398 14.8734 61.1338 14.9864 60.9013 15.0628C60.6688 15.1392 60.4279 15.1774 60.1788 15.1774ZM64.4058 9.90561C64.7845 9.90561 65.1283 9.96706 65.4372 10.09C65.7495 10.2129 66.0152 10.3873 66.2345 10.6132C66.4571 10.839 66.6281 11.1148 66.7477 11.4403C66.8673 11.7658 66.9271 12.1296 66.9271 12.5315C66.9271 12.9368 66.8673 13.3022 66.7477 13.6277C66.6281 13.9533 66.4571 14.2307 66.2345 14.4599C66.0152 14.6891 65.7495 14.8651 65.4372 14.988C65.1283 15.1109 64.7845 15.1724 64.4058 15.1724C64.0238 15.1724 63.6767 15.1109 63.3644 14.988C63.0522 14.8651 62.7848 14.6891 62.5622 14.4599C62.3429 14.2307 62.1719 13.9533 62.049 13.6277C61.9294 13.3022 61.8696 12.9368 61.8696 12.5315C61.8696 12.1296 61.9294 11.7658 62.049 11.4403C62.1719 11.1148 62.3429 10.839 62.5622 10.6132C62.7848 10.3873 63.0522 10.2129 63.3644 10.09C63.6767 9.96706 64.0238 9.90561 64.4058 9.90561ZM64.4058 14.2257C64.831 14.2257 65.1449 14.0828 65.3476 13.7972C65.5535 13.5115 65.6565 13.0929 65.6565 12.5415C65.6565 11.9901 65.5535 11.5699 65.3476 11.2809C65.1449 10.9919 64.831 10.8474 64.4058 10.8474C63.974 10.8474 63.6534 10.9935 63.4441 11.2858C63.2382 11.5748 63.1352 11.9934 63.1352 12.5415C63.1352 13.0896 63.2382 13.5082 63.4441 13.7972C63.6534 14.0828 63.974 14.2257 64.4058 14.2257ZM69.0171 10.6132C69.12 10.5102 69.228 10.4155 69.3409 10.3291C69.4572 10.2395 69.5784 10.1647 69.7047 10.1049C69.8342 10.0418 69.9721 9.99364 70.1182 9.96042C70.2644 9.92388 70.4239 9.90561 70.5966 9.90561C70.8756 9.90561 71.1231 9.95378 71.339 10.0501C71.5549 10.1431 71.7343 10.276 71.8772 10.4487C72.0233 10.6181 72.1329 10.8224 72.206 11.0616C72.2824 11.2975 72.3206 11.5582 72.3206 11.8439V15.0977H71.0899V11.8439C71.0899 11.5317 71.0185 11.2908 70.8756 11.1214C70.7328 10.9487 70.5152 10.8623 70.2229 10.8623C70.0103 10.8623 69.811 10.9105 69.625 11.0068C69.4389 11.1031 69.2629 11.2343 69.0968 11.4004V15.0977H67.866V9.98533H68.6184C68.7779 9.98533 68.8825 10.0601 68.9323 10.2096L69.0171 10.6132ZM79.9454 9.20304C79.9056 9.2728 79.8624 9.32429 79.8159 9.35751C79.7727 9.3874 79.7179 9.40235 79.6515 9.40235C79.5817 9.40235 79.5053 9.37744 79.4222 9.32761C79.3425 9.27446 79.2462 9.21633 79.1332 9.15321C79.0203 9.0901 78.8874 9.03363 78.7346 8.9838C78.5851 8.93065 78.4074 8.90407 78.2015 8.90407C78.0154 8.90407 77.8527 8.92733 77.7132 8.97383C77.5736 9.01702 77.4557 9.07847 77.3594 9.15819C77.2664 9.23792 77.1966 9.33425 77.1501 9.4472C77.1036 9.55682 77.0803 9.67806 77.0803 9.81094C77.0803 9.98035 77.1268 10.1215 77.2199 10.2345C77.3162 10.3474 77.4424 10.4437 77.5986 10.5235C77.7547 10.6032 77.9324 10.6746 78.1317 10.7377C78.331 10.8008 78.5353 10.8689 78.7446 10.942C78.9539 11.0118 79.1582 11.0948 79.3575 11.1912C79.5568 11.2842 79.7345 11.4038 79.8906 11.5499C80.0468 11.6928 80.1713 11.8688 80.2643 12.0781C80.3607 12.2874 80.4088 12.5415 80.4088 12.8405C80.4088 13.166 80.3524 13.4716 80.2394 13.7573C80.1298 14.0396 79.967 14.2871 79.7511 14.4997C79.5385 14.709 79.2777 14.8751 78.9688 14.998C78.6599 15.1176 78.3061 15.1774 77.9075 15.1774C77.6783 15.1774 77.4524 15.1541 77.2298 15.1076C77.0073 15.0644 76.793 15.0013 76.587 14.9183C76.3844 14.8352 76.1934 14.7356 76.014 14.6193C75.8347 14.503 75.6752 14.3735 75.5357 14.2307L75.9293 13.5879C75.9625 13.5414 76.0057 13.5032 76.0589 13.4733C76.112 13.4401 76.1685 13.4234 76.2283 13.4234C76.3113 13.4234 76.401 13.4583 76.4974 13.5281C76.5937 13.5945 76.7083 13.6693 76.8412 13.7523C76.974 13.8354 77.1285 13.9118 77.3046 13.9815C77.4839 14.048 77.6982 14.0812 77.9473 14.0812C78.3294 14.0812 78.625 13.9915 78.8343 13.8121C79.0436 13.6294 79.1482 13.3686 79.1482 13.0298C79.1482 12.8405 79.1 12.686 79.0037 12.5664C78.9107 12.4468 78.7861 12.3472 78.63 12.2674C78.4739 12.1844 78.2961 12.1146 78.0968 12.0582C77.8975 12.0017 77.6949 11.9402 77.4889 11.8738C77.283 11.8074 77.0803 11.7276 76.881 11.6346C76.6817 11.5416 76.504 11.4204 76.3479 11.2709C76.1917 11.1214 76.0655 10.9354 75.9692 10.7128C75.8762 10.4869 75.8297 10.2096 75.8297 9.8807C75.8297 9.61827 75.8812 9.36249 75.9841 9.11335C76.0904 8.86421 76.2432 8.64331 76.4425 8.45064C76.6419 8.25797 76.8877 8.10351 77.18 7.98724C77.4723 7.87098 77.8078 7.81285 78.1865 7.81285C78.6117 7.81285 79.0037 7.87928 79.3625 8.01216C79.7212 8.14503 80.0268 8.33105 80.2793 8.57023L79.9454 9.20304ZM82.6399 9.98533V15.0977H81.4041V9.98533H82.6399ZM82.8093 8.49549C82.8093 8.60179 82.7877 8.70144 82.7445 8.79445C82.7013 8.88746 82.6432 8.96885 82.5701 9.03861C82.5004 9.10837 82.4173 9.16484 82.321 9.20802C82.2246 9.24788 82.1217 9.26782 82.012 9.26782C81.9057 9.26782 81.8044 9.24788 81.7081 9.20802C81.6151 9.16484 81.5337 9.10837 81.4639 9.03861C81.3942 8.96885 81.3377 8.88746 81.2945 8.79445C81.2547 8.70144 81.2347 8.60179 81.2347 8.49549C81.2347 8.38587 81.2547 8.28289 81.2945 8.18655C81.3377 8.09022 81.3942 8.00718 81.4639 7.93742C81.5337 7.86766 81.6151 7.81285 81.7081 7.77298C81.8044 7.7298 81.9057 7.70821 82.012 7.70821C82.1217 7.70821 82.2246 7.7298 82.321 7.77298C82.4173 7.81285 82.5004 7.86766 82.5701 7.93742C82.6432 8.00718 82.7013 8.09022 82.7445 8.18655C82.7877 8.28289 82.8093 8.38587 82.8093 8.49549ZM87.5669 10.4936C87.5669 10.5799 87.5519 10.6647 87.522 10.7477C87.4922 10.8307 87.4523 10.8988 87.4025 10.952L84.9759 14.1509H87.4922V15.0977H83.5458V14.5844C83.5458 14.528 83.5591 14.4615 83.5857 14.3851C83.6122 14.3054 83.6521 14.2307 83.7052 14.1609L86.1568 10.9271H83.6903V9.98533H87.5669V10.4936ZM91.6844 11.9535C91.6844 11.7941 91.6611 11.6446 91.6146 11.5051C91.5714 11.3622 91.505 11.2377 91.4153 11.1314C91.3256 11.0251 91.211 10.942 91.0715 10.8822C90.9353 10.8191 90.7758 10.7876 90.5931 10.7876C90.2377 10.7876 89.957 10.8889 89.7511 11.0915C89.5484 11.2941 89.4189 11.5815 89.3624 11.9535H91.6844ZM89.3375 12.696C89.3574 12.9584 89.4039 13.1859 89.477 13.3786C89.5501 13.5679 89.6464 13.7257 89.766 13.852C89.8856 13.9749 90.0268 14.0679 90.1895 14.131C90.3556 14.1908 90.5383 14.2207 90.7376 14.2207C90.937 14.2207 91.108 14.1974 91.2509 14.1509C91.397 14.1044 91.5233 14.0529 91.6296 13.9965C91.7392 13.94 91.8339 13.8885 91.9136 13.842C91.9966 13.7955 92.0764 13.7722 92.1528 13.7722C92.2557 13.7722 92.3321 13.8104 92.382 13.8868L92.7357 14.3353C92.5995 14.4947 92.4467 14.6293 92.2773 14.7389C92.1079 14.8452 91.9302 14.9316 91.7442 14.998C91.5615 15.0611 91.3738 15.106 91.1811 15.1325C90.9918 15.1591 90.8074 15.1724 90.628 15.1724C90.2726 15.1724 89.9421 15.1143 89.6365 14.998C89.3308 14.8784 89.0651 14.704 88.8392 14.4748C88.6133 14.2423 88.4356 13.9566 88.3061 13.6178C88.1765 13.2756 88.1117 12.8803 88.1117 12.4319C88.1117 12.0831 88.1682 11.7559 88.2811 11.4503C88.3941 11.1413 88.5552 10.8739 88.7645 10.648C88.9771 10.4188 89.2345 10.2378 89.5368 10.1049C89.8424 9.97205 90.1862 9.90561 90.5682 9.90561C90.8905 9.90561 91.1878 9.9571 91.4601 10.0601C91.7325 10.1631 91.9667 10.3142 92.1627 10.5135C92.3587 10.7095 92.5115 10.952 92.6211 11.241C92.7341 11.5267 92.7905 11.8539 92.7905 12.2226C92.7905 12.4086 92.7706 12.5349 92.7308 12.6013C92.6909 12.6644 92.6145 12.696 92.5015 12.696H89.3375Z" fill="black"/>
<path d="M42.98 24.0743C43.0173 23.5837 43.2067 23.1997 43.548 22.9223C43.8893 22.645 44.332 22.5063 44.876 22.5063C45.2387 22.5063 45.5507 22.573 45.812 22.7063C46.0787 22.8343 46.2787 23.0103 46.412 23.2343C46.5507 23.4583 46.62 23.7117 46.62 23.9943C46.62 24.325 46.524 24.6103 46.332 24.8503C46.1453 25.0903 45.9 25.245 45.596 25.3143V25.3543C45.9427 25.4397 46.2173 25.6077 46.42 25.8583C46.6227 26.109 46.724 26.437 46.724 26.8423C46.724 27.1463 46.6547 27.421 46.516 27.6663C46.3773 27.9063 46.1693 28.0957 45.892 28.2343C45.6147 28.373 45.2813 28.4423 44.892 28.4423C44.3267 28.4423 43.8627 28.2957 43.5 28.0023C43.1373 27.7037 42.9347 27.2823 42.892 26.7383H43.596C43.6333 27.0583 43.764 27.3197 43.988 27.5223C44.212 27.725 44.5107 27.8263 44.884 27.8263C45.2573 27.8263 45.54 27.7303 45.732 27.5383C45.9293 27.341 46.028 27.0877 46.028 26.7783C46.028 26.3783 45.8947 26.0903 45.628 25.9143C45.3613 25.7383 44.9587 25.6503 44.42 25.6503H44.236V25.0423H44.428C44.9187 25.037 45.2893 24.957 45.54 24.8023C45.7907 24.6423 45.916 24.397 45.916 24.0663C45.916 23.7837 45.8227 23.557 45.636 23.3863C45.4547 23.2157 45.1933 23.1303 44.852 23.1303C44.5213 23.1303 44.2547 23.2157 44.052 23.3863C43.8493 23.557 43.7293 23.7863 43.692 24.0743H42.98ZM47.6189 27.8183C48.2963 27.2743 48.8269 26.829 49.2109 26.4823C49.5949 26.1303 49.9176 25.765 50.1789 25.3863C50.4456 25.0023 50.5789 24.6263 50.5789 24.2583C50.5789 23.9117 50.4936 23.6397 50.3229 23.4423C50.1576 23.2397 49.8883 23.1383 49.5149 23.1383C49.1523 23.1383 48.8696 23.253 48.6669 23.4823C48.4696 23.7063 48.3629 24.0077 48.3469 24.3863H47.6429C47.6643 23.789 47.8456 23.3277 48.1869 23.0023C48.5283 22.677 48.9683 22.5143 49.5069 22.5143C50.0563 22.5143 50.4909 22.6663 50.8109 22.9703C51.1363 23.2743 51.2989 23.693 51.2989 24.2263C51.2989 24.669 51.1656 25.101 50.8989 25.5223C50.6376 25.9383 50.3389 26.3063 50.0029 26.6263C49.6669 26.941 49.2376 27.309 48.7149 27.7303H51.4669V28.3383H47.6189V27.8183ZM57.7933 27.2023L56.5213 25.9303L55.2493 27.2023L54.7693 26.7223L56.0413 25.4503L54.7933 24.2023L55.2573 23.7303L56.5133 24.9863L57.7693 23.7303L58.2493 24.2103L56.9933 25.4663L58.2573 26.7383L57.7933 27.2023ZM61.6268 27.8183C62.3041 27.2743 62.8348 26.829 63.2188 26.4823C63.6028 26.1303 63.9254 25.765 64.1868 25.3863C64.4534 25.0023 64.5868 24.6263 64.5868 24.2583C64.5868 23.9117 64.5014 23.6397 64.3308 23.4423C64.1654 23.2397 63.8961 23.1383 63.5228 23.1383C63.1601 23.1383 62.8774 23.253 62.6748 23.4823C62.4774 23.7063 62.3708 24.0077 62.3548 24.3863H61.6508C61.6721 23.789 61.8534 23.3277 62.1948 23.0023C62.5361 22.677 62.9761 22.5143 63.5148 22.5143C64.0641 22.5143 64.4988 22.6663 64.8188 22.9703C65.1441 23.2743 65.3068 23.693 65.3068 24.2263C65.3068 24.669 65.1734 25.101 64.9068 25.5223C64.6454 25.9383 64.3468 26.3063 64.0108 26.6263C63.6748 26.941 63.2454 27.309 62.7228 27.7303H65.4748V28.3383H61.6268V27.8183ZM66.2283 27.8183C66.9056 27.2743 67.4363 26.829 67.8203 26.4823C68.2043 26.1303 68.527 25.765 68.7883 25.3863C69.055 25.0023 69.1883 24.6263 69.1883 24.2583C69.1883 23.9117 69.103 23.6397 68.9323 23.4423C68.767 23.2397 68.4976 23.1383 68.1243 23.1383C67.7616 23.1383 67.479 23.253 67.2763 23.4823C67.079 23.7063 66.9723 24.0077 66.9563 24.3863H66.2523C66.2736 23.789 66.455 23.3277 66.7963 23.0023C67.1376 22.677 67.5776 22.5143 68.1163 22.5143C68.6656 22.5143 69.1003 22.6663 69.4203 22.9703C69.7456 23.2743 69.9083 23.693 69.9083 24.2263C69.9083 24.669 69.775 25.101 69.5083 25.5223C69.247 25.9383 68.9483 26.3063 68.6123 26.6263C68.2763 26.941 67.847 27.309 67.3243 27.7303H70.0763V28.3383H66.2283V27.8183ZM71.2699 28.4503C71.1312 28.4503 71.0139 28.4023 70.9179 28.3063C70.8219 28.2103 70.7739 28.093 70.7739 27.9543C70.7739 27.8157 70.8219 27.6983 70.9179 27.6023C71.0139 27.5063 71.1312 27.4583 71.2699 27.4583C71.4032 27.4583 71.5152 27.5063 71.6059 27.6023C71.7019 27.6983 71.7499 27.8157 71.7499 27.9543C71.7499 28.093 71.7019 28.2103 71.6059 28.3063C71.5152 28.4023 71.4032 28.4503 71.2699 28.4503ZM76.2856 23.2503H73.4776V25.0743C73.6002 24.9037 73.7816 24.765 74.0216 24.6583C74.2616 24.5463 74.5202 24.4903 74.7976 24.4903C75.2402 24.4903 75.6002 24.5837 75.8776 24.7703C76.1549 24.9517 76.3522 25.189 76.4696 25.4823C76.5922 25.7703 76.6536 26.077 76.6536 26.4023C76.6536 26.7863 76.5816 27.1303 76.4376 27.4343C76.2936 27.7383 76.0722 27.9783 75.7736 28.1543C75.4802 28.3303 75.1149 28.4183 74.6776 28.4183C74.1176 28.4183 73.6642 28.2743 73.3176 27.9863C72.9709 27.6983 72.7602 27.3143 72.6856 26.8343H73.3976C73.4669 27.1383 73.6136 27.3757 73.8376 27.5463C74.0616 27.717 74.3442 27.8023 74.6856 27.8023C75.1069 27.8023 75.4242 27.677 75.6376 27.4263C75.8509 27.1703 75.9576 26.8343 75.9576 26.4183C75.9576 26.0023 75.8509 25.6823 75.6376 25.4583C75.4242 25.229 75.1096 25.1143 74.6936 25.1143C74.4109 25.1143 74.1629 25.1837 73.9496 25.3223C73.7416 25.4557 73.5896 25.6397 73.4936 25.8743H72.8056V22.6103H76.2856V23.2503ZM83.1058 27.2023L81.8338 25.9303L80.5618 27.2023L80.0818 26.7223L81.3538 25.4503L80.1058 24.2023L80.5698 23.7303L81.8258 24.9863L83.0818 23.7303L83.5618 24.2103L82.3058 25.4663L83.5698 26.7383L83.1058 27.2023ZM86.9393 27.8183C87.6166 27.2743 88.1473 26.829 88.5312 26.4823C88.9153 26.1303 89.2379 25.765 89.4993 25.3863C89.7659 25.0023 89.8993 24.6263 89.8993 24.2583C89.8993 23.9117 89.8139 23.6397 89.6433 23.4423C89.4779 23.2397 89.2086 23.1383 88.8353 23.1383C88.4726 23.1383 88.1899 23.253 87.9873 23.4823C87.7899 23.7063 87.6833 24.0077 87.6673 24.3863H86.9633C86.9846 23.789 87.1659 23.3277 87.5073 23.0023C87.8486 22.677 88.2886 22.5143 88.8273 22.5143C89.3766 22.5143 89.8113 22.6663 90.1313 22.9703C90.4566 23.2743 90.6193 23.693 90.6193 24.2263C90.6193 24.669 90.4859 25.101 90.2193 25.5223C89.9579 25.9383 89.6593 26.3063 89.3233 26.6263C88.9873 26.941 88.5579 27.309 88.0353 27.7303H90.7873V28.3383H86.9393V27.8183ZM91.6288 25.4503C91.6288 24.533 91.7781 23.8183 92.0768 23.3063C92.3755 22.789 92.8981 22.5303 93.6448 22.5303C94.3861 22.5303 94.9061 22.789 95.2048 23.3063C95.5035 23.8183 95.6528 24.533 95.6528 25.4503C95.6528 26.3837 95.5035 27.109 95.2048 27.6263C94.9061 28.1437 94.3861 28.4023 93.6448 28.4023C92.8981 28.4023 92.3755 28.1437 92.0768 27.6263C91.7781 27.109 91.6288 26.3837 91.6288 25.4503ZM94.9328 25.4503C94.9328 24.9863 94.9008 24.5943 94.8368 24.2743C94.7781 23.949 94.6528 23.6877 94.4608 23.4903C94.2741 23.293 94.0021 23.1943 93.6448 23.1943C93.2821 23.1943 93.0048 23.293 92.8128 23.4903C92.6261 23.6877 92.5008 23.949 92.4368 24.2743C92.3781 24.5943 92.3488 24.9863 92.3488 25.4503C92.3488 25.9303 92.3781 26.333 92.4368 26.6583C92.5008 26.9837 92.6261 27.245 92.8128 27.4423C93.0048 27.6397 93.2821 27.7383 93.6448 27.7383C94.0021 27.7383 94.2741 27.6397 94.4608 27.4423C94.6528 27.245 94.7781 26.9837 94.8368 26.6583C94.9008 26.333 94.9328 25.9303 94.9328 25.4503ZM97.0043 28.4503C96.8656 28.4503 96.7483 28.4023 96.6523 28.3063C96.5563 28.2103 96.5083 28.093 96.5083 27.9543C96.5083 27.8157 96.5563 27.6983 96.6523 27.6023C96.7483 27.5063 96.8656 27.4583 97.0043 27.4583C97.1376 27.4583 97.2496 27.5063 97.3403 27.6023C97.4363 27.6983 97.4843 27.8157 97.4843 27.9543C97.4843 28.093 97.4363 28.2103 97.3403 28.3063C97.2496 28.4023 97.1376 28.4503 97.0043 28.4503ZM102.02 23.2503H99.2119V25.0743C99.3346 24.9037 99.5159 24.765 99.7559 24.6583C99.9959 24.5463 100.255 24.4903 100.532 24.4903C100.975 24.4903 101.335 24.5837 101.612 24.7703C101.889 24.9517 102.087 25.189 102.204 25.4823C102.327 25.7703 102.388 26.077 102.388 26.4023C102.388 26.7863 102.316 27.1303 102.172 27.4343C102.028 27.7383 101.807 27.9783 101.508 28.1543C101.215 28.3303 100.849 28.4183 100.412 28.4183C99.8519 28.4183 99.3986 28.2743 99.0519 27.9863C98.7053 27.6983 98.4946 27.3143 98.4199 26.8343H99.1319C99.2013 27.1383 99.3479 27.3757 99.5719 27.5463C99.7959 27.717 100.079 27.8023 100.42 27.8023C100.841 27.8023 101.159 27.677 101.372 27.4263C101.585 27.1703 101.692 26.8343 101.692 26.4183C101.692 26.0023 101.585 25.6823 101.372 25.4583C101.159 25.229 100.844 25.1143 100.428 25.1143C100.145 25.1143 99.8973 25.1837 99.6839 25.3223C99.4759 25.4557 99.3239 25.6397 99.2279 25.8743H98.5399V22.6103H102.02V23.2503ZM110.88 23.9383C111.222 23.9383 111.526 24.0103 111.792 24.1543C112.059 24.293 112.27 24.5037 112.424 24.7863C112.579 25.069 112.656 25.413 112.656 25.8183V28.4023H111.936V25.9223C111.936 25.485 111.827 25.1517 111.608 24.9223C111.395 24.6877 111.104 24.5703 110.736 24.5703C110.358 24.5703 110.056 24.693 109.832 24.9383C109.608 25.1783 109.496 25.5277 109.496 25.9863V28.4023H108.776V25.9223C108.776 25.485 108.667 25.1517 108.448 24.9223C108.235 24.6877 107.944 24.5703 107.576 24.5703C107.198 24.5703 106.896 24.693 106.672 24.9383C106.448 25.1783 106.336 25.5277 106.336 25.9863V28.4023H105.608V24.0183H106.336V24.6503C106.48 24.421 106.672 24.245 106.912 24.1223C107.158 23.9997 107.427 23.9383 107.72 23.9383C108.088 23.9383 108.414 24.021 108.696 24.1863C108.979 24.3517 109.19 24.5943 109.328 24.9143C109.451 24.605 109.654 24.365 109.936 24.1943C110.219 24.0237 110.534 23.9383 110.88 23.9383ZM119.122 23.9383C119.464 23.9383 119.768 24.0103 120.034 24.1543C120.301 24.293 120.512 24.5037 120.666 24.7863C120.821 25.069 120.898 25.413 120.898 25.8183V28.4023H120.178V25.9223C120.178 25.485 120.069 25.1517 119.85 24.9223C119.637 24.6877 119.346 24.5703 118.978 24.5703C118.6 24.5703 118.298 24.693 118.074 24.9383C117.85 25.1783 117.738 25.5277 117.738 25.9863V28.4023H117.018V25.9223C117.018 25.485 116.909 25.1517 116.69 24.9223C116.477 24.6877 116.186 24.5703 115.818 24.5703C115.44 24.5703 115.138 24.693 114.914 24.9383C114.69 25.1783 114.578 25.5277 114.578 25.9863V28.4023H113.85V24.0183H114.578V24.6503C114.722 24.421 114.914 24.245 115.154 24.1223C115.4 23.9997 115.669 23.9383 115.962 23.9383C116.33 23.9383 116.656 24.021 116.938 24.1863C117.221 24.3517 117.432 24.5943 117.57 24.9143C117.693 24.605 117.896 24.365 118.178 24.1943C118.461 24.0237 118.776 23.9383 119.122 23.9383Z" fill="black" fill-opacity="0.59"/>
</svg>
