<svg width="150" height="37" viewBox="0 0 150 37" fill="none" xmlns="http://www.w3.org/2000/svg">
<rect width="36.5" height="36.5" rx="18.25" fill="#F8E1EE"/>
<path d="M16.4166 20.9974V18.2474M20.0833 20.9974V18.2474M23.7499 20.9974V18.2474M9.08325 14.5807V10.9141M27.4166 12.7474H9.08325M27.4166 14.5807V10.9141M12.7499 20.9974V18.2474" stroke="black" stroke-opacity="0.7" stroke-width="2.06182" stroke-linecap="round" stroke-linejoin="round"/>
<path d="M25.5833 18.248H10.9166C9.90406 18.248 9.08325 19.0689 9.08325 20.0814V23.748C9.08325 24.7606 9.90406 25.5814 10.9166 25.5814H25.5833C26.5958 25.5814 27.4166 24.7606 27.4166 23.748V20.0814C27.4166 19.0689 26.5958 18.248 25.5833 18.248Z" stroke="black" stroke-opacity="0.7" stroke-width="2.06182" stroke-linecap="round" stroke-linejoin="round"/>
<path d="M49.725 11.4827C49.725 12.0127 49.6367 12.4993 49.46 12.9427C49.2833 13.386 49.035 13.7677 48.715 14.0877C48.395 14.4077 48.01 14.656 47.56 14.8327C47.11 15.0093 46.61 15.0977 46.06 15.0977H43.305V7.86766H46.06C46.61 7.86766 47.11 7.95766 47.56 8.13766C48.01 8.31432 48.395 8.56266 48.715 8.88266C49.035 9.19932 49.2833 9.57932 49.46 10.0227C49.6367 10.466 49.725 10.9527 49.725 11.4827ZM48.345 11.4827C48.345 11.086 48.2917 10.731 48.185 10.4177C48.0817 10.101 47.93 9.83432 47.73 9.61766C47.5333 9.39766 47.2933 9.22932 47.01 9.11266C46.73 8.99599 46.4133 8.93766 46.06 8.93766H44.655V14.0277H46.06C46.4133 14.0277 46.73 13.9693 47.01 13.8527C47.2933 13.736 47.5333 13.5693 47.73 13.3527C47.93 13.1327 48.0817 12.866 48.185 12.5527C48.2917 12.236 48.345 11.8793 48.345 11.4827ZM51.9095 9.96766V15.0977H50.6695V9.96766H51.9095ZM52.0795 8.47266C52.0795 8.57932 52.0579 8.67932 52.0145 8.77266C51.9712 8.86599 51.9129 8.94766 51.8395 9.01766C51.7695 9.08766 51.6862 9.14432 51.5895 9.18766C51.4929 9.22766 51.3895 9.24766 51.2795 9.24766C51.1729 9.24766 51.0712 9.22766 50.9745 9.18766C50.8812 9.14432 50.7995 9.08766 50.7295 9.01766C50.6595 8.94766 50.6029 8.86599 50.5595 8.77266C50.5195 8.67932 50.4995 8.57932 50.4995 8.47266C50.4995 8.36266 50.5195 8.25932 50.5595 8.16266C50.6029 8.06599 50.6595 7.98266 50.7295 7.91266C50.7995 7.84266 50.8812 7.78766 50.9745 7.74766C51.0712 7.70432 51.1729 7.68266 51.2795 7.68266C51.3895 7.68266 51.4929 7.70432 51.5895 7.74766C51.6862 7.78766 51.7695 7.84266 51.8395 7.91266C51.9129 7.98266 51.9712 8.06599 52.0145 8.16266C52.0579 8.25932 52.0795 8.36266 52.0795 8.47266ZM53.1686 15.0977V9.96766H53.9236C54.0836 9.96766 54.1886 10.0427 54.2386 10.1927L54.3186 10.5727C54.4086 10.4727 54.5019 10.381 54.5986 10.2977C54.6986 10.2143 54.8036 10.1427 54.9136 10.0827C55.0269 10.0227 55.1469 9.97599 55.2736 9.94266C55.4036 9.90599 55.5453 9.88766 55.6986 9.88766C56.0219 9.88766 56.2869 9.97599 56.4936 10.1527C56.7036 10.326 56.8603 10.5577 56.9636 10.8477C57.0436 10.6777 57.1436 10.5327 57.2636 10.4127C57.3836 10.2893 57.5153 10.1893 57.6586 10.1127C57.8019 10.036 57.9536 9.97932 58.1136 9.94266C58.2769 9.90599 58.4403 9.88766 58.6036 9.88766C58.8869 9.88766 59.1386 9.93099 59.3586 10.0177C59.5786 10.1043 59.7636 10.231 59.9136 10.3977C60.0636 10.5643 60.1769 10.7677 60.2536 11.0077C60.3336 11.2477 60.3736 11.5227 60.3736 11.8327V15.0977H59.1386V11.8327C59.1386 11.506 59.0669 11.261 58.9236 11.0977C58.7803 10.931 58.5703 10.8477 58.2936 10.8477C58.1669 10.8477 58.0486 10.8693 57.9386 10.9127C57.8319 10.956 57.7369 11.0193 57.6536 11.1027C57.5736 11.1827 57.5103 11.2843 57.4636 11.4077C57.4169 11.531 57.3936 11.6727 57.3936 11.8327V15.0977H56.1536V11.8327C56.1536 11.4893 56.0836 11.2393 55.9436 11.0827C55.8069 10.926 55.6053 10.8477 55.3386 10.8477C55.1586 10.8477 54.9903 10.8927 54.8336 10.9827C54.6803 11.0693 54.5369 11.1893 54.4036 11.3427V15.0977H53.1686ZM64.8525 11.9427C64.8525 11.7827 64.8292 11.6327 64.7825 11.4927C64.7392 11.3493 64.6725 11.2243 64.5825 11.1177C64.4925 11.011 64.3775 10.9277 64.2375 10.8677C64.1008 10.8043 63.9408 10.7727 63.7575 10.7727C63.4008 10.7727 63.1192 10.8743 62.9125 11.0777C62.7092 11.281 62.5792 11.5693 62.5225 11.9427H64.8525ZM62.4975 12.6877C62.5175 12.951 62.5642 13.1793 62.6375 13.3727C62.7108 13.5627 62.8075 13.721 62.9275 13.8477C63.0475 13.971 63.1892 14.0643 63.3525 14.1277C63.5192 14.1877 63.7025 14.2177 63.9025 14.2177C64.1025 14.2177 64.2742 14.1943 64.4175 14.1477C64.5642 14.101 64.6908 14.0493 64.7975 13.9927C64.9075 13.936 65.0025 13.8843 65.0825 13.8377C65.1658 13.791 65.2458 13.7677 65.3225 13.7677C65.4258 13.7677 65.5025 13.806 65.5525 13.8827L65.9075 14.3327C65.7708 14.4927 65.6175 14.6277 65.4475 14.7377C65.2775 14.8443 65.0992 14.931 64.9125 14.9977C64.7292 15.061 64.5408 15.106 64.3475 15.1327C64.1575 15.1593 63.9725 15.1727 63.7925 15.1727C63.4358 15.1727 63.1042 15.1143 62.7975 14.9977C62.4908 14.8777 62.2242 14.7027 61.9975 14.4727C61.7708 14.2393 61.5925 13.9527 61.4625 13.6127C61.3325 13.2693 61.2675 12.8727 61.2675 12.4227C61.2675 12.0727 61.3242 11.7443 61.4375 11.4377C61.5508 11.1277 61.7125 10.8593 61.9225 10.6327C62.1358 10.4027 62.3942 10.221 62.6975 10.0877C63.0042 9.95432 63.3492 9.88766 63.7325 9.88766C64.0558 9.88766 64.3542 9.93932 64.6275 10.0427C64.9008 10.146 65.1358 10.2977 65.3325 10.4977C65.5292 10.6943 65.6825 10.9377 65.7925 11.2277C65.9058 11.5143 65.9625 11.8427 65.9625 12.2127C65.9625 12.3993 65.9425 12.526 65.9025 12.5927C65.8625 12.656 65.7858 12.6877 65.6725 12.6877H62.4975ZM68.0443 10.5977C68.1476 10.4943 68.256 10.3993 68.3693 10.3127C68.486 10.2227 68.6076 10.1477 68.7343 10.0877C68.8643 10.0243 69.0026 9.97599 69.1493 9.94266C69.296 9.90599 69.456 9.88766 69.6293 9.88766C69.9093 9.88766 70.1576 9.93599 70.3743 10.0327C70.591 10.126 70.771 10.2593 70.9143 10.4327C71.061 10.6027 71.171 10.8077 71.2443 11.0477C71.321 11.2843 71.3593 11.546 71.3593 11.8327V15.0977H70.1243V11.8327C70.1243 11.5193 70.0526 11.2777 69.9093 11.1077C69.766 10.9343 69.5476 10.8477 69.2543 10.8477C69.041 10.8477 68.841 10.896 68.6543 10.9927C68.4676 11.0893 68.291 11.221 68.1243 11.3877V15.0977H66.8893V9.96766H67.6443C67.8043 9.96766 67.9093 10.0427 67.9593 10.1927L68.0443 10.5977ZM75.6638 10.9677C75.6305 11.021 75.5955 11.0593 75.5588 11.0827C75.5222 11.1027 75.4755 11.1127 75.4188 11.1127C75.3588 11.1127 75.2938 11.096 75.2238 11.0627C75.1572 11.0293 75.0788 10.9927 74.9888 10.9527C74.8988 10.9093 74.7955 10.871 74.6788 10.8377C74.5655 10.8043 74.4305 10.7877 74.2738 10.7877C74.0305 10.7877 73.8388 10.8393 73.6988 10.9427C73.5622 11.046 73.4938 11.181 73.4938 11.3477C73.4938 11.4577 73.5288 11.551 73.5988 11.6277C73.6722 11.701 73.7672 11.766 73.8838 11.8227C74.0038 11.8793 74.1388 11.931 74.2888 11.9777C74.4388 12.021 74.5905 12.0693 74.7438 12.1227C74.9005 12.176 75.0538 12.2377 75.2038 12.3077C75.3538 12.3743 75.4872 12.461 75.6038 12.5677C75.7238 12.671 75.8188 12.796 75.8888 12.9427C75.9622 13.0893 75.9988 13.266 75.9988 13.4727C75.9988 13.7193 75.9538 13.9477 75.8638 14.1577C75.7772 14.3643 75.6472 14.5443 75.4738 14.6977C75.3005 14.8477 75.0855 14.966 74.8288 15.0527C74.5755 15.136 74.2822 15.1777 73.9488 15.1777C73.7722 15.1777 73.5988 15.161 73.4288 15.1277C73.2622 15.0977 73.1005 15.0543 72.9438 14.9977C72.7905 14.941 72.6472 14.8743 72.5138 14.7977C72.3838 14.721 72.2688 14.6377 72.1688 14.5477L72.4538 14.0777C72.4905 14.021 72.5338 13.9777 72.5838 13.9477C72.6338 13.9177 72.6972 13.9027 72.7738 13.9027C72.8505 13.9027 72.9222 13.9243 72.9888 13.9677C73.0588 14.011 73.1388 14.0577 73.2288 14.1077C73.3188 14.1577 73.4238 14.2043 73.5438 14.2477C73.6672 14.291 73.8222 14.3127 74.0088 14.3127C74.1555 14.3127 74.2805 14.296 74.3838 14.2627C74.4905 14.226 74.5772 14.1793 74.6438 14.1227C74.7138 14.066 74.7638 14.001 74.7938 13.9277C74.8272 13.851 74.8438 13.7727 74.8438 13.6927C74.8438 13.5727 74.8072 13.4743 74.7338 13.3977C74.6638 13.321 74.5688 13.2543 74.4488 13.1977C74.3322 13.141 74.1972 13.091 74.0438 13.0477C73.8938 13.001 73.7388 12.951 73.5788 12.8977C73.4222 12.8443 73.2672 12.7827 73.1138 12.7127C72.9638 12.6393 72.8288 12.5477 72.7088 12.4377C72.5922 12.3277 72.4972 12.1927 72.4238 12.0327C72.3538 11.8727 72.3188 11.6793 72.3188 11.4527C72.3188 11.2427 72.3605 11.0427 72.4438 10.8527C72.5272 10.6627 72.6488 10.4977 72.8088 10.3577C72.9722 10.2143 73.1738 10.101 73.4138 10.0177C73.6572 9.93099 73.9372 9.88766 74.2538 9.88766C74.6072 9.88766 74.9288 9.94599 75.2188 10.0627C75.5088 10.1793 75.7505 10.3327 75.9438 10.5227L75.6638 10.9677ZM78.2084 9.96766V15.0977H76.9684V9.96766H78.2084ZM78.3784 8.47266C78.3784 8.57932 78.3567 8.67932 78.3134 8.77266C78.27 8.86599 78.2117 8.94766 78.1384 9.01766C78.0684 9.08766 77.985 9.14432 77.8884 9.18766C77.7917 9.22766 77.6884 9.24766 77.5784 9.24766C77.4717 9.24766 77.37 9.22766 77.2734 9.18766C77.18 9.14432 77.0984 9.08766 77.0284 9.01766C76.9584 8.94766 76.9017 8.86599 76.8584 8.77266C76.8184 8.67932 76.7984 8.57932 76.7984 8.47266C76.7984 8.36266 76.8184 8.25932 76.8584 8.16266C76.9017 8.06599 76.9584 7.98266 77.0284 7.91266C77.0984 7.84266 77.18 7.78766 77.2734 7.74766C77.37 7.70432 77.4717 7.68266 77.5784 7.68266C77.6884 7.68266 77.7917 7.70432 77.8884 7.74766C77.985 7.78766 78.0684 7.84266 78.1384 7.91266C78.2117 7.98266 78.27 8.06599 78.3134 8.16266C78.3567 8.25932 78.3784 8.36266 78.3784 8.47266ZM81.7374 9.88766C82.1174 9.88766 82.4624 9.94932 82.7724 10.0727C83.0858 10.196 83.3524 10.371 83.5724 10.5977C83.7958 10.8243 83.9674 11.101 84.0874 11.4277C84.2074 11.7543 84.2674 12.1193 84.2674 12.5227C84.2674 12.9293 84.2074 13.296 84.0874 13.6227C83.9674 13.9493 83.7958 14.2277 83.5724 14.4577C83.3524 14.6877 83.0858 14.8643 82.7724 14.9877C82.4624 15.111 82.1174 15.1727 81.7374 15.1727C81.3541 15.1727 81.0058 15.111 80.6924 14.9877C80.3791 14.8643 80.1108 14.6877 79.8874 14.4577C79.6674 14.2277 79.4958 13.9493 79.3724 13.6227C79.2524 13.296 79.1924 12.9293 79.1924 12.5227C79.1924 12.1193 79.2524 11.7543 79.3724 11.4277C79.4958 11.101 79.6674 10.8243 79.8874 10.5977C80.1108 10.371 80.3791 10.196 80.6924 10.0727C81.0058 9.94932 81.3541 9.88766 81.7374 9.88766ZM81.7374 14.2227C82.1641 14.2227 82.4791 14.0793 82.6824 13.7927C82.8891 13.506 82.9924 13.086 82.9924 12.5327C82.9924 11.9793 82.8891 11.5577 82.6824 11.2677C82.4791 10.9777 82.1641 10.8327 81.7374 10.8327C81.3041 10.8327 80.9824 10.9793 80.7724 11.2727C80.5658 11.5627 80.4624 11.9827 80.4624 12.5327C80.4624 13.0827 80.5658 13.5027 80.7724 13.7927C80.9824 14.0793 81.3041 14.2227 81.7374 14.2227ZM86.3646 10.5977C86.4679 10.4943 86.5763 10.3993 86.6896 10.3127C86.8063 10.2227 86.9279 10.1477 87.0546 10.0877C87.1846 10.0243 87.3229 9.97599 87.4696 9.94266C87.6163 9.90599 87.7763 9.88766 87.9496 9.88766C88.2296 9.88766 88.4779 9.93599 88.6946 10.0327C88.9113 10.126 89.0913 10.2593 89.2346 10.4327C89.3813 10.6027 89.4913 10.8077 89.5646 11.0477C89.6413 11.2843 89.6796 11.546 89.6796 11.8327V15.0977H88.4446V11.8327C88.4446 11.5193 88.3729 11.2777 88.2296 11.1077C88.0863 10.9343 87.8679 10.8477 87.5746 10.8477C87.3613 10.8477 87.1613 10.896 86.9746 10.9927C86.7879 11.0893 86.6113 11.221 86.4446 11.3877V15.0977H85.2096V9.96766H85.9646C86.1246 9.96766 86.2296 10.0427 86.2796 10.1927L86.3646 10.5977Z" fill="black"/>
<path d="M42.908 27.8183C43.5853 27.2743 44.116 26.829 44.5 26.4823C44.884 26.1303 45.2067 25.765 45.468 25.3863C45.7347 25.0023 45.868 24.6263 45.868 24.2583C45.868 23.9117 45.7827 23.6397 45.612 23.4423C45.4467 23.2397 45.1773 23.1383 44.804 23.1383C44.4413 23.1383 44.1587 23.253 43.956 23.4823C43.7587 23.7063 43.652 24.0077 43.636 24.3863H42.932C42.9533 23.789 43.1347 23.3277 43.476 23.0023C43.8173 22.677 44.2573 22.5143 44.796 22.5143C45.3453 22.5143 45.78 22.6663 46.1 22.9703C46.4253 23.2743 46.588 23.693 46.588 24.2263C46.588 24.669 46.4547 25.101 46.188 25.5223C45.9267 25.9383 45.628 26.3063 45.292 26.6263C44.956 26.941 44.5267 27.309 44.004 27.7303H46.756V28.3383H42.908V27.8183ZM51.2856 23.2503H48.4776V25.0743C48.6002 24.9037 48.7816 24.765 49.0216 24.6583C49.2616 24.5463 49.5202 24.4903 49.7976 24.4903C50.2402 24.4903 50.6002 24.5837 50.8776 24.7703C51.1549 24.9517 51.3522 25.189 51.4696 25.4823C51.5922 25.7703 51.6536 26.077 51.6536 26.4023C51.6536 26.7863 51.5816 27.1303 51.4376 27.4343C51.2936 27.7383 51.0722 27.9783 50.7736 28.1543C50.4802 28.3303 50.1149 28.4183 49.6776 28.4183C49.1176 28.4183 48.6642 28.2743 48.3176 27.9863C47.9709 27.6983 47.7602 27.3143 47.6856 26.8343H48.3976C48.4669 27.1383 48.6136 27.3757 48.8376 27.5463C49.0616 27.717 49.3442 27.8023 49.6856 27.8023C50.1069 27.8023 50.4242 27.677 50.6376 27.4263C50.8509 27.1703 50.9576 26.8343 50.9576 26.4183C50.9576 26.0023 50.8509 25.6823 50.6376 25.4583C50.4242 25.229 50.1096 25.1143 49.6936 25.1143C49.4109 25.1143 49.1629 25.1837 48.9496 25.3223C48.7416 25.4557 48.5896 25.6397 48.4936 25.8743H47.8056V22.6103H51.2856V23.2503ZM52.621 25.4503C52.621 24.533 52.7703 23.8183 53.069 23.3063C53.3677 22.789 53.8903 22.5303 54.637 22.5303C55.3783 22.5303 55.8983 22.789 56.197 23.3063C56.4957 23.8183 56.645 24.533 56.645 25.4503C56.645 26.3837 56.4957 27.109 56.197 27.6263C55.8983 28.1437 55.3783 28.4023 54.637 28.4023C53.8903 28.4023 53.3677 28.1437 53.069 27.6263C52.7703 27.109 52.621 26.3837 52.621 25.4503ZM55.925 25.4503C55.925 24.9863 55.893 24.5943 55.829 24.2743C55.7703 23.949 55.645 23.6877 55.453 23.4903C55.2663 23.293 54.9943 23.1943 54.637 23.1943C54.2743 23.1943 53.997 23.293 53.805 23.4903C53.6183 23.6877 53.493 23.949 53.429 24.2743C53.3703 24.5943 53.341 24.9863 53.341 25.4503C53.341 25.9303 53.3703 26.333 53.429 26.6583C53.493 26.9837 53.6183 27.245 53.805 27.4423C53.997 27.6397 54.2743 27.7383 54.637 27.7383C54.9943 27.7383 55.2663 27.6397 55.453 27.4423C55.645 27.245 55.7703 26.9837 55.829 26.6583C55.893 26.333 55.925 25.9303 55.925 25.4503ZM60.4844 20.8663L58.2924 29.7623H57.5724L59.7564 20.8663H60.4844ZM61.2571 23.2823V22.6183H62.7611V28.4023H62.0251V23.2823H61.2571ZM65.0676 25.3943C64.769 25.277 64.5396 25.1063 64.3796 24.8823C64.2196 24.6583 64.1396 24.3863 64.1396 24.0663C64.1396 23.7783 64.2116 23.5197 64.3556 23.2903C64.4996 23.0557 64.713 22.8717 64.9956 22.7383C65.2836 22.5997 65.6303 22.5303 66.0356 22.5303C66.441 22.5303 66.785 22.5997 67.0676 22.7383C67.3556 22.8717 67.5716 23.0557 67.7156 23.2903C67.865 23.5197 67.9396 23.7783 67.9396 24.0663C67.9396 24.3757 67.857 24.6477 67.6916 24.8823C67.5263 25.1117 67.2996 25.2823 67.0116 25.3943C67.3423 25.4957 67.6036 25.6743 67.7956 25.9303C67.993 26.181 68.0916 26.485 68.0916 26.8423C68.0916 27.189 68.0063 27.493 67.8356 27.7543C67.665 28.0103 67.4223 28.2103 67.1076 28.3543C66.7983 28.493 66.441 28.5623 66.0356 28.5623C65.6303 28.5623 65.273 28.493 64.9636 28.3543C64.6596 28.2103 64.4223 28.0103 64.2516 27.7543C64.081 27.493 63.9956 27.189 63.9956 26.8423C63.9956 26.485 64.0916 26.1783 64.2836 25.9223C64.4756 25.6663 64.737 25.4903 65.0676 25.3943ZM67.2356 24.1543C67.2356 23.829 67.129 23.5783 66.9156 23.4023C66.7023 23.2263 66.409 23.1383 66.0356 23.1383C65.6676 23.1383 65.377 23.2263 65.1636 23.4023C64.9503 23.5783 64.8436 23.8317 64.8436 24.1623C64.8436 24.461 64.953 24.701 65.1716 24.8823C65.3956 25.0637 65.6836 25.1543 66.0356 25.1543C66.393 25.1543 66.681 25.0637 66.8996 24.8823C67.1236 24.6957 67.2356 24.453 67.2356 24.1543ZM66.0356 25.7143C65.641 25.7143 65.3183 25.8077 65.0676 25.9943C64.817 26.1757 64.6916 26.4503 64.6916 26.8183C64.6916 27.1597 64.8116 27.4343 65.0516 27.6423C65.297 27.8503 65.625 27.9543 66.0356 27.9543C66.4463 27.9543 66.7716 27.8503 67.0116 27.6423C67.2516 27.4343 67.3716 27.1597 67.3716 26.8183C67.3716 26.461 67.249 26.189 67.0036 26.0023C66.7583 25.8103 66.4356 25.7143 66.0356 25.7143ZM72.7465 23.2503H69.9385V25.0743C70.0612 24.9037 70.2425 24.765 70.4825 24.6583C70.7225 24.5463 70.9812 24.4903 71.2585 24.4903C71.7012 24.4903 72.0612 24.5837 72.3385 24.7703C72.6158 24.9517 72.8132 25.189 72.9305 25.4823C73.0532 25.7703 73.1145 26.077 73.1145 26.4023C73.1145 26.7863 73.0425 27.1303 72.8985 27.4343C72.7545 27.7383 72.5332 27.9783 72.2345 28.1543C71.9412 28.3303 71.5758 28.4183 71.1385 28.4183C70.5785 28.4183 70.1252 28.2743 69.7785 27.9863C69.4318 27.6983 69.2212 27.3143 69.1465 26.8343H69.8585C69.9278 27.1383 70.0745 27.3757 70.2985 27.5463C70.5225 27.717 70.8052 27.8023 71.1465 27.8023C71.5678 27.8023 71.8852 27.677 72.0985 27.4263C72.3118 27.1703 72.4185 26.8343 72.4185 26.4183C72.4185 26.0023 72.3118 25.6823 72.0985 25.4583C71.8852 25.229 71.5705 25.1143 71.1545 25.1143C70.8718 25.1143 70.6238 25.1837 70.4105 25.3223C70.2025 25.4557 70.0505 25.6397 69.9545 25.8743H69.2665V22.6103H72.7465V23.2503ZM79.5668 27.2023L78.2948 25.9303L77.0228 27.2023L76.5428 26.7223L77.8148 25.4503L76.5668 24.2023L77.0308 23.7303L78.2868 24.9863L79.5428 23.7303L80.0228 24.2103L78.7668 25.4663L80.0308 26.7383L79.5668 27.2023ZM83.4002 27.8183C84.0775 27.2743 84.6082 26.829 84.9922 26.4823C85.3762 26.1303 85.6989 25.765 85.9602 25.3863C86.2269 25.0023 86.3602 24.6263 86.3602 24.2583C86.3602 23.9117 86.2749 23.6397 86.1042 23.4423C85.9389 23.2397 85.6695 23.1383 85.2962 23.1383C84.9335 23.1383 84.6509 23.253 84.4482 23.4823C84.2509 23.7063 84.1442 24.0077 84.1282 24.3863H83.4242C83.4455 23.789 83.6269 23.3277 83.9682 23.0023C84.3095 22.677 84.7495 22.5143 85.2882 22.5143C85.8375 22.5143 86.2722 22.6663 86.5922 22.9703C86.9175 23.2743 87.0802 23.693 87.0802 24.2263C87.0802 24.669 86.9469 25.101 86.6802 25.5223C86.4189 25.9383 86.1202 26.3063 85.7842 26.6263C85.4482 26.941 85.0189 27.309 84.4962 27.7303H87.2482V28.3383H83.4002V27.8183ZM88.0018 27.8183C88.6791 27.2743 89.2098 26.829 89.5938 26.4823C89.9778 26.1303 90.3004 25.765 90.5618 25.3863C90.8284 25.0023 90.9618 24.6263 90.9618 24.2583C90.9618 23.9117 90.8764 23.6397 90.7058 23.4423C90.5404 23.2397 90.2711 23.1383 89.8978 23.1383C89.5351 23.1383 89.2524 23.253 89.0498 23.4823C88.8524 23.7063 88.7458 24.0077 88.7298 24.3863H88.0258C88.0471 23.789 88.2284 23.3277 88.5698 23.0023C88.9111 22.677 89.3511 22.5143 89.8898 22.5143C90.4391 22.5143 90.8738 22.6663 91.1938 22.9703C91.5191 23.2743 91.6818 23.693 91.6818 24.2263C91.6818 24.669 91.5484 25.101 91.2818 25.5223C91.0204 25.9383 90.7218 26.3063 90.3858 26.6263C90.0498 26.941 89.6204 27.309 89.0978 27.7303H91.8498V28.3383H88.0018V27.8183ZM96.2513 23.1863L94.0273 28.4023H93.2913L95.5473 23.2583H92.4593V22.6343H96.2513V23.1863ZM99.8985 20.8663L97.7065 29.7623H96.9865L99.1705 20.8663H99.8985ZM100.671 23.2823V22.6183H102.175V28.4023H101.439V23.2823H100.671ZM106.65 23.9943C106.532 23.4023 106.167 23.1063 105.554 23.1063C105.079 23.1063 104.724 23.2903 104.49 23.6583C104.255 24.021 104.14 24.621 104.146 25.4583C104.268 25.181 104.471 24.965 104.754 24.8103C105.042 24.6503 105.362 24.5703 105.714 24.5703C106.263 24.5703 106.7 24.741 107.026 25.0823C107.356 25.4237 107.522 25.8957 107.522 26.4983C107.522 26.861 107.45 27.1863 107.306 27.4743C107.167 27.7623 106.954 27.9917 106.666 28.1623C106.383 28.333 106.039 28.4183 105.634 28.4183C105.084 28.4183 104.655 28.2957 104.346 28.0503C104.036 27.805 103.82 27.4663 103.698 27.0343C103.575 26.6023 103.514 26.069 103.514 25.4343C103.514 23.477 104.196 22.4983 105.562 22.4983C106.084 22.4983 106.495 22.6397 106.794 22.9223C107.092 23.205 107.268 23.5623 107.322 23.9943H106.65ZM105.562 25.1863C105.332 25.1863 105.116 25.2343 104.914 25.3303C104.711 25.421 104.546 25.5623 104.418 25.7543C104.295 25.941 104.234 26.1703 104.234 26.4423C104.234 26.8477 104.351 27.1783 104.586 27.4343C104.82 27.685 105.156 27.8103 105.594 27.8103C105.967 27.8103 106.263 27.6957 106.482 27.4663C106.706 27.2317 106.818 26.917 106.818 26.5223C106.818 26.1063 106.711 25.781 106.498 25.5463C106.284 25.3063 105.972 25.1863 105.562 25.1863ZM108.416 27.8183C109.093 27.2743 109.624 26.829 110.008 26.4823C110.392 26.1303 110.714 25.765 110.976 25.3863C111.242 25.0023 111.376 24.6263 111.376 24.2583C111.376 23.9117 111.29 23.6397 111.12 23.4423C110.954 23.2397 110.685 23.1383 110.312 23.1383C109.949 23.1383 109.666 23.253 109.464 23.4823C109.266 23.7063 109.16 24.0077 109.144 24.3863H108.44C108.461 23.789 108.642 23.3277 108.984 23.0023C109.325 22.677 109.765 22.5143 110.304 22.5143C110.853 22.5143 111.288 22.6663 111.608 22.9703C111.933 23.2743 112.096 23.693 112.096 24.2263C112.096 24.669 111.962 25.101 111.696 25.5223C111.434 25.9383 111.136 26.3063 110.8 26.6263C110.464 26.941 110.034 27.309 109.512 27.7303H112.264V28.3383H108.416V27.8183ZM118.59 27.2023L117.318 25.9303L116.046 27.2023L115.566 26.7223L116.838 25.4503L115.59 24.2023L116.054 23.7303L117.31 24.9863L118.566 23.7303L119.046 24.2103L117.79 25.4663L119.054 26.7383L118.59 27.2023ZM126.2 23.2503H123.392V25.0743C123.514 24.9037 123.696 24.765 123.936 24.6583C124.176 24.5463 124.434 24.4903 124.712 24.4903C125.154 24.4903 125.514 24.5837 125.792 24.7703C126.069 24.9517 126.266 25.189 126.384 25.4823C126.506 25.7703 126.568 26.077 126.568 26.4023C126.568 26.7863 126.496 27.1303 126.352 27.4343C126.208 27.7383 125.986 27.9783 125.688 28.1543C125.394 28.3303 125.029 28.4183 124.592 28.4183C124.032 28.4183 123.578 28.2743 123.232 27.9863C122.885 27.6983 122.674 27.3143 122.6 26.8343H123.312C123.381 27.1383 123.528 27.3757 123.752 27.5463C123.976 27.717 124.258 27.8023 124.6 27.8023C125.021 27.8023 125.338 27.677 125.552 27.4263C125.765 27.1703 125.872 26.8343 125.872 26.4183C125.872 26.0023 125.765 25.6823 125.552 25.4583C125.338 25.229 125.024 25.1143 124.608 25.1143C124.325 25.1143 124.077 25.1837 123.864 25.3223C123.656 25.4557 123.504 25.6397 123.408 25.8743H122.72V22.6103H126.2V23.2503ZM127.535 25.4503C127.535 24.533 127.684 23.8183 127.983 23.3063C128.282 22.789 128.804 22.5303 129.551 22.5303C130.292 22.5303 130.812 22.789 131.111 23.3063C131.41 23.8183 131.559 24.533 131.559 25.4503C131.559 26.3837 131.41 27.109 131.111 27.6263C130.812 28.1437 130.292 28.4023 129.551 28.4023C128.804 28.4023 128.282 28.1437 127.983 27.6263C127.684 27.109 127.535 26.3837 127.535 25.4503ZM130.839 25.4503C130.839 24.9863 130.807 24.5943 130.743 24.2743C130.684 23.949 130.559 23.6877 130.367 23.4903C130.18 23.293 129.908 23.1943 129.551 23.1943C129.188 23.1943 128.911 23.293 128.719 23.4903C128.532 23.6877 128.407 23.949 128.343 24.2743C128.284 24.5943 128.255 24.9863 128.255 25.4503C128.255 25.9303 128.284 26.333 128.343 26.6583C128.407 26.9837 128.532 27.245 128.719 27.4423C128.911 27.6397 129.188 27.7383 129.551 27.7383C129.908 27.7383 130.18 27.6397 130.367 27.4423C130.559 27.245 130.684 26.9837 130.743 26.6583C130.807 26.333 130.839 25.9303 130.839 25.4503ZM137.951 23.9383C138.292 23.9383 138.596 24.0103 138.863 24.1543C139.129 24.293 139.34 24.5037 139.495 24.7863C139.649 25.069 139.727 25.413 139.727 25.8183V28.4023H139.007V25.9223C139.007 25.485 138.897 25.1517 138.679 24.9223C138.465 24.6877 138.175 24.5703 137.807 24.5703C137.428 24.5703 137.127 24.693 136.903 24.9383C136.679 25.1783 136.567 25.5277 136.567 25.9863V28.4023H135.847V25.9223C135.847 25.485 135.737 25.1517 135.519 24.9223C135.305 24.6877 135.015 24.5703 134.647 24.5703C134.268 24.5703 133.967 24.693 133.743 24.9383C133.519 25.1783 133.407 25.5277 133.407 25.9863V28.4023H132.679V24.0183H133.407V24.6503C133.551 24.421 133.743 24.245 133.983 24.1223C134.228 23.9997 134.497 23.9383 134.791 23.9383C135.159 23.9383 135.484 24.021 135.767 24.1863C136.049 24.3517 136.26 24.5943 136.399 24.9143C136.521 24.605 136.724 24.365 137.007 24.1943C137.289 24.0237 137.604 23.9383 137.951 23.9383ZM146.193 23.9383C146.534 23.9383 146.838 24.0103 147.105 24.1543C147.371 24.293 147.582 24.5037 147.737 24.7863C147.891 25.069 147.969 25.413 147.969 25.8183V28.4023H147.249V25.9223C147.249 25.485 147.139 25.1517 146.921 24.9223C146.707 24.6877 146.417 24.5703 146.049 24.5703C145.67 24.5703 145.369 24.693 145.145 24.9383C144.921 25.1783 144.809 25.5277 144.809 25.9863V28.4023H144.089V25.9223C144.089 25.485 143.979 25.1517 143.761 24.9223C143.547 24.6877 143.257 24.5703 142.889 24.5703C142.51 24.5703 142.209 24.693 141.985 24.9383C141.761 25.1783 141.649 25.5277 141.649 25.9863V28.4023H140.921V24.0183H141.649V24.6503C141.793 24.421 141.985 24.245 142.225 24.1223C142.47 23.9997 142.739 23.9383 143.033 23.9383C143.401 23.9383 143.726 24.021 144.009 24.1863C144.291 24.3517 144.502 24.5943 144.641 24.9143C144.763 24.605 144.966 24.365 145.249 24.1943C145.531 24.0237 145.846 23.9383 146.193 23.9383Z" fill="black" fill-opacity="0.59"/>
</svg>
