<svg width="143" height="37" viewBox="0 0 143 37" fill="none" xmlns="http://www.w3.org/2000/svg">
<rect width="36.5" height="36.5" rx="18.25" fill="#F8E1EE"/>
<g clip-path="url(#clip0_1467_1250)">
<path d="M27.0361 20.375L24.2236 15.0625H24.9999C25.1491 15.0625 25.2921 15.0065 25.3976 14.9069C25.5031 14.8073 25.5624 14.6721 25.5624 14.5313C25.5624 14.3904 25.5031 14.2552 25.3976 14.1556C25.2921 14.056 25.1491 14 24.9999 14H24.1111C23.5068 13.3783 22.7786 12.8754 21.9682 12.5198C21.1578 12.1643 20.2812 11.9632 19.3884 11.9281L19.3749 11.875C19.3749 11.5932 19.2564 11.323 19.0454 11.1237C18.8344 10.9244 18.5482 10.8125 18.2499 10.8125C17.9515 10.8125 17.6654 10.9244 17.4544 11.1237C17.2434 11.323 17.1249 11.5932 17.1249 11.875V11.9281C15.3067 11.9995 13.5909 12.7424 12.347 13.9968L11.4999 14C11.3507 14 11.2076 14.056 11.1021 14.1556C10.9966 14.2552 10.9374 14.3904 10.9374 14.5313C10.9374 14.6721 10.9966 14.8073 11.1021 14.9069C11.2076 15.0065 11.3507 15.0625 11.4999 15.0625H12.2761L9.46363 20.375H9.24988C9.24988 21.5438 10.7574 22.5 12.6249 22.5C14.4924 22.5 15.9999 21.5438 15.9999 20.375H15.7861L12.9174 14.9669C12.9885 14.9275 13.0496 14.8738 13.0963 14.8096C13.5938 14.2575 14.2093 13.8109 14.9024 13.4992C15.5956 13.1876 16.3507 13.0179 17.1181 13.0013L17.1249 24.625H15.9999V25.6875H13.7499V26.75H22.7499V25.6875H20.4999V24.625H19.3749V13.0013C20.1337 13.0148 20.8805 13.1825 21.5646 13.4929C22.2486 13.8033 22.854 14.2491 23.3394 14.8001C23.3914 14.8834 23.4664 14.9517 23.5565 14.9977L20.7136 20.375H20.4999C20.4999 21.5438 22.0074 22.5 23.8749 22.5C25.7424 22.5 27.2499 21.5438 27.2499 20.375H27.0361ZM14.8749 20.375H10.3749L12.6249 16.1888L14.8749 20.375ZM21.6249 20.375L23.8749 16.1888L26.1249 20.375H21.6249Z" fill="black" fill-opacity="0.7"/>
</g>
<path d="M49.265 11.4727V14.3977C48.8983 14.6677 48.5067 14.866 48.09 14.9927C47.6767 15.116 47.2333 15.1777 46.76 15.1777C46.17 15.1777 45.635 15.086 45.155 14.9027C44.6783 14.7193 44.27 14.4643 43.93 14.1377C43.5933 13.811 43.3333 13.421 43.15 12.9677C42.9667 12.5143 42.875 12.0193 42.875 11.4827C42.875 10.9393 42.9633 10.441 43.14 9.98766C43.3167 9.53432 43.5667 9.14432 43.89 8.81766C44.2167 8.49099 44.6117 8.23766 45.075 8.05766C45.5383 7.87766 46.0583 7.78766 46.635 7.78766C46.9283 7.78766 47.2017 7.81099 47.455 7.85766C47.7117 7.90432 47.9483 7.96932 48.165 8.05266C48.385 8.13266 48.585 8.23099 48.765 8.34766C48.945 8.46432 49.11 8.59266 49.26 8.73266L48.875 9.34266C48.815 9.43932 48.7367 9.49932 48.64 9.52266C48.5433 9.54266 48.4383 9.51766 48.325 9.44766C48.215 9.38432 48.105 9.32099 47.995 9.25766C47.885 9.19432 47.7617 9.13932 47.625 9.09266C47.4917 9.04599 47.34 9.00766 47.17 8.97766C47.0033 8.94766 46.81 8.93266 46.59 8.93266C46.2333 8.93266 45.91 8.99266 45.62 9.11266C45.3333 9.23266 45.0883 9.40432 44.885 9.62766C44.6817 9.85099 44.525 10.1193 44.415 10.4327C44.305 10.746 44.25 11.096 44.25 11.4827C44.25 11.896 44.3083 12.266 44.425 12.5927C44.545 12.916 44.7117 13.191 44.925 13.4177C45.1417 13.641 45.4017 13.8127 45.705 13.9327C46.0083 14.0493 46.3467 14.1077 46.72 14.1077C46.9867 14.1077 47.225 14.0793 47.435 14.0227C47.645 13.966 47.85 13.8893 48.05 13.7927V12.4827H47.14C47.0533 12.4827 46.985 12.4593 46.935 12.4127C46.8883 12.3627 46.865 12.3027 46.865 12.2327V11.4727H49.265ZM51.4527 10.8577C51.6127 10.551 51.8027 10.311 52.0227 10.1377C52.2427 9.96099 52.5027 9.87266 52.8027 9.87266C53.0394 9.87266 53.2294 9.92432 53.3727 10.0277L53.2927 10.9527C53.2761 11.0127 53.2511 11.056 53.2177 11.0827C53.1877 11.106 53.1461 11.1177 53.0927 11.1177C53.0427 11.1177 52.9677 11.1093 52.8677 11.0927C52.7711 11.076 52.6761 11.0677 52.5827 11.0677C52.4461 11.0677 52.3244 11.0877 52.2177 11.1277C52.1111 11.1677 52.0144 11.226 51.9277 11.3027C51.8444 11.376 51.7694 11.466 51.7027 11.5727C51.6394 11.6793 51.5794 11.801 51.5227 11.9377V15.0977H50.2877V9.96766H51.0127C51.1394 9.96766 51.2277 9.99099 51.2777 10.0377C51.3277 10.081 51.3611 10.161 51.3777 10.2777L51.4527 10.8577ZM56.1417 9.88766C56.5217 9.88766 56.8667 9.94932 57.1767 10.0727C57.4901 10.196 57.7567 10.371 57.9767 10.5977C58.2001 10.8243 58.3717 11.101 58.4917 11.4277C58.6117 11.7543 58.6717 12.1193 58.6717 12.5227C58.6717 12.9293 58.6117 13.296 58.4917 13.6227C58.3717 13.9493 58.2001 14.2277 57.9767 14.4577C57.7567 14.6877 57.4901 14.8643 57.1767 14.9877C56.8667 15.111 56.5217 15.1727 56.1417 15.1727C55.7584 15.1727 55.4101 15.111 55.0967 14.9877C54.7834 14.8643 54.5151 14.6877 54.2917 14.4577C54.0717 14.2277 53.9001 13.9493 53.7767 13.6227C53.6567 13.296 53.5967 12.9293 53.5967 12.5227C53.5967 12.1193 53.6567 11.7543 53.7767 11.4277C53.9001 11.101 54.0717 10.8243 54.2917 10.5977C54.5151 10.371 54.7834 10.196 55.0967 10.0727C55.4101 9.94932 55.7584 9.88766 56.1417 9.88766ZM56.1417 14.2227C56.5684 14.2227 56.8834 14.0793 57.0867 13.7927C57.2934 13.506 57.3967 13.086 57.3967 12.5327C57.3967 11.9793 57.2934 11.5577 57.0867 11.2677C56.8834 10.9777 56.5684 10.8327 56.1417 10.8327C55.7084 10.8327 55.3867 10.9793 55.1767 11.2727C54.9701 11.5627 54.8667 11.9827 54.8667 12.5327C54.8667 13.0827 54.9701 13.5027 55.1767 13.7927C55.3867 14.0793 55.7084 14.2227 56.1417 14.2227ZM62.7439 10.9677C62.7106 11.021 62.6756 11.0593 62.6389 11.0827C62.6022 11.1027 62.5556 11.1127 62.4989 11.1127C62.4389 11.1127 62.3739 11.096 62.3039 11.0627C62.2372 11.0293 62.1589 10.9927 62.0689 10.9527C61.9789 10.9093 61.8756 10.871 61.7589 10.8377C61.6456 10.8043 61.5106 10.7877 61.3539 10.7877C61.1106 10.7877 60.9189 10.8393 60.7789 10.9427C60.6422 11.046 60.5739 11.181 60.5739 11.3477C60.5739 11.4577 60.6089 11.551 60.6789 11.6277C60.7522 11.701 60.8472 11.766 60.9639 11.8227C61.0839 11.8793 61.2189 11.931 61.3689 11.9777C61.5189 12.021 61.6706 12.0693 61.8239 12.1227C61.9806 12.176 62.1339 12.2377 62.2839 12.3077C62.4339 12.3743 62.5672 12.461 62.6839 12.5677C62.8039 12.671 62.8989 12.796 62.9689 12.9427C63.0422 13.0893 63.0789 13.266 63.0789 13.4727C63.0789 13.7193 63.0339 13.9477 62.9439 14.1577C62.8572 14.3643 62.7272 14.5443 62.5539 14.6977C62.3806 14.8477 62.1656 14.966 61.9089 15.0527C61.6556 15.136 61.3622 15.1777 61.0289 15.1777C60.8522 15.1777 60.6789 15.161 60.5089 15.1277C60.3422 15.0977 60.1806 15.0543 60.0239 14.9977C59.8706 14.941 59.7272 14.8743 59.5939 14.7977C59.4639 14.721 59.3489 14.6377 59.2489 14.5477L59.5339 14.0777C59.5706 14.021 59.6139 13.9777 59.6639 13.9477C59.7139 13.9177 59.7772 13.9027 59.8539 13.9027C59.9306 13.9027 60.0022 13.9243 60.0689 13.9677C60.1389 14.011 60.2189 14.0577 60.3089 14.1077C60.3989 14.1577 60.5039 14.2043 60.6239 14.2477C60.7472 14.291 60.9022 14.3127 61.0889 14.3127C61.2356 14.3127 61.3606 14.296 61.4639 14.2627C61.5706 14.226 61.6572 14.1793 61.7239 14.1227C61.7939 14.066 61.8439 14.001 61.8739 13.9277C61.9072 13.851 61.9239 13.7727 61.9239 13.6927C61.9239 13.5727 61.8872 13.4743 61.8139 13.3977C61.7439 13.321 61.6489 13.2543 61.5289 13.1977C61.4122 13.141 61.2772 13.091 61.1239 13.0477C60.9739 13.001 60.8189 12.951 60.6589 12.8977C60.5022 12.8443 60.3472 12.7827 60.1939 12.7127C60.0439 12.6393 59.9089 12.5477 59.7889 12.4377C59.6722 12.3277 59.5772 12.1927 59.5039 12.0327C59.4339 11.8727 59.3989 11.6793 59.3989 11.4527C59.3989 11.2427 59.4406 11.0427 59.5239 10.8527C59.6072 10.6627 59.7289 10.4977 59.8889 10.3577C60.0522 10.2143 60.2539 10.101 60.4939 10.0177C60.7372 9.93099 61.0172 9.88766 61.3339 9.88766C61.6872 9.88766 62.0089 9.94599 62.2989 10.0627C62.5889 10.1793 62.8306 10.3327 63.0239 10.5227L62.7439 10.9677ZM67.1384 10.9677C67.1051 11.021 67.0701 11.0593 67.0334 11.0827C66.9968 11.1027 66.9501 11.1127 66.8934 11.1127C66.8334 11.1127 66.7684 11.096 66.6984 11.0627C66.6318 11.0293 66.5534 10.9927 66.4634 10.9527C66.3734 10.9093 66.2701 10.871 66.1534 10.8377C66.0401 10.8043 65.9051 10.7877 65.7484 10.7877C65.5051 10.7877 65.3134 10.8393 65.1734 10.9427C65.0368 11.046 64.9684 11.181 64.9684 11.3477C64.9684 11.4577 65.0034 11.551 65.0734 11.6277C65.1468 11.701 65.2418 11.766 65.3584 11.8227C65.4784 11.8793 65.6134 11.931 65.7634 11.9777C65.9134 12.021 66.0651 12.0693 66.2184 12.1227C66.3751 12.176 66.5284 12.2377 66.6784 12.3077C66.8284 12.3743 66.9618 12.461 67.0784 12.5677C67.1984 12.671 67.2934 12.796 67.3634 12.9427C67.4368 13.0893 67.4734 13.266 67.4734 13.4727C67.4734 13.7193 67.4284 13.9477 67.3384 14.1577C67.2518 14.3643 67.1218 14.5443 66.9484 14.6977C66.7751 14.8477 66.5601 14.966 66.3034 15.0527C66.0501 15.136 65.7568 15.1777 65.4234 15.1777C65.2468 15.1777 65.0734 15.161 64.9034 15.1277C64.7368 15.0977 64.5751 15.0543 64.4184 14.9977C64.2651 14.941 64.1218 14.8743 63.9884 14.7977C63.8584 14.721 63.7434 14.6377 63.6434 14.5477L63.9284 14.0777C63.9651 14.021 64.0084 13.9777 64.0584 13.9477C64.1084 13.9177 64.1718 13.9027 64.2484 13.9027C64.3251 13.9027 64.3968 13.9243 64.4634 13.9677C64.5334 14.011 64.6134 14.0577 64.7034 14.1077C64.7934 14.1577 64.8984 14.2043 65.0184 14.2477C65.1418 14.291 65.2968 14.3127 65.4834 14.3127C65.6301 14.3127 65.7551 14.296 65.8584 14.2627C65.9651 14.226 66.0518 14.1793 66.1184 14.1227C66.1884 14.066 66.2384 14.001 66.2684 13.9277C66.3018 13.851 66.3184 13.7727 66.3184 13.6927C66.3184 13.5727 66.2818 13.4743 66.2084 13.3977C66.1384 13.321 66.0434 13.2543 65.9234 13.1977C65.8068 13.141 65.6718 13.091 65.5184 13.0477C65.3684 13.001 65.2134 12.951 65.0534 12.8977C64.8968 12.8443 64.7418 12.7827 64.5884 12.7127C64.4384 12.6393 64.3034 12.5477 64.1834 12.4377C64.0668 12.3277 63.9718 12.1927 63.8984 12.0327C63.8284 11.8727 63.7934 11.6793 63.7934 11.4527C63.7934 11.2427 63.8351 11.0427 63.9184 10.8527C64.0018 10.6627 64.1234 10.4977 64.2834 10.3577C64.4468 10.2143 64.6484 10.101 64.8884 10.0177C65.1318 9.93099 65.4118 9.88766 65.7284 9.88766C66.0818 9.88766 66.4034 9.94599 66.6934 10.0627C66.9834 10.1793 67.2251 10.3327 67.4184 10.5227L67.1384 10.9677ZM80.5813 7.86766L78.3363 15.0977H77.1213L75.5413 10.1577C75.4979 10.0377 75.4579 9.89099 75.4213 9.71766C75.4013 9.80099 75.3813 9.87932 75.3613 9.95266C75.3413 10.026 75.3196 10.0943 75.2962 10.1577L73.7013 15.0977H72.4813L70.2413 7.86766H71.3663C71.4829 7.86766 71.5796 7.89599 71.6563 7.95266C71.7363 8.00599 71.7896 8.07932 71.8163 8.17266L73.0463 12.4977C73.0729 12.6043 73.0979 12.721 73.1213 12.8477C73.1479 12.971 73.1746 13.101 73.2013 13.2377C73.2279 13.0977 73.2563 12.966 73.2863 12.8427C73.3196 12.7193 73.3546 12.6043 73.3913 12.4977L74.8113 8.17266C74.8379 8.09599 74.8896 8.02599 74.9663 7.96266C75.0463 7.89932 75.1429 7.86766 75.2563 7.86766H75.6513C75.7679 7.86766 75.8629 7.89599 75.9363 7.95266C76.0096 8.00932 76.0646 8.08266 76.1013 8.17266L77.5163 12.4977C77.5863 12.7043 77.6496 12.9427 77.7063 13.2127C77.7496 12.9493 77.7979 12.711 77.8513 12.4977L79.0813 8.17266C79.1013 8.08932 79.1513 8.01766 79.2313 7.95766C79.3146 7.89766 79.4129 7.86766 79.5263 7.86766H80.5813ZM83.9736 11.9427C83.9736 11.7827 83.9503 11.6327 83.9036 11.4927C83.8603 11.3493 83.7936 11.2243 83.7036 11.1177C83.6136 11.011 83.4986 10.9277 83.3586 10.8677C83.2219 10.8043 83.0619 10.7727 82.8786 10.7727C82.5219 10.7727 82.2403 10.8743 82.0336 11.0777C81.8303 11.281 81.7003 11.5693 81.6436 11.9427H83.9736ZM81.6186 12.6877C81.6386 12.951 81.6853 13.1793 81.7586 13.3727C81.8319 13.5627 81.9286 13.721 82.0486 13.8477C82.1686 13.971 82.3103 14.0643 82.4736 14.1277C82.6403 14.1877 82.8236 14.2177 83.0236 14.2177C83.2236 14.2177 83.3953 14.1943 83.5386 14.1477C83.6853 14.101 83.8119 14.0493 83.9186 13.9927C84.0286 13.936 84.1236 13.8843 84.2036 13.8377C84.2869 13.791 84.3669 13.7677 84.4436 13.7677C84.5469 13.7677 84.6236 13.806 84.6736 13.8827L85.0286 14.3327C84.8919 14.4927 84.7386 14.6277 84.5686 14.7377C84.3986 14.8443 84.2203 14.931 84.0336 14.9977C83.8503 15.061 83.6619 15.106 83.4686 15.1327C83.2786 15.1593 83.0936 15.1727 82.9136 15.1727C82.5569 15.1727 82.2253 15.1143 81.9186 14.9977C81.6119 14.8777 81.3453 14.7027 81.1186 14.4727C80.8919 14.2393 80.7136 13.9527 80.5836 13.6127C80.4536 13.2693 80.3886 12.8727 80.3886 12.4227C80.3886 12.0727 80.4453 11.7443 80.5586 11.4377C80.6719 11.1277 80.8336 10.8593 81.0436 10.6327C81.2569 10.4027 81.5153 10.221 81.8186 10.0877C82.1253 9.95432 82.4703 9.88766 82.8536 9.88766C83.1769 9.88766 83.4753 9.93932 83.7486 10.0427C84.0219 10.146 84.2569 10.2977 84.4536 10.4977C84.6503 10.6943 84.8036 10.9377 84.9136 11.2277C85.0269 11.5143 85.0836 11.8427 85.0836 12.2127C85.0836 12.3993 85.0636 12.526 85.0236 12.5927C84.9836 12.656 84.9069 12.6877 84.7936 12.6877H81.6186ZM87.2904 9.96766V15.0977H86.0504V9.96766H87.2904ZM87.4604 8.47266C87.4604 8.57932 87.4387 8.67932 87.3954 8.77266C87.3521 8.86599 87.2937 8.94766 87.2204 9.01766C87.1504 9.08766 87.0671 9.14432 86.9704 9.18766C86.8737 9.22766 86.7704 9.24766 86.6604 9.24766C86.5537 9.24766 86.4521 9.22766 86.3554 9.18766C86.2621 9.14432 86.1804 9.08766 86.1104 9.01766C86.0404 8.94766 85.9837 8.86599 85.9404 8.77266C85.9004 8.67932 85.8804 8.57932 85.8804 8.47266C85.8804 8.36266 85.9004 8.25932 85.9404 8.16266C85.9837 8.06599 86.0404 7.98266 86.1104 7.91266C86.1804 7.84266 86.2621 7.78766 86.3554 7.74766C86.4521 7.70432 86.5537 7.68266 86.6604 7.68266C86.7704 7.68266 86.8737 7.70432 86.9704 7.74766C87.0671 7.78766 87.1504 7.84266 87.2204 7.91266C87.2937 7.98266 87.3521 8.06599 87.3954 8.16266C87.4387 8.25932 87.4604 8.36266 87.4604 8.47266ZM90.4245 12.4077C90.5778 12.4077 90.7111 12.3877 90.8245 12.3477C90.9378 12.3043 91.0311 12.246 91.1045 12.1727C91.1811 12.0993 91.2378 12.011 91.2745 11.9077C91.3145 11.8043 91.3345 11.691 91.3345 11.5677C91.3345 11.3143 91.2578 11.1143 91.1045 10.9677C90.9545 10.8177 90.7278 10.7427 90.4245 10.7427C90.1211 10.7427 89.8928 10.8177 89.7395 10.9677C89.5895 11.1143 89.5145 11.3143 89.5145 11.5677C89.5145 11.6877 89.5328 11.7993 89.5695 11.9027C89.6095 12.006 89.6661 12.096 89.7395 12.1727C89.8161 12.246 89.9111 12.3043 90.0245 12.3477C90.1411 12.3877 90.2745 12.4077 90.4245 12.4077ZM91.8195 15.3277C91.8195 15.2277 91.7895 15.146 91.7295 15.0827C91.6695 15.0193 91.5878 14.971 91.4845 14.9377C91.3811 14.901 91.2595 14.8743 91.1195 14.8577C90.9828 14.841 90.8361 14.8293 90.6795 14.8227C90.5261 14.8127 90.3661 14.8043 90.1995 14.7977C90.0361 14.791 89.8761 14.7777 89.7195 14.7577C89.5828 14.8343 89.4711 14.9243 89.3845 15.0277C89.3011 15.131 89.2595 15.251 89.2595 15.3877C89.2595 15.4777 89.2811 15.561 89.3245 15.6377C89.3711 15.7177 89.4428 15.786 89.5395 15.8427C89.6395 15.8993 89.7678 15.9427 89.9245 15.9727C90.0811 16.006 90.2728 16.0227 90.4995 16.0227C90.7295 16.0227 90.9278 16.0043 91.0945 15.9677C91.2611 15.9343 91.3978 15.886 91.5045 15.8227C91.6145 15.7627 91.6945 15.6893 91.7445 15.6027C91.7945 15.5193 91.8195 15.4277 91.8195 15.3277ZM93.0495 10.1427V10.6027C93.0495 10.7493 92.9611 10.8393 92.7845 10.8727L92.3245 10.9577C92.3945 11.1343 92.4295 11.3277 92.4295 11.5377C92.4295 11.791 92.3778 12.021 92.2745 12.2277C92.1745 12.431 92.0345 12.6043 91.8545 12.7477C91.6745 12.891 91.4611 13.0027 91.2145 13.0827C90.9711 13.1593 90.7078 13.1977 90.4245 13.1977C90.3245 13.1977 90.2278 13.1927 90.1345 13.1827C90.0411 13.1727 89.9495 13.1593 89.8595 13.1427C89.6995 13.2393 89.6195 13.3477 89.6195 13.4677C89.6195 13.571 89.6661 13.6477 89.7595 13.6977C89.8561 13.7443 89.9828 13.7777 90.1395 13.7977C90.2961 13.8177 90.4745 13.831 90.6745 13.8377C90.8745 13.841 91.0795 13.851 91.2895 13.8677C91.4995 13.8843 91.7045 13.9143 91.9045 13.9577C92.1045 13.9977 92.2828 14.0627 92.4395 14.1527C92.5961 14.2427 92.7211 14.366 92.8145 14.5227C92.9111 14.676 92.9595 14.8743 92.9595 15.1177C92.9595 15.3443 92.9028 15.5643 92.7895 15.7777C92.6795 15.991 92.5178 16.181 92.3045 16.3477C92.0945 16.5143 91.8345 16.6477 91.5245 16.7477C91.2178 16.851 90.8678 16.9027 90.4745 16.9027C90.0878 16.9027 89.7511 16.8643 89.4645 16.7877C89.1778 16.7143 88.9395 16.6143 88.7495 16.4877C88.5595 16.3643 88.4178 16.221 88.3245 16.0577C88.2311 15.8943 88.1845 15.7243 88.1845 15.5477C88.1845 15.3077 88.2561 15.1077 88.3995 14.9477C88.5461 14.7843 88.7461 14.6543 88.9995 14.5577C88.8628 14.4877 88.7545 14.3943 88.6745 14.2777C88.5945 14.161 88.5545 14.0077 88.5545 13.8177C88.5545 13.741 88.5678 13.6627 88.5945 13.5827C88.6245 13.4993 88.6661 13.4177 88.7195 13.3377C88.7761 13.2577 88.8461 13.1827 88.9295 13.1127C89.0128 13.0393 89.1111 12.9743 89.2245 12.9177C88.9645 12.7777 88.7595 12.591 88.6095 12.3577C88.4628 12.1243 88.3895 11.851 88.3895 11.5377C88.3895 11.2843 88.4395 11.056 88.5395 10.8527C88.6428 10.646 88.7845 10.471 88.9645 10.3277C89.1478 10.181 89.3628 10.0693 89.6095 9.99266C89.8595 9.91599 90.1311 9.87766 90.4245 9.87766C90.6445 9.87766 90.8511 9.90099 91.0445 9.94766C91.2378 9.99099 91.4145 10.056 91.5745 10.1427H93.0495ZM95.0677 10.5177C95.2677 10.331 95.4877 10.1793 95.7277 10.0627C95.9677 9.94599 96.2493 9.88766 96.5727 9.88766C96.8527 9.88766 97.101 9.93599 97.3177 10.0327C97.5343 10.126 97.7143 10.2593 97.8577 10.4327C98.0043 10.6027 98.1143 10.8077 98.1877 11.0477C98.2643 11.2843 98.3027 11.546 98.3027 11.8327V15.0977H97.0677V11.8327C97.0677 11.5193 96.996 11.2777 96.8527 11.1077C96.7093 10.9343 96.491 10.8477 96.1977 10.8477C95.9843 10.8477 95.7843 10.896 95.5977 10.9927C95.411 11.0893 95.2343 11.221 95.0677 11.3877V15.0977H93.8327V7.66766H95.0677V10.5177ZM101.119 15.1777C100.672 15.1777 100.329 15.0527 100.089 14.8027C99.8522 14.5493 99.7338 14.201 99.7338 13.7577V10.8927H99.2088C99.1422 10.8927 99.0855 10.871 99.0388 10.8277C98.9922 10.7843 98.9688 10.7193 98.9688 10.6327V10.1427L99.7938 10.0077L100.054 8.60766C100.07 8.54099 100.102 8.48932 100.149 8.45266C100.195 8.41599 100.255 8.39766 100.329 8.39766H100.969V10.0127H102.339V10.8927H100.969V13.6727C100.969 13.8327 101.007 13.9577 101.084 14.0477C101.164 14.1377 101.272 14.1827 101.409 14.1827C101.485 14.1827 101.549 14.1743 101.599 14.1577C101.652 14.1377 101.697 14.1177 101.734 14.0977C101.774 14.0777 101.809 14.0593 101.839 14.0427C101.869 14.0227 101.899 14.0127 101.929 14.0127C101.965 14.0127 101.995 14.0227 102.019 14.0427C102.042 14.0593 102.067 14.086 102.094 14.1227L102.464 14.7227C102.284 14.8727 102.077 14.986 101.844 15.0627C101.61 15.1393 101.369 15.1777 101.119 15.1777Z" fill="black"/>
<path d="M42.908 27.8183C43.5853 27.2743 44.116 26.829 44.5 26.4823C44.884 26.1303 45.2067 25.765 45.468 25.3863C45.7347 25.0023 45.868 24.6263 45.868 24.2583C45.868 23.9117 45.7827 23.6397 45.612 23.4423C45.4467 23.2397 45.1773 23.1383 44.804 23.1383C44.4413 23.1383 44.1587 23.253 43.956 23.4823C43.7587 23.7063 43.652 24.0077 43.636 24.3863H42.932C42.9533 23.789 43.1347 23.3277 43.476 23.0023C43.8173 22.677 44.2573 22.5143 44.796 22.5143C45.3453 22.5143 45.78 22.6663 46.1 22.9703C46.4253 23.2743 46.588 23.693 46.588 24.2263C46.588 24.669 46.4547 25.101 46.188 25.5223C45.9267 25.9383 45.628 26.3063 45.292 26.6263C44.956 26.941 44.5267 27.309 44.004 27.7303H46.756V28.3383H42.908V27.8183ZM51.2856 23.2503H48.4776V25.0743C48.6002 24.9037 48.7816 24.765 49.0216 24.6583C49.2616 24.5463 49.5202 24.4903 49.7976 24.4903C50.2402 24.4903 50.6002 24.5837 50.8776 24.7703C51.1549 24.9517 51.3522 25.189 51.4696 25.4823C51.5922 25.7703 51.6536 26.077 51.6536 26.4023C51.6536 26.7863 51.5816 27.1303 51.4376 27.4343C51.2936 27.7383 51.0722 27.9783 50.7736 28.1543C50.4802 28.3303 50.1149 28.4183 49.6776 28.4183C49.1176 28.4183 48.6642 28.2743 48.3176 27.9863C47.9709 27.6983 47.7602 27.3143 47.6856 26.8343H48.3976C48.4669 27.1383 48.6136 27.3757 48.8376 27.5463C49.0616 27.717 49.3442 27.8023 49.6856 27.8023C50.1069 27.8023 50.4242 27.677 50.6376 27.4263C50.8509 27.1703 50.9576 26.8343 50.9576 26.4183C50.9576 26.0023 50.8509 25.6823 50.6376 25.4583C50.4242 25.229 50.1096 25.1143 49.6936 25.1143C49.4109 25.1143 49.1629 25.1837 48.9496 25.3223C48.7416 25.4557 48.5896 25.6397 48.4936 25.8743H47.8056V22.6103H51.2856V23.2503ZM52.973 28.4503C52.8343 28.4503 52.717 28.4023 52.621 28.3063C52.525 28.2103 52.477 28.093 52.477 27.9543C52.477 27.8157 52.525 27.6983 52.621 27.6023C52.717 27.5063 52.8343 27.4583 52.973 27.4583C53.1063 27.4583 53.2183 27.5063 53.309 27.6023C53.405 27.6983 53.453 27.8157 53.453 27.9543C53.453 28.093 53.405 28.2103 53.309 28.3063C53.2183 28.4023 53.1063 28.4503 52.973 28.4503ZM57.9887 23.2503H55.1807V25.0743C55.3034 24.9037 55.4847 24.765 55.7247 24.6583C55.9647 24.5463 56.2234 24.4903 56.5007 24.4903C56.9434 24.4903 57.3034 24.5837 57.5807 24.7703C57.858 24.9517 58.0554 25.189 58.1727 25.4823C58.2954 25.7703 58.3567 26.077 58.3567 26.4023C58.3567 26.7863 58.2847 27.1303 58.1407 27.4343C57.9967 27.7383 57.7754 27.9783 57.4767 28.1543C57.1834 28.3303 56.818 28.4183 56.3807 28.4183C55.8207 28.4183 55.3674 28.2743 55.0207 27.9863C54.674 27.6983 54.4634 27.3143 54.3887 26.8343H55.1007C55.17 27.1383 55.3167 27.3757 55.5407 27.5463C55.7647 27.717 56.0474 27.8023 56.3887 27.8023C56.81 27.8023 57.1274 27.677 57.3407 27.4263C57.554 27.1703 57.6607 26.8343 57.6607 26.4183C57.6607 26.0023 57.554 25.6823 57.3407 25.4583C57.1274 25.229 56.8127 25.1143 56.3967 25.1143C56.114 25.1143 55.866 25.1837 55.6527 25.3223C55.4447 25.4557 55.2927 25.6397 55.1967 25.8743H54.5087V22.6103H57.9887V23.2503ZM59.3241 25.4503C59.3241 24.533 59.4735 23.8183 59.7721 23.3063C60.0708 22.789 60.5935 22.5303 61.3401 22.5303C62.0815 22.5303 62.6015 22.789 62.9001 23.3063C63.1988 23.8183 63.3481 24.533 63.3481 25.4503C63.3481 26.3837 63.1988 27.109 62.9001 27.6263C62.6015 28.1437 62.0815 28.4023 61.3401 28.4023C60.5935 28.4023 60.0708 28.1437 59.7721 27.6263C59.4735 27.109 59.3241 26.3837 59.3241 25.4503ZM62.6281 25.4503C62.6281 24.9863 62.5961 24.5943 62.5321 24.2743C62.4735 23.949 62.3481 23.6877 62.1561 23.4903C61.9695 23.293 61.6975 23.1943 61.3401 23.1943C60.9775 23.1943 60.7001 23.293 60.5081 23.4903C60.3215 23.6877 60.1961 23.949 60.1321 24.2743C60.0735 24.5943 60.0441 24.9863 60.0441 25.4503C60.0441 25.9303 60.0735 26.333 60.1321 26.6583C60.1961 26.9837 60.3215 27.245 60.5081 27.4423C60.7001 27.6397 60.9775 27.7383 61.3401 27.7383C61.6975 27.7383 61.9695 27.6397 62.1561 27.4423C62.3481 27.245 62.4735 26.9837 62.5321 26.6583C62.5961 26.333 62.6281 25.9303 62.6281 25.4503ZM64.3476 25.4503C64.3476 24.533 64.4969 23.8183 64.7956 23.3063C65.0942 22.789 65.6169 22.5303 66.3636 22.5303C67.1049 22.5303 67.6249 22.789 67.9236 23.3063C68.2222 23.8183 68.3716 24.533 68.3716 25.4503C68.3716 26.3837 68.2222 27.109 67.9236 27.6263C67.6249 28.1437 67.1049 28.4023 66.3636 28.4023C65.6169 28.4023 65.0942 28.1437 64.7956 27.6263C64.4969 27.109 64.3476 26.3837 64.3476 25.4503ZM67.6516 25.4503C67.6516 24.9863 67.6196 24.5943 67.5556 24.2743C67.4969 23.949 67.3716 23.6877 67.1796 23.4903C66.9929 23.293 66.7209 23.1943 66.3636 23.1943C66.0009 23.1943 65.7236 23.293 65.5316 23.4903C65.3449 23.6877 65.2196 23.949 65.1556 24.2743C65.0969 24.5943 65.0676 24.9863 65.0676 25.4503C65.0676 25.9303 65.0969 26.333 65.1556 26.6583C65.2196 26.9837 65.3449 27.245 65.5316 27.4423C65.7236 27.6397 66.0009 27.7383 66.3636 27.7383C66.7209 27.7383 66.9929 27.6397 67.1796 27.4423C67.3716 27.245 67.4969 26.9837 67.5556 26.6583C67.6196 26.333 67.6516 25.9303 67.6516 25.4503ZM74.0718 28.4023L72.3518 26.4663V28.4023H71.6238V22.4823H72.3518V25.9623L74.0398 24.0183H75.0558L72.9918 26.2023L75.0638 28.4023H74.0718ZM77.549 23.9463C77.9277 23.9463 78.2583 24.029 78.541 24.1943C78.829 24.3597 79.0423 24.5677 79.181 24.8183V24.0183H79.917V28.4983C79.917 28.8983 79.8317 29.253 79.661 29.5623C79.4903 29.877 79.245 30.1223 78.925 30.2983C78.6103 30.4743 78.2423 30.5623 77.821 30.5623C77.245 30.5623 76.765 30.4263 76.381 30.1543C75.997 29.8823 75.7703 29.5117 75.701 29.0423H76.421C76.501 29.309 76.6663 29.5223 76.917 29.6823C77.1677 29.8477 77.469 29.9303 77.821 29.9303C78.221 29.9303 78.5463 29.805 78.797 29.5543C79.053 29.3037 79.181 28.9517 79.181 28.4983V27.5783C79.037 27.8343 78.8237 28.0477 78.541 28.2183C78.2583 28.389 77.9277 28.4743 77.549 28.4743C77.1597 28.4743 76.805 28.3783 76.485 28.1863C76.1703 27.9943 75.9223 27.725 75.741 27.3783C75.5597 27.0317 75.469 26.637 75.469 26.1943C75.469 25.7463 75.5597 25.3543 75.741 25.0183C75.9223 24.677 76.1703 24.413 76.485 24.2263C76.805 24.0397 77.1597 23.9463 77.549 23.9463ZM79.181 26.2023C79.181 25.8717 79.1143 25.5837 78.981 25.3383C78.8477 25.093 78.6663 24.9063 78.437 24.7783C78.213 24.645 77.965 24.5783 77.693 24.5783C77.421 24.5783 77.173 24.6423 76.949 24.7703C76.725 24.8983 76.5463 25.085 76.413 25.3303C76.2797 25.5757 76.213 25.8637 76.213 26.1943C76.213 26.5303 76.2797 26.8237 76.413 27.0743C76.5463 27.3197 76.725 27.509 76.949 27.6423C77.173 27.7703 77.421 27.8343 77.693 27.8343C77.965 27.8343 78.213 27.7703 78.437 27.6423C78.6663 27.509 78.8477 27.3197 78.981 27.0743C79.1143 26.8237 79.181 26.533 79.181 26.2023Z" fill="black" fill-opacity="0.59"/>
<defs>
<clipPath id="clip0_1467_1250">
<rect width="18" height="17" fill="white" transform="translate(9.25 9.75)"/>
</clipPath>
</defs>
</svg>
