<svg width="143" height="37" viewBox="0 0 143 37" fill="none" xmlns="http://www.w3.org/2000/svg">
<rect width="36.5" height="36.5" rx="18.25" fill="#F8E1EE"/>
<path d="M19.1588 11.1065C18.574 10.8942 17.9267 10.8942 17.3419 11.1065L15.6066 11.7366L22.9191 14.3928L25.4419 13.4764C25.2944 13.3651 25.1298 13.2757 24.9537 13.2113L19.1588 11.1065ZM21.3526 14.9623L14.0395 12.3061L11.5476 13.2113C11.3672 13.2772 11.2041 13.3658 11.0582 13.477L18.2504 16.0886L21.3526 14.9623ZM10.3754 14.8226C10.3754 14.6732 10.3951 14.5283 10.4344 14.3881L17.6879 17.0231V25.4965C17.5702 25.4712 17.4546 25.438 17.3419 25.3972L11.5471 23.2923C11.2022 23.167 10.9057 22.946 10.6965 22.6584C10.4874 22.3707 10.3754 22.03 10.3754 21.6811V14.8226ZM19.1588 25.3972C19.0456 25.4386 18.9302 25.4719 18.8129 25.497V17.0231L26.0663 14.3881C26.1053 14.5283 26.125 14.6732 26.1254 14.8226V21.6811C26.1253 22.03 26.0134 22.3707 25.8042 22.6584C25.595 22.946 25.2985 23.167 24.9537 23.2923L19.1588 25.3972Z" fill="black" fill-opacity="0.7"/>
<path d="M45.655 11.5027C45.9017 11.5027 46.1167 11.4727 46.3 11.4127C46.4833 11.3493 46.635 11.261 46.755 11.1477C46.8783 11.031 46.97 10.891 47.03 10.7277C47.09 10.561 47.12 10.376 47.12 10.1727C47.12 9.97932 47.09 9.80432 47.03 9.64766C46.97 9.49099 46.88 9.35766 46.76 9.24766C46.64 9.13766 46.4883 9.05432 46.305 8.99766C46.1217 8.93766 45.905 8.90766 45.655 8.90766H44.65V11.5027H45.655ZM45.655 7.86766C46.1383 7.86766 46.5567 7.92432 46.91 8.03766C47.2633 8.15099 47.555 8.30932 47.785 8.51266C48.015 8.71599 48.185 8.95932 48.295 9.24266C48.4083 9.52599 48.465 9.83599 48.465 10.1727C48.465 10.5227 48.4067 10.8443 48.29 11.1377C48.1733 11.4277 47.9983 11.6777 47.765 11.8877C47.5317 12.0977 47.2383 12.261 46.885 12.3777C46.535 12.4943 46.125 12.5527 45.655 12.5527H44.65V15.0977H43.305V7.86766H45.655ZM50.5619 9.96766V15.0977H49.3219V9.96766H50.5619ZM50.7319 8.47266C50.7319 8.57932 50.7102 8.67932 50.6669 8.77266C50.6235 8.86599 50.5652 8.94766 50.4919 9.01766C50.4219 9.08766 50.3385 9.14432 50.2419 9.18766C50.1452 9.22766 50.0419 9.24766 49.9319 9.24766C49.8252 9.24766 49.7235 9.22766 49.6269 9.18766C49.5335 9.14432 49.4519 9.08766 49.3819 9.01766C49.3119 8.94766 49.2552 8.86599 49.2119 8.77266C49.1719 8.67932 49.1519 8.57932 49.1519 8.47266C49.1519 8.36266 49.1719 8.25932 49.2119 8.16266C49.2552 8.06599 49.3119 7.98266 49.3819 7.91266C49.4519 7.84266 49.5335 7.78766 49.6269 7.74766C49.7235 7.70432 49.8252 7.68266 49.9319 7.68266C50.0419 7.68266 50.1452 7.70432 50.2419 7.74766C50.3385 7.78766 50.4219 7.84266 50.4919 7.91266C50.5652 7.98266 50.6235 8.06599 50.6669 8.16266C50.7102 8.25932 50.7319 8.36266 50.7319 8.47266ZM55.1259 11.9427C55.1259 11.7827 55.1026 11.6327 55.0559 11.4927C55.0126 11.3493 54.9459 11.2243 54.8559 11.1177C54.7659 11.011 54.6509 10.9277 54.5109 10.8677C54.3743 10.8043 54.2143 10.7727 54.0309 10.7727C53.6743 10.7727 53.3926 10.8743 53.1859 11.0777C52.9826 11.281 52.8526 11.5693 52.7959 11.9427H55.1259ZM52.7709 12.6877C52.7909 12.951 52.8376 13.1793 52.9109 13.3727C52.9843 13.5627 53.0809 13.721 53.2009 13.8477C53.3209 13.971 53.4626 14.0643 53.6259 14.1277C53.7926 14.1877 53.9759 14.2177 54.1759 14.2177C54.3759 14.2177 54.5476 14.1943 54.6909 14.1477C54.8376 14.101 54.9643 14.0493 55.0709 13.9927C55.1809 13.936 55.2759 13.8843 55.3559 13.8377C55.4393 13.791 55.5193 13.7677 55.5959 13.7677C55.6993 13.7677 55.7759 13.806 55.8259 13.8827L56.1809 14.3327C56.0443 14.4927 55.8909 14.6277 55.7209 14.7377C55.5509 14.8443 55.3726 14.931 55.1859 14.9977C55.0026 15.061 54.8143 15.106 54.6209 15.1327C54.4309 15.1593 54.2459 15.1727 54.0659 15.1727C53.7093 15.1727 53.3776 15.1143 53.0709 14.9977C52.7643 14.8777 52.4976 14.7027 52.2709 14.4727C52.0443 14.2393 51.8659 13.9527 51.7359 13.6127C51.6059 13.2693 51.5409 12.8727 51.5409 12.4227C51.5409 12.0727 51.5976 11.7443 51.7109 11.4377C51.8243 11.1277 51.9859 10.8593 52.1959 10.6327C52.4093 10.4027 52.6676 10.221 52.9709 10.0877C53.2776 9.95432 53.6226 9.88766 54.0059 9.88766C54.3293 9.88766 54.6276 9.93932 54.9009 10.0427C55.1743 10.146 55.4093 10.2977 55.6059 10.4977C55.8026 10.6943 55.9559 10.9377 56.0659 11.2277C56.1793 11.5143 56.2359 11.8427 56.2359 12.2127C56.2359 12.3993 56.2159 12.526 56.1759 12.5927C56.1359 12.656 56.0593 12.6877 55.9459 12.6877H52.7709ZM60.8377 11.0527C60.8011 11.0993 60.7644 11.136 60.7277 11.1627C60.6944 11.1893 60.6444 11.2027 60.5777 11.2027C60.5144 11.2027 60.4527 11.1843 60.3927 11.1477C60.3327 11.1077 60.2611 11.0643 60.1777 11.0177C60.0944 10.9677 59.9944 10.9243 59.8777 10.8877C59.7644 10.8477 59.6227 10.8277 59.4527 10.8277C59.2361 10.8277 59.0461 10.8677 58.8827 10.9477C58.7194 11.0243 58.5827 11.136 58.4727 11.2827C58.3661 11.4293 58.2861 11.6077 58.2327 11.8177C58.1794 12.0243 58.1527 12.2593 58.1527 12.5227C58.1527 12.796 58.1811 13.0393 58.2377 13.2527C58.2977 13.466 58.3827 13.646 58.4927 13.7927C58.6027 13.936 58.7361 14.046 58.8927 14.1227C59.0494 14.196 59.2261 14.2327 59.4227 14.2327C59.6194 14.2327 59.7777 14.2093 59.8977 14.1627C60.0211 14.1127 60.1244 14.0593 60.2077 14.0027C60.2911 13.9427 60.3627 13.8893 60.4227 13.8427C60.4861 13.7927 60.5561 13.7677 60.6327 13.7677C60.7327 13.7677 60.8077 13.806 60.8577 13.8827L61.2127 14.3327C61.0761 14.4927 60.9277 14.6277 60.7677 14.7377C60.6077 14.8443 60.4411 14.931 60.2677 14.9977C60.0977 15.061 59.9211 15.106 59.7377 15.1327C59.5577 15.1593 59.3777 15.1727 59.1977 15.1727C58.8811 15.1727 58.5827 15.1143 58.3027 14.9977C58.0227 14.8777 57.7777 14.7043 57.5677 14.4777C57.3577 14.251 57.1911 13.9743 57.0677 13.6477C56.9477 13.3177 56.8877 12.9427 56.8877 12.5227C56.8877 12.146 56.9411 11.7977 57.0477 11.4777C57.1577 11.1543 57.3177 10.876 57.5277 10.6427C57.7377 10.406 57.9977 10.221 58.3077 10.0877C58.6177 9.95432 58.9744 9.88766 59.3777 9.88766C59.7611 9.88766 60.0961 9.94932 60.3827 10.0727C60.6727 10.196 60.9327 10.3727 61.1627 10.6027L60.8377 11.0527ZM65.2041 11.9427C65.2041 11.7827 65.1807 11.6327 65.1341 11.4927C65.0907 11.3493 65.0241 11.2243 64.9341 11.1177C64.8441 11.011 64.7291 10.9277 64.5891 10.8677C64.4524 10.8043 64.2924 10.7727 64.1091 10.7727C63.7524 10.7727 63.4707 10.8743 63.2641 11.0777C63.0607 11.281 62.9307 11.5693 62.8741 11.9427H65.2041ZM62.8491 12.6877C62.8691 12.951 62.9157 13.1793 62.9891 13.3727C63.0624 13.5627 63.1591 13.721 63.2791 13.8477C63.3991 13.971 63.5407 14.0643 63.7041 14.1277C63.8707 14.1877 64.0541 14.2177 64.2541 14.2177C64.4541 14.2177 64.6257 14.1943 64.7691 14.1477C64.9157 14.101 65.0424 14.0493 65.1491 13.9927C65.2591 13.936 65.3541 13.8843 65.4341 13.8377C65.5174 13.791 65.5974 13.7677 65.6741 13.7677C65.7774 13.7677 65.8541 13.806 65.9041 13.8827L66.2591 14.3327C66.1224 14.4927 65.9691 14.6277 65.7991 14.7377C65.6291 14.8443 65.4507 14.931 65.2641 14.9977C65.0807 15.061 64.8924 15.106 64.6991 15.1327C64.5091 15.1593 64.3241 15.1727 64.1441 15.1727C63.7874 15.1727 63.4557 15.1143 63.1491 14.9977C62.8424 14.8777 62.5757 14.7027 62.3491 14.4727C62.1224 14.2393 61.9441 13.9527 61.8141 13.6127C61.6841 13.2693 61.6191 12.8727 61.6191 12.4227C61.6191 12.0727 61.6757 11.7443 61.7891 11.4377C61.9024 11.1277 62.0641 10.8593 62.2741 10.6327C62.4874 10.4027 62.7457 10.221 63.0491 10.0877C63.3557 9.95432 63.7007 9.88766 64.0841 9.88766C64.4074 9.88766 64.7057 9.93932 64.9791 10.0427C65.2524 10.146 65.4874 10.2977 65.6841 10.4977C65.8807 10.6943 66.0341 10.9377 66.1441 11.2277C66.2574 11.5143 66.3141 11.8427 66.3141 12.2127C66.3141 12.3993 66.2941 12.526 66.2541 12.5927C66.2141 12.656 66.1374 12.6877 66.0241 12.6877H62.8491ZM70.3709 10.9677C70.3375 11.021 70.3025 11.0593 70.2659 11.0827C70.2292 11.1027 70.1825 11.1127 70.1259 11.1127C70.0659 11.1127 70.0009 11.096 69.9309 11.0627C69.8642 11.0293 69.7859 10.9927 69.6959 10.9527C69.6059 10.9093 69.5025 10.871 69.3859 10.8377C69.2725 10.8043 69.1375 10.7877 68.9809 10.7877C68.7375 10.7877 68.5459 10.8393 68.4059 10.9427C68.2692 11.046 68.2009 11.181 68.2009 11.3477C68.2009 11.4577 68.2359 11.551 68.3059 11.6277C68.3792 11.701 68.4742 11.766 68.5909 11.8227C68.7109 11.8793 68.8459 11.931 68.9959 11.9777C69.1459 12.021 69.2975 12.0693 69.4509 12.1227C69.6075 12.176 69.7609 12.2377 69.9109 12.3077C70.0609 12.3743 70.1942 12.461 70.3109 12.5677C70.4309 12.671 70.5259 12.796 70.5959 12.9427C70.6692 13.0893 70.7059 13.266 70.7059 13.4727C70.7059 13.7193 70.6609 13.9477 70.5709 14.1577C70.4842 14.3643 70.3542 14.5443 70.1809 14.6977C70.0075 14.8477 69.7925 14.966 69.5359 15.0527C69.2825 15.136 68.9892 15.1777 68.6559 15.1777C68.4792 15.1777 68.3059 15.161 68.1359 15.1277C67.9692 15.0977 67.8075 15.0543 67.6509 14.9977C67.4975 14.941 67.3542 14.8743 67.2209 14.7977C67.0909 14.721 66.9759 14.6377 66.8759 14.5477L67.1609 14.0777C67.1975 14.021 67.2409 13.9777 67.2909 13.9477C67.3409 13.9177 67.4042 13.9027 67.4809 13.9027C67.5575 13.9027 67.6292 13.9243 67.6959 13.9677C67.7659 14.011 67.8459 14.0577 67.9359 14.1077C68.0259 14.1577 68.1309 14.2043 68.2509 14.2477C68.3742 14.291 68.5292 14.3127 68.7159 14.3127C68.8625 14.3127 68.9875 14.296 69.0909 14.2627C69.1975 14.226 69.2842 14.1793 69.3509 14.1227C69.4209 14.066 69.4709 14.001 69.5009 13.9277C69.5342 13.851 69.5509 13.7727 69.5509 13.6927C69.5509 13.5727 69.5142 13.4743 69.4409 13.3977C69.3709 13.321 69.2759 13.2543 69.1559 13.1977C69.0392 13.141 68.9042 13.091 68.7509 13.0477C68.6009 13.001 68.4459 12.951 68.2859 12.8977C68.1292 12.8443 67.9742 12.7827 67.8209 12.7127C67.6709 12.6393 67.5359 12.5477 67.4159 12.4377C67.2992 12.3277 67.2042 12.1927 67.1309 12.0327C67.0609 11.8727 67.0259 11.6793 67.0259 11.4527C67.0259 11.2427 67.0675 11.0427 67.1509 10.8527C67.2342 10.6627 67.3559 10.4977 67.5159 10.3577C67.6792 10.2143 67.8809 10.101 68.1209 10.0177C68.3642 9.93099 68.6442 9.88766 68.9609 9.88766C69.3142 9.88766 69.6359 9.94599 69.9259 10.0627C70.2159 10.1793 70.4575 10.3327 70.6509 10.5227L70.3709 10.9677ZM75.302 13.7677C75.442 13.9377 75.5937 14.0577 75.757 14.1277C75.9237 14.1977 76.1037 14.2327 76.297 14.2327C76.4837 14.2327 76.652 14.1977 76.802 14.1277C76.952 14.0577 77.0787 13.951 77.182 13.8077C77.2887 13.6643 77.3704 13.4843 77.427 13.2677C77.4837 13.0477 77.512 12.7893 77.512 12.4927C77.512 12.1927 77.487 11.9393 77.437 11.7327C77.3904 11.5227 77.322 11.3527 77.232 11.2227C77.142 11.0927 77.032 10.9977 76.902 10.9377C76.7754 10.8777 76.6304 10.8477 76.467 10.8477C76.2104 10.8477 75.992 10.9027 75.812 11.0127C75.632 11.1193 75.462 11.271 75.302 11.4677V13.7677ZM75.237 10.6677C75.447 10.431 75.6854 10.2393 75.952 10.0927C76.2187 9.94599 76.532 9.87266 76.892 9.87266C77.172 9.87266 77.427 9.93099 77.657 10.0477C77.8904 10.1643 78.0904 10.3343 78.257 10.5577C78.427 10.7777 78.557 11.051 78.647 11.3777C78.7404 11.701 78.787 12.0727 78.787 12.4927C78.787 12.876 78.7354 13.231 78.632 13.5577C78.5287 13.8843 78.3804 14.1677 78.187 14.4077C77.997 14.6477 77.7654 14.836 77.492 14.9727C77.222 15.106 76.9187 15.1727 76.582 15.1727C76.2954 15.1727 76.0504 15.1293 75.847 15.0427C75.6437 14.9527 75.462 14.8293 75.302 14.6727V16.7727H74.067V9.96766H74.822C74.982 9.96766 75.087 10.0427 75.137 10.1927L75.237 10.6677ZM83.0556 11.9427C83.0556 11.7827 83.0323 11.6327 82.9856 11.4927C82.9423 11.3493 82.8756 11.2243 82.7856 11.1177C82.6956 11.011 82.5806 10.9277 82.4406 10.8677C82.304 10.8043 82.144 10.7727 81.9606 10.7727C81.604 10.7727 81.3223 10.8743 81.1156 11.0777C80.9123 11.281 80.7823 11.5693 80.7256 11.9427H83.0556ZM80.7006 12.6877C80.7206 12.951 80.7673 13.1793 80.8406 13.3727C80.914 13.5627 81.0106 13.721 81.1306 13.8477C81.2506 13.971 81.3923 14.0643 81.5556 14.1277C81.7223 14.1877 81.9056 14.2177 82.1056 14.2177C82.3056 14.2177 82.4773 14.1943 82.6206 14.1477C82.7673 14.101 82.894 14.0493 83.0006 13.9927C83.1106 13.936 83.2056 13.8843 83.2856 13.8377C83.369 13.791 83.449 13.7677 83.5256 13.7677C83.629 13.7677 83.7056 13.806 83.7556 13.8827L84.1106 14.3327C83.974 14.4927 83.8206 14.6277 83.6506 14.7377C83.4806 14.8443 83.3023 14.931 83.1156 14.9977C82.9323 15.061 82.744 15.106 82.5506 15.1327C82.3606 15.1593 82.1756 15.1727 81.9956 15.1727C81.639 15.1727 81.3073 15.1143 81.0006 14.9977C80.694 14.8777 80.4273 14.7027 80.2006 14.4727C79.974 14.2393 79.7956 13.9527 79.6656 13.6127C79.5356 13.2693 79.4706 12.8727 79.4706 12.4227C79.4706 12.0727 79.5273 11.7443 79.6406 11.4377C79.754 11.1277 79.9156 10.8593 80.1256 10.6327C80.339 10.4027 80.5973 10.221 80.9006 10.0877C81.2073 9.95432 81.5523 9.88766 81.9356 9.88766C82.259 9.88766 82.5573 9.93932 82.8306 10.0427C83.104 10.146 83.339 10.2977 83.5356 10.4977C83.7323 10.6943 83.8856 10.9377 83.9956 11.2277C84.109 11.5143 84.1656 11.8427 84.1656 12.2127C84.1656 12.3993 84.1456 12.526 84.1056 12.5927C84.0656 12.656 83.989 12.6877 83.8756 12.6877H80.7006ZM86.2574 10.8577C86.4174 10.551 86.6074 10.311 86.8274 10.1377C87.0474 9.96099 87.3074 9.87266 87.6074 9.87266C87.8441 9.87266 88.0341 9.92432 88.1774 10.0277L88.0974 10.9527C88.0808 11.0127 88.0558 11.056 88.0224 11.0827C87.9924 11.106 87.9508 11.1177 87.8974 11.1177C87.8474 11.1177 87.7724 11.1093 87.6724 11.0927C87.5758 11.076 87.4808 11.0677 87.3874 11.0677C87.2508 11.0677 87.1291 11.0877 87.0224 11.1277C86.9158 11.1677 86.8191 11.226 86.7324 11.3027C86.6491 11.376 86.5741 11.466 86.5074 11.5727C86.4441 11.6793 86.3841 11.801 86.3274 11.9377V15.0977H85.0924V9.96766H85.8174C85.9441 9.96766 86.0324 9.99099 86.0824 10.0377C86.1324 10.081 86.1658 10.161 86.1824 10.2777L86.2574 10.8577ZM94.7147 11.0527C94.678 11.0993 94.6414 11.136 94.6047 11.1627C94.5714 11.1893 94.5214 11.2027 94.4547 11.2027C94.3914 11.2027 94.3297 11.1843 94.2697 11.1477C94.2097 11.1077 94.138 11.0643 94.0547 11.0177C93.9714 10.9677 93.8714 10.9243 93.7547 10.8877C93.6414 10.8477 93.4997 10.8277 93.3297 10.8277C93.113 10.8277 92.923 10.8677 92.7597 10.9477C92.5964 11.0243 92.4597 11.136 92.3497 11.2827C92.243 11.4293 92.163 11.6077 92.1097 11.8177C92.0564 12.0243 92.0297 12.2593 92.0297 12.5227C92.0297 12.796 92.058 13.0393 92.1147 13.2527C92.1747 13.466 92.2597 13.646 92.3697 13.7927C92.4797 13.936 92.613 14.046 92.7697 14.1227C92.9264 14.196 93.103 14.2327 93.2997 14.2327C93.4964 14.2327 93.6547 14.2093 93.7747 14.1627C93.898 14.1127 94.0014 14.0593 94.0847 14.0027C94.168 13.9427 94.2397 13.8893 94.2997 13.8427C94.363 13.7927 94.433 13.7677 94.5097 13.7677C94.6097 13.7677 94.6847 13.806 94.7347 13.8827L95.0897 14.3327C94.953 14.4927 94.8047 14.6277 94.6447 14.7377C94.4847 14.8443 94.318 14.931 94.1447 14.9977C93.9747 15.061 93.798 15.106 93.6147 15.1327C93.4347 15.1593 93.2547 15.1727 93.0747 15.1727C92.758 15.1727 92.4597 15.1143 92.1797 14.9977C91.8997 14.8777 91.6547 14.7043 91.4447 14.4777C91.2347 14.251 91.068 13.9743 90.9447 13.6477C90.8247 13.3177 90.7647 12.9427 90.7647 12.5227C90.7647 12.146 90.818 11.7977 90.9247 11.4777C91.0347 11.1543 91.1947 10.876 91.4047 10.6427C91.6147 10.406 91.8747 10.221 92.1847 10.0877C92.4947 9.95432 92.8514 9.88766 93.2547 9.88766C93.638 9.88766 93.973 9.94932 94.2597 10.0727C94.5497 10.196 94.8097 10.3727 95.0397 10.6027L94.7147 11.0527ZM98.5739 12.9077C98.2172 12.9243 97.9172 12.956 97.6739 13.0027C97.4306 13.046 97.2356 13.1027 97.0889 13.1727C96.9422 13.2427 96.8372 13.3243 96.7739 13.4177C96.7106 13.511 96.6789 13.6127 96.6789 13.7227C96.6789 13.9393 96.7422 14.0943 96.8689 14.1877C96.9989 14.281 97.1672 14.3277 97.3739 14.3277C97.6272 14.3277 97.8456 14.2827 98.0289 14.1927C98.2156 14.0993 98.3972 13.9593 98.5739 13.7727V12.9077ZM95.7439 10.6827C96.3339 10.1427 97.0439 9.87266 97.8739 9.87266C98.1739 9.87266 98.4422 9.92266 98.6789 10.0227C98.9156 10.1193 99.1156 10.256 99.2789 10.4327C99.4422 10.606 99.5656 10.8143 99.6489 11.0577C99.7356 11.301 99.7789 11.5677 99.7789 11.8577V15.0977H99.2189C99.1022 15.0977 99.0122 15.081 98.9489 15.0477C98.8856 15.011 98.8356 14.9393 98.7989 14.8327L98.6889 14.4627C98.5589 14.5793 98.4322 14.6827 98.3089 14.7727C98.1856 14.8593 98.0572 14.9327 97.9239 14.9927C97.7906 15.0527 97.6472 15.0977 97.4939 15.1277C97.3439 15.161 97.1772 15.1777 96.9939 15.1777C96.7772 15.1777 96.5772 15.1493 96.3939 15.0927C96.2106 15.0327 96.0522 14.9443 95.9189 14.8277C95.7856 14.711 95.6822 14.566 95.6089 14.3927C95.5356 14.2193 95.4989 14.0177 95.4989 13.7877C95.4989 13.6577 95.5206 13.5293 95.5639 13.4027C95.6072 13.2727 95.6772 13.1493 95.7739 13.0327C95.8739 12.916 96.0022 12.806 96.1589 12.7027C96.3156 12.5993 96.5072 12.5093 96.7339 12.4327C96.9639 12.356 97.2306 12.2943 97.5339 12.2477C97.8372 12.1977 98.1839 12.1677 98.5739 12.1577V11.8577C98.5739 11.5143 98.5006 11.261 98.3539 11.0977C98.2072 10.931 97.9956 10.8477 97.7189 10.8477C97.5189 10.8477 97.3522 10.871 97.2189 10.9177C97.0889 10.9643 96.9739 11.0177 96.8739 11.0777C96.7739 11.1343 96.6822 11.186 96.5989 11.2327C96.5189 11.2793 96.4289 11.3027 96.3289 11.3027C96.2422 11.3027 96.1689 11.281 96.1089 11.2377C96.0489 11.191 96.0006 11.1377 95.9639 11.0777L95.7439 10.6827ZM102.107 10.8577C102.267 10.551 102.457 10.311 102.677 10.1377C102.897 9.96099 103.157 9.87266 103.457 9.87266C103.694 9.87266 103.884 9.92432 104.027 10.0277L103.947 10.9527C103.93 11.0127 103.905 11.056 103.872 11.0827C103.842 11.106 103.8 11.1177 103.747 11.1177C103.697 11.1177 103.622 11.1093 103.522 11.0927C103.425 11.076 103.33 11.0677 103.237 11.0677C103.1 11.0677 102.979 11.0877 102.872 11.1277C102.765 11.1677 102.669 11.226 102.582 11.3027C102.499 11.376 102.424 11.466 102.357 11.5727C102.294 11.6793 102.234 11.801 102.177 11.9377V15.0977H100.942V9.96766H101.667C101.794 9.96766 101.882 9.99099 101.932 10.0377C101.982 10.081 102.015 10.161 102.032 10.2777L102.107 10.8577ZM106.383 15.1777C105.936 15.1777 105.593 15.0527 105.353 14.8027C105.116 14.5493 104.998 14.201 104.998 13.7577V10.8927H104.473C104.406 10.8927 104.349 10.871 104.303 10.8277C104.256 10.7843 104.233 10.7193 104.233 10.6327V10.1427L105.058 10.0077L105.318 8.60766C105.334 8.54099 105.366 8.48932 105.413 8.45266C105.459 8.41599 105.519 8.39766 105.593 8.39766H106.233V10.0127H107.603V10.8927H106.233V13.6727C106.233 13.8327 106.271 13.9577 106.348 14.0477C106.428 14.1377 106.536 14.1827 106.673 14.1827C106.749 14.1827 106.813 14.1743 106.863 14.1577C106.916 14.1377 106.961 14.1177 106.998 14.0977C107.038 14.0777 107.073 14.0593 107.103 14.0427C107.133 14.0227 107.163 14.0127 107.193 14.0127C107.229 14.0127 107.259 14.0227 107.283 14.0427C107.306 14.0593 107.331 14.086 107.358 14.1227L107.728 14.7227C107.548 14.8727 107.341 14.986 107.108 15.0627C106.874 15.1393 106.633 15.1777 106.383 15.1777ZM110.624 9.88766C111.004 9.88766 111.349 9.94932 111.659 10.0727C111.972 10.196 112.239 10.371 112.459 10.5977C112.682 10.8243 112.854 11.101 112.974 11.4277C113.094 11.7543 113.154 12.1193 113.154 12.5227C113.154 12.9293 113.094 13.296 112.974 13.6227C112.854 13.9493 112.682 14.2277 112.459 14.4577C112.239 14.6877 111.972 14.8643 111.659 14.9877C111.349 15.111 111.004 15.1727 110.624 15.1727C110.241 15.1727 109.892 15.111 109.579 14.9877C109.266 14.8643 108.997 14.6877 108.774 14.4577C108.554 14.2277 108.382 13.9493 108.259 13.6227C108.139 13.296 108.079 12.9293 108.079 12.5227C108.079 12.1193 108.139 11.7543 108.259 11.4277C108.382 11.101 108.554 10.8243 108.774 10.5977C108.997 10.371 109.266 10.196 109.579 10.0727C109.892 9.94932 110.241 9.88766 110.624 9.88766ZM110.624 14.2227C111.051 14.2227 111.366 14.0793 111.569 13.7927C111.776 13.506 111.879 13.086 111.879 12.5327C111.879 11.9793 111.776 11.5577 111.569 11.2677C111.366 10.9777 111.051 10.8327 110.624 10.8327C110.191 10.8327 109.869 10.9793 109.659 11.2727C109.452 11.5627 109.349 11.9827 109.349 12.5327C109.349 13.0827 109.452 13.5027 109.659 13.7927C109.869 14.0793 110.191 14.2227 110.624 14.2227ZM115.251 10.5977C115.355 10.4943 115.463 10.3993 115.576 10.3127C115.693 10.2227 115.815 10.1477 115.941 10.0877C116.071 10.0243 116.21 9.97599 116.356 9.94266C116.503 9.90599 116.663 9.88766 116.836 9.88766C117.116 9.88766 117.365 9.93599 117.581 10.0327C117.798 10.126 117.978 10.2593 118.121 10.4327C118.268 10.6027 118.378 10.8077 118.451 11.0477C118.528 11.2843 118.566 11.546 118.566 11.8327V15.0977H117.331V11.8327C117.331 11.5193 117.26 11.2777 117.116 11.1077C116.973 10.9343 116.755 10.8477 116.461 10.8477C116.248 10.8477 116.048 10.896 115.861 10.9927C115.675 11.0893 115.498 11.221 115.331 11.3877V15.0977H114.096V9.96766H114.851C115.011 9.96766 115.116 10.0427 115.166 10.1927L115.251 10.5977Z" fill="black"/>
<path d="M42.98 24.0743C43.0173 23.5837 43.2067 23.1997 43.548 22.9223C43.8893 22.645 44.332 22.5063 44.876 22.5063C45.2387 22.5063 45.5507 22.573 45.812 22.7063C46.0787 22.8343 46.2787 23.0103 46.412 23.2343C46.5507 23.4583 46.62 23.7117 46.62 23.9943C46.62 24.325 46.524 24.6103 46.332 24.8503C46.1453 25.0903 45.9 25.245 45.596 25.3143V25.3543C45.9427 25.4397 46.2173 25.6077 46.42 25.8583C46.6227 26.109 46.724 26.437 46.724 26.8423C46.724 27.1463 46.6547 27.421 46.516 27.6663C46.3773 27.9063 46.1693 28.0957 45.892 28.2343C45.6147 28.373 45.2813 28.4423 44.892 28.4423C44.3267 28.4423 43.8627 28.2957 43.5 28.0023C43.1373 27.7037 42.9347 27.2823 42.892 26.7383H43.596C43.6333 27.0583 43.764 27.3197 43.988 27.5223C44.212 27.725 44.5107 27.8263 44.884 27.8263C45.2573 27.8263 45.54 27.7303 45.732 27.5383C45.9293 27.341 46.028 27.0877 46.028 26.7783C46.028 26.3783 45.8947 26.0903 45.628 25.9143C45.3613 25.7383 44.9587 25.6503 44.42 25.6503H44.236V25.0423H44.428C44.9187 25.037 45.2893 24.957 45.54 24.8023C45.7907 24.6423 45.916 24.397 45.916 24.0663C45.916 23.7837 45.8227 23.557 45.636 23.3863C45.4547 23.2157 45.1933 23.1303 44.852 23.1303C44.5213 23.1303 44.2547 23.2157 44.052 23.3863C43.8493 23.557 43.7293 23.7863 43.692 24.0743H42.98ZM47.7069 25.4503C47.7069 24.533 47.8563 23.8183 48.1549 23.3063C48.4536 22.789 48.9763 22.5303 49.7229 22.5303C50.4643 22.5303 50.9843 22.789 51.2829 23.3063C51.5816 23.8183 51.7309 24.533 51.7309 25.4503C51.7309 26.3837 51.5816 27.109 51.2829 27.6263C50.9843 28.1437 50.4643 28.4023 49.7229 28.4023C48.9763 28.4023 48.4536 28.1437 48.1549 27.6263C47.8563 27.109 47.7069 26.3837 47.7069 25.4503ZM51.0109 25.4503C51.0109 24.9863 50.9789 24.5943 50.9149 24.2743C50.8563 23.949 50.7309 23.6877 50.5389 23.4903C50.3523 23.293 50.0803 23.1943 49.7229 23.1943C49.3603 23.1943 49.0829 23.293 48.8909 23.4903C48.7043 23.6877 48.5789 23.949 48.5149 24.2743C48.4563 24.5943 48.4269 24.9863 48.4269 25.4503C48.4269 25.9303 48.4563 26.333 48.5149 26.6583C48.5789 26.9837 48.7043 27.245 48.8909 27.4423C49.0829 27.6397 49.3603 27.7383 49.7229 27.7383C50.0803 27.7383 50.3523 27.6397 50.5389 27.4423C50.7309 27.245 50.8563 26.9837 50.9149 26.6583C50.9789 26.333 51.0109 25.9303 51.0109 25.4503ZM52.7304 25.4503C52.7304 24.533 52.8797 23.8183 53.1784 23.3063C53.477 22.789 53.9997 22.5303 54.7464 22.5303C55.4877 22.5303 56.0077 22.789 56.3064 23.3063C56.605 23.8183 56.7544 24.533 56.7544 25.4503C56.7544 26.3837 56.605 27.109 56.3064 27.6263C56.0077 28.1437 55.4877 28.4023 54.7464 28.4023C53.9997 28.4023 53.477 28.1437 53.1784 27.6263C52.8797 27.109 52.7304 26.3837 52.7304 25.4503ZM56.0344 25.4503C56.0344 24.9863 56.0024 24.5943 55.9384 24.2743C55.8797 23.949 55.7544 23.6877 55.5624 23.4903C55.3757 23.293 55.1037 23.1943 54.7464 23.1943C54.3837 23.1943 54.1064 23.293 53.9144 23.4903C53.7277 23.6877 53.6024 23.949 53.5384 24.2743C53.4797 24.5943 53.4504 24.9863 53.4504 25.4503C53.4504 25.9303 53.4797 26.333 53.5384 26.6583C53.6024 26.9837 53.7277 27.245 53.9144 27.4423C54.1064 27.6397 54.3837 27.7383 54.7464 27.7383C55.1037 27.7383 55.3757 27.6397 55.5624 27.4423C55.7544 27.245 55.8797 26.9837 55.9384 26.6583C56.0024 26.333 56.0344 25.9303 56.0344 25.4503ZM62.2578 28.4023H61.5298L58.6018 23.9623V28.4023H57.8738V22.8183H58.6018L61.5298 27.2503V22.8183H62.2578V28.4023ZM65.4108 28.4743C65.0001 28.4743 64.6268 28.381 64.2908 28.1943C63.9601 28.0077 63.6988 27.7437 63.5068 27.4023C63.3201 27.0557 63.2268 26.6557 63.2268 26.2023C63.2268 25.7543 63.3228 25.3597 63.5148 25.0183C63.7121 24.6717 63.9788 24.4077 64.3148 24.2263C64.6508 24.0397 65.0268 23.9463 65.4428 23.9463C65.8588 23.9463 66.2348 24.0397 66.5708 24.2263C66.9068 24.4077 67.1708 24.669 67.3628 25.0103C67.5601 25.3517 67.6588 25.749 67.6588 26.2023C67.6588 26.6557 67.5575 27.0557 67.3548 27.4023C67.1575 27.7437 66.8881 28.0077 66.5468 28.1943C66.2055 28.381 65.8268 28.4743 65.4108 28.4743ZM65.4108 27.8343C65.6721 27.8343 65.9175 27.773 66.1468 27.6503C66.3761 27.5277 66.5601 27.3437 66.6988 27.0983C66.8428 26.853 66.9148 26.5543 66.9148 26.2023C66.9148 25.8503 66.8455 25.5517 66.7068 25.3063C66.5681 25.061 66.3868 24.8797 66.1628 24.7623C65.9388 24.6397 65.6961 24.5783 65.4348 24.5783C65.1681 24.5783 64.9228 24.6397 64.6988 24.7623C64.4801 24.8797 64.3041 25.061 64.1708 25.3063C64.0375 25.5517 63.9708 25.8503 63.9708 26.2023C63.9708 26.5597 64.0348 26.861 64.1628 27.1063C64.2961 27.3517 64.4721 27.5357 64.6908 27.6583C64.9095 27.7757 65.1495 27.8343 65.4108 27.8343ZM70.168 28.4743C69.832 28.4743 69.5307 28.4183 69.264 28.3063C68.9973 28.189 68.7867 28.029 68.632 27.8263C68.4773 27.6183 68.392 27.381 68.376 27.1143H69.128C69.1493 27.333 69.2507 27.5117 69.432 27.6503C69.6187 27.789 69.8613 27.8583 70.16 27.8583C70.4373 27.8583 70.656 27.797 70.816 27.6743C70.976 27.5517 71.056 27.397 71.056 27.2103C71.056 27.0183 70.9707 26.877 70.8 26.7863C70.6293 26.6903 70.3653 26.597 70.008 26.5063C69.6827 26.421 69.416 26.3357 69.208 26.2503C69.0053 26.1597 68.8293 26.029 68.68 25.8583C68.536 25.6823 68.464 25.453 68.464 25.1703C68.464 24.9463 68.5307 24.741 68.664 24.5543C68.7973 24.3677 68.9867 24.221 69.232 24.1143C69.4773 24.0023 69.7573 23.9463 70.072 23.9463C70.5573 23.9463 70.9493 24.069 71.248 24.3143C71.5467 24.5597 71.7067 24.8957 71.728 25.3223H71C70.984 25.093 70.8907 24.909 70.72 24.7703C70.5547 24.6317 70.3307 24.5623 70.048 24.5623C69.7867 24.5623 69.5787 24.6183 69.424 24.7303C69.2693 24.8423 69.192 24.989 69.192 25.1703C69.192 25.3143 69.2373 25.4343 69.328 25.5303C69.424 25.621 69.5413 25.6957 69.68 25.7543C69.824 25.8077 70.0213 25.869 70.272 25.9383C70.5867 26.0237 70.8427 26.109 71.04 26.1943C71.2373 26.2743 71.4053 26.397 71.544 26.5623C71.688 26.7277 71.7627 26.9437 71.768 27.2103C71.768 27.4503 71.7013 27.6663 71.568 27.8583C71.4347 28.0503 71.2453 28.2023 71 28.3143C70.76 28.421 70.4827 28.4743 70.168 28.4743Z" fill="black" fill-opacity="0.59"/>
</svg>
