<svg width="143" height="37" viewBox="0 0 143 37" fill="none" xmlns="http://www.w3.org/2000/svg">
<rect width="36.5" height="36.5" rx="18.25" fill="#F8E1EE"/>
<path d="M18.2489 14.2917C18.4732 14.2917 18.6613 14.2157 18.8133 14.0637C18.9653 13.9117 19.0411 13.7238 19.0405 13.5C19.04 13.2762 18.964 13.0883 18.8125 12.9363C18.6611 12.7843 18.4732 12.7083 18.2489 12.7083C18.0246 12.7083 17.8367 12.7843 17.6852 12.9363C17.5337 13.0883 17.4577 13.2762 17.4572 13.5C17.4567 13.7238 17.5327 13.9119 17.6852 14.0645C17.8377 14.217 18.0256 14.2927 18.2489 14.2917ZM20.4853 14.2917H21.8707C22.2666 14.2917 22.6096 14.4236 22.8999 14.6875C23.1902 14.9514 23.3683 15.2747 23.4343 15.6573L24.5624 23.574C24.6284 24.049 24.5065 24.468 24.1967 24.8311C23.8869 25.1942 23.4876 25.3755 22.9989 25.375H13.4989C13.0107 25.375 12.6114 25.1937 12.3011 24.8311C11.9907 24.4685 11.8688 24.0495 11.9353 23.574L13.0635 15.6573C13.1294 15.2747 13.3075 14.9514 13.5978 14.6875C13.8881 14.4236 14.2312 14.2917 14.627 14.2917H16.0124C15.9728 14.1597 15.9398 14.0312 15.9135 13.9061C15.8871 13.781 15.8739 13.6457 15.8739 13.5C15.8739 12.8403 16.1048 12.2795 16.5666 11.8177C17.0284 11.3559 17.5891 11.125 18.2489 11.125C18.9086 11.125 19.4694 11.3559 19.9312 11.8177C20.393 12.2795 20.6239 12.8403 20.6239 13.5C20.6239 13.6451 20.6107 13.7805 20.5843 13.9061C20.5579 14.0317 20.5249 14.1603 20.4853 14.2917Z" fill="black" fill-opacity="0.7"/>
<path d="M52.925 7.86766L50.68 15.0977H49.465L47.885 10.1577C47.8417 10.0377 47.8017 9.89099 47.765 9.71766C47.745 9.80099 47.725 9.87932 47.705 9.95266C47.685 10.026 47.6633 10.0943 47.64 10.1577L46.045 15.0977H44.825L42.585 7.86766H43.71C43.8267 7.86766 43.9233 7.89599 44 7.95266C44.08 8.00599 44.1333 8.07932 44.16 8.17266L45.39 12.4977C45.4167 12.6043 45.4417 12.721 45.465 12.8477C45.4917 12.971 45.5183 13.101 45.545 13.2377C45.5717 13.0977 45.6 12.966 45.63 12.8427C45.6633 12.7193 45.6983 12.6043 45.735 12.4977L47.155 8.17266C47.1817 8.09599 47.2333 8.02599 47.31 7.96266C47.39 7.89932 47.4867 7.86766 47.6 7.86766H47.995C48.1117 7.86766 48.2067 7.89599 48.28 7.95266C48.3533 8.00932 48.4083 8.08266 48.445 8.17266L49.86 12.4977C49.93 12.7043 49.9933 12.9427 50.05 13.2127C50.0933 12.9493 50.1417 12.711 50.195 12.4977L51.425 8.17266C51.445 8.08932 51.495 8.01766 51.575 7.95766C51.6583 7.89766 51.7567 7.86766 51.87 7.86766H52.925ZM56.3173 11.9427C56.3173 11.7827 56.294 11.6327 56.2473 11.4927C56.204 11.3493 56.1373 11.2243 56.0473 11.1177C55.9573 11.011 55.8423 10.9277 55.7023 10.8677C55.5657 10.8043 55.4057 10.7727 55.2223 10.7727C54.8657 10.7727 54.584 10.8743 54.3773 11.0777C54.174 11.281 54.044 11.5693 53.9873 11.9427H56.3173ZM53.9623 12.6877C53.9823 12.951 54.029 13.1793 54.1023 13.3727C54.1757 13.5627 54.2723 13.721 54.3923 13.8477C54.5123 13.971 54.654 14.0643 54.8173 14.1277C54.984 14.1877 55.1673 14.2177 55.3673 14.2177C55.5673 14.2177 55.739 14.1943 55.8823 14.1477C56.029 14.101 56.1557 14.0493 56.2623 13.9927C56.3723 13.936 56.4673 13.8843 56.5473 13.8377C56.6307 13.791 56.7107 13.7677 56.7873 13.7677C56.8907 13.7677 56.9673 13.806 57.0173 13.8827L57.3723 14.3327C57.2357 14.4927 57.0823 14.6277 56.9123 14.7377C56.7423 14.8443 56.564 14.931 56.3773 14.9977C56.194 15.061 56.0057 15.106 55.8123 15.1327C55.6223 15.1593 55.4373 15.1727 55.2573 15.1727C54.9007 15.1727 54.569 15.1143 54.2623 14.9977C53.9557 14.8777 53.689 14.7027 53.4623 14.4727C53.2357 14.2393 53.0573 13.9527 52.9273 13.6127C52.7973 13.2693 52.7323 12.8727 52.7323 12.4227C52.7323 12.0727 52.789 11.7443 52.9023 11.4377C53.0157 11.1277 53.1773 10.8593 53.3873 10.6327C53.6007 10.4027 53.859 10.221 54.1623 10.0877C54.469 9.95432 54.814 9.88766 55.1973 9.88766C55.5207 9.88766 55.819 9.93932 56.0923 10.0427C56.3657 10.146 56.6007 10.2977 56.7973 10.4977C56.994 10.6943 57.1473 10.9377 57.2573 11.2277C57.3707 11.5143 57.4273 11.8427 57.4273 12.2127C57.4273 12.3993 57.4073 12.526 57.3673 12.5927C57.3273 12.656 57.2507 12.6877 57.1373 12.6877H53.9623ZM59.6341 9.96766V15.0977H58.3941V9.96766H59.6341ZM59.8041 8.47266C59.8041 8.57932 59.7825 8.67932 59.7391 8.77266C59.6958 8.86599 59.6375 8.94766 59.5641 9.01766C59.4941 9.08766 59.4108 9.14432 59.3141 9.18766C59.2175 9.22766 59.1141 9.24766 59.0041 9.24766C58.8975 9.24766 58.7958 9.22766 58.6991 9.18766C58.6058 9.14432 58.5241 9.08766 58.4541 9.01766C58.3841 8.94766 58.3275 8.86599 58.2841 8.77266C58.2441 8.67932 58.2241 8.57932 58.2241 8.47266C58.2241 8.36266 58.2441 8.25932 58.2841 8.16266C58.3275 8.06599 58.3841 7.98266 58.4541 7.91266C58.5241 7.84266 58.6058 7.78766 58.6991 7.74766C58.7958 7.70432 58.8975 7.68266 59.0041 7.68266C59.1141 7.68266 59.2175 7.70432 59.3141 7.74766C59.4108 7.78766 59.4941 7.84266 59.5641 7.91266C59.6375 7.98266 59.6958 8.06599 59.7391 8.16266C59.7825 8.25932 59.8041 8.36266 59.8041 8.47266ZM62.7682 12.4077C62.9215 12.4077 63.0549 12.3877 63.1682 12.3477C63.2815 12.3043 63.3749 12.246 63.4482 12.1727C63.5249 12.0993 63.5815 12.011 63.6182 11.9077C63.6582 11.8043 63.6782 11.691 63.6782 11.5677C63.6782 11.3143 63.6015 11.1143 63.4482 10.9677C63.2982 10.8177 63.0715 10.7427 62.7682 10.7427C62.4649 10.7427 62.2365 10.8177 62.0832 10.9677C61.9332 11.1143 61.8582 11.3143 61.8582 11.5677C61.8582 11.6877 61.8765 11.7993 61.9132 11.9027C61.9532 12.006 62.0099 12.096 62.0832 12.1727C62.1599 12.246 62.2549 12.3043 62.3682 12.3477C62.4849 12.3877 62.6182 12.4077 62.7682 12.4077ZM64.1632 15.3277C64.1632 15.2277 64.1332 15.146 64.0732 15.0827C64.0132 15.0193 63.9315 14.971 63.8282 14.9377C63.7249 14.901 63.6032 14.8743 63.4632 14.8577C63.3265 14.841 63.1799 14.8293 63.0232 14.8227C62.8699 14.8127 62.7099 14.8043 62.5432 14.7977C62.3799 14.791 62.2199 14.7777 62.0632 14.7577C61.9265 14.8343 61.8149 14.9243 61.7282 15.0277C61.6449 15.131 61.6032 15.251 61.6032 15.3877C61.6032 15.4777 61.6249 15.561 61.6682 15.6377C61.7149 15.7177 61.7865 15.786 61.8832 15.8427C61.9832 15.8993 62.1115 15.9427 62.2682 15.9727C62.4249 16.006 62.6165 16.0227 62.8432 16.0227C63.0732 16.0227 63.2715 16.0043 63.4382 15.9677C63.6049 15.9343 63.7415 15.886 63.8482 15.8227C63.9582 15.7627 64.0382 15.6893 64.0882 15.6027C64.1382 15.5193 64.1632 15.4277 64.1632 15.3277ZM65.3932 10.1427V10.6027C65.3932 10.7493 65.3049 10.8393 65.1282 10.8727L64.6682 10.9577C64.7382 11.1343 64.7732 11.3277 64.7732 11.5377C64.7732 11.791 64.7215 12.021 64.6182 12.2277C64.5182 12.431 64.3782 12.6043 64.1982 12.7477C64.0182 12.891 63.8049 13.0027 63.5582 13.0827C63.3149 13.1593 63.0515 13.1977 62.7682 13.1977C62.6682 13.1977 62.5715 13.1927 62.4782 13.1827C62.3849 13.1727 62.2932 13.1593 62.2032 13.1427C62.0432 13.2393 61.9632 13.3477 61.9632 13.4677C61.9632 13.571 62.0099 13.6477 62.1032 13.6977C62.1999 13.7443 62.3265 13.7777 62.4832 13.7977C62.6399 13.8177 62.8182 13.831 63.0182 13.8377C63.2182 13.841 63.4232 13.851 63.6332 13.8677C63.8432 13.8843 64.0482 13.9143 64.2482 13.9577C64.4482 13.9977 64.6265 14.0627 64.7832 14.1527C64.9399 14.2427 65.0649 14.366 65.1582 14.5227C65.2549 14.676 65.3032 14.8743 65.3032 15.1177C65.3032 15.3443 65.2465 15.5643 65.1332 15.7777C65.0232 15.991 64.8615 16.181 64.6482 16.3477C64.4382 16.5143 64.1782 16.6477 63.8682 16.7477C63.5615 16.851 63.2115 16.9027 62.8182 16.9027C62.4315 16.9027 62.0949 16.8643 61.8082 16.7877C61.5215 16.7143 61.2832 16.6143 61.0932 16.4877C60.9032 16.3643 60.7615 16.221 60.6682 16.0577C60.5749 15.8943 60.5282 15.7243 60.5282 15.5477C60.5282 15.3077 60.5999 15.1077 60.7432 14.9477C60.8899 14.7843 61.0899 14.6543 61.3432 14.5577C61.2065 14.4877 61.0982 14.3943 61.0182 14.2777C60.9382 14.161 60.8982 14.0077 60.8982 13.8177C60.8982 13.741 60.9115 13.6627 60.9382 13.5827C60.9682 13.4993 61.0099 13.4177 61.0632 13.3377C61.1199 13.2577 61.1899 13.1827 61.2732 13.1127C61.3565 13.0393 61.4549 12.9743 61.5682 12.9177C61.3082 12.7777 61.1032 12.591 60.9532 12.3577C60.8065 12.1243 60.7332 11.851 60.7332 11.5377C60.7332 11.2843 60.7832 11.056 60.8832 10.8527C60.9865 10.646 61.1282 10.471 61.3082 10.3277C61.4915 10.181 61.7065 10.0693 61.9532 9.99266C62.2032 9.91599 62.4749 9.87766 62.7682 9.87766C62.9882 9.87766 63.1949 9.90099 63.3882 9.94766C63.5815 9.99099 63.7582 10.056 63.9182 10.1427H65.3932ZM67.4114 10.5177C67.6114 10.331 67.8314 10.1793 68.0714 10.0627C68.3114 9.94599 68.5931 9.88766 68.9164 9.88766C69.1964 9.88766 69.4447 9.93599 69.6614 10.0327C69.8781 10.126 70.0581 10.2593 70.2014 10.4327C70.3481 10.6027 70.4581 10.8077 70.5314 11.0477C70.6081 11.2843 70.6464 11.546 70.6464 11.8327V15.0977H69.4114V11.8327C69.4114 11.5193 69.3397 11.2777 69.1964 11.1077C69.0531 10.9343 68.8347 10.8477 68.5414 10.8477C68.3281 10.8477 68.1281 10.896 67.9414 10.9927C67.7547 11.0893 67.5781 11.221 67.4114 11.3877V15.0977H66.1764V7.66766H67.4114V10.5177ZM73.4626 15.1777C73.0159 15.1777 72.6726 15.0527 72.4326 14.8027C72.1959 14.5493 72.0776 14.201 72.0776 13.7577V10.8927H71.5526C71.4859 10.8927 71.4292 10.871 71.3826 10.8277C71.3359 10.7843 71.3126 10.7193 71.3126 10.6327V10.1427L72.1376 10.0077L72.3976 8.60766C72.4142 8.54099 72.4459 8.48932 72.4926 8.45266C72.5392 8.41599 72.5992 8.39766 72.6726 8.39766H73.3126V10.0127H74.6826V10.8927H73.3126V13.6727C73.3126 13.8327 73.3509 13.9577 73.4276 14.0477C73.5076 14.1377 73.6159 14.1827 73.7526 14.1827C73.8292 14.1827 73.8926 14.1743 73.9426 14.1577C73.9959 14.1377 74.0409 14.1177 74.0776 14.0977C74.1176 14.0777 74.1526 14.0593 74.1826 14.0427C74.2126 14.0227 74.2426 14.0127 74.2726 14.0127C74.3092 14.0127 74.3392 14.0227 74.3626 14.0427C74.3859 14.0593 74.4109 14.086 74.4376 14.1227L74.8076 14.7227C74.6276 14.8727 74.4209 14.986 74.1876 15.0627C73.9542 15.1393 73.7126 15.1777 73.4626 15.1777Z" fill="black"/>
<path d="M46.556 23.1863L44.332 28.4023H43.596L45.852 23.2583H42.764V22.6343H46.556V23.1863ZM47.3472 24.0743C47.3845 23.5837 47.5739 23.1997 47.9152 22.9223C48.2565 22.645 48.6992 22.5063 49.2432 22.5063C49.6059 22.5063 49.9179 22.573 50.1792 22.7063C50.4459 22.8343 50.6459 23.0103 50.7792 23.2343C50.9179 23.4583 50.9872 23.7117 50.9872 23.9943C50.9872 24.325 50.8912 24.6103 50.6992 24.8503C50.5125 25.0903 50.2672 25.245 49.9632 25.3143V25.3543C50.3099 25.4397 50.5845 25.6077 50.7872 25.8583C50.9899 26.109 51.0912 26.437 51.0912 26.8423C51.0912 27.1463 51.0219 27.421 50.8832 27.6663C50.7445 27.9063 50.5365 28.0957 50.2592 28.2343C49.9819 28.373 49.6485 28.4423 49.2592 28.4423C48.6939 28.4423 48.2299 28.2957 47.8672 28.0023C47.5045 27.7037 47.3019 27.2823 47.2592 26.7383H47.9632C48.0005 27.0583 48.1312 27.3197 48.3552 27.5223C48.5792 27.725 48.8779 27.8263 49.2512 27.8263C49.6245 27.8263 49.9072 27.7303 50.0992 27.5383C50.2965 27.341 50.3952 27.0877 50.3952 26.7783C50.3952 26.3783 50.2619 26.0903 49.9952 25.9143C49.7285 25.7383 49.3259 25.6503 48.7872 25.6503H48.6032V25.0423H48.7952C49.2859 25.037 49.6565 24.957 49.9072 24.8023C50.1579 24.6423 50.2832 24.397 50.2832 24.0663C50.2832 23.7837 50.1899 23.557 50.0032 23.3863C49.8219 23.2157 49.5605 23.1303 49.2192 23.1303C48.8885 23.1303 48.6219 23.2157 48.4192 23.3863C48.2165 23.557 48.0965 23.7863 48.0592 24.0743H47.3472ZM52.4261 28.4503C52.2875 28.4503 52.1701 28.4023 52.0741 28.3063C51.9781 28.2103 51.9301 28.093 51.9301 27.9543C51.9301 27.8157 51.9781 27.6983 52.0741 27.6023C52.1701 27.5063 52.2875 27.4583 52.4261 27.4583C52.5595 27.4583 52.6715 27.5063 52.7621 27.6023C52.8581 27.6983 52.9061 27.8157 52.9061 27.9543C52.9061 28.093 52.8581 28.2103 52.7621 28.3063C52.6715 28.4023 52.5595 28.4503 52.4261 28.4503ZM53.7378 24.0743C53.7751 23.5837 53.9645 23.1997 54.3058 22.9223C54.6471 22.645 55.0898 22.5063 55.6338 22.5063C55.9965 22.5063 56.3085 22.573 56.5698 22.7063C56.8365 22.8343 57.0365 23.0103 57.1698 23.2343C57.3085 23.4583 57.3778 23.7117 57.3778 23.9943C57.3778 24.325 57.2818 24.6103 57.0898 24.8503C56.9031 25.0903 56.6578 25.245 56.3538 25.3143V25.3543C56.7005 25.4397 56.9751 25.6077 57.1778 25.8583C57.3805 26.109 57.4818 26.437 57.4818 26.8423C57.4818 27.1463 57.4125 27.421 57.2738 27.6663C57.1351 27.9063 56.9271 28.0957 56.6498 28.2343C56.3725 28.373 56.0391 28.4423 55.6498 28.4423C55.0845 28.4423 54.6205 28.2957 54.2578 28.0023C53.8951 27.7037 53.6925 27.2823 53.6498 26.7383H54.3538C54.3911 27.0583 54.5218 27.3197 54.7458 27.5223C54.9698 27.725 55.2685 27.8263 55.6418 27.8263C56.0151 27.8263 56.2978 27.7303 56.4898 27.5383C56.6871 27.341 56.7858 27.0877 56.7858 26.7783C56.7858 26.3783 56.6525 26.0903 56.3858 25.9143C56.1191 25.7383 55.7165 25.6503 55.1778 25.6503H54.9938V25.0423H55.1858C55.6765 25.037 56.0471 24.957 56.2978 24.8023C56.5485 24.6423 56.6738 24.397 56.6738 24.0663C56.6738 23.7837 56.5805 23.557 56.3938 23.3863C56.2125 23.2157 55.9511 23.1303 55.6098 23.1303C55.2791 23.1303 55.0125 23.2157 54.8098 23.3863C54.6071 23.557 54.4871 23.7863 54.4498 24.0743H53.7378ZM58.3768 27.8183C59.0541 27.2743 59.5848 26.829 59.9688 26.4823C60.3528 26.1303 60.6754 25.765 60.9368 25.3863C61.2034 25.0023 61.3368 24.6263 61.3368 24.2583C61.3368 23.9117 61.2514 23.6397 61.0808 23.4423C60.9154 23.2397 60.6461 23.1383 60.2728 23.1383C59.9101 23.1383 59.6274 23.253 59.4248 23.4823C59.2274 23.7063 59.1208 24.0077 59.1048 24.3863H58.4008C58.4221 23.789 58.6034 23.3277 58.9448 23.0023C59.2861 22.677 59.7261 22.5143 60.2648 22.5143C60.8141 22.5143 61.2488 22.6663 61.5688 22.9703C61.8941 23.2743 62.0568 23.693 62.0568 24.2263C62.0568 24.669 61.9234 25.101 61.6568 25.5223C61.3954 25.9383 61.0968 26.3063 60.7608 26.6263C60.4248 26.941 59.9954 27.309 59.4728 27.7303H62.2248V28.3383H58.3768V27.8183ZM67.1271 23.9463C67.5058 23.9463 67.8365 24.029 68.1191 24.1943C68.4071 24.3597 68.6205 24.5677 68.7591 24.8183V24.0183H69.4951V28.4983C69.4951 28.8983 69.4098 29.253 69.2391 29.5623C69.0685 29.877 68.8231 30.1223 68.5031 30.2983C68.1885 30.4743 67.8205 30.5623 67.3991 30.5623C66.8231 30.5623 66.3431 30.4263 65.9591 30.1543C65.5751 29.8823 65.3485 29.5117 65.2791 29.0423H65.9991C66.0791 29.309 66.2445 29.5223 66.4951 29.6823C66.7458 29.8477 67.0471 29.9303 67.3991 29.9303C67.7991 29.9303 68.1245 29.805 68.3751 29.5543C68.6311 29.3037 68.7591 28.9517 68.7591 28.4983V27.5783C68.6151 27.8343 68.4018 28.0477 68.1191 28.2183C67.8365 28.389 67.5058 28.4743 67.1271 28.4743C66.7378 28.4743 66.3831 28.3783 66.0631 28.1863C65.7485 27.9943 65.5005 27.725 65.3191 27.3783C65.1378 27.0317 65.0471 26.637 65.0471 26.1943C65.0471 25.7463 65.1378 25.3543 65.3191 25.0183C65.5005 24.677 65.7485 24.413 66.0631 24.2263C66.3831 24.0397 66.7378 23.9463 67.1271 23.9463ZM68.7591 26.2023C68.7591 25.8717 68.6925 25.5837 68.5591 25.3383C68.4258 25.093 68.2445 24.9063 68.0151 24.7783C67.7911 24.645 67.5431 24.5783 67.2711 24.5783C66.9991 24.5783 66.7511 24.6423 66.5271 24.7703C66.3031 24.8983 66.1245 25.085 65.9911 25.3303C65.8578 25.5757 65.7911 25.8637 65.7911 26.1943C65.7911 26.5303 65.8578 26.8237 65.9911 27.0743C66.1245 27.3197 66.3031 27.509 66.5271 27.6423C66.7511 27.7703 66.9991 27.8343 67.2711 27.8343C67.5431 27.8343 67.7911 27.7703 68.0151 27.6423C68.2445 27.509 68.4258 27.3197 68.5591 27.0743C68.6925 26.8237 68.7591 26.533 68.7591 26.2023Z" fill="black" fill-opacity="0.59"/>
</svg>
