<svg width="82" height="22" viewBox="0 0 82 22" fill="none" xmlns="http://www.w3.org/2000/svg">
<path d="M0 2C0 0.89543 0.89543 0 2 0H79.1446C80.5325 0 81.4985 1.37912 81.0242 2.68349L74.4787 20.6835C74.1913 21.4739 73.4402 22 72.5991 22H2C0.895429 22 0 21.1046 0 20V2Z" fill="#564906"/>
<path d="M26.491 14L26.491 8.35128L28.7195 8.35128C29.148 8.35128 29.513 8.43311 29.8145 8.59676C30.1161 8.75857 30.3459 8.98382 30.5041 9.27251C30.6641 9.55936 30.744 9.89034 30.744 10.2654C30.744 10.6406 30.6631 10.9715 30.5013 11.2584C30.3395 11.5452 30.1051 11.7686 29.798 11.9286C29.4928 12.0886 29.1232 12.1686 28.6892 12.1686L27.2688 12.1686L27.2688 11.2115L28.4961 11.2115C28.726 11.2115 28.9154 11.172 29.0643 11.0929C29.2151 11.012 29.3273 10.9007 29.4008 10.7592C29.4762 10.6157 29.5139 10.4512 29.5139 10.2654C29.5139 10.0779 29.4762 9.91424 29.4008 9.77449C29.3273 9.63291 29.2151 9.5235 29.0643 9.44627C28.9135 9.3672 28.7223 9.32767 28.4906 9.32767L27.6852 9.32767L27.6852 14L26.491 14ZM31.1094 14L31.1094 9.76346L32.2485 9.76346L32.2485 10.5026L32.2926 10.5026C32.3698 10.2397 32.4995 10.0411 32.6815 9.90689C32.8636 9.77082 33.0732 9.70278 33.3104 9.70278C33.3692 9.70278 33.4327 9.70646 33.5007 9.71381C33.5687 9.72117 33.6285 9.73128 33.68 9.74415L33.68 10.7867C33.6248 10.7702 33.5485 10.7555 33.451 10.7426C33.3536 10.7297 33.2644 10.7233 33.1835 10.7233C33.0107 10.7233 32.8562 10.761 32.7201 10.8364C32.5859 10.9099 32.4792 11.0129 32.4002 11.1453C32.323 11.2777 32.2843 11.4303 32.2843 11.6032L32.2843 14L31.1094 14ZM35.6326 14.0827C35.1968 14.0827 34.8217 13.9945 34.5073 13.818C34.1947 13.6396 33.9538 13.3877 33.7846 13.0622C33.6155 12.7349 33.5309 12.3479 33.5309 11.901C33.5309 11.4652 33.6155 11.0828 33.7846 10.7536C33.9538 10.4245 34.1919 10.168 34.499 9.98411C34.8079 9.80024 35.1702 9.7083 35.5857 9.7083C35.8652 9.7083 36.1254 9.75335 36.3663 9.84345C36.609 9.93171 36.8205 10.065 37.0007 10.2434C37.1827 10.4217 37.3243 10.6461 37.4254 10.9164C37.5266 11.1848 37.5771 11.4993 37.5771 11.8597L37.5771 12.1824L33.9998 12.1824L33.9998 11.4542L36.4711 11.4542C36.4711 11.285 36.4343 11.1352 36.3608 11.0046C36.2872 10.8741 36.1852 10.772 36.0546 10.6985C35.9259 10.6231 35.776 10.5854 35.605 10.5854C35.4267 10.5854 35.2685 10.6268 35.1306 10.7095C34.9946 10.7904 34.8879 10.8998 34.8107 11.0377C34.7334 11.1738 34.6939 11.3255 34.6921 11.4928L34.6921 12.1851C34.6921 12.3947 34.7307 12.5759 34.8079 12.7285C34.887 12.8811 34.9982 12.9988 35.1417 13.0815C35.2851 13.1643 35.4552 13.2056 35.6519 13.2056C35.7825 13.2056 35.902 13.1873 36.0105 13.1505C36.119 13.1137 36.2118 13.0585 36.2891 12.985C36.3663 12.9114 36.4251 12.8213 36.4656 12.7147L37.5523 12.7864C37.4971 13.0475 37.384 13.2755 37.213 13.4704C37.0439 13.6635 36.8251 13.8143 36.5566 13.9228C36.29 14.0294 35.982 14.0827 35.6326 14.0827ZM41.7915 9.76346L40.3103 14L38.9864 14L37.5053 9.76346L38.7464 9.76346L39.6263 12.7947L39.6704 12.7947L40.5475 9.76346L41.7915 9.76346ZM42.0044 14L42.0044 9.76346L43.1794 9.76346L43.1794 14L42.0044 14ZM42.5946 9.21734C42.4199 9.21734 42.2701 9.15942 42.145 9.04358C42.0219 8.9259 41.9603 8.78523 41.9603 8.62158C41.9603 8.45977 42.0219 8.32094 42.145 8.2051C42.2701 8.08742 42.4199 8.02858 42.5946 8.02858C42.7693 8.02858 42.9183 8.08742 43.0415 8.2051C43.1665 8.32094 43.229 8.45977 43.229 8.62158C43.229 8.78523 43.1665 8.9259 43.0415 9.04358C42.9183 9.15942 42.7693 9.21734 42.5946 9.21734ZM45.6464 14.0827C45.218 14.0827 44.8475 13.9917 44.5349 13.8097C44.2241 13.6258 43.9841 13.3702 43.815 13.0429C43.6458 12.7138 43.5612 12.3322 43.5612 11.8983C43.5612 11.4607 43.6458 11.0782 43.815 10.7509C43.9841 10.4217 44.2241 10.1662 44.5349 9.98411C44.8475 9.80024 45.218 9.7083 45.6464 9.7083C46.0748 9.7083 46.4444 9.80024 46.7552 9.98411C47.0678 10.1662 47.3087 10.4217 47.4778 10.7509C47.647 11.0782 47.7316 11.4607 47.7316 11.8983C47.7316 12.3322 47.647 12.7138 47.4778 13.0429C47.3087 13.3702 47.0678 13.6258 46.7552 13.8097C46.4444 13.9917 46.0748 14.0827 45.6464 14.0827ZM45.6519 13.1726C45.8468 13.1726 46.0096 13.1174 46.1401 13.0071C46.2707 12.8949 46.369 12.7423 46.4352 12.5492C46.5033 12.3561 46.5373 12.1364 46.5373 11.89C46.5373 11.6436 46.5033 11.4239 46.4352 11.2308C46.369 11.0377 46.2707 10.8851 46.1401 10.7729C46.0096 10.6608 45.8468 10.6047 45.6519 10.6047C45.4552 10.6047 45.2897 10.6608 45.1554 10.7729C45.0231 10.8851 44.9228 11.0377 44.8548 11.2308C44.7886 11.4239 44.7555 11.6436 44.7555 11.89C44.7555 12.1364 44.7886 12.3561 44.8548 12.5492C44.9228 12.7423 45.0231 12.8949 45.1554 13.0071C45.2897 13.1174 45.4552 13.1726 45.6519 13.1726ZM50.824 12.1962L50.824 9.76346L51.999 9.76346L51.999 14L50.8709 14L50.8709 13.2305L50.8268 13.2305C50.7312 13.4787 50.5721 13.6782 50.3496 13.829C50.129 13.9798 49.8596 14.0552 49.5415 14.0552C49.2583 14.0552 49.0092 13.9908 48.794 13.8621C48.5789 13.7334 48.4106 13.5504 48.2893 13.3132C48.1698 13.076 48.1091 12.7919 48.1072 12.4609L48.1072 9.76346L49.2822 9.76346L49.2822 12.2513C49.2841 12.5014 49.3512 12.6991 49.4836 12.8443C49.6159 12.9896 49.7934 13.0622 50.0159 13.0622C50.1575 13.0622 50.2899 13.03 50.4131 12.9657C50.5363 12.8995 50.6356 12.802 50.7109 12.6733C50.7882 12.5446 50.8259 12.3856 50.824 12.1962ZM56.0754 10.9715L54.9997 11.0377C54.9814 10.9458 54.9418 10.863 54.8811 10.7895C54.8205 10.7141 54.7405 10.6543 54.6412 10.6102C54.5437 10.5642 54.427 10.5413 54.2909 10.5413C54.1089 10.5413 53.9553 10.5799 53.8303 10.6571C53.7052 10.7325 53.6427 10.8336 53.6427 10.9605C53.6427 11.0616 53.6832 11.1471 53.7641 11.217C53.845 11.2869 53.9838 11.343 54.1806 11.3853L54.9473 11.5397C55.3592 11.6243 55.6663 11.7604 55.8686 11.9479C56.0708 12.1355 56.172 12.3819 56.172 12.6871C56.172 12.9648 56.0901 13.2084 55.9265 13.418C55.7647 13.6276 55.5422 13.7913 55.259 13.909C54.9777 14.0248 54.6531 14.0827 54.2854 14.0827C53.7246 14.0827 53.2777 13.966 52.9449 13.7325C52.6139 13.4971 52.4199 13.1771 52.3629 12.7726L53.5186 12.7119C53.5535 12.8829 53.6381 13.0135 53.7724 13.1036C53.9066 13.1919 54.0785 13.236 54.2881 13.236C54.4941 13.236 54.6596 13.1965 54.7846 13.1174C54.9115 13.0365 54.9758 12.9326 54.9777 12.8057C54.9758 12.6991 54.9308 12.6117 54.8425 12.5437C54.7543 12.4738 54.6182 12.4205 54.4343 12.3837L53.7007 12.2375C53.2869 12.1548 52.9789 12.0114 52.7767 11.8073C52.5762 11.6032 52.476 11.343 52.476 11.0267C52.476 10.7546 52.5496 10.5201 52.6967 10.3234C52.8456 10.1266 53.0543 9.97492 53.3228 9.86827C53.5931 9.76162 53.9094 9.7083 54.2716 9.7083C54.8067 9.7083 55.2278 9.82138 55.5348 10.0476C55.8437 10.2737 56.0239 10.5817 56.0754 10.9715Z" fill="#FFFEFE"/>
</svg>
