<svg width="82" height="22" viewBox="0 0 82 22" fill="none" xmlns="http://www.w3.org/2000/svg">
<path d="M80 21.5H2.85547C1.81454 21.5 1.08962 20.4656 1.44531 19.4873L7.99121 1.4873C8.20673 0.894717 8.76985 0.500194 9.40039 0.5H80C80.8284 0.5 81.5 1.17157 81.5 2V20C81.5 20.8284 80.8284 21.5 80 21.5Z" stroke="#C1B161"/>
<path d="M37.2157 8.35128L37.2157 14L36.1841 14L33.7266 10.4447L33.6852 10.4447L33.6852 14L32.491 14L32.491 8.35128L33.5391 8.35128L35.9773 11.9038L36.0269 11.9038L36.0269 8.35128L37.2157 8.35128ZM39.7227 14.0827C39.2869 14.0827 38.9118 13.9945 38.5974 13.818C38.2848 13.6396 38.0439 13.3877 37.8748 13.0622C37.7056 12.7349 37.621 12.3479 37.621 11.901C37.621 11.4652 37.7056 11.0828 37.8748 10.7536C38.0439 10.4245 38.282 10.168 38.5891 9.98411C38.898 9.80024 39.2603 9.7083 39.6758 9.7083C39.9553 9.7083 40.2155 9.75335 40.4564 9.84345C40.6991 9.93171 40.9106 10.065 41.0908 10.2434C41.2728 10.4217 41.4144 10.6461 41.5155 10.9164C41.6167 11.1848 41.6672 11.4993 41.6672 11.8597L41.6672 12.1824L38.0899 12.1824L38.0899 11.4542L40.5612 11.4542C40.5612 11.285 40.5244 11.1352 40.4509 11.0046C40.3773 10.8741 40.2753 10.772 40.1447 10.6985C40.016 10.6231 39.8661 10.5854 39.6951 10.5854C39.5168 10.5854 39.3586 10.6268 39.2207 10.7095C39.0847 10.7904 38.978 10.8998 38.9008 11.0377C38.8236 11.1738 38.784 11.3255 38.7822 11.4928L38.7822 12.1851C38.7822 12.3947 38.8208 12.5759 38.898 12.7285C38.9771 12.8811 39.0883 12.9988 39.2318 13.0815C39.3752 13.1643 39.5453 13.2056 39.742 13.2056C39.8726 13.2056 39.9921 13.1873 40.1006 13.1505C40.2091 13.1137 40.3019 13.0585 40.3792 12.985C40.4564 12.9114 40.5152 12.8213 40.5557 12.7147L41.6424 12.7864C41.5872 13.0475 41.4742 13.2755 41.3031 13.4704C41.134 13.6635 40.9152 13.8143 40.6467 13.9228C40.3801 14.0294 40.0721 14.0827 39.7227 14.0827ZM42.9517 9.76346L43.7295 11.2446L44.5266 9.76346L45.7319 9.76346L44.5045 11.8817L45.765 14L44.5652 14L43.7295 12.5354L42.9076 14L41.694 14L42.9517 11.8817L41.7381 9.76346L42.9517 9.76346ZM48.2948 9.76346L48.2948 10.6461L45.7435 10.6461L45.7435 9.76346L48.2948 9.76346ZM46.3227 8.74846L47.4977 8.74846L47.4977 12.6981C47.4977 12.8066 47.5143 12.8912 47.5474 12.9519C47.5805 13.0107 47.6264 13.0521 47.6853 13.076C47.7459 13.0999 47.8158 13.1119 47.8949 13.1119C47.95 13.1119 48.0052 13.1073 48.0604 13.0981C48.1155 13.087 48.1578 13.0788 48.1873 13.0733L48.372 13.9476C48.3132 13.966 48.2305 13.9871 48.1238 14.011C48.0172 14.0368 47.8875 14.0524 47.7349 14.0579C47.4517 14.069 47.2035 14.0313 46.9902 13.9448C46.7787 13.8584 46.6142 13.7242 46.4965 13.5421C46.3788 13.3601 46.3209 13.1303 46.3227 12.8526L46.3227 8.74846Z" fill="#A8942F"/>
</svg>
