<svg width="174" height="42" viewBox="0 0 174 42" fill="none" xmlns="http://www.w3.org/2000/svg">
<line y1="41.5" x2="174" y2="41.5" stroke="#0C2461"/>
<path d="M14.832 26.024H6.684L5.284 30H1.952L8.924 10.512H12.62L19.592 30H16.232L14.832 26.024ZM13.936 23.42L10.772 14.376L7.58 23.42H13.936ZM25.8154 16.868C26.3568 16.1213 27.0941 15.5147 28.0274 15.048C28.9794 14.5627 30.0341 14.32 31.1914 14.32C32.5541 14.32 33.7861 14.6467 34.8874 15.3C35.9888 15.9533 36.8568 16.8867 37.4914 18.1C38.1261 19.2947 38.4434 20.6667 38.4434 22.216C38.4434 23.7653 38.1261 25.156 37.4914 26.388C36.8568 27.6013 35.9794 28.5533 34.8594 29.244C33.7581 29.916 32.5354 30.252 31.1914 30.252C29.9968 30.252 28.9328 30.0187 27.9994 29.552C27.0848 29.0853 26.3568 28.488 25.8154 27.76V30H22.6234V9.28H25.8154V16.868ZM35.1954 22.216C35.1954 21.152 34.9714 20.2373 34.5234 19.472C34.0941 18.688 33.5154 18.1 32.7874 17.708C32.0781 17.2973 31.3128 17.092 30.4914 17.092C29.6888 17.092 28.9234 17.2973 28.1954 17.708C27.4861 18.1187 26.9074 18.716 26.4594 19.5C26.0301 20.284 25.8154 21.208 25.8154 22.272C25.8154 23.336 26.0301 24.2693 26.4594 25.072C26.9074 25.856 27.4861 26.4533 28.1954 26.864C28.9234 27.2747 29.6888 27.48 30.4914 27.48C31.3128 27.48 32.0781 27.2747 32.7874 26.864C33.5154 26.4347 34.0941 25.8187 34.5234 25.016C34.9714 24.2133 35.1954 23.28 35.1954 22.216ZM48.292 30.252C46.836 30.252 45.52 29.9253 44.344 29.272C43.168 28.6 42.244 27.6667 41.572 26.472C40.9 25.2587 40.564 23.8587 40.564 22.272C40.564 20.704 40.9093 19.3133 41.6 18.1C42.2907 16.8867 43.2333 15.9533 44.428 15.3C45.6227 14.6467 46.9573 14.32 48.432 14.32C49.9067 14.32 51.2413 14.6467 52.436 15.3C53.6307 15.9533 54.5733 16.8867 55.264 18.1C55.9547 19.3133 56.3 20.704 56.3 22.272C56.3 23.84 55.9453 25.2307 55.236 26.444C54.5267 27.6573 53.556 28.6 52.324 29.272C51.1107 29.9253 49.7667 30.252 48.292 30.252ZM48.292 27.48C49.1133 27.48 49.8787 27.284 50.588 26.892C51.316 26.5 51.904 25.912 52.352 25.128C52.8 24.344 53.024 23.392 53.024 22.272C53.024 21.152 52.8093 20.2093 52.38 19.444C51.9507 18.66 51.3813 18.072 50.672 17.68C49.9627 17.288 49.1973 17.092 48.376 17.092C47.5547 17.092 46.7893 17.288 46.08 17.68C45.3893 18.072 44.8387 18.66 44.428 19.444C44.0173 20.2093 43.812 21.152 43.812 22.272C43.812 23.9333 44.232 25.2213 45.072 26.136C45.9307 27.032 47.004 27.48 48.292 27.48ZM73.4275 14.572V30H70.2355V28.18C69.7315 28.8147 69.0688 29.3187 68.2475 29.692C67.4448 30.0467 66.5861 30.224 65.6715 30.224C64.4581 30.224 63.3661 29.972 62.3955 29.468C61.4435 28.964 60.6875 28.2173 60.1275 27.228C59.5861 26.2387 59.3155 25.044 59.3155 23.644V14.572H62.4795V23.168C62.4795 24.5493 62.8248 25.6133 63.5155 26.36C64.2061 27.088 65.1488 27.452 66.3435 27.452C67.5381 27.452 68.4808 27.088 69.1715 26.36C69.8808 25.6133 70.2355 24.5493 70.2355 23.168V14.572H73.4275ZM81.3631 17.176V25.716C81.3631 26.2947 81.4937 26.7147 81.7551 26.976C82.0351 27.2187 82.5017 27.34 83.1551 27.34H85.1151V30H82.5951C81.1577 30 80.0564 29.664 79.2911 28.992C78.5257 28.32 78.1431 27.228 78.1431 25.716V17.176H76.3231V14.572H78.1431V10.736H81.3631V14.572H85.1151V17.176H81.3631ZM98.4945 10.54V22.944C98.4945 24.4187 98.8771 25.5293 99.6425 26.276C100.426 27.0227 101.509 27.396 102.89 27.396C104.29 27.396 105.373 27.0227 106.138 26.276C106.922 25.5293 107.314 24.4187 107.314 22.944V10.54H110.506V22.888C110.506 24.4747 110.161 25.8187 109.47 26.92C108.78 28.0213 107.856 28.8427 106.698 29.384C105.541 29.9253 104.262 30.196 102.862 30.196C101.462 30.196 100.184 29.9253 99.0265 29.384C97.8878 28.8427 96.9825 28.0213 96.3105 26.92C95.6385 25.8187 95.3025 24.4747 95.3025 22.888V10.54H98.4945ZM120.263 30.252C119.049 30.252 117.957 30.0373 116.987 29.608C116.035 29.16 115.279 28.5627 114.719 27.816C114.159 27.0507 113.86 26.2013 113.823 25.268H117.127C117.183 25.9213 117.491 26.472 118.051 26.92C118.629 27.3493 119.348 27.564 120.207 27.564C121.103 27.564 121.793 27.396 122.279 27.06C122.783 26.7053 123.035 26.2573 123.035 25.716C123.035 25.1373 122.755 24.708 122.195 24.428C121.653 24.148 120.785 23.84 119.591 23.504C118.433 23.1867 117.491 22.8787 116.763 22.58C116.035 22.2813 115.4 21.824 114.859 21.208C114.336 20.592 114.075 19.78 114.075 18.772C114.075 17.9507 114.317 17.204 114.803 16.532C115.288 15.8413 115.979 15.3 116.875 14.908C117.789 14.516 118.835 14.32 120.011 14.32C121.765 14.32 123.175 14.768 124.239 15.664C125.321 16.5413 125.9 17.7453 125.975 19.276H122.783C122.727 18.5853 122.447 18.0347 121.943 17.624C121.439 17.2133 120.757 17.008 119.899 17.008C119.059 17.008 118.415 17.1667 117.967 17.484C117.519 17.8013 117.295 18.2213 117.295 18.744C117.295 19.1547 117.444 19.5 117.743 19.78C118.041 20.06 118.405 20.284 118.835 20.452C119.264 20.6013 119.899 20.7973 120.739 21.04C121.859 21.3387 122.773 21.6467 123.483 21.964C124.211 22.2627 124.836 22.7107 125.359 23.308C125.881 23.9053 126.152 24.6987 126.171 25.688C126.171 26.5653 125.928 27.3493 125.443 28.04C124.957 28.7307 124.267 29.272 123.371 29.664C122.493 30.056 121.457 30.252 120.263 30.252Z" fill="#0C2461"/>
</svg>
