<svg width="208" height="16" viewBox="0 0 208 16" fill="none" xmlns="http://www.w3.org/2000/svg">
<path d="M7.94161 15.488L4.42161 9.37204H2.50761V15.488H-0.000390559V0.198036H5.27961C6.45294 0.198036 7.44294 0.403369 8.24961 0.814036C9.07094 1.2247 9.67961 1.7747 10.0756 2.46404C10.4863 3.15337 10.6916 3.92337 10.6916 4.77404C10.6916 5.77137 10.3983 6.6807 9.81161 7.50204C9.23961 8.3087 8.35228 8.8587 7.14961 9.15204L10.9336 15.488H7.94161ZM2.50761 7.37004H5.27961C6.21828 7.37004 6.92228 7.13537 7.39161 6.66604C7.87561 6.1967 8.11761 5.56604 8.11761 4.77404C8.11761 3.98204 7.88294 3.36604 7.41361 2.92604C6.94428 2.47137 6.23294 2.24404 5.27961 2.24404H2.50761V7.37004ZM22.326 15.488L16.408 8.64604V15.488H13.9V0.198036H16.408V7.17204L22.348 0.198036H25.494L18.85 7.85404L25.604 15.488H22.326ZM44.2287 4.75204C44.2287 5.52937 44.0454 6.2627 43.6787 6.95204C43.3121 7.64137 42.7254 8.20604 41.9187 8.64604C41.1121 9.07137 40.0781 9.28404 38.8167 9.28404H36.0447V15.488H33.5367V0.198036H38.8167C39.9901 0.198036 40.9801 0.403369 41.7867 0.814036C42.6081 1.21004 43.2167 1.7527 43.6127 2.44204C44.0234 3.13137 44.2287 3.90137 44.2287 4.75204ZM38.8167 7.23804C39.7701 7.23804 40.4814 7.02537 40.9507 6.60004C41.4201 6.16004 41.6547 5.54404 41.6547 4.75204C41.6547 3.08004 40.7087 2.24404 38.8167 2.24404H36.0447V7.23804H38.8167ZM53.5947 15.642C52.172 15.642 50.8594 15.312 49.6567 14.652C48.4687 13.9774 47.5227 13.046 46.8187 11.858C46.1294 10.6554 45.7847 9.30604 45.7847 7.81004C45.7847 6.31404 46.1294 4.97204 46.8187 3.78404C47.5227 2.59604 48.4687 1.67204 49.6567 1.01204C50.8594 0.337369 52.172 3.5882e-05 53.5947 3.5882e-05C55.032 3.5882e-05 56.3447 0.337369 57.5327 1.01204C58.7354 1.67204 59.6814 2.59604 60.3707 3.78404C61.06 4.97204 61.4047 6.31404 61.4047 7.81004C61.4047 9.30604 61.06 10.6554 60.3707 11.858C59.6814 13.046 58.7354 13.9774 57.5327 14.652C56.3447 15.312 55.032 15.642 53.5947 15.642ZM53.5947 13.464C54.6067 13.464 55.5087 13.2367 56.3007 12.782C57.0927 12.3127 57.7087 11.6527 58.1487 10.802C58.6034 9.9367 58.8307 8.93937 58.8307 7.81004C58.8307 6.6807 58.6034 5.6907 58.1487 4.84004C57.7087 3.98937 57.0927 3.3367 56.3007 2.88204C55.5087 2.42737 54.6067 2.20004 53.5947 2.20004C52.5827 2.20004 51.6807 2.42737 50.8887 2.88204C50.0967 3.3367 49.4734 3.98937 49.0187 4.84004C48.5787 5.6907 48.3587 6.6807 48.3587 7.81004C48.3587 8.93937 48.5787 9.9367 49.0187 10.802C49.4734 11.6527 50.0967 12.3127 50.8887 12.782C51.6807 13.2367 52.5827 13.464 53.5947 13.464ZM66.3807 13.464H71.5507V15.488H63.8727V0.198036H66.3807V13.464ZM84.978 0.198036L79.918 9.94404V15.488H77.41V9.94404L72.328 0.198036H75.122L78.664 7.70004L82.206 0.198036H84.978ZM103.375 4.75204C103.375 5.52937 103.192 6.2627 102.825 6.95204C102.459 7.64137 101.872 8.20604 101.065 8.64604C100.259 9.07137 99.2245 9.28404 97.9632 9.28404H95.1912V15.488H92.6832V0.198036H97.9632C99.1365 0.198036 100.127 0.403369 100.933 0.814036C101.755 1.21004 102.363 1.7527 102.759 2.44204C103.17 3.13137 103.375 3.90137 103.375 4.75204ZM97.9632 7.23804C98.9165 7.23804 99.6279 7.02537 100.097 6.60004C100.567 6.16004 100.801 5.54404 100.801 4.75204C100.801 3.08004 99.8552 2.24404 97.9632 2.24404H95.1912V7.23804H97.9632ZM113.709 15.488L110.189 9.37204H108.275V15.488H105.767V0.198036H111.047C112.221 0.198036 113.211 0.403369 114.017 0.814036C114.839 1.2247 115.447 1.7747 115.843 2.46404C116.254 3.15337 116.459 3.92337 116.459 4.77404C116.459 5.77137 116.166 6.6807 115.579 7.50204C115.007 8.3087 114.12 8.8587 112.917 9.15204L116.701 15.488H113.709ZM108.275 7.37004H111.047C111.986 7.37004 112.69 7.13537 113.159 6.66604C113.643 6.1967 113.885 5.56604 113.885 4.77404C113.885 3.98204 113.651 3.36604 113.181 2.92604C112.712 2.47137 112.001 2.24404 111.047 2.24404H108.275V7.37004ZM126.642 15.642C125.219 15.642 123.906 15.312 122.704 14.652C121.516 13.9774 120.57 13.046 119.866 11.858C119.176 10.6554 118.832 9.30604 118.832 7.81004C118.832 6.31404 119.176 4.97204 119.866 3.78404C120.57 2.59604 121.516 1.67204 122.704 1.01204C123.906 0.337369 125.219 3.5882e-05 126.642 3.5882e-05C128.079 3.5882e-05 129.392 0.337369 130.58 1.01204C131.782 1.67204 132.728 2.59604 133.418 3.78404C134.107 4.97204 134.452 6.31404 134.452 7.81004C134.452 9.30604 134.107 10.6554 133.418 11.858C132.728 13.046 131.782 13.9774 130.58 14.652C129.392 15.312 128.079 15.642 126.642 15.642ZM126.642 13.464C127.654 13.464 128.556 13.2367 129.348 12.782C130.14 12.3127 130.756 11.6527 131.196 10.802C131.65 9.9367 131.878 8.93937 131.878 7.81004C131.878 6.6807 131.65 5.6907 131.196 4.84004C130.756 3.98937 130.14 3.3367 129.348 2.88204C128.556 2.42737 127.654 2.20004 126.642 2.20004C125.63 2.20004 124.728 2.42737 123.936 2.88204C123.144 3.3367 122.52 3.98937 122.066 4.84004C121.626 5.6907 121.406 6.6807 121.406 7.81004C121.406 8.93937 121.626 9.9367 122.066 10.802C122.52 11.6527 123.144 12.3127 123.936 12.782C124.728 13.2367 125.63 13.464 126.642 13.464ZM141.914 0.198036C143.542 0.198036 144.964 0.51337 146.182 1.14404C147.414 1.76004 148.36 2.6547 149.02 3.82804C149.694 4.9867 150.032 6.34337 150.032 7.89804C150.032 9.4527 149.694 10.802 149.02 11.946C148.36 13.09 147.414 13.97 146.182 14.586C144.964 15.1874 143.542 15.488 141.914 15.488H136.92V0.198036H141.914ZM141.914 13.442C143.703 13.442 145.074 12.958 146.028 11.99C146.981 11.022 147.458 9.65804 147.458 7.89804C147.458 6.12337 146.981 4.73737 146.028 3.74004C145.074 2.7427 143.703 2.24404 141.914 2.24404H139.428V13.442H141.914ZM155.003 0.198036V9.94404C155.003 11.1027 155.304 11.9754 155.905 12.562C156.521 13.1487 157.372 13.442 158.457 13.442C159.557 13.442 160.408 13.1487 161.009 12.562C161.625 11.9754 161.933 11.1027 161.933 9.94404V0.198036H164.441V9.90004C164.441 11.1467 164.17 12.2027 163.627 13.068C163.085 13.9334 162.359 14.5787 161.449 15.004C160.54 15.4294 159.535 15.642 158.435 15.642C157.335 15.642 156.331 15.4294 155.421 15.004C154.527 14.5787 153.815 13.9334 153.287 13.068C152.759 12.2027 152.495 11.1467 152.495 9.90004V0.198036H155.003ZM166.871 7.81004C166.871 6.31404 167.215 4.97204 167.905 3.78404C168.609 2.59604 169.555 1.67204 170.743 1.01204C171.945 0.337369 173.258 3.5882e-05 174.681 3.5882e-05C176.309 3.5882e-05 177.753 0.403369 179.015 1.21004C180.291 2.00204 181.215 3.13137 181.787 4.59804H178.773C178.377 3.79137 177.827 3.19004 177.123 2.79404C176.419 2.39804 175.605 2.20004 174.681 2.20004C173.669 2.20004 172.767 2.42737 171.975 2.88204C171.183 3.3367 170.559 3.98937 170.105 4.84004C169.665 5.6907 169.445 6.6807 169.445 7.81004C169.445 8.93937 169.665 9.92937 170.105 10.78C170.559 11.6307 171.183 12.2907 171.975 12.76C172.767 13.2147 173.669 13.442 174.681 13.442C175.605 13.442 176.419 13.244 177.123 12.848C177.827 12.452 178.377 11.8507 178.773 11.044H181.787C181.215 12.5107 180.291 13.64 179.015 14.432C177.753 15.224 176.309 15.62 174.681 15.62C173.243 15.62 171.931 15.29 170.743 14.63C169.555 13.9554 168.609 13.024 167.905 11.836C167.215 10.648 166.871 9.30604 166.871 7.81004ZM194.6 0.198036V2.24404H190.53V15.488H188.022V2.24404H183.93V0.198036H194.6ZM202.178 15.642C201.152 15.642 200.228 15.466 199.406 15.114C198.585 14.7474 197.94 14.234 197.47 13.574C197.001 12.914 196.766 12.144 196.766 11.264H199.45C199.509 11.924 199.766 12.4667 200.22 12.892C200.69 13.3174 201.342 13.53 202.178 13.53C203.044 13.53 203.718 13.3247 204.202 12.914C204.686 12.4887 204.928 11.946 204.928 11.286C204.928 10.7727 204.774 10.3547 204.466 10.032C204.173 9.70937 203.799 9.46004 203.344 9.28404C202.904 9.10804 202.288 8.91737 201.496 8.71204C200.499 8.44804 199.685 8.18404 199.054 7.92004C198.438 7.64137 197.91 7.21604 197.47 6.64404C197.03 6.07204 196.81 5.30937 196.81 4.35604C196.81 3.47604 197.03 2.70604 197.47 2.04604C197.91 1.38604 198.526 0.880037 199.318 0.528037C200.11 0.176036 201.027 3.5882e-05 202.068 3.5882e-05C203.55 3.5882e-05 204.76 0.374036 205.698 1.12204C206.652 1.85537 207.18 2.86737 207.282 4.15804H204.51C204.466 3.6007 204.202 3.12404 203.718 2.72804C203.234 2.33204 202.596 2.13404 201.804 2.13404C201.086 2.13404 200.499 2.31737 200.044 2.68404C199.59 3.0507 199.362 3.5787 199.362 4.26804C199.362 4.73737 199.502 5.12604 199.78 5.43404C200.074 5.72737 200.44 5.96204 200.88 6.13804C201.32 6.31404 201.922 6.5047 202.684 6.71004C203.696 6.9887 204.518 7.26737 205.148 7.54604C205.794 7.8247 206.336 8.25737 206.776 8.84404C207.231 9.41604 207.458 10.186 207.458 11.154C207.458 11.9314 207.246 12.6647 206.82 13.354C206.41 14.0434 205.801 14.6007 204.994 15.026C204.202 15.4367 203.264 15.642 202.178 15.642Z" fill="black"/>
</svg>
