<svg width="259" height="35" viewBox="0 0 259 35" fill="none" xmlns="http://www.w3.org/2000/svg">
<path d="M4.05686 2.35936C4.05686 2.8643 3.88274 3.28509 3.53451 3.62171C3.19208 3.95254 2.66682 4.11795 1.95874 4.11795H0.79215V6.65137H-8.64447e-05V0.583356H1.95874C2.6436 0.583356 3.16306 0.748768 3.5171 1.07959C3.87694 1.41042 4.05686 1.83701 4.05686 2.35936ZM1.95874 3.46501C2.39984 3.46501 2.72486 3.36924 2.9338 3.17771C3.14274 2.98618 3.24721 2.7134 3.24721 2.35936C3.24721 1.61065 2.81772 1.2363 1.95874 1.2363H0.79215V3.46501H1.95874ZM9.39446 4.08313C9.39446 4.23403 9.38576 4.39364 9.36834 4.56195H5.55516C5.58418 5.03207 5.74379 5.40062 6.03399 5.6676C6.32999 5.92878 6.68693 6.05937 7.10481 6.05937C7.44724 6.05937 7.73164 5.98101 7.95799 5.82431C8.19015 5.6618 8.35266 5.44705 8.44552 5.18007H9.2987C9.17101 5.63858 8.91564 6.01293 8.53258 6.30313C8.14952 6.58752 7.6736 6.72972 7.10481 6.72972C6.6521 6.72972 6.24583 6.62815 5.88598 6.42501C5.53195 6.22188 5.25336 5.93458 5.05022 5.56313C4.84708 5.18587 4.74551 4.75058 4.74551 4.25725C4.74551 3.76391 4.84418 3.33152 5.04151 2.96007C5.23885 2.58861 5.51453 2.30422 5.86857 2.10689C6.22842 1.90375 6.6405 1.80218 7.10481 1.80218C7.55752 1.80218 7.95799 1.90085 8.30622 2.09818C8.65446 2.29552 8.92144 2.5683 9.10717 2.91654C9.2987 3.25897 9.39446 3.64783 9.39446 4.08313ZM8.57611 3.91772C8.57611 3.61591 8.50936 3.35764 8.37587 3.14289C8.24238 2.92234 8.05956 2.75693 7.8274 2.64665C7.60105 2.53058 7.34858 2.47254 7.06999 2.47254C6.66952 2.47254 6.32708 2.60022 6.04269 2.8556C5.7641 3.11097 5.60449 3.46501 5.56387 3.91772H8.57611ZM11.2324 2.65536C11.3717 2.38257 11.5691 2.17073 11.8244 2.01983C12.0856 1.86893 12.4019 1.79348 12.7734 1.79348V2.61183H12.5644C11.6764 2.61183 11.2324 3.09356 11.2324 4.05701V6.65137H10.4402V1.88053H11.2324V2.65536ZM15.6293 2.53348H14.6281V6.65137H13.8359V2.53348H13.2178V1.88053H13.8359V1.541C13.8359 1.00704 13.9723 0.61818 14.2451 0.374414C14.5237 0.124845 14.9677 6.03914e-05 15.5771 6.03914e-05V0.661709C15.2288 0.661709 14.9822 0.731356 14.8371 0.87065C14.6978 1.00414 14.6281 1.22759 14.6281 1.541V1.88053H15.6293V2.53348ZM20.906 4.08313C20.906 4.23403 20.8973 4.39364 20.8799 4.56195H17.0667C17.0957 5.03207 17.2553 5.40062 17.5455 5.6676C17.8415 5.92878 18.1984 6.05937 18.6163 6.05937C18.9588 6.05937 19.2431 5.98101 19.4695 5.82431C19.7017 5.6618 19.8642 5.44705 19.957 5.18007H20.8102C20.6825 5.63858 20.4271 6.01293 20.0441 6.30313C19.661 6.58752 19.1851 6.72972 18.6163 6.72972C18.1636 6.72972 17.7573 6.62815 17.3975 6.42501C17.0435 6.22188 16.7649 5.93458 16.5617 5.56313C16.3586 5.18587 16.257 4.75058 16.257 4.25725C16.257 3.76391 16.3557 3.33152 16.553 2.96007C16.7504 2.58861 17.026 2.30422 17.3801 2.10689C17.7399 1.90375 18.152 1.80218 18.6163 1.80218C19.069 1.80218 19.4695 1.90085 19.8177 2.09818C20.166 2.29552 20.433 2.5683 20.6187 2.91654C20.8102 3.25897 20.906 3.64783 20.906 4.08313ZM20.0876 3.91772C20.0876 3.61591 20.0209 3.35764 19.8874 3.14289C19.7539 2.92234 19.5711 2.75693 19.3389 2.64665C19.1126 2.53058 18.8601 2.47254 18.5815 2.47254C18.181 2.47254 17.8386 2.60022 17.5542 2.8556C17.2756 3.11097 17.116 3.46501 17.0754 3.91772H20.0876ZM21.6557 4.25725C21.6557 3.76391 21.7544 3.33442 21.9517 2.96877C22.149 2.59732 22.4218 2.31003 22.7701 2.10689C23.1241 1.90375 23.5275 1.80218 23.9802 1.80218C24.5664 1.80218 25.0481 1.94438 25.4254 2.22877C25.8084 2.51316 26.0609 2.90783 26.1828 3.41277H25.3296C25.2483 3.12258 25.0887 2.89332 24.8508 2.72501C24.6186 2.55669 24.3284 2.47254 23.9802 2.47254C23.5275 2.47254 23.1618 2.62924 22.8832 2.94265C22.6046 3.25026 22.4653 3.68846 22.4653 4.25725C22.4653 4.83183 22.6046 5.27584 22.8832 5.58925C23.1618 5.90266 23.5275 6.05937 23.9802 6.05937C24.3284 6.05937 24.6186 5.97811 24.8508 5.8156C25.0829 5.65309 25.2425 5.42093 25.3296 5.11913H26.1828C26.0551 5.60666 25.7997 5.99842 25.4166 6.29443C25.0336 6.58462 24.5548 6.72972 23.9802 6.72972C23.5275 6.72972 23.1241 6.62815 22.7701 6.42501C22.4218 6.22188 22.149 5.93458 21.9517 5.56313C21.7544 5.19168 21.6557 4.75638 21.6557 4.25725ZM28.2062 2.53348V5.34548C28.2062 5.57764 28.2555 5.74305 28.3542 5.84172C28.4529 5.93458 28.6241 5.98101 28.8679 5.98101H29.4512V6.65137H28.7373C28.2962 6.65137 27.9653 6.5498 27.7448 6.34666C27.5242 6.14352 27.414 5.8098 27.414 5.34548V2.53348H26.7959V1.88053H27.414V0.679121H28.2062V1.88053H29.4512V2.53348H28.2062ZM34.6735 2.53348H33.6723V6.65137H32.88V2.53348H32.2619V1.88053H32.88V1.541C32.88 1.00704 33.0164 0.61818 33.2892 0.374414C33.5678 0.124845 34.0118 6.03914e-05 34.6212 6.03914e-05V0.661709C34.273 0.661709 34.0263 0.731356 33.8812 0.87065C33.7419 1.00414 33.6723 1.22759 33.6723 1.541V1.88053H34.6735V2.53348ZM37.6779 6.72972C37.231 6.72972 36.8247 6.62815 36.4591 6.42501C36.0992 6.22188 35.8148 5.93458 35.6059 5.56313C35.4027 5.18587 35.3012 4.75058 35.3012 4.25725C35.3012 3.76971 35.4056 3.34022 35.6146 2.96877C35.8293 2.59152 36.1195 2.30422 36.4852 2.10689C36.8508 1.90375 37.26 1.80218 37.7127 1.80218C38.1654 1.80218 38.5746 1.90375 38.9402 2.10689C39.3059 2.30422 39.5932 2.58861 39.8021 2.96007C40.0169 3.33152 40.1242 3.76391 40.1242 4.25725C40.1242 4.75058 40.014 5.18587 39.7934 5.56313C39.5787 5.93458 39.2856 6.22188 38.9141 6.42501C38.5427 6.62815 38.1306 6.72972 37.6779 6.72972ZM37.6779 6.03325C37.9623 6.03325 38.2293 5.9665 38.4788 5.83301C38.7284 5.69952 38.9286 5.49929 39.0795 5.23231C39.2362 4.96532 39.3146 4.6403 39.3146 4.25725C39.3146 3.87419 39.2391 3.54917 39.0882 3.28218C38.9373 3.0152 38.74 2.81787 38.4962 2.69018C38.2525 2.55669 37.9884 2.48995 37.704 2.48995C37.4138 2.48995 37.1468 2.55669 36.9031 2.69018C36.6651 2.81787 36.4736 3.0152 36.3285 3.28218C36.1834 3.54917 36.1108 3.87419 36.1108 4.25725C36.1108 4.64611 36.1805 4.97403 36.3198 5.24101C36.4649 5.50799 36.6564 5.70823 36.8944 5.84172C37.1323 5.96941 37.3935 6.03325 37.6779 6.03325ZM41.9581 2.65536C42.0974 2.38257 42.2948 2.17073 42.5501 2.01983C42.8113 1.86893 43.1276 1.79348 43.4991 1.79348V2.61183H43.2901C42.4021 2.61183 41.9581 3.09356 41.9581 4.05701V6.65137H41.1659V1.88053H41.9581V2.65536ZM48.4235 6.72972C48.0579 6.72972 47.73 6.66878 47.4398 6.5469C47.1496 6.41921 46.9203 6.24509 46.752 6.02454C46.5837 5.79819 46.4908 5.53991 46.4734 5.24972H47.2918C47.315 5.48768 47.4253 5.68211 47.6226 5.83301C47.8257 5.98391 48.0898 6.05937 48.4148 6.05937C48.7166 6.05937 48.9546 5.99262 49.1287 5.85913C49.3028 5.72564 49.3899 5.55733 49.3899 5.35419C49.3899 5.14525 49.297 4.99144 49.1113 4.89278C48.9256 4.7883 48.6383 4.68674 48.2494 4.58807C47.8954 4.49521 47.6052 4.40234 47.3788 4.30948C47.1583 4.21081 46.9668 4.06862 46.8043 3.88289C46.6475 3.69136 46.5692 3.44179 46.5692 3.13418C46.5692 2.89042 46.6417 2.66697 46.7868 2.46383C46.9319 2.26069 47.138 2.10108 47.405 1.98501C47.6719 1.86312 47.9766 1.80218 48.3191 1.80218C48.8472 1.80218 49.2738 1.93567 49.5988 2.20265C49.9239 2.46963 50.098 2.83528 50.1212 3.2996H49.329C49.3116 3.05003 49.21 2.84979 49.0243 2.69889C48.8443 2.54799 48.6006 2.47254 48.293 2.47254C48.0086 2.47254 47.7822 2.53348 47.6139 2.65536C47.4456 2.77724 47.3614 2.93685 47.3614 3.13418C47.3614 3.29089 47.4108 3.42148 47.5094 3.52595C47.6139 3.62462 47.7416 3.70587 47.8925 3.76971C48.0492 3.82775 48.2639 3.8945 48.5367 3.96995C48.8792 4.06281 49.1577 4.15568 49.3725 4.24854C49.5872 4.3356 49.7701 4.46909 49.921 4.64901C50.0777 4.82893 50.1589 5.06399 50.1647 5.35419C50.1647 5.61537 50.0922 5.85042 49.9471 6.05937C49.802 6.26831 49.5959 6.43372 49.329 6.5556C49.0678 6.67168 48.766 6.72972 48.4235 6.72972ZM57.0203 1.79348C57.3917 1.79348 57.7226 1.87183 58.0128 2.02854C58.303 2.17944 58.5322 2.40869 58.7005 2.7163C58.8688 3.02391 58.953 3.39826 58.953 3.83936V6.65137H58.1695V3.95254C58.1695 3.47662 58.0505 3.11387 57.8125 2.8643C57.5804 2.60893 57.2641 2.48124 56.8636 2.48124C56.4515 2.48124 56.1236 2.61473 55.8798 2.88171C55.636 3.14289 55.5142 3.52305 55.5142 4.02219V6.65137H54.7306V3.95254C54.7306 3.47662 54.6117 3.11387 54.3737 2.8643C54.1415 2.60893 53.8252 2.48124 53.4247 2.48124C53.0127 2.48124 52.6847 2.61473 52.441 2.88171C52.1972 3.14289 52.0753 3.52305 52.0753 4.02219V6.65137H51.2831V1.88053H52.0753V2.5683C52.232 2.31873 52.441 2.1272 52.7022 1.99371C52.9691 1.86022 53.2622 1.79348 53.5815 1.79348C53.9819 1.79348 54.336 1.88344 54.6436 2.06336C54.9512 2.24328 55.1804 2.50736 55.3313 2.8556C55.4648 2.51897 55.6854 2.25779 55.993 2.07206C56.3006 1.88634 56.643 1.79348 57.0203 1.79348ZM59.9566 4.24854C59.9566 3.76101 60.0552 3.33442 60.2526 2.96877C60.4499 2.59732 60.7198 2.31003 61.0622 2.10689C61.4104 1.90375 61.7964 1.80218 62.2201 1.80218C62.638 1.80218 63.0007 1.89214 63.3083 2.07206C63.6159 2.25199 63.8452 2.47834 63.9961 2.75112V1.88053H64.797V6.65137H63.9961V5.76337C63.8394 6.04195 63.6043 6.27411 63.2909 6.45984C62.9833 6.63976 62.6235 6.72972 62.2114 6.72972C61.7877 6.72972 61.4046 6.62525 61.0622 6.41631C60.7198 6.20737 60.4499 5.91427 60.2526 5.53701C60.0552 5.15976 59.9566 4.73027 59.9566 4.24854ZM63.9961 4.25725C63.9961 3.8974 63.9235 3.58399 63.7784 3.31701C63.6333 3.05003 63.436 2.84689 63.1864 2.7076C62.9427 2.5625 62.6728 2.48995 62.3768 2.48995C62.0808 2.48995 61.8109 2.55959 61.5671 2.69889C61.3234 2.83818 61.1289 3.04132 60.9838 3.3083C60.8388 3.57528 60.7662 3.8887 60.7662 4.24854C60.7662 4.61419 60.8388 4.9334 60.9838 5.20619C61.1289 5.47317 61.3234 5.67921 61.5671 5.82431C61.8109 5.9636 62.0808 6.03325 62.3768 6.03325C62.6728 6.03325 62.9427 5.9636 63.1864 5.82431C63.436 5.67921 63.6333 5.47317 63.7784 5.20619C63.9235 4.9334 63.9961 4.61709 63.9961 4.25725ZM66.9281 0.209002V6.65137H66.1358V0.209002H66.9281ZM69.0705 0.209002V6.65137H68.2783V0.209002H69.0705ZM73.534 2.75983C73.6907 2.48705 73.9229 2.26069 74.2305 2.08077C74.5439 1.89504 74.9066 1.80218 75.3187 1.80218C75.7424 1.80218 76.1255 1.90375 76.4679 2.10689C76.8161 2.31003 77.0889 2.59732 77.2863 2.96877C77.4836 3.33442 77.5823 3.76101 77.5823 4.24854C77.5823 4.73027 77.4836 5.15976 77.2863 5.53701C77.0889 5.91427 76.8161 6.20737 76.4679 6.41631C76.1255 6.62525 75.7424 6.72972 75.3187 6.72972C74.9124 6.72972 74.5526 6.63976 74.2392 6.45984C73.9316 6.27411 73.6965 6.04486 73.534 5.77207V8.9149H72.7418V1.88053H73.534V2.75983ZM76.7726 4.24854C76.7726 3.8887 76.7001 3.57528 76.555 3.3083C76.4099 3.04132 76.2125 2.83818 75.963 2.69889C75.7192 2.55959 75.4493 2.48995 75.1533 2.48995C74.8631 2.48995 74.5932 2.5625 74.3437 2.7076C74.0999 2.84689 73.9026 3.05293 73.7517 3.32571C73.6066 3.59269 73.534 3.90321 73.534 4.25725C73.534 4.61709 73.6066 4.9334 73.7517 5.20619C73.9026 5.47317 74.0999 5.67921 74.3437 5.82431C74.5932 5.9636 74.8631 6.03325 75.1533 6.03325C75.4493 6.03325 75.7192 5.9636 75.963 5.82431C76.2125 5.67921 76.4099 5.47317 76.555 5.20619C76.7001 4.9334 76.7726 4.61419 76.7726 4.24854ZM80.7058 6.72972C80.2589 6.72972 79.8526 6.62815 79.4869 6.42501C79.1271 6.22188 78.8427 5.93458 78.6338 5.56313C78.4306 5.18587 78.3291 4.75058 78.3291 4.25725C78.3291 3.76971 78.4335 3.34022 78.6425 2.96877C78.8572 2.59152 79.1474 2.30422 79.5131 2.10689C79.8787 1.90375 80.2879 1.80218 80.7406 1.80218C81.1933 1.80218 81.6025 1.90375 81.9681 2.10689C82.3338 2.30422 82.6211 2.58861 82.83 2.96007C83.0448 3.33152 83.1521 3.76391 83.1521 4.25725C83.1521 4.75058 83.0419 5.18587 82.8213 5.56313C82.6066 5.93458 82.3135 6.22188 81.942 6.42501C81.5706 6.62815 81.1585 6.72972 80.7058 6.72972ZM80.7058 6.03325C80.9902 6.03325 81.2571 5.9665 81.5067 5.83301C81.7563 5.69952 81.9565 5.49929 82.1074 5.23231C82.2641 4.96532 82.3425 4.6403 82.3425 4.25725C82.3425 3.87419 82.267 3.54917 82.1161 3.28218C81.9652 3.0152 81.7679 2.81787 81.5241 2.69018C81.2804 2.55669 81.0163 2.48995 80.7319 2.48995C80.4417 2.48995 80.1747 2.55669 79.9309 2.69018C79.693 2.81787 79.5015 3.0152 79.3564 3.28218C79.2113 3.54917 79.1387 3.87419 79.1387 4.25725C79.1387 4.64611 79.2084 4.97403 79.3476 5.24101C79.4927 5.50799 79.6843 5.70823 79.9222 5.84172C80.1602 5.96941 80.4214 6.03325 80.7058 6.03325ZM84.986 2.65536C85.1253 2.38257 85.3226 2.17073 85.578 2.01983C85.8392 1.86893 86.1555 1.79348 86.5269 1.79348V2.61183H86.318C85.43 2.61183 84.986 3.09356 84.986 4.05701V6.65137H84.1938V1.88053H84.986V2.65536ZM88.4078 2.53348V5.34548C88.4078 5.57764 88.4572 5.74305 88.5558 5.84172C88.6545 5.93458 88.8257 5.98101 89.0695 5.98101H89.6528V6.65137H88.9389C88.4978 6.65137 88.167 6.5498 87.9464 6.34666C87.7259 6.14352 87.6156 5.8098 87.6156 5.34548V2.53348H86.9975V1.88053H87.6156V0.679121H88.4078V1.88053H89.6528V2.53348H88.4078ZM91.0218 1.10571C90.8709 1.10571 90.7433 1.05347 90.6388 0.949004C90.5343 0.844533 90.4821 0.716846 90.4821 0.565944C90.4821 0.415042 90.5343 0.287355 90.6388 0.182884C90.7433 0.0784137 90.8709 0.0261783 91.0218 0.0261783C91.1669 0.0261783 91.2888 0.0784137 91.3875 0.182884C91.492 0.287355 91.5442 0.415042 91.5442 0.565944C91.5442 0.716846 91.492 0.844533 91.3875 0.949004C91.2888 1.05347 91.1669 1.10571 91.0218 1.10571ZM91.4049 1.88053V6.65137H90.6127V1.88053H91.4049ZM94.8358 6.72972C94.3889 6.72972 93.9827 6.62815 93.617 6.42501C93.2572 6.22188 92.9728 5.93458 92.7638 5.56313C92.5607 5.18587 92.4591 4.75058 92.4591 4.25725C92.4591 3.76971 92.5636 3.34022 92.7726 2.96877C92.9873 2.59152 93.2775 2.30422 93.6431 2.10689C94.0088 1.90375 94.418 1.80218 94.8707 1.80218C95.3234 1.80218 95.7326 1.90375 96.0982 2.10689C96.4639 2.30422 96.7511 2.58861 96.9601 2.96007C97.1748 3.33152 97.2822 3.76391 97.2822 4.25725C97.2822 4.75058 97.1719 5.18587 96.9514 5.56313C96.7366 5.93458 96.4435 6.22188 96.0721 6.42501C95.7006 6.62815 95.2886 6.72972 94.8358 6.72972ZM94.8358 6.03325C95.1202 6.03325 95.3872 5.9665 95.6368 5.83301C95.8864 5.69952 96.0866 5.49929 96.2375 5.23231C96.3942 4.96532 96.4726 4.6403 96.4726 4.25725C96.4726 3.87419 96.3971 3.54917 96.2462 3.28218C96.0953 3.0152 95.898 2.81787 95.6542 2.69018C95.4104 2.55669 95.1464 2.48995 94.862 2.48995C94.5718 2.48995 94.3048 2.55669 94.061 2.69018C93.8231 2.81787 93.6315 3.0152 93.4864 3.28218C93.3413 3.54917 93.2688 3.87419 93.2688 4.25725C93.2688 4.64611 93.3384 4.97403 93.4777 5.24101C93.6228 5.50799 93.8144 5.70823 94.0523 5.84172C94.2903 5.96941 94.5515 6.03325 94.8358 6.03325ZM100.648 1.79348C101.229 1.79348 101.699 1.9705 102.059 2.32454C102.419 2.67277 102.598 3.17771 102.598 3.83936V6.65137H101.815V3.95254C101.815 3.47662 101.696 3.11387 101.458 2.8643C101.22 2.60893 100.895 2.48124 100.483 2.48124C100.065 2.48124 99.7313 2.61183 99.4817 2.87301C99.238 3.13418 99.1161 3.51434 99.1161 4.01348V6.65137H98.3239V1.88053H99.1161V2.55959C99.2728 2.31583 99.4846 2.1272 99.7516 1.99371C100.024 1.86022 100.323 1.79348 100.648 1.79348ZM105.582 6.72972C105.216 6.72972 104.888 6.66878 104.598 6.5469C104.308 6.41921 104.078 6.24509 103.91 6.02454C103.742 5.79819 103.649 5.53991 103.631 5.24972H104.45C104.473 5.48768 104.583 5.68211 104.781 5.83301C104.984 5.98391 105.248 6.05937 105.573 6.05937C105.875 6.05937 106.113 5.99262 106.287 5.85913C106.461 5.72564 106.548 5.55733 106.548 5.35419C106.548 5.14525 106.455 4.99144 106.269 4.89278C106.084 4.7883 105.796 4.68674 105.407 4.58807C105.053 4.49521 104.763 4.40234 104.537 4.30948C104.316 4.21081 104.125 4.06862 103.962 3.88289C103.806 3.69136 103.727 3.44179 103.727 3.13418C103.727 2.89042 103.8 2.66697 103.945 2.46383C104.09 2.26069 104.296 2.10108 104.563 1.98501C104.83 1.86312 105.135 1.80218 105.477 1.80218C106.005 1.80218 106.432 1.93567 106.757 2.20265C107.082 2.46963 107.256 2.83528 107.279 3.2996H106.487C106.47 3.05003 106.368 2.84979 106.182 2.69889C106.002 2.54799 105.759 2.47254 105.451 2.47254C105.167 2.47254 104.94 2.53348 104.772 2.65536C104.604 2.77724 104.519 2.93685 104.519 3.13418C104.519 3.29089 104.569 3.42148 104.667 3.52595C104.772 3.62462 104.9 3.70587 105.05 3.76971C105.207 3.82775 105.422 3.8945 105.695 3.96995C106.037 4.06281 106.316 4.15568 106.53 4.24854C106.745 4.3356 106.928 4.46909 107.079 4.64901C107.236 4.82893 107.317 5.06399 107.323 5.35419C107.323 5.61537 107.25 5.85042 107.105 6.05937C106.96 6.26831 106.754 6.43372 106.487 6.5556C106.226 6.67168 105.924 6.72972 105.582 6.72972ZM112.843 6.72972C112.396 6.72972 111.99 6.62815 111.624 6.42501C111.264 6.22188 110.98 5.93458 110.771 5.56313C110.568 5.18587 110.466 4.75058 110.466 4.25725C110.466 3.76971 110.571 3.34022 110.779 2.96877C110.994 2.59152 111.284 2.30422 111.65 2.10689C112.016 1.90375 112.425 1.80218 112.878 1.80218C113.33 1.80218 113.739 1.90375 114.105 2.10689C114.471 2.30422 114.758 2.58861 114.967 2.96007C115.182 3.33152 115.289 3.76391 115.289 4.25725C115.289 4.75058 115.179 5.18587 114.958 5.56313C114.744 5.93458 114.45 6.22188 114.079 6.42501C113.708 6.62815 113.295 6.72972 112.843 6.72972ZM112.843 6.03325C113.127 6.03325 113.394 5.9665 113.644 5.83301C113.893 5.69952 114.094 5.49929 114.244 5.23231C114.401 4.96532 114.479 4.6403 114.479 4.25725C114.479 3.87419 114.404 3.54917 114.253 3.28218C114.102 3.0152 113.905 2.81787 113.661 2.69018C113.417 2.55669 113.153 2.48995 112.869 2.48995C112.579 2.48995 112.312 2.55669 112.068 2.69018C111.83 2.81787 111.638 3.0152 111.493 3.28218C111.348 3.54917 111.276 3.87419 111.276 4.25725C111.276 4.64611 111.345 4.97403 111.485 5.24101C111.63 5.50799 111.821 5.70823 112.059 5.84172C112.297 5.96941 112.558 6.03325 112.843 6.03325ZM118.272 2.53348H117.271V6.65137H116.479V2.53348H115.861V1.88053H116.479V1.541C116.479 1.00704 116.615 0.61818 116.888 0.374414C117.167 0.124845 117.611 6.03914e-05 118.22 6.03914e-05V0.661709C117.872 0.661709 117.625 0.731356 117.48 0.87065C117.341 1.00414 117.271 1.22759 117.271 1.541V1.88053H118.272V2.53348ZM123.206 6.72972C122.84 6.72972 122.512 6.66878 122.222 6.5469C121.932 6.41921 121.703 6.24509 121.534 6.02454C121.366 5.79819 121.273 5.53991 121.256 5.24972H122.074C122.097 5.48768 122.208 5.68211 122.405 5.83301C122.608 5.98391 122.872 6.05937 123.197 6.05937C123.499 6.05937 123.737 5.99262 123.911 5.85913C124.085 5.72564 124.172 5.55733 124.172 5.35419C124.172 5.14525 124.079 4.99144 123.894 4.89278C123.708 4.7883 123.421 4.68674 123.032 4.58807C122.678 4.49521 122.388 4.40234 122.161 4.30948C121.941 4.21081 121.749 4.06862 121.587 3.88289C121.43 3.69136 121.351 3.44179 121.351 3.13418C121.351 2.89042 121.424 2.66697 121.569 2.46383C121.714 2.26069 121.92 2.10108 122.187 1.98501C122.454 1.86312 122.759 1.80218 123.101 1.80218C123.63 1.80218 124.056 1.93567 124.381 2.20265C124.706 2.46963 124.88 2.83528 124.904 3.2996H124.111C124.094 3.05003 123.992 2.84979 123.807 2.69889C123.627 2.54799 123.383 2.47254 123.075 2.47254C122.791 2.47254 122.565 2.53348 122.396 2.65536C122.228 2.77724 122.144 2.93685 122.144 3.13418C122.144 3.29089 122.193 3.42148 122.292 3.52595C122.396 3.62462 122.524 3.70587 122.675 3.76971C122.832 3.82775 123.046 3.8945 123.319 3.96995C123.661 4.06281 123.94 4.15568 124.155 4.24854C124.37 4.3356 124.552 4.46909 124.703 4.64901C124.86 4.82893 124.941 5.06399 124.947 5.35419C124.947 5.61537 124.874 5.85042 124.729 6.05937C124.584 6.26831 124.378 6.43372 124.111 6.5556C123.85 6.67168 123.548 6.72972 123.206 6.72972ZM132.421 1.88053L130.932 6.65137H130.114L128.964 2.8643L127.815 6.65137H126.997L125.5 1.88053H126.309L127.406 5.88525L128.59 1.88053H129.4L130.558 5.89395L131.637 1.88053H132.421ZM137.56 4.08313C137.56 4.23403 137.551 4.39364 137.534 4.56195H133.721C133.75 5.03207 133.909 5.40062 134.199 5.6676C134.495 5.92878 134.852 6.05937 135.27 6.05937C135.613 6.05937 135.897 5.98101 136.123 5.82431C136.356 5.6618 136.518 5.44705 136.611 5.18007H137.464C137.336 5.63858 137.081 6.01293 136.698 6.30313C136.315 6.58752 135.839 6.72972 135.27 6.72972C134.818 6.72972 134.411 6.62815 134.051 6.42501C133.697 6.22188 133.419 5.93458 133.216 5.56313C133.013 5.18587 132.911 4.75058 132.911 4.25725C132.911 3.76391 133.01 3.33152 133.207 2.96007C133.404 2.58861 133.68 2.30422 134.034 2.10689C134.394 1.90375 134.806 1.80218 135.27 1.80218C135.723 1.80218 136.123 1.90085 136.472 2.09818C136.82 2.29552 137.087 2.5683 137.273 2.91654C137.464 3.25897 137.56 3.64783 137.56 4.08313ZM136.742 3.91772C136.742 3.61591 136.675 3.35764 136.541 3.14289C136.408 2.92234 136.225 2.75693 135.993 2.64665C135.766 2.53058 135.514 2.47254 135.235 2.47254C134.835 2.47254 134.493 2.60022 134.208 2.8556C133.93 3.11097 133.77 3.46501 133.729 3.91772H136.742ZM142.959 4.08313C142.959 4.23403 142.95 4.39364 142.932 4.56195H139.119C139.148 5.03207 139.308 5.40062 139.598 5.6676C139.894 5.92878 140.251 6.05937 140.669 6.05937C141.011 6.05937 141.296 5.98101 141.522 5.82431C141.754 5.6618 141.917 5.44705 142.01 5.18007H142.863C142.735 5.63858 142.48 6.01293 142.097 6.30313C141.714 6.58752 141.238 6.72972 140.669 6.72972C140.216 6.72972 139.81 6.62815 139.45 6.42501C139.096 6.22188 138.817 5.93458 138.614 5.56313C138.411 5.18587 138.31 4.75058 138.31 4.25725C138.31 3.76391 138.408 3.33152 138.606 2.96007C138.803 2.58861 139.079 2.30422 139.433 2.10689C139.793 1.90375 140.205 1.80218 140.669 1.80218C141.122 1.80218 141.522 1.90085 141.87 2.09818C142.219 2.29552 142.486 2.5683 142.671 2.91654C142.863 3.25897 142.959 3.64783 142.959 4.08313ZM142.14 3.91772C142.14 3.61591 142.073 3.35764 141.94 3.14289C141.807 2.92234 141.624 2.75693 141.392 2.64665C141.165 2.53058 140.913 2.47254 140.634 2.47254C140.234 2.47254 139.891 2.60022 139.607 2.8556C139.328 3.11097 139.169 3.46501 139.128 3.91772H142.14ZM144.971 2.53348V5.34548C144.971 5.57764 145.02 5.74305 145.119 5.84172C145.217 5.93458 145.389 5.98101 145.632 5.98101H146.216V6.65137H145.502C145.061 6.65137 144.73 6.5498 144.509 6.34666C144.289 6.14352 144.178 5.8098 144.178 5.34548V2.53348H143.56V1.88053H144.178V0.679121H144.971V1.88053H146.216V2.53348H144.971ZM148.864 6.72972C148.499 6.72972 148.171 6.66878 147.881 6.5469C147.59 6.41921 147.361 6.24509 147.193 6.02454C147.025 5.79819 146.932 5.53991 146.914 5.24972H147.733C147.756 5.48768 147.866 5.68211 148.064 5.83301C148.267 5.98391 148.531 6.05937 148.856 6.05937C149.158 6.05937 149.396 5.99262 149.57 5.85913C149.744 5.72564 149.831 5.55733 149.831 5.35419C149.831 5.14525 149.738 4.99144 149.552 4.89278C149.366 4.7883 149.079 4.68674 148.69 4.58807C148.336 4.49521 148.046 4.40234 147.82 4.30948C147.599 4.21081 147.408 4.06862 147.245 3.88289C147.088 3.69136 147.01 3.44179 147.01 3.13418C147.01 2.89042 147.083 2.66697 147.228 2.46383C147.373 2.26069 147.579 2.10108 147.846 1.98501C148.113 1.86312 148.418 1.80218 148.76 1.80218C149.288 1.80218 149.715 1.93567 150.04 2.20265C150.365 2.46963 150.539 2.83528 150.562 3.2996H149.77C149.752 3.05003 149.651 2.84979 149.465 2.69889C149.285 2.54799 149.041 2.47254 148.734 2.47254C148.449 2.47254 148.223 2.53348 148.055 2.65536C147.886 2.77724 147.802 2.93685 147.802 3.13418C147.802 3.29089 147.852 3.42148 147.95 3.52595C148.055 3.62462 148.182 3.70587 148.333 3.76971C148.49 3.82775 148.705 3.8945 148.978 3.96995C149.32 4.06281 149.599 4.15568 149.813 4.24854C150.028 4.3356 150.211 4.46909 150.362 4.64901C150.519 4.82893 150.6 5.06399 150.606 5.35419C150.606 5.61537 150.533 5.85042 150.388 6.05937C150.243 6.26831 150.037 6.43372 149.77 6.5556C149.509 6.67168 149.207 6.72972 148.864 6.72972ZM152.542 5.55442L151.567 7.89631H151.036L151.672 5.55442H152.542ZM157.46 6.72972C157.094 6.72972 156.766 6.66878 156.476 6.5469C156.186 6.41921 155.957 6.24509 155.788 6.02454C155.62 5.79819 155.527 5.53991 155.51 5.24972H156.328C156.351 5.48768 156.462 5.68211 156.659 5.83301C156.862 5.98391 157.126 6.05937 157.451 6.05937C157.753 6.05937 157.991 5.99262 158.165 5.85913C158.339 5.72564 158.426 5.55733 158.426 5.35419C158.426 5.14525 158.333 4.99144 158.148 4.89278C157.962 4.7883 157.675 4.68674 157.286 4.58807C156.932 4.49521 156.641 4.40234 156.415 4.30948C156.195 4.21081 156.003 4.06862 155.841 3.88289C155.684 3.69136 155.605 3.44179 155.605 3.13418C155.605 2.89042 155.678 2.66697 155.823 2.46383C155.968 2.26069 156.174 2.10108 156.441 1.98501C156.708 1.86312 157.013 1.80218 157.355 1.80218C157.884 1.80218 158.31 1.93567 158.635 2.20265C158.96 2.46963 159.134 2.83528 159.157 3.2996H158.365C158.348 3.05003 158.246 2.84979 158.061 2.69889C157.881 2.54799 157.637 2.47254 157.329 2.47254C157.045 2.47254 156.818 2.53348 156.65 2.65536C156.482 2.77724 156.398 2.93685 156.398 3.13418C156.398 3.29089 156.447 3.42148 156.546 3.52595C156.65 3.62462 156.778 3.70587 156.929 3.76971C157.085 3.82775 157.3 3.8945 157.573 3.96995C157.915 4.06281 158.194 4.15568 158.409 4.24854C158.624 4.3356 158.806 4.46909 158.957 4.64901C159.114 4.82893 159.195 5.06399 159.201 5.35419C159.201 5.61537 159.128 5.85042 158.983 6.05937C158.838 6.26831 158.632 6.43372 158.365 6.5556C158.104 6.67168 157.802 6.72972 157.46 6.72972ZM162.644 1.79348C163.224 1.79348 163.694 1.9705 164.054 2.32454C164.414 2.67277 164.594 3.17771 164.594 3.83936V6.65137H163.81V3.95254C163.81 3.47662 163.691 3.11387 163.453 2.8643C163.216 2.60893 162.891 2.48124 162.478 2.48124C162.061 2.48124 161.727 2.61183 161.477 2.87301C161.233 3.13418 161.112 3.51434 161.112 4.01348V6.65137H160.319V1.88053H161.112V2.55959C161.268 2.31583 161.48 2.1272 161.747 1.99371C162.02 1.86022 162.319 1.79348 162.644 1.79348ZM165.592 4.24854C165.592 3.76101 165.691 3.33442 165.888 2.96877C166.085 2.59732 166.355 2.31003 166.698 2.10689C167.046 1.90375 167.432 1.80218 167.856 1.80218C168.273 1.80218 168.636 1.89214 168.944 2.07206C169.251 2.25199 169.481 2.47834 169.632 2.75112V1.88053H170.433V6.65137H169.632V5.76337C169.475 6.04195 169.24 6.27411 168.926 6.45984C168.619 6.63976 168.259 6.72972 167.847 6.72972C167.423 6.72972 167.04 6.62525 166.698 6.41631C166.355 6.20737 166.085 5.91427 165.888 5.53701C165.691 5.15976 165.592 4.73027 165.592 4.24854ZM169.632 4.25725C169.632 3.8974 169.559 3.58399 169.414 3.31701C169.269 3.05003 169.072 2.84689 168.822 2.7076C168.578 2.5625 168.308 2.48995 168.012 2.48995C167.716 2.48995 167.446 2.55959 167.203 2.69889C166.959 2.83818 166.764 3.04132 166.619 3.3083C166.474 3.57528 166.402 3.8887 166.402 4.24854C166.402 4.61419 166.474 4.9334 166.619 5.20619C166.764 5.47317 166.959 5.67921 167.203 5.82431C167.446 5.9636 167.716 6.03325 168.012 6.03325C168.308 6.03325 168.578 5.9636 168.822 5.82431C169.072 5.67921 169.269 5.47317 169.414 5.20619C169.559 4.9334 169.632 4.61709 169.632 4.25725ZM171.475 4.25725C171.475 3.76391 171.574 3.33442 171.771 2.96877C171.969 2.59732 172.241 2.31003 172.59 2.10689C172.944 1.90375 173.347 1.80218 173.8 1.80218C174.386 1.80218 174.868 1.94438 175.245 2.22877C175.628 2.51316 175.881 2.90783 176.002 3.41277H175.149C175.068 3.12258 174.908 2.89332 174.67 2.72501C174.438 2.55669 174.148 2.47254 173.8 2.47254C173.347 2.47254 172.981 2.62924 172.703 2.94265C172.424 3.25026 172.285 3.68846 172.285 4.25725C172.285 4.83183 172.424 5.27584 172.703 5.58925C172.981 5.90266 173.347 6.05937 173.8 6.05937C174.148 6.05937 174.438 5.97811 174.67 5.8156C174.903 5.65309 175.062 5.42093 175.149 5.11913H176.002C175.875 5.60666 175.619 5.99842 175.236 6.29443C174.853 6.58462 174.374 6.72972 173.8 6.72972C173.347 6.72972 172.944 6.62815 172.59 6.42501C172.241 6.22188 171.969 5.93458 171.771 5.56313C171.574 5.19168 171.475 4.75638 171.475 4.25725ZM179.724 6.65137L177.852 4.54454V6.65137H177.06V0.209002H177.852V3.99607L179.689 1.88053H180.794L178.548 4.25725L180.803 6.65137H179.724ZM183.229 6.72972C182.863 6.72972 182.535 6.66878 182.245 6.5469C181.955 6.41921 181.726 6.24509 181.557 6.02454C181.389 5.79819 181.296 5.53991 181.279 5.24972H182.097C182.12 5.48768 182.231 5.68211 182.428 5.83301C182.631 5.98391 182.895 6.05937 183.22 6.05937C183.522 6.05937 183.76 5.99262 183.934 5.85913C184.108 5.72564 184.195 5.55733 184.195 5.35419C184.195 5.14525 184.102 4.99144 183.917 4.89278C183.731 4.7883 183.444 4.68674 183.055 4.58807C182.701 4.49521 182.411 4.40234 182.184 4.30948C181.964 4.21081 181.772 4.06862 181.61 3.88289C181.453 3.69136 181.375 3.44179 181.375 3.13418C181.375 2.89042 181.447 2.66697 181.592 2.46383C181.737 2.26069 181.943 2.10108 182.21 1.98501C182.477 1.86312 182.782 1.80218 183.124 1.80218C183.653 1.80218 184.079 1.93567 184.404 2.20265C184.729 2.46963 184.903 2.83528 184.927 3.2996H184.134C184.117 3.05003 184.015 2.84979 183.83 2.69889C183.65 2.54799 183.406 2.47254 183.098 2.47254C182.814 2.47254 182.588 2.53348 182.419 2.65536C182.251 2.77724 182.167 2.93685 182.167 3.13418C182.167 3.29089 182.216 3.42148 182.315 3.52595C182.419 3.62462 182.547 3.70587 182.698 3.76971C182.855 3.82775 183.069 3.8945 183.342 3.96995C183.685 4.06281 183.963 4.15568 184.178 4.24854C184.393 4.3356 184.575 4.46909 184.726 4.64901C184.883 4.82893 184.964 5.06399 184.97 5.35419C184.97 5.61537 184.898 5.85042 184.752 6.05937C184.607 6.26831 184.401 6.43372 184.134 6.5556C183.873 6.67168 183.571 6.72972 183.229 6.72972ZM186.907 5.55442L185.932 7.89631H185.401L186.036 5.55442H186.907ZM192.216 6.72972C191.769 6.72972 191.363 6.62815 190.997 6.42501C190.637 6.22188 190.353 5.93458 190.144 5.56313C189.941 5.18587 189.839 4.75058 189.839 4.25725C189.839 3.76971 189.944 3.34022 190.153 2.96877C190.368 2.59152 190.658 2.30422 191.023 2.10689C191.389 1.90375 191.798 1.80218 192.251 1.80218C192.704 1.80218 193.113 1.90375 193.478 2.10689C193.844 2.30422 194.131 2.58861 194.34 2.96007C194.555 3.33152 194.662 3.76391 194.662 4.25725C194.662 4.75058 194.552 5.18587 194.332 5.56313C194.117 5.93458 193.824 6.22188 193.452 6.42501C193.081 6.62815 192.669 6.72972 192.216 6.72972ZM192.216 6.03325C192.5 6.03325 192.767 5.9665 193.017 5.83301C193.267 5.69952 193.467 5.49929 193.618 5.23231C193.774 4.96532 193.853 4.6403 193.853 4.25725C193.853 3.87419 193.777 3.54917 193.626 3.28218C193.476 3.0152 193.278 2.81787 193.034 2.69018C192.791 2.55669 192.527 2.48995 192.242 2.48995C191.952 2.48995 191.685 2.55669 191.441 2.69018C191.203 2.81787 191.012 3.0152 190.867 3.28218C190.722 3.54917 190.649 3.87419 190.649 4.25725C190.649 4.64611 190.719 4.97403 190.858 5.24101C191.003 5.50799 191.195 5.70823 191.433 5.84172C191.671 5.96941 191.932 6.03325 192.216 6.03325ZM196.496 2.65536C196.636 2.38257 196.833 2.17073 197.088 2.01983C197.35 1.86893 197.666 1.79348 198.037 1.79348V2.61183H197.828C196.94 2.61183 196.496 3.09356 196.496 4.05701V6.65137H195.704V1.88053H196.496V2.65536ZM202.065 2.75983C202.222 2.48705 202.454 2.26069 202.762 2.08077C203.075 1.89504 203.438 1.80218 203.85 1.80218C204.273 1.80218 204.656 1.90375 204.999 2.10689C205.347 2.31003 205.62 2.59732 205.817 2.96877C206.015 3.33442 206.113 3.76101 206.113 4.24854C206.113 4.73027 206.015 5.15976 205.817 5.53701C205.62 5.91427 205.347 6.20737 204.999 6.41631C204.656 6.62525 204.273 6.72972 203.85 6.72972C203.443 6.72972 203.084 6.63976 202.77 6.45984C202.463 6.27411 202.228 6.04486 202.065 5.77207V8.9149H201.273V1.88053H202.065V2.75983ZM205.304 4.24854C205.304 3.8887 205.231 3.57528 205.086 3.3083C204.941 3.04132 204.744 2.83818 204.494 2.69889C204.25 2.55959 203.98 2.48995 203.684 2.48995C203.394 2.48995 203.124 2.5625 202.875 2.7076C202.631 2.84689 202.434 3.05293 202.283 3.32571C202.138 3.59269 202.065 3.90321 202.065 4.25725C202.065 4.61709 202.138 4.9334 202.283 5.20619C202.434 5.47317 202.631 5.67921 202.875 5.82431C203.124 5.9636 203.394 6.03325 203.684 6.03325C203.98 6.03325 204.25 5.9636 204.494 5.82431C204.744 5.67921 204.941 5.47317 205.086 5.20619C205.231 4.9334 205.304 4.61419 205.304 4.24854ZM207.565 1.10571C207.414 1.10571 207.287 1.05347 207.182 0.949004C207.078 0.844533 207.025 0.716846 207.025 0.565944C207.025 0.415042 207.078 0.287355 207.182 0.182884C207.287 0.0784137 207.414 0.0261783 207.565 0.0261783C207.71 0.0261783 207.832 0.0784137 207.931 0.182884C208.035 0.287355 208.088 0.415042 208.088 0.565944C208.088 0.716846 208.035 0.844533 207.931 0.949004C207.832 1.05347 207.71 1.10571 207.565 1.10571ZM207.948 1.88053V6.65137H207.156V1.88053H207.948ZM209.003 4.25725C209.003 3.76391 209.101 3.33442 209.299 2.96877C209.496 2.59732 209.769 2.31003 210.117 2.10689C210.471 1.90375 210.874 1.80218 211.327 1.80218C211.913 1.80218 212.395 1.94438 212.772 2.22877C213.155 2.51316 213.408 2.90783 213.53 3.41277H212.676C212.595 3.12258 212.436 2.89332 212.198 2.72501C211.965 2.55669 211.675 2.47254 211.327 2.47254C210.874 2.47254 210.509 2.62924 210.23 2.94265C209.951 3.25026 209.812 3.68846 209.812 4.25725C209.812 4.83183 209.951 5.27584 210.23 5.58925C210.509 5.90266 210.874 6.05937 211.327 6.05937C211.675 6.05937 211.965 5.97811 212.198 5.8156C212.43 5.65309 212.589 5.42093 212.676 5.11913H213.53C213.402 5.60666 213.147 5.99842 212.763 6.29443C212.38 6.58462 211.902 6.72972 211.327 6.72972C210.874 6.72972 210.471 6.62815 210.117 6.42501C209.769 6.22188 209.496 5.93458 209.299 5.56313C209.101 5.19168 209.003 4.75638 209.003 4.25725ZM217.251 6.65137L215.379 4.54454V6.65137H214.587V0.209002H215.379V3.99607L217.216 1.88053H218.322L216.075 4.25725L218.33 6.65137H217.251ZM219.859 0.209002V6.65137H219.067V0.209002H219.859ZM225.563 4.08313C225.563 4.23403 225.554 4.39364 225.536 4.56195H221.723C221.752 5.03207 221.912 5.40062 222.202 5.6676C222.498 5.92878 222.855 6.05937 223.273 6.05937C223.615 6.05937 223.9 5.98101 224.126 5.82431C224.358 5.6618 224.521 5.44705 224.614 5.18007H225.467C225.339 5.63858 225.084 6.01293 224.701 6.30313C224.318 6.58752 223.842 6.72972 223.273 6.72972C222.82 6.72972 222.414 6.62815 222.054 6.42501C221.7 6.22188 221.421 5.93458 221.218 5.56313C221.015 5.18587 220.914 4.75058 220.914 4.25725C220.914 3.76391 221.012 3.33152 221.21 2.96007C221.407 2.58861 221.683 2.30422 222.037 2.10689C222.397 1.90375 222.809 1.80218 223.273 1.80218C223.726 1.80218 224.126 1.90085 224.474 2.09818C224.823 2.29552 225.09 2.5683 225.275 2.91654C225.467 3.25897 225.563 3.64783 225.563 4.08313ZM224.744 3.91772C224.744 3.61591 224.677 3.35764 224.544 3.14289C224.411 2.92234 224.228 2.75693 223.996 2.64665C223.769 2.53058 223.517 2.47254 223.238 2.47254C222.838 2.47254 222.495 2.60022 222.211 2.8556C221.932 3.11097 221.773 3.46501 221.732 3.91772H224.744ZM228.297 6.72972C227.932 6.72972 227.604 6.66878 227.314 6.5469C227.023 6.41921 226.794 6.24509 226.626 6.02454C226.457 5.79819 226.365 5.53991 226.347 5.24972H227.166C227.189 5.48768 227.299 5.68211 227.496 5.83301C227.699 5.98391 227.964 6.05937 228.289 6.05937C228.59 6.05937 228.828 5.99262 229.002 5.85913C229.177 5.72564 229.264 5.55733 229.264 5.35419C229.264 5.14525 229.171 4.99144 228.985 4.89278C228.799 4.7883 228.512 4.68674 228.123 4.58807C227.769 4.49521 227.479 4.40234 227.253 4.30948C227.032 4.21081 226.84 4.06862 226.678 3.88289C226.521 3.69136 226.443 3.44179 226.443 3.13418C226.443 2.89042 226.515 2.66697 226.661 2.46383C226.806 2.26069 227.012 2.10108 227.279 1.98501C227.546 1.86312 227.85 1.80218 228.193 1.80218C228.721 1.80218 229.148 1.93567 229.473 2.20265C229.798 2.46963 229.972 2.83528 229.995 3.2996H229.203C229.185 3.05003 229.084 2.84979 228.898 2.69889C228.718 2.54799 228.474 2.47254 228.167 2.47254C227.882 2.47254 227.656 2.53348 227.488 2.65536C227.319 2.77724 227.235 2.93685 227.235 3.13418C227.235 3.29089 227.284 3.42148 227.383 3.52595C227.488 3.62462 227.615 3.70587 227.766 3.76971C227.923 3.82775 228.138 3.8945 228.41 3.96995C228.753 4.06281 229.031 4.15568 229.246 4.24854C229.461 4.3356 229.644 4.46909 229.795 4.64901C229.951 4.82893 230.033 5.06399 230.038 5.35419C230.038 5.61537 229.966 5.85042 229.821 6.05937C229.676 6.26831 229.47 6.43372 229.203 6.5556C228.942 6.67168 228.64 6.72972 228.297 6.72972ZM239.833 1.88053L238.344 6.65137H237.526L236.377 2.8643L235.228 6.65137H234.409L232.912 1.88053H233.722L234.819 5.88525L236.003 1.88053H236.812L237.97 5.89395L239.05 1.88053H239.833ZM241.029 1.10571C240.878 1.10571 240.75 1.05347 240.645 0.949004C240.541 0.844533 240.489 0.716846 240.489 0.565944C240.489 0.415042 240.541 0.287355 240.645 0.182884C240.75 0.0784137 240.878 0.0261783 241.029 0.0261783C241.174 0.0261783 241.296 0.0784137 241.394 0.182884C241.499 0.287355 241.551 0.415042 241.551 0.565944C241.551 0.716846 241.499 0.844533 241.394 0.949004C241.296 1.05347 241.174 1.10571 241.029 1.10571ZM241.412 1.88053V6.65137H240.619V1.88053H241.412ZM243.728 2.53348V5.34548C243.728 5.57764 243.778 5.74305 243.876 5.84172C243.975 5.93458 244.146 5.98101 244.39 5.98101H244.973V6.65137H244.259C243.818 6.65137 243.487 6.5498 243.267 6.34666C243.046 6.14352 242.936 5.8098 242.936 5.34548V2.53348H242.318V1.88053H242.936V0.679121H243.728V1.88053H244.973V2.53348H243.728ZM248.301 1.79348C248.661 1.79348 248.986 1.87183 249.276 2.02854C249.566 2.17944 249.793 2.40869 249.955 2.7163C250.123 3.02391 250.208 3.39826 250.208 3.83936V6.65137H249.424V3.95254C249.424 3.47662 249.305 3.11387 249.067 2.8643C248.829 2.60893 248.504 2.48124 248.092 2.48124C247.674 2.48124 247.34 2.61183 247.091 2.87301C246.847 3.13418 246.725 3.51434 246.725 4.01348V6.65137H245.933V0.209002H246.725V2.55959C246.882 2.31583 247.097 2.1272 247.37 1.99371C247.648 1.86022 247.959 1.79348 248.301 1.79348ZM253.527 4.24854C253.527 3.76101 253.625 3.33442 253.823 2.96877C254.02 2.59732 254.29 2.31003 254.632 2.10689C254.981 1.90375 255.367 1.80218 255.79 1.80218C256.208 1.80218 256.571 1.89214 256.879 2.07206C257.186 2.25199 257.415 2.47834 257.566 2.75112V1.88053H258.367V6.65137H257.566V5.76337C257.41 6.04195 257.175 6.27411 256.861 6.45984C256.554 6.63976 256.194 6.72972 255.782 6.72972C255.358 6.72972 254.975 6.62525 254.632 6.41631C254.29 6.20737 254.02 5.91427 253.823 5.53701C253.625 5.15976 253.527 4.73027 253.527 4.24854ZM257.566 4.25725C257.566 3.8974 257.494 3.58399 257.349 3.31701C257.204 3.05003 257.006 2.84689 256.757 2.7076C256.513 2.5625 256.243 2.48995 255.947 2.48995C255.651 2.48995 255.381 2.55959 255.137 2.69889C254.894 2.83818 254.699 3.04132 254.554 3.3083C254.409 3.57528 254.336 3.8887 254.336 4.24854C254.336 4.61419 254.409 4.9334 254.554 5.20619C254.699 5.47317 254.894 5.67921 255.137 5.82431C255.381 5.9636 255.651 6.03325 255.947 6.03325C256.243 6.03325 256.513 5.9636 256.757 5.82431C257.006 5.67921 257.204 5.47317 257.349 5.20619C257.494 4.9334 257.566 4.61709 257.566 4.25725ZM11.1304 17.2572C11.1304 16.7639 11.2291 16.3344 11.4264 15.9688C11.6237 15.5973 11.8965 15.31 12.2448 15.1069C12.5988 14.9038 13.0022 14.8022 13.4549 14.8022C14.0411 14.8022 14.5228 14.9444 14.9001 15.2288C15.2831 15.5132 15.5356 15.9078 15.6575 16.4128H14.8043C14.723 16.1226 14.5634 15.8933 14.3255 15.725C14.0933 15.5567 13.8031 15.4725 13.4549 15.4725C13.0022 15.4725 12.6365 15.6292 12.3579 15.9427C12.0793 16.2503 11.94 16.6885 11.94 17.2572C11.94 17.8318 12.0793 18.2758 12.3579 18.5892C12.6365 18.9027 13.0022 19.0594 13.4549 19.0594C13.8031 19.0594 14.0933 18.9781 14.3255 18.8156C14.5576 18.6531 14.7172 18.4209 14.8043 18.1191H15.6575C15.5298 18.6067 15.2744 18.9984 14.8913 19.2944C14.5083 19.5846 14.0295 19.7297 13.4549 19.7297C13.0022 19.7297 12.5988 19.6282 12.2448 19.425C11.8965 19.2219 11.6237 18.9346 11.4264 18.5631C11.2291 18.1917 11.1304 17.7564 11.1304 17.2572ZM17.5068 13.209V19.6514H16.7145V13.209H17.5068ZM23.21 17.0831C23.21 17.234 23.2013 17.3936 23.1838 17.562H19.3707C19.3997 18.0321 19.5593 18.4006 19.8495 18.6676C20.1455 18.9288 20.5024 19.0594 20.9203 19.0594C21.2627 19.0594 21.5471 18.981 21.7735 18.8243C22.0057 18.6618 22.1682 18.4471 22.261 18.1801H23.1142C22.9865 18.6386 22.7311 19.0129 22.3481 19.3031C21.965 19.5875 21.4891 19.7297 20.9203 19.7297C20.4676 19.7297 20.0613 19.6282 19.7015 19.425C19.3474 19.2219 19.0689 18.9346 18.8657 18.5631C18.6626 18.1859 18.561 17.7506 18.561 17.2572C18.561 16.7639 18.6597 16.3315 18.857 15.9601C19.0544 15.5886 19.33 15.3042 19.6841 15.1069C20.0439 14.9038 20.456 14.8022 20.9203 14.8022C21.373 14.8022 21.7735 14.9008 22.1217 15.0982C22.47 15.2955 22.7369 15.5683 22.9227 15.9165C23.1142 16.259 23.21 16.6478 23.21 17.0831ZM22.3916 16.9177C22.3916 16.6159 22.3249 16.3576 22.1914 16.1429C22.0579 15.9223 21.8751 15.7569 21.6429 15.6467C21.4166 15.5306 21.1641 15.4725 20.8855 15.4725C20.485 15.4725 20.1426 15.6002 19.8582 15.8556C19.5796 16.111 19.42 16.465 19.3794 16.9177H22.3916ZM23.9597 17.2485C23.9597 16.761 24.0584 16.3344 24.2557 15.9688C24.453 15.5973 24.7229 15.31 25.0653 15.1069C25.4136 14.9038 25.7995 14.8022 26.2232 14.8022C26.6411 14.8022 27.0039 14.8921 27.3115 15.0721C27.6191 15.252 27.8483 15.4783 27.9992 15.7511V14.8805H28.8002V19.6514H27.9992V18.7634C27.8425 19.042 27.6075 19.2741 27.2941 19.4598C26.9864 19.6398 26.6266 19.7297 26.2145 19.7297C25.7908 19.7297 25.4078 19.6252 25.0653 19.4163C24.7229 19.2074 24.453 18.9143 24.2557 18.537C24.0584 18.1598 23.9597 17.7303 23.9597 17.2485ZM27.9992 17.2572C27.9992 16.8974 27.9267 16.584 27.7816 16.317C27.6365 16.05 27.4392 15.8469 27.1896 15.7076C26.9458 15.5625 26.6759 15.4899 26.3799 15.4899C26.0839 15.4899 25.8141 15.5596 25.5703 15.6989C25.3265 15.8382 25.1321 16.0413 24.987 16.3083C24.8419 16.5753 24.7693 16.8887 24.7693 17.2485C24.7693 17.6142 24.8419 17.9334 24.987 18.2062C25.1321 18.4732 25.3265 18.6792 25.5703 18.8243C25.8141 18.9636 26.0839 19.0332 26.3799 19.0332C26.6759 19.0332 26.9458 18.9636 27.1896 18.8243C27.4392 18.6792 27.6365 18.4732 27.7816 18.2062C27.9267 17.9334 27.9992 17.6171 27.9992 17.2572ZM32.4634 14.7935C33.0438 14.7935 33.514 14.9705 33.8738 15.3245C34.2336 15.6728 34.4136 16.1777 34.4136 16.8394V19.6514H33.63V16.9525C33.63 16.4766 33.5111 16.1139 33.2731 15.8643C33.0351 15.6089 32.7101 15.4812 32.298 15.4812C31.8802 15.4812 31.5464 15.6118 31.2969 15.873C31.0531 16.1342 30.9312 16.5143 30.9312 17.0135V19.6514H30.139V14.8805H30.9312V15.5596C31.0879 15.3158 31.2998 15.1272 31.5667 14.9937C31.8395 14.8602 32.1384 14.7935 32.4634 14.7935ZM36.526 18.5544L35.551 20.8963H35.0199L35.6555 18.5544H36.526ZM40.5468 15.7598C40.7035 15.487 40.9357 15.2607 41.2433 15.0808C41.5567 14.895 41.9194 14.8022 42.3315 14.8022C42.7552 14.8022 43.1383 14.9038 43.4807 15.1069C43.8289 15.31 44.1017 15.5973 44.2991 15.9688C44.4964 16.3344 44.5951 16.761 44.5951 17.2485C44.5951 17.7303 44.4964 18.1598 44.2991 18.537C44.1017 18.9143 43.8289 19.2074 43.4807 19.4163C43.1383 19.6252 42.7552 19.7297 42.3315 19.7297C41.9252 19.7297 41.5654 19.6398 41.252 19.4598C40.9444 19.2741 40.7093 19.0449 40.5468 18.7721V21.9149H39.7546V14.8805H40.5468V15.7598ZM43.7854 17.2485C43.7854 16.8887 43.7129 16.5753 43.5678 16.3083C43.4227 16.0413 43.2253 15.8382 42.9758 15.6989C42.732 15.5596 42.4621 15.4899 42.1661 15.4899C41.8759 15.4899 41.606 15.5625 41.3565 15.7076C41.1127 15.8469 40.9154 16.0529 40.7645 16.3257C40.6194 16.5927 40.5468 16.9032 40.5468 17.2572C40.5468 17.6171 40.6194 17.9334 40.7645 18.2062C40.9154 18.4732 41.1127 18.6792 41.3565 18.8243C41.606 18.9636 41.8759 19.0332 42.1661 19.0332C42.4621 19.0332 42.732 18.9636 42.9758 18.8243C43.2253 18.6792 43.4227 18.4732 43.5678 18.2062C43.7129 17.9334 43.7854 17.6142 43.7854 17.2485ZM46.4301 15.6554C46.5694 15.3826 46.7667 15.1707 47.0221 15.0198C47.2833 14.8689 47.5996 14.7935 47.971 14.7935V15.6118H47.7621C46.8741 15.6118 46.4301 16.0936 46.4301 17.057V19.6514H45.6379V14.8805H46.4301V15.6554ZM53.2385 17.0831C53.2385 17.234 53.2298 17.3936 53.2124 17.562H49.3992C49.4282 18.0321 49.5878 18.4006 49.878 18.6676C50.174 18.9288 50.531 19.0594 50.9489 19.0594C51.2913 19.0594 51.5757 18.981 51.802 18.8243C52.0342 18.6618 52.1967 18.4471 52.2896 18.1801H53.1427C53.0151 18.6386 52.7597 19.0129 52.3766 19.3031C51.9936 19.5875 51.5176 19.7297 50.9489 19.7297C50.4962 19.7297 50.0899 19.6282 49.73 19.425C49.376 19.2219 49.0974 18.9346 48.8943 18.5631C48.6911 18.1859 48.5896 17.7506 48.5896 17.2572C48.5896 16.7639 48.6882 16.3315 48.8856 15.9601C49.0829 15.5886 49.3586 15.3042 49.7126 15.1069C50.0725 14.9038 50.4845 14.8022 50.9489 14.8022C51.4016 14.8022 51.802 14.9008 52.1503 15.0982C52.4985 15.2955 52.7655 15.5683 52.9512 15.9165C53.1427 16.259 53.2385 16.6478 53.2385 17.0831ZM52.4202 16.9177C52.4202 16.6159 52.3534 16.3576 52.2199 16.1429C52.0864 15.9223 51.9036 15.7569 51.6715 15.6467C51.4451 15.5306 51.1926 15.4725 50.914 15.4725C50.5136 15.4725 50.1711 15.6002 49.8867 15.8556C49.6082 16.111 49.4485 16.465 49.4079 16.9177H52.4202ZM60.0214 14.7935C60.3929 14.7935 60.7237 14.8718 61.0139 15.0285C61.3041 15.1794 61.5334 15.4087 61.7017 15.7163C61.87 16.0239 61.9541 16.3983 61.9541 16.8394V19.6514H61.1706V16.9525C61.1706 16.4766 61.0516 16.1139 60.8137 15.8643C60.5815 15.6089 60.2652 15.4812 59.8647 15.4812C59.4526 15.4812 59.1247 15.6147 58.881 15.8817C58.6372 16.1429 58.5153 16.523 58.5153 17.0222V19.6514H57.7318V16.9525C57.7318 16.4766 57.6128 16.1139 57.3748 15.8643C57.1427 15.6089 56.8264 15.4812 56.4259 15.4812C56.0138 15.4812 55.6859 15.6147 55.4421 15.8817C55.1984 16.1429 55.0765 16.523 55.0765 17.0222V19.6514H54.2842V14.8805H55.0765V15.5683C55.2332 15.3187 55.4421 15.1272 55.7033 14.9937C55.9703 14.8602 56.2634 14.7935 56.5826 14.7935C56.9831 14.7935 57.3371 14.8834 57.6447 15.0634C57.9523 15.2433 58.1816 15.5074 58.3325 15.8556C58.466 15.519 58.6865 15.2578 58.9941 15.0721C59.3017 14.8863 59.6442 14.7935 60.0214 14.7935ZM63.6629 14.1057C63.512 14.1057 63.3843 14.0535 63.2798 13.949C63.1753 13.8445 63.1231 13.7168 63.1231 13.5659C63.1231 13.415 63.1753 13.2874 63.2798 13.1829C63.3843 13.0784 63.512 13.0262 63.6629 13.0262C63.808 13.0262 63.9299 13.0784 64.0285 13.1829C64.133 13.2874 64.1852 13.415 64.1852 13.5659C64.1852 13.7168 64.133 13.8445 64.0285 13.949C63.9299 14.0535 63.808 14.1057 63.6629 14.1057ZM64.0459 14.8805V19.6514H63.2537V14.8805H64.0459ZM69.6272 14.8805V19.6514H68.835V18.9462C68.6841 19.19 68.4723 19.3815 68.1995 19.5208C67.9325 19.6543 67.6365 19.721 67.3115 19.721C66.94 19.721 66.6063 19.6456 66.3103 19.4947C66.0143 19.338 65.7792 19.1058 65.6051 18.7982C65.4368 18.4906 65.3526 18.1162 65.3526 17.6751V14.8805H66.1362V17.5707C66.1362 18.0408 66.2552 18.4035 66.4931 18.6589C66.7311 18.9085 67.0561 19.0332 67.4682 19.0332C67.8919 19.0332 68.2256 18.9027 68.4694 18.6415C68.7131 18.3803 68.835 18.0001 68.835 17.501V14.8805H69.6272ZM76.7021 14.7935C77.0735 14.7935 77.4043 14.8718 77.6945 15.0285C77.9847 15.1794 78.214 15.4087 78.3823 15.7163C78.5506 16.0239 78.6348 16.3983 78.6348 16.8394V19.6514H77.8512V16.9525C77.8512 16.4766 77.7323 16.1139 77.4943 15.8643C77.2621 15.6089 76.9458 15.4812 76.5454 15.4812C76.1333 15.4812 75.8054 15.6147 75.5616 15.8817C75.3178 16.1429 75.1959 16.523 75.1959 17.0222V19.6514H74.4124V16.9525C74.4124 16.4766 74.2934 16.1139 74.0555 15.8643C73.8233 15.6089 73.507 15.4812 73.1065 15.4812C72.6945 15.4812 72.3665 15.6147 72.1228 15.8817C71.879 16.1429 71.7571 16.523 71.7571 17.0222V19.6514H70.9649V14.8805H71.7571V15.5683C71.9138 15.3187 72.1228 15.1272 72.3839 14.9937C72.6509 14.8602 72.944 14.7935 73.2632 14.7935C73.6637 14.7935 74.0177 14.8834 74.3254 15.0634C74.633 15.2433 74.8622 15.5074 75.0131 15.8556C75.1466 15.519 75.3672 15.2578 75.6748 15.0721C75.9824 14.8863 76.3248 14.7935 76.7021 14.7935ZM83.0476 13.209V19.6514H82.2553V13.209H83.0476ZM86.4785 19.7297C86.0316 19.7297 85.6253 19.6282 85.2597 19.425C84.8998 19.2219 84.6155 18.9346 84.4065 18.5631C84.2034 18.1859 84.1018 17.7506 84.1018 17.2572C84.1018 16.7697 84.2063 16.3402 84.4152 15.9688C84.63 15.5915 84.9202 15.3042 85.2858 15.1069C85.6515 14.9038 86.0606 14.8022 86.5133 14.8022C86.966 14.8022 87.3752 14.9038 87.7409 15.1069C88.1065 15.3042 88.3938 15.5886 88.6028 15.9601C88.8175 16.3315 88.9249 16.7639 88.9249 17.2572C88.9249 17.7506 88.8146 18.1859 88.5941 18.5631C88.3793 18.9346 88.0862 19.2219 87.7148 19.425C87.3433 19.6282 86.9312 19.7297 86.4785 19.7297ZM86.4785 19.0332C86.7629 19.0332 87.0299 18.9665 87.2795 18.833C87.529 18.6995 87.7293 18.4993 87.8802 18.2323C88.0369 17.9653 88.1152 17.6403 88.1152 17.2572C88.1152 16.8742 88.0398 16.5492 87.8889 16.2822C87.738 16.0152 87.5406 15.8179 87.2969 15.6902C87.0531 15.5567 86.789 15.4899 86.5046 15.4899C86.2144 15.4899 85.9475 15.5567 85.7037 15.6902C85.4657 15.8179 85.2742 16.0152 85.1291 16.2822C84.984 16.5492 84.9115 16.8742 84.9115 17.2572C84.9115 17.6461 84.9811 17.974 85.1204 18.241C85.2655 18.508 85.457 18.7082 85.695 18.8417C85.9329 18.9694 86.1941 19.0332 86.4785 19.0332ZM92.0472 19.7297C91.6003 19.7297 91.1941 19.6282 90.8284 19.425C90.4686 19.2219 90.1842 18.9346 89.9752 18.5631C89.7721 18.1859 89.6705 17.7506 89.6705 17.2572C89.6705 16.7697 89.775 16.3402 89.9839 15.9688C90.1987 15.5915 90.4889 15.3042 90.8545 15.1069C91.2202 14.9038 91.6293 14.8022 92.0821 14.8022C92.5348 14.8022 92.9439 14.9038 93.3096 15.1069C93.6752 15.3042 93.9625 15.5886 94.1715 15.9601C94.3862 16.3315 94.4936 16.7639 94.4936 17.2572C94.4936 17.7506 94.3833 18.1859 94.1628 18.5631C93.948 18.9346 93.6549 19.2219 93.2835 19.425C92.912 19.6282 92.4999 19.7297 92.0472 19.7297ZM92.0472 19.0332C92.3316 19.0332 92.5986 18.9665 92.8482 18.833C93.0977 18.6995 93.298 18.4993 93.4489 18.2323C93.6056 17.9653 93.6839 17.6403 93.6839 17.2572C93.6839 16.8742 93.6085 16.5492 93.4576 16.2822C93.3067 16.0152 93.1093 15.8179 92.8656 15.6902C92.6218 15.5567 92.3577 15.4899 92.0733 15.4899C91.7832 15.4899 91.5162 15.5567 91.2724 15.6902C91.0344 15.8179 90.8429 16.0152 90.6978 16.2822C90.5527 16.5492 90.4802 16.8742 90.4802 17.2572C90.4802 17.6461 90.5498 17.974 90.6891 18.241C90.8342 18.508 91.0257 18.7082 91.2637 18.8417C91.5017 18.9694 91.7628 19.0332 92.0472 19.0332ZM98.1992 19.6514L96.3275 17.5445V19.6514H95.5352V13.209H96.3275V16.9961L98.1644 14.8805H99.2701L97.0239 17.2572L99.2788 19.6514H98.1992ZM100.268 19.7036C100.117 19.7036 99.9896 19.6514 99.8851 19.5469C99.7807 19.4424 99.7284 19.3147 99.7284 19.1638C99.7284 19.0129 99.7807 18.8852 99.8851 18.7808C99.9896 18.6763 100.117 18.6241 100.268 18.6241C100.413 18.6241 100.535 18.6763 100.634 18.7808C100.738 18.8852 100.791 19.0129 100.791 19.1638C100.791 19.3147 100.738 19.4424 100.634 19.5469C100.535 19.6514 100.413 19.7036 100.268 19.7036ZM106.089 19.7123C105.688 19.7123 105.328 19.6427 105.009 19.5034C104.696 19.3583 104.449 19.1609 104.269 18.9114C104.089 18.656 103.996 18.3629 103.99 18.0321H104.835C104.864 18.3165 104.98 18.5573 105.183 18.7547C105.392 18.9462 105.694 19.042 106.089 19.042C106.466 19.042 106.762 18.9491 106.977 18.7634C107.197 18.5718 107.307 18.3281 107.307 18.0321C107.307 17.7999 107.244 17.6113 107.116 17.4662C106.988 17.3211 106.829 17.2108 106.637 17.1354C106.446 17.0599 106.187 16.9787 105.862 16.8916C105.462 16.7871 105.14 16.6827 104.896 16.5782C104.658 16.4737 104.452 16.3112 104.278 16.0907C104.109 15.8643 104.025 15.5625 104.025 15.1852C104.025 14.8544 104.109 14.5613 104.278 14.3059C104.446 14.0506 104.681 13.8532 104.983 13.7139C105.291 13.5746 105.642 13.505 106.036 13.505C106.605 13.505 107.069 13.6472 107.429 13.9316C107.795 14.216 108.001 14.5932 108.047 15.0634H107.177C107.148 14.8312 107.026 14.6281 106.811 14.4539C106.596 14.274 106.312 14.1841 105.958 14.1841C105.627 14.1841 105.357 14.2711 105.148 14.4452C104.939 14.6136 104.835 14.8515 104.835 15.1591C104.835 15.3797 104.896 15.5596 105.018 15.6989C105.145 15.8382 105.299 15.9456 105.479 16.021C105.665 16.0907 105.923 16.1719 106.254 16.2648C106.655 16.375 106.977 16.4853 107.22 16.5956C107.464 16.7001 107.673 16.8655 107.847 17.0918C108.021 17.3124 108.108 17.6142 108.108 17.9972C108.108 18.2932 108.03 18.5718 107.873 18.833C107.717 19.0942 107.484 19.306 107.177 19.4685C106.869 19.6311 106.507 19.7123 106.089 19.7123ZM110.241 15.5335V18.3455C110.241 18.5776 110.29 18.7431 110.389 18.8417C110.487 18.9346 110.658 18.981 110.902 18.981H111.486V19.6514H110.772C110.331 19.6514 110 19.5498 109.779 19.3467C109.559 19.1435 109.448 18.8098 109.448 18.3455V15.5335H108.83V14.8805H109.448V13.6791H110.241V14.8805H111.486V15.5335H110.241ZM113.238 15.6554C113.377 15.3826 113.574 15.1707 113.83 15.0198C114.091 14.8689 114.407 14.7935 114.779 14.7935V15.6118H114.57C113.682 15.6118 113.238 16.0936 113.238 17.057V19.6514H112.445V14.8805H113.238V15.6554ZM117.774 19.7297C117.327 19.7297 116.921 19.6282 116.555 19.425C116.195 19.2219 115.911 18.9346 115.702 18.5631C115.499 18.1859 115.397 17.7506 115.397 17.2572C115.397 16.7697 115.502 16.3402 115.711 15.9688C115.925 15.5915 116.215 15.3042 116.581 15.1069C116.947 14.9038 117.356 14.8022 117.809 14.8022C118.261 14.8022 118.671 14.9038 119.036 15.1069C119.402 15.3042 119.689 15.5886 119.898 15.9601C120.113 16.3315 120.22 16.7639 120.22 17.2572C120.22 17.7506 120.11 18.1859 119.889 18.5631C119.675 18.9346 119.382 19.2219 119.01 19.425C118.639 19.6282 118.227 19.7297 117.774 19.7297ZM117.774 19.0332C118.058 19.0332 118.325 18.9665 118.575 18.833C118.824 18.6995 119.025 18.4993 119.175 18.2323C119.332 17.9653 119.411 17.6403 119.411 17.2572C119.411 16.8742 119.335 16.5492 119.184 16.2822C119.033 16.0152 118.836 15.8179 118.592 15.6902C118.348 15.5567 118.084 15.4899 117.8 15.4899C117.51 15.4899 117.243 15.5567 116.999 15.6902C116.761 15.8179 116.57 16.0152 116.424 16.2822C116.279 16.5492 116.207 16.8742 116.207 17.2572C116.207 17.6461 116.276 17.974 116.416 18.241C116.561 18.508 116.752 18.7082 116.99 18.8417C117.228 18.9694 117.489 19.0332 117.774 19.0332ZM123.586 14.7935C124.167 14.7935 124.637 14.9705 124.997 15.3245C125.357 15.6728 125.536 16.1777 125.536 16.8394V19.6514H124.753V16.9525C124.753 16.4766 124.634 16.1139 124.396 15.8643C124.158 15.6089 123.833 15.4812 123.421 15.4812C123.003 15.4812 122.669 15.6118 122.42 15.873C122.176 16.1342 122.054 16.5143 122.054 17.0135V19.6514H121.262V14.8805H122.054V15.5596C122.211 15.3158 122.423 15.1272 122.69 14.9937C122.962 14.8602 123.261 14.7935 123.586 14.7935ZM128.798 14.8022C129.21 14.8022 129.57 14.8921 129.878 15.0721C130.191 15.252 130.423 15.4783 130.574 15.7511V14.8805H131.375V19.7558C131.375 20.1911 131.282 20.5771 131.096 20.9137C130.911 21.2562 130.644 21.5231 130.296 21.7147C129.953 21.9062 129.553 22.002 129.094 22.002C128.467 22.002 127.945 21.854 127.527 21.558C127.109 21.262 126.862 20.8586 126.787 20.3478H127.571C127.658 20.638 127.838 20.8702 128.11 21.0443C128.383 21.2242 128.711 21.3142 129.094 21.3142C129.529 21.3142 129.883 21.1778 130.156 20.905C130.435 20.6322 130.574 20.2492 130.574 19.7558V18.7547C130.417 19.0332 130.185 19.2654 129.878 19.4511C129.57 19.6369 129.21 19.7297 128.798 19.7297C128.374 19.7297 127.988 19.6252 127.64 19.4163C127.298 19.2074 127.028 18.9143 126.831 18.537C126.633 18.1598 126.535 17.7303 126.535 17.2485C126.535 16.761 126.633 16.3344 126.831 15.9688C127.028 15.5973 127.298 15.31 127.64 15.1069C127.988 14.9038 128.374 14.8022 128.798 14.8022ZM130.574 17.2572C130.574 16.8974 130.502 16.584 130.356 16.317C130.211 16.05 130.014 15.8469 129.764 15.7076C129.521 15.5625 129.251 15.4899 128.955 15.4899C128.659 15.4899 128.389 15.5596 128.145 15.6989C127.901 15.8382 127.707 16.0413 127.562 16.3083C127.417 16.5753 127.344 16.8887 127.344 17.2485C127.344 17.6142 127.417 17.9334 127.562 18.2062C127.707 18.4732 127.901 18.6792 128.145 18.8243C128.389 18.9636 128.659 19.0332 128.955 19.0332C129.251 19.0332 129.521 18.9636 129.764 18.8243C130.014 18.6792 130.211 18.4732 130.356 18.2062C130.502 17.9334 130.574 17.6171 130.574 17.2572ZM133.532 18.5544L132.557 20.8963H132.026L132.662 18.5544H133.532ZM138.702 15.5335H137.701V19.6514H136.909V15.5335H136.291V14.8805H136.909V14.541C136.909 14.007 137.045 13.6182 137.318 13.3744C137.596 13.1248 138.04 13.0001 138.65 13.0001V13.6617C138.302 13.6617 138.055 13.7314 137.91 13.8707C137.771 14.0041 137.701 14.2276 137.701 14.541V14.8805H138.702V15.5335ZM141.707 19.7297C141.26 19.7297 140.853 19.6282 140.488 19.425C140.128 19.2219 139.843 18.9346 139.635 18.5631C139.431 18.1859 139.33 17.7506 139.33 17.2572C139.33 16.7697 139.434 16.3402 139.643 15.9688C139.858 15.5915 140.148 15.3042 140.514 15.1069C140.879 14.9038 141.289 14.8022 141.741 14.8022C142.194 14.8022 142.603 14.9038 142.969 15.1069C143.335 15.3042 143.622 15.5886 143.831 15.9601C144.046 16.3315 144.153 16.7639 144.153 17.2572C144.153 17.7506 144.043 18.1859 143.822 18.5631C143.607 18.9346 143.314 19.2219 142.943 19.425C142.571 19.6282 142.159 19.7297 141.707 19.7297ZM141.707 19.0332C141.991 19.0332 142.258 18.9665 142.507 18.833C142.757 18.6995 142.957 18.4993 143.108 18.2323C143.265 17.9653 143.343 17.6403 143.343 17.2572C143.343 16.8742 143.268 16.5492 143.117 16.2822C142.966 16.0152 142.769 15.8179 142.525 15.6902C142.281 15.5567 142.017 15.4899 141.733 15.4899C141.442 15.4899 141.175 15.5567 140.932 15.6902C140.694 15.8179 140.502 16.0152 140.357 16.2822C140.212 16.5492 140.139 16.8742 140.139 17.2572C140.139 17.6461 140.209 17.974 140.348 18.241C140.494 18.508 140.685 18.7082 140.923 18.8417C141.161 18.9694 141.422 19.0332 141.707 19.0332ZM147.275 19.7297C146.828 19.7297 146.422 19.6282 146.056 19.425C145.697 19.2219 145.412 18.9346 145.203 18.5631C145 18.1859 144.899 17.7506 144.899 17.2572C144.899 16.7697 145.003 16.3402 145.212 15.9688C145.427 15.5915 145.717 15.3042 146.083 15.1069C146.448 14.9038 146.857 14.8022 147.31 14.8022C147.763 14.8022 148.172 14.9038 148.538 15.1069C148.903 15.3042 149.191 15.5886 149.4 15.9601C149.614 16.3315 149.722 16.7639 149.722 17.2572C149.722 17.7506 149.611 18.1859 149.391 18.5631C149.176 18.9346 148.883 19.2219 148.512 19.425C148.14 19.6282 147.728 19.7297 147.275 19.7297ZM147.275 19.0332C147.56 19.0332 147.827 18.9665 148.076 18.833C148.326 18.6995 148.526 18.4993 148.677 18.2323C148.834 17.9653 148.912 17.6403 148.912 17.2572C148.912 16.8742 148.837 16.5492 148.686 16.2822C148.535 16.0152 148.337 15.8179 148.094 15.6902C147.85 15.5567 147.586 15.4899 147.301 15.4899C147.011 15.4899 146.744 15.5567 146.5 15.6902C146.262 15.8179 146.071 16.0152 145.926 16.2822C145.781 16.5492 145.708 16.8742 145.708 17.2572C145.708 17.6461 145.778 17.974 145.917 18.241C146.062 18.508 146.254 18.7082 146.492 18.8417C146.73 18.9694 146.991 19.0332 147.275 19.0332ZM150.467 17.2485C150.467 16.761 150.566 16.3344 150.763 15.9688C150.961 15.5973 151.23 15.31 151.573 15.1069C151.921 14.9038 152.31 14.8022 152.74 14.8022C153.111 14.8022 153.456 14.8892 153.776 15.0634C154.095 15.2317 154.339 15.4551 154.507 15.7337V13.209H155.308V19.6514H154.507V18.7547C154.35 19.0391 154.118 19.2741 153.81 19.4598C153.503 19.6398 153.143 19.7297 152.731 19.7297C152.307 19.7297 151.921 19.6252 151.573 19.4163C151.23 19.2074 150.961 18.9143 150.763 18.537C150.566 18.1598 150.467 17.7303 150.467 17.2485ZM154.507 17.2572C154.507 16.8974 154.434 16.584 154.289 16.317C154.144 16.05 153.947 15.8469 153.697 15.7076C153.453 15.5625 153.184 15.4899 152.888 15.4899C152.592 15.4899 152.322 15.5596 152.078 15.6989C151.834 15.8382 151.64 16.0413 151.495 16.3083C151.349 16.5753 151.277 16.8887 151.277 17.2485C151.277 17.6142 151.349 17.9334 151.495 18.2062C151.64 18.4732 151.834 18.6792 152.078 18.8243C152.322 18.9636 152.592 19.0332 152.888 19.0332C153.184 19.0332 153.453 18.9636 153.697 18.8243C153.947 18.6792 154.144 18.4732 154.289 18.2062C154.434 17.9334 154.507 17.6171 154.507 17.2572ZM159.955 16.1255V16.7958H156.481V16.1255H159.955ZM163.409 14.8022C163.821 14.8022 164.181 14.8921 164.489 15.0721C164.802 15.252 165.034 15.4783 165.185 15.7511V14.8805H165.986V19.7558C165.986 20.1911 165.893 20.5771 165.708 20.9137C165.522 21.2562 165.255 21.5231 164.907 21.7147C164.564 21.9062 164.164 22.002 163.705 22.002C163.078 22.002 162.556 21.854 162.138 21.558C161.72 21.262 161.474 20.8586 161.398 20.3478H162.182C162.269 20.638 162.449 20.8702 162.721 21.0443C162.994 21.2242 163.322 21.3142 163.705 21.3142C164.14 21.3142 164.494 21.1778 164.767 20.905C165.046 20.6322 165.185 20.2492 165.185 19.7558V18.7547C165.028 19.0332 164.796 19.2654 164.489 19.4511C164.181 19.6369 163.821 19.7297 163.409 19.7297C162.985 19.7297 162.599 19.6252 162.251 19.4163C161.909 19.2074 161.639 18.9143 161.442 18.537C161.244 18.1598 161.146 17.7303 161.146 17.2485C161.146 16.761 161.244 16.3344 161.442 15.9688C161.639 15.5973 161.909 15.31 162.251 15.1069C162.599 14.9038 162.985 14.8022 163.409 14.8022ZM165.185 17.2572C165.185 16.8974 165.113 16.584 164.967 16.317C164.822 16.05 164.625 15.8469 164.375 15.7076C164.132 15.5625 163.862 15.4899 163.566 15.4899C163.27 15.4899 163 15.5596 162.756 15.6989C162.512 15.8382 162.318 16.0413 162.173 16.3083C162.028 16.5753 161.955 16.8887 161.955 17.2485C161.955 17.6142 162.028 17.9334 162.173 18.2062C162.318 18.4732 162.512 18.6792 162.756 18.8243C163 18.9636 163.27 19.0332 163.566 19.0332C163.862 19.0332 164.132 18.9636 164.375 18.8243C164.625 18.6792 164.822 18.4732 164.967 18.2062C165.113 17.9334 165.185 17.6171 165.185 17.2572ZM168.117 15.6554C168.256 15.3826 168.454 15.1707 168.709 15.0198C168.97 14.8689 169.287 14.7935 169.658 14.7935V15.6118H169.449C168.561 15.6118 168.117 16.0936 168.117 17.057V19.6514H167.325V14.8805H168.117V15.6554ZM170.277 17.2485C170.277 16.761 170.375 16.3344 170.573 15.9688C170.77 15.5973 171.04 15.31 171.382 15.1069C171.73 14.9038 172.116 14.8022 172.54 14.8022C172.958 14.8022 173.321 14.8921 173.628 15.0721C173.936 15.252 174.165 15.4783 174.316 15.7511V14.8805H175.117V19.6514H174.316V18.7634C174.159 19.042 173.924 19.2741 173.611 19.4598C173.303 19.6398 172.943 19.7297 172.531 19.7297C172.108 19.7297 171.725 19.6252 171.382 19.4163C171.04 19.2074 170.77 18.9143 170.573 18.537C170.375 18.1598 170.277 17.7303 170.277 17.2485ZM174.316 17.2572C174.316 16.8974 174.244 16.584 174.098 16.317C173.953 16.05 173.756 15.8469 173.506 15.7076C173.263 15.5625 172.993 15.4899 172.697 15.4899C172.401 15.4899 172.131 15.5596 171.887 15.6989C171.643 15.8382 171.449 16.0413 171.304 16.3083C171.159 16.5753 171.086 16.8887 171.086 17.2485C171.086 17.6142 171.159 17.9334 171.304 18.2062C171.449 18.4732 171.643 18.6792 171.887 18.8243C172.131 18.9636 172.401 19.0332 172.697 19.0332C172.993 19.0332 173.263 18.9636 173.506 18.8243C173.756 18.6792 173.953 18.4732 174.098 18.2062C174.244 17.9334 174.316 17.6171 174.316 17.2572ZM176.16 17.2485C176.16 16.761 176.259 16.3344 176.456 15.9688C176.653 15.5973 176.923 15.31 177.266 15.1069C177.614 14.9038 178.003 14.8022 178.432 14.8022C178.804 14.8022 179.149 14.8892 179.468 15.0634C179.787 15.2317 180.031 15.4551 180.199 15.7337V13.209H181V19.6514H180.199V18.7547C180.043 19.0391 179.811 19.2741 179.503 19.4598C179.195 19.6398 178.835 19.7297 178.423 19.7297C178 19.7297 177.614 19.6252 177.266 19.4163C176.923 19.2074 176.653 18.9143 176.456 18.537C176.259 18.1598 176.16 17.7303 176.16 17.2485ZM180.199 17.2572C180.199 16.8974 180.127 16.584 179.982 16.317C179.837 16.05 179.639 15.8469 179.39 15.7076C179.146 15.5625 178.876 15.4899 178.58 15.4899C178.284 15.4899 178.014 15.5596 177.77 15.6989C177.527 15.8382 177.332 16.0413 177.187 16.3083C177.042 16.5753 176.97 16.8887 176.97 17.2485C176.97 17.6142 177.042 17.9334 177.187 18.2062C177.332 18.4732 177.527 18.6792 177.77 18.8243C178.014 18.9636 178.284 19.0332 178.58 19.0332C178.876 19.0332 179.146 18.9636 179.39 18.8243C179.639 18.6792 179.837 18.4732 179.982 18.2062C180.127 17.9334 180.199 17.6171 180.199 17.2572ZM186.692 17.0831C186.692 17.234 186.683 17.3936 186.666 17.562H182.853C182.882 18.0321 183.041 18.4006 183.332 18.6676C183.628 18.9288 183.985 19.0594 184.402 19.0594C184.745 19.0594 185.029 18.981 185.256 18.8243C185.488 18.6618 185.65 18.4471 185.743 18.1801H186.596C186.469 18.6386 186.213 19.0129 185.83 19.3031C185.447 19.5875 184.971 19.7297 184.402 19.7297C183.95 19.7297 183.543 19.6282 183.184 19.425C182.83 19.2219 182.551 18.9346 182.348 18.5631C182.145 18.1859 182.043 17.7506 182.043 17.2572C182.043 16.7639 182.142 16.3315 182.339 15.9601C182.536 15.5886 182.812 15.3042 183.166 15.1069C183.526 14.9038 183.938 14.8022 184.402 14.8022C184.855 14.8022 185.256 14.9008 185.604 15.0982C185.952 15.2955 186.219 15.5683 186.405 15.9165C186.596 16.259 186.692 16.6478 186.692 17.0831ZM185.874 16.9177C185.874 16.6159 185.807 16.3576 185.674 16.1429C185.54 15.9223 185.357 15.7569 185.125 15.6467C184.899 15.5306 184.646 15.4725 184.368 15.4725C183.967 15.4725 183.625 15.6002 183.34 15.8556C183.062 16.111 182.902 16.465 182.862 16.9177H185.874ZM190.851 15.7685C191.014 15.4841 191.252 15.252 191.565 15.0721C191.878 14.8921 192.235 14.8022 192.636 14.8022C193.065 14.8022 193.451 14.9038 193.794 15.1069C194.136 15.31 194.406 15.5973 194.603 15.9688C194.801 16.3344 194.899 16.761 194.899 17.2485C194.899 17.7303 194.801 18.1598 194.603 18.537C194.406 18.9143 194.133 19.2074 193.785 19.4163C193.443 19.6252 193.059 19.7297 192.636 19.7297C192.224 19.7297 191.861 19.6398 191.548 19.4598C191.24 19.2799 191.008 19.0507 190.851 18.7721V19.6514H190.059V13.209H190.851V15.7685ZM194.09 17.2485C194.09 16.8887 194.017 16.5753 193.872 16.3083C193.727 16.0413 193.53 15.8382 193.28 15.6989C193.036 15.5596 192.766 15.4899 192.47 15.4899C192.18 15.4899 191.91 15.5625 191.661 15.7076C191.417 15.8469 191.22 16.0529 191.069 16.3257C190.924 16.5927 190.851 16.9032 190.851 17.2572C190.851 17.6171 190.924 17.9334 191.069 18.2062C191.22 18.4732 191.417 18.6792 191.661 18.8243C191.91 18.9636 192.18 19.0332 192.47 19.0332C192.766 19.0332 193.036 18.9636 193.28 18.8243C193.53 18.6792 193.727 18.4732 193.872 18.2062C194.017 17.9334 194.09 17.6142 194.09 17.2485ZM200.173 14.8805V19.6514H199.381V18.9462C199.23 19.19 199.018 19.3815 198.745 19.5208C198.478 19.6543 198.182 19.721 197.857 19.721C197.486 19.721 197.152 19.6456 196.856 19.4947C196.56 19.338 196.325 19.1058 196.151 18.7982C195.983 18.4906 195.899 18.1162 195.899 17.6751V14.8805H196.682V17.5707C196.682 18.0408 196.801 18.4035 197.039 18.6589C197.277 18.9085 197.602 19.0332 198.014 19.0332C198.438 19.0332 198.772 18.9027 199.015 18.6415C199.259 18.3803 199.381 18.0001 199.381 17.501V14.8805H200.173ZM201.92 14.1057C201.769 14.1057 201.641 14.0535 201.537 13.949C201.432 13.8445 201.38 13.7168 201.38 13.5659C201.38 13.415 201.432 13.2874 201.537 13.1829C201.641 13.0784 201.769 13.0262 201.92 13.0262C202.065 13.0262 202.187 13.0784 202.286 13.1829C202.39 13.2874 202.442 13.415 202.442 13.5659C202.442 13.7168 202.39 13.8445 202.286 13.949C202.187 14.0535 202.065 14.1057 201.92 14.1057ZM202.303 14.8805V19.6514H201.511V14.8805H202.303ZM204.446 13.209V19.6514H203.653V13.209H204.446ZM205.5 17.2485C205.5 16.761 205.598 16.3344 205.796 15.9688C205.993 15.5973 206.263 15.31 206.605 15.1069C206.954 14.9038 207.343 14.8022 207.772 14.8022C208.143 14.8022 208.489 14.8892 208.808 15.0634C209.127 15.2317 209.371 15.4551 209.539 15.7337V13.209H210.34V19.6514H209.539V18.7547C209.383 19.0391 209.15 19.2741 208.843 19.4598C208.535 19.6398 208.175 19.7297 207.763 19.7297C207.34 19.7297 206.954 19.6252 206.605 19.4163C206.263 19.2074 205.993 18.9143 205.796 18.537C205.598 18.1598 205.5 17.7303 205.5 17.2485ZM209.539 17.2572C209.539 16.8974 209.467 16.584 209.322 16.317C209.177 16.05 208.979 15.8469 208.73 15.7076C208.486 15.5625 208.216 15.4899 207.92 15.4899C207.624 15.4899 207.354 15.5596 207.11 15.6989C206.867 15.8382 206.672 16.0413 206.527 16.3083C206.382 16.5753 206.309 16.8887 206.309 17.2485C206.309 17.6142 206.382 17.9334 206.527 18.2062C206.672 18.4732 206.867 18.6792 207.11 18.8243C207.354 18.9636 207.624 19.0332 207.92 19.0332C208.216 19.0332 208.486 18.9636 208.73 18.8243C208.979 18.6792 209.177 18.4732 209.322 18.2062C209.467 17.9334 209.539 17.6171 209.539 17.2572ZM218.353 17.0831C218.353 17.234 218.344 17.3936 218.327 17.562H214.514C214.543 18.0321 214.702 18.4006 214.993 18.6676C215.289 18.9288 215.645 19.0594 216.063 19.0594C216.406 19.0594 216.69 18.981 216.917 18.8243C217.149 18.6618 217.311 18.4471 217.404 18.1801H218.257C218.13 18.6386 217.874 19.0129 217.491 19.3031C217.108 19.5875 216.632 19.7297 216.063 19.7297C215.611 19.7297 215.204 19.6282 214.845 19.425C214.49 19.2219 214.212 18.9346 214.009 18.5631C213.806 18.1859 213.704 17.7506 213.704 17.2572C213.704 16.7639 213.803 16.3315 214 15.9601C214.197 15.5886 214.473 15.3042 214.827 15.1069C215.187 14.9038 215.599 14.8022 216.063 14.8022C216.516 14.8022 216.917 14.9008 217.265 15.0982C217.613 15.2955 217.88 15.5683 218.066 15.9165C218.257 16.259 218.353 16.6478 218.353 17.0831ZM217.535 16.9177C217.535 16.6159 217.468 16.3576 217.334 16.1429C217.201 15.9223 217.018 15.7569 216.786 15.6467C216.56 15.5306 216.307 15.4725 216.029 15.4725C215.628 15.4725 215.286 15.6002 215.001 15.8556C214.723 16.111 214.563 16.465 214.522 16.9177H217.535ZM221.723 14.7935C222.304 14.7935 222.774 14.9705 223.134 15.3245C223.493 15.6728 223.673 16.1777 223.673 16.8394V19.6514H222.89V16.9525C222.89 16.4766 222.771 16.1139 222.533 15.8643C222.295 15.6089 221.97 15.4812 221.558 15.4812C221.14 15.4812 220.806 15.6118 220.557 15.873C220.313 16.1342 220.191 16.5143 220.191 17.0135V19.6514H219.399V14.8805H220.191V15.5596C220.348 15.3158 220.56 15.1272 220.827 14.9937C221.099 14.8602 221.398 14.7935 221.723 14.7935ZM226.656 19.7297C226.291 19.7297 225.963 19.6688 225.673 19.5469C225.382 19.4192 225.153 19.2451 224.985 19.0245C224.817 18.7982 224.724 18.5399 224.706 18.2497H225.525C225.548 18.4877 225.658 18.6821 225.855 18.833C226.059 18.9839 226.323 19.0594 226.648 19.0594C226.95 19.0594 227.187 18.9926 227.362 18.8591C227.536 18.7256 227.623 18.5573 227.623 18.3542C227.623 18.1452 227.53 17.9914 227.344 17.8928C227.158 17.7883 226.871 17.6867 226.482 17.5881C226.128 17.4952 225.838 17.4023 225.612 17.3095C225.391 17.2108 225.2 17.0686 225.037 16.8829C224.88 16.6914 224.802 16.4418 224.802 16.1342C224.802 15.8904 224.875 15.667 225.02 15.4638C225.165 15.2607 225.371 15.1011 225.638 14.985C225.905 14.8631 226.209 14.8022 226.552 14.8022C227.08 14.8022 227.507 14.9357 227.832 15.2027C228.157 15.4696 228.331 15.8353 228.354 16.2996H227.562C227.544 16.05 227.443 15.8498 227.257 15.6989C227.077 15.548 226.833 15.4725 226.526 15.4725C226.241 15.4725 226.015 15.5335 225.847 15.6554C225.678 15.7772 225.594 15.9369 225.594 16.1342C225.594 16.2909 225.644 16.4215 225.742 16.5259C225.847 16.6246 225.974 16.7059 226.125 16.7697C226.282 16.8278 226.497 16.8945 226.77 16.97C227.112 17.0628 227.391 17.1557 227.605 17.2485C227.82 17.3356 228.003 17.4691 228.154 17.649C228.311 17.8289 228.392 18.064 228.398 18.3542C228.398 18.6154 228.325 18.8504 228.18 19.0594C228.035 19.2683 227.829 19.4337 227.562 19.5556C227.301 19.6717 226.999 19.7297 226.656 19.7297ZM233.747 14.8805V19.6514H232.955V18.9462C232.804 19.19 232.592 19.3815 232.319 19.5208C232.052 19.6543 231.756 19.721 231.431 19.721C231.06 19.721 230.726 19.6456 230.43 19.4947C230.134 19.338 229.899 19.1058 229.725 18.7982C229.557 18.4906 229.472 18.1162 229.472 17.6751V14.8805H230.256V17.5707C230.256 18.0408 230.375 18.4035 230.613 18.6589C230.851 18.9085 231.176 19.0332 231.588 19.0332C232.012 19.0332 232.345 18.9027 232.589 18.6415C232.833 18.3803 232.955 18.0001 232.955 17.501V14.8805H233.747ZM235.877 15.6554C236.016 15.3826 236.214 15.1707 236.469 15.0198C236.73 14.8689 237.046 14.7935 237.418 14.7935V15.6118H237.209C236.321 15.6118 235.877 16.0936 235.877 17.057V19.6514H235.085V14.8805H235.877V15.6554ZM242.685 17.0831C242.685 17.234 242.677 17.3936 242.659 17.562H238.846C238.875 18.0321 239.035 18.4006 239.325 18.6676C239.621 18.9288 239.978 19.0594 240.396 19.0594C240.738 19.0594 241.022 18.981 241.249 18.8243C241.481 18.6618 241.644 18.4471 241.736 18.1801H242.59C242.462 18.6386 242.206 19.0129 241.823 19.3031C241.44 19.5875 240.964 19.7297 240.396 19.7297C239.943 19.7297 239.537 19.6282 239.177 19.425C238.823 19.2219 238.544 18.9346 238.341 18.5631C238.138 18.1859 238.036 17.7506 238.036 17.2572C238.036 16.7639 238.135 16.3315 238.332 15.9601C238.53 15.5886 238.805 15.3042 239.159 15.1069C239.519 14.9038 239.931 14.8022 240.396 14.8022C240.848 14.8022 241.249 14.9008 241.597 15.0982C241.945 15.2955 242.212 15.5683 242.398 15.9165C242.59 16.259 242.685 16.6478 242.685 17.0831ZM241.867 16.9177C241.867 16.6159 241.8 16.3576 241.667 16.1429C241.533 15.9223 241.35 15.7569 241.118 15.6467C240.892 15.5306 240.639 15.4725 240.361 15.4725C239.96 15.4725 239.618 15.6002 239.334 15.8556C239.055 16.111 238.895 16.465 238.855 16.9177H241.867ZM245.42 19.7297C245.054 19.7297 244.726 19.6688 244.436 19.5469C244.146 19.4192 243.917 19.2451 243.748 19.0245C243.58 18.7982 243.487 18.5399 243.47 18.2497H244.288C244.311 18.4877 244.422 18.6821 244.619 18.833C244.822 18.9839 245.086 19.0594 245.411 19.0594C245.713 19.0594 245.951 18.9926 246.125 18.8591C246.299 18.7256 246.386 18.5573 246.386 18.3542C246.386 18.1452 246.293 17.9914 246.108 17.8928C245.922 17.7883 245.635 17.6867 245.246 17.5881C244.892 17.4952 244.602 17.4023 244.375 17.3095C244.155 17.2108 243.963 17.0686 243.801 16.8829C243.644 16.6914 243.566 16.4418 243.566 16.1342C243.566 15.8904 243.638 15.667 243.783 15.4638C243.928 15.2607 244.134 15.1011 244.401 14.985C244.668 14.8631 244.973 14.8022 245.316 14.8022C245.844 14.8022 246.27 14.9357 246.595 15.2027C246.92 15.4696 247.094 15.8353 247.118 16.2996H246.325C246.308 16.05 246.206 15.8498 246.021 15.6989C245.841 15.548 245.597 15.4725 245.289 15.4725C245.005 15.4725 244.779 15.5335 244.61 15.6554C244.442 15.7772 244.358 15.9369 244.358 16.1342C244.358 16.2909 244.407 16.4215 244.506 16.5259C244.61 16.6246 244.738 16.7059 244.889 16.7697C245.046 16.8278 245.26 16.8945 245.533 16.97C245.876 17.0628 246.154 17.1557 246.369 17.2485C246.584 17.3356 246.767 17.4691 246.917 17.649C247.074 17.8289 247.155 18.064 247.161 18.3542C247.161 18.6154 247.089 18.8504 246.944 19.0594C246.798 19.2683 246.592 19.4337 246.325 19.5556C246.064 19.6717 245.762 19.7297 245.42 19.7297ZM71.6863 28.5335H70.6851V32.6514H69.8929V28.5335H69.2747V27.8805H69.8929V27.541C69.8929 27.007 70.0293 26.6182 70.302 26.3744C70.5806 26.1248 71.0246 26.0001 71.634 26.0001V26.6617C71.2858 26.6617 71.0391 26.7314 70.894 26.8707C70.7547 27.0041 70.6851 27.2276 70.6851 27.541V27.8805H71.6863V28.5335ZM73.4022 28.6554C73.5415 28.3826 73.7389 28.1707 73.9942 28.0198C74.2554 27.8689 74.5717 27.7935 74.9432 27.7935V28.6118H74.7342C73.8462 28.6118 73.4022 29.0936 73.4022 30.057V32.6514H72.61V27.8805H73.4022V28.6554ZM80.2106 30.0831C80.2106 30.234 80.2019 30.3936 80.1845 30.562H76.3713C76.4004 31.0321 76.56 31.4006 76.8502 31.6676C77.1462 31.9288 77.5031 32.0594 77.921 32.0594C78.2634 32.0594 78.5478 31.981 78.7742 31.8243C79.0063 31.6618 79.1688 31.4471 79.2617 31.1801H80.1149C79.9872 31.6386 79.7318 32.0129 79.3488 32.3031C78.9657 32.5875 78.4898 32.7297 77.921 32.7297C77.4683 32.7297 77.062 32.6282 76.7022 32.425C76.3481 32.2219 76.0695 31.9346 75.8664 31.5631C75.6633 31.1859 75.5617 30.7506 75.5617 30.2572C75.5617 29.7639 75.6604 29.3315 75.8577 28.9601C76.055 28.5886 76.3307 28.3042 76.6848 28.1069C77.0446 27.9038 77.4567 27.8022 77.921 27.8022C78.3737 27.8022 78.7742 27.9008 79.1224 28.0982C79.4706 28.2955 79.7376 28.5683 79.9233 28.9165C80.1149 29.259 80.2106 29.6478 80.2106 30.0831ZM79.3923 29.9177C79.3923 29.6159 79.3255 29.3576 79.1921 29.1429C79.0586 28.9223 78.8757 28.7569 78.6436 28.6467C78.4172 28.5306 78.1648 28.4725 77.8862 28.4725C77.4857 28.4725 77.1433 28.6002 76.8589 28.8556C76.5803 29.111 76.4207 29.465 76.38 29.9177H79.3923ZM82.9453 32.7297C82.5797 32.7297 82.2518 32.6688 81.9616 32.5469C81.6714 32.4192 81.4421 32.2451 81.2738 32.0245C81.1055 31.7982 81.0126 31.5399 80.9952 31.2497H81.8136C81.8368 31.4877 81.947 31.6821 82.1444 31.833C82.3475 31.9839 82.6116 32.0594 82.9366 32.0594C83.2384 32.0594 83.4764 31.9926 83.6505 31.8591C83.8246 31.7256 83.9117 31.5573 83.9117 31.3542C83.9117 31.1452 83.8188 30.9914 83.6331 30.8928C83.4474 30.7883 83.1601 30.6867 82.7712 30.5881C82.4172 30.4952 82.127 30.4023 81.9006 30.3095C81.6801 30.2108 81.4885 30.0686 81.326 29.8829C81.1693 29.6914 81.091 29.4418 81.091 29.1342C81.091 28.8904 81.1635 28.667 81.3086 28.4638C81.4537 28.2607 81.6597 28.1011 81.9267 27.985C82.1937 27.8631 82.4984 27.8022 82.8408 27.8022C83.369 27.8022 83.7956 27.9357 84.1206 28.2027C84.4456 28.4696 84.6198 28.8353 84.643 29.2996H83.8507C83.8333 29.05 83.7318 28.8498 83.546 28.6989C83.3661 28.548 83.1223 28.4725 82.8147 28.4725C82.5303 28.4725 82.304 28.5335 82.1357 28.6554C81.9674 28.7772 81.8832 28.9369 81.8832 29.1342C81.8832 29.2909 81.9325 29.4215 82.0312 29.5259C82.1357 29.6246 82.2634 29.7059 82.4143 29.7697C82.571 29.8278 82.7857 29.8945 83.0585 29.97C83.4009 30.0628 83.6795 30.1557 83.8943 30.2485C84.109 30.3356 84.2918 30.4691 84.4427 30.649C84.5994 30.8289 84.6807 31.064 84.6865 31.3542C84.6865 31.6154 84.614 31.8504 84.4689 32.0594C84.3238 32.2683 84.1177 32.4337 83.8507 32.5556C83.5896 32.6717 83.2878 32.7297 82.9453 32.7297ZM88.1729 27.7935C88.5327 27.7935 88.8577 27.8718 89.1479 28.0285C89.4381 28.1794 89.6645 28.4087 89.827 28.7163C89.9953 29.0239 90.0795 29.3983 90.0795 29.8394V32.6514H89.2959V29.9525C89.2959 29.4766 89.1769 29.1139 88.939 28.8643C88.701 28.6089 88.376 28.4812 87.9639 28.4812C87.546 28.4812 87.2123 28.6118 86.9627 28.873C86.719 29.1342 86.5971 29.5143 86.5971 30.0135V32.6514H85.8049V26.209H86.5971V28.5596C86.7538 28.3158 86.9685 28.1272 87.2413 27.9937C87.5199 27.8602 87.8304 27.7935 88.1729 27.7935ZM93.6981 27.7935C94.2784 27.7935 94.7486 27.9705 95.1084 28.3245C95.4683 28.6728 95.6482 29.1777 95.6482 29.8394V32.6514H94.8646V29.9525C94.8646 29.4766 94.7457 29.1139 94.5077 28.8643C94.2697 28.6089 93.9447 28.4812 93.5326 28.4812C93.1148 28.4812 92.781 28.6118 92.5315 28.873C92.2877 29.1342 92.1658 29.5143 92.1658 30.0135V32.6514H91.3736V27.8805H92.1658V28.5596C92.3225 28.3158 92.5344 28.1272 92.8013 27.9937C93.0741 27.8602 93.373 27.7935 93.6981 27.7935ZM101.295 30.0831C101.295 30.234 101.287 30.3936 101.269 30.562H97.4559C97.485 31.0321 97.6446 31.4006 97.9348 31.6676C98.2308 31.9288 98.5877 32.0594 99.0056 32.0594C99.348 32.0594 99.6324 31.981 99.8588 31.8243C100.091 31.6618 100.253 31.4471 100.346 31.1801H101.199C101.072 31.6386 100.816 32.0129 100.433 32.3031C100.05 32.5875 99.5744 32.7297 99.0056 32.7297C98.5529 32.7297 98.1466 32.6282 97.7868 32.425C97.4327 32.2219 97.1541 31.9346 96.951 31.5631C96.7479 31.1859 96.6463 30.7506 96.6463 30.2572C96.6463 29.7639 96.745 29.3315 96.9423 28.9601C97.1396 28.5886 97.4153 28.3042 97.7694 28.1069C98.1292 27.9038 98.5413 27.8022 99.0056 27.8022C99.4583 27.8022 99.8588 27.9008 100.207 28.0982C100.555 28.2955 100.822 28.5683 101.008 28.9165C101.199 29.259 101.295 29.6478 101.295 30.0831ZM100.477 29.9177C100.477 29.6159 100.41 29.3576 100.277 29.1429C100.143 28.9223 99.9603 28.7569 99.7282 28.6467C99.5018 28.5306 99.2494 28.4725 98.9708 28.4725C98.5703 28.4725 98.2279 28.6002 97.9435 28.8556C97.6649 29.111 97.5053 29.465 97.4647 29.9177H100.477ZM104.03 32.7297C103.664 32.7297 103.336 32.6688 103.046 32.5469C102.756 32.4192 102.527 32.2451 102.358 32.0245C102.19 31.7982 102.097 31.5399 102.08 31.2497H102.898C102.921 31.4877 103.032 31.6821 103.229 31.833C103.432 31.9839 103.696 32.0594 104.021 32.0594C104.323 32.0594 104.561 31.9926 104.735 31.8591C104.909 31.7256 104.996 31.5573 104.996 31.3542C104.996 31.1452 104.903 30.9914 104.718 30.8928C104.532 30.7883 104.245 30.6867 103.856 30.5881C103.502 30.4952 103.212 30.4023 102.985 30.3095C102.765 30.2108 102.573 30.0686 102.411 29.8829C102.254 29.6914 102.176 29.4418 102.176 29.1342C102.176 28.8904 102.248 28.667 102.393 28.4638C102.538 28.2607 102.744 28.1011 103.011 27.985C103.278 27.8631 103.583 27.8022 103.925 27.8022C104.454 27.8022 104.88 27.9357 105.205 28.2027C105.53 28.4696 105.704 28.8353 105.728 29.2996H104.935C104.918 29.05 104.816 28.8498 104.631 28.6989C104.451 28.548 104.207 28.4725 103.899 28.4725C103.615 28.4725 103.389 28.5335 103.22 28.6554C103.052 28.7772 102.968 28.9369 102.968 29.1342C102.968 29.2909 103.017 29.4215 103.116 29.5259C103.22 29.6246 103.348 29.7059 103.499 29.7697C103.656 29.8278 103.87 29.8945 104.143 29.97C104.486 30.0628 104.764 30.1557 104.979 30.2485C105.194 30.3356 105.376 30.4691 105.527 30.649C105.684 30.8289 105.765 31.064 105.771 31.3542C105.771 31.6154 105.699 31.8504 105.553 32.0594C105.408 32.2683 105.202 32.4337 104.935 32.5556C104.674 32.6717 104.372 32.7297 104.03 32.7297ZM108.578 32.7297C108.213 32.7297 107.885 32.6688 107.595 32.5469C107.304 32.4192 107.075 32.2451 106.907 32.0245C106.739 31.7982 106.646 31.5399 106.628 31.2497H107.447C107.47 31.4877 107.58 31.6821 107.777 31.833C107.981 31.9839 108.245 32.0594 108.57 32.0594C108.872 32.0594 109.109 31.9926 109.284 31.8591C109.458 31.7256 109.545 31.5573 109.545 31.3542C109.545 31.1452 109.452 30.9914 109.266 30.8928C109.08 30.7883 108.793 30.6867 108.404 30.5881C108.05 30.4952 107.76 30.4023 107.534 30.3095C107.313 30.2108 107.122 30.0686 106.959 29.8829C106.802 29.6914 106.724 29.4418 106.724 29.1342C106.724 28.8904 106.797 28.667 106.942 28.4638C107.087 28.2607 107.293 28.1011 107.56 27.985C107.827 27.8631 108.132 27.8022 108.474 27.8022C109.002 27.8022 109.429 27.9357 109.754 28.2027C110.079 28.4696 110.253 28.8353 110.276 29.2996H109.484C109.466 29.05 109.365 28.8498 109.179 28.6989C108.999 28.548 108.755 28.4725 108.448 28.4725C108.163 28.4725 107.937 28.5335 107.769 28.6554C107.6 28.7772 107.516 28.9369 107.516 29.1342C107.516 29.2909 107.566 29.4215 107.664 29.5259C107.769 29.6246 107.896 29.7059 108.047 29.7697C108.204 29.8278 108.419 29.8945 108.692 29.97C109.034 30.0628 109.313 30.1557 109.527 30.2485C109.742 30.3356 109.925 30.4691 110.076 30.649C110.233 30.8289 110.314 31.064 110.32 31.3542C110.32 31.6154 110.247 31.8504 110.102 32.0594C109.957 32.2683 109.751 32.4337 109.484 32.5556C109.223 32.6717 108.921 32.7297 108.578 32.7297ZM113.463 30.2485C113.463 29.761 113.562 29.3344 113.759 28.9688C113.956 28.5973 114.226 28.31 114.569 28.1069C114.917 27.9038 115.303 27.8022 115.726 27.8022C116.144 27.8022 116.507 27.8921 116.815 28.0721C117.122 28.252 117.352 28.4783 117.502 28.7511V27.8805H118.303V32.6514H117.502V31.7634C117.346 32.042 117.111 32.2741 116.797 32.4598C116.49 32.6398 116.13 32.7297 115.718 32.7297C115.294 32.7297 114.911 32.6252 114.569 32.4163C114.226 32.2074 113.956 31.9143 113.759 31.537C113.562 31.1598 113.463 30.7303 113.463 30.2485ZM117.502 30.2572C117.502 29.8974 117.43 29.584 117.285 29.317C117.14 29.05 116.942 28.8469 116.693 28.7076C116.449 28.5625 116.179 28.4899 115.883 28.4899C115.587 28.4899 115.317 28.5596 115.074 28.6989C114.83 28.8382 114.635 29.0413 114.49 29.3083C114.345 29.5753 114.273 29.8887 114.273 30.2485C114.273 30.6142 114.345 30.9334 114.49 31.2062C114.635 31.4732 114.83 31.6792 115.074 31.8243C115.317 31.9636 115.587 32.0332 115.883 32.0332C116.179 32.0332 116.449 31.9636 116.693 31.8243C116.942 31.6792 117.14 31.4732 117.285 31.2062C117.43 30.9334 117.502 30.6171 117.502 30.2572ZM121.967 27.7935C122.547 27.7935 123.017 27.9705 123.377 28.3245C123.737 28.6728 123.917 29.1777 123.917 29.8394V32.6514H123.133V29.9525C123.133 29.4766 123.014 29.1139 122.776 28.8643C122.538 28.6089 122.213 28.4812 121.801 28.4812C121.383 28.4812 121.05 28.6118 120.8 28.873C120.556 29.1342 120.434 29.5143 120.434 30.0135V32.6514H119.642V27.8805H120.434V28.5596C120.591 28.3158 120.803 28.1272 121.07 27.9937C121.343 27.8602 121.642 27.7935 121.967 27.7935ZM124.915 30.2485C124.915 29.761 125.014 29.3344 125.211 28.9688C125.408 28.5973 125.678 28.31 126.021 28.1069C126.369 27.9038 126.758 27.8022 127.187 27.8022C127.559 27.8022 127.904 27.8892 128.223 28.0634C128.542 28.2317 128.786 28.4551 128.954 28.7337V26.209H129.755V32.6514H128.954V31.7547C128.798 32.0391 128.566 32.2741 128.258 32.4598C127.95 32.6398 127.591 32.7297 127.178 32.7297C126.755 32.7297 126.369 32.6252 126.021 32.4163C125.678 32.2074 125.408 31.9143 125.211 31.537C125.014 31.1598 124.915 30.7303 124.915 30.2485ZM128.954 30.2572C128.954 29.8974 128.882 29.584 128.737 29.317C128.592 29.05 128.394 28.8469 128.145 28.7076C127.901 28.5625 127.631 28.4899 127.335 28.4899C127.039 28.4899 126.769 28.5596 126.526 28.6989C126.282 28.8382 126.087 29.0413 125.942 29.3083C125.797 29.5753 125.725 29.8887 125.725 30.2485C125.725 30.6142 125.797 30.9334 125.942 31.2062C126.087 31.4732 126.282 31.6792 126.526 31.8243C126.769 31.9636 127.039 32.0332 127.335 32.0332C127.631 32.0332 127.901 31.9636 128.145 31.8243C128.394 31.6792 128.592 31.4732 128.737 31.2062C128.882 30.9334 128.954 30.6171 128.954 30.2572ZM135.104 32.7297C134.739 32.7297 134.411 32.6688 134.12 32.5469C133.83 32.4192 133.601 32.2451 133.433 32.0245C133.264 31.7982 133.171 31.5399 133.154 31.2497H133.972C133.996 31.4877 134.106 31.6821 134.303 31.833C134.506 31.9839 134.77 32.0594 135.095 32.0594C135.397 32.0594 135.635 31.9926 135.809 31.8591C135.983 31.7256 136.071 31.5573 136.071 31.3542C136.071 31.1452 135.978 30.9914 135.792 30.8928C135.606 30.7883 135.319 30.6867 134.93 30.5881C134.576 30.4952 134.286 30.4023 134.059 30.3095C133.839 30.2108 133.647 30.0686 133.485 29.8829C133.328 29.6914 133.25 29.4418 133.25 29.1342C133.25 28.8904 133.322 28.667 133.467 28.4638C133.613 28.2607 133.819 28.1011 134.086 27.985C134.353 27.8631 134.657 27.8022 135 27.8022C135.528 27.8022 135.954 27.9357 136.279 28.2027C136.605 28.4696 136.779 28.8353 136.802 29.2996H136.01C135.992 29.05 135.891 28.8498 135.705 28.6989C135.525 28.548 135.281 28.4725 134.974 28.4725C134.689 28.4725 134.463 28.5335 134.295 28.6554C134.126 28.7772 134.042 28.9369 134.042 29.1342C134.042 29.2909 134.091 29.4215 134.19 29.5259C134.295 29.6246 134.422 29.7059 134.573 29.7697C134.73 29.8278 134.945 29.8945 135.217 29.97C135.56 30.0628 135.838 30.1557 136.053 30.2485C136.268 30.3356 136.451 30.4691 136.602 30.649C136.758 30.8289 136.84 31.064 136.845 31.3542C136.845 31.6154 136.773 31.8504 136.628 32.0594C136.483 32.2683 136.277 32.4337 136.01 32.5556C135.748 32.6717 135.447 32.7297 135.104 32.7297ZM137.668 30.2485C137.668 29.761 137.766 29.3344 137.964 28.9688C138.161 28.5973 138.431 28.31 138.773 28.1069C139.122 27.9038 139.508 27.8022 139.931 27.8022C140.349 27.8022 140.712 27.8921 141.02 28.0721C141.327 28.252 141.556 28.4783 141.707 28.7511V27.8805H142.508V32.6514H141.707V31.7634C141.551 32.042 141.316 32.2741 141.002 32.4598C140.694 32.6398 140.335 32.7297 139.923 32.7297C139.499 32.7297 139.116 32.6252 138.773 32.4163C138.431 32.2074 138.161 31.9143 137.964 31.537C137.766 31.1598 137.668 30.7303 137.668 30.2485ZM141.707 30.2572C141.707 29.8974 141.635 29.584 141.49 29.317C141.345 29.05 141.147 28.8469 140.898 28.7076C140.654 28.5625 140.384 28.4899 140.088 28.4899C139.792 28.4899 139.522 28.5596 139.278 28.6989C139.035 28.8382 138.84 29.0413 138.695 29.3083C138.55 29.5753 138.477 29.8887 138.477 30.2485C138.477 30.6142 138.55 30.9334 138.695 31.2062C138.84 31.4732 139.035 31.6792 139.278 31.8243C139.522 31.9636 139.792 32.0332 140.088 32.0332C140.384 32.0332 140.654 31.9636 140.898 31.8243C141.147 31.6792 141.345 31.4732 141.49 31.2062C141.635 30.9334 141.707 30.6171 141.707 30.2572ZM145.788 28.5335H144.787V32.6514H143.995V28.5335H143.377V27.8805H143.995V27.541C143.995 27.007 144.131 26.6182 144.404 26.3744C144.683 26.1248 145.127 26.0001 145.736 26.0001V26.6617C145.388 26.6617 145.141 26.7314 144.996 26.8707C144.857 27.0041 144.787 27.2276 144.787 27.541V27.8805H145.788V28.5335ZM151.065 30.0831C151.065 30.234 151.056 30.3936 151.039 30.562H147.226C147.255 31.0321 147.414 31.4006 147.705 31.6676C148.001 31.9288 148.358 32.0594 148.775 32.0594C149.118 32.0594 149.402 31.981 149.629 31.8243C149.861 31.6618 150.023 31.4471 150.116 31.1801H150.969C150.842 31.6386 150.586 32.0129 150.203 32.3031C149.82 32.5875 149.344 32.7297 148.775 32.7297C148.323 32.7297 147.916 32.6282 147.557 32.425C147.203 32.2219 146.924 31.9346 146.721 31.5631C146.518 31.1859 146.416 30.7506 146.416 30.2572C146.416 29.7639 146.515 29.3315 146.712 28.9601C146.909 28.5886 147.185 28.3042 147.539 28.1069C147.899 27.9038 148.311 27.8022 148.775 27.8022C149.228 27.8022 149.629 27.9008 149.977 28.0982C150.325 28.2955 150.592 28.5683 150.778 28.9165C150.969 29.259 151.065 29.6478 151.065 30.0831ZM150.247 29.9177C150.247 29.6159 150.18 29.3576 150.047 29.1429C149.913 28.9223 149.73 28.7569 149.498 28.6467C149.272 28.5306 149.019 28.4725 148.741 28.4725C148.34 28.4725 147.998 28.6002 147.713 28.8556C147.435 29.111 147.275 29.465 147.235 29.9177H150.247ZM156.121 32.7297C155.755 32.7297 155.427 32.6688 155.137 32.5469C154.847 32.4192 154.618 32.2451 154.449 32.0245C154.281 31.7982 154.188 31.5399 154.171 31.2497H154.989C155.012 31.4877 155.122 31.6821 155.32 31.833C155.523 31.9839 155.787 32.0594 156.112 32.0594C156.414 32.0594 156.652 31.9926 156.826 31.8591C157 31.7256 157.087 31.5573 157.087 31.3542C157.087 31.1452 156.994 30.9914 156.809 30.8928C156.623 30.7883 156.336 30.6867 155.947 30.5881C155.593 30.4952 155.302 30.4023 155.076 30.3095C154.856 30.2108 154.664 30.0686 154.501 29.8829C154.345 29.6914 154.266 29.4418 154.266 29.1342C154.266 28.8904 154.339 28.667 154.484 28.4638C154.629 28.2607 154.835 28.1011 155.102 27.985C155.369 27.8631 155.674 27.8022 156.016 27.8022C156.544 27.8022 156.971 27.9357 157.296 28.2027C157.621 28.4696 157.795 28.8353 157.818 29.2996H157.026C157.009 29.05 156.907 28.8498 156.721 28.6989C156.542 28.548 156.298 28.4725 155.99 28.4725C155.706 28.4725 155.479 28.5335 155.311 28.6554C155.143 28.7772 155.059 28.9369 155.059 29.1342C155.059 29.2909 155.108 29.4215 155.207 29.5259C155.311 29.6246 155.439 29.7059 155.59 29.7697C155.746 29.8278 155.961 29.8945 156.234 29.97C156.576 30.0628 156.855 30.1557 157.07 30.2485C157.284 30.3356 157.467 30.4691 157.618 30.649C157.775 30.8289 157.856 31.064 157.862 31.3542C157.862 31.6154 157.789 31.8504 157.644 32.0594C157.499 32.2683 157.293 32.4337 157.026 32.5556C156.765 32.6717 156.463 32.7297 156.121 32.7297ZM159.947 28.5335V31.3455C159.947 31.5776 159.996 31.7431 160.095 31.8417C160.193 31.9346 160.365 31.981 160.608 31.981H161.192V32.6514H160.478C160.037 32.6514 159.706 32.5498 159.485 32.3467C159.265 32.1435 159.154 31.8098 159.154 31.3455V28.5335H158.536V27.8805H159.154V26.6791H159.947V27.8805H161.192V28.5335H159.947ZM164.232 32.7297C163.785 32.7297 163.379 32.6282 163.013 32.425C162.654 32.2219 162.369 31.9346 162.16 31.5631C161.957 31.1859 161.856 30.7506 161.856 30.2572C161.856 29.7697 161.96 29.3402 162.169 28.9688C162.384 28.5915 162.674 28.3042 163.04 28.1069C163.405 27.9038 163.814 27.8022 164.267 27.8022C164.72 27.8022 165.129 27.9038 165.495 28.1069C165.86 28.3042 166.148 28.5886 166.356 28.9601C166.571 29.3315 166.679 29.7639 166.679 30.2572C166.679 30.7506 166.568 31.1859 166.348 31.5631C166.133 31.9346 165.84 32.2219 165.468 32.425C165.097 32.6282 164.685 32.7297 164.232 32.7297ZM164.232 32.0332C164.517 32.0332 164.784 31.9665 165.033 31.833C165.283 31.6995 165.483 31.4993 165.634 31.2323C165.791 30.9653 165.869 30.6403 165.869 30.2572C165.869 29.8742 165.793 29.5492 165.643 29.2822C165.492 29.0152 165.294 28.8179 165.051 28.6902C164.807 28.5567 164.543 28.4899 164.258 28.4899C163.968 28.4899 163.701 28.5567 163.457 28.6902C163.219 28.8179 163.028 29.0152 162.883 29.2822C162.738 29.5492 162.665 29.8742 162.665 30.2572C162.665 30.6461 162.735 30.974 162.874 31.241C163.019 31.508 163.211 31.7082 163.449 31.8417C163.687 31.9694 163.948 32.0332 164.232 32.0332ZM168.512 28.6554C168.652 28.3826 168.849 28.1707 169.104 28.0198C169.366 27.8689 169.682 27.7935 170.053 27.7935V28.6118H169.844C168.956 28.6118 168.512 29.0936 168.512 30.057V32.6514H167.72V27.8805H168.512V28.6554ZM170.672 30.2485C170.672 29.761 170.771 29.3344 170.968 28.9688C171.165 28.5973 171.435 28.31 171.778 28.1069C172.126 27.9038 172.512 27.8022 172.935 27.8022C173.353 27.8022 173.716 27.8921 174.024 28.0721C174.331 28.252 174.561 28.4783 174.711 28.7511V27.8805H175.512V32.6514H174.711V31.7634C174.555 32.042 174.32 32.2741 174.006 32.4598C173.699 32.6398 173.339 32.7297 172.927 32.7297C172.503 32.7297 172.12 32.6252 171.778 32.4163C171.435 32.2074 171.165 31.9143 170.968 31.537C170.771 31.1598 170.672 30.7303 170.672 30.2485ZM174.711 30.2572C174.711 29.8974 174.639 29.584 174.494 29.317C174.349 29.05 174.151 28.8469 173.902 28.7076C173.658 28.5625 173.388 28.4899 173.092 28.4899C172.796 28.4899 172.526 28.5596 172.283 28.6989C172.039 28.8382 171.844 29.0413 171.699 29.3083C171.554 29.5753 171.482 29.8887 171.482 30.2485C171.482 30.6142 171.554 30.9334 171.699 31.2062C171.844 31.4732 172.039 31.6792 172.283 31.8243C172.526 31.9636 172.796 32.0332 173.092 32.0332C173.388 32.0332 173.658 31.9636 173.902 31.8243C174.151 31.6792 174.349 31.4732 174.494 31.2062C174.639 30.9334 174.711 30.6171 174.711 30.2572ZM178.819 27.8022C179.231 27.8022 179.591 27.8921 179.898 28.0721C180.212 28.252 180.444 28.4783 180.595 28.7511V27.8805H181.396V32.7558C181.396 33.1911 181.303 33.5771 181.117 33.9137C180.931 34.2562 180.664 34.5231 180.316 34.7147C179.974 34.9062 179.573 35.002 179.115 35.002C178.488 35.002 177.966 34.854 177.548 34.558C177.13 34.262 176.883 33.8586 176.808 33.3478H177.591C177.678 33.638 177.858 33.8702 178.131 34.0443C178.404 34.2242 178.732 34.3142 179.115 34.3142C179.55 34.3142 179.904 34.1778 180.177 33.905C180.455 33.6322 180.595 33.2492 180.595 32.7558V31.7547C180.438 32.0332 180.206 32.2654 179.898 32.4511C179.591 32.6369 179.231 32.7297 178.819 32.7297C178.395 32.7297 178.009 32.6252 177.661 32.4163C177.318 32.2074 177.049 31.9143 176.851 31.537C176.654 31.1598 176.555 30.7303 176.555 30.2485C176.555 29.761 176.654 29.3344 176.851 28.9688C177.049 28.5973 177.318 28.31 177.661 28.1069C178.009 27.9038 178.395 27.8022 178.819 27.8022ZM180.595 30.2572C180.595 29.8974 180.522 29.584 180.377 29.317C180.232 29.05 180.035 28.8469 179.785 28.7076C179.541 28.5625 179.271 28.4899 178.975 28.4899C178.679 28.4899 178.41 28.5596 178.166 28.6989C177.922 28.8382 177.728 29.0413 177.583 29.3083C177.437 29.5753 177.365 29.8887 177.365 30.2485C177.365 30.6142 177.437 30.9334 177.583 31.2062C177.728 31.4732 177.922 31.6792 178.166 31.8243C178.41 31.9636 178.679 32.0332 178.975 32.0332C179.271 32.0332 179.541 31.9636 179.785 31.8243C180.035 31.6792 180.232 31.4732 180.377 31.2062C180.522 30.9334 180.595 30.6171 180.595 30.2572ZM187.087 30.0831C187.087 30.234 187.079 30.3936 187.061 30.562H183.248C183.277 31.0321 183.437 31.4006 183.727 31.6676C184.023 31.9288 184.38 32.0594 184.798 32.0594C185.14 32.0594 185.425 31.981 185.651 31.8243C185.883 31.6618 186.046 31.4471 186.139 31.1801H186.992C186.864 31.6386 186.609 32.0129 186.226 32.3031C185.843 32.5875 185.367 32.7297 184.798 32.7297C184.345 32.7297 183.939 32.6282 183.579 32.425C183.225 32.2219 182.946 31.9346 182.743 31.5631C182.54 31.1859 182.439 30.7506 182.439 30.2572C182.439 29.7639 182.537 29.3315 182.735 28.9601C182.932 28.5886 183.208 28.3042 183.562 28.1069C183.921 27.9038 184.333 27.8022 184.798 27.8022C185.251 27.8022 185.651 27.9008 185.999 28.0982C186.347 28.2955 186.614 28.5683 186.8 28.9165C186.992 29.259 187.087 29.6478 187.087 30.0831ZM186.269 29.9177C186.269 29.6159 186.202 29.3576 186.069 29.1429C185.935 28.9223 185.753 28.7569 185.52 28.6467C185.294 28.5306 185.042 28.4725 184.763 28.4725C184.363 28.4725 184.02 28.6002 183.736 28.8556C183.457 29.111 183.297 29.465 183.257 29.9177H186.269ZM188.386 32.7036C188.235 32.7036 188.107 32.6514 188.003 32.5469C187.898 32.4424 187.846 32.3147 187.846 32.1638C187.846 32.0129 187.898 31.8852 188.003 31.7808C188.107 31.6763 188.235 31.6241 188.386 31.6241C188.531 31.6241 188.653 31.6763 188.751 31.7808C188.856 31.8852 188.908 32.0129 188.908 32.1638C188.908 32.3147 188.856 32.4424 188.751 32.5469C188.653 32.6514 188.531 32.7036 188.386 32.7036Z" fill="white"/>
</svg>
