<svg width="144" height="37" viewBox="0 0 144 37" fill="none" xmlns="http://www.w3.org/2000/svg">
<rect width="36.5" height="36.5" rx="18.25" fill="white"/>
<path fill-rule="evenodd" clip-rule="evenodd" d="M17.7867 9.63593C17.9258 9.54902 18.0865 9.50293 18.2504 9.50293C18.4144 9.50293 18.5751 9.54902 18.7142 9.63593L24.7552 13.4116L18.2504 17.2379L11.7457 13.4116L17.7867 9.63593ZM10.3824 14.6401C10.3777 14.6775 10.3753 14.7152 10.3754 14.7529V21.7529C10.3754 21.9013 10.4132 22.0473 10.4851 22.1771C10.5571 22.3069 10.6608 22.4163 10.7867 22.4949L17.3754 26.6127V18.7534L10.3824 14.6401ZM19.1254 26.6127L25.7142 22.4949C25.84 22.4163 25.9438 22.3069 26.0158 22.1771C26.0877 22.0473 26.1254 21.9013 26.1254 21.7529V14.7529C26.1254 14.715 26.1231 14.6774 26.1184 14.6401L19.1254 18.7526V26.6127Z" fill="#783215"/>
<path d="M48.27 13.3927C48.3433 13.3927 48.4083 13.421 48.465 13.4777L48.995 14.0527C48.7017 14.416 48.34 14.6943 47.91 14.8877C47.4833 15.081 46.97 15.1777 46.37 15.1777C45.8333 15.1777 45.35 15.086 44.92 14.9027C44.4933 14.7193 44.1283 14.4643 43.825 14.1377C43.5217 13.811 43.2883 13.421 43.125 12.9677C42.965 12.5143 42.885 12.0193 42.885 11.4827C42.885 10.9393 42.9717 10.4427 43.145 9.99266C43.3183 9.53932 43.5617 9.14932 43.875 8.82266C44.1917 8.49599 44.5683 8.24266 45.005 8.06266C45.4417 7.87932 45.925 7.78766 46.455 7.78766C46.9817 7.78766 47.4483 7.87432 47.855 8.04766C48.265 8.22099 48.6133 8.44766 48.9 8.72766L48.45 9.35266C48.4233 9.39266 48.3883 9.42766 48.345 9.45766C48.305 9.48766 48.2483 9.50266 48.175 9.50266C48.125 9.50266 48.0733 9.48932 48.02 9.46266C47.9667 9.43266 47.9083 9.39766 47.845 9.35766C47.7817 9.31432 47.7083 9.26766 47.625 9.21766C47.5417 9.16766 47.445 9.12266 47.335 9.08266C47.225 9.03932 47.0967 9.00432 46.95 8.97766C46.8067 8.94766 46.64 8.93266 46.45 8.93266C46.1267 8.93266 45.83 8.99099 45.56 9.10766C45.2933 9.22099 45.0633 9.38766 44.87 9.60766C44.6767 9.82432 44.5267 10.091 44.42 10.4077C44.3133 10.721 44.26 11.0793 44.26 11.4827C44.26 11.8893 44.3167 12.251 44.43 12.5677C44.5467 12.8843 44.7033 13.151 44.9 13.3677C45.0967 13.5843 45.3283 13.751 45.595 13.8677C45.8617 13.981 46.1483 14.0377 46.455 14.0377C46.6383 14.0377 46.8033 14.0277 46.95 14.0077C47.1 13.9877 47.2367 13.956 47.36 13.9127C47.4867 13.8693 47.605 13.8143 47.715 13.7477C47.8283 13.6777 47.94 13.5927 48.05 13.4927C48.0833 13.4627 48.1183 13.4393 48.155 13.4227C48.1917 13.4027 48.23 13.3927 48.27 13.3927ZM52.4313 12.9077C52.0747 12.9243 51.7747 12.956 51.5313 13.0027C51.288 13.046 51.093 13.1027 50.9463 13.1727C50.7997 13.2427 50.6947 13.3243 50.6313 13.4177C50.568 13.511 50.5363 13.6127 50.5363 13.7227C50.5363 13.9393 50.5997 14.0943 50.7263 14.1877C50.8563 14.281 51.0247 14.3277 51.2313 14.3277C51.4847 14.3277 51.703 14.2827 51.8863 14.1927C52.073 14.0993 52.2547 13.9593 52.4313 13.7727V12.9077ZM49.6013 10.6827C50.1913 10.1427 50.9013 9.87266 51.7313 9.87266C52.0313 9.87266 52.2997 9.92266 52.5363 10.0227C52.773 10.1193 52.973 10.256 53.1363 10.4327C53.2997 10.606 53.423 10.8143 53.5063 11.0577C53.593 11.301 53.6363 11.5677 53.6363 11.8577V15.0977H53.0763C52.9597 15.0977 52.8697 15.081 52.8063 15.0477C52.743 15.011 52.693 14.9393 52.6563 14.8327L52.5463 14.4627C52.4163 14.5793 52.2897 14.6827 52.1663 14.7727C52.043 14.8593 51.9147 14.9327 51.7813 14.9927C51.648 15.0527 51.5047 15.0977 51.3513 15.1277C51.2013 15.161 51.0347 15.1777 50.8513 15.1777C50.6347 15.1777 50.4347 15.1493 50.2513 15.0927C50.068 15.0327 49.9097 14.9443 49.7763 14.8277C49.643 14.711 49.5397 14.566 49.4663 14.3927C49.393 14.2193 49.3563 14.0177 49.3563 13.7877C49.3563 13.6577 49.378 13.5293 49.4213 13.4027C49.4647 13.2727 49.5347 13.1493 49.6313 13.0327C49.7313 12.916 49.8597 12.806 50.0163 12.7027C50.173 12.5993 50.3647 12.5093 50.5913 12.4327C50.8213 12.356 51.088 12.2943 51.3913 12.2477C51.6947 12.1977 52.0413 12.1677 52.4313 12.1577V11.8577C52.4313 11.5143 52.358 11.261 52.2113 11.0977C52.0647 10.931 51.853 10.8477 51.5763 10.8477C51.3763 10.8477 51.2097 10.871 51.0763 10.9177C50.9463 10.9643 50.8313 11.0177 50.7313 11.0777C50.6313 11.1343 50.5397 11.186 50.4563 11.2327C50.3763 11.2793 50.2863 11.3027 50.1863 11.3027C50.0997 11.3027 50.0263 11.281 49.9663 11.2377C49.9063 11.191 49.858 11.1377 49.8213 11.0777L49.6013 10.6827ZM55.9645 10.8577C56.1245 10.551 56.3145 10.311 56.5345 10.1377C56.7545 9.96099 57.0145 9.87266 57.3145 9.87266C57.5511 9.87266 57.7411 9.92432 57.8845 10.0277L57.8045 10.9527C57.7878 11.0127 57.7628 11.056 57.7295 11.0827C57.6995 11.106 57.6578 11.1177 57.6045 11.1177C57.5545 11.1177 57.4795 11.1093 57.3795 11.0927C57.2828 11.076 57.1878 11.0677 57.0945 11.0677C56.9578 11.0677 56.8361 11.0877 56.7295 11.1277C56.6228 11.1677 56.5261 11.226 56.4395 11.3027C56.3561 11.376 56.2811 11.466 56.2145 11.5727C56.1511 11.6793 56.0911 11.801 56.0345 11.9377V15.0977H54.7995V9.96766H55.5245C55.6511 9.96766 55.7395 9.99099 55.7895 10.0377C55.8395 10.081 55.8728 10.161 55.8895 10.2777L55.9645 10.8577ZM60.2399 15.1777C59.7933 15.1777 59.4499 15.0527 59.2099 14.8027C58.9733 14.5493 58.8549 14.201 58.8549 13.7577V10.8927H58.3299C58.2633 10.8927 58.2066 10.871 58.1599 10.8277C58.1133 10.7843 58.0899 10.7193 58.0899 10.6327V10.1427L58.9149 10.0077L59.1749 8.60766C59.1916 8.54099 59.2233 8.48932 59.2699 8.45266C59.3166 8.41599 59.3766 8.39766 59.4499 8.39766H60.0899V10.0127H61.4599V10.8927H60.0899V13.6727C60.0899 13.8327 60.1283 13.9577 60.2049 14.0477C60.2849 14.1377 60.3933 14.1827 60.5299 14.1827C60.6066 14.1827 60.6699 14.1743 60.7199 14.1577C60.7733 14.1377 60.8183 14.1177 60.8549 14.0977C60.8949 14.0777 60.9299 14.0593 60.9599 14.0427C60.9899 14.0227 61.0199 14.0127 61.0499 14.0127C61.0866 14.0127 61.1166 14.0227 61.1399 14.0427C61.1633 14.0593 61.1883 14.086 61.2149 14.1227L61.5849 14.7227C61.4049 14.8727 61.1983 14.986 60.9649 15.0627C60.7316 15.1393 60.4899 15.1777 60.2399 15.1777ZM64.4816 9.88766C64.8616 9.88766 65.2066 9.94932 65.5166 10.0727C65.8299 10.196 66.0966 10.371 66.3166 10.5977C66.5399 10.8243 66.7116 11.101 66.8316 11.4277C66.9516 11.7543 67.0116 12.1193 67.0116 12.5227C67.0116 12.9293 66.9516 13.296 66.8316 13.6227C66.7116 13.9493 66.5399 14.2277 66.3166 14.4577C66.0966 14.6877 65.8299 14.8643 65.5166 14.9877C65.2066 15.111 64.8616 15.1727 64.4816 15.1727C64.0982 15.1727 63.7499 15.111 63.4366 14.9877C63.1232 14.8643 62.8549 14.6877 62.6316 14.4577C62.4116 14.2277 62.2399 13.9493 62.1166 13.6227C61.9966 13.296 61.9366 12.9293 61.9366 12.5227C61.9366 12.1193 61.9966 11.7543 62.1166 11.4277C62.2399 11.101 62.4116 10.8243 62.6316 10.5977C62.8549 10.371 63.1232 10.196 63.4366 10.0727C63.7499 9.94932 64.0982 9.88766 64.4816 9.88766ZM64.4816 14.2227C64.9082 14.2227 65.2232 14.0793 65.4266 13.7927C65.6332 13.506 65.7366 13.086 65.7366 12.5327C65.7366 11.9793 65.6332 11.5577 65.4266 11.2677C65.2232 10.9777 64.9082 10.8327 64.4816 10.8327C64.0482 10.8327 63.7266 10.9793 63.5166 11.2727C63.3099 11.5627 63.2066 11.9827 63.2066 12.5327C63.2066 13.0827 63.3099 13.5027 63.5166 13.7927C63.7266 14.0793 64.0482 14.2227 64.4816 14.2227ZM69.1088 10.5977C69.2121 10.4943 69.3204 10.3993 69.4338 10.3127C69.5504 10.2227 69.6721 10.1477 69.7988 10.0877C69.9288 10.0243 70.0671 9.97599 70.2138 9.94266C70.3604 9.90599 70.5204 9.88766 70.6938 9.88766C70.9738 9.88766 71.2221 9.93599 71.4388 10.0327C71.6554 10.126 71.8354 10.2593 71.9788 10.4327C72.1254 10.6027 72.2354 10.8077 72.3088 11.0477C72.3854 11.2843 72.4238 11.546 72.4238 11.8327V15.0977H71.1888V11.8327C71.1888 11.5193 71.1171 11.2777 70.9738 11.1077C70.8304 10.9343 70.6121 10.8477 70.3188 10.8477C70.1054 10.8477 69.9054 10.896 69.7188 10.9927C69.5321 11.0893 69.3554 11.221 69.1888 11.3877V15.0977H67.9538V9.96766H68.7088C68.8688 9.96766 68.9738 10.0427 69.0238 10.1927L69.1088 10.5977ZM85.7766 7.86766L83.5316 15.0977H82.3166L80.7366 10.1577C80.6932 10.0377 80.6532 9.89099 80.6166 9.71766C80.5966 9.80099 80.5766 9.87932 80.5566 9.95266C80.5366 10.026 80.5149 10.0943 80.4916 10.1577L78.8966 15.0977H77.6766L75.4366 7.86766H76.5616C76.6782 7.86766 76.7749 7.89599 76.8516 7.95266C76.9316 8.00599 76.9849 8.07932 77.0116 8.17266L78.2416 12.4977C78.2682 12.6043 78.2932 12.721 78.3166 12.8477C78.3432 12.971 78.3699 13.101 78.3966 13.2377C78.4232 13.0977 78.4516 12.966 78.4816 12.8427C78.5149 12.7193 78.5499 12.6043 78.5866 12.4977L80.0066 8.17266C80.0332 8.09599 80.0849 8.02599 80.1616 7.96266C80.2416 7.89932 80.3382 7.86766 80.4516 7.86766H80.8466C80.9632 7.86766 81.0582 7.89599 81.1316 7.95266C81.2049 8.00932 81.2599 8.08266 81.2966 8.17266L82.7116 12.4977C82.7816 12.7043 82.8449 12.9427 82.9016 13.2127C82.9449 12.9493 82.9932 12.711 83.0466 12.4977L84.2766 8.17266C84.2966 8.08932 84.3466 8.01766 84.4266 7.95766C84.5099 7.89766 84.6082 7.86766 84.7216 7.86766H85.7766ZM89.1689 11.9427C89.1689 11.7827 89.1456 11.6327 89.0989 11.4927C89.0556 11.3493 88.9889 11.2243 88.8989 11.1177C88.8089 11.011 88.6939 10.9277 88.5539 10.8677C88.4172 10.8043 88.2572 10.7727 88.0739 10.7727C87.7172 10.7727 87.4356 10.8743 87.2289 11.0777C87.0256 11.281 86.8956 11.5693 86.8389 11.9427H89.1689ZM86.8139 12.6877C86.8339 12.951 86.8806 13.1793 86.9539 13.3727C87.0272 13.5627 87.1239 13.721 87.2439 13.8477C87.3639 13.971 87.5056 14.0643 87.6689 14.1277C87.8356 14.1877 88.0189 14.2177 88.2189 14.2177C88.4189 14.2177 88.5906 14.1943 88.7339 14.1477C88.8806 14.101 89.0072 14.0493 89.1139 13.9927C89.2239 13.936 89.3189 13.8843 89.3989 13.8377C89.4822 13.791 89.5622 13.7677 89.6389 13.7677C89.7422 13.7677 89.8189 13.806 89.8689 13.8827L90.2239 14.3327C90.0872 14.4927 89.9339 14.6277 89.7639 14.7377C89.5939 14.8443 89.4156 14.931 89.2289 14.9977C89.0456 15.061 88.8572 15.106 88.6639 15.1327C88.4739 15.1593 88.2889 15.1727 88.1089 15.1727C87.7522 15.1727 87.4206 15.1143 87.1139 14.9977C86.8072 14.8777 86.5406 14.7027 86.3139 14.4727C86.0872 14.2393 85.9089 13.9527 85.7789 13.6127C85.6489 13.2693 85.5839 12.8727 85.5839 12.4227C85.5839 12.0727 85.6406 11.7443 85.7539 11.4377C85.8672 11.1277 86.0289 10.8593 86.2389 10.6327C86.4522 10.4027 86.7106 10.221 87.0139 10.0877C87.3206 9.95432 87.6656 9.88766 88.0489 9.88766C88.3722 9.88766 88.6706 9.93932 88.9439 10.0427C89.2172 10.146 89.4522 10.2977 89.6489 10.4977C89.8456 10.6943 89.9989 10.9377 90.1089 11.2277C90.2222 11.5143 90.2789 11.8427 90.2789 12.2127C90.2789 12.3993 90.2589 12.526 90.2189 12.5927C90.1789 12.656 90.1022 12.6877 89.9889 12.6877H86.8139ZM92.4857 9.96766V15.0977H91.2457V9.96766H92.4857ZM92.6557 8.47266C92.6557 8.57932 92.634 8.67932 92.5907 8.77266C92.5474 8.86599 92.489 8.94766 92.4157 9.01766C92.3457 9.08766 92.2624 9.14432 92.1657 9.18766C92.069 9.22766 91.9657 9.24766 91.8557 9.24766C91.749 9.24766 91.6474 9.22766 91.5507 9.18766C91.4574 9.14432 91.3757 9.08766 91.3057 9.01766C91.2357 8.94766 91.179 8.86599 91.1357 8.77266C91.0957 8.67932 91.0757 8.57932 91.0757 8.47266C91.0757 8.36266 91.0957 8.25932 91.1357 8.16266C91.179 8.06599 91.2357 7.98266 91.3057 7.91266C91.3757 7.84266 91.4574 7.78766 91.5507 7.74766C91.6474 7.70432 91.749 7.68266 91.8557 7.68266C91.9657 7.68266 92.069 7.70432 92.1657 7.74766C92.2624 7.78766 92.3457 7.84266 92.4157 7.91266C92.489 7.98266 92.5474 8.06599 92.5907 8.16266C92.634 8.25932 92.6557 8.36266 92.6557 8.47266ZM95.6198 12.4077C95.7731 12.4077 95.9064 12.3877 96.0198 12.3477C96.1331 12.3043 96.2264 12.246 96.2998 12.1727C96.3764 12.0993 96.4331 12.011 96.4698 11.9077C96.5098 11.8043 96.5298 11.691 96.5298 11.5677C96.5298 11.3143 96.4531 11.1143 96.2998 10.9677C96.1498 10.8177 95.9231 10.7427 95.6198 10.7427C95.3164 10.7427 95.0881 10.8177 94.9348 10.9677C94.7848 11.1143 94.7098 11.3143 94.7098 11.5677C94.7098 11.6877 94.7281 11.7993 94.7648 11.9027C94.8048 12.006 94.8614 12.096 94.9348 12.1727C95.0114 12.246 95.1064 12.3043 95.2198 12.3477C95.3364 12.3877 95.4698 12.4077 95.6198 12.4077ZM97.0148 15.3277C97.0148 15.2277 96.9848 15.146 96.9248 15.0827C96.8648 15.0193 96.7831 14.971 96.6798 14.9377C96.5764 14.901 96.4548 14.8743 96.3148 14.8577C96.1781 14.841 96.0314 14.8293 95.8748 14.8227C95.7214 14.8127 95.5614 14.8043 95.3948 14.7977C95.2314 14.791 95.0714 14.7777 94.9148 14.7577C94.7781 14.8343 94.6664 14.9243 94.5798 15.0277C94.4964 15.131 94.4548 15.251 94.4548 15.3877C94.4548 15.4777 94.4764 15.561 94.5198 15.6377C94.5664 15.7177 94.6381 15.786 94.7348 15.8427C94.8348 15.8993 94.9631 15.9427 95.1198 15.9727C95.2764 16.006 95.4681 16.0227 95.6948 16.0227C95.9248 16.0227 96.1231 16.0043 96.2898 15.9677C96.4564 15.9343 96.5931 15.886 96.6998 15.8227C96.8098 15.7627 96.8898 15.6893 96.9398 15.6027C96.9898 15.5193 97.0148 15.4277 97.0148 15.3277ZM98.2448 10.1427V10.6027C98.2448 10.7493 98.1564 10.8393 97.9798 10.8727L97.5198 10.9577C97.5898 11.1343 97.6248 11.3277 97.6248 11.5377C97.6248 11.791 97.5731 12.021 97.4698 12.2277C97.3698 12.431 97.2298 12.6043 97.0498 12.7477C96.8698 12.891 96.6564 13.0027 96.4098 13.0827C96.1664 13.1593 95.9031 13.1977 95.6198 13.1977C95.5198 13.1977 95.4231 13.1927 95.3298 13.1827C95.2364 13.1727 95.1448 13.1593 95.0548 13.1427C94.8948 13.2393 94.8148 13.3477 94.8148 13.4677C94.8148 13.571 94.8614 13.6477 94.9548 13.6977C95.0514 13.7443 95.1781 13.7777 95.3348 13.7977C95.4914 13.8177 95.6698 13.831 95.8698 13.8377C96.0698 13.841 96.2748 13.851 96.4848 13.8677C96.6948 13.8843 96.8998 13.9143 97.0998 13.9577C97.2998 13.9977 97.4781 14.0627 97.6348 14.1527C97.7914 14.2427 97.9164 14.366 98.0098 14.5227C98.1064 14.676 98.1548 14.8743 98.1548 15.1177C98.1548 15.3443 98.0981 15.5643 97.9848 15.7777C97.8748 15.991 97.7131 16.181 97.4998 16.3477C97.2898 16.5143 97.0298 16.6477 96.7198 16.7477C96.4131 16.851 96.0631 16.9027 95.6698 16.9027C95.2831 16.9027 94.9464 16.8643 94.6598 16.7877C94.3731 16.7143 94.1348 16.6143 93.9448 16.4877C93.7548 16.3643 93.6131 16.221 93.5198 16.0577C93.4264 15.8943 93.3798 15.7243 93.3798 15.5477C93.3798 15.3077 93.4514 15.1077 93.5948 14.9477C93.7414 14.7843 93.9414 14.6543 94.1948 14.5577C94.0581 14.4877 93.9498 14.3943 93.8698 14.2777C93.7898 14.161 93.7498 14.0077 93.7498 13.8177C93.7498 13.741 93.7631 13.6627 93.7898 13.5827C93.8198 13.4993 93.8614 13.4177 93.9148 13.3377C93.9714 13.2577 94.0414 13.1827 94.1248 13.1127C94.2081 13.0393 94.3064 12.9743 94.4198 12.9177C94.1598 12.7777 93.9548 12.591 93.8048 12.3577C93.6581 12.1243 93.5848 11.851 93.5848 11.5377C93.5848 11.2843 93.6348 11.056 93.7348 10.8527C93.8381 10.646 93.9798 10.471 94.1598 10.3277C94.3431 10.181 94.5581 10.0693 94.8048 9.99266C95.0548 9.91599 95.3264 9.87766 95.6198 9.87766C95.8398 9.87766 96.0464 9.90099 96.2398 9.94766C96.4331 9.99099 96.6098 10.056 96.7698 10.1427H98.2448ZM100.263 10.5177C100.463 10.331 100.683 10.1793 100.923 10.0627C101.163 9.94599 101.445 9.88766 101.768 9.88766C102.048 9.88766 102.296 9.93599 102.513 10.0327C102.73 10.126 102.91 10.2593 103.053 10.4327C103.2 10.6027 103.31 10.8077 103.383 11.0477C103.46 11.2843 103.498 11.546 103.498 11.8327V15.0977H102.263V11.8327C102.263 11.5193 102.191 11.2777 102.048 11.1077C101.905 10.9343 101.686 10.8477 101.393 10.8477C101.18 10.8477 100.98 10.896 100.793 10.9927C100.606 11.0893 100.43 11.221 100.263 11.3877V15.0977H99.028V7.66766H100.263V10.5177ZM106.314 15.1777C105.867 15.1777 105.524 15.0527 105.284 14.8027C105.047 14.5493 104.929 14.201 104.929 13.7577V10.8927H104.404C104.337 10.8927 104.281 10.871 104.234 10.8277C104.187 10.7843 104.164 10.7193 104.164 10.6327V10.1427L104.989 10.0077L105.249 8.60766C105.266 8.54099 105.297 8.48932 105.344 8.45266C105.391 8.41599 105.451 8.39766 105.524 8.39766H106.164V10.0127H107.534V10.8927H106.164V13.6727C106.164 13.8327 106.202 13.9577 106.279 14.0477C106.359 14.1377 106.467 14.1827 106.604 14.1827C106.681 14.1827 106.744 14.1743 106.794 14.1577C106.847 14.1377 106.892 14.1177 106.929 14.0977C106.969 14.0777 107.004 14.0593 107.034 14.0427C107.064 14.0227 107.094 14.0127 107.124 14.0127C107.161 14.0127 107.191 14.0227 107.214 14.0427C107.237 14.0593 107.262 14.086 107.289 14.1227L107.659 14.7227C107.479 14.8727 107.272 14.986 107.039 15.0627C106.806 15.1393 106.564 15.1777 106.314 15.1777Z" fill="white"/>
<path d="M42.98 24.0743C43.0173 23.5837 43.2067 23.1997 43.548 22.9223C43.8893 22.645 44.332 22.5063 44.876 22.5063C45.2387 22.5063 45.5507 22.573 45.812 22.7063C46.0787 22.8343 46.2787 23.0103 46.412 23.2343C46.5507 23.4583 46.62 23.7117 46.62 23.9943C46.62 24.325 46.524 24.6103 46.332 24.8503C46.1453 25.0903 45.9 25.245 45.596 25.3143V25.3543C45.9427 25.4397 46.2173 25.6077 46.42 25.8583C46.6227 26.109 46.724 26.437 46.724 26.8423C46.724 27.1463 46.6547 27.421 46.516 27.6663C46.3773 27.9063 46.1693 28.0957 45.892 28.2343C45.6147 28.373 45.2813 28.4423 44.892 28.4423C44.3267 28.4423 43.8627 28.2957 43.5 28.0023C43.1373 27.7037 42.9347 27.2823 42.892 26.7383H43.596C43.6333 27.0583 43.764 27.3197 43.988 27.5223C44.212 27.725 44.5107 27.8263 44.884 27.8263C45.2573 27.8263 45.54 27.7303 45.732 27.5383C45.9293 27.341 46.028 27.0877 46.028 26.7783C46.028 26.3783 45.8947 26.0903 45.628 25.9143C45.3613 25.7383 44.9587 25.6503 44.42 25.6503H44.236V25.0423H44.428C44.9187 25.037 45.2893 24.957 45.54 24.8023C45.7907 24.6423 45.916 24.397 45.916 24.0663C45.916 23.7837 45.8227 23.557 45.636 23.3863C45.4547 23.2157 45.1933 23.1303 44.852 23.1303C44.5213 23.1303 44.2547 23.2157 44.052 23.3863C43.8493 23.557 43.7293 23.7863 43.692 24.0743H42.98ZM48.0589 28.4503C47.9203 28.4503 47.8029 28.4023 47.7069 28.3063C47.6109 28.2103 47.5629 28.093 47.5629 27.9543C47.5629 27.8157 47.6109 27.6983 47.7069 27.6023C47.8029 27.5063 47.9203 27.4583 48.0589 27.4583C48.1923 27.4583 48.3043 27.5063 48.3949 27.6023C48.4909 27.6983 48.5389 27.8157 48.5389 27.9543C48.5389 28.093 48.4909 28.2103 48.3949 28.3063C48.3043 28.4023 48.1923 28.4503 48.0589 28.4503ZM49.3866 25.4503C49.3866 24.533 49.536 23.8183 49.8346 23.3063C50.1333 22.789 50.656 22.5303 51.4026 22.5303C52.144 22.5303 52.664 22.789 52.9626 23.3063C53.2613 23.8183 53.4106 24.533 53.4106 25.4503C53.4106 26.3837 53.2613 27.109 52.9626 27.6263C52.664 28.1437 52.144 28.4023 51.4026 28.4023C50.656 28.4023 50.1333 28.1437 49.8346 27.6263C49.536 27.109 49.3866 26.3837 49.3866 25.4503ZM52.6906 25.4503C52.6906 24.9863 52.6586 24.5943 52.5946 24.2743C52.536 23.949 52.4106 23.6877 52.2186 23.4903C52.032 23.293 51.76 23.1943 51.4026 23.1943C51.04 23.1943 50.7626 23.293 50.5706 23.4903C50.384 23.6877 50.2586 23.949 50.1946 24.2743C50.136 24.5943 50.1066 24.9863 50.1066 25.4503C50.1066 25.9303 50.136 26.333 50.1946 26.6583C50.2586 26.9837 50.384 27.245 50.5706 27.4423C50.7626 27.6397 51.04 27.7383 51.4026 27.7383C51.76 27.7383 52.032 27.6397 52.2186 27.4423C52.4106 27.245 52.536 26.9837 52.5946 26.6583C52.6586 26.333 52.6906 25.9303 52.6906 25.4503ZM54.4101 25.4503C54.4101 24.533 54.5594 23.8183 54.8581 23.3063C55.1567 22.789 55.6794 22.5303 56.4261 22.5303C57.1674 22.5303 57.6874 22.789 57.9861 23.3063C58.2847 23.8183 58.4341 24.533 58.4341 25.4503C58.4341 26.3837 58.2847 27.109 57.9861 27.6263C57.6874 28.1437 57.1674 28.4023 56.4261 28.4023C55.6794 28.4023 55.1567 28.1437 54.8581 27.6263C54.5594 27.109 54.4101 26.3837 54.4101 25.4503ZM57.7141 25.4503C57.7141 24.9863 57.6821 24.5943 57.6181 24.2743C57.5594 23.949 57.4341 23.6877 57.2421 23.4903C57.0554 23.293 56.7834 23.1943 56.4261 23.1943C56.0634 23.1943 55.7861 23.293 55.5941 23.4903C55.4074 23.6877 55.2821 23.949 55.2181 24.2743C55.1594 24.5943 55.1301 24.9863 55.1301 25.4503C55.1301 25.9303 55.1594 26.333 55.2181 26.6583C55.2821 26.9837 55.4074 27.245 55.5941 27.4423C55.7861 27.6397 56.0634 27.7383 56.4261 27.7383C56.7834 27.7383 57.0554 27.6397 57.2421 27.4423C57.4341 27.245 57.5594 26.9837 57.6181 26.6583C57.6821 26.333 57.7141 25.9303 57.7141 25.4503ZM59.4335 25.4503C59.4335 24.533 59.5828 23.8183 59.8815 23.3063C60.1802 22.789 60.7028 22.5303 61.4495 22.5303C62.1908 22.5303 62.7108 22.789 63.0095 23.3063C63.3082 23.8183 63.4575 24.533 63.4575 25.4503C63.4575 26.3837 63.3082 27.109 63.0095 27.6263C62.7108 28.1437 62.1908 28.4023 61.4495 28.4023C60.7028 28.4023 60.1802 28.1437 59.8815 27.6263C59.5828 27.109 59.4335 26.3837 59.4335 25.4503ZM62.7375 25.4503C62.7375 24.9863 62.7055 24.5943 62.6415 24.2743C62.5828 23.949 62.4575 23.6877 62.2655 23.4903C62.0788 23.293 61.8068 23.1943 61.4495 23.1943C61.0868 23.1943 60.8095 23.293 60.6175 23.4903C60.4308 23.6877 60.3055 23.949 60.2415 24.2743C60.1828 24.5943 60.1535 24.9863 60.1535 25.4503C60.1535 25.9303 60.1828 26.333 60.2415 26.6583C60.3055 26.9837 60.4308 27.245 60.6175 27.4423C60.8095 27.6397 61.0868 27.7383 61.4495 27.7383C61.8068 27.7383 62.0788 27.6397 62.2655 27.4423C62.4575 27.245 62.5828 26.9837 62.6415 26.6583C62.7055 26.333 62.7375 25.9303 62.7375 25.4503ZM69.1578 28.4023L67.4378 26.4663V28.4023H66.7098V22.4823H67.4378V25.9623L69.1258 24.0183H70.1418L68.0778 26.2023L70.1498 28.4023H69.1578ZM72.6349 23.9463C73.0136 23.9463 73.3443 24.029 73.6269 24.1943C73.9149 24.3597 74.1283 24.5677 74.2669 24.8183V24.0183H75.0029V28.4983C75.0029 28.8983 74.9176 29.253 74.7469 29.5623C74.5763 29.877 74.3309 30.1223 74.0109 30.2983C73.6963 30.4743 73.3283 30.5623 72.9069 30.5623C72.3309 30.5623 71.8509 30.4263 71.4669 30.1543C71.0829 29.8823 70.8563 29.5117 70.7869 29.0423H71.5069C71.5869 29.309 71.7523 29.5223 72.0029 29.6823C72.2536 29.8477 72.5549 29.9303 72.9069 29.9303C73.3069 29.9303 73.6323 29.805 73.8829 29.5543C74.1389 29.3037 74.2669 28.9517 74.2669 28.4983V27.5783C74.1229 27.8343 73.9096 28.0477 73.6269 28.2183C73.3443 28.389 73.0136 28.4743 72.6349 28.4743C72.2456 28.4743 71.8909 28.3783 71.5709 28.1863C71.2563 27.9943 71.0083 27.725 70.8269 27.3783C70.6456 27.0317 70.5549 26.637 70.5549 26.1943C70.5549 25.7463 70.6456 25.3543 70.8269 25.0183C71.0083 24.677 71.2563 24.413 71.5709 24.2263C71.8909 24.0397 72.2456 23.9463 72.6349 23.9463ZM74.2669 26.2023C74.2669 25.8717 74.2003 25.5837 74.0669 25.3383C73.9336 25.093 73.7523 24.9063 73.5229 24.7783C73.2989 24.645 73.0509 24.5783 72.7789 24.5783C72.5069 24.5783 72.2589 24.6423 72.0349 24.7703C71.8109 24.8983 71.6323 25.085 71.4989 25.3303C71.3656 25.5757 71.2989 25.8637 71.2989 26.1943C71.2989 26.5303 71.3656 26.8237 71.4989 27.0743C71.6323 27.3197 71.8109 27.509 72.0349 27.6423C72.2589 27.7703 72.5069 27.8343 72.7789 27.8343C73.0509 27.8343 73.2989 27.7703 73.5229 27.6423C73.7523 27.509 73.9336 27.3197 74.0669 27.0743C74.2003 26.8237 74.2669 26.533 74.2669 26.2023Z" fill="white"/>
</svg>
