<svg width="144" height="37" viewBox="0 0 144 37" fill="none" xmlns="http://www.w3.org/2000/svg">
<rect width="36.5" height="36.5" rx="18.25" fill="white"/>
<path fill-rule="evenodd" clip-rule="evenodd" d="M27.336 19.2572H9.164L11.043 21.1357C11.1359 21.2286 11.2096 21.3388 11.2598 21.4602C11.3101 21.5815 11.336 21.7116 11.336 21.8429C11.336 21.9743 11.3101 22.1043 11.2598 22.2257C11.2096 22.347 11.1359 22.4573 11.043 22.5502C10.9501 22.6431 10.8399 22.7167 10.7185 22.767C10.5972 22.8173 10.4671 22.8431 10.3358 22.8431C10.2044 22.8431 10.0743 22.8173 9.95299 22.767C9.83164 22.7167 9.72138 22.6431 9.6285 22.5502L6.0935 19.0147L6.0685 18.9887C5.96805 18.8951 5.88793 18.7819 5.83314 18.6561C5.77834 18.5302 5.75004 18.3944 5.75 18.2572C5.75 18.0107 5.839 17.7847 5.987 17.6107C6.01867 17.5667 6.054 17.525 6.093 17.4857L9.6285 13.9507C9.81601 13.7631 10.0703 13.6577 10.3356 13.6577C10.6008 13.6576 10.8552 13.7629 11.0427 13.9504C11.2303 14.1379 11.3357 14.3923 11.3358 14.6575C11.3358 14.9227 11.2305 15.1771 11.043 15.3647L9.15 17.2572H27.349L25.4565 15.3647C25.3636 15.2718 25.2899 15.1615 25.2397 15.0402C25.1894 14.9188 25.1635 14.7888 25.1635 14.6574C25.1635 14.5261 25.1894 14.396 25.2397 14.2747C25.2899 14.1533 25.3636 14.0431 25.4565 13.9502C25.6441 13.7626 25.8985 13.6572 26.1637 13.6572C26.2951 13.6572 26.4252 13.6831 26.5465 13.7334C26.6679 13.7836 26.7781 13.8573 26.871 13.9502L30.406 17.4857C30.446 17.525 30.4815 17.5667 30.5125 17.6107C30.6605 17.7847 30.7495 18.0107 30.7495 18.2572C30.7495 18.5462 30.627 18.8062 30.431 18.9887L30.406 19.0147L26.871 22.5497C26.6835 22.7373 26.4291 22.8427 26.1639 22.8427C25.8987 22.8428 25.6443 22.7374 25.4568 22.5499C25.2692 22.3624 25.1638 22.1081 25.1637 21.8429C25.1637 21.5776 25.269 21.3233 25.4565 21.1357L27.336 19.2572Z" fill="#783215"/>
<path d="M48.2501 13.3985C48.3232 13.3985 48.388 13.4268 48.4444 13.4832L48.9726 14.0563C48.6803 14.4183 48.3199 14.6957 47.8914 14.8884C47.4662 15.081 46.9546 15.1774 46.3567 15.1774C45.8218 15.1774 45.3402 15.086 44.9117 14.9033C44.4865 14.7206 44.1227 14.4665 43.8204 14.141C43.5181 13.8154 43.2856 13.4268 43.1228 12.975C42.9634 12.5232 42.8837 12.0299 42.8837 11.4951C42.8837 10.9537 42.97 10.4587 43.1428 10.0102C43.3155 9.55848 43.558 9.16982 43.8703 8.84428C44.1858 8.51874 44.5612 8.26628 44.9964 8.0869C45.4315 7.9042 45.9132 7.81285 46.4414 7.81285C46.9662 7.81285 47.4313 7.89922 47.8365 8.07195C48.2451 8.24469 48.5923 8.47057 48.8779 8.74961L48.4295 9.37245C48.4029 9.41232 48.368 9.4472 48.3249 9.47709C48.285 9.50699 48.2285 9.52194 48.1554 9.52194C48.1056 9.52194 48.0541 9.50865 48.001 9.48207C47.9478 9.45218 47.8897 9.4173 47.8266 9.37744C47.7635 9.33425 47.6904 9.28775 47.6073 9.23792C47.5243 9.18809 47.428 9.14325 47.3183 9.10338C47.2087 9.0602 47.0808 9.02532 46.9347 8.99875C46.7918 8.96885 46.6257 8.9539 46.4364 8.9539C46.1142 8.9539 45.8185 9.01203 45.5495 9.1283C45.2837 9.24124 45.0545 9.40733 44.8618 9.62658C44.6692 9.8425 44.5197 10.1082 44.4134 10.4238C44.3071 10.7361 44.2539 11.0932 44.2539 11.4951C44.2539 11.9004 44.3104 12.2608 44.4233 12.5764C44.5396 12.892 44.6957 13.1577 44.8917 13.3736C45.0877 13.5895 45.3186 13.7556 45.5843 13.8719C45.8501 13.9848 46.1358 14.0413 46.4414 14.0413C46.6241 14.0413 46.7885 14.0313 46.9347 14.0114C47.0841 13.9915 47.2203 13.9599 47.3433 13.9167C47.4695 13.8736 47.5874 13.8187 47.697 13.7523C47.81 13.6825 47.9213 13.5978 48.0309 13.4982C48.0641 13.4683 48.099 13.445 48.1355 13.4284C48.1721 13.4085 48.2103 13.3985 48.2501 13.3985ZM52.3971 12.9152C52.0417 12.9318 51.7427 12.9634 51.5002 13.0099C51.2577 13.0531 51.0634 13.1095 50.9172 13.1793C50.7711 13.249 50.6664 13.3304 50.6033 13.4234C50.5402 13.5165 50.5086 13.6178 50.5086 13.7274C50.5086 13.9433 50.5717 14.0978 50.698 14.1908C50.8275 14.2838 50.9953 14.3303 51.2012 14.3303C51.4537 14.3303 51.6713 14.2855 51.854 14.1958C52.04 14.1028 52.221 13.9632 52.3971 13.7772V12.9152ZM49.5769 10.6979C50.1648 10.1597 50.8724 9.89066 51.6995 9.89066C51.9985 9.89066 52.2659 9.94049 52.5017 10.0401C52.7376 10.1365 52.9369 10.2727 53.0997 10.4487C53.2624 10.6215 53.3854 10.8291 53.4684 11.0716C53.5548 11.3141 53.598 11.5798 53.598 11.8688V15.0977H53.0399C52.9236 15.0977 52.8339 15.081 52.7708 15.0478C52.7077 15.0113 52.6579 14.9399 52.6213 14.8336L52.5117 14.4648C52.3822 14.5811 52.2559 14.6841 52.133 14.7738C52.0101 14.8601 51.8822 14.9332 51.7493 14.993C51.6165 15.0528 51.4736 15.0977 51.3208 15.1276C51.1713 15.1608 51.0053 15.1774 50.8225 15.1774C50.6066 15.1774 50.4073 15.1491 50.2246 15.0927C50.0419 15.0329 49.8841 14.9449 49.7513 14.8286C49.6184 14.7123 49.5154 14.5678 49.4423 14.3951C49.3692 14.2223 49.3327 14.0214 49.3327 13.7922C49.3327 13.6626 49.3543 13.5347 49.3975 13.4085C49.4407 13.2789 49.5104 13.156 49.6068 13.0398C49.7064 12.9235 49.8343 12.8139 49.9904 12.7109C50.1466 12.6079 50.3376 12.5182 50.5634 12.4418C50.7927 12.3654 51.0584 12.304 51.3607 12.2575C51.663 12.2076 52.0084 12.1778 52.3971 12.1678V11.8688C52.3971 11.5267 52.324 11.2742 52.1779 11.1114C52.0317 10.9453 51.8208 10.8623 51.5451 10.8623C51.3457 10.8623 51.1796 10.8856 51.0468 10.9321C50.9172 10.9786 50.8026 11.0317 50.703 11.0915C50.6033 11.148 50.512 11.1995 50.4289 11.246C50.3492 11.2925 50.2595 11.3157 50.1598 11.3157C50.0735 11.3157 50.0004 11.2941 49.9406 11.251C49.8808 11.2045 49.8326 11.1513 49.7961 11.0915L49.5769 10.6979ZM55.9181 10.8723C56.0775 10.5667 56.2668 10.3275 56.4861 10.1547C56.7053 9.97869 56.9644 9.89066 57.2634 9.89066C57.4993 9.89066 57.6886 9.94215 57.8314 10.0451L57.7517 10.9669C57.7351 11.0267 57.7102 11.0699 57.677 11.0965C57.6471 11.1197 57.6056 11.1314 57.5524 11.1314C57.5026 11.1314 57.4278 11.1231 57.3282 11.1065C57.2318 11.0898 57.1372 11.0815 57.0442 11.0815C56.908 11.0815 56.7867 11.1015 56.6804 11.1413C56.5741 11.1812 56.4778 11.2393 56.3914 11.3157C56.3084 11.3888 56.2336 11.4785 56.1672 11.5848C56.1041 11.6911 56.0443 11.8124 55.9878 11.9485V15.0977H54.7571V9.98533H55.4796C55.6058 9.98533 55.6938 10.0086 55.7437 10.0551C55.7935 10.0983 55.8267 10.178 55.8433 10.2943L55.9181 10.8723ZM60.1788 15.1774C59.7337 15.1774 59.3915 15.0528 59.1523 14.8037C58.9165 14.5512 58.7986 14.2041 58.7986 13.7623V10.9071H58.2754C58.2089 10.9071 58.1525 10.8856 58.106 10.8424C58.0595 10.7992 58.0362 10.7344 58.0362 10.648V10.1597L58.8584 10.0252L59.1175 8.63002C59.1341 8.56358 59.1656 8.5121 59.2121 8.47556C59.2586 8.43901 59.3184 8.42074 59.3915 8.42074H60.0293V10.0302H61.3946V10.9071H60.0293V13.6776C60.0293 13.837 60.0675 13.9616 60.1439 14.0513C60.2236 14.141 60.3316 14.1858 60.4678 14.1858C60.5442 14.1858 60.6073 14.1775 60.6571 14.1609C60.7103 14.141 60.7551 14.121 60.7917 14.1011C60.8315 14.0812 60.8664 14.0629 60.8963 14.0463C60.9262 14.0264 60.9561 14.0164 60.986 14.0164C61.0225 14.0164 61.0524 14.0264 61.0757 14.0463C61.0989 14.0629 61.1239 14.0895 61.1504 14.126L61.5192 14.7239C61.3398 14.8734 61.1338 14.9864 60.9013 15.0628C60.6688 15.1392 60.4279 15.1774 60.1788 15.1774ZM64.4058 9.90561C64.7845 9.90561 65.1283 9.96706 65.4372 10.09C65.7495 10.2129 66.0152 10.3873 66.2345 10.6132C66.4571 10.839 66.6281 11.1148 66.7477 11.4403C66.8673 11.7658 66.9271 12.1296 66.9271 12.5315C66.9271 12.9368 66.8673 13.3022 66.7477 13.6277C66.6281 13.9533 66.4571 14.2307 66.2345 14.4599C66.0152 14.6891 65.7495 14.8651 65.4372 14.988C65.1283 15.1109 64.7845 15.1724 64.4058 15.1724C64.0238 15.1724 63.6767 15.1109 63.3644 14.988C63.0522 14.8651 62.7848 14.6891 62.5622 14.4599C62.3429 14.2307 62.1719 13.9533 62.049 13.6277C61.9294 13.3022 61.8696 12.9368 61.8696 12.5315C61.8696 12.1296 61.9294 11.7658 62.049 11.4403C62.1719 11.1148 62.3429 10.839 62.5622 10.6132C62.7848 10.3873 63.0522 10.2129 63.3644 10.09C63.6767 9.96706 64.0238 9.90561 64.4058 9.90561ZM64.4058 14.2257C64.831 14.2257 65.1449 14.0828 65.3476 13.7972C65.5535 13.5115 65.6565 13.0929 65.6565 12.5415C65.6565 11.9901 65.5535 11.5699 65.3476 11.2809C65.1449 10.9919 64.831 10.8474 64.4058 10.8474C63.974 10.8474 63.6534 10.9935 63.4441 11.2858C63.2382 11.5748 63.1352 11.9934 63.1352 12.5415C63.1352 13.0896 63.2382 13.5082 63.4441 13.7972C63.6534 14.0828 63.974 14.2257 64.4058 14.2257ZM69.0171 10.6132C69.12 10.5102 69.228 10.4155 69.3409 10.3291C69.4572 10.2395 69.5784 10.1647 69.7047 10.1049C69.8342 10.0418 69.9721 9.99364 70.1182 9.96042C70.2644 9.92388 70.4239 9.90561 70.5966 9.90561C70.8756 9.90561 71.1231 9.95378 71.339 10.0501C71.5549 10.1431 71.7343 10.276 71.8772 10.4487C72.0233 10.6181 72.1329 10.8224 72.206 11.0616C72.2824 11.2975 72.3206 11.5582 72.3206 11.8439V15.0977H71.0899V11.8439C71.0899 11.5317 71.0185 11.2908 70.8756 11.1214C70.7328 10.9487 70.5152 10.8623 70.2229 10.8623C70.0103 10.8623 69.811 10.9105 69.625 11.0068C69.4389 11.1031 69.2629 11.2343 69.0968 11.4004V15.0977H67.866V9.98533H68.6184C68.7779 9.98533 68.8825 10.0601 68.9323 10.2096L69.0171 10.6132ZM79.9454 9.20304C79.9056 9.2728 79.8624 9.32429 79.8159 9.35751C79.7727 9.3874 79.7179 9.40235 79.6515 9.40235C79.5817 9.40235 79.5053 9.37744 79.4222 9.32761C79.3425 9.27446 79.2462 9.21633 79.1332 9.15321C79.0203 9.0901 78.8874 9.03363 78.7346 8.9838C78.5851 8.93065 78.4074 8.90407 78.2015 8.90407C78.0154 8.90407 77.8527 8.92733 77.7132 8.97383C77.5736 9.01702 77.4557 9.07847 77.3594 9.15819C77.2664 9.23792 77.1966 9.33425 77.1501 9.4472C77.1036 9.55682 77.0803 9.67806 77.0803 9.81094C77.0803 9.98035 77.1268 10.1215 77.2199 10.2345C77.3162 10.3474 77.4424 10.4437 77.5986 10.5235C77.7547 10.6032 77.9324 10.6746 78.1317 10.7377C78.331 10.8008 78.5353 10.8689 78.7446 10.942C78.9539 11.0118 79.1582 11.0948 79.3575 11.1912C79.5568 11.2842 79.7345 11.4038 79.8906 11.5499C80.0468 11.6928 80.1713 11.8688 80.2643 12.0781C80.3607 12.2874 80.4088 12.5415 80.4088 12.8405C80.4088 13.166 80.3524 13.4716 80.2394 13.7573C80.1298 14.0396 79.967 14.2871 79.7511 14.4997C79.5385 14.709 79.2777 14.8751 78.9688 14.998C78.6599 15.1176 78.3061 15.1774 77.9075 15.1774C77.6783 15.1774 77.4524 15.1541 77.2298 15.1076C77.0073 15.0644 76.793 15.0013 76.587 14.9183C76.3844 14.8352 76.1934 14.7356 76.014 14.6193C75.8347 14.503 75.6752 14.3735 75.5357 14.2307L75.9293 13.5879C75.9625 13.5414 76.0057 13.5032 76.0589 13.4733C76.112 13.4401 76.1685 13.4234 76.2283 13.4234C76.3113 13.4234 76.401 13.4583 76.4974 13.5281C76.5937 13.5945 76.7083 13.6693 76.8412 13.7523C76.974 13.8354 77.1285 13.9118 77.3046 13.9815C77.4839 14.048 77.6982 14.0812 77.9473 14.0812C78.3294 14.0812 78.625 13.9915 78.8343 13.8121C79.0436 13.6294 79.1482 13.3686 79.1482 13.0298C79.1482 12.8405 79.1 12.686 79.0037 12.5664C78.9107 12.4468 78.7861 12.3472 78.63 12.2674C78.4739 12.1844 78.2961 12.1146 78.0968 12.0582C77.8975 12.0017 77.6949 11.9402 77.4889 11.8738C77.283 11.8074 77.0803 11.7276 76.881 11.6346C76.6817 11.5416 76.504 11.4204 76.3479 11.2709C76.1917 11.1214 76.0655 10.9354 75.9692 10.7128C75.8762 10.4869 75.8297 10.2096 75.8297 9.8807C75.8297 9.61827 75.8812 9.36249 75.9841 9.11335C76.0904 8.86421 76.2432 8.64331 76.4425 8.45064C76.6419 8.25797 76.8877 8.10351 77.18 7.98724C77.4723 7.87098 77.8078 7.81285 78.1865 7.81285C78.6117 7.81285 79.0037 7.87928 79.3625 8.01216C79.7212 8.14503 80.0268 8.33105 80.2793 8.57023L79.9454 9.20304ZM82.6399 9.98533V15.0977H81.4041V9.98533H82.6399ZM82.8093 8.49549C82.8093 8.60179 82.7877 8.70144 82.7445 8.79445C82.7013 8.88746 82.6432 8.96885 82.5701 9.03861C82.5004 9.10837 82.4173 9.16484 82.321 9.20802C82.2246 9.24788 82.1217 9.26782 82.012 9.26782C81.9057 9.26782 81.8044 9.24788 81.7081 9.20802C81.6151 9.16484 81.5337 9.10837 81.4639 9.03861C81.3942 8.96885 81.3377 8.88746 81.2945 8.79445C81.2547 8.70144 81.2347 8.60179 81.2347 8.49549C81.2347 8.38587 81.2547 8.28289 81.2945 8.18655C81.3377 8.09022 81.3942 8.00718 81.4639 7.93742C81.5337 7.86766 81.6151 7.81285 81.7081 7.77298C81.8044 7.7298 81.9057 7.70821 82.012 7.70821C82.1217 7.70821 82.2246 7.7298 82.321 7.77298C82.4173 7.81285 82.5004 7.86766 82.5701 7.93742C82.6432 8.00718 82.7013 8.09022 82.7445 8.18655C82.7877 8.28289 82.8093 8.38587 82.8093 8.49549ZM87.5669 10.4936C87.5669 10.5799 87.5519 10.6647 87.522 10.7477C87.4922 10.8307 87.4523 10.8988 87.4025 10.952L84.9759 14.1509H87.4922V15.0977H83.5458V14.5844C83.5458 14.528 83.5591 14.4615 83.5857 14.3851C83.6122 14.3054 83.6521 14.2307 83.7052 14.1609L86.1568 10.9271H83.6903V9.98533H87.5669V10.4936ZM91.6844 11.9535C91.6844 11.7941 91.6611 11.6446 91.6146 11.5051C91.5714 11.3622 91.505 11.2377 91.4153 11.1314C91.3256 11.0251 91.211 10.942 91.0715 10.8822C90.9353 10.8191 90.7758 10.7876 90.5931 10.7876C90.2377 10.7876 89.957 10.8889 89.7511 11.0915C89.5484 11.2941 89.4189 11.5815 89.3624 11.9535H91.6844ZM89.3375 12.696C89.3574 12.9584 89.4039 13.1859 89.477 13.3786C89.5501 13.5679 89.6464 13.7257 89.766 13.852C89.8856 13.9749 90.0268 14.0679 90.1895 14.131C90.3556 14.1908 90.5383 14.2207 90.7376 14.2207C90.937 14.2207 91.108 14.1974 91.2509 14.1509C91.397 14.1044 91.5233 14.0529 91.6296 13.9965C91.7392 13.94 91.8339 13.8885 91.9136 13.842C91.9966 13.7955 92.0764 13.7722 92.1528 13.7722C92.2557 13.7722 92.3321 13.8104 92.382 13.8868L92.7357 14.3353C92.5995 14.4947 92.4467 14.6293 92.2773 14.7389C92.1079 14.8452 91.9302 14.9316 91.7442 14.998C91.5615 15.0611 91.3738 15.106 91.1811 15.1325C90.9918 15.1591 90.8074 15.1724 90.628 15.1724C90.2726 15.1724 89.9421 15.1143 89.6365 14.998C89.3308 14.8784 89.0651 14.704 88.8392 14.4748C88.6133 14.2423 88.4356 13.9566 88.3061 13.6178C88.1765 13.2756 88.1117 12.8803 88.1117 12.4319C88.1117 12.0831 88.1682 11.7559 88.2811 11.4503C88.3941 11.1413 88.5552 10.8739 88.7645 10.648C88.9771 10.4188 89.2345 10.2378 89.5368 10.1049C89.8424 9.97205 90.1862 9.90561 90.5682 9.90561C90.8905 9.90561 91.1878 9.9571 91.4601 10.0601C91.7325 10.1631 91.9667 10.3142 92.1627 10.5135C92.3587 10.7095 92.5115 10.952 92.6211 11.241C92.7341 11.5267 92.7905 11.8539 92.7905 12.2226C92.7905 12.4086 92.7706 12.5349 92.7308 12.6013C92.6909 12.6644 92.6145 12.696 92.5015 12.696H89.3375Z" fill="white"/>
<path d="M42.98 24.0743C43.0173 23.5837 43.2067 23.1997 43.548 22.9223C43.8893 22.645 44.332 22.5063 44.876 22.5063C45.2387 22.5063 45.5507 22.573 45.812 22.7063C46.0787 22.8343 46.2787 23.0103 46.412 23.2343C46.5507 23.4583 46.62 23.7117 46.62 23.9943C46.62 24.325 46.524 24.6103 46.332 24.8503C46.1453 25.0903 45.9 25.245 45.596 25.3143V25.3543C45.9427 25.4397 46.2173 25.6077 46.42 25.8583C46.6227 26.109 46.724 26.437 46.724 26.8423C46.724 27.1463 46.6547 27.421 46.516 27.6663C46.3773 27.9063 46.1693 28.0957 45.892 28.2343C45.6147 28.373 45.2813 28.4423 44.892 28.4423C44.3267 28.4423 43.8627 28.2957 43.5 28.0023C43.1373 27.7037 42.9347 27.2823 42.892 26.7383H43.596C43.6333 27.0583 43.764 27.3197 43.988 27.5223C44.212 27.725 44.5107 27.8263 44.884 27.8263C45.2573 27.8263 45.54 27.7303 45.732 27.5383C45.9293 27.341 46.028 27.0877 46.028 26.7783C46.028 26.3783 45.8947 26.0903 45.628 25.9143C45.3613 25.7383 44.9587 25.6503 44.42 25.6503H44.236V25.0423H44.428C44.9187 25.037 45.2893 24.957 45.54 24.8023C45.7907 24.6423 45.916 24.397 45.916 24.0663C45.916 23.7837 45.8227 23.557 45.636 23.3863C45.4547 23.2157 45.1933 23.1303 44.852 23.1303C44.5213 23.1303 44.2547 23.2157 44.052 23.3863C43.8493 23.557 43.7293 23.7863 43.692 24.0743H42.98ZM47.5309 27.1143V26.5623L50.3389 22.6743H51.2109V26.4823H52.0109V27.1143H51.2109V28.4023H50.4909V27.1143H47.5309ZM50.5229 23.4343L48.3709 26.4823H50.5229V23.4343ZM53.0902 28.4503C52.9515 28.4503 52.8342 28.4023 52.7382 28.3063C52.6422 28.2103 52.5942 28.093 52.5942 27.9543C52.5942 27.8157 52.6422 27.6983 52.7382 27.6023C52.8342 27.5063 52.9515 27.4583 53.0902 27.4583C53.2235 27.4583 53.3355 27.5063 53.4262 27.6023C53.5222 27.6983 53.5702 27.8157 53.5702 27.9543C53.5702 28.093 53.5222 28.2103 53.4262 28.3063C53.3355 28.4023 53.2235 28.4503 53.0902 28.4503ZM58.1059 23.2503H55.2979V25.0743C55.4205 24.9037 55.6019 24.765 55.8419 24.6583C56.0819 24.5463 56.3405 24.4903 56.6179 24.4903C57.0605 24.4903 57.4205 24.5837 57.6979 24.7703C57.9752 24.9517 58.1725 25.189 58.2899 25.4823C58.4125 25.7703 58.4739 26.077 58.4739 26.4023C58.4739 26.7863 58.4019 27.1303 58.2579 27.4343C58.1139 27.7383 57.8925 27.9783 57.5939 28.1543C57.3005 28.3303 56.9352 28.4183 56.4979 28.4183C55.9379 28.4183 55.4845 28.2743 55.1379 27.9863C54.7912 27.6983 54.5805 27.3143 54.5059 26.8343H55.2179C55.2872 27.1383 55.4339 27.3757 55.6579 27.5463C55.8819 27.717 56.1645 27.8023 56.5059 27.8023C56.9272 27.8023 57.2445 27.677 57.4579 27.4263C57.6712 27.1703 57.7779 26.8343 57.7779 26.4183C57.7779 26.0023 57.6712 25.6823 57.4579 25.4583C57.2445 25.229 56.9299 25.1143 56.5139 25.1143C56.2312 25.1143 55.9832 25.1837 55.7699 25.3223C55.5619 25.4557 55.4099 25.6397 55.3139 25.8743H54.6259V22.6103H58.1059V23.2503ZM64.9261 27.2023L63.6541 25.9303L62.3821 27.2023L61.9021 26.7223L63.1741 25.4503L61.9261 24.2023L62.3901 23.7303L63.6461 24.9863L64.9021 23.7303L65.3821 24.2103L64.1261 25.4663L65.3901 26.7383L64.9261 27.2023ZM68.7596 27.8183C69.4369 27.2743 69.9676 26.829 70.3516 26.4823C70.7356 26.1303 71.0582 25.765 71.3196 25.3863C71.5862 25.0023 71.7196 24.6263 71.7196 24.2583C71.7196 23.9117 71.6342 23.6397 71.4636 23.4423C71.2982 23.2397 71.0289 23.1383 70.6556 23.1383C70.2929 23.1383 70.0102 23.253 69.8076 23.4823C69.6102 23.7063 69.5036 24.0077 69.4876 24.3863H68.7836C68.8049 23.789 68.9862 23.3277 69.3276 23.0023C69.6689 22.677 70.1089 22.5143 70.6476 22.5143C71.1969 22.5143 71.6316 22.6663 71.9516 22.9703C72.2769 23.2743 72.4396 23.693 72.4396 24.2263C72.4396 24.669 72.3062 25.101 72.0396 25.5223C71.7782 25.9383 71.4796 26.3063 71.1436 26.6263C70.8076 26.941 70.3782 27.309 69.8556 27.7303H72.6076V28.3383H68.7596V27.8183ZM73.2731 27.1143V26.5623L76.0811 22.6743H76.9531V26.4823H77.7531V27.1143H76.9531V28.4023H76.2331V27.1143H73.2731ZM76.2651 23.4343L74.1131 26.4823H76.2651V23.4343ZM83.9652 27.2023L82.6932 25.9303L81.4212 27.2023L80.9412 26.7223L82.2132 25.4503L80.9652 24.2023L81.4292 23.7303L82.6852 24.9863L83.9412 23.7303L84.4212 24.2103L83.1652 25.4663L84.4292 26.7383L83.9652 27.2023ZM87.7986 27.8183C88.476 27.2743 89.0066 26.829 89.3906 26.4823C89.7746 26.1303 90.0973 25.765 90.3586 25.3863C90.6253 25.0023 90.7586 24.6263 90.7586 24.2583C90.7586 23.9117 90.6733 23.6397 90.5026 23.4423C90.3373 23.2397 90.068 23.1383 89.6946 23.1383C89.332 23.1383 89.0493 23.253 88.8466 23.4823C88.6493 23.7063 88.5426 24.0077 88.5266 24.3863H87.8226C87.844 23.789 88.0253 23.3277 88.3666 23.0023C88.708 22.677 89.148 22.5143 89.6866 22.5143C90.236 22.5143 90.6706 22.6663 90.9906 22.9703C91.316 23.2743 91.4786 23.693 91.4786 24.2263C91.4786 24.669 91.3453 25.101 91.0786 25.5223C90.8173 25.9383 90.5186 26.3063 90.1826 26.6263C89.8466 26.941 89.4173 27.309 88.8946 27.7303H91.6466V28.3383H87.7986V27.8183ZM92.3122 27.1143V26.5623L95.1202 22.6743H95.9922V26.4823H96.7922V27.1143H95.9922V28.4023H95.2722V27.1143H92.3122ZM95.3042 23.4343L93.1522 26.4823H95.3042V23.4343ZM97.8714 28.4503C97.7328 28.4503 97.6154 28.4023 97.5194 28.3063C97.4234 28.2103 97.3754 28.093 97.3754 27.9543C97.3754 27.8157 97.4234 27.6983 97.5194 27.6023C97.6154 27.5063 97.7328 27.4583 97.8714 27.4583C98.0048 27.4583 98.1168 27.5063 98.2074 27.6023C98.3034 27.6983 98.3514 27.8157 98.3514 27.9543C98.3514 28.093 98.3034 28.2103 98.2074 28.3063C98.1168 28.4023 98.0048 28.4503 97.8714 28.4503ZM102.887 23.2503H100.079V25.0743C100.202 24.9037 100.383 24.765 100.623 24.6583C100.863 24.5463 101.122 24.4903 101.399 24.4903C101.842 24.4903 102.202 24.5837 102.479 24.7703C102.756 24.9517 102.954 25.189 103.071 25.4823C103.194 25.7703 103.255 26.077 103.255 26.4023C103.255 26.7863 103.183 27.1303 103.039 27.4343C102.895 27.7383 102.674 27.9783 102.375 28.1543C102.082 28.3303 101.716 28.4183 101.279 28.4183C100.719 28.4183 100.266 28.2743 99.9191 27.9863C99.5725 27.6983 99.3618 27.3143 99.2871 26.8343H99.9991C100.068 27.1383 100.215 27.3757 100.439 27.5463C100.663 27.717 100.946 27.8023 101.287 27.8023C101.708 27.8023 102.026 27.677 102.239 27.4263C102.452 27.1703 102.559 26.8343 102.559 26.4183C102.559 26.0023 102.452 25.6823 102.239 25.4583C102.026 25.229 101.711 25.1143 101.295 25.1143C101.012 25.1143 100.764 25.1837 100.551 25.3223C100.343 25.4557 100.191 25.6397 100.095 25.8743H99.4071V22.6103H102.887V23.2503ZM111.747 23.9383C112.089 23.9383 112.393 24.0103 112.659 24.1543C112.926 24.293 113.137 24.5037 113.291 24.7863C113.446 25.069 113.523 25.413 113.523 25.8183V28.4023H112.803V25.9223C112.803 25.485 112.694 25.1517 112.475 24.9223C112.262 24.6877 111.971 24.5703 111.603 24.5703C111.225 24.5703 110.923 24.693 110.699 24.9383C110.475 25.1783 110.363 25.5277 110.363 25.9863V28.4023H109.643V25.9223C109.643 25.485 109.534 25.1517 109.315 24.9223C109.102 24.6877 108.811 24.5703 108.443 24.5703C108.065 24.5703 107.763 24.693 107.539 24.9383C107.315 25.1783 107.203 25.5277 107.203 25.9863V28.4023H106.475V24.0183H107.203V24.6503C107.347 24.421 107.539 24.245 107.779 24.1223C108.025 23.9997 108.294 23.9383 108.587 23.9383C108.955 23.9383 109.281 24.021 109.563 24.1863C109.846 24.3517 110.057 24.5943 110.195 24.9143C110.318 24.605 110.521 24.365 110.803 24.1943C111.086 24.0237 111.401 23.9383 111.747 23.9383ZM119.99 23.9383C120.331 23.9383 120.635 24.0103 120.902 24.1543C121.168 24.293 121.379 24.5037 121.534 24.7863C121.688 25.069 121.766 25.413 121.766 25.8183V28.4023H121.046V25.9223C121.046 25.485 120.936 25.1517 120.718 24.9223C120.504 24.6877 120.214 24.5703 119.846 24.5703C119.467 24.5703 119.166 24.693 118.942 24.9383C118.718 25.1783 118.606 25.5277 118.606 25.9863V28.4023H117.886V25.9223C117.886 25.485 117.776 25.1517 117.558 24.9223C117.344 24.6877 117.054 24.5703 116.686 24.5703C116.307 24.5703 116.006 24.693 115.782 24.9383C115.558 25.1783 115.446 25.5277 115.446 25.9863V28.4023H114.718V24.0183H115.446V24.6503C115.59 24.421 115.782 24.245 116.022 24.1223C116.267 23.9997 116.536 23.9383 116.83 23.9383C117.198 23.9383 117.523 24.021 117.806 24.1863C118.088 24.3517 118.299 24.5943 118.438 24.9143C118.56 24.605 118.763 24.365 119.046 24.1943C119.328 24.0237 119.643 23.9383 119.99 23.9383Z" fill="white"/>
</svg>
