<svg width="145" height="37" viewBox="0 0 145 37" fill="none" xmlns="http://www.w3.org/2000/svg">
<rect width="36.5" height="36.5" rx="18.25" fill="white"/>
<path d="M16.4165 20.9974V18.2474M20.0831 20.9974V18.2474M23.7498 20.9974V18.2474M9.08313 14.5807V10.9141M27.4165 12.7474H9.08313M27.4165 14.5807V10.9141M12.7498 20.9974V18.2474" stroke="#783215" stroke-width="2.06182" stroke-linecap="round" stroke-linejoin="round"/>
<path d="M25.5832 18.248H10.9165C9.90399 18.248 9.08318 19.0689 9.08318 20.0814V23.748C9.08318 24.7606 9.90399 25.5814 10.9165 25.5814H25.5832C26.5957 25.5814 27.4165 24.7606 27.4165 23.748V20.0814C27.4165 19.0689 26.5957 18.248 25.5832 18.248Z" stroke="#783215" stroke-width="2.06182" stroke-linecap="round" stroke-linejoin="round"/>
<path d="M49.725 11.4827C49.725 12.0127 49.6367 12.4993 49.46 12.9427C49.2833 13.386 49.035 13.7677 48.715 14.0877C48.395 14.4077 48.01 14.656 47.56 14.8327C47.11 15.0093 46.61 15.0977 46.06 15.0977H43.305V7.86766H46.06C46.61 7.86766 47.11 7.95766 47.56 8.13766C48.01 8.31432 48.395 8.56266 48.715 8.88266C49.035 9.19932 49.2833 9.57932 49.46 10.0227C49.6367 10.466 49.725 10.9527 49.725 11.4827ZM48.345 11.4827C48.345 11.086 48.2917 10.731 48.185 10.4177C48.0817 10.101 47.93 9.83432 47.73 9.61766C47.5333 9.39766 47.2933 9.22932 47.01 9.11266C46.73 8.99599 46.4133 8.93766 46.06 8.93766H44.655V14.0277H46.06C46.4133 14.0277 46.73 13.9693 47.01 13.8527C47.2933 13.736 47.5333 13.5693 47.73 13.3527C47.93 13.1327 48.0817 12.866 48.185 12.5527C48.2917 12.236 48.345 11.8793 48.345 11.4827ZM51.9095 9.96766V15.0977H50.6695V9.96766H51.9095ZM52.0795 8.47266C52.0795 8.57932 52.0579 8.67932 52.0145 8.77266C51.9712 8.86599 51.9129 8.94766 51.8395 9.01766C51.7695 9.08766 51.6862 9.14432 51.5895 9.18766C51.4929 9.22766 51.3895 9.24766 51.2795 9.24766C51.1729 9.24766 51.0712 9.22766 50.9745 9.18766C50.8812 9.14432 50.7995 9.08766 50.7295 9.01766C50.6595 8.94766 50.6029 8.86599 50.5595 8.77266C50.5195 8.67932 50.4995 8.57932 50.4995 8.47266C50.4995 8.36266 50.5195 8.25932 50.5595 8.16266C50.6029 8.06599 50.6595 7.98266 50.7295 7.91266C50.7995 7.84266 50.8812 7.78766 50.9745 7.74766C51.0712 7.70432 51.1729 7.68266 51.2795 7.68266C51.3895 7.68266 51.4929 7.70432 51.5895 7.74766C51.6862 7.78766 51.7695 7.84266 51.8395 7.91266C51.9129 7.98266 51.9712 8.06599 52.0145 8.16266C52.0579 8.25932 52.0795 8.36266 52.0795 8.47266ZM53.1686 15.0977V9.96766H53.9236C54.0836 9.96766 54.1886 10.0427 54.2386 10.1927L54.3186 10.5727C54.4086 10.4727 54.5019 10.381 54.5986 10.2977C54.6986 10.2143 54.8036 10.1427 54.9136 10.0827C55.0269 10.0227 55.1469 9.97599 55.2736 9.94266C55.4036 9.90599 55.5453 9.88766 55.6986 9.88766C56.0219 9.88766 56.2869 9.97599 56.4936 10.1527C56.7036 10.326 56.8603 10.5577 56.9636 10.8477C57.0436 10.6777 57.1436 10.5327 57.2636 10.4127C57.3836 10.2893 57.5153 10.1893 57.6586 10.1127C57.8019 10.036 57.9536 9.97932 58.1136 9.94266C58.2769 9.90599 58.4403 9.88766 58.6036 9.88766C58.8869 9.88766 59.1386 9.93099 59.3586 10.0177C59.5786 10.1043 59.7636 10.231 59.9136 10.3977C60.0636 10.5643 60.1769 10.7677 60.2536 11.0077C60.3336 11.2477 60.3736 11.5227 60.3736 11.8327V15.0977H59.1386V11.8327C59.1386 11.506 59.0669 11.261 58.9236 11.0977C58.7803 10.931 58.5703 10.8477 58.2936 10.8477C58.1669 10.8477 58.0486 10.8693 57.9386 10.9127C57.8319 10.956 57.7369 11.0193 57.6536 11.1027C57.5736 11.1827 57.5103 11.2843 57.4636 11.4077C57.4169 11.531 57.3936 11.6727 57.3936 11.8327V15.0977H56.1536V11.8327C56.1536 11.4893 56.0836 11.2393 55.9436 11.0827C55.8069 10.926 55.6053 10.8477 55.3386 10.8477C55.1586 10.8477 54.9903 10.8927 54.8336 10.9827C54.6803 11.0693 54.5369 11.1893 54.4036 11.3427V15.0977H53.1686ZM64.8525 11.9427C64.8525 11.7827 64.8292 11.6327 64.7825 11.4927C64.7392 11.3493 64.6725 11.2243 64.5825 11.1177C64.4925 11.011 64.3775 10.9277 64.2375 10.8677C64.1008 10.8043 63.9408 10.7727 63.7575 10.7727C63.4008 10.7727 63.1192 10.8743 62.9125 11.0777C62.7092 11.281 62.5792 11.5693 62.5225 11.9427H64.8525ZM62.4975 12.6877C62.5175 12.951 62.5642 13.1793 62.6375 13.3727C62.7108 13.5627 62.8075 13.721 62.9275 13.8477C63.0475 13.971 63.1892 14.0643 63.3525 14.1277C63.5192 14.1877 63.7025 14.2177 63.9025 14.2177C64.1025 14.2177 64.2742 14.1943 64.4175 14.1477C64.5642 14.101 64.6908 14.0493 64.7975 13.9927C64.9075 13.936 65.0025 13.8843 65.0825 13.8377C65.1658 13.791 65.2458 13.7677 65.3225 13.7677C65.4258 13.7677 65.5025 13.806 65.5525 13.8827L65.9075 14.3327C65.7708 14.4927 65.6175 14.6277 65.4475 14.7377C65.2775 14.8443 65.0992 14.931 64.9125 14.9977C64.7292 15.061 64.5408 15.106 64.3475 15.1327C64.1575 15.1593 63.9725 15.1727 63.7925 15.1727C63.4358 15.1727 63.1042 15.1143 62.7975 14.9977C62.4908 14.8777 62.2242 14.7027 61.9975 14.4727C61.7708 14.2393 61.5925 13.9527 61.4625 13.6127C61.3325 13.2693 61.2675 12.8727 61.2675 12.4227C61.2675 12.0727 61.3242 11.7443 61.4375 11.4377C61.5508 11.1277 61.7125 10.8593 61.9225 10.6327C62.1358 10.4027 62.3942 10.221 62.6975 10.0877C63.0042 9.95432 63.3492 9.88766 63.7325 9.88766C64.0558 9.88766 64.3542 9.93932 64.6275 10.0427C64.9008 10.146 65.1358 10.2977 65.3325 10.4977C65.5292 10.6943 65.6825 10.9377 65.7925 11.2277C65.9058 11.5143 65.9625 11.8427 65.9625 12.2127C65.9625 12.3993 65.9425 12.526 65.9025 12.5927C65.8625 12.656 65.7858 12.6877 65.6725 12.6877H62.4975ZM68.0443 10.5977C68.1476 10.4943 68.256 10.3993 68.3693 10.3127C68.486 10.2227 68.6076 10.1477 68.7343 10.0877C68.8643 10.0243 69.0026 9.97599 69.1493 9.94266C69.296 9.90599 69.456 9.88766 69.6293 9.88766C69.9093 9.88766 70.1576 9.93599 70.3743 10.0327C70.591 10.126 70.771 10.2593 70.9143 10.4327C71.061 10.6027 71.171 10.8077 71.2443 11.0477C71.321 11.2843 71.3593 11.546 71.3593 11.8327V15.0977H70.1243V11.8327C70.1243 11.5193 70.0526 11.2777 69.9093 11.1077C69.766 10.9343 69.5476 10.8477 69.2543 10.8477C69.041 10.8477 68.841 10.896 68.6543 10.9927C68.4676 11.0893 68.291 11.221 68.1243 11.3877V15.0977H66.8893V9.96766H67.6443C67.8043 9.96766 67.9093 10.0427 67.9593 10.1927L68.0443 10.5977ZM75.6638 10.9677C75.6305 11.021 75.5955 11.0593 75.5588 11.0827C75.5222 11.1027 75.4755 11.1127 75.4188 11.1127C75.3588 11.1127 75.2938 11.096 75.2238 11.0627C75.1572 11.0293 75.0788 10.9927 74.9888 10.9527C74.8988 10.9093 74.7955 10.871 74.6788 10.8377C74.5655 10.8043 74.4305 10.7877 74.2738 10.7877C74.0305 10.7877 73.8388 10.8393 73.6988 10.9427C73.5622 11.046 73.4938 11.181 73.4938 11.3477C73.4938 11.4577 73.5288 11.551 73.5988 11.6277C73.6722 11.701 73.7672 11.766 73.8838 11.8227C74.0038 11.8793 74.1388 11.931 74.2888 11.9777C74.4388 12.021 74.5905 12.0693 74.7438 12.1227C74.9005 12.176 75.0538 12.2377 75.2038 12.3077C75.3538 12.3743 75.4872 12.461 75.6038 12.5677C75.7238 12.671 75.8188 12.796 75.8888 12.9427C75.9622 13.0893 75.9988 13.266 75.9988 13.4727C75.9988 13.7193 75.9538 13.9477 75.8638 14.1577C75.7772 14.3643 75.6472 14.5443 75.4738 14.6977C75.3005 14.8477 75.0855 14.966 74.8288 15.0527C74.5755 15.136 74.2822 15.1777 73.9488 15.1777C73.7722 15.1777 73.5988 15.161 73.4288 15.1277C73.2622 15.0977 73.1005 15.0543 72.9438 14.9977C72.7905 14.941 72.6472 14.8743 72.5138 14.7977C72.3838 14.721 72.2688 14.6377 72.1688 14.5477L72.4538 14.0777C72.4905 14.021 72.5338 13.9777 72.5838 13.9477C72.6338 13.9177 72.6972 13.9027 72.7738 13.9027C72.8505 13.9027 72.9222 13.9243 72.9888 13.9677C73.0588 14.011 73.1388 14.0577 73.2288 14.1077C73.3188 14.1577 73.4238 14.2043 73.5438 14.2477C73.6672 14.291 73.8222 14.3127 74.0088 14.3127C74.1555 14.3127 74.2805 14.296 74.3838 14.2627C74.4905 14.226 74.5772 14.1793 74.6438 14.1227C74.7138 14.066 74.7638 14.001 74.7938 13.9277C74.8272 13.851 74.8438 13.7727 74.8438 13.6927C74.8438 13.5727 74.8072 13.4743 74.7338 13.3977C74.6638 13.321 74.5688 13.2543 74.4488 13.1977C74.3322 13.141 74.1972 13.091 74.0438 13.0477C73.8938 13.001 73.7388 12.951 73.5788 12.8977C73.4222 12.8443 73.2672 12.7827 73.1138 12.7127C72.9638 12.6393 72.8288 12.5477 72.7088 12.4377C72.5922 12.3277 72.4972 12.1927 72.4238 12.0327C72.3538 11.8727 72.3188 11.6793 72.3188 11.4527C72.3188 11.2427 72.3605 11.0427 72.4438 10.8527C72.5272 10.6627 72.6488 10.4977 72.8088 10.3577C72.9722 10.2143 73.1738 10.101 73.4138 10.0177C73.6572 9.93099 73.9372 9.88766 74.2538 9.88766C74.6072 9.88766 74.9288 9.94599 75.2188 10.0627C75.5088 10.1793 75.7505 10.3327 75.9438 10.5227L75.6638 10.9677ZM78.2084 9.96766V15.0977H76.9684V9.96766H78.2084ZM78.3784 8.47266C78.3784 8.57932 78.3567 8.67932 78.3134 8.77266C78.27 8.86599 78.2117 8.94766 78.1384 9.01766C78.0684 9.08766 77.985 9.14432 77.8884 9.18766C77.7917 9.22766 77.6884 9.24766 77.5784 9.24766C77.4717 9.24766 77.37 9.22766 77.2734 9.18766C77.18 9.14432 77.0984 9.08766 77.0284 9.01766C76.9584 8.94766 76.9017 8.86599 76.8584 8.77266C76.8184 8.67932 76.7984 8.57932 76.7984 8.47266C76.7984 8.36266 76.8184 8.25932 76.8584 8.16266C76.9017 8.06599 76.9584 7.98266 77.0284 7.91266C77.0984 7.84266 77.18 7.78766 77.2734 7.74766C77.37 7.70432 77.4717 7.68266 77.5784 7.68266C77.6884 7.68266 77.7917 7.70432 77.8884 7.74766C77.985 7.78766 78.0684 7.84266 78.1384 7.91266C78.2117 7.98266 78.27 8.06599 78.3134 8.16266C78.3567 8.25932 78.3784 8.36266 78.3784 8.47266ZM81.7374 9.88766C82.1174 9.88766 82.4624 9.94932 82.7724 10.0727C83.0858 10.196 83.3524 10.371 83.5724 10.5977C83.7958 10.8243 83.9674 11.101 84.0874 11.4277C84.2074 11.7543 84.2674 12.1193 84.2674 12.5227C84.2674 12.9293 84.2074 13.296 84.0874 13.6227C83.9674 13.9493 83.7958 14.2277 83.5724 14.4577C83.3524 14.6877 83.0858 14.8643 82.7724 14.9877C82.4624 15.111 82.1174 15.1727 81.7374 15.1727C81.3541 15.1727 81.0058 15.111 80.6924 14.9877C80.3791 14.8643 80.1108 14.6877 79.8874 14.4577C79.6674 14.2277 79.4958 13.9493 79.3724 13.6227C79.2524 13.296 79.1924 12.9293 79.1924 12.5227C79.1924 12.1193 79.2524 11.7543 79.3724 11.4277C79.4958 11.101 79.6674 10.8243 79.8874 10.5977C80.1108 10.371 80.3791 10.196 80.6924 10.0727C81.0058 9.94932 81.3541 9.88766 81.7374 9.88766ZM81.7374 14.2227C82.1641 14.2227 82.4791 14.0793 82.6824 13.7927C82.8891 13.506 82.9924 13.086 82.9924 12.5327C82.9924 11.9793 82.8891 11.5577 82.6824 11.2677C82.4791 10.9777 82.1641 10.8327 81.7374 10.8327C81.3041 10.8327 80.9824 10.9793 80.7724 11.2727C80.5658 11.5627 80.4624 11.9827 80.4624 12.5327C80.4624 13.0827 80.5658 13.5027 80.7724 13.7927C80.9824 14.0793 81.3041 14.2227 81.7374 14.2227ZM86.3646 10.5977C86.4679 10.4943 86.5763 10.3993 86.6896 10.3127C86.8063 10.2227 86.9279 10.1477 87.0546 10.0877C87.1846 10.0243 87.3229 9.97599 87.4696 9.94266C87.6163 9.90599 87.7763 9.88766 87.9496 9.88766C88.2296 9.88766 88.4779 9.93599 88.6946 10.0327C88.9113 10.126 89.0913 10.2593 89.2346 10.4327C89.3813 10.6027 89.4913 10.8077 89.5646 11.0477C89.6413 11.2843 89.6796 11.546 89.6796 11.8327V15.0977H88.4446V11.8327C88.4446 11.5193 88.3729 11.2777 88.2296 11.1077C88.0863 10.9343 87.8679 10.8477 87.5746 10.8477C87.3613 10.8477 87.1613 10.896 86.9746 10.9927C86.7879 11.0893 86.6113 11.221 86.4446 11.3877V15.0977H85.2096V9.96766H85.9646C86.1246 9.96766 86.2296 10.0427 86.2796 10.1927L86.3646 10.5977Z" fill="white"/>
<path d="M42.804 23.2823V22.6183H44.308V28.4023H43.572V23.2823H42.804ZM49.2465 23.2503H46.4385V25.0743C46.5612 24.9037 46.7425 24.765 46.9825 24.6583C47.2225 24.5463 47.4812 24.4903 47.7585 24.4903C48.2012 24.4903 48.5612 24.5837 48.8385 24.7703C49.1158 24.9517 49.3132 25.189 49.4305 25.4823C49.5532 25.7703 49.6145 26.077 49.6145 26.4023C49.6145 26.7863 49.5425 27.1303 49.3985 27.4343C49.2545 27.7383 49.0332 27.9783 48.7345 28.1543C48.4412 28.3303 48.0758 28.4183 47.6385 28.4183C47.0785 28.4183 46.6252 28.2743 46.2785 27.9863C45.9318 27.6983 45.7212 27.3143 45.6465 26.8343H46.3585C46.4278 27.1383 46.5745 27.3757 46.7985 27.5463C47.0225 27.717 47.3052 27.8023 47.6465 27.8023C48.0678 27.8023 48.3852 27.677 48.5985 27.4263C48.8118 27.1703 48.9185 26.8343 48.9185 26.4183C48.9185 26.0023 48.8118 25.6823 48.5985 25.4583C48.3852 25.229 48.0705 25.1143 47.6545 25.1143C47.3718 25.1143 47.1238 25.1837 46.9105 25.3223C46.7025 25.4557 46.5505 25.6397 46.4545 25.8743H45.7665V22.6103H49.2465V23.2503ZM50.3899 23.2823V22.6183H51.8939V28.4023H51.1579V23.2823H50.3899ZM55.9844 20.8663L53.7924 29.7623H53.0724L55.2564 20.8663H55.9844ZM56.7571 23.2823V22.6183H58.2611V28.4023H57.5251V23.2823H56.7571ZM59.4236 27.8183C60.101 27.2743 60.6316 26.829 61.0156 26.4823C61.3996 26.1303 61.7223 25.765 61.9836 25.3863C62.2503 25.0023 62.3836 24.6263 62.3836 24.2583C62.3836 23.9117 62.2983 23.6397 62.1276 23.4423C61.9623 23.2397 61.693 23.1383 61.3196 23.1383C60.957 23.1383 60.6743 23.253 60.4716 23.4823C60.2743 23.7063 60.1676 24.0077 60.1516 24.3863H59.4476C59.469 23.789 59.6503 23.3277 59.9916 23.0023C60.333 22.677 60.773 22.5143 61.3116 22.5143C61.861 22.5143 62.2956 22.6663 62.6156 22.9703C62.941 23.2743 63.1036 23.693 63.1036 24.2263C63.1036 24.669 62.9703 25.101 62.7036 25.5223C62.4423 25.9383 62.1436 26.3063 61.8076 26.6263C61.4716 26.941 61.0423 27.309 60.5196 27.7303H63.2716V28.3383H59.4236V27.8183ZM64.0252 27.8183C64.7025 27.2743 65.2332 26.829 65.6172 26.4823C66.0012 26.1303 66.3239 25.765 66.5852 25.3863C66.8519 25.0023 66.9852 24.6263 66.9852 24.2583C66.9852 23.9117 66.8999 23.6397 66.7292 23.4423C66.5639 23.2397 66.2945 23.1383 65.9212 23.1383C65.5585 23.1383 65.2759 23.253 65.0732 23.4823C64.8759 23.7063 64.7692 24.0077 64.7532 24.3863H64.0492C64.0705 23.789 64.2519 23.3277 64.5932 23.0023C64.9345 22.677 65.3745 22.5143 65.9132 22.5143C66.4625 22.5143 66.8972 22.6663 67.2172 22.9703C67.5425 23.2743 67.7052 23.693 67.7052 24.2263C67.7052 24.669 67.5719 25.101 67.3052 25.5223C67.0439 25.9383 66.7452 26.3063 66.4092 26.6263C66.0732 26.941 65.6439 27.309 65.1212 27.7303H67.8732V28.3383H64.0252V27.8183ZM74.1996 27.2023L72.9276 25.9303L71.6556 27.2023L71.1756 26.7223L72.4476 25.4503L71.1996 24.2023L71.6636 23.7303L72.9196 24.9863L74.1756 23.7303L74.6556 24.2103L73.3996 25.4663L74.6636 26.7383L74.1996 27.2023ZM77.929 23.2823V22.6183H79.433V28.4023H78.697V23.2823H77.929ZM80.6675 24.0743C80.7048 23.5837 80.8942 23.1997 81.2355 22.9223C81.5768 22.645 82.0195 22.5063 82.5635 22.5063C82.9262 22.5063 83.2382 22.573 83.4995 22.7063C83.7662 22.8343 83.9662 23.0103 84.0995 23.2343C84.2382 23.4583 84.3075 23.7117 84.3075 23.9943C84.3075 24.325 84.2115 24.6103 84.0195 24.8503C83.8328 25.0903 83.5875 25.245 83.2835 25.3143V25.3543C83.6302 25.4397 83.9048 25.6077 84.1075 25.8583C84.3102 26.109 84.4115 26.437 84.4115 26.8423C84.4115 27.1463 84.3422 27.421 84.2035 27.6663C84.0648 27.9063 83.8568 28.0957 83.5795 28.2343C83.3022 28.373 82.9688 28.4423 82.5795 28.4423C82.0142 28.4423 81.5502 28.2957 81.1875 28.0023C80.8248 27.7037 80.6222 27.2823 80.5795 26.7383H81.2835C81.3208 27.0583 81.4515 27.3197 81.6755 27.5223C81.8995 27.725 82.1982 27.8263 82.5715 27.8263C82.9448 27.8263 83.2275 27.7303 83.4195 27.5383C83.6168 27.341 83.7155 27.0877 83.7155 26.7783C83.7155 26.3783 83.5822 26.0903 83.3155 25.9143C83.0488 25.7383 82.6462 25.6503 82.1075 25.6503H81.9235V25.0423H82.1155C82.6062 25.037 82.9768 24.957 83.2275 24.8023C83.4782 24.6423 83.6035 24.397 83.6035 24.0663C83.6035 23.7837 83.5102 23.557 83.3235 23.3863C83.1422 23.2157 82.8808 23.1303 82.5395 23.1303C82.2088 23.1303 81.9422 23.2157 81.7395 23.3863C81.5368 23.557 81.4168 23.7863 81.3795 24.0743H80.6675ZM85.3784 24.0743C85.4158 23.5837 85.6051 23.1997 85.9464 22.9223C86.2878 22.645 86.7304 22.5063 87.2744 22.5063C87.6371 22.5063 87.9491 22.573 88.2104 22.7063C88.4771 22.8343 88.6771 23.0103 88.8104 23.2343C88.9491 23.4583 89.0184 23.7117 89.0184 23.9943C89.0184 24.325 88.9224 24.6103 88.7304 24.8503C88.5438 25.0903 88.2984 25.245 87.9944 25.3143V25.3543C88.3411 25.4397 88.6158 25.6077 88.8184 25.8583C89.0211 26.109 89.1224 26.437 89.1224 26.8423C89.1224 27.1463 89.0531 27.421 88.9144 27.6663C88.7758 27.9063 88.5678 28.0957 88.2904 28.2343C88.0131 28.373 87.6798 28.4423 87.2904 28.4423C86.7251 28.4423 86.2611 28.2957 85.8984 28.0023C85.5358 27.7037 85.3331 27.2823 85.2904 26.7383H85.9944C86.0318 27.0583 86.1624 27.3197 86.3864 27.5223C86.6104 27.725 86.9091 27.8263 87.2824 27.8263C87.6558 27.8263 87.9384 27.7303 88.1304 27.5383C88.3278 27.341 88.4264 27.0877 88.4264 26.7783C88.4264 26.3783 88.2931 26.0903 88.0264 25.9143C87.7598 25.7383 87.3571 25.6503 86.8184 25.6503H86.6344V25.0423H86.8264C87.3171 25.037 87.6878 24.957 87.9384 24.8023C88.1891 24.6423 88.3144 24.397 88.3144 24.0663C88.3144 23.7837 88.2211 23.557 88.0344 23.3863C87.8531 23.2157 87.5918 23.1303 87.2504 23.1303C86.9198 23.1303 86.6531 23.2157 86.4504 23.3863C86.2478 23.557 86.1278 23.7863 86.0904 24.0743H85.3784ZM92.9454 20.8663L90.7534 29.7623H90.0334L92.2174 20.8663H92.9454ZM93.7181 23.2823V22.6183H95.2221V28.4023H94.4861V23.2823H93.7181ZM96.4726 25.4503C96.4726 24.533 96.6219 23.8183 96.9206 23.3063C97.2192 22.789 97.7419 22.5303 98.4886 22.5303C99.2299 22.5303 99.7499 22.789 100.049 23.3063C100.347 23.8183 100.497 24.533 100.497 25.4503C100.497 26.3837 100.347 27.109 100.049 27.6263C99.7499 28.1437 99.2299 28.4023 98.4886 28.4023C97.7419 28.4023 97.2192 28.1437 96.9206 27.6263C96.6219 27.109 96.4726 26.3837 96.4726 25.4503ZM99.7766 25.4503C99.7766 24.9863 99.7446 24.5943 99.6806 24.2743C99.6219 23.949 99.4966 23.6877 99.3046 23.4903C99.1179 23.293 98.8459 23.1943 98.4886 23.1943C98.1259 23.1943 97.8486 23.293 97.6566 23.4903C97.4699 23.6877 97.3446 23.949 97.2806 24.2743C97.2219 24.5943 97.1926 24.9863 97.1926 25.4503C97.1926 25.9303 97.2219 26.333 97.2806 26.6583C97.3446 26.9837 97.4699 27.245 97.6566 27.4423C97.8486 27.6397 98.1259 27.7383 98.4886 27.7383C98.8459 27.7383 99.1179 27.6397 99.3046 27.4423C99.4966 27.245 99.6219 26.9837 99.6806 26.6583C99.7446 26.333 99.7766 25.9303 99.7766 25.4503ZM101.48 24.0743C101.517 23.5837 101.707 23.1997 102.048 22.9223C102.389 22.645 102.832 22.5063 103.376 22.5063C103.739 22.5063 104.051 22.573 104.312 22.7063C104.579 22.8343 104.779 23.0103 104.912 23.2343C105.051 23.4583 105.12 23.7117 105.12 23.9943C105.12 24.325 105.024 24.6103 104.832 24.8503C104.645 25.0903 104.4 25.245 104.096 25.3143V25.3543C104.443 25.4397 104.717 25.6077 104.92 25.8583C105.123 26.109 105.224 26.437 105.224 26.8423C105.224 27.1463 105.155 27.421 105.016 27.6663C104.877 27.9063 104.669 28.0957 104.392 28.2343C104.115 28.373 103.781 28.4423 103.392 28.4423C102.827 28.4423 102.363 28.2957 102 28.0023C101.637 27.7037 101.435 27.2823 101.392 26.7383H102.096C102.133 27.0583 102.264 27.3197 102.488 27.5223C102.712 27.725 103.011 27.8263 103.384 27.8263C103.757 27.8263 104.04 27.7303 104.232 27.5383C104.429 27.341 104.528 27.0877 104.528 26.7783C104.528 26.3783 104.395 26.0903 104.128 25.9143C103.861 25.7383 103.459 25.6503 102.92 25.6503H102.736V25.0423H102.928C103.419 25.037 103.789 24.957 104.04 24.8023C104.291 24.6423 104.416 24.397 104.416 24.0663C104.416 23.7837 104.323 23.557 104.136 23.3863C103.955 23.2157 103.693 23.1303 103.352 23.1303C103.021 23.1303 102.755 23.2157 102.552 23.3863C102.349 23.557 102.229 23.7863 102.192 24.0743H101.48ZM111.692 27.2023L110.42 25.9303L109.148 27.2023L108.668 26.7223L109.94 25.4503L108.692 24.2023L109.156 23.7303L110.412 24.9863L111.668 23.7303L112.148 24.2103L110.892 25.4663L112.156 26.7383L111.692 27.2023ZM115.437 27.1143V26.5623L118.245 22.6743H119.117V26.4823H119.917V27.1143H119.117V28.4023H118.397V27.1143H115.437ZM118.429 23.4343L116.277 26.4823H118.429V23.4343ZM123.868 23.9943C123.751 23.4023 123.386 23.1063 122.772 23.1063C122.298 23.1063 121.943 23.2903 121.708 23.6583C121.474 24.021 121.359 24.621 121.364 25.4583C121.487 25.181 121.69 24.965 121.972 24.8103C122.26 24.6503 122.58 24.5703 122.932 24.5703C123.482 24.5703 123.919 24.741 124.244 25.0823C124.575 25.4237 124.74 25.8957 124.74 26.4983C124.74 26.861 124.668 27.1863 124.524 27.4743C124.386 27.7623 124.172 27.9917 123.884 28.1623C123.602 28.333 123.258 28.4183 122.852 28.4183C122.303 28.4183 121.874 28.2957 121.564 28.0503C121.255 27.805 121.039 27.4663 120.916 27.0343C120.794 26.6023 120.732 26.069 120.732 25.4343C120.732 23.477 121.415 22.4983 122.78 22.4983C123.303 22.4983 123.714 22.6397 124.012 22.9223C124.311 23.205 124.487 23.5623 124.54 23.9943H123.868ZM122.78 25.1863C122.551 25.1863 122.335 25.2343 122.132 25.3303C121.93 25.421 121.764 25.5623 121.636 25.7543C121.514 25.941 121.452 26.1703 121.452 26.4423C121.452 26.8477 121.57 27.1783 121.804 27.4343C122.039 27.685 122.375 27.8103 122.812 27.8103C123.186 27.8103 123.482 27.6957 123.7 27.4663C123.924 27.2317 124.036 26.917 124.036 26.5223C124.036 26.1063 123.93 25.781 123.716 25.5463C123.503 25.3063 123.191 25.1863 122.78 25.1863ZM133.247 23.9383C133.589 23.9383 133.893 24.0103 134.159 24.1543C134.426 24.293 134.637 24.5037 134.791 24.7863C134.946 25.069 135.023 25.413 135.023 25.8183V28.4023H134.303V25.9223C134.303 25.485 134.194 25.1517 133.975 24.9223C133.762 24.6877 133.471 24.5703 133.103 24.5703C132.725 24.5703 132.423 24.693 132.199 24.9383C131.975 25.1783 131.863 25.5277 131.863 25.9863V28.4023H131.143V25.9223C131.143 25.485 131.034 25.1517 130.815 24.9223C130.602 24.6877 130.311 24.5703 129.943 24.5703C129.565 24.5703 129.263 24.693 129.039 24.9383C128.815 25.1783 128.703 25.5277 128.703 25.9863V28.4023H127.975V24.0183H128.703V24.6503C128.847 24.421 129.039 24.245 129.279 24.1223C129.525 23.9997 129.794 23.9383 130.087 23.9383C130.455 23.9383 130.781 24.021 131.063 24.1863C131.346 24.3517 131.557 24.5943 131.695 24.9143C131.818 24.605 132.021 24.365 132.303 24.1943C132.586 24.0237 132.901 23.9383 133.247 23.9383ZM141.49 23.9383C141.831 23.9383 142.135 24.0103 142.402 24.1543C142.668 24.293 142.879 24.5037 143.034 24.7863C143.188 25.069 143.266 25.413 143.266 25.8183V28.4023H142.546V25.9223C142.546 25.485 142.436 25.1517 142.218 24.9223C142.004 24.6877 141.714 24.5703 141.346 24.5703C140.967 24.5703 140.666 24.693 140.442 24.9383C140.218 25.1783 140.106 25.5277 140.106 25.9863V28.4023H139.386V25.9223C139.386 25.485 139.276 25.1517 139.058 24.9223C138.844 24.6877 138.554 24.5703 138.186 24.5703C137.807 24.5703 137.506 24.693 137.282 24.9383C137.058 25.1783 136.946 25.5277 136.946 25.9863V28.4023H136.218V24.0183H136.946V24.6503C137.09 24.421 137.282 24.245 137.522 24.1223C137.767 23.9997 138.036 23.9383 138.33 23.9383C138.698 23.9383 139.023 24.021 139.306 24.1863C139.588 24.3517 139.799 24.5943 139.938 24.9143C140.06 24.605 140.263 24.365 140.546 24.1943C140.828 24.0237 141.143 23.9383 141.49 23.9383Z" fill="white"/>
</svg>
