<svg width="238" height="78" viewBox="0 0 238 78" fill="none" xmlns="http://www.w3.org/2000/svg">
<g filter="url(#filter0_d_967_4596)">
<path d="M82.4345 31.9111V27.8642L89.0879 17.644C89.5909 16.8895 90.0596 16.1579 90.494 15.4491C90.9513 14.7403 91.3171 14.0201 91.5915 13.2884C91.8887 12.5568 92.0373 11.7908 92.0373 10.9906C92.0373 10.1904 91.8773 9.59589 91.5572 9.2072C91.2371 8.81852 90.8027 8.62417 90.254 8.62417C89.6366 8.62417 89.1565 8.79565 88.8135 9.13861C88.4706 9.48157 88.2305 9.93885 88.0933 10.5105C87.979 11.0821 87.9218 11.7222 87.9218 12.431V13.8029H82.3659V12.3281C82.3659 10.6819 82.6288 9.21864 83.1547 7.93825C83.6806 6.63501 84.5151 5.61756 85.6583 4.88591C86.8015 4.1314 88.2991 3.75415 90.1511 3.75415C92.6432 3.75415 94.5181 4.40577 95.7756 5.70901C97.056 6.9894 97.6962 8.78422 97.6962 11.0935C97.6962 12.2138 97.5133 13.2541 97.1474 14.2144C96.8045 15.1747 96.3358 16.1121 95.7413 17.0267C95.1697 17.9184 94.5524 18.8558 93.8893 19.839L88.8135 27.4184H96.9417V31.9111H82.4345ZM108.077 32.4256C106.042 32.4256 104.498 32.0712 103.447 31.3624C102.418 30.6308 101.72 29.6133 101.355 28.3101C100.989 27.0068 100.806 25.4978 100.806 23.783H106.328C106.328 24.8347 106.385 25.6921 106.499 26.3552C106.613 27.0182 106.819 27.4984 107.116 27.7956C107.436 28.07 107.882 28.1957 108.454 28.1729C109.048 28.15 109.471 27.9099 109.723 27.4527C109.974 26.9954 110.123 26.3438 110.169 25.4978C110.237 24.629 110.272 23.5886 110.272 22.3769C110.272 21.4623 110.214 20.6506 110.1 19.9418C110.009 19.2331 109.803 18.6729 109.483 18.2613C109.185 17.8269 108.728 17.6097 108.111 17.6097C107.539 17.6097 107.071 17.8155 106.705 18.227C106.339 18.6386 106.076 19.2788 105.916 20.1476H100.977L101.492 4.1314H114.456V8.93284H106.087L105.779 14.6603C106.007 14.3402 106.442 14.0658 107.082 13.8372C107.722 13.5857 108.408 13.4256 109.14 13.357C110.557 13.197 111.746 13.4599 112.707 14.1458C113.69 14.8089 114.421 15.8263 114.901 17.1982C115.404 18.57 115.656 20.2505 115.656 22.2397C115.656 23.7258 115.565 25.0977 115.382 26.3552C115.199 27.5898 114.844 28.6644 114.318 29.579C113.793 30.4707 113.027 31.1681 112.021 31.6711C111.015 32.1741 109.7 32.4256 108.077 32.4256ZM126.898 32.4256C125.229 32.4256 123.834 32.094 122.714 31.431C121.593 30.7451 120.747 29.8076 120.176 28.6187C119.604 27.4298 119.318 26.0465 119.318 24.4689V11.8823C119.318 10.2589 119.581 8.84138 120.107 7.62959C120.656 6.39494 121.491 5.43465 122.611 4.74873C123.731 4.06281 125.16 3.71985 126.898 3.71985C128.636 3.71985 130.053 4.06281 131.151 4.74873C132.271 5.43465 133.094 6.39494 133.62 7.62959C134.169 8.84138 134.443 10.2589 134.443 11.8823V24.4689C134.443 26.0237 134.157 27.4069 133.586 28.6187C133.014 29.8076 132.168 30.7451 131.048 31.431C129.927 32.094 128.544 32.4256 126.898 32.4256ZM126.898 27.3155C127.447 27.3155 127.835 27.144 128.064 26.801C128.315 26.4352 128.464 26.0237 128.51 25.5664C128.578 25.0862 128.613 24.6747 128.613 24.3317V12.0195C128.613 11.6308 128.59 11.1964 128.544 10.7162C128.498 10.2132 128.35 9.7788 128.098 9.41298C127.87 9.02429 127.469 8.82995 126.898 8.82995C126.326 8.82995 125.915 9.02429 125.663 9.41298C125.435 9.7788 125.297 10.2132 125.252 10.7162C125.206 11.1964 125.183 11.6308 125.183 12.0195V24.3317C125.183 24.6747 125.217 25.0862 125.286 25.5664C125.355 26.0237 125.503 26.4352 125.732 26.801C125.983 27.144 126.372 27.3155 126.898 27.3155ZM146.303 32.3227C144.382 32.3227 142.862 31.9226 141.741 31.1223C140.644 30.3221 139.855 29.2018 139.375 27.7613C138.918 26.298 138.689 24.6175 138.689 22.7198V13.3913C138.689 11.425 138.94 9.72164 139.443 8.28121C139.946 6.84078 140.804 5.73188 142.016 4.95451C143.25 4.15427 144.919 3.75415 147.023 3.75415C149.081 3.75415 150.693 4.09711 151.859 4.78303C153.048 5.46894 153.893 6.4178 154.397 7.62959C154.9 8.84138 155.151 10.2589 155.151 11.8823V13.6657H149.149V11.4021C149.149 10.8077 149.103 10.2589 149.012 9.75594C148.943 9.25293 148.761 8.85281 148.463 8.55558C148.189 8.23548 147.732 8.07544 147.091 8.07544C146.428 8.07544 145.948 8.25835 145.651 8.62417C145.354 8.96713 145.159 9.40155 145.068 9.92742C144.999 10.4533 144.965 11.002 144.965 11.5736V24.4346C144.965 25.0519 145.022 25.635 145.137 26.1837C145.274 26.7096 145.502 27.144 145.823 27.487C146.165 27.807 146.646 27.9671 147.263 27.9671C147.903 27.9671 148.395 27.7956 148.738 27.4527C149.081 27.1097 149.321 26.6639 149.458 26.1151C149.595 25.5664 149.664 24.9833 149.664 24.366V21.1079H147.16V17.5068H155.185V31.9111H151.138L150.795 29.6133C150.43 30.3907 149.892 31.0423 149.184 31.5682C148.475 32.0712 147.514 32.3227 146.303 32.3227ZM8.90406 70.9111V47.6928H4.71995V43.1314H19.2271V47.6928H15.0773V70.9111H8.90406ZM30.3841 71.3227C28.2577 71.3227 26.5886 70.9797 25.3768 70.2938C24.1879 69.585 23.3534 68.5676 22.8732 67.2415C22.3931 65.8925 22.153 64.2463 22.153 62.3028V43.1314H28.2234V63.2288C28.2234 63.8004 28.2691 64.372 28.3606 64.9436C28.452 65.5152 28.6464 65.9839 28.9436 66.3498C29.2637 66.7156 29.7439 66.8985 30.3841 66.8985C31.0471 66.8985 31.5272 66.7156 31.8245 66.3498C32.1217 65.9839 32.3046 65.5152 32.3732 64.9436C32.4647 64.372 32.5104 63.8004 32.5104 63.2288V43.1314H38.6151V62.3028C38.6151 64.2463 38.3636 65.8925 37.8606 67.2415C37.3804 68.5676 36.5459 69.585 35.357 70.2938C34.168 70.9797 32.5104 71.3227 30.3841 71.3227ZM43.207 70.9111V43.1314H50.4434C51.6324 43.1314 52.7527 43.2229 53.8044 43.4058C54.879 43.5887 55.8279 43.9431 56.651 44.4689C57.4741 44.972 58.1143 45.7036 58.5716 46.6639C59.0517 47.6013 59.2918 48.8474 59.2918 50.4021C59.2918 51.5225 59.1203 52.4713 58.7774 53.2487C58.4573 54.0032 57.9885 54.6091 57.3712 55.0664C56.7768 55.5237 56.0565 55.8323 55.2106 55.9924C56.2852 56.1296 57.1883 56.484 57.92 57.0556C58.6516 57.6043 59.2003 58.3474 59.5662 59.2848C59.9549 60.2222 60.1492 61.354 60.1492 62.6801C60.1492 64.1205 59.9549 65.3666 59.5662 66.4184C59.2003 67.4472 58.663 68.2932 57.9543 68.9563C57.2455 69.6193 56.3652 70.1109 55.3135 70.431C54.2846 70.7511 53.0957 70.9111 51.7467 70.9111H43.207ZM49.346 66.6241H50.6492C51.9982 66.6241 52.9242 66.2812 53.4272 65.5953C53.9531 64.9093 54.216 63.9033 54.216 62.5772C54.216 61.5255 54.1017 60.6909 53.873 60.0736C53.6444 59.4563 53.2671 59.0104 52.7413 58.7361C52.2154 58.4388 51.5066 58.2902 50.6149 58.2902H49.346V66.6241ZM49.346 54.2433H50.5463C51.4837 54.2433 52.1925 54.1061 52.6727 53.8317C53.1528 53.5345 53.4729 53.1115 53.633 52.5628C53.8159 52.0141 53.9073 51.351 53.9073 50.5736C53.9073 49.842 53.7701 49.2361 53.4958 48.7559C53.2443 48.2529 52.8556 47.8757 52.3297 47.6242C51.8267 47.3727 51.1865 47.2469 50.4091 47.2469H49.346V54.2433ZM81.4727 71.3227C79.3692 71.3227 77.7002 70.9454 76.4655 70.1909C75.2537 69.4135 74.3963 68.3389 73.8933 66.9671C73.3903 65.5724 73.1388 63.9376 73.1388 62.0628V52.0484C73.1388 50.1278 73.3903 48.4816 73.8933 47.1097C74.3963 45.715 75.2537 44.6404 76.4655 43.8859C77.7002 43.1314 79.3692 42.7541 81.4727 42.7541C83.5305 42.7541 85.1309 43.0971 86.2741 43.783C87.4402 44.4461 88.2633 45.3835 88.7435 46.5953C89.2236 47.8071 89.4637 49.2018 89.4637 50.7794V53.1801H83.4619V50.4021C83.4619 49.8534 83.4276 49.3275 83.359 48.8245C83.3133 48.3215 83.1532 47.91 82.8788 47.5899C82.6045 47.2469 82.1358 47.0754 81.4727 47.0754C80.8325 47.0754 80.3524 47.2469 80.0323 47.5899C79.735 47.9328 79.5407 48.3673 79.4492 48.8931C79.3807 49.3961 79.3464 49.9334 79.3464 50.505V63.5718C79.3464 64.1891 79.3921 64.7607 79.4835 65.2866C79.5979 65.7896 79.8036 66.2012 80.1009 66.5212C80.421 66.8185 80.8782 66.9671 81.4727 66.9671C82.1129 66.9671 82.5702 66.807 82.8446 66.487C83.1189 66.144 83.2904 65.7096 83.359 65.1837C83.4276 64.6578 83.4619 64.1205 83.4619 63.5718V60.6566H89.4637V63.0574C89.4637 64.635 89.2236 66.0525 88.7435 67.3101C88.2862 68.5447 87.4745 69.5279 86.3084 70.2595C85.1652 70.9683 83.5533 71.3227 81.4727 71.3227ZM101.484 71.3227C99.403 71.3227 97.7568 70.9569 96.545 70.2252C95.3332 69.4936 94.4644 68.4418 93.9385 67.07C93.4126 65.6981 93.1497 64.0634 93.1497 62.1657V51.8426C93.1497 49.922 93.4126 48.2872 93.9385 46.9383C94.4644 45.5893 95.3332 44.5604 96.545 43.8516C97.7568 43.12 99.403 42.7541 101.484 42.7541C103.587 42.7541 105.245 43.12 106.457 43.8516C107.691 44.5604 108.571 45.5893 109.097 46.9383C109.623 48.2872 109.886 49.922 109.886 51.8426V62.1657C109.886 64.0634 109.623 65.6981 109.097 67.07C108.571 68.4418 107.691 69.4936 106.457 70.2252C105.245 70.9569 103.587 71.3227 101.484 71.3227ZM101.484 66.9671C102.124 66.9671 102.593 66.807 102.89 66.487C103.187 66.1669 103.381 65.7553 103.473 65.2523C103.564 64.7493 103.61 64.2349 103.61 63.709V50.3336C103.61 49.7848 103.564 49.2704 103.473 48.7902C103.381 48.2872 103.187 47.8757 102.89 47.5556C102.593 47.2355 102.124 47.0754 101.484 47.0754C100.889 47.0754 100.443 47.2355 100.146 47.5556C99.8488 47.8757 99.6545 48.2872 99.563 48.7902C99.4716 49.2704 99.4258 49.7848 99.4258 50.3336V63.709C99.4258 64.2349 99.4601 64.7493 99.5287 65.2523C99.6202 65.7553 99.8031 66.1669 100.077 66.487C100.375 66.807 100.843 66.9671 101.484 66.9671ZM114.308 70.9111V43.1314H118.629L124.323 56.5068V43.1314H129.398V70.9111H125.249L119.555 56.5068V70.9111H114.308ZM136.722 70.9111V47.6928H132.538V43.1314H147.045V47.6928H142.895V70.9111H136.722ZM147.299 70.9111L152.546 43.1314H159.542L164.721 70.9111H159.062L158.136 65.0465H154.055L153.095 70.9111H147.299ZM154.604 61.3769H157.553L156.078 50.5393L154.604 61.3769ZM168.246 70.9111V43.1314H174.385V70.9111H168.246ZM179.213 70.9111V43.1314H183.535L189.228 56.5068V43.1314H194.303V70.9111H190.154L184.461 56.5068V70.9111H179.213ZM199.124 70.9111V43.1314H211.607V47.3155H205.263V54.209H210.098V58.4617H205.263V66.7613H211.676V70.9111H199.124ZM215.149 70.9111V43.1314H222.797C224.672 43.1314 226.295 43.3372 227.667 43.7487C229.039 44.1603 230.102 44.9034 230.857 45.978C231.634 47.0297 232.023 48.5273 232.023 50.4707C232.023 51.6139 231.931 52.6314 231.748 53.5231C231.565 54.4148 231.222 55.1921 230.719 55.8552C230.239 56.4954 229.542 57.0327 228.627 57.4671L232.434 70.9111H226.089L223.037 58.4617H221.288V70.9111H215.149ZM221.288 54.9292H223.003C223.872 54.9292 224.546 54.7806 225.026 54.4834C225.506 54.1633 225.838 53.7174 226.021 53.1458C226.227 52.5514 226.329 51.8426 226.329 51.0195C226.329 49.8305 226.112 48.9046 225.678 48.2415C225.243 47.5784 224.443 47.2469 223.277 47.2469H221.288V54.9292Z" fill="white"/>
</g>
<defs>
<filter id="filter0_d_967_4596" x="-0.000273228" y="-0.000273228" width="237.154" height="77.043" filterUnits="userSpaceOnUse" color-interpolation-filters="sRGB">
<feFlood flood-opacity="0" result="BackgroundImageFix"/>
<feColorMatrix in="SourceAlpha" type="matrix" values="0 0 0 0 0 0 0 0 0 0 0 0 0 0 0 0 0 0 127 0" result="hardAlpha"/>
<feOffset dy="1"/>
<feGaussianBlur stdDeviation="2.36"/>
<feComposite in2="hardAlpha" operator="out"/>
<feColorMatrix type="matrix" values="0 0 0 0 0 0 0 0 0 0 0 0 0 0 0 0 0 0 0.11 0"/>
<feBlend mode="normal" in2="BackgroundImageFix" result="effect1_dropShadow_967_4596"/>
<feBlend mode="normal" in="SourceGraphic" in2="effect1_dropShadow_967_4596" result="shape"/>
</filter>
</defs>
</svg>
