<svg width="144" height="37" viewBox="0 0 144 37" fill="none" xmlns="http://www.w3.org/2000/svg">
<rect width="36.5" height="36.5" rx="18.25" fill="white"/>
<path d="M18.2489 14.2917C18.4732 14.2917 18.6614 14.2157 18.8134 14.0637C18.9654 13.9117 19.0411 13.7238 19.0406 13.5C19.0401 13.2762 18.9641 13.0883 18.8126 12.9363C18.6611 12.7843 18.4732 12.7083 18.2489 12.7083C18.0246 12.7083 17.8367 12.7843 17.6852 12.9363C17.5338 13.0883 17.4578 13.2762 17.4572 13.5C17.4567 13.7238 17.5327 13.9119 17.6852 14.0645C17.8378 14.217 18.0257 14.2927 18.2489 14.2917ZM20.4854 14.2917H21.8708C22.2666 14.2917 22.6097 14.4236 22.9 14.6875C23.1902 14.9514 23.3684 15.2747 23.4343 15.6573L24.5625 23.574C24.6284 24.049 24.5065 24.468 24.1967 24.8311C23.8869 25.1942 23.4876 25.3755 22.9989 25.375H13.4989C13.0107 25.375 12.6115 25.1937 12.3011 24.8311C11.9908 24.4685 11.8689 24.0495 11.9354 23.574L13.0635 15.6573C13.1295 15.2747 13.3076 14.9514 13.5979 14.6875C13.8882 14.4236 14.2312 14.2917 14.627 14.2917H16.0125C15.9729 14.1597 15.9399 14.0312 15.9135 13.9061C15.8871 13.781 15.8739 13.6457 15.8739 13.5C15.8739 12.8403 16.1048 12.2795 16.5666 11.8177C17.0284 11.3559 17.5892 11.125 18.2489 11.125C18.9086 11.125 19.4694 11.3559 19.9312 11.8177C20.393 12.2795 20.6239 12.8403 20.6239 13.5C20.6239 13.6451 20.6107 13.7805 20.5843 13.9061C20.5579 14.0317 20.525 14.1603 20.4854 14.2917Z" fill="#783215"/>
<path d="M52.925 7.86766L50.68 15.0977H49.465L47.885 10.1577C47.8417 10.0377 47.8017 9.89099 47.765 9.71766C47.745 9.80099 47.725 9.87932 47.705 9.95266C47.685 10.026 47.6633 10.0943 47.64 10.1577L46.045 15.0977H44.825L42.585 7.86766H43.71C43.8267 7.86766 43.9233 7.89599 44 7.95266C44.08 8.00599 44.1333 8.07932 44.16 8.17266L45.39 12.4977C45.4167 12.6043 45.4417 12.721 45.465 12.8477C45.4917 12.971 45.5183 13.101 45.545 13.2377C45.5717 13.0977 45.6 12.966 45.63 12.8427C45.6633 12.7193 45.6983 12.6043 45.735 12.4977L47.155 8.17266C47.1817 8.09599 47.2333 8.02599 47.31 7.96266C47.39 7.89932 47.4867 7.86766 47.6 7.86766H47.995C48.1117 7.86766 48.2067 7.89599 48.28 7.95266C48.3533 8.00932 48.4083 8.08266 48.445 8.17266L49.86 12.4977C49.93 12.7043 49.9933 12.9427 50.05 13.2127C50.0933 12.9493 50.1417 12.711 50.195 12.4977L51.425 8.17266C51.445 8.08932 51.495 8.01766 51.575 7.95766C51.6583 7.89766 51.7567 7.86766 51.87 7.86766H52.925ZM56.3173 11.9427C56.3173 11.7827 56.294 11.6327 56.2473 11.4927C56.204 11.3493 56.1373 11.2243 56.0473 11.1177C55.9573 11.011 55.8423 10.9277 55.7023 10.8677C55.5657 10.8043 55.4057 10.7727 55.2223 10.7727C54.8657 10.7727 54.584 10.8743 54.3773 11.0777C54.174 11.281 54.044 11.5693 53.9873 11.9427H56.3173ZM53.9623 12.6877C53.9823 12.951 54.029 13.1793 54.1023 13.3727C54.1757 13.5627 54.2723 13.721 54.3923 13.8477C54.5123 13.971 54.654 14.0643 54.8173 14.1277C54.984 14.1877 55.1673 14.2177 55.3673 14.2177C55.5673 14.2177 55.739 14.1943 55.8823 14.1477C56.029 14.101 56.1557 14.0493 56.2623 13.9927C56.3723 13.936 56.4673 13.8843 56.5473 13.8377C56.6307 13.791 56.7107 13.7677 56.7873 13.7677C56.8907 13.7677 56.9673 13.806 57.0173 13.8827L57.3723 14.3327C57.2357 14.4927 57.0823 14.6277 56.9123 14.7377C56.7423 14.8443 56.564 14.931 56.3773 14.9977C56.194 15.061 56.0057 15.106 55.8123 15.1327C55.6223 15.1593 55.4373 15.1727 55.2573 15.1727C54.9007 15.1727 54.569 15.1143 54.2623 14.9977C53.9557 14.8777 53.689 14.7027 53.4623 14.4727C53.2357 14.2393 53.0573 13.9527 52.9273 13.6127C52.7973 13.2693 52.7323 12.8727 52.7323 12.4227C52.7323 12.0727 52.789 11.7443 52.9023 11.4377C53.0157 11.1277 53.1773 10.8593 53.3873 10.6327C53.6007 10.4027 53.859 10.221 54.1623 10.0877C54.469 9.95432 54.814 9.88766 55.1973 9.88766C55.5207 9.88766 55.819 9.93932 56.0923 10.0427C56.3657 10.146 56.6007 10.2977 56.7973 10.4977C56.994 10.6943 57.1473 10.9377 57.2573 11.2277C57.3707 11.5143 57.4273 11.8427 57.4273 12.2127C57.4273 12.3993 57.4073 12.526 57.3673 12.5927C57.3273 12.656 57.2507 12.6877 57.1373 12.6877H53.9623ZM59.6341 9.96766V15.0977H58.3941V9.96766H59.6341ZM59.8041 8.47266C59.8041 8.57932 59.7825 8.67932 59.7391 8.77266C59.6958 8.86599 59.6375 8.94766 59.5641 9.01766C59.4941 9.08766 59.4108 9.14432 59.3141 9.18766C59.2175 9.22766 59.1141 9.24766 59.0041 9.24766C58.8975 9.24766 58.7958 9.22766 58.6991 9.18766C58.6058 9.14432 58.5241 9.08766 58.4541 9.01766C58.3841 8.94766 58.3275 8.86599 58.2841 8.77266C58.2441 8.67932 58.2241 8.57932 58.2241 8.47266C58.2241 8.36266 58.2441 8.25932 58.2841 8.16266C58.3275 8.06599 58.3841 7.98266 58.4541 7.91266C58.5241 7.84266 58.6058 7.78766 58.6991 7.74766C58.7958 7.70432 58.8975 7.68266 59.0041 7.68266C59.1141 7.68266 59.2175 7.70432 59.3141 7.74766C59.4108 7.78766 59.4941 7.84266 59.5641 7.91266C59.6375 7.98266 59.6958 8.06599 59.7391 8.16266C59.7825 8.25932 59.8041 8.36266 59.8041 8.47266ZM62.7682 12.4077C62.9215 12.4077 63.0549 12.3877 63.1682 12.3477C63.2815 12.3043 63.3749 12.246 63.4482 12.1727C63.5249 12.0993 63.5815 12.011 63.6182 11.9077C63.6582 11.8043 63.6782 11.691 63.6782 11.5677C63.6782 11.3143 63.6015 11.1143 63.4482 10.9677C63.2982 10.8177 63.0715 10.7427 62.7682 10.7427C62.4649 10.7427 62.2365 10.8177 62.0832 10.9677C61.9332 11.1143 61.8582 11.3143 61.8582 11.5677C61.8582 11.6877 61.8765 11.7993 61.9132 11.9027C61.9532 12.006 62.0099 12.096 62.0832 12.1727C62.1599 12.246 62.2549 12.3043 62.3682 12.3477C62.4849 12.3877 62.6182 12.4077 62.7682 12.4077ZM64.1632 15.3277C64.1632 15.2277 64.1332 15.146 64.0732 15.0827C64.0132 15.0193 63.9315 14.971 63.8282 14.9377C63.7249 14.901 63.6032 14.8743 63.4632 14.8577C63.3265 14.841 63.1799 14.8293 63.0232 14.8227C62.8699 14.8127 62.7099 14.8043 62.5432 14.7977C62.3799 14.791 62.2199 14.7777 62.0632 14.7577C61.9265 14.8343 61.8149 14.9243 61.7282 15.0277C61.6449 15.131 61.6032 15.251 61.6032 15.3877C61.6032 15.4777 61.6249 15.561 61.6682 15.6377C61.7149 15.7177 61.7865 15.786 61.8832 15.8427C61.9832 15.8993 62.1115 15.9427 62.2682 15.9727C62.4249 16.006 62.6165 16.0227 62.8432 16.0227C63.0732 16.0227 63.2715 16.0043 63.4382 15.9677C63.6049 15.9343 63.7415 15.886 63.8482 15.8227C63.9582 15.7627 64.0382 15.6893 64.0882 15.6027C64.1382 15.5193 64.1632 15.4277 64.1632 15.3277ZM65.3932 10.1427V10.6027C65.3932 10.7493 65.3049 10.8393 65.1282 10.8727L64.6682 10.9577C64.7382 11.1343 64.7732 11.3277 64.7732 11.5377C64.7732 11.791 64.7215 12.021 64.6182 12.2277C64.5182 12.431 64.3782 12.6043 64.1982 12.7477C64.0182 12.891 63.8049 13.0027 63.5582 13.0827C63.3149 13.1593 63.0515 13.1977 62.7682 13.1977C62.6682 13.1977 62.5715 13.1927 62.4782 13.1827C62.3849 13.1727 62.2932 13.1593 62.2032 13.1427C62.0432 13.2393 61.9632 13.3477 61.9632 13.4677C61.9632 13.571 62.0099 13.6477 62.1032 13.6977C62.1999 13.7443 62.3265 13.7777 62.4832 13.7977C62.6399 13.8177 62.8182 13.831 63.0182 13.8377C63.2182 13.841 63.4232 13.851 63.6332 13.8677C63.8432 13.8843 64.0482 13.9143 64.2482 13.9577C64.4482 13.9977 64.6265 14.0627 64.7832 14.1527C64.9399 14.2427 65.0649 14.366 65.1582 14.5227C65.2549 14.676 65.3032 14.8743 65.3032 15.1177C65.3032 15.3443 65.2465 15.5643 65.1332 15.7777C65.0232 15.991 64.8615 16.181 64.6482 16.3477C64.4382 16.5143 64.1782 16.6477 63.8682 16.7477C63.5615 16.851 63.2115 16.9027 62.8182 16.9027C62.4315 16.9027 62.0949 16.8643 61.8082 16.7877C61.5215 16.7143 61.2832 16.6143 61.0932 16.4877C60.9032 16.3643 60.7615 16.221 60.6682 16.0577C60.5749 15.8943 60.5282 15.7243 60.5282 15.5477C60.5282 15.3077 60.5999 15.1077 60.7432 14.9477C60.8899 14.7843 61.0899 14.6543 61.3432 14.5577C61.2065 14.4877 61.0982 14.3943 61.0182 14.2777C60.9382 14.161 60.8982 14.0077 60.8982 13.8177C60.8982 13.741 60.9115 13.6627 60.9382 13.5827C60.9682 13.4993 61.0099 13.4177 61.0632 13.3377C61.1199 13.2577 61.1899 13.1827 61.2732 13.1127C61.3565 13.0393 61.4549 12.9743 61.5682 12.9177C61.3082 12.7777 61.1032 12.591 60.9532 12.3577C60.8065 12.1243 60.7332 11.851 60.7332 11.5377C60.7332 11.2843 60.7832 11.056 60.8832 10.8527C60.9865 10.646 61.1282 10.471 61.3082 10.3277C61.4915 10.181 61.7065 10.0693 61.9532 9.99266C62.2032 9.91599 62.4749 9.87766 62.7682 9.87766C62.9882 9.87766 63.1949 9.90099 63.3882 9.94766C63.5815 9.99099 63.7582 10.056 63.9182 10.1427H65.3932ZM67.4114 10.5177C67.6114 10.331 67.8314 10.1793 68.0714 10.0627C68.3114 9.94599 68.5931 9.88766 68.9164 9.88766C69.1964 9.88766 69.4447 9.93599 69.6614 10.0327C69.8781 10.126 70.0581 10.2593 70.2014 10.4327C70.3481 10.6027 70.4581 10.8077 70.5314 11.0477C70.6081 11.2843 70.6464 11.546 70.6464 11.8327V15.0977H69.4114V11.8327C69.4114 11.5193 69.3397 11.2777 69.1964 11.1077C69.0531 10.9343 68.8347 10.8477 68.5414 10.8477C68.3281 10.8477 68.1281 10.896 67.9414 10.9927C67.7547 11.0893 67.5781 11.221 67.4114 11.3877V15.0977H66.1764V7.66766H67.4114V10.5177ZM73.4626 15.1777C73.0159 15.1777 72.6726 15.0527 72.4326 14.8027C72.1959 14.5493 72.0776 14.201 72.0776 13.7577V10.8927H71.5526C71.4859 10.8927 71.4292 10.871 71.3826 10.8277C71.3359 10.7843 71.3126 10.7193 71.3126 10.6327V10.1427L72.1376 10.0077L72.3976 8.60766C72.4142 8.54099 72.4459 8.48932 72.4926 8.45266C72.5392 8.41599 72.5992 8.39766 72.6726 8.39766H73.3126V10.0127H74.6826V10.8927H73.3126V13.6727C73.3126 13.8327 73.3509 13.9577 73.4276 14.0477C73.5076 14.1377 73.6159 14.1827 73.7526 14.1827C73.8292 14.1827 73.8926 14.1743 73.9426 14.1577C73.9959 14.1377 74.0409 14.1177 74.0776 14.0977C74.1176 14.0777 74.1526 14.0593 74.1826 14.0427C74.2126 14.0227 74.2426 14.0127 74.2726 14.0127C74.3092 14.0127 74.3392 14.0227 74.3626 14.0427C74.3859 14.0593 74.4109 14.086 74.4376 14.1227L74.8076 14.7227C74.6276 14.8727 74.4209 14.986 74.1876 15.0627C73.9542 15.1393 73.7126 15.1777 73.4626 15.1777Z" fill="white"/>
<path d="M42.98 24.0743C43.0173 23.5837 43.2067 23.1997 43.548 22.9223C43.8893 22.645 44.332 22.5063 44.876 22.5063C45.2387 22.5063 45.5507 22.573 45.812 22.7063C46.0787 22.8343 46.2787 23.0103 46.412 23.2343C46.5507 23.4583 46.62 23.7117 46.62 23.9943C46.62 24.325 46.524 24.6103 46.332 24.8503C46.1453 25.0903 45.9 25.245 45.596 25.3143V25.3543C45.9427 25.4397 46.2173 25.6077 46.42 25.8583C46.6227 26.109 46.724 26.437 46.724 26.8423C46.724 27.1463 46.6547 27.421 46.516 27.6663C46.3773 27.9063 46.1693 28.0957 45.892 28.2343C45.6147 28.373 45.2813 28.4423 44.892 28.4423C44.3267 28.4423 43.8627 28.2957 43.5 28.0023C43.1373 27.7037 42.9347 27.2823 42.892 26.7383H43.596C43.6333 27.0583 43.764 27.3197 43.988 27.5223C44.212 27.725 44.5107 27.8263 44.884 27.8263C45.2573 27.8263 45.54 27.7303 45.732 27.5383C45.9293 27.341 46.028 27.0877 46.028 26.7783C46.028 26.3783 45.8947 26.0903 45.628 25.9143C45.3613 25.7383 44.9587 25.6503 44.42 25.6503H44.236V25.0423H44.428C44.9187 25.037 45.2893 24.957 45.54 24.8023C45.7907 24.6423 45.916 24.397 45.916 24.0663C45.916 23.7837 45.8227 23.557 45.636 23.3863C45.4547 23.2157 45.1933 23.1303 44.852 23.1303C44.5213 23.1303 44.2547 23.2157 44.052 23.3863C43.8493 23.557 43.7293 23.7863 43.692 24.0743H42.98ZM51.3949 23.2503H48.5869V25.0743C48.7096 24.9037 48.8909 24.765 49.1309 24.6583C49.3709 24.5463 49.6296 24.4903 49.9069 24.4903C50.3496 24.4903 50.7096 24.5837 50.9869 24.7703C51.2643 24.9517 51.4616 25.189 51.5789 25.4823C51.7016 25.7703 51.7629 26.077 51.7629 26.4023C51.7629 26.7863 51.6909 27.1303 51.5469 27.4343C51.4029 27.7383 51.1816 27.9783 50.8829 28.1543C50.5896 28.3303 50.2243 28.4183 49.7869 28.4183C49.2269 28.4183 48.7736 28.2743 48.4269 27.9863C48.0803 27.6983 47.8696 27.3143 47.7949 26.8343H48.5069C48.5763 27.1383 48.7229 27.3757 48.9469 27.5463C49.1709 27.717 49.4536 27.8023 49.7949 27.8023C50.2163 27.8023 50.5336 27.677 50.7469 27.4263C50.9603 27.1703 51.0669 26.8343 51.0669 26.4183C51.0669 26.0023 50.9603 25.6823 50.7469 25.4583C50.5336 25.229 50.2189 25.1143 49.8029 25.1143C49.5203 25.1143 49.2723 25.1837 49.0589 25.3223C48.8509 25.4557 48.6989 25.6397 48.6029 25.8743H47.9149V22.6103H51.3949V23.2503ZM53.0824 28.4503C52.9437 28.4503 52.8264 28.4023 52.7304 28.3063C52.6344 28.2103 52.5864 28.093 52.5864 27.9543C52.5864 27.8157 52.6344 27.6983 52.7304 27.6023C52.8264 27.5063 52.9437 27.4583 53.0824 27.4583C53.2157 27.4583 53.3277 27.5063 53.4184 27.6023C53.5144 27.6983 53.5624 27.8157 53.5624 27.9543C53.5624 28.093 53.5144 28.2103 53.4184 28.3063C53.3277 28.4023 53.2157 28.4503 53.0824 28.4503ZM54.2181 23.2823V22.6183H55.7221V28.4023H54.9861V23.2823H54.2181ZM56.9726 25.4503C56.9726 24.533 57.1219 23.8183 57.4206 23.3063C57.7192 22.789 58.2419 22.5303 58.9886 22.5303C59.7299 22.5303 60.2499 22.789 60.5486 23.3063C60.8472 23.8183 60.9966 24.533 60.9966 25.4503C60.9966 26.3837 60.8472 27.109 60.5486 27.6263C60.2499 28.1437 59.7299 28.4023 58.9886 28.4023C58.2419 28.4023 57.7192 28.1437 57.4206 27.6263C57.1219 27.109 56.9726 26.3837 56.9726 25.4503ZM60.2766 25.4503C60.2766 24.9863 60.2446 24.5943 60.1806 24.2743C60.1219 23.949 59.9966 23.6877 59.8046 23.4903C59.6179 23.293 59.3459 23.1943 58.9886 23.1943C58.6259 23.1943 58.3486 23.293 58.1566 23.4903C57.9699 23.6877 57.8446 23.949 57.7806 24.2743C57.7219 24.5943 57.6926 24.9863 57.6926 25.4503C57.6926 25.9303 57.7219 26.333 57.7806 26.6583C57.8446 26.9837 57.9699 27.245 58.1566 27.4423C58.3486 27.6397 58.6259 27.7383 58.9886 27.7383C59.3459 27.7383 59.6179 27.6397 59.8046 27.4423C59.9966 27.245 60.1219 26.9837 60.1806 26.6583C60.2446 26.333 60.2766 25.9303 60.2766 25.4503ZM66.0568 23.9463C66.4355 23.9463 66.7661 24.029 67.0488 24.1943C67.3368 24.3597 67.5501 24.5677 67.6888 24.8183V24.0183H68.4248V28.4983C68.4248 28.8983 68.3395 29.253 68.1688 29.5623C67.9981 29.877 67.7528 30.1223 67.4328 30.2983C67.1181 30.4743 66.7501 30.5623 66.3288 30.5623C65.7528 30.5623 65.2728 30.4263 64.8888 30.1543C64.5048 29.8823 64.2781 29.5117 64.2088 29.0423H64.9288C65.0088 29.309 65.1741 29.5223 65.4248 29.6823C65.6755 29.8477 65.9768 29.9303 66.3288 29.9303C66.7288 29.9303 67.0541 29.805 67.3048 29.5543C67.5608 29.3037 67.6888 28.9517 67.6888 28.4983V27.5783C67.5448 27.8343 67.3315 28.0477 67.0488 28.2183C66.7661 28.389 66.4355 28.4743 66.0568 28.4743C65.6675 28.4743 65.3128 28.3783 64.9928 28.1863C64.6781 27.9943 64.4301 27.725 64.2488 27.3783C64.0675 27.0317 63.9768 26.637 63.9768 26.1943C63.9768 25.7463 64.0675 25.3543 64.2488 25.0183C64.4301 24.677 64.6781 24.413 64.9928 24.2263C65.3128 24.0397 65.6675 23.9463 66.0568 23.9463ZM67.6888 26.2023C67.6888 25.8717 67.6221 25.5837 67.4888 25.3383C67.3555 25.093 67.1741 24.9063 66.9448 24.7783C66.7208 24.645 66.4728 24.5783 66.2008 24.5783C65.9288 24.5783 65.6808 24.6423 65.4568 24.7703C65.2328 24.8983 65.0541 25.085 64.9208 25.3303C64.7875 25.5757 64.7208 25.8637 64.7208 26.1943C64.7208 26.5303 64.7875 26.8237 64.9208 27.0743C65.0541 27.3197 65.2328 27.509 65.4568 27.6423C65.6808 27.7703 65.9288 27.8343 66.2008 27.8343C66.4728 27.8343 66.7208 27.7703 66.9448 27.6423C67.1741 27.509 67.3555 27.3197 67.4888 27.0743C67.6221 26.8237 67.6888 26.533 67.6888 26.2023Z" fill="white"/>
</svg>
