<svg width="18" height="18" viewBox="0 0 18 18" fill="none" xmlns="http://www.w3.org/2000/svg">
<path fill-rule="evenodd" clip-rule="evenodd" d="M9.45049 8.62774L12.3687 11.546L11.7327 12.1827L8.55049 9.00049V4.50049H9.45049V8.62774ZM9.00049 16.5005C4.85824 16.5005 1.50049 13.1427 1.50049 9.00049C1.50049 4.85824 4.85824 1.50049 9.00049 1.50049C13.1427 1.50049 16.5005 4.85824 16.5005 9.00049C16.5005 13.1427 13.1427 16.5005 9.00049 16.5005ZM9.00049 15.6005C10.7509 15.6005 12.4297 14.9051 13.6674 13.6674C14.9051 12.4297 15.6005 10.7509 15.6005 9.00049C15.6005 7.25006 14.9051 5.57132 13.6674 4.33358C12.4297 3.09584 10.7509 2.40049 9.00049 2.40049C7.25006 2.40049 5.57132 3.09584 4.33358 4.33358C3.09584 5.57132 2.40049 7.25006 2.40049 9.00049C2.40049 10.7509 3.09584 12.4297 4.33358 13.6674C5.57132 14.9051 7.25006 15.6005 9.00049 15.6005Z" fill="#5D5A5A"/>
</svg>
