<svg width="137" height="6" viewBox="0 0 137 6" fill="none" xmlns="http://www.w3.org/2000/svg">
<path d="M1.97148 5.89746H-0.000110984V0.0792789H2.01125C2.5889 0.0792789 3.08512 0.195756 3.49989 0.428711C3.91656 0.659771 4.23663 0.992158 4.46012 1.42587C4.6836 1.85958 4.79534 2.37852 4.79534 2.98269C4.79534 3.58875 4.68265 4.10958 4.45728 4.54519C4.23379 4.98079 3.91087 5.31507 3.48853 5.54803C3.06807 5.78098 2.56239 5.89746 1.97148 5.89746ZM1.05387 4.98553H1.92034C2.32565 4.98553 2.66371 4.91167 2.93455 4.76394C3.20538 4.61432 3.40898 4.39178 3.54534 4.09632C3.68171 3.79898 3.74989 3.42776 3.74989 2.98269C3.74989 2.53761 3.68171 2.16829 3.54534 1.87473C3.40898 1.57928 3.20728 1.35864 2.94023 1.2128C2.67508 1.06507 2.34553 0.991211 1.95159 0.991211H1.05387V4.98553ZM5.79676 5.89746V0.0792789H9.58085V0.962802H6.85074V2.54235H9.38483V3.42587H6.85074V5.01394H9.60358V5.89746H5.79676ZM13.8181 1.67871C13.7916 1.4306 13.6798 1.23742 13.4828 1.09917C13.2878 0.960908 13.034 0.891779 12.7215 0.891779C12.5018 0.891779 12.3133 0.924923 12.1561 0.991211C11.9989 1.0575 11.8787 1.14746 11.7953 1.2611C11.712 1.37473 11.6694 1.50447 11.6675 1.6503C11.6675 1.77151 11.695 1.87663 11.7499 1.96564C11.8067 2.05466 11.8834 2.13042 11.98 2.19292C12.0766 2.25352 12.1836 2.30466 12.301 2.34632C12.4184 2.38799 12.5368 2.42303 12.6561 2.45144L13.2016 2.5878C13.4213 2.63894 13.6325 2.70807 13.8351 2.79519C14.0397 2.88231 14.2224 2.99216 14.3834 3.12473C14.5463 3.25731 14.6751 3.41735 14.7698 3.60485C14.8645 3.79235 14.9118 4.01204 14.9118 4.26394C14.9118 4.60485 14.8247 4.90504 14.6505 5.16451C14.4762 5.42208 14.2243 5.62379 13.8948 5.76962C13.5671 5.91356 13.1703 5.98553 12.7044 5.98553C12.2518 5.98553 11.8588 5.91545 11.5255 5.7753C11.194 5.63515 10.9345 5.4306 10.747 5.16167C10.5614 4.89273 10.4611 4.56507 10.4459 4.17871H11.4828C11.498 4.38136 11.5605 4.54992 11.6703 4.68439C11.7802 4.81886 11.9232 4.91924 12.0993 4.98553C12.2774 5.05182 12.4762 5.08496 12.6959 5.08496C12.9251 5.08496 13.1258 5.05087 13.2982 4.98269C13.4724 4.91261 13.6088 4.81602 13.7073 4.69292C13.8058 4.56792 13.8559 4.42208 13.8578 4.25542C13.8559 4.1039 13.8114 3.9789 13.7243 3.88042C13.6372 3.78004 13.515 3.6967 13.3578 3.63042C13.2025 3.56223 13.0207 3.50163 12.8124 3.4486L12.1505 3.27814C11.6713 3.15504 11.2925 2.96848 11.0141 2.71848C10.7376 2.46659 10.5993 2.13231 10.5993 1.71564C10.5993 1.37284 10.6921 1.07265 10.8777 0.815074C11.0652 0.557499 11.32 0.357688 11.6419 0.215642C11.9639 0.0717031 12.3285 -0.000266552 12.7357 -0.000266552C13.1486 -0.000266552 13.5103 0.0717031 13.8209 0.215642C14.1334 0.357688 14.3787 0.555605 14.5567 0.809392C14.7347 1.06129 14.8266 1.35106 14.8323 1.67871H13.8181ZM16.9054 0.0792789V5.89746H15.8515V0.0792789H16.9054ZM21.9445 1.93723C21.8971 1.78382 21.8318 1.64651 21.7485 1.5253C21.667 1.4022 21.5685 1.29708 21.453 1.20996C21.3394 1.12284 21.2087 1.0575 21.061 1.01394C20.9132 0.968484 20.7523 0.945756 20.578 0.945756C20.2655 0.945756 19.9871 1.02435 19.7428 1.18155C19.4985 1.33875 19.3062 1.56981 19.1661 1.87473C19.0278 2.17776 18.9587 2.54708 18.9587 2.98269C18.9587 3.42208 19.0278 3.79424 19.1661 4.09917C19.3043 4.40409 19.4966 4.6361 19.7428 4.79519C19.989 4.95239 20.275 5.03098 20.6007 5.03098C20.8962 5.03098 21.1519 4.97417 21.3678 4.86053C21.5856 4.74689 21.7532 4.58591 21.8706 4.37757C21.9881 4.16735 22.0468 3.92114 22.0468 3.63894L22.2854 3.67587H20.7059V2.85201H23.0667V3.55087C23.0667 4.04898 22.9606 4.47985 22.7485 4.84348C22.5363 5.20712 22.2447 5.48742 21.8735 5.68439C21.5023 5.87947 21.0761 5.97701 20.5951 5.97701C20.0591 5.97701 19.5884 5.85674 19.1831 5.61621C18.7797 5.37379 18.4644 5.03004 18.2371 4.58496C18.0117 4.13799 17.899 3.60769 17.899 2.99405C17.899 2.52435 17.9653 2.10485 18.0979 1.73553C18.2324 1.36621 18.4199 1.05276 18.6604 0.795188C18.9009 0.535718 19.1831 0.338749 19.507 0.204279C19.8309 0.0679153 20.1831 -0.000266552 20.5638 -0.000266552C20.8858 -0.000266552 21.186 0.0470819 21.4644 0.141779C21.7428 0.234582 21.9899 0.367158 22.2059 0.539506C22.4237 0.711855 22.6026 0.9164 22.7428 1.15314C22.8829 1.38989 22.9748 1.65125 23.0184 1.93723H21.9445ZM28.8671 0.0792789V5.89746H27.9296L25.1881 1.93439H25.1398V5.89746H24.0858V0.0792789H25.029L27.7676 4.04519H27.8188V0.0792789H28.8671ZM30.0155 5.89746V0.0792789H33.7996V0.962802H31.0695V2.54235H33.6036V3.42587H31.0695V5.01394H33.8223V5.89746H30.0155ZM36.8465 5.89746H34.8749V0.0792789H36.8863C37.4639 0.0792789 37.9601 0.195756 38.3749 0.428711C38.7916 0.659771 39.1116 0.992158 39.3351 1.42587C39.5586 1.85958 39.6703 2.37852 39.6703 2.98269C39.6703 3.58875 39.5577 4.10958 39.3323 4.54519C39.1088 4.98079 38.7859 5.31507 38.3635 5.54803C37.9431 5.78098 37.4374 5.89746 36.8465 5.89746ZM35.9289 4.98553H36.7953C37.2006 4.98553 37.5387 4.91167 37.8095 4.76394C38.0804 4.61432 38.284 4.39178 38.4203 4.09632C38.5567 3.79898 38.6249 3.42776 38.6249 2.98269C38.6249 2.53761 38.5567 2.16829 38.4203 1.87473C38.284 1.57928 38.0823 1.35864 37.8152 1.2128C37.5501 1.06507 37.2205 0.991211 36.8266 0.991211H35.9289V4.98553ZM42.6561 5.89746V0.0792789H44.8834C45.3039 0.0792789 45.6533 0.145567 45.9317 0.278142C46.212 0.408824 46.4213 0.587802 46.5595 0.815074C46.6997 1.04235 46.7698 1.29992 46.7698 1.5878C46.7698 1.82454 46.7243 2.0272 46.6334 2.19576C46.5425 2.36242 46.4203 2.49784 46.2669 2.60201C46.1135 2.70617 45.9421 2.78098 45.7527 2.82644V2.88326C45.9592 2.89462 46.1571 2.95807 46.3465 3.0736C46.5378 3.18723 46.694 3.34822 46.8152 3.55655C46.9364 3.76489 46.997 4.01678 46.997 4.31223C46.997 4.61337 46.9241 4.8842 46.7783 5.12473C46.6325 5.36337 46.4128 5.55182 46.1192 5.69007C45.8256 5.82833 45.4563 5.89746 45.0113 5.89746H42.6561ZM43.7101 5.01678H44.8436C45.2262 5.01678 45.5018 4.94386 45.6703 4.79803C45.8408 4.6503 45.926 4.46091 45.926 4.22985C45.926 4.0575 45.8834 3.9022 45.7982 3.76394C45.713 3.62379 45.5917 3.51394 45.4345 3.43439C45.2774 3.35295 45.0899 3.31223 44.872 3.31223H43.7101V5.01678ZM43.7101 2.55371H44.7527C44.9345 2.55371 45.0984 2.52057 45.2442 2.45428C45.39 2.3861 45.5046 2.29045 45.588 2.16735C45.6732 2.04235 45.7158 1.89462 45.7158 1.72417C45.7158 1.49879 45.6363 1.31318 45.4772 1.16735C45.32 1.02151 45.0861 0.948597 44.7755 0.948597H43.7101V2.55371ZM47.5162 0.0792789H48.7066L50.1299 2.65314H50.1867L51.61 0.0792789H52.8003L50.6838 3.72701V5.89746H49.6327V3.72701L47.5162 0.0792789ZM55.5311 5.89746V0.0792789H59.2584V0.962802H56.5851V2.54235H59.0027V3.42587H56.5851V5.89746H55.5311ZM61.2726 0.0792789V5.89746H60.2186V0.0792789H61.2726ZM65.5759 1.67871C65.5494 1.4306 65.4376 1.23742 65.2407 1.09917C65.0456 0.960908 64.7918 0.891779 64.4793 0.891779C64.2596 0.891779 64.0711 0.924923 63.914 0.991211C63.7568 1.0575 63.6365 1.14746 63.5532 1.2611C63.4698 1.37473 63.4272 1.50447 63.4253 1.6503C63.4253 1.77151 63.4528 1.87663 63.5077 1.96564C63.5645 2.05466 63.6412 2.13042 63.7378 2.19292C63.8344 2.25352 63.9414 2.30466 64.0588 2.34632C64.1763 2.38799 64.2946 2.42303 64.414 2.45144L64.9594 2.5878C65.1791 2.63894 65.3903 2.70807 65.5929 2.79519C65.7975 2.88231 65.9802 2.99216 66.1412 3.12473C66.3041 3.25731 66.4329 3.41735 66.5276 3.60485C66.6223 3.79235 66.6696 4.01204 66.6696 4.26394C66.6696 4.60485 66.5825 4.90504 66.4083 5.16451C66.234 5.42208 65.9821 5.62379 65.6526 5.76962C65.3249 5.91356 64.9282 5.98553 64.4622 5.98553C64.0096 5.98553 63.6166 5.91545 63.2833 5.7753C62.9518 5.63515 62.6924 5.4306 62.5049 5.16167C62.3193 4.89273 62.2189 4.56507 62.2037 4.17871H63.2407C63.2558 4.38136 63.3183 4.54992 63.4282 4.68439C63.538 4.81886 63.681 4.91924 63.8571 4.98553C64.0352 5.05182 64.234 5.08496 64.4537 5.08496C64.6829 5.08496 64.8836 5.05087 65.056 4.98269C65.2302 4.91261 65.3666 4.81602 65.4651 4.69292C65.5636 4.56792 65.6138 4.42208 65.6157 4.25542C65.6138 4.1039 65.5693 3.9789 65.4821 3.88042C65.395 3.78004 65.2729 3.6967 65.1157 3.63042C64.9604 3.56223 64.7785 3.50163 64.5702 3.4486L63.9083 3.27814C63.4291 3.15504 63.0503 2.96848 62.7719 2.71848C62.4954 2.46659 62.3571 2.13231 62.3571 1.71564C62.3571 1.37284 62.4499 1.07265 62.6355 0.815074C62.823 0.557499 63.0778 0.357688 63.3997 0.215642C63.7217 0.0717031 64.0863 -0.000266552 64.4935 -0.000266552C64.9064 -0.000266552 65.2681 0.0717031 65.5787 0.215642C65.8912 0.357688 66.1365 0.555605 66.3145 0.809392C66.4926 1.06129 66.5844 1.35106 66.5901 1.67871H65.5759ZM67.3536 0.962802V0.0792789H71.9956V0.962802H70.1973V5.89746H69.1519V0.962802H67.3536ZM77.8316 2.98837C77.8316 3.61526 77.7141 4.1522 77.4793 4.59917C77.2463 5.04424 76.9282 5.38515 76.5247 5.62189C76.1232 5.85864 75.6677 5.97701 75.1583 5.97701C74.6488 5.97701 74.1924 5.85864 73.789 5.62189C73.3874 5.38326 73.0693 5.0414 72.8344 4.59632C72.6015 4.14935 72.485 3.61337 72.485 2.98837C72.485 2.36148 72.6015 1.82549 72.8344 1.38042C73.0693 0.933446 73.3874 0.59159 73.789 0.354847C74.1924 0.118105 74.6488 -0.000266552 75.1583 -0.000266552C75.6677 -0.000266552 76.1232 0.118105 76.5247 0.354847C76.9282 0.59159 77.2463 0.933446 77.4793 1.38042C77.7141 1.82549 77.8316 2.36148 77.8316 2.98837ZM76.7719 2.98837C76.7719 2.54708 76.7028 2.17492 76.5645 1.87189C76.4282 1.56697 76.2388 1.33685 75.9963 1.18155C75.7539 1.02435 75.4746 0.945756 75.1583 0.945756C74.842 0.945756 74.5626 1.02435 74.3202 1.18155C74.0778 1.33685 73.8874 1.56697 73.7492 1.87189C73.6128 2.17492 73.5446 2.54708 73.5446 2.98837C73.5446 3.42966 73.6128 3.80276 73.7492 4.10769C73.8874 4.41072 74.0778 4.64083 74.3202 4.79803C74.5626 4.95333 74.842 5.03098 75.1583 5.03098C75.4746 5.03098 75.7539 4.95333 75.9963 4.79803C76.2388 4.64083 76.4282 4.41072 76.5645 4.10769C76.7028 3.80276 76.7719 3.42966 76.7719 2.98837ZM80.5567 0.962802V0.0792789H85.1988V0.962802H83.4005V5.89746H82.355V0.962802H80.5567ZM86.0936 5.89746V0.0792789H89.8777V0.962802H87.1476V2.54235H89.6817V3.42587H87.1476V5.01394H89.9005V5.89746H86.0936ZM95.9331 2.04235H94.8706C94.8403 1.8681 94.7845 1.71375 94.703 1.57928C94.6216 1.44292 94.5202 1.32738 94.399 1.23269C94.2778 1.13799 94.1396 1.06697 93.9843 1.01962C93.8309 0.970378 93.6651 0.945756 93.4871 0.945756C93.1708 0.945756 92.8905 1.0253 92.6462 1.18439C92.4019 1.34159 92.2106 1.57265 92.0723 1.87757C91.9341 2.1806 91.8649 2.55087 91.8649 2.98837C91.8649 3.43345 91.9341 3.80845 92.0723 4.11337C92.2125 4.4164 92.4038 4.64557 92.6462 4.80087C92.8905 4.95428 93.1699 5.03098 93.4843 5.03098C93.6585 5.03098 93.8214 5.00826 93.9729 4.9628C94.1263 4.91545 94.2636 4.84632 94.3848 4.75542C94.5079 4.66451 94.6112 4.55276 94.6945 4.42019C94.7797 4.28761 94.8384 4.1361 94.8706 3.96564L95.9331 3.97132C95.8934 4.24784 95.8072 4.50731 95.6746 4.74973C95.5439 4.99216 95.3725 5.20617 95.1604 5.39178C94.9483 5.57549 94.7002 5.71943 94.4161 5.8236C94.132 5.92587 93.8167 5.97701 93.4701 5.97701C92.9587 5.97701 92.5023 5.85864 92.1007 5.62189C91.6992 5.38515 91.3829 5.04329 91.1519 4.59632C90.9208 4.14935 90.8053 3.61337 90.8053 2.98837C90.8053 2.36148 90.9218 1.82549 91.1547 1.38042C91.3877 0.933446 91.7049 0.59159 92.1064 0.354847C92.5079 0.118105 92.9625 -0.000266552 93.4701 -0.000266552C93.7939 -0.000266552 94.0951 0.045188 94.3735 0.136097C94.6519 0.227006 94.9 0.360529 95.1178 0.536665C95.3356 0.710908 95.5146 0.924923 95.6547 1.17871C95.7968 1.4306 95.8896 1.71848 95.9331 2.04235ZM96.8983 5.89746V0.0792789H97.9523V2.54235H100.648V0.0792789H101.705V5.89746H100.648V3.42587H97.9523V5.89746H96.8983ZM104.836 5.89746V0.0792789H107.018C107.465 0.0792789 107.84 0.162612 108.143 0.329279C108.448 0.495946 108.678 0.725112 108.833 1.01678C108.99 1.30655 109.069 1.6361 109.069 2.00542C109.069 2.37852 108.99 2.70996 108.833 2.99973C108.676 3.28951 108.444 3.51773 108.137 3.68439C107.83 3.84917 107.452 3.93155 107.003 3.93155H105.557V3.06507H106.861C107.123 3.06507 107.337 3.01962 107.503 2.92871C107.67 2.8378 107.793 2.7128 107.873 2.55371C107.954 2.39462 107.995 2.21185 107.995 2.00542C107.995 1.79898 107.954 1.61716 107.873 1.45996C107.793 1.30276 107.669 1.1806 107.501 1.09348C107.334 1.00447 107.119 0.959961 106.856 0.959961H105.89V5.89746H104.836ZM110.763 0.0792789L112.277 4.65882H112.337L113.848 0.0792789H115.007L112.956 5.89746H111.655L109.606 0.0792789H110.763ZM115.518 0.962802V0.0792789H120.16V0.962802H118.361V5.89746H117.316V0.962802H115.518ZM123.039 5.89746V0.0792789H124.093V5.01394H126.655V5.89746H123.039ZM126.572 0.962802V0.0792789H131.214V0.962802H129.416V5.89746H128.371V0.962802H126.572ZM134.081 5.89746H132.109V0.0792789H134.121C134.698 0.0792789 135.194 0.195756 135.609 0.428711C136.026 0.659771 136.346 0.992158 136.569 1.42587C136.793 1.85958 136.905 2.37852 136.905 2.98269C136.905 3.58875 136.792 4.10958 136.567 4.54519C136.343 4.98079 136.02 5.31507 135.598 5.54803C135.177 5.78098 134.672 5.89746 134.081 5.89746ZM133.163 4.98553H134.03C134.435 4.98553 134.773 4.91167 135.044 4.76394C135.315 4.61432 135.518 4.39178 135.655 4.09632C135.791 3.79898 135.859 3.42776 135.859 2.98269C135.859 2.53761 135.791 2.16829 135.655 1.87473C135.518 1.57928 135.317 1.35864 135.05 1.2128C134.784 1.06507 134.455 0.991211 134.061 0.991211H133.163V4.98553Z" fill="black"/>
</svg>
