<svg width="111" height="28" viewBox="0 0 111 28" fill="none" xmlns="http://www.w3.org/2000/svg">
<path d="M0.670233 8V2.18182H4.59069V3.19602H1.90035V4.58239H4.38898V5.59659H1.90035V6.9858H4.60205V8H0.670233ZM5.54594 8V3.63636H6.69935V4.40625H6.75049C6.8414 4.15057 6.99291 3.94886 7.20503 3.80114C7.41715 3.65341 7.67094 3.57955 7.9664 3.57955C8.26564 3.57955 8.52037 3.65436 8.7306 3.80398C8.94083 3.9517 9.08098 4.15246 9.15106 4.40625H9.19651C9.28553 4.15625 9.44651 3.95644 9.67947 3.80682C9.91431 3.6553 10.1918 3.57955 10.5119 3.57955C10.919 3.57955 11.2495 3.70928 11.5033 3.96875C11.759 4.22633 11.8869 4.59186 11.8869 5.06534V8H10.6795V5.30398C10.6795 5.06155 10.6151 4.87973 10.4863 4.75852C10.3575 4.63731 10.1965 4.5767 10.0033 4.5767C9.78363 4.5767 9.61223 4.64678 9.48912 4.78693C9.36602 4.92519 9.30447 5.10795 9.30447 5.33523V8H8.13117V5.27841C8.13117 5.06439 8.06962 4.89394 7.94651 4.76705C7.8253 4.64015 7.66526 4.5767 7.4664 4.5767C7.33193 4.5767 7.21072 4.6108 7.10276 4.67898C6.9967 4.74527 6.91242 4.83902 6.84992 4.96023C6.78742 5.07955 6.75617 5.2197 6.75617 5.38068V8H5.54594ZM14.0871 8.08239C13.8087 8.08239 13.5606 8.03409 13.3428 7.9375C13.125 7.83902 12.9527 7.69413 12.8258 7.50284C12.7008 7.30966 12.6383 7.06913 12.6383 6.78125C12.6383 6.53883 12.6828 6.33523 12.7718 6.17045C12.8608 6.00568 12.982 5.87311 13.1354 5.77273C13.2888 5.67235 13.4631 5.59659 13.6582 5.54545C13.8551 5.49432 14.0616 5.45833 14.2775 5.4375C14.5313 5.41098 14.7358 5.38636 14.8911 5.36364C15.0464 5.33902 15.1591 5.30303 15.2292 5.25568C15.2993 5.20833 15.3343 5.13826 15.3343 5.04545V5.02841C15.3343 4.84848 15.2775 4.70928 15.1638 4.6108C15.0521 4.51231 14.893 4.46307 14.6866 4.46307C14.4688 4.46307 14.2955 4.51136 14.1667 4.60795C14.0379 4.70265 13.9527 4.82197 13.911 4.96591L12.7917 4.875C12.8485 4.60985 12.9602 4.38068 13.1269 4.1875C13.2936 3.99242 13.5085 3.8428 13.7718 3.73864C14.0369 3.63258 14.3438 3.57955 14.6922 3.57955C14.9347 3.57955 15.1667 3.60795 15.3883 3.66477C15.6118 3.72159 15.8097 3.80966 15.982 3.92898C16.1563 4.0483 16.2936 4.2017 16.394 4.3892C16.4943 4.57481 16.5445 4.79735 16.5445 5.05682V8H15.3968V7.39489H15.3627C15.2926 7.53125 15.1989 7.65152 15.0815 7.75568C14.964 7.85795 14.8229 7.93845 14.6582 7.99716C14.4934 8.05398 14.303 8.08239 14.0871 8.08239ZM14.4337 7.24716C14.6118 7.24716 14.769 7.21212 14.9053 7.14205C15.0417 7.07008 15.1487 6.97348 15.2263 6.85227C15.304 6.73106 15.3428 6.59375 15.3428 6.44034V5.97727C15.3049 6.00189 15.2529 6.02462 15.1866 6.04545C15.1222 6.06439 15.0493 6.08239 14.9678 6.09943C14.8864 6.11458 14.8049 6.12879 14.7235 6.14205C14.6421 6.15341 14.5682 6.16383 14.5019 6.1733C14.3599 6.19413 14.2358 6.22727 14.1297 6.27273C14.0237 6.31818 13.9413 6.37973 13.8826 6.45739C13.8239 6.53314 13.7945 6.62784 13.7945 6.74148C13.7945 6.90625 13.8542 7.0322 13.9735 7.11932C14.0947 7.20455 14.2481 7.24716 14.4337 7.24716ZM17.4834 8V3.63636H18.6937V8H17.4834ZM18.0914 3.07386C17.9115 3.07386 17.7571 3.0142 17.6283 2.89489C17.5014 2.77367 17.438 2.62879 17.438 2.46023C17.438 2.29356 17.5014 2.15057 17.6283 2.03125C17.7571 1.91004 17.9115 1.84943 18.0914 1.84943C18.2713 1.84943 18.4247 1.91004 18.5516 2.03125C18.6804 2.15057 18.7448 2.29356 18.7448 2.46023C18.7448 2.62879 18.6804 2.77367 18.5516 2.89489C18.4247 3.0142 18.2713 3.07386 18.0914 3.07386ZM20.8734 2.18182V8H19.6631V2.18182H20.8734ZM24.7199 8H23.4018L25.4103 2.18182H26.9955L29.0012 8H27.683L26.2256 3.51136H26.1802L24.7199 8ZM24.6376 5.71307H27.7512V6.6733H24.6376V5.71307ZM31.0836 8.07102C30.7521 8.07102 30.452 7.9858 30.183 7.81534C29.916 7.64299 29.7039 7.39015 29.5467 7.05682C29.3914 6.72159 29.3137 6.31061 29.3137 5.82386C29.3137 5.32386 29.3942 4.90814 29.5552 4.5767C29.7162 4.24337 29.9302 3.99432 30.1972 3.82955C30.4662 3.66288 30.7607 3.57955 31.0807 3.57955C31.3251 3.57955 31.5287 3.62121 31.6915 3.70455C31.8563 3.78598 31.9889 3.88826 32.0893 4.01136C32.1915 4.13258 32.2692 4.25189 32.3222 4.36932H32.3592V2.18182H33.5665V8H32.3734V7.30114H32.3222C32.2654 7.42235 32.1849 7.54261 32.0807 7.66193C31.9785 7.77936 31.8449 7.87689 31.6802 7.95455C31.5173 8.0322 31.3184 8.07102 31.0836 8.07102ZM31.4671 7.10795C31.6622 7.10795 31.827 7.05492 31.9614 6.94886C32.0978 6.84091 32.202 6.69034 32.2739 6.49716C32.3478 6.30398 32.3847 6.07765 32.3847 5.81818C32.3847 5.55871 32.3487 5.33333 32.2768 5.14205C32.2048 4.95076 32.1006 4.80303 31.9643 4.69886C31.8279 4.5947 31.6622 4.54261 31.4671 4.54261C31.2682 4.54261 31.1006 4.59659 30.9643 4.70455C30.8279 4.8125 30.7247 4.96212 30.6546 5.15341C30.5845 5.3447 30.5495 5.56629 30.5495 5.81818C30.5495 6.07197 30.5845 6.2964 30.6546 6.49148C30.7266 6.68466 30.8298 6.83617 30.9643 6.94602C31.1006 7.05398 31.2682 7.10795 31.4671 7.10795ZM36.1695 8.07102C35.8381 8.07102 35.5379 7.9858 35.269 7.81534C35.0019 7.64299 34.7898 7.39015 34.6326 7.05682C34.4773 6.72159 34.3996 6.31061 34.3996 5.82386C34.3996 5.32386 34.4801 4.90814 34.6411 4.5767C34.8021 4.24337 35.0161 3.99432 35.2832 3.82955C35.5521 3.66288 35.8466 3.57955 36.1667 3.57955C36.411 3.57955 36.6146 3.62121 36.7775 3.70455C36.9422 3.78598 37.0748 3.88826 37.1752 4.01136C37.2775 4.13258 37.3551 4.25189 37.4082 4.36932H37.4451V2.18182H38.6525V8H37.4593V7.30114H37.4082C37.3513 7.42235 37.2708 7.54261 37.1667 7.66193C37.0644 7.77936 36.9309 7.87689 36.7661 7.95455C36.6032 8.0322 36.4044 8.07102 36.1695 8.07102ZM36.553 7.10795C36.7481 7.10795 36.9129 7.05492 37.0474 6.94886C37.1837 6.84091 37.2879 6.69034 37.3599 6.49716C37.4337 6.30398 37.4707 6.07765 37.4707 5.81818C37.4707 5.55871 37.4347 5.33333 37.3627 5.14205C37.2907 4.95076 37.1866 4.80303 37.0502 4.69886C36.9138 4.5947 36.7481 4.54261 36.553 4.54261C36.3542 4.54261 36.1866 4.59659 36.0502 4.70455C35.9138 4.8125 35.8106 4.96212 35.7405 5.15341C35.6705 5.3447 35.6354 5.56629 35.6354 5.81818C35.6354 6.07197 35.6705 6.2964 35.7405 6.49148C35.8125 6.68466 35.9157 6.83617 36.0502 6.94602C36.1866 7.05398 36.3542 7.10795 36.553 7.10795ZM39.6475 8V3.63636H40.8208V4.39773H40.8663C40.9458 4.12689 41.0793 3.92235 41.2668 3.78409C41.4543 3.64394 41.6702 3.57386 41.9146 3.57386C41.9752 3.57386 42.0405 3.57765 42.1106 3.58523C42.1806 3.5928 42.2422 3.60322 42.2952 3.61648V4.69034C42.2384 4.6733 42.1598 4.65814 42.0594 4.64489C41.9591 4.63163 41.8672 4.625 41.7839 4.625C41.6058 4.625 41.4467 4.66383 41.3066 4.74148C41.1683 4.81723 41.0585 4.9233 40.9771 5.05966C40.8975 5.19602 40.8577 5.35322 40.8577 5.53125V8H39.6475ZM44.7065 8.08523C44.2576 8.08523 43.8712 7.99432 43.5474 7.8125C43.2254 7.62879 42.9773 7.36932 42.803 7.03409C42.6288 6.69697 42.5417 6.2983 42.5417 5.83807C42.5417 5.3892 42.6288 4.99527 42.803 4.65625C42.9773 4.31723 43.2226 4.05303 43.5388 3.86364C43.857 3.67424 44.2301 3.57955 44.6582 3.57955C44.946 3.57955 45.214 3.62595 45.4621 3.71875C45.7121 3.80966 45.9299 3.94697 46.1155 4.13068C46.303 4.31439 46.4489 4.54545 46.553 4.82386C46.6572 5.10038 46.7093 5.42424 46.7093 5.79545V6.12784H43.0246V5.37784H45.5701C45.5701 5.2036 45.5322 5.04924 45.4565 4.91477C45.3807 4.7803 45.2756 4.67519 45.1411 4.59943C45.0085 4.52178 44.8542 4.48295 44.678 4.48295C44.4943 4.48295 44.3315 4.52557 44.1894 4.6108C44.0493 4.69413 43.9394 4.80682 43.8599 4.94886C43.7803 5.08902 43.7396 5.24527 43.7377 5.41761V6.13068C43.7377 6.34659 43.7775 6.53314 43.857 6.69034C43.9385 6.84754 44.053 6.96875 44.2008 7.05398C44.3485 7.1392 44.5237 7.18182 44.7263 7.18182C44.8608 7.18182 44.9839 7.16288 45.0957 7.125C45.2074 7.08712 45.303 7.0303 45.3826 6.95455C45.4621 6.87879 45.5227 6.78598 45.5644 6.67614L46.6837 6.75C46.6269 7.01894 46.5104 7.25379 46.3343 7.45455C46.1601 7.65341 45.9347 7.80871 45.6582 7.92045C45.3835 8.0303 45.0663 8.08523 44.7065 8.08523ZM51.1297 4.88068L50.0218 4.94886C50.0029 4.85417 49.9621 4.76894 49.8996 4.69318C49.8371 4.61553 49.7547 4.55398 49.6525 4.50852C49.5521 4.46117 49.4318 4.4375 49.2917 4.4375C49.1042 4.4375 48.946 4.47727 48.8172 4.55682C48.6885 4.63447 48.6241 4.73864 48.6241 4.86932C48.6241 4.97348 48.6657 5.06155 48.7491 5.13352C48.8324 5.20549 48.9754 5.26326 49.178 5.30682L49.9678 5.46591C50.3921 5.55303 50.7083 5.69318 50.9167 5.88636C51.125 6.07955 51.2292 6.33333 51.2292 6.64773C51.2292 6.93371 51.1449 7.18466 50.9763 7.40057C50.8097 7.61648 50.5805 7.78504 50.2888 7.90625C49.9991 8.02557 49.6648 8.08523 49.286 8.08523C48.7083 8.08523 48.2481 7.96496 47.9053 7.72443C47.5644 7.48201 47.3646 7.15246 47.3059 6.7358L48.4962 6.6733C48.5322 6.84943 48.6193 6.9839 48.7576 7.0767C48.8958 7.16761 49.0729 7.21307 49.2888 7.21307C49.501 7.21307 49.6714 7.17235 49.8002 7.09091C49.9309 7.00758 49.9972 6.90057 49.9991 6.76989C49.9972 6.66004 49.9508 6.57008 49.8599 6.5C49.769 6.42803 49.6288 6.37311 49.4394 6.33523L48.6837 6.18466C48.2576 6.09943 47.9404 5.9517 47.732 5.74148C47.5256 5.53125 47.4224 5.26326 47.4224 4.9375C47.4224 4.6572 47.4981 4.41572 47.6496 4.21307C47.803 4.01042 48.018 3.85417 48.2945 3.74432C48.5729 3.63447 48.8987 3.57955 49.2718 3.57955C49.8229 3.57955 50.2566 3.69602 50.5729 3.92898C50.8911 4.16193 51.0767 4.47917 51.1297 4.88068ZM55.6219 4.88068L54.514 4.94886C54.495 4.85417 54.4543 4.76894 54.3918 4.69318C54.3293 4.61553 54.2469 4.55398 54.1447 4.50852C54.0443 4.46117 53.924 4.4375 53.7839 4.4375C53.5964 4.4375 53.4382 4.47727 53.3094 4.55682C53.1806 4.63447 53.1163 4.73864 53.1163 4.86932C53.1163 4.97348 53.1579 5.06155 53.2413 5.13352C53.3246 5.20549 53.4676 5.26326 53.6702 5.30682L54.46 5.46591C54.8842 5.55303 55.2005 5.69318 55.4089 5.88636C55.6172 6.07955 55.7214 6.33333 55.7214 6.64773C55.7214 6.93371 55.6371 7.18466 55.4685 7.40057C55.3019 7.61648 55.0727 7.78504 54.781 7.90625C54.4913 8.02557 54.157 8.08523 53.7782 8.08523C53.2005 8.08523 52.7403 7.96496 52.3975 7.72443C52.0566 7.48201 51.8568 7.15246 51.7981 6.7358L52.9884 6.6733C53.0244 6.84943 53.1115 6.9839 53.2498 7.0767C53.388 7.16761 53.5651 7.21307 53.781 7.21307C53.9931 7.21307 54.1636 7.17235 54.2924 7.09091C54.4231 7.00758 54.4894 6.90057 54.4913 6.76989C54.4894 6.66004 54.443 6.57008 54.3521 6.5C54.2611 6.42803 54.121 6.37311 53.9316 6.33523L53.1759 6.18466C52.7498 6.09943 52.4325 5.9517 52.2242 5.74148C52.0178 5.53125 51.9146 5.26326 51.9146 4.9375C51.9146 4.6572 51.9903 4.41572 52.1418 4.21307C52.2952 4.01042 52.5102 3.85417 52.7867 3.74432C53.0651 3.63447 53.3909 3.57955 53.764 3.57955C54.3151 3.57955 54.7488 3.69602 55.0651 3.92898C55.3833 4.16193 55.5689 4.47917 55.6219 4.88068ZM59.0424 8.07386C58.8549 8.07386 58.6939 8.00758 58.5594 7.875C58.4269 7.74053 58.3606 7.57955 58.3606 7.39205C58.3606 7.20644 58.4269 7.04735 58.5594 6.91477C58.6939 6.7822 58.8549 6.71591 59.0424 6.71591C59.2242 6.71591 59.3833 6.7822 59.5197 6.91477C59.656 7.04735 59.7242 7.20644 59.7242 7.39205C59.7242 7.51705 59.692 7.63163 59.6276 7.7358C59.5651 7.83807 59.4827 7.92045 59.3805 7.98295C59.2782 8.04356 59.1655 8.07386 59.0424 8.07386ZM59.0424 5.01705C58.8549 5.01705 58.6939 4.95076 58.5594 4.81818C58.4269 4.68561 58.3606 4.52462 58.3606 4.33523C58.3606 4.14962 58.4269 3.99148 58.5594 3.8608C58.6939 3.72822 58.8549 3.66193 59.0424 3.66193C59.2242 3.66193 59.3833 3.72822 59.5197 3.8608C59.656 3.99148 59.7242 4.14962 59.7242 4.33523C59.7242 4.46212 59.692 4.57765 59.6276 4.68182C59.5651 4.78409 59.4827 4.86553 59.3805 4.92614C59.2782 4.98674 59.1655 5.01705 59.0424 5.01705Z" fill="#0C2461"/>
<path d="M1.88636 20.5994C1.62311 20.5994 1.38258 20.5483 1.16477 20.446C0.94697 20.3419 0.773674 20.1922 0.644886 19.9972C0.516098 19.8002 0.451705 19.5616 0.451705 19.2812C0.451705 19.0653 0.492424 18.8835 0.573864 18.7358C0.655303 18.5881 0.770833 18.4669 0.920455 18.3722C1.07008 18.2775 1.24716 18.2027 1.4517 18.1477C1.65625 18.0928 1.88163 18.0502 2.12784 18.0199C2.37216 17.9896 2.5786 17.9631 2.74716 17.9403C2.91761 17.9176 3.04735 17.8816 3.13636 17.8324C3.22538 17.7831 3.26989 17.7036 3.26989 17.5938V17.4915C3.26989 17.1941 3.18087 16.9602 3.00284 16.7898C2.8267 16.6174 2.57292 16.5312 2.24148 16.5312C1.92708 16.5312 1.67045 16.6004 1.47159 16.7386C1.27462 16.8769 1.13636 17.0398 1.05682 17.2273L0.576705 17.054C0.675189 16.8153 0.811553 16.625 0.985795 16.483C1.16004 16.339 1.35511 16.2358 1.57102 16.1733C1.78693 16.1089 2.00568 16.0767 2.22727 16.0767C2.39394 16.0767 2.56723 16.0985 2.74716 16.142C2.92898 16.1856 3.09754 16.2614 3.25284 16.3693C3.40814 16.4754 3.53409 16.6241 3.63068 16.8153C3.72727 17.0047 3.77557 17.2453 3.77557 17.5369V20.5H3.26989V19.8097H3.23864C3.17803 19.9384 3.08807 20.0634 2.96875 20.1847C2.84943 20.3059 2.69981 20.4053 2.51989 20.483C2.33996 20.5606 2.12879 20.5994 1.88636 20.5994ZM1.95455 20.1364C2.22348 20.1364 2.45644 20.0767 2.65341 19.9574C2.85038 19.8381 3.00189 19.6799 3.10795 19.483C3.21591 19.2841 3.26989 19.0653 3.26989 18.8267V18.196C3.23201 18.232 3.16856 18.2642 3.07955 18.2926C2.99242 18.321 2.8911 18.3466 2.77557 18.3693C2.66193 18.3902 2.5483 18.4081 2.43466 18.4233C2.32102 18.4384 2.21875 18.4517 2.12784 18.4631C1.88163 18.4934 1.6714 18.5407 1.49716 18.6051C1.32292 18.6695 1.18939 18.7585 1.09659 18.8722C1.00379 18.9839 0.957386 19.1278 0.957386 19.304C0.957386 19.5691 1.05208 19.7746 1.24148 19.9205C1.43087 20.0644 1.66856 20.1364 1.95455 20.1364ZM6.69176 20.5909C6.33381 20.5909 6.02036 20.4962 5.75142 20.3068C5.48248 20.1174 5.27225 19.8532 5.12074 19.5142C4.97112 19.1752 4.89631 18.7803 4.89631 18.3295C4.89631 17.8807 4.97112 17.4877 5.12074 17.1506C5.27225 16.8116 5.48343 16.5483 5.75426 16.3608C6.02509 16.1714 6.34044 16.0767 6.70028 16.0767C6.96544 16.0767 7.18608 16.1241 7.36222 16.2188C7.53835 16.3116 7.67945 16.4271 7.78551 16.5653C7.89157 16.7036 7.97396 16.8381 8.03267 16.9688H8.07812V14.6818H8.58665V20.5H8.09233V19.6903H8.03267C7.97396 19.8229 7.89063 19.9593 7.78267 20.0994C7.67472 20.2377 7.53172 20.3542 7.35369 20.4489C7.17756 20.5436 6.95691 20.5909 6.69176 20.5909ZM6.75142 20.1278C7.03362 20.1278 7.27415 20.0511 7.47301 19.8977C7.67188 19.7424 7.82339 19.5294 7.92756 19.2585C8.03362 18.9858 8.08665 18.6733 8.08665 18.321C8.08665 17.9725 8.03456 17.6648 7.9304 17.3977C7.82623 17.1288 7.67472 16.9186 7.47585 16.767C7.27699 16.6136 7.03551 16.5369 6.75142 16.5369C6.45975 16.5369 6.21354 16.6165 6.01278 16.7756C5.81392 16.9328 5.66241 17.1458 5.55824 17.4148C5.45597 17.6837 5.40483 17.9858 5.40483 18.321C5.40483 18.66 5.45691 18.9659 5.56108 19.2386C5.66525 19.5114 5.81676 19.7282 6.01562 19.8892C6.21638 20.0483 6.46165 20.1278 6.75142 20.1278ZM10.027 20.5V16.1364H10.5185V16.8068H10.5639C10.651 16.5814 10.7959 16.4044 10.9986 16.2756C11.2031 16.1449 11.4484 16.0795 11.7344 16.0795C12.0355 16.0795 12.2827 16.1506 12.4759 16.2926C12.6709 16.4328 12.8168 16.6259 12.9134 16.8722H12.9503C13.0488 16.6297 13.2088 16.4375 13.4304 16.2955C13.6539 16.1515 13.9247 16.0795 14.2429 16.0795C14.6482 16.0795 14.9683 16.2074 15.2031 16.4631C15.438 16.7169 15.5554 17.0881 15.5554 17.5767V20.5H15.0497V17.5767C15.0497 17.232 14.9616 16.9735 14.7855 16.8011C14.6094 16.6288 14.3774 16.5426 14.0895 16.5426C13.7562 16.5426 13.4995 16.6449 13.3196 16.8494C13.1397 17.054 13.0497 17.3134 13.0497 17.6278V20.5H12.5327V17.5312C12.5327 17.2358 12.4503 16.9972 12.2855 16.8153C12.1207 16.6335 11.8887 16.5426 11.5895 16.5426C11.3887 16.5426 11.2079 16.5919 11.0469 16.6903C10.8878 16.7888 10.7618 16.9261 10.669 17.1023C10.5781 17.2765 10.5327 17.4773 10.5327 17.7045V20.5H10.027ZM16.8999 20.5V16.1364H17.4084V20.5H16.8999ZM17.1584 15.3864C17.0542 15.3864 16.9652 15.3513 16.8913 15.2812C16.8175 15.2093 16.7805 15.1231 16.7805 15.0227C16.7805 14.9223 16.8175 14.8371 16.8913 14.767C16.9652 14.6951 17.0542 14.6591 17.1584 14.6591C17.2625 14.6591 17.3516 14.6951 17.4254 14.767C17.4993 14.8371 17.5362 14.9223 17.5362 15.0227C17.5362 15.1231 17.4993 15.2093 17.4254 15.2812C17.3516 15.3513 17.2625 15.3864 17.1584 15.3864ZM19.2514 17.7727V20.5H18.7457V16.1364H19.2372V16.821H19.2827C19.3849 16.5975 19.544 16.4186 19.7599 16.2841C19.9777 16.1477 20.2467 16.0795 20.5668 16.0795C20.8603 16.0795 21.1179 16.1411 21.3395 16.2642C21.563 16.3854 21.7363 16.5644 21.8594 16.8011C21.9844 17.0379 22.0469 17.3286 22.0469 17.6733V20.5H21.5412V17.7045C21.5412 17.3466 21.4408 17.0634 21.2401 16.8551C21.0412 16.6468 20.7741 16.5426 20.4389 16.5426C20.2098 16.5426 20.0062 16.5919 19.8281 16.6903C19.6501 16.7888 19.509 16.9309 19.4048 17.1165C19.3026 17.3002 19.2514 17.5189 19.2514 17.7727ZM26.6058 22.0369C26.0642 22.0369 25.5774 21.9536 25.1456 21.7869C24.7138 21.6203 24.3454 21.3797 24.0405 21.0653C23.7375 20.7528 23.5045 20.3759 23.3416 19.9347C23.1806 19.4934 23.1001 19 23.1001 18.4545C23.1001 17.9205 23.1816 17.4356 23.3445 17C23.5092 16.5644 23.7431 16.1903 24.0462 15.8778C24.3511 15.5653 24.7147 15.3248 25.1371 15.1562C25.5613 14.9858 26.0329 14.9006 26.5518 14.9006C27.0594 14.9006 27.514 14.9896 27.9155 15.1676C28.317 15.3437 28.6589 15.5843 28.9411 15.8892C29.2232 16.1941 29.4382 16.5417 29.5859 16.9318C29.7356 17.3201 29.8104 17.7263 29.8104 18.1506C29.8104 18.4195 29.7895 18.6847 29.7479 18.946C29.7081 19.2074 29.639 19.4441 29.5405 19.6562C29.442 19.8684 29.3056 20.0379 29.1314 20.1648C28.9571 20.2898 28.7365 20.3523 28.4695 20.3523C28.3293 20.3523 28.1911 20.3295 28.0547 20.2841C27.9202 20.2367 27.8047 20.16 27.7081 20.054C27.6134 19.946 27.5585 19.8021 27.5433 19.6222H27.5149C27.4543 19.7585 27.3691 19.8835 27.2592 19.9972C27.1494 20.1089 27.014 20.1979 26.853 20.2642C26.6939 20.3305 26.5092 20.3608 26.299 20.3551C26.0604 20.3494 25.8454 20.2964 25.6541 20.196C25.4647 20.0956 25.3028 19.9583 25.1683 19.7841C25.0357 19.6098 24.9344 19.4081 24.8643 19.179C24.7943 18.9479 24.7592 18.6989 24.7592 18.4318C24.7592 18.1742 24.7981 17.9366 24.8757 17.7188C24.9553 17.5009 25.0642 17.3106 25.2024 17.1477C25.3426 16.9848 25.5064 16.8551 25.6939 16.7585C25.8814 16.6619 26.0831 16.6061 26.299 16.5909C26.4922 16.5777 26.6702 16.5966 26.8331 16.6477C26.996 16.697 27.1342 16.7689 27.2479 16.8636C27.3615 16.9583 27.4429 17.0653 27.4922 17.1847H27.5206V16.6705H27.9837V19.304C27.9837 19.5028 28.0225 19.6581 28.1001 19.7699C28.1797 19.8797 28.3047 19.9347 28.4751 19.9347C28.6816 19.9347 28.8492 19.8674 28.978 19.733C29.1087 19.5966 29.2043 19.3958 29.2649 19.1307C29.3255 18.8636 29.3558 18.535 29.3558 18.1449C29.3558 17.8494 29.3142 17.5634 29.2308 17.2869C29.1494 17.0085 29.0301 16.7509 28.8729 16.5142C28.7157 16.2756 28.5225 16.0672 28.2933 15.8892C28.0642 15.7093 27.8018 15.5691 27.5064 15.4688C27.2128 15.3684 26.8871 15.3182 26.5291 15.3182C26.0859 15.3182 25.6835 15.393 25.3217 15.5426C24.96 15.6922 24.6484 15.9062 24.3871 16.1847C24.1276 16.4631 23.9278 16.7955 23.7876 17.1818C23.6475 17.5663 23.5774 17.9953 23.5774 18.4688C23.5774 18.9479 23.6475 19.3807 23.7876 19.767C23.9278 20.1534 24.1295 20.4839 24.3928 20.7585C24.6579 21.0331 24.978 21.2443 25.353 21.392C25.728 21.5398 26.1503 21.6136 26.62 21.6136C26.8284 21.6136 27.0329 21.5928 27.2337 21.5511C27.4363 21.5114 27.62 21.4621 27.7848 21.4034C27.9515 21.3447 28.0859 21.2869 28.1882 21.2301L28.3331 21.6278C28.1929 21.7036 28.0263 21.7727 27.8331 21.8352C27.6418 21.8977 27.4392 21.947 27.2251 21.983C27.013 22.0189 26.8066 22.0369 26.6058 22.0369ZM26.3587 19.9091C26.6162 19.9091 26.8331 19.8494 27.0092 19.7301C27.1854 19.6108 27.3179 19.4394 27.407 19.2159C27.4979 18.9924 27.5433 18.7235 27.5433 18.4091C27.5433 18.0928 27.495 17.8324 27.3984 17.6278C27.3037 17.4233 27.1683 17.2718 26.9922 17.1733C26.8179 17.0729 26.6115 17.0227 26.3729 17.0227C26.1418 17.0227 25.9392 17.0862 25.7649 17.2131C25.5926 17.3381 25.4571 17.5057 25.3587 17.7159C25.2621 17.9261 25.2138 18.1572 25.2138 18.4091C25.2138 18.6761 25.2564 18.9233 25.3416 19.1506C25.4287 19.3778 25.5566 19.5616 25.7251 19.7017C25.8956 19.84 26.1068 19.9091 26.3587 19.9091ZM30.8707 20.5V16.1364H31.3622V16.8068H31.3991C31.4863 16.5871 31.6378 16.41 31.8537 16.2756C32.0715 16.1392 32.3177 16.071 32.5923 16.071C32.634 16.071 32.6804 16.072 32.7315 16.0739C32.7827 16.0758 32.8253 16.0777 32.8594 16.0795V16.5938C32.8366 16.59 32.7969 16.5843 32.7401 16.5767C32.6832 16.5691 32.6217 16.5653 32.5554 16.5653C32.3281 16.5653 32.1255 16.6136 31.9474 16.7102C31.7713 16.8049 31.6321 16.9366 31.5298 17.1051C31.4276 17.2737 31.3764 17.4659 31.3764 17.6818V20.5H30.8707ZM34.1825 18.8523L34.1768 18.1903H34.2905L36.3359 16.1364H36.9751L34.9553 18.1591L34.9098 18.1676L34.1825 18.8523ZM33.7223 20.5V14.6818H34.228V20.5H33.7223ZM36.4411 20.5L34.6683 18.2585L35.032 17.9091L37.0888 20.5H36.4411ZM37.9254 22.1364V16.1364H38.4169V16.9688H38.4766C38.5372 16.8381 38.6205 16.7045 38.7266 16.5682C38.8326 16.4299 38.9728 16.3134 39.147 16.2188C39.3232 16.1241 39.5447 16.0767 39.8118 16.0767C40.1716 16.0767 40.486 16.1714 40.755 16.3608C41.0258 16.5483 41.236 16.8116 41.3857 17.1506C41.5372 17.4877 41.6129 17.8807 41.6129 18.3295C41.6129 18.7803 41.5372 19.1752 41.3857 19.5142C41.236 19.8532 41.0258 20.1174 40.755 20.3068C40.486 20.4962 40.1735 20.5909 39.8175 20.5909C39.5542 20.5909 39.3336 20.5436 39.1555 20.4489C38.9794 20.3542 38.8364 20.2377 38.7266 20.0994C38.6186 19.9593 38.5353 19.8229 38.4766 19.6903H38.4311V22.1364H37.9254ZM38.4254 18.321C38.4254 18.6733 38.4775 18.9858 38.5817 19.2585C38.6877 19.5294 38.8393 19.7424 39.0362 19.8977C39.2351 20.0511 39.4756 20.1278 39.7578 20.1278C40.0476 20.1278 40.2919 20.0483 40.4908 19.8892C40.6915 19.7282 40.844 19.5114 40.9482 19.2386C41.0542 18.9659 41.1072 18.66 41.1072 18.321C41.1072 17.9858 41.0552 17.6837 40.951 17.4148C40.8487 17.1458 40.6972 16.9328 40.4964 16.7756C40.2957 16.6165 40.0495 16.5369 39.7578 16.5369C39.4737 16.5369 39.2322 16.6136 39.0334 16.767C38.8345 16.9186 38.683 17.1288 38.5788 17.3977C38.4766 17.6648 38.4254 17.9725 38.4254 18.321ZM44.4183 20.5909C44.0414 20.5909 43.7081 20.4953 43.4183 20.304C43.1304 20.1127 42.9051 19.8485 42.7422 19.5114C42.5793 19.1723 42.4979 18.7812 42.4979 18.3381C42.4979 17.8911 42.5793 17.4981 42.7422 17.1591C42.9051 16.8182 43.1304 16.553 43.4183 16.3636C43.7081 16.1723 44.0414 16.0767 44.4183 16.0767C44.7952 16.0767 45.1276 16.1723 45.4155 16.3636C45.7034 16.5549 45.9287 16.8201 46.0916 17.1591C46.2564 17.4981 46.3388 17.8911 46.3388 18.3381C46.3388 18.7812 46.2573 19.1723 46.0945 19.5114C45.9316 19.8485 45.7053 20.1127 45.4155 20.304C45.1276 20.4953 44.7952 20.5909 44.4183 20.5909ZM44.4183 20.1278C44.7214 20.1278 44.978 20.0464 45.1882 19.8835C45.3984 19.7206 45.5575 19.5038 45.6655 19.233C45.7753 18.9621 45.8303 18.6638 45.8303 18.3381C45.8303 18.0123 45.7753 17.7131 45.6655 17.4403C45.5575 17.1676 45.3984 16.9489 45.1882 16.7841C44.978 16.6193 44.7214 16.5369 44.4183 16.5369C44.1172 16.5369 43.8606 16.6193 43.6484 16.7841C43.4382 16.9489 43.2782 17.1676 43.1683 17.4403C43.0604 17.7131 43.0064 18.0123 43.0064 18.3381C43.0064 18.6638 43.0604 18.9621 43.1683 19.233C43.2782 19.5038 43.4382 19.7206 43.6484 19.8835C43.8587 20.0464 44.1153 20.1278 44.4183 20.1278ZM47.9545 14.6818V20.5H47.4489V14.6818H47.9545ZM49.6449 22.1364C49.5445 22.1364 49.4508 22.1269 49.3636 22.108C49.2765 22.089 49.2074 22.0682 49.1562 22.0455L49.2926 21.5994C49.465 21.6525 49.6184 21.6714 49.7528 21.6562C49.8873 21.643 50.0066 21.5824 50.1108 21.4744C50.215 21.3684 50.3078 21.2055 50.3892 20.9858L50.5483 20.5426L48.9432 16.1364H49.4915L50.7869 19.8324H50.8267L52.1222 16.1364H52.6705L50.8239 21.1903C50.7462 21.4006 50.6506 21.5758 50.5369 21.7159C50.4233 21.858 50.2917 21.9631 50.142 22.0312C49.9943 22.1013 49.8286 22.1364 49.6449 22.1364ZM53.6598 22.1364V16.1364H54.1513V16.9688H54.2109C54.2715 16.8381 54.3549 16.7045 54.4609 16.5682C54.567 16.4299 54.7071 16.3134 54.8814 16.2188C55.0575 16.1241 55.2791 16.0767 55.5462 16.0767C55.906 16.0767 56.2204 16.1714 56.4893 16.3608C56.7602 16.5483 56.9704 16.8116 57.12 17.1506C57.2715 17.4877 57.3473 17.8807 57.3473 18.3295C57.3473 18.7803 57.2715 19.1752 57.12 19.5142C56.9704 19.8532 56.7602 20.1174 56.4893 20.3068C56.2204 20.4962 55.9079 20.5909 55.5518 20.5909C55.2886 20.5909 55.0679 20.5436 54.8899 20.4489C54.7138 20.3542 54.5708 20.2377 54.4609 20.0994C54.353 19.9593 54.2696 19.8229 54.2109 19.6903H54.1655V22.1364H53.6598ZM54.1598 18.321C54.1598 18.6733 54.2119 18.9858 54.3161 19.2585C54.4221 19.5294 54.5736 19.7424 54.7706 19.8977C54.9695 20.0511 55.21 20.1278 55.4922 20.1278C55.782 20.1278 56.0263 20.0483 56.2251 19.8892C56.4259 19.7282 56.5784 19.5114 56.6825 19.2386C56.7886 18.9659 56.8416 18.66 56.8416 18.321C56.8416 17.9858 56.7895 17.6837 56.6854 17.4148C56.5831 17.1458 56.4316 16.9328 56.2308 16.7756C56.0301 16.6165 55.7839 16.5369 55.4922 16.5369C55.2081 16.5369 54.9666 16.6136 54.7678 16.767C54.5689 16.9186 54.4174 17.1288 54.3132 17.3977C54.2109 17.6648 54.1598 17.9725 54.1598 18.321ZM58.4567 20.5V16.1364H58.9482V16.8068H58.9851C59.0722 16.5871 59.2237 16.41 59.4396 16.2756C59.6574 16.1392 59.9036 16.071 60.1783 16.071C60.2199 16.071 60.2663 16.072 60.3175 16.0739C60.3686 16.0758 60.4112 16.0777 60.4453 16.0795V16.5938C60.4226 16.59 60.3828 16.5843 60.326 16.5767C60.2692 16.5691 60.2076 16.5653 60.1413 16.5653C59.9141 16.5653 59.7114 16.6136 59.5334 16.7102C59.3572 16.8049 59.218 16.9366 59.1158 17.1051C59.0135 17.2737 58.9624 17.4659 58.9624 17.6818V20.5H58.4567ZM62.8714 20.5909C62.4946 20.5909 62.1612 20.4953 61.8714 20.304C61.5836 20.1127 61.3582 19.8485 61.1953 19.5114C61.0324 19.1723 60.951 18.7812 60.951 18.3381C60.951 17.8911 61.0324 17.4981 61.1953 17.1591C61.3582 16.8182 61.5836 16.553 61.8714 16.3636C62.1612 16.1723 62.4946 16.0767 62.8714 16.0767C63.2483 16.0767 63.5807 16.1723 63.8686 16.3636C64.1565 16.5549 64.3819 16.8201 64.5447 17.1591C64.7095 17.4981 64.7919 17.8911 64.7919 18.3381C64.7919 18.7812 64.7105 19.1723 64.5476 19.5114C64.3847 19.8485 64.1584 20.1127 63.8686 20.304C63.5807 20.4953 63.2483 20.5909 62.8714 20.5909ZM62.8714 20.1278C63.1745 20.1278 63.4311 20.0464 63.6413 19.8835C63.8516 19.7206 64.0107 19.5038 64.1186 19.233C64.2285 18.9621 64.2834 18.6638 64.2834 18.3381C64.2834 18.0123 64.2285 17.7131 64.1186 17.4403C64.0107 17.1676 63.8516 16.9489 63.6413 16.7841C63.4311 16.6193 63.1745 16.5369 62.8714 16.5369C62.5703 16.5369 62.3137 16.6193 62.1016 16.7841C61.8913 16.9489 61.7313 17.1676 61.6214 17.4403C61.5135 17.7131 61.4595 18.0123 61.4595 18.3381C61.4595 18.6638 61.5135 18.9621 61.6214 19.233C61.7313 19.5038 61.8913 19.7206 62.1016 19.8835C62.3118 20.0464 62.5684 20.1278 62.8714 20.1278ZM67.473 20.5909C67.1151 20.5909 66.8016 20.4962 66.5327 20.3068C66.2637 20.1174 66.0535 19.8532 65.902 19.5142C65.7524 19.1752 65.6776 18.7803 65.6776 18.3295C65.6776 17.8807 65.7524 17.4877 65.902 17.1506C66.0535 16.8116 66.2647 16.5483 66.5355 16.3608C66.8063 16.1714 67.1217 16.0767 67.4815 16.0767C67.7467 16.0767 67.9673 16.1241 68.1435 16.2188C68.3196 16.3116 68.4607 16.4271 68.5668 16.5653C68.6728 16.7036 68.7552 16.8381 68.8139 16.9688H68.8594V14.6818H69.3679V20.5H68.8736V19.6903H68.8139C68.7552 19.8229 68.6719 19.9593 68.5639 20.0994C68.456 20.2377 68.313 20.3542 68.1349 20.4489C67.9588 20.5436 67.7382 20.5909 67.473 20.5909ZM67.5327 20.1278C67.8149 20.1278 68.0554 20.0511 68.2543 19.8977C68.4531 19.7424 68.6046 19.5294 68.7088 19.2585C68.8149 18.9858 68.8679 18.6733 68.8679 18.321C68.8679 17.9725 68.8158 17.6648 68.7116 17.3977C68.6075 17.1288 68.456 16.9186 68.2571 16.767C68.0582 16.6136 67.8168 16.5369 67.5327 16.5369C67.241 16.5369 66.9948 16.6165 66.794 16.7756C66.5952 16.9328 66.4437 17.1458 66.3395 17.4148C66.2372 17.6837 66.1861 17.9858 66.1861 18.321C66.1861 18.66 66.2382 18.9659 66.3423 19.2386C66.4465 19.5114 66.598 19.7282 66.7969 19.8892C66.9976 20.0483 67.2429 20.1278 67.5327 20.1278ZM73.581 18.8324V16.1364H74.0866V20.5H73.581V19.7756H73.5412C73.4389 19.9991 73.277 20.1856 73.0554 20.3352C72.8338 20.483 72.563 20.5568 72.2429 20.5568C71.9645 20.5568 71.7173 20.4962 71.5014 20.375C71.2855 20.2519 71.116 20.072 70.9929 19.8352C70.8698 19.5985 70.8082 19.3078 70.8082 18.9631V16.1364H71.3139V18.9318C71.3139 19.2727 71.4143 19.5473 71.6151 19.7557C71.8158 19.9621 72.0734 20.0653 72.3878 20.0653C72.5848 20.0653 72.7741 20.018 72.956 19.9233C73.1378 19.8286 73.2874 19.6903 73.4048 19.5085C73.5223 19.3248 73.581 19.0994 73.581 18.8324ZM77.13 20.5909C76.7398 20.5909 76.3999 20.4934 76.1101 20.2983C75.8222 20.1032 75.5987 19.8362 75.4396 19.4972C75.2805 19.1581 75.201 18.7718 75.201 18.3381C75.201 17.9006 75.2815 17.5114 75.4425 17.1705C75.6054 16.8295 75.8307 16.5625 76.1186 16.3693C76.4065 16.1742 76.7408 16.0767 77.1214 16.0767C77.4131 16.0767 77.6773 16.1335 77.9141 16.2472C78.1508 16.3589 78.3459 16.517 78.4993 16.7216C78.6546 16.9242 78.7521 17.161 78.7919 17.4318H78.2805C78.2275 17.1856 78.0997 16.9754 77.897 16.8011C77.6963 16.625 77.4406 16.5369 77.13 16.5369C76.8516 16.5369 76.6054 16.6127 76.3913 16.7642C76.1773 16.9138 76.0097 17.1231 75.8885 17.392C75.7692 17.6591 75.7095 17.9687 75.7095 18.321C75.7095 18.6752 75.7682 18.9886 75.8857 19.2614C76.0031 19.5322 76.1679 19.7443 76.38 19.8977C76.594 20.0511 76.844 20.1278 77.13 20.1278C77.3232 20.1278 77.4993 20.0919 77.6584 20.0199C77.8194 19.946 77.9538 19.8419 78.0618 19.7074C78.1716 19.5729 78.2455 19.4129 78.2834 19.2273H78.7947C78.7569 19.4905 78.6631 19.7254 78.5135 19.9318C78.3658 20.1364 78.1735 20.2973 77.9368 20.4148C77.7019 20.5322 77.433 20.5909 77.13 20.5909ZM81.5973 16.1364V16.5767H79.5149V16.1364H81.5973ZM80.1655 15.0909H80.674V19.3608C80.674 19.5426 80.7053 19.6856 80.7678 19.7898C80.8303 19.892 80.9117 19.965 81.0121 20.0085C81.1125 20.0502 81.2195 20.071 81.3331 20.071C81.3994 20.071 81.4562 20.0672 81.5036 20.0597C81.5509 20.0502 81.5926 20.0407 81.6286 20.0312L81.7365 20.4886C81.6873 20.5076 81.6267 20.5246 81.5547 20.5398C81.4827 20.5568 81.3937 20.5653 81.2876 20.5653C81.102 20.5653 80.9231 20.5246 80.7507 20.4432C80.5803 20.3617 80.4401 20.2405 80.3303 20.0795C80.2204 19.9186 80.1655 19.7188 80.1655 19.4801V15.0909ZM85.5994 17.0938L85.1364 17.2244C85.0909 17.0937 85.0265 16.9754 84.9432 16.8693C84.8598 16.7633 84.7509 16.679 84.6165 16.6165C84.4839 16.554 84.3191 16.5227 84.1222 16.5227C83.8267 16.5227 83.5843 16.5928 83.3949 16.733C83.2055 16.8731 83.1108 17.054 83.1108 17.2756C83.1108 17.4631 83.1752 17.6155 83.304 17.733C83.4347 17.8485 83.6354 17.9403 83.9062 18.0085L84.5653 18.1705C84.9309 18.2595 85.2045 18.4006 85.3864 18.5938C85.5701 18.7869 85.6619 19.0294 85.6619 19.321C85.6619 19.5672 85.5938 19.786 85.4574 19.9773C85.321 20.1686 85.1307 20.3191 84.8864 20.429C84.6439 20.5369 84.3627 20.5909 84.0426 20.5909C83.6165 20.5909 83.2652 20.4953 82.9886 20.304C82.7121 20.1108 82.535 19.8324 82.4574 19.4688L82.9432 19.3494C83.0057 19.6089 83.1278 19.8049 83.3097 19.9375C83.4934 20.0701 83.7348 20.1364 84.0341 20.1364C84.3693 20.1364 84.6373 20.0616 84.8381 19.9119C85.0388 19.7604 85.1392 19.571 85.1392 19.3438C85.1392 19.1676 85.0805 19.0199 84.9631 18.9006C84.8456 18.7794 84.6676 18.6903 84.429 18.6335L83.7159 18.4631C83.3371 18.3722 83.0568 18.2282 82.875 18.0312C82.6932 17.8343 82.6023 17.59 82.6023 17.2983C82.6023 17.0578 82.6676 16.8466 82.7983 16.6648C82.929 16.4811 83.1089 16.3371 83.3381 16.233C83.5672 16.1288 83.8286 16.0767 84.1222 16.0767C84.5218 16.0767 84.8409 16.1676 85.0795 16.3494C85.3201 16.5294 85.4934 16.7775 85.5994 17.0938ZM87.1726 20.5426C87.0608 20.5426 86.9643 20.5028 86.8828 20.4233C86.8033 20.3419 86.7635 20.2453 86.7635 20.1335C86.7635 20.0199 86.8033 19.9233 86.8828 19.8438C86.9643 19.7642 87.0608 19.7244 87.1726 19.7244C87.2862 19.7244 87.3828 19.7642 87.4624 19.8438C87.5419 19.9233 87.5817 20.0199 87.5817 20.1335C87.5817 20.2074 87.5627 20.2756 87.5249 20.3381C87.4889 20.4006 87.4396 20.4508 87.3771 20.4886C87.3165 20.5246 87.2483 20.5426 87.1726 20.5426ZM90.6222 20.5909C90.232 20.5909 89.892 20.4934 89.6023 20.2983C89.3144 20.1032 89.0909 19.8362 88.9318 19.4972C88.7727 19.1581 88.6932 18.7718 88.6932 18.3381C88.6932 17.9006 88.7737 17.5114 88.9347 17.1705C89.0975 16.8295 89.3229 16.5625 89.6108 16.3693C89.8987 16.1742 90.233 16.0767 90.6136 16.0767C90.9053 16.0767 91.1695 16.1335 91.4062 16.2472C91.643 16.3589 91.8381 16.517 91.9915 16.7216C92.1468 16.9242 92.2443 17.161 92.2841 17.4318H91.7727C91.7197 17.1856 91.5919 16.9754 91.3892 16.8011C91.1884 16.625 90.9328 16.5369 90.6222 16.5369C90.3438 16.5369 90.0975 16.6127 89.8835 16.7642C89.6695 16.9138 89.5019 17.1231 89.3807 17.392C89.2614 17.6591 89.2017 17.9687 89.2017 18.321C89.2017 18.6752 89.2604 18.9886 89.3778 19.2614C89.4953 19.5322 89.66 19.7443 89.8722 19.8977C90.0862 20.0511 90.3362 20.1278 90.6222 20.1278C90.8153 20.1278 90.9915 20.0919 91.1506 20.0199C91.3116 19.946 91.446 19.8419 91.554 19.7074C91.6638 19.5729 91.7377 19.4129 91.7756 19.2273H92.2869C92.2491 19.4905 92.1553 19.7254 92.0057 19.9318C91.858 20.1364 91.6657 20.2973 91.429 20.4148C91.1941 20.5322 90.9252 20.5909 90.6222 20.5909ZM95.0668 20.5909C94.6899 20.5909 94.3565 20.4953 94.0668 20.304C93.7789 20.1127 93.5535 19.8485 93.3906 19.5114C93.2277 19.1723 93.1463 18.7812 93.1463 18.3381C93.1463 17.8911 93.2277 17.4981 93.3906 17.1591C93.5535 16.8182 93.7789 16.553 94.0668 16.3636C94.3565 16.1723 94.6899 16.0767 95.0668 16.0767C95.4437 16.0767 95.776 16.1723 96.0639 16.3636C96.3518 16.5549 96.5772 16.8201 96.7401 17.1591C96.9048 17.4981 96.9872 17.8911 96.9872 18.3381C96.9872 18.7812 96.9058 19.1723 96.7429 19.5114C96.58 19.8485 96.3537 20.1127 96.0639 20.304C95.776 20.4953 95.4437 20.5909 95.0668 20.5909ZM95.0668 20.1278C95.3698 20.1278 95.6264 20.0464 95.8366 19.8835C96.0469 19.7206 96.206 19.5038 96.3139 19.233C96.4238 18.9621 96.4787 18.6638 96.4787 18.3381C96.4787 18.0123 96.4238 17.7131 96.3139 17.4403C96.206 17.1676 96.0469 16.9489 95.8366 16.7841C95.6264 16.6193 95.3698 16.5369 95.0668 16.5369C94.7656 16.5369 94.509 16.6193 94.2969 16.7841C94.0866 16.9489 93.9266 17.1676 93.8168 17.4403C93.7088 17.7131 93.6548 18.0123 93.6548 18.3381C93.6548 18.6638 93.7088 18.9621 93.8168 19.233C93.9266 19.5038 94.0866 19.7206 94.2969 19.8835C94.5071 20.0464 94.7637 20.1278 95.0668 20.1278ZM98.0973 20.5V16.1364H98.5888V16.8068H98.6342C98.7214 16.5814 98.8662 16.4044 99.0689 16.2756C99.2734 16.1449 99.5187 16.0795 99.8047 16.0795C100.106 16.0795 100.353 16.1506 100.546 16.2926C100.741 16.4328 100.887 16.6259 100.984 16.8722H101.021C101.119 16.6297 101.279 16.4375 101.501 16.2955C101.724 16.1515 101.995 16.0795 102.313 16.0795C102.719 16.0795 103.039 16.2074 103.273 16.4631C103.508 16.7169 103.626 17.0881 103.626 17.5767V20.5H103.12V17.5767C103.12 17.232 103.032 16.9735 102.856 16.8011C102.68 16.6288 102.448 16.5426 102.16 16.5426C101.826 16.5426 101.57 16.6449 101.39 16.8494C101.21 17.054 101.12 17.3134 101.12 17.6278V20.5H100.603V17.5312C100.603 17.2358 100.521 16.9972 100.356 16.8153C100.191 16.6335 99.959 16.5426 99.6598 16.5426C99.459 16.5426 99.2782 16.5919 99.1172 16.6903C98.9581 16.7888 98.8321 16.9261 98.7393 17.1023C98.6484 17.2765 98.603 17.4773 98.603 17.7045V20.5H98.0973Z" fill="black"/>
</svg>
