<svg width="18" height="18" viewBox="0 0 18 18" fill="none" xmlns="http://www.w3.org/2000/svg">
<path d="M3.00049 14.9995C2.58799 14.9995 2.23499 14.8528 1.94149 14.5593C1.64799 14.2658 1.50099 13.9125 1.50049 13.4995V4.49951C1.50049 4.08701 1.64749 3.73401 1.94149 3.44051C2.23549 3.14701 2.58849 3.00001 3.00049 2.99951H15.0005C15.413 2.99951 15.7662 3.14651 16.0602 3.44051C16.3542 3.73451 16.501 4.08751 16.5005 4.49951V13.4995C16.5005 13.912 16.3537 14.2653 16.0602 14.5593C15.7667 14.8533 15.4135 15 15.0005 14.9995H3.00049ZM9.00049 9.74951L15.0005 5.99951V4.49951L9.00049 8.24951L3.00049 4.49951V5.99951L9.00049 9.74951Z" fill="#0C2461"/>
</svg>
