<svg width="159" height="31" viewBox="0 0 159 31" fill="none" xmlns="http://www.w3.org/2000/svg">
<path d="M4.44651e-05 10.1819V6.62804e-05H6.10516V1.09382H1.233V4.53416H5.64777V5.62791H1.233V10.1819H4.44651e-05ZM10.5995 10.341C9.91008 10.341 9.30521 10.1769 8.78485 9.84879C8.2678 9.52066 7.86344 9.06162 7.57178 8.47166C7.28343 7.8817 7.13925 7.1923 7.13925 6.40348C7.13925 5.60802 7.28343 4.91366 7.57178 4.32038C7.86344 3.7271 8.2678 3.2664 8.78485 2.93828C9.30521 2.61015 9.91008 2.44609 10.5995 2.44609C11.2889 2.44609 11.8921 2.61015 12.4091 2.93828C12.9295 3.2664 13.3339 3.7271 13.6222 4.32038C13.9139 4.91366 14.0597 5.60802 14.0597 6.40348C14.0597 7.1923 13.9139 7.8817 13.6222 8.47166C13.3339 9.06162 12.9295 9.52066 12.4091 9.84879C11.8921 10.1769 11.2889 10.341 10.5995 10.341ZM10.5995 9.287C11.1232 9.287 11.554 9.15277 11.8921 8.8843C12.2302 8.61583 12.4804 8.26285 12.6428 7.82535C12.8052 7.38785 12.8864 6.91389 12.8864 6.40348C12.8864 5.89306 12.8052 5.41744 12.6428 4.97663C12.4804 4.53581 12.2302 4.17952 11.8921 3.90774C11.554 3.63596 11.1232 3.50007 10.5995 3.50007C10.0758 3.50007 9.64493 3.63596 9.30686 3.90774C8.96879 4.17952 8.71856 4.53581 8.55615 4.97663C8.39375 5.41744 8.31254 5.89306 8.31254 6.40348C8.31254 6.91389 8.39375 7.38785 8.55615 7.82535C8.71856 8.26285 8.96879 8.61583 9.30686 8.8843C9.64493 9.15277 10.0758 9.287 10.5995 9.287ZM18.953 10.341C18.2636 10.341 17.6587 10.1769 17.1384 9.84879C16.6213 9.52066 16.217 9.06162 15.9253 8.47166C15.6369 7.8817 15.4928 7.1923 15.4928 6.40348C15.4928 5.60802 15.6369 4.91366 15.9253 4.32038C16.217 3.7271 16.6213 3.2664 17.1384 2.93828C17.6587 2.61015 18.2636 2.44609 18.953 2.44609C19.6424 2.44609 20.2456 2.61015 20.7627 2.93828C21.283 3.2664 21.6874 3.7271 21.9757 4.32038C22.2674 4.91366 22.4132 5.60802 22.4132 6.40348C22.4132 7.1923 22.2674 7.8817 21.9757 8.47166C21.6874 9.06162 21.283 9.52066 20.7627 9.84879C20.2456 10.1769 19.6424 10.341 18.953 10.341ZM18.953 9.287C19.4767 9.287 19.9075 9.15277 20.2456 8.8843C20.5837 8.61583 20.8339 8.26285 20.9963 7.82535C21.1587 7.38785 21.2399 6.91389 21.2399 6.40348C21.2399 5.89306 21.1587 5.41744 20.9963 4.97663C20.8339 4.53581 20.5837 4.17952 20.2456 3.90774C19.9075 3.63596 19.4767 3.50007 18.953 3.50007C18.4293 3.50007 17.9984 3.63596 17.6604 3.90774C17.3223 4.17952 17.0721 4.53581 16.9097 4.97663C16.7473 5.41744 16.6661 5.89306 16.6661 6.40348C16.6661 6.91389 16.7473 7.38785 16.9097 7.82535C17.0721 8.26285 17.3223 8.61583 17.6604 8.8843C17.9984 9.15277 18.4293 9.287 18.953 9.287ZM27.0878 10.341C26.4514 10.341 25.8896 10.1802 25.4024 9.85873C24.9152 9.53392 24.534 9.07653 24.2589 8.48657C23.9838 7.8933 23.8463 7.1923 23.8463 6.38359C23.8463 5.58151 23.9838 4.88548 24.2589 4.29552C24.534 3.70556 24.9168 3.24983 25.4074 2.92833C25.8979 2.60684 26.4647 2.44609 27.1076 2.44609C27.6048 2.44609 27.9976 2.52895 28.2859 2.69467C28.5776 2.85707 28.7996 3.04268 28.9521 3.25149C29.1079 3.45698 29.2289 3.62601 29.315 3.75859H29.4145V6.62804e-05H30.5878V10.1819H29.4542V9.00859H29.315C29.2289 9.14779 29.1062 9.32346 28.9471 9.53558C28.788 9.74438 28.561 9.93165 28.266 10.0974C27.971 10.2598 27.5783 10.341 27.0878 10.341ZM27.2468 9.287C27.7175 9.287 28.1152 9.16437 28.44 8.9191C28.7648 8.67052 29.0118 8.32748 29.1808 7.88998C29.3498 7.44917 29.4343 6.94041 29.4343 6.3637C29.4343 5.79363 29.3515 5.29481 29.1858 4.86725C29.02 4.43638 28.7748 4.10163 28.45 3.86299C28.1252 3.62104 27.7241 3.50007 27.2468 3.50007C26.7497 3.50007 26.3354 3.62767 26.004 3.88288C25.6758 4.13477 25.4289 4.47781 25.2632 4.912C25.1008 5.34287 25.0196 5.82677 25.0196 6.3637C25.0196 6.90726 25.1024 7.40111 25.2682 7.84524C25.4372 8.28605 25.6858 8.63738 26.0139 8.89921C26.3453 9.15774 26.7563 9.287 27.2468 9.287ZM37.2745 5.26995V6.3637H32.82V5.26995H37.2745ZM42.4214 13.2046C41.8546 13.2046 41.3674 13.1317 40.9597 12.9859C40.5521 12.8433 40.2123 12.6544 39.9406 12.4191C39.6721 12.1871 39.4583 11.9385 39.2992 11.6734L40.2339 11.0171C40.3399 11.1563 40.4742 11.3154 40.6366 11.4944C40.799 11.6767 41.0211 11.8341 41.3028 11.9667C41.5878 12.1026 41.9607 12.1705 42.4214 12.1705C43.0379 12.1705 43.5466 12.0214 43.9477 11.7231C44.3487 11.4248 44.5492 10.9575 44.5492 10.3211V8.76995H44.4498C44.3636 8.90916 44.241 9.08151 44.0819 9.287C43.9261 9.48918 43.7007 9.66981 43.4058 9.8289C43.1141 9.98468 42.7197 10.0626 42.2225 10.0626C41.606 10.0626 41.0525 9.91673 40.562 9.62507C40.0748 9.3334 39.6887 8.90916 39.4036 8.35234C39.1219 7.79552 38.981 7.11938 38.981 6.32393C38.981 5.54173 39.1186 4.86063 39.3937 4.28061C39.6688 3.69727 40.0516 3.24652 40.5421 2.92833C41.0327 2.60684 41.5994 2.44609 42.2424 2.44609C42.7396 2.44609 43.134 2.52895 43.4256 2.69467C43.7206 2.85707 43.946 3.04268 44.1018 3.25149C44.2609 3.45698 44.3835 3.62601 44.4697 3.75859H44.589V2.54552H45.7225V10.4006C45.7225 11.0569 45.5734 11.5905 45.2751 12.0015C44.9801 12.4158 44.5824 12.7191 44.0819 12.9113C43.5847 13.1068 43.0312 13.2046 42.4214 13.2046ZM42.3816 9.00859C42.8523 9.00859 43.25 8.90087 43.5748 8.68544C43.8996 8.47 44.1465 8.1601 44.3156 7.75575C44.4846 7.35139 44.5691 6.86749 44.5691 6.30404C44.5691 5.75385 44.4863 5.2683 44.3205 4.84737C44.1548 4.42644 43.9095 4.09666 43.5847 3.85802C43.2599 3.61938 42.8589 3.50007 42.3816 3.50007C41.8845 3.50007 41.4702 3.62601 41.1387 3.87791C40.8106 4.1298 40.5637 4.46787 40.3979 4.89211C40.2355 5.31635 40.1543 5.787 40.1543 6.30404C40.1543 6.83435 40.2372 7.30333 40.4029 7.711C40.572 8.11536 40.8205 8.43354 41.1487 8.66555C41.4801 8.89424 41.8911 9.00859 42.3816 9.00859ZM47.8703 10.1819V2.54552H49.0038V3.69893H49.0833C49.2225 3.32109 49.4744 3.01451 49.839 2.77919C50.2036 2.54386 50.6146 2.4262 51.072 2.4262C51.1581 2.4262 51.2658 2.42786 51.3951 2.43117C51.5244 2.43449 51.6221 2.43946 51.6884 2.44609V3.63927C51.6487 3.62933 51.5575 3.61441 51.415 3.59453C51.2758 3.57133 51.1283 3.55973 50.9725 3.55973C50.6013 3.55973 50.2699 3.63761 49.9782 3.79339C49.6899 3.94585 49.4612 4.15797 49.2921 4.42975C49.1264 4.69822 49.0435 5.0048 49.0435 5.3495V10.1819H47.8703ZM55.3264 10.3609C54.8425 10.3609 54.4033 10.2697 54.0089 10.0874C53.6145 9.90182 53.3013 9.63501 53.0693 9.287C52.8373 8.93567 52.7213 8.51143 52.7213 8.01427C52.7213 7.57677 52.8075 7.22213 52.9798 6.95035C53.1522 6.67526 53.3825 6.45982 53.6709 6.30404C53.9592 6.14827 54.2774 6.03226 54.6254 5.95603C54.9767 5.87649 55.3297 5.81351 55.6843 5.76711C56.1484 5.70745 56.5245 5.66271 56.8129 5.63288C57.1046 5.59973 57.3167 5.54505 57.4493 5.46882C57.5852 5.39259 57.6531 5.26001 57.6531 5.07109V5.03132C57.6531 4.54079 57.5189 4.15963 57.2504 3.88785C56.9852 3.61607 56.5825 3.48018 56.0423 3.48018C55.4822 3.48018 55.043 3.60281 54.7248 3.84808C54.4066 4.09334 54.1829 4.35518 54.0537 4.63359L52.94 4.23586C53.1389 3.77185 53.404 3.41058 53.7355 3.15206C54.0702 2.89022 54.4348 2.70793 54.8292 2.60518C55.227 2.49912 55.6181 2.44609 56.0025 2.44609C56.2478 2.44609 56.5295 2.47592 56.8477 2.53558C57.1692 2.59192 57.4791 2.70958 57.7774 2.88856C58.079 3.06754 58.3292 3.33766 58.5281 3.69893C58.727 4.0602 58.8264 4.5441 58.8264 5.15063V10.1819H57.6531V9.14779H57.5934C57.5139 9.31351 57.3813 9.49083 57.1957 9.67975C57.0101 9.86867 56.7632 10.0294 56.4549 10.162C56.1467 10.2946 55.7705 10.3609 55.3264 10.3609ZM55.5054 9.30688C55.9694 9.30688 56.3605 9.21574 56.6787 9.03345C57.0002 8.85116 57.2421 8.61583 57.4045 8.32748C57.5702 8.03913 57.6531 7.73586 57.6531 7.41768V6.34382C57.6034 6.40348 57.494 6.45816 57.325 6.50788C57.1593 6.55428 56.967 6.59571 56.7483 6.63217C56.5328 6.66531 56.3224 6.69514 56.1169 6.72166C55.9147 6.74486 55.7506 6.76474 55.6247 6.78132C55.3198 6.82109 55.0347 6.88572 54.7696 6.97521C54.5077 7.06138 54.2956 7.1923 54.1332 7.36796C53.9741 7.54031 53.8946 7.77563 53.8946 8.07393C53.8946 8.4816 54.0454 8.78984 54.347 8.99865C54.6519 9.20414 55.038 9.30688 55.5054 9.30688ZM63.8514 10.341C63.2151 10.341 62.6533 10.1802 62.1661 9.85873C61.6788 9.53392 61.2977 9.07653 61.0226 8.48657C60.7475 7.8933 60.61 7.1923 60.61 6.38359C60.61 5.58151 60.7475 4.88548 61.0226 4.29552C61.2977 3.70556 61.6805 3.24983 62.171 2.92833C62.6616 2.60684 63.2283 2.44609 63.8713 2.44609C64.3685 2.44609 64.7612 2.52895 65.0496 2.69467C65.3412 2.85707 65.5633 3.04268 65.7158 3.25149C65.8716 3.45698 65.9925 3.62601 66.0787 3.75859H66.1781V6.62804e-05H67.3514V10.1819H66.2179V9.00859H66.0787C65.9925 9.14779 65.8699 9.32346 65.7108 9.53558C65.5517 9.74438 65.3247 9.93165 65.0297 10.0974C64.7347 10.2598 64.342 10.341 63.8514 10.341ZM64.0105 9.287C64.4812 9.287 64.8789 9.16437 65.2037 8.9191C65.5285 8.67052 65.7754 8.32748 65.9445 7.88998C66.1135 7.44917 66.198 6.94041 66.198 6.3637C66.198 5.79363 66.1152 5.29481 65.9494 4.86725C65.7837 4.43638 65.5385 4.10163 65.2136 3.86299C64.8888 3.62104 64.4878 3.50007 64.0105 3.50007C63.5134 3.50007 63.0991 3.62767 62.7676 3.88288C62.4395 4.13477 62.1926 4.47781 62.0269 4.912C61.8645 5.34287 61.7832 5.82677 61.7832 6.3637C61.7832 6.90726 61.8661 7.40111 62.0318 7.84524C62.2009 8.28605 62.4494 8.63738 62.7776 8.89921C63.109 9.15774 63.52 9.287 64.0105 9.287ZM72.8649 10.341C72.1291 10.341 71.4944 10.1786 70.9608 9.85376C70.4305 9.52563 70.0212 9.06825 69.7328 8.4816C69.4478 7.89164 69.3053 7.20556 69.3053 6.42336C69.3053 5.64116 69.4478 4.95177 69.7328 4.35518C70.0212 3.75527 70.4222 3.28795 70.9359 2.95319C71.453 2.61512 72.0562 2.44609 72.7456 2.44609C73.1433 2.44609 73.5361 2.51238 73.9239 2.64495C74.3117 2.77753 74.6646 2.99296 74.9828 3.29126C75.301 3.58624 75.5546 3.97734 75.7435 4.46456C75.9324 4.95177 76.0269 5.55168 76.0269 6.26427V6.76143H70.1405V5.74723H74.8337C74.8337 5.31635 74.7475 4.93188 74.5752 4.59382C74.4061 4.25575 74.1642 3.98894 73.8493 3.79339C73.5377 3.59784 73.1698 3.50007 72.7456 3.50007C72.2783 3.50007 71.8739 3.61607 71.5325 3.84808C71.1945 4.07677 70.9343 4.37507 70.752 4.74296C70.5697 5.11086 70.4786 5.50527 70.4786 5.9262V6.60234C70.4786 7.17904 70.578 7.66792 70.7769 8.06896C70.979 8.46669 71.2591 8.76995 71.6171 8.97876C71.975 9.18425 72.391 9.287 72.8649 9.287C73.1732 9.287 73.4516 9.24391 73.7002 9.15774C73.952 9.06825 74.1691 8.93567 74.3514 8.76001C74.5337 8.58103 74.6746 8.35897 74.774 8.09382L75.9075 8.412C75.7882 8.79647 75.5877 9.13454 75.306 9.4262C75.0243 9.71456 74.6762 9.93993 74.2619 10.1023C73.8476 10.2614 73.382 10.341 72.8649 10.341ZM78.6668 10.2614C78.4215 10.2614 78.211 10.1736 78.0354 9.99794C77.8597 9.82227 77.7719 9.61181 77.7719 9.36654C77.7719 9.12128 77.8597 8.91081 78.0354 8.73515C78.211 8.55949 78.4215 8.47166 78.6668 8.47166C78.912 8.47166 79.1225 8.55949 79.2982 8.73515C79.4738 8.91081 79.5617 9.12128 79.5617 9.36654C79.5617 9.52895 79.5202 9.6781 79.4374 9.81399C79.3578 9.94988 79.2501 10.0593 79.1142 10.1421C78.9816 10.2217 78.8325 10.2614 78.6668 10.2614ZM85.7637 10.1819V6.62804e-05H89.3234C90.0327 6.62804e-05 90.6176 0.122699 91.0783 0.367964C91.539 0.609915 91.8821 0.936382 92.1075 1.34737C92.3328 1.75504 92.4455 2.20745 92.4455 2.70461C92.4455 3.14211 92.3676 3.50338 92.2119 3.78842C92.0594 4.07346 91.8572 4.29884 91.6053 4.46456C91.3568 4.63027 91.0866 4.75291 90.795 4.83245V4.93188C91.1065 4.95177 91.4197 5.06115 91.7346 5.26001C92.0495 5.45887 92.313 5.74391 92.5251 6.11512C92.7372 6.48634 92.8433 6.94041 92.8433 7.47734C92.8433 7.98776 92.7273 8.4468 92.4953 8.85447C92.2632 9.26214 91.897 9.58529 91.3965 9.82393C90.8961 10.0626 90.2448 10.1819 89.4427 10.1819H85.7637ZM86.9967 9.08813H89.4427C90.2481 9.08813 90.8198 8.93236 91.1579 8.62081C91.4993 8.30594 91.67 7.92478 91.67 7.47734C91.67 7.13264 91.5821 6.81446 91.4065 6.52279C91.2308 6.22781 90.9806 5.99249 90.6558 5.81683C90.331 5.63785 89.9465 5.54836 89.5024 5.54836H86.9967V9.08813ZM86.9967 4.4745H89.2836C89.6548 4.4745 89.9896 4.40158 90.2879 4.25575C90.5895 4.10991 90.8281 3.90442 91.0038 3.63927C91.1828 3.37412 91.2722 3.06257 91.2722 2.70461C91.2722 2.25717 91.1165 1.87767 90.8049 1.56612C90.4934 1.25125 89.9995 1.09382 89.3234 1.09382H86.9967V4.4745ZM99.5226 7.05973V2.54552H100.696V10.1819H99.5226V8.88927H99.443C99.2641 9.27706 98.9857 9.60684 98.6078 9.87862C98.23 10.1471 97.7527 10.2813 97.176 10.2813C96.6987 10.2813 96.2745 10.1769 95.9033 9.96811C95.5321 9.75599 95.2404 9.4378 95.0283 9.01356C94.8162 8.586 94.7101 8.04741 94.7101 7.39779V2.54552H95.8834V7.31825C95.8834 7.87507 96.0392 8.3192 96.3507 8.65063C96.6656 8.98207 97.0666 9.14779 97.5538 9.14779C97.8455 9.14779 98.1421 9.07322 98.4438 8.92407C98.7487 8.77492 99.0039 8.54623 99.2094 8.23799C99.4182 7.92975 99.5226 7.537 99.5226 7.05973ZM104.018 6.62804e-05V10.1819H102.845V6.62804e-05H104.018ZM107.261 7.39779L107.241 5.94609H107.48L110.821 2.54552H112.272L108.713 6.14495H108.613L107.261 7.39779ZM106.167 10.1819V6.62804e-05H107.34V10.1819H106.167ZM111.019 10.1819L108.036 6.40348L108.872 5.58813L112.511 10.1819H111.019ZM117.515 5.26995V6.3637H113.06V5.26995H117.515ZM119.579 10.1819V2.54552H120.713V3.69893H120.792C120.932 3.32109 121.183 3.01451 121.548 2.77919C121.913 2.54386 122.324 2.4262 122.781 2.4262C122.867 2.4262 122.975 2.42786 123.104 2.43117C123.233 2.43449 123.331 2.43946 123.397 2.44609V3.63927C123.358 3.62933 123.266 3.61441 123.124 3.59453C122.985 3.57133 122.837 3.55973 122.682 3.55973C122.31 3.55973 121.979 3.63761 121.687 3.79339C121.399 3.94585 121.17 4.15797 121.001 4.42975C120.835 4.69822 120.753 5.0048 120.753 5.3495V10.1819H119.579ZM127.758 10.341C127.022 10.341 126.387 10.1786 125.853 9.85376C125.323 9.52563 124.914 9.06825 124.625 8.4816C124.34 7.89164 124.198 7.20556 124.198 6.42336C124.198 5.64116 124.34 4.95177 124.625 4.35518C124.914 3.75527 125.315 3.28795 125.829 2.95319C126.346 2.61512 126.949 2.44609 127.638 2.44609C128.036 2.44609 128.429 2.51238 128.816 2.64495C129.204 2.77753 129.557 2.99296 129.875 3.29126C130.194 3.58624 130.447 3.97734 130.636 4.46456C130.825 4.95177 130.919 5.55168 130.919 6.26427V6.76143H125.033V5.74723H129.726C129.726 5.31635 129.64 4.93188 129.468 4.59382C129.299 4.25575 129.057 3.98894 128.742 3.79339C128.43 3.59784 128.062 3.50007 127.638 3.50007C127.171 3.50007 126.766 3.61607 126.425 3.84808C126.087 4.07677 125.827 4.37507 125.645 4.74296C125.462 5.11086 125.371 5.50527 125.371 5.9262V6.60234C125.371 7.17904 125.471 7.66792 125.669 8.06896C125.872 8.46669 126.152 8.76995 126.51 8.97876C126.868 9.18425 127.284 9.287 127.758 9.287C128.066 9.287 128.344 9.24391 128.593 9.15774C128.845 9.06825 129.062 8.93567 129.244 8.76001C129.426 8.58103 129.567 8.35897 129.667 8.09382L130.8 8.412C130.681 8.79647 130.48 9.13454 130.199 9.4262C129.917 9.71456 129.569 9.93993 129.155 10.1023C128.74 10.2614 128.275 10.341 127.758 10.341ZM134.951 10.3609C134.467 10.3609 134.028 10.2697 133.634 10.0874C133.24 9.90182 132.926 9.63501 132.694 9.287C132.462 8.93567 132.346 8.51143 132.346 8.01427C132.346 7.57677 132.432 7.22213 132.605 6.95035C132.777 6.67526 133.008 6.45982 133.296 6.30404C133.584 6.14827 133.902 6.03226 134.25 5.95603C134.602 5.87649 134.955 5.81351 135.309 5.76711C135.773 5.70745 136.15 5.66271 136.438 5.63288C136.73 5.59973 136.942 5.54505 137.074 5.46882C137.21 5.39259 137.278 5.26001 137.278 5.07109V5.03132C137.278 4.54079 137.144 4.15963 136.875 3.88785C136.61 3.61607 136.208 3.48018 135.667 3.48018C135.107 3.48018 134.668 3.60281 134.35 3.84808C134.032 4.09334 133.808 4.35518 133.679 4.63359L132.565 4.23586C132.764 3.77185 133.029 3.41058 133.36 3.15206C133.695 2.89022 134.06 2.70793 134.454 2.60518C134.852 2.49912 135.243 2.44609 135.628 2.44609C135.873 2.44609 136.155 2.47592 136.473 2.53558C136.794 2.59192 137.104 2.70958 137.402 2.88856C137.704 3.06754 137.954 3.33766 138.153 3.69893C138.352 4.0602 138.451 4.5441 138.451 5.15063V10.1819H137.278V9.14779H137.218C137.139 9.31351 137.006 9.49083 136.821 9.67975C136.635 9.86867 136.388 10.0294 136.08 10.162C135.772 10.2946 135.396 10.3609 134.951 10.3609ZM135.13 9.30688C135.594 9.30688 135.985 9.21574 136.304 9.03345C136.625 8.85116 136.867 8.61583 137.03 8.32748C137.195 8.03913 137.278 7.73586 137.278 7.41768V6.34382C137.228 6.40348 137.119 6.45816 136.95 6.50788C136.784 6.55428 136.592 6.59571 136.373 6.63217C136.158 6.66531 135.947 6.69514 135.742 6.72166C135.54 6.74486 135.376 6.76474 135.25 6.78132C134.945 6.82109 134.66 6.88572 134.395 6.97521C134.133 7.06138 133.921 7.1923 133.758 7.36796C133.599 7.54031 133.52 7.77563 133.52 8.07393C133.52 8.4816 133.67 8.78984 133.972 8.99865C134.277 9.20414 134.663 9.30688 135.13 9.30688ZM143.476 10.341C142.84 10.341 142.278 10.1802 141.791 9.85873C141.304 9.53392 140.923 9.07653 140.648 8.48657C140.372 7.8933 140.235 7.1923 140.235 6.38359C140.235 5.58151 140.372 4.88548 140.648 4.29552C140.923 3.70556 141.306 3.24983 141.796 2.92833C142.287 2.60684 142.853 2.44609 143.496 2.44609C143.993 2.44609 144.386 2.52895 144.675 2.69467C144.966 2.85707 145.188 3.04268 145.341 3.25149C145.497 3.45698 145.618 3.62601 145.704 3.75859H145.803V6.62804e-05H146.976V10.1819H145.843V9.00859H145.704C145.618 9.14779 145.495 9.32346 145.336 9.53558C145.177 9.74438 144.95 9.93165 144.655 10.0974C144.36 10.2598 143.967 10.341 143.476 10.341ZM143.636 9.287C144.106 9.287 144.504 9.16437 144.829 8.9191C145.154 8.67052 145.4 8.32748 145.569 7.88998C145.739 7.44917 145.823 6.94041 145.823 6.3637C145.823 5.79363 145.74 5.29481 145.574 4.86725C145.409 4.43638 145.163 4.10163 144.839 3.86299C144.514 3.62104 144.113 3.50007 143.636 3.50007C143.138 3.50007 142.724 3.62767 142.393 3.88288C142.064 4.13477 141.818 4.47781 141.652 4.912C141.489 5.34287 141.408 5.82677 141.408 6.3637C141.408 6.90726 141.491 7.40111 141.657 7.84524C141.826 8.28605 142.074 8.63738 142.403 8.89921C142.734 9.15774 143.145 9.287 143.636 9.287ZM150.044 13.0455C149.845 13.0455 149.668 13.0289 149.512 12.9958C149.356 12.966 149.248 12.9361 149.189 12.9063L149.487 11.8722C149.772 11.9451 150.024 11.9717 150.243 11.9518C150.462 11.9319 150.655 11.8341 150.824 11.6584C150.997 11.4861 151.154 11.206 151.297 10.8182L151.515 10.2217L148.692 2.54552H149.964L152.072 8.63075H152.152L154.26 2.54552H155.533L152.291 11.2955C152.145 11.6899 151.965 12.0164 151.749 12.2749C151.534 12.5368 151.283 12.7307 150.998 12.8566C150.717 12.9825 150.399 13.0455 150.044 13.0455ZM157.458 10.2614C157.213 10.2614 157.002 10.1736 156.826 9.99794C156.651 9.82227 156.563 9.61181 156.563 9.36654C156.563 9.12128 156.651 8.91081 156.826 8.73515C157.002 8.55949 157.213 8.47166 157.458 8.47166C157.703 8.47166 157.914 8.55949 158.089 8.73515C158.265 8.91081 158.353 9.12128 158.353 9.36654C158.353 9.52895 158.311 9.6781 158.228 9.81399C158.149 9.94988 158.041 10.0593 157.905 10.1421C157.773 10.2217 157.624 10.2614 157.458 10.2614ZM4.44651e-05 30.1819V20.0001H3.5597C4.26898 20.0001 4.85397 20.1227 5.31468 20.368C5.77538 20.6099 6.11842 20.9364 6.34379 21.3474C6.56917 21.755 6.68186 22.2075 6.68186 22.7046C6.68186 23.1421 6.60397 23.5034 6.4482 23.7884C6.29574 24.0735 6.09356 24.2988 5.84166 24.4646C5.59308 24.6303 5.32296 24.7529 5.03129 24.8325V24.9319C5.34285 24.9518 5.65606 25.0611 5.97093 25.26C6.28579 25.4589 6.54929 25.7439 6.76141 26.1151C6.97353 26.4863 7.07959 26.9404 7.07959 27.4773C7.07959 27.9878 6.96359 28.4468 6.73158 28.8545C6.49957 29.2621 6.13333 29.5853 5.63286 29.8239C5.13238 30.0626 4.48111 30.1819 3.67902 30.1819H4.44651e-05ZM1.233 29.0881H3.67902C4.48442 29.0881 5.05615 28.9324 5.39422 28.6208C5.7356 28.3059 5.90629 27.9248 5.90629 27.4773C5.90629 27.1326 5.81846 26.8145 5.6428 26.5228C5.46714 26.2278 5.2169 25.9925 4.89209 25.8168C4.56728 25.6379 4.18281 25.5484 3.73868 25.5484H1.233V29.0881ZM1.233 24.4745H3.51993C3.89114 24.4745 4.2259 24.4016 4.52419 24.2557C4.8258 24.1099 5.06444 23.9044 5.2401 23.6393C5.41908 23.3741 5.50857 23.0626 5.50857 22.7046C5.50857 22.2572 5.35279 21.8777 5.04124 21.5661C4.72968 21.2513 4.23584 21.0938 3.5597 21.0938H1.233V24.4745ZM13.7589 27.0597V22.5455H14.9322V30.1819H13.7589V28.8893H13.6794C13.5004 29.2771 13.222 29.6068 12.8441 29.8786C12.4663 30.1471 11.989 30.2813 11.4123 30.2813C10.9351 30.2813 10.5108 30.1769 10.1396 29.9681C9.76839 29.756 9.47673 29.4378 9.2646 29.0136C9.05248 28.586 8.94642 28.0474 8.94642 27.3978V22.5455H10.1197V27.3182C10.1197 27.8751 10.2755 28.3192 10.587 28.6506C10.9019 28.9821 11.303 29.1478 11.7902 29.1478C12.0818 29.1478 12.3785 29.0732 12.6801 28.9241C12.985 28.7749 13.2402 28.5462 13.4457 28.238C13.6545 27.9298 13.7589 27.537 13.7589 27.0597ZM17.0812 30.1819V22.5455H18.2545V30.1819H17.0812ZM17.6778 21.2728C17.4491 21.2728 17.2519 21.1949 17.0862 21.0391C16.9238 20.8834 16.8426 20.6961 16.8426 20.4773C16.8426 20.2586 16.9238 20.0713 17.0862 19.9155C17.2519 19.7598 17.4491 19.6819 17.6778 19.6819C17.9065 19.6819 18.102 19.7598 18.2644 19.9155C18.4301 20.0713 18.513 20.2586 18.513 20.4773C18.513 20.6961 18.4301 20.8834 18.2644 21.0391C18.102 21.1949 17.9065 21.2728 17.6778 21.2728ZM21.5767 20.0001V30.1819H20.4035V20.0001H21.5767ZM27.0467 22.5455V23.5398H23.0894V22.5455H27.0467ZM24.2428 20.716H25.4161V27.9944C25.4161 28.3258 25.4641 28.5744 25.5602 28.7401C25.6597 28.9025 25.7856 29.0119 25.9381 29.0682C26.0939 29.1213 26.2579 29.1478 26.4303 29.1478C26.5595 29.1478 26.6656 29.1412 26.7484 29.1279C26.8313 29.1113 26.8976 29.0981 26.9473 29.0881L27.1859 30.1421C27.1064 30.1719 26.9954 30.2018 26.8528 30.2316C26.7103 30.2647 26.5297 30.2813 26.3109 30.2813C25.9795 30.2813 25.6547 30.2101 25.3365 30.0675C25.0216 29.925 24.7598 29.7079 24.551 29.4163C24.3455 29.1246 24.2428 28.7567 24.2428 28.3126V20.716ZM36.1497 22.5455V23.5398H32.0332V22.5455H36.1497ZM33.2662 30.1819V21.4915C33.2662 21.054 33.3689 20.6895 33.5744 20.3978C33.7799 20.1061 34.0467 19.8874 34.3749 19.7415C34.703 19.5957 35.0493 19.5228 35.4139 19.5228C35.7023 19.5228 35.9376 19.546 36.1199 19.5924C36.3022 19.6388 36.4381 19.6819 36.5276 19.7217L36.1895 20.7359C36.1298 20.716 36.047 20.6911 35.9409 20.6613C35.8382 20.6315 35.7023 20.6165 35.5332 20.6165C35.1455 20.6165 34.8654 20.7143 34.693 20.9099C34.524 21.1054 34.4395 21.3921 34.4395 21.77V30.1819H33.2662ZM40.5819 30.341C39.8925 30.341 39.2876 30.1769 38.7673 29.8488C38.2502 29.5207 37.8459 29.0616 37.5542 28.4717C37.2658 27.8817 37.1217 27.1923 37.1217 26.4035C37.1217 25.608 37.2658 24.9137 37.5542 24.3204C37.8459 23.7271 38.2502 23.2664 38.7673 22.9383C39.2876 22.6102 39.8925 22.4461 40.5819 22.4461C41.2713 22.4461 41.8745 22.6102 42.3916 22.9383C42.9119 23.2664 43.3163 23.7271 43.6046 24.3204C43.8963 24.9137 44.0421 25.608 44.0421 26.4035C44.0421 27.1923 43.8963 27.8817 43.6046 28.4717C43.3163 29.0616 42.9119 29.5207 42.3916 29.8488C41.8745 30.1769 41.2713 30.341 40.5819 30.341ZM40.5819 29.287C41.1056 29.287 41.5364 29.1528 41.8745 28.8843C42.2126 28.6158 42.4628 28.2629 42.6252 27.8254C42.7876 27.3879 42.8688 26.9139 42.8688 26.4035C42.8688 25.8931 42.7876 25.4174 42.6252 24.9766C42.4628 24.5358 42.2126 24.1795 41.8745 23.9077C41.5364 23.636 41.1056 23.5001 40.5819 23.5001C40.0582 23.5001 39.6274 23.636 39.2893 23.9077C38.9512 24.1795 38.701 24.5358 38.5386 24.9766C38.3762 25.4174 38.295 25.8931 38.295 26.4035C38.295 26.9139 38.3762 27.3879 38.5386 27.8254C38.701 28.2629 38.9512 28.6158 39.2893 28.8843C39.6274 29.1528 40.0582 29.287 40.5819 29.287ZM45.8331 30.1819V22.5455H46.9667V23.6989H47.0462C47.1854 23.3211 47.4373 23.0145 47.8019 22.7792C48.1665 22.5439 48.5775 22.4262 49.0348 22.4262C49.121 22.4262 49.2287 22.4279 49.358 22.4312C49.4873 22.4345 49.585 22.4395 49.6513 22.4461V23.6393C49.6116 23.6293 49.5204 23.6144 49.3779 23.5945C49.2387 23.5713 49.0912 23.5597 48.9354 23.5597C48.5642 23.5597 48.2328 23.6376 47.9411 23.7934C47.6527 23.9459 47.4241 24.158 47.255 24.4298C47.0893 24.6982 47.0064 25.0048 47.0064 25.3495V30.1819H45.8331ZM60.7069 22.5455C60.6472 22.0417 60.4053 21.6506 59.981 21.3722C59.5568 21.0938 59.0364 20.9546 58.42 20.9546C57.9692 20.9546 57.5748 21.0275 57.2367 21.1734C56.902 21.3192 56.6401 21.5197 56.4512 21.7749C56.2656 22.0301 56.1728 22.3201 56.1728 22.645C56.1728 22.9167 56.2374 23.1504 56.3667 23.3459C56.4993 23.5382 56.6683 23.6989 56.8738 23.8282C57.0793 23.9541 57.2947 24.0585 57.5201 24.1414C57.7455 24.2209 57.9526 24.2856 58.1416 24.3353L59.1756 24.6137C59.4408 24.6833 59.7358 24.7794 60.0606 24.9021C60.3887 25.0247 60.7019 25.1921 61.0002 25.4042C61.3018 25.613 61.5504 25.8815 61.746 26.2096C61.9415 26.5377 62.0393 26.9404 62.0393 27.4177C62.0393 27.9679 61.8951 28.465 61.6068 28.9092C61.3217 29.3533 60.9041 29.7063 60.3539 29.9681C59.807 30.2299 59.1425 30.3609 58.3603 30.3609C57.6311 30.3609 56.9997 30.2432 56.4661 30.0079C55.9358 29.7726 55.5182 29.4444 55.2133 29.0235C54.9117 28.6026 54.741 28.1137 54.7012 27.5569H55.9739C56.0071 27.9414 56.1363 28.2595 56.3617 28.5114C56.5904 28.76 56.8788 28.9456 57.2268 29.0682C57.5781 29.1876 57.956 29.2472 58.3603 29.2472C58.831 29.2472 59.2535 29.171 59.6281 29.0185C60.0026 28.8628 60.2992 28.6473 60.518 28.3722C60.7367 28.0938 60.8461 27.769 60.8461 27.3978C60.8461 27.0597 60.7516 26.7846 60.5627 26.5725C60.3738 26.3604 60.1252 26.188 59.817 26.0555C59.5087 25.9229 59.1756 25.8069 58.8177 25.7075L57.5649 25.3495C56.7694 25.1208 56.1397 24.7943 55.6756 24.3701C55.2116 23.9459 54.9796 23.3907 54.9796 22.7046C54.9796 22.1345 55.1337 21.6374 55.442 21.2131C55.7535 20.7856 56.1711 20.4541 56.6948 20.2188C57.2218 19.9802 57.8101 19.8609 58.4597 19.8609C59.116 19.8609 59.6993 19.9785 60.2097 20.2138C60.7202 20.4459 61.1245 20.764 61.4228 21.1684C61.7244 21.5727 61.8835 22.0318 61.9001 22.5455H60.7069ZM67.0096 30.341C66.2937 30.341 65.6772 30.1719 65.1602 29.8339C64.6432 29.4958 64.2454 29.0301 63.967 28.4369C63.6886 27.8436 63.5494 27.1658 63.5494 26.4035C63.5494 25.6279 63.6919 24.9435 63.977 24.3502C64.2653 23.7536 64.6664 23.2879 65.1801 22.9532C65.6971 22.6151 66.3004 22.4461 66.9897 22.4461C67.5267 22.4461 68.0106 22.5455 68.4415 22.7444C68.8723 22.9432 69.2253 23.2217 69.5004 23.5796C69.7755 23.9376 69.9462 24.3552 70.0125 24.8325H68.8392C68.7497 24.4844 68.5508 24.1762 68.2426 23.9077C67.9377 23.636 67.5267 23.5001 67.0096 23.5001C66.5522 23.5001 66.1512 23.6194 65.8065 23.858C65.4651 24.0933 65.1983 24.4264 65.0061 24.8573C64.8172 25.2849 64.7227 25.787 64.7227 26.3637C64.7227 26.9537 64.8155 27.4674 65.0011 27.9049C65.19 28.3424 65.4552 28.6821 65.7966 28.9241C66.1413 29.166 66.5456 29.287 67.0096 29.287C67.3146 29.287 67.5913 29.234 67.8399 29.1279C68.0885 29.0218 68.2989 28.8694 68.4713 28.6705C68.6436 28.4717 68.7663 28.233 68.8392 27.9546H70.0125C69.9462 28.4054 69.7821 28.8114 69.5203 29.1727C69.2618 29.5306 68.9187 29.8156 68.4912 30.0278C68.0669 30.2366 67.5731 30.341 67.0096 30.341ZM73.9748 30.3609C73.4909 30.3609 73.0518 30.2697 72.6574 30.0874C72.2629 29.9018 71.9497 29.635 71.7177 29.287C71.4857 28.9357 71.3697 28.5114 71.3697 28.0143C71.3697 27.5768 71.4559 27.2221 71.6282 26.9504C71.8006 26.6753 72.0309 26.4598 72.3193 26.304C72.6076 26.1483 72.9258 26.0323 73.2738 25.956C73.6252 25.8765 73.9781 25.8135 74.3328 25.7671C74.7968 25.7075 75.173 25.6627 75.4613 25.6329C75.753 25.5997 75.9651 25.545 76.0977 25.4688C76.2336 25.3926 76.3015 25.26 76.3015 25.0711V25.0313C76.3015 24.5408 76.1673 24.1596 75.8988 23.8879C75.6337 23.6161 75.231 23.4802 74.6907 23.4802C74.1306 23.4802 73.6915 23.6028 73.3733 23.8481C73.0551 24.0933 72.8314 24.3552 72.7021 24.6336L71.5885 24.2359C71.7873 23.7718 72.0525 23.4106 72.3839 23.1521C72.7187 22.8902 73.0833 22.7079 73.4777 22.6052C73.8754 22.4991 74.2665 22.4461 74.651 22.4461C74.8962 22.4461 75.178 22.4759 75.4961 22.5356C75.8176 22.5919 76.1275 22.7096 76.4258 22.8886C76.7274 23.0675 76.9777 23.3377 77.1765 23.6989C77.3754 24.0602 77.4748 24.5441 77.4748 25.1506V30.1819H76.3015V29.1478H76.2419C76.1623 29.3135 76.0298 29.4908 75.8441 29.6798C75.6585 29.8687 75.4116 30.0294 75.1034 30.162C74.7951 30.2946 74.419 30.3609 73.9748 30.3609ZM74.1538 29.3069C74.6178 29.3069 75.0089 29.2157 75.3271 29.0334C75.6486 28.8512 75.8906 28.6158 76.053 28.3275C76.2187 28.0391 76.3015 27.7359 76.3015 27.4177V26.3438C76.2518 26.4035 76.1424 26.4582 75.9734 26.5079C75.8077 26.5543 75.6155 26.5957 75.3967 26.6322C75.1813 26.6653 74.9708 26.6951 74.7653 26.7217C74.5631 26.7449 74.3991 26.7647 74.2731 26.7813C73.9682 26.8211 73.6832 26.8857 73.418 26.9752C73.1562 27.0614 72.9441 27.1923 72.7816 27.368C72.6226 27.5403 72.543 27.7756 72.543 28.0739C72.543 28.4816 72.6938 28.7898 72.9954 28.9986C73.3004 29.2041 73.6865 29.3069 74.1538 29.3069ZM80.7896 20.0001V30.1819H79.6163V20.0001H80.7896ZM86.1403 30.341C85.4045 30.341 84.7698 30.1786 84.2362 29.8538C83.7059 29.5256 83.2966 29.0682 83.0082 28.4816C82.7232 27.8916 82.5807 27.2056 82.5807 26.4234C82.5807 25.6412 82.7232 24.9518 83.0082 24.3552C83.2966 23.7553 83.6976 23.2879 84.2113 22.9532C84.7284 22.6151 85.3316 22.4461 86.021 22.4461C86.4187 22.4461 86.8115 22.5124 87.1993 22.645C87.587 22.7775 87.94 22.993 88.2582 23.2913C88.5764 23.5862 88.8299 23.9773 89.0189 24.4646C89.2078 24.9518 89.3022 25.5517 89.3022 26.2643V26.7614H83.4159V25.7472H88.1091C88.1091 25.3164 88.0229 24.9319 87.8505 24.5938C87.6815 24.2557 87.4396 23.9889 87.1247 23.7934C86.8131 23.5978 86.4452 23.5001 86.021 23.5001C85.5537 23.5001 85.1493 23.6161 84.8079 23.8481C84.4699 24.0768 84.2097 24.3751 84.0274 24.743C83.8451 25.1109 83.754 25.5053 83.754 25.9262V26.6023C83.754 27.179 83.8534 27.6679 84.0522 28.069C84.2544 28.4667 84.5345 28.77 84.8924 28.9788C85.2504 29.1843 85.6664 29.287 86.1403 29.287C86.4486 29.287 86.727 29.2439 86.9755 29.1577C87.2274 29.0682 87.4445 28.9357 87.6268 28.76C87.8091 28.581 87.95 28.359 88.0494 28.0938L89.1829 28.412C89.0636 28.7965 88.8631 29.1345 88.5814 29.4262C88.2996 29.7146 87.9516 29.9399 87.5373 30.1023C87.123 30.2614 86.6574 30.341 86.1403 30.341ZM91.9422 30.2614C91.6969 30.2614 91.4864 30.1736 91.3108 29.9979C91.1351 29.8223 91.0473 29.6118 91.0473 29.3665C91.0473 29.1213 91.1351 28.9108 91.3108 28.7352C91.4864 28.5595 91.6969 28.4717 91.9422 28.4717C92.1874 28.4717 92.3979 28.5595 92.5736 28.7352C92.7492 28.9108 92.837 29.1213 92.837 29.3665C92.837 29.5289 92.7956 29.6781 92.7128 29.814C92.6332 29.9499 92.5255 30.0593 92.3896 30.1421C92.257 30.2217 92.1079 30.2614 91.9422 30.2614Z" fill="#2F373D"/>
</svg>
