<svg width="209" height="101" viewBox="0 0 209 101" fill="none" xmlns="http://www.w3.org/2000/svg">
<path d="M2.74628e-05 22.1399V0.269891H4.45503V19.1159H9.58503V22.1399H2.74628e-05ZM11.6807 22.1399V0.269891H21.2117V3.34789H16.1357V9.15289H20.0507V12.2579H16.1357V19.1159H21.2657V22.1399H11.6807ZM25.5716 22.1399V3.59089H22.1966V0.269891H33.3746V3.59089H30.0536V22.1399H25.5716ZM35.0884 7.82989L34.7104 6.50689C35.3764 6.48889 35.8084 6.25489 36.0064 5.80489C36.2224 5.33689 36.3304 4.72489 36.3304 3.96889H34.5214V0.269891H38.2474C38.2474 0.791892 38.2474 1.29589 38.2474 1.78189C38.2474 2.26789 38.2384 2.73589 38.2204 3.18589C38.1664 4.69789 37.9234 5.84989 37.4914 6.64189C37.0774 7.41589 36.2764 7.81189 35.0884 7.82989ZM46.381 22.4369C45.031 22.4369 43.906 22.1939 43.006 21.7079C42.106 21.2039 41.422 20.4569 40.954 19.4669C40.504 18.4589 40.243 17.1809 40.171 15.6329L44.005 14.9849C44.041 15.8849 44.131 16.6409 44.275 17.2529C44.437 17.8469 44.671 18.2969 44.977 18.6029C45.301 18.8909 45.697 19.0349 46.165 19.0349C46.741 19.0349 47.128 18.8549 47.326 18.4949C47.542 18.1349 47.65 17.7209 47.65 17.2529C47.65 16.3349 47.425 15.5699 46.975 14.9579C46.543 14.3279 45.967 13.6979 45.247 13.0679L42.979 11.0969C42.169 10.4129 41.503 9.63889 40.981 8.77489C40.477 7.91089 40.225 6.84889 40.225 5.58889C40.225 3.78889 40.747 2.41189 41.791 1.45789C42.853 0.485891 44.302 -0.000108838 46.138 -0.000108838C47.236 -0.000108838 48.136 0.179892 48.838 0.539892C49.54 0.899892 50.08 1.38589 50.458 1.99789C50.854 2.59189 51.124 3.24889 51.268 3.96889C51.43 4.67089 51.529 5.37289 51.565 6.07489L47.758 6.64189C47.722 5.97589 47.659 5.39089 47.569 4.88689C47.497 4.38289 47.335 3.98689 47.083 3.69889C46.849 3.41089 46.489 3.26689 46.003 3.26689C45.481 3.26689 45.094 3.46489 44.842 3.86089C44.59 4.23889 44.464 4.66189 44.464 5.12989C44.464 5.90389 44.635 6.54289 44.977 7.04689C45.337 7.53289 45.823 8.04589 46.435 8.58589L48.649 10.5299C49.567 11.3219 50.35 12.2309 50.998 13.2569C51.664 14.2649 51.997 15.5159 51.997 17.0099C51.997 18.0359 51.763 18.9629 51.295 19.7909C50.827 20.6189 50.17 21.2669 49.324 21.7349C48.496 22.2029 47.515 22.4369 46.381 22.4369ZM165.745 22.1399L169.984 0.269891H174.925L179.137 22.1399H175.006L174.223 17.3339H170.767L169.93 22.1399H165.745ZM171.172 14.6069H173.791L172.468 5.77789L171.172 14.6069ZM181.354 22.1399V0.269891H184.459L189.319 11.6639V0.269891H192.991V22.1399H190.021L185.161 10.0439V22.1399H181.354ZM196.304 22.1399V0.269891H201.65C203.504 0.269891 204.944 0.512891 205.97 0.998891C207.014 1.46689 207.752 2.21389 208.184 3.23989C208.616 4.24789 208.832 5.54389 208.832 7.12789V15.0929C208.832 16.7129 208.616 18.0449 208.184 19.0889C207.752 20.1329 207.023 20.9069 205.997 21.4109C204.989 21.8969 203.576 22.1399 201.758 22.1399H196.304ZM200.759 19.0349H201.704C202.532 19.0349 203.117 18.9089 203.459 18.6569C203.819 18.3869 204.044 17.9999 204.134 17.4959C204.224 16.9739 204.269 16.3349 204.269 15.5789V6.56089C204.269 5.80489 204.206 5.20189 204.08 4.75189C203.972 4.28389 203.738 3.94189 203.378 3.72589C203.036 3.50989 202.469 3.40189 201.677 3.40189H200.759V19.0349ZM2.74628e-05 61.1399V39.2699H5.53503C6.48903 39.2699 7.37103 39.3509 8.18103 39.5129C8.99103 39.6749 9.70203 39.9629 10.314 40.3769C10.944 40.7909 11.421 41.3669 11.745 42.1049C12.087 42.8249 12.258 43.7699 12.258 44.9399C12.258 45.8219 12.132 46.5779 11.88 47.2079C11.628 47.8199 11.268 48.3059 10.8 48.6659C10.332 49.0259 9.75603 49.2689 9.07203 49.3949C9.91803 49.5209 10.629 49.8089 11.205 50.2589C11.781 50.7089 12.213 51.3029 12.501 52.0409C12.789 52.7789 12.933 53.6699 12.933 54.7139C12.933 55.8119 12.789 56.7659 12.501 57.5759C12.231 58.3859 11.826 59.0519 11.286 59.5739C10.746 60.0959 10.08 60.4919 9.28803 60.7619C8.49603 61.0139 7.57803 61.1399 6.53403 61.1399H2.74628e-05ZM4.45503 58.0079H5.69703C6.81303 58.0079 7.57803 57.7289 7.99203 57.1709C8.42403 56.6129 8.64003 55.7759 8.64003 54.6599C8.64003 53.7959 8.54103 53.1119 8.34303 52.6079C8.14503 52.0859 7.82103 51.7079 7.37103 51.4739C6.93903 51.2219 6.35403 51.0959 5.61603 51.0959H4.45503V58.0079ZM4.45503 48.0989H5.56203C6.33603 48.0989 6.92103 47.9909 7.31703 47.7749C7.71303 47.5409 7.98303 47.1989 8.12703 46.7489C8.28903 46.2809 8.37003 45.7139 8.37003 45.0479C8.37003 44.3819 8.25303 43.8509 8.01903 43.4549C7.80303 43.0409 7.46103 42.7439 6.99303 42.5639C6.54303 42.3839 5.96703 42.2939 5.26503 42.2939H4.45503V48.0989ZM21.6599 61.4369C20.0039 61.4369 18.7169 61.1579 17.7989 60.5999C16.8809 60.0239 16.2329 59.2049 15.8549 58.1429C15.4949 57.0629 15.3149 55.7579 15.3149 54.2279V39.2699H19.7159V54.8489C19.7159 55.3889 19.7519 55.9199 19.8239 56.4419C19.9139 56.9639 20.0939 57.3869 20.3639 57.7109C20.6519 58.0349 21.0839 58.1969 21.6599 58.1969C22.2539 58.1969 22.6859 58.0349 22.9559 57.7109C23.2439 57.3869 23.4239 56.9639 23.4959 56.4419C23.5679 55.9199 23.6039 55.3889 23.6039 54.8489V39.2699H28.0049V54.2279C28.0049 55.7579 27.8159 57.0629 27.4379 58.1429C27.0779 59.2049 26.4389 60.0239 25.5209 60.5999C24.6029 61.1579 23.3159 61.4369 21.6599 61.4369ZM31.1673 61.1399V39.2699H35.5953V61.1399H31.1673ZM38.9444 61.1399V39.2699H43.3994V58.1159H48.5294V61.1399H38.9444ZM50.625 61.1399V39.2699H55.971C57.825 39.2699 59.265 39.5129 60.291 39.9989C61.335 40.4669 62.073 41.2139 62.505 42.2399C62.937 43.2479 63.153 44.5439 63.153 46.1279V54.0929C63.153 55.7129 62.937 57.0449 62.505 58.0889C62.073 59.1329 61.344 59.9069 60.318 60.4109C59.31 60.8969 57.897 61.1399 56.079 61.1399H50.625ZM55.08 58.0349H56.025C56.853 58.0349 57.438 57.9089 57.78 57.6569C58.14 57.3869 58.365 56.9999 58.455 56.4959C58.545 55.9739 58.59 55.3349 58.59 54.5789V45.5609C58.59 44.8049 58.527 44.2019 58.401 43.7519C58.293 43.2839 58.059 42.9419 57.699 42.7259C57.357 42.5099 56.79 42.4019 55.998 42.4019H55.08V58.0349Z" fill="#15889B"/>
<path d="M67.1678 22.4369C65.5478 22.4369 64.2608 22.1309 63.3068 21.5189C62.3708 20.9069 61.7138 20.0609 61.3358 18.9809C60.9578 17.8829 60.7688 16.6139 60.7688 15.1739V7.31689C60.7688 5.80489 60.9578 4.50889 61.3358 3.42889C61.7138 2.33089 62.3708 1.48489 63.3068 0.890891C64.2608 0.296891 65.5478 -0.000108838 67.1678 -0.000108838C68.7338 -0.000108838 69.9578 0.260892 70.8398 0.782892C71.7398 1.30489 72.3698 2.04289 72.7298 2.99689C73.1078 3.95089 73.2968 5.05789 73.2968 6.31789V8.15389H68.9768V6.10189C68.9768 5.59789 68.9498 5.12989 68.8958 4.69789C68.8418 4.24789 68.6888 3.88789 68.4368 3.61789C68.2028 3.32989 67.7888 3.18589 67.1948 3.18589C66.6008 3.18589 66.1688 3.32989 65.8988 3.61789C65.6288 3.90589 65.4578 4.28389 65.3858 4.75189C65.3138 5.20189 65.2778 5.70589 65.2778 6.26389V16.1999C65.2778 16.8119 65.3228 17.3519 65.4128 17.8199C65.5208 18.2699 65.7098 18.6209 65.9798 18.8729C66.2678 19.1069 66.6728 19.2239 67.1948 19.2239C67.7708 19.2239 68.1758 19.0889 68.4098 18.8189C68.6618 18.5309 68.8148 18.1529 68.8688 17.6849C68.9408 17.2169 68.9768 16.7219 68.9768 16.1999V14.0669H73.2968V15.8759C73.2968 17.1539 73.1168 18.2879 72.7568 19.2779C72.3968 20.2499 71.7758 21.0239 70.8938 21.5999C70.0118 22.1579 68.7698 22.4369 67.1678 22.4369ZM82.1186 22.4369C80.5166 22.4369 79.2476 22.1489 78.3116 21.5729C77.3756 20.9969 76.7006 20.1779 76.2866 19.1159C75.8906 18.0359 75.6926 16.7489 75.6926 15.2549V7.10089C75.6926 5.60689 75.8906 4.32889 76.2866 3.26689C76.7006 2.20489 77.3756 1.39489 78.3116 0.836892C79.2476 0.278891 80.5166 -0.000108838 82.1186 -0.000108838C83.7386 -0.000108838 85.0166 0.287891 85.9526 0.863891C86.9066 1.42189 87.5816 2.23189 87.9776 3.29389C88.3916 4.33789 88.5986 5.60689 88.5986 7.10089V15.2549C88.5986 16.7489 88.3916 18.0359 87.9776 19.1159C87.5816 20.1779 86.9066 20.9969 85.9526 21.5729C85.0166 22.1489 83.7386 22.4369 82.1186 22.4369ZM82.1186 19.2239C82.6946 19.2239 83.1176 19.0979 83.3876 18.8459C83.6576 18.5759 83.8376 18.2249 83.9276 17.7929C84.0176 17.3429 84.0626 16.8659 84.0626 16.3619V6.02089C84.0626 5.51689 84.0176 5.04889 83.9276 4.61689C83.8376 4.18489 83.6576 3.84289 83.3876 3.59089C83.1176 3.32089 82.6946 3.18589 82.1186 3.18589C81.5786 3.18589 81.1736 3.32089 80.9036 3.59089C80.6336 3.84289 80.4536 4.18489 80.3636 4.61689C80.2736 5.04889 80.2286 5.51689 80.2286 6.02089V16.3619C80.2286 16.8659 80.2646 17.3429 80.3366 17.7929C80.4266 18.2249 80.6066 18.5759 80.8766 18.8459C81.1466 19.0979 81.5606 19.2239 82.1186 19.2239ZM91.5733 22.1399V0.269891H94.6783L99.5383 11.6639V0.269891H103.21V22.1399H100.24L95.3803 10.0439V22.1399H91.5733ZM106.523 22.1399V0.269891H109.628L114.488 11.6639V0.269891H118.16V22.1399H115.19L110.33 10.0439V22.1399H106.523ZM121.474 22.1399V0.269891H131.005V3.34789H125.929V9.15289H129.844V12.2579H125.929V19.1159H131.059V22.1399H121.474ZM139.388 22.4369C137.768 22.4369 136.481 22.1309 135.527 21.5189C134.591 20.9069 133.934 20.0609 133.556 18.9809C133.178 17.8829 132.989 16.6139 132.989 15.1739V7.31689C132.989 5.80489 133.178 4.50889 133.556 3.42889C133.934 2.33089 134.591 1.48489 135.527 0.890891C136.481 0.296891 137.768 -0.000108838 139.388 -0.000108838C140.954 -0.000108838 142.178 0.260892 143.06 0.782892C143.96 1.30489 144.59 2.04289 144.95 2.99689C145.328 3.95089 145.517 5.05789 145.517 6.31789V8.15389H141.197V6.10189C141.197 5.59789 141.17 5.12989 141.116 4.69789C141.062 4.24789 140.909 3.88789 140.657 3.61789C140.423 3.32989 140.009 3.18589 139.415 3.18589C138.821 3.18589 138.389 3.32989 138.119 3.61789C137.849 3.90589 137.678 4.28389 137.606 4.75189C137.534 5.20189 137.498 5.70589 137.498 6.26389V16.1999C137.498 16.8119 137.543 17.3519 137.633 17.8199C137.741 18.2699 137.93 18.6209 138.2 18.8729C138.488 19.1069 138.893 19.2239 139.415 19.2239C139.991 19.2239 140.396 19.0889 140.63 18.8189C140.882 18.5309 141.035 18.1529 141.089 17.6849C141.161 17.2169 141.197 16.7219 141.197 16.1999V14.0669H145.517V15.8759C145.517 17.1539 145.337 18.2879 144.977 19.2779C144.617 20.2499 143.996 21.0239 143.114 21.5999C142.232 22.1579 140.99 22.4369 139.388 22.4369ZM150.288 22.1399V3.59089H146.913V0.269891H158.091V3.59089H154.77V22.1399H150.288ZM78.5226 61.4369C77.1726 61.4369 76.0476 61.1939 75.1476 60.7079C74.2476 60.2039 73.5636 59.4569 73.0956 58.4669C72.6456 57.4589 72.3846 56.1809 72.3126 54.6329L76.1466 53.9849C76.1826 54.8849 76.2726 55.6409 76.4166 56.2529C76.5786 56.8469 76.8126 57.2969 77.1186 57.6029C77.4426 57.8909 77.8386 58.0349 78.3066 58.0349C78.8826 58.0349 79.2696 57.8549 79.4676 57.4949C79.6836 57.1349 79.7916 56.7209 79.7916 56.2529C79.7916 55.3349 79.5666 54.5699 79.1166 53.9579C78.6846 53.3279 78.1086 52.6979 77.3886 52.0679L75.1206 50.0969C74.3106 49.4129 73.6446 48.6389 73.1226 47.7749C72.6186 46.9109 72.3666 45.8489 72.3666 44.5889C72.3666 42.7889 72.8886 41.4119 73.9326 40.4579C74.9946 39.4859 76.4436 38.9999 78.2796 38.9999C79.3776 38.9999 80.2776 39.1799 80.9796 39.5399C81.6816 39.8999 82.2216 40.3859 82.5996 40.9979C82.9956 41.5919 83.2656 42.2489 83.4096 42.9689C83.5716 43.6709 83.6706 44.3729 83.7066 45.0749L79.8996 45.6419C79.8636 44.9759 79.8006 44.3909 79.7106 43.8869C79.6386 43.3829 79.4766 42.9869 79.2246 42.6989C78.9906 42.4109 78.6306 42.2669 78.1446 42.2669C77.6226 42.2669 77.2356 42.4649 76.9836 42.8609C76.7316 43.2389 76.6056 43.6619 76.6056 44.1299C76.6056 44.9039 76.7766 45.5429 77.1186 46.0469C77.4786 46.5329 77.9646 47.0459 78.5766 47.5859L80.7906 49.5299C81.7086 50.3219 82.4916 51.2309 83.1396 52.2569C83.8056 53.2649 84.1386 54.5159 84.1386 56.0099C84.1386 57.0359 83.9046 57.9629 83.4366 58.7909C82.9686 59.6189 82.3116 60.2669 81.4656 60.7349C80.6376 61.2029 79.6566 61.4369 78.5226 61.4369ZM88.5364 61.1399V42.5909H85.1614V39.2699H96.3394V42.5909H93.0184V61.1399H88.5364ZM98.3233 61.1399V39.2699H103.993C105.469 39.2699 106.729 39.4409 107.773 39.7829C108.835 40.1069 109.645 40.6919 110.203 41.5379C110.779 42.3839 111.067 43.5539 111.067 45.0479C111.067 45.9479 110.986 46.7489 110.824 47.4509C110.68 48.1349 110.41 48.7379 110.014 49.2599C109.636 49.7639 109.096 50.1689 108.394 50.4749L111.418 61.1399H106.855L104.344 51.2309H102.778V61.1399H98.3233ZM102.778 48.5849H104.074C104.794 48.5849 105.361 48.4679 105.775 48.2339C106.189 47.9999 106.477 47.6489 106.639 47.1809C106.819 46.6949 106.909 46.1009 106.909 45.3989C106.909 44.3909 106.72 43.6259 106.342 43.1039C105.982 42.5639 105.298 42.2939 104.29 42.2939H102.778V48.5849ZM119.982 61.4369C118.38 61.4369 117.111 61.1489 116.175 60.5729C115.239 59.9969 114.564 59.1779 114.15 58.1159C113.754 57.0359 113.556 55.7489 113.556 54.2549V46.1009C113.556 44.6069 113.754 43.3289 114.15 42.2669C114.564 41.2049 115.239 40.3949 116.175 39.8369C117.111 39.2789 118.38 38.9999 119.982 38.9999C121.602 38.9999 122.88 39.2879 123.816 39.8639C124.77 40.4219 125.445 41.2319 125.841 42.2939C126.255 43.3379 126.462 44.6069 126.462 46.1009V54.2549C126.462 55.7489 126.255 57.0359 125.841 58.1159C125.445 59.1779 124.77 59.9969 123.816 60.5729C122.88 61.1489 121.602 61.4369 119.982 61.4369ZM119.982 58.2239C120.558 58.2239 120.981 58.0979 121.251 57.8459C121.521 57.5759 121.701 57.2249 121.791 56.7929C121.881 56.3429 121.926 55.8659 121.926 55.3619V45.0209C121.926 44.5169 121.881 44.0489 121.791 43.6169C121.701 43.1849 121.521 42.8429 121.251 42.5909C120.981 42.3209 120.558 42.1859 119.982 42.1859C119.442 42.1859 119.037 42.3209 118.767 42.5909C118.497 42.8429 118.317 43.1849 118.227 43.6169C118.137 44.0489 118.092 44.5169 118.092 45.0209V55.3619C118.092 55.8659 118.128 56.3429 118.2 56.7929C118.29 57.2249 118.47 57.5759 118.74 57.8459C119.01 58.0979 119.424 58.2239 119.982 58.2239ZM129.437 61.1399V39.2699H132.542L137.402 50.6639V39.2699H141.074V61.1399H138.104L133.244 49.0439V61.1399H129.437ZM149.976 61.4639C148.5 61.4639 147.33 61.1579 146.466 60.5459C145.602 59.9159 144.981 59.0339 144.603 57.8999C144.243 56.7479 144.063 55.4159 144.063 53.9039V46.5869C144.063 45.0209 144.252 43.6709 144.63 42.5369C145.008 41.4029 145.665 40.5299 146.601 39.9179C147.555 39.3059 148.842 38.9999 150.462 38.9999C152.028 38.9999 153.261 39.2609 154.161 39.7829C155.079 40.3049 155.736 41.0429 156.132 41.9969C156.528 42.9509 156.726 44.0849 156.726 45.3989V46.6679H152.379V45.1289C152.379 44.5529 152.343 44.0489 152.271 43.6169C152.199 43.1669 152.028 42.8159 151.758 42.5639C151.506 42.3119 151.092 42.1859 150.516 42.1859C149.922 42.1859 149.49 42.3389 149.22 42.6449C148.95 42.9509 148.779 43.3469 148.707 43.8329C148.635 44.3009 148.599 44.8049 148.599 45.3449V55.0379C148.599 55.6499 148.653 56.1989 148.761 56.6849C148.869 57.1709 149.067 57.5489 149.355 57.8189C149.661 58.0889 150.093 58.2239 150.651 58.2239C151.209 58.2239 151.641 58.0799 151.947 57.7919C152.253 57.5039 152.46 57.1169 152.568 56.6309C152.694 56.1269 152.757 55.5599 152.757 54.9299V52.6079H150.624V49.9079H156.78V61.1399H153.864L153.594 59.1689C153.306 59.8349 152.874 60.3839 152.298 60.8159C151.722 61.2479 150.948 61.4639 149.976 61.4639ZM159.838 61.1399V39.2699H169.369V42.3479H164.293V48.1529H168.208V51.2579H164.293V58.1159H169.423V61.1399H159.838ZM171.677 61.1399V39.2699H177.347C178.823 39.2699 180.083 39.4409 181.127 39.7829C182.189 40.1069 182.999 40.6919 183.557 41.5379C184.133 42.3839 184.421 43.5539 184.421 45.0479C184.421 45.9479 184.34 46.7489 184.178 47.4509C184.034 48.1349 183.764 48.7379 183.368 49.2599C182.99 49.7639 182.45 50.1689 181.748 50.4749L184.772 61.1399H180.209L177.698 51.2309H176.132V61.1399H171.677ZM176.132 48.5849H177.428C178.148 48.5849 178.715 48.4679 179.129 48.2339C179.543 47.9999 179.831 47.6489 179.993 47.1809C180.173 46.6949 180.263 46.1009 180.263 45.3989C180.263 44.3909 180.074 43.6259 179.696 43.1039C179.336 42.5639 178.652 42.2939 177.644 42.2939H176.132V48.5849ZM2.74628e-05 100.14V78.2699H6.93903C8.25303 78.2699 9.32403 78.5219 10.152 79.0259C10.98 79.5119 11.592 80.2229 11.988 81.1589C12.402 82.0949 12.609 83.2289 12.609 84.5609C12.609 86.1269 12.339 87.3509 11.799 88.2329C11.277 89.1149 10.557 89.7449 9.63903 90.1229C8.72103 90.4829 7.66803 90.6629 6.48003 90.6629H4.45503V100.14H2.74628e-05ZM4.45503 87.5309H6.02103C6.66903 87.5309 7.16403 87.4319 7.50603 87.2339C7.86603 87.0179 8.10903 86.6849 8.23503 86.2349C8.36103 85.7849 8.42403 85.2089 8.42403 84.5069C8.42403 83.8409 8.37003 83.2829 8.26203 82.8329C8.17203 82.3829 7.95603 82.0319 7.61403 81.7799C7.27203 81.5279 6.73203 81.4019 5.99403 81.4019H4.45503V87.5309ZM12.5519 100.14L16.7909 78.2699H21.7319L25.9439 100.14H21.8129L21.0299 95.3339H17.5739L16.7369 100.14H12.5519ZM17.9789 92.6069H20.5979L19.2749 83.7779L17.9789 92.6069ZM33.9451 100.437C32.3251 100.437 31.0381 100.131 30.0841 99.5189C29.1481 98.9069 28.4911 98.0609 28.1131 96.9809C27.7351 95.8829 27.5461 94.6139 27.5461 93.1739V85.3169C27.5461 83.8049 27.7351 82.5089 28.1131 81.4289C28.4911 80.3309 29.1481 79.4849 30.0841 78.8909C31.0381 78.2969 32.3251 77.9999 33.9451 77.9999C35.5111 77.9999 36.7351 78.2609 37.6171 78.7829C38.5171 79.3049 39.1471 80.0429 39.5071 80.9969C39.8851 81.9509 40.0741 83.0579 40.0741 84.3179V86.1539H35.7541V84.1019C35.7541 83.5979 35.7271 83.1299 35.6731 82.6979C35.6191 82.2479 35.4661 81.8879 35.2141 81.6179C34.9801 81.3299 34.5661 81.1859 33.9721 81.1859C33.3781 81.1859 32.9461 81.3299 32.6761 81.6179C32.4061 81.9059 32.2351 82.2839 32.1631 82.7519C32.0911 83.2019 32.0551 83.7059 32.0551 84.2639V94.1999C32.0551 94.8119 32.1001 95.3519 32.1901 95.8199C32.2981 96.2699 32.4871 96.6209 32.7571 96.8729C33.0451 97.1069 33.4501 97.2239 33.9721 97.2239C34.5481 97.2239 34.9531 97.0889 35.1871 96.8189C35.4391 96.5309 35.5921 96.1529 35.6461 95.6849C35.7181 95.2169 35.7541 94.7219 35.7541 94.1999V92.0669H40.0741V93.8759C40.0741 95.1539 39.8941 96.2879 39.5341 97.2779C39.1741 98.2499 38.5531 99.0239 37.6711 99.5999C36.7891 100.158 35.5471 100.437 33.9451 100.437ZM42.794 100.14V78.2699H47.249V87.5039L51.191 78.2699H55.511L51.407 88.0979L55.808 100.14H51.326L47.951 90.3389L47.249 91.5809V100.14H42.794ZM57.7454 100.14V78.2699H62.1734V100.14H57.7454ZM65.5225 100.14V78.2699H68.6275L73.4875 89.6639V78.2699H77.1595V100.14H74.1895L69.3295 88.0439V100.14H65.5225ZM86.0617 100.464C84.5857 100.464 83.4157 100.158 82.5517 99.5459C81.6877 98.9159 81.0667 98.0339 80.6887 96.8999C80.3287 95.7479 80.1487 94.4159 80.1487 92.9039V85.5869C80.1487 84.0209 80.3377 82.6709 80.7157 81.5369C81.0937 80.4029 81.7507 79.5299 82.6867 78.9179C83.6407 78.3059 84.9277 77.9999 86.5477 77.9999C88.1137 77.9999 89.3467 78.2609 90.2467 78.7829C91.1647 79.3049 91.8217 80.0429 92.2177 80.9969C92.6137 81.9509 92.8117 83.0849 92.8117 84.3989V85.6679H88.4647V84.1289C88.4647 83.5529 88.4287 83.0489 88.3567 82.6169C88.2847 82.1669 88.1137 81.8159 87.8437 81.5639C87.5917 81.3119 87.1777 81.1859 86.6017 81.1859C86.0077 81.1859 85.5757 81.3389 85.3057 81.6449C85.0357 81.9509 84.8647 82.3469 84.7927 82.8329C84.7207 83.3009 84.6847 83.8049 84.6847 84.3449V94.0379C84.6847 94.6499 84.7387 95.1989 84.8467 95.6849C84.9547 96.1709 85.1527 96.5489 85.4407 96.8189C85.7467 97.0889 86.1787 97.2239 86.7367 97.2239C87.2947 97.2239 87.7267 97.0799 88.0327 96.7919C88.3387 96.5039 88.5457 96.1169 88.6537 95.6309C88.7797 95.1269 88.8427 94.5599 88.8427 93.9299V91.6079H86.7097V88.9079H92.8657V100.14H89.9497L89.6797 98.1689C89.3917 98.8349 88.9597 99.3839 88.3837 99.8159C87.8077 100.248 87.0337 100.464 86.0617 100.464Z" fill="#2F373D"/>
</svg>
