<svg width="155" height="48" viewBox="0 0 155 48" fill="none" xmlns="http://www.w3.org/2000/svg">
<path d="M0.772727 22.5V16.6818H2.65057C3.06345 16.6818 3.40814 16.7566 3.68466 16.9062C3.96307 17.054 4.17235 17.2595 4.3125 17.5227C4.45455 17.7841 4.52557 18.0843 4.52557 18.4233C4.52557 18.7623 4.45455 19.0616 4.3125 19.321C4.17235 19.5805 3.96402 19.7831 3.6875 19.929C3.41098 20.0748 3.06818 20.1477 2.65909 20.1477H1.05966V19.6619H2.64489C2.94792 19.6619 3.19981 19.6117 3.40057 19.5114C3.60322 19.411 3.75379 19.268 3.85227 19.0824C3.95265 18.8968 4.00284 18.6771 4.00284 18.4233C4.00284 18.1695 3.95265 17.9479 3.85227 17.7585C3.75189 17.5672 3.60038 17.4195 3.39773 17.3153C3.19697 17.2112 2.94318 17.1591 2.63636 17.1591H1.30398V22.5H0.772727ZM3.33807 19.875L4.76989 22.5H4.15625L2.73864 19.875H3.33807ZM5.8196 22.5V16.6818H6.35085V19.8153H6.40199L9.2429 16.6818H9.94176L7.45597 19.3722L9.9304 22.5H9.28267L7.12642 19.7415L6.35085 20.6108V22.5H5.8196ZM13.1946 22.5V16.6818H15.0724C15.4853 16.6818 15.83 16.7614 16.1065 16.9205C16.3849 17.0777 16.5942 17.2917 16.7344 17.5625C16.8764 17.8333 16.9474 18.1383 16.9474 18.4773C16.9474 18.8163 16.8774 19.1222 16.7372 19.3949C16.5971 19.6657 16.3887 19.8807 16.1122 20.0398C15.8357 20.197 15.492 20.2756 15.081 20.2756H13.6037V19.7983H15.0668C15.3717 19.7983 15.6245 19.7415 15.8253 19.6278C16.026 19.5123 16.1757 19.3551 16.2741 19.1562C16.3745 18.9574 16.4247 18.7311 16.4247 18.4773C16.4247 18.2235 16.3745 17.9972 16.2741 17.7983C16.1757 17.5994 16.0251 17.4432 15.8224 17.3295C15.6217 17.2159 15.367 17.1591 15.0582 17.1591H13.7259V22.5H13.1946ZM19.7386 22.5909C19.3617 22.5909 19.0284 22.4953 18.7386 22.304C18.4508 22.1127 18.2254 21.8485 18.0625 21.5114C17.8996 21.1723 17.8182 20.7812 17.8182 20.3381C17.8182 19.8911 17.8996 19.4981 18.0625 19.1591C18.2254 18.8182 18.4508 18.553 18.7386 18.3636C19.0284 18.1723 19.3617 18.0767 19.7386 18.0767C20.1155 18.0767 20.4479 18.1723 20.7358 18.3636C21.0237 18.5549 21.2491 18.8201 21.4119 19.1591C21.5767 19.4981 21.6591 19.8911 21.6591 20.3381C21.6591 20.7812 21.5777 21.1723 21.4148 21.5114C21.2519 21.8485 21.0256 22.1127 20.7358 22.304C20.4479 22.4953 20.1155 22.5909 19.7386 22.5909ZM19.7386 22.1278C20.0417 22.1278 20.2983 22.0464 20.5085 21.8835C20.7188 21.7206 20.8778 21.5038 20.9858 21.233C21.0956 20.9621 21.1506 20.6638 21.1506 20.3381C21.1506 20.0123 21.0956 19.7131 20.9858 19.4403C20.8778 19.1676 20.7188 18.9489 20.5085 18.7841C20.2983 18.6193 20.0417 18.5369 19.7386 18.5369C19.4375 18.5369 19.1809 18.6193 18.9688 18.7841C18.7585 18.9489 18.5985 19.1676 18.4886 19.4403C18.3807 19.7131 18.3267 20.0123 18.3267 20.3381C18.3267 20.6638 18.3807 20.9621 18.4886 21.233C18.5985 21.5038 18.7585 21.7206 18.9688 21.8835C19.179 22.0464 19.4356 22.1278 19.7386 22.1278ZM23.2749 16.6818V22.5H22.7692V16.6818H23.2749ZM24.9652 24.1364C24.8648 24.1364 24.7711 24.1269 24.6839 24.108C24.5968 24.089 24.5277 24.0682 24.4766 24.0455L24.6129 23.5994C24.7853 23.6525 24.9387 23.6714 25.0732 23.6562C25.2076 23.643 25.3269 23.5824 25.4311 23.4744C25.5353 23.3684 25.6281 23.2055 25.7095 22.9858L25.8686 22.5426L24.2635 18.1364H24.8118L26.1072 21.8324H26.147L27.4425 18.1364H27.9908L26.1442 23.1903C26.0665 23.4006 25.9709 23.5758 25.8572 23.7159C25.7436 23.858 25.612 23.9631 25.4624 24.0312C25.3146 24.1013 25.1489 24.1364 24.9652 24.1364ZM31.3352 22.5V16.6818H33.2131C33.6259 16.6818 33.9706 16.7614 34.2472 16.9205C34.5256 17.0777 34.7348 17.2917 34.875 17.5625C35.017 17.8333 35.0881 18.1383 35.0881 18.4773C35.0881 18.8163 35.018 19.1222 34.8778 19.3949C34.7377 19.6657 34.5294 19.8807 34.2528 20.0398C33.9763 20.197 33.6326 20.2756 33.2216 20.2756H31.7443V19.7983H33.2074C33.5123 19.7983 33.7652 19.7415 33.9659 19.6278C34.1667 19.5123 34.3163 19.3551 34.4148 19.1562C34.5152 18.9574 34.5653 18.7311 34.5653 18.4773C34.5653 18.2235 34.5152 17.9972 34.4148 17.7983C34.3163 17.5994 34.1657 17.4432 33.9631 17.3295C33.7623 17.2159 33.5076 17.1591 33.1989 17.1591H31.8665V22.5H31.3352ZM36.2301 22.5V18.1364H36.7216V18.8068H36.7585C36.8456 18.5871 36.9972 18.41 37.2131 18.2756C37.4309 18.1392 37.6771 18.071 37.9517 18.071C37.9934 18.071 38.0398 18.072 38.0909 18.0739C38.142 18.0758 38.1847 18.0777 38.2188 18.0795V18.5938C38.196 18.59 38.1563 18.5843 38.0994 18.5767C38.0426 18.5691 37.9811 18.5653 37.9148 18.5653C37.6875 18.5653 37.4848 18.6136 37.3068 18.7102C37.1307 18.8049 36.9915 18.9366 36.8892 19.1051C36.7869 19.2737 36.7358 19.4659 36.7358 19.6818V22.5H36.2301ZM40.6449 22.5909C40.268 22.5909 39.9347 22.4953 39.6449 22.304C39.357 22.1127 39.1316 21.8485 38.9688 21.5114C38.8059 21.1723 38.7244 20.7812 38.7244 20.3381C38.7244 19.8911 38.8059 19.4981 38.9688 19.1591C39.1316 18.8182 39.357 18.553 39.6449 18.3636C39.9347 18.1723 40.268 18.0767 40.6449 18.0767C41.0218 18.0767 41.3542 18.1723 41.642 18.3636C41.9299 18.5549 42.1553 18.8201 42.3182 19.1591C42.483 19.4981 42.5653 19.8911 42.5653 20.3381C42.5653 20.7812 42.4839 21.1723 42.321 21.5114C42.1581 21.8485 41.9318 22.1127 41.642 22.304C41.3542 22.4953 41.0218 22.5909 40.6449 22.5909ZM40.6449 22.1278C40.9479 22.1278 41.2045 22.0464 41.4148 21.8835C41.625 21.7206 41.7841 21.5038 41.892 21.233C42.0019 20.9621 42.0568 20.6638 42.0568 20.3381C42.0568 20.0123 42.0019 19.7131 41.892 19.4403C41.7841 19.1676 41.625 18.9489 41.4148 18.7841C41.2045 18.6193 40.9479 18.5369 40.6449 18.5369C40.3438 18.5369 40.0871 18.6193 39.875 18.7841C39.6648 18.9489 39.5047 19.1676 39.3949 19.4403C39.2869 19.7131 39.233 20.0123 39.233 20.3381C39.233 20.6638 39.2869 20.9621 39.3949 21.233C39.5047 21.5038 39.6648 21.7206 39.875 21.8835C40.0852 22.0464 40.3419 22.1278 40.6449 22.1278ZM45.2464 22.5909C44.8885 22.5909 44.575 22.4962 44.3061 22.3068C44.0372 22.1174 43.8269 21.8532 43.6754 21.5142C43.5258 21.1752 43.451 20.7803 43.451 20.3295C43.451 19.8807 43.5258 19.4877 43.6754 19.1506C43.8269 18.8116 44.0381 18.5483 44.3089 18.3608C44.5798 18.1714 44.8951 18.0767 45.255 18.0767C45.5201 18.0767 45.7408 18.1241 45.9169 18.2188C46.093 18.3116 46.2341 18.4271 46.3402 18.5653C46.4463 18.7036 46.5286 18.8381 46.5874 18.9688H46.6328V16.6818H47.1413V22.5H46.647V21.6903H46.5874C46.5286 21.8229 46.4453 21.9593 46.3374 22.0994C46.2294 22.2377 46.0864 22.3542 45.9084 22.4489C45.7322 22.5436 45.5116 22.5909 45.2464 22.5909ZM45.3061 22.1278C45.5883 22.1278 45.8288 22.0511 46.0277 21.8977C46.2266 21.7424 46.3781 21.5294 46.4822 21.2585C46.5883 20.9858 46.6413 20.6733 46.6413 20.321C46.6413 19.9725 46.5893 19.6648 46.4851 19.3977C46.3809 19.1288 46.2294 18.9186 46.0305 18.767C45.8317 18.6136 45.5902 18.5369 45.3061 18.5369C45.0144 18.5369 44.7682 18.6165 44.5675 18.7756C44.3686 18.9328 44.2171 19.1458 44.1129 19.4148C44.0107 19.6837 43.9595 19.9858 43.9595 20.321C43.9595 20.66 44.0116 20.9659 44.1158 21.2386C44.2199 21.5114 44.3714 21.7282 44.5703 21.8892C44.7711 22.0483 45.0163 22.1278 45.3061 22.1278ZM51.3544 20.8324V18.1364H51.8601V22.5H51.3544V21.7756H51.3146C51.2124 21.9991 51.0504 22.1856 50.8288 22.3352C50.6072 22.483 50.3364 22.5568 50.0163 22.5568C49.7379 22.5568 49.4908 22.4962 49.2749 22.375C49.0589 22.2519 48.8894 22.072 48.7663 21.8352C48.6432 21.5985 48.5817 21.3078 48.5817 20.9631V18.1364H49.0874V20.9318C49.0874 21.2727 49.1877 21.5473 49.3885 21.7557C49.5893 21.9621 49.8468 22.0653 50.1612 22.0653C50.3582 22.0653 50.5476 22.018 50.7294 21.9233C50.9112 21.8286 51.0608 21.6903 51.1783 21.5085C51.2957 21.3248 51.3544 21.0994 51.3544 20.8324ZM54.9034 22.5909C54.5133 22.5909 54.1733 22.4934 53.8835 22.2983C53.5956 22.1032 53.3722 21.8362 53.2131 21.4972C53.054 21.1581 52.9744 20.7718 52.9744 20.3381C52.9744 19.9006 53.0549 19.5114 53.2159 19.1705C53.3788 18.8295 53.6042 18.5625 53.892 18.3693C54.1799 18.1742 54.5142 18.0767 54.8949 18.0767C55.1866 18.0767 55.4508 18.1335 55.6875 18.2472C55.9242 18.3589 56.1193 18.517 56.2727 18.7216C56.428 18.9242 56.5256 19.161 56.5653 19.4318H56.054C56.0009 19.1856 55.8731 18.9754 55.6705 18.8011C55.4697 18.625 55.214 18.5369 54.9034 18.5369C54.625 18.5369 54.3788 18.6127 54.1648 18.7642C53.9508 18.9138 53.7831 19.1231 53.6619 19.392C53.5426 19.6591 53.483 19.9687 53.483 20.321C53.483 20.6752 53.5417 20.9886 53.6591 21.2614C53.7765 21.5322 53.9413 21.7443 54.1534 21.8977C54.3674 22.0511 54.6174 22.1278 54.9034 22.1278C55.0966 22.1278 55.2727 22.0919 55.4318 22.0199C55.5928 21.946 55.7273 21.8419 55.8352 21.7074C55.9451 21.5729 56.0189 21.4129 56.0568 21.2273H56.5682C56.5303 21.4905 56.4366 21.7254 56.2869 21.9318C56.1392 22.1364 55.947 22.2973 55.7102 22.4148C55.4754 22.5322 55.2064 22.5909 54.9034 22.5909ZM59.3707 18.1364V18.5767H57.2884V18.1364H59.3707ZM57.9389 17.0909H58.4474V21.3608C58.4474 21.5426 58.4787 21.6856 58.5412 21.7898C58.6037 21.892 58.6851 21.965 58.7855 22.0085C58.8859 22.0502 58.9929 22.071 59.1065 22.071C59.1728 22.071 59.2296 22.0672 59.277 22.0597C59.3243 22.0502 59.366 22.0407 59.402 22.0312L59.5099 22.4886C59.4607 22.5076 59.4001 22.5246 59.3281 22.5398C59.2562 22.5568 59.1671 22.5653 59.0611 22.5653C58.8755 22.5653 58.6965 22.5246 58.5241 22.4432C58.3537 22.3617 58.2135 22.2405 58.1037 22.0795C57.9938 21.9186 57.9389 21.7188 57.9389 21.4801V17.0909ZM63.3729 19.0938L62.9098 19.2244C62.8643 19.0937 62.8 18.9754 62.7166 18.8693C62.6333 18.7633 62.5244 18.679 62.3899 18.6165C62.2573 18.554 62.0926 18.5227 61.8956 18.5227C61.6001 18.5227 61.3577 18.5928 61.1683 18.733C60.9789 18.8731 60.8842 19.054 60.8842 19.2756C60.8842 19.4631 60.9486 19.6155 61.0774 19.733C61.2081 19.8485 61.4089 19.9403 61.6797 20.0085L62.3388 20.1705C62.7043 20.2595 62.978 20.4006 63.1598 20.5938C63.3435 20.7869 63.4354 21.0294 63.4354 21.321C63.4354 21.5672 63.3672 21.786 63.2308 21.9773C63.0945 22.1686 62.9041 22.3191 62.6598 22.429C62.4174 22.5369 62.1361 22.5909 61.8161 22.5909C61.3899 22.5909 61.0386 22.4953 60.7621 22.304C60.4856 22.1108 60.3085 21.8324 60.2308 21.4688L60.7166 21.3494C60.7791 21.6089 60.9013 21.8049 61.0831 21.9375C61.2668 22.0701 61.5083 22.1364 61.8075 22.1364C62.1428 22.1364 62.4107 22.0616 62.6115 21.9119C62.8123 21.7604 62.9126 21.571 62.9126 21.3438C62.9126 21.1676 62.8539 21.0199 62.7365 20.9006C62.6191 20.7794 62.4411 20.6903 62.2024 20.6335L61.4893 20.4631C61.1106 20.3722 60.8303 20.2282 60.6484 20.0312C60.4666 19.8343 60.3757 19.59 60.3757 19.2983C60.3757 19.0578 60.4411 18.8466 60.5717 18.6648C60.7024 18.4811 60.8823 18.3371 61.1115 18.233C61.3407 18.1288 61.602 18.0767 61.8956 18.0767C62.2952 18.0767 62.6143 18.1676 62.853 18.3494C63.0935 18.5294 63.2668 18.7775 63.3729 19.0938ZM66.7727 22.5V22.1108L68.6733 19.9744C68.9214 19.6941 69.1212 19.4545 69.2727 19.2557C69.4242 19.0568 69.5341 18.8731 69.6023 18.7045C69.6723 18.536 69.7074 18.3608 69.7074 18.179C69.7074 17.9574 69.6553 17.7642 69.5511 17.5994C69.4489 17.4328 69.3078 17.303 69.1278 17.2102C68.9479 17.1174 68.7453 17.071 68.5199 17.071C68.2813 17.071 68.072 17.1222 67.892 17.2244C67.714 17.3267 67.5758 17.4669 67.4773 17.6449C67.3788 17.8229 67.3295 18.0275 67.3295 18.2585H66.821C66.821 17.9366 66.8949 17.6515 67.0426 17.4034C67.1922 17.1534 67.3958 16.9574 67.6534 16.8153C67.9129 16.6733 68.2064 16.6023 68.5341 16.6023C68.858 16.6023 69.1458 16.6723 69.3977 16.8125C69.6496 16.9508 69.8475 17.1392 69.9915 17.3778C70.1354 17.6165 70.2074 17.8835 70.2074 18.179C70.2074 18.393 70.1695 18.6004 70.0938 18.8011C70.0199 19.0019 69.892 19.2254 69.7102 19.4716C69.5284 19.7178 69.2765 20.0189 68.9545 20.375L67.5114 21.9858V22.0227H70.3892V22.5H66.7727ZM71.3913 21.25V20.8182L73.9851 16.6818H74.3033V17.4062H74.0675L71.9851 20.7358V20.7727H75.3857V21.25H71.3913ZM74.1072 22.5V21.1136V20.9148V16.6818H74.6129V22.5H74.1072ZM78.3452 22.5795C77.9361 22.5795 77.5866 22.4621 77.2969 22.2273C77.009 21.9905 76.7874 21.6487 76.6321 21.2017C76.4787 20.7547 76.402 20.2178 76.402 19.5909C76.402 18.9659 76.4787 18.4309 76.6321 17.9858C76.7874 17.5388 77.0099 17.197 77.2997 16.9602C77.5914 16.7216 77.9399 16.6023 78.3452 16.6023C78.7505 16.6023 79.098 16.7216 79.3878 16.9602C79.6795 17.197 79.902 17.5388 80.0554 17.9858C80.2107 18.4309 80.2884 18.9659 80.2884 19.5909C80.2884 20.2178 80.2107 20.7547 80.0554 21.2017C79.902 21.6487 79.6804 21.9905 79.3906 22.2273C79.1027 22.4621 78.7543 22.5795 78.3452 22.5795ZM78.3452 22.1023C78.794 22.1023 79.1444 21.8835 79.3963 21.446C79.6482 21.0066 79.7741 20.3883 79.7741 19.5909C79.7741 19.0606 79.7164 18.608 79.6009 18.233C79.4872 17.8561 79.3234 17.5682 79.1094 17.3693C78.8973 17.1705 78.6425 17.071 78.3452 17.071C77.9001 17.071 77.5507 17.2926 77.2969 17.7358C77.0431 18.1771 76.9162 18.7955 76.9162 19.5909C76.9162 20.1212 76.973 20.5739 77.0866 20.9489C77.2022 21.3239 77.366 21.6098 77.5781 21.8068C77.7921 22.0038 78.0478 22.1023 78.3452 22.1023ZM83.3537 16.4091L81.4787 23.375H81.0043L82.8793 16.4091H83.3537ZM84.3438 22.5H83.7869L85.9034 16.6818H86.4716L88.5881 22.5H88.0312L86.2074 17.3722H86.1676L84.3438 22.5ZM84.7443 20.2699H87.6307V20.7472H84.7443V20.2699ZM90.9822 16.6818V22.5H90.451V17.2386H90.4169L89.0533 18.1449V17.5938L90.4283 16.6818H90.9822ZM93.2663 21.7045L93.2152 22.0085C93.183 22.2131 93.1375 22.4384 93.0788 22.6847C93.0201 22.9309 92.9595 23.1648 92.897 23.3864C92.8345 23.608 92.7805 23.786 92.7351 23.9205H92.3459C92.3705 23.7917 92.4018 23.6278 92.4396 23.429C92.4794 23.2301 92.5201 23.0095 92.5618 22.767C92.6035 22.5265 92.6413 22.2784 92.6754 22.0227L92.7152 21.7045H93.2663ZM98.6648 22.5H96.9602V16.6818H98.767C99.322 16.6818 99.7964 16.7973 100.19 17.0284C100.586 17.2595 100.889 17.5909 101.099 18.0227C101.31 18.4545 101.415 18.9725 101.415 19.5767C101.415 20.1866 101.307 20.7102 101.091 21.1477C100.877 21.5833 100.564 21.9176 100.153 22.1506C99.7443 22.3835 99.2481 22.5 98.6648 22.5ZM97.4915 22.0227H98.6335C99.1335 22.0227 99.5521 21.9242 99.8892 21.7273C100.226 21.5303 100.479 21.2491 100.648 20.8835C100.816 20.518 100.901 20.0824 100.901 19.5767C100.899 19.0748 100.815 18.643 100.651 18.2812C100.488 17.9195 100.245 17.642 99.9233 17.4489C99.6032 17.2557 99.2074 17.1591 98.7358 17.1591H97.4915V22.0227ZM102.597 22.5V18.1364H103.089V18.8068H103.126C103.213 18.5871 103.364 18.41 103.58 18.2756C103.798 18.1392 104.044 18.071 104.319 18.071C104.361 18.071 104.407 18.072 104.458 18.0739C104.509 18.0758 104.552 18.0777 104.586 18.0795V18.5938C104.563 18.59 104.523 18.5843 104.467 18.5767C104.41 18.5691 104.348 18.5653 104.282 18.5653C104.055 18.5653 103.852 18.6136 103.674 18.7102C103.498 18.8049 103.359 18.9366 103.256 19.1051C103.154 19.2737 103.103 19.4659 103.103 19.6818V22.5H102.597ZM105.352 22.5426C105.241 22.5426 105.144 22.5028 105.062 22.4233C104.983 22.3419 104.943 22.2453 104.943 22.1335C104.943 22.0199 104.983 21.9233 105.062 21.8438C105.144 21.7642 105.241 21.7244 105.352 21.7244C105.466 21.7244 105.562 21.7642 105.642 21.8438C105.722 21.9233 105.761 22.0199 105.761 22.1335C105.761 22.2074 105.742 22.2756 105.705 22.3381C105.669 22.4006 105.619 22.4508 105.557 22.4886C105.496 22.5246 105.428 22.5426 105.352 22.5426ZM109.461 22.5H108.904L111.021 16.6818H111.589L113.705 22.5H113.148L111.325 17.3722H111.285L109.461 22.5ZM109.862 20.2699H112.748V20.7472H109.862V20.2699ZM114.702 22.5V16.6818H115.211V18.9688H115.256C115.313 18.8381 115.395 18.7036 115.501 18.5653C115.609 18.4271 115.75 18.3116 115.924 18.2188C116.1 18.1241 116.322 18.0767 116.589 18.0767C116.947 18.0767 117.261 18.1714 117.532 18.3608C117.803 18.5483 118.014 18.8116 118.165 19.1506C118.317 19.4877 118.393 19.8807 118.393 20.3295C118.393 20.7803 118.317 21.1752 118.165 21.5142C118.016 21.8532 117.806 22.1174 117.535 22.3068C117.266 22.4962 116.953 22.5909 116.597 22.5909C116.332 22.5909 116.111 22.5436 115.933 22.4489C115.756 22.3542 115.614 22.2377 115.506 22.0994C115.398 21.9593 115.315 21.8229 115.256 21.6903H115.194V22.5H114.702ZM115.202 20.321C115.202 20.6733 115.254 20.9858 115.359 21.2585C115.465 21.5294 115.616 21.7424 115.813 21.8977C116.012 22.0511 116.253 22.1278 116.535 22.1278C116.825 22.1278 117.07 22.0483 117.271 21.8892C117.471 21.7282 117.624 21.5114 117.728 21.2386C117.832 20.9659 117.884 20.66 117.884 20.321C117.884 19.9858 117.832 19.6837 117.728 19.4148C117.626 19.1458 117.474 18.9328 117.273 18.7756C117.073 18.6165 116.826 18.5369 116.535 18.5369C116.251 18.5369 116.009 18.6136 115.81 18.767C115.613 18.9186 115.463 19.1288 115.359 19.3977C115.254 19.6648 115.202 19.9725 115.202 20.321ZM121.075 22.5909C120.717 22.5909 120.403 22.4962 120.134 22.3068C119.865 22.1174 119.655 21.8532 119.504 21.5142C119.354 21.1752 119.279 20.7803 119.279 20.3295C119.279 19.8807 119.354 19.4877 119.504 19.1506C119.655 18.8116 119.866 18.5483 120.137 18.3608C120.408 18.1714 120.723 18.0767 121.083 18.0767C121.348 18.0767 121.569 18.1241 121.745 18.2188C121.921 18.3116 122.062 18.4271 122.168 18.5653C122.274 18.7036 122.357 18.8381 122.415 18.9688H122.461V16.6818H122.969V22.5H122.475V21.6903H122.415C122.357 21.8229 122.273 21.9593 122.165 22.0994C122.058 22.2377 121.915 22.3542 121.737 22.4489C121.56 22.5436 121.34 22.5909 121.075 22.5909ZM121.134 22.1278C121.416 22.1278 121.657 22.0511 121.856 21.8977C122.055 21.7424 122.206 21.5294 122.31 21.2585C122.416 20.9858 122.469 20.6733 122.469 20.321C122.469 19.9725 122.417 19.6648 122.313 19.3977C122.209 19.1288 122.058 18.9186 121.859 18.767C121.66 18.6136 121.418 18.5369 121.134 18.5369C120.843 18.5369 120.596 18.6165 120.396 18.7756C120.197 18.9328 120.045 19.1458 119.941 19.4148C119.839 19.6837 119.788 19.9858 119.788 20.321C119.788 20.66 119.84 20.9659 119.944 21.2386C120.048 21.5114 120.2 21.7282 120.398 21.8892C120.599 22.0483 120.844 22.1278 121.134 22.1278ZM127.183 20.8324V18.1364H127.688V22.5H127.183V21.7756H127.143C127.04 21.9991 126.879 22.1856 126.657 22.3352C126.435 22.483 126.165 22.5568 125.844 22.5568C125.566 22.5568 125.319 22.4962 125.103 22.375C124.887 22.2519 124.718 22.072 124.594 21.8352C124.471 21.5985 124.41 21.3078 124.41 20.9631V18.1364H124.915V20.9318C124.915 21.2727 125.016 21.5473 125.217 21.7557C125.417 21.9621 125.675 22.0653 125.989 22.0653C126.186 22.0653 126.376 22.018 126.558 21.9233C126.739 21.8286 126.889 21.6903 127.006 21.5085C127.124 21.3248 127.183 21.0994 127.183 20.8324ZM129.533 16.6818V22.5H129.027V16.6818H129.533ZM131.331 20.8523L131.325 20.1903H131.439L133.484 18.1364H134.124L132.104 20.1591L132.058 20.1676L131.331 20.8523ZM130.871 22.5V16.6818H131.376V22.5H130.871ZM133.589 22.5L131.817 20.2585L132.18 19.9091L134.237 22.5H133.589ZM136.293 22.5994C136.029 22.5994 135.789 22.5483 135.571 22.446C135.353 22.3419 135.18 22.1922 135.051 21.9972C134.922 21.8002 134.858 21.5616 134.858 21.2812C134.858 21.0653 134.899 20.8835 134.98 20.7358C135.062 20.5881 135.177 20.4669 135.327 20.3722C135.476 20.2775 135.653 20.2027 135.858 20.1477C136.063 20.0928 136.288 20.0502 136.534 20.0199C136.778 19.9896 136.985 19.9631 137.153 19.9403C137.324 19.9176 137.454 19.8816 137.543 19.8324C137.632 19.7831 137.676 19.7036 137.676 19.5938V19.4915C137.676 19.1941 137.587 18.9602 137.409 18.7898C137.233 18.6174 136.979 18.5312 136.648 18.5312C136.333 18.5312 136.077 18.6004 135.878 18.7386C135.681 18.8769 135.543 19.0398 135.463 19.2273L134.983 19.054C135.081 18.8153 135.218 18.625 135.392 18.483C135.566 18.339 135.761 18.2358 135.977 18.1733C136.193 18.1089 136.412 18.0767 136.634 18.0767C136.8 18.0767 136.973 18.0985 137.153 18.142C137.335 18.1856 137.504 18.2614 137.659 18.3693C137.814 18.4754 137.94 18.6241 138.037 18.8153C138.134 19.0047 138.182 19.2453 138.182 19.5369V22.5H137.676V21.8097H137.645C137.584 21.9384 137.494 22.0634 137.375 22.1847C137.256 22.3059 137.106 22.4053 136.926 22.483C136.746 22.5606 136.535 22.5994 136.293 22.5994ZM136.361 22.1364C136.63 22.1364 136.863 22.0767 137.06 21.9574C137.257 21.8381 137.408 21.6799 137.514 21.483C137.622 21.2841 137.676 21.0653 137.676 20.8267V20.196C137.638 20.232 137.575 20.2642 137.486 20.2926C137.399 20.321 137.297 20.3466 137.182 20.3693C137.068 20.3902 136.955 20.4081 136.841 20.4233C136.727 20.4384 136.625 20.4517 136.534 20.4631C136.288 20.4934 136.078 20.5407 135.903 20.6051C135.729 20.6695 135.596 20.7585 135.503 20.8722C135.41 20.9839 135.364 21.1278 135.364 21.304C135.364 21.5691 135.458 21.7746 135.648 21.9205C135.837 22.0644 136.075 22.1364 136.361 22.1364ZM140.033 16.6818V22.5H139.527V16.6818H140.033ZM142.589 22.5994C142.326 22.5994 142.086 22.5483 141.868 22.446C141.65 22.3419 141.477 22.1922 141.348 21.9972C141.219 21.8002 141.155 21.5616 141.155 21.2812C141.155 21.0653 141.196 20.8835 141.277 20.7358C141.358 20.5881 141.474 20.4669 141.624 20.3722C141.773 20.2775 141.95 20.2027 142.155 20.1477C142.359 20.0928 142.585 20.0502 142.831 20.0199C143.075 19.9896 143.282 19.9631 143.45 19.9403C143.621 19.9176 143.75 19.8816 143.839 19.8324C143.929 19.7831 143.973 19.7036 143.973 19.5938V19.4915C143.973 19.1941 143.884 18.9602 143.706 18.7898C143.53 18.6174 143.276 18.5312 142.945 18.5312C142.63 18.5312 142.374 18.6004 142.175 18.7386C141.978 18.8769 141.839 19.0398 141.76 19.2273L141.28 19.054C141.378 18.8153 141.515 18.625 141.689 18.483C141.863 18.339 142.058 18.2358 142.274 18.1733C142.49 18.1089 142.709 18.0767 142.93 18.0767C143.097 18.0767 143.27 18.0985 143.45 18.142C143.632 18.1856 143.801 18.2614 143.956 18.3693C144.111 18.4754 144.237 18.6241 144.334 18.8153C144.43 19.0047 144.479 19.2453 144.479 19.5369V22.5H143.973V21.8097H143.942C143.881 21.9384 143.791 22.0634 143.672 22.1847C143.553 22.3059 143.403 22.4053 143.223 22.483C143.043 22.5606 142.832 22.5994 142.589 22.5994ZM142.658 22.1364C142.927 22.1364 143.16 22.0767 143.357 21.9574C143.554 21.8381 143.705 21.6799 143.811 21.483C143.919 21.2841 143.973 21.0653 143.973 20.8267V20.196C143.935 20.232 143.872 20.2642 143.783 20.2926C143.696 20.321 143.594 20.3466 143.479 20.3693C143.365 20.3902 143.251 20.4081 143.138 20.4233C143.024 20.4384 142.922 20.4517 142.831 20.4631C142.585 20.4934 142.375 20.5407 142.2 20.6051C142.026 20.6695 141.893 20.7585 141.8 20.8722C141.707 20.9839 141.661 21.1278 141.661 21.304C141.661 21.5691 141.755 21.7746 141.945 21.9205C142.134 22.0644 142.372 22.1364 142.658 22.1364ZM145.824 22.5V18.1364H146.315V18.8068H146.361C146.448 18.5814 146.593 18.4044 146.795 18.2756C147 18.1449 147.245 18.0795 147.531 18.0795C147.832 18.0795 148.08 18.1506 148.273 18.2926C148.468 18.4328 148.614 18.6259 148.71 18.8722H148.747C148.846 18.6297 149.006 18.4375 149.227 18.2955C149.451 18.1515 149.722 18.0795 150.04 18.0795C150.445 18.0795 150.765 18.2074 151 18.4631C151.235 18.7169 151.352 19.0881 151.352 19.5767V22.5H150.847V19.5767C150.847 19.232 150.759 18.9735 150.582 18.8011C150.406 18.6288 150.174 18.5426 149.886 18.5426C149.553 18.5426 149.296 18.6449 149.116 18.8494C148.937 19.054 148.847 19.3134 148.847 19.6278V22.5H148.33V19.5312C148.33 19.2358 148.247 18.9972 148.082 18.8153C147.918 18.6335 147.686 18.5426 147.386 18.5426C147.186 18.5426 147.005 18.5919 146.844 18.6903C146.685 18.7888 146.559 18.9261 146.466 19.1023C146.375 19.2765 146.33 19.4773 146.33 19.7045V22.5H145.824ZM5.30398 27.6818V33.5H4.78693L1.34943 28.6278H1.30398V33.5H0.772727V27.6818H1.28693L4.7358 32.5597H4.78125V27.6818H5.30398ZM7.96449 33.5994C7.70123 33.5994 7.4607 33.5483 7.2429 33.446C7.02509 33.3419 6.8518 33.1922 6.72301 32.9972C6.59422 32.8002 6.52983 32.5616 6.52983 32.2812C6.52983 32.0653 6.57055 31.8835 6.65199 31.7358C6.73343 31.5881 6.84896 31.4669 6.99858 31.3722C7.1482 31.2775 7.32528 31.2027 7.52983 31.1477C7.73438 31.0928 7.95975 31.0502 8.20597 31.0199C8.45028 30.9896 8.65672 30.9631 8.82528 30.9403C8.99574 30.9176 9.12547 30.8816 9.21449 30.8324C9.3035 30.7831 9.34801 30.7036 9.34801 30.5938V30.4915C9.34801 30.1941 9.259 29.9602 9.08097 29.7898C8.90483 29.6174 8.65104 29.5312 8.3196 29.5312C8.00521 29.5312 7.74858 29.6004 7.54972 29.7386C7.35275 29.8769 7.21449 30.0398 7.13494 30.2273L6.65483 30.054C6.75331 29.8153 6.88968 29.625 7.06392 29.483C7.23816 29.339 7.43324 29.2358 7.64915 29.1733C7.86506 29.1089 8.08381 29.0767 8.3054 29.0767C8.47206 29.0767 8.64536 29.0985 8.82528 29.142C9.0071 29.1856 9.17566 29.2614 9.33097 29.3693C9.48627 29.4754 9.61222 29.6241 9.70881 29.8153C9.8054 30.0047 9.85369 30.2453 9.85369 30.5369V33.5H9.34801V32.8097H9.31676C9.25616 32.9384 9.16619 33.0634 9.04688 33.1847C8.92756 33.3059 8.77794 33.4053 8.59801 33.483C8.41809 33.5606 8.20691 33.5994 7.96449 33.5994ZM8.03267 33.1364C8.30161 33.1364 8.53456 33.0767 8.73153 32.9574C8.9285 32.8381 9.08002 32.6799 9.18608 32.483C9.29403 32.2841 9.34801 32.0653 9.34801 31.8267V31.196C9.31013 31.232 9.24669 31.2642 9.15767 31.2926C9.07055 31.321 8.96922 31.3466 8.85369 31.3693C8.74006 31.3902 8.62642 31.4081 8.51278 31.4233C8.39915 31.4384 8.29688 31.4517 8.20597 31.4631C7.95975 31.4934 7.74953 31.5407 7.57528 31.6051C7.40104 31.6695 7.26752 31.7585 7.17472 31.8722C7.08191 31.9839 7.03551 32.1278 7.03551 32.304C7.03551 32.5691 7.13021 32.7746 7.3196 32.9205C7.509 33.0644 7.74669 33.1364 8.03267 33.1364ZM12.8636 35.2273C12.5663 35.2273 12.3059 35.1884 12.0824 35.1108C11.8589 35.035 11.6705 34.9309 11.517 34.7983C11.3636 34.6657 11.2443 34.517 11.1591 34.3523L11.5739 34.0795C11.6364 34.1894 11.7197 34.2973 11.8239 34.4034C11.9299 34.5095 12.0672 34.5975 12.2358 34.6676C12.4063 34.7377 12.6155 34.7727 12.8636 34.7727C13.25 34.7727 13.5616 34.6761 13.7983 34.483C14.0369 34.2898 14.1562 33.9896 14.1562 33.5824V32.5994H14.1108C14.0521 32.732 13.9678 32.8646 13.858 32.9972C13.7481 33.1278 13.6042 33.2367 13.4261 33.3239C13.25 33.411 13.0313 33.4545 12.7699 33.4545C12.4214 33.4545 12.1117 33.3684 11.8409 33.196C11.572 33.0237 11.3598 32.7775 11.2045 32.4574C11.0511 32.1354 10.9744 31.7519 10.9744 31.3068C10.9744 30.8655 11.0492 30.4773 11.1989 30.142C11.3504 29.8068 11.5616 29.5455 11.8324 29.358C12.1032 29.1705 12.4186 29.0767 12.7784 29.0767C13.0455 29.0767 13.267 29.1241 13.4432 29.2188C13.6193 29.3116 13.7604 29.4271 13.8665 29.5653C13.9744 29.7036 14.0587 29.8381 14.1193 29.9688H14.1705V29.1364H14.6648V33.6136C14.6648 33.983 14.5862 34.2869 14.429 34.5256C14.2718 34.7642 14.0578 34.9403 13.7869 35.054C13.5161 35.1695 13.2083 35.2273 12.8636 35.2273ZM12.8295 32.9915C13.1098 32.9915 13.3494 32.9242 13.5483 32.7898C13.7472 32.6534 13.8996 32.4583 14.0057 32.2045C14.1117 31.9508 14.1648 31.6487 14.1648 31.2983C14.1648 30.9574 14.1127 30.6553 14.0085 30.392C13.9044 30.1269 13.7528 29.9186 13.554 29.767C13.357 29.6136 13.1155 29.5369 12.8295 29.5369C12.5379 29.5369 12.2917 29.6155 12.0909 29.7727C11.8902 29.9299 11.7386 30.142 11.6364 30.4091C11.5341 30.6742 11.483 30.9706 11.483 31.2983C11.483 31.6316 11.535 31.9261 11.6392 32.1818C11.7434 32.4356 11.8958 32.6345 12.0966 32.7784C12.2973 32.9205 12.5417 32.9915 12.8295 32.9915ZM17.2223 33.5994C16.959 33.5994 16.7185 33.5483 16.5007 33.446C16.2829 33.3419 16.1096 33.1922 15.9808 32.9972C15.852 32.8002 15.7876 32.5616 15.7876 32.2812C15.7876 32.0653 15.8284 31.8835 15.9098 31.7358C15.9912 31.5881 16.1068 31.4669 16.2564 31.3722C16.406 31.2775 16.5831 31.2027 16.7876 31.1477C16.9922 31.0928 17.2176 31.0502 17.4638 31.0199C17.7081 30.9896 17.9145 30.9631 18.0831 30.9403C18.2536 30.9176 18.3833 30.8816 18.4723 30.8324C18.5613 30.7831 18.6058 30.7036 18.6058 30.5938V30.4915C18.6058 30.1941 18.5168 29.9602 18.3388 29.7898C18.1626 29.6174 17.9089 29.5312 17.5774 29.5312C17.263 29.5312 17.0064 29.6004 16.8075 29.7386C16.6106 29.8769 16.4723 30.0398 16.3928 30.2273L15.9126 30.054C16.0111 29.8153 16.1475 29.625 16.3217 29.483C16.496 29.339 16.6911 29.2358 16.907 29.1733C17.1229 29.1089 17.3416 29.0767 17.5632 29.0767C17.7299 29.0767 17.9032 29.0985 18.0831 29.142C18.2649 29.1856 18.4335 29.2614 18.5888 29.3693C18.7441 29.4754 18.87 29.6241 18.9666 29.8153C19.0632 30.0047 19.1115 30.2453 19.1115 30.5369V33.5H18.6058V32.8097H18.5746C18.514 32.9384 18.424 33.0634 18.3047 33.1847C18.1854 33.3059 18.0357 33.4053 17.8558 33.483C17.6759 33.5606 17.4647 33.5994 17.2223 33.5994ZM17.2905 33.1364C17.5594 33.1364 17.7924 33.0767 17.9893 32.9574C18.1863 32.8381 18.3378 32.6799 18.4439 32.483C18.5518 32.2841 18.6058 32.0653 18.6058 31.8267V31.196C18.5679 31.232 18.5045 31.2642 18.4155 31.2926C18.3284 31.321 18.227 31.3466 18.1115 31.3693C17.9979 31.3902 17.8842 31.4081 17.7706 31.4233C17.657 31.4384 17.5547 31.4517 17.4638 31.4631C17.2176 31.4934 17.0073 31.5407 16.8331 31.6051C16.6589 31.6695 16.5253 31.7585 16.4325 31.8722C16.3397 31.9839 16.2933 32.1278 16.2933 32.304C16.2933 32.5691 16.388 32.7746 16.5774 32.9205C16.7668 33.0644 17.0045 33.1364 17.2905 33.1364ZM20.4567 33.5V29.1364H20.9482V29.8068H20.9851C21.0722 29.5871 21.2237 29.41 21.4396 29.2756C21.6574 29.1392 21.9036 29.071 22.1783 29.071C22.2199 29.071 22.2663 29.072 22.3175 29.0739C22.3686 29.0758 22.4112 29.0777 22.4453 29.0795V29.5938C22.4226 29.59 22.3828 29.5843 22.326 29.5767C22.2692 29.5691 22.2076 29.5653 22.1413 29.5653C21.9141 29.5653 21.7114 29.6136 21.5334 29.7102C21.3572 29.8049 21.218 29.9366 21.1158 30.1051C21.0135 30.2737 20.9624 30.4659 20.9624 30.6818V33.5H20.4567ZM23.6491 32.7045L23.598 33.0085C23.5658 33.2131 23.5204 33.4384 23.4616 33.6847C23.4029 33.9309 23.3423 34.1648 23.2798 34.3864C23.2173 34.608 23.1634 34.786 23.1179 34.9205H22.7287C22.7533 34.7917 22.7846 34.6278 22.8224 34.429C22.8622 34.2301 22.9029 34.0095 22.9446 33.767C22.9863 33.5265 23.0241 33.2784 23.0582 33.0227L23.098 32.7045H23.6491ZM30.5021 29.1364C30.4699 28.8125 30.3269 28.5549 30.0732 28.3636C29.8194 28.1723 29.5002 28.0767 29.1158 28.0767C28.8449 28.0767 28.6063 28.1231 28.3999 28.2159C28.1953 28.3087 28.0343 28.4375 27.9169 28.6023C27.8014 28.7652 27.7436 28.9508 27.7436 29.1591C27.7436 29.3125 27.7768 29.447 27.843 29.5625C27.9093 29.678 27.9983 29.7775 28.1101 29.8608C28.2237 29.9422 28.3487 30.0123 28.4851 30.071C28.6233 30.1297 28.7625 30.179 28.9027 30.2188L29.5163 30.3949C29.7019 30.446 29.8875 30.5114 30.0732 30.5909C30.2588 30.6705 30.4283 30.7708 30.5817 30.892C30.737 31.0114 30.861 31.1581 30.9538 31.3324C31.0485 31.5047 31.0959 31.7121 31.0959 31.9545C31.0959 32.2652 31.0154 32.5445 30.8544 32.7926C30.6934 33.0407 30.4624 33.2377 30.1612 33.3835C29.8601 33.5275 29.4993 33.5994 29.0788 33.5994C28.683 33.5994 28.3393 33.5341 28.0476 33.4034C27.7559 33.2708 27.5268 33.0881 27.3601 32.8551C27.1934 32.6222 27.0997 32.3523 27.0788 32.0455H27.6243C27.6432 32.2746 27.719 32.4687 27.8516 32.6278C27.9841 32.7869 28.1565 32.9081 28.3686 32.9915C28.5807 33.0729 28.8175 33.1136 29.0788 33.1136C29.3686 33.1136 29.6262 33.0653 29.8516 32.9688C30.0788 32.8703 30.2569 32.7339 30.3857 32.5597C30.5163 32.3835 30.5817 32.179 30.5817 31.946C30.5817 31.7491 30.5305 31.5843 30.4283 31.4517C30.326 31.3172 30.183 31.2045 29.9993 31.1136C29.8175 31.0227 29.6063 30.9422 29.3658 30.8722L28.6697 30.6676C28.2133 30.5312 27.8591 30.3428 27.6072 30.1023C27.3554 29.8617 27.2294 29.5549 27.2294 29.1818C27.2294 28.8693 27.3127 28.5947 27.4794 28.358C27.648 28.1193 27.8752 27.9337 28.1612 27.8011C28.4491 27.6667 28.772 27.5994 29.13 27.5994C29.4917 27.5994 29.8118 27.6657 30.0902 27.7983C30.3686 27.9309 30.5893 28.1136 30.7521 28.3466C30.9169 28.5777 31.005 28.8409 31.0163 29.1364H30.5021ZM33.9652 33.5909C33.5883 33.5909 33.255 33.4953 32.9652 33.304C32.6773 33.1127 32.4519 32.8485 32.2891 32.5114C32.1262 32.1723 32.0447 31.7812 32.0447 31.3381C32.0447 30.8911 32.1262 30.4981 32.2891 30.1591C32.4519 29.8182 32.6773 29.553 32.9652 29.3636C33.255 29.1723 33.5883 29.0767 33.9652 29.0767C34.3421 29.0767 34.6745 29.1723 34.9624 29.3636C35.2502 29.5549 35.4756 29.8201 35.6385 30.1591C35.8033 30.4981 35.8857 30.8911 35.8857 31.3381C35.8857 31.7812 35.8042 32.1723 35.6413 32.5114C35.4785 32.8485 35.2521 33.1127 34.9624 33.304C34.6745 33.4953 34.3421 33.5909 33.9652 33.5909ZM33.9652 33.1278C34.2682 33.1278 34.5249 33.0464 34.7351 32.8835C34.9453 32.7206 35.1044 32.5038 35.2124 32.233C35.3222 31.9621 35.3771 31.6638 35.3771 31.3381C35.3771 31.0123 35.3222 30.7131 35.2124 30.4403C35.1044 30.1676 34.9453 29.9489 34.7351 29.7841C34.5249 29.6193 34.2682 29.5369 33.9652 29.5369C33.6641 29.5369 33.4074 29.6193 33.1953 29.7841C32.9851 29.9489 32.825 30.1676 32.7152 30.4403C32.6072 30.7131 32.5533 31.0123 32.5533 31.3381C32.5533 31.6638 32.6072 31.9621 32.7152 32.233C32.825 32.5038 32.9851 32.7206 33.1953 32.8835C33.4055 33.0464 33.6622 33.1278 33.9652 33.1278ZM36.9957 33.5V29.1364H37.4872V29.8068H37.5327C37.6198 29.5814 37.7647 29.4044 37.9673 29.2756C38.1719 29.1449 38.4171 29.0795 38.7031 29.0795C39.0043 29.0795 39.2514 29.1506 39.4446 29.2926C39.6397 29.4328 39.7855 29.6259 39.8821 29.8722H39.919C40.0175 29.6297 40.1776 29.4375 40.3991 29.2955C40.6226 29.1515 40.8935 29.0795 41.2116 29.0795C41.617 29.0795 41.937 29.2074 42.1719 29.4631C42.4067 29.7169 42.5241 30.0881 42.5241 30.5767V33.5H42.0185V30.5767C42.0185 30.232 41.9304 29.9735 41.7543 29.8011C41.5781 29.6288 41.3461 29.5426 41.0582 29.5426C40.7249 29.5426 40.4683 29.6449 40.2884 29.8494C40.1084 30.054 40.0185 30.3134 40.0185 30.6278V33.5H39.5014V30.5312C39.5014 30.2358 39.419 29.9972 39.2543 29.8153C39.0895 29.6335 38.8575 29.5426 38.5582 29.5426C38.3575 29.5426 38.1766 29.5919 38.0156 29.6903C37.8565 29.7888 37.7306 29.9261 37.6378 30.1023C37.5469 30.2765 37.5014 30.4773 37.5014 30.7045V33.5H36.9957ZM45.0817 33.5994C44.8184 33.5994 44.5779 33.5483 44.3601 33.446C44.1423 33.3419 43.969 33.1922 43.8402 32.9972C43.7114 32.8002 43.647 32.5616 43.647 32.2812C43.647 32.0653 43.6877 31.8835 43.7692 31.7358C43.8506 31.5881 43.9661 31.4669 44.1158 31.3722C44.2654 31.2775 44.4425 31.2027 44.647 31.1477C44.8516 31.0928 45.0769 31.0502 45.3232 31.0199C45.5675 30.9896 45.7739 30.9631 45.9425 30.9403C46.1129 30.9176 46.2427 30.8816 46.3317 30.8324C46.4207 30.7831 46.4652 30.7036 46.4652 30.5938V30.4915C46.4652 30.1941 46.3762 29.9602 46.1982 29.7898C46.022 29.6174 45.7682 29.5312 45.4368 29.5312C45.1224 29.5312 44.8658 29.6004 44.6669 29.7386C44.4699 29.8769 44.3317 30.0398 44.2521 30.2273L43.772 30.054C43.8705 29.8153 44.0069 29.625 44.1811 29.483C44.3554 29.339 44.5504 29.2358 44.7663 29.1733C44.9822 29.1089 45.201 29.0767 45.4226 29.0767C45.5893 29.0767 45.7625 29.0985 45.9425 29.142C46.1243 29.1856 46.2929 29.2614 46.4482 29.3693C46.6035 29.4754 46.7294 29.6241 46.826 29.8153C46.9226 30.0047 46.9709 30.2453 46.9709 30.5369V33.5H46.4652V32.8097H46.4339C46.3733 32.9384 46.2834 33.0634 46.1641 33.1847C46.0447 33.3059 45.8951 33.4053 45.7152 33.483C45.5353 33.5606 45.3241 33.5994 45.0817 33.5994ZM45.1499 33.1364C45.4188 33.1364 45.6518 33.0767 45.8487 32.9574C46.0457 32.8381 46.1972 32.6799 46.3033 32.483C46.4112 32.2841 46.4652 32.0653 46.4652 31.8267V31.196C46.4273 31.232 46.3639 31.2642 46.2749 31.2926C46.1877 31.321 46.0864 31.3466 45.9709 31.3693C45.8572 31.3902 45.7436 31.4081 45.63 31.4233C45.5163 31.4384 45.4141 31.4517 45.3232 31.4631C45.0769 31.4934 44.8667 31.5407 44.6925 31.6051C44.5182 31.6695 44.3847 31.7585 44.2919 31.8722C44.1991 31.9839 44.1527 32.1278 44.1527 32.304C44.1527 32.5691 44.2474 32.7746 44.4368 32.9205C44.6262 33.0644 44.8639 33.1364 45.1499 33.1364ZM48.5121 35.1364C48.4117 35.1364 48.3179 35.1269 48.2308 35.108C48.1437 35.089 48.0746 35.0682 48.0234 35.0455L48.1598 34.5994C48.3321 34.6525 48.4856 34.6714 48.62 34.6562C48.7545 34.643 48.8738 34.5824 48.978 34.4744C49.0821 34.3684 49.175 34.2055 49.2564 33.9858L49.4155 33.5426L47.8104 29.1364H48.3587L49.6541 32.8324H49.6939L50.9893 29.1364H51.5376L49.6911 34.1903C49.6134 34.4006 49.5178 34.5758 49.4041 34.7159C49.2905 34.858 49.1589 34.9631 49.0092 35.0312C48.8615 35.1013 48.6958 35.1364 48.5121 35.1364ZM53.6129 33.5994C53.3497 33.5994 53.1091 33.5483 52.8913 33.446C52.6735 33.3419 52.5002 33.1922 52.3714 32.9972C52.2427 32.8002 52.1783 32.5616 52.1783 32.2812C52.1783 32.0653 52.219 31.8835 52.3004 31.7358C52.3819 31.5881 52.4974 31.4669 52.647 31.3722C52.7966 31.2775 52.9737 31.2027 53.1783 31.1477C53.3828 31.0928 53.6082 31.0502 53.8544 31.0199C54.0987 30.9896 54.3052 30.9631 54.4737 30.9403C54.6442 30.9176 54.7739 30.8816 54.8629 30.8324C54.9519 30.7831 54.9964 30.7036 54.9964 30.5938V30.4915C54.9964 30.1941 54.9074 29.9602 54.7294 29.7898C54.5533 29.6174 54.2995 29.5312 53.968 29.5312C53.6536 29.5312 53.397 29.6004 53.1982 29.7386C53.0012 29.8769 52.8629 30.0398 52.7834 30.2273L52.3033 30.054C52.4018 29.8153 52.5381 29.625 52.7124 29.483C52.8866 29.339 53.0817 29.2358 53.2976 29.1733C53.5135 29.1089 53.7322 29.0767 53.9538 29.0767C54.1205 29.0767 54.2938 29.0985 54.4737 29.142C54.6555 29.1856 54.8241 29.2614 54.9794 29.3693C55.1347 29.4754 55.2607 29.6241 55.3572 29.8153C55.4538 30.0047 55.5021 30.2453 55.5021 30.5369V33.5H54.9964V32.8097H54.9652C54.9046 32.9384 54.8146 33.0634 54.6953 33.1847C54.576 33.3059 54.4264 33.4053 54.2464 33.483C54.0665 33.5606 53.8554 33.5994 53.6129 33.5994ZM53.6811 33.1364C53.95 33.1364 54.183 33.0767 54.38 32.9574C54.5769 32.8381 54.7285 32.6799 54.8345 32.483C54.9425 32.2841 54.9964 32.0653 54.9964 31.8267V31.196C54.9586 31.232 54.8951 31.2642 54.8061 31.2926C54.719 31.321 54.6177 31.3466 54.5021 31.3693C54.3885 31.3902 54.2749 31.4081 54.1612 31.4233C54.0476 31.4384 53.9453 31.4517 53.8544 31.4631C53.6082 31.4934 53.398 31.5407 53.2237 31.6051C53.0495 31.6695 52.916 31.7585 52.8232 31.8722C52.7304 31.9839 52.6839 32.1278 52.6839 32.304C52.6839 32.5691 52.7786 32.7746 52.968 32.9205C53.1574 33.0644 53.3951 33.1364 53.6811 33.1364ZM56.8473 33.5V29.1364H57.3388V29.8068H57.3842C57.4714 29.5814 57.6162 29.4044 57.8189 29.2756C58.0234 29.1449 58.2687 29.0795 58.5547 29.0795C58.8558 29.0795 59.103 29.1506 59.2962 29.2926C59.4912 29.4328 59.6371 29.6259 59.7337 29.8722H59.7706C59.8691 29.6297 60.0291 29.4375 60.2507 29.2955C60.4742 29.1515 60.745 29.0795 61.0632 29.0795C61.4685 29.0795 61.7886 29.2074 62.0234 29.4631C62.2583 29.7169 62.3757 30.0881 62.3757 30.5767V33.5H61.87V30.5767C61.87 30.232 61.782 29.9735 61.6058 29.8011C61.4297 29.6288 61.1977 29.5426 60.9098 29.5426C60.5765 29.5426 60.3198 29.6449 60.1399 29.8494C59.96 30.054 59.87 30.3134 59.87 30.6278V33.5H59.353V30.5312C59.353 30.2358 59.2706 29.9972 59.1058 29.8153C58.9411 29.6335 58.709 29.5426 58.4098 29.5426C58.209 29.5426 58.0282 29.5919 57.8672 29.6903C57.7081 29.7888 57.5821 29.9261 57.4893 30.1023C57.3984 30.2765 57.353 30.4773 57.353 30.7045V33.5H56.8473ZM63.7145 35.1364V29.1364H64.206V29.9688H64.2656C64.3262 29.8381 64.4096 29.7045 64.5156 29.5682C64.6217 29.4299 64.7618 29.3134 64.9361 29.2188C65.1122 29.1241 65.3338 29.0767 65.6009 29.0767C65.9607 29.0767 66.2751 29.1714 66.544 29.3608C66.8149 29.5483 67.0251 29.8116 67.1747 30.1506C67.3262 30.4877 67.402 30.8807 67.402 31.3295C67.402 31.7803 67.3262 32.1752 67.1747 32.5142C67.0251 32.8532 66.8149 33.1174 66.544 33.3068C66.2751 33.4962 65.9626 33.5909 65.6065 33.5909C65.3433 33.5909 65.1226 33.5436 64.9446 33.4489C64.7685 33.3542 64.6255 33.2377 64.5156 33.0994C64.4077 32.9593 64.3243 32.8229 64.2656 32.6903H64.2202V35.1364H63.7145ZM64.2145 31.321C64.2145 31.6733 64.2666 31.9858 64.3707 32.2585C64.4768 32.5294 64.6283 32.7424 64.8253 32.8977C65.0241 33.0511 65.2647 33.1278 65.5469 33.1278C65.8366 33.1278 66.081 33.0483 66.2798 32.8892C66.4806 32.7282 66.633 32.5114 66.7372 32.2386C66.8433 31.9659 66.8963 31.66 66.8963 31.321C66.8963 30.9858 66.8442 30.6837 66.7401 30.4148C66.6378 30.1458 66.4863 29.9328 66.2855 29.7756C66.0848 29.6165 65.8385 29.5369 65.5469 29.5369C65.2628 29.5369 65.0213 29.6136 64.8224 29.767C64.6236 29.9186 64.4721 30.1288 64.3679 30.3977C64.2656 30.6648 64.2145 30.9725 64.2145 31.321ZM69.7301 33.5994C69.4669 33.5994 69.2263 33.5483 69.0085 33.446C68.7907 33.3419 68.6174 33.1922 68.4886 32.9972C68.3598 32.8002 68.2955 32.5616 68.2955 32.2812C68.2955 32.0653 68.3362 31.8835 68.4176 31.7358C68.4991 31.5881 68.6146 31.4669 68.7642 31.3722C68.9138 31.2775 69.0909 31.2027 69.2955 31.1477C69.5 31.0928 69.7254 31.0502 69.9716 31.0199C70.2159 30.9896 70.4223 30.9631 70.5909 30.9403C70.7614 30.9176 70.8911 30.8816 70.9801 30.8324C71.0691 30.7831 71.1136 30.7036 71.1136 30.5938V30.4915C71.1136 30.1941 71.0246 29.9602 70.8466 29.7898C70.6705 29.6174 70.4167 29.5312 70.0852 29.5312C69.7708 29.5312 69.5142 29.6004 69.3153 29.7386C69.1184 29.8769 68.9801 30.0398 68.9006 30.2273L68.4205 30.054C68.5189 29.8153 68.6553 29.625 68.8295 29.483C69.0038 29.339 69.1989 29.2358 69.4148 29.1733C69.6307 29.1089 69.8494 29.0767 70.071 29.0767C70.2377 29.0767 70.411 29.0985 70.5909 29.142C70.7727 29.1856 70.9413 29.2614 71.0966 29.3693C71.2519 29.4754 71.3778 29.6241 71.4744 29.8153C71.571 30.0047 71.6193 30.2453 71.6193 30.5369V33.5H71.1136V32.8097H71.0824C71.0218 32.9384 70.9318 33.0634 70.8125 33.1847C70.6932 33.3059 70.5436 33.4053 70.3636 33.483C70.1837 33.5606 69.9725 33.5994 69.7301 33.5994ZM69.7983 33.1364C70.0672 33.1364 70.3002 33.0767 70.4972 32.9574C70.6941 32.8381 70.8456 32.6799 70.9517 32.483C71.0597 32.2841 71.1136 32.0653 71.1136 31.8267V31.196C71.0758 31.232 71.0123 31.2642 70.9233 31.2926C70.8362 31.321 70.7348 31.3466 70.6193 31.3693C70.5057 31.3902 70.392 31.4081 70.2784 31.4233C70.1648 31.4384 70.0625 31.4517 69.9716 31.4631C69.7254 31.4934 69.5152 31.5407 69.3409 31.6051C69.1667 31.6695 69.0331 31.7585 68.9403 31.8722C68.8475 31.9839 68.8011 32.1278 68.8011 32.304C68.8011 32.5691 68.8958 32.7746 69.0852 32.9205C69.2746 33.0644 69.5123 33.1364 69.7983 33.1364ZM73.4702 27.6818V33.5H72.9645V27.6818H73.4702ZM76.027 33.5994C75.7637 33.5994 75.5232 33.5483 75.3054 33.446C75.0876 33.3419 74.9143 33.1922 74.7855 32.9972C74.6567 32.8002 74.5923 32.5616 74.5923 32.2812C74.5923 32.0653 74.633 31.8835 74.7145 31.7358C74.7959 31.5881 74.9115 31.4669 75.0611 31.3722C75.2107 31.2775 75.3878 31.2027 75.5923 31.1477C75.7969 31.0928 76.0223 31.0502 76.2685 31.0199C76.5128 30.9896 76.7192 30.9631 76.8878 30.9403C77.0582 30.9176 77.188 30.8816 77.277 30.8324C77.366 30.7831 77.4105 30.7036 77.4105 30.5938V30.4915C77.4105 30.1941 77.3215 29.9602 77.1435 29.7898C76.9673 29.6174 76.7135 29.5312 76.3821 29.5312C76.0677 29.5312 75.8111 29.6004 75.6122 29.7386C75.4152 29.8769 75.277 30.0398 75.1974 30.2273L74.7173 30.054C74.8158 29.8153 74.9522 29.625 75.1264 29.483C75.3007 29.339 75.4957 29.2358 75.7116 29.1733C75.9276 29.1089 76.1463 29.0767 76.3679 29.0767C76.5346 29.0767 76.7079 29.0985 76.8878 29.142C77.0696 29.1856 77.2382 29.2614 77.3935 29.3693C77.5488 29.4754 77.6747 29.6241 77.7713 29.8153C77.8679 30.0047 77.9162 30.2453 77.9162 30.5369V33.5H77.4105V32.8097H77.3793C77.3187 32.9384 77.2287 33.0634 77.1094 33.1847C76.9901 33.3059 76.8404 33.4053 76.6605 33.483C76.4806 33.5606 76.2694 33.5994 76.027 33.5994ZM76.0952 33.1364C76.3641 33.1364 76.5971 33.0767 76.794 32.9574C76.991 32.8381 77.1425 32.6799 77.2486 32.483C77.3565 32.2841 77.4105 32.0653 77.4105 31.8267V31.196C77.3726 31.232 77.3092 31.2642 77.2202 31.2926C77.133 31.321 77.0317 31.3466 76.9162 31.3693C76.8026 31.3902 76.6889 31.4081 76.5753 31.4233C76.4616 31.4384 76.3594 31.4517 76.2685 31.4631C76.0223 31.4934 75.812 31.5407 75.6378 31.6051C75.4635 31.6695 75.33 31.7585 75.2372 31.8722C75.1444 31.9839 75.098 32.1278 75.098 32.304C75.098 32.5691 75.1927 32.7746 75.3821 32.9205C75.5715 33.0644 75.8092 33.1364 76.0952 33.1364ZM79.4574 35.1364C79.357 35.1364 79.2633 35.1269 79.1761 35.108C79.089 35.089 79.0199 35.0682 78.9688 35.0455L79.1051 34.5994C79.2775 34.6525 79.4309 34.6714 79.5653 34.6562C79.6998 34.643 79.8191 34.5824 79.9233 34.4744C80.0275 34.3684 80.1203 34.2055 80.2017 33.9858L80.3608 33.5426L78.7557 29.1364H79.304L80.5994 32.8324H80.6392L81.9347 29.1364H82.483L80.6364 34.1903C80.5587 34.4006 80.4631 34.5758 80.3494 34.7159C80.2358 34.858 80.1042 34.9631 79.9545 35.0312C79.8068 35.1013 79.6411 35.1364 79.4574 35.1364ZM84.5582 33.5994C84.295 33.5994 84.0545 33.5483 83.8366 33.446C83.6188 33.3419 83.4455 33.1922 83.3168 32.9972C83.188 32.8002 83.1236 32.5616 83.1236 32.2812C83.1236 32.0653 83.1643 31.8835 83.2457 31.7358C83.3272 31.5881 83.4427 31.4669 83.5923 31.3722C83.742 31.2775 83.919 31.2027 84.1236 31.1477C84.3281 31.0928 84.5535 31.0502 84.7997 31.0199C85.044 30.9896 85.2505 30.9631 85.419 30.9403C85.5895 30.9176 85.7192 30.8816 85.8082 30.8324C85.8973 30.7831 85.9418 30.7036 85.9418 30.5938V30.4915C85.9418 30.1941 85.8527 29.9602 85.6747 29.7898C85.4986 29.6174 85.2448 29.5312 84.9134 29.5312C84.599 29.5312 84.3423 29.6004 84.1435 29.7386C83.9465 29.8769 83.8082 30.0398 83.7287 30.2273L83.2486 30.054C83.3471 29.8153 83.4834 29.625 83.6577 29.483C83.8319 29.339 84.027 29.2358 84.2429 29.1733C84.4588 29.1089 84.6776 29.0767 84.8991 29.0767C85.0658 29.0767 85.2391 29.0985 85.419 29.142C85.6009 29.1856 85.7694 29.2614 85.9247 29.3693C86.08 29.4754 86.206 29.6241 86.3026 29.8153C86.3991 30.0047 86.4474 30.2453 86.4474 30.5369V33.5H85.9418V32.8097H85.9105C85.8499 32.9384 85.7599 33.0634 85.6406 33.1847C85.5213 33.3059 85.3717 33.4053 85.1918 33.483C85.0118 33.5606 84.8007 33.5994 84.5582 33.5994ZM84.6264 33.1364C84.8954 33.1364 85.1283 33.0767 85.3253 32.9574C85.5223 32.8381 85.6738 32.6799 85.7798 32.483C85.8878 32.2841 85.9418 32.0653 85.9418 31.8267V31.196C85.9039 31.232 85.8404 31.2642 85.7514 31.2926C85.6643 31.321 85.563 31.3466 85.4474 31.3693C85.3338 31.3902 85.2202 31.4081 85.1065 31.4233C84.9929 31.4384 84.8906 31.4517 84.7997 31.4631C84.5535 31.4934 84.3433 31.5407 84.169 31.6051C83.9948 31.6695 83.8613 31.7585 83.7685 31.8722C83.6757 31.9839 83.6293 32.1278 83.6293 32.304C83.6293 32.5691 83.724 32.7746 83.9134 32.9205C84.1027 33.0644 84.3404 33.1364 84.6264 33.1364ZM87.7926 33.5V29.1364H88.2841V29.8068H88.3295C88.4167 29.5814 88.5616 29.4044 88.7642 29.2756C88.9688 29.1449 89.214 29.0795 89.5 29.0795C89.8011 29.0795 90.0483 29.1506 90.2415 29.2926C90.4366 29.4328 90.5824 29.6259 90.679 29.8722H90.7159C90.8144 29.6297 90.9744 29.4375 91.196 29.2955C91.4195 29.1515 91.6903 29.0795 92.0085 29.0795C92.4138 29.0795 92.7339 29.2074 92.9688 29.4631C93.2036 29.7169 93.321 30.0881 93.321 30.5767V33.5H92.8153V30.5767C92.8153 30.232 92.7273 29.9735 92.5511 29.8011C92.375 29.6288 92.143 29.5426 91.8551 29.5426C91.5218 29.5426 91.2652 29.6449 91.0852 29.8494C90.9053 30.054 90.8153 30.3134 90.8153 30.6278V33.5H90.2983V30.5312C90.2983 30.2358 90.2159 29.9972 90.0511 29.8153C89.8864 29.6335 89.6544 29.5426 89.3551 29.5426C89.1544 29.5426 88.9735 29.5919 88.8125 29.6903C88.6534 29.7888 88.5275 29.9261 88.4347 30.1023C88.3438 30.2765 88.2983 30.4773 88.2983 30.7045V33.5H87.7926ZM95.5007 32.7045L95.4496 33.0085C95.4174 33.2131 95.3719 33.4384 95.3132 33.6847C95.2545 33.9309 95.1939 34.1648 95.1314 34.3864C95.0689 34.608 95.0149 34.786 94.9695 34.9205H94.5803C94.6049 34.7917 94.6361 34.6278 94.674 34.429C94.7138 34.2301 94.7545 34.0095 94.7962 33.767C94.8378 33.5265 94.8757 33.2784 94.9098 33.0227L94.9496 32.7045H95.5007ZM5.32955 40.5H4.79545C4.75568 40.3011 4.68371 40.1174 4.57955 39.9489C4.47727 39.7784 4.34848 39.6297 4.19318 39.5028C4.03788 39.3759 3.86174 39.2775 3.66477 39.2074C3.4678 39.1373 3.25473 39.1023 3.02557 39.1023C2.65814 39.1023 2.32292 39.1979 2.01989 39.3892C1.71875 39.5805 1.47727 39.8617 1.29545 40.233C1.11553 40.6023 1.02557 41.0549 1.02557 41.5909C1.02557 42.1307 1.11553 42.5852 1.29545 42.9545C1.47727 43.3239 1.71875 43.6042 2.01989 43.7955C2.32292 43.9848 2.65814 44.0795 3.02557 44.0795C3.25473 44.0795 3.4678 44.0445 3.66477 43.9744C3.86174 43.9044 4.03788 43.8068 4.19318 43.6818C4.34848 43.5549 4.47727 43.4062 4.57955 43.2358C4.68371 43.0653 4.75568 42.8807 4.79545 42.6818H5.32955C5.2822 42.9489 5.19318 43.1979 5.0625 43.429C4.93371 43.6581 4.76894 43.8589 4.56818 44.0312C4.36932 44.2036 4.14015 44.3381 3.88068 44.4347C3.62121 44.5312 3.33617 44.5795 3.02557 44.5795C2.53693 44.5795 2.10322 44.4574 1.72443 44.2131C1.34564 43.9669 1.0483 43.6203 0.832386 43.1733C0.618371 42.7263 0.511364 42.1989 0.511364 41.5909C0.511364 40.983 0.618371 40.4555 0.832386 40.0085C1.0483 39.5616 1.34564 39.2159 1.72443 38.9716C2.10322 38.7254 2.53693 38.6023 3.02557 38.6023C3.33617 38.6023 3.62121 38.6506 3.88068 38.7472C4.14015 38.8419 4.36932 38.9763 4.56818 39.1506C4.76894 39.3229 4.93371 39.5237 5.0625 39.7528C5.19318 39.982 5.2822 40.2311 5.32955 40.5ZM8.16832 44.5909C7.79143 44.5909 7.4581 44.4953 7.16832 44.304C6.88045 44.1127 6.65507 43.8485 6.49219 43.5114C6.32931 43.1723 6.24787 42.7812 6.24787 42.3381C6.24787 41.8911 6.32931 41.4981 6.49219 41.1591C6.65507 40.8182 6.88045 40.553 7.16832 40.3636C7.4581 40.1723 7.79143 40.0767 8.16832 40.0767C8.54522 40.0767 8.8776 40.1723 9.16548 40.3636C9.45336 40.5549 9.67874 40.8201 9.84162 41.1591C10.0064 41.4981 10.0888 41.8911 10.0888 42.3381C10.0888 42.7812 10.0073 43.1723 9.84446 43.5114C9.68158 43.8485 9.45526 44.1127 9.16548 44.304C8.8776 44.4953 8.54522 44.5909 8.16832 44.5909ZM8.16832 44.1278C8.47135 44.1278 8.72798 44.0464 8.93821 43.8835C9.14844 43.7206 9.30753 43.5038 9.41548 43.233C9.52533 42.9621 9.58026 42.6638 9.58026 42.3381C9.58026 42.0123 9.52533 41.7131 9.41548 41.4403C9.30753 41.1676 9.14844 40.9489 8.93821 40.7841C8.72798 40.6193 8.47135 40.5369 8.16832 40.5369C7.86719 40.5369 7.61056 40.6193 7.39844 40.7841C7.18821 40.9489 7.02817 41.1676 6.91832 41.4403C6.81037 41.7131 6.75639 42.0123 6.75639 42.3381C6.75639 42.6638 6.81037 42.9621 6.91832 43.233C7.02817 43.5038 7.18821 43.7206 7.39844 43.8835C7.60866 44.0464 7.86529 44.1278 8.16832 44.1278ZM11.2045 44.5V40.1364H11.7131V44.5H11.2045ZM11.4631 39.3864C11.3589 39.3864 11.2699 39.3513 11.196 39.2812C11.1222 39.2093 11.0852 39.1231 11.0852 39.0227C11.0852 38.9223 11.1222 38.8371 11.196 38.767C11.2699 38.6951 11.3589 38.6591 11.4631 38.6591C11.5672 38.6591 11.6563 38.6951 11.7301 38.767C11.804 38.8371 11.8409 38.9223 11.8409 39.0227C11.8409 39.1231 11.804 39.2093 11.7301 39.2812C11.6563 39.3513 11.5672 39.3864 11.4631 39.3864ZM13.0504 44.5V40.1364H13.5419V40.8068H13.5874C13.6745 40.5814 13.8194 40.4044 14.022 40.2756C14.2266 40.1449 14.4718 40.0795 14.7578 40.0795C15.0589 40.0795 15.3061 40.1506 15.4993 40.2926C15.6944 40.4328 15.8402 40.6259 15.9368 40.8722H15.9737C16.0722 40.6297 16.2322 40.4375 16.4538 40.2955C16.6773 40.1515 16.9482 40.0795 17.2663 40.0795C17.6716 40.0795 17.9917 40.2074 18.2266 40.4631C18.4614 40.7169 18.5788 41.0881 18.5788 41.5767V44.5H18.0732V41.5767C18.0732 41.232 17.9851 40.9735 17.8089 40.8011C17.6328 40.6288 17.4008 40.5426 17.1129 40.5426C16.7796 40.5426 16.523 40.6449 16.343 40.8494C16.1631 41.054 16.0732 41.3134 16.0732 41.6278V44.5H15.5561V41.5312C15.5561 41.2358 15.4737 40.9972 15.3089 40.8153C15.1442 40.6335 14.9122 40.5426 14.6129 40.5426C14.4122 40.5426 14.2313 40.5919 14.0703 40.6903C13.9112 40.7888 13.7853 40.9261 13.6925 41.1023C13.6016 41.2765 13.5561 41.4773 13.5561 41.7045V44.5H13.0504ZM20.0227 44.5V38.6818H20.5312V40.9688H20.5767C20.6335 40.8381 20.715 40.7036 20.821 40.5653C20.929 40.4271 21.0701 40.3116 21.2443 40.2188C21.4205 40.1241 21.642 40.0767 21.9091 40.0767C22.267 40.0767 22.5814 40.1714 22.8523 40.3608C23.1231 40.5483 23.3343 40.8116 23.4858 41.1506C23.6373 41.4877 23.7131 41.8807 23.7131 42.3295C23.7131 42.7803 23.6373 43.1752 23.4858 43.5142C23.3362 43.8532 23.1259 44.1174 22.8551 44.3068C22.5862 44.4962 22.2737 44.5909 21.9176 44.5909C21.6525 44.5909 21.4309 44.5436 21.2528 44.4489C21.0767 44.3542 20.9347 44.2377 20.8267 44.0994C20.7188 43.9593 20.6354 43.8229 20.5767 43.6903H20.5142V44.5H20.0227ZM20.5227 42.321C20.5227 42.6733 20.5748 42.9858 20.679 43.2585C20.785 43.5294 20.9366 43.7424 21.1335 43.8977C21.3324 44.0511 21.5729 44.1278 21.8551 44.1278C22.1449 44.1278 22.3902 44.0483 22.5909 43.8892C22.7917 43.7282 22.9441 43.5114 23.0483 43.2386C23.1525 42.9659 23.2045 42.66 23.2045 42.321C23.2045 41.9858 23.1525 41.6837 23.0483 41.4148C22.946 41.1458 22.7945 40.9328 22.5938 40.7756C22.393 40.6165 22.1468 40.5369 21.8551 40.5369C21.571 40.5369 21.3295 40.6136 21.1307 40.767C20.9337 40.9186 20.7831 41.1288 20.679 41.3977C20.5748 41.6648 20.5227 41.9725 20.5227 42.321ZM26.0426 44.5994C25.7794 44.5994 25.5388 44.5483 25.321 44.446C25.1032 44.3419 24.9299 44.1922 24.8011 43.9972C24.6723 43.8002 24.608 43.5616 24.608 43.2812C24.608 43.0653 24.6487 42.8835 24.7301 42.7358C24.8116 42.5881 24.9271 42.4669 25.0767 42.3722C25.2263 42.2775 25.4034 42.2027 25.608 42.1477C25.8125 42.0928 26.0379 42.0502 26.2841 42.0199C26.5284 41.9896 26.7348 41.9631 26.9034 41.9403C27.0739 41.9176 27.2036 41.8816 27.2926 41.8324C27.3816 41.7831 27.4261 41.7036 27.4261 41.5938V41.4915C27.4261 41.1941 27.3371 40.9602 27.1591 40.7898C26.983 40.6174 26.7292 40.5312 26.3977 40.5312C26.0833 40.5312 25.8267 40.6004 25.6278 40.7386C25.4309 40.8769 25.2926 41.0398 25.2131 41.2273L24.733 41.054C24.8314 40.8153 24.9678 40.625 25.142 40.483C25.3163 40.339 25.5114 40.2358 25.7273 40.1733C25.9432 40.1089 26.1619 40.0767 26.3835 40.0767C26.5502 40.0767 26.7235 40.0985 26.9034 40.142C27.0852 40.1856 27.2538 40.2614 27.4091 40.3693C27.5644 40.4754 27.6903 40.6241 27.7869 40.8153C27.8835 41.0047 27.9318 41.2453 27.9318 41.5369V44.5H27.4261V43.8097H27.3949C27.3343 43.9384 27.2443 44.0634 27.125 44.1847C27.0057 44.3059 26.8561 44.4053 26.6761 44.483C26.4962 44.5606 26.285 44.5994 26.0426 44.5994ZM26.1108 44.1364C26.3797 44.1364 26.6127 44.0767 26.8097 43.9574C27.0066 43.8381 27.1581 43.6799 27.2642 43.483C27.3722 43.2841 27.4261 43.0653 27.4261 42.8267V42.196C27.3883 42.232 27.3248 42.2642 27.2358 42.2926C27.1487 42.321 27.0473 42.3466 26.9318 42.3693C26.8182 42.3902 26.7045 42.4081 26.5909 42.4233C26.4773 42.4384 26.375 42.4517 26.2841 42.4631C26.0379 42.4934 25.8277 42.5407 25.6534 42.6051C25.4792 42.6695 25.3456 42.7585 25.2528 42.8722C25.16 42.9839 25.1136 43.1278 25.1136 43.304C25.1136 43.5691 25.2083 43.7746 25.3977 43.9205C25.5871 44.0644 25.8248 44.1364 26.1108 44.1364ZM30.9957 40.1364V40.5767H28.9134V40.1364H30.9957ZM29.5639 39.0909H30.0724V43.3608C30.0724 43.5426 30.1037 43.6856 30.1662 43.7898C30.2287 43.892 30.3101 43.965 30.4105 44.0085C30.5109 44.0502 30.6179 44.071 30.7315 44.071C30.7978 44.071 30.8546 44.0672 30.902 44.0597C30.9493 44.0502 30.991 44.0407 31.027 44.0312L31.1349 44.4886C31.0857 44.5076 31.0251 44.5246 30.9531 44.5398C30.8812 44.5568 30.7921 44.5653 30.6861 44.5653C30.5005 44.5653 30.3215 44.5246 30.1491 44.4432C29.9787 44.3617 29.8385 44.2405 29.7287 44.0795C29.6188 43.9186 29.5639 43.7188 29.5639 43.4801V39.0909ZM33.7933 44.5909C33.4164 44.5909 33.0831 44.4953 32.7933 44.304C32.5054 44.1127 32.2801 43.8485 32.1172 43.5114C31.9543 43.1723 31.8729 42.7812 31.8729 42.3381C31.8729 41.8911 31.9543 41.4981 32.1172 41.1591C32.2801 40.8182 32.5054 40.553 32.7933 40.3636C33.0831 40.1723 33.4164 40.0767 33.7933 40.0767C34.1702 40.0767 34.5026 40.1723 34.7905 40.3636C35.0784 40.5549 35.3037 40.8201 35.4666 41.1591C35.6314 41.4981 35.7138 41.8911 35.7138 42.3381C35.7138 42.7812 35.6323 43.1723 35.4695 43.5114C35.3066 43.8485 35.0803 44.1127 34.7905 44.304C34.5026 44.4953 34.1702 44.5909 33.7933 44.5909ZM33.7933 44.1278C34.0964 44.1278 34.353 44.0464 34.5632 43.8835C34.7734 43.7206 34.9325 43.5038 35.0405 43.233C35.1503 42.9621 35.2053 42.6638 35.2053 42.3381C35.2053 42.0123 35.1503 41.7131 35.0405 41.4403C34.9325 41.1676 34.7734 40.9489 34.5632 40.7841C34.353 40.6193 34.0964 40.5369 33.7933 40.5369C33.4922 40.5369 33.2356 40.6193 33.0234 40.7841C32.8132 40.9489 32.6532 41.1676 32.5433 41.4403C32.4354 41.7131 32.3814 42.0123 32.3814 42.3381C32.3814 42.6638 32.4354 42.9621 32.5433 43.233C32.6532 43.5038 32.8132 43.7206 33.0234 43.8835C33.2337 44.0464 33.4903 44.1278 33.7933 44.1278ZM36.8239 44.5V40.1364H37.3153V40.8068H37.3523C37.4394 40.5871 37.5909 40.41 37.8068 40.2756C38.0246 40.1392 38.2708 40.071 38.5455 40.071C38.5871 40.071 38.6335 40.072 38.6847 40.0739C38.7358 40.0758 38.7784 40.0777 38.8125 40.0795V40.5938C38.7898 40.59 38.75 40.5843 38.6932 40.5767C38.6364 40.5691 38.5748 40.5653 38.5085 40.5653C38.2813 40.5653 38.0786 40.6136 37.9006 40.7102C37.7244 40.8049 37.5852 40.9366 37.483 41.1051C37.3807 41.2737 37.3295 41.4659 37.3295 41.6818V44.5H36.8239ZM41.3068 44.5909C40.8996 44.5909 40.5473 44.4962 40.25 44.3068C39.9527 44.1155 39.7225 43.8513 39.5597 43.5142C39.3987 43.1752 39.3182 42.785 39.3182 42.3438C39.3182 41.9044 39.3987 41.5142 39.5597 41.1733C39.7225 40.8305 39.947 40.5625 40.233 40.3693C40.5208 40.1742 40.8532 40.0767 41.2301 40.0767C41.4669 40.0767 41.6951 40.1203 41.9148 40.2074C42.1345 40.2926 42.3314 40.4242 42.5057 40.6023C42.6818 40.7784 42.821 41.0009 42.9233 41.2699C43.0256 41.5369 43.0767 41.8532 43.0767 42.2188V42.4688H39.6676V42.0227H42.5597C42.5597 41.7424 42.5028 41.4905 42.3892 41.267C42.2775 41.0417 42.1212 40.8636 41.9205 40.733C41.7216 40.6023 41.4915 40.5369 41.2301 40.5369C40.9536 40.5369 40.7102 40.6108 40.5 40.7585C40.2898 40.9062 40.125 41.1013 40.0057 41.3438C39.8883 41.5862 39.8286 41.8513 39.8267 42.1392V42.4062C39.8267 42.7528 39.8864 43.0559 40.0057 43.3153C40.1269 43.5729 40.2983 43.7727 40.5199 43.9148C40.7415 44.0568 41.0038 44.1278 41.3068 44.1278C41.5133 44.1278 41.6941 44.0956 41.8494 44.0312C42.0066 43.9669 42.1383 43.8807 42.2443 43.7727C42.3523 43.6629 42.4337 43.5426 42.4886 43.4119L42.9688 43.5682C42.9025 43.7519 42.7936 43.9214 42.642 44.0767C42.4924 44.232 42.3049 44.357 42.0795 44.4517C41.8561 44.5445 41.5985 44.5909 41.3068 44.5909ZM46.5462 41.767V42.2443H44.1257V41.767H46.5462ZM49.6286 44.5795C49.388 44.5777 49.1532 44.5294 48.924 44.4347C48.6948 44.3381 48.4884 44.1837 48.3047 43.9716C48.121 43.7576 47.9751 43.4754 47.8672 43.125C47.7592 42.7746 47.7053 42.3437 47.7053 41.8324C47.7053 41.3589 47.7469 40.9252 47.8303 40.5312C47.9136 40.1373 48.0386 39.7964 48.2053 39.5085C48.3719 39.2206 48.5803 38.9981 48.8303 38.8409C49.0803 38.6818 49.3729 38.6023 49.7081 38.6023C50.0225 38.6023 50.3 38.6676 50.5405 38.7983C50.781 38.9271 50.9761 39.107 51.1257 39.3381C51.2753 39.5691 51.3691 39.8352 51.407 40.1364H50.8842C50.8312 39.8295 50.7053 39.5767 50.5064 39.3778C50.3075 39.179 50.0414 39.0795 49.7081 39.0795C49.2308 39.0795 48.8615 39.3011 48.6001 39.7443C48.3388 40.1856 48.2071 40.8125 48.2053 41.625H48.2422C48.335 41.4527 48.4543 41.304 48.6001 41.179C48.7479 41.0521 48.9155 40.9536 49.103 40.8835C49.2905 40.8116 49.4875 40.7756 49.6939 40.7756C50.0178 40.7756 50.3142 40.858 50.5831 41.0227C50.852 41.1856 51.067 41.41 51.228 41.696C51.389 41.9801 51.4695 42.3049 51.4695 42.6705C51.4695 43.017 51.3928 43.3362 51.2393 43.6278C51.0878 43.9195 50.8738 44.1515 50.5973 44.3239C50.3227 44.4962 49.9998 44.5814 49.6286 44.5795ZM49.6286 44.1023C49.8823 44.1023 50.1087 44.0379 50.3075 43.9091C50.5083 43.7803 50.6664 43.608 50.782 43.392C50.8975 43.1742 50.9553 42.9337 50.9553 42.6705C50.9553 42.4072 50.8975 42.1686 50.782 41.9545C50.6664 41.7405 50.5083 41.5701 50.3075 41.4432C50.1087 41.3163 49.8823 41.2528 49.6286 41.2528C49.4354 41.2528 49.2554 41.2926 49.0888 41.3722C48.9221 41.4498 48.7772 41.5568 48.6541 41.6932C48.5329 41.8277 48.4401 41.982 48.3757 42.1562C48.3132 42.3305 48.2895 42.5133 48.3047 42.7045C48.3255 42.9716 48.3946 43.2112 48.5121 43.4233C48.6314 43.6335 48.7867 43.7992 48.978 43.9205C49.1712 44.0417 49.388 44.1023 49.6286 44.1023ZM52.532 43.25V42.8182L55.1257 38.6818H55.4439V39.4062H55.2081L53.1257 42.7358V42.7727H56.5263V43.25H52.532ZM55.2479 44.5V43.1136V42.9148V38.6818H55.7536V44.5H55.2479ZM59.3963 38.6818V44.5H58.8651V39.2386H58.831L57.4673 40.1449V39.5938L58.8423 38.6818H59.3963ZM62.9588 38.6818V44.5H62.4276V39.2386H62.3935L61.0298 40.1449V39.5938L62.4048 38.6818H62.9588ZM66.5327 44.5795C66.1236 44.5795 65.7741 44.4621 65.4844 44.2273C65.1965 43.9905 64.9749 43.6487 64.8196 43.2017C64.6662 42.7547 64.5895 42.2178 64.5895 41.5909C64.5895 40.9659 64.6662 40.4309 64.8196 39.9858C64.9749 39.5388 65.1974 39.197 65.4872 38.9602C65.7789 38.7216 66.1274 38.6023 66.5327 38.6023C66.938 38.6023 67.2855 38.7216 67.5753 38.9602C67.867 39.197 68.0895 39.5388 68.2429 39.9858C68.3982 40.4309 68.4759 40.9659 68.4759 41.5909C68.4759 42.2178 68.3982 42.7547 68.2429 43.2017C68.0895 43.6487 67.8679 43.9905 67.5781 44.2273C67.2902 44.4621 66.9418 44.5795 66.5327 44.5795ZM66.5327 44.1023C66.9815 44.1023 67.3319 43.8835 67.5838 43.446C67.8357 43.0066 67.9616 42.3883 67.9616 41.5909C67.9616 41.0606 67.9039 40.608 67.7884 40.233C67.6747 39.8561 67.5109 39.5682 67.2969 39.3693C67.0848 39.1705 66.83 39.071 66.5327 39.071C66.0876 39.071 65.7382 39.2926 65.4844 39.7358C65.2306 40.1771 65.1037 40.7955 65.1037 41.5909C65.1037 42.1212 65.1605 42.5739 65.2741 42.9489C65.3897 43.3239 65.5535 43.6098 65.7656 43.8068C65.9796 44.0038 66.2353 44.1023 66.5327 44.1023ZM71.4304 44.5795C71.0592 44.5795 70.7287 44.5095 70.4389 44.3693C70.1491 44.2292 69.9219 44.0379 69.7571 43.7955C69.5923 43.5511 69.5099 43.2756 69.5099 42.9688C69.5099 42.7282 69.5601 42.5038 69.6605 42.2955C69.7609 42.0852 69.8991 41.9091 70.0753 41.767C70.2514 41.6231 70.4493 41.5294 70.669 41.4858V41.4545C70.383 41.3712 70.1529 41.2074 69.9787 40.9631C69.8045 40.7169 69.7183 40.4375 69.7202 40.125C69.7183 39.8352 69.7921 39.5758 69.9418 39.3466C70.0914 39.1174 70.295 38.9366 70.5526 38.804C70.812 38.6695 71.1046 38.6023 71.4304 38.6023C71.7543 38.6023 72.045 38.6695 72.3026 38.804C72.5601 38.9366 72.7637 39.1174 72.9134 39.3466C73.0649 39.5758 73.1416 39.8352 73.1435 40.125C73.1416 40.4356 73.0535 40.715 72.8793 40.9631C72.705 41.2093 72.4759 41.3731 72.1918 41.4545V41.4858C72.4115 41.5275 72.6084 41.6203 72.7827 41.7642C72.9569 41.9081 73.0952 42.0852 73.1974 42.2955C73.2997 42.5038 73.3509 42.7282 73.3509 42.9688C73.3509 43.2756 73.2675 43.5511 73.1009 43.7955C72.9361 44.0379 72.7088 44.2292 72.419 44.3693C72.1312 44.5095 71.8016 44.5795 71.4304 44.5795ZM71.4304 44.1023C71.7069 44.1023 71.9493 44.053 72.1577 43.9545C72.3679 43.8542 72.5317 43.7169 72.6491 43.5426C72.7685 43.3684 72.8281 43.1686 72.8281 42.9432C72.8281 42.7102 72.7666 42.5028 72.6435 42.321C72.5204 42.1373 72.3537 41.9924 72.1435 41.8864C71.9332 41.7784 71.6955 41.7244 71.4304 41.7244C71.1652 41.7244 70.9266 41.7784 70.7145 41.8864C70.5043 41.9924 70.3376 42.1373 70.2145 42.321C70.0933 42.5028 70.0327 42.7102 70.0327 42.9432C70.0327 43.1686 70.0904 43.3684 70.206 43.5426C70.3234 43.7169 70.4872 43.8542 70.6974 43.9545C70.9096 44.053 71.1539 44.1023 71.4304 44.1023ZM71.4304 41.2699C71.6577 41.2699 71.8613 41.2216 72.0412 41.125C72.2211 41.0284 72.3632 40.8968 72.4673 40.7301C72.5734 40.5616 72.6274 40.3703 72.6293 40.1562C72.6274 39.9441 72.5743 39.7566 72.4702 39.5938C72.366 39.429 72.224 39.3011 72.044 39.2102C71.866 39.1174 71.6615 39.071 71.4304 39.071C71.1993 39.071 70.9929 39.1174 70.8111 39.2102C70.6312 39.3011 70.4891 39.429 70.3849 39.5938C70.2827 39.7566 70.2325 39.9441 70.2344 40.1562C70.2325 40.3703 70.2836 40.5616 70.3878 40.7301C70.4938 40.8968 70.6368 41.0284 70.8168 41.125C70.9986 41.2216 71.2031 41.2699 71.4304 41.2699ZM75.1804 43.7045L75.1293 44.0085C75.0971 44.2131 75.0516 44.4384 74.9929 44.6847C74.9342 44.9309 74.8736 45.1648 74.8111 45.3864C74.7486 45.608 74.6946 45.786 74.6491 45.9205H74.2599C74.2846 45.7917 74.3158 45.6278 74.3537 45.429C74.3935 45.2301 74.4342 45.0095 74.4759 44.767C74.5175 44.5265 74.5554 44.2784 74.5895 44.0227L74.6293 43.7045H75.1804ZM78.522 39.1591V38.6818H82.7408V39.1591H80.897V44.5H80.3658V39.1591H78.522ZM84.4567 44.5994C84.1934 44.5994 83.9529 44.5483 83.7351 44.446C83.5173 44.3419 83.344 44.1922 83.2152 43.9972C83.0864 43.8002 83.022 43.5616 83.022 43.2812C83.022 43.0653 83.0627 42.8835 83.1442 42.7358C83.2256 42.5881 83.3411 42.4669 83.4908 42.3722C83.6404 42.2775 83.8175 42.2027 84.022 42.1477C84.2266 42.0928 84.4519 42.0502 84.6982 42.0199C84.9425 41.9896 85.1489 41.9631 85.3175 41.9403C85.4879 41.9176 85.6177 41.8816 85.7067 41.8324C85.7957 41.7831 85.8402 41.7036 85.8402 41.5938V41.4915C85.8402 41.1941 85.7512 40.9602 85.5732 40.7898C85.397 40.6174 85.1432 40.5312 84.8118 40.5312C84.4974 40.5312 84.2408 40.6004 84.0419 40.7386C83.8449 40.8769 83.7067 41.0398 83.6271 41.2273L83.147 41.054C83.2455 40.8153 83.3819 40.625 83.5561 40.483C83.7304 40.339 83.9254 40.2358 84.1413 40.1733C84.3572 40.1089 84.576 40.0767 84.7976 40.0767C84.9643 40.0767 85.1375 40.0985 85.3175 40.142C85.4993 40.1856 85.6679 40.2614 85.8232 40.3693C85.9785 40.4754 86.1044 40.6241 86.201 40.8153C86.2976 41.0047 86.3459 41.2453 86.3459 41.5369V44.5H85.8402V43.8097H85.8089C85.7483 43.9384 85.6584 44.0634 85.5391 44.1847C85.4197 44.3059 85.2701 44.4053 85.0902 44.483C84.9103 44.5606 84.6991 44.5994 84.4567 44.5994ZM84.5249 44.1364C84.7938 44.1364 85.0268 44.0767 85.2237 43.9574C85.4207 43.8381 85.5722 43.6799 85.6783 43.483C85.7862 43.2841 85.8402 43.0653 85.8402 42.8267V42.196C85.8023 42.232 85.7389 42.2642 85.6499 42.2926C85.5627 42.321 85.4614 42.3466 85.3459 42.3693C85.2322 42.3902 85.1186 42.4081 85.005 42.4233C84.8913 42.4384 84.7891 42.4517 84.6982 42.4631C84.4519 42.4934 84.2417 42.5407 84.0675 42.6051C83.8932 42.6695 83.7597 42.7585 83.6669 42.8722C83.5741 42.9839 83.5277 43.1278 83.5277 43.304C83.5277 43.5691 83.6224 43.7746 83.8118 43.9205C84.0012 44.0644 84.2389 44.1364 84.5249 44.1364ZM87.6911 44.5V40.1364H88.1825V40.8068H88.228C88.3151 40.5814 88.46 40.4044 88.6626 40.2756C88.8672 40.1449 89.1125 40.0795 89.3984 40.0795C89.6996 40.0795 89.9467 40.1506 90.1399 40.2926C90.335 40.4328 90.4808 40.6259 90.5774 40.8722H90.6143C90.7128 40.6297 90.8729 40.4375 91.0945 40.2955C91.3179 40.1515 91.5888 40.0795 91.907 40.0795C92.3123 40.0795 92.6323 40.2074 92.8672 40.4631C93.102 40.7169 93.2195 41.0881 93.2195 41.5767V44.5H92.7138V41.5767C92.7138 41.232 92.6257 40.9735 92.4496 40.8011C92.2734 40.6288 92.0414 40.5426 91.7536 40.5426C91.4202 40.5426 91.1636 40.6449 90.9837 40.8494C90.8037 41.054 90.7138 41.3134 90.7138 41.6278V44.5H90.1967V41.5312C90.1967 41.2358 90.1143 40.9972 89.9496 40.8153C89.7848 40.6335 89.5528 40.5426 89.2536 40.5426C89.0528 40.5426 88.8719 40.5919 88.7109 40.6903C88.5518 40.7888 88.4259 40.9261 88.3331 41.1023C88.2422 41.2765 88.1967 41.4773 88.1967 41.7045V44.5H87.6911ZM94.5639 44.5V40.1364H95.0724V44.5H94.5639ZM94.8224 39.3864C94.7183 39.3864 94.6293 39.3513 94.5554 39.2812C94.4815 39.2093 94.4446 39.1231 94.4446 39.0227C94.4446 38.9223 94.4815 38.8371 94.5554 38.767C94.6293 38.6951 94.7183 38.6591 94.8224 38.6591C94.9266 38.6591 95.0156 38.6951 95.0895 38.767C95.1634 38.8371 95.2003 38.9223 95.2003 39.0227C95.2003 39.1231 95.1634 39.2093 95.0895 39.2812C95.0156 39.3513 94.9266 39.3864 94.8224 39.3864ZM96.9155 38.6818V44.5H96.4098V38.6818H96.9155ZM105.14 38.6818V44.5H104.623L101.185 39.6278H101.14V44.5H100.609V38.6818H101.123L104.572 43.5597H104.617V38.6818H105.14ZM107.8 44.5994C107.537 44.5994 107.297 44.5483 107.079 44.446C106.861 44.3419 106.688 44.1922 106.559 43.9972C106.43 43.8002 106.366 43.5616 106.366 43.2812C106.366 43.0653 106.406 42.8835 106.488 42.7358C106.569 42.5881 106.685 42.4669 106.835 42.3722C106.984 42.2775 107.161 42.2027 107.366 42.1477C107.57 42.0928 107.796 42.0502 108.042 42.0199C108.286 41.9896 108.493 41.9631 108.661 41.9403C108.832 41.9176 108.961 41.8816 109.05 41.8324C109.139 41.7831 109.184 41.7036 109.184 41.5938V41.4915C109.184 41.1941 109.095 40.9602 108.917 40.7898C108.741 40.6174 108.487 40.5312 108.156 40.5312C107.841 40.5312 107.585 40.6004 107.386 40.7386C107.189 40.8769 107.05 41.0398 106.971 41.2273L106.491 41.054C106.589 40.8153 106.726 40.625 106.9 40.483C107.074 40.339 107.269 40.2358 107.485 40.1733C107.701 40.1089 107.92 40.0767 108.141 40.0767C108.308 40.0767 108.481 40.0985 108.661 40.142C108.843 40.1856 109.012 40.2614 109.167 40.3693C109.322 40.4754 109.448 40.6241 109.545 40.8153C109.641 41.0047 109.69 41.2453 109.69 41.5369V44.5H109.184V43.8097H109.153C109.092 43.9384 109.002 44.0634 108.883 44.1847C108.763 44.3059 108.614 44.4053 108.434 44.483C108.254 44.5606 108.043 44.5994 107.8 44.5994ZM107.869 44.1364C108.138 44.1364 108.371 44.0767 108.567 43.9574C108.764 43.8381 108.916 43.6799 109.022 43.483C109.13 43.2841 109.184 43.0653 109.184 42.8267V42.196C109.146 42.232 109.083 42.2642 108.994 42.2926C108.906 42.321 108.805 42.3466 108.69 42.3693C108.576 42.3902 108.462 42.4081 108.349 42.4233C108.235 42.4384 108.133 42.4517 108.042 42.4631C107.796 42.4934 107.585 42.5407 107.411 42.6051C107.237 42.6695 107.103 42.7585 107.011 42.8722C106.918 42.9839 106.871 43.1278 106.871 43.304C106.871 43.5691 106.966 43.7746 107.156 43.9205C107.345 44.0644 107.583 44.1364 107.869 44.1364ZM112.606 44.5909C112.248 44.5909 111.934 44.4962 111.665 44.3068C111.397 44.1174 111.186 43.8532 111.035 43.5142C110.885 43.1752 110.81 42.7803 110.81 42.3295C110.81 41.8807 110.885 41.4877 111.035 41.1506C111.186 40.8116 111.397 40.5483 111.668 40.3608C111.939 40.1714 112.254 40.0767 112.614 40.0767C112.879 40.0767 113.1 40.1241 113.276 40.2188C113.452 40.3116 113.594 40.4271 113.7 40.5653C113.806 40.7036 113.888 40.8381 113.947 40.9688H113.992V38.6818H114.501V44.5H114.006V43.6903H113.947C113.888 43.8229 113.805 43.9593 113.697 44.0994C113.589 44.2377 113.446 44.3542 113.268 44.4489C113.092 44.5436 112.871 44.5909 112.606 44.5909ZM112.665 44.1278C112.948 44.1278 113.188 44.0511 113.387 43.8977C113.586 43.7424 113.737 43.5294 113.842 43.2585C113.948 42.9858 114.001 42.6733 114.001 42.321C114.001 41.9725 113.949 41.6648 113.844 41.3977C113.74 41.1288 113.589 40.9186 113.39 40.767C113.191 40.6136 112.95 40.5369 112.665 40.5369C112.374 40.5369 112.128 40.6165 111.927 40.7756C111.728 40.9328 111.576 41.1458 111.472 41.4148C111.37 41.6837 111.319 41.9858 111.319 42.321C111.319 42.66 111.371 42.9659 111.475 43.2386C111.579 43.5114 111.731 43.7282 111.93 43.8892C112.13 44.0483 112.376 44.1278 112.665 44.1278ZM118.714 42.8324V40.1364H119.219V44.5H118.714V43.7756H118.674C118.572 43.9991 118.41 44.1856 118.188 44.3352C117.967 44.483 117.696 44.5568 117.376 44.5568C117.097 44.5568 116.85 44.4962 116.634 44.375C116.418 44.2519 116.249 44.072 116.126 43.8352C116.003 43.5985 115.941 43.3078 115.941 42.9631V40.1364H116.447V42.9318C116.447 43.2727 116.547 43.5473 116.748 43.7557C116.949 43.9621 117.206 44.0653 117.521 44.0653C117.718 44.0653 117.907 44.018 118.089 43.9233C118.271 43.8286 118.42 43.6903 118.538 43.5085C118.655 43.3248 118.714 43.0994 118.714 42.8324ZM121.399 43.7045L121.348 44.0085C121.316 44.2131 121.27 44.4384 121.212 44.6847C121.153 44.9309 121.092 45.1648 121.03 45.3864C120.967 45.608 120.913 45.786 120.868 45.9205H120.479C120.503 45.7917 120.535 45.6278 120.572 45.429C120.612 45.2301 120.653 45.0095 120.695 44.767C120.736 44.5265 120.774 44.2784 120.808 44.0227L120.848 43.7045H121.399ZM125.624 38.6818V44.5H125.093V38.6818H125.624ZM127.572 41.7727V44.5H127.066V40.1364H127.558V40.821H127.603C127.705 40.5975 127.864 40.4186 128.08 40.2841C128.298 40.1477 128.567 40.0795 128.887 40.0795C129.181 40.0795 129.438 40.1411 129.66 40.2642C129.883 40.3854 130.057 40.5644 130.18 40.8011C130.305 41.0379 130.367 41.3286 130.367 41.6733V44.5H129.862V41.7045C129.862 41.3466 129.761 41.0634 129.56 40.8551C129.362 40.6468 129.094 40.5426 128.759 40.5426C128.53 40.5426 128.326 40.5919 128.148 40.6903C127.97 40.7888 127.829 40.9309 127.725 41.1165C127.623 41.3002 127.572 41.5189 127.572 41.7727ZM133.27 44.5909C132.912 44.5909 132.598 44.4962 132.33 44.3068C132.061 44.1174 131.85 43.8532 131.699 43.5142C131.549 43.1752 131.474 42.7803 131.474 42.3295C131.474 41.8807 131.549 41.4877 131.699 41.1506C131.85 40.8116 132.062 40.5483 132.332 40.3608C132.603 40.1714 132.919 40.0767 133.278 40.0767C133.544 40.0767 133.764 40.1241 133.94 40.2188C134.116 40.3116 134.258 40.4271 134.364 40.5653C134.47 40.7036 134.552 40.8381 134.611 40.9688H134.656V38.6818H135.165V44.5H134.67V43.6903H134.611C134.552 43.8229 134.469 43.9593 134.361 44.0994C134.253 44.2377 134.11 44.3542 133.932 44.4489C133.756 44.5436 133.535 44.5909 133.27 44.5909ZM133.33 44.1278C133.612 44.1278 133.852 44.0511 134.051 43.8977C134.25 43.7424 134.402 43.5294 134.506 43.2585C134.612 42.9858 134.665 42.6733 134.665 42.321C134.665 41.9725 134.613 41.6648 134.509 41.3977C134.404 41.1288 134.253 40.9186 134.054 40.767C133.855 40.6136 133.614 40.5369 133.33 40.5369C133.038 40.5369 132.792 40.6165 132.591 40.7756C132.392 40.9328 132.241 41.1458 132.136 41.4148C132.034 41.6837 131.983 41.9858 131.983 42.321C131.983 42.66 132.035 42.9659 132.139 43.2386C132.243 43.5114 132.395 43.7282 132.594 43.8892C132.795 44.0483 133.04 44.1278 133.33 44.1278ZM136.611 44.5V40.1364H137.119V44.5H136.611ZM136.869 39.3864C136.765 39.3864 136.676 39.3513 136.602 39.2812C136.528 39.2093 136.491 39.1231 136.491 39.0227C136.491 38.9223 136.528 38.8371 136.602 38.767C136.676 38.6951 136.765 38.6591 136.869 38.6591C136.973 38.6591 137.063 38.6951 137.136 38.767C137.21 38.8371 137.247 38.9223 137.247 39.0227C137.247 39.1231 137.21 39.2093 137.136 39.2812C137.063 39.3513 136.973 39.3864 136.869 39.3864ZM139.675 44.5994C139.412 44.5994 139.172 44.5483 138.954 44.446C138.736 44.3419 138.563 44.1922 138.434 43.9972C138.305 43.8002 138.241 43.5616 138.241 43.2812C138.241 43.0653 138.281 42.8835 138.363 42.7358C138.444 42.5881 138.56 42.4669 138.71 42.3722C138.859 42.2775 139.036 42.2027 139.241 42.1477C139.445 42.0928 139.671 42.0502 139.917 42.0199C140.161 41.9896 140.368 41.9631 140.536 41.9403C140.707 41.9176 140.836 41.8816 140.925 41.8324C141.014 41.7831 141.059 41.7036 141.059 41.5938V41.4915C141.059 41.1941 140.97 40.9602 140.792 40.7898C140.616 40.6174 140.362 40.5312 140.031 40.5312C139.716 40.5312 139.46 40.6004 139.261 40.7386C139.064 40.8769 138.925 41.0398 138.846 41.2273L138.366 41.054C138.464 40.8153 138.601 40.625 138.775 40.483C138.949 40.339 139.144 40.2358 139.36 40.1733C139.576 40.1089 139.795 40.0767 140.016 40.0767C140.183 40.0767 140.356 40.0985 140.536 40.142C140.718 40.1856 140.887 40.2614 141.042 40.3693C141.197 40.4754 141.323 40.6241 141.42 40.8153C141.516 41.0047 141.565 41.2453 141.565 41.5369V44.5H141.059V43.8097H141.028C140.967 43.9384 140.877 44.0634 140.758 44.1847C140.638 44.3059 140.489 44.4053 140.309 44.483C140.129 44.5606 139.918 44.5994 139.675 44.5994ZM139.744 44.1364C140.013 44.1364 140.246 44.0767 140.442 43.9574C140.639 43.8381 140.791 43.6799 140.897 43.483C141.005 43.2841 141.059 43.0653 141.059 42.8267V42.196C141.021 42.232 140.958 42.2642 140.869 42.2926C140.781 42.321 140.68 42.3466 140.565 42.3693C140.451 42.3902 140.337 42.4081 140.224 42.4233C140.11 42.4384 140.008 42.4517 139.917 42.4631C139.671 42.4934 139.46 42.5407 139.286 42.6051C139.112 42.6695 138.978 42.7585 138.886 42.8722C138.793 42.9839 138.746 43.1278 138.746 43.304C138.746 43.5691 138.841 43.7746 139.031 43.9205C139.22 44.0644 139.458 44.1364 139.744 44.1364Z" fill="black"/>
<path d="M0.505682 8V2.18182H1.7358V4.58239H4.23295V2.18182H5.46023V8H4.23295V5.59659H1.7358V8H0.505682ZM8.44034 8.08523C7.99148 8.08523 7.60511 7.99432 7.28125 7.8125C6.95928 7.62879 6.71117 7.36932 6.53693 7.03409C6.36269 6.69697 6.27557 6.2983 6.27557 5.83807C6.27557 5.3892 6.36269 4.99527 6.53693 4.65625C6.71117 4.31723 6.95644 4.05303 7.27273 3.86364C7.59091 3.67424 7.96402 3.57955 8.39205 3.57955C8.67992 3.57955 8.94792 3.62595 9.19602 3.71875C9.44602 3.80966 9.66383 3.94697 9.84943 4.13068C10.0369 4.31439 10.1828 4.54545 10.2869 4.82386C10.3911 5.10038 10.4432 5.42424 10.4432 5.79545V6.12784H6.75852V5.37784H9.30398C9.30398 5.2036 9.2661 5.04924 9.19034 4.91477C9.11458 4.7803 9.00947 4.67519 8.875 4.59943C8.74242 4.52178 8.58807 4.48295 8.41193 4.48295C8.22822 4.48295 8.06534 4.52557 7.9233 4.6108C7.78314 4.69413 7.6733 4.80682 7.59375 4.94886C7.5142 5.08902 7.47348 5.24527 7.47159 5.41761V6.13068C7.47159 6.34659 7.51136 6.53314 7.59091 6.69034C7.67235 6.84754 7.78693 6.96875 7.93466 7.05398C8.08239 7.1392 8.25758 7.18182 8.46023 7.18182C8.5947 7.18182 8.7178 7.16288 8.82955 7.125C8.94129 7.08712 9.03693 7.0303 9.11648 6.95455C9.19602 6.87879 9.25663 6.78598 9.2983 6.67614L10.4176 6.75C10.3608 7.01894 10.2443 7.25379 10.0682 7.45455C9.89394 7.65341 9.66856 7.80871 9.39205 7.92045C9.11742 8.0303 8.80019 8.08523 8.44034 8.08523ZM12.4773 8.08239C12.1989 8.08239 11.9508 8.03409 11.733 7.9375C11.5152 7.83902 11.3428 7.69413 11.2159 7.50284C11.0909 7.30966 11.0284 7.06913 11.0284 6.78125C11.0284 6.53883 11.0729 6.33523 11.1619 6.17045C11.2509 6.00568 11.3722 5.87311 11.5256 5.77273C11.679 5.67235 11.8532 5.59659 12.0483 5.54545C12.2453 5.49432 12.4517 5.45833 12.6676 5.4375C12.9214 5.41098 13.1259 5.38636 13.2812 5.36364C13.4366 5.33902 13.5492 5.30303 13.6193 5.25568C13.6894 5.20833 13.7244 5.13826 13.7244 5.04545V5.02841C13.7244 4.84848 13.6676 4.70928 13.554 4.6108C13.4422 4.51231 13.2831 4.46307 13.0767 4.46307C12.8589 4.46307 12.6856 4.51136 12.5568 4.60795C12.428 4.70265 12.3428 4.82197 12.3011 4.96591L11.1818 4.875C11.2386 4.60985 11.3504 4.38068 11.517 4.1875C11.6837 3.99242 11.8987 3.8428 12.1619 3.73864C12.4271 3.63258 12.7339 3.57955 13.0824 3.57955C13.3248 3.57955 13.5568 3.60795 13.7784 3.66477C14.0019 3.72159 14.1998 3.80966 14.3722 3.92898C14.5464 4.0483 14.6837 4.2017 14.7841 4.3892C14.8845 4.57481 14.9347 4.79735 14.9347 5.05682V8H13.7869V7.39489H13.7528C13.6828 7.53125 13.589 7.65152 13.4716 7.75568C13.3542 7.85795 13.2131 7.93845 13.0483 7.99716C12.8835 8.05398 12.6932 8.08239 12.4773 8.08239ZM12.8239 7.24716C13.0019 7.24716 13.1591 7.21212 13.2955 7.14205C13.4318 7.07008 13.5388 6.97348 13.6165 6.85227C13.6941 6.73106 13.733 6.59375 13.733 6.44034V5.97727C13.6951 6.00189 13.643 6.02462 13.5767 6.04545C13.5123 6.06439 13.4394 6.08239 13.358 6.09943C13.2765 6.11458 13.1951 6.12879 13.1136 6.14205C13.0322 6.15341 12.9583 6.16383 12.892 6.1733C12.75 6.19413 12.6259 6.22727 12.5199 6.27273C12.4138 6.31818 12.3314 6.37973 12.2727 6.45739C12.214 6.53314 12.1847 6.62784 12.1847 6.74148C12.1847 6.90625 12.2443 7.0322 12.3636 7.11932C12.4848 7.20455 12.6383 7.24716 12.8239 7.24716ZM17.4815 8.07102C17.1501 8.07102 16.8499 7.9858 16.581 7.81534C16.3139 7.64299 16.1018 7.39015 15.9446 7.05682C15.7893 6.72159 15.7116 6.31061 15.7116 5.82386C15.7116 5.32386 15.7921 4.90814 15.9531 4.5767C16.1141 4.24337 16.3281 3.99432 16.5952 3.82955C16.8641 3.66288 17.1586 3.57955 17.4787 3.57955C17.723 3.57955 17.9266 3.62121 18.0895 3.70455C18.2543 3.78598 18.3868 3.88826 18.4872 4.01136C18.5895 4.13258 18.6671 4.25189 18.7202 4.36932H18.7571V2.18182H19.9645V8H18.7713V7.30114H18.7202C18.6634 7.42235 18.5829 7.54261 18.4787 7.66193C18.3764 7.77936 18.2429 7.87689 18.0781 7.95455C17.9152 8.0322 17.7164 8.07102 17.4815 8.07102ZM17.8651 7.10795C18.0601 7.10795 18.2249 7.05492 18.3594 6.94886C18.4957 6.84091 18.5999 6.69034 18.6719 6.49716C18.7457 6.30398 18.7827 6.07765 18.7827 5.81818C18.7827 5.55871 18.7467 5.33333 18.6747 5.14205C18.6027 4.95076 18.4986 4.80303 18.3622 4.69886C18.2259 4.5947 18.0601 4.54261 17.8651 4.54261C17.6662 4.54261 17.4986 4.59659 17.3622 4.70455C17.2259 4.8125 17.1226 4.96212 17.0526 5.15341C16.9825 5.3447 16.9474 5.56629 16.9474 5.81818C16.9474 6.07197 16.9825 6.2964 17.0526 6.49148C17.1245 6.68466 17.2277 6.83617 17.3622 6.94602C17.4986 7.05398 17.6662 7.10795 17.8651 7.10795ZM28.1804 5.09091C28.1804 5.72538 28.0601 6.26515 27.8196 6.71023C27.581 7.1553 27.2552 7.49527 26.8423 7.73011C26.4313 7.96307 25.9692 8.07955 25.456 8.07955C24.9389 8.07955 24.4749 7.96212 24.0639 7.72727C23.6529 7.49242 23.3281 7.15246 23.0895 6.70739C22.8509 6.26231 22.7315 5.72348 22.7315 5.09091C22.7315 4.45644 22.8509 3.91667 23.0895 3.47159C23.3281 3.02652 23.6529 2.6875 24.0639 2.45455C24.4749 2.2197 24.9389 2.10227 25.456 2.10227C25.9692 2.10227 26.4313 2.2197 26.8423 2.45455C27.2552 2.6875 27.581 3.02652 27.8196 3.47159C28.0601 3.91667 28.1804 4.45644 28.1804 5.09091ZM26.9332 5.09091C26.9332 4.67992 26.8717 4.33333 26.7486 4.05114C26.6274 3.76894 26.456 3.55492 26.2344 3.40909C26.0128 3.26326 25.7533 3.19034 25.456 3.19034C25.1586 3.19034 24.8991 3.26326 24.6776 3.40909C24.456 3.55492 24.2836 3.76894 24.1605 4.05114C24.0393 4.33333 23.9787 4.67992 23.9787 5.09091C23.9787 5.50189 24.0393 5.84848 24.1605 6.13068C24.2836 6.41288 24.456 6.62689 24.6776 6.77273C24.8991 6.91856 25.1586 6.99148 25.456 6.99148C25.7533 6.99148 26.0128 6.91856 26.2344 6.77273C26.456 6.62689 26.6274 6.41288 26.7486 6.13068C26.8717 5.84848 26.9332 5.50189 26.9332 5.09091ZM31.4155 3.63636V4.54545H28.7223V3.63636H31.4155ZM29.3388 8V3.32102C29.3388 3.00473 29.4003 2.74242 29.5234 2.53409C29.6484 2.32576 29.8189 2.16951 30.0348 2.06534C30.2507 1.96117 30.496 1.90909 30.7706 1.90909C30.9562 1.90909 31.1257 1.9233 31.2791 1.9517C31.4344 1.98011 31.55 2.00568 31.6257 2.02841L31.4098 2.9375C31.3625 2.92235 31.3037 2.90814 31.2337 2.89489C31.1655 2.88163 31.0954 2.875 31.0234 2.875C30.8454 2.875 30.7214 2.91667 30.6513 3C30.5812 3.08144 30.5462 3.19602 30.5462 3.34375V8H29.3388ZM34.5014 3.63636V4.54545H31.8082V3.63636H34.5014ZM32.4247 8V3.32102C32.4247 3.00473 32.4863 2.74242 32.6094 2.53409C32.7344 2.32576 32.9048 2.16951 33.1207 2.06534C33.3366 1.96117 33.5819 1.90909 33.8565 1.90909C34.0421 1.90909 34.2116 1.9233 34.3651 1.9517C34.5204 1.98011 34.6359 2.00568 34.7116 2.02841L34.4957 2.9375C34.4484 2.92235 34.3897 2.90814 34.3196 2.89489C34.2514 2.88163 34.1813 2.875 34.1094 2.875C33.9313 2.875 33.8073 2.91667 33.7372 3C33.6671 3.08144 33.6321 3.19602 33.6321 3.34375V8H32.4247ZM35.2408 8V3.63636H36.451V8H35.2408ZM35.8487 3.07386C35.6688 3.07386 35.5144 3.0142 35.3857 2.89489C35.2588 2.77367 35.1953 2.62879 35.1953 2.46023C35.1953 2.29356 35.2588 2.15057 35.3857 2.03125C35.5144 1.91004 35.6688 1.84943 35.8487 1.84943C36.0286 1.84943 36.1821 1.91004 36.3089 2.03125C36.4377 2.15057 36.5021 2.29356 36.5021 2.46023C36.5021 2.62879 36.4377 2.77367 36.3089 2.89489C36.1821 3.0142 36.0286 3.07386 35.8487 3.07386ZM39.392 8.08523C38.9451 8.08523 38.5606 7.99053 38.2386 7.80114C37.9186 7.60985 37.6723 7.3447 37.5 7.00568C37.3295 6.66667 37.2443 6.27652 37.2443 5.83523C37.2443 5.38826 37.3305 4.99621 37.5028 4.65909C37.6771 4.32008 37.9242 4.05587 38.2443 3.86648C38.5644 3.67519 38.9451 3.57955 39.3864 3.57955C39.767 3.57955 40.1004 3.64867 40.3864 3.78693C40.6723 3.92519 40.8987 4.11932 41.0653 4.36932C41.232 4.61932 41.3239 4.91288 41.3409 5.25H40.1989C40.1667 5.0322 40.0814 4.85701 39.9432 4.72443C39.8068 4.58996 39.6278 4.52273 39.4062 4.52273C39.2188 4.52273 39.0549 4.57386 38.9148 4.67614C38.7765 4.77652 38.6686 4.9233 38.5909 5.11648C38.5133 5.30966 38.4744 5.54356 38.4744 5.81818C38.4744 6.09659 38.5123 6.33333 38.5881 6.52841C38.6657 6.72348 38.7746 6.87216 38.9148 6.97443C39.0549 7.0767 39.2188 7.12784 39.4062 7.12784C39.5445 7.12784 39.6686 7.09943 39.7784 7.04261C39.8902 6.9858 39.982 6.90341 40.054 6.79545C40.1278 6.68561 40.1761 6.55398 40.1989 6.40057H41.3409C41.322 6.7339 41.2311 7.02746 41.0682 7.28125C40.9072 7.53314 40.6847 7.73011 40.4006 7.87216C40.1165 8.0142 39.7803 8.08523 39.392 8.08523ZM44.1044 8.08523C43.6555 8.08523 43.2692 7.99432 42.9453 7.8125C42.6233 7.62879 42.3752 7.36932 42.201 7.03409C42.0268 6.69697 41.9396 6.2983 41.9396 5.83807C41.9396 5.3892 42.0268 4.99527 42.201 4.65625C42.3752 4.31723 42.6205 4.05303 42.9368 3.86364C43.255 3.67424 43.6281 3.57955 44.0561 3.57955C44.344 3.57955 44.612 3.62595 44.8601 3.71875C45.1101 3.80966 45.3279 3.94697 45.5135 4.13068C45.701 4.31439 45.8468 4.54545 45.951 4.82386C46.0552 5.10038 46.1072 5.42424 46.1072 5.79545V6.12784H42.4226V5.37784H44.968C44.968 5.2036 44.9302 5.04924 44.8544 4.91477C44.7786 4.7803 44.6735 4.67519 44.5391 4.59943C44.4065 4.52178 44.2521 4.48295 44.076 4.48295C43.8923 4.48295 43.7294 4.52557 43.5874 4.6108C43.4472 4.69413 43.3374 4.80682 43.2578 4.94886C43.1783 5.08902 43.1375 5.24527 43.1357 5.41761V6.13068C43.1357 6.34659 43.1754 6.53314 43.255 6.69034C43.3364 6.84754 43.451 6.96875 43.5987 7.05398C43.7464 7.1392 43.9216 7.18182 44.1243 7.18182C44.2588 7.18182 44.3819 7.16288 44.4936 7.125C44.6054 7.08712 44.701 7.0303 44.7805 6.95455C44.8601 6.87879 44.9207 6.78598 44.9624 6.67614L46.0817 6.75C46.0249 7.01894 45.9084 7.25379 45.7322 7.45455C45.558 7.65341 45.3326 7.80871 45.0561 7.92045C44.7815 8.0303 44.4643 8.08523 44.1044 8.08523ZM47.6044 8.07386C47.4169 8.07386 47.2559 8.00758 47.1214 7.875C46.9889 7.74053 46.9226 7.57955 46.9226 7.39205C46.9226 7.20644 46.9889 7.04735 47.1214 6.91477C47.2559 6.7822 47.4169 6.71591 47.6044 6.71591C47.7862 6.71591 47.9453 6.7822 48.0817 6.91477C48.218 7.04735 48.2862 7.20644 48.2862 7.39205C48.2862 7.51705 48.254 7.63163 48.1896 7.7358C48.1271 7.83807 48.0447 7.92045 47.9425 7.98295C47.8402 8.04356 47.7275 8.07386 47.6044 8.07386ZM47.6044 5.01705C47.4169 5.01705 47.2559 4.95076 47.1214 4.81818C46.9889 4.68561 46.9226 4.52462 46.9226 4.33523C46.9226 4.14962 46.9889 3.99148 47.1214 3.8608C47.2559 3.72822 47.4169 3.66193 47.6044 3.66193C47.7862 3.66193 47.9453 3.72822 48.0817 3.8608C48.218 3.99148 48.2862 4.14962 48.2862 4.33523C48.2862 4.46212 48.254 4.57765 48.1896 4.68182C48.1271 4.78409 48.0447 4.86553 47.9425 4.92614C47.8402 4.98674 47.7275 5.01705 47.6044 5.01705Z" fill="#0C2461"/>
</svg>
