<svg width="65" height="25" viewBox="0 0 65 25" fill="none" xmlns="http://www.w3.org/2000/svg">
<path d="M2.13117 8V2.18182H4.42662C4.86791 2.18182 5.24386 2.2661 5.55447 2.43466C5.86507 2.60133 6.10181 2.83333 6.26469 3.13068C6.42947 3.42614 6.51185 3.76705 6.51185 4.15341C6.51185 4.53977 6.42852 4.88068 6.26185 5.17614C6.09519 5.47159 5.85371 5.7017 5.53742 5.86648C5.22303 6.03125 4.84234 6.11364 4.39537 6.11364H2.93231V5.12784H4.19651C4.43325 5.12784 4.62833 5.08712 4.78174 5.00568C4.93704 4.92235 5.05257 4.80777 5.12833 4.66193C5.20598 4.5142 5.24481 4.3447 5.24481 4.15341C5.24481 3.96023 5.20598 3.79167 5.12833 3.64773C5.05257 3.50189 4.93704 3.3892 4.78174 3.30966C4.62644 3.22822 4.42947 3.1875 4.19083 3.1875H3.36128V8H2.13117ZM8.49836 5.47727V8H7.28813V2.18182H8.46427V4.40625H8.5154C8.61389 4.14867 8.77298 3.94697 8.99268 3.80114C9.21237 3.65341 9.48794 3.57955 9.81938 3.57955C10.1224 3.57955 10.3866 3.64583 10.612 3.77841C10.8393 3.90909 11.0154 4.09754 11.1404 4.34375C11.2673 4.58807 11.3298 4.88068 11.3279 5.22159V8H10.1177V5.4375C10.1196 5.16856 10.0514 4.95928 9.91313 4.80966C9.77677 4.66004 9.58548 4.58523 9.33927 4.58523C9.17449 4.58523 9.02866 4.62027 8.90177 4.69034C8.77677 4.76042 8.67828 4.86269 8.60631 4.99716C8.53624 5.12973 8.50025 5.28977 8.49836 5.47727ZM14.2519 8.08523C13.8106 8.08523 13.429 7.99148 13.107 7.80398C12.7869 7.61458 12.5398 7.35133 12.3655 7.0142C12.1913 6.67519 12.1042 6.2822 12.1042 5.83523C12.1042 5.38447 12.1913 4.99053 12.3655 4.65341C12.5398 4.31439 12.7869 4.05114 13.107 3.86364C13.429 3.67424 13.8106 3.57955 14.2519 3.57955C14.6932 3.57955 15.0739 3.67424 15.394 3.86364C15.7159 4.05114 15.964 4.31439 16.1383 4.65341C16.3125 4.99053 16.3996 5.38447 16.3996 5.83523C16.3996 6.2822 16.3125 6.67519 16.1383 7.0142C15.964 7.35133 15.7159 7.61458 15.394 7.80398C15.0739 7.99148 14.6932 8.08523 14.2519 8.08523ZM14.2576 7.14773C14.4583 7.14773 14.626 7.09091 14.7604 6.97727C14.8949 6.86174 14.9962 6.70455 15.0644 6.50568C15.1345 6.30682 15.1695 6.08049 15.1695 5.8267C15.1695 5.57292 15.1345 5.34659 15.0644 5.14773C14.9962 4.94886 14.8949 4.79167 14.7604 4.67614C14.626 4.56061 14.4583 4.50284 14.2576 4.50284C14.0549 4.50284 13.8845 4.56061 13.7462 4.67614C13.6099 4.79167 13.5066 4.94886 13.4366 5.14773C13.3684 5.34659 13.3343 5.57292 13.3343 5.8267C13.3343 6.08049 13.3684 6.30682 13.4366 6.50568C13.5066 6.70455 13.6099 6.86174 13.7462 6.97727C13.8845 7.09091 14.0549 7.14773 14.2576 7.14773ZM18.3968 5.47727V8H17.1866V3.63636H18.34V4.40625H18.3911C18.4877 4.15246 18.6496 3.9517 18.8769 3.80398C19.1042 3.65436 19.3797 3.57955 19.7036 3.57955C20.0066 3.57955 20.2708 3.64583 20.4962 3.77841C20.7216 3.91098 20.8968 4.10038 21.0218 4.34659C21.1468 4.59091 21.2093 4.88258 21.2093 5.22159V8H19.9991V5.4375C20.001 5.17045 19.9328 4.96212 19.7945 4.8125C19.6563 4.66098 19.4659 4.58523 19.2235 4.58523C19.0606 4.58523 18.9167 4.62027 18.7917 4.69034C18.6686 4.76042 18.572 4.86269 18.5019 4.99716C18.4337 5.12973 18.3987 5.28977 18.3968 5.47727ZM24.1518 8.08523C23.7029 8.08523 23.3165 7.99432 22.9927 7.8125C22.6707 7.62879 22.4226 7.36932 22.2484 7.03409C22.0741 6.69697 21.987 6.2983 21.987 5.83807C21.987 5.3892 22.0741 4.99527 22.2484 4.65625C22.4226 4.31723 22.6679 4.05303 22.9842 3.86364C23.3023 3.67424 23.6754 3.57955 24.1035 3.57955C24.3914 3.57955 24.6593 3.62595 24.9074 3.71875C25.1574 3.80966 25.3753 3.94697 25.5609 4.13068C25.7484 4.31439 25.8942 4.54545 25.9984 4.82386C26.1025 5.10038 26.1546 5.42424 26.1546 5.79545V6.12784H22.4699V5.37784H25.0154C25.0154 5.2036 24.9775 5.04924 24.9018 4.91477C24.826 4.7803 24.7209 4.67519 24.5864 4.59943C24.4539 4.52178 24.2995 4.48295 24.1234 4.48295C23.9396 4.48295 23.7768 4.52557 23.6347 4.6108C23.4946 4.69413 23.3847 4.80682 23.3052 4.94886C23.2256 5.08902 23.1849 5.24527 23.183 5.41761V6.13068C23.183 6.34659 23.2228 6.53314 23.3023 6.69034C23.3838 6.84754 23.4984 6.96875 23.6461 7.05398C23.7938 7.1392 23.969 7.18182 24.1717 7.18182C24.3061 7.18182 24.4292 7.16288 24.541 7.125C24.6527 7.08712 24.7484 7.0303 24.8279 6.95455C24.9074 6.87879 24.9681 6.78598 25.0097 6.67614L26.129 6.75C26.0722 7.01894 25.9557 7.25379 25.7796 7.45455C25.6054 7.65341 25.38 7.80871 25.1035 7.92045C24.8289 8.0303 24.5116 8.08523 24.1518 8.08523ZM33.6851 2.18182V8H32.6226L30.0914 4.33807H30.0488V8H28.8187V2.18182H29.8982L32.4096 5.84091H32.4607V2.18182H33.6851ZM37.4771 6.14205V3.63636H38.6873V8H37.5253V7.20739H37.4799C37.3814 7.46307 37.2176 7.66856 36.9884 7.82386C36.7611 7.97917 36.4837 8.05682 36.156 8.05682C35.8644 8.05682 35.6077 7.99053 35.3861 7.85795C35.1646 7.72538 34.9913 7.53693 34.8663 7.29261C34.7431 7.0483 34.6806 6.75568 34.6788 6.41477V3.63636H35.889V6.19886C35.8909 6.45644 35.96 6.66004 36.0964 6.80966C36.2327 6.95928 36.4155 7.03409 36.6447 7.03409C36.7905 7.03409 36.9269 7.00095 37.0538 6.93466C37.1806 6.86648 37.2829 6.7661 37.3606 6.63352C37.4401 6.50095 37.4789 6.33712 37.4771 6.14205ZM39.6553 8V3.63636H40.8087V4.40625H40.8599C40.9508 4.15057 41.1023 3.94886 41.3144 3.80114C41.5265 3.65341 41.7803 3.57955 42.0758 3.57955C42.375 3.57955 42.6297 3.65436 42.84 3.80398C43.0502 3.9517 43.1904 4.15246 43.2604 4.40625H43.3059C43.3949 4.15625 43.5559 3.95644 43.7888 3.80682C44.0237 3.6553 44.3012 3.57955 44.6212 3.57955C45.0284 3.57955 45.3589 3.70928 45.6127 3.96875C45.8684 4.22633 45.9962 4.59186 45.9962 5.06534V8H44.7888V5.30398C44.7888 5.06155 44.7244 4.87973 44.5957 4.75852C44.4669 4.63731 44.3059 4.5767 44.1127 4.5767C43.893 4.5767 43.7216 4.64678 43.5985 4.78693C43.4754 4.92519 43.4138 5.10795 43.4138 5.33523V8H42.2405V5.27841C42.2405 5.06439 42.179 4.89394 42.0559 4.76705C41.9347 4.64015 41.7746 4.5767 41.5758 4.5767C41.4413 4.5767 41.3201 4.6108 41.2121 4.67898C41.1061 4.74527 41.0218 4.83902 40.9593 4.96023C40.8968 5.07955 40.8655 5.2197 40.8655 5.38068V8H39.6553ZM46.9749 8V2.18182H48.1851V4.36932H48.2221C48.2751 4.25189 48.3518 4.13258 48.4522 4.01136C48.5545 3.88826 48.687 3.78598 48.8499 3.70455C49.0147 3.62121 49.2192 3.57955 49.4636 3.57955C49.7817 3.57955 50.0753 3.66288 50.3442 3.82955C50.6132 3.99432 50.8281 4.24337 50.9891 4.5767C51.1501 4.90814 51.2306 5.32386 51.2306 5.82386C51.2306 6.31061 51.152 6.72159 50.9948 7.05682C50.8395 7.39015 50.6274 7.64299 50.3584 7.81534C50.0914 7.9858 49.7922 8.07102 49.4607 8.07102C49.2259 8.07102 49.0261 8.0322 48.8613 7.95455C48.6984 7.87689 48.5649 7.77936 48.4607 7.66193C48.3565 7.54261 48.277 7.42235 48.2221 7.30114H48.1681V8H46.9749ZM48.1596 5.81818C48.1596 6.07765 48.1956 6.30398 48.2675 6.49716C48.3395 6.69034 48.4437 6.84091 48.58 6.94886C48.7164 7.05492 48.8821 7.10795 49.0772 7.10795C49.2742 7.10795 49.4408 7.05398 49.5772 6.94602C49.7136 6.83617 49.8168 6.68466 49.8869 6.49148C49.9588 6.2964 49.9948 6.07197 49.9948 5.81818C49.9948 5.56629 49.9598 5.3447 49.8897 5.15341C49.8196 4.96212 49.7164 4.8125 49.58 4.70455C49.4437 4.59659 49.2761 4.54261 49.0772 4.54261C48.8802 4.54261 48.7136 4.5947 48.5772 4.69886C48.4427 4.80303 48.3395 4.95076 48.2675 5.14205C48.1956 5.33333 48.1596 5.55871 48.1596 5.81818ZM54.0268 8.08523C53.5779 8.08523 53.1915 7.99432 52.8677 7.8125C52.5457 7.62879 52.2976 7.36932 52.1234 7.03409C51.9491 6.69697 51.862 6.2983 51.862 5.83807C51.862 5.3892 51.9491 4.99527 52.1234 4.65625C52.2976 4.31723 52.5429 4.05303 52.8592 3.86364C53.1773 3.67424 53.5504 3.57955 53.9785 3.57955C54.2664 3.57955 54.5343 3.62595 54.7824 3.71875C55.0324 3.80966 55.2503 3.94697 55.4359 4.13068C55.6234 4.31439 55.7692 4.54545 55.8734 4.82386C55.9775 5.10038 56.0296 5.42424 56.0296 5.79545V6.12784H52.3449V5.37784H54.8904C54.8904 5.2036 54.8525 5.04924 54.7768 4.91477C54.701 4.7803 54.5959 4.67519 54.4614 4.59943C54.3289 4.52178 54.1745 4.48295 53.9984 4.48295C53.8146 4.48295 53.6518 4.52557 53.5097 4.6108C53.3696 4.69413 53.2597 4.80682 53.1802 4.94886C53.1006 5.08902 53.0599 5.24527 53.058 5.41761V6.13068C53.058 6.34659 53.0978 6.53314 53.1773 6.69034C53.2588 6.84754 53.3734 6.96875 53.5211 7.05398C53.6688 7.1392 53.844 7.18182 54.0467 7.18182C54.1811 7.18182 54.3042 7.16288 54.416 7.125C54.5277 7.08712 54.6234 7.0303 54.7029 6.95455C54.7824 6.87879 54.8431 6.78598 54.8847 6.67614L56.004 6.75C55.9472 7.01894 55.8307 7.25379 55.6546 7.45455C55.4804 7.65341 55.255 7.80871 54.9785 7.92045C54.7039 8.0303 54.3866 8.08523 54.0268 8.08523ZM56.8194 8V3.63636H57.9927V4.39773H58.0381C58.1177 4.12689 58.2512 3.92235 58.4387 3.78409C58.6262 3.64394 58.8421 3.57386 59.0864 3.57386C59.147 3.57386 59.2124 3.57765 59.2824 3.58523C59.3525 3.5928 59.4141 3.60322 59.4671 3.61648V4.69034C59.4103 4.6733 59.3317 4.65814 59.2313 4.64489C59.1309 4.63163 59.0391 4.625 58.9557 4.625C58.7777 4.625 58.6186 4.66383 58.4785 4.74148C58.3402 4.81723 58.2304 4.9233 58.1489 5.05966C58.0694 5.19602 58.0296 5.35322 58.0296 5.53125V8H56.8194ZM60.8002 8.07386C60.6127 8.07386 60.4517 8.00758 60.3172 7.875C60.1847 7.74053 60.1184 7.57955 60.1184 7.39205C60.1184 7.20644 60.1847 7.04735 60.3172 6.91477C60.4517 6.7822 60.6127 6.71591 60.8002 6.71591C60.982 6.71591 61.1411 6.7822 61.2775 6.91477C61.4138 7.04735 61.482 7.20644 61.482 7.39205C61.482 7.51705 61.4498 7.63163 61.3854 7.7358C61.3229 7.83807 61.2405 7.92045 61.1383 7.98295C61.036 8.04356 60.9233 8.07386 60.8002 8.07386ZM60.8002 5.01705C60.6127 5.01705 60.4517 4.95076 60.3172 4.81818C60.1847 4.68561 60.1184 4.52462 60.1184 4.33523C60.1184 4.14962 60.1847 3.99148 60.3172 3.8608C60.4517 3.72822 60.6127 3.66193 60.8002 3.66193C60.982 3.66193 61.1411 3.72822 61.2775 3.8608C61.4138 3.99148 61.482 4.14962 61.482 4.33523C61.482 4.46212 61.4498 4.57765 61.3854 4.68182C61.3229 4.78409 61.2405 4.86553 61.1383 4.92614C61.036 4.98674 60.9233 5.01705 60.8002 5.01705Z" fill="#0C2461"/>
<path d="M2.36364 20.2571V16.6577H2.84943V20.2571H2.36364ZM0.806818 18.7003V18.2145H4.40625V18.7003H0.806818ZM7.60866 15.4616C7.85109 15.4635 8.08594 15.5128 8.31321 15.6094C8.54238 15.7041 8.74882 15.8575 8.93253 16.0696C9.11624 16.2798 9.26207 16.5601 9.37003 16.9105C9.47798 17.259 9.53196 17.688 9.53196 18.1974C9.53196 18.6728 9.49029 19.1084 9.40696 19.5043C9.32363 19.9001 9.19863 20.2429 9.03196 20.5327C8.86719 20.8205 8.65885 21.044 8.40696 21.2031C8.15696 21.3603 7.86435 21.4389 7.52912 21.4389C7.21662 21.4389 6.93916 21.3736 6.69673 21.2429C6.4562 21.1122 6.26113 20.9313 6.11151 20.7003C5.96188 20.4673 5.86908 20.1984 5.8331 19.8935H6.35582C6.40696 20.2041 6.53196 20.4598 6.73082 20.6605C6.93158 20.8613 7.19768 20.9616 7.52912 20.9616C8.0045 20.9616 8.37382 20.7401 8.63707 20.2969C8.90033 19.8537 9.03196 19.223 9.03196 18.4048H8.99503C8.90412 18.5753 8.7848 18.724 8.63707 18.8509C8.49124 18.9777 8.32457 19.0772 8.13707 19.1491C7.94957 19.2192 7.75166 19.2543 7.54332 19.2543C7.21946 19.2543 6.92306 19.1728 6.65412 19.0099C6.38518 18.8452 6.17022 18.6207 6.00923 18.3366C5.84825 18.0507 5.76776 17.7249 5.76776 17.3594C5.76776 17.0147 5.84351 16.6984 5.99503 16.4105C6.14844 16.1207 6.36245 15.8897 6.63707 15.7173C6.91359 15.5431 7.23745 15.4579 7.60866 15.4616ZM7.60866 15.9389C7.35677 15.9389 7.13045 16.0033 6.92969 16.1321C6.73082 16.259 6.57268 16.4304 6.45526 16.6463C6.33973 16.8603 6.28196 17.098 6.28196 17.3594C6.28196 17.6226 6.33973 17.8622 6.45526 18.0781C6.57268 18.2921 6.73082 18.4626 6.92969 18.5895C7.13045 18.7145 7.35677 18.777 7.60866 18.777C7.80185 18.777 7.98177 18.7382 8.14844 18.6605C8.3151 18.581 8.45904 18.473 8.58026 18.3366C8.70336 18.2003 8.79616 18.0459 8.85866 17.8736C8.92306 17.6993 8.94863 17.5166 8.93537 17.3253C8.91264 17.0601 8.84162 16.8234 8.7223 16.6151C8.60488 16.4048 8.44957 16.2401 8.25639 16.1207C8.0651 15.9995 7.8492 15.9389 7.60866 15.9389ZM12.5291 15.5412V21.3594H11.9979V16.098H11.9638L10.6001 17.0043V16.4531L11.9751 15.5412H12.5291ZM16.6712 18.2116V18.6889H14.2507V18.2116H16.6712ZM19.7195 21.4389C19.3482 21.4389 19.0178 21.3688 18.728 21.2287C18.4382 21.0885 18.2109 20.8973 18.0462 20.6548C17.8814 20.4105 17.799 20.1349 17.799 19.8281C17.799 19.5876 17.8492 19.3632 17.9496 19.1548C18.05 18.9446 18.1882 18.7685 18.3643 18.6264C18.5405 18.4825 18.7384 18.3887 18.9581 18.3452V18.3139C18.6721 18.2306 18.442 18.0668 18.2678 17.8224C18.0935 17.5762 18.0073 17.2969 18.0092 16.9844C18.0073 16.6946 18.0812 16.4351 18.2308 16.206C18.3804 15.9768 18.584 15.7959 18.8416 15.6634C19.1011 15.5289 19.3937 15.4616 19.7195 15.4616C20.0433 15.4616 20.334 15.5289 20.5916 15.6634C20.8492 15.7959 21.0528 15.9768 21.2024 16.206C21.3539 16.4351 21.4306 16.6946 21.4325 16.9844C21.4306 17.295 21.3426 17.5743 21.1683 17.8224C20.9941 18.0687 20.7649 18.2325 20.4808 18.3139V18.3452C20.7005 18.3868 20.8975 18.4796 21.0717 18.6236C21.246 18.7675 21.3842 18.9446 21.4865 19.1548C21.5888 19.3632 21.6399 19.5876 21.6399 19.8281C21.6399 20.1349 21.5566 20.4105 21.3899 20.6548C21.2251 20.8973 20.9979 21.0885 20.7081 21.2287C20.4202 21.3688 20.0907 21.4389 19.7195 21.4389ZM19.7195 20.9616C19.996 20.9616 20.2384 20.9124 20.4467 20.8139C20.657 20.7135 20.8208 20.5762 20.9382 20.402C21.0575 20.2277 21.1172 20.0279 21.1172 19.8026C21.1172 19.5696 21.0556 19.3622 20.9325 19.1804C20.8094 18.9967 20.6428 18.8518 20.4325 18.7457C20.2223 18.6378 19.9846 18.5838 19.7195 18.5838C19.4543 18.5838 19.2157 18.6378 19.0036 18.7457C18.7933 18.8518 18.6267 18.9967 18.5036 19.1804C18.3823 19.3622 18.3217 19.5696 18.3217 19.8026C18.3217 20.0279 18.3795 20.2277 18.495 20.402C18.6125 20.5762 18.7763 20.7135 18.9865 20.8139C19.1986 20.9124 19.4429 20.9616 19.7195 20.9616ZM19.7195 18.1293C19.9467 18.1293 20.1503 18.081 20.3303 17.9844C20.5102 17.8878 20.6522 17.7562 20.7564 17.5895C20.8625 17.4209 20.9164 17.2296 20.9183 17.0156C20.9164 16.8035 20.8634 16.616 20.7592 16.4531C20.6551 16.2884 20.513 16.1605 20.3331 16.0696C20.1551 15.9768 19.9505 15.9304 19.7195 15.9304C19.4884 15.9304 19.282 15.9768 19.1001 16.0696C18.9202 16.1605 18.7782 16.2884 18.674 16.4531C18.5717 16.616 18.5215 16.8035 18.5234 17.0156C18.5215 17.2296 18.5727 17.4209 18.6768 17.5895C18.7829 17.7562 18.9259 17.8878 19.1058 17.9844C19.2876 18.081 19.4922 18.1293 19.7195 18.1293ZM24.6264 21.4389C24.2173 21.4389 23.8679 21.3215 23.5781 21.0866C23.2902 20.8499 23.0687 20.508 22.9134 20.0611C22.7599 19.6141 22.6832 19.0772 22.6832 18.4503C22.6832 17.8253 22.7599 17.2902 22.9134 16.8452C23.0687 16.3982 23.2912 16.0563 23.581 15.8196C23.8726 15.581 24.2211 15.4616 24.6264 15.4616C25.0317 15.4616 25.3793 15.581 25.669 15.8196C25.9607 16.0563 26.1832 16.3982 26.3366 16.8452C26.492 17.2902 26.5696 17.8253 26.5696 18.4503C26.5696 19.0772 26.492 19.6141 26.3366 20.0611C26.1832 20.508 25.9616 20.8499 25.6719 21.0866C25.384 21.3215 25.0355 21.4389 24.6264 21.4389ZM24.6264 20.9616C25.0753 20.9616 25.4257 20.7429 25.6776 20.3054C25.9295 19.866 26.0554 19.2476 26.0554 18.4503C26.0554 17.92 25.9976 17.4673 25.8821 17.0923C25.7685 16.7154 25.6046 16.4276 25.3906 16.2287C25.1785 16.0298 24.9238 15.9304 24.6264 15.9304C24.1813 15.9304 23.8319 16.152 23.5781 16.5952C23.3243 17.0365 23.1974 17.6548 23.1974 18.4503C23.1974 18.9806 23.2543 19.4332 23.3679 19.8082C23.4834 20.1832 23.6473 20.4692 23.8594 20.6662C24.0734 20.8632 24.3291 20.9616 24.6264 20.9616ZM27.5866 20.1094V19.6776L30.1804 15.5412H30.4986V16.2656H30.2628L28.1804 19.5952V19.6321H31.581V20.1094H27.5866ZM30.3026 21.3594V19.973V19.7741V15.5412H30.8082V21.3594H30.3026ZM34.532 21.4389C34.1607 21.4389 33.8303 21.3688 33.5405 21.2287C33.2507 21.0885 33.0234 20.8973 32.8587 20.6548C32.6939 20.4105 32.6115 20.1349 32.6115 19.8281C32.6115 19.5876 32.6617 19.3632 32.7621 19.1548C32.8625 18.9446 33.0007 18.7685 33.1768 18.6264C33.353 18.4825 33.5509 18.3887 33.7706 18.3452V18.3139C33.4846 18.2306 33.2545 18.0668 33.0803 17.8224C32.906 17.5762 32.8198 17.2969 32.8217 16.9844C32.8198 16.6946 32.8937 16.4351 33.0433 16.206C33.1929 15.9768 33.3965 15.7959 33.6541 15.6634C33.9136 15.5289 34.2062 15.4616 34.532 15.4616C34.8558 15.4616 35.1465 15.5289 35.4041 15.6634C35.6617 15.7959 35.8653 15.9768 36.0149 16.206C36.1664 16.4351 36.2431 16.6946 36.245 16.9844C36.2431 17.295 36.1551 17.5743 35.9808 17.8224C35.8066 18.0687 35.5774 18.2325 35.2933 18.3139V18.3452C35.513 18.3868 35.71 18.4796 35.8842 18.6236C36.0585 18.7675 36.1967 18.9446 36.299 19.1548C36.4013 19.3632 36.4524 19.5876 36.4524 19.8281C36.4524 20.1349 36.3691 20.4105 36.2024 20.6548C36.0376 20.8973 35.8104 21.0885 35.5206 21.2287C35.2327 21.3688 34.9032 21.4389 34.532 21.4389ZM34.532 20.9616C34.8085 20.9616 35.0509 20.9124 35.2592 20.8139C35.4695 20.7135 35.6333 20.5762 35.7507 20.402C35.87 20.2277 35.9297 20.0279 35.9297 19.8026C35.9297 19.5696 35.8681 19.3622 35.745 19.1804C35.6219 18.9967 35.4553 18.8518 35.245 18.7457C35.0348 18.6378 34.7971 18.5838 34.532 18.5838C34.2668 18.5838 34.0282 18.6378 33.8161 18.7457C33.6058 18.8518 33.4392 18.9967 33.3161 19.1804C33.1948 19.3622 33.1342 19.5696 33.1342 19.8026C33.1342 20.0279 33.192 20.2277 33.3075 20.402C33.425 20.5762 33.5888 20.7135 33.799 20.8139C34.0111 20.9124 34.2554 20.9616 34.532 20.9616ZM34.532 18.1293C34.7592 18.1293 34.9628 18.081 35.1428 17.9844C35.3227 17.8878 35.4647 17.7562 35.5689 17.5895C35.675 17.4209 35.7289 17.2296 35.7308 17.0156C35.7289 16.8035 35.6759 16.616 35.5717 16.4531C35.4676 16.2884 35.3255 16.1605 35.1456 16.0696C34.9676 15.9768 34.763 15.9304 34.532 15.9304C34.3009 15.9304 34.0945 15.9768 33.9126 16.0696C33.7327 16.1605 33.5907 16.2884 33.4865 16.4531C33.3842 16.616 33.334 16.8035 33.3359 17.0156C33.334 17.2296 33.3852 17.4209 33.4893 17.5895C33.5954 17.7562 33.7384 17.8878 33.9183 17.9844C34.1001 18.081 34.3047 18.1293 34.532 18.1293ZM39.3821 15.4616C39.6245 15.4635 39.8594 15.5128 40.0866 15.6094C40.3158 15.7041 40.5223 15.8575 40.706 16.0696C40.8897 16.2798 41.0355 16.5601 41.1435 16.9105C41.2514 17.259 41.3054 17.688 41.3054 18.1974C41.3054 18.6728 41.2637 19.1084 41.1804 19.5043C41.0971 19.9001 40.9721 20.2429 40.8054 20.5327C40.6406 20.8205 40.4323 21.044 40.1804 21.2031C39.9304 21.3603 39.6378 21.4389 39.3026 21.4389C38.9901 21.4389 38.7126 21.3736 38.4702 21.2429C38.2296 21.1122 38.0346 20.9313 37.8849 20.7003C37.7353 20.4673 37.6425 20.1984 37.6065 19.8935H38.1293C38.1804 20.2041 38.3054 20.4598 38.5043 20.6605C38.705 20.8613 38.9711 20.9616 39.3026 20.9616C39.7779 20.9616 40.1473 20.7401 40.4105 20.2969C40.6738 19.8537 40.8054 19.223 40.8054 18.4048H40.7685C40.6776 18.5753 40.5582 18.724 40.4105 18.8509C40.2647 18.9777 40.098 19.0772 39.9105 19.1491C39.723 19.2192 39.5251 19.2543 39.3168 19.2543C38.9929 19.2543 38.6965 19.1728 38.4276 19.0099C38.1586 18.8452 37.9437 18.6207 37.7827 18.3366C37.6217 18.0507 37.5412 17.7249 37.5412 17.3594C37.5412 17.0147 37.617 16.6984 37.7685 16.4105C37.9219 16.1207 38.1359 15.8897 38.4105 15.7173C38.687 15.5431 39.0109 15.4579 39.3821 15.4616ZM39.3821 15.9389C39.1302 15.9389 38.9039 16.0033 38.7031 16.1321C38.5043 16.259 38.3461 16.4304 38.2287 16.6463C38.1132 16.8603 38.0554 17.098 38.0554 17.3594C38.0554 17.6226 38.1132 17.8622 38.2287 18.0781C38.3461 18.2921 38.5043 18.4626 38.7031 18.5895C38.9039 18.7145 39.1302 18.777 39.3821 18.777C39.5753 18.777 39.7552 18.7382 39.9219 18.6605C40.0885 18.581 40.2325 18.473 40.3537 18.3366C40.4768 18.2003 40.5696 18.0459 40.6321 17.8736C40.6965 17.6993 40.7221 17.5166 40.7088 17.3253C40.6861 17.0601 40.6151 16.8234 40.4957 16.6151C40.3783 16.4048 40.223 16.2401 40.0298 16.1207C39.8385 15.9995 39.6226 15.9389 39.3821 15.9389ZM42.5185 21.3594L45.169 16.0554V16.0185H42.1151V15.5412H45.7259V16.0412L43.0781 21.3594H42.5185ZM48.5661 21.4389C48.3255 21.437 48.0907 21.3887 47.8615 21.294C47.6323 21.1974 47.4259 21.0431 47.2422 20.831C47.0585 20.617 46.9126 20.3348 46.8047 19.9844C46.6967 19.634 46.6428 19.2031 46.6428 18.6918C46.6428 18.2183 46.6844 17.7846 46.7678 17.3906C46.8511 16.9967 46.9761 16.6558 47.1428 16.3679C47.3094 16.08 47.5178 15.8575 47.7678 15.7003C48.0178 15.5412 48.3104 15.4616 48.6456 15.4616C48.96 15.4616 49.2375 15.527 49.478 15.6577C49.7185 15.7865 49.9136 15.9664 50.0632 16.1974C50.2128 16.4285 50.3066 16.6946 50.3445 16.9957H49.8217C49.7687 16.6889 49.6428 16.4361 49.4439 16.2372C49.245 16.0384 48.9789 15.9389 48.6456 15.9389C48.1683 15.9389 47.799 16.1605 47.5376 16.6037C47.2763 17.045 47.1446 17.6719 47.1428 18.4844H47.1797C47.2725 18.312 47.3918 18.1634 47.5376 18.0384C47.6854 17.9115 47.853 17.813 48.0405 17.7429C48.228 17.6709 48.425 17.6349 48.6314 17.6349C48.9553 17.6349 49.2517 17.7173 49.5206 17.8821C49.7895 18.045 50.0045 18.2694 50.1655 18.5554C50.3265 18.8395 50.407 19.1643 50.407 19.5298C50.407 19.8764 50.3303 20.1955 50.1768 20.4872C50.0253 20.7789 49.8113 21.0109 49.5348 21.1832C49.2602 21.3556 48.9373 21.4408 48.5661 21.4389ZM48.5661 20.9616C48.8198 20.9616 49.0462 20.8973 49.245 20.7685C49.4458 20.6397 49.6039 20.4673 49.7195 20.2514C49.835 20.0336 49.8928 19.7931 49.8928 19.5298C49.8928 19.2666 49.835 19.0279 49.7195 18.8139C49.6039 18.5999 49.4458 18.4295 49.245 18.3026C49.0462 18.1757 48.8198 18.1122 48.5661 18.1122C48.3729 18.1122 48.1929 18.152 48.0263 18.2315C47.8596 18.3092 47.7147 18.4162 47.5916 18.5526C47.4704 18.687 47.3776 18.8414 47.3132 19.0156C47.2507 19.1899 47.227 19.3726 47.2422 19.5639C47.263 19.831 47.3321 20.0705 47.4496 20.2827C47.5689 20.4929 47.7242 20.6586 47.9155 20.7798C48.1087 20.901 48.3255 20.9616 48.5661 20.9616ZM51.7763 21.3594L54.4268 16.0554V16.0185H51.3729V15.5412H54.9837V16.0412L52.3359 21.3594H51.7763ZM55.5085 20.1094V19.6776L58.1023 15.5412H58.4205V16.2656H58.1847L56.1023 19.5952V19.6321H59.5028V20.1094H55.5085ZM58.2244 21.3594V19.973V19.7741V15.5412H58.7301V21.3594H58.2244ZM62.4538 21.4389C62.0826 21.4389 61.7521 21.3688 61.4624 21.2287C61.1726 21.0885 60.9453 20.8973 60.7805 20.6548C60.6158 20.4105 60.5334 20.1349 60.5334 19.8281C60.5334 19.5876 60.5836 19.3632 60.6839 19.1548C60.7843 18.9446 60.9226 18.7685 61.0987 18.6264C61.2749 18.4825 61.4728 18.3887 61.6925 18.3452V18.3139C61.4065 18.2306 61.1764 18.0668 61.0021 17.8224C60.8279 17.5762 60.7417 17.2969 60.7436 16.9844C60.7417 16.6946 60.8156 16.4351 60.9652 16.206C61.1148 15.9768 61.3184 15.7959 61.576 15.6634C61.8355 15.5289 62.1281 15.4616 62.4538 15.4616C62.7777 15.4616 63.0684 15.5289 63.326 15.6634C63.5836 15.7959 63.7872 15.9768 63.9368 16.206C64.0883 16.4351 64.165 16.6946 64.1669 16.9844C64.165 17.295 64.0769 17.5743 63.9027 17.8224C63.7285 18.0687 63.4993 18.2325 63.2152 18.3139V18.3452C63.4349 18.3868 63.6319 18.4796 63.8061 18.6236C63.9804 18.7675 64.1186 18.9446 64.2209 19.1548C64.3232 19.3632 64.3743 19.5876 64.3743 19.8281C64.3743 20.1349 64.291 20.4105 64.1243 20.6548C63.9595 20.8973 63.7322 21.0885 63.4425 21.2287C63.1546 21.3688 62.825 21.4389 62.4538 21.4389ZM62.4538 20.9616C62.7304 20.9616 62.9728 20.9124 63.1811 20.8139C63.3913 20.7135 63.5552 20.5762 63.6726 20.402C63.7919 20.2277 63.8516 20.0279 63.8516 19.8026C63.8516 19.5696 63.79 19.3622 63.6669 19.1804C63.5438 18.9967 63.3771 18.8518 63.1669 18.7457C62.9567 18.6378 62.719 18.5838 62.4538 18.5838C62.1887 18.5838 61.95 18.6378 61.7379 18.7457C61.5277 18.8518 61.361 18.9967 61.2379 19.1804C61.1167 19.3622 61.0561 19.5696 61.0561 19.8026C61.0561 20.0279 61.1139 20.2277 61.2294 20.402C61.3468 20.5762 61.5107 20.7135 61.7209 20.8139C61.933 20.9124 62.1773 20.9616 62.4538 20.9616ZM62.4538 18.1293C62.6811 18.1293 62.8847 18.081 63.0646 17.9844C63.2446 17.8878 63.3866 17.7562 63.4908 17.5895C63.5968 17.4209 63.6508 17.2296 63.6527 17.0156C63.6508 16.8035 63.5978 16.616 63.4936 16.4531C63.3894 16.2884 63.2474 16.1605 63.0675 16.0696C62.8894 15.9768 62.6849 15.9304 62.4538 15.9304C62.2228 15.9304 62.0163 15.9768 61.8345 16.0696C61.6546 16.1605 61.5125 16.2884 61.4084 16.4531C61.3061 16.616 61.2559 16.8035 61.2578 17.0156C61.2559 17.2296 61.3071 17.4209 61.4112 17.5895C61.5173 17.7562 61.6603 17.8878 61.8402 17.9844C62.022 18.081 62.2266 18.1293 62.4538 18.1293Z" fill="black"/>
</svg>
