<svg width="73" height="11" viewBox="0 0 73 11" fill="none" xmlns="http://www.w3.org/2000/svg">
<path d="M3.70455 0.306818V9.875H3.2642V0.306818H3.70455Z" fill="black"/>
<path d="M11.3636 6.89773V3.2983H11.8494V6.89773H11.3636ZM9.80682 5.34091V4.85511H13.4062V5.34091H9.80682ZM16.6087 2.10227C16.8511 2.10417 17.0859 2.15341 17.3132 2.25C17.5424 2.3447 17.7488 2.49811 17.9325 2.71023C18.1162 2.92045 18.2621 3.20076 18.37 3.55114C18.478 3.89962 18.532 4.3286 18.532 4.83807C18.532 5.31345 18.4903 5.74905 18.407 6.14489C18.3236 6.54072 18.1986 6.88352 18.032 7.1733C17.8672 7.46117 17.6589 7.68466 17.407 7.84375C17.157 8.00095 16.8643 8.07955 16.5291 8.07955C16.2166 8.07955 15.9392 8.0142 15.6967 7.88352C15.4562 7.75284 15.2611 7.57197 15.1115 7.34091C14.9619 7.10795 14.8691 6.83902 14.8331 6.53409H15.3558C15.407 6.8447 15.532 7.10038 15.7308 7.30114C15.9316 7.50189 16.1977 7.60227 16.5291 7.60227C17.0045 7.60227 17.3738 7.38068 17.6371 6.9375C17.9003 6.49432 18.032 5.86364 18.032 5.04545H17.995C17.9041 5.21591 17.7848 5.36458 17.6371 5.49148C17.4912 5.61837 17.3246 5.7178 17.1371 5.78977C16.9496 5.85985 16.7517 5.89489 16.5433 5.89489C16.2195 5.89489 15.9231 5.81345 15.6541 5.65057C15.3852 5.4858 15.1702 5.26136 15.0092 4.97727C14.8482 4.69129 14.7678 4.36553 14.7678 4C14.7678 3.6553 14.8435 3.33902 14.995 3.05114C15.1484 2.76136 15.3625 2.5303 15.6371 2.35795C15.9136 2.18371 16.2375 2.09848 16.6087 2.10227ZM16.6087 2.57955C16.3568 2.57955 16.1304 2.64394 15.9297 2.77273C15.7308 2.89962 15.5727 3.07102 15.4553 3.28693C15.3397 3.50095 15.282 3.73864 15.282 4C15.282 4.26326 15.3397 4.50284 15.4553 4.71875C15.5727 4.93277 15.7308 5.10322 15.9297 5.23011C16.1304 5.35511 16.3568 5.41761 16.6087 5.41761C16.8018 5.41761 16.9818 5.37879 17.1484 5.30114C17.3151 5.22159 17.459 5.11364 17.5803 4.97727C17.7034 4.84091 17.7962 4.68655 17.8587 4.5142C17.9231 4.33996 17.9486 4.1572 17.9354 3.96591C17.9126 3.70076 17.8416 3.46401 17.7223 3.25568C17.6049 3.04545 17.4496 2.88068 17.2564 2.76136C17.0651 2.64015 16.8492 2.57955 16.6087 2.57955ZM21.5291 2.18182V8H20.9979V2.73864H20.9638L19.6001 3.64489V3.09375L20.9751 2.18182H21.5291ZM27.2962 2.10227C27.5386 2.10417 27.7734 2.15341 28.0007 2.25C28.2299 2.3447 28.4363 2.49811 28.62 2.71023C28.8037 2.92045 28.9496 3.20076 29.0575 3.55114C29.1655 3.89962 29.2195 4.3286 29.2195 4.83807C29.2195 5.31345 29.1778 5.74905 29.0945 6.14489C29.0111 6.54072 28.8861 6.88352 28.7195 7.1733C28.5547 7.46117 28.3464 7.68466 28.0945 7.84375C27.8445 8.00095 27.5518 8.07955 27.2166 8.07955C26.9041 8.07955 26.6267 8.0142 26.3842 7.88352C26.1437 7.75284 25.9486 7.57197 25.799 7.34091C25.6494 7.10795 25.5566 6.83902 25.5206 6.53409H26.0433C26.0945 6.8447 26.2195 7.10038 26.4183 7.30114C26.6191 7.50189 26.8852 7.60227 27.2166 7.60227C27.692 7.60227 28.0613 7.38068 28.3246 6.9375C28.5878 6.49432 28.7195 5.86364 28.7195 5.04545H28.6825C28.5916 5.21591 28.4723 5.36458 28.3246 5.49148C28.1787 5.61837 28.0121 5.7178 27.8246 5.78977C27.6371 5.85985 27.4392 5.89489 27.2308 5.89489C26.907 5.89489 26.6106 5.81345 26.3416 5.65057C26.0727 5.4858 25.8577 5.26136 25.6967 4.97727C25.5357 4.69129 25.4553 4.36553 25.4553 4C25.4553 3.6553 25.531 3.33902 25.6825 3.05114C25.8359 2.76136 26.05 2.5303 26.3246 2.35795C26.6011 2.18371 26.925 2.09848 27.2962 2.10227ZM27.2962 2.57955C27.0443 2.57955 26.8179 2.64394 26.6172 2.77273C26.4183 2.89962 26.2602 3.07102 26.1428 3.28693C26.0272 3.50095 25.9695 3.73864 25.9695 4C25.9695 4.26326 26.0272 4.50284 26.1428 4.71875C26.2602 4.93277 26.4183 5.10322 26.6172 5.23011C26.8179 5.35511 27.0443 5.41761 27.2962 5.41761C27.4893 5.41761 27.6693 5.37879 27.8359 5.30114C28.0026 5.22159 28.1465 5.11364 28.2678 4.97727C28.3909 4.84091 28.4837 4.68655 28.5462 4.5142C28.6106 4.33996 28.6361 4.1572 28.6229 3.96591C28.6001 3.70076 28.5291 3.46401 28.4098 3.25568C28.2924 3.04545 28.1371 2.88068 27.9439 2.76136C27.7526 2.64015 27.5367 2.57955 27.2962 2.57955ZM32.3104 8.07955C31.9524 8.07955 31.6323 8.01515 31.3501 7.88636C31.0679 7.75568 30.8445 7.57481 30.6797 7.34375C30.5149 7.11269 30.4278 6.84659 30.4183 6.54545H30.9553C30.9647 6.75758 31.0301 6.94318 31.1513 7.10227C31.2725 7.25947 31.4335 7.38258 31.6342 7.47159C31.835 7.55871 32.0585 7.60227 32.3047 7.60227C32.5736 7.60227 32.8104 7.55208 33.0149 7.4517C33.2214 7.35133 33.3823 7.21402 33.4979 7.03977C33.6153 6.86364 33.674 6.66477 33.674 6.44318C33.674 6.20833 33.6143 6.00095 33.495 5.82102C33.3757 5.6411 33.2043 5.50095 32.9808 5.40057C32.7592 5.30019 32.4941 5.25 32.1854 5.25H31.8445V4.77273H32.1854C32.4373 4.77273 32.6598 4.72727 32.853 4.63636C33.0481 4.54356 33.2015 4.41383 33.3132 4.24716C33.425 4.08049 33.4808 3.88447 33.4808 3.65909C33.4808 3.44508 33.4325 3.25663 33.3359 3.09375C33.2393 2.93087 33.103 2.80303 32.9268 2.71023C32.7526 2.61742 32.549 2.57102 32.3161 2.57102C32.0907 2.57102 31.8842 2.61458 31.6967 2.7017C31.5092 2.78883 31.3577 2.91193 31.2422 3.07102C31.1286 3.23011 31.0679 3.41856 31.0604 3.63636H30.5462C30.5537 3.33333 30.6371 3.06723 30.7962 2.83807C30.9571 2.60701 31.1702 2.42708 31.4354 2.2983C31.7024 2.16761 31.9979 2.10227 32.3217 2.10227C32.6645 2.10227 32.9609 2.17235 33.2109 2.3125C33.4609 2.45265 33.6541 2.6392 33.7905 2.87216C33.9287 3.10322 33.9979 3.35795 33.9979 3.63636C33.9979 3.9678 33.9079 4.25189 33.728 4.48864C33.5481 4.72348 33.3056 4.88636 33.0007 4.97727V5.0142C33.3719 5.08807 33.6636 5.25284 33.8757 5.50852C34.0897 5.76231 34.1967 6.07386 34.1967 6.44318C34.1967 6.75379 34.1153 7.03314 33.9524 7.28125C33.7895 7.52746 33.5661 7.72254 33.282 7.86648C32.9998 8.00852 32.6759 8.07955 32.3104 8.07955ZM37.2848 8.07955C37.0443 8.07765 36.8094 8.02936 36.5803 7.93466C36.3511 7.83807 36.1446 7.68371 35.9609 7.47159C35.7772 7.25758 35.6314 6.97538 35.5234 6.625C35.4155 6.27462 35.3615 5.84375 35.3615 5.33239C35.3615 4.8589 35.4032 4.42519 35.4865 4.03125C35.5698 3.63731 35.6948 3.2964 35.8615 3.00852C36.0282 2.72064 36.2365 2.49811 36.4865 2.34091C36.7365 2.18182 37.0291 2.10227 37.3643 2.10227C37.6787 2.10227 37.9562 2.16761 38.1967 2.2983C38.4373 2.42708 38.6323 2.60701 38.782 2.83807C38.9316 3.06913 39.0253 3.33523 39.0632 3.63636H38.5405C38.4875 3.32955 38.3615 3.0767 38.1626 2.87784C37.9638 2.67898 37.6977 2.57955 37.3643 2.57955C36.8871 2.57955 36.5178 2.80114 36.2564 3.24432C35.995 3.68561 35.8634 4.3125 35.8615 5.125H35.8984C35.9912 4.95265 36.1106 4.80398 36.2564 4.67898C36.4041 4.55208 36.5717 4.4536 36.7592 4.38352C36.9467 4.31155 37.1437 4.27557 37.3501 4.27557C37.674 4.27557 37.9704 4.35795 38.2393 4.52273C38.5083 4.68561 38.7232 4.91004 38.8842 5.19602C39.0452 5.48011 39.1257 5.80492 39.1257 6.17045C39.1257 6.51705 39.049 6.83617 38.8956 7.12784C38.7441 7.41951 38.5301 7.65152 38.2536 7.82386C37.9789 7.99621 37.656 8.08144 37.2848 8.07955ZM37.2848 7.60227C37.5386 7.60227 37.7649 7.53788 37.9638 7.40909C38.1645 7.2803 38.3227 7.10795 38.4382 6.89205C38.5537 6.67424 38.6115 6.43371 38.6115 6.17045C38.6115 5.9072 38.5537 5.66856 38.4382 5.45455C38.3227 5.24053 38.1645 5.07008 37.9638 4.94318C37.7649 4.81629 37.5386 4.75284 37.2848 4.75284C37.0916 4.75284 36.9117 4.79261 36.745 4.87216C36.5784 4.94981 36.4335 5.05682 36.3104 5.19318C36.1892 5.32765 36.0964 5.48201 36.032 5.65625C35.9695 5.83049 35.9458 6.01326 35.9609 6.20455C35.9818 6.47159 36.0509 6.71117 36.1683 6.9233C36.2876 7.13352 36.4429 7.29924 36.6342 7.42045C36.8274 7.54167 37.0443 7.60227 37.2848 7.60227ZM42.1598 8.07955C41.9193 8.07765 41.6844 8.02936 41.4553 7.93466C41.2261 7.83807 41.0196 7.68371 40.8359 7.47159C40.6522 7.25758 40.5064 6.97538 40.3984 6.625C40.2905 6.27462 40.2365 5.84375 40.2365 5.33239C40.2365 4.8589 40.2782 4.42519 40.3615 4.03125C40.4448 3.63731 40.5698 3.2964 40.7365 3.00852C40.9032 2.72064 41.1115 2.49811 41.3615 2.34091C41.6115 2.18182 41.9041 2.10227 42.2393 2.10227C42.5537 2.10227 42.8312 2.16761 43.0717 2.2983C43.3123 2.42708 43.5073 2.60701 43.657 2.83807C43.8066 3.06913 43.9003 3.33523 43.9382 3.63636H43.4155C43.3625 3.32955 43.2365 3.0767 43.0376 2.87784C42.8388 2.67898 42.5727 2.57955 42.2393 2.57955C41.7621 2.57955 41.3928 2.80114 41.1314 3.24432C40.87 3.68561 40.7384 4.3125 40.7365 5.125H40.7734C40.8662 4.95265 40.9856 4.80398 41.1314 4.67898C41.2791 4.55208 41.4467 4.4536 41.6342 4.38352C41.8217 4.31155 42.0187 4.27557 42.2251 4.27557C42.549 4.27557 42.8454 4.35795 43.1143 4.52273C43.3833 4.68561 43.5982 4.91004 43.7592 5.19602C43.9202 5.48011 44.0007 5.80492 44.0007 6.17045C44.0007 6.51705 43.924 6.83617 43.7706 7.12784C43.6191 7.41951 43.4051 7.65152 43.1286 7.82386C42.8539 7.99621 42.531 8.08144 42.1598 8.07955ZM42.1598 7.60227C42.4136 7.60227 42.6399 7.53788 42.8388 7.40909C43.0395 7.2803 43.1977 7.10795 43.3132 6.89205C43.4287 6.67424 43.4865 6.43371 43.4865 6.17045C43.4865 5.9072 43.4287 5.66856 43.3132 5.45455C43.1977 5.24053 43.0395 5.07008 42.8388 4.94318C42.6399 4.81629 42.4136 4.75284 42.1598 4.75284C41.9666 4.75284 41.7867 4.79261 41.62 4.87216C41.4534 4.94981 41.3085 5.05682 41.1854 5.19318C41.0642 5.32765 40.9714 5.48201 40.907 5.65625C40.8445 5.83049 40.8208 6.01326 40.8359 6.20455C40.8568 6.47159 40.9259 6.71117 41.0433 6.9233C41.1626 7.13352 41.3179 7.29924 41.5092 7.42045C41.7024 7.54167 41.9193 7.60227 42.1598 7.60227ZM47.0348 8.07955C46.7943 8.07765 46.5594 8.02936 46.3303 7.93466C46.1011 7.83807 45.8946 7.68371 45.7109 7.47159C45.5272 7.25758 45.3814 6.97538 45.2734 6.625C45.1655 6.27462 45.1115 5.84375 45.1115 5.33239C45.1115 4.8589 45.1532 4.42519 45.2365 4.03125C45.3198 3.63731 45.4448 3.2964 45.6115 3.00852C45.7782 2.72064 45.9865 2.49811 46.2365 2.34091C46.4865 2.18182 46.7791 2.10227 47.1143 2.10227C47.4287 2.10227 47.7062 2.16761 47.9467 2.2983C48.1873 2.42708 48.3823 2.60701 48.532 2.83807C48.6816 3.06913 48.7753 3.33523 48.8132 3.63636H48.2905C48.2375 3.32955 48.1115 3.0767 47.9126 2.87784C47.7138 2.67898 47.4477 2.57955 47.1143 2.57955C46.6371 2.57955 46.2678 2.80114 46.0064 3.24432C45.745 3.68561 45.6134 4.3125 45.6115 5.125H45.6484C45.7412 4.95265 45.8606 4.80398 46.0064 4.67898C46.1541 4.55208 46.3217 4.4536 46.5092 4.38352C46.6967 4.31155 46.8937 4.27557 47.1001 4.27557C47.424 4.27557 47.7204 4.35795 47.9893 4.52273C48.2583 4.68561 48.4732 4.91004 48.6342 5.19602C48.7952 5.48011 48.8757 5.80492 48.8757 6.17045C48.8757 6.51705 48.799 6.83617 48.6456 7.12784C48.4941 7.41951 48.2801 7.65152 48.0036 7.82386C47.7289 7.99621 47.406 8.08144 47.0348 8.07955ZM47.0348 7.60227C47.2886 7.60227 47.5149 7.53788 47.7138 7.40909C47.9145 7.2803 48.0727 7.10795 48.1882 6.89205C48.3037 6.67424 48.3615 6.43371 48.3615 6.17045C48.3615 5.9072 48.3037 5.66856 48.1882 5.45455C48.0727 5.24053 47.9145 5.07008 47.7138 4.94318C47.5149 4.81629 47.2886 4.75284 47.0348 4.75284C46.8416 4.75284 46.6617 4.79261 46.495 4.87216C46.3284 4.94981 46.1835 5.05682 46.0604 5.19318C45.9392 5.32765 45.8464 5.48201 45.782 5.65625C45.7195 5.83049 45.6958 6.01326 45.7109 6.20455C45.7318 6.47159 45.8009 6.71117 45.9183 6.9233C46.0376 7.13352 46.1929 7.29924 46.3842 7.42045C46.5774 7.54167 46.7943 7.60227 47.0348 7.60227ZM51.8729 2.18182V8H51.3416V2.73864H51.3075L49.9439 3.64489V3.09375L51.3189 2.18182H51.8729ZM55.5291 8.07955C55.1712 8.07955 54.8511 8.01515 54.5689 7.88636C54.2867 7.75568 54.0632 7.57481 53.8984 7.34375C53.7337 7.11269 53.6465 6.84659 53.6371 6.54545H54.174C54.1835 6.75758 54.2488 6.94318 54.37 7.10227C54.4912 7.25947 54.6522 7.38258 54.853 7.47159C55.0537 7.55871 55.2772 7.60227 55.5234 7.60227C55.7924 7.60227 56.0291 7.55208 56.2337 7.4517C56.4401 7.35133 56.6011 7.21402 56.7166 7.03977C56.834 6.86364 56.8928 6.66477 56.8928 6.44318C56.8928 6.20833 56.8331 6.00095 56.7138 5.82102C56.5945 5.6411 56.4231 5.50095 56.1996 5.40057C55.978 5.30019 55.7128 5.25 55.4041 5.25H55.0632V4.77273H55.4041C55.656 4.77273 55.8786 4.72727 56.0717 4.63636C56.2668 4.54356 56.4202 4.41383 56.532 4.24716C56.6437 4.08049 56.6996 3.88447 56.6996 3.65909C56.6996 3.44508 56.6513 3.25663 56.5547 3.09375C56.4581 2.93087 56.3217 2.80303 56.1456 2.71023C55.9714 2.61742 55.7678 2.57102 55.5348 2.57102C55.3094 2.57102 55.103 2.61458 54.9155 2.7017C54.728 2.78883 54.5765 2.91193 54.4609 3.07102C54.3473 3.23011 54.2867 3.41856 54.2791 3.63636H53.7649C53.7725 3.33333 53.8558 3.06723 54.0149 2.83807C54.1759 2.60701 54.389 2.42708 54.6541 2.2983C54.9212 2.16761 55.2166 2.10227 55.5405 2.10227C55.8833 2.10227 56.1797 2.17235 56.4297 2.3125C56.6797 2.45265 56.8729 2.6392 57.0092 2.87216C57.1475 3.10322 57.2166 3.35795 57.2166 3.63636C57.2166 3.9678 57.1267 4.25189 56.9467 4.48864C56.7668 4.72348 56.5244 4.88636 56.2195 4.97727V5.0142C56.5907 5.08807 56.8823 5.25284 57.0945 5.50852C57.3085 5.76231 57.4155 6.07386 57.4155 6.44318C57.4155 6.75379 57.334 7.03314 57.1712 7.28125C57.0083 7.52746 56.7848 7.72254 56.5007 7.86648C56.2185 8.00852 55.8946 8.07955 55.5291 8.07955ZM60.5036 8.07955C60.263 8.07765 60.0282 8.02936 59.799 7.93466C59.5698 7.83807 59.3634 7.68371 59.1797 7.47159C58.996 7.25758 58.8501 6.97538 58.7422 6.625C58.6342 6.27462 58.5803 5.84375 58.5803 5.33239C58.5803 4.8589 58.6219 4.42519 58.7053 4.03125C58.7886 3.63731 58.9136 3.2964 59.0803 3.00852C59.2469 2.72064 59.4553 2.49811 59.7053 2.34091C59.9553 2.18182 60.2479 2.10227 60.5831 2.10227C60.8975 2.10227 61.175 2.16761 61.4155 2.2983C61.656 2.42708 61.8511 2.60701 62.0007 2.83807C62.1503 3.06913 62.2441 3.33523 62.282 3.63636H61.7592C61.7062 3.32955 61.5803 3.0767 61.3814 2.87784C61.1825 2.67898 60.9164 2.57955 60.5831 2.57955C60.1058 2.57955 59.7365 2.80114 59.4751 3.24432C59.2138 3.68561 59.0821 4.3125 59.0803 5.125H59.1172C59.21 4.95265 59.3293 4.80398 59.4751 4.67898C59.6229 4.55208 59.7905 4.4536 59.978 4.38352C60.1655 4.31155 60.3625 4.27557 60.5689 4.27557C60.8928 4.27557 61.1892 4.35795 61.4581 4.52273C61.727 4.68561 61.942 4.91004 62.103 5.19602C62.264 5.48011 62.3445 5.80492 62.3445 6.17045C62.3445 6.51705 62.2678 6.83617 62.1143 7.12784C61.9628 7.41951 61.7488 7.65152 61.4723 7.82386C61.1977 7.99621 60.8748 8.08144 60.5036 8.07955ZM60.5036 7.60227C60.7573 7.60227 60.9837 7.53788 61.1825 7.40909C61.3833 7.2803 61.5414 7.10795 61.657 6.89205C61.7725 6.67424 61.8303 6.43371 61.8303 6.17045C61.8303 5.9072 61.7725 5.66856 61.657 5.45455C61.5414 5.24053 61.3833 5.07008 61.1825 4.94318C60.9837 4.81629 60.7573 4.75284 60.5036 4.75284C60.3104 4.75284 60.1304 4.79261 59.9638 4.87216C59.7971 4.94981 59.6522 5.05682 59.5291 5.19318C59.4079 5.32765 59.3151 5.48201 59.2507 5.65625C59.1882 5.83049 59.1645 6.01326 59.1797 6.20455C59.2005 6.47159 59.2696 6.71117 59.3871 6.9233C59.5064 7.13352 59.6617 7.29924 59.853 7.42045C60.0462 7.54167 60.263 7.60227 60.5036 7.60227ZM65.353 8.07955C64.9439 8.07955 64.5945 7.96212 64.3047 7.72727C64.0168 7.49053 63.7952 7.14867 63.6399 6.7017C63.4865 6.25473 63.4098 5.7178 63.4098 5.09091C63.4098 4.46591 63.4865 3.93087 63.6399 3.4858C63.7952 3.03883 64.0178 2.69697 64.3075 2.46023C64.5992 2.22159 64.9477 2.10227 65.353 2.10227C65.7583 2.10227 66.1058 2.22159 66.3956 2.46023C66.6873 2.69697 66.9098 3.03883 67.0632 3.4858C67.2185 3.93087 67.2962 4.46591 67.2962 5.09091C67.2962 5.7178 67.2185 6.25473 67.0632 6.7017C66.9098 7.14867 66.6882 7.49053 66.3984 7.72727C66.1106 7.96212 65.7621 8.07955 65.353 8.07955ZM65.353 7.60227C65.8018 7.60227 66.1522 7.38352 66.4041 6.94602C66.656 6.50663 66.782 5.88826 66.782 5.09091C66.782 4.56061 66.7242 4.10795 66.6087 3.73295C66.495 3.35606 66.3312 3.06818 66.1172 2.86932C65.9051 2.67045 65.6503 2.57102 65.353 2.57102C64.9079 2.57102 64.5585 2.79261 64.3047 3.2358C64.0509 3.67708 63.924 4.29545 63.924 5.09091C63.924 5.62121 63.9808 6.07386 64.0945 6.44886C64.21 6.82386 64.3738 7.10985 64.5859 7.30682C64.8 7.50379 65.0556 7.60227 65.353 7.60227ZM70.3416 8.07955C69.9837 8.07955 69.6636 8.01515 69.3814 7.88636C69.0992 7.75568 68.8757 7.57481 68.7109 7.34375C68.5462 7.11269 68.459 6.84659 68.4496 6.54545H68.9865C68.996 6.75758 69.0613 6.94318 69.1825 7.10227C69.3037 7.25947 69.4647 7.38258 69.6655 7.47159C69.8662 7.55871 70.0897 7.60227 70.3359 7.60227C70.6049 7.60227 70.8416 7.55208 71.0462 7.4517C71.2526 7.35133 71.4136 7.21402 71.5291 7.03977C71.6465 6.86364 71.7053 6.66477 71.7053 6.44318C71.7053 6.20833 71.6456 6.00095 71.5263 5.82102C71.407 5.6411 71.2356 5.50095 71.0121 5.40057C70.7905 5.30019 70.5253 5.25 70.2166 5.25H69.8757V4.77273H70.2166C70.4685 4.77273 70.6911 4.72727 70.8842 4.63636C71.0793 4.54356 71.2327 4.41383 71.3445 4.24716C71.4562 4.08049 71.5121 3.88447 71.5121 3.65909C71.5121 3.44508 71.4638 3.25663 71.3672 3.09375C71.2706 2.93087 71.1342 2.80303 70.9581 2.71023C70.7839 2.61742 70.5803 2.57102 70.3473 2.57102C70.1219 2.57102 69.9155 2.61458 69.728 2.7017C69.5405 2.78883 69.389 2.91193 69.2734 3.07102C69.1598 3.23011 69.0992 3.41856 69.0916 3.63636H68.5774C68.585 3.33333 68.6683 3.06723 68.8274 2.83807C68.9884 2.60701 69.2015 2.42708 69.4666 2.2983C69.7337 2.16761 70.0291 2.10227 70.353 2.10227C70.6958 2.10227 70.9922 2.17235 71.2422 2.3125C71.4922 2.45265 71.6854 2.6392 71.8217 2.87216C71.96 3.10322 72.0291 3.35795 72.0291 3.63636C72.0291 3.9678 71.9392 4.25189 71.7592 4.48864C71.5793 4.72348 71.3369 4.88636 71.032 4.97727V5.0142C71.4032 5.08807 71.6948 5.25284 71.907 5.50852C72.121 5.76231 72.228 6.07386 72.228 6.44318C72.228 6.75379 72.1465 7.03314 71.9837 7.28125C71.8208 7.52746 71.5973 7.72254 71.3132 7.86648C71.031 8.00852 70.7071 8.07955 70.3416 8.07955Z" fill="black"/>
</svg>
