<svg width="64" height="6" viewBox="0 0 64 6" fill="none" xmlns="http://www.w3.org/2000/svg">
<path d="M1.557 4.80105V1.20162H2.04279V4.80105H1.557ZM0.000177562 3.24423V2.75843H3.59961V3.24423H0.000177562ZM6.80202 0.00559282C7.04445 0.00748682 7.2793 0.0567293 7.50657 0.15332C7.73574 0.248017 7.94218 0.401426 8.12589 0.613547C8.3096 0.823775 8.45543 1.10408 8.56339 1.45446C8.67134 1.80294 8.72532 2.23192 8.72532 2.74139C8.72532 3.21677 8.68365 3.65237 8.60032 4.04821C8.51699 4.44404 8.39199 4.78684 8.22532 5.07662C8.06055 5.36449 7.85221 5.58798 7.60032 5.74707C7.35032 5.90427 7.05771 5.98287 6.72248 5.98287C6.40998 5.98287 6.13252 5.91752 5.89009 5.78684C5.64956 5.65616 5.45449 5.47529 5.30487 5.24423C5.15524 5.01127 5.06244 4.74234 5.02646 4.43741H5.54918C5.60032 4.74802 5.72532 5.0037 5.92418 5.20446C6.12494 5.40521 6.39104 5.50559 6.72248 5.50559C7.19786 5.50559 7.56718 5.284 7.83043 4.84082C8.09369 4.39764 8.22532 3.76696 8.22532 2.94877H8.18839C8.09748 3.11923 7.97816 3.2679 7.83043 3.3948C7.6846 3.52169 7.51793 3.62112 7.33043 3.69309C7.14293 3.76317 6.94502 3.79821 6.73668 3.79821C6.41282 3.79821 6.11642 3.71677 5.84748 3.55389C5.57854 3.38912 5.36358 3.16468 5.20259 2.88059C5.04161 2.59461 4.96112 2.26885 4.96112 1.90332C4.96112 1.55862 5.03687 1.24234 5.18839 0.954456C5.3418 0.664684 5.55581 0.433623 5.83043 0.261275C6.10695 0.0870322 6.43081 0.00180483 6.80202 0.00559282ZM6.80202 0.482866C6.55013 0.482866 6.3238 0.54726 6.12305 0.676047C5.92418 0.802941 5.76604 0.974343 5.64862 1.19025C5.53308 1.40427 5.47532 1.64196 5.47532 1.90332C5.47532 2.16658 5.53308 2.40616 5.64862 2.62207C5.76604 2.83609 5.92418 3.00654 6.12305 3.13343C6.3238 3.25843 6.55013 3.32093 6.80202 3.32093C6.99521 3.32093 7.17513 3.28211 7.3418 3.20446C7.50846 3.12491 7.6524 3.01696 7.77362 2.88059C7.89672 2.74423 7.98952 2.58987 8.05202 2.41752C8.11642 2.24328 8.14199 2.06052 8.12873 1.86923C8.106 1.60408 8.03498 1.36734 7.91566 1.159C7.79824 0.948775 7.64293 0.784002 7.44975 0.664684C7.25846 0.543472 7.04255 0.482866 6.80202 0.482866ZM11.7225 0.0851383V5.90332H11.1912V0.641956H11.1571L9.7935 1.54821V0.99707L11.1685 0.0851383H11.7225ZM15.8645 2.75559V3.23287H13.4441V2.75559H15.8645ZM18.9128 5.98287C18.5416 5.98287 18.2111 5.91279 17.9213 5.77264C17.6316 5.63249 17.4043 5.4412 17.2395 5.19877C17.0748 4.95446 16.9924 4.67889 16.9924 4.37207C16.9924 4.13154 17.0426 3.90711 17.1429 3.69877C17.2433 3.48855 17.3816 3.31241 17.5577 3.17037C17.7338 3.02643 17.9318 2.93268 18.1515 2.88912V2.85787C17.8655 2.77453 17.6354 2.61071 17.4611 2.36639C17.2869 2.12018 17.2007 1.84082 17.2026 1.52832C17.2007 1.23855 17.2746 0.979078 17.4242 0.749911C17.5738 0.520744 17.7774 0.339873 18.035 0.207297C18.2944 0.0728277 18.5871 0.00559282 18.9128 0.00559282C19.2367 0.00559282 19.5274 0.0728277 19.785 0.207297C20.0426 0.339873 20.2462 0.520744 20.3958 0.749911C20.5473 0.979078 20.624 1.23855 20.6259 1.52832C20.624 1.83893 20.5359 2.11828 20.3617 2.36639C20.1874 2.6126 19.9583 2.77643 19.6742 2.85787V2.88912C19.8939 2.93078 20.0909 3.02359 20.2651 3.16752C20.4393 3.31146 20.5776 3.48855 20.6799 3.69877C20.7821 3.90711 20.8333 4.13154 20.8333 4.37207C20.8333 4.67889 20.7499 4.95446 20.5833 5.19877C20.4185 5.4412 20.1912 5.63249 19.9015 5.77264C19.6136 5.91279 19.284 5.98287 18.9128 5.98287ZM18.9128 5.50559C19.1893 5.50559 19.4318 5.45635 19.6401 5.35787C19.8503 5.25749 20.0141 5.12018 20.1316 4.94593C20.2509 4.77169 20.3105 4.57188 20.3105 4.3465C20.3105 4.11355 20.249 3.90616 20.1259 3.72434C20.0028 3.54063 19.8361 3.39574 19.6259 3.28968C19.4157 3.18173 19.178 3.12775 18.9128 3.12775C18.6477 3.12775 18.409 3.18173 18.1969 3.28968C17.9867 3.39574 17.82 3.54063 17.6969 3.72434C17.5757 3.90616 17.5151 4.11355 17.5151 4.3465C17.5151 4.57188 17.5729 4.77169 17.6884 4.94593C17.8058 5.12018 17.9696 5.25749 18.1799 5.35787C18.392 5.45635 18.6363 5.50559 18.9128 5.50559ZM18.9128 2.67321C19.1401 2.67321 19.3437 2.62491 19.5236 2.52832C19.7035 2.43173 19.8456 2.3001 19.9498 2.13343C20.0558 1.96487 20.1098 1.77359 20.1117 1.55957C20.1098 1.34745 20.0568 1.15995 19.9526 0.99707C19.8484 0.832297 19.7064 0.704456 19.5265 0.613547C19.3484 0.520744 19.1439 0.474343 18.9128 0.474343C18.6818 0.474343 18.4753 0.520744 18.2935 0.613547C18.1136 0.704456 17.9715 0.832297 17.8674 0.99707C17.7651 1.15995 17.7149 1.34745 17.7168 1.55957C17.7149 1.77359 17.766 1.96487 17.8702 2.13343C17.9763 2.3001 18.1193 2.43173 18.2992 2.52832C18.481 2.62491 18.6855 2.67321 18.9128 2.67321ZM23.8198 5.98287C23.4107 5.98287 23.0613 5.86544 22.7715 5.63059C22.4836 5.39385 22.262 5.05199 22.1067 4.60502C21.9533 4.15806 21.8766 3.62112 21.8766 2.99423C21.8766 2.36923 21.9533 1.83419 22.1067 1.38912C22.262 0.942146 22.4846 0.60029 22.7743 0.363547C23.066 0.124911 23.4145 0.00559282 23.8198 0.00559282C24.2251 0.00559282 24.5726 0.124911 24.8624 0.363547C25.1541 0.60029 25.3766 0.942146 25.53 1.38912C25.6853 1.83419 25.763 2.36923 25.763 2.99423C25.763 3.62112 25.6853 4.15806 25.53 4.60502C25.3766 5.05199 25.155 5.39385 24.8652 5.63059C24.5774 5.86544 24.2289 5.98287 23.8198 5.98287ZM23.8198 5.50559C24.2686 5.50559 24.619 5.28684 24.8709 4.84934C25.1228 4.40995 25.2488 3.79158 25.2488 2.99423C25.2488 2.46393 25.191 2.01127 25.0755 1.63627C24.9618 1.25938 24.798 0.971502 24.584 0.772638C24.3719 0.573775 24.1171 0.474343 23.8198 0.474343C23.3747 0.474343 23.0253 0.695934 22.7715 1.13912C22.5177 1.5804 22.3908 2.19877 22.3908 2.99423C22.3908 3.52453 22.4476 3.97718 22.5613 4.35218C22.6768 4.72718 22.8406 5.01317 23.0527 5.21014C23.2667 5.40711 23.5224 5.50559 23.8198 5.50559ZM26.78 4.65332V4.2215L29.3738 0.0851383H29.6919V0.80957H29.4561L27.3738 4.13912V4.17605H30.7743V4.65332H26.78ZM29.4959 5.90332V4.51696V4.31809V0.0851383H30.0016V5.90332H29.4959ZM33.7253 5.98287C33.3541 5.98287 33.0236 5.91279 32.7338 5.77264C32.4441 5.63249 32.2168 5.4412 32.052 5.19877C31.8873 4.95446 31.8049 4.67889 31.8049 4.37207C31.8049 4.13154 31.8551 3.90711 31.9554 3.69877C32.0558 3.48855 32.1941 3.31241 32.3702 3.17037C32.5463 3.02643 32.7443 2.93268 32.964 2.88912V2.85787C32.678 2.77453 32.4479 2.61071 32.2736 2.36639C32.0994 2.12018 32.0132 1.84082 32.0151 1.52832C32.0132 1.23855 32.0871 0.979078 32.2367 0.749911C32.3863 0.520744 32.5899 0.339873 32.8475 0.207297C33.1069 0.0728277 33.3996 0.00559282 33.7253 0.00559282C34.0492 0.00559282 34.3399 0.0728277 34.5975 0.207297C34.8551 0.339873 35.0587 0.520744 35.2083 0.749911C35.3598 0.979078 35.4365 1.23855 35.4384 1.52832C35.4365 1.83893 35.3484 2.11828 35.1742 2.36639C34.9999 2.6126 34.7708 2.77643 34.4867 2.85787V2.88912C34.7064 2.93078 34.9034 3.02359 35.0776 3.16752C35.2518 3.31146 35.3901 3.48855 35.4924 3.69877C35.5946 3.90711 35.6458 4.13154 35.6458 4.37207C35.6458 4.67889 35.5624 4.95446 35.3958 5.19877C35.231 5.4412 35.0037 5.63249 34.714 5.77264C34.4261 5.91279 34.0965 5.98287 33.7253 5.98287ZM33.7253 5.50559C34.0018 5.50559 34.2443 5.45635 34.4526 5.35787C34.6628 5.25749 34.8266 5.12018 34.9441 4.94593C35.0634 4.77169 35.123 4.57188 35.123 4.3465C35.123 4.11355 35.0615 3.90616 34.9384 3.72434C34.8153 3.54063 34.6486 3.39574 34.4384 3.28968C34.2282 3.18173 33.9905 3.12775 33.7253 3.12775C33.4602 3.12775 33.2215 3.18173 33.0094 3.28968C32.7992 3.39574 32.6325 3.54063 32.5094 3.72434C32.3882 3.90616 32.3276 4.11355 32.3276 4.3465C32.3276 4.57188 32.3854 4.77169 32.5009 4.94593C32.6183 5.12018 32.7821 5.25749 32.9924 5.35787C33.2045 5.45635 33.4488 5.50559 33.7253 5.50559ZM33.7253 2.67321C33.9526 2.67321 34.1562 2.62491 34.3361 2.52832C34.516 2.43173 34.6581 2.3001 34.7623 2.13343C34.8683 1.96487 34.9223 1.77359 34.9242 1.55957C34.9223 1.34745 34.8693 1.15995 34.7651 0.99707C34.6609 0.832297 34.5189 0.704456 34.339 0.613547C34.1609 0.520744 33.9564 0.474343 33.7253 0.474343C33.4943 0.474343 33.2878 0.520744 33.106 0.613547C32.9261 0.704456 32.784 0.832297 32.6799 0.99707C32.5776 1.15995 32.5274 1.34745 32.5293 1.55957C32.5274 1.77359 32.5785 1.96487 32.6827 2.13343C32.7888 2.3001 32.9318 2.43173 33.1117 2.52832C33.2935 2.62491 33.498 2.67321 33.7253 2.67321ZM38.5755 0.00559282C38.8179 0.00748682 39.0527 0.0567293 39.28 0.15332C39.5092 0.248017 39.7156 0.401426 39.8993 0.613547C40.083 0.823775 40.2289 1.10408 40.3368 1.45446C40.4448 1.80294 40.4988 2.23192 40.4988 2.74139C40.4988 3.21677 40.4571 3.65237 40.3738 4.04821C40.2904 4.44404 40.1654 4.78684 39.9988 5.07662C39.834 5.36449 39.6257 5.58798 39.3738 5.74707C39.1238 5.90427 38.8311 5.98287 38.4959 5.98287C38.1834 5.98287 37.906 5.91752 37.6635 5.78684C37.423 5.65616 37.2279 5.47529 37.0783 5.24423C36.9287 5.01127 36.8359 4.74234 36.7999 4.43741H37.3226C37.3738 4.74802 37.4988 5.0037 37.6976 5.20446C37.8984 5.40521 38.1645 5.50559 38.4959 5.50559C38.9713 5.50559 39.3406 5.284 39.6039 4.84082C39.8671 4.39764 39.9988 3.76696 39.9988 2.94877H39.9618C39.8709 3.11923 39.7516 3.2679 39.6039 3.3948C39.458 3.52169 39.2914 3.62112 39.1039 3.69309C38.9164 3.76317 38.7185 3.79821 38.5101 3.79821C38.1863 3.79821 37.8899 3.71677 37.6209 3.55389C37.352 3.38912 37.137 3.16468 36.976 2.88059C36.815 2.59461 36.7346 2.26885 36.7346 1.90332C36.7346 1.55862 36.8103 1.24234 36.9618 0.954456C37.1152 0.664684 37.3292 0.433623 37.6039 0.261275C37.8804 0.0870322 38.2042 0.00180483 38.5755 0.00559282ZM38.5755 0.482866C38.3236 0.482866 38.0972 0.54726 37.8965 0.676047C37.6976 0.802941 37.5395 0.974343 37.4221 1.19025C37.3065 1.40427 37.2488 1.64196 37.2488 1.90332C37.2488 2.16658 37.3065 2.40616 37.4221 2.62207C37.5395 2.83609 37.6976 3.00654 37.8965 3.13343C38.0972 3.25843 38.3236 3.32093 38.5755 3.32093C38.7686 3.32093 38.9486 3.28211 39.1152 3.20446C39.2819 3.12491 39.4258 3.01696 39.5471 2.88059C39.6702 2.74423 39.763 2.58987 39.8255 2.41752C39.8899 2.24328 39.9154 2.06052 39.9022 1.86923C39.8794 1.60408 39.8084 1.36734 39.6891 1.159C39.5717 0.948775 39.4164 0.784002 39.2232 0.664684C39.0319 0.543472 38.816 0.482866 38.5755 0.482866ZM41.7118 5.90332L44.3624 0.599343V0.562411H41.3084V0.0851383H44.9192V0.585138L42.2715 5.90332H41.7118ZM47.7594 5.98287C47.5189 5.98097 47.284 5.93268 47.0549 5.83798C46.8257 5.74139 46.6193 5.58703 46.4355 5.37491C46.2518 5.1609 46.106 4.8787 45.998 4.52832C45.8901 4.17794 45.8361 3.74707 45.8361 3.23571C45.8361 2.76222 45.8778 2.32851 45.9611 1.93457C46.0444 1.54063 46.1694 1.19972 46.3361 0.911843C46.5028 0.623964 46.7111 0.401426 46.9611 0.244229C47.2111 0.0851383 47.5037 0.00559282 47.839 0.00559282C48.1533 0.00559282 48.4308 0.0709338 48.6713 0.201616C48.9119 0.330403 49.1069 0.510328 49.2566 0.741388C49.4062 0.972449 49.4999 1.23855 49.5378 1.53968H49.0151C48.9621 1.23287 48.8361 0.980024 48.6373 0.781161C48.4384 0.582297 48.1723 0.482866 47.839 0.482866C47.3617 0.482866 46.9924 0.704457 46.731 1.14764C46.4696 1.58893 46.338 2.21582 46.3361 3.02832H46.373C46.4658 2.85597 46.5852 2.7073 46.731 2.5823C46.8787 2.4554 47.0463 2.35692 47.2338 2.28684C47.4213 2.21487 47.6183 2.17889 47.8248 2.17889C48.1486 2.17889 48.445 2.26127 48.714 2.42605C48.9829 2.58893 49.1979 2.81336 49.3588 3.09934C49.5198 3.38343 49.6003 3.70824 49.6003 4.07377C49.6003 4.42037 49.5236 4.73949 49.3702 5.03116C49.2187 5.32283 49.0047 5.55484 48.7282 5.72718C48.4535 5.89953 48.1306 5.98476 47.7594 5.98287ZM47.7594 5.50559C48.0132 5.50559 48.2395 5.4412 48.4384 5.31241C48.6391 5.18362 48.7973 5.01127 48.9128 4.79537C49.0283 4.57756 49.0861 4.33703 49.0861 4.07377C49.0861 3.81052 49.0283 3.57188 48.9128 3.35787C48.7973 3.14385 48.6391 2.9734 48.4384 2.8465C48.2395 2.71961 48.0132 2.65616 47.7594 2.65616C47.5662 2.65616 47.3863 2.69593 47.2196 2.77548C47.053 2.85313 46.9081 2.96014 46.785 3.0965C46.6638 3.23097 46.571 3.38533 46.5066 3.55957C46.4441 3.73381 46.4204 3.91658 46.4355 4.10787C46.4564 4.37491 46.5255 4.61449 46.6429 4.82662C46.7623 5.03684 46.9176 5.20256 47.1088 5.32377C47.302 5.44499 47.5189 5.50559 47.7594 5.50559ZM50.9696 5.90332L53.6202 0.599343V0.562411H50.5662V0.0851383H54.177V0.585138L51.5293 5.90332H50.9696ZM54.7019 4.65332V4.2215L57.2956 0.0851383H57.6138V0.80957H57.378L55.2956 4.13912V4.17605H58.6962V4.65332H54.7019ZM57.4178 5.90332V4.51696V4.31809V0.0851383H57.9235V5.90332H57.4178ZM61.6472 5.98287C61.276 5.98287 60.9455 5.91279 60.6557 5.77264C60.3659 5.63249 60.1387 5.4412 59.9739 5.19877C59.8091 4.95446 59.7267 4.67889 59.7267 4.37207C59.7267 4.13154 59.7769 3.90711 59.8773 3.69877C59.9777 3.48855 60.1159 3.31241 60.2921 3.17037C60.4682 3.02643 60.6661 2.93268 60.8858 2.88912V2.85787C60.5998 2.77453 60.3697 2.61071 60.1955 2.36639C60.0212 2.12018 59.9351 1.84082 59.937 1.52832C59.9351 1.23855 60.0089 0.979078 60.1586 0.749911C60.3082 0.520744 60.5118 0.339873 60.7694 0.207297C61.0288 0.0728277 61.3214 0.00559282 61.6472 0.00559282C61.9711 0.00559282 62.2618 0.0728277 62.5194 0.207297C62.7769 0.339873 62.9805 0.520744 63.1301 0.749911C63.2817 0.979078 63.3584 1.23855 63.3603 1.52832C63.3584 1.83893 63.2703 2.11828 63.0961 2.36639C62.9218 2.6126 62.6926 2.77643 62.4086 2.85787V2.88912C62.6283 2.93078 62.8252 3.02359 62.9995 3.16752C63.1737 3.31146 63.312 3.48855 63.4142 3.69877C63.5165 3.90711 63.5676 4.13154 63.5676 4.37207C63.5676 4.67889 63.4843 4.95446 63.3176 5.19877C63.1529 5.4412 62.9256 5.63249 62.6358 5.77264C62.348 5.91279 62.0184 5.98287 61.6472 5.98287ZM61.6472 5.50559C61.9237 5.50559 62.1661 5.45635 62.3745 5.35787C62.5847 5.25749 62.7485 5.12018 62.8659 4.94593C62.9853 4.77169 63.0449 4.57188 63.0449 4.3465C63.0449 4.11355 62.9834 3.90616 62.8603 3.72434C62.7372 3.54063 62.5705 3.39574 62.3603 3.28968C62.15 3.18173 61.9123 3.12775 61.6472 3.12775C61.382 3.12775 61.1434 3.18173 60.9313 3.28968C60.7211 3.39574 60.5544 3.54063 60.4313 3.72434C60.3101 3.90616 60.2495 4.11355 60.2495 4.3465C60.2495 4.57188 60.3072 4.77169 60.4228 4.94593C60.5402 5.12018 60.704 5.25749 60.9142 5.35787C61.1264 5.45635 61.3707 5.50559 61.6472 5.50559ZM61.6472 2.67321C61.8745 2.67321 62.0781 2.62491 62.258 2.52832C62.4379 2.43173 62.58 2.3001 62.6841 2.13343C62.7902 1.96487 62.8442 1.77359 62.8461 1.55957C62.8442 1.34745 62.7911 1.15995 62.687 0.99707C62.5828 0.832297 62.4408 0.704456 62.2608 0.613547C62.0828 0.520744 61.8783 0.474343 61.6472 0.474343C61.4161 0.474343 61.2097 0.520744 61.0279 0.613547C60.848 0.704456 60.7059 0.832297 60.6017 0.99707C60.4995 1.15995 60.4493 1.34745 60.4512 1.55957C60.4493 1.77359 60.5004 1.96487 60.6046 2.13343C60.7106 2.3001 60.8536 2.43173 61.0336 2.52832C61.2154 2.62491 61.4199 2.67321 61.6472 2.67321Z" fill="black"/>
</svg>
