<svg width="18" height="18" viewBox="0 0 18 18" fill="none" xmlns="http://www.w3.org/2000/svg">
<path d="M15.0002 8.24974H16.5002C16.5002 4.40224 13.5954 1.50049 9.74268 1.50049V3.00049C12.7892 3.00049 15.0002 5.20774 15.0002 8.24974Z" fill="#0C2461"/>
<path d="M9.75021 6.00067C11.3275 6.00067 12.0002 6.67342 12.0002 8.25067H13.5002C13.5002 5.83192 12.169 4.50067 9.75021 4.50067V6.00067ZM12.3167 10.0829C12.1727 9.95175 11.9833 9.88178 11.7886 9.8878C11.5938 9.89382 11.4091 9.97536 11.2735 10.1152L9.47871 11.9609C9.04671 11.8784 8.17821 11.6077 7.28421 10.7159C6.39021 9.82117 6.11946 8.95042 6.03921 8.52142L7.88346 6.72592C8.02327 6.59026 8.10481 6.40553 8.11083 6.21082C8.11685 6.01611 8.04688 5.8267 7.91571 5.68267L5.14446 2.63542C5.01324 2.49094 4.83087 2.4033 4.63608 2.39111C4.44128 2.37893 4.24941 2.44316 4.10121 2.57017L2.47371 3.96592C2.34404 4.09605 2.26665 4.26926 2.25621 4.45267C2.24496 4.64017 2.03046 9.08167 5.47446 12.5272C8.47896 15.5309 12.2425 15.7507 13.279 15.7507C13.4305 15.7507 13.5235 15.7462 13.5482 15.7447C13.7315 15.7338 13.9044 15.6562 14.0342 15.5264L15.4292 13.8982C15.5563 13.7501 15.6207 13.5582 15.6086 13.3635C15.5966 13.1687 15.5091 12.9862 15.3647 12.8549L12.3167 10.0829Z" fill="#0C2461"/>
</svg>
