<svg width="151" height="22" viewBox="0 0 151 22" fill="none" xmlns="http://www.w3.org/2000/svg">
<path d="M0.772727 2.18182H1.38636L3.49716 7.25H3.5483L5.65909 2.18182H6.27273V8H5.77273V3.30398H5.72727L3.7642 8H3.28125L1.31818 3.30398H1.27273V8H0.772727V2.18182ZM9.41051 8.09091C9.03362 8.09091 8.70028 7.99527 8.41051 7.80398C8.12263 7.61269 7.89725 7.34848 7.73438 7.01136C7.5715 6.67235 7.49006 6.28125 7.49006 5.83807C7.49006 5.3911 7.5715 4.99811 7.73438 4.65909C7.89725 4.31818 8.12263 4.05303 8.41051 3.86364C8.70028 3.67235 9.03362 3.5767 9.41051 3.5767C9.78741 3.5767 10.1198 3.67235 10.4077 3.86364C10.6955 4.05492 10.9209 4.32008 11.0838 4.65909C11.2486 4.99811 11.331 5.3911 11.331 5.83807C11.331 6.28125 11.2495 6.67235 11.0866 7.01136C10.9238 7.34848 10.6974 7.61269 10.4077 7.80398C10.1198 7.99527 9.78741 8.09091 9.41051 8.09091ZM9.41051 7.62784C9.71354 7.62784 9.97017 7.5464 10.1804 7.38352C10.3906 7.22064 10.5497 7.00379 10.6577 6.73295C10.7675 6.46212 10.8224 6.16383 10.8224 5.83807C10.8224 5.51231 10.7675 5.21307 10.6577 4.94034C10.5497 4.66761 10.3906 4.44886 10.1804 4.28409C9.97017 4.11932 9.71354 4.03693 9.41051 4.03693C9.10938 4.03693 8.85275 4.11932 8.64062 4.28409C8.4304 4.44886 8.27036 4.66761 8.16051 4.94034C8.05256 5.21307 7.99858 5.51231 7.99858 5.83807C7.99858 6.16383 8.05256 6.46212 8.16051 6.73295C8.27036 7.00379 8.4304 7.22064 8.64062 7.38352C8.85085 7.5464 9.10748 7.62784 9.41051 7.62784ZM12.9467 5.27273V8H12.4411V3.63636H12.9325V4.32102H12.978C13.0803 4.09754 13.2393 3.91856 13.4553 3.78409C13.6731 3.64773 13.942 3.57955 14.2621 3.57955C14.5556 3.57955 14.8132 3.6411 15.0348 3.7642C15.2583 3.88542 15.4316 4.06439 15.5547 4.30114C15.6797 4.53788 15.7422 4.8286 15.7422 5.1733V8H15.2365V5.20455C15.2365 4.84659 15.1361 4.56345 14.9354 4.35511C14.7365 4.14678 14.4695 4.04261 14.1342 4.04261C13.9051 4.04261 13.7015 4.09186 13.5234 4.19034C13.3454 4.28883 13.2043 4.43087 13.1001 4.61648C12.9979 4.80019 12.9467 5.01894 12.9467 5.27273ZM18.6449 8.09091C18.2869 8.09091 17.9735 7.99621 17.7045 7.80682C17.4356 7.61742 17.2254 7.35322 17.0739 7.0142C16.9242 6.67519 16.8494 6.2803 16.8494 5.82955C16.8494 5.38068 16.9242 4.98769 17.0739 4.65057C17.2254 4.31155 17.4366 4.0483 17.7074 3.8608C17.9782 3.6714 18.2936 3.5767 18.6534 3.5767C18.9186 3.5767 19.1392 3.62405 19.3153 3.71875C19.4915 3.81155 19.6326 3.92708 19.7386 4.06534C19.8447 4.2036 19.9271 4.33807 19.9858 4.46875H20.0312V2.18182H20.5398V8H20.0455V7.19034H19.9858C19.9271 7.32292 19.8438 7.45928 19.7358 7.59943C19.6278 7.73769 19.4848 7.85417 19.3068 7.94886C19.1307 8.04356 18.91 8.09091 18.6449 8.09091ZM18.7045 7.62784C18.9867 7.62784 19.2273 7.55114 19.4261 7.39773C19.625 7.24242 19.7765 7.02936 19.8807 6.75852C19.9867 6.4858 20.0398 6.1733 20.0398 5.82102C20.0398 5.47254 19.9877 5.16477 19.8835 4.89773C19.7794 4.62879 19.6278 4.41856 19.429 4.26705C19.2301 4.11364 18.9886 4.03693 18.7045 4.03693C18.4129 4.03693 18.1667 4.11648 17.9659 4.27557C17.767 4.43277 17.6155 4.64583 17.5114 4.91477C17.4091 5.18371 17.358 5.4858 17.358 5.82102C17.358 6.16004 17.41 6.46591 17.5142 6.73864C17.6184 7.01136 17.7699 7.22822 17.9688 7.3892C18.1695 7.5483 18.4148 7.62784 18.7045 7.62784ZM23.1989 8.09943C22.9356 8.09943 22.6951 8.0483 22.4773 7.94602C22.2595 7.84186 22.0862 7.69223 21.9574 7.49716C21.8286 7.30019 21.7642 7.06155 21.7642 6.78125C21.7642 6.56534 21.8049 6.38352 21.8864 6.2358C21.9678 6.08807 22.0833 5.96686 22.233 5.87216C22.3826 5.77746 22.5597 5.70265 22.7642 5.64773C22.9688 5.5928 23.1941 5.55019 23.4403 5.51989C23.6847 5.48958 23.8911 5.46307 24.0597 5.44034C24.2301 5.41761 24.3598 5.38163 24.4489 5.33239C24.5379 5.28314 24.5824 5.2036 24.5824 5.09375V4.99148C24.5824 4.69413 24.4934 4.46023 24.3153 4.28977C24.1392 4.11742 23.8854 4.03125 23.554 4.03125C23.2396 4.03125 22.983 4.10038 22.7841 4.23864C22.5871 4.37689 22.4489 4.53977 22.3693 4.72727L21.8892 4.55398C21.9877 4.31534 22.1241 4.125 22.2983 3.98295C22.4725 3.83902 22.6676 3.7358 22.8835 3.6733C23.0994 3.6089 23.3182 3.5767 23.5398 3.5767C23.7064 3.5767 23.8797 3.59848 24.0597 3.64205C24.2415 3.68561 24.41 3.76136 24.5653 3.86932C24.7206 3.97538 24.8466 4.12405 24.9432 4.31534C25.0398 4.50473 25.0881 4.74527 25.0881 5.03693V8H24.5824V7.30966H24.5511C24.4905 7.43845 24.4006 7.56345 24.2812 7.68466C24.1619 7.80587 24.0123 7.9053 23.8324 7.98295C23.6525 8.06061 23.4413 8.09943 23.1989 8.09943ZM23.267 7.63636C23.536 7.63636 23.7689 7.5767 23.9659 7.45739C24.1629 7.33807 24.3144 7.17992 24.4205 6.98295C24.5284 6.78409 24.5824 6.56534 24.5824 6.3267V5.69602C24.5445 5.73201 24.4811 5.7642 24.392 5.79261C24.3049 5.82102 24.2036 5.84659 24.0881 5.86932C23.9744 5.89015 23.8608 5.90814 23.7472 5.9233C23.6335 5.93845 23.5312 5.9517 23.4403 5.96307C23.1941 5.99337 22.9839 6.04072 22.8097 6.10511C22.6354 6.16951 22.5019 6.25852 22.4091 6.37216C22.3163 6.4839 22.2699 6.62784 22.2699 6.80398C22.2699 7.06913 22.3646 7.27462 22.554 7.42045C22.7434 7.56439 22.9811 7.63636 23.267 7.63636ZM26.6293 9.63636C26.5289 9.63636 26.4351 9.62689 26.348 9.60795C26.2609 9.58902 26.1918 9.56818 26.1406 9.54545L26.277 9.09943C26.4493 9.15246 26.6027 9.1714 26.7372 9.15625C26.8717 9.14299 26.991 9.08239 27.0952 8.97443C27.1993 8.86837 27.2921 8.70549 27.3736 8.4858L27.5327 8.04261L25.9276 3.63636H26.4759L27.7713 7.33239H27.8111L29.1065 3.63636H29.6548L27.8082 8.69034C27.7306 8.90057 27.6349 9.07576 27.5213 9.21591C27.4077 9.35795 27.276 9.46307 27.1264 9.53125C26.9787 9.60133 26.813 9.63636 26.6293 9.63636ZM36.2266 4.85227V5.32955H32.2266V4.85227H36.2266ZM42.4084 3.63636C42.3762 3.3125 42.2332 3.05492 41.9794 2.86364C41.7256 2.67235 41.4065 2.5767 41.022 2.5767C40.7512 2.5767 40.5125 2.62311 40.3061 2.71591C40.1016 2.80871 39.9406 2.9375 39.8232 3.10227C39.7076 3.26515 39.6499 3.45076 39.6499 3.65909C39.6499 3.8125 39.683 3.94697 39.7493 4.0625C39.8156 4.17803 39.9046 4.27746 40.0163 4.3608C40.13 4.44223 40.255 4.51231 40.3913 4.57102C40.5296 4.62973 40.6688 4.67898 40.8089 4.71875L41.4226 4.89489C41.6082 4.94602 41.7938 5.01136 41.9794 5.09091C42.165 5.17045 42.3345 5.27083 42.4879 5.39205C42.6432 5.51136 42.7673 5.65814 42.8601 5.83239C42.9548 6.00473 43.0021 6.21212 43.0021 6.45455C43.0021 6.76515 42.9216 7.04451 42.7607 7.29261C42.5997 7.54072 42.3686 7.73769 42.0675 7.88352C41.7663 8.02746 41.4055 8.09943 40.9851 8.09943C40.5893 8.09943 40.2455 8.03409 39.9538 7.90341C39.6622 7.77083 39.433 7.58807 39.2663 7.35511C39.0997 7.12216 39.0059 6.85227 38.9851 6.54545H39.5305C39.5495 6.77462 39.6252 6.96875 39.7578 7.12784C39.8904 7.28693 40.0627 7.40814 40.2749 7.49148C40.487 7.57292 40.7237 7.61364 40.9851 7.61364C41.2749 7.61364 41.5324 7.56534 41.7578 7.46875C41.9851 7.37027 42.1631 7.2339 42.2919 7.05966C42.4226 6.88352 42.4879 6.67898 42.4879 6.44602C42.4879 6.24905 42.4368 6.08428 42.3345 5.9517C42.2322 5.81723 42.0893 5.70455 41.9055 5.61364C41.7237 5.52273 41.5125 5.44223 41.272 5.37216L40.576 5.16761C40.1196 5.03125 39.7654 4.8428 39.5135 4.60227C39.2616 4.36174 39.1357 4.05492 39.1357 3.68182C39.1357 3.36932 39.219 3.0947 39.3857 2.85795C39.5542 2.61932 39.7815 2.43371 40.0675 2.30114C40.3554 2.16667 40.6783 2.09943 41.0362 2.09943C41.398 2.09943 41.718 2.16572 41.9964 2.2983C42.2749 2.43087 42.4955 2.61364 42.6584 2.84659C42.8232 3.07765 42.9112 3.34091 42.9226 3.63636H42.4084ZM45.3942 8.09943C45.1309 8.09943 44.8904 8.0483 44.6726 7.94602C44.4548 7.84186 44.2815 7.69223 44.1527 7.49716C44.0239 7.30019 43.9595 7.06155 43.9595 6.78125C43.9595 6.56534 44.0002 6.38352 44.0817 6.2358C44.1631 6.08807 44.2786 5.96686 44.4283 5.87216C44.5779 5.77746 44.755 5.70265 44.9595 5.64773C45.1641 5.5928 45.3894 5.55019 45.6357 5.51989C45.88 5.48958 46.0864 5.46307 46.255 5.44034C46.4254 5.41761 46.5552 5.38163 46.6442 5.33239C46.7332 5.28314 46.7777 5.2036 46.7777 5.09375V4.99148C46.7777 4.69413 46.6887 4.46023 46.5107 4.28977C46.3345 4.11742 46.0807 4.03125 45.7493 4.03125C45.4349 4.03125 45.1783 4.10038 44.9794 4.23864C44.7824 4.37689 44.6442 4.53977 44.5646 4.72727L44.0845 4.55398C44.183 4.31534 44.3194 4.125 44.4936 3.98295C44.6679 3.83902 44.8629 3.7358 45.0788 3.6733C45.2947 3.6089 45.5135 3.5767 45.7351 3.5767C45.9018 3.5767 46.075 3.59848 46.255 3.64205C46.4368 3.68561 46.6054 3.76136 46.7607 3.86932C46.916 3.97538 47.0419 4.12405 47.1385 4.31534C47.2351 4.50473 47.2834 4.74527 47.2834 5.03693V8H46.7777V7.30966H46.7464C46.6858 7.43845 46.5959 7.56345 46.4766 7.68466C46.3572 7.80587 46.2076 7.9053 46.0277 7.98295C45.8478 8.06061 45.6366 8.09943 45.3942 8.09943ZM45.4624 7.63636C45.7313 7.63636 45.9643 7.5767 46.1612 7.45739C46.3582 7.33807 46.5097 7.17992 46.6158 6.98295C46.7237 6.78409 46.7777 6.56534 46.7777 6.3267V5.69602C46.7398 5.73201 46.6764 5.7642 46.5874 5.79261C46.5002 5.82102 46.3989 5.84659 46.2834 5.86932C46.1697 5.89015 46.0561 5.90814 45.9425 5.9233C45.8288 5.93845 45.7266 5.9517 45.6357 5.96307C45.3894 5.99337 45.1792 6.04072 45.005 6.10511C44.8307 6.16951 44.6972 6.25852 44.6044 6.37216C44.5116 6.4839 44.4652 6.62784 44.4652 6.80398C44.4652 7.06913 44.5599 7.27462 44.7493 7.42045C44.9387 7.56439 45.1764 7.63636 45.4624 7.63636ZM50.3473 3.63636V4.0767H48.2649V3.63636H50.3473ZM48.9155 2.59091H49.424V6.8608C49.424 7.04261 49.4553 7.18561 49.5178 7.28977C49.5803 7.39205 49.6617 7.46496 49.7621 7.50852C49.8625 7.55019 49.9695 7.57102 50.0831 7.57102C50.1494 7.57102 50.2062 7.56723 50.2536 7.55966C50.3009 7.55019 50.3426 7.54072 50.3786 7.53125L50.4865 7.98864C50.4373 8.00758 50.3767 8.02462 50.3047 8.03977C50.2327 8.05682 50.1437 8.06534 50.0376 8.06534C49.852 8.06534 49.6731 8.02462 49.5007 7.94318C49.3303 7.86174 49.1901 7.74053 49.0803 7.57955C48.9704 7.41856 48.9155 7.21875 48.9155 6.98011V2.59091ZM54.2685 6.33239V3.63636H54.7741V8H54.2685V7.27557H54.2287C54.1264 7.49905 53.9645 7.68561 53.7429 7.83523C53.5213 7.98295 53.2505 8.05682 52.9304 8.05682C52.652 8.05682 52.4048 7.99621 52.1889 7.875C51.973 7.75189 51.8035 7.57197 51.6804 7.33523C51.5573 7.09848 51.4957 6.80777 51.4957 6.46307V3.63636H52.0014V6.43182C52.0014 6.77273 52.1018 7.04735 52.3026 7.25568C52.5033 7.46212 52.7609 7.56534 53.0753 7.56534C53.2723 7.56534 53.4616 7.51799 53.6435 7.4233C53.8253 7.3286 53.9749 7.19034 54.0923 7.00852C54.2098 6.82481 54.2685 6.59943 54.2685 6.33239ZM56.1129 8V3.63636H56.6044V4.30682H56.6413C56.7285 4.08712 56.88 3.91004 57.0959 3.77557C57.3137 3.6392 57.5599 3.57102 57.8345 3.57102C57.8762 3.57102 57.9226 3.57197 57.9737 3.57386C58.0249 3.57576 58.0675 3.57765 58.1016 3.57955V4.09375C58.0788 4.08996 58.0391 4.08428 57.9822 4.0767C57.9254 4.06913 57.8639 4.06534 57.7976 4.06534C57.5703 4.06534 57.3677 4.11364 57.1896 4.21023C57.0135 4.30492 56.8743 4.43655 56.772 4.60511C56.6697 4.77367 56.6186 4.96591 56.6186 5.18182V8H56.1129ZM60.4027 8.09091C60.0447 8.09091 59.7313 7.99621 59.4624 7.80682C59.1934 7.61742 58.9832 7.35322 58.8317 7.0142C58.6821 6.67519 58.6072 6.2803 58.6072 5.82955C58.6072 5.38068 58.6821 4.98769 58.8317 4.65057C58.9832 4.31155 59.1944 4.0483 59.4652 3.8608C59.736 3.6714 60.0514 3.5767 60.4112 3.5767C60.6764 3.5767 60.897 3.62405 61.0732 3.71875C61.2493 3.81155 61.3904 3.92708 61.4964 4.06534C61.6025 4.2036 61.6849 4.33807 61.7436 4.46875H61.7891V2.18182H62.2976V8H61.8033V7.19034H61.7436C61.6849 7.32292 61.6016 7.45928 61.4936 7.59943C61.3857 7.73769 61.2427 7.85417 61.0646 7.94886C60.8885 8.04356 60.6679 8.09091 60.4027 8.09091ZM60.4624 7.62784C60.7446 7.62784 60.9851 7.55114 61.1839 7.39773C61.3828 7.24242 61.5343 7.02936 61.6385 6.75852C61.7446 6.4858 61.7976 6.1733 61.7976 5.82102C61.7976 5.47254 61.7455 5.16477 61.6413 4.89773C61.5372 4.62879 61.3857 4.41856 61.1868 4.26705C60.9879 4.11364 60.7464 4.03693 60.4624 4.03693C60.1707 4.03693 59.9245 4.11648 59.7237 4.27557C59.5249 4.43277 59.3733 4.64583 59.2692 4.91477C59.1669 5.18371 59.1158 5.4858 59.1158 5.82102C59.1158 6.16004 59.1679 6.46591 59.272 6.73864C59.3762 7.01136 59.5277 7.22822 59.7266 7.3892C59.9273 7.5483 60.1726 7.62784 60.4624 7.62784ZM64.9567 8.09943C64.6934 8.09943 64.4529 8.0483 64.2351 7.94602C64.0173 7.84186 63.844 7.69223 63.7152 7.49716C63.5864 7.30019 63.522 7.06155 63.522 6.78125C63.522 6.56534 63.5627 6.38352 63.6442 6.2358C63.7256 6.08807 63.8411 5.96686 63.9908 5.87216C64.1404 5.77746 64.3175 5.70265 64.522 5.64773C64.7266 5.5928 64.9519 5.55019 65.1982 5.51989C65.4425 5.48958 65.6489 5.46307 65.8175 5.44034C65.9879 5.41761 66.1177 5.38163 66.2067 5.33239C66.2957 5.28314 66.3402 5.2036 66.3402 5.09375V4.99148C66.3402 4.69413 66.2512 4.46023 66.0732 4.28977C65.897 4.11742 65.6432 4.03125 65.3118 4.03125C64.9974 4.03125 64.7408 4.10038 64.5419 4.23864C64.3449 4.37689 64.2067 4.53977 64.1271 4.72727L63.647 4.55398C63.7455 4.31534 63.8819 4.125 64.0561 3.98295C64.2304 3.83902 64.4254 3.7358 64.6413 3.6733C64.8572 3.6089 65.076 3.5767 65.2976 3.5767C65.4643 3.5767 65.6375 3.59848 65.8175 3.64205C65.9993 3.68561 66.1679 3.76136 66.3232 3.86932C66.4785 3.97538 66.6044 4.12405 66.701 4.31534C66.7976 4.50473 66.8459 4.74527 66.8459 5.03693V8H66.3402V7.30966H66.3089C66.2483 7.43845 66.1584 7.56345 66.0391 7.68466C65.9197 7.80587 65.7701 7.9053 65.5902 7.98295C65.4103 8.06061 65.1991 8.09943 64.9567 8.09943ZM65.0249 7.63636C65.2938 7.63636 65.5268 7.5767 65.7237 7.45739C65.9207 7.33807 66.0722 7.17992 66.1783 6.98295C66.2862 6.78409 66.3402 6.56534 66.3402 6.3267V5.69602C66.3023 5.73201 66.2389 5.7642 66.1499 5.79261C66.0627 5.82102 65.9614 5.84659 65.8459 5.86932C65.7322 5.89015 65.6186 5.90814 65.505 5.9233C65.3913 5.93845 65.2891 5.9517 65.1982 5.96307C64.9519 5.99337 64.7417 6.04072 64.5675 6.10511C64.3932 6.16951 64.2597 6.25852 64.1669 6.37216C64.0741 6.4839 64.0277 6.62784 64.0277 6.80398C64.0277 7.06913 64.1224 7.27462 64.3118 7.42045C64.5012 7.56439 64.7389 7.63636 65.0249 7.63636ZM68.3871 9.63636C68.2867 9.63636 68.1929 9.62689 68.1058 9.60795C68.0187 9.58902 67.9496 9.56818 67.8984 9.54545L68.0348 9.09943C68.2071 9.15246 68.3606 9.1714 68.495 9.15625C68.6295 9.14299 68.7488 9.08239 68.853 8.97443C68.9571 8.86837 69.05 8.70549 69.1314 8.4858L69.2905 8.04261L67.6854 3.63636H68.2337L69.5291 7.33239H69.5689L70.8643 3.63636H71.4126L69.5661 8.69034C69.4884 8.90057 69.3928 9.07576 69.2791 9.21591C69.1655 9.35795 69.0339 9.46307 68.8842 9.53125C68.7365 9.60133 68.5708 9.63636 68.3871 9.63636ZM72.8054 7.8892C72.6937 7.8892 72.5971 7.84943 72.5156 7.76989C72.4361 7.69034 72.3963 7.59375 72.3963 7.48011C72.3963 7.36837 72.4361 7.27273 72.5156 7.19318C72.5971 7.11174 72.6937 7.07102 72.8054 7.07102C72.919 7.07102 73.0156 7.11174 73.0952 7.19318C73.1747 7.27273 73.2145 7.36837 73.2145 7.48011C73.2145 7.55587 73.1955 7.625 73.1577 7.6875C73.1217 7.74811 73.0724 7.79735 73.0099 7.83523C72.9493 7.87121 72.8812 7.8892 72.8054 7.8892ZM72.8054 4.74148C72.6937 4.74148 72.5971 4.7017 72.5156 4.62216C72.4361 4.54261 72.3963 4.44602 72.3963 4.33239C72.3963 4.22064 72.4361 4.125 72.5156 4.04545C72.5971 3.96402 72.6937 3.9233 72.8054 3.9233C72.919 3.9233 73.0156 3.96402 73.0952 4.04545C73.1747 4.125 73.2145 4.22064 73.2145 4.33239C73.2145 4.40814 73.1955 4.47727 73.1577 4.53977C73.1217 4.60038 73.0724 4.64962 73.0099 4.6875C72.9493 4.72348 72.8812 4.74148 72.8054 4.74148ZM78.5305 2.10227C78.773 2.10417 79.0078 2.15341 79.2351 2.25C79.4643 2.3447 79.6707 2.49811 79.8544 2.71023C80.0381 2.92045 80.1839 3.20076 80.2919 3.55114C80.3999 3.89962 80.4538 4.3286 80.4538 4.83807C80.4538 5.31345 80.4122 5.74905 80.3288 6.14489C80.2455 6.54072 80.1205 6.88352 79.9538 7.1733C79.7891 7.46117 79.5807 7.68466 79.3288 7.84375C79.0788 8.00095 78.7862 8.07955 78.451 8.07955C78.1385 8.07955 77.861 8.0142 77.6186 7.88352C77.3781 7.75284 77.183 7.57197 77.0334 7.34091C76.8838 7.10795 76.791 6.83902 76.755 6.53409H77.2777C77.3288 6.8447 77.4538 7.10038 77.6527 7.30114C77.8535 7.50189 78.1196 7.60227 78.451 7.60227C78.9264 7.60227 79.2957 7.38068 79.5589 6.9375C79.8222 6.49432 79.9538 5.86364 79.9538 5.04545H79.9169C79.826 5.21591 79.7067 5.36458 79.5589 5.49148C79.4131 5.61837 79.2464 5.7178 79.0589 5.78977C78.8714 5.85985 78.6735 5.89489 78.4652 5.89489C78.1413 5.89489 77.8449 5.81345 77.576 5.65057C77.3071 5.4858 77.0921 5.26136 76.9311 4.97727C76.7701 4.69129 76.6896 4.36553 76.6896 4C76.6896 3.6553 76.7654 3.33902 76.9169 3.05114C77.0703 2.76136 77.2843 2.5303 77.5589 2.35795C77.8355 2.18371 78.1593 2.09848 78.5305 2.10227ZM78.5305 2.57955C78.2786 2.57955 78.0523 2.64394 77.8516 2.77273C77.6527 2.89962 77.4946 3.07102 77.3771 3.28693C77.2616 3.50095 77.2038 3.73864 77.2038 4C77.2038 4.26326 77.2616 4.50284 77.3771 4.71875C77.4946 4.93277 77.6527 5.10322 77.8516 5.23011C78.0523 5.35511 78.2786 5.41761 78.5305 5.41761C78.7237 5.41761 78.9036 5.37879 79.0703 5.30114C79.237 5.22159 79.3809 5.11364 79.5021 4.97727C79.6252 4.84091 79.718 4.68655 79.7805 4.5142C79.8449 4.33996 79.8705 4.1572 79.8572 3.96591C79.8345 3.70076 79.7635 3.46401 79.6442 3.25568C79.5268 3.04545 79.3714 2.88068 79.1783 2.76136C78.987 2.64015 78.7711 2.57955 78.5305 2.57955ZM82.0788 7.12784C81.9671 7.12784 81.8705 7.08807 81.7891 7.00852C81.7095 6.92708 81.6697 6.83049 81.6697 6.71875C81.6697 6.60511 81.7095 6.50852 81.7891 6.42898C81.8705 6.34943 81.9671 6.30966 82.0788 6.30966C82.1925 6.30966 82.2891 6.34943 82.3686 6.42898C82.4482 6.50852 82.4879 6.60511 82.4879 6.71875C82.4879 6.79261 82.469 6.8608 82.4311 6.9233C82.3951 6.9858 82.3459 7.03598 82.2834 7.07386C82.2228 7.10985 82.1546 7.12784 82.0788 7.12784ZM82.0788 4.17614C81.9671 4.17614 81.8705 4.13636 81.7891 4.05682C81.7095 3.97538 81.6697 3.87879 81.6697 3.76705C81.6697 3.6553 81.7095 3.55966 81.7891 3.48011C81.8705 3.39867 81.9671 3.35795 82.0788 3.35795C82.1925 3.35795 82.2891 3.39867 82.3686 3.48011C82.4482 3.55966 82.4879 3.6553 82.4879 3.76705C82.4879 3.84091 82.469 3.90909 82.4311 3.97159C82.3951 4.03409 82.3459 4.08428 82.2834 4.12216C82.2228 4.15814 82.1546 4.17614 82.0788 4.17614ZM85.6108 8.07955C85.2017 8.07955 84.8523 7.96212 84.5625 7.72727C84.2746 7.49053 84.053 7.14867 83.8977 6.7017C83.7443 6.25473 83.6676 5.7178 83.6676 5.09091C83.6676 4.46591 83.7443 3.93087 83.8977 3.4858C84.053 3.03883 84.2756 2.69697 84.5653 2.46023C84.857 2.22159 85.2055 2.10227 85.6108 2.10227C86.0161 2.10227 86.3636 2.22159 86.6534 2.46023C86.9451 2.69697 87.1676 3.03883 87.321 3.4858C87.4763 3.93087 87.554 4.46591 87.554 5.09091C87.554 5.7178 87.4763 6.25473 87.321 6.7017C87.1676 7.14867 86.946 7.49053 86.6562 7.72727C86.3684 7.96212 86.0199 8.07955 85.6108 8.07955ZM85.6108 7.60227C86.0597 7.60227 86.41 7.38352 86.6619 6.94602C86.9138 6.50663 87.0398 5.88826 87.0398 5.09091C87.0398 4.56061 86.982 4.10795 86.8665 3.73295C86.7528 3.35606 86.589 3.06818 86.375 2.86932C86.1629 2.67045 85.9081 2.57102 85.6108 2.57102C85.1657 2.57102 84.8163 2.79261 84.5625 3.2358C84.3087 3.67708 84.1818 4.29545 84.1818 5.09091C84.1818 5.62121 84.2386 6.07386 84.3523 6.44886C84.4678 6.82386 84.6316 7.10985 84.8438 7.30682C85.0578 7.50379 85.3134 7.60227 85.6108 7.60227ZM90.517 8.07955C90.108 8.07955 89.7585 7.96212 89.4688 7.72727C89.1809 7.49053 88.9593 7.14867 88.804 6.7017C88.6506 6.25473 88.5739 5.7178 88.5739 5.09091C88.5739 4.46591 88.6506 3.93087 88.804 3.4858C88.9593 3.03883 89.1818 2.69697 89.4716 2.46023C89.7633 2.22159 90.1117 2.10227 90.517 2.10227C90.9223 2.10227 91.2699 2.22159 91.5597 2.46023C91.8513 2.69697 92.0739 3.03883 92.2273 3.4858C92.3826 3.93087 92.4602 4.46591 92.4602 5.09091C92.4602 5.7178 92.3826 6.25473 92.2273 6.7017C92.0739 7.14867 91.8523 7.49053 91.5625 7.72727C91.2746 7.96212 90.9261 8.07955 90.517 8.07955ZM90.517 7.60227C90.9659 7.60227 91.3163 7.38352 91.5682 6.94602C91.8201 6.50663 91.946 5.88826 91.946 5.09091C91.946 4.56061 91.8883 4.10795 91.7727 3.73295C91.6591 3.35606 91.4953 3.06818 91.2812 2.86932C91.0691 2.67045 90.8144 2.57102 90.517 2.57102C90.072 2.57102 89.7225 2.79261 89.4688 3.2358C89.215 3.67708 89.0881 4.29545 89.0881 5.09091C89.0881 5.62121 89.1449 6.07386 89.2585 6.44886C89.3741 6.82386 89.5379 7.10985 89.75 7.30682C89.964 7.50379 90.2197 7.60227 90.517 7.60227ZM96 8H95.4432L97.5597 2.18182H98.1278L100.244 8H99.6875L97.8636 2.87216H97.8239L96 8ZM96.4006 5.76989H99.2869V6.24716H96.4006V5.76989ZM101.241 2.18182H101.855L103.966 7.25H104.017L106.128 2.18182H106.741V8H106.241V3.30398H106.196L104.233 8H103.75L101.787 3.30398H101.741V8H101.241V2.18182ZM113.766 4.85227V5.32955H109.766V4.85227H113.766ZM118.496 8.07955C118.255 8.07765 118.02 8.02936 117.791 7.93466C117.562 7.83807 117.356 7.68371 117.172 7.47159C116.988 7.25758 116.842 6.97538 116.734 6.625C116.626 6.27462 116.572 5.84375 116.572 5.33239C116.572 4.8589 116.614 4.42519 116.697 4.03125C116.781 3.63731 116.906 3.2964 117.072 3.00852C117.239 2.72064 117.447 2.49811 117.697 2.34091C117.947 2.18182 118.24 2.10227 118.575 2.10227C118.89 2.10227 119.167 2.16761 119.408 2.2983C119.648 2.42708 119.843 2.60701 119.993 2.83807C120.143 3.06913 120.236 3.33523 120.274 3.63636H119.751C119.698 3.32955 119.572 3.0767 119.374 2.87784C119.175 2.67898 118.909 2.57955 118.575 2.57955C118.098 2.57955 117.729 2.80114 117.467 3.24432C117.206 3.68561 117.074 4.3125 117.072 5.125H117.109C117.202 4.95265 117.321 4.80398 117.467 4.67898C117.615 4.55208 117.783 4.4536 117.97 4.38352C118.158 4.31155 118.355 4.27557 118.561 4.27557C118.885 4.27557 119.181 4.35795 119.45 4.52273C119.719 4.68561 119.934 4.91004 120.095 5.19602C120.256 5.48011 120.337 5.80492 120.337 6.17045C120.337 6.51705 120.26 6.83617 120.107 7.12784C119.955 7.41951 119.741 7.65152 119.464 7.82386C119.19 7.99621 118.867 8.08144 118.496 8.07955ZM118.496 7.60227C118.75 7.60227 118.976 7.53788 119.175 7.40909C119.375 7.2803 119.534 7.10795 119.649 6.89205C119.765 6.67424 119.822 6.43371 119.822 6.17045C119.822 5.9072 119.765 5.66856 119.649 5.45455C119.534 5.24053 119.375 5.07008 119.175 4.94318C118.976 4.81629 118.75 4.75284 118.496 4.75284C118.303 4.75284 118.123 4.79261 117.956 4.87216C117.789 4.94981 117.644 5.05682 117.521 5.19318C117.4 5.32765 117.307 5.48201 117.243 5.65625C117.18 5.83049 117.157 6.01326 117.172 6.20455C117.193 6.47159 117.262 6.71117 117.379 6.9233C117.499 7.13352 117.654 7.29924 117.845 7.42045C118.038 7.54167 118.255 7.60227 118.496 7.60227ZM121.962 7.12784C121.85 7.12784 121.753 7.08807 121.672 7.00852C121.592 6.92708 121.553 6.83049 121.553 6.71875C121.553 6.60511 121.592 6.50852 121.672 6.42898C121.753 6.34943 121.85 6.30966 121.962 6.30966C122.075 6.30966 122.172 6.34943 122.251 6.42898C122.331 6.50852 122.371 6.60511 122.371 6.71875C122.371 6.79261 122.352 6.8608 122.314 6.9233C122.278 6.9858 122.229 7.03598 122.166 7.07386C122.106 7.10985 122.037 7.12784 121.962 7.12784ZM121.962 4.17614C121.85 4.17614 121.753 4.13636 121.672 4.05682C121.592 3.97538 121.553 3.87879 121.553 3.76705C121.553 3.6553 121.592 3.55966 121.672 3.48011C121.753 3.39867 121.85 3.35795 121.962 3.35795C122.075 3.35795 122.172 3.39867 122.251 3.48011C122.331 3.55966 122.371 3.6553 122.371 3.76705C122.371 3.84091 122.352 3.90909 122.314 3.97159C122.278 4.03409 122.229 4.08428 122.166 4.12216C122.106 4.15814 122.037 4.17614 121.962 4.17614ZM125.494 8.07955C125.085 8.07955 124.735 7.96212 124.445 7.72727C124.157 7.49053 123.936 7.14867 123.781 6.7017C123.627 6.25473 123.55 5.7178 123.55 5.09091C123.55 4.46591 123.627 3.93087 123.781 3.4858C123.936 3.03883 124.158 2.69697 124.448 2.46023C124.74 2.22159 125.088 2.10227 125.494 2.10227C125.899 2.10227 126.246 2.22159 126.536 2.46023C126.828 2.69697 127.05 3.03883 127.204 3.4858C127.359 3.93087 127.437 4.46591 127.437 5.09091C127.437 5.7178 127.359 6.25473 127.204 6.7017C127.05 7.14867 126.829 7.49053 126.539 7.72727C126.251 7.96212 125.903 8.07955 125.494 8.07955ZM125.494 7.60227C125.942 7.60227 126.293 7.38352 126.545 6.94602C126.797 6.50663 126.923 5.88826 126.923 5.09091C126.923 4.56061 126.865 4.10795 126.749 3.73295C126.636 3.35606 126.472 3.06818 126.258 2.86932C126.046 2.67045 125.791 2.57102 125.494 2.57102C125.049 2.57102 124.699 2.79261 124.445 3.2358C124.192 3.67708 124.065 4.29545 124.065 5.09091C124.065 5.62121 124.121 6.07386 124.235 6.44886C124.351 6.82386 124.514 7.10985 124.727 7.30682C124.941 7.50379 125.196 7.60227 125.494 7.60227ZM130.4 8.07955C129.991 8.07955 129.641 7.96212 129.352 7.72727C129.064 7.49053 128.842 7.14867 128.687 6.7017C128.533 6.25473 128.457 5.7178 128.457 5.09091C128.457 4.46591 128.533 3.93087 128.687 3.4858C128.842 3.03883 129.065 2.69697 129.354 2.46023C129.646 2.22159 129.995 2.10227 130.4 2.10227C130.805 2.10227 131.153 2.22159 131.442 2.46023C131.734 2.69697 131.957 3.03883 132.11 3.4858C132.265 3.93087 132.343 4.46591 132.343 5.09091C132.343 5.7178 132.265 6.25473 132.11 6.7017C131.957 7.14867 131.735 7.49053 131.445 7.72727C131.157 7.96212 130.809 8.07955 130.4 8.07955ZM130.4 7.60227C130.849 7.60227 131.199 7.38352 131.451 6.94602C131.703 6.50663 131.829 5.88826 131.829 5.09091C131.829 4.56061 131.771 4.10795 131.656 3.73295C131.542 3.35606 131.378 3.06818 131.164 2.86932C130.952 2.67045 130.697 2.57102 130.4 2.57102C129.955 2.57102 129.605 2.79261 129.352 3.2358C129.098 3.67708 128.971 4.29545 128.971 5.09091C128.971 5.62121 129.028 6.07386 129.141 6.44886C129.257 6.82386 129.421 7.10985 129.633 7.30682C129.847 7.50379 130.103 7.60227 130.4 7.60227ZM135.874 8V2.18182H137.752C138.165 2.18182 138.51 2.26136 138.786 2.42045C139.065 2.57765 139.274 2.79167 139.414 3.0625C139.556 3.33333 139.627 3.63826 139.627 3.97727C139.627 4.31629 139.557 4.62216 139.417 4.89489C139.277 5.16572 139.068 5.38068 138.792 5.53977C138.515 5.69697 138.172 5.77557 137.761 5.77557H136.283V5.2983H137.746C138.051 5.2983 138.304 5.24148 138.505 5.12784C138.706 5.01231 138.855 4.85511 138.954 4.65625C139.054 4.45739 139.104 4.23106 139.104 3.97727C139.104 3.72348 139.054 3.49716 138.954 3.2983C138.855 3.09943 138.705 2.94318 138.502 2.82955C138.301 2.71591 138.047 2.65909 137.738 2.65909H136.406V8H135.874ZM140.874 2.18182H141.488L143.599 7.25H143.65L145.761 2.18182H146.374V8H145.874V3.30398H145.829L143.866 8H143.383L141.42 3.30398H141.374V8H140.874V2.18182ZM3.93182 14.6364C3.89962 14.3125 3.75663 14.0549 3.50284 13.8636C3.24905 13.6723 2.92992 13.5767 2.54545 13.5767C2.27462 13.5767 2.03598 13.6231 1.82955 13.7159C1.625 13.8087 1.46402 13.9375 1.34659 14.1023C1.23106 14.2652 1.1733 14.4508 1.1733 14.6591C1.1733 14.8125 1.20644 14.947 1.27273 15.0625C1.33902 15.178 1.42803 15.2775 1.53977 15.3608C1.65341 15.4422 1.77841 15.5123 1.91477 15.571C2.05303 15.6297 2.19223 15.679 2.33239 15.7188L2.94602 15.8949C3.13163 15.946 3.31723 16.0114 3.50284 16.0909C3.68845 16.1705 3.85795 16.2708 4.01136 16.392C4.16667 16.5114 4.29072 16.6581 4.38352 16.8324C4.47822 17.0047 4.52557 17.2121 4.52557 17.4545C4.52557 17.7652 4.44508 18.0445 4.28409 18.2926C4.12311 18.5407 3.89205 18.7377 3.59091 18.8835C3.28977 19.0275 2.92898 19.0994 2.50852 19.0994C2.11269 19.0994 1.76894 19.0341 1.47727 18.9034C1.18561 18.7708 0.956439 18.5881 0.789773 18.3551C0.623106 18.1222 0.529356 17.8523 0.508523 17.5455H1.05398C1.07292 17.7746 1.14867 17.9687 1.28125 18.1278C1.41383 18.2869 1.58617 18.4081 1.7983 18.4915C2.01042 18.5729 2.24716 18.6136 2.50852 18.6136C2.7983 18.6136 3.05587 18.5653 3.28125 18.4688C3.50852 18.3703 3.68655 18.2339 3.81534 18.0597C3.94602 17.8835 4.01136 17.679 4.01136 17.446C4.01136 17.2491 3.96023 17.0843 3.85795 16.9517C3.75568 16.8172 3.61269 16.7045 3.42898 16.6136C3.24716 16.5227 3.03598 16.4422 2.79545 16.3722L2.09943 16.1676C1.64299 16.0312 1.28883 15.8428 1.03693 15.6023C0.785038 15.3617 0.659091 15.0549 0.659091 14.6818C0.659091 14.3693 0.742424 14.0947 0.909091 13.858C1.07765 13.6193 1.30492 13.4337 1.59091 13.3011C1.87879 13.1667 2.2017 13.0994 2.55966 13.0994C2.9214 13.0994 3.24148 13.1657 3.51989 13.2983C3.7983 13.4309 4.01894 13.6136 4.18182 13.8466C4.34659 14.0777 4.43466 14.3409 4.44602 14.6364H3.93182ZM8.47159 17.3324V14.6364H8.97727V19H8.47159V18.2756H8.43182C8.32955 18.4991 8.16761 18.6856 7.94602 18.8352C7.72443 18.983 7.4536 19.0568 7.13352 19.0568C6.85511 19.0568 6.60795 18.9962 6.39205 18.875C6.17614 18.7519 6.00663 18.572 5.88352 18.3352C5.76042 18.0985 5.69886 17.8078 5.69886 17.4631V14.6364H6.20455V17.4318C6.20455 17.7727 6.30492 18.0473 6.50568 18.2557C6.70644 18.4621 6.96402 18.5653 7.27841 18.5653C7.47538 18.5653 7.66477 18.518 7.84659 18.4233C8.02841 18.3286 8.17803 18.1903 8.29545 18.0085C8.41288 17.8248 8.47159 17.5994 8.47159 17.3324ZM10.8217 16.2727V19H10.3161V14.6364H10.8075V15.321H10.853C10.9553 15.0975 11.1143 14.9186 11.3303 14.7841C11.5481 14.6477 11.817 14.5795 12.1371 14.5795C12.4306 14.5795 12.6882 14.6411 12.9098 14.7642C13.1333 14.8854 13.3066 15.0644 13.4297 15.3011C13.5547 15.5379 13.6172 15.8286 13.6172 16.1733V19H13.1115V16.2045C13.1115 15.8466 13.0111 15.5634 12.8104 15.3551C12.6115 15.1468 12.3445 15.0426 12.0092 15.0426C11.7801 15.0426 11.5765 15.0919 11.3984 15.1903C11.2204 15.2888 11.0793 15.4309 10.9751 15.6165C10.8729 15.8002 10.8217 16.0189 10.8217 16.2727ZM16.5199 19.0909C16.1619 19.0909 15.8485 18.9962 15.5795 18.8068C15.3106 18.6174 15.1004 18.3532 14.9489 18.0142C14.7992 17.6752 14.7244 17.2803 14.7244 16.8295C14.7244 16.3807 14.7992 15.9877 14.9489 15.6506C15.1004 15.3116 15.3116 15.0483 15.5824 14.8608C15.8532 14.6714 16.1686 14.5767 16.5284 14.5767C16.7936 14.5767 17.0142 14.6241 17.1903 14.7188C17.3665 14.8116 17.5076 14.9271 17.6136 15.0653C17.7197 15.2036 17.8021 15.3381 17.8608 15.4688H17.9062V13.1818H18.4148V19H17.9205V18.1903H17.8608C17.8021 18.3229 17.7188 18.4593 17.6108 18.5994C17.5028 18.7377 17.3598 18.8542 17.1818 18.9489C17.0057 19.0436 16.785 19.0909 16.5199 19.0909ZM16.5795 18.6278C16.8617 18.6278 17.1023 18.5511 17.3011 18.3977C17.5 18.2424 17.6515 18.0294 17.7557 17.7585C17.8617 17.4858 17.9148 17.1733 17.9148 16.821C17.9148 16.4725 17.8627 16.1648 17.7585 15.8977C17.6544 15.6288 17.5028 15.4186 17.304 15.267C17.1051 15.1136 16.8636 15.0369 16.5795 15.0369C16.2879 15.0369 16.0417 15.1165 15.8409 15.2756C15.642 15.4328 15.4905 15.6458 15.3864 15.9148C15.2841 16.1837 15.233 16.4858 15.233 16.821C15.233 17.16 15.285 17.4659 15.3892 17.7386C15.4934 18.0114 15.6449 18.2282 15.8438 18.3892C16.0445 18.5483 16.2898 18.6278 16.5795 18.6278ZM21.0739 19.0994C20.8106 19.0994 20.5701 19.0483 20.3523 18.946C20.1345 18.8419 19.9612 18.6922 19.8324 18.4972C19.7036 18.3002 19.6392 18.0616 19.6392 17.7812C19.6392 17.5653 19.6799 17.3835 19.7614 17.2358C19.8428 17.0881 19.9583 16.9669 20.108 16.8722C20.2576 16.7775 20.4347 16.7027 20.6392 16.6477C20.8438 16.5928 21.0691 16.5502 21.3153 16.5199C21.5597 16.4896 21.7661 16.4631 21.9347 16.4403C22.1051 16.4176 22.2348 16.3816 22.3239 16.3324C22.4129 16.2831 22.4574 16.2036 22.4574 16.0938V15.9915C22.4574 15.6941 22.3684 15.4602 22.1903 15.2898C22.0142 15.1174 21.7604 15.0312 21.429 15.0312C21.1146 15.0312 20.858 15.1004 20.6591 15.2386C20.4621 15.3769 20.3239 15.5398 20.2443 15.7273L19.7642 15.554C19.8627 15.3153 19.9991 15.125 20.1733 14.983C20.3475 14.839 20.5426 14.7358 20.7585 14.6733C20.9744 14.6089 21.1932 14.5767 21.4148 14.5767C21.5814 14.5767 21.7547 14.5985 21.9347 14.642C22.1165 14.6856 22.285 14.7614 22.4403 14.8693C22.5956 14.9754 22.7216 15.1241 22.8182 15.3153C22.9148 15.5047 22.9631 15.7453 22.9631 16.0369V19H22.4574V18.3097H22.4261C22.3655 18.4384 22.2756 18.5634 22.1562 18.6847C22.0369 18.8059 21.8873 18.9053 21.7074 18.983C21.5275 19.0606 21.3163 19.0994 21.0739 19.0994ZM21.142 18.6364C21.411 18.6364 21.6439 18.5767 21.8409 18.4574C22.0379 18.3381 22.1894 18.1799 22.2955 17.983C22.4034 17.7841 22.4574 17.5653 22.4574 17.3267V16.696C22.4195 16.732 22.3561 16.7642 22.267 16.7926C22.1799 16.821 22.0786 16.8466 21.9631 16.8693C21.8494 16.8902 21.7358 16.9081 21.6222 16.9233C21.5085 16.9384 21.4062 16.9517 21.3153 16.9631C21.0691 16.9934 20.8589 17.0407 20.6847 17.1051C20.5104 17.1695 20.3769 17.2585 20.2841 17.3722C20.1913 17.4839 20.1449 17.6278 20.1449 17.804C20.1449 18.0691 20.2396 18.2746 20.429 18.4205C20.6184 18.5644 20.8561 18.6364 21.142 18.6364ZM24.5043 20.6364C24.4039 20.6364 24.3101 20.6269 24.223 20.608C24.1359 20.589 24.0668 20.5682 24.0156 20.5455L24.152 20.0994C24.3243 20.1525 24.4777 20.1714 24.6122 20.1562C24.7467 20.143 24.866 20.0824 24.9702 19.9744C25.0743 19.8684 25.1671 19.7055 25.2486 19.4858L25.4077 19.0426L23.8026 14.6364H24.3509L25.6463 18.3324H25.6861L26.9815 14.6364H27.5298L25.6832 19.6903C25.6056 19.9006 25.5099 20.0758 25.3963 20.2159C25.2827 20.358 25.151 20.4631 25.0014 20.5312C24.8537 20.6013 24.688 20.6364 24.5043 20.6364ZM28.9226 18.8892C28.8108 18.8892 28.7143 18.8494 28.6328 18.7699C28.5533 18.6903 28.5135 18.5937 28.5135 18.4801C28.5135 18.3684 28.5533 18.2727 28.6328 18.1932C28.7143 18.1117 28.8108 18.071 28.9226 18.071C29.0362 18.071 29.1328 18.1117 29.2124 18.1932C29.2919 18.2727 29.3317 18.3684 29.3317 18.4801C29.3317 18.5559 29.3127 18.625 29.2749 18.6875C29.2389 18.7481 29.1896 18.7973 29.1271 18.8352C29.0665 18.8712 28.9983 18.8892 28.9226 18.8892ZM28.9226 15.7415C28.8108 15.7415 28.7143 15.7017 28.6328 15.6222C28.5533 15.5426 28.5135 15.446 28.5135 15.3324C28.5135 15.2206 28.5533 15.125 28.6328 15.0455C28.7143 14.964 28.8108 14.9233 28.9226 14.9233C29.0362 14.9233 29.1328 14.964 29.2124 15.0455C29.2919 15.125 29.3317 15.2206 29.3317 15.3324C29.3317 15.4081 29.3127 15.4773 29.2749 15.5398C29.2389 15.6004 29.1896 15.6496 29.1271 15.6875C29.0665 15.7235 28.9983 15.7415 28.9226 15.7415ZM37.5795 15H37.0455C37.0057 14.8011 36.9337 14.6174 36.8295 14.4489C36.7273 14.2784 36.5985 14.1297 36.4432 14.0028C36.2879 13.8759 36.1117 13.7775 35.9148 13.7074C35.7178 13.6373 35.5047 13.6023 35.2756 13.6023C34.9081 13.6023 34.5729 13.6979 34.2699 13.8892C33.9688 14.0805 33.7273 14.3617 33.5455 14.733C33.3655 15.1023 33.2756 15.5549 33.2756 16.0909C33.2756 16.6307 33.3655 17.0852 33.5455 17.4545C33.7273 17.8239 33.9688 18.1042 34.2699 18.2955C34.5729 18.4848 34.9081 18.5795 35.2756 18.5795C35.5047 18.5795 35.7178 18.5445 35.9148 18.4744C36.1117 18.4044 36.2879 18.3068 36.4432 18.1818C36.5985 18.0549 36.7273 17.9062 36.8295 17.7358C36.9337 17.5653 37.0057 17.3807 37.0455 17.1818H37.5795C37.5322 17.4489 37.4432 17.6979 37.3125 17.929C37.1837 18.1581 37.0189 18.3589 36.8182 18.5312C36.6193 18.7036 36.3902 18.8381 36.1307 18.9347C35.8712 19.0312 35.5862 19.0795 35.2756 19.0795C34.7869 19.0795 34.3532 18.9574 33.9744 18.7131C33.5956 18.4669 33.2983 18.1203 33.0824 17.6733C32.8684 17.2263 32.7614 16.6989 32.7614 16.0909C32.7614 15.483 32.8684 14.9555 33.0824 14.5085C33.2983 14.0616 33.5956 13.7159 33.9744 13.4716C34.3532 13.2254 34.7869 13.1023 35.2756 13.1023C35.5862 13.1023 35.8712 13.1506 36.1307 13.2472C36.3902 13.3419 36.6193 13.4763 36.8182 13.6506C37.0189 13.8229 37.1837 14.0237 37.3125 14.2528C37.4432 14.482 37.5322 14.7311 37.5795 15ZM39.228 13.1818V19H38.7223V13.1818H39.228ZM42.2621 19.0909C41.8852 19.0909 41.5518 18.9953 41.2621 18.804C40.9742 18.6127 40.7488 18.3485 40.5859 18.0114C40.4231 17.6723 40.3416 17.2812 40.3416 16.8381C40.3416 16.3911 40.4231 15.9981 40.5859 15.6591C40.7488 15.3182 40.9742 15.053 41.2621 14.8636C41.5518 14.6723 41.8852 14.5767 42.2621 14.5767C42.639 14.5767 42.9714 14.6723 43.2592 14.8636C43.5471 15.0549 43.7725 15.3201 43.9354 15.6591C44.1001 15.9981 44.1825 16.3911 44.1825 16.8381C44.1825 17.2812 44.1011 17.6723 43.9382 18.0114C43.7753 18.3485 43.549 18.6127 43.2592 18.804C42.9714 18.9953 42.639 19.0909 42.2621 19.0909ZM42.2621 18.6278C42.5651 18.6278 42.8217 18.5464 43.032 18.3835C43.2422 18.2206 43.4013 18.0038 43.5092 17.733C43.6191 17.4621 43.674 17.1638 43.674 16.8381C43.674 16.5123 43.6191 16.2131 43.5092 15.9403C43.4013 15.6676 43.2422 15.4489 43.032 15.2841C42.8217 15.1193 42.5651 15.0369 42.2621 15.0369C41.9609 15.0369 41.7043 15.1193 41.4922 15.2841C41.282 15.4489 41.1219 15.6676 41.0121 15.9403C40.9041 16.2131 40.8501 16.5123 40.8501 16.8381C40.8501 17.1638 40.9041 17.4621 41.0121 17.733C41.1219 18.0038 41.282 18.2206 41.4922 18.3835C41.7024 18.5464 41.959 18.6278 42.2621 18.6278ZM48.2244 15.5938L47.7614 15.7244C47.7159 15.5937 47.6515 15.4754 47.5682 15.3693C47.4848 15.2633 47.3759 15.179 47.2415 15.1165C47.1089 15.054 46.9441 15.0227 46.7472 15.0227C46.4517 15.0227 46.2093 15.0928 46.0199 15.233C45.8305 15.3731 45.7358 15.554 45.7358 15.7756C45.7358 15.9631 45.8002 16.1155 45.929 16.233C46.0597 16.3485 46.2604 16.4403 46.5312 16.5085L47.1903 16.6705C47.5559 16.7595 47.8295 16.9006 48.0114 17.0938C48.1951 17.2869 48.2869 17.5294 48.2869 17.821C48.2869 18.0672 48.2188 18.286 48.0824 18.4773C47.946 18.6686 47.7557 18.8191 47.5114 18.929C47.2689 19.0369 46.9877 19.0909 46.6676 19.0909C46.2415 19.0909 45.8902 18.9953 45.6136 18.804C45.3371 18.6108 45.16 18.3324 45.0824 17.9688L45.5682 17.8494C45.6307 18.1089 45.7528 18.3049 45.9347 18.4375C46.1184 18.5701 46.3598 18.6364 46.6591 18.6364C46.9943 18.6364 47.2623 18.5616 47.4631 18.4119C47.6638 18.2604 47.7642 18.071 47.7642 17.8438C47.7642 17.6676 47.7055 17.5199 47.5881 17.4006C47.4706 17.2794 47.2926 17.1903 47.054 17.1335L46.3409 16.9631C45.9621 16.8722 45.6818 16.7282 45.5 16.5312C45.3182 16.3343 45.2273 16.09 45.2273 15.7983C45.2273 15.5578 45.2926 15.3466 45.4233 15.1648C45.554 14.9811 45.7339 14.8371 45.9631 14.733C46.1922 14.6288 46.4536 14.5767 46.7472 14.5767C47.1468 14.5767 47.4659 14.6676 47.7045 14.8494C47.9451 15.0294 48.1184 15.2775 48.2244 15.5938ZM51.1584 19.0909C50.7512 19.0909 50.3989 18.9962 50.1016 18.8068C49.8042 18.6155 49.5741 18.3513 49.4112 18.0142C49.2502 17.6752 49.1697 17.285 49.1697 16.8438C49.1697 16.4044 49.2502 16.0142 49.4112 15.6733C49.5741 15.3305 49.7985 15.0625 50.0845 14.8693C50.3724 14.6742 50.7048 14.5767 51.0817 14.5767C51.3184 14.5767 51.5466 14.6203 51.7663 14.7074C51.986 14.7926 52.183 14.9242 52.3572 15.1023C52.5334 15.2784 52.6726 15.5009 52.7749 15.7699C52.8771 16.0369 52.9283 16.3532 52.9283 16.7188V16.9688H49.5192V16.5227H52.4112C52.4112 16.2424 52.3544 15.9905 52.2408 15.767C52.129 15.5417 51.9728 15.3636 51.772 15.233C51.5732 15.1023 51.343 15.0369 51.0817 15.0369C50.8052 15.0369 50.5618 15.1108 50.3516 15.2585C50.1413 15.4062 49.9766 15.6013 49.8572 15.8438C49.7398 16.0862 49.6802 16.3513 49.6783 16.6392V16.9062C49.6783 17.2528 49.7379 17.5559 49.8572 17.8153C49.9785 18.0729 50.1499 18.2727 50.3714 18.4148C50.593 18.5568 50.8554 18.6278 51.1584 18.6278C51.3648 18.6278 51.5457 18.5956 51.701 18.5312C51.8582 18.4669 51.9898 18.3807 52.0959 18.2727C52.2038 18.1629 52.2853 18.0426 52.3402 17.9119L52.8203 18.0682C52.754 18.2519 52.6451 18.4214 52.4936 18.5767C52.344 18.732 52.1565 18.857 51.9311 18.9517C51.7076 19.0445 51.45 19.0909 51.1584 19.0909ZM55.6136 19.0909C55.2557 19.0909 54.9422 18.9962 54.6733 18.8068C54.4044 18.6174 54.1941 18.3532 54.0426 18.0142C53.893 17.6752 53.8182 17.2803 53.8182 16.8295C53.8182 16.3807 53.893 15.9877 54.0426 15.6506C54.1941 15.3116 54.4053 15.0483 54.6761 14.8608C54.947 14.6714 55.2623 14.5767 55.6222 14.5767C55.8873 14.5767 56.108 14.6241 56.2841 14.7188C56.4602 14.8116 56.6013 14.9271 56.7074 15.0653C56.8134 15.2036 56.8958 15.3381 56.9545 15.4688H57V13.1818H57.5085V19H57.0142V18.1903H56.9545C56.8958 18.3229 56.8125 18.4593 56.7045 18.5994C56.5966 18.7377 56.4536 18.8542 56.2756 18.9489C56.0994 19.0436 55.8788 19.0909 55.6136 19.0909ZM55.6733 18.6278C55.9555 18.6278 56.196 18.5511 56.3949 18.3977C56.5938 18.2424 56.7453 18.0294 56.8494 17.7585C56.9555 17.4858 57.0085 17.1733 57.0085 16.821C57.0085 16.4725 56.9564 16.1648 56.8523 15.8977C56.7481 15.6288 56.5966 15.4186 56.3977 15.267C56.1989 15.1136 55.9574 15.0369 55.6733 15.0369C55.3816 15.0369 55.1354 15.1165 54.9347 15.2756C54.7358 15.4328 54.5843 15.6458 54.4801 15.9148C54.3778 16.1837 54.3267 16.4858 54.3267 16.821C54.3267 17.16 54.3788 17.4659 54.483 17.7386C54.5871 18.0114 54.7386 18.2282 54.9375 18.3892C55.1383 18.5483 55.3835 18.6278 55.6733 18.6278Z" fill="black"/>
</svg>
