<svg width="14" height="14" viewBox="0 0 14 14" fill="none" xmlns="http://www.w3.org/2000/svg">
<path d="M2.33333 0C1.04467 0 0 1.04467 0 2.33333V11.6667C0 12.9553 1.04467 14 2.33333 14H11.6667C12.9553 14 14 12.9553 14 11.6667V2.33333C14 1.04467 12.9553 0 11.6667 0H2.33333ZM3.02865 3H5.67448L7.55339 5.66992L9.83333 3H10.6667L7.92969 6.20443L11.3047 11H8.65951L6.47917 7.90234L3.83333 11H3L6.10286 7.36784L3.02865 3ZM4.30469 3.66667L9.00716 10.3333H10.0286L5.32617 3.66667H4.30469Z" fill="black"/>
</svg>
