<svg width="18" height="18" viewBox="0 0 18 18" fill="none" xmlns="http://www.w3.org/2000/svg">
<g clip-path="url(#clip0_1163_44)">
<path d="M5.0249 9.0001C5.02791 9.83129 5.132 10.659 5.3349 11.4651H8.5749V6.7251H5.2899C5.11727 7.47122 5.02838 8.23427 5.0249 9.0001Z" fill="#0C2461"/>
<path d="M9.4248 6.7251V11.4651H12.6648C12.8761 10.6601 12.9886 9.83232 12.9998 9.0001C12.998 8.23446 12.9108 7.47141 12.7398 6.7251H9.4248Z" fill="#0C2461"/>
<path d="M9 1C7.41775 1 5.87103 1.46919 4.55544 2.34824C3.23985 3.22729 2.21447 4.47672 1.60897 5.93853C1.00347 7.40034 0.84504 9.00887 1.15372 10.5607C1.4624 12.1126 2.22433 13.538 3.34315 14.6569C4.46197 15.7757 5.88743 16.5376 7.43928 16.8463C8.99113 17.155 10.5997 16.9965 12.0615 16.391C13.5233 15.7855 14.7727 14.7602 15.6518 13.4446C16.5308 12.129 17 10.5823 17 9C17 6.87827 16.1571 4.84344 14.6569 3.34315C13.1566 1.84285 11.1217 1 9 1ZM15.11 12.355H13.3C12.9578 13.4264 12.4518 14.4384 11.8 15.355C11.3188 15.5641 10.8157 15.7184 10.3 15.815C11.2239 14.8113 11.9348 13.6309 12.39 12.345H9.43V15.92H8.585V12.355H5.61C6.06458 13.6427 6.77558 14.8249 7.7 15.83C7.19497 15.7344 6.702 15.5835 6.23 15.38C5.57592 14.4557 5.06985 13.4351 4.73 12.355H2.89C2.73037 12.0636 2.59168 11.7611 2.475 11.45H4.475C4.2876 10.6466 4.19033 9.82491 4.185 9C4.18572 8.23539 4.26615 7.47293 4.425 6.725H2.38C2.48534 6.41481 2.61232 6.1124 2.76 5.82H4.665C5.0228 4.62966 5.57711 3.50752 6.305 2.5C6.76697 2.30917 7.24805 2.16837 7.74 2.08C6.74495 3.14724 5.99423 4.41835 5.54 5.805H8.585V2H9.43V5.82H12.475C12.0216 4.43557 11.2726 3.16626 10.28 2.1C10.7712 2.18191 11.2523 2.316 11.715 2.5C12.4387 3.50024 12.9912 4.61372 13.35 5.795H15.235C15.3827 6.0874 15.5097 6.38981 15.615 6.7H13.585C13.7473 7.45593 13.8294 8.22685 13.83 9C13.8274 9.82974 13.7318 10.6566 13.545 11.465H15.545C15.4212 11.7716 15.2758 12.069 15.11 12.355Z" fill="#0C2461"/>
</g>
<defs>
<clipPath id="clip0_1163_44">
<rect width="18" height="18" fill="white"/>
</clipPath>
</defs>
</svg>
