<svg width="96" height="24" viewBox="0 0 96 24" fill="none" xmlns="http://www.w3.org/2000/svg">
<path d="M1.81534 8L0.150568 2.18182H1.49432L2.45739 6.22443H2.50568L3.56818 2.18182H4.71875L5.77841 6.23295H5.82955L6.79261 2.18182H8.13636L6.47159 8H5.27273L4.16477 4.19602H4.11932L3.0142 8H1.81534ZM10.2919 8.08523C9.84304 8.08523 9.45668 7.99432 9.13281 7.8125C8.81084 7.62879 8.56274 7.36932 8.38849 7.03409C8.21425 6.69697 8.12713 6.2983 8.12713 5.83807C8.12713 5.3892 8.21425 4.99527 8.38849 4.65625C8.56274 4.31723 8.808 4.05303 9.12429 3.86364C9.44247 3.67424 9.81558 3.57955 10.2436 3.57955C10.5315 3.57955 10.7995 3.62595 11.0476 3.71875C11.2976 3.80966 11.5154 3.94697 11.701 4.13068C11.8885 4.31439 12.0343 4.54545 12.1385 4.82386C12.2427 5.10038 12.2947 5.42424 12.2947 5.79545V6.12784H8.61009V5.37784H11.1555C11.1555 5.2036 11.1177 5.04924 11.0419 4.91477C10.9661 4.7803 10.861 4.67519 10.7266 4.59943C10.594 4.52178 10.4396 4.48295 10.2635 4.48295C10.0798 4.48295 9.9169 4.52557 9.77486 4.6108C9.63471 4.69413 9.52486 4.80682 9.44531 4.94886C9.36577 5.08902 9.32505 5.24527 9.32315 5.41761V6.13068C9.32315 6.34659 9.36293 6.53314 9.44247 6.69034C9.52391 6.84754 9.63849 6.96875 9.78622 7.05398C9.93395 7.1392 10.1091 7.18182 10.3118 7.18182C10.4463 7.18182 10.5694 7.16288 10.6811 7.125C10.7929 7.08712 10.8885 7.0303 10.968 6.95455C11.0476 6.87879 11.1082 6.78598 11.1499 6.67614L12.2692 6.75C12.2124 7.01894 12.0959 7.25379 11.9197 7.45455C11.7455 7.65341 11.5201 7.80871 11.2436 7.92045C10.969 8.0303 10.6518 8.08523 10.2919 8.08523ZM13.1072 8V2.18182H14.3175V4.36932H14.3544C14.4074 4.25189 14.4841 4.13258 14.5845 4.01136C14.6868 3.88826 14.8194 3.78598 14.9822 3.70455C15.147 3.62121 15.3516 3.57955 15.5959 3.57955C15.9141 3.57955 16.2076 3.66288 16.4766 3.82955C16.7455 3.99432 16.9605 4.24337 17.1214 4.5767C17.2824 4.90814 17.3629 5.32386 17.3629 5.82386C17.3629 6.31061 17.2843 6.72159 17.1271 7.05682C16.9718 7.39015 16.7597 7.64299 16.4908 7.81534C16.2237 7.9858 15.9245 8.07102 15.593 8.07102C15.3582 8.07102 15.1584 8.0322 14.9936 7.95455C14.8307 7.87689 14.6972 7.77936 14.593 7.66193C14.4889 7.54261 14.4093 7.42235 14.3544 7.30114H14.3004V8H13.1072ZM14.2919 5.81818C14.2919 6.07765 14.3279 6.30398 14.3999 6.49716C14.4718 6.69034 14.576 6.84091 14.7124 6.94886C14.8487 7.05492 15.0144 7.10795 15.2095 7.10795C15.4065 7.10795 15.5732 7.05398 15.7095 6.94602C15.8459 6.83617 15.9491 6.68466 16.0192 6.49148C16.0911 6.2964 16.1271 6.07197 16.1271 5.81818C16.1271 5.56629 16.0921 5.3447 16.022 5.15341C15.9519 4.96212 15.8487 4.8125 15.7124 4.70455C15.576 4.59659 15.4084 4.54261 15.2095 4.54261C15.0125 4.54261 14.8459 4.5947 14.7095 4.69886C14.575 4.80303 14.4718 4.95076 14.3999 5.14205C14.3279 5.33333 14.2919 5.55871 14.2919 5.81818ZM21.8011 4.88068L20.6932 4.94886C20.6742 4.85417 20.6335 4.76894 20.571 4.69318C20.5085 4.61553 20.4261 4.55398 20.3239 4.50852C20.2235 4.46117 20.1032 4.4375 19.9631 4.4375C19.7756 4.4375 19.6174 4.47727 19.4886 4.55682C19.3598 4.63447 19.2955 4.73864 19.2955 4.86932C19.2955 4.97348 19.3371 5.06155 19.4205 5.13352C19.5038 5.20549 19.6468 5.26326 19.8494 5.30682L20.6392 5.46591C21.0634 5.55303 21.3797 5.69318 21.5881 5.88636C21.7964 6.07955 21.9006 6.33333 21.9006 6.64773C21.9006 6.93371 21.8163 7.18466 21.6477 7.40057C21.4811 7.61648 21.2519 7.78504 20.9602 7.90625C20.6705 8.02557 20.3362 8.08523 19.9574 8.08523C19.3797 8.08523 18.9195 7.96496 18.5767 7.72443C18.2358 7.48201 18.036 7.15246 17.9773 6.7358L19.1676 6.6733C19.2036 6.84943 19.2907 6.9839 19.429 7.0767C19.5672 7.16761 19.7443 7.21307 19.9602 7.21307C20.1723 7.21307 20.3428 7.17235 20.4716 7.09091C20.6023 7.00758 20.6686 6.90057 20.6705 6.76989C20.6686 6.66004 20.6222 6.57008 20.5312 6.5C20.4403 6.42803 20.3002 6.37311 20.1108 6.33523L19.3551 6.18466C18.929 6.09943 18.6117 5.9517 18.4034 5.74148C18.197 5.53125 18.0938 5.26326 18.0938 4.9375C18.0938 4.6572 18.1695 4.41572 18.321 4.21307C18.4744 4.01042 18.6894 3.85417 18.9659 3.74432C19.2443 3.63447 19.5701 3.57955 19.9432 3.57955C20.4943 3.57955 20.928 3.69602 21.2443 3.92898C21.5625 4.16193 21.7481 4.47917 21.8011 4.88068ZM22.6626 8V3.63636H23.8729V8H22.6626ZM23.2706 3.07386C23.0907 3.07386 22.9363 3.0142 22.8075 2.89489C22.6806 2.77367 22.6172 2.62879 22.6172 2.46023C22.6172 2.29356 22.6806 2.15057 22.8075 2.03125C22.9363 1.91004 23.0907 1.84943 23.2706 1.84943C23.4505 1.84943 23.6039 1.91004 23.7308 2.03125C23.8596 2.15057 23.924 2.29356 23.924 2.46023C23.924 2.62879 23.8596 2.77367 23.7308 2.89489C23.6039 3.0142 23.4505 3.07386 23.2706 3.07386ZM27.1634 3.63636V4.54545H24.5355V3.63636H27.1634ZM25.1321 2.59091H26.3423V6.65909C26.3423 6.77083 26.3594 6.85795 26.3935 6.92045C26.4276 6.98106 26.4749 7.02367 26.5355 7.0483C26.598 7.07292 26.67 7.08523 26.7514 7.08523C26.8082 7.08523 26.8651 7.08049 26.9219 7.07102C26.9787 7.05966 27.0223 7.05114 27.0526 7.04545L27.2429 7.94602C27.1823 7.96496 27.0971 7.98674 26.9872 8.01136C26.8774 8.03788 26.7438 8.05398 26.5866 8.05966C26.295 8.07102 26.0393 8.0322 25.8196 7.94318C25.6018 7.85417 25.4323 7.71591 25.3111 7.52841C25.1899 7.34091 25.1302 7.10417 25.1321 6.81818V2.59091ZM29.8935 8.08523C29.4446 8.08523 29.0582 7.99432 28.7344 7.8125C28.4124 7.62879 28.1643 7.36932 27.9901 7.03409C27.8158 6.69697 27.7287 6.2983 27.7287 5.83807C27.7287 5.3892 27.8158 4.99527 27.9901 4.65625C28.1643 4.31723 28.4096 4.05303 28.7259 3.86364C29.044 3.67424 29.4171 3.57955 29.8452 3.57955C30.133 3.57955 30.401 3.62595 30.6491 3.71875C30.8991 3.80966 31.117 3.94697 31.3026 4.13068C31.4901 4.31439 31.6359 4.54545 31.7401 4.82386C31.8442 5.10038 31.8963 5.42424 31.8963 5.79545V6.12784H28.2116V5.37784H30.7571C30.7571 5.2036 30.7192 5.04924 30.6435 4.91477C30.5677 4.7803 30.4626 4.67519 30.3281 4.59943C30.1955 4.52178 30.0412 4.48295 29.8651 4.48295C29.6813 4.48295 29.5185 4.52557 29.3764 4.6108C29.2363 4.69413 29.1264 4.80682 29.0469 4.94886C28.9673 5.08902 28.9266 5.24527 28.9247 5.41761V6.13068C28.9247 6.34659 28.9645 6.53314 29.044 6.69034C29.1255 6.84754 29.2401 6.96875 29.3878 7.05398C29.5355 7.1392 29.7107 7.18182 29.9134 7.18182C30.0478 7.18182 30.1709 7.16288 30.2827 7.125C30.3944 7.08712 30.4901 7.0303 30.5696 6.95455C30.6491 6.87879 30.7098 6.78598 30.7514 6.67614L31.8707 6.75C31.8139 7.01894 31.6974 7.25379 31.5213 7.45455C31.3471 7.65341 31.1217 7.80871 30.8452 7.92045C30.5705 8.0303 30.2533 8.08523 29.8935 8.08523ZM35.245 8.07386C35.0575 8.07386 34.8965 8.00758 34.7621 7.875C34.6295 7.74053 34.5632 7.57955 34.5632 7.39205C34.5632 7.20644 34.6295 7.04735 34.7621 6.91477C34.8965 6.7822 35.0575 6.71591 35.245 6.71591C35.4268 6.71591 35.5859 6.7822 35.7223 6.91477C35.8587 7.04735 35.9268 7.20644 35.9268 7.39205C35.9268 7.51705 35.8946 7.63163 35.8303 7.7358C35.7678 7.83807 35.6854 7.92045 35.5831 7.98295C35.4808 8.04356 35.3681 8.07386 35.245 8.07386ZM35.245 5.01705C35.0575 5.01705 34.8965 4.95076 34.7621 4.81818C34.6295 4.68561 34.5632 4.52462 34.5632 4.33523C34.5632 4.14962 34.6295 3.99148 34.7621 3.8608C34.8965 3.72822 35.0575 3.66193 35.245 3.66193C35.4268 3.66193 35.5859 3.72822 35.7223 3.8608C35.8587 3.99148 35.9268 4.14962 35.9268 4.33523C35.9268 4.46212 35.8946 4.57765 35.8303 4.68182C35.7678 4.78409 35.6854 4.86553 35.5831 4.92614C35.4808 4.98674 35.3681 5.01705 35.245 5.01705Z" fill="#0C2461"/>
<path d="M2.47181 20.5L1.15363 16.1364H1.68772L2.72181 19.7358H2.75874L3.78999 16.1364H4.32693L5.34965 19.7273H5.38943L6.42352 16.1364H6.95761L5.63943 20.5H5.1167L4.08261 16.9233H4.02863L2.99454 20.5H2.47181ZM8.90931 20.5L7.59113 16.1364H8.12522L9.15931 19.7358H9.19624L10.2275 16.1364H10.7644L11.7872 19.7273H11.8269L12.861 16.1364H13.3951L12.0769 20.5H11.5542L10.5201 16.9233H10.4661L9.43204 20.5H8.90931ZM15.3468 20.5L14.0286 16.1364H14.5627L15.5968 19.7358H15.6337L16.665 16.1364H17.2019L18.2247 19.7273H18.2644L19.2985 16.1364H19.8326L18.5144 20.5H17.9917L16.9576 16.9233H16.9036L15.8695 20.5H15.3468ZM20.6252 20.5426C20.5135 20.5426 20.4169 20.5028 20.3354 20.4233C20.2559 20.3419 20.2161 20.2453 20.2161 20.1335C20.2161 20.0199 20.2559 19.9233 20.3354 19.8438C20.4169 19.7642 20.5135 19.7244 20.6252 19.7244C20.7389 19.7244 20.8354 19.7642 20.915 19.8438C20.9945 19.9233 21.0343 20.0199 21.0343 20.1335C21.0343 20.2074 21.0154 20.2756 20.9775 20.3381C20.9415 20.4006 20.8923 20.4508 20.8298 20.4886C20.7692 20.5246 20.701 20.5426 20.6252 20.5426ZM22.3703 20.5V16.1364H22.8617V16.8068H22.8987C22.9858 16.5871 23.1373 16.41 23.3532 16.2756C23.571 16.1392 23.8172 16.071 24.0918 16.071C24.1335 16.071 24.1799 16.072 24.231 16.0739C24.2822 16.0758 24.3248 16.0777 24.3589 16.0795V16.5938C24.3362 16.59 24.2964 16.5843 24.2396 16.5767C24.1828 16.5691 24.1212 16.5653 24.0549 16.5653C23.8276 16.5653 23.625 16.6136 23.447 16.7102C23.2708 16.8049 23.1316 16.9366 23.0293 17.1051C22.9271 17.2737 22.8759 17.4659 22.8759 17.6818V20.5H22.3703ZM25.682 18.8523L25.6764 18.1903H25.79L27.8354 16.1364H28.4747L26.4548 18.1591L26.4093 18.1676L25.682 18.8523ZM25.2218 20.5V14.6818H25.7275V20.5H25.2218ZM27.9406 20.5L26.1678 18.2585L26.5315 17.9091L28.5883 20.5H27.9406ZM29.4249 22.1364V16.1364H29.9164V16.9688H29.9761C30.0367 16.8381 30.12 16.7045 30.2261 16.5682C30.3321 16.4299 30.4723 16.3134 30.6465 16.2188C30.8227 16.1241 31.0443 16.0767 31.3113 16.0767C31.6711 16.0767 31.9855 16.1714 32.2545 16.3608C32.5253 16.5483 32.7355 16.8116 32.8852 17.1506C33.0367 17.4877 33.1124 17.8807 33.1124 18.3295C33.1124 18.7803 33.0367 19.1752 32.8852 19.5142C32.7355 19.8532 32.5253 20.1174 32.2545 20.3068C31.9855 20.4962 31.673 20.5909 31.317 20.5909C31.0537 20.5909 30.8331 20.5436 30.6551 20.4489C30.4789 20.3542 30.3359 20.2377 30.2261 20.0994C30.1181 19.9593 30.0348 19.8229 29.9761 19.6903H29.9306V22.1364H29.4249ZM29.9249 18.321C29.9249 18.6733 29.977 18.9858 30.0812 19.2585C30.1872 19.5294 30.3388 19.7424 30.5357 19.8977C30.7346 20.0511 30.9751 20.1278 31.2573 20.1278C31.5471 20.1278 31.7914 20.0483 31.9903 19.8892C32.191 19.7282 32.3435 19.5114 32.4477 19.2386C32.5537 18.9659 32.6068 18.66 32.6068 18.321C32.6068 17.9858 32.5547 17.6837 32.4505 17.4148C32.3482 17.1458 32.1967 16.9328 31.996 16.7756C31.7952 16.6165 31.549 16.5369 31.2573 16.5369C30.9732 16.5369 30.7318 16.6136 30.5329 16.767C30.334 16.9186 30.1825 17.1288 30.0783 17.3977C29.9761 17.6648 29.9249 17.9725 29.9249 18.321ZM35.9178 20.5909C35.5409 20.5909 35.2076 20.4953 34.9178 20.304C34.63 20.1127 34.4046 19.8485 34.2417 19.5114C34.0788 19.1723 33.9974 18.7812 33.9974 18.3381C33.9974 17.8911 34.0788 17.4981 34.2417 17.1591C34.4046 16.8182 34.63 16.553 34.9178 16.3636C35.2076 16.1723 35.5409 16.0767 35.9178 16.0767C36.2947 16.0767 36.6271 16.1723 36.915 16.3636C37.2029 16.5549 37.4283 16.8201 37.5911 17.1591C37.7559 17.4981 37.8383 17.8911 37.8383 18.3381C37.8383 18.7812 37.7569 19.1723 37.594 19.5114C37.4311 19.8485 37.2048 20.1127 36.915 20.304C36.6271 20.4953 36.2947 20.5909 35.9178 20.5909ZM35.9178 20.1278C36.2209 20.1278 36.4775 20.0464 36.6877 19.8835C36.8979 19.7206 37.057 19.5038 37.165 19.233C37.2748 18.9621 37.3298 18.6638 37.3298 18.3381C37.3298 18.0123 37.2748 17.7131 37.165 17.4403C37.057 17.1676 36.8979 16.9489 36.6877 16.7841C36.4775 16.6193 36.2209 16.5369 35.9178 16.5369C35.6167 16.5369 35.3601 16.6193 35.1479 16.7841C34.9377 16.9489 34.7777 17.1676 34.6678 17.4403C34.5599 17.7131 34.5059 18.0123 34.5059 18.3381C34.5059 18.6638 34.5599 18.9621 34.6678 19.233C34.7777 19.5038 34.9377 19.7206 35.1479 19.8835C35.3582 20.0464 35.6148 20.1278 35.9178 20.1278ZM39.4541 14.6818V20.5H38.9484V14.6818H39.4541ZM41.1444 22.1364C41.044 22.1364 40.9503 22.1269 40.8631 22.108C40.776 22.089 40.7069 22.0682 40.6558 22.0455L40.7921 21.5994C40.9645 21.6525 41.1179 21.6714 41.2524 21.6562C41.3868 21.643 41.5061 21.5824 41.6103 21.4744C41.7145 21.3684 41.8073 21.2055 41.8887 20.9858L42.0478 20.5426L40.4427 16.1364H40.991L42.2864 19.8324H42.3262L43.6217 16.1364H44.17L42.3234 21.1903C42.2457 21.4006 42.1501 21.5758 42.0364 21.7159C41.9228 21.858 41.7912 21.9631 41.6416 22.0312C41.4938 22.1013 41.3281 22.1364 41.1444 22.1364ZM45.1593 22.1364V16.1364H45.6508V16.9688H45.7104C45.7711 16.8381 45.8544 16.7045 45.9604 16.5682C46.0665 16.4299 46.2067 16.3134 46.3809 16.2188C46.557 16.1241 46.7786 16.0767 47.0457 16.0767C47.4055 16.0767 47.7199 16.1714 47.9889 16.3608C48.2597 16.5483 48.4699 16.8116 48.6195 17.1506C48.7711 17.4877 48.8468 17.8807 48.8468 18.3295C48.8468 18.7803 48.7711 19.1752 48.6195 19.5142C48.4699 19.8532 48.2597 20.1174 47.9889 20.3068C47.7199 20.4962 47.4074 20.5909 47.0514 20.5909C46.7881 20.5909 46.5675 20.5436 46.3894 20.4489C46.2133 20.3542 46.0703 20.2377 45.9604 20.0994C45.8525 19.9593 45.7692 19.8229 45.7104 19.6903H45.665V22.1364H45.1593ZM45.6593 18.321C45.6593 18.6733 45.7114 18.9858 45.8156 19.2585C45.9216 19.5294 46.0731 19.7424 46.2701 19.8977C46.469 20.0511 46.7095 20.1278 46.9917 20.1278C47.2815 20.1278 47.5258 20.0483 47.7247 19.8892C47.9254 19.7282 48.0779 19.5114 48.182 19.2386C48.2881 18.9659 48.3411 18.66 48.3411 18.321C48.3411 17.9858 48.289 17.6837 48.1849 17.4148C48.0826 17.1458 47.9311 16.9328 47.7303 16.7756C47.5296 16.6165 47.2834 16.5369 46.9917 16.5369C46.7076 16.5369 46.4661 16.6136 46.2673 16.767C46.0684 16.9186 45.9169 17.1288 45.8127 17.3977C45.7104 17.6648 45.6593 17.9725 45.6593 18.321ZM49.9562 20.5V16.1364H50.4477V16.8068H50.4846C50.5717 16.5871 50.7232 16.41 50.9391 16.2756C51.1569 16.1392 51.4032 16.071 51.6778 16.071C51.7194 16.071 51.7658 16.072 51.817 16.0739C51.8681 16.0758 51.9107 16.0777 51.9448 16.0795V16.5938C51.9221 16.59 51.8823 16.5843 51.8255 16.5767C51.7687 16.5691 51.7071 16.5653 51.6408 16.5653C51.4136 16.5653 51.2109 16.6136 51.0329 16.7102C50.8568 16.8049 50.7176 16.9366 50.6153 17.1051C50.513 17.2737 50.4619 17.4659 50.4619 17.6818V20.5H49.9562ZM54.371 20.5909C53.9941 20.5909 53.6607 20.4953 53.371 20.304C53.0831 20.1127 52.8577 19.8485 52.6948 19.5114C52.5319 19.1723 52.4505 18.7812 52.4505 18.3381C52.4505 17.8911 52.5319 17.4981 52.6948 17.1591C52.8577 16.8182 53.0831 16.553 53.371 16.3636C53.6607 16.1723 53.9941 16.0767 54.371 16.0767C54.7479 16.0767 55.0802 16.1723 55.3681 16.3636C55.656 16.5549 55.8814 16.8201 56.0443 17.1591C56.209 17.4981 56.2914 17.8911 56.2914 18.3381C56.2914 18.7812 56.21 19.1723 56.0471 19.5114C55.8842 19.8485 55.6579 20.1127 55.3681 20.304C55.0802 20.4953 54.7479 20.5909 54.371 20.5909ZM54.371 20.1278C54.674 20.1278 54.9306 20.0464 55.1408 19.8835C55.3511 19.7206 55.5102 19.5038 55.6181 19.233C55.728 18.9621 55.7829 18.6638 55.7829 18.3381C55.7829 18.0123 55.728 17.7131 55.6181 17.4403C55.5102 17.1676 55.3511 16.9489 55.1408 16.7841C54.9306 16.6193 54.674 16.5369 54.371 16.5369C54.0698 16.5369 53.8132 16.6193 53.6011 16.7841C53.3908 16.9489 53.2308 17.1676 53.121 17.4403C53.013 17.7131 52.959 18.0123 52.959 18.3381C52.959 18.6638 53.013 18.9621 53.121 19.233C53.2308 19.5038 53.3908 19.7206 53.6011 19.8835C53.8113 20.0464 54.0679 20.1278 54.371 20.1278ZM58.9725 20.5909C58.6146 20.5909 58.3011 20.4962 58.0322 20.3068C57.7632 20.1174 57.553 19.8532 57.4015 19.5142C57.2519 19.1752 57.1771 18.7803 57.1771 18.3295C57.1771 17.8807 57.2519 17.4877 57.4015 17.1506C57.553 16.8116 57.7642 16.5483 58.035 16.3608C58.3059 16.1714 58.6212 16.0767 58.981 16.0767C59.2462 16.0767 59.4668 16.1241 59.643 16.2188C59.8191 16.3116 59.9602 16.4271 60.0663 16.5653C60.1723 16.7036 60.2547 16.8381 60.3134 16.9688H60.3589V14.6818H60.8674V20.5H60.3731V19.6903H60.3134C60.2547 19.8229 60.1714 19.9593 60.0634 20.0994C59.9555 20.2377 59.8125 20.3542 59.6345 20.4489C59.4583 20.5436 59.2377 20.5909 58.9725 20.5909ZM59.0322 20.1278C59.3144 20.1278 59.5549 20.0511 59.7538 19.8977C59.9526 19.7424 60.1042 19.5294 60.2083 19.2585C60.3144 18.9858 60.3674 18.6733 60.3674 18.321C60.3674 17.9725 60.3153 17.6648 60.2112 17.3977C60.107 17.1288 59.9555 16.9186 59.7566 16.767C59.5578 16.6136 59.3163 16.5369 59.0322 16.5369C58.7405 16.5369 58.4943 16.6165 58.2935 16.7756C58.0947 16.9328 57.9432 17.1458 57.839 17.4148C57.7367 17.6837 57.6856 17.9858 57.6856 18.321C57.6856 18.66 57.7377 18.9659 57.8418 19.2386C57.946 19.5114 58.0975 19.7282 58.2964 19.8892C58.4971 20.0483 58.7424 20.1278 59.0322 20.1278ZM65.0805 18.8324V16.1364H65.5862V20.5H65.0805V19.7756H65.0407C64.9384 19.9991 64.7765 20.1856 64.5549 20.3352C64.3333 20.483 64.0625 20.5568 63.7424 20.5568C63.464 20.5568 63.2168 20.4962 63.0009 20.375C62.785 20.2519 62.6155 20.072 62.4924 19.8352C62.3693 19.5985 62.3078 19.3078 62.3078 18.9631V16.1364H62.8134V18.9318C62.8134 19.2727 62.9138 19.5473 63.1146 19.7557C63.3153 19.9621 63.5729 20.0653 63.8873 20.0653C64.0843 20.0653 64.2737 20.018 64.4555 19.9233C64.6373 19.8286 64.7869 19.6903 64.9043 19.5085C65.0218 19.3248 65.0805 19.0994 65.0805 18.8324ZM68.6295 20.5909C68.2393 20.5909 67.8994 20.4934 67.6096 20.2983C67.3217 20.1032 67.0982 19.8362 66.9391 19.4972C66.7801 19.1581 66.7005 18.7718 66.7005 18.3381C66.7005 17.9006 66.781 17.5114 66.942 17.1705C67.1049 16.8295 67.3302 16.5625 67.6181 16.3693C67.906 16.1742 68.2403 16.0767 68.621 16.0767C68.9126 16.0767 69.1768 16.1335 69.4136 16.2472C69.6503 16.3589 69.8454 16.517 69.9988 16.7216C70.1541 16.9242 70.2516 17.161 70.2914 17.4318H69.7801C69.727 17.1856 69.5992 16.9754 69.3965 16.8011C69.1958 16.625 68.9401 16.5369 68.6295 16.5369C68.3511 16.5369 68.1049 16.6127 67.8908 16.7642C67.6768 16.9138 67.5092 17.1231 67.388 17.392C67.2687 17.6591 67.209 17.9687 67.209 18.321C67.209 18.6752 67.2677 18.9886 67.3852 19.2614C67.5026 19.5322 67.6674 19.7443 67.8795 19.8977C68.0935 20.0511 68.3435 20.1278 68.6295 20.1278C68.8227 20.1278 68.9988 20.0919 69.1579 20.0199C69.3189 19.946 69.4533 19.8419 69.5613 19.7074C69.6712 19.5729 69.745 19.4129 69.7829 19.2273H70.2943C70.2564 19.4905 70.1626 19.7254 70.013 19.9318C69.8653 20.1364 69.673 20.2973 69.4363 20.4148C69.2015 20.5322 68.9325 20.5909 68.6295 20.5909ZM73.0968 16.1364V16.5767H71.0144V16.1364H73.0968ZM71.665 15.0909H72.1735V19.3608C72.1735 19.5426 72.2048 19.6856 72.2673 19.7898C72.3298 19.892 72.4112 19.965 72.5116 20.0085C72.612 20.0502 72.719 20.071 72.8326 20.071C72.8989 20.071 72.9557 20.0672 73.0031 20.0597C73.0504 20.0502 73.0921 20.0407 73.1281 20.0312L73.236 20.4886C73.1868 20.5076 73.1262 20.5246 73.0542 20.5398C72.9822 20.5568 72.8932 20.5653 72.7872 20.5653C72.6015 20.5653 72.4226 20.5246 72.2502 20.4432C72.0798 20.3617 71.9396 20.2405 71.8298 20.0795C71.7199 19.9186 71.665 19.7188 71.665 19.4801V15.0909ZM77.0989 17.0938L76.6359 17.2244C76.5904 17.0937 76.526 16.9754 76.4427 16.8693C76.3594 16.7633 76.2505 16.679 76.116 16.6165C75.9834 16.554 75.8186 16.5227 75.6217 16.5227C75.3262 16.5227 75.0838 16.5928 74.8944 16.733C74.705 16.8731 74.6103 17.054 74.6103 17.2756C74.6103 17.4631 74.6747 17.6155 74.8035 17.733C74.9342 17.8485 75.1349 17.9403 75.4058 18.0085L76.0649 18.1705C76.4304 18.2595 76.7041 18.4006 76.8859 18.5938C77.0696 18.7869 77.1614 19.0294 77.1614 19.321C77.1614 19.5672 77.0933 19.786 76.9569 19.9773C76.8205 20.1686 76.6302 20.3191 76.3859 20.429C76.1435 20.5369 75.8622 20.5909 75.5421 20.5909C75.116 20.5909 74.7647 20.4953 74.4881 20.304C74.2116 20.1108 74.0345 19.8324 73.9569 19.4688L74.4427 19.3494C74.5052 19.6089 74.6274 19.8049 74.8092 19.9375C74.9929 20.0701 75.2344 20.1364 75.5336 20.1364C75.8688 20.1364 76.1368 20.0616 76.3376 19.9119C76.5383 19.7604 76.6387 19.571 76.6387 19.3438C76.6387 19.1676 76.58 19.0199 76.4626 18.9006C76.3452 18.7794 76.1671 18.6903 75.9285 18.6335L75.2154 18.4631C74.8366 18.3722 74.5563 18.2282 74.3745 18.0312C74.1927 17.8343 74.1018 17.59 74.1018 17.2983C74.1018 17.0578 74.1671 16.8466 74.2978 16.6648C74.4285 16.4811 74.6084 16.3371 74.8376 16.233C75.0667 16.1288 75.3281 16.0767 75.6217 16.0767C76.0213 16.0767 76.3404 16.1676 76.5791 16.3494C76.8196 16.5294 76.9929 16.7775 77.0989 17.0938ZM78.6721 20.5426C78.5604 20.5426 78.4638 20.5028 78.3823 20.4233C78.3028 20.3419 78.263 20.2453 78.263 20.1335C78.263 20.0199 78.3028 19.9233 78.3823 19.8438C78.4638 19.7642 78.5604 19.7244 78.6721 19.7244C78.7857 19.7244 78.8823 19.7642 78.9619 19.8438C79.0414 19.9233 79.0812 20.0199 79.0812 20.1335C79.0812 20.2074 79.0622 20.2756 79.0244 20.3381C78.9884 20.4006 78.9391 20.4508 78.8766 20.4886C78.816 20.5246 78.7479 20.5426 78.6721 20.5426ZM82.1217 20.5909C81.7315 20.5909 81.3916 20.4934 81.1018 20.2983C80.8139 20.1032 80.5904 19.8362 80.4313 19.4972C80.2722 19.1581 80.1927 18.7718 80.1927 18.3381C80.1927 17.9006 80.2732 17.5114 80.4342 17.1705C80.597 16.8295 80.8224 16.5625 81.1103 16.3693C81.3982 16.1742 81.7325 16.0767 82.1131 16.0767C82.4048 16.0767 82.669 16.1335 82.9058 16.2472C83.1425 16.3589 83.3376 16.517 83.491 16.7216C83.6463 16.9242 83.7438 17.161 83.7836 17.4318H83.2722C83.2192 17.1856 83.0914 16.9754 82.8887 16.8011C82.688 16.625 82.4323 16.5369 82.1217 16.5369C81.8433 16.5369 81.597 16.6127 81.383 16.7642C81.169 16.9138 81.0014 17.1231 80.8802 17.392C80.7609 17.6591 80.7012 17.9687 80.7012 18.321C80.7012 18.6752 80.7599 18.9886 80.8774 19.2614C80.9948 19.5322 81.1595 19.7443 81.3717 19.8977C81.5857 20.0511 81.8357 20.1278 82.1217 20.1278C82.3149 20.1278 82.491 20.0919 82.6501 20.0199C82.8111 19.946 82.9455 19.8419 83.0535 19.7074C83.1633 19.5729 83.2372 19.4129 83.2751 19.2273H83.7864C83.7486 19.4905 83.6548 19.7254 83.5052 19.9318C83.3575 20.1364 83.1652 20.2973 82.9285 20.4148C82.6936 20.5322 82.4247 20.5909 82.1217 20.5909ZM86.5663 20.5909C86.1894 20.5909 85.856 20.4953 85.5663 20.304C85.2784 20.1127 85.053 19.8485 84.8901 19.5114C84.7273 19.1723 84.6458 18.7812 84.6458 18.3381C84.6458 17.8911 84.7273 17.4981 84.8901 17.1591C85.053 16.8182 85.2784 16.553 85.5663 16.3636C85.856 16.1723 86.1894 16.0767 86.5663 16.0767C86.9432 16.0767 87.2756 16.1723 87.5634 16.3636C87.8513 16.5549 88.0767 16.8201 88.2396 17.1591C88.4043 17.4981 88.4867 17.8911 88.4867 18.3381C88.4867 18.7812 88.4053 19.1723 88.2424 19.5114C88.0795 19.8485 87.8532 20.1127 87.5634 20.304C87.2756 20.4953 86.9432 20.5909 86.5663 20.5909ZM86.5663 20.1278C86.8693 20.1278 87.1259 20.0464 87.3362 19.8835C87.5464 19.7206 87.7055 19.5038 87.8134 19.233C87.9233 18.9621 87.9782 18.6638 87.9782 18.3381C87.9782 18.0123 87.9233 17.7131 87.8134 17.4403C87.7055 17.1676 87.5464 16.9489 87.3362 16.7841C87.1259 16.6193 86.8693 16.5369 86.5663 16.5369C86.2651 16.5369 86.0085 16.6193 85.7964 16.7841C85.5862 16.9489 85.4261 17.1676 85.3163 17.4403C85.2083 17.7131 85.1543 18.0123 85.1543 18.3381C85.1543 18.6638 85.2083 18.9621 85.3163 19.233C85.4261 19.5038 85.5862 19.7206 85.7964 19.8835C86.0066 20.0464 86.2632 20.1278 86.5663 20.1278ZM89.5968 20.5V16.1364H90.0883V16.8068H90.1337C90.2209 16.5814 90.3658 16.4044 90.5684 16.2756C90.7729 16.1449 91.0182 16.0795 91.3042 16.0795C91.6053 16.0795 91.8525 16.1506 92.0457 16.2926C92.2408 16.4328 92.3866 16.6259 92.4832 16.8722H92.5201C92.6186 16.6297 92.7786 16.4375 93.0002 16.2955C93.2237 16.1515 93.4945 16.0795 93.8127 16.0795C94.218 16.0795 94.5381 16.2074 94.7729 16.4631C95.0078 16.7169 95.1252 17.0881 95.1252 17.5767V20.5H94.6195V17.5767C94.6195 17.232 94.5315 16.9735 94.3553 16.8011C94.1792 16.6288 93.9472 16.5426 93.6593 16.5426C93.326 16.5426 93.0694 16.6449 92.8894 16.8494C92.7095 17.054 92.6195 17.3134 92.6195 17.6278V20.5H92.1025V17.5312C92.1025 17.2358 92.0201 16.9972 91.8553 16.8153C91.6906 16.6335 91.4586 16.5426 91.1593 16.5426C90.9586 16.5426 90.7777 16.5919 90.6167 16.6903C90.4576 16.7888 90.3317 16.9261 90.2389 17.1023C90.1479 17.2765 90.1025 17.4773 90.1025 17.7045V20.5H89.5968Z" fill="black"/>
</svg>
