<svg width="462" height="39" viewBox="0 0 462 39" fill="none" xmlns="http://www.w3.org/2000/svg">
<g filter="url(#filter0_d_1177_3861)">
<path d="M6.26342 31.9111L12.2995 8.48699H4.7201V4.1314H17.8897V8.07544L11.8537 31.9111H6.26342ZM28.537 32.4256C26.5021 32.4256 24.9588 32.0712 23.9071 31.3624C22.8782 30.6308 22.1809 29.6133 21.815 28.3101C21.4492 27.0068 21.2663 25.4978 21.2663 23.783H26.7879C26.7879 24.8347 26.8451 25.6921 26.9594 26.3552C27.0737 27.0182 27.2795 27.4984 27.5768 27.7956C27.8968 28.07 28.3427 28.1957 28.9143 28.1729C29.5088 28.15 29.9317 27.9099 30.1832 27.4527C30.4347 26.9954 30.5834 26.3438 30.6291 25.4978C30.6977 24.629 30.732 23.5886 30.732 22.3769C30.732 21.4623 30.6748 20.6506 30.5605 19.9418C30.469 19.2331 30.2633 18.6729 29.9432 18.2613C29.6459 17.8269 29.1887 17.6097 28.5713 17.6097C27.9997 17.6097 27.531 17.8155 27.1652 18.227C26.7994 18.6386 26.5364 19.2788 26.3764 20.1476H21.4378L21.9522 4.1314H34.9161V8.93284H26.5479L26.2392 14.6603C26.4678 14.3402 26.9023 14.0658 27.5425 13.8372C28.1826 13.5857 28.8686 13.4256 29.6002 13.357C31.0178 13.197 32.2067 13.4599 33.167 14.1458C34.1501 14.8089 34.8818 15.8263 35.3619 17.1982C35.8649 18.57 36.1164 20.2505 36.1164 22.2397C36.1164 23.7258 36.025 25.0977 35.8421 26.3552C35.6592 27.5898 35.3048 28.6644 34.7789 29.579C34.253 30.4707 33.4871 31.1681 32.4811 31.6711C31.4751 32.1741 30.1604 32.4256 28.537 32.4256ZM47.3583 32.4256C45.6892 32.4256 44.2945 32.094 43.1742 31.431C42.0538 30.7451 41.2079 29.8076 40.6363 28.6187C40.0647 27.4298 39.7789 26.0465 39.7789 24.4689V11.8823C39.7789 10.2589 40.0418 8.84138 40.5677 7.62959C41.1164 6.39494 41.951 5.43465 43.0713 4.74873C44.1916 4.06281 45.6206 3.71985 47.3583 3.71985C49.096 3.71985 50.5135 4.06281 51.611 4.74873C52.7313 5.43465 53.5544 6.39494 54.0803 7.62959C54.629 8.84138 54.9034 10.2589 54.9034 11.8823V24.4689C54.9034 26.0237 54.6176 27.4069 54.046 28.6187C53.4744 29.8076 52.6284 30.7451 51.5081 31.431C50.3878 32.094 49.0045 32.4256 47.3583 32.4256ZM47.3583 27.3155C47.907 27.3155 48.2957 27.144 48.5244 26.801C48.7759 26.4352 48.9245 26.0237 48.9702 25.5664C49.0388 25.0862 49.0731 24.6747 49.0731 24.3317V12.0195C49.0731 11.6308 49.0502 11.1964 49.0045 10.7162C48.9588 10.2132 48.8102 9.7788 48.5586 9.41298C48.33 9.02429 47.9299 8.82995 47.3583 8.82995C46.7867 8.82995 46.3751 9.02429 46.1236 9.41298C45.895 9.7788 45.7578 10.2132 45.7121 10.7162C45.6664 11.1964 45.6435 11.6308 45.6435 12.0195V24.3317C45.6435 24.6747 45.6778 25.0862 45.7464 25.5664C45.815 26.0237 45.9636 26.4352 46.1922 26.801C46.4437 27.144 46.8324 27.3155 47.3583 27.3155ZM59.4238 31.9111L59.9039 4.1314H66.4887L69.5411 20.2848L72.8335 4.1314H79.1782L79.6584 31.9111H75.3028L74.7884 13.4256L71.5645 31.9111H67.6891L64.2595 13.2884L63.8479 31.9111H59.4238ZM84.3604 31.9111V4.1314H90.4994V27.7613H96.8784V31.9111H84.3604ZM109.713 31.9111V4.1314H117.361C119.235 4.1314 120.859 4.33718 122.231 4.74873C123.603 5.16028 124.666 5.90336 125.42 6.97797C126.198 8.02971 126.586 9.5273 126.586 11.4707C126.586 12.6139 126.495 13.6314 126.312 14.5231C126.129 15.4148 125.786 16.1921 125.283 16.8552C124.803 17.4954 124.106 18.0327 123.191 18.4671L126.998 31.9111H120.653L117.601 19.4617H115.852V31.9111H109.713ZM115.852 15.9292H117.566C118.435 15.9292 119.11 15.7806 119.59 15.4834C120.07 15.1633 120.402 14.7174 120.584 14.1458C120.79 13.5514 120.893 12.8426 120.893 12.0195C120.893 10.8305 120.676 9.90456 120.241 9.2415C119.807 8.57844 119.007 8.24692 117.841 8.24692H115.852V15.9292ZM138.651 32.3227C136.571 32.3227 134.925 31.9569 133.713 31.2252C132.501 30.4936 131.632 29.4418 131.106 28.07C130.58 26.6981 130.318 25.0634 130.318 23.1657V12.8426C130.318 10.922 130.58 9.28723 131.106 7.93825C131.632 6.58928 132.501 5.5604 133.713 4.85162C134.925 4.11997 136.571 3.75415 138.651 3.75415C140.755 3.75415 142.413 4.11997 143.624 4.85162C144.859 5.5604 145.739 6.58928 146.265 7.93825C146.791 9.28723 147.054 10.922 147.054 12.8426V23.1657C147.054 25.0634 146.791 26.6981 146.265 28.07C145.739 29.4418 144.859 30.4936 143.624 31.2252C142.413 31.9569 140.755 32.3227 138.651 32.3227ZM138.651 27.9671C139.292 27.9671 139.76 27.807 140.058 27.487C140.355 27.1669 140.549 26.7553 140.641 26.2523C140.732 25.7493 140.778 25.2349 140.778 24.709V11.3336C140.778 10.7848 140.732 10.2704 140.641 9.79024C140.549 9.28723 140.355 8.87568 140.058 8.55558C139.76 8.23548 139.292 8.07544 138.651 8.07544C138.057 8.07544 137.611 8.23548 137.314 8.55558C137.017 8.87568 136.822 9.28723 136.731 9.79024C136.639 10.2704 136.594 10.7848 136.594 11.3336V24.709C136.594 25.2349 136.628 25.7493 136.697 26.2523C136.788 26.7553 136.971 27.1669 137.245 27.487C137.543 27.807 138.011 27.9671 138.651 27.9671ZM159.501 32.3227C157.375 32.3227 155.706 31.9797 154.494 31.2938C153.305 30.585 152.471 29.5676 151.99 28.2415C151.51 26.8925 151.27 25.2463 151.27 23.3028V4.1314H157.341V24.2288C157.341 24.8004 157.386 25.372 157.478 25.9436C157.569 26.5152 157.764 26.9839 158.061 27.3498C158.381 27.7156 158.861 27.8985 159.501 27.8985C160.164 27.8985 160.644 27.7156 160.942 27.3498C161.239 26.9839 161.422 26.5152 161.49 25.9436C161.582 25.372 161.628 24.8004 161.628 24.2288V4.1314H167.732V23.3028C167.732 25.2463 167.481 26.8925 166.978 28.2415C166.498 29.5676 165.663 30.585 164.474 31.2938C163.285 31.9797 161.628 32.3227 159.501 32.3227ZM172.324 31.9111V4.1314H176.645L182.339 17.5068V4.1314H187.414V31.9111H183.265L177.571 17.5068V31.9111H172.324ZM192.235 31.9111V4.1314H199.265C201.689 4.1314 203.575 4.44006 204.924 5.05739C206.273 5.65186 207.222 6.60071 207.771 7.90396C208.319 9.18434 208.594 10.8534 208.594 12.9112V22.9942C208.594 25.0748 208.319 26.7782 207.771 28.1043C207.222 29.4075 206.273 30.3678 204.924 30.9851C203.598 31.6025 201.735 31.9111 199.334 31.9111H192.235ZM198.374 27.6584H199.334C200.271 27.6584 200.946 27.5212 201.357 27.2469C201.769 26.9725 202.02 26.561 202.112 26.0122C202.226 25.4635 202.283 24.7776 202.283 23.9545V11.848C202.283 11.0249 202.215 10.3618 202.078 9.85883C201.963 9.35582 201.7 8.99 201.289 8.76136C200.877 8.53272 200.214 8.4184 199.3 8.4184H198.374V27.6584ZM222.477 31.9111V4.1314H234.48V8.28121H228.616V15.2776H233.726V19.5646H228.616V31.9111H222.477ZM238.033 31.9111V4.1314H244.172V27.7613H250.551V31.9111H238.033ZM252.587 31.9111L257.834 4.1314H264.831L270.009 31.9111H264.35L263.424 26.0465H259.343L258.383 31.9111H252.587ZM259.892 22.3769H262.841L261.367 11.5393L259.892 22.3769ZM274.463 31.9111V8.69276H270.279V4.1314H284.786V8.69276H280.636V31.9111H274.463ZM305.335 32.3227C303.232 32.3227 301.563 31.9454 300.328 31.1909C299.116 30.4135 298.259 29.3389 297.756 27.9671C297.253 26.5724 297.001 24.9376 297.001 23.0628V13.0484C297.001 11.1278 297.253 9.48157 297.756 8.10973C298.259 6.71503 299.116 5.64042 300.328 4.88591C301.563 4.1314 303.232 3.75415 305.335 3.75415C307.393 3.75415 308.993 4.09711 310.137 4.78303C311.303 5.44608 312.126 6.3835 312.606 7.59529C313.086 8.80708 313.326 10.2018 313.326 11.7794V14.1801H307.324V11.4021C307.324 10.8534 307.29 10.3275 307.221 9.82453C307.176 9.32152 307.016 8.90997 306.741 8.58988C306.467 8.24692 305.998 8.07544 305.335 8.07544C304.695 8.07544 304.215 8.24692 303.895 8.58988C303.598 8.93284 303.403 9.36725 303.312 9.89312C303.243 10.3961 303.209 10.9334 303.209 11.505V24.5718C303.209 25.1891 303.255 25.7607 303.346 26.2866C303.46 26.7896 303.666 27.2012 303.963 27.5212C304.283 27.8185 304.741 27.9671 305.335 27.9671C305.975 27.9671 306.433 27.807 306.707 27.487C306.981 27.144 307.153 26.7096 307.221 26.1837C307.29 25.6578 307.324 25.1205 307.324 24.5718V21.6566H313.326V24.0574C313.326 25.635 313.086 27.0525 312.606 28.3101C312.149 29.5447 311.337 30.5279 310.171 31.2595C309.028 31.9683 307.416 32.3227 305.335 32.3227ZM325.346 32.3227C323.265 32.3227 321.619 31.9569 320.407 31.2252C319.196 30.4936 318.327 29.4418 317.801 28.07C317.275 26.6981 317.012 25.0634 317.012 23.1657V12.8426C317.012 10.922 317.275 9.28723 317.801 7.93825C318.327 6.58928 319.196 5.5604 320.407 4.85162C321.619 4.11997 323.265 3.75415 325.346 3.75415C327.45 3.75415 329.107 4.11997 330.319 4.85162C331.554 5.5604 332.434 6.58928 332.96 7.93825C333.486 9.28723 333.749 10.922 333.749 12.8426V23.1657C333.749 25.0634 333.486 26.6981 332.96 28.07C332.434 29.4418 331.554 30.4936 330.319 31.2252C329.107 31.9569 327.45 32.3227 325.346 32.3227ZM325.346 27.9671C325.986 27.9671 326.455 27.807 326.752 27.487C327.049 27.1669 327.244 26.7553 327.335 26.2523C327.427 25.7493 327.472 25.2349 327.472 24.709V11.3336C327.472 10.7848 327.427 10.2704 327.335 9.79024C327.244 9.28723 327.049 8.87568 326.752 8.55558C326.455 8.23548 325.986 8.07544 325.346 8.07544C324.752 8.07544 324.306 8.23548 324.009 8.55558C323.711 8.87568 323.517 9.28723 323.426 9.79024C323.334 10.2704 323.288 10.7848 323.288 11.3336V24.709C323.288 25.2349 323.323 25.7493 323.391 26.2523C323.483 26.7553 323.666 27.1669 323.94 27.487C324.237 27.807 324.706 27.9671 325.346 27.9671ZM338.171 31.9111V4.1314H342.492L348.185 17.5068V4.1314H353.261V31.9111H349.111L343.418 17.5068V31.9111H338.171ZM360.585 31.9111V8.69276H356.401V4.1314H370.908V8.69276H366.758V31.9111H360.585ZM371.161 31.9111L376.409 4.1314H383.405L388.584 31.9111H382.925L381.999 26.0465H377.918L376.957 31.9111H371.161ZM378.466 22.3769H381.416L379.941 11.5393L378.466 22.3769ZM392.109 31.9111V4.1314H398.248V31.9111H392.109ZM403.076 31.9111V4.1314H407.397L413.09 17.5068V4.1314H418.166V31.9111H414.016L408.323 17.5068V31.9111H403.076ZM422.986 31.9111V4.1314H435.47V8.31551H429.125V15.209H433.961V19.4617H429.125V27.7613H435.538V31.9111H422.986ZM439.011 31.9111V4.1314H446.659C448.534 4.1314 450.158 4.33718 451.53 4.74873C452.901 5.16028 453.965 5.90336 454.719 6.97797C455.496 8.02971 455.885 9.5273 455.885 11.4707C455.885 12.6139 455.794 13.6314 455.611 14.5231C455.428 15.4148 455.085 16.1921 454.582 16.8552C454.102 17.4954 453.404 18.0327 452.49 18.4671L456.297 31.9111H449.952L446.9 19.4617H445.15V31.9111H439.011ZM445.15 15.9292H446.865C447.734 15.9292 448.409 15.7806 448.889 15.4834C449.369 15.1633 449.7 14.7174 449.883 14.1458C450.089 13.5514 450.192 12.8426 450.192 12.0195C450.192 10.8305 449.975 9.90456 449.54 9.2415C449.106 8.57844 448.306 8.24692 447.14 8.24692H445.15V15.9292Z" fill="white"/>
</g>
<defs>
<filter id="filter0_d_1177_3861" x="-0.000273228" y="-0.000273228" width="461.017" height="38.1461" filterUnits="userSpaceOnUse" color-interpolation-filters="sRGB">
<feFlood flood-opacity="0" result="BackgroundImageFix"/>
<feColorMatrix in="SourceAlpha" type="matrix" values="0 0 0 0 0 0 0 0 0 0 0 0 0 0 0 0 0 0 127 0" result="hardAlpha"/>
<feOffset dy="1"/>
<feGaussianBlur stdDeviation="2.36"/>
<feComposite in2="hardAlpha" operator="out"/>
<feColorMatrix type="matrix" values="0 0 0 0 0 0 0 0 0 0 0 0 0 0 0 0 0 0 0.25 0"/>
<feBlend mode="normal" in2="BackgroundImageFix" result="effect1_dropShadow_1177_3861"/>
<feBlend mode="normal" in="SourceGraphic" in2="effect1_dropShadow_1177_3861" result="shape"/>
</filter>
</defs>
</svg>
