<svg width="144" height="37" viewBox="0 0 144 37" fill="none" xmlns="http://www.w3.org/2000/svg">
<rect width="36.5" height="36.5" rx="18.25" fill="white"/>
<path fill-rule="evenodd" clip-rule="evenodd" d="M27.336 19.2562H9.164L11.043 21.1347C11.1359 21.2276 11.2096 21.3378 11.2598 21.4592C11.3101 21.5805 11.336 21.7106 11.336 21.842C11.336 21.9733 11.3101 22.1034 11.2598 22.2247C11.2096 22.3461 11.1359 22.4563 11.043 22.5492C10.9501 22.6421 10.8399 22.7158 10.7185 22.766C10.5972 22.8163 10.4671 22.8422 10.3358 22.8422C10.2044 22.8422 10.0743 22.8163 9.95299 22.766C9.83164 22.7158 9.72138 22.6421 9.6285 22.5492L6.0935 19.0137L6.0685 18.9877C5.96805 18.8942 5.88793 18.7809 5.83314 18.6551C5.77834 18.5292 5.75004 18.3935 5.75 18.2562C5.75 18.0097 5.839 17.7837 5.987 17.6097C6.01867 17.5657 6.054 17.524 6.093 17.4847L9.6285 13.9497C9.81601 13.7621 10.0703 13.6567 10.3356 13.6567C10.6008 13.6566 10.8552 13.7619 11.0427 13.9495C11.2303 14.137 11.3357 14.3913 11.3358 14.6565C11.3358 14.9217 11.2305 15.1761 11.043 15.3637L9.15 17.2562H27.349L25.4565 15.3637C25.3636 15.2708 25.2899 15.1606 25.2397 15.0392C25.1894 14.9179 25.1635 14.7878 25.1635 14.6565C25.1635 14.5251 25.1894 14.395 25.2397 14.2737C25.2899 14.1523 25.3636 14.0421 25.4565 13.9492C25.6441 13.7616 25.8985 13.6562 26.1637 13.6562C26.2951 13.6562 26.4252 13.6821 26.5465 13.7324C26.6679 13.7827 26.7781 13.8563 26.871 13.9492L30.406 17.4847C30.446 17.524 30.4815 17.5657 30.5125 17.6097C30.6605 17.7837 30.7495 18.0097 30.7495 18.2562C30.7495 18.5452 30.627 18.8052 30.431 18.9877L30.406 19.0137L26.871 22.5487C26.6835 22.7363 26.4291 22.8417 26.1639 22.8417C25.8987 22.8418 25.6443 22.7365 25.4568 22.549C25.2692 22.3614 25.1638 22.1071 25.1637 21.8419C25.1637 21.5767 25.269 21.3223 25.4565 21.1347L27.336 19.2562Z" fill="#106B69"/>
<path d="M49.424 14.0517C49.512 14.0517 49.59 14.0857 49.658 14.1537L50.294 14.8437C49.942 15.2797 49.508 15.6137 48.992 15.8457C48.48 16.0777 47.864 16.1937 47.144 16.1937C46.5 16.1937 45.92 16.0837 45.404 15.8637C44.892 15.6437 44.454 15.3377 44.09 14.9457C43.726 14.5537 43.446 14.0857 43.25 13.5417C43.058 12.9977 42.962 12.4037 42.962 11.7597C42.962 11.1077 43.066 10.5117 43.274 9.97166C43.482 9.42766 43.774 8.95966 44.15 8.56766C44.53 8.17566 44.982 7.87166 45.506 7.65566C46.03 7.43566 46.61 7.32566 47.246 7.32566C47.878 7.32566 48.438 7.42966 48.926 7.63766C49.418 7.84566 49.836 8.11766 50.18 8.45366L49.64 9.20366C49.608 9.25166 49.566 9.29366 49.514 9.32966C49.466 9.36566 49.398 9.38366 49.31 9.38366C49.25 9.38366 49.188 9.36766 49.124 9.33566C49.06 9.29966 48.99 9.25766 48.914 9.20966C48.838 9.15766 48.75 9.10166 48.65 9.04166C48.55 8.98166 48.434 8.92766 48.302 8.87966C48.17 8.82766 48.016 8.78566 47.84 8.75366C47.668 8.71766 47.468 8.69966 47.24 8.69966C46.852 8.69966 46.496 8.76966 46.172 8.90966C45.852 9.04566 45.576 9.24566 45.344 9.50966C45.112 9.76966 44.932 10.0897 44.804 10.4697C44.676 10.8457 44.612 11.2757 44.612 11.7597C44.612 12.2477 44.68 12.6817 44.816 13.0617C44.956 13.4417 45.144 13.7617 45.38 14.0217C45.616 14.2817 45.894 14.4817 46.214 14.6217C46.534 14.7577 46.878 14.8257 47.246 14.8257C47.466 14.8257 47.664 14.8137 47.84 14.7897C48.02 14.7657 48.184 14.7277 48.332 14.6757C48.484 14.6237 48.626 14.5577 48.758 14.4777C48.894 14.3937 49.028 14.2917 49.16 14.1717C49.2 14.1357 49.242 14.1077 49.286 14.0877C49.33 14.0637 49.376 14.0517 49.424 14.0517ZM54.4176 13.4697C53.9896 13.4897 53.6296 13.5277 53.3376 13.5837C53.0456 13.6357 52.8116 13.7037 52.6356 13.7877C52.4596 13.8717 52.3336 13.9697 52.2576 14.0817C52.1816 14.1937 52.1436 14.3157 52.1436 14.4477C52.1436 14.7077 52.2196 14.8937 52.3716 15.0057C52.5276 15.1177 52.7296 15.1737 52.9776 15.1737C53.2816 15.1737 53.5436 15.1197 53.7636 15.0117C53.9876 14.8997 54.2056 14.7317 54.4176 14.5077V13.4697ZM51.0216 10.7997C51.7296 10.1517 52.5816 9.82766 53.5776 9.82766C53.9376 9.82766 54.2596 9.88766 54.5436 10.0077C54.8276 10.1237 55.0676 10.2877 55.2636 10.4997C55.4596 10.7077 55.6076 10.9577 55.7076 11.2497C55.8116 11.5417 55.8636 11.8617 55.8636 12.2097V16.0977H55.1916C55.0516 16.0977 54.9436 16.0777 54.8676 16.0377C54.7916 15.9937 54.7316 15.9077 54.6876 15.7797L54.5556 15.3357C54.3996 15.4757 54.2476 15.5997 54.0996 15.7077C53.9516 15.8117 53.7976 15.8997 53.6376 15.9717C53.4776 16.0437 53.3056 16.0977 53.1216 16.1337C52.9416 16.1737 52.7416 16.1937 52.5216 16.1937C52.2616 16.1937 52.0216 16.1597 51.8016 16.0917C51.5816 16.0197 51.3916 15.9137 51.2316 15.7737C51.0716 15.6337 50.9476 15.4597 50.8596 15.2517C50.7716 15.0437 50.7276 14.8017 50.7276 14.5257C50.7276 14.3697 50.7536 14.2157 50.8056 14.0637C50.8576 13.9077 50.9416 13.7597 51.0576 13.6197C51.1776 13.4797 51.3316 13.3477 51.5196 13.2237C51.7076 13.0997 51.9376 12.9917 52.2096 12.8997C52.4856 12.8077 52.8056 12.7337 53.1696 12.6777C53.5336 12.6177 53.9496 12.5817 54.4176 12.5697V12.2097C54.4176 11.7977 54.3296 11.4937 54.1536 11.2977C53.9776 11.0977 53.7236 10.9977 53.3916 10.9977C53.1516 10.9977 52.9516 11.0257 52.7916 11.0817C52.6356 11.1377 52.4976 11.2017 52.3776 11.2737C52.2576 11.3417 52.1476 11.4037 52.0476 11.4597C51.9516 11.5157 51.8436 11.5437 51.7236 11.5437C51.6196 11.5437 51.5316 11.5177 51.4596 11.4657C51.3876 11.4097 51.3296 11.3457 51.2856 11.2737L51.0216 10.7997ZM58.6573 11.0097C58.8493 10.6417 59.0773 10.3537 59.3413 10.1457C59.6053 9.93366 59.9173 9.82766 60.2773 9.82766C60.5613 9.82766 60.7893 9.88966 60.9613 10.0137L60.8653 11.1237C60.8453 11.1957 60.8153 11.2477 60.7753 11.2797C60.7393 11.3077 60.6893 11.3217 60.6253 11.3217C60.5653 11.3217 60.4753 11.3117 60.3553 11.2917C60.2393 11.2717 60.1253 11.2617 60.0133 11.2617C59.8493 11.2617 59.7033 11.2857 59.5753 11.3337C59.4473 11.3817 59.3313 11.4517 59.2273 11.5437C59.1273 11.6317 59.0373 11.7397 58.9573 11.8677C58.8813 11.9957 58.8093 12.1417 58.7413 12.3057V16.0977H57.2593V9.94166H58.1293C58.2813 9.94166 58.3873 9.96966 58.4473 10.0257C58.5073 10.0777 58.5473 10.1737 58.5673 10.3137L58.6573 11.0097ZM63.7879 16.1937C63.2519 16.1937 62.8399 16.0437 62.5519 15.7437C62.2679 15.4397 62.1259 15.0217 62.1259 14.4897V11.0517H61.4959C61.4159 11.0517 61.3479 11.0257 61.2919 10.9737C61.2359 10.9217 61.2079 10.8437 61.2079 10.7397V10.1517L62.1979 9.98966L62.5099 8.30966C62.5299 8.22966 62.5679 8.16766 62.6239 8.12366C62.6799 8.07966 62.7519 8.05766 62.8399 8.05766H63.6079V9.99566H65.2519V11.0517H63.6079V14.3877C63.6079 14.5797 63.6539 14.7297 63.7459 14.8377C63.8419 14.9457 63.9719 14.9997 64.1359 14.9997C64.2279 14.9997 64.3039 14.9897 64.3639 14.9697C64.4279 14.9457 64.4819 14.9217 64.5259 14.8977C64.5739 14.8737 64.6159 14.8517 64.6519 14.8317C64.6879 14.8077 64.7239 14.7957 64.7599 14.7957C64.8039 14.7957 64.8399 14.8077 64.8679 14.8317C64.8959 14.8517 64.9259 14.8837 64.9579 14.9277L65.4019 15.6477C65.1859 15.8277 64.9379 15.9637 64.6579 16.0557C64.3779 16.1477 64.0879 16.1937 63.7879 16.1937ZM68.8779 9.84566C69.3339 9.84566 69.7479 9.91966 70.1199 10.0677C70.4959 10.2157 70.8159 10.4257 71.0799 10.6977C71.3479 10.9697 71.5539 11.3017 71.6979 11.6937C71.8419 12.0857 71.9139 12.5237 71.9139 13.0077C71.9139 13.4957 71.8419 13.9357 71.6979 14.3277C71.5539 14.7197 71.3479 15.0537 71.0799 15.3297C70.8159 15.6057 70.4959 15.8177 70.1199 15.9657C69.7479 16.1137 69.3339 16.1877 68.8779 16.1877C68.4179 16.1877 67.9999 16.1137 67.6239 15.9657C67.2479 15.8177 66.9259 15.6057 66.6579 15.3297C66.3939 15.0537 66.1879 14.7197 66.0399 14.3277C65.8959 13.9357 65.8239 13.4957 65.8239 13.0077C65.8239 12.5237 65.8959 12.0857 66.0399 11.6937C66.1879 11.3017 66.3939 10.9697 66.6579 10.6977C66.9259 10.4257 67.2479 10.2157 67.6239 10.0677C67.9999 9.91966 68.4179 9.84566 68.8779 9.84566ZM68.8779 15.0477C69.3899 15.0477 69.7679 14.8757 70.0119 14.5317C70.2599 14.1877 70.3839 13.6837 70.3839 13.0197C70.3839 12.3557 70.2599 11.8497 70.0119 11.5017C69.7679 11.1537 69.3899 10.9797 68.8779 10.9797C68.3579 10.9797 67.9719 11.1557 67.7199 11.5077C67.4719 11.8557 67.3479 12.3597 67.3479 13.0197C67.3479 13.6797 67.4719 14.1837 67.7199 14.5317C67.9719 14.8757 68.3579 15.0477 68.8779 15.0477ZM74.4305 10.6977C74.5545 10.5737 74.6845 10.4597 74.8205 10.3557C74.9605 10.2477 75.1065 10.1577 75.2585 10.0857C75.4145 10.0097 75.5805 9.95166 75.7565 9.91166C75.9325 9.86766 76.1245 9.84566 76.3325 9.84566C76.6685 9.84566 76.9665 9.90366 77.2265 10.0197C77.4865 10.1317 77.7025 10.2917 77.8745 10.4997C78.0505 10.7037 78.1825 10.9497 78.2705 11.2377C78.3625 11.5217 78.4085 11.8357 78.4085 12.1797V16.0977H76.9265V12.1797C76.9265 11.8037 76.8405 11.5137 76.6685 11.3097C76.4965 11.1017 76.2345 10.9977 75.8825 10.9977C75.6265 10.9977 75.3865 11.0557 75.1625 11.1717C74.9385 11.2877 74.7265 11.4457 74.5265 11.6457V16.0977H73.0445V9.94166H73.9505C74.1425 9.94166 74.2685 10.0317 74.3285 10.2117L74.4305 10.6977ZM87.5899 8.99966C87.5419 9.08366 87.4899 9.14566 87.4339 9.18566C87.3819 9.22166 87.3159 9.23966 87.2359 9.23966C87.1519 9.23966 87.0599 9.20966 86.9599 9.14966C86.8639 9.08566 86.7479 9.01566 86.6119 8.93966C86.4759 8.86366 86.3159 8.79566 86.1319 8.73566C85.9519 8.67166 85.7379 8.63966 85.4899 8.63966C85.2659 8.63966 85.0699 8.66766 84.9019 8.72366C84.7339 8.77566 84.5919 8.84966 84.4759 8.94566C84.3639 9.04166 84.2799 9.15766 84.2239 9.29366C84.1679 9.42566 84.1399 9.57166 84.1399 9.73166C84.1399 9.93566 84.1959 10.1057 84.3079 10.2417C84.4239 10.3777 84.5759 10.4937 84.7639 10.5897C84.9519 10.6857 85.1659 10.7717 85.4059 10.8477C85.6459 10.9237 85.8919 11.0057 86.1439 11.0937C86.3959 11.1777 86.6419 11.2777 86.8819 11.3937C87.1219 11.5057 87.3359 11.6497 87.5239 11.8257C87.7119 11.9977 87.8619 12.2097 87.9739 12.4617C88.0899 12.7137 88.1479 13.0197 88.1479 13.3797C88.1479 13.7717 88.0799 14.1397 87.9439 14.4837C87.8119 14.8237 87.6159 15.1217 87.3559 15.3777C87.0999 15.6297 86.7859 15.8297 86.4139 15.9777C86.0419 16.1217 85.6159 16.1937 85.1359 16.1937C84.8599 16.1937 84.5879 16.1657 84.3199 16.1097C84.0519 16.0577 83.7939 15.9817 83.5459 15.8817C83.3019 15.7817 83.0719 15.6617 82.8559 15.5217C82.6399 15.3817 82.4479 15.2257 82.2799 15.0537L82.7539 14.2797C82.7939 14.2237 82.8459 14.1777 82.9099 14.1417C82.9739 14.1017 83.0419 14.0817 83.1139 14.0817C83.2139 14.0817 83.3219 14.1237 83.4379 14.2077C83.5539 14.2877 83.6919 14.3777 83.8519 14.4777C84.0119 14.5777 84.1979 14.6697 84.4099 14.7537C84.6259 14.8337 84.8839 14.8737 85.1839 14.8737C85.6439 14.8737 85.9999 14.7657 86.2519 14.5497C86.5039 14.3297 86.6299 14.0157 86.6299 13.6077C86.6299 13.3797 86.5719 13.1937 86.4559 13.0497C86.3439 12.9057 86.1939 12.7857 86.0059 12.6897C85.8179 12.5897 85.6039 12.5057 85.3639 12.4377C85.1239 12.3697 84.8799 12.2957 84.6319 12.2157C84.3839 12.1357 84.1399 12.0397 83.8999 11.9277C83.6599 11.8157 83.4459 11.6697 83.2579 11.4897C83.0699 11.3097 82.9179 11.0857 82.8019 10.8177C82.6899 10.5457 82.6339 10.2117 82.6339 9.81566C82.6339 9.49966 82.6959 9.19166 82.8199 8.89166C82.9479 8.59166 83.1319 8.32566 83.3719 8.09366C83.6119 7.86166 83.9079 7.67566 84.2599 7.53566C84.6119 7.39566 85.0159 7.32566 85.4719 7.32566C85.9839 7.32566 86.4559 7.40566 86.8879 7.56566C87.3199 7.72566 87.6879 7.94966 87.9919 8.23766L87.5899 8.99966ZM90.8344 9.94166V16.0977H89.3464V9.94166H90.8344ZM91.0384 8.14766C91.0384 8.27566 91.0124 8.39566 90.9604 8.50766C90.9084 8.61966 90.8384 8.71766 90.7504 8.80166C90.6664 8.88566 90.5664 8.95366 90.4504 9.00566C90.3344 9.05366 90.2104 9.07766 90.0784 9.07766C89.9504 9.07766 89.8284 9.05366 89.7124 9.00566C89.6004 8.95366 89.5024 8.88566 89.4184 8.80166C89.3344 8.71766 89.2664 8.61966 89.2144 8.50766C89.1664 8.39566 89.1424 8.27566 89.1424 8.14766C89.1424 8.01566 89.1664 7.89166 89.2144 7.77566C89.2664 7.65966 89.3344 7.55966 89.4184 7.47566C89.5024 7.39166 89.6004 7.32566 89.7124 7.27766C89.8284 7.22566 89.9504 7.19966 90.0784 7.19966C90.2104 7.19966 90.3344 7.22566 90.4504 7.27766C90.5664 7.32566 90.6664 7.39166 90.7504 7.47566C90.8384 7.55966 90.9084 7.65966 90.9604 7.77566C91.0124 7.89166 91.0384 8.01566 91.0384 8.14766ZM96.7673 10.5537C96.7673 10.6577 96.7493 10.7597 96.7133 10.8597C96.6773 10.9597 96.6293 11.0417 96.5693 11.1057L93.6473 14.9577H96.6773V16.0977H91.9253V15.4797C91.9253 15.4117 91.9413 15.3317 91.9733 15.2397C92.0053 15.1437 92.0533 15.0537 92.1173 14.9697L95.0693 11.0757H92.0993V9.94166H96.7673V10.5537ZM101.725 12.3117C101.725 12.1197 101.697 11.9397 101.641 11.7717C101.589 11.5997 101.509 11.4497 101.401 11.3217C101.293 11.1937 101.155 11.0937 100.987 11.0217C100.823 10.9457 100.631 10.9077 100.411 10.9077C99.9833 10.9077 99.6453 11.0297 99.3973 11.2737C99.1533 11.5177 98.9973 11.8637 98.9293 12.3117H101.725ZM98.8993 13.2057C98.9233 13.5217 98.9793 13.7957 99.0673 14.0277C99.1553 14.2557 99.2713 14.4457 99.4153 14.5977C99.5593 14.7457 99.7293 14.8577 99.9253 14.9337C100.125 15.0057 100.345 15.0417 100.585 15.0417C100.825 15.0417 101.031 15.0137 101.203 14.9577C101.379 14.9017 101.531 14.8397 101.659 14.7717C101.791 14.7037 101.905 14.6417 102.001 14.5857C102.101 14.5297 102.197 14.5017 102.289 14.5017C102.413 14.5017 102.505 14.5477 102.565 14.6397L102.991 15.1797C102.827 15.3717 102.643 15.5337 102.439 15.6657C102.235 15.7937 102.021 15.8977 101.797 15.9777C101.577 16.0537 101.351 16.1077 101.119 16.1397C100.891 16.1717 100.669 16.1877 100.453 16.1877C100.025 16.1877 99.6273 16.1177 99.2593 15.9777C98.8913 15.8337 98.5713 15.6237 98.2993 15.3477C98.0273 15.0677 97.8133 14.7237 97.6573 14.3157C97.5013 13.9037 97.4233 13.4277 97.4233 12.8877C97.4233 12.4677 97.4913 12.0737 97.6273 11.7057C97.7633 11.3337 97.9573 11.0117 98.2093 10.7397C98.4653 10.4637 98.7753 10.2457 99.1393 10.0857C99.5073 9.92566 99.9213 9.84566 100.381 9.84566C100.769 9.84566 101.127 9.90766 101.455 10.0317C101.783 10.1557 102.065 10.3377 102.301 10.5777C102.537 10.8137 102.721 11.1057 102.853 11.4537C102.989 11.7977 103.057 12.1917 103.057 12.6357C103.057 12.8597 103.033 13.0117 102.985 13.0917C102.937 13.1677 102.845 13.2057 102.709 13.2057H98.8993Z" fill="white"/>
<path d="M43.15 25.1773C43.1967 24.8507 43.2867 24.5623 43.42 24.3123C43.5533 24.059 43.7217 23.8473 43.925 23.6773C44.1317 23.5073 44.3667 23.379 44.63 23.2923C44.8967 23.2023 45.1833 23.1573 45.49 23.1573C45.7933 23.1573 46.0733 23.2007 46.33 23.2873C46.5867 23.374 46.8067 23.4973 46.99 23.6573C47.1767 23.8173 47.3217 24.0107 47.425 24.2373C47.5283 24.464 47.58 24.7157 47.58 24.9923C47.58 25.219 47.55 25.4223 47.49 25.6023C47.4333 25.779 47.35 25.934 47.24 26.0673C47.1333 26.2007 47.0033 26.314 46.85 26.4073C46.6967 26.5007 46.525 26.5773 46.335 26.6373C46.8017 26.7573 47.1517 26.964 47.385 27.2573C47.6217 27.5473 47.74 27.9107 47.74 28.3473C47.74 28.6773 47.6767 28.974 47.55 29.2373C47.4267 29.5007 47.2567 29.7257 47.04 29.9123C46.8233 30.0957 46.57 30.2373 46.28 30.3373C45.9933 30.434 45.685 30.4823 45.355 30.4823C44.975 30.4823 44.65 30.4357 44.38 30.3423C44.11 30.2457 43.8817 30.114 43.695 29.9473C43.5083 29.7807 43.355 29.584 43.235 29.3573C43.115 29.1273 43.0133 28.879 42.93 28.6123L43.315 28.4523C43.415 28.409 43.5117 28.3973 43.605 28.4173C43.7017 28.4373 43.7717 28.4923 43.815 28.5823C43.8583 28.6757 43.9117 28.7873 43.975 28.9173C44.0417 29.0473 44.1317 29.1723 44.245 29.2923C44.3583 29.4123 44.5017 29.514 44.675 29.5973C44.8517 29.6807 45.075 29.7223 45.345 29.7223C45.595 29.7223 45.8133 29.6823 46 29.6023C46.19 29.519 46.3467 29.4123 46.47 29.2823C46.5967 29.1523 46.6917 29.0073 46.755 28.8473C46.8183 28.6873 46.85 28.529 46.85 28.3723C46.85 28.179 46.825 28.0023 46.775 27.8423C46.725 27.6823 46.6317 27.544 46.495 27.4273C46.3583 27.3107 46.17 27.219 45.93 27.1523C45.6933 27.0857 45.3883 27.0523 45.015 27.0523V26.4073C45.3217 26.404 45.5817 26.3707 45.795 26.3073C46.0117 26.244 46.1867 26.1573 46.32 26.0473C46.4567 25.9373 46.555 25.8057 46.615 25.6523C46.6783 25.499 46.71 25.329 46.71 25.1423C46.71 24.9357 46.6767 24.7557 46.61 24.6023C46.5467 24.449 46.4583 24.3223 46.345 24.2223C46.2317 24.1223 46.0967 24.0473 45.94 23.9973C45.7867 23.9473 45.62 23.9223 45.44 23.9223C45.26 23.9223 45.0917 23.949 44.935 24.0023C44.7817 24.0557 44.645 24.1307 44.525 24.2273C44.4083 24.3207 44.31 24.4323 44.23 24.5623C44.15 24.6923 44.0933 24.8357 44.06 24.9923C44.0167 25.109 43.9617 25.1873 43.895 25.2273C43.8317 25.264 43.7383 25.274 43.615 25.2573L43.15 25.1773ZM53.3908 29.7223V30.4023H49.5508V29.7223H51.0858V24.8373C51.0858 24.6907 51.0908 24.5423 51.1008 24.3923L49.8258 25.4873C49.7824 25.524 49.7391 25.5473 49.6958 25.5573C49.6524 25.564 49.6124 25.564 49.5758 25.5573C49.5391 25.5507 49.5041 25.5373 49.4708 25.5173C49.4408 25.4973 49.4174 25.4757 49.4008 25.4523L49.1208 25.0673L51.2558 23.2223H51.9808V29.7223H53.3908ZM61.3402 29.2973L59.5702 27.5223L57.7852 29.3073L57.3102 28.8273L59.0902 27.0473L57.3652 25.3223L57.8402 24.8423L59.5652 26.5673L61.2802 24.8523L61.7602 25.3323L60.0452 27.0473L61.8152 28.8173L61.3402 29.2973ZM69.9545 29.5573C70.0512 29.5573 70.1279 29.5857 70.1845 29.6423C70.2412 29.699 70.2695 29.7723 70.2695 29.8623V30.4023H65.4895V30.0973C65.4895 30.034 65.5029 29.969 65.5295 29.9023C65.5562 29.8357 65.5979 29.774 65.6545 29.7173L67.9495 27.4123C68.1395 27.219 68.3129 27.034 68.4695 26.8573C68.6262 26.6773 68.7595 26.4973 68.8695 26.3173C68.9795 26.1373 69.0645 25.9557 69.1245 25.7723C69.1845 25.5857 69.2145 25.3873 69.2145 25.1773C69.2145 24.9673 69.1812 24.784 69.1145 24.6273C69.0479 24.4673 68.9562 24.3357 68.8395 24.2323C68.7262 24.129 68.5912 24.0523 68.4345 24.0023C68.2779 23.949 68.1095 23.9223 67.9295 23.9223C67.7462 23.9223 67.5779 23.949 67.4245 24.0023C67.2712 24.0557 67.1345 24.1307 67.0145 24.2273C66.8979 24.3207 66.7995 24.4323 66.7195 24.5623C66.6395 24.6923 66.5829 24.8357 66.5495 24.9923C66.5095 25.109 66.4545 25.1873 66.3845 25.2273C66.3179 25.264 66.2229 25.274 66.0995 25.2573L65.6345 25.1773C65.6812 24.8507 65.7712 24.5623 65.9045 24.3123C66.0412 24.059 66.2112 23.8473 66.4145 23.6773C66.6212 23.5073 66.8562 23.379 67.1195 23.2923C67.3829 23.2023 67.6679 23.1573 67.9745 23.1573C68.2779 23.1573 68.5612 23.2023 68.8245 23.2923C69.0879 23.3823 69.3162 23.514 69.5095 23.6873C69.7029 23.8573 69.8545 24.0657 69.9645 24.3123C70.0745 24.559 70.1295 24.839 70.1295 25.1523C70.1295 25.419 70.0895 25.6673 70.0095 25.8973C69.9295 26.124 69.8212 26.3407 69.6845 26.5473C69.5479 26.754 69.3895 26.9557 69.2095 27.1523C69.0329 27.349 68.8445 27.5473 68.6445 27.7473L66.7545 29.6773C66.8879 29.6407 67.0229 29.6123 67.1595 29.5923C67.2962 29.569 67.4279 29.5573 67.5545 29.5573H69.9545ZM75.7553 29.5573C75.852 29.5573 75.9286 29.5857 75.9853 29.6423C76.042 29.699 76.0703 29.7723 76.0703 29.8623V30.4023H71.2903V30.0973C71.2903 30.034 71.3036 29.969 71.3303 29.9023C71.357 29.8357 71.3986 29.774 71.4553 29.7173L73.7503 27.4123C73.9403 27.219 74.1136 27.034 74.2703 26.8573C74.427 26.6773 74.5603 26.4973 74.6703 26.3173C74.7803 26.1373 74.8653 25.9557 74.9253 25.7723C74.9853 25.5857 75.0153 25.3873 75.0153 25.1773C75.0153 24.9673 74.982 24.784 74.9153 24.6273C74.8486 24.4673 74.757 24.3357 74.6403 24.2323C74.527 24.129 74.392 24.0523 74.2353 24.0023C74.0786 23.949 73.9103 23.9223 73.7303 23.9223C73.547 23.9223 73.3786 23.949 73.2253 24.0023C73.072 24.0557 72.9353 24.1307 72.8153 24.2273C72.6986 24.3207 72.6003 24.4323 72.5203 24.5623C72.4403 24.6923 72.3836 24.8357 72.3503 24.9923C72.3103 25.109 72.2553 25.1873 72.1853 25.2273C72.1186 25.264 72.0236 25.274 71.9003 25.2573L71.4353 25.1773C71.482 24.8507 71.572 24.5623 71.7053 24.3123C71.842 24.059 72.012 23.8473 72.2153 23.6773C72.422 23.5073 72.657 23.379 72.9203 23.2923C73.1836 23.2023 73.4686 23.1573 73.7753 23.1573C74.0786 23.1573 74.362 23.2023 74.6253 23.2923C74.8886 23.3823 75.117 23.514 75.3103 23.6873C75.5036 23.8573 75.6553 24.0657 75.7653 24.3123C75.8753 24.559 75.9303 24.839 75.9303 25.1523C75.9303 25.419 75.8903 25.6673 75.8103 25.8973C75.7303 26.124 75.622 26.3407 75.4853 26.5473C75.3486 26.754 75.1903 26.9557 75.0103 27.1523C74.8336 27.349 74.6453 27.5473 74.4453 27.7473L72.5553 29.6773C72.6886 29.6407 72.8236 29.6123 72.9603 29.5923C73.097 29.569 73.2286 29.5573 73.3553 29.5573H75.7553ZM77.1761 29.8523C77.1761 29.7657 77.1911 29.684 77.2211 29.6073C77.2544 29.5307 77.2978 29.464 77.3511 29.4073C77.4078 29.3507 77.4744 29.3057 77.5511 29.2723C77.6278 29.239 77.7094 29.2223 77.7961 29.2223C77.8828 29.2223 77.9644 29.239 78.0411 29.2723C78.1178 29.3057 78.1844 29.3507 78.2411 29.4073C78.2978 29.464 78.3428 29.5307 78.3761 29.6073C78.4094 29.684 78.4261 29.7657 78.4261 29.8523C78.4261 29.9423 78.4094 30.0257 78.3761 30.1023C78.3428 30.1757 78.2978 30.2407 78.2411 30.2973C78.1844 30.354 78.1178 30.3973 78.0411 30.4273C77.9644 30.4607 77.8828 30.4773 77.7961 30.4773C77.7094 30.4773 77.6278 30.4607 77.5511 30.4273C77.4744 30.3973 77.4078 30.354 77.3511 30.2973C77.2978 30.2407 77.2544 30.1757 77.2211 30.1023C77.1911 30.0257 77.1761 29.9423 77.1761 29.8523ZM80.7944 25.9423C81.1677 25.8623 81.511 25.8223 81.8244 25.8223C82.1977 25.8223 82.5277 25.8773 82.8144 25.9873C83.101 26.0973 83.3394 26.249 83.5294 26.4423C83.7227 26.6357 83.8677 26.864 83.9644 27.1273C84.0644 27.3907 84.1144 27.6773 84.1144 27.9873C84.1144 28.3673 84.0477 28.7107 83.9144 29.0173C83.7844 29.324 83.6027 29.5873 83.3694 29.8073C83.1394 30.024 82.8677 30.1907 82.5544 30.3073C82.241 30.424 81.9027 30.4823 81.5394 30.4823C81.3294 30.4823 81.1277 30.4607 80.9344 30.4173C80.741 30.3773 80.5594 30.3223 80.3894 30.2523C80.2227 30.1823 80.0677 30.1023 79.9244 30.0123C79.781 29.9223 79.6544 29.8273 79.5444 29.7273L79.8194 29.3473C79.8794 29.2607 79.9577 29.2173 80.0544 29.2173C80.121 29.2173 80.196 29.244 80.2794 29.2973C80.3627 29.3473 80.4644 29.404 80.5844 29.4673C80.7044 29.5307 80.8444 29.589 81.0044 29.6423C81.1677 29.6923 81.361 29.7173 81.5844 29.7173C81.8344 29.7173 82.0594 29.6773 82.2594 29.5973C82.4594 29.5173 82.631 29.404 82.7744 29.2573C82.9177 29.1073 83.0277 28.929 83.1044 28.7223C83.181 28.5157 83.2194 28.284 83.2194 28.0273C83.2194 27.804 83.186 27.6023 83.1194 27.4223C83.056 27.2423 82.9577 27.089 82.8244 26.9623C82.6944 26.8357 82.531 26.7373 82.3344 26.6673C82.1377 26.5973 81.9077 26.5623 81.6444 26.5623C81.4644 26.5623 81.276 26.5773 81.0794 26.6073C80.886 26.6373 80.6877 26.6857 80.4844 26.7523L79.9244 26.5873L80.4994 23.2373H83.8944V23.6273C83.8944 23.754 83.8544 23.859 83.7744 23.9423C83.6977 24.0223 83.5644 24.0623 83.3744 24.0623H81.1244L80.7944 25.9423ZM92.0238 29.2973L90.2538 27.5223L88.4688 29.3073L87.9938 28.8273L89.7738 27.0473L88.0488 25.3223L88.5238 24.8423L90.2488 26.5673L91.9638 24.8523L92.4438 25.3323L90.7288 27.0473L92.4988 28.8173L92.0238 29.2973ZM100.638 29.5573C100.735 29.5573 100.811 29.5857 100.868 29.6423C100.925 29.699 100.953 29.7723 100.953 29.8623V30.4023H96.1731V30.0973C96.1731 30.034 96.1865 29.969 96.2131 29.9023C96.2398 29.8357 96.2815 29.774 96.3381 29.7173L98.6331 27.4123C98.8231 27.219 98.9965 27.034 99.1531 26.8573C99.3098 26.6773 99.4431 26.4973 99.5531 26.3173C99.6631 26.1373 99.7481 25.9557 99.8081 25.7723C99.8681 25.5857 99.8981 25.3873 99.8981 25.1773C99.8981 24.9673 99.8648 24.784 99.7981 24.6273C99.7315 24.4673 99.6398 24.3357 99.5231 24.2323C99.4098 24.129 99.2748 24.0523 99.1181 24.0023C98.9615 23.949 98.7931 23.9223 98.6131 23.9223C98.4298 23.9223 98.2615 23.949 98.1081 24.0023C97.9548 24.0557 97.8181 24.1307 97.6981 24.2273C97.5815 24.3207 97.4831 24.4323 97.4031 24.5623C97.3231 24.6923 97.2665 24.8357 97.2331 24.9923C97.1931 25.109 97.1381 25.1873 97.0681 25.2273C97.0015 25.264 96.9065 25.274 96.7831 25.2573L96.3181 25.1773C96.3648 24.8507 96.4548 24.5623 96.5881 24.3123C96.7248 24.059 96.8948 23.8473 97.0981 23.6773C97.3048 23.5073 97.5398 23.379 97.8031 23.2923C98.0665 23.2023 98.3515 23.1573 98.6581 23.1573C98.9615 23.1573 99.2448 23.2023 99.5081 23.2923C99.7715 23.3823 99.9998 23.514 100.193 23.6873C100.386 23.8573 100.538 24.0657 100.648 24.3123C100.758 24.559 100.813 24.839 100.813 25.1523C100.813 25.419 100.773 25.6673 100.693 25.8973C100.613 26.124 100.505 26.3407 100.368 26.5473C100.231 26.754 100.073 26.9557 99.8931 27.1523C99.7165 27.349 99.5281 27.5473 99.3281 27.7473L97.4381 29.6773C97.5715 29.6407 97.7065 29.6123 97.8431 29.5923C97.9798 29.569 98.1115 29.5573 98.2381 29.5573H100.638ZM107.004 26.8223C107.004 27.449 106.936 27.9923 106.799 28.4523C106.666 28.909 106.482 29.2873 106.249 29.5873C106.016 29.8873 105.739 30.1107 105.419 30.2573C105.102 30.404 104.762 30.4773 104.399 30.4773C104.032 30.4773 103.691 30.404 103.374 30.2573C103.061 30.1107 102.787 29.8873 102.554 29.5873C102.321 29.2873 102.137 28.909 102.004 28.4523C101.871 27.9923 101.804 27.449 101.804 26.8223C101.804 26.1957 101.871 25.6523 102.004 25.1923C102.137 24.7323 102.321 24.3523 102.554 24.0523C102.787 23.749 103.061 23.524 103.374 23.3773C103.691 23.2307 104.032 23.1573 104.399 23.1573C104.762 23.1573 105.102 23.2307 105.419 23.3773C105.739 23.524 106.016 23.749 106.249 24.0523C106.482 24.3523 106.666 24.7323 106.799 25.1923C106.936 25.6523 107.004 26.1957 107.004 26.8223ZM106.079 26.8223C106.079 26.2757 106.032 25.8173 105.939 25.4473C105.849 25.074 105.726 24.774 105.569 24.5473C105.416 24.3207 105.237 24.159 105.034 24.0623C104.831 23.9623 104.619 23.9123 104.399 23.9123C104.179 23.9123 103.967 23.9623 103.764 24.0623C103.561 24.159 103.382 24.3207 103.229 24.5473C103.076 24.774 102.952 25.074 102.859 25.4473C102.769 25.8173 102.724 26.2757 102.724 26.8223C102.724 27.369 102.769 27.8273 102.859 28.1973C102.952 28.5673 103.076 28.8657 103.229 29.0923C103.382 29.319 103.561 29.4823 103.764 29.5823C103.967 29.679 104.179 29.7273 104.399 29.7273C104.619 29.7273 104.831 29.679 105.034 29.5823C105.237 29.4823 105.416 29.319 105.569 29.0923C105.726 28.8657 105.849 28.5673 105.939 28.1973C106.032 27.8273 106.079 27.369 106.079 26.8223ZM107.86 29.8523C107.86 29.7657 107.875 29.684 107.905 29.6073C107.938 29.5307 107.981 29.464 108.035 29.4073C108.091 29.3507 108.158 29.3057 108.235 29.2723C108.311 29.239 108.393 29.2223 108.48 29.2223C108.566 29.2223 108.648 29.239 108.725 29.2723C108.801 29.3057 108.868 29.3507 108.925 29.4073C108.981 29.464 109.026 29.5307 109.06 29.6073C109.093 29.684 109.11 29.7657 109.11 29.8523C109.11 29.9423 109.093 30.0257 109.06 30.1023C109.026 30.1757 108.981 30.2407 108.925 30.2973C108.868 30.354 108.801 30.3973 108.725 30.4273C108.648 30.4607 108.566 30.4773 108.48 30.4773C108.393 30.4773 108.311 30.4607 108.235 30.4273C108.158 30.3973 108.091 30.354 108.035 30.2973C107.981 30.2407 107.938 30.1757 107.905 30.1023C107.875 30.0257 107.86 29.9423 107.86 29.8523ZM111.478 25.9423C111.851 25.8623 112.195 25.8223 112.508 25.8223C112.881 25.8223 113.211 25.8773 113.498 25.9873C113.785 26.0973 114.023 26.249 114.213 26.4423C114.406 26.6357 114.551 26.864 114.648 27.1273C114.748 27.3907 114.798 27.6773 114.798 27.9873C114.798 28.3673 114.731 28.7107 114.598 29.0173C114.468 29.324 114.286 29.5873 114.053 29.8073C113.823 30.024 113.551 30.1907 113.238 30.3073C112.925 30.424 112.586 30.4823 112.223 30.4823C112.013 30.4823 111.811 30.4607 111.618 30.4173C111.425 30.3773 111.243 30.3223 111.073 30.2523C110.906 30.1823 110.751 30.1023 110.608 30.0123C110.465 29.9223 110.338 29.8273 110.228 29.7273L110.503 29.3473C110.563 29.2607 110.641 29.2173 110.738 29.2173C110.805 29.2173 110.88 29.244 110.963 29.2973C111.046 29.3473 111.148 29.404 111.268 29.4673C111.388 29.5307 111.528 29.589 111.688 29.6423C111.851 29.6923 112.045 29.7173 112.268 29.7173C112.518 29.7173 112.743 29.6773 112.943 29.5973C113.143 29.5173 113.315 29.404 113.458 29.2573C113.601 29.1073 113.711 28.929 113.788 28.7223C113.865 28.5157 113.903 28.284 113.903 28.0273C113.903 27.804 113.87 27.6023 113.803 27.4223C113.74 27.2423 113.641 27.089 113.508 26.9623C113.378 26.8357 113.215 26.7373 113.018 26.6673C112.821 26.5973 112.591 26.5623 112.328 26.5623C112.148 26.5623 111.96 26.5773 111.763 26.6073C111.57 26.6373 111.371 26.6857 111.168 26.7523L110.608 26.5873L111.183 23.2373H114.578V23.6273C114.578 23.754 114.538 23.859 114.458 23.9423C114.381 24.0223 114.248 24.0623 114.058 24.0623H111.808L111.478 25.9423ZM119.672 25.3373V30.4023H118.782V25.3373H119.672ZM119.862 23.7473C119.862 23.834 119.844 23.9157 119.807 23.9923C119.774 24.0657 119.727 24.1323 119.667 24.1923C119.611 24.249 119.542 24.294 119.462 24.3273C119.386 24.3607 119.304 24.3773 119.217 24.3773C119.131 24.3773 119.049 24.3607 118.972 24.3273C118.899 24.294 118.834 24.249 118.777 24.1923C118.721 24.1323 118.676 24.0657 118.642 23.9923C118.609 23.9157 118.592 23.834 118.592 23.7473C118.592 23.6607 118.609 23.579 118.642 23.5023C118.676 23.4223 118.721 23.354 118.777 23.2973C118.834 23.2373 118.899 23.1907 118.972 23.1573C119.049 23.124 119.131 23.1073 119.217 23.1073C119.304 23.1073 119.386 23.124 119.462 23.1573C119.542 23.1907 119.611 23.2373 119.667 23.2973C119.727 23.354 119.774 23.4223 119.807 23.5023C119.844 23.579 119.862 23.6607 119.862 23.7473ZM121.975 26.0723C122.085 25.949 122.201 25.8373 122.325 25.7373C122.448 25.6373 122.578 25.5523 122.715 25.4823C122.855 25.409 123.001 25.354 123.155 25.3173C123.311 25.2773 123.48 25.2573 123.66 25.2573C123.936 25.2573 124.18 25.304 124.39 25.3973C124.603 25.4873 124.78 25.6173 124.92 25.7873C125.063 25.954 125.171 26.1557 125.245 26.3923C125.318 26.629 125.355 26.8907 125.355 27.1773V30.4023H124.46V27.1773C124.46 26.794 124.371 26.4973 124.195 26.2873C124.021 26.074 123.756 25.9673 123.4 25.9673C123.136 25.9673 122.89 26.0307 122.66 26.1573C122.433 26.284 122.223 26.4557 122.03 26.6723V30.4023H121.135V25.3373H121.67C121.796 25.3373 121.875 25.399 121.905 25.5223L121.975 26.0723Z" fill="white"/>
</svg>
