<svg width="97" height="30" viewBox="0 0 97 30" fill="none" xmlns="http://www.w3.org/2000/svg">
<rect width="95.7984" height="24.325" rx="11.712" transform="matrix(-1 0 0 1 95.7983 2.40234)" fill="#8D8D8D"/>
<rect x="-0.150154" y="0.150154" width="78.9811" height="19.2197" rx="9.60987" transform="matrix(-1 0 0 1 84.3867 4.80273)" stroke="white" stroke-width="0.300308"/>
<circle cx="14.7151" cy="14.7151" r="14.7151" transform="matrix(-1 0 0 1 96.9995 0)" fill="#8D8D8D"/>
<circle cx="11.2616" cy="11.2616" r="11.2616" transform="matrix(-1 0 0 1 93.6948 3.30273)" fill="white"/>
<path fill-rule="evenodd" clip-rule="evenodd" d="M88.7114 15.0535L78.1559 20.0975C77.907 20.2169 77.6831 19.8585 77.8247 19.5672L80.1834 14.7153L77.8247 9.86347C77.6835 9.57236 77.907 9.21452 78.1559 9.33341L88.7114 14.3775C88.8359 14.4407 88.8923 14.5479 88.8921 14.7156C88.892 14.8832 88.8199 15.0023 88.7114 15.0535Z" fill="#8D8D8D"/>
<path d="M36.2162 12.3513L36.2162 18L35.1846 18L32.7271 14.4447L32.6857 14.4447L32.6857 18L31.4914 18L31.4914 12.3513L32.5395 12.3513L34.9778 15.9038L35.0274 15.9038L35.0274 12.3513L36.2162 12.3513ZM38.7232 18.0827C38.2874 18.0827 37.9123 17.9945 37.5979 17.818C37.2853 17.6396 37.0444 17.3877 36.8752 17.0622C36.7061 16.7349 36.6215 16.3479 36.6215 15.901C36.6215 15.4652 36.7061 15.0828 36.8752 14.7536C37.0444 14.4245 37.2825 14.168 37.5896 13.9841C37.8985 13.8002 38.2608 13.7083 38.6763 13.7083C38.9558 13.7083 39.216 13.7533 39.4569 13.8434C39.6996 13.9317 39.9111 14.065 40.0913 14.2434C40.2733 14.4217 40.4149 14.6461 40.516 14.9164C40.6171 15.1848 40.6677 15.4993 40.6677 15.8597L40.6677 16.1824L37.0904 16.1824L37.0904 15.4542L39.5617 15.4542C39.5617 15.285 39.5249 15.1352 39.4514 15.0046C39.3778 14.8741 39.2758 14.772 39.1452 14.6985C39.0165 14.6231 38.8666 14.5854 38.6956 14.5854C38.5173 14.5854 38.3591 14.6268 38.2212 14.7095C38.0852 14.7904 37.9785 14.8998 37.9013 15.0377C37.824 15.1738 37.7845 15.3255 37.7827 15.4928L37.7827 16.1851C37.7827 16.3947 37.8213 16.5759 37.8985 16.7285C37.9776 16.8811 38.0888 16.9988 38.2323 17.0815C38.3757 17.1643 38.5458 17.2056 38.7425 17.2056C38.8731 17.2056 38.9926 17.1873 39.1011 17.1505C39.2096 17.1137 39.3024 17.0585 39.3797 16.985C39.4569 16.9114 39.5157 16.8213 39.5562 16.7147L40.6429 16.7864C40.5877 17.0475 40.4746 17.2755 40.3036 17.4704C40.1345 17.6635 39.9157 17.8143 39.6472 17.9228C39.3806 18.0294 39.0726 18.0827 38.7232 18.0827ZM41.9522 13.7635L42.73 15.2446L43.5271 13.7635L44.7324 13.7635L43.505 15.8817L44.7655 18L43.5657 18L42.73 16.5354L41.9081 18L40.6945 18L41.9522 15.8817L40.7386 13.7635L41.9522 13.7635ZM47.2953 13.7635L47.2953 14.6461L44.744 14.6461L44.744 13.7635L47.2953 13.7635ZM45.3232 12.7485L46.4982 12.7485L46.4982 16.6981C46.4982 16.8066 46.5147 16.8912 46.5478 16.9519C46.5809 17.0107 46.6269 17.0521 46.6858 17.076C46.7464 17.0999 46.8163 17.1119 46.8954 17.1119C46.9505 17.1119 47.0057 17.1073 47.0609 17.0981C47.116 17.087 47.1583 17.0788 47.1877 17.0733L47.3725 17.9476C47.3137 17.966 47.2309 17.9871 47.1243 18.011C47.0177 18.0368 46.888 18.0524 46.7354 18.0579C46.4522 18.069 46.204 18.0313 45.9907 17.9448C45.7792 17.8584 45.6147 17.7242 45.497 17.5421C45.3793 17.3601 45.3214 17.1303 45.3232 16.8526L45.3232 12.7485Z" fill="white"/>
</svg>
