<svg width="147" height="37" viewBox="0 0 147 37" fill="none" xmlns="http://www.w3.org/2000/svg">
<rect width="36.5" height="36.5" rx="18.25" fill="#D8EDFC"/>
<path d="M16.4163 20.9974V18.2474M20.083 20.9974V18.2474M23.7497 20.9974V18.2474M9.08301 14.5807V10.9141M27.4163 12.7474H9.08301M27.4163 14.5807V10.9141M12.7497 20.9974V18.2474" stroke="black" stroke-opacity="0.7" stroke-width="2.06182" stroke-linecap="round" stroke-linejoin="round"/>
<path d="M25.583 18.248H10.9163C9.90382 18.248 9.08301 19.0689 9.08301 20.0814V23.748C9.08301 24.7606 9.90382 25.5814 10.9163 25.5814H25.583C26.5955 25.5814 27.4163 24.7606 27.4163 23.748V20.0814C27.4163 19.0689 26.5955 18.248 25.583 18.248Z" stroke="black" stroke-opacity="0.7" stroke-width="2.06182" stroke-linecap="round" stroke-linejoin="round"/>
<path d="M49.725 11.4827C49.725 12.0127 49.6367 12.4993 49.46 12.9427C49.2833 13.386 49.035 13.7677 48.715 14.0877C48.395 14.4077 48.01 14.656 47.56 14.8327C47.11 15.0093 46.61 15.0977 46.06 15.0977H43.305V7.86766H46.06C46.61 7.86766 47.11 7.95766 47.56 8.13766C48.01 8.31432 48.395 8.56266 48.715 8.88266C49.035 9.19932 49.2833 9.57932 49.46 10.0227C49.6367 10.466 49.725 10.9527 49.725 11.4827ZM48.345 11.4827C48.345 11.086 48.2917 10.731 48.185 10.4177C48.0817 10.101 47.93 9.83432 47.73 9.61766C47.5333 9.39766 47.2933 9.22932 47.01 9.11266C46.73 8.99599 46.4133 8.93766 46.06 8.93766H44.655V14.0277H46.06C46.4133 14.0277 46.73 13.9693 47.01 13.8527C47.2933 13.736 47.5333 13.5693 47.73 13.3527C47.93 13.1327 48.0817 12.866 48.185 12.5527C48.2917 12.236 48.345 11.8793 48.345 11.4827ZM51.9095 9.96766V15.0977H50.6695V9.96766H51.9095ZM52.0795 8.47266C52.0795 8.57932 52.0579 8.67932 52.0145 8.77266C51.9712 8.86599 51.9129 8.94766 51.8395 9.01766C51.7695 9.08766 51.6862 9.14432 51.5895 9.18766C51.4929 9.22766 51.3895 9.24766 51.2795 9.24766C51.1729 9.24766 51.0712 9.22766 50.9745 9.18766C50.8812 9.14432 50.7995 9.08766 50.7295 9.01766C50.6595 8.94766 50.6029 8.86599 50.5595 8.77266C50.5195 8.67932 50.4995 8.57932 50.4995 8.47266C50.4995 8.36266 50.5195 8.25932 50.5595 8.16266C50.6029 8.06599 50.6595 7.98266 50.7295 7.91266C50.7995 7.84266 50.8812 7.78766 50.9745 7.74766C51.0712 7.70432 51.1729 7.68266 51.2795 7.68266C51.3895 7.68266 51.4929 7.70432 51.5895 7.74766C51.6862 7.78766 51.7695 7.84266 51.8395 7.91266C51.9129 7.98266 51.9712 8.06599 52.0145 8.16266C52.0579 8.25932 52.0795 8.36266 52.0795 8.47266ZM53.1686 15.0977V9.96766H53.9236C54.0836 9.96766 54.1886 10.0427 54.2386 10.1927L54.3186 10.5727C54.4086 10.4727 54.5019 10.381 54.5986 10.2977C54.6986 10.2143 54.8036 10.1427 54.9136 10.0827C55.0269 10.0227 55.1469 9.97599 55.2736 9.94266C55.4036 9.90599 55.5453 9.88766 55.6986 9.88766C56.0219 9.88766 56.2869 9.97599 56.4936 10.1527C56.7036 10.326 56.8603 10.5577 56.9636 10.8477C57.0436 10.6777 57.1436 10.5327 57.2636 10.4127C57.3836 10.2893 57.5153 10.1893 57.6586 10.1127C57.8019 10.036 57.9536 9.97932 58.1136 9.94266C58.2769 9.90599 58.4403 9.88766 58.6036 9.88766C58.8869 9.88766 59.1386 9.93099 59.3586 10.0177C59.5786 10.1043 59.7636 10.231 59.9136 10.3977C60.0636 10.5643 60.1769 10.7677 60.2536 11.0077C60.3336 11.2477 60.3736 11.5227 60.3736 11.8327V15.0977H59.1386V11.8327C59.1386 11.506 59.0669 11.261 58.9236 11.0977C58.7803 10.931 58.5703 10.8477 58.2936 10.8477C58.1669 10.8477 58.0486 10.8693 57.9386 10.9127C57.8319 10.956 57.7369 11.0193 57.6536 11.1027C57.5736 11.1827 57.5103 11.2843 57.4636 11.4077C57.4169 11.531 57.3936 11.6727 57.3936 11.8327V15.0977H56.1536V11.8327C56.1536 11.4893 56.0836 11.2393 55.9436 11.0827C55.8069 10.926 55.6053 10.8477 55.3386 10.8477C55.1586 10.8477 54.9903 10.8927 54.8336 10.9827C54.6803 11.0693 54.5369 11.1893 54.4036 11.3427V15.0977H53.1686ZM64.8525 11.9427C64.8525 11.7827 64.8292 11.6327 64.7825 11.4927C64.7392 11.3493 64.6725 11.2243 64.5825 11.1177C64.4925 11.011 64.3775 10.9277 64.2375 10.8677C64.1008 10.8043 63.9408 10.7727 63.7575 10.7727C63.4008 10.7727 63.1192 10.8743 62.9125 11.0777C62.7092 11.281 62.5792 11.5693 62.5225 11.9427H64.8525ZM62.4975 12.6877C62.5175 12.951 62.5642 13.1793 62.6375 13.3727C62.7108 13.5627 62.8075 13.721 62.9275 13.8477C63.0475 13.971 63.1892 14.0643 63.3525 14.1277C63.5192 14.1877 63.7025 14.2177 63.9025 14.2177C64.1025 14.2177 64.2742 14.1943 64.4175 14.1477C64.5642 14.101 64.6908 14.0493 64.7975 13.9927C64.9075 13.936 65.0025 13.8843 65.0825 13.8377C65.1658 13.791 65.2458 13.7677 65.3225 13.7677C65.4258 13.7677 65.5025 13.806 65.5525 13.8827L65.9075 14.3327C65.7708 14.4927 65.6175 14.6277 65.4475 14.7377C65.2775 14.8443 65.0992 14.931 64.9125 14.9977C64.7292 15.061 64.5408 15.106 64.3475 15.1327C64.1575 15.1593 63.9725 15.1727 63.7925 15.1727C63.4358 15.1727 63.1042 15.1143 62.7975 14.9977C62.4908 14.8777 62.2242 14.7027 61.9975 14.4727C61.7708 14.2393 61.5925 13.9527 61.4625 13.6127C61.3325 13.2693 61.2675 12.8727 61.2675 12.4227C61.2675 12.0727 61.3242 11.7443 61.4375 11.4377C61.5508 11.1277 61.7125 10.8593 61.9225 10.6327C62.1358 10.4027 62.3942 10.221 62.6975 10.0877C63.0042 9.95432 63.3492 9.88766 63.7325 9.88766C64.0558 9.88766 64.3542 9.93932 64.6275 10.0427C64.9008 10.146 65.1358 10.2977 65.3325 10.4977C65.5292 10.6943 65.6825 10.9377 65.7925 11.2277C65.9058 11.5143 65.9625 11.8427 65.9625 12.2127C65.9625 12.3993 65.9425 12.526 65.9025 12.5927C65.8625 12.656 65.7858 12.6877 65.6725 12.6877H62.4975ZM68.0443 10.5977C68.1476 10.4943 68.256 10.3993 68.3693 10.3127C68.486 10.2227 68.6076 10.1477 68.7343 10.0877C68.8643 10.0243 69.0026 9.97599 69.1493 9.94266C69.296 9.90599 69.456 9.88766 69.6293 9.88766C69.9093 9.88766 70.1576 9.93599 70.3743 10.0327C70.591 10.126 70.771 10.2593 70.9143 10.4327C71.061 10.6027 71.171 10.8077 71.2443 11.0477C71.321 11.2843 71.3593 11.546 71.3593 11.8327V15.0977H70.1243V11.8327C70.1243 11.5193 70.0526 11.2777 69.9093 11.1077C69.766 10.9343 69.5476 10.8477 69.2543 10.8477C69.041 10.8477 68.841 10.896 68.6543 10.9927C68.4676 11.0893 68.291 11.221 68.1243 11.3877V15.0977H66.8893V9.96766H67.6443C67.8043 9.96766 67.9093 10.0427 67.9593 10.1927L68.0443 10.5977ZM75.6638 10.9677C75.6305 11.021 75.5955 11.0593 75.5588 11.0827C75.5222 11.1027 75.4755 11.1127 75.4188 11.1127C75.3588 11.1127 75.2938 11.096 75.2238 11.0627C75.1572 11.0293 75.0788 10.9927 74.9888 10.9527C74.8988 10.9093 74.7955 10.871 74.6788 10.8377C74.5655 10.8043 74.4305 10.7877 74.2738 10.7877C74.0305 10.7877 73.8388 10.8393 73.6988 10.9427C73.5622 11.046 73.4938 11.181 73.4938 11.3477C73.4938 11.4577 73.5288 11.551 73.5988 11.6277C73.6722 11.701 73.7672 11.766 73.8838 11.8227C74.0038 11.8793 74.1388 11.931 74.2888 11.9777C74.4388 12.021 74.5905 12.0693 74.7438 12.1227C74.9005 12.176 75.0538 12.2377 75.2038 12.3077C75.3538 12.3743 75.4872 12.461 75.6038 12.5677C75.7238 12.671 75.8188 12.796 75.8888 12.9427C75.9622 13.0893 75.9988 13.266 75.9988 13.4727C75.9988 13.7193 75.9538 13.9477 75.8638 14.1577C75.7772 14.3643 75.6472 14.5443 75.4738 14.6977C75.3005 14.8477 75.0855 14.966 74.8288 15.0527C74.5755 15.136 74.2822 15.1777 73.9488 15.1777C73.7722 15.1777 73.5988 15.161 73.4288 15.1277C73.2622 15.0977 73.1005 15.0543 72.9438 14.9977C72.7905 14.941 72.6472 14.8743 72.5138 14.7977C72.3838 14.721 72.2688 14.6377 72.1688 14.5477L72.4538 14.0777C72.4905 14.021 72.5338 13.9777 72.5838 13.9477C72.6338 13.9177 72.6972 13.9027 72.7738 13.9027C72.8505 13.9027 72.9222 13.9243 72.9888 13.9677C73.0588 14.011 73.1388 14.0577 73.2288 14.1077C73.3188 14.1577 73.4238 14.2043 73.5438 14.2477C73.6672 14.291 73.8222 14.3127 74.0088 14.3127C74.1555 14.3127 74.2805 14.296 74.3838 14.2627C74.4905 14.226 74.5772 14.1793 74.6438 14.1227C74.7138 14.066 74.7638 14.001 74.7938 13.9277C74.8272 13.851 74.8438 13.7727 74.8438 13.6927C74.8438 13.5727 74.8072 13.4743 74.7338 13.3977C74.6638 13.321 74.5688 13.2543 74.4488 13.1977C74.3322 13.141 74.1972 13.091 74.0438 13.0477C73.8938 13.001 73.7388 12.951 73.5788 12.8977C73.4222 12.8443 73.2672 12.7827 73.1138 12.7127C72.9638 12.6393 72.8288 12.5477 72.7088 12.4377C72.5922 12.3277 72.4972 12.1927 72.4238 12.0327C72.3538 11.8727 72.3188 11.6793 72.3188 11.4527C72.3188 11.2427 72.3605 11.0427 72.4438 10.8527C72.5272 10.6627 72.6488 10.4977 72.8088 10.3577C72.9722 10.2143 73.1738 10.101 73.4138 10.0177C73.6572 9.93099 73.9372 9.88766 74.2538 9.88766C74.6072 9.88766 74.9288 9.94599 75.2188 10.0627C75.5088 10.1793 75.7505 10.3327 75.9438 10.5227L75.6638 10.9677ZM78.2084 9.96766V15.0977H76.9684V9.96766H78.2084ZM78.3784 8.47266C78.3784 8.57932 78.3567 8.67932 78.3134 8.77266C78.27 8.86599 78.2117 8.94766 78.1384 9.01766C78.0684 9.08766 77.985 9.14432 77.8884 9.18766C77.7917 9.22766 77.6884 9.24766 77.5784 9.24766C77.4717 9.24766 77.37 9.22766 77.2734 9.18766C77.18 9.14432 77.0984 9.08766 77.0284 9.01766C76.9584 8.94766 76.9017 8.86599 76.8584 8.77266C76.8184 8.67932 76.7984 8.57932 76.7984 8.47266C76.7984 8.36266 76.8184 8.25932 76.8584 8.16266C76.9017 8.06599 76.9584 7.98266 77.0284 7.91266C77.0984 7.84266 77.18 7.78766 77.2734 7.74766C77.37 7.70432 77.4717 7.68266 77.5784 7.68266C77.6884 7.68266 77.7917 7.70432 77.8884 7.74766C77.985 7.78766 78.0684 7.84266 78.1384 7.91266C78.2117 7.98266 78.27 8.06599 78.3134 8.16266C78.3567 8.25932 78.3784 8.36266 78.3784 8.47266ZM81.7374 9.88766C82.1174 9.88766 82.4624 9.94932 82.7724 10.0727C83.0858 10.196 83.3524 10.371 83.5724 10.5977C83.7958 10.8243 83.9674 11.101 84.0874 11.4277C84.2074 11.7543 84.2674 12.1193 84.2674 12.5227C84.2674 12.9293 84.2074 13.296 84.0874 13.6227C83.9674 13.9493 83.7958 14.2277 83.5724 14.4577C83.3524 14.6877 83.0858 14.8643 82.7724 14.9877C82.4624 15.111 82.1174 15.1727 81.7374 15.1727C81.3541 15.1727 81.0058 15.111 80.6924 14.9877C80.3791 14.8643 80.1108 14.6877 79.8874 14.4577C79.6674 14.2277 79.4958 13.9493 79.3724 13.6227C79.2524 13.296 79.1924 12.9293 79.1924 12.5227C79.1924 12.1193 79.2524 11.7543 79.3724 11.4277C79.4958 11.101 79.6674 10.8243 79.8874 10.5977C80.1108 10.371 80.3791 10.196 80.6924 10.0727C81.0058 9.94932 81.3541 9.88766 81.7374 9.88766ZM81.7374 14.2227C82.1641 14.2227 82.4791 14.0793 82.6824 13.7927C82.8891 13.506 82.9924 13.086 82.9924 12.5327C82.9924 11.9793 82.8891 11.5577 82.6824 11.2677C82.4791 10.9777 82.1641 10.8327 81.7374 10.8327C81.3041 10.8327 80.9824 10.9793 80.7724 11.2727C80.5658 11.5627 80.4624 11.9827 80.4624 12.5327C80.4624 13.0827 80.5658 13.5027 80.7724 13.7927C80.9824 14.0793 81.3041 14.2227 81.7374 14.2227ZM86.3646 10.5977C86.4679 10.4943 86.5763 10.3993 86.6896 10.3127C86.8063 10.2227 86.9279 10.1477 87.0546 10.0877C87.1846 10.0243 87.3229 9.97599 87.4696 9.94266C87.6163 9.90599 87.7763 9.88766 87.9496 9.88766C88.2296 9.88766 88.4779 9.93599 88.6946 10.0327C88.9113 10.126 89.0913 10.2593 89.2346 10.4327C89.3813 10.6027 89.4913 10.8077 89.5646 11.0477C89.6413 11.2843 89.6796 11.546 89.6796 11.8327V15.0977H88.4446V11.8327C88.4446 11.5193 88.3729 11.2777 88.2296 11.1077C88.0863 10.9343 87.8679 10.8477 87.5746 10.8477C87.3613 10.8477 87.1613 10.896 86.9746 10.9927C86.7879 11.0893 86.6113 11.221 86.4446 11.3877V15.0977H85.2096V9.96766H85.9646C86.1246 9.96766 86.2296 10.0427 86.2796 10.1927L86.3646 10.5977Z" fill="black"/>
<path d="M42.908 27.8183C43.5853 27.2743 44.116 26.829 44.5 26.4823C44.884 26.1303 45.2067 25.765 45.468 25.3863C45.7347 25.0023 45.868 24.6263 45.868 24.2583C45.868 23.9117 45.7827 23.6397 45.612 23.4423C45.4467 23.2397 45.1773 23.1383 44.804 23.1383C44.4413 23.1383 44.1587 23.253 43.956 23.4823C43.7587 23.7063 43.652 24.0077 43.636 24.3863H42.932C42.9533 23.789 43.1347 23.3277 43.476 23.0023C43.8173 22.677 44.2573 22.5143 44.796 22.5143C45.3453 22.5143 45.78 22.6663 46.1 22.9703C46.4253 23.2743 46.588 23.693 46.588 24.2263C46.588 24.669 46.4547 25.101 46.188 25.5223C45.9267 25.9383 45.628 26.3063 45.292 26.6263C44.956 26.941 44.5267 27.309 44.004 27.7303H46.756V28.3383H42.908V27.8183ZM47.5976 25.4503C47.5976 24.533 47.7469 23.8183 48.0456 23.3063C48.3442 22.789 48.8669 22.5303 49.6136 22.5303C50.3549 22.5303 50.8749 22.789 51.1736 23.3063C51.4722 23.8183 51.6216 24.533 51.6216 25.4503C51.6216 26.3837 51.4722 27.109 51.1736 27.6263C50.8749 28.1437 50.3549 28.4023 49.6136 28.4023C48.8669 28.4023 48.3442 28.1437 48.0456 27.6263C47.7469 27.109 47.5976 26.3837 47.5976 25.4503ZM50.9016 25.4503C50.9016 24.9863 50.8696 24.5943 50.8056 24.2743C50.7469 23.949 50.6216 23.6877 50.4296 23.4903C50.2429 23.293 49.9709 23.1943 49.6136 23.1943C49.2509 23.1943 48.9736 23.293 48.7816 23.4903C48.5949 23.6877 48.4696 23.949 48.4056 24.2743C48.3469 24.5943 48.3176 24.9863 48.3176 25.4503C48.3176 25.9303 48.3469 26.333 48.4056 26.6583C48.4696 26.9837 48.5949 27.245 48.7816 27.4423C48.9736 27.6397 49.2509 27.7383 49.6136 27.7383C49.9709 27.7383 50.2429 27.6397 50.4296 27.4423C50.6216 27.245 50.7469 26.9837 50.8056 26.6583C50.8696 26.333 50.9016 25.9303 50.9016 25.4503ZM52.621 25.4503C52.621 24.533 52.7703 23.8183 53.069 23.3063C53.3677 22.789 53.8903 22.5303 54.637 22.5303C55.3783 22.5303 55.8983 22.789 56.197 23.3063C56.4957 23.8183 56.645 24.533 56.645 25.4503C56.645 26.3837 56.4957 27.109 56.197 27.6263C55.8983 28.1437 55.3783 28.4023 54.637 28.4023C53.8903 28.4023 53.3677 28.1437 53.069 27.6263C52.7703 27.109 52.621 26.3837 52.621 25.4503ZM55.925 25.4503C55.925 24.9863 55.893 24.5943 55.829 24.2743C55.7703 23.949 55.645 23.6877 55.453 23.4903C55.2663 23.293 54.9943 23.1943 54.637 23.1943C54.2743 23.1943 53.997 23.293 53.805 23.4903C53.6183 23.6877 53.493 23.949 53.429 24.2743C53.3703 24.5943 53.341 24.9863 53.341 25.4503C53.341 25.9303 53.3703 26.333 53.429 26.6583C53.493 26.9837 53.6183 27.245 53.805 27.4423C53.997 27.6397 54.2743 27.7383 54.637 27.7383C54.9943 27.7383 55.2663 27.6397 55.453 27.4423C55.645 27.245 55.7703 26.9837 55.829 26.6583C55.893 26.333 55.925 25.9303 55.925 25.4503ZM60.4844 20.8663L58.2924 29.7623H57.5724L59.7564 20.8663H60.4844ZM61.2571 23.2823V22.6183H62.7611V28.4023H62.0251V23.2823H61.2571ZM67.6996 23.2503H64.8916V25.0743C65.0143 24.9037 65.1956 24.765 65.4356 24.6583C65.6756 24.5463 65.9343 24.4903 66.2116 24.4903C66.6543 24.4903 67.0143 24.5837 67.2916 24.7703C67.569 24.9517 67.7663 25.189 67.8836 25.4823C68.0063 25.7703 68.0676 26.077 68.0676 26.4023C68.0676 26.7863 67.9956 27.1303 67.8516 27.4343C67.7076 27.7383 67.4863 27.9783 67.1876 28.1543C66.8943 28.3303 66.529 28.4183 66.0916 28.4183C65.5316 28.4183 65.0783 28.2743 64.7316 27.9863C64.385 27.6983 64.1743 27.3143 64.0996 26.8343H64.8116C64.881 27.1383 65.0276 27.3757 65.2516 27.5463C65.4756 27.717 65.7583 27.8023 66.0996 27.8023C66.521 27.8023 66.8383 27.677 67.0516 27.4263C67.265 27.1703 67.3716 26.8343 67.3716 26.4183C67.3716 26.0023 67.265 25.6823 67.0516 25.4583C66.8383 25.229 66.5236 25.1143 66.1076 25.1143C65.825 25.1143 65.577 25.1837 65.3636 25.3223C65.1556 25.4557 65.0036 25.6397 64.9076 25.8743H64.2196V22.6103H67.6996V23.2503ZM69.0351 25.4503C69.0351 24.533 69.1844 23.8183 69.4831 23.3063C69.7817 22.789 70.3044 22.5303 71.0511 22.5303C71.7924 22.5303 72.3124 22.789 72.6111 23.3063C72.9097 23.8183 73.0591 24.533 73.0591 25.4503C73.0591 26.3837 72.9097 27.109 72.6111 27.6263C72.3124 28.1437 71.7924 28.4023 71.0511 28.4023C70.3044 28.4023 69.7817 28.1437 69.4831 27.6263C69.1844 27.109 69.0351 26.3837 69.0351 25.4503ZM72.3391 25.4503C72.3391 24.9863 72.3071 24.5943 72.2431 24.2743C72.1844 23.949 72.0591 23.6877 71.8671 23.4903C71.6804 23.293 71.4084 23.1943 71.0511 23.1943C70.6884 23.1943 70.4111 23.293 70.2191 23.4903C70.0324 23.6877 69.9071 23.949 69.8431 24.2743C69.7844 24.5943 69.7551 24.9863 69.7551 25.4503C69.7551 25.9303 69.7844 26.333 69.8431 26.6583C69.9071 26.9837 70.0324 27.245 70.2191 27.4423C70.4111 27.6397 70.6884 27.7383 71.0511 27.7383C71.4084 27.7383 71.6804 27.6397 71.8671 27.4423C72.0591 27.245 72.1844 26.9837 72.2431 26.6583C72.3071 26.333 72.3391 25.9303 72.3391 25.4503ZM79.5433 27.2023L78.2713 25.9303L76.9993 27.2023L76.5193 26.7223L77.7913 25.4503L76.5433 24.2023L77.0073 23.7303L78.2633 24.9863L79.5193 23.7303L79.9993 24.2103L78.7433 25.4663L80.0073 26.7383L79.5433 27.2023ZM83.2728 23.2823V22.6183H84.7768V28.4023H84.0408V23.2823H83.2728ZM89.5873 23.1863L87.3633 28.4023H86.6273L88.8833 23.2583H85.7952V22.6343H89.5873V23.1863ZM91.4504 25.3943C91.1518 25.277 90.9224 25.1063 90.7624 24.8823C90.6024 24.6583 90.5224 24.3863 90.5224 24.0663C90.5224 23.7783 90.5944 23.5197 90.7384 23.2903C90.8824 23.0557 91.0958 22.8717 91.3784 22.7383C91.6664 22.5997 92.0131 22.5303 92.4184 22.5303C92.8238 22.5303 93.1678 22.5997 93.4504 22.7383C93.7384 22.8717 93.9544 23.0557 94.0984 23.2903C94.2478 23.5197 94.3224 23.7783 94.3224 24.0663C94.3224 24.3757 94.2398 24.6477 94.0744 24.8823C93.9091 25.1117 93.6824 25.2823 93.3944 25.3943C93.7251 25.4957 93.9864 25.6743 94.1784 25.9303C94.3758 26.181 94.4744 26.485 94.4744 26.8423C94.4744 27.189 94.3891 27.493 94.2184 27.7543C94.0478 28.0103 93.8051 28.2103 93.4904 28.3543C93.1811 28.493 92.8238 28.5623 92.4184 28.5623C92.0131 28.5623 91.6558 28.493 91.3464 28.3543C91.0424 28.2103 90.8051 28.0103 90.6344 27.7543C90.4638 27.493 90.3784 27.189 90.3784 26.8423C90.3784 26.485 90.4744 26.1783 90.6664 25.9223C90.8584 25.6663 91.1198 25.4903 91.4504 25.3943ZM93.6184 24.1543C93.6184 23.829 93.5118 23.5783 93.2984 23.4023C93.0851 23.2263 92.7918 23.1383 92.4184 23.1383C92.0504 23.1383 91.7598 23.2263 91.5464 23.4023C91.3331 23.5783 91.2264 23.8317 91.2264 24.1623C91.2264 24.461 91.3358 24.701 91.5544 24.8823C91.7784 25.0637 92.0664 25.1543 92.4184 25.1543C92.7758 25.1543 93.0638 25.0637 93.2824 24.8823C93.5064 24.6957 93.6184 24.453 93.6184 24.1543ZM92.4184 25.7143C92.0238 25.7143 91.7011 25.8077 91.4504 25.9943C91.1998 26.1757 91.0744 26.4503 91.0744 26.8183C91.0744 27.1597 91.1944 27.4343 91.4344 27.6423C91.6798 27.8503 92.0078 27.9543 92.4184 27.9543C92.8291 27.9543 93.1544 27.8503 93.3944 27.6423C93.6344 27.4343 93.7544 27.1597 93.7544 26.8183C93.7544 26.461 93.6318 26.189 93.3864 26.0023C93.1411 25.8103 92.8184 25.7143 92.4184 25.7143ZM98.2813 20.8663L96.0893 29.7623H95.3693L97.5533 20.8663H98.2813ZM99.054 23.2823V22.6183H100.558V28.4023H99.822V23.2823H99.054ZM101.721 27.8183C102.398 27.2743 102.929 26.829 103.312 26.4823C103.697 26.1303 104.019 25.765 104.281 25.3863C104.547 25.0023 104.681 24.6263 104.681 24.2583C104.681 23.9117 104.595 23.6397 104.425 23.4423C104.259 23.2397 103.99 23.1383 103.617 23.1383C103.254 23.1383 102.971 23.253 102.769 23.4823C102.571 23.7063 102.465 24.0077 102.449 24.3863H101.745C101.766 23.789 101.947 23.3277 102.289 23.0023C102.63 22.677 103.07 22.5143 103.609 22.5143C104.158 22.5143 104.593 22.6663 104.913 22.9703C105.238 23.2743 105.401 23.693 105.401 24.2263C105.401 24.669 105.267 25.101 105.001 25.5223C104.739 25.9383 104.441 26.3063 104.105 26.6263C103.769 26.941 103.339 27.309 102.817 27.7303H105.569V28.3383H101.721V27.8183ZM109.97 23.1863L107.746 28.4023H107.01L109.266 23.2583H106.178V22.6343H109.97V23.1863ZM116.262 27.2023L114.99 25.9303L113.718 27.2023L113.238 26.7223L114.51 25.4503L113.262 24.2023L113.726 23.7303L114.982 24.9863L116.238 23.7303L116.718 24.2103L115.462 25.4663L116.726 26.7383L116.262 27.2023ZM120.008 27.1143V26.5623L122.816 22.6743H123.688V26.4823H124.488V27.1143H123.688V28.4023H122.968V27.1143H120.008ZM123 23.4343L120.848 26.4823H123V23.4343ZM125.039 27.1143V26.5623L127.847 22.6743H128.719V26.4823H129.519V27.1143H128.719V28.4023H127.999V27.1143H125.039ZM128.031 23.4343L125.879 26.4823H128.031V23.4343ZM135.638 23.9383C135.979 23.9383 136.283 24.0103 136.55 24.1543C136.817 24.293 137.027 24.5037 137.182 24.7863C137.337 25.069 137.414 25.413 137.414 25.8183V28.4023H136.694V25.9223C136.694 25.485 136.585 25.1517 136.366 24.9223C136.153 24.6877 135.862 24.5703 135.494 24.5703C135.115 24.5703 134.814 24.693 134.59 24.9383C134.366 25.1783 134.254 25.5277 134.254 25.9863V28.4023H133.534V25.9223C133.534 25.485 133.425 25.1517 133.206 24.9223C132.993 24.6877 132.702 24.5703 132.334 24.5703C131.955 24.5703 131.654 24.693 131.43 24.9383C131.206 25.1783 131.094 25.5277 131.094 25.9863V28.4023H130.366V24.0183H131.094V24.6503C131.238 24.421 131.43 24.245 131.67 24.1223C131.915 23.9997 132.185 23.9383 132.478 23.9383C132.846 23.9383 133.171 24.021 133.454 24.1863C133.737 24.3517 133.947 24.5943 134.086 24.9143C134.209 24.605 134.411 24.365 134.694 24.1943C134.977 24.0237 135.291 23.9383 135.638 23.9383ZM143.88 23.9383C144.222 23.9383 144.526 24.0103 144.792 24.1543C145.059 24.293 145.27 24.5037 145.424 24.7863C145.579 25.069 145.656 25.413 145.656 25.8183V28.4023H144.936V25.9223C144.936 25.485 144.827 25.1517 144.608 24.9223C144.395 24.6877 144.104 24.5703 143.736 24.5703C143.358 24.5703 143.056 24.693 142.832 24.9383C142.608 25.1783 142.496 25.5277 142.496 25.9863V28.4023H141.776V25.9223C141.776 25.485 141.667 25.1517 141.448 24.9223C141.235 24.6877 140.944 24.5703 140.576 24.5703C140.198 24.5703 139.896 24.693 139.672 24.9383C139.448 25.1783 139.336 25.5277 139.336 25.9863V28.4023H138.608V24.0183H139.336V24.6503C139.48 24.421 139.672 24.245 139.912 24.1223C140.158 23.9997 140.427 23.9383 140.72 23.9383C141.088 23.9383 141.414 24.021 141.696 24.1863C141.979 24.3517 142.19 24.5943 142.328 24.9143C142.451 24.605 142.654 24.365 142.936 24.1943C143.219 24.0237 143.534 23.9383 143.88 23.9383Z" fill="black" fill-opacity="0.59"/>
</svg>
