<svg width="393" height="26" viewBox="0 0 393 26" fill="none" xmlns="http://www.w3.org/2000/svg">
<path d="M5.61982 2.69014C5.42649 2.28347 5.14649 1.97014 4.77982 1.75014C4.41316 1.52347 3.98649 1.41014 3.49982 1.41014C3.01316 1.41014 2.57316 1.52347 2.17982 1.75014C1.79316 1.97014 1.48649 2.29014 1.25982 2.71014C1.03982 3.12347 0.929824 3.60347 0.929824 4.15014C0.929824 4.6968 1.03982 5.1768 1.25982 5.59014C1.48649 6.00347 1.79316 6.32347 2.17982 6.55014C2.57316 6.77014 3.01316 6.88014 3.49982 6.88014C4.17982 6.88014 4.73982 6.6768 5.17982 6.27014C5.61982 5.86347 5.87649 5.31347 5.94982 4.62014H3.16982V3.88014H6.91982V4.58014C6.86649 5.15347 6.68649 5.68014 6.37982 6.16014C6.07316 6.63347 5.66982 7.01014 5.16982 7.29014C4.66982 7.56347 4.11316 7.70014 3.49982 7.70014C2.85316 7.70014 2.26316 7.55014 1.72982 7.25014C1.19649 6.94347 0.773158 6.52014 0.459824 5.98014C0.153158 5.44014 -0.000175767 4.83014 -0.000175767 4.15014C-0.000175767 3.47014 0.153158 2.86014 0.459824 2.32014C0.773158 1.77347 1.19649 1.35014 1.72982 1.05014C2.26316 0.74347 2.85316 0.590136 3.49982 0.590136C4.23982 0.590136 4.89316 0.77347 5.45982 1.14014C6.03316 1.5068 6.44982 2.02347 6.70982 2.69014H5.61982ZM9.03303 3.05014C9.19303 2.7368 9.41969 2.49347 9.71303 2.32014C10.013 2.1468 10.3764 2.06014 10.803 2.06014V3.00014H10.563C9.54303 3.00014 9.03303 3.55347 9.03303 4.66014V7.64014H8.12303V2.16014H9.03303V3.05014ZM16.8535 4.69014C16.8535 4.86347 16.8435 5.0468 16.8235 5.24014H12.4435C12.4768 5.78014 12.6602 6.20347 12.9935 6.51014C13.3335 6.81014 13.7435 6.96014 14.2235 6.96014C14.6168 6.96014 14.9435 6.87014 15.2035 6.69014C15.4702 6.50347 15.6568 6.2568 15.7635 5.95014H16.7435C16.5968 6.4768 16.3035 6.9068 15.8635 7.24014C15.4235 7.5668 14.8768 7.73014 14.2235 7.73014C13.7035 7.73014 13.2368 7.61347 12.8235 7.38014C12.4168 7.1468 12.0968 6.8168 11.8635 6.39014C11.6302 5.9568 11.5135 5.4568 11.5135 4.89014C11.5135 4.32347 11.6268 3.8268 11.8535 3.40014C12.0802 2.97347 12.3968 2.6468 12.8035 2.42014C13.2168 2.1868 13.6902 2.07014 14.2235 2.07014C14.7435 2.07014 15.2035 2.18347 15.6035 2.41014C16.0035 2.6368 16.3102 2.95014 16.5235 3.35014C16.7435 3.74347 16.8535 4.19014 16.8535 4.69014ZM15.9135 4.50014C15.9135 4.15347 15.8368 3.8568 15.6835 3.61014C15.5302 3.3568 15.3202 3.1668 15.0535 3.04014C14.7935 2.9068 14.5035 2.84014 14.1835 2.84014C13.7235 2.84014 13.3302 2.9868 13.0035 3.28014C12.6835 3.57347 12.5002 3.98014 12.4535 4.50014H15.9135ZM17.7147 4.88014C17.7147 4.32014 17.828 3.83014 18.0547 3.41014C18.2813 2.98347 18.5913 2.65347 18.9847 2.42014C19.3847 2.1868 19.828 2.07014 20.3147 2.07014C20.7947 2.07014 21.2113 2.17347 21.5647 2.38014C21.918 2.5868 22.1813 2.8468 22.3547 3.16014V2.16014H23.2747V7.64014H22.3547V6.62014C22.1747 6.94014 21.9047 7.2068 21.5447 7.42014C21.1913 7.6268 20.778 7.73014 20.3047 7.73014C19.818 7.73014 19.378 7.61014 18.9847 7.37014C18.5913 7.13014 18.2813 6.79347 18.0547 6.36014C17.828 5.9268 17.7147 5.43347 17.7147 4.88014ZM22.3547 4.89014C22.3547 4.4768 22.2713 4.1168 22.1047 3.81014C21.938 3.50347 21.7113 3.27014 21.4247 3.11014C21.1447 2.94347 20.8347 2.86014 20.4947 2.86014C20.1547 2.86014 19.8447 2.94014 19.5647 3.10014C19.2847 3.26014 19.0613 3.49347 18.8947 3.80014C18.728 4.1068 18.6447 4.4668 18.6447 4.88014C18.6447 5.30014 18.728 5.6668 18.8947 5.98014C19.0613 6.2868 19.2847 6.52347 19.5647 6.69014C19.8447 6.85014 20.1547 6.93014 20.4947 6.93014C20.8347 6.93014 21.1447 6.85014 21.4247 6.69014C21.7113 6.52347 21.938 6.2868 22.1047 5.98014C22.2713 5.6668 22.3547 5.30347 22.3547 4.89014ZM25.9225 2.91014V6.14014C25.9225 6.4068 25.9791 6.5968 26.0925 6.71014C26.2058 6.8168 26.4025 6.87014 26.6825 6.87014H27.3525V7.64014H26.5325C26.0258 7.64014 25.6458 7.52347 25.3925 7.29014C25.1391 7.0568 25.0125 6.67347 25.0125 6.14014V2.91014H24.3025V2.16014H25.0125V0.780136H25.9225V2.16014H27.3525V2.91014H25.9225ZM33.3511 2.91014H32.2011V7.64014H31.2911V2.91014H30.5811V2.16014H31.2911V1.77014C31.2911 1.1568 31.4477 0.710137 31.7611 0.430137C32.0811 0.14347 32.5911 0.000136137 33.2911 0.000136137V0.760136C32.8911 0.760136 32.6077 0.840136 32.4411 1.00014C32.2811 1.15347 32.2011 1.41014 32.2011 1.77014V2.16014H33.3511V2.91014ZM36.8021 7.73014C36.2888 7.73014 35.8221 7.61347 35.4021 7.38014C34.9888 7.1468 34.6621 6.8168 34.4221 6.39014C34.1888 5.9568 34.0721 5.4568 34.0721 4.89014C34.0721 4.33014 34.1921 3.8368 34.4321 3.41014C34.6788 2.9768 35.0121 2.6468 35.4321 2.42014C35.8521 2.1868 36.3221 2.07014 36.8421 2.07014C37.3621 2.07014 37.8321 2.1868 38.2521 2.42014C38.6721 2.6468 39.0021 2.97347 39.2421 3.40014C39.4888 3.8268 39.6121 4.32347 39.6121 4.89014C39.6121 5.4568 39.4854 5.9568 39.2321 6.39014C38.9854 6.8168 38.6488 7.1468 38.2221 7.38014C37.7954 7.61347 37.3221 7.73014 36.8021 7.73014ZM36.8021 6.93014C37.1288 6.93014 37.4354 6.85347 37.7221 6.70014C38.0088 6.5468 38.2388 6.3168 38.4121 6.01014C38.5921 5.70347 38.6821 5.33014 38.6821 4.89014C38.6821 4.45014 38.5954 4.0768 38.4221 3.77014C38.2488 3.46347 38.0221 3.2368 37.7421 3.09014C37.4621 2.9368 37.1588 2.86014 36.8321 2.86014C36.4988 2.86014 36.1921 2.9368 35.9121 3.09014C35.6388 3.2368 35.4188 3.46347 35.2521 3.77014C35.0854 4.0768 35.0021 4.45014 35.0021 4.89014C35.0021 5.3368 35.0821 5.71347 35.2421 6.02014C35.4088 6.3268 35.6288 6.5568 35.9021 6.71014C36.1754 6.8568 36.4754 6.93014 36.8021 6.93014ZM41.7186 3.05014C41.8786 2.7368 42.1052 2.49347 42.3986 2.32014C42.6986 2.1468 43.0619 2.06014 43.4886 2.06014V3.00014H43.2486C42.2286 3.00014 41.7186 3.55347 41.7186 4.66014V7.64014H40.8086V2.16014H41.7186V3.05014ZM49.4651 2.07014C49.9384 2.07014 50.3517 2.17347 50.7051 2.38014C51.0651 2.5868 51.3317 2.8468 51.5051 3.16014V2.16014H52.4251V7.76014C52.4251 8.26014 52.3184 8.70347 52.1051 9.09014C51.8917 9.48347 51.5851 9.79014 51.1851 10.0101C50.7917 10.2301 50.3317 10.3401 49.8051 10.3401C49.0851 10.3401 48.4851 10.1701 48.0051 9.83014C47.5251 9.49014 47.2417 9.0268 47.1551 8.44014H48.0551C48.1551 8.77347 48.3617 9.04014 48.6751 9.24014C48.9884 9.4468 49.3651 9.55014 49.8051 9.55014C50.3051 9.55014 50.7117 9.39347 51.0251 9.08014C51.3451 8.7668 51.5051 8.3268 51.5051 7.76014V6.61014C51.3251 6.93014 51.0584 7.1968 50.7051 7.41014C50.3517 7.62347 49.9384 7.73014 49.4651 7.73014C48.9784 7.73014 48.5351 7.61014 48.1351 7.37014C47.7417 7.13014 47.4317 6.79347 47.2051 6.36014C46.9784 5.9268 46.8651 5.43347 46.8651 4.88014C46.8651 4.32014 46.9784 3.83014 47.2051 3.41014C47.4317 2.98347 47.7417 2.65347 48.1351 2.42014C48.5351 2.1868 48.9784 2.07014 49.4651 2.07014ZM51.5051 4.89014C51.5051 4.4768 51.4217 4.1168 51.2551 3.81014C51.0884 3.50347 50.8617 3.27014 50.5751 3.11014C50.2951 2.94347 49.9851 2.86014 49.6451 2.86014C49.3051 2.86014 48.9951 2.94014 48.7151 3.10014C48.4351 3.26014 48.2117 3.49347 48.0451 3.80014C47.8784 4.1068 47.7951 4.4668 47.7951 4.88014C47.7951 5.30014 47.8784 5.6668 48.0451 5.98014C48.2117 6.2868 48.4351 6.52347 48.7151 6.69014C48.9951 6.85014 49.3051 6.93014 49.6451 6.93014C49.9851 6.93014 50.2951 6.85014 50.5751 6.69014C50.8617 6.52347 51.0884 6.2868 51.2551 5.98014C51.4217 5.6668 51.5051 5.30347 51.5051 4.89014ZM54.8729 3.05014C55.0329 2.7368 55.2595 2.49347 55.5529 2.32014C55.8529 2.1468 56.2162 2.06014 56.6429 2.06014V3.00014H56.4029C55.3829 3.00014 54.8729 3.55347 54.8729 4.66014V7.64014H53.9629V2.16014H54.8729V3.05014ZM57.3533 4.88014C57.3533 4.32014 57.4667 3.83014 57.6933 3.41014C57.92 2.98347 58.23 2.65347 58.6233 2.42014C59.0233 2.1868 59.4667 2.07014 59.9533 2.07014C60.4333 2.07014 60.85 2.17347 61.2033 2.38014C61.5567 2.5868 61.82 2.8468 61.9933 3.16014V2.16014H62.9133V7.64014H61.9933V6.62014C61.8133 6.94014 61.5433 7.2068 61.1833 7.42014C60.83 7.6268 60.4167 7.73014 59.9433 7.73014C59.4567 7.73014 59.0167 7.61014 58.6233 7.37014C58.23 7.13014 57.92 6.79347 57.6933 6.36014C57.4667 5.9268 57.3533 5.43347 57.3533 4.88014ZM61.9933 4.89014C61.9933 4.4768 61.91 4.1168 61.7433 3.81014C61.5767 3.50347 61.35 3.27014 61.0633 3.11014C60.7833 2.94347 60.4733 2.86014 60.1333 2.86014C59.7933 2.86014 59.4833 2.94014 59.2033 3.10014C58.9233 3.26014 58.7 3.49347 58.5333 3.80014C58.3667 4.1068 58.2833 4.4668 58.2833 4.88014C58.2833 5.30014 58.3667 5.6668 58.5333 5.98014C58.7 6.2868 58.9233 6.52347 59.2033 6.69014C59.4833 6.85014 59.7933 6.93014 60.1333 6.93014C60.4733 6.93014 60.7833 6.85014 61.0633 6.69014C61.35 6.52347 61.5767 6.2868 61.7433 5.98014C61.91 5.6668 61.9933 5.30347 61.9933 4.89014ZM66.4912 6.80014L68.1912 2.16014H69.1612L67.0112 7.64014H65.9512L63.8012 2.16014H64.7812L66.4912 6.80014ZM74.7766 2.16014L71.4766 10.2201H70.5366L71.6166 7.58014L69.4066 2.16014H70.4166L72.1366 6.60014L73.8366 2.16014H74.7766ZM79.2674 3.17014C79.4474 2.8568 79.7141 2.5968 80.0674 2.39014C80.4274 2.1768 80.8441 2.07014 81.3174 2.07014C81.8041 2.07014 82.2441 2.1868 82.6374 2.42014C83.0374 2.65347 83.3507 2.98347 83.5774 3.41014C83.8041 3.83014 83.9174 4.32014 83.9174 4.88014C83.9174 5.43347 83.8041 5.9268 83.5774 6.36014C83.3507 6.79347 83.0374 7.13014 82.6374 7.37014C82.2441 7.61014 81.8041 7.73014 81.3174 7.73014C80.8507 7.73014 80.4374 7.6268 80.0774 7.42014C79.7241 7.2068 79.4541 6.94347 79.2674 6.63014V10.2401H78.3574V2.16014H79.2674V3.17014ZM82.9874 4.88014C82.9874 4.4668 82.9041 4.1068 82.7374 3.80014C82.5707 3.49347 82.3441 3.26014 82.0574 3.10014C81.7774 2.94014 81.4674 2.86014 81.1274 2.86014C80.7941 2.86014 80.4841 2.94347 80.1974 3.11014C79.9174 3.27014 79.6907 3.5068 79.5174 3.82014C79.3507 4.1268 79.2674 4.48347 79.2674 4.89014C79.2674 5.30347 79.3507 5.6668 79.5174 5.98014C79.6907 6.2868 79.9174 6.52347 80.1974 6.69014C80.4841 6.85014 80.7941 6.93014 81.1274 6.93014C81.4674 6.93014 81.7774 6.85014 82.0574 6.69014C82.3441 6.52347 82.5707 6.2868 82.7374 5.98014C82.9041 5.6668 82.9874 5.30014 82.9874 4.88014ZM87.5052 7.73014C86.9919 7.73014 86.5252 7.61347 86.1052 7.38014C85.6919 7.1468 85.3652 6.8168 85.1252 6.39014C84.8919 5.9568 84.7752 5.4568 84.7752 4.89014C84.7752 4.33014 84.8952 3.8368 85.1352 3.41014C85.3819 2.9768 85.7152 2.6468 86.1352 2.42014C86.5552 2.1868 87.0252 2.07014 87.5452 2.07014C88.0652 2.07014 88.5352 2.1868 88.9552 2.42014C89.3752 2.6468 89.7052 2.97347 89.9452 3.40014C90.1919 3.8268 90.3152 4.32347 90.3152 4.89014C90.3152 5.4568 90.1885 5.9568 89.9352 6.39014C89.6885 6.8168 89.3519 7.1468 88.9252 7.38014C88.4985 7.61347 88.0252 7.73014 87.5052 7.73014ZM87.5052 6.93014C87.8319 6.93014 88.1385 6.85347 88.4252 6.70014C88.7119 6.5468 88.9419 6.3168 89.1152 6.01014C89.2952 5.70347 89.3852 5.33014 89.3852 4.89014C89.3852 4.45014 89.2985 4.0768 89.1252 3.77014C88.9519 3.46347 88.7252 3.2368 88.4452 3.09014C88.1652 2.9368 87.8619 2.86014 87.5352 2.86014C87.2019 2.86014 86.8952 2.9368 86.6152 3.09014C86.3419 3.2368 86.1219 3.46347 85.9552 3.77014C85.7885 4.0768 85.7052 4.45014 85.7052 4.89014C85.7052 5.3368 85.7852 5.71347 85.9452 6.02014C86.1119 6.3268 86.3319 6.5568 86.6052 6.71014C86.8785 6.8568 87.1785 6.93014 87.5052 6.93014ZM92.4217 3.05014C92.5817 2.7368 92.8084 2.49347 93.1017 2.32014C93.4017 2.1468 93.765 2.06014 94.1917 2.06014V3.00014H93.9517C92.9317 3.00014 92.4217 3.55347 92.4217 4.66014V7.64014H91.5117V2.16014H92.4217V3.05014ZM96.3522 2.91014V6.14014C96.3522 6.4068 96.4088 6.5968 96.5222 6.71014C96.6355 6.8168 96.8322 6.87014 97.1122 6.87014H97.7822V7.64014H96.9622C96.4555 7.64014 96.0755 7.52347 95.8222 7.29014C95.5688 7.0568 95.4422 6.67347 95.4422 6.14014V2.91014H94.7322V2.16014H95.4422V0.780136H96.3522V2.16014H97.7822V2.91014H96.3522ZM99.3547 1.27014C99.1814 1.27014 99.0347 1.21014 98.9147 1.09014C98.7947 0.970136 98.7347 0.82347 98.7347 0.650136C98.7347 0.476803 98.7947 0.330136 98.9147 0.210136C99.0347 0.0901364 99.1814 0.0301363 99.3547 0.0301363C99.5214 0.0301363 99.6614 0.0901364 99.7747 0.210136C99.8947 0.330136 99.9547 0.476803 99.9547 0.650136C99.9547 0.82347 99.8947 0.970136 99.7747 1.09014C99.6614 1.21014 99.5214 1.27014 99.3547 1.27014ZM99.7947 2.16014V7.64014H98.8847V2.16014H99.7947ZM103.736 7.73014C103.222 7.73014 102.756 7.61347 102.336 7.38014C101.922 7.1468 101.596 6.8168 101.356 6.39014C101.122 5.9568 101.006 5.4568 101.006 4.89014C101.006 4.33014 101.126 3.8368 101.366 3.41014C101.612 2.9768 101.946 2.6468 102.366 2.42014C102.786 2.1868 103.256 2.07014 103.776 2.07014C104.296 2.07014 104.766 2.1868 105.186 2.42014C105.606 2.6468 105.936 2.97347 106.176 3.40014C106.422 3.8268 106.546 4.32347 106.546 4.89014C106.546 5.4568 106.419 5.9568 106.166 6.39014C105.919 6.8168 105.582 7.1468 105.156 7.38014C104.729 7.61347 104.256 7.73014 103.736 7.73014ZM103.736 6.93014C104.062 6.93014 104.369 6.85347 104.656 6.70014C104.942 6.5468 105.172 6.3168 105.346 6.01014C105.526 5.70347 105.616 5.33014 105.616 4.89014C105.616 4.45014 105.529 4.0768 105.356 3.77014C105.182 3.46347 104.956 3.2368 104.676 3.09014C104.396 2.9368 104.092 2.86014 103.766 2.86014C103.432 2.86014 103.126 2.9368 102.846 3.09014C102.572 3.2368 102.352 3.46347 102.186 3.77014C102.019 4.0768 101.936 4.45014 101.936 4.89014C101.936 5.3368 102.016 5.71347 102.176 6.02014C102.342 6.3268 102.562 6.5568 102.836 6.71014C103.109 6.8568 103.409 6.93014 103.736 6.93014ZM110.412 2.06014C111.079 2.06014 111.619 2.26347 112.032 2.67014C112.446 3.07014 112.652 3.65014 112.652 4.41014V7.64014H111.752V4.54014C111.752 3.99347 111.616 3.5768 111.342 3.29014C111.069 2.9968 110.696 2.85014 110.222 2.85014C109.742 2.85014 109.359 3.00014 109.072 3.30014C108.792 3.60014 108.652 4.0368 108.652 4.61014V7.64014H107.742V2.16014H108.652V2.94014C108.832 2.66014 109.076 2.44347 109.382 2.29014C109.696 2.1368 110.039 2.06014 110.412 2.06014ZM116.079 7.73014C115.659 7.73014 115.282 7.66014 114.949 7.52014C114.615 7.37347 114.352 7.17347 114.159 6.92014C113.965 6.66014 113.859 6.36347 113.839 6.03014H114.779C114.805 6.30347 114.932 6.5268 115.159 6.70014C115.392 6.87347 115.695 6.96014 116.069 6.96014C116.415 6.96014 116.689 6.88347 116.889 6.73014C117.089 6.5768 117.189 6.38347 117.189 6.15014C117.189 5.91014 117.082 5.73347 116.869 5.62014C116.655 5.50014 116.325 5.38347 115.879 5.27014C115.472 5.16347 115.139 5.0568 114.879 4.95014C114.625 4.8368 114.405 4.67347 114.219 4.46014C114.039 4.24014 113.949 3.95347 113.949 3.60014C113.949 3.32014 114.032 3.06347 114.199 2.83014C114.365 2.5968 114.602 2.41347 114.909 2.28014C115.215 2.14014 115.565 2.07014 115.959 2.07014C116.565 2.07014 117.055 2.22347 117.429 2.53014C117.802 2.8368 118.002 3.2568 118.029 3.79014H117.119C117.099 3.50347 116.982 3.27347 116.769 3.10014C116.562 2.9268 116.282 2.84014 115.929 2.84014C115.602 2.84014 115.342 2.91014 115.149 3.05014C114.955 3.19014 114.859 3.37347 114.859 3.60014C114.859 3.78014 114.915 3.93014 115.029 4.05014C115.149 4.16347 115.295 4.2568 115.469 4.33014C115.649 4.3968 115.895 4.47347 116.209 4.56014C116.602 4.6668 116.922 4.77347 117.169 4.88014C117.415 4.98014 117.625 5.13347 117.799 5.34014C117.979 5.5468 118.072 5.8168 118.079 6.15014C118.079 6.45014 117.995 6.72014 117.829 6.96014C117.662 7.20014 117.425 7.39014 117.119 7.53014C116.819 7.66347 116.472 7.73014 116.079 7.73014ZM120.303 6.38014L119.183 9.07014H118.573L119.303 6.38014H120.303ZM124.922 3.17014C125.102 2.8568 125.368 2.5968 125.722 2.39014C126.082 2.1768 126.498 2.07014 126.972 2.07014C127.458 2.07014 127.898 2.1868 128.292 2.42014C128.692 2.65347 129.005 2.98347 129.232 3.41014C129.458 3.83014 129.572 4.32014 129.572 4.88014C129.572 5.43347 129.458 5.9268 129.232 6.36014C129.005 6.79347 128.692 7.13014 128.292 7.37014C127.898 7.61014 127.458 7.73014 126.972 7.73014C126.505 7.73014 126.092 7.6268 125.732 7.42014C125.378 7.2068 125.108 6.94347 124.922 6.63014V10.2401H124.012V2.16014H124.922V3.17014ZM128.642 4.88014C128.642 4.4668 128.558 4.1068 128.392 3.80014C128.225 3.49347 127.998 3.26014 127.712 3.10014C127.432 2.94014 127.122 2.86014 126.782 2.86014C126.448 2.86014 126.138 2.94347 125.852 3.11014C125.572 3.27014 125.345 3.5068 125.172 3.82014C125.005 4.1268 124.922 4.48347 124.922 4.89014C124.922 5.30347 125.005 5.6668 125.172 5.98014C125.345 6.2868 125.572 6.52347 125.852 6.69014C126.138 6.85014 126.448 6.93014 126.782 6.93014C127.122 6.93014 127.432 6.85014 127.712 6.69014C127.998 6.52347 128.225 6.2868 128.392 5.98014C128.558 5.6668 128.642 5.30014 128.642 4.88014ZM130.43 4.88014C130.43 4.32014 130.543 3.83014 130.77 3.41014C130.996 2.98347 131.306 2.65347 131.7 2.42014C132.1 2.1868 132.543 2.07014 133.03 2.07014C133.51 2.07014 133.926 2.17347 134.28 2.38014C134.633 2.5868 134.896 2.8468 135.07 3.16014V2.16014H135.99V7.64014H135.07V6.62014C134.89 6.94014 134.62 7.2068 134.26 7.42014C133.906 7.6268 133.493 7.73014 133.02 7.73014C132.533 7.73014 132.093 7.61014 131.7 7.37014C131.306 7.13014 130.996 6.79347 130.77 6.36014C130.543 5.9268 130.43 5.43347 130.43 4.88014ZM135.07 4.89014C135.07 4.4768 134.986 4.1168 134.82 3.81014C134.653 3.50347 134.426 3.27014 134.14 3.11014C133.86 2.94347 133.55 2.86014 133.21 2.86014C132.87 2.86014 132.56 2.94014 132.28 3.10014C132 3.26014 131.776 3.49347 131.61 3.80014C131.443 4.1068 131.36 4.4668 131.36 4.88014C131.36 5.30014 131.443 5.6668 131.61 5.98014C131.776 6.2868 132 6.52347 132.28 6.69014C132.56 6.85014 132.87 6.93014 133.21 6.93014C133.55 6.93014 133.86 6.85014 134.14 6.69014C134.426 6.52347 134.653 6.2868 134.82 5.98014C134.986 5.6668 135.07 5.30347 135.07 4.89014ZM139.467 7.73014C139.047 7.73014 138.671 7.66014 138.337 7.52014C138.004 7.37347 137.741 7.17347 137.547 6.92014C137.354 6.66014 137.247 6.36347 137.227 6.03014H138.167C138.194 6.30347 138.321 6.5268 138.547 6.70014C138.781 6.87347 139.084 6.96014 139.457 6.96014C139.804 6.96014 140.077 6.88347 140.277 6.73014C140.477 6.5768 140.577 6.38347 140.577 6.15014C140.577 5.91014 140.471 5.73347 140.257 5.62014C140.044 5.50014 139.714 5.38347 139.267 5.27014C138.861 5.16347 138.527 5.0568 138.267 4.95014C138.014 4.8368 137.794 4.67347 137.607 4.46014C137.427 4.24014 137.337 3.95347 137.337 3.60014C137.337 3.32014 137.421 3.06347 137.587 2.83014C137.754 2.5968 137.991 2.41347 138.297 2.28014C138.604 2.14014 138.954 2.07014 139.347 2.07014C139.954 2.07014 140.444 2.22347 140.817 2.53014C141.191 2.8368 141.391 3.2568 141.417 3.79014H140.507C140.487 3.50347 140.371 3.27347 140.157 3.10014C139.951 2.9268 139.671 2.84014 139.317 2.84014C138.991 2.84014 138.731 2.91014 138.537 3.05014C138.344 3.19014 138.247 3.37347 138.247 3.60014C138.247 3.78014 138.304 3.93014 138.417 4.05014C138.537 4.16347 138.684 4.2568 138.857 4.33014C139.037 4.3968 139.284 4.47347 139.597 4.56014C139.991 4.6668 140.311 4.77347 140.557 4.88014C140.804 4.98014 141.014 5.13347 141.187 5.34014C141.367 5.5468 141.461 5.8168 141.467 6.15014C141.467 6.45014 141.384 6.72014 141.217 6.96014C141.051 7.20014 140.814 7.39014 140.507 7.53014C140.207 7.66347 139.861 7.73014 139.467 7.73014ZM143.862 2.91014V6.14014C143.862 6.4068 143.919 6.5968 144.032 6.71014C144.145 6.8168 144.342 6.87014 144.622 6.87014H145.292V7.64014H144.472C143.965 7.64014 143.585 7.52347 143.332 7.29014C143.079 7.0568 142.952 6.67347 142.952 6.14014V2.91014H142.242V2.16014H142.952V0.780136H143.862V2.16014H145.292V2.91014H143.862ZM146.055 4.88014C146.055 4.32014 146.168 3.83014 146.395 3.41014C146.621 2.98347 146.931 2.65347 147.325 2.42014C147.725 2.1868 148.168 2.07014 148.655 2.07014C149.135 2.07014 149.551 2.17347 149.905 2.38014C150.258 2.5868 150.521 2.8468 150.695 3.16014V2.16014H151.615V7.64014H150.695V6.62014C150.515 6.94014 150.245 7.2068 149.885 7.42014C149.531 7.6268 149.118 7.73014 148.645 7.73014C148.158 7.73014 147.718 7.61014 147.325 7.37014C146.931 7.13014 146.621 6.79347 146.395 6.36014C146.168 5.9268 146.055 5.43347 146.055 4.88014ZM150.695 4.89014C150.695 4.4768 150.611 4.1168 150.445 3.81014C150.278 3.50347 150.051 3.27014 149.765 3.11014C149.485 2.94347 149.175 2.86014 148.835 2.86014C148.495 2.86014 148.185 2.94014 147.905 3.10014C147.625 3.26014 147.401 3.49347 147.235 3.80014C147.068 4.1068 146.985 4.4668 146.985 4.88014C146.985 5.30014 147.068 5.6668 147.235 5.98014C147.401 6.2868 147.625 6.52347 147.905 6.69014C148.185 6.85014 148.495 6.93014 148.835 6.93014C149.175 6.93014 149.485 6.85014 149.765 6.69014C150.051 6.52347 150.278 6.2868 150.445 5.98014C150.611 5.6668 150.695 5.30347 150.695 4.89014ZM154.092 6.38014L152.972 9.07014H152.362L153.092 6.38014H154.092ZM158.711 3.18014C158.897 2.85347 159.171 2.5868 159.531 2.38014C159.891 2.17347 160.301 2.07014 160.761 2.07014C161.254 2.07014 161.697 2.1868 162.091 2.42014C162.484 2.65347 162.794 2.98347 163.021 3.41014C163.247 3.83014 163.361 4.32014 163.361 4.88014C163.361 5.43347 163.247 5.9268 163.021 6.36014C162.794 6.79347 162.481 7.13014 162.081 7.37014C161.687 7.61014 161.247 7.73014 160.761 7.73014C160.287 7.73014 159.871 7.6268 159.511 7.42014C159.157 7.21347 158.891 6.95014 158.711 6.63014V7.64014H157.801V0.240137H158.711V3.18014ZM162.431 4.88014C162.431 4.4668 162.347 4.1068 162.181 3.80014C162.014 3.49347 161.787 3.26014 161.501 3.10014C161.221 2.94014 160.911 2.86014 160.571 2.86014C160.237 2.86014 159.927 2.94347 159.641 3.11014C159.361 3.27014 159.134 3.5068 158.961 3.82014C158.794 4.1268 158.711 4.48347 158.711 4.89014C158.711 5.30347 158.794 5.6668 158.961 5.98014C159.134 6.2868 159.361 6.52347 159.641 6.69014C159.927 6.85014 160.237 6.93014 160.571 6.93014C160.911 6.93014 161.221 6.85014 161.501 6.69014C161.787 6.52347 162.014 6.2868 162.181 5.98014C162.347 5.6668 162.431 5.30014 162.431 4.88014ZM165.029 1.27014C164.855 1.27014 164.709 1.21014 164.589 1.09014C164.469 0.970136 164.409 0.82347 164.409 0.650136C164.409 0.476803 164.469 0.330136 164.589 0.210136C164.709 0.0901364 164.855 0.0301363 165.029 0.0301363C165.195 0.0301363 165.335 0.0901364 165.449 0.210136C165.569 0.330136 165.629 0.476803 165.629 0.650136C165.629 0.82347 165.569 0.970136 165.449 1.09014C165.335 1.21014 165.195 1.27014 165.029 1.27014ZM165.469 2.16014V7.64014H164.559V2.16014H165.469ZM167.93 3.05014C168.09 2.7368 168.316 2.49347 168.61 2.32014C168.91 2.1468 169.273 2.06014 169.7 2.06014V3.00014H169.46C168.44 3.00014 167.93 3.55347 167.93 4.66014V7.64014H167.02V2.16014H167.93V3.05014ZM175.47 2.16014L172.17 10.2201H171.23L172.31 7.58014L170.1 2.16014H171.11L172.83 6.60014L174.53 2.16014H175.47ZM176.045 4.88014C176.045 4.32014 176.158 3.83014 176.385 3.41014C176.611 2.98347 176.921 2.65347 177.315 2.42014C177.715 2.1868 178.158 2.07014 178.645 2.07014C179.125 2.07014 179.541 2.17347 179.895 2.38014C180.248 2.5868 180.511 2.8468 180.685 3.16014V2.16014H181.605V7.64014H180.685V6.62014C180.505 6.94014 180.235 7.2068 179.875 7.42014C179.521 7.6268 179.108 7.73014 178.635 7.73014C178.148 7.73014 177.708 7.61014 177.315 7.37014C176.921 7.13014 176.611 6.79347 176.385 6.36014C176.158 5.9268 176.045 5.43347 176.045 4.88014ZM180.685 4.89014C180.685 4.4768 180.601 4.1168 180.435 3.81014C180.268 3.50347 180.041 3.27014 179.755 3.11014C179.475 2.94347 179.165 2.86014 178.825 2.86014C178.485 2.86014 178.175 2.94014 177.895 3.10014C177.615 3.26014 177.391 3.49347 177.225 3.80014C177.058 4.1068 176.975 4.4668 176.975 4.88014C176.975 5.30014 177.058 5.6668 177.225 5.98014C177.391 6.2868 177.615 6.52347 177.895 6.69014C178.175 6.85014 178.485 6.93014 178.825 6.93014C179.165 6.93014 179.475 6.85014 179.755 6.69014C180.041 6.52347 180.268 6.2868 180.435 5.98014C180.601 5.6668 180.685 5.30347 180.685 4.89014ZM185.813 2.06014C186.479 2.06014 187.019 2.26347 187.433 2.67014C187.846 3.07014 188.053 3.65014 188.053 4.41014V7.64014H187.153V4.54014C187.153 3.99347 187.016 3.5768 186.743 3.29014C186.469 2.9968 186.096 2.85014 185.623 2.85014C185.143 2.85014 184.759 3.00014 184.473 3.30014C184.193 3.60014 184.053 4.0368 184.053 4.61014V7.64014H183.143V2.16014H184.053V2.94014C184.233 2.66014 184.476 2.44347 184.783 2.29014C185.096 2.1368 185.439 2.06014 185.813 2.06014ZM190.009 1.27014C189.836 1.27014 189.689 1.21014 189.569 1.09014C189.449 0.970136 189.389 0.82347 189.389 0.650136C189.389 0.476803 189.449 0.330136 189.569 0.210136C189.689 0.0901364 189.836 0.0301363 190.009 0.0301363C190.176 0.0301363 190.316 0.0901364 190.429 0.210136C190.549 0.330136 190.609 0.476803 190.609 0.650136C190.609 0.82347 190.549 0.970136 190.429 1.09014C190.316 1.21014 190.176 1.27014 190.009 1.27014ZM190.449 2.16014V7.64014H189.539V2.16014H190.449ZM196.606 7.73014C196.186 7.73014 195.809 7.66014 195.476 7.52014C195.143 7.37347 194.879 7.17347 194.686 6.92014C194.493 6.66014 194.386 6.36347 194.366 6.03014H195.306C195.333 6.30347 195.459 6.5268 195.686 6.70014C195.919 6.87347 196.223 6.96014 196.596 6.96014C196.943 6.96014 197.216 6.88347 197.416 6.73014C197.616 6.5768 197.716 6.38347 197.716 6.15014C197.716 5.91014 197.609 5.73347 197.396 5.62014C197.183 5.50014 196.853 5.38347 196.406 5.27014C195.999 5.16347 195.666 5.0568 195.406 4.95014C195.153 4.8368 194.933 4.67347 194.746 4.46014C194.566 4.24014 194.476 3.95347 194.476 3.60014C194.476 3.32014 194.559 3.06347 194.726 2.83014C194.893 2.5968 195.129 2.41347 195.436 2.28014C195.743 2.14014 196.093 2.07014 196.486 2.07014C197.093 2.07014 197.583 2.22347 197.956 2.53014C198.329 2.8368 198.529 3.2568 198.556 3.79014H197.646C197.626 3.50347 197.509 3.27347 197.296 3.10014C197.089 2.9268 196.809 2.84014 196.456 2.84014C196.129 2.84014 195.869 2.91014 195.676 3.05014C195.483 3.19014 195.386 3.37347 195.386 3.60014C195.386 3.78014 195.443 3.93014 195.556 4.05014C195.676 4.16347 195.823 4.2568 195.996 4.33014C196.176 4.3968 196.423 4.47347 196.736 4.56014C197.129 4.6668 197.449 4.77347 197.696 4.88014C197.943 4.98014 198.153 5.13347 198.326 5.34014C198.506 5.5468 198.599 5.8168 198.606 6.15014C198.606 6.45014 198.523 6.72014 198.356 6.96014C198.189 7.20014 197.953 7.39014 197.646 7.53014C197.346 7.66347 196.999 7.73014 196.606 7.73014ZM200.361 1.27014C200.187 1.27014 200.041 1.21014 199.921 1.09014C199.801 0.970136 199.741 0.82347 199.741 0.650136C199.741 0.476803 199.801 0.330136 199.921 0.210136C200.041 0.0901364 200.187 0.0301363 200.361 0.0301363C200.527 0.0301363 200.667 0.0901364 200.781 0.210136C200.901 0.330136 200.961 0.476803 200.961 0.650136C200.961 0.82347 200.901 0.970136 200.781 1.09014C200.667 1.21014 200.527 1.27014 200.361 1.27014ZM200.801 2.16014V7.64014H199.891V2.16014H200.801ZM202.012 4.88014C202.012 4.32014 202.125 3.83014 202.352 3.41014C202.578 2.98347 202.888 2.65347 203.282 2.42014C203.682 2.1868 204.128 2.07014 204.622 2.07014C205.048 2.07014 205.445 2.17014 205.812 2.37014C206.178 2.56347 206.458 2.82014 206.652 3.14014V0.240137H207.572V7.64014H206.652V6.61014C206.472 6.9368 206.205 7.2068 205.852 7.42014C205.498 7.6268 205.085 7.73014 204.612 7.73014C204.125 7.73014 203.682 7.61014 203.282 7.37014C202.888 7.13014 202.578 6.79347 202.352 6.36014C202.125 5.9268 202.012 5.43347 202.012 4.88014ZM206.652 4.89014C206.652 4.4768 206.568 4.1168 206.402 3.81014C206.235 3.50347 206.008 3.27014 205.722 3.11014C205.442 2.94347 205.132 2.86014 204.792 2.86014C204.452 2.86014 204.142 2.94014 203.862 3.10014C203.582 3.26014 203.358 3.49347 203.192 3.80014C203.025 4.1068 202.942 4.4668 202.942 4.88014C202.942 5.30014 203.025 5.6668 203.192 5.98014C203.358 6.2868 203.582 6.52347 203.862 6.69014C204.142 6.85014 204.452 6.93014 204.792 6.93014C205.132 6.93014 205.442 6.85014 205.722 6.69014C206.008 6.52347 206.235 6.2868 206.402 5.98014C206.568 5.6668 206.652 5.30347 206.652 4.89014ZM214.109 4.69014C214.109 4.86347 214.099 5.0468 214.079 5.24014H209.699C209.733 5.78014 209.916 6.20347 210.249 6.51014C210.589 6.81014 210.999 6.96014 211.479 6.96014C211.873 6.96014 212.199 6.87014 212.459 6.69014C212.726 6.50347 212.913 6.2568 213.019 5.95014H213.999C213.853 6.4768 213.559 6.9068 213.119 7.24014C212.679 7.5668 212.133 7.73014 211.479 7.73014C210.959 7.73014 210.493 7.61347 210.079 7.38014C209.673 7.1468 209.353 6.8168 209.119 6.39014C208.886 5.9568 208.769 5.4568 208.769 4.89014C208.769 4.32347 208.883 3.8268 209.109 3.40014C209.336 2.97347 209.653 2.6468 210.059 2.42014C210.473 2.1868 210.946 2.07014 211.479 2.07014C211.999 2.07014 212.459 2.18347 212.859 2.41014C213.259 2.6368 213.566 2.95014 213.779 3.35014C213.999 3.74347 214.109 4.19014 214.109 4.69014ZM213.169 4.50014C213.169 4.15347 213.093 3.8568 212.939 3.61014C212.786 3.3568 212.576 3.1668 212.309 3.04014C212.049 2.9068 211.759 2.84014 211.439 2.84014C210.979 2.84014 210.586 2.9868 210.259 3.28014C209.939 3.57347 209.756 3.98014 209.709 4.50014H213.169ZM217.251 7.73014C216.831 7.73014 216.454 7.66014 216.121 7.52014C215.787 7.37347 215.524 7.17347 215.331 6.92014C215.137 6.66014 215.031 6.36347 215.011 6.03014H215.951C215.977 6.30347 216.104 6.5268 216.331 6.70014C216.564 6.87347 216.867 6.96014 217.241 6.96014C217.587 6.96014 217.861 6.88347 218.061 6.73014C218.261 6.5768 218.361 6.38347 218.361 6.15014C218.361 5.91014 218.254 5.73347 218.041 5.62014C217.827 5.50014 217.497 5.38347 217.051 5.27014C216.644 5.16347 216.311 5.0568 216.051 4.95014C215.797 4.8368 215.577 4.67347 215.391 4.46014C215.211 4.24014 215.121 3.95347 215.121 3.60014C215.121 3.32014 215.204 3.06347 215.371 2.83014C215.537 2.5968 215.774 2.41347 216.081 2.28014C216.387 2.14014 216.737 2.07014 217.131 2.07014C217.737 2.07014 218.227 2.22347 218.601 2.53014C218.974 2.8368 219.174 3.2568 219.201 3.79014H218.291C218.271 3.50347 218.154 3.27347 217.941 3.10014C217.734 2.9268 217.454 2.84014 217.101 2.84014C216.774 2.84014 216.514 2.91014 216.321 3.05014C216.127 3.19014 216.031 3.37347 216.031 3.60014C216.031 3.78014 216.087 3.93014 216.201 4.05014C216.321 4.16347 216.467 4.2568 216.641 4.33014C216.821 4.3968 217.067 4.47347 217.381 4.56014C217.774 4.6668 218.094 4.77347 218.341 4.88014C218.587 4.98014 218.797 5.13347 218.971 5.34014C219.151 5.5468 219.244 5.8168 219.251 6.15014C219.251 6.45014 219.167 6.72014 219.001 6.96014C218.834 7.20014 218.597 7.39014 218.291 7.53014C217.991 7.66347 217.644 7.73014 217.251 7.73014ZM221.475 6.38014L220.355 9.07014H219.745L220.475 6.38014H221.475ZM224.844 4.88014C224.844 4.32014 224.957 3.83014 225.184 3.41014C225.41 2.98347 225.72 2.65347 226.114 2.42014C226.514 2.1868 226.957 2.07014 227.444 2.07014C227.924 2.07014 228.34 2.17347 228.694 2.38014C229.047 2.5868 229.31 2.8468 229.484 3.16014V2.16014H230.404V7.64014H229.484V6.62014C229.304 6.94014 229.034 7.2068 228.674 7.42014C228.32 7.6268 227.907 7.73014 227.434 7.73014C226.947 7.73014 226.507 7.61014 226.114 7.37014C225.72 7.13014 225.41 6.79347 225.184 6.36014C224.957 5.9268 224.844 5.43347 224.844 4.88014ZM229.484 4.89014C229.484 4.4768 229.4 4.1168 229.234 3.81014C229.067 3.50347 228.84 3.27014 228.554 3.11014C228.274 2.94347 227.964 2.86014 227.624 2.86014C227.284 2.86014 226.974 2.94014 226.694 3.10014C226.414 3.26014 226.19 3.49347 226.024 3.80014C225.857 4.1068 225.774 4.4668 225.774 4.88014C225.774 5.30014 225.857 5.6668 226.024 5.98014C226.19 6.2868 226.414 6.52347 226.694 6.69014C226.974 6.85014 227.284 6.93014 227.624 6.93014C227.964 6.93014 228.274 6.85014 228.554 6.69014C228.84 6.52347 229.067 6.2868 229.234 5.98014C229.4 5.6668 229.484 5.30347 229.484 4.89014ZM234.611 2.06014C235.278 2.06014 235.818 2.26347 236.231 2.67014C236.645 3.07014 236.851 3.65014 236.851 4.41014V7.64014H235.951V4.54014C235.951 3.99347 235.815 3.5768 235.541 3.29014C235.268 2.9968 234.895 2.85014 234.421 2.85014C233.941 2.85014 233.558 3.00014 233.271 3.30014C232.991 3.60014 232.851 4.0368 232.851 4.61014V7.64014H231.941V2.16014H232.851V2.94014C233.031 2.66014 233.275 2.44347 233.581 2.29014C233.895 2.1368 234.238 2.06014 234.611 2.06014ZM237.998 4.88014C237.998 4.32014 238.111 3.83014 238.338 3.41014C238.565 2.98347 238.875 2.65347 239.268 2.42014C239.668 2.1868 240.115 2.07014 240.608 2.07014C241.035 2.07014 241.431 2.17014 241.798 2.37014C242.165 2.56347 242.445 2.82014 242.638 3.14014V0.240137H243.558V7.64014H242.638V6.61014C242.458 6.9368 242.191 7.2068 241.838 7.42014C241.485 7.6268 241.071 7.73014 240.598 7.73014C240.111 7.73014 239.668 7.61014 239.268 7.37014C238.875 7.13014 238.565 6.79347 238.338 6.36014C238.111 5.9268 237.998 5.43347 237.998 4.88014ZM242.638 4.89014C242.638 4.4768 242.555 4.1168 242.388 3.81014C242.221 3.50347 241.995 3.27014 241.708 3.11014C241.428 2.94347 241.118 2.86014 240.778 2.86014C240.438 2.86014 240.128 2.94014 239.848 3.10014C239.568 3.26014 239.345 3.49347 239.178 3.80014C239.011 4.1068 238.928 4.4668 238.928 4.88014C238.928 5.30014 239.011 5.6668 239.178 5.98014C239.345 6.2868 239.568 6.52347 239.848 6.69014C240.128 6.85014 240.438 6.93014 240.778 6.93014C241.118 6.93014 241.428 6.85014 241.708 6.69014C241.995 6.52347 242.221 6.2868 242.388 5.98014C242.555 5.6668 242.638 5.30347 242.638 4.89014ZM248.672 3.05014C248.832 2.7368 249.058 2.49347 249.352 2.32014C249.652 2.1468 250.015 2.06014 250.442 2.06014V3.00014H250.202C249.182 3.00014 248.672 3.55347 248.672 4.66014V7.64014H247.762V2.16014H248.672V3.05014ZM256.492 4.69014C256.492 4.86347 256.482 5.0468 256.462 5.24014H252.082C252.116 5.78014 252.299 6.20347 252.632 6.51014C252.972 6.81014 253.382 6.96014 253.862 6.96014C254.256 6.96014 254.582 6.87014 254.842 6.69014C255.109 6.50347 255.296 6.2568 255.402 5.95014H256.382C256.236 6.4768 255.942 6.9068 255.502 7.24014C255.062 7.5668 254.516 7.73014 253.862 7.73014C253.342 7.73014 252.876 7.61347 252.462 7.38014C252.056 7.1468 251.736 6.8168 251.502 6.39014C251.269 5.9568 251.152 5.4568 251.152 4.89014C251.152 4.32347 251.266 3.8268 251.492 3.40014C251.719 2.97347 252.036 2.6468 252.442 2.42014C252.856 2.1868 253.329 2.07014 253.862 2.07014C254.382 2.07014 254.842 2.18347 255.242 2.41014C255.642 2.6368 255.949 2.95014 256.162 3.35014C256.382 3.74347 256.492 4.19014 256.492 4.69014ZM255.552 4.50014C255.552 4.15347 255.476 3.8568 255.322 3.61014C255.169 3.3568 254.959 3.1668 254.692 3.04014C254.432 2.9068 254.142 2.84014 253.822 2.84014C253.362 2.84014 252.969 2.9868 252.642 3.28014C252.322 3.57347 252.139 3.98014 252.092 4.50014H255.552ZM257.353 4.88014C257.353 4.32014 257.467 3.83014 257.693 3.41014C257.92 2.98347 258.23 2.65347 258.623 2.42014C259.023 2.1868 259.467 2.07014 259.953 2.07014C260.433 2.07014 260.85 2.17347 261.203 2.38014C261.557 2.5868 261.82 2.8468 261.993 3.16014V2.16014H262.913V7.64014H261.993V6.62014C261.813 6.94014 261.543 7.2068 261.183 7.42014C260.83 7.6268 260.417 7.73014 259.943 7.73014C259.457 7.73014 259.017 7.61014 258.623 7.37014C258.23 7.13014 257.92 6.79347 257.693 6.36014C257.467 5.9268 257.353 5.43347 257.353 4.88014ZM261.993 4.89014C261.993 4.4768 261.91 4.1168 261.743 3.81014C261.577 3.50347 261.35 3.27014 261.063 3.11014C260.783 2.94347 260.473 2.86014 260.133 2.86014C259.793 2.86014 259.483 2.94014 259.203 3.10014C258.923 3.26014 258.7 3.49347 258.533 3.80014C258.367 4.1068 258.283 4.4668 258.283 4.88014C258.283 5.30014 258.367 5.6668 258.533 5.98014C258.7 6.2868 258.923 6.52347 259.203 6.69014C259.483 6.85014 259.793 6.93014 260.133 6.93014C260.473 6.93014 260.783 6.85014 261.063 6.69014C261.35 6.52347 261.577 6.2868 261.743 5.98014C261.91 5.6668 261.993 5.30347 261.993 4.89014ZM264.111 4.88014C264.111 4.32014 264.224 3.83014 264.451 3.41014C264.678 2.98347 264.988 2.65347 265.381 2.42014C265.781 2.1868 266.228 2.07014 266.721 2.07014C267.148 2.07014 267.544 2.17014 267.911 2.37014C268.278 2.56347 268.558 2.82014 268.751 3.14014V0.240137H269.671V7.64014H268.751V6.61014C268.571 6.9368 268.304 7.2068 267.951 7.42014C267.598 7.6268 267.184 7.73014 266.711 7.73014C266.224 7.73014 265.781 7.61014 265.381 7.37014C264.988 7.13014 264.678 6.79347 264.451 6.36014C264.224 5.9268 264.111 5.43347 264.111 4.88014ZM268.751 4.89014C268.751 4.4768 268.668 4.1168 268.501 3.81014C268.334 3.50347 268.108 3.27014 267.821 3.11014C267.541 2.94347 267.231 2.86014 266.891 2.86014C266.551 2.86014 266.241 2.94014 265.961 3.10014C265.681 3.26014 265.458 3.49347 265.291 3.80014C265.124 4.1068 265.041 4.4668 265.041 4.88014C265.041 5.30014 265.124 5.6668 265.291 5.98014C265.458 6.2868 265.681 6.52347 265.961 6.69014C266.241 6.85014 266.551 6.93014 266.891 6.93014C267.231 6.93014 267.541 6.85014 267.821 6.69014C268.108 6.52347 268.334 6.2868 268.501 5.98014C268.668 5.6668 268.751 5.30347 268.751 4.89014ZM275.929 2.16014L272.629 10.2201H271.689L272.769 7.58014L270.559 2.16014H271.569L273.289 6.60014L274.989 2.16014H275.929ZM280.644 3.59014V4.36014H276.654V3.59014H280.644ZM283.462 2.91014V6.14014C283.462 6.4068 283.518 6.5968 283.632 6.71014C283.745 6.8168 283.942 6.87014 284.222 6.87014H284.892V7.64014H284.072C283.565 7.64014 283.185 7.52347 282.932 7.29014C282.678 7.0568 282.552 6.67347 282.552 6.14014V2.91014H281.842V2.16014H282.552V0.780136H283.462V2.16014H284.892V2.91014H283.462ZM288.384 7.73014C287.871 7.73014 287.404 7.61347 286.984 7.38014C286.571 7.1468 286.244 6.8168 286.004 6.39014C285.771 5.9568 285.654 5.4568 285.654 4.89014C285.654 4.33014 285.774 3.8368 286.014 3.41014C286.261 2.9768 286.594 2.6468 287.014 2.42014C287.434 2.1868 287.904 2.07014 288.424 2.07014C288.944 2.07014 289.414 2.1868 289.834 2.42014C290.254 2.6468 290.584 2.97347 290.824 3.40014C291.071 3.8268 291.194 4.32347 291.194 4.89014C291.194 5.4568 291.067 5.9568 290.814 6.39014C290.567 6.8168 290.231 7.1468 289.804 7.38014C289.377 7.61347 288.904 7.73014 288.384 7.73014ZM288.384 6.93014C288.711 6.93014 289.017 6.85347 289.304 6.70014C289.591 6.5468 289.821 6.3168 289.994 6.01014C290.174 5.70347 290.264 5.33014 290.264 4.89014C290.264 4.45014 290.177 4.0768 290.004 3.77014C289.831 3.46347 289.604 3.2368 289.324 3.09014C289.044 2.9368 288.741 2.86014 288.414 2.86014C288.081 2.86014 287.774 2.9368 287.494 3.09014C287.221 3.2368 287.001 3.46347 286.834 3.77014C286.667 4.0768 286.584 4.45014 286.584 4.89014C286.584 5.3368 286.664 5.71347 286.824 6.02014C286.991 6.3268 287.211 6.5568 287.484 6.71014C287.757 6.8568 288.057 6.93014 288.384 6.93014ZM296.191 3.59014V4.36014H292.201V3.59014H296.191ZM302.898 4.69014C302.898 4.86347 302.888 5.0468 302.868 5.24014H298.488C298.522 5.78014 298.705 6.20347 299.038 6.51014C299.378 6.81014 299.788 6.96014 300.268 6.96014C300.662 6.96014 300.988 6.87014 301.248 6.69014C301.515 6.50347 301.702 6.2568 301.808 5.95014H302.788C302.642 6.4768 302.348 6.9068 301.908 7.24014C301.468 7.5668 300.922 7.73014 300.268 7.73014C299.748 7.73014 299.282 7.61347 298.868 7.38014C298.462 7.1468 298.142 6.8168 297.908 6.39014C297.675 5.9568 297.558 5.4568 297.558 4.89014C297.558 4.32347 297.672 3.8268 297.898 3.40014C298.125 2.97347 298.442 2.6468 298.848 2.42014C299.262 2.1868 299.735 2.07014 300.268 2.07014C300.788 2.07014 301.248 2.18347 301.648 2.41014C302.048 2.6368 302.355 2.95014 302.568 3.35014C302.788 3.74347 302.898 4.19014 302.898 4.69014ZM301.958 4.50014C301.958 4.15347 301.882 3.8568 301.728 3.61014C301.575 3.3568 301.365 3.1668 301.098 3.04014C300.838 2.9068 300.548 2.84014 300.228 2.84014C299.768 2.84014 299.375 2.9868 299.048 3.28014C298.728 3.57347 298.545 3.98014 298.498 4.50014H301.958ZM303.76 4.88014C303.76 4.32014 303.873 3.83014 304.1 3.41014C304.326 2.98347 304.636 2.65347 305.03 2.42014C305.43 2.1868 305.873 2.07014 306.36 2.07014C306.84 2.07014 307.256 2.17347 307.61 2.38014C307.963 2.5868 308.226 2.8468 308.4 3.16014V2.16014H309.32V7.64014H308.4V6.62014C308.22 6.94014 307.95 7.2068 307.59 7.42014C307.236 7.6268 306.823 7.73014 306.35 7.73014C305.863 7.73014 305.423 7.61014 305.03 7.37014C304.636 7.13014 304.326 6.79347 304.1 6.36014C303.873 5.9268 303.76 5.43347 303.76 4.88014ZM308.4 4.89014C308.4 4.4768 308.316 4.1168 308.15 3.81014C307.983 3.50347 307.756 3.27014 307.47 3.11014C307.19 2.94347 306.88 2.86014 306.54 2.86014C306.2 2.86014 305.89 2.94014 305.61 3.10014C305.33 3.26014 305.106 3.49347 304.94 3.80014C304.773 4.1068 304.69 4.4668 304.69 4.88014C304.69 5.30014 304.773 5.6668 304.94 5.98014C305.106 6.2868 305.33 6.52347 305.61 6.69014C305.89 6.85014 306.2 6.93014 306.54 6.93014C306.88 6.93014 307.19 6.85014 307.47 6.69014C307.756 6.52347 307.983 6.2868 308.15 5.98014C308.316 5.6668 308.4 5.30347 308.4 4.89014ZM311.967 2.91014V6.14014C311.967 6.4068 312.024 6.5968 312.137 6.71014C312.251 6.8168 312.447 6.87014 312.727 6.87014H313.397V7.64014H312.577C312.071 7.64014 311.691 7.52347 311.437 7.29014C311.184 7.0568 311.057 6.67347 311.057 6.14014V2.91014H310.347V2.16014H311.057V0.780136H311.967V2.16014H313.397V2.91014H311.967ZM316.826 4.88014C316.826 4.32014 316.939 3.83014 317.166 3.41014C317.393 2.98347 317.703 2.65347 318.096 2.42014C318.496 2.1868 318.943 2.07014 319.436 2.07014C319.863 2.07014 320.259 2.17014 320.626 2.37014C320.993 2.56347 321.273 2.82014 321.466 3.14014V0.240137H322.386V7.64014H321.466V6.61014C321.286 6.9368 321.019 7.2068 320.666 7.42014C320.313 7.6268 319.899 7.73014 319.426 7.73014C318.939 7.73014 318.496 7.61014 318.096 7.37014C317.703 7.13014 317.393 6.79347 317.166 6.36014C316.939 5.9268 316.826 5.43347 316.826 4.88014ZM321.466 4.89014C321.466 4.4768 321.383 4.1168 321.216 3.81014C321.049 3.50347 320.823 3.27014 320.536 3.11014C320.256 2.94347 319.946 2.86014 319.606 2.86014C319.266 2.86014 318.956 2.94014 318.676 3.10014C318.396 3.26014 318.173 3.49347 318.006 3.80014C317.839 4.1068 317.756 4.4668 317.756 4.88014C317.756 5.30014 317.839 5.6668 318.006 5.98014C318.173 6.2868 318.396 6.52347 318.676 6.69014C318.956 6.85014 319.266 6.93014 319.606 6.93014C319.946 6.93014 320.256 6.85014 320.536 6.69014C320.823 6.52347 321.049 6.2868 321.216 5.98014C321.383 5.6668 321.466 5.30347 321.466 4.89014ZM324.394 1.27014C324.22 1.27014 324.074 1.21014 323.954 1.09014C323.834 0.970136 323.774 0.82347 323.774 0.650136C323.774 0.476803 323.834 0.330136 323.954 0.210136C324.074 0.0901364 324.22 0.0301363 324.394 0.0301363C324.56 0.0301363 324.7 0.0901364 324.814 0.210136C324.934 0.330136 324.994 0.476803 324.994 0.650136C324.994 0.82347 324.934 0.970136 324.814 1.09014C324.7 1.21014 324.56 1.27014 324.394 1.27014ZM324.834 2.16014V7.64014H323.924V2.16014H324.834ZM328.325 7.73014C327.905 7.73014 327.528 7.66014 327.195 7.52014C326.861 7.37347 326.598 7.17347 326.405 6.92014C326.211 6.66014 326.105 6.36347 326.085 6.03014H327.025C327.051 6.30347 327.178 6.5268 327.405 6.70014C327.638 6.87347 327.941 6.96014 328.315 6.96014C328.661 6.96014 328.935 6.88347 329.135 6.73014C329.335 6.5768 329.435 6.38347 329.435 6.15014C329.435 5.91014 329.328 5.73347 329.115 5.62014C328.901 5.50014 328.571 5.38347 328.125 5.27014C327.718 5.16347 327.385 5.0568 327.125 4.95014C326.871 4.8368 326.651 4.67347 326.465 4.46014C326.285 4.24014 326.195 3.95347 326.195 3.60014C326.195 3.32014 326.278 3.06347 326.445 2.83014C326.611 2.5968 326.848 2.41347 327.155 2.28014C327.461 2.14014 327.811 2.07014 328.205 2.07014C328.811 2.07014 329.301 2.22347 329.675 2.53014C330.048 2.8368 330.248 3.2568 330.275 3.79014H329.365C329.345 3.50347 329.228 3.27347 329.015 3.10014C328.808 2.9268 328.528 2.84014 328.175 2.84014C327.848 2.84014 327.588 2.91014 327.395 3.05014C327.201 3.19014 327.105 3.37347 327.105 3.60014C327.105 3.78014 327.161 3.93014 327.275 4.05014C327.395 4.16347 327.541 4.2568 327.715 4.33014C327.895 4.3968 328.141 4.47347 328.455 4.56014C328.848 4.6668 329.168 4.77347 329.415 4.88014C329.661 4.98014 329.871 5.13347 330.045 5.34014C330.225 5.5468 330.318 5.8168 330.325 6.15014C330.325 6.45014 330.241 6.72014 330.075 6.96014C329.908 7.20014 329.671 7.39014 329.365 7.53014C329.065 7.66347 328.718 7.73014 328.325 7.73014ZM334.329 2.06014C334.743 2.06014 335.116 2.15014 335.449 2.33014C335.783 2.50347 336.043 2.7668 336.229 3.12014C336.423 3.47347 336.519 3.90347 336.519 4.41014V7.64014H335.619V4.54014C335.619 3.99347 335.483 3.5768 335.209 3.29014C334.936 2.9968 334.563 2.85014 334.089 2.85014C333.609 2.85014 333.226 3.00014 332.939 3.30014C332.659 3.60014 332.519 4.0368 332.519 4.61014V7.64014H331.609V0.240137H332.519V2.94014C332.699 2.66014 332.946 2.44347 333.259 2.29014C333.579 2.1368 333.936 2.06014 334.329 2.06014ZM343.006 4.69014C343.006 4.86347 342.996 5.0468 342.976 5.24014H338.596C338.629 5.78014 338.813 6.20347 339.146 6.51014C339.486 6.81014 339.896 6.96014 340.376 6.96014C340.769 6.96014 341.096 6.87014 341.356 6.69014C341.623 6.50347 341.809 6.2568 341.916 5.95014H342.896C342.749 6.4768 342.456 6.9068 342.016 7.24014C341.576 7.5668 341.029 7.73014 340.376 7.73014C339.856 7.73014 339.389 7.61347 338.976 7.38014C338.569 7.1468 338.249 6.8168 338.016 6.39014C337.783 5.9568 337.666 5.4568 337.666 4.89014C337.666 4.32347 337.779 3.8268 338.006 3.40014C338.233 2.97347 338.549 2.6468 338.956 2.42014C339.369 2.1868 339.843 2.07014 340.376 2.07014C340.896 2.07014 341.356 2.18347 341.756 2.41014C342.156 2.6368 342.463 2.95014 342.676 3.35014C342.896 3.74347 343.006 4.19014 343.006 4.69014ZM342.066 4.50014C342.066 4.15347 341.989 3.8568 341.836 3.61014C341.683 3.3568 341.473 3.1668 341.206 3.04014C340.946 2.9068 340.656 2.84014 340.336 2.84014C339.876 2.84014 339.483 2.9868 339.156 3.28014C338.836 3.57347 338.653 3.98014 338.606 4.50014H342.066ZM346.147 7.73014C345.727 7.73014 345.35 7.66014 345.017 7.52014C344.684 7.37347 344.42 7.17347 344.227 6.92014C344.034 6.66014 343.927 6.36347 343.907 6.03014H344.847C344.874 6.30347 345 6.5268 345.227 6.70014C345.46 6.87347 345.764 6.96014 346.137 6.96014C346.484 6.96014 346.757 6.88347 346.957 6.73014C347.157 6.5768 347.257 6.38347 347.257 6.15014C347.257 5.91014 347.15 5.73347 346.937 5.62014C346.724 5.50014 346.394 5.38347 345.947 5.27014C345.54 5.16347 345.207 5.0568 344.947 4.95014C344.694 4.8368 344.474 4.67347 344.287 4.46014C344.107 4.24014 344.017 3.95347 344.017 3.60014C344.017 3.32014 344.1 3.06347 344.267 2.83014C344.434 2.5968 344.67 2.41347 344.977 2.28014C345.284 2.14014 345.634 2.07014 346.027 2.07014C346.634 2.07014 347.124 2.22347 347.497 2.53014C347.87 2.8368 348.07 3.2568 348.097 3.79014H347.187C347.167 3.50347 347.05 3.27347 346.837 3.10014C346.63 2.9268 346.35 2.84014 345.997 2.84014C345.67 2.84014 345.41 2.91014 345.217 3.05014C345.024 3.19014 344.927 3.37347 344.927 3.60014C344.927 3.78014 344.984 3.93014 345.097 4.05014C345.217 4.16347 345.364 4.2568 345.537 4.33014C345.717 4.3968 345.964 4.47347 346.277 4.56014C346.67 4.6668 346.99 4.77347 347.237 4.88014C347.484 4.98014 347.694 5.13347 347.867 5.34014C348.047 5.5468 348.14 5.8168 348.147 6.15014C348.147 6.45014 348.064 6.72014 347.897 6.96014C347.73 7.20014 347.494 7.39014 347.187 7.53014C346.887 7.66347 346.54 7.73014 346.147 7.73014ZM349.722 7.70014C349.548 7.70014 349.402 7.64014 349.282 7.52014C349.162 7.40014 349.102 7.25347 349.102 7.08014C349.102 6.9068 349.162 6.76014 349.282 6.64014C349.402 6.52014 349.548 6.46014 349.722 6.46014C349.888 6.46014 350.028 6.52014 350.142 6.64014C350.262 6.76014 350.322 6.9068 350.322 7.08014C350.322 7.25347 350.262 7.40014 350.142 7.52014C350.028 7.64014 349.888 7.70014 349.722 7.70014ZM356.367 0.670136C357.127 0.670136 357.784 0.81347 358.337 1.10014C358.897 1.38014 359.324 1.78347 359.617 2.31014C359.917 2.8368 360.067 3.4568 360.067 4.17014C360.067 4.88347 359.917 5.50347 359.617 6.03014C359.324 6.55014 358.897 6.95014 358.337 7.23014C357.784 7.50347 357.127 7.64014 356.367 7.64014H354.197V0.670136H356.367ZM356.367 6.89014C357.267 6.89014 357.954 6.65347 358.427 6.18014C358.901 5.70014 359.137 5.03014 359.137 4.17014C359.137 3.30347 358.897 2.6268 358.417 2.14014C357.944 1.65347 357.261 1.41014 356.367 1.41014H355.107V6.89014H356.367ZM366.128 2.16014V7.64014H365.218V6.83014C365.044 7.11014 364.801 7.33014 364.488 7.49014C364.181 7.64347 363.841 7.72014 363.468 7.72014C363.041 7.72014 362.658 7.63347 362.318 7.46014C361.978 7.28014 361.708 7.01347 361.508 6.66014C361.314 6.3068 361.218 5.8768 361.218 5.37014V2.16014H362.118V5.25014C362.118 5.79014 362.254 6.2068 362.528 6.50014C362.801 6.7868 363.174 6.93014 363.648 6.93014C364.134 6.93014 364.518 6.78014 364.798 6.48014C365.078 6.18014 365.218 5.74347 365.218 5.17014V2.16014H366.128ZM368.574 3.05014C368.734 2.7368 368.961 2.49347 369.254 2.32014C369.554 2.1468 369.917 2.06014 370.344 2.06014V3.00014H370.104C369.084 3.00014 368.574 3.55347 368.574 4.66014V7.64014H367.664V2.16014H368.574V3.05014ZM371.055 4.88014C371.055 4.32014 371.168 3.83014 371.395 3.41014C371.621 2.98347 371.931 2.65347 372.325 2.42014C372.725 2.1868 373.168 2.07014 373.655 2.07014C374.135 2.07014 374.551 2.17347 374.905 2.38014C375.258 2.5868 375.521 2.8468 375.695 3.16014V2.16014H376.615V7.64014H375.695V6.62014C375.515 6.94014 375.245 7.2068 374.885 7.42014C374.531 7.6268 374.118 7.73014 373.645 7.73014C373.158 7.73014 372.718 7.61014 372.325 7.37014C371.931 7.13014 371.621 6.79347 371.395 6.36014C371.168 5.9268 371.055 5.43347 371.055 4.88014ZM375.695 4.89014C375.695 4.4768 375.611 4.1168 375.445 3.81014C375.278 3.50347 375.051 3.27014 374.765 3.11014C374.485 2.94347 374.175 2.86014 373.835 2.86014C373.495 2.86014 373.185 2.94014 372.905 3.10014C372.625 3.26014 372.401 3.49347 372.235 3.80014C372.068 4.1068 371.985 4.4668 371.985 4.88014C371.985 5.30014 372.068 5.6668 372.235 5.98014C372.401 6.2868 372.625 6.52347 372.905 6.69014C373.185 6.85014 373.495 6.93014 373.835 6.93014C374.175 6.93014 374.485 6.85014 374.765 6.69014C375.051 6.52347 375.278 6.2868 375.445 5.98014C375.611 5.6668 375.695 5.30347 375.695 4.89014ZM379.062 3.18014C379.249 2.85347 379.522 2.5868 379.882 2.38014C380.242 2.17347 380.652 2.07014 381.112 2.07014C381.606 2.07014 382.049 2.1868 382.442 2.42014C382.836 2.65347 383.146 2.98347 383.372 3.41014C383.599 3.83014 383.712 4.32014 383.712 4.88014C383.712 5.43347 383.599 5.9268 383.372 6.36014C383.146 6.79347 382.832 7.13014 382.432 7.37014C382.039 7.61014 381.599 7.73014 381.112 7.73014C380.639 7.73014 380.222 7.6268 379.862 7.42014C379.509 7.21347 379.242 6.95014 379.062 6.63014V7.64014H378.152V0.240137H379.062V3.18014ZM382.782 4.88014C382.782 4.4668 382.699 4.1068 382.532 3.80014C382.366 3.49347 382.139 3.26014 381.852 3.10014C381.572 2.94014 381.262 2.86014 380.922 2.86014C380.589 2.86014 380.279 2.94347 379.992 3.11014C379.712 3.27014 379.486 3.5068 379.312 3.82014C379.146 4.1268 379.062 4.48347 379.062 4.89014C379.062 5.30347 379.146 5.6668 379.312 5.98014C379.486 6.2868 379.712 6.52347 379.992 6.69014C380.279 6.85014 380.589 6.93014 380.922 6.93014C381.262 6.93014 381.572 6.85014 381.852 6.69014C382.139 6.52347 382.366 6.2868 382.532 5.98014C382.699 5.6668 382.782 5.30014 382.782 4.88014ZM385.82 0.240137V7.64014H384.91V0.240137H385.82ZM392.371 4.69014C392.371 4.86347 392.361 5.0468 392.341 5.24014H387.961C387.994 5.78014 388.178 6.20347 388.511 6.51014C388.851 6.81014 389.261 6.96014 389.741 6.96014C390.134 6.96014 390.461 6.87014 390.721 6.69014C390.988 6.50347 391.174 6.2568 391.281 5.95014H392.261C392.114 6.4768 391.821 6.9068 391.381 7.24014C390.941 7.5668 390.394 7.73014 389.741 7.73014C389.221 7.73014 388.754 7.61347 388.341 7.38014C387.934 7.1468 387.614 6.8168 387.381 6.39014C387.148 5.9568 387.031 5.4568 387.031 4.89014C387.031 4.32347 387.144 3.8268 387.371 3.40014C387.598 2.97347 387.914 2.6468 388.321 2.42014C388.734 2.1868 389.208 2.07014 389.741 2.07014C390.261 2.07014 390.721 2.18347 391.121 2.41014C391.521 2.6368 391.828 2.95014 392.041 3.35014C392.261 3.74347 392.371 4.19014 392.371 4.69014ZM391.431 4.50014C391.431 4.15347 391.354 3.8568 391.201 3.61014C391.048 3.3568 390.838 3.1668 390.571 3.04014C390.311 2.9068 390.021 2.84014 389.701 2.84014C389.241 2.84014 388.848 2.9868 388.521 3.28014C388.201 3.57347 388.018 3.98014 387.971 4.50014H391.431ZM48.286 18.1801C48.4726 17.8535 48.746 17.5868 49.106 17.3801C49.466 17.1735 49.876 17.0701 50.336 17.0701C50.8293 17.0701 51.2726 17.1868 51.666 17.4201C52.0593 17.6535 52.3693 17.9835 52.596 18.4101C52.8226 18.8301 52.936 19.3201 52.936 19.8801C52.936 20.4335 52.8226 20.9268 52.596 21.3601C52.3693 21.7935 52.056 22.1301 51.656 22.3701C51.2626 22.6101 50.8226 22.7301 50.336 22.7301C49.8626 22.7301 49.446 22.6268 49.086 22.4201C48.7326 22.2135 48.466 21.9501 48.286 21.6301V22.6401H47.376V15.2401H48.286V18.1801ZM52.006 19.8801C52.006 19.4668 51.9226 19.1068 51.756 18.8001C51.5893 18.4935 51.3626 18.2601 51.076 18.1001C50.796 17.9401 50.486 17.8601 50.146 17.8601C49.8126 17.8601 49.5026 17.9435 49.216 18.1101C48.936 18.2701 48.7093 18.5068 48.536 18.8201C48.3693 19.1268 48.286 19.4835 48.286 19.8901C48.286 20.3035 48.3693 20.6668 48.536 20.9801C48.7093 21.2868 48.936 21.5235 49.216 21.6901C49.5026 21.8501 49.8126 21.9301 50.146 21.9301C50.486 21.9301 50.796 21.8501 51.076 21.6901C51.3626 21.5235 51.5893 21.2868 51.756 20.9801C51.9226 20.6668 52.006 20.3001 52.006 19.8801ZM58.9938 17.1601V22.6401H58.0838V21.8301C57.9104 22.1101 57.6671 22.3301 57.3538 22.4901C57.0471 22.6435 56.7071 22.7201 56.3338 22.7201C55.9071 22.7201 55.5238 22.6335 55.1838 22.4601C54.8438 22.2801 54.5738 22.0135 54.3738 21.6601C54.1804 21.3068 54.0838 20.8768 54.0838 20.3701V17.1601H54.9838V20.2501C54.9838 20.7901 55.1204 21.2068 55.3938 21.5001C55.6671 21.7868 56.0404 21.9301 56.5138 21.9301C57.0004 21.9301 57.3838 21.7801 57.6638 21.4801C57.9438 21.1801 58.0838 20.7435 58.0838 20.1701V17.1601H58.9938ZM61.0003 16.2701C60.8269 16.2701 60.6803 16.2101 60.5603 16.0901C60.4403 15.9701 60.3803 15.8235 60.3803 15.6501C60.3803 15.4768 60.4403 15.3301 60.5603 15.2101C60.6803 15.0901 60.8269 15.0301 61.0003 15.0301C61.1669 15.0301 61.3069 15.0901 61.4203 15.2101C61.5403 15.3301 61.6003 15.4768 61.6003 15.6501C61.6003 15.8235 61.5403 15.9701 61.4203 16.0901C61.3069 16.2101 61.1669 16.2701 61.0003 16.2701ZM61.4403 17.1601V22.6401H60.5303V17.1601H61.4403ZM63.9012 15.2401V22.6401H62.9912V15.2401H63.9012ZM65.1121 19.8801C65.1121 19.3201 65.2255 18.8301 65.4521 18.4101C65.6788 17.9835 65.9888 17.6535 66.3821 17.4201C66.7821 17.1868 67.2288 17.0701 67.7221 17.0701C68.1488 17.0701 68.5455 17.1701 68.9121 17.3701C69.2788 17.5635 69.5588 17.8201 69.7521 18.1401V15.2401H70.6721V22.6401H69.7521V21.6101C69.5721 21.9368 69.3055 22.2068 68.9521 22.4201C68.5988 22.6268 68.1855 22.7301 67.7121 22.7301C67.2255 22.7301 66.7821 22.6101 66.3821 22.3701C65.9888 22.1301 65.6788 21.7935 65.4521 21.3601C65.2255 20.9268 65.1121 20.4335 65.1121 19.8801ZM69.7521 19.8901C69.7521 19.4768 69.6688 19.1168 69.5021 18.8101C69.3355 18.5035 69.1088 18.2701 68.8221 18.1101C68.5421 17.9435 68.2321 17.8601 67.8921 17.8601C67.5521 17.8601 67.2421 17.9401 66.9621 18.1001C66.6821 18.2601 66.4588 18.4935 66.2921 18.8001C66.1255 19.1068 66.0421 19.4668 66.0421 19.8801C66.0421 20.3001 66.1255 20.6668 66.2921 20.9801C66.4588 21.2868 66.6821 21.5235 66.9621 21.6901C67.2421 21.8501 67.5521 21.9301 67.8921 21.9301C68.2321 21.9301 68.5421 21.8501 68.8221 21.6901C69.1088 21.5235 69.3355 21.2868 69.5021 20.9801C69.6688 20.6668 69.7521 20.3035 69.7521 19.8901ZM79.876 19.6901C79.876 19.8635 79.866 20.0468 79.846 20.2401H75.466C75.4993 20.7801 75.6826 21.2035 76.016 21.5101C76.356 21.8101 76.766 21.9601 77.246 21.9601C77.6393 21.9601 77.966 21.8701 78.226 21.6901C78.4926 21.5035 78.6793 21.2568 78.786 20.9501H79.766C79.6193 21.4768 79.326 21.9068 78.886 22.2401C78.446 22.5668 77.8993 22.7301 77.246 22.7301C76.726 22.7301 76.2593 22.6135 75.846 22.3801C75.4393 22.1468 75.1193 21.8168 74.886 21.3901C74.6526 20.9568 74.536 20.4568 74.536 19.8901C74.536 19.3235 74.6493 18.8268 74.876 18.4001C75.1026 17.9735 75.4193 17.6468 75.826 17.4201C76.2393 17.1868 76.7126 17.0701 77.246 17.0701C77.766 17.0701 78.226 17.1835 78.626 17.4101C79.026 17.6368 79.3326 17.9501 79.546 18.3501C79.766 18.7435 79.876 19.1901 79.876 19.6901ZM78.936 19.5001C78.936 19.1535 78.8593 18.8568 78.706 18.6101C78.5526 18.3568 78.3426 18.1668 78.076 18.0401C77.816 17.9068 77.526 17.8401 77.206 17.8401C76.746 17.8401 76.3526 17.9868 76.026 18.2801C75.706 18.5735 75.5226 18.9801 75.476 19.5001H78.936ZM83.7471 17.0601C84.4138 17.0601 84.9538 17.2635 85.3671 17.6701C85.7805 18.0701 85.9871 18.6501 85.9871 19.4101V22.6401H85.0871V19.5401C85.0871 18.9935 84.9505 18.5768 84.6771 18.2901C84.4038 17.9968 84.0305 17.8501 83.5571 17.8501C83.0771 17.8501 82.6938 18.0001 82.4071 18.3001C82.1271 18.6001 81.9871 19.0368 81.9871 19.6101V22.6401H81.0771V17.1601H81.9871V17.9401C82.1671 17.6601 82.4105 17.4435 82.7171 17.2901C83.0305 17.1368 83.3738 17.0601 83.7471 17.0601ZM89.4136 22.7301C88.9936 22.7301 88.6169 22.6601 88.2836 22.5201C87.9503 22.3735 87.6869 22.1735 87.4936 21.9201C87.3003 21.6601 87.1936 21.3635 87.1736 21.0301H88.1136C88.1403 21.3035 88.2669 21.5268 88.4936 21.7001C88.7269 21.8735 89.0303 21.9601 89.4036 21.9601C89.7503 21.9601 90.0236 21.8835 90.2236 21.7301C90.4236 21.5768 90.5236 21.3835 90.5236 21.1501C90.5236 20.9101 90.4169 20.7335 90.2036 20.6201C89.9903 20.5001 89.6603 20.3835 89.2136 20.2701C88.8069 20.1635 88.4736 20.0568 88.2136 19.9501C87.9603 19.8368 87.7403 19.6735 87.5536 19.4601C87.3736 19.2401 87.2836 18.9535 87.2836 18.6001C87.2836 18.3201 87.3669 18.0635 87.5336 17.8301C87.7003 17.5968 87.9369 17.4135 88.2436 17.2801C88.5503 17.1401 88.9003 17.0701 89.2936 17.0701C89.9003 17.0701 90.3903 17.2235 90.7636 17.5301C91.1369 17.8368 91.3369 18.2568 91.3636 18.7901H90.4536C90.4336 18.5035 90.3169 18.2735 90.1036 18.1001C89.8969 17.9268 89.6169 17.8401 89.2636 17.8401C88.9369 17.8401 88.6769 17.9101 88.4836 18.0501C88.2903 18.1901 88.1936 18.3735 88.1936 18.6001C88.1936 18.7801 88.2503 18.9301 88.3636 19.0501C88.4836 19.1635 88.6303 19.2568 88.8036 19.3301C88.9836 19.3968 89.2303 19.4735 89.5436 19.5601C89.9369 19.6668 90.2569 19.7735 90.5036 19.8801C90.7503 19.9801 90.9603 20.1335 91.1336 20.3401C91.3136 20.5468 91.4069 20.8168 91.4136 21.1501C91.4136 21.4501 91.3303 21.7201 91.1636 21.9601C90.9969 22.2001 90.7603 22.3901 90.4536 22.5301C90.1536 22.6635 89.8069 22.7301 89.4136 22.7301ZM97.5582 17.1601V22.6401H96.6482V21.8301C96.4749 22.1101 96.2316 22.3301 95.9182 22.4901C95.6116 22.6435 95.2716 22.7201 94.8982 22.7201C94.4716 22.7201 94.0882 22.6335 93.7482 22.4601C93.4082 22.2801 93.1382 22.0135 92.9382 21.6601C92.7449 21.3068 92.6482 20.8768 92.6482 20.3701V17.1601H93.5482V20.2501C93.5482 20.7901 93.6849 21.2068 93.9582 21.5001C94.2316 21.7868 94.6049 21.9301 95.0782 21.9301C95.5649 21.9301 95.9482 21.7801 96.2282 21.4801C96.5082 21.1801 96.6482 20.7435 96.6482 20.1701V17.1601H97.5582ZM100.005 18.0501C100.165 17.7368 100.391 17.4935 100.685 17.3201C100.985 17.1468 101.348 17.0601 101.775 17.0601V18.0001H101.535C100.515 18.0001 100.005 18.5535 100.005 19.6601V22.6401H99.0947V17.1601H100.005V18.0501ZM107.825 19.6901C107.825 19.8635 107.815 20.0468 107.795 20.2401H103.415C103.449 20.7801 103.632 21.2035 103.965 21.5101C104.305 21.8101 104.715 21.9601 105.195 21.9601C105.589 21.9601 105.915 21.8701 106.175 21.6901C106.442 21.5035 106.629 21.2568 106.735 20.9501H107.715C107.569 21.4768 107.275 21.9068 106.835 22.2401C106.395 22.5668 105.849 22.7301 105.195 22.7301C104.675 22.7301 104.209 22.6135 103.795 22.3801C103.389 22.1468 103.069 21.8168 102.835 21.3901C102.602 20.9568 102.485 20.4568 102.485 19.8901C102.485 19.3235 102.599 18.8268 102.825 18.4001C103.052 17.9735 103.369 17.6468 103.775 17.4201C104.189 17.1868 104.662 17.0701 105.195 17.0701C105.715 17.0701 106.175 17.1835 106.575 17.4101C106.975 17.6368 107.282 17.9501 107.495 18.3501C107.715 18.7435 107.825 19.1901 107.825 19.6901ZM106.885 19.5001C106.885 19.1535 106.809 18.8568 106.655 18.6101C106.502 18.3568 106.292 18.1668 106.025 18.0401C105.765 17.9068 105.475 17.8401 105.155 17.8401C104.695 17.8401 104.302 17.9868 103.975 18.2801C103.655 18.5735 103.472 18.9801 103.425 19.5001H106.885ZM110.966 22.7301C110.546 22.7301 110.17 22.6601 109.836 22.5201C109.503 22.3735 109.24 22.1735 109.046 21.9201C108.853 21.6601 108.746 21.3635 108.726 21.0301H109.666C109.693 21.3035 109.82 21.5268 110.046 21.7001C110.28 21.8735 110.583 21.9601 110.956 21.9601C111.303 21.9601 111.576 21.8835 111.776 21.7301C111.976 21.5768 112.076 21.3835 112.076 21.1501C112.076 20.9101 111.97 20.7335 111.756 20.6201C111.543 20.5001 111.213 20.3835 110.766 20.2701C110.36 20.1635 110.026 20.0568 109.766 19.9501C109.513 19.8368 109.293 19.6735 109.106 19.4601C108.926 19.2401 108.836 18.9535 108.836 18.6001C108.836 18.3201 108.92 18.0635 109.086 17.8301C109.253 17.5968 109.49 17.4135 109.796 17.2801C110.103 17.1401 110.453 17.0701 110.846 17.0701C111.453 17.0701 111.943 17.2235 112.316 17.5301C112.69 17.8368 112.89 18.2568 112.916 18.7901H112.006C111.986 18.5035 111.87 18.2735 111.656 18.1001C111.45 17.9268 111.17 17.8401 110.816 17.8401C110.49 17.8401 110.23 17.9101 110.036 18.0501C109.843 18.1901 109.746 18.3735 109.746 18.6001C109.746 18.7801 109.803 18.9301 109.916 19.0501C110.036 19.1635 110.183 19.2568 110.356 19.3301C110.536 19.3968 110.783 19.4735 111.096 19.5601C111.49 19.6668 111.81 19.7735 112.056 19.8801C112.303 19.9801 112.513 20.1335 112.686 20.3401C112.866 20.5468 112.96 20.8168 112.966 21.1501C112.966 21.4501 112.883 21.7201 112.716 21.9601C112.55 22.2001 112.313 22.3901 112.006 22.5301C111.706 22.6635 111.36 22.7301 110.966 22.7301ZM117.827 15.2401V22.6401H116.917V15.2401H117.827ZM124.378 19.6901C124.378 19.8635 124.368 20.0468 124.348 20.2401H119.968C120.001 20.7801 120.185 21.2035 120.518 21.5101C120.858 21.8101 121.268 21.9601 121.748 21.9601C122.141 21.9601 122.468 21.8701 122.728 21.6901C122.995 21.5035 123.181 21.2568 123.288 20.9501H124.268C124.121 21.4768 123.828 21.9068 123.388 22.2401C122.948 22.5668 122.401 22.7301 121.748 22.7301C121.228 22.7301 120.761 22.6135 120.348 22.3801C119.941 22.1468 119.621 21.8168 119.388 21.3901C119.155 20.9568 119.038 20.4568 119.038 19.8901C119.038 19.3235 119.151 18.8268 119.378 18.4001C119.605 17.9735 119.921 17.6468 120.328 17.4201C120.741 17.1868 121.215 17.0701 121.748 17.0701C122.268 17.0701 122.728 17.1835 123.128 17.4101C123.528 17.6368 123.835 17.9501 124.048 18.3501C124.268 18.7435 124.378 19.1901 124.378 19.6901ZM123.438 19.5001C123.438 19.1535 123.361 18.8568 123.208 18.6101C123.055 18.3568 122.845 18.1668 122.578 18.0401C122.318 17.9068 122.028 17.8401 121.708 17.8401C121.248 17.8401 120.855 17.9868 120.528 18.2801C120.208 18.5735 120.025 18.9801 119.978 19.5001H123.438ZM125.239 19.8801C125.239 19.3201 125.352 18.8301 125.579 18.4101C125.806 17.9835 126.116 17.6535 126.509 17.4201C126.909 17.1868 127.352 17.0701 127.839 17.0701C128.319 17.0701 128.736 17.1735 129.089 17.3801C129.442 17.5868 129.706 17.8468 129.879 18.1601V17.1601H130.799V22.6401H129.879V21.6201C129.699 21.9401 129.429 22.2068 129.069 22.4201C128.716 22.6268 128.302 22.7301 127.829 22.7301C127.342 22.7301 126.902 22.6101 126.509 22.3701C126.116 22.1301 125.806 21.7935 125.579 21.3601C125.352 20.9268 125.239 20.4335 125.239 19.8801ZM129.879 19.8901C129.879 19.4768 129.796 19.1168 129.629 18.8101C129.462 18.5035 129.236 18.2701 128.949 18.1101C128.669 17.9435 128.359 17.8601 128.019 17.8601C127.679 17.8601 127.369 17.9401 127.089 18.1001C126.809 18.2601 126.586 18.4935 126.419 18.8001C126.252 19.1068 126.169 19.4668 126.169 19.8801C126.169 20.3001 126.252 20.6668 126.419 20.9801C126.586 21.2868 126.809 21.5235 127.089 21.6901C127.369 21.8501 127.679 21.9301 128.019 21.9301C128.359 21.9301 128.669 21.8501 128.949 21.6901C129.236 21.5235 129.462 21.2868 129.629 20.9801C129.796 20.6668 129.879 20.3035 129.879 19.8901ZM135.397 22.6401L133.247 20.2201V22.6401H132.337V15.2401H133.247V19.5901L135.357 17.1601H136.627L134.047 19.8901L136.637 22.6401H135.397ZM141.059 18.0501C141.219 17.7368 141.446 17.4935 141.739 17.3201C142.039 17.1468 142.403 17.0601 142.829 17.0601V18.0001H142.589C141.569 18.0001 141.059 18.5535 141.059 19.6601V22.6401H140.149V17.1601H141.059V18.0501ZM148.88 19.6901C148.88 19.8635 148.87 20.0468 148.85 20.2401H144.47C144.503 20.7801 144.687 21.2035 145.02 21.5101C145.36 21.8101 145.77 21.9601 146.25 21.9601C146.643 21.9601 146.97 21.8701 147.23 21.6901C147.497 21.5035 147.683 21.2568 147.79 20.9501H148.77C148.623 21.4768 148.33 21.9068 147.89 22.2401C147.45 22.5668 146.903 22.7301 146.25 22.7301C145.73 22.7301 145.263 22.6135 144.85 22.3801C144.443 22.1468 144.123 21.8168 143.89 21.3901C143.657 20.9568 143.54 20.4568 143.54 19.8901C143.54 19.3235 143.653 18.8268 143.88 18.4001C144.107 17.9735 144.423 17.6468 144.83 17.4201C145.243 17.1868 145.717 17.0701 146.25 17.0701C146.77 17.0701 147.23 17.1835 147.63 17.4101C148.03 17.6368 148.337 17.9501 148.55 18.3501C148.77 18.7435 148.88 19.1901 148.88 19.6901ZM147.94 19.5001C147.94 19.1535 147.863 18.8568 147.71 18.6101C147.557 18.3568 147.347 18.1668 147.08 18.0401C146.82 17.9068 146.53 17.8401 146.21 17.8401C145.75 17.8401 145.357 17.9868 145.03 18.2801C144.71 18.5735 144.527 18.9801 144.48 19.5001H147.94ZM152.021 22.7301C151.601 22.7301 151.224 22.6601 150.891 22.5201C150.558 22.3735 150.294 22.1735 150.101 21.9201C149.908 21.6601 149.801 21.3635 149.781 21.0301H150.721C150.748 21.3035 150.874 21.5268 151.101 21.7001C151.334 21.8735 151.638 21.9601 152.011 21.9601C152.358 21.9601 152.631 21.8835 152.831 21.7301C153.031 21.5768 153.131 21.3835 153.131 21.1501C153.131 20.9101 153.024 20.7335 152.811 20.6201C152.598 20.5001 152.268 20.3835 151.821 20.2701C151.414 20.1635 151.081 20.0568 150.821 19.9501C150.568 19.8368 150.348 19.6735 150.161 19.4601C149.981 19.2401 149.891 18.9535 149.891 18.6001C149.891 18.3201 149.974 18.0635 150.141 17.8301C150.308 17.5968 150.544 17.4135 150.851 17.2801C151.158 17.1401 151.508 17.0701 151.901 17.0701C152.508 17.0701 152.998 17.2235 153.371 17.5301C153.744 17.8368 153.944 18.2568 153.971 18.7901H153.061C153.041 18.5035 152.924 18.2735 152.711 18.1001C152.504 17.9268 152.224 17.8401 151.871 17.8401C151.544 17.8401 151.284 17.9101 151.091 18.0501C150.898 18.1901 150.801 18.3735 150.801 18.6001C150.801 18.7801 150.858 18.9301 150.971 19.0501C151.091 19.1635 151.238 19.2568 151.411 19.3301C151.591 19.3968 151.838 19.4735 152.151 19.5601C152.544 19.6668 152.864 19.7735 153.111 19.8801C153.358 19.9801 153.568 20.1335 153.741 20.3401C153.921 20.5468 154.014 20.8168 154.021 21.1501C154.021 21.4501 153.938 21.7201 153.771 21.9601C153.604 22.2001 153.368 22.3901 153.061 22.5301C152.761 22.6635 152.414 22.7301 152.021 22.7301ZM155.776 16.2701C155.602 16.2701 155.456 16.2101 155.336 16.0901C155.216 15.9701 155.156 15.8235 155.156 15.6501C155.156 15.4768 155.216 15.3301 155.336 15.2101C155.456 15.0901 155.602 15.0301 155.776 15.0301C155.942 15.0301 156.082 15.0901 156.196 15.2101C156.316 15.3301 156.376 15.4768 156.376 15.6501C156.376 15.8235 156.316 15.9701 156.196 16.0901C156.082 16.2101 155.942 16.2701 155.776 16.2701ZM156.216 17.1601V22.6401H155.306V17.1601H156.216ZM159.707 22.7301C159.287 22.7301 158.91 22.6601 158.577 22.5201C158.243 22.3735 157.98 22.1735 157.787 21.9201C157.593 21.6601 157.487 21.3635 157.467 21.0301H158.407C158.433 21.3035 158.56 21.5268 158.787 21.7001C159.02 21.8735 159.323 21.9601 159.697 21.9601C160.043 21.9601 160.317 21.8835 160.517 21.7301C160.717 21.5768 160.817 21.3835 160.817 21.1501C160.817 20.9101 160.71 20.7335 160.497 20.6201C160.283 20.5001 159.953 20.3835 159.507 20.2701C159.1 20.1635 158.767 20.0568 158.507 19.9501C158.253 19.8368 158.033 19.6735 157.847 19.4601C157.667 19.2401 157.577 18.9535 157.577 18.6001C157.577 18.3201 157.66 18.0635 157.827 17.8301C157.993 17.5968 158.23 17.4135 158.537 17.2801C158.843 17.1401 159.193 17.0701 159.587 17.0701C160.193 17.0701 160.683 17.2235 161.057 17.5301C161.43 17.8368 161.63 18.2568 161.657 18.7901H160.747C160.727 18.5035 160.61 18.2735 160.397 18.1001C160.19 17.9268 159.91 17.8401 159.557 17.8401C159.23 17.8401 158.97 17.9101 158.777 18.0501C158.583 18.1901 158.487 18.3735 158.487 18.6001C158.487 18.7801 158.543 18.9301 158.657 19.0501C158.777 19.1635 158.923 19.2568 159.097 19.3301C159.277 19.3968 159.523 19.4735 159.837 19.5601C160.23 19.6668 160.55 19.7735 160.797 19.8801C161.043 19.9801 161.253 20.1335 161.427 20.3401C161.607 20.5468 161.7 20.8168 161.707 21.1501C161.707 21.4501 161.623 21.7201 161.457 21.9601C161.29 22.2001 161.053 22.3901 160.747 22.5301C160.447 22.6635 160.1 22.7301 159.707 22.7301ZM164.101 17.9101V21.1401C164.101 21.4068 164.158 21.5968 164.271 21.7101C164.385 21.8168 164.581 21.8701 164.861 21.8701H165.531V22.6401H164.711C164.205 22.6401 163.825 22.5235 163.571 22.2901C163.318 22.0568 163.191 21.6735 163.191 21.1401V17.9101H162.481V17.1601H163.191V15.7801H164.101V17.1601H165.531V17.9101H164.101ZM166.294 19.8801C166.294 19.3201 166.407 18.8301 166.634 18.4101C166.86 17.9835 167.17 17.6535 167.564 17.4201C167.964 17.1868 168.407 17.0701 168.894 17.0701C169.374 17.0701 169.79 17.1735 170.144 17.3801C170.497 17.5868 170.76 17.8468 170.934 18.1601V17.1601H171.854V22.6401H170.934V21.6201C170.754 21.9401 170.484 22.2068 170.124 22.4201C169.77 22.6268 169.357 22.7301 168.884 22.7301C168.397 22.7301 167.957 22.6101 167.564 22.3701C167.17 22.1301 166.86 21.7935 166.634 21.3601C166.407 20.9268 166.294 20.4335 166.294 19.8801ZM170.934 19.8901C170.934 19.4768 170.85 19.1168 170.684 18.8101C170.517 18.5035 170.29 18.2701 170.004 18.1101C169.724 17.9435 169.414 17.8601 169.074 17.8601C168.734 17.8601 168.424 17.9401 168.144 18.1001C167.864 18.2601 167.64 18.4935 167.474 18.8001C167.307 19.1068 167.224 19.4668 167.224 19.8801C167.224 20.3001 167.307 20.6668 167.474 20.9801C167.64 21.2868 167.864 21.5235 168.144 21.6901C168.424 21.8501 168.734 21.9301 169.074 21.9301C169.414 21.9301 169.724 21.8501 170.004 21.6901C170.29 21.5235 170.517 21.2868 170.684 20.9801C170.85 20.6668 170.934 20.3035 170.934 19.8901ZM176.062 17.0601C176.728 17.0601 177.268 17.2635 177.682 17.6701C178.095 18.0701 178.302 18.6501 178.302 19.4101V22.6401H177.402V19.5401C177.402 18.9935 177.265 18.5768 176.992 18.2901C176.718 17.9968 176.345 17.8501 175.872 17.8501C175.392 17.8501 175.008 18.0001 174.722 18.3001C174.442 18.6001 174.302 19.0368 174.302 19.6101V22.6401H173.392V17.1601H174.302V17.9401C174.482 17.6601 174.725 17.4435 175.032 17.2901C175.345 17.1368 175.688 17.0601 176.062 17.0601ZM179.448 19.8901C179.448 19.3235 179.561 18.8301 179.788 18.4101C180.015 17.9835 180.328 17.6535 180.728 17.4201C181.135 17.1868 181.598 17.0701 182.118 17.0701C182.791 17.0701 183.345 17.2335 183.778 17.5601C184.218 17.8868 184.508 18.3401 184.648 18.9201H183.668C183.575 18.5868 183.391 18.3235 183.118 18.1301C182.851 17.9368 182.518 17.8401 182.118 17.8401C181.598 17.8401 181.178 18.0201 180.858 18.3801C180.538 18.7335 180.378 19.2368 180.378 19.8901C180.378 20.5501 180.538 21.0601 180.858 21.4201C181.178 21.7801 181.598 21.9601 182.118 21.9601C182.518 21.9601 182.851 21.8668 183.118 21.6801C183.385 21.4935 183.568 21.2268 183.668 20.8801H184.648C184.501 21.4401 184.208 21.8901 183.768 22.2301C183.328 22.5635 182.778 22.7301 182.118 22.7301C181.598 22.7301 181.135 22.6135 180.728 22.3801C180.328 22.1468 180.015 21.8168 179.788 21.3901C179.561 20.9635 179.448 20.4635 179.448 19.8901ZM190.862 19.6901C190.862 19.8635 190.852 20.0468 190.832 20.2401H186.452C186.486 20.7801 186.669 21.2035 187.002 21.5101C187.342 21.8101 187.752 21.9601 188.232 21.9601C188.626 21.9601 188.952 21.8701 189.212 21.6901C189.479 21.5035 189.666 21.2568 189.772 20.9501H190.752C190.606 21.4768 190.312 21.9068 189.872 22.2401C189.432 22.5668 188.886 22.7301 188.232 22.7301C187.712 22.7301 187.246 22.6135 186.832 22.3801C186.426 22.1468 186.106 21.8168 185.872 21.3901C185.639 20.9568 185.522 20.4568 185.522 19.8901C185.522 19.3235 185.636 18.8268 185.862 18.4001C186.089 17.9735 186.406 17.6468 186.812 17.4201C187.226 17.1868 187.699 17.0701 188.232 17.0701C188.752 17.0701 189.212 17.1835 189.612 17.4101C190.012 17.6368 190.319 17.9501 190.532 18.3501C190.752 18.7435 190.862 19.1901 190.862 19.6901ZM189.922 19.5001C189.922 19.1535 189.846 18.8568 189.692 18.6101C189.539 18.3568 189.329 18.1668 189.062 18.0401C188.802 17.9068 188.512 17.8401 188.192 17.8401C187.732 17.8401 187.339 17.9868 187.012 18.2801C186.692 18.5735 186.509 18.9801 186.462 19.5001H189.922ZM194.389 19.8801C194.389 19.3201 194.503 18.8301 194.729 18.4101C194.956 17.9835 195.266 17.6535 195.659 17.4201C196.059 17.1868 196.503 17.0701 196.989 17.0701C197.469 17.0701 197.886 17.1735 198.239 17.3801C198.593 17.5868 198.856 17.8468 199.029 18.1601V17.1601H199.949V22.6401H199.029V21.6201C198.849 21.9401 198.579 22.2068 198.219 22.4201C197.866 22.6268 197.453 22.7301 196.979 22.7301C196.493 22.7301 196.053 22.6101 195.659 22.3701C195.266 22.1301 194.956 21.7935 194.729 21.3601C194.503 20.9268 194.389 20.4335 194.389 19.8801ZM199.029 19.8901C199.029 19.4768 198.946 19.1168 198.779 18.8101C198.613 18.5035 198.386 18.2701 198.099 18.1101C197.819 17.9435 197.509 17.8601 197.169 17.8601C196.829 17.8601 196.519 17.9401 196.239 18.1001C195.959 18.2601 195.736 18.4935 195.569 18.8001C195.403 19.1068 195.319 19.4668 195.319 19.8801C195.319 20.3001 195.403 20.6668 195.569 20.9801C195.736 21.2868 195.959 21.5235 196.239 21.6901C196.519 21.8501 196.829 21.9301 197.169 21.9301C197.509 21.9301 197.819 21.8501 198.099 21.6901C198.386 21.5235 198.613 21.2868 198.779 20.9801C198.946 20.6668 199.029 20.3035 199.029 19.8901ZM204.157 17.0601C204.824 17.0601 205.364 17.2635 205.777 17.6701C206.191 18.0701 206.397 18.6501 206.397 19.4101V22.6401H205.497V19.5401C205.497 18.9935 205.361 18.5768 205.087 18.2901C204.814 17.9968 204.441 17.8501 203.967 17.8501C203.487 17.8501 203.104 18.0001 202.817 18.3001C202.537 18.6001 202.397 19.0368 202.397 19.6101V22.6401H201.487V17.1601H202.397V17.9401C202.577 17.6601 202.821 17.4435 203.127 17.2901C203.441 17.1368 203.784 17.0601 204.157 17.0601ZM207.544 19.8801C207.544 19.3201 207.657 18.8301 207.884 18.4101C208.11 17.9835 208.42 17.6535 208.814 17.4201C209.214 17.1868 209.66 17.0701 210.154 17.0701C210.58 17.0701 210.977 17.1701 211.344 17.3701C211.71 17.5635 211.99 17.8201 212.184 18.1401V15.2401H213.104V22.6401H212.184V21.6101C212.004 21.9368 211.737 22.2068 211.384 22.4201C211.03 22.6268 210.617 22.7301 210.144 22.7301C209.657 22.7301 209.214 22.6101 208.814 22.3701C208.42 22.1301 208.11 21.7935 207.884 21.3601C207.657 20.9268 207.544 20.4335 207.544 19.8801ZM212.184 19.8901C212.184 19.4768 212.1 19.1168 211.934 18.8101C211.767 18.5035 211.54 18.2701 211.254 18.1101C210.974 17.9435 210.664 17.8601 210.324 17.8601C209.984 17.8601 209.674 17.9401 209.394 18.1001C209.114 18.2601 208.89 18.4935 208.724 18.8001C208.557 19.1068 208.474 19.4668 208.474 19.8801C208.474 20.3001 208.557 20.6668 208.724 20.9801C208.89 21.2868 209.114 21.5235 209.394 21.6901C209.674 21.8501 209.984 21.9301 210.324 21.9301C210.664 21.9301 210.974 21.8501 211.254 21.6901C211.54 21.5235 211.767 21.2868 211.934 20.9801C212.1 20.6668 212.184 20.3035 212.184 19.8901ZM219.248 22.7301C218.828 22.7301 218.451 22.6601 218.118 22.5201C217.784 22.3735 217.521 22.1735 217.328 21.9201C217.134 21.6601 217.028 21.3635 217.008 21.0301H217.948C217.974 21.3035 218.101 21.5268 218.328 21.7001C218.561 21.8735 218.864 21.9601 219.238 21.9601C219.584 21.9601 219.858 21.8835 220.058 21.7301C220.258 21.5768 220.358 21.3835 220.358 21.1501C220.358 20.9101 220.251 20.7335 220.038 20.6201C219.824 20.5001 219.494 20.3835 219.048 20.2701C218.641 20.1635 218.308 20.0568 218.048 19.9501C217.794 19.8368 217.574 19.6735 217.388 19.4601C217.208 19.2401 217.118 18.9535 217.118 18.6001C217.118 18.3201 217.201 18.0635 217.368 17.8301C217.534 17.5968 217.771 17.4135 218.078 17.2801C218.384 17.1401 218.734 17.0701 219.128 17.0701C219.734 17.0701 220.224 17.2235 220.598 17.5301C220.971 17.8368 221.171 18.2568 221.198 18.7901H220.288C220.268 18.5035 220.151 18.2735 219.938 18.1001C219.731 17.9268 219.451 17.8401 219.098 17.8401C218.771 17.8401 218.511 17.9101 218.318 18.0501C218.124 18.1901 218.028 18.3735 218.028 18.6001C218.028 18.7801 218.084 18.9301 218.198 19.0501C218.318 19.1635 218.464 19.2568 218.638 19.3301C218.818 19.3968 219.064 19.4735 219.378 19.5601C219.771 19.6668 220.091 19.7735 220.338 19.8801C220.584 19.9801 220.794 20.1335 220.968 20.3401C221.148 20.5468 221.241 20.8168 221.248 21.1501C221.248 21.4501 221.164 21.7201 220.998 21.9601C220.831 22.2001 220.594 22.3901 220.288 22.5301C219.988 22.6635 219.641 22.7301 219.248 22.7301ZM229.122 17.0601C229.549 17.0601 229.929 17.1501 230.262 17.3301C230.596 17.5035 230.859 17.7668 231.052 18.1201C231.246 18.4735 231.342 18.9035 231.342 19.4101V22.6401H230.442V19.5401C230.442 18.9935 230.306 18.5768 230.032 18.2901C229.766 17.9968 229.402 17.8501 228.942 17.8501C228.469 17.8501 228.092 18.0035 227.812 18.3101C227.532 18.6101 227.392 19.0468 227.392 19.6201V22.6401H226.492V19.5401C226.492 18.9935 226.356 18.5768 226.082 18.2901C225.816 17.9968 225.452 17.8501 224.992 17.8501C224.519 17.8501 224.142 18.0035 223.862 18.3101C223.582 18.6101 223.442 19.0468 223.442 19.6201V22.6401H222.532V17.1601H223.442V17.9501C223.622 17.6635 223.862 17.4435 224.162 17.2901C224.469 17.1368 224.806 17.0601 225.172 17.0601C225.632 17.0601 226.039 17.1635 226.392 17.3701C226.746 17.5768 227.009 17.8801 227.182 18.2801C227.336 17.8935 227.589 17.5935 227.942 17.3801C228.296 17.1668 228.689 17.0601 229.122 17.0601ZM235.225 22.7301C234.712 22.7301 234.245 22.6135 233.825 22.3801C233.412 22.1468 233.085 21.8168 232.845 21.3901C232.612 20.9568 232.495 20.4568 232.495 19.8901C232.495 19.3301 232.615 18.8368 232.855 18.4101C233.102 17.9768 233.435 17.6468 233.855 17.4201C234.275 17.1868 234.745 17.0701 235.265 17.0701C235.785 17.0701 236.255 17.1868 236.675 17.4201C237.095 17.6468 237.425 17.9735 237.665 18.4001C237.912 18.8268 238.035 19.3235 238.035 19.8901C238.035 20.4568 237.908 20.9568 237.655 21.3901C237.408 21.8168 237.072 22.1468 236.645 22.3801C236.218 22.6135 235.745 22.7301 235.225 22.7301ZM235.225 21.9301C235.552 21.9301 235.858 21.8535 236.145 21.7001C236.432 21.5468 236.662 21.3168 236.835 21.0101C237.015 20.7035 237.105 20.3301 237.105 19.8901C237.105 19.4501 237.018 19.0768 236.845 18.7701C236.672 18.4635 236.445 18.2368 236.165 18.0901C235.885 17.9368 235.582 17.8601 235.255 17.8601C234.922 17.8601 234.615 17.9368 234.335 18.0901C234.062 18.2368 233.842 18.4635 233.675 18.7701C233.508 19.0768 233.425 19.4501 233.425 19.8901C233.425 20.3368 233.505 20.7135 233.665 21.0201C233.832 21.3268 234.052 21.5568 234.325 21.7101C234.598 21.8568 234.898 21.9301 235.225 21.9301ZM241.621 22.7301C241.108 22.7301 240.641 22.6135 240.221 22.3801C239.808 22.1468 239.481 21.8168 239.241 21.3901C239.008 20.9568 238.891 20.4568 238.891 19.8901C238.891 19.3301 239.011 18.8368 239.251 18.4101C239.498 17.9768 239.831 17.6468 240.251 17.4201C240.671 17.1868 241.141 17.0701 241.661 17.0701C242.181 17.0701 242.651 17.1868 243.071 17.4201C243.491 17.6468 243.821 17.9735 244.061 18.4001C244.308 18.8268 244.431 19.3235 244.431 19.8901C244.431 20.4568 244.305 20.9568 244.051 21.3901C243.805 21.8168 243.468 22.1468 243.041 22.3801C242.615 22.6135 242.141 22.7301 241.621 22.7301ZM241.621 21.9301C241.948 21.9301 242.255 21.8535 242.541 21.7001C242.828 21.5468 243.058 21.3168 243.231 21.0101C243.411 20.7035 243.501 20.3301 243.501 19.8901C243.501 19.4501 243.415 19.0768 243.241 18.7701C243.068 18.4635 242.841 18.2368 242.561 18.0901C242.281 17.9368 241.978 17.8601 241.651 17.8601C241.318 17.8601 241.011 17.9368 240.731 18.0901C240.458 18.2368 240.238 18.4635 240.071 18.7701C239.905 19.0768 239.821 19.4501 239.821 19.8901C239.821 20.3368 239.901 20.7135 240.061 21.0201C240.228 21.3268 240.448 21.5568 240.721 21.7101C240.995 21.8568 241.295 21.9301 241.621 21.9301ZM246.738 17.9101V21.1401C246.738 21.4068 246.795 21.5968 246.908 21.7101C247.021 21.8168 247.218 21.8701 247.498 21.8701H248.168V22.6401H247.348C246.841 22.6401 246.461 22.5235 246.208 22.2901C245.955 22.0568 245.828 21.6735 245.828 21.1401V17.9101H245.118V17.1601H245.828V15.7801H246.738V17.1601H248.168V17.9101H246.738ZM251.99 17.0601C252.404 17.0601 252.777 17.1501 253.11 17.3301C253.444 17.5035 253.704 17.7668 253.89 18.1201C254.084 18.4735 254.18 18.9035 254.18 19.4101V22.6401H253.28V19.5401C253.28 18.9935 253.144 18.5768 252.87 18.2901C252.597 17.9968 252.224 17.8501 251.75 17.8501C251.27 17.8501 250.887 18.0001 250.6 18.3001C250.32 18.6001 250.18 19.0368 250.18 19.6101V22.6401H249.27V15.2401H250.18V17.9401C250.36 17.6601 250.607 17.4435 250.92 17.2901C251.24 17.1368 251.597 17.0601 251.99 17.0601ZM257.993 19.8801C257.993 19.3201 258.106 18.8301 258.333 18.4101C258.56 17.9835 258.87 17.6535 259.263 17.4201C259.663 17.1868 260.11 17.0701 260.603 17.0701C261.03 17.0701 261.426 17.1701 261.793 17.3701C262.16 17.5635 262.44 17.8201 262.633 18.1401V15.2401H263.553V22.6401H262.633V21.6101C262.453 21.9368 262.186 22.2068 261.833 22.4201C261.48 22.6268 261.066 22.7301 260.593 22.7301C260.106 22.7301 259.663 22.6101 259.263 22.3701C258.87 22.1301 258.56 21.7935 258.333 21.3601C258.106 20.9268 257.993 20.4335 257.993 19.8801ZM262.633 19.8901C262.633 19.4768 262.55 19.1168 262.383 18.8101C262.216 18.5035 261.99 18.2701 261.703 18.1101C261.423 17.9435 261.113 17.8601 260.773 17.8601C260.433 17.8601 260.123 17.9401 259.843 18.1001C259.563 18.2601 259.34 18.4935 259.173 18.8001C259.006 19.1068 258.923 19.4668 258.923 19.8801C258.923 20.3001 259.006 20.6668 259.173 20.9801C259.34 21.2868 259.563 21.5235 259.843 21.6901C260.123 21.8501 260.433 21.9301 260.773 21.9301C261.113 21.9301 261.423 21.8501 261.703 21.6901C261.99 21.5235 262.216 21.2868 262.383 20.9801C262.55 20.6668 262.633 20.3035 262.633 19.8901ZM270.091 19.6901C270.091 19.8635 270.081 20.0468 270.061 20.2401H265.681C265.714 20.7801 265.897 21.2035 266.231 21.5101C266.571 21.8101 266.981 21.9601 267.461 21.9601C267.854 21.9601 268.181 21.8701 268.441 21.6901C268.707 21.5035 268.894 21.2568 269.001 20.9501H269.981C269.834 21.4768 269.541 21.9068 269.101 22.2401C268.661 22.5668 268.114 22.7301 267.461 22.7301C266.941 22.7301 266.474 22.6135 266.061 22.3801C265.654 22.1468 265.334 21.8168 265.101 21.3901C264.867 20.9568 264.751 20.4568 264.751 19.8901C264.751 19.3235 264.864 18.8268 265.091 18.4001C265.317 17.9735 265.634 17.6468 266.041 17.4201C266.454 17.1868 266.927 17.0701 267.461 17.0701C267.981 17.0701 268.441 17.1835 268.841 17.4101C269.241 17.6368 269.547 17.9501 269.761 18.3501C269.981 18.7435 270.091 19.1901 270.091 19.6901ZM269.151 19.5001C269.151 19.1535 269.074 18.8568 268.921 18.6101C268.767 18.3568 268.557 18.1668 268.291 18.0401C268.031 17.9068 267.741 17.8401 267.421 17.8401C266.961 17.8401 266.567 17.9868 266.241 18.2801C265.921 18.5735 265.737 18.9801 265.691 19.5001H269.151ZM272.202 15.2401V22.6401H271.292V15.2401H272.202ZM274.223 16.2701C274.05 16.2701 273.903 16.2101 273.783 16.0901C273.663 15.9701 273.603 15.8235 273.603 15.6501C273.603 15.4768 273.663 15.3301 273.783 15.2101C273.903 15.0901 274.05 15.0301 274.223 15.0301C274.39 15.0301 274.53 15.0901 274.643 15.2101C274.763 15.3301 274.823 15.4768 274.823 15.6501C274.823 15.8235 274.763 15.9701 274.643 16.0901C274.53 16.2101 274.39 16.2701 274.223 16.2701ZM274.663 17.1601V22.6401H273.753V17.1601H274.663ZM278.254 21.8001L279.954 17.1601H280.924L278.774 22.6401H277.714L275.564 17.1601H276.544L278.254 21.8001ZM286.819 19.6901C286.819 19.8635 286.809 20.0468 286.789 20.2401H282.409C282.443 20.7801 282.626 21.2035 282.959 21.5101C283.299 21.8101 283.709 21.9601 284.189 21.9601C284.583 21.9601 284.909 21.8701 285.169 21.6901C285.436 21.5035 285.623 21.2568 285.729 20.9501H286.709C286.563 21.4768 286.269 21.9068 285.829 22.2401C285.389 22.5668 284.843 22.7301 284.189 22.7301C283.669 22.7301 283.203 22.6135 282.789 22.3801C282.383 22.1468 282.063 21.8168 281.829 21.3901C281.596 20.9568 281.479 20.4568 281.479 19.8901C281.479 19.3235 281.593 18.8268 281.819 18.4001C282.046 17.9735 282.363 17.6468 282.769 17.4201C283.183 17.1868 283.656 17.0701 284.189 17.0701C284.709 17.0701 285.169 17.1835 285.569 17.4101C285.969 17.6368 286.276 17.9501 286.489 18.3501C286.709 18.7435 286.819 19.1901 286.819 19.6901ZM285.879 19.5001C285.879 19.1535 285.803 18.8568 285.649 18.6101C285.496 18.3568 285.286 18.1668 285.019 18.0401C284.759 17.9068 284.469 17.8401 284.149 17.8401C283.689 17.8401 283.296 17.9868 282.969 18.2801C282.649 18.5735 282.466 18.9801 282.419 19.5001H285.879ZM288.93 18.0501C289.09 17.7368 289.317 17.4935 289.61 17.3201C289.91 17.1468 290.274 17.0601 290.7 17.0601V18.0001H290.46C289.44 18.0001 288.93 18.5535 288.93 19.6601V22.6401H288.02V17.1601H288.93V18.0501ZM296.471 17.1601L293.171 25.2201H292.231L293.311 22.5801L291.101 17.1601H292.111L293.831 21.6001L295.531 17.1601H296.471ZM302.772 17.0601C303.185 17.0601 303.558 17.1501 303.892 17.3301C304.225 17.5035 304.485 17.7668 304.672 18.1201C304.865 18.4735 304.962 18.9035 304.962 19.4101V22.6401H304.062V19.5401C304.062 18.9935 303.925 18.5768 303.652 18.2901C303.378 17.9968 303.005 17.8501 302.532 17.8501C302.052 17.8501 301.668 18.0001 301.382 18.3001C301.102 18.6001 300.962 19.0368 300.962 19.6101V22.6401H300.052V15.2401H300.962V17.9401C301.142 17.6601 301.388 17.4435 301.702 17.2901C302.022 17.1368 302.378 17.0601 302.772 17.0601ZM306.108 19.8801C306.108 19.3201 306.222 18.8301 306.448 18.4101C306.675 17.9835 306.985 17.6535 307.378 17.4201C307.778 17.1868 308.222 17.0701 308.708 17.0701C309.188 17.0701 309.605 17.1735 309.958 17.3801C310.312 17.5868 310.575 17.8468 310.748 18.1601V17.1601H311.668V22.6401H310.748V21.6201C310.568 21.9401 310.298 22.2068 309.938 22.4201C309.585 22.6268 309.172 22.7301 308.698 22.7301C308.212 22.7301 307.772 22.6101 307.378 22.3701C306.985 22.1301 306.675 21.7935 306.448 21.3601C306.222 20.9268 306.108 20.4335 306.108 19.8801ZM310.748 19.8901C310.748 19.4768 310.665 19.1168 310.498 18.8101C310.332 18.5035 310.105 18.2701 309.818 18.1101C309.538 17.9435 309.228 17.8601 308.888 17.8601C308.548 17.8601 308.238 17.9401 307.958 18.1001C307.678 18.2601 307.455 18.4935 307.288 18.8001C307.122 19.1068 307.038 19.4668 307.038 19.8801C307.038 20.3001 307.122 20.6668 307.288 20.9801C307.455 21.2868 307.678 21.5235 307.958 21.6901C308.238 21.8501 308.548 21.9301 308.888 21.9301C309.228 21.9301 309.538 21.8501 309.818 21.6901C310.105 21.5235 310.332 21.2868 310.498 20.9801C310.665 20.6668 310.748 20.3035 310.748 19.8901ZM315.876 17.0601C316.543 17.0601 317.083 17.2635 317.496 17.6701C317.909 18.0701 318.116 18.6501 318.116 19.4101V22.6401H317.216V19.5401C317.216 18.9935 317.079 18.5768 316.806 18.2901C316.533 17.9968 316.159 17.8501 315.686 17.8501C315.206 17.8501 314.823 18.0001 314.536 18.3001C314.256 18.6001 314.116 19.0368 314.116 19.6101V22.6401H313.206V17.1601H314.116V17.9401C314.296 17.6601 314.539 17.4435 314.846 17.2901C315.159 17.1368 315.503 17.0601 315.876 17.0601ZM319.263 19.8801C319.263 19.3201 319.376 18.8301 319.603 18.4101C319.829 17.9835 320.139 17.6535 320.533 17.4201C320.933 17.1868 321.379 17.0701 321.873 17.0701C322.299 17.0701 322.696 17.1701 323.063 17.3701C323.429 17.5635 323.709 17.8201 323.903 18.1401V15.2401H324.823V22.6401H323.903V21.6101C323.723 21.9368 323.456 22.2068 323.103 22.4201C322.749 22.6268 322.336 22.7301 321.863 22.7301C321.376 22.7301 320.933 22.6101 320.533 22.3701C320.139 22.1301 319.829 21.7935 319.603 21.3601C319.376 20.9268 319.263 20.4335 319.263 19.8801ZM323.903 19.8901C323.903 19.4768 323.819 19.1168 323.653 18.8101C323.486 18.5035 323.259 18.2701 322.973 18.1101C322.693 17.9435 322.383 17.8601 322.043 17.8601C321.703 17.8601 321.393 17.9401 321.113 18.1001C320.833 18.2601 320.609 18.4935 320.443 18.8001C320.276 19.1068 320.193 19.4668 320.193 19.8801C320.193 20.3001 320.276 20.6668 320.443 20.9801C320.609 21.2868 320.833 21.5235 321.113 21.6901C321.393 21.8501 321.703 21.9301 322.043 21.9301C322.383 21.9301 322.693 21.8501 322.973 21.6901C323.259 21.5235 323.486 21.2868 323.653 20.9801C323.819 20.6668 323.903 20.3035 323.903 19.8901ZM327.27 15.2401V22.6401H326.36V15.2401H327.27ZM329.291 16.2701C329.118 16.2701 328.971 16.2101 328.851 16.0901C328.731 15.9701 328.671 15.8235 328.671 15.6501C328.671 15.4768 328.731 15.3301 328.851 15.2101C328.971 15.0901 329.118 15.0301 329.291 15.0301C329.458 15.0301 329.598 15.0901 329.711 15.2101C329.831 15.3301 329.891 15.4768 329.891 15.6501C329.891 15.8235 329.831 15.9701 329.711 16.0901C329.598 16.2101 329.458 16.2701 329.291 16.2701ZM329.731 17.1601V22.6401H328.821V17.1601H329.731ZM333.952 17.0601C334.619 17.0601 335.159 17.2635 335.572 17.6701C335.986 18.0701 336.192 18.6501 336.192 19.4101V22.6401H335.292V19.5401C335.292 18.9935 335.156 18.5768 334.882 18.2901C334.609 17.9968 334.236 17.8501 333.762 17.8501C333.282 17.8501 332.899 18.0001 332.612 18.3001C332.332 18.6001 332.192 19.0368 332.192 19.6101V22.6401H331.282V17.1601H332.192V17.9401C332.372 17.6601 332.616 17.4435 332.922 17.2901C333.236 17.1368 333.579 17.0601 333.952 17.0601ZM339.939 17.0701C340.412 17.0701 340.825 17.1735 341.179 17.3801C341.539 17.5868 341.805 17.8468 341.979 18.1601V17.1601H342.899V22.7601C342.899 23.2601 342.792 23.7035 342.579 24.0901C342.365 24.4835 342.059 24.7901 341.659 25.0101C341.265 25.2301 340.805 25.3401 340.279 25.3401C339.559 25.3401 338.959 25.1701 338.479 24.8301C337.999 24.4901 337.715 24.0268 337.629 23.4401H338.529C338.629 23.7735 338.835 24.0401 339.149 24.2401C339.462 24.4468 339.839 24.5501 340.279 24.5501C340.779 24.5501 341.185 24.3935 341.499 24.0801C341.819 23.7668 341.979 23.3268 341.979 22.7601V21.6101C341.799 21.9301 341.532 22.1968 341.179 22.4101C340.825 22.6235 340.412 22.7301 339.939 22.7301C339.452 22.7301 339.009 22.6101 338.609 22.3701C338.215 22.1301 337.905 21.7935 337.679 21.3601C337.452 20.9268 337.339 20.4335 337.339 19.8801C337.339 19.3201 337.452 18.8301 337.679 18.4101C337.905 17.9835 338.215 17.6535 338.609 17.4201C339.009 17.1868 339.452 17.0701 339.939 17.0701ZM341.979 19.8901C341.979 19.4768 341.895 19.1168 341.729 18.8101C341.562 18.5035 341.335 18.2701 341.049 18.1101C340.769 17.9435 340.459 17.8601 340.119 17.8601C339.779 17.8601 339.469 17.9401 339.189 18.1001C338.909 18.2601 338.685 18.4935 338.519 18.8001C338.352 19.1068 338.269 19.4668 338.269 19.8801C338.269 20.3001 338.352 20.6668 338.519 20.9801C338.685 21.2868 338.909 21.5235 339.189 21.6901C339.469 21.8501 339.779 21.9301 340.119 21.9301C340.459 21.9301 340.769 21.8501 341.049 21.6901C341.335 21.5235 341.562 21.2868 341.729 20.9801C341.895 20.6668 341.979 20.3035 341.979 19.8901ZM344.727 22.7001C344.553 22.7001 344.407 22.6401 344.287 22.5201C344.167 22.4001 344.107 22.2535 344.107 22.0801C344.107 21.9068 344.167 21.7601 344.287 21.6401C344.407 21.5201 344.553 21.4601 344.727 21.4601C344.893 21.4601 345.033 21.5201 345.147 21.6401C345.267 21.7601 345.327 21.9068 345.327 22.0801C345.327 22.2535 345.267 22.4001 345.147 22.5201C345.033 22.6401 344.893 22.7001 344.727 22.7001Z" fill="#716A6A"/>
</svg>
