<svg width="143" height="37" viewBox="0 0 143 37" fill="none" xmlns="http://www.w3.org/2000/svg">
<rect width="36.5" height="36.5" rx="18.25" fill="white"/>
<path d="M16.4163 20.9974V18.2474M20.083 20.9974V18.2474M23.7497 20.9974V18.2474M9.08301 14.5807V10.9141M27.4163 12.7474H9.08301M27.4163 14.5807V10.9141M12.7497 20.9974V18.2474" stroke="#031022" stroke-opacity="0.66" stroke-width="2.06182" stroke-linecap="round" stroke-linejoin="round"/>
<path d="M25.583 18.2476H10.9163C9.90382 18.2476 9.08301 19.0684 9.08301 20.0809V23.7476C9.08301 24.7601 9.90382 25.5809 10.9163 25.5809H25.583C26.5955 25.5809 27.4163 24.7601 27.4163 23.7476V20.0809C27.4163 19.0684 26.5955 18.2476 25.583 18.2476Z" stroke="#031022" stroke-opacity="0.66" stroke-width="2.06182" stroke-linecap="round" stroke-linejoin="round"/>
<path d="M49.725 11.4827C49.725 12.0127 49.6367 12.4993 49.46 12.9427C49.2833 13.386 49.035 13.7677 48.715 14.0877C48.395 14.4077 48.01 14.656 47.56 14.8327C47.11 15.0093 46.61 15.0977 46.06 15.0977H43.305V7.86766H46.06C46.61 7.86766 47.11 7.95766 47.56 8.13766C48.01 8.31432 48.395 8.56266 48.715 8.88266C49.035 9.19932 49.2833 9.57932 49.46 10.0227C49.6367 10.466 49.725 10.9527 49.725 11.4827ZM48.345 11.4827C48.345 11.086 48.2917 10.731 48.185 10.4177C48.0817 10.101 47.93 9.83432 47.73 9.61766C47.5333 9.39766 47.2933 9.22932 47.01 9.11266C46.73 8.99599 46.4133 8.93766 46.06 8.93766H44.655V14.0277H46.06C46.4133 14.0277 46.73 13.9693 47.01 13.8527C47.2933 13.736 47.5333 13.5693 47.73 13.3527C47.93 13.1327 48.0817 12.866 48.185 12.5527C48.2917 12.236 48.345 11.8793 48.345 11.4827ZM51.9095 9.96766V15.0977H50.6695V9.96766H51.9095ZM52.0795 8.47266C52.0795 8.57932 52.0579 8.67932 52.0145 8.77266C51.9712 8.86599 51.9129 8.94766 51.8395 9.01766C51.7695 9.08766 51.6862 9.14432 51.5895 9.18766C51.4929 9.22766 51.3895 9.24766 51.2795 9.24766C51.1729 9.24766 51.0712 9.22766 50.9745 9.18766C50.8812 9.14432 50.7995 9.08766 50.7295 9.01766C50.6595 8.94766 50.6029 8.86599 50.5595 8.77266C50.5195 8.67932 50.4995 8.57932 50.4995 8.47266C50.4995 8.36266 50.5195 8.25932 50.5595 8.16266C50.6029 8.06599 50.6595 7.98266 50.7295 7.91266C50.7995 7.84266 50.8812 7.78766 50.9745 7.74766C51.0712 7.70432 51.1729 7.68266 51.2795 7.68266C51.3895 7.68266 51.4929 7.70432 51.5895 7.74766C51.6862 7.78766 51.7695 7.84266 51.8395 7.91266C51.9129 7.98266 51.9712 8.06599 52.0145 8.16266C52.0579 8.25932 52.0795 8.36266 52.0795 8.47266ZM53.1686 15.0977V9.96766H53.9236C54.0836 9.96766 54.1886 10.0427 54.2386 10.1927L54.3186 10.5727C54.4086 10.4727 54.5019 10.381 54.5986 10.2977C54.6986 10.2143 54.8036 10.1427 54.9136 10.0827C55.0269 10.0227 55.1469 9.97599 55.2736 9.94266C55.4036 9.90599 55.5453 9.88766 55.6986 9.88766C56.0219 9.88766 56.2869 9.97599 56.4936 10.1527C56.7036 10.326 56.8603 10.5577 56.9636 10.8477C57.0436 10.6777 57.1436 10.5327 57.2636 10.4127C57.3836 10.2893 57.5153 10.1893 57.6586 10.1127C57.8019 10.036 57.9536 9.97932 58.1136 9.94266C58.2769 9.90599 58.4403 9.88766 58.6036 9.88766C58.8869 9.88766 59.1386 9.93099 59.3586 10.0177C59.5786 10.1043 59.7636 10.231 59.9136 10.3977C60.0636 10.5643 60.1769 10.7677 60.2536 11.0077C60.3336 11.2477 60.3736 11.5227 60.3736 11.8327V15.0977H59.1386V11.8327C59.1386 11.506 59.0669 11.261 58.9236 11.0977C58.7803 10.931 58.5703 10.8477 58.2936 10.8477C58.1669 10.8477 58.0486 10.8693 57.9386 10.9127C57.8319 10.956 57.7369 11.0193 57.6536 11.1027C57.5736 11.1827 57.5103 11.2843 57.4636 11.4077C57.4169 11.531 57.3936 11.6727 57.3936 11.8327V15.0977H56.1536V11.8327C56.1536 11.4893 56.0836 11.2393 55.9436 11.0827C55.8069 10.926 55.6053 10.8477 55.3386 10.8477C55.1586 10.8477 54.9903 10.8927 54.8336 10.9827C54.6803 11.0693 54.5369 11.1893 54.4036 11.3427V15.0977H53.1686ZM64.8525 11.9427C64.8525 11.7827 64.8292 11.6327 64.7825 11.4927C64.7392 11.3493 64.6725 11.2243 64.5825 11.1177C64.4925 11.011 64.3775 10.9277 64.2375 10.8677C64.1008 10.8043 63.9408 10.7727 63.7575 10.7727C63.4008 10.7727 63.1192 10.8743 62.9125 11.0777C62.7092 11.281 62.5792 11.5693 62.5225 11.9427H64.8525ZM62.4975 12.6877C62.5175 12.951 62.5642 13.1793 62.6375 13.3727C62.7108 13.5627 62.8075 13.721 62.9275 13.8477C63.0475 13.971 63.1892 14.0643 63.3525 14.1277C63.5192 14.1877 63.7025 14.2177 63.9025 14.2177C64.1025 14.2177 64.2742 14.1943 64.4175 14.1477C64.5642 14.101 64.6908 14.0493 64.7975 13.9927C64.9075 13.936 65.0025 13.8843 65.0825 13.8377C65.1658 13.791 65.2458 13.7677 65.3225 13.7677C65.4258 13.7677 65.5025 13.806 65.5525 13.8827L65.9075 14.3327C65.7708 14.4927 65.6175 14.6277 65.4475 14.7377C65.2775 14.8443 65.0992 14.931 64.9125 14.9977C64.7292 15.061 64.5408 15.106 64.3475 15.1327C64.1575 15.1593 63.9725 15.1727 63.7925 15.1727C63.4358 15.1727 63.1042 15.1143 62.7975 14.9977C62.4908 14.8777 62.2242 14.7027 61.9975 14.4727C61.7708 14.2393 61.5925 13.9527 61.4625 13.6127C61.3325 13.2693 61.2675 12.8727 61.2675 12.4227C61.2675 12.0727 61.3242 11.7443 61.4375 11.4377C61.5508 11.1277 61.7125 10.8593 61.9225 10.6327C62.1358 10.4027 62.3942 10.221 62.6975 10.0877C63.0042 9.95432 63.3492 9.88766 63.7325 9.88766C64.0558 9.88766 64.3542 9.93932 64.6275 10.0427C64.9008 10.146 65.1358 10.2977 65.3325 10.4977C65.5292 10.6943 65.6825 10.9377 65.7925 11.2277C65.9058 11.5143 65.9625 11.8427 65.9625 12.2127C65.9625 12.3993 65.9425 12.526 65.9025 12.5927C65.8625 12.656 65.7858 12.6877 65.6725 12.6877H62.4975ZM68.0443 10.5977C68.1476 10.4943 68.256 10.3993 68.3693 10.3127C68.486 10.2227 68.6076 10.1477 68.7343 10.0877C68.8643 10.0243 69.0026 9.97599 69.1493 9.94266C69.296 9.90599 69.456 9.88766 69.6293 9.88766C69.9093 9.88766 70.1576 9.93599 70.3743 10.0327C70.591 10.126 70.771 10.2593 70.9143 10.4327C71.061 10.6027 71.171 10.8077 71.2443 11.0477C71.321 11.2843 71.3593 11.546 71.3593 11.8327V15.0977H70.1243V11.8327C70.1243 11.5193 70.0526 11.2777 69.9093 11.1077C69.766 10.9343 69.5476 10.8477 69.2543 10.8477C69.041 10.8477 68.841 10.896 68.6543 10.9927C68.4676 11.0893 68.291 11.221 68.1243 11.3877V15.0977H66.8893V9.96766H67.6443C67.8043 9.96766 67.9093 10.0427 67.9593 10.1927L68.0443 10.5977ZM75.6638 10.9677C75.6305 11.021 75.5955 11.0593 75.5588 11.0827C75.5222 11.1027 75.4755 11.1127 75.4188 11.1127C75.3588 11.1127 75.2938 11.096 75.2238 11.0627C75.1572 11.0293 75.0788 10.9927 74.9888 10.9527C74.8988 10.9093 74.7955 10.871 74.6788 10.8377C74.5655 10.8043 74.4305 10.7877 74.2738 10.7877C74.0305 10.7877 73.8388 10.8393 73.6988 10.9427C73.5622 11.046 73.4938 11.181 73.4938 11.3477C73.4938 11.4577 73.5288 11.551 73.5988 11.6277C73.6722 11.701 73.7672 11.766 73.8838 11.8227C74.0038 11.8793 74.1388 11.931 74.2888 11.9777C74.4388 12.021 74.5905 12.0693 74.7438 12.1227C74.9005 12.176 75.0538 12.2377 75.2038 12.3077C75.3538 12.3743 75.4872 12.461 75.6038 12.5677C75.7238 12.671 75.8188 12.796 75.8888 12.9427C75.9622 13.0893 75.9988 13.266 75.9988 13.4727C75.9988 13.7193 75.9538 13.9477 75.8638 14.1577C75.7772 14.3643 75.6472 14.5443 75.4738 14.6977C75.3005 14.8477 75.0855 14.966 74.8288 15.0527C74.5755 15.136 74.2822 15.1777 73.9488 15.1777C73.7722 15.1777 73.5988 15.161 73.4288 15.1277C73.2622 15.0977 73.1005 15.0543 72.9438 14.9977C72.7905 14.941 72.6472 14.8743 72.5138 14.7977C72.3838 14.721 72.2688 14.6377 72.1688 14.5477L72.4538 14.0777C72.4905 14.021 72.5338 13.9777 72.5838 13.9477C72.6338 13.9177 72.6972 13.9027 72.7738 13.9027C72.8505 13.9027 72.9222 13.9243 72.9888 13.9677C73.0588 14.011 73.1388 14.0577 73.2288 14.1077C73.3188 14.1577 73.4238 14.2043 73.5438 14.2477C73.6672 14.291 73.8222 14.3127 74.0088 14.3127C74.1555 14.3127 74.2805 14.296 74.3838 14.2627C74.4905 14.226 74.5772 14.1793 74.6438 14.1227C74.7138 14.066 74.7638 14.001 74.7938 13.9277C74.8272 13.851 74.8438 13.7727 74.8438 13.6927C74.8438 13.5727 74.8072 13.4743 74.7338 13.3977C74.6638 13.321 74.5688 13.2543 74.4488 13.1977C74.3322 13.141 74.1972 13.091 74.0438 13.0477C73.8938 13.001 73.7388 12.951 73.5788 12.8977C73.4222 12.8443 73.2672 12.7827 73.1138 12.7127C72.9638 12.6393 72.8288 12.5477 72.7088 12.4377C72.5922 12.3277 72.4972 12.1927 72.4238 12.0327C72.3538 11.8727 72.3188 11.6793 72.3188 11.4527C72.3188 11.2427 72.3605 11.0427 72.4438 10.8527C72.5272 10.6627 72.6488 10.4977 72.8088 10.3577C72.9722 10.2143 73.1738 10.101 73.4138 10.0177C73.6572 9.93099 73.9372 9.88766 74.2538 9.88766C74.6072 9.88766 74.9288 9.94599 75.2188 10.0627C75.5088 10.1793 75.7505 10.3327 75.9438 10.5227L75.6638 10.9677ZM78.2084 9.96766V15.0977H76.9684V9.96766H78.2084ZM78.3784 8.47266C78.3784 8.57932 78.3567 8.67932 78.3134 8.77266C78.27 8.86599 78.2117 8.94766 78.1384 9.01766C78.0684 9.08766 77.985 9.14432 77.8884 9.18766C77.7917 9.22766 77.6884 9.24766 77.5784 9.24766C77.4717 9.24766 77.37 9.22766 77.2734 9.18766C77.18 9.14432 77.0984 9.08766 77.0284 9.01766C76.9584 8.94766 76.9017 8.86599 76.8584 8.77266C76.8184 8.67932 76.7984 8.57932 76.7984 8.47266C76.7984 8.36266 76.8184 8.25932 76.8584 8.16266C76.9017 8.06599 76.9584 7.98266 77.0284 7.91266C77.0984 7.84266 77.18 7.78766 77.2734 7.74766C77.37 7.70432 77.4717 7.68266 77.5784 7.68266C77.6884 7.68266 77.7917 7.70432 77.8884 7.74766C77.985 7.78766 78.0684 7.84266 78.1384 7.91266C78.2117 7.98266 78.27 8.06599 78.3134 8.16266C78.3567 8.25932 78.3784 8.36266 78.3784 8.47266ZM81.7374 9.88766C82.1174 9.88766 82.4624 9.94932 82.7724 10.0727C83.0858 10.196 83.3524 10.371 83.5724 10.5977C83.7958 10.8243 83.9674 11.101 84.0874 11.4277C84.2074 11.7543 84.2674 12.1193 84.2674 12.5227C84.2674 12.9293 84.2074 13.296 84.0874 13.6227C83.9674 13.9493 83.7958 14.2277 83.5724 14.4577C83.3524 14.6877 83.0858 14.8643 82.7724 14.9877C82.4624 15.111 82.1174 15.1727 81.7374 15.1727C81.3541 15.1727 81.0058 15.111 80.6924 14.9877C80.3791 14.8643 80.1108 14.6877 79.8874 14.4577C79.6674 14.2277 79.4958 13.9493 79.3724 13.6227C79.2524 13.296 79.1924 12.9293 79.1924 12.5227C79.1924 12.1193 79.2524 11.7543 79.3724 11.4277C79.4958 11.101 79.6674 10.8243 79.8874 10.5977C80.1108 10.371 80.3791 10.196 80.6924 10.0727C81.0058 9.94932 81.3541 9.88766 81.7374 9.88766ZM81.7374 14.2227C82.1641 14.2227 82.4791 14.0793 82.6824 13.7927C82.8891 13.506 82.9924 13.086 82.9924 12.5327C82.9924 11.9793 82.8891 11.5577 82.6824 11.2677C82.4791 10.9777 82.1641 10.8327 81.7374 10.8327C81.3041 10.8327 80.9824 10.9793 80.7724 11.2727C80.5658 11.5627 80.4624 11.9827 80.4624 12.5327C80.4624 13.0827 80.5658 13.5027 80.7724 13.7927C80.9824 14.0793 81.3041 14.2227 81.7374 14.2227ZM86.3646 10.5977C86.4679 10.4943 86.5763 10.3993 86.6896 10.3127C86.8063 10.2227 86.9279 10.1477 87.0546 10.0877C87.1846 10.0243 87.3229 9.97599 87.4696 9.94266C87.6163 9.90599 87.7763 9.88766 87.9496 9.88766C88.2296 9.88766 88.4779 9.93599 88.6946 10.0327C88.9113 10.126 89.0913 10.2593 89.2346 10.4327C89.3813 10.6027 89.4913 10.8077 89.5646 11.0477C89.6413 11.2843 89.6796 11.546 89.6796 11.8327V15.0977H88.4446V11.8327C88.4446 11.5193 88.3729 11.2777 88.2296 11.1077C88.0863 10.9343 87.8679 10.8477 87.5746 10.8477C87.3613 10.8477 87.1613 10.896 86.9746 10.9927C86.7879 11.0893 86.6113 11.221 86.4446 11.3877V15.0977H85.2096V9.96766H85.9646C86.1246 9.96766 86.2296 10.0427 86.2796 10.1927L86.3646 10.5977Z" fill="#5D5A5A"/>
<path d="M42.804 23.2823V22.6183H44.308V28.4023H43.572V23.2823H42.804ZM48.7825 23.9943C48.6652 23.4023 48.2998 23.1063 47.6865 23.1063C47.2118 23.1063 46.8572 23.2903 46.6225 23.6583C46.3878 24.021 46.2732 24.621 46.2785 25.4583C46.4012 25.181 46.6038 24.965 46.8865 24.8103C47.1745 24.6503 47.4945 24.5703 47.8465 24.5703C48.3958 24.5703 48.8332 24.741 49.1585 25.0823C49.4892 25.4237 49.6545 25.8957 49.6545 26.4983C49.6545 26.861 49.5825 27.1863 49.4385 27.4743C49.2998 27.7623 49.0865 27.9917 48.7985 28.1623C48.5158 28.333 48.1718 28.4183 47.7665 28.4183C47.2172 28.4183 46.7878 28.2957 46.4785 28.0503C46.1692 27.805 45.9532 27.4663 45.8305 27.0343C45.7078 26.6023 45.6465 26.069 45.6465 25.4343C45.6465 23.477 46.3292 22.4983 47.6945 22.4983C48.2172 22.4983 48.6278 22.6397 48.9265 22.9223C49.2252 23.205 49.4012 23.5623 49.4545 23.9943H48.7825ZM47.6945 25.1863C47.4652 25.1863 47.2492 25.2343 47.0465 25.3303C46.8438 25.421 46.6785 25.5623 46.5505 25.7543C46.4278 25.941 46.3665 26.1703 46.3665 26.4423C46.3665 26.8477 46.4838 27.1783 46.7185 27.4343C46.9532 27.685 47.2892 27.8103 47.7265 27.8103C48.0998 27.8103 48.3958 27.6957 48.6145 27.4663C48.8385 27.2317 48.9505 26.917 48.9505 26.5223C48.9505 26.1063 48.8438 25.781 48.6305 25.5463C48.4172 25.3063 48.1052 25.1863 47.6945 25.1863ZM50.4606 27.1143V26.5623L53.2686 22.6743H54.1406V26.4823H54.9406V27.1143H54.1406V28.4023H53.4206V27.1143H50.4606ZM53.4526 23.4343L51.3006 26.4823H53.4526V23.4343ZM58.5079 20.8663L56.3159 29.7623H55.5959L57.7799 20.8663H58.5079ZM59.2806 23.2823V22.6183H60.7846V28.4023H60.0486V23.2823H59.2806ZM61.8431 23.2823V22.6183H63.3471V28.4023H62.6111V23.2823H61.8431ZM68.1576 23.1863L65.9336 28.4023H65.1976L67.4536 23.2583H64.3656V22.6343H68.1576V23.1863ZM74.4496 27.2023L73.1776 25.9303L71.9056 27.2023L71.4256 26.7223L72.6976 25.4503L71.4496 24.2023L71.9136 23.7303L73.1696 24.9863L74.4256 23.7303L74.9056 24.2103L73.6496 25.4663L74.9136 26.7383L74.4496 27.2023ZM78.179 23.2823V22.6183H79.683V28.4023H78.947V23.2823H78.179ZM80.7415 23.2823V22.6183H82.2455V28.4023H81.5095V23.2823H80.7415ZM84.552 25.3943C84.2533 25.277 84.024 25.1063 83.864 24.8823C83.704 24.6583 83.624 24.3863 83.624 24.0663C83.624 23.7783 83.696 23.5197 83.84 23.2903C83.984 23.0557 84.1973 22.8717 84.48 22.7383C84.768 22.5997 85.1147 22.5303 85.52 22.5303C85.9253 22.5303 86.2693 22.5997 86.552 22.7383C86.84 22.8717 87.056 23.0557 87.2 23.2903C87.3493 23.5197 87.424 23.7783 87.424 24.0663C87.424 24.3757 87.3413 24.6477 87.176 24.8823C87.0107 25.1117 86.784 25.2823 86.496 25.3943C86.8267 25.4957 87.088 25.6743 87.28 25.9303C87.4773 26.181 87.576 26.485 87.576 26.8423C87.576 27.189 87.4907 27.493 87.32 27.7543C87.1493 28.0103 86.9067 28.2103 86.592 28.3543C86.2827 28.493 85.9253 28.5623 85.52 28.5623C85.1147 28.5623 84.7573 28.493 84.448 28.3543C84.144 28.2103 83.9067 28.0103 83.736 27.7543C83.5653 27.493 83.48 27.189 83.48 26.8423C83.48 26.485 83.576 26.1783 83.768 25.9223C83.96 25.6663 84.2213 25.4903 84.552 25.3943ZM86.72 24.1543C86.72 23.829 86.6133 23.5783 86.4 23.4023C86.1867 23.2263 85.8933 23.1383 85.52 23.1383C85.152 23.1383 84.8613 23.2263 84.648 23.4023C84.4347 23.5783 84.328 23.8317 84.328 24.1623C84.328 24.461 84.4373 24.701 84.656 24.8823C84.88 25.0637 85.168 25.1543 85.52 25.1543C85.8773 25.1543 86.1653 25.0637 86.384 24.8823C86.608 24.6957 86.72 24.453 86.72 24.1543ZM85.52 25.7143C85.1253 25.7143 84.8027 25.8077 84.552 25.9943C84.3013 26.1757 84.176 26.4503 84.176 26.8183C84.176 27.1597 84.296 27.4343 84.536 27.6423C84.7813 27.8503 85.1093 27.9543 85.52 27.9543C85.9307 27.9543 86.256 27.8503 86.496 27.6423C86.736 27.4343 86.856 27.1597 86.856 26.8183C86.856 26.461 86.7333 26.189 86.488 26.0023C86.2427 25.8103 85.92 25.7143 85.52 25.7143ZM91.3829 20.8663L89.1909 29.7623H88.4709L90.6549 20.8663H91.3829ZM95.9076 23.1863L93.6836 28.4023H92.9476L95.2036 23.2583H92.1156V22.6343H95.9076V23.1863ZM96.7148 25.4503C96.7148 24.533 96.8641 23.8183 97.1628 23.3063C97.4614 22.789 97.9841 22.5303 98.7308 22.5303C99.4721 22.5303 99.9921 22.789 100.291 23.3063C100.589 23.8183 100.739 24.533 100.739 25.4503C100.739 26.3837 100.589 27.109 100.291 27.6263C99.9921 28.1437 99.4721 28.4023 98.7308 28.4023C97.9841 28.4023 97.4614 28.1437 97.1628 27.6263C96.8641 27.109 96.7148 26.3837 96.7148 25.4503ZM100.019 25.4503C100.019 24.9863 99.9868 24.5943 99.9228 24.2743C99.8641 23.949 99.7388 23.6877 99.5468 23.4903C99.3601 23.293 99.0881 23.1943 98.7308 23.1943C98.3681 23.1943 98.0908 23.293 97.8988 23.4903C97.7121 23.6877 97.5868 23.949 97.5228 24.2743C97.4641 24.5943 97.4348 24.9863 97.4348 25.4503C97.4348 25.9303 97.4641 26.333 97.5228 26.6583C97.5868 26.9837 97.7121 27.245 97.8988 27.4423C98.0908 27.6397 98.3681 27.7383 98.7308 27.7383C99.0881 27.7383 99.3601 27.6397 99.5468 27.4423C99.7388 27.245 99.8641 26.9837 99.9228 26.6583C99.9868 26.333 100.019 25.9303 100.019 25.4503ZM107.223 27.2023L105.951 25.9303L104.679 27.2023L104.199 26.7223L105.471 25.4503L104.223 24.2023L104.687 23.7303L105.943 24.9863L107.199 23.7303L107.679 24.2103L106.423 25.4663L107.687 26.7383L107.223 27.2023ZM110.968 27.1143V26.5623L113.776 22.6743H114.648V26.4823H115.448V27.1143H114.648V28.4023H113.928V27.1143H110.968ZM113.96 23.4343L111.808 26.4823H113.96V23.4343ZM119.4 23.9943C119.282 23.4023 118.917 23.1063 118.304 23.1063C117.829 23.1063 117.474 23.2903 117.24 23.6583C117.005 24.021 116.89 24.621 116.896 25.4583C117.018 25.181 117.221 24.965 117.504 24.8103C117.792 24.6503 118.112 24.5703 118.464 24.5703C119.013 24.5703 119.45 24.741 119.776 25.0823C120.106 25.4237 120.272 25.8957 120.272 26.4983C120.272 26.861 120.2 27.1863 120.056 27.4743C119.917 27.7623 119.704 27.9917 119.416 28.1623C119.133 28.333 118.789 28.4183 118.384 28.4183C117.834 28.4183 117.405 28.2957 117.096 28.0503C116.786 27.805 116.57 27.4663 116.448 27.0343C116.325 26.6023 116.264 26.069 116.264 25.4343C116.264 23.477 116.946 22.4983 118.312 22.4983C118.834 22.4983 119.245 22.6397 119.544 22.9223C119.842 23.205 120.018 23.5623 120.072 23.9943H119.4ZM118.312 25.1863C118.082 25.1863 117.866 25.2343 117.664 25.3303C117.461 25.421 117.296 25.5623 117.168 25.7543C117.045 25.941 116.984 26.1703 116.984 26.4423C116.984 26.8477 117.101 27.1783 117.336 27.4343C117.57 27.685 117.906 27.8103 118.344 27.8103C118.717 27.8103 119.013 27.6957 119.232 27.4663C119.456 27.2317 119.568 26.917 119.568 26.5223C119.568 26.1063 119.461 25.781 119.248 25.5463C119.034 25.3063 118.722 25.1863 118.312 25.1863ZM130.911 23.9383C131.253 23.9383 131.557 24.0103 131.823 24.1543C132.09 24.293 132.301 24.5037 132.455 24.7863C132.61 25.069 132.687 25.413 132.687 25.8183V28.4023H131.967V25.9223C131.967 25.485 131.858 25.1517 131.639 24.9223C131.426 24.6877 131.135 24.5703 130.767 24.5703C130.389 24.5703 130.087 24.693 129.863 24.9383C129.639 25.1783 129.527 25.5277 129.527 25.9863V28.4023H128.807V25.9223C128.807 25.485 128.698 25.1517 128.479 24.9223C128.266 24.6877 127.975 24.5703 127.607 24.5703C127.229 24.5703 126.927 24.693 126.703 24.9383C126.479 25.1783 126.367 25.5277 126.367 25.9863V28.4023H125.639V24.0183H126.367V24.6503C126.511 24.421 126.703 24.245 126.943 24.1223C127.189 23.9997 127.458 23.9383 127.751 23.9383C128.119 23.9383 128.445 24.021 128.727 24.1863C129.01 24.3517 129.221 24.5943 129.359 24.9143C129.482 24.605 129.685 24.365 129.967 24.1943C130.25 24.0237 130.565 23.9383 130.911 23.9383ZM139.154 23.9383C139.495 23.9383 139.799 24.0103 140.066 24.1543C140.332 24.293 140.543 24.5037 140.698 24.7863C140.852 25.069 140.93 25.413 140.93 25.8183V28.4023H140.21V25.9223C140.21 25.485 140.1 25.1517 139.882 24.9223C139.668 24.6877 139.378 24.5703 139.01 24.5703C138.631 24.5703 138.33 24.693 138.106 24.9383C137.882 25.1783 137.77 25.5277 137.77 25.9863V28.4023H137.05V25.9223C137.05 25.485 136.94 25.1517 136.722 24.9223C136.508 24.6877 136.218 24.5703 135.85 24.5703C135.471 24.5703 135.17 24.693 134.946 24.9383C134.722 25.1783 134.61 25.5277 134.61 25.9863V28.4023H133.882V24.0183H134.61V24.6503C134.754 24.421 134.946 24.245 135.186 24.1223C135.431 23.9997 135.7 23.9383 135.994 23.9383C136.362 23.9383 136.687 24.021 136.97 24.1863C137.252 24.3517 137.463 24.5943 137.602 24.9143C137.724 24.605 137.927 24.365 138.21 24.1943C138.492 24.0237 138.807 23.9383 139.154 23.9383Z" fill="#5D5A5A"/>
</svg>
