<svg width="271" height="117" viewBox="0 0 271 117" fill="none" xmlns="http://www.w3.org/2000/svg">
<g filter="url(#filter0_d_967_5736)">
<path d="M62.5286 65.96C58.7312 65.96 55.8512 65.2987 53.8886 63.976C51.9686 62.6107 50.6672 60.712 49.9846 58.28C49.3019 55.848 48.9606 53.032 48.9606 49.832H59.2646C59.2646 51.7947 59.3712 53.3947 59.5846 54.632C59.7979 55.8693 60.1819 56.7653 60.7366 57.32C61.3339 57.832 62.1659 58.0667 63.2326 58.024C64.3419 57.9813 65.1312 57.5333 65.6006 56.68C66.0699 55.8267 66.3472 54.6107 66.4326 53.032C66.5606 51.4107 66.6246 49.4693 66.6246 47.208C66.6246 45.5013 66.5179 43.9867 66.3046 42.664C66.1339 41.3413 65.7499 40.296 65.1526 39.528C64.5979 38.7173 63.7446 38.312 62.5926 38.312C61.5259 38.312 60.6512 38.696 59.9686 39.464C59.2859 40.232 58.7952 41.4267 58.4966 43.048H49.2806L50.2406 13.16H74.4326V22.12H58.8166L58.2406 32.808C58.6672 32.2107 59.4779 31.6987 60.6726 31.272C61.8672 30.8027 63.1472 30.504 64.5126 30.376C67.1579 30.0773 69.3766 30.568 71.1686 31.848C73.0032 33.0853 74.3686 34.984 75.2646 37.544C76.2032 40.104 76.6726 43.24 76.6726 46.952C76.6726 49.7253 76.5019 52.2853 76.1606 54.632C75.8192 56.936 75.1579 58.9413 74.1766 60.648C73.1952 62.312 71.7659 63.6133 69.8886 64.552C68.0112 65.4907 65.5579 65.96 62.5286 65.96ZM97.6511 65.96C94.5364 65.96 91.9337 65.3413 89.8431 64.104C87.7524 62.824 86.1737 61.0747 85.1071 58.856C84.0404 56.6373 83.5071 54.056 83.5071 51.112V27.624C83.5071 24.5947 83.9977 21.9493 84.9791 19.688C86.0031 17.384 87.5604 15.592 89.6511 14.312C91.7417 13.032 94.4084 12.392 97.6511 12.392C100.894 12.392 103.539 13.032 105.587 14.312C107.678 15.592 109.214 17.384 110.195 19.688C111.219 21.9493 111.731 24.5947 111.731 27.624V51.112C111.731 54.0133 111.198 56.5947 110.131 58.856C109.064 61.0747 107.486 62.824 105.395 64.104C103.304 65.3413 100.723 65.96 97.6511 65.96ZM97.6511 56.424C98.6751 56.424 99.4004 56.104 99.8271 55.464C100.296 54.7813 100.574 54.0133 100.659 53.16C100.787 52.264 100.851 51.496 100.851 50.856V27.88C100.851 27.1547 100.808 26.344 100.723 25.448C100.638 24.5093 100.36 23.6987 99.8911 23.016C99.4644 22.2907 98.7177 21.928 97.6511 21.928C96.5844 21.928 95.8164 22.2907 95.3471 23.016C94.9204 23.6987 94.6644 24.5093 94.5791 25.448C94.4937 26.344 94.4511 27.1547 94.4511 27.88V50.856C94.4511 51.496 94.5151 52.264 94.6431 53.16C94.7711 54.0133 95.0484 54.7813 95.4751 55.464C95.9444 56.104 96.6697 56.424 97.6511 56.424ZM134.119 65.96C131.004 65.96 128.401 65.3413 126.311 64.104C124.22 62.824 122.641 61.0747 121.575 58.856C120.508 56.6373 119.975 54.056 119.975 51.112V27.624C119.975 24.5947 120.465 21.9493 121.447 19.688C122.471 17.384 124.028 15.592 126.119 14.312C128.209 13.032 130.876 12.392 134.119 12.392C137.361 12.392 140.007 13.032 142.055 14.312C144.145 15.592 145.681 17.384 146.663 19.688C147.687 21.9493 148.199 24.5947 148.199 27.624V51.112C148.199 54.0133 147.665 56.5947 146.599 58.856C145.532 61.0747 143.953 62.824 141.863 64.104C139.772 65.3413 137.191 65.96 134.119 65.96ZM134.119 56.424C135.143 56.424 135.868 56.104 136.295 55.464C136.764 54.7813 137.041 54.0133 137.127 53.16C137.255 52.264 137.319 51.496 137.319 50.856V27.88C137.319 27.1547 137.276 26.344 137.191 25.448C137.105 24.5093 136.828 23.6987 136.359 23.016C135.932 22.2907 135.185 21.928 134.119 21.928C133.052 21.928 132.284 22.2907 131.815 23.016C131.388 23.6987 131.132 24.5093 131.047 25.448C130.961 26.344 130.919 27.1547 130.919 27.88V50.856C130.919 51.496 130.983 52.264 131.111 53.16C131.239 54.0133 131.516 54.7813 131.943 55.464C132.412 56.104 133.137 56.424 134.119 56.424ZM156.634 65L157.53 13.16H169.818L175.514 43.304L181.658 13.16H193.498L194.394 65H186.266L185.306 30.504L179.29 65H172.058L165.658 30.248L164.89 65H156.634ZM203.169 65V13.16H214.625V57.256H226.529V65H203.169Z" fill="#BFCC6B"/>
<path d="M13.4681 110.432C11.2841 110.432 9.55605 110.048 8.28405 109.28C7.01205 108.512 6.10005 107.408 5.54805 105.968C4.99605 104.528 4.72005 102.812 4.72005 100.82V89.984C4.72005 87.968 4.99605 86.252 5.54805 84.836C6.10005 83.42 7.01205 82.34 8.28405 81.596C9.55605 80.828 11.2841 80.444 13.4681 80.444C15.6761 80.444 17.4161 80.828 18.6881 81.596C19.9841 82.34 20.9081 83.42 21.4601 84.836C22.0121 86.252 22.2881 87.968 22.2881 89.984V100.82C22.2881 102.812 22.0121 104.528 21.4601 105.968C20.9081 107.408 19.9841 108.512 18.6881 109.28C17.4161 110.048 15.6761 110.432 13.4681 110.432ZM13.4681 105.86C14.1401 105.86 14.6321 105.692 14.9441 105.356C15.2561 105.02 15.4601 104.588 15.5561 104.06C15.6521 103.532 15.7001 102.992 15.7001 102.44V88.4C15.7001 87.824 15.6521 87.284 15.5561 86.78C15.4601 86.252 15.2561 85.82 14.9441 85.484C14.6321 85.148 14.1401 84.98 13.4681 84.98C12.8441 84.98 12.3761 85.148 12.0641 85.484C11.7521 85.82 11.5481 86.252 11.4521 86.78C11.3561 87.284 11.3081 87.824 11.3081 88.4V102.44C11.3081 102.992 11.3441 103.532 11.4161 104.06C11.5121 104.588 11.7041 105.02 11.9921 105.356C12.3041 105.692 12.7961 105.86 13.4681 105.86ZM30.5366 110L25.2806 80.84H30.7886L33.9206 100.64L36.8366 80.84H42.6686L37.3406 110H30.5366ZM43.6833 110L49.1913 80.84H56.5353L61.9713 110H56.0313L55.0593 103.844H50.7753L49.7673 110H43.6833ZM51.3513 99.992H54.4473L52.8993 88.616L51.3513 99.992ZM65.6354 110V80.84H72.0794V105.644H78.7754V110H65.6354ZM100.599 110.432C98.3913 110.432 96.6393 110.036 95.3433 109.244C94.0713 108.428 93.1713 107.3 92.6433 105.86C92.1153 104.396 91.8513 102.68 91.8513 100.712V90.2C91.8513 88.184 92.1153 86.456 92.6433 85.016C93.1713 83.552 94.0713 82.424 95.3433 81.632C96.6393 80.84 98.3913 80.444 100.599 80.444C102.759 80.444 104.439 80.804 105.639 81.524C106.863 82.22 107.727 83.204 108.231 84.476C108.735 85.748 108.987 87.212 108.987 88.868V91.388H102.687V88.472C102.687 87.896 102.651 87.344 102.579 86.816C102.531 86.288 102.363 85.856 102.075 85.52C101.787 85.16 101.295 84.98 100.599 84.98C99.9273 84.98 99.4233 85.16 99.0873 85.52C98.7753 85.88 98.5713 86.336 98.4753 86.888C98.4033 87.416 98.3673 87.98 98.3673 88.58V102.296C98.3673 102.944 98.4153 103.544 98.5113 104.096C98.6313 104.624 98.8473 105.056 99.1593 105.392C99.4953 105.704 99.9753 105.86 100.599 105.86C101.271 105.86 101.751 105.692 102.039 105.356C102.327 104.996 102.507 104.54 102.579 103.988C102.651 103.436 102.687 102.872 102.687 102.296V99.236H108.987V101.756C108.987 103.412 108.735 104.9 108.231 106.22C107.751 107.516 106.899 108.548 105.675 109.316C104.475 110.06 102.783 110.432 100.599 110.432ZM121.604 110.432C119.42 110.432 117.692 110.048 116.42 109.28C115.148 108.512 114.236 107.408 113.684 105.968C113.132 104.528 112.856 102.812 112.856 100.82V89.984C112.856 87.968 113.132 86.252 113.684 84.836C114.236 83.42 115.148 82.34 116.42 81.596C117.692 80.828 119.42 80.444 121.604 80.444C123.812 80.444 125.552 80.828 126.824 81.596C128.12 82.34 129.044 83.42 129.596 84.836C130.148 86.252 130.424 87.968 130.424 89.984V100.82C130.424 102.812 130.148 104.528 129.596 105.968C129.044 107.408 128.12 108.512 126.824 109.28C125.552 110.048 123.812 110.432 121.604 110.432ZM121.604 105.86C122.276 105.86 122.768 105.692 123.08 105.356C123.392 105.02 123.596 104.588 123.692 104.06C123.788 103.532 123.836 102.992 123.836 102.44V88.4C123.836 87.824 123.788 87.284 123.692 86.78C123.596 86.252 123.392 85.82 123.08 85.484C122.768 85.148 122.276 84.98 121.604 84.98C120.98 84.98 120.512 85.148 120.2 85.484C119.888 85.82 119.684 86.252 119.588 86.78C119.492 87.284 119.444 87.824 119.444 88.4V102.44C119.444 102.992 119.48 103.532 119.552 104.06C119.648 104.588 119.84 105.02 120.128 105.356C120.44 105.692 120.932 105.86 121.604 105.86ZM135.066 110V80.84H139.602L145.578 94.88V80.84H150.906V110H146.55L140.574 94.88V110H135.066ZM158.594 110V85.628H154.202V80.84H169.43V85.628H165.074V110H158.594ZM169.696 110L175.204 80.84H182.548L187.984 110H182.044L181.072 103.844H176.788L175.78 110H169.696ZM177.364 99.992H180.46L178.912 88.616L177.364 99.992ZM191.684 110V80.84H198.128V110H191.684ZM203.196 110V80.84H207.732L213.708 94.88V80.84H219.036V110H214.68L208.704 94.88V110H203.196ZM224.096 110V80.84H237.2V85.232H230.54V92.468H235.616V96.932H230.54V105.644H237.272V110H224.096ZM240.917 110V80.84H248.945C250.913 80.84 252.617 81.056 254.057 81.488C255.497 81.92 256.613 82.7 257.405 83.828C258.221 84.932 258.629 86.504 258.629 88.544C258.629 89.744 258.533 90.812 258.341 91.748C258.149 92.684 257.789 93.5 257.261 94.196C256.757 94.868 256.025 95.432 255.065 95.888L259.061 110H252.401L249.197 96.932H247.361V110H240.917ZM247.361 93.224H249.161C250.073 93.224 250.781 93.068 251.285 92.756C251.789 92.42 252.137 91.952 252.329 91.352C252.545 90.728 252.653 89.984 252.653 89.12C252.653 87.872 252.425 86.9 251.969 86.204C251.513 85.508 250.673 85.16 249.449 85.16H247.361V93.224Z" fill="#BFCC6B"/>
</g>
<defs>
<filter id="filter0_d_967_5736" x="-1.76395" y="-3.72" width="277.44" height="123.44" filterUnits="userSpaceOnUse" color-interpolation-filters="sRGB">
<feFlood flood-opacity="0" result="BackgroundImageFix"/>
<feColorMatrix in="SourceAlpha" type="matrix" values="0 0 0 0 0 0 0 0 0 0 0 0 0 0 0 0 0 0 127 0" result="hardAlpha"/>
<feOffset dy="1"/>
<feGaussianBlur stdDeviation="2.36"/>
<feComposite in2="hardAlpha" operator="out"/>
<feColorMatrix type="matrix" values="0 0 0 0 0 0 0 0 0 0 0 0 0 0 0 0 0 0 0.11 0"/>
<feBlend mode="normal" in2="BackgroundImageFix" result="effect1_dropShadow_967_5736"/>
<feBlend mode="normal" in="SourceGraphic" in2="effect1_dropShadow_967_5736" result="shape"/>
</filter>
</defs>
</svg>
