<svg width="258" height="35" viewBox="0 0 258 35" fill="none" xmlns="http://www.w3.org/2000/svg">
<path d="M1.88918 0.583356C2.55083 0.583356 3.12251 0.70814 3.60424 0.957709C4.09177 1.20147 4.46322 1.55261 4.71859 2.01112C4.97977 2.46963 5.11036 3.0094 5.11036 3.63042C5.11036 4.25144 4.97977 4.79121 4.71859 5.24972C4.46322 5.70242 4.09177 6.05066 3.60424 6.29443C3.12251 6.53239 2.55083 6.65137 1.88918 6.65137H-2.52132e-06V0.583356H1.88918ZM1.88918 5.99842C2.67271 5.99842 3.27051 5.79239 3.68259 5.38031C4.09467 4.96242 4.30071 4.37913 4.30071 3.63042C4.30071 2.87591 4.09177 2.28681 3.67389 1.86312C3.26181 1.43944 2.6669 1.22759 1.88918 1.22759H0.792234V5.99842H1.88918ZM10.5083 4.08313C10.5083 4.23403 10.4996 4.39364 10.4822 4.56195H6.66899C6.69801 5.03207 6.85762 5.40062 7.14781 5.6676C7.44381 5.92878 7.80075 6.05937 8.21864 6.05937C8.56107 6.05937 8.84546 5.98101 9.07182 5.82431C9.30397 5.6618 9.46648 5.44705 9.55935 5.18007H10.4125C10.2848 5.63858 10.0295 6.01293 9.6464 6.30313C9.26335 6.58752 8.78742 6.72972 8.21864 6.72972C7.76593 6.72972 7.35966 6.62815 6.99981 6.42501C6.64577 6.22188 6.36718 5.93458 6.16405 5.56313C5.96091 5.18587 5.85934 4.75058 5.85934 4.25725C5.85934 3.76391 5.95801 3.33152 6.15534 2.96007C6.35267 2.58861 6.62836 2.30422 6.9824 2.10689C7.34224 1.90375 7.75432 1.80218 8.21864 1.80218C8.67134 1.80218 9.07182 1.90085 9.42005 2.09818C9.76829 2.29552 10.0353 2.5683 10.221 2.91654C10.4125 3.25897 10.5083 3.64783 10.5083 4.08313ZM9.68993 3.91772C9.68993 3.61591 9.62319 3.35764 9.4897 3.14289C9.35621 2.92234 9.17338 2.75693 8.94123 2.64665C8.71487 2.53058 8.4624 2.47254 8.18381 2.47254C7.78334 2.47254 7.44091 2.60022 7.15652 2.8556C6.87793 3.11097 6.71832 3.46501 6.67769 3.91772H9.68993ZM13.243 6.72972C12.8773 6.72972 12.5494 6.66878 12.2592 6.5469C11.969 6.41921 11.7397 6.24509 11.5714 6.02454C11.4031 5.79819 11.3103 5.53991 11.2928 5.24972H12.1112C12.1344 5.48768 12.2447 5.68211 12.442 5.83301C12.6452 5.98391 12.9092 6.05937 13.2343 6.05937C13.5361 6.05937 13.774 5.99262 13.9481 5.85913C14.1223 5.72564 14.2093 5.55733 14.2093 5.35419C14.2093 5.14525 14.1165 4.99144 13.9307 4.89278C13.745 4.7883 13.4577 4.68674 13.0688 4.58807C12.7148 4.49521 12.4246 4.40234 12.1983 4.30948C11.9777 4.21081 11.7862 4.06862 11.6237 3.88289C11.467 3.69136 11.3886 3.44179 11.3886 3.13418C11.3886 2.89042 11.4612 2.66697 11.6063 2.46383C11.7514 2.26069 11.9574 2.10108 12.2244 1.98501C12.4914 1.86312 12.7961 1.80218 13.1385 1.80218C13.6666 1.80218 14.0932 1.93567 14.4183 2.20265C14.7433 2.46963 14.9174 2.83528 14.9406 3.2996H14.1484C14.131 3.05003 14.0294 2.84979 13.8437 2.69889C13.6637 2.54799 13.42 2.47254 13.1124 2.47254C12.828 2.47254 12.6016 2.53348 12.4333 2.65536C12.265 2.77724 12.1808 2.93685 12.1808 3.13418C12.1808 3.29089 12.2302 3.42148 12.3288 3.52595C12.4333 3.62462 12.561 3.70587 12.7119 3.76971C12.8686 3.82775 13.0834 3.8945 13.3561 3.96995C13.6986 4.06281 13.9772 4.15568 14.1919 4.24854C14.4067 4.3356 14.5895 4.46909 14.7404 4.64901C14.8971 4.82893 14.9783 5.06399 14.9841 5.35419C14.9841 5.61537 14.9116 5.85042 14.7665 6.05937C14.6214 6.26831 14.4154 6.43372 14.1484 6.5556C13.8872 6.67168 13.5854 6.72972 13.243 6.72972ZM16.5117 1.10571C16.3608 1.10571 16.2331 1.05347 16.1286 0.949004C16.0242 0.844533 15.9719 0.716846 15.9719 0.565944C15.9719 0.415042 16.0242 0.287355 16.1286 0.182884C16.2331 0.0784137 16.3608 0.0261783 16.5117 0.0261783C16.6568 0.0261783 16.7787 0.0784137 16.8773 0.182884C16.9818 0.287355 17.034 0.415042 17.034 0.565944C17.034 0.716846 16.9818 0.844533 16.8773 0.949004C16.7787 1.05347 16.6568 1.10571 16.5117 1.10571ZM16.8947 1.88053V6.65137H16.1025V1.88053H16.8947ZM20.2125 1.80218C20.6246 1.80218 20.9844 1.89214 21.292 2.07206C21.6055 2.25199 21.8376 2.47834 21.9885 2.75112V1.88053H22.7895V6.75584C22.7895 7.19113 22.6966 7.57709 22.5109 7.91372C22.3251 8.25615 22.0582 8.52314 21.7099 8.71467C21.3675 8.90619 20.967 9.00196 20.5085 9.00196C19.8817 9.00196 19.3593 8.85396 18.9414 8.55796C18.5236 8.26196 18.2769 7.85859 18.2014 7.34784H18.985C19.072 7.63804 19.252 7.87019 19.5247 8.04431C19.7975 8.22423 20.1254 8.31419 20.5085 8.31419C20.9438 8.31419 21.2978 8.1778 21.5706 7.90502C21.8492 7.63223 21.9885 7.24917 21.9885 6.75584V5.75466C21.8318 6.03325 21.5996 6.26541 21.292 6.45113C20.9844 6.63686 20.6246 6.72972 20.2125 6.72972C19.7888 6.72972 19.4029 6.62525 19.0546 6.41631C18.7122 6.20737 18.4423 5.91427 18.245 5.53701C18.0476 5.15976 17.949 4.73027 17.949 4.24854C17.949 3.76101 18.0476 3.33442 18.245 2.96877C18.4423 2.59732 18.7122 2.31003 19.0546 2.10689C19.4029 1.90375 19.7888 1.80218 20.2125 1.80218ZM21.9885 4.25725C21.9885 3.8974 21.916 3.58399 21.7709 3.31701C21.6258 3.05003 21.4284 2.84689 21.1789 2.7076C20.9351 2.5625 20.6652 2.48995 20.3692 2.48995C20.0732 2.48995 19.8033 2.55959 19.5596 2.69889C19.3158 2.83818 19.1214 3.04132 18.9763 3.3083C18.8312 3.57528 18.7586 3.8887 18.7586 4.24854C18.7586 4.61419 18.8312 4.9334 18.9763 5.20619C19.1214 5.47317 19.3158 5.67921 19.5596 5.82431C19.8033 5.9636 20.0732 6.03325 20.3692 6.03325C20.6652 6.03325 20.9351 5.9636 21.1789 5.82431C21.4284 5.67921 21.6258 5.47317 21.7709 5.20619C21.916 4.9334 21.9885 4.61709 21.9885 4.25725ZM26.4527 1.79348C27.0331 1.79348 27.5032 1.9705 27.8631 2.32454C28.2229 2.67277 28.4029 3.17771 28.4029 3.83936V6.65137H27.6193V3.95254C27.6193 3.47662 27.5003 3.11387 27.2624 2.8643C27.0244 2.60893 26.6994 2.48124 26.2873 2.48124C25.8694 2.48124 25.5357 2.61183 25.2861 2.87301C25.0424 3.13418 24.9205 3.51434 24.9205 4.01348V6.65137H24.1283V1.88053H24.9205V2.55959C25.0772 2.31583 25.289 2.1272 25.556 1.99371C25.8288 1.86022 26.1277 1.79348 26.4527 1.79348ZM34.0499 4.08313C34.0499 4.23403 34.0412 4.39364 34.0238 4.56195H30.2106C30.2396 5.03207 30.3992 5.40062 30.6894 5.6676C30.9854 5.92878 31.3424 6.05937 31.7603 6.05937C32.1027 6.05937 32.3871 5.98101 32.6134 5.82431C32.8456 5.6618 33.0081 5.44705 33.101 5.18007H33.9542C33.8265 5.63858 33.5711 6.01293 33.188 6.30313C32.805 6.58752 32.3291 6.72972 31.7603 6.72972C31.3076 6.72972 30.9013 6.62815 30.5414 6.42501C30.1874 6.22188 29.9088 5.93458 29.7057 5.56313C29.5025 5.18587 29.401 4.75058 29.401 4.25725C29.401 3.76391 29.4996 3.33152 29.697 2.96007C29.8943 2.58861 30.17 2.30422 30.524 2.10689C30.8839 1.90375 31.296 1.80218 31.7603 1.80218C32.213 1.80218 32.6134 1.90085 32.9617 2.09818C33.3099 2.29552 33.5769 2.5683 33.7626 2.91654C33.9542 3.25897 34.0499 3.64783 34.0499 4.08313ZM33.2316 3.91772C33.2316 3.61591 33.1648 3.35764 33.0313 3.14289C32.8978 2.92234 32.715 2.75693 32.4829 2.64665C32.2565 2.53058 32.004 2.47254 31.7254 2.47254C31.325 2.47254 30.9825 2.60022 30.6982 2.8556C30.4196 3.11097 30.26 3.46501 30.2193 3.91772H33.2316ZM34.7997 4.24854C34.7997 3.76101 34.8983 3.33442 35.0957 2.96877C35.293 2.59732 35.5629 2.31003 35.9053 2.10689C36.2535 1.90375 36.6424 1.80218 37.0719 1.80218C37.4433 1.80218 37.7887 1.88924 38.1079 2.06336C38.4271 2.23167 38.6709 2.45512 38.8392 2.73371V0.209002H39.6401V6.65137H38.8392V5.75466C38.6825 6.03905 38.4503 6.27411 38.1427 6.45984C37.8351 6.63976 37.4753 6.72972 37.0632 6.72972C36.6395 6.72972 36.2535 6.62525 35.9053 6.41631C35.5629 6.20737 35.293 5.91427 35.0957 5.53701C34.8983 5.15976 34.7997 4.73027 34.7997 4.24854ZM38.8392 4.25725C38.8392 3.8974 38.7666 3.58399 38.6215 3.31701C38.4764 3.05003 38.2791 2.84689 38.0295 2.7076C37.7858 2.5625 37.5159 2.48995 37.2199 2.48995C36.9239 2.48995 36.654 2.55959 36.4102 2.69889C36.1665 2.83818 35.972 3.04132 35.8269 3.3083C35.6818 3.57528 35.6093 3.8887 35.6093 4.24854C35.6093 4.61419 35.6818 4.9334 35.8269 5.20619C35.972 5.47317 36.1665 5.67921 36.4102 5.82431C36.654 5.9636 36.9239 6.03325 37.2199 6.03325C37.5159 6.03325 37.7858 5.9636 38.0295 5.82431C38.2791 5.67921 38.4764 5.47317 38.6215 5.20619C38.7666 4.9334 38.8392 4.61709 38.8392 4.25725ZM45.2414 2.53348H44.2402V6.65137H43.4479V2.53348H42.8298V1.88053H43.4479V1.541C43.4479 1.00704 43.5843 0.61818 43.8571 0.374414C44.1357 0.124845 44.5797 6.03914e-05 45.1891 6.03914e-05V0.661709C44.8409 0.661709 44.5942 0.731356 44.4491 0.87065C44.3098 1.00414 44.2402 1.22759 44.2402 1.541V1.88053H45.2414V2.53348ZM48.2458 6.72972C47.7989 6.72972 47.3926 6.62815 47.0269 6.42501C46.6671 6.22188 46.3827 5.93458 46.1738 5.56313C45.9706 5.18587 45.8691 4.75058 45.8691 4.25725C45.8691 3.76971 45.9735 3.34022 46.1825 2.96877C46.3972 2.59152 46.6874 2.30422 47.0531 2.10689C47.4187 1.90375 47.8279 1.80218 48.2806 1.80218C48.7333 1.80218 49.1425 1.90375 49.5081 2.10689C49.8738 2.30422 50.1611 2.58861 50.37 2.96007C50.5848 3.33152 50.6921 3.76391 50.6921 4.25725C50.6921 4.75058 50.5819 5.18587 50.3613 5.56313C50.1466 5.93458 49.8535 6.22188 49.482 6.42501C49.1106 6.62815 48.6985 6.72972 48.2458 6.72972ZM48.2458 6.03325C48.5302 6.03325 48.7971 5.9665 49.0467 5.83301C49.2963 5.69952 49.4965 5.49929 49.6474 5.23231C49.8041 4.96532 49.8825 4.6403 49.8825 4.25725C49.8825 3.87419 49.807 3.54917 49.6561 3.28218C49.5052 3.0152 49.3079 2.81787 49.0641 2.69018C48.8204 2.55669 48.5563 2.48995 48.2719 2.48995C47.9817 2.48995 47.7147 2.55669 47.4709 2.69018C47.233 2.81787 47.0415 3.0152 46.8964 3.28218C46.7513 3.54917 46.6787 3.87419 46.6787 4.25725C46.6787 4.64611 46.7484 4.97403 46.8877 5.24101C47.0328 5.50799 47.2243 5.70823 47.4622 5.84172C47.7002 5.96941 47.9614 6.03325 48.2458 6.03325ZM52.526 2.65536C52.6653 2.38257 52.8626 2.17073 53.118 2.01983C53.3792 1.86893 53.6955 1.79348 54.067 1.79348V2.61183H53.858C52.97 2.61183 52.526 3.09356 52.526 4.05701V6.65137H51.7338V1.88053H52.526V2.65536ZM63.0397 1.79348C63.4111 1.79348 63.742 1.87183 64.0322 2.02854C64.3223 2.17944 64.5516 2.40869 64.7199 2.7163C64.8882 3.02391 64.9724 3.39826 64.9724 3.83936V6.65137H64.1889V3.95254C64.1889 3.47662 64.0699 3.11387 63.8319 2.8643C63.5998 2.60893 63.2834 2.48124 62.883 2.48124C62.4709 2.48124 62.143 2.61473 61.8992 2.88171C61.6554 3.14289 61.5336 3.52305 61.5336 4.02219V6.65137H60.75V3.95254C60.75 3.47662 60.631 3.11387 60.3931 2.8643C60.1609 2.60893 59.8446 2.48124 59.4441 2.48124C59.0321 2.48124 58.7041 2.61473 58.4604 2.88171C58.2166 3.14289 58.0947 3.52305 58.0947 4.02219V6.65137H57.3025V1.88053H58.0947V2.5683C58.2514 2.31873 58.4604 2.1272 58.7216 1.99371C58.9885 1.86022 59.2816 1.79348 59.6008 1.79348C60.0013 1.79348 60.3554 1.88344 60.663 2.06336C60.9706 2.24328 61.1998 2.50736 61.3507 2.8556C61.4842 2.51897 61.7048 2.25779 62.0124 2.07206C62.32 1.88634 62.6624 1.79348 63.0397 1.79348ZM70.6249 4.08313C70.6249 4.23403 70.6162 4.39364 70.5988 4.56195H66.7856C66.8146 5.03207 66.9742 5.40062 67.2644 5.6676C67.5604 5.92878 67.9174 6.05937 68.3352 6.05937C68.6777 6.05937 68.9621 5.98101 69.1884 5.82431C69.4206 5.6618 69.5831 5.44705 69.676 5.18007H70.5291C70.4014 5.63858 70.1461 6.01293 69.763 6.30313C69.38 6.58752 68.904 6.72972 68.3352 6.72972C67.8825 6.72972 67.4763 6.62815 67.1164 6.42501C66.7624 6.22188 66.4838 5.93458 66.2807 5.56313C66.0775 5.18587 65.9759 4.75058 65.9759 4.25725C65.9759 3.76391 66.0746 3.33152 66.2719 2.96007C66.4693 2.58861 66.745 2.30422 67.099 2.10689C67.4589 1.90375 67.8709 1.80218 68.3352 1.80218C68.788 1.80218 69.1884 1.90085 69.5367 2.09818C69.8849 2.29552 70.1519 2.5683 70.3376 2.91654C70.5291 3.25897 70.6249 3.64783 70.6249 4.08313ZM69.8065 3.91772C69.8065 3.61591 69.7398 3.35764 69.6063 3.14289C69.4728 2.92234 69.29 2.75693 69.0578 2.64665C68.8315 2.53058 68.579 2.47254 68.3004 2.47254C67.9 2.47254 67.5575 2.60022 67.2731 2.8556C66.9945 3.11097 66.8349 3.46501 66.7943 3.91772H69.8065ZM71.3746 4.24854C71.3746 3.76101 71.4733 3.33442 71.6706 2.96877C71.868 2.59732 72.1378 2.31003 72.4803 2.10689C72.8285 1.90375 73.2174 1.80218 73.6469 1.80218C74.0183 1.80218 74.3636 1.88924 74.6829 2.06336C75.0021 2.23167 75.2458 2.45512 75.4142 2.73371V0.209002H76.2151V6.65137H75.4142V5.75466C75.2575 6.03905 75.0253 6.27411 74.7177 6.45984C74.4101 6.63976 74.0502 6.72972 73.6382 6.72972C73.2145 6.72972 72.8285 6.62525 72.4803 6.41631C72.1378 6.20737 71.868 5.91427 71.6706 5.53701C71.4733 5.15976 71.3746 4.73027 71.3746 4.24854ZM75.4142 4.25725C75.4142 3.8974 75.3416 3.58399 75.1965 3.31701C75.0514 3.05003 74.8541 2.84689 74.6045 2.7076C74.3607 2.5625 74.0909 2.48995 73.7949 2.48995C73.4989 2.48995 73.229 2.55959 72.9852 2.69889C72.7414 2.83818 72.547 3.04132 72.4019 3.3083C72.2568 3.57528 72.1843 3.8887 72.1843 4.24854C72.1843 4.61419 72.2568 4.9334 72.4019 5.20619C72.547 5.47317 72.7414 5.67921 72.9852 5.82431C73.229 5.9636 73.4989 6.03325 73.7949 6.03325C74.0909 6.03325 74.3607 5.9636 74.6045 5.82431C74.8541 5.67921 75.0514 5.47317 75.1965 5.20619C75.3416 4.9334 75.4142 4.61709 75.4142 4.25725ZM77.9631 1.10571C77.8122 1.10571 77.6845 1.05347 77.58 0.949004C77.4756 0.844533 77.4233 0.716846 77.4233 0.565944C77.4233 0.415042 77.4756 0.287355 77.58 0.182884C77.6845 0.0784137 77.8122 0.0261783 77.9631 0.0261783C78.1082 0.0261783 78.2301 0.0784137 78.3287 0.182884C78.4332 0.287355 78.4854 0.415042 78.4854 0.565944C78.4854 0.716846 78.4332 0.844533 78.3287 0.949004C78.2301 1.05347 78.1082 1.10571 77.9631 1.10571ZM78.3461 1.88053V6.65137H77.5539V1.88053H78.3461ZM83.9274 1.88053V6.65137H83.1352V5.94619C82.9843 6.18995 82.7725 6.38148 82.4997 6.52078C82.2327 6.65427 81.9367 6.72101 81.6117 6.72101C81.2402 6.72101 80.9065 6.64556 80.6105 6.49466C80.3145 6.33795 80.0794 6.1058 79.9053 5.79819C79.737 5.49058 79.6528 5.11623 79.6528 4.67513V1.88053H80.4364V4.57066C80.4364 5.04078 80.5554 5.40352 80.7933 5.65889C81.0313 5.90846 81.3563 6.03325 81.7684 6.03325C82.1921 6.03325 82.5258 5.90266 82.7696 5.64148C83.0133 5.38031 83.1352 5.00015 83.1352 4.50101V1.88053H83.9274ZM91.0023 1.79348C91.3737 1.79348 91.7046 1.87183 91.9947 2.02854C92.2849 2.17944 92.5142 2.40869 92.6825 2.7163C92.8508 3.02391 92.935 3.39826 92.935 3.83936V6.65137H92.1515V3.95254C92.1515 3.47662 92.0325 3.11387 91.7945 2.8643C91.5624 2.60893 91.246 2.48124 90.8456 2.48124C90.4335 2.48124 90.1056 2.61473 89.8618 2.88171C89.618 3.14289 89.4962 3.52305 89.4962 4.02219V6.65137H88.7126V3.95254C88.7126 3.47662 88.5936 3.11387 88.3557 2.8643C88.1235 2.60893 87.8072 2.48124 87.4067 2.48124C86.9947 2.48124 86.6667 2.61473 86.423 2.88171C86.1792 3.14289 86.0573 3.52305 86.0573 4.02219V6.65137H85.2651V1.88053H86.0573V2.5683C86.214 2.31873 86.423 2.1272 86.6841 1.99371C86.9511 1.86022 87.2442 1.79348 87.5634 1.79348C87.9639 1.79348 88.318 1.88344 88.6256 2.06336C88.9332 2.24328 89.1624 2.50736 89.3133 2.8556C89.4468 2.51897 89.6674 2.25779 89.975 2.07206C90.2826 1.88634 90.625 1.79348 91.0023 1.79348ZM98.2445 6.72972C97.8789 6.72972 97.5509 6.66878 97.2607 6.5469C96.9705 6.41921 96.7413 6.24509 96.573 6.02454C96.4047 5.79819 96.3118 5.53991 96.2944 5.24972H97.1127C97.1359 5.48768 97.2462 5.68211 97.4436 5.83301C97.6467 5.98391 97.9108 6.05937 98.2358 6.05937C98.5376 6.05937 98.7756 5.99262 98.9497 5.85913C99.1238 5.72564 99.2109 5.55733 99.2109 5.35419C99.2109 5.14525 99.118 4.99144 98.9323 4.89278C98.7465 4.7883 98.4592 4.68674 98.0704 4.58807C97.7163 4.49521 97.4261 4.40234 97.1998 4.30948C96.9792 4.21081 96.7877 4.06862 96.6252 3.88289C96.4685 3.69136 96.3901 3.44179 96.3901 3.13418C96.3901 2.89042 96.4627 2.66697 96.6078 2.46383C96.7529 2.26069 96.9589 2.10108 97.2259 1.98501C97.4929 1.86312 97.7976 1.80218 98.14 1.80218C98.6682 1.80218 99.0948 1.93567 99.4198 2.20265C99.7448 2.46963 99.9189 2.83528 99.9421 3.2996H99.1499C99.1325 3.05003 99.0309 2.84979 98.8452 2.69889C98.6653 2.54799 98.4215 2.47254 98.1139 2.47254C97.8295 2.47254 97.6032 2.53348 97.4349 2.65536C97.2665 2.77724 97.1824 2.93685 97.1824 3.13418C97.1824 3.29089 97.2317 3.42148 97.3304 3.52595C97.4349 3.62462 97.5625 3.70587 97.7134 3.76971C97.8701 3.82775 98.0849 3.8945 98.3577 3.96995C98.7001 4.06281 98.9787 4.15568 99.1934 4.24854C99.4082 4.3356 99.591 4.46909 99.7419 4.64901C99.8986 4.82893 99.9799 5.06399 99.9857 5.35419C99.9857 5.61537 99.9131 5.85042 99.768 6.05937C99.6229 6.26831 99.4169 6.43372 99.1499 6.5556C98.8887 6.67168 98.5869 6.72972 98.2445 6.72972ZM105.457 4.08313C105.457 4.23403 105.448 4.39364 105.431 4.56195H101.618C101.647 5.03207 101.806 5.40062 102.097 5.6676C102.393 5.92878 102.749 6.05937 103.167 6.05937C103.51 6.05937 103.794 5.98101 104.021 5.82431C104.253 5.6618 104.415 5.44705 104.508 5.18007H105.361C105.234 5.63858 104.978 6.01293 104.595 6.30313C104.212 6.58752 103.736 6.72972 103.167 6.72972C102.715 6.72972 102.308 6.62815 101.949 6.42501C101.594 6.22188 101.316 5.93458 101.113 5.56313C100.91 5.18587 100.808 4.75058 100.808 4.25725C100.808 3.76391 100.907 3.33152 101.104 2.96007C101.301 2.58861 101.577 2.30422 101.931 2.10689C102.291 1.90375 102.703 1.80218 103.167 1.80218C103.62 1.80218 104.021 1.90085 104.369 2.09818C104.717 2.29552 104.984 2.5683 105.17 2.91654C105.361 3.25897 105.457 3.64783 105.457 4.08313ZM104.639 3.91772C104.639 3.61591 104.572 3.35764 104.438 3.14289C104.305 2.92234 104.122 2.75693 103.89 2.64665C103.664 2.53058 103.411 2.47254 103.133 2.47254C102.732 2.47254 102.39 2.60022 102.105 2.8556C101.827 3.11097 101.667 3.46501 101.626 3.91772H104.639ZM107.295 2.65536C107.434 2.38257 107.632 2.17073 107.887 2.01983C108.148 1.86893 108.464 1.79348 108.836 1.79348V2.61183H108.627C107.739 2.61183 107.295 3.09356 107.295 4.05701V6.65137H106.503V1.88053H107.295V2.65536ZM111.526 5.92007L113.006 1.88053H113.851L111.979 6.65137H111.056L109.185 1.88053H110.038L111.526 5.92007ZM115.04 1.10571C114.889 1.10571 114.761 1.05347 114.657 0.949004C114.552 0.844533 114.5 0.716846 114.5 0.565944C114.5 0.415042 114.552 0.287355 114.657 0.182884C114.761 0.0784137 114.889 0.0261783 115.04 0.0261783C115.185 0.0261783 115.307 0.0784137 115.405 0.182884C115.51 0.287355 115.562 0.415042 115.562 0.565944C115.562 0.716846 115.51 0.844533 115.405 0.949004C115.307 1.05347 115.185 1.10571 115.04 1.10571ZM115.423 1.88053V6.65137H114.63V1.88053H115.423ZM119.097 1.79348C119.678 1.79348 120.148 1.9705 120.508 2.32454C120.868 2.67277 121.048 3.17771 121.048 3.83936V6.65137H120.264V3.95254C120.264 3.47662 120.145 3.11387 119.907 2.8643C119.669 2.60893 119.344 2.48124 118.932 2.48124C118.514 2.48124 118.18 2.61183 117.931 2.87301C117.687 3.13418 117.565 3.51434 117.565 4.01348V6.65137H116.773V1.88053H117.565V2.55959C117.722 2.31583 117.934 2.1272 118.201 1.99371C118.474 1.86022 118.772 1.79348 119.097 1.79348ZM124.309 1.80218C124.721 1.80218 125.081 1.89214 125.389 2.07206C125.702 2.25199 125.934 2.47834 126.085 2.75112V1.88053H126.886V6.75584C126.886 7.19113 126.793 7.57709 126.608 7.91372C126.422 8.25615 126.155 8.52314 125.807 8.71467C125.464 8.90619 125.064 9.00196 124.605 9.00196C123.978 9.00196 123.456 8.85396 123.038 8.55796C122.62 8.26196 122.374 7.85859 122.298 7.34784H123.082C123.169 7.63804 123.349 7.87019 123.621 8.04431C123.894 8.22423 124.222 8.31419 124.605 8.31419C125.041 8.31419 125.395 8.1778 125.667 7.90502C125.946 7.63223 126.085 7.24917 126.085 6.75584V5.75466C125.929 6.03325 125.696 6.26541 125.389 6.45113C125.081 6.63686 124.721 6.72972 124.309 6.72972C123.886 6.72972 123.5 6.62525 123.151 6.41631C122.809 6.20737 122.539 5.91427 122.342 5.53701C122.144 5.15976 122.046 4.73027 122.046 4.24854C122.046 3.76101 122.144 3.33442 122.342 2.96877C122.539 2.59732 122.809 2.31003 123.151 2.10689C123.5 1.90375 123.886 1.80218 124.309 1.80218ZM126.085 4.25725C126.085 3.8974 126.013 3.58399 125.868 3.31701C125.722 3.05003 125.525 2.84689 125.276 2.7076C125.032 2.5625 124.762 2.48995 124.466 2.48995C124.17 2.48995 123.9 2.55959 123.656 2.69889C123.412 2.83818 123.218 3.04132 123.073 3.3083C122.928 3.57528 122.855 3.8887 122.855 4.24854C122.855 4.61419 122.928 4.9334 123.073 5.20619C123.218 5.47317 123.412 5.67921 123.656 5.82431C123.9 5.9636 124.17 6.03325 124.466 6.03325C124.762 6.03325 125.032 5.9636 125.276 5.82431C125.525 5.67921 125.722 5.47317 125.868 5.20619C126.013 4.9334 126.085 4.61709 126.085 4.25725ZM129.914 6.72972C129.548 6.72972 129.22 6.66878 128.93 6.5469C128.64 6.41921 128.411 6.24509 128.242 6.02454C128.074 5.79819 127.981 5.53991 127.964 5.24972H128.782C128.805 5.48768 128.916 5.68211 129.113 5.83301C129.316 5.98391 129.58 6.05937 129.905 6.05937C130.207 6.05937 130.445 5.99262 130.619 5.85913C130.793 5.72564 130.88 5.55733 130.88 5.35419C130.88 5.14525 130.787 4.99144 130.602 4.89278C130.416 4.7883 130.129 4.68674 129.74 4.58807C129.386 4.49521 129.096 4.40234 128.869 4.30948C128.649 4.21081 128.457 4.06862 128.295 3.88289C128.138 3.69136 128.06 3.44179 128.06 3.13418C128.06 2.89042 128.132 2.66697 128.277 2.46383C128.422 2.26069 128.628 2.10108 128.895 1.98501C129.162 1.86312 129.467 1.80218 129.809 1.80218C130.338 1.80218 130.764 1.93567 131.089 2.20265C131.414 2.46963 131.588 2.83528 131.612 3.2996H130.819C130.802 3.05003 130.7 2.84979 130.515 2.69889C130.335 2.54799 130.091 2.47254 129.783 2.47254C129.499 2.47254 129.273 2.53348 129.104 2.65536C128.936 2.77724 128.852 2.93685 128.852 3.13418C128.852 3.29089 128.901 3.42148 129 3.52595C129.104 3.62462 129.232 3.70587 129.383 3.76971C129.54 3.82775 129.754 3.8945 130.027 3.96995C130.37 4.06281 130.648 4.15568 130.863 4.24854C131.078 4.3356 131.26 4.46909 131.411 4.64901C131.568 4.82893 131.649 5.06399 131.655 5.35419C131.655 5.61537 131.583 5.85042 131.437 6.05937C131.292 6.26831 131.086 6.43372 130.819 6.5556C130.558 6.67168 130.256 6.72972 129.914 6.72972ZM135.887 0.209002V6.65137H135.094V0.209002H135.887ZM137.646 1.10571C137.495 1.10571 137.368 1.05347 137.263 0.949004C137.159 0.844533 137.106 0.716846 137.106 0.565944C137.106 0.415042 137.159 0.287355 137.263 0.182884C137.368 0.0784137 137.495 0.0261783 137.646 0.0261783C137.791 0.0261783 137.913 0.0784137 138.012 0.182884C138.116 0.287355 138.168 0.415042 138.168 0.565944C138.168 0.716846 138.116 0.844533 138.012 0.949004C137.913 1.05347 137.791 1.10571 137.646 1.10571ZM138.029 1.88053V6.65137H137.237V1.88053H138.029ZM142.043 6.65137L140.172 4.54454V6.65137H139.379V0.209002H140.172V3.99607L142.009 1.88053H143.114L140.868 4.25725L143.123 6.65137H142.043ZM148.213 4.08313C148.213 4.23403 148.204 4.39364 148.187 4.56195H144.374C144.403 5.03207 144.562 5.40062 144.852 5.6676C145.148 5.92878 145.505 6.05937 145.923 6.05937C146.266 6.05937 146.55 5.98101 146.776 5.82431C147.008 5.6618 147.171 5.44705 147.264 5.18007H148.117C147.989 5.63858 147.734 6.01293 147.351 6.30313C146.968 6.58752 146.492 6.72972 145.923 6.72972C145.47 6.72972 145.064 6.62815 144.704 6.42501C144.35 6.22188 144.072 5.93458 143.869 5.56313C143.665 5.18587 143.564 4.75058 143.564 4.25725C143.564 3.76391 143.663 3.33152 143.86 2.96007C144.057 2.58861 144.333 2.30422 144.687 2.10689C145.047 1.90375 145.459 1.80218 145.923 1.80218C146.376 1.80218 146.776 1.90085 147.125 2.09818C147.473 2.29552 147.74 2.5683 147.926 2.91654C148.117 3.25897 148.213 3.64783 148.213 4.08313ZM147.394 3.91772C147.394 3.61591 147.328 3.35764 147.194 3.14289C147.061 2.92234 146.878 2.75693 146.646 2.64665C146.419 2.53058 146.167 2.47254 145.888 2.47254C145.488 2.47254 145.145 2.60022 144.861 2.8556C144.582 3.11097 144.423 3.46501 144.382 3.91772H147.394ZM153.269 6.72972C152.903 6.72972 152.575 6.66878 152.285 6.5469C151.995 6.41921 151.765 6.24509 151.597 6.02454C151.429 5.79819 151.336 5.53991 151.318 5.24972H152.137C152.16 5.48768 152.27 5.68211 152.468 5.83301C152.671 5.98391 152.935 6.05937 153.26 6.05937C153.562 6.05937 153.8 5.99262 153.974 5.85913C154.148 5.72564 154.235 5.55733 154.235 5.35419C154.235 5.14525 154.142 4.99144 153.956 4.89278C153.771 4.7883 153.483 4.68674 153.094 4.58807C152.74 4.49521 152.45 4.40234 152.224 4.30948C152.003 4.21081 151.812 4.06862 151.649 3.88289C151.492 3.69136 151.414 3.44179 151.414 3.13418C151.414 2.89042 151.487 2.66697 151.632 2.46383C151.777 2.26069 151.983 2.10108 152.25 1.98501C152.517 1.86312 152.822 1.80218 153.164 1.80218C153.692 1.80218 154.119 1.93567 154.444 2.20265C154.769 2.46963 154.943 2.83528 154.966 3.2996H154.174C154.157 3.05003 154.055 2.84979 153.869 2.69889C153.689 2.54799 153.446 2.47254 153.138 2.47254C152.854 2.47254 152.627 2.53348 152.459 2.65536C152.291 2.77724 152.206 2.93685 152.206 3.13418C152.206 3.29089 152.256 3.42148 152.354 3.52595C152.459 3.62462 152.587 3.70587 152.737 3.76971C152.894 3.82775 153.109 3.8945 153.382 3.96995C153.724 4.06281 154.003 4.15568 154.217 4.24854C154.432 4.3356 154.615 4.46909 154.766 4.64901C154.923 4.82893 155.004 5.06399 155.01 5.35419C155.01 5.61537 154.937 5.85042 154.792 6.05937C154.647 6.26831 154.441 6.43372 154.174 6.5556C153.913 6.67168 153.611 6.72972 153.269 6.72972ZM158.453 1.79348C159.033 1.79348 159.503 1.9705 159.863 2.32454C160.223 2.67277 160.403 3.17771 160.403 3.83936V6.65137H159.619V3.95254C159.619 3.47662 159.5 3.11387 159.262 2.8643C159.024 2.60893 158.699 2.48124 158.287 2.48124C157.869 2.48124 157.535 2.61183 157.286 2.87301C157.042 3.13418 156.92 3.51434 156.92 4.01348V6.65137H156.128V1.88053H156.92V2.55959C157.077 2.31583 157.289 2.1272 157.556 1.99371C157.829 1.86022 158.127 1.79348 158.453 1.79348ZM161.401 4.24854C161.401 3.76101 161.499 3.33442 161.697 2.96877C161.894 2.59732 162.164 2.31003 162.506 2.10689C162.855 1.90375 163.241 1.80218 163.664 1.80218C164.082 1.80218 164.445 1.89214 164.753 2.07206C165.06 2.25199 165.289 2.47834 165.44 2.75112V1.88053H166.241V6.65137H165.44V5.76337C165.284 6.04195 165.049 6.27411 164.735 6.45984C164.428 6.63976 164.068 6.72972 163.656 6.72972C163.232 6.72972 162.849 6.62525 162.506 6.41631C162.164 6.20737 161.894 5.91427 161.697 5.53701C161.499 5.15976 161.401 4.73027 161.401 4.24854ZM165.44 4.25725C165.44 3.8974 165.368 3.58399 165.223 3.31701C165.078 3.05003 164.88 2.84689 164.631 2.7076C164.387 2.5625 164.117 2.48995 163.821 2.48995C163.525 2.48995 163.255 2.55959 163.011 2.69889C162.768 2.83818 162.573 3.04132 162.428 3.3083C162.283 3.57528 162.21 3.8887 162.21 4.24854C162.21 4.61419 162.283 4.9334 162.428 5.20619C162.573 5.47317 162.768 5.67921 163.011 5.82431C163.255 5.9636 163.525 6.03325 163.821 6.03325C164.117 6.03325 164.387 5.9636 164.631 5.82431C164.88 5.67921 165.078 5.47317 165.223 5.20619C165.368 4.9334 165.44 4.61709 165.44 4.25725ZM167.284 4.25725C167.284 3.76391 167.383 3.33442 167.58 2.96877C167.777 2.59732 168.05 2.31003 168.398 2.10689C168.752 1.90375 169.156 1.80218 169.609 1.80218C170.195 1.80218 170.676 1.94438 171.054 2.22877C171.437 2.51316 171.689 2.90783 171.811 3.41277H170.958C170.877 3.12258 170.717 2.89332 170.479 2.72501C170.247 2.55669 169.957 2.47254 169.609 2.47254C169.156 2.47254 168.79 2.62924 168.512 2.94265C168.233 3.25026 168.094 3.68846 168.094 4.25725C168.094 4.83183 168.233 5.27584 168.512 5.58925C168.79 5.90266 169.156 6.05937 169.609 6.05937C169.957 6.05937 170.247 5.97811 170.479 5.8156C170.711 5.65309 170.871 5.42093 170.958 5.11913H171.811C171.683 5.60666 171.428 5.99842 171.045 6.29443C170.662 6.58462 170.183 6.72972 169.609 6.72972C169.156 6.72972 168.752 6.62815 168.398 6.42501C168.05 6.22188 167.777 5.93458 167.58 5.56313C167.383 5.19168 167.284 4.75638 167.284 4.25725ZM175.532 6.65137L173.66 4.54454V6.65137H172.868V0.209002H173.66V3.99607L175.497 1.88053H176.603L174.357 4.25725L176.612 6.65137H175.532ZM179.038 6.72972C178.672 6.72972 178.344 6.66878 178.054 6.5469C177.764 6.41921 177.534 6.24509 177.366 6.02454C177.198 5.79819 177.105 5.53991 177.087 5.24972H177.906C177.929 5.48768 178.039 5.68211 178.237 5.83301C178.44 5.98391 178.704 6.05937 179.029 6.05937C179.331 6.05937 179.569 5.99262 179.743 5.85913C179.917 5.72564 180.004 5.55733 180.004 5.35419C180.004 5.14525 179.911 4.99144 179.725 4.89278C179.54 4.7883 179.252 4.68674 178.863 4.58807C178.509 4.49521 178.219 4.40234 177.993 4.30948C177.772 4.21081 177.581 4.06862 177.418 3.88289C177.262 3.69136 177.183 3.44179 177.183 3.13418C177.183 2.89042 177.256 2.66697 177.401 2.46383C177.546 2.26069 177.752 2.10108 178.019 1.98501C178.286 1.86312 178.591 1.80218 178.933 1.80218C179.461 1.80218 179.888 1.93567 180.213 2.20265C180.538 2.46963 180.712 2.83528 180.735 3.2996H179.943C179.926 3.05003 179.824 2.84979 179.638 2.69889C179.458 2.54799 179.215 2.47254 178.907 2.47254C178.623 2.47254 178.396 2.53348 178.228 2.65536C178.06 2.77724 177.975 2.93685 177.975 3.13418C177.975 3.29089 178.025 3.42148 178.123 3.52595C178.228 3.62462 178.356 3.70587 178.507 3.76971C178.663 3.82775 178.878 3.8945 179.151 3.96995C179.493 4.06281 179.772 4.15568 179.987 4.24854C180.201 4.3356 180.384 4.46909 180.535 4.64901C180.692 4.82893 180.773 5.06399 180.779 5.35419C180.779 5.61537 180.706 5.85042 180.561 6.05937C180.416 6.26831 180.21 6.43372 179.943 6.5556C179.682 6.67168 179.38 6.72972 179.038 6.72972ZM182.716 5.55442L181.74 7.89631H181.209L181.845 5.55442H182.716ZM187.912 1.80218C188.324 1.80218 188.683 1.89214 188.991 2.07206C189.305 2.25199 189.537 2.47834 189.688 2.75112V1.88053H190.489V6.75584C190.489 7.19113 190.396 7.57709 190.21 7.91372C190.024 8.25615 189.757 8.52314 189.409 8.71467C189.067 8.90619 188.666 9.00196 188.208 9.00196C187.581 9.00196 187.058 8.85396 186.641 8.55796C186.223 8.26196 185.976 7.85859 185.901 7.34784H186.684C186.771 7.63804 186.951 7.87019 187.224 8.04431C187.497 8.22423 187.825 8.31419 188.208 8.31419C188.643 8.31419 188.997 8.1778 189.27 7.90502C189.548 7.63223 189.688 7.24917 189.688 6.75584V5.75466C189.531 6.03325 189.299 6.26541 188.991 6.45113C188.683 6.63686 188.324 6.72972 187.912 6.72972C187.488 6.72972 187.102 6.62525 186.754 6.41631C186.411 6.20737 186.141 5.91427 185.944 5.53701C185.747 5.15976 185.648 4.73027 185.648 4.24854C185.648 3.76101 185.747 3.33442 185.944 2.96877C186.141 2.59732 186.411 2.31003 186.754 2.10689C187.102 1.90375 187.488 1.80218 187.912 1.80218ZM189.688 4.25725C189.688 3.8974 189.615 3.58399 189.47 3.31701C189.325 3.05003 189.128 2.84689 188.878 2.7076C188.634 2.5625 188.364 2.48995 188.068 2.48995C187.772 2.48995 187.502 2.55959 187.259 2.69889C187.015 2.83818 186.82 3.04132 186.675 3.3083C186.53 3.57528 186.458 3.8887 186.458 4.24854C186.458 4.61419 186.53 4.9334 186.675 5.20619C186.82 5.47317 187.015 5.67921 187.259 5.82431C187.502 5.9636 187.772 6.03325 188.068 6.03325C188.364 6.03325 188.634 5.9636 188.878 5.82431C189.128 5.67921 189.325 5.47317 189.47 5.20619C189.615 4.9334 189.688 4.61709 189.688 4.25725ZM192.62 2.65536C192.759 2.38257 192.956 2.17073 193.212 2.01983C193.473 1.86893 193.789 1.79348 194.161 1.79348V2.61183H193.952C193.064 2.61183 192.62 3.09356 192.62 4.05701V6.65137H191.827V1.88053H192.62V2.65536ZM194.779 4.24854C194.779 3.76101 194.878 3.33442 195.075 2.96877C195.272 2.59732 195.542 2.31003 195.885 2.10689C196.233 1.90375 196.619 1.80218 197.043 1.80218C197.46 1.80218 197.823 1.89214 198.131 2.07206C198.438 2.25199 198.668 2.47834 198.819 2.75112V1.88053H199.62V6.65137H198.819V5.76337C198.662 6.04195 198.427 6.27411 198.113 6.45984C197.806 6.63976 197.446 6.72972 197.034 6.72972C196.61 6.72972 196.227 6.62525 195.885 6.41631C195.542 6.20737 195.272 5.91427 195.075 5.53701C194.878 5.15976 194.779 4.73027 194.779 4.24854ZM198.819 4.25725C198.819 3.8974 198.746 3.58399 198.601 3.31701C198.456 3.05003 198.258 2.84689 198.009 2.7076C197.765 2.5625 197.495 2.48995 197.199 2.48995C196.903 2.48995 196.633 2.55959 196.39 2.69889C196.146 2.83818 195.951 3.04132 195.806 3.3083C195.661 3.57528 195.589 3.8887 195.589 4.24854C195.589 4.61419 195.661 4.9334 195.806 5.20619C195.951 5.47317 196.146 5.67921 196.39 5.82431C196.633 5.9636 196.903 6.03325 197.199 6.03325C197.495 6.03325 197.765 5.9636 198.009 5.82431C198.258 5.67921 198.456 5.47317 198.601 5.20619C198.746 4.9334 198.819 4.61709 198.819 4.25725ZM202.734 5.92007L204.214 1.88053H205.059L203.187 6.65137H202.264L200.392 1.88053H201.246L202.734 5.92007ZM206.248 1.10571C206.097 1.10571 205.969 1.05347 205.864 0.949004C205.76 0.844533 205.708 0.716846 205.708 0.565944C205.708 0.415042 205.76 0.287355 205.864 0.182884C205.969 0.0784137 206.097 0.0261783 206.248 0.0261783C206.393 0.0261783 206.515 0.0784137 206.613 0.182884C206.718 0.287355 206.77 0.415042 206.77 0.565944C206.77 0.716846 206.718 0.844533 206.613 0.949004C206.515 1.05347 206.393 1.10571 206.248 1.10571ZM206.631 1.88053V6.65137H205.838V1.88053H206.631ZM212.334 4.08313C212.334 4.23403 212.325 4.39364 212.308 4.56195H208.494C208.524 5.03207 208.683 5.40062 208.973 5.6676C209.269 5.92878 209.626 6.05937 210.044 6.05937C210.387 6.05937 210.671 5.98101 210.897 5.82431C211.129 5.6618 211.292 5.44705 211.385 5.18007H212.238C212.11 5.63858 211.855 6.01293 211.472 6.30313C211.089 6.58752 210.613 6.72972 210.044 6.72972C209.591 6.72972 209.185 6.62815 208.825 6.42501C208.471 6.22188 208.193 5.93458 207.99 5.56313C207.786 5.18587 207.685 4.75058 207.685 4.25725C207.685 3.76391 207.784 3.33152 207.981 2.96007C208.178 2.58861 208.454 2.30422 208.808 2.10689C209.168 1.90375 209.58 1.80218 210.044 1.80218C210.497 1.80218 210.897 1.90085 211.246 2.09818C211.594 2.29552 211.861 2.5683 212.047 2.91654C212.238 3.25897 212.334 3.64783 212.334 4.08313ZM211.515 3.91772C211.515 3.61591 211.449 3.35764 211.315 3.14289C211.182 2.92234 210.999 2.75693 210.767 2.64665C210.54 2.53058 210.288 2.47254 210.009 2.47254C209.609 2.47254 209.266 2.60022 208.982 2.8556C208.703 3.11097 208.544 3.46501 208.503 3.91772H211.515ZM215.068 6.72972C214.703 6.72972 214.375 6.66878 214.085 6.5469C213.795 6.41921 213.565 6.24509 213.397 6.02454C213.229 5.79819 213.136 5.53991 213.118 5.24972H213.937C213.96 5.48768 214.07 5.68211 214.268 5.83301C214.471 5.98391 214.735 6.05937 215.06 6.05937C215.362 6.05937 215.6 5.99262 215.774 5.85913C215.948 5.72564 216.035 5.55733 216.035 5.35419C216.035 5.14525 215.942 4.99144 215.756 4.89278C215.571 4.7883 215.283 4.68674 214.894 4.58807C214.54 4.49521 214.25 4.40234 214.024 4.30948C213.803 4.21081 213.612 4.06862 213.449 3.88289C213.292 3.69136 213.214 3.44179 213.214 3.13418C213.214 2.89042 213.287 2.66697 213.432 2.46383C213.577 2.26069 213.783 2.10108 214.05 1.98501C214.317 1.86312 214.622 1.80218 214.964 1.80218C215.492 1.80218 215.919 1.93567 216.244 2.20265C216.569 2.46963 216.743 2.83528 216.766 3.2996H215.974C215.956 3.05003 215.855 2.84979 215.669 2.69889C215.489 2.54799 215.245 2.47254 214.938 2.47254C214.653 2.47254 214.427 2.53348 214.259 2.65536C214.091 2.77724 214.006 2.93685 214.006 3.13418C214.006 3.29089 214.056 3.42148 214.154 3.52595C214.259 3.62462 214.387 3.70587 214.537 3.76971C214.694 3.82775 214.909 3.8945 215.182 3.96995C215.524 4.06281 215.803 4.15568 216.017 4.24854C216.232 4.3356 216.415 4.46909 216.566 4.64901C216.723 4.82893 216.804 5.06399 216.81 5.35419C216.81 5.61537 216.737 5.85042 216.592 6.05937C216.447 6.26831 216.241 6.43372 215.974 6.5556C215.713 6.67168 215.411 6.72972 215.068 6.72972ZM218.746 5.55442L217.771 7.89631H217.24L217.876 5.55442H218.746ZM224.056 6.72972C223.609 6.72972 223.202 6.62815 222.837 6.42501C222.477 6.22188 222.193 5.93458 221.984 5.56313C221.78 5.18587 221.679 4.75058 221.679 4.25725C221.679 3.76971 221.783 3.34022 221.992 2.96877C222.207 2.59152 222.497 2.30422 222.863 2.10689C223.229 1.90375 223.638 1.80218 224.09 1.80218C224.543 1.80218 224.952 1.90375 225.318 2.10689C225.684 2.30422 225.971 2.58861 226.18 2.96007C226.395 3.33152 226.502 3.76391 226.502 4.25725C226.502 4.75058 226.392 5.18587 226.171 5.56313C225.956 5.93458 225.663 6.22188 225.292 6.42501C224.92 6.62815 224.508 6.72972 224.056 6.72972ZM224.056 6.03325C224.34 6.03325 224.607 5.9665 224.857 5.83301C225.106 5.69952 225.306 5.49929 225.457 5.23231C225.614 4.96532 225.692 4.6403 225.692 4.25725C225.692 3.87419 225.617 3.54917 225.466 3.28218C225.315 3.0152 225.118 2.81787 224.874 2.69018C224.63 2.55669 224.366 2.48995 224.082 2.48995C223.792 2.48995 223.525 2.55669 223.281 2.69018C223.043 2.81787 222.851 3.0152 222.706 3.28218C222.561 3.54917 222.489 3.87419 222.489 4.25725C222.489 4.64611 222.558 4.97403 222.697 5.24101C222.843 5.50799 223.034 5.70823 223.272 5.84172C223.51 5.96941 223.771 6.03325 224.056 6.03325ZM228.336 2.65536C228.475 2.38257 228.672 2.17073 228.928 2.01983C229.189 1.86893 229.505 1.79348 229.877 1.79348V2.61183H229.668C228.78 2.61183 228.336 3.09356 228.336 4.05701V6.65137H227.544V1.88053H228.336V2.65536ZM234.801 6.72972C234.436 6.72972 234.108 6.66878 233.818 6.5469C233.527 6.41921 233.298 6.24509 233.13 6.02454C232.961 5.79819 232.869 5.53991 232.851 5.24972H233.67C233.693 5.48768 233.803 5.68211 234 5.83301C234.203 5.98391 234.468 6.05937 234.793 6.05937C235.094 6.05937 235.332 5.99262 235.506 5.85913C235.681 5.72564 235.768 5.55733 235.768 5.35419C235.768 5.14525 235.675 4.99144 235.489 4.89278C235.303 4.7883 235.016 4.68674 234.627 4.58807C234.273 4.49521 233.983 4.40234 233.757 4.30948C233.536 4.21081 233.344 4.06862 233.182 3.88289C233.025 3.69136 232.947 3.44179 232.947 3.13418C232.947 2.89042 233.019 2.66697 233.165 2.46383C233.31 2.26069 233.516 2.10108 233.783 1.98501C234.05 1.86312 234.354 1.80218 234.697 1.80218C235.225 1.80218 235.652 1.93567 235.977 2.20265C236.302 2.46963 236.476 2.83528 236.499 3.2996H235.707C235.689 3.05003 235.588 2.84979 235.402 2.69889C235.222 2.54799 234.978 2.47254 234.671 2.47254C234.386 2.47254 234.16 2.53348 233.992 2.65536C233.823 2.77724 233.739 2.93685 233.739 3.13418C233.739 3.29089 233.788 3.42148 233.887 3.52595C233.992 3.62462 234.119 3.70587 234.27 3.76971C234.427 3.82775 234.642 3.8945 234.914 3.96995C235.257 4.06281 235.535 4.15568 235.75 4.24854C235.965 4.3356 236.148 4.46909 236.299 4.64901C236.455 4.82893 236.537 5.06399 236.542 5.35419C236.542 5.61537 236.47 5.85042 236.325 6.05937C236.18 6.26831 235.974 6.43372 235.707 6.5556C235.446 6.67168 235.144 6.72972 234.801 6.72972ZM244.016 1.88053L242.527 6.65137H241.709L240.56 2.8643L239.411 6.65137H238.592L237.095 1.88053H237.905L239.002 5.88525L240.186 1.88053H240.995L242.153 5.89395L243.233 1.88053H244.016ZM249.155 4.08313C249.155 4.23403 249.147 4.39364 249.129 4.56195H245.316C245.345 5.03207 245.505 5.40062 245.795 5.6676C246.091 5.92878 246.448 6.05937 246.866 6.05937C247.208 6.05937 247.493 5.98101 247.719 5.82431C247.951 5.6618 248.114 5.44705 248.206 5.18007H249.06C248.932 5.63858 248.677 6.01293 248.293 6.30313C247.91 6.58752 247.434 6.72972 246.866 6.72972C246.413 6.72972 246.007 6.62815 245.647 6.42501C245.293 6.22188 245.014 5.93458 244.811 5.56313C244.608 5.18587 244.506 4.75058 244.506 4.25725C244.506 3.76391 244.605 3.33152 244.802 2.96007C245 2.58861 245.275 2.30422 245.629 2.10689C245.989 1.90375 246.401 1.80218 246.866 1.80218C247.318 1.80218 247.719 1.90085 248.067 2.09818C248.415 2.29552 248.682 2.5683 248.868 2.91654C249.06 3.25897 249.155 3.64783 249.155 4.08313ZM248.337 3.91772C248.337 3.61591 248.27 3.35764 248.137 3.14289C248.003 2.92234 247.82 2.75693 247.588 2.64665C247.362 2.53058 247.109 2.47254 246.831 2.47254C246.43 2.47254 246.088 2.60022 245.804 2.8556C245.525 3.11097 245.365 3.46501 245.325 3.91772H248.337ZM254.554 4.08313C254.554 4.23403 254.545 4.39364 254.528 4.56195H250.715C250.744 5.03207 250.903 5.40062 251.194 5.6676C251.49 5.92878 251.846 6.05937 252.264 6.05937C252.607 6.05937 252.891 5.98101 253.118 5.82431C253.35 5.6618 253.512 5.44705 253.605 5.18007H254.458C254.331 5.63858 254.075 6.01293 253.692 6.30313C253.309 6.58752 252.833 6.72972 252.264 6.72972C251.812 6.72972 251.405 6.62815 251.046 6.42501C250.691 6.22188 250.413 5.93458 250.21 5.56313C250.007 5.18587 249.905 4.75058 249.905 4.25725C249.905 3.76391 250.004 3.33152 250.201 2.96007C250.398 2.58861 250.674 2.30422 251.028 2.10689C251.388 1.90375 251.8 1.80218 252.264 1.80218C252.717 1.80218 253.118 1.90085 253.466 2.09818C253.814 2.29552 254.081 2.5683 254.267 2.91654C254.458 3.25897 254.554 3.64783 254.554 4.08313ZM253.736 3.91772C253.736 3.61591 253.669 3.35764 253.535 3.14289C253.402 2.92234 253.219 2.75693 252.987 2.64665C252.761 2.53058 252.508 2.47254 252.23 2.47254C251.829 2.47254 251.487 2.60022 251.202 2.8556C250.924 3.11097 250.764 3.46501 250.723 3.91772H253.736ZM256.566 2.53348V5.34548C256.566 5.57764 256.615 5.74305 256.714 5.84172C256.813 5.93458 256.984 5.98101 257.228 5.98101H257.811V6.65137H257.097C256.656 6.65137 256.325 6.5498 256.105 6.34666C255.884 6.14352 255.774 5.8098 255.774 5.34548V2.53348H255.156V1.88053H255.774V0.679121H256.566V1.88053H257.811V2.53348H256.566ZM5.67655 17.2485C5.67655 16.761 5.77522 16.3344 5.97255 15.9688C6.16989 15.5973 6.43977 15.31 6.7822 15.1069C7.13044 14.9038 7.5164 14.8022 7.94009 14.8022C8.35797 14.8022 8.72072 14.8921 9.02833 15.0721C9.33593 15.252 9.56519 15.4783 9.71609 15.7511V14.8805H10.517V19.6514H9.71609V18.7634C9.55938 19.042 9.32433 19.2741 9.01091 19.4598C8.7033 19.6398 8.34346 19.7297 7.93138 19.7297C7.50769 19.7297 7.12464 19.6252 6.7822 19.4163C6.43977 19.2074 6.16989 18.9143 5.97255 18.537C5.77522 18.1598 5.67655 17.7303 5.67655 17.2485ZM9.71609 17.2572C9.71609 16.8974 9.64354 16.584 9.49844 16.317C9.35335 16.05 9.15601 15.8469 8.90644 15.7076C8.66268 15.5625 8.39279 15.4899 8.09679 15.4899C7.80079 15.4899 7.53091 15.5596 7.28715 15.6989C7.04338 15.8382 6.84895 16.0413 6.70385 16.3083C6.55875 16.5753 6.4862 16.8887 6.4862 17.2485C6.4862 17.6142 6.55875 17.9334 6.70385 18.2062C6.84895 18.4732 7.04338 18.6792 7.28715 18.8243C7.53091 18.9636 7.80079 19.0332 8.09679 19.0332C8.39279 19.0332 8.66268 18.9636 8.90644 18.8243C9.15601 18.6792 9.35335 18.4732 9.49844 18.2062C9.64354 17.9334 9.71609 17.6171 9.71609 17.2572ZM13.5448 19.7297C13.1791 19.7297 12.8512 19.6688 12.561 19.5469C12.2708 19.4192 12.0416 19.2451 11.8732 19.0245C11.7049 18.7982 11.6121 18.5399 11.5947 18.2497H12.413C12.4362 18.4877 12.5465 18.6821 12.7438 18.833C12.947 18.9839 13.2111 19.0594 13.5361 19.0594C13.8379 19.0594 14.0758 18.9926 14.25 18.8591C14.4241 18.7256 14.5111 18.5573 14.5111 18.3542C14.5111 18.1452 14.4183 17.9914 14.2325 17.8928C14.0468 17.7883 13.7595 17.6867 13.3707 17.5881C13.0166 17.4952 12.7264 17.4023 12.5001 17.3095C12.2795 17.2108 12.088 17.0686 11.9255 16.8829C11.7688 16.6914 11.6904 16.4418 11.6904 16.1342C11.6904 15.8904 11.763 15.667 11.9081 15.4638C12.0532 15.2607 12.2592 15.1011 12.5262 14.985C12.7932 14.8631 13.0979 14.8022 13.4403 14.8022C13.9685 14.8022 14.3951 14.9357 14.7201 15.2027C15.0451 15.4696 15.2192 15.8353 15.2424 16.2996H14.4502C14.4328 16.05 14.3312 15.8498 14.1455 15.6989C13.9656 15.548 13.7218 15.4725 13.4142 15.4725C13.1298 15.4725 12.9034 15.5335 12.7351 15.6554C12.5668 15.7772 12.4827 15.9369 12.4827 16.1342C12.4827 16.2909 12.532 16.4215 12.6307 16.5259C12.7351 16.6246 12.8628 16.7059 13.0137 16.7697C13.1704 16.8278 13.3852 16.8945 13.658 16.97C14.0004 17.0628 14.279 17.1557 14.4937 17.2485C14.7085 17.3356 14.8913 17.4691 15.0422 17.649C15.1989 17.8289 15.2802 18.064 15.286 18.3542C15.286 18.6154 15.2134 18.8504 15.0683 19.0594C14.9232 19.2683 14.7172 19.4337 14.4502 19.5556C14.189 19.6717 13.8872 19.7297 13.5448 19.7297ZM18.0933 19.7297C17.7276 19.7297 17.3997 19.6688 17.1095 19.5469C16.8193 19.4192 16.5901 19.2451 16.4217 19.0245C16.2534 18.7982 16.1606 18.5399 16.1432 18.2497H16.9615C16.9847 18.4877 17.095 18.6821 17.2923 18.833C17.4955 18.9839 17.7595 19.0594 18.0846 19.0594C18.3864 19.0594 18.6243 18.9926 18.7985 18.8591C18.9726 18.7256 19.0596 18.5573 19.0596 18.3542C19.0596 18.1452 18.9668 17.9914 18.781 17.8928C18.5953 17.7883 18.308 17.6867 17.9192 17.5881C17.5651 17.4952 17.2749 17.4023 17.0486 17.3095C16.828 17.2108 16.6365 17.0686 16.474 16.8829C16.3173 16.6914 16.2389 16.4418 16.2389 16.1342C16.2389 15.8904 16.3115 15.667 16.4566 15.4638C16.6017 15.2607 16.8077 15.1011 17.0747 14.985C17.3417 14.8631 17.6464 14.8022 17.9888 14.8022C18.517 14.8022 18.9435 14.9357 19.2686 15.2027C19.5936 15.4696 19.7677 15.8353 19.7909 16.2996H18.9987C18.9813 16.05 18.8797 15.8498 18.694 15.6989C18.5141 15.548 18.2703 15.4725 17.9627 15.4725C17.6783 15.4725 17.4519 15.5335 17.2836 15.6554C17.1153 15.7772 17.0312 15.9369 17.0312 16.1342C17.0312 16.2909 17.0805 16.4215 17.1792 16.5259C17.2836 16.6246 17.4113 16.7059 17.5622 16.7697C17.7189 16.8278 17.9337 16.8945 18.2064 16.97C18.5489 17.0628 18.8275 17.1557 19.0422 17.2485C19.257 17.3356 19.4398 17.4691 19.5907 17.649C19.7474 17.8289 19.8286 18.064 19.8345 18.3542C19.8345 18.6154 19.7619 18.8504 19.6168 19.0594C19.4717 19.2683 19.2657 19.4337 18.9987 19.5556C18.7375 19.6717 18.4357 19.7297 18.0933 19.7297ZM23.0335 19.7297C22.5866 19.7297 22.1804 19.6282 21.8147 19.425C21.4549 19.2219 21.1705 18.9346 20.9615 18.5631C20.7584 18.1859 20.6568 17.7506 20.6568 17.2572C20.6568 16.7697 20.7613 16.3402 20.9702 15.9688C21.185 15.5915 21.4752 15.3042 21.8408 15.1069C22.2065 14.9038 22.6156 14.8022 23.0684 14.8022C23.5211 14.8022 23.9302 14.9038 24.2959 15.1069C24.6615 15.3042 24.9488 15.5886 25.1578 15.9601C25.3725 16.3315 25.4799 16.7639 25.4799 17.2572C25.4799 17.7506 25.3696 18.1859 25.1491 18.5631C24.9343 18.9346 24.6412 19.2219 24.2698 19.425C23.8983 19.6282 23.4862 19.7297 23.0335 19.7297ZM23.0335 19.0332C23.3179 19.0332 23.5849 18.9665 23.8345 18.833C24.084 18.6995 24.2843 18.4993 24.4352 18.2323C24.5919 17.9653 24.6702 17.6403 24.6702 17.2572C24.6702 16.8742 24.5948 16.5492 24.4439 16.2822C24.293 16.0152 24.0957 15.8179 23.8519 15.6902C23.6081 15.5567 23.344 15.4899 23.0596 15.4899C22.7695 15.4899 22.5025 15.5567 22.2587 15.6902C22.0207 15.8179 21.8292 16.0152 21.6841 16.2822C21.539 16.5492 21.4665 16.8742 21.4665 17.2572C21.4665 17.6461 21.5361 17.974 21.6754 18.241C21.8205 18.508 22.012 18.7082 22.25 18.8417C22.488 18.9694 22.7491 19.0332 23.0335 19.0332ZM27.3138 15.6554C27.4531 15.3826 27.6504 15.1707 27.9058 15.0198C28.167 14.8689 28.4833 14.7935 28.8547 14.7935V15.6118H28.6458C27.7578 15.6118 27.3138 16.0936 27.3138 17.057V19.6514H26.5215V14.8805H27.3138V15.6554ZM30.7356 15.5335V18.3455C30.7356 18.5776 30.7849 18.7431 30.8836 18.8417C30.9823 18.9346 31.1535 18.981 31.3972 18.981H31.9805V19.6514H31.2667C30.8256 19.6514 30.4947 19.5498 30.2742 19.3467C30.0536 19.1435 29.9434 18.8098 29.9434 18.3455V15.5335H29.3252V14.8805H29.9434V13.6791H30.7356V14.8805H31.9805V15.5335H30.7356ZM38.6776 14.7935C39.0491 14.7935 39.3799 14.8718 39.6701 15.0285C39.9603 15.1794 40.1895 15.4087 40.3579 15.7163C40.5262 16.0239 40.6103 16.3983 40.6103 16.8394V19.6514H39.8268V16.9525C39.8268 16.4766 39.7078 16.1139 39.4699 15.8643C39.2377 15.6089 38.9214 15.4812 38.5209 15.4812C38.1088 15.4812 37.7809 15.6147 37.5371 15.8817C37.2934 16.1429 37.1715 16.523 37.1715 17.0222V19.6514H36.388V16.9525C36.388 16.4766 36.269 16.1139 36.031 15.8643C35.7989 15.6089 35.4826 15.4812 35.0821 15.4812C34.67 15.4812 34.3421 15.6147 34.0983 15.8817C33.8546 16.1429 33.7327 16.523 33.7327 17.0222V19.6514H32.9404V14.8805H33.7327V15.5683C33.8894 15.3187 34.0983 15.1272 34.3595 14.9937C34.6265 14.8602 34.9196 14.7935 35.2388 14.7935C35.6393 14.7935 35.9933 14.8834 36.3009 15.0634C36.6085 15.2433 36.8378 15.5074 36.9887 15.8556C37.1222 15.519 37.3427 15.2578 37.6503 15.0721C37.9579 14.8863 38.3004 14.7935 38.6776 14.7935ZM46.2628 17.0831C46.2628 17.234 46.2541 17.3936 46.2367 17.562H42.4235C42.4526 18.0321 42.6122 18.4006 42.9024 18.6676C43.1984 18.9288 43.5553 19.0594 43.9732 19.0594C44.3156 19.0594 44.6 18.981 44.8264 18.8243C45.0585 18.6618 45.221 18.4471 45.3139 18.1801H46.1671C46.0394 18.6386 45.784 19.0129 45.401 19.3031C45.0179 19.5875 44.542 19.7297 43.9732 19.7297C43.5205 19.7297 43.1142 19.6282 42.7544 19.425C42.4003 19.2219 42.1217 18.9346 41.9186 18.5631C41.7155 18.1859 41.6139 17.7506 41.6139 17.2572C41.6139 16.7639 41.7126 16.3315 41.9099 15.9601C42.1072 15.5886 42.3829 15.3042 42.737 15.1069C43.0968 14.9038 43.5089 14.8022 43.9732 14.8022C44.4259 14.8022 44.8264 14.9008 45.1746 15.0982C45.5228 15.2955 45.7898 15.5683 45.9755 15.9165C46.1671 16.259 46.2628 16.6478 46.2628 17.0831ZM45.4445 16.9177C45.4445 16.6159 45.3777 16.3576 45.2442 16.1429C45.1108 15.9223 44.9279 15.7569 44.6958 15.6467C44.4694 15.5306 44.217 15.4725 43.9384 15.4725C43.5379 15.4725 43.1955 15.6002 42.9111 15.8556C42.6325 16.111 42.4729 16.465 42.4322 16.9177H45.4445ZM49.633 14.7935C50.2134 14.7935 50.6836 14.9705 51.0434 15.3245C51.4032 15.6728 51.5832 16.1777 51.5832 16.8394V19.6514H50.7996V16.9525C50.7996 16.4766 50.6807 16.1139 50.4427 15.8643C50.2047 15.6089 49.8797 15.4812 49.4676 15.4812C49.0497 15.4812 48.716 15.6118 48.4665 15.873C48.2227 16.1342 48.1008 16.5143 48.1008 17.0135V19.6514H47.3086V14.8805H48.1008V15.5596C48.2575 15.3158 48.4694 15.1272 48.7363 14.9937C49.0091 14.8602 49.308 14.7935 49.633 14.7935ZM53.8436 15.5335V18.3455C53.8436 18.5776 53.893 18.7431 53.9916 18.8417C54.0903 18.9346 54.2615 18.981 54.5053 18.981H55.0886V19.6514H54.3747C53.9336 19.6514 53.6028 19.5498 53.3822 19.3467C53.1617 19.1435 53.0514 18.8098 53.0514 18.3455V15.5335H52.4333V14.8805H53.0514V13.6791H53.8436V14.8805H55.0886V15.5335H53.8436ZM57.7374 19.7297C57.3718 19.7297 57.0438 19.6688 56.7537 19.5469C56.4635 19.4192 56.2342 19.2451 56.0659 19.0245C55.8976 18.7982 55.8047 18.5399 55.7873 18.2497H56.6057C56.6289 18.4877 56.7391 18.6821 56.9365 18.833C57.1396 18.9839 57.4037 19.0594 57.7287 19.0594C58.0305 19.0594 58.2685 18.9926 58.4426 18.8591C58.6167 18.7256 58.7038 18.5573 58.7038 18.3542C58.7038 18.1452 58.6109 17.9914 58.4252 17.8928C58.2395 17.7883 57.9522 17.6867 57.5633 17.5881C57.2093 17.4952 56.9191 17.4023 56.6927 17.3095C56.4722 17.2108 56.2806 17.0686 56.1181 16.8829C55.9614 16.6914 55.8831 16.4418 55.8831 16.1342C55.8831 15.8904 55.9556 15.667 56.1007 15.4638C56.2458 15.2607 56.4518 15.1011 56.7188 14.985C56.9858 14.8631 57.2905 14.8022 57.6329 14.8022C58.1611 14.8022 58.5877 14.9357 58.9127 15.2027C59.2377 15.4696 59.4119 15.8353 59.4351 16.2996H58.6428C58.6254 16.05 58.5239 15.8498 58.3381 15.6989C58.1582 15.548 57.9144 15.4725 57.6068 15.4725C57.3224 15.4725 57.0961 15.5335 56.9278 15.6554C56.7595 15.7772 56.6753 15.9369 56.6753 16.1342C56.6753 16.2909 56.7246 16.4215 56.8233 16.5259C56.9278 16.6246 57.0555 16.7059 57.2064 16.7697C57.3631 16.8278 57.5778 16.8945 57.8506 16.97C58.193 17.0628 58.4716 17.1557 58.6864 17.2485C58.9011 17.3356 59.0839 17.4691 59.2348 17.649C59.3915 17.8289 59.4728 18.064 59.4786 18.3542C59.4786 18.6154 59.406 18.8504 59.261 19.0594C59.1159 19.2683 58.9098 19.4337 58.6428 19.5556C58.3817 19.6717 58.0799 19.7297 57.7374 19.7297ZM60.8494 19.7036C60.6985 19.7036 60.5708 19.6514 60.4664 19.5469C60.3619 19.4424 60.3097 19.3147 60.3097 19.1638C60.3097 19.0129 60.3619 18.8852 60.4664 18.7808C60.5708 18.6763 60.6985 18.6241 60.8494 18.6241C60.9945 18.6241 61.1164 18.6763 61.2151 18.7808C61.3196 18.8852 61.3718 19.0129 61.3718 19.1638C61.3718 19.3147 61.3196 19.4424 61.2151 19.5469C61.1164 19.6514 60.9945 19.7036 60.8494 19.7036ZM66.635 13.5834C67.2967 13.5834 67.8684 13.7081 68.3501 13.9577C68.8376 14.2015 69.2091 14.5526 69.4645 15.0111C69.7256 15.4696 69.8562 16.0094 69.8562 16.6304C69.8562 17.2514 69.7256 17.7912 69.4645 18.2497C69.2091 18.7024 68.8376 19.0507 68.3501 19.2944C67.8684 19.5324 67.2967 19.6514 66.635 19.6514H64.7459V13.5834H66.635ZM66.635 18.9984C67.4186 18.9984 68.0164 18.7924 68.4285 18.3803C68.8405 17.9624 69.0466 17.3791 69.0466 16.6304C69.0466 15.8759 68.8376 15.2868 68.4198 14.8631C68.0077 14.4394 67.4128 14.2276 66.635 14.2276H65.5381V18.9984H66.635ZM75.1323 14.8805V19.6514H74.34V18.9462C74.1891 19.19 73.9773 19.3815 73.7045 19.5208C73.4375 19.6543 73.1415 19.721 72.8165 19.721C72.4451 19.721 72.1113 19.6456 71.8153 19.4947C71.5193 19.338 71.2843 19.1058 71.1102 18.7982C70.9418 18.4906 70.8577 18.1162 70.8577 17.6751V14.8805H71.6412V17.5707C71.6412 18.0408 71.7602 18.4035 71.9982 18.6589C72.2361 18.9085 72.5611 19.0332 72.9732 19.0332C73.3969 19.0332 73.7306 18.9027 73.9744 18.6415C74.2182 18.3803 74.34 18.0001 74.34 17.501V14.8805H75.1323ZM77.2622 15.6554C77.4015 15.3826 77.5988 15.1707 77.8542 15.0198C78.1153 14.8689 78.4317 14.7935 78.8031 14.7935V15.6118H78.5942C77.7062 15.6118 77.2622 16.0936 77.2622 17.057V19.6514H76.4699V14.8805H77.2622V15.6554ZM79.4216 17.2485C79.4216 16.761 79.5203 16.3344 79.7176 15.9688C79.915 15.5973 80.1849 15.31 80.5273 15.1069C80.8755 14.9038 81.2615 14.8022 81.6852 14.8022C82.103 14.8022 82.4658 14.8921 82.7734 15.0721C83.081 15.252 83.3103 15.4783 83.4612 15.7511V14.8805H84.2621V19.6514H83.4612V18.7634C83.3045 19.042 83.0694 19.2741 82.756 19.4598C82.4484 19.6398 82.0885 19.7297 81.6765 19.7297C81.2528 19.7297 80.8697 19.6252 80.5273 19.4163C80.1849 19.2074 79.915 18.9143 79.7176 18.537C79.5203 18.1598 79.4216 17.7303 79.4216 17.2485ZM83.4612 17.2572C83.4612 16.8974 83.3886 16.584 83.2435 16.317C83.0984 16.05 82.9011 15.8469 82.6515 15.7076C82.4078 15.5625 82.1379 15.4899 81.8419 15.4899C81.5459 15.4899 81.276 15.5596 81.0322 15.6989C80.7885 15.8382 80.594 16.0413 80.4489 16.3083C80.3038 16.5753 80.2313 16.8887 80.2313 17.2485C80.2313 17.6142 80.3038 17.9334 80.4489 18.2062C80.594 18.4732 80.7885 18.6792 81.0322 18.8243C81.276 18.9636 81.5459 19.0332 81.8419 19.0332C82.1379 19.0332 82.4078 18.9636 82.6515 18.8243C82.9011 18.6792 83.0984 18.4732 83.2435 18.2062C83.3886 17.9334 83.4612 17.6171 83.4612 17.2572ZM86.3932 15.7685C86.5557 15.4841 86.7936 15.252 87.107 15.0721C87.4205 14.8921 87.7774 14.8022 88.1779 14.8022C88.6074 14.8022 88.9933 14.9038 89.3357 15.1069C89.6782 15.31 89.9481 15.5973 90.1454 15.9688C90.3427 16.3344 90.4414 16.761 90.4414 17.2485C90.4414 17.7303 90.3427 18.1598 90.1454 18.537C89.9481 18.9143 89.6753 19.2074 89.327 19.4163C88.9846 19.6252 88.6016 19.7297 88.1779 19.7297C87.7658 19.7297 87.403 19.6398 87.0896 19.4598C86.782 19.2799 86.5499 19.0507 86.3932 18.7721V19.6514H85.6009V13.209H86.3932V15.7685ZM89.6318 17.2485C89.6318 16.8887 89.5592 16.5753 89.4141 16.3083C89.269 16.0413 89.0717 15.8382 88.8221 15.6989C88.5783 15.5596 88.3085 15.4899 88.0125 15.4899C87.7223 15.4899 87.4524 15.5625 87.2028 15.7076C86.959 15.8469 86.7617 16.0529 86.6108 16.3257C86.4657 16.5927 86.3932 16.9032 86.3932 17.2572C86.3932 17.6171 86.4657 17.9334 86.6108 18.2062C86.7617 18.4732 86.959 18.6792 87.2028 18.8243C87.4524 18.9636 87.7223 19.0332 88.0125 19.0332C88.3085 19.0332 88.5783 18.9636 88.8221 18.8243C89.0717 18.6792 89.269 18.4732 89.4141 18.2062C89.5592 17.9334 89.6318 17.6142 89.6318 17.2485ZM92.2764 13.209V19.6514H91.4842V13.209H92.2764ZM97.9796 17.0831C97.9796 17.234 97.9709 17.3936 97.9535 17.562H94.1403C94.1693 18.0321 94.3289 18.4006 94.6191 18.6676C94.9151 18.9288 95.2721 19.0594 95.69 19.0594C96.0324 19.0594 96.3168 18.981 96.5431 18.8243C96.7753 18.6618 96.9378 18.4471 97.0307 18.1801H97.8839C97.7562 18.6386 97.5008 19.0129 97.1177 19.3031C96.7347 19.5875 96.2588 19.7297 95.69 19.7297C95.2373 19.7297 94.831 19.6282 94.4711 19.425C94.1171 19.2219 93.8385 18.9346 93.6354 18.5631C93.4322 18.1859 93.3307 17.7506 93.3307 17.2572C93.3307 16.7639 93.4293 16.3315 93.6267 15.9601C93.824 15.5886 94.0997 15.3042 94.4537 15.1069C94.8136 14.9038 95.2257 14.8022 95.69 14.8022C96.1427 14.8022 96.5431 14.9008 96.8914 15.0982C97.2396 15.2955 97.5066 15.5683 97.6923 15.9165C97.8839 16.259 97.9796 16.6478 97.9796 17.0831ZM97.1613 16.9177C97.1613 16.6159 97.0945 16.3576 96.961 16.1429C96.8275 15.9223 96.6447 15.7569 96.4126 15.6467C96.1862 15.5306 95.9337 15.4725 95.6551 15.4725C95.2547 15.4725 94.9122 15.6002 94.6278 15.8556C94.3493 16.111 94.1896 16.465 94.149 16.9177H97.1613ZM103.035 19.7297C102.67 19.7297 102.342 19.6688 102.052 19.5469C101.761 19.4192 101.532 19.2451 101.364 19.0245C101.195 18.7982 101.103 18.5399 101.085 18.2497H101.904C101.927 18.4877 102.037 18.6821 102.234 18.833C102.437 18.9839 102.702 19.0594 103.027 19.0594C103.328 19.0594 103.566 18.9926 103.74 18.8591C103.915 18.7256 104.002 18.5573 104.002 18.3542C104.002 18.1452 103.909 17.9914 103.723 17.8928C103.537 17.7883 103.25 17.6867 102.861 17.5881C102.507 17.4952 102.217 17.4023 101.991 17.3095C101.77 17.2108 101.579 17.0686 101.416 16.8829C101.259 16.6914 101.181 16.4418 101.181 16.1342C101.181 15.8904 101.253 15.667 101.399 15.4638C101.544 15.2607 101.75 15.1011 102.017 14.985C102.284 14.8631 102.588 14.8022 102.931 14.8022C103.459 14.8022 103.886 14.9357 104.211 15.2027C104.536 15.4696 104.71 15.8353 104.733 16.2996H103.941C103.923 16.05 103.822 15.8498 103.636 15.6989C103.456 15.548 103.212 15.4725 102.905 15.4725C102.62 15.4725 102.394 15.5335 102.226 15.6554C102.057 15.7772 101.973 15.9369 101.973 16.1342C101.973 16.2909 102.023 16.4215 102.121 16.5259C102.226 16.6246 102.353 16.7059 102.504 16.7697C102.661 16.8278 102.876 16.8945 103.148 16.97C103.491 17.0628 103.769 17.1557 103.984 17.2485C104.199 17.3356 104.382 17.4691 104.533 17.649C104.689 17.8289 104.771 18.064 104.776 18.3542C104.776 18.6154 104.704 18.8504 104.559 19.0594C104.414 19.2683 104.208 19.4337 103.941 19.5556C103.68 19.6717 103.378 19.7297 103.035 19.7297ZM106.861 15.5335V18.3455C106.861 18.5776 106.911 18.7431 107.009 18.8417C107.108 18.9346 107.279 18.981 107.523 18.981H108.106V19.6514H107.392C106.951 19.6514 106.62 19.5498 106.4 19.3467C106.179 19.1435 106.069 18.8098 106.069 18.3455V15.5335H105.451V14.8805H106.069V13.6791H106.861V14.8805H108.106V15.5335H106.861ZM109.858 15.6554C109.998 15.3826 110.195 15.1707 110.45 15.0198C110.711 14.8689 111.028 14.7935 111.399 14.7935V15.6118H111.19C110.302 15.6118 109.858 16.0936 109.858 17.057V19.6514H109.066V14.8805H109.858V15.6554ZM116.545 14.8805V19.6514H115.753V18.9462C115.602 19.19 115.39 19.3815 115.117 19.5208C114.85 19.6543 114.554 19.721 114.229 19.721C113.858 19.721 113.524 19.6456 113.228 19.4947C112.932 19.338 112.697 19.1058 112.523 18.7982C112.354 18.4906 112.27 18.1162 112.27 17.6751V14.8805H113.054V17.5707C113.054 18.0408 113.173 18.4035 113.411 18.6589C113.649 18.9085 113.974 19.0332 114.386 19.0332C114.809 19.0332 115.143 18.9027 115.387 18.6415C115.631 18.3803 115.753 18.0001 115.753 17.501V14.8805H116.545ZM117.586 17.2572C117.586 16.7639 117.685 16.3344 117.882 15.9688C118.08 15.5973 118.353 15.31 118.701 15.1069C119.055 14.9038 119.458 14.8022 119.911 14.8022C120.497 14.8022 120.979 14.9444 121.356 15.2288C121.739 15.5132 121.992 15.9078 122.114 16.4128H121.26C121.179 16.1226 121.019 15.8933 120.782 15.725C120.549 15.5567 120.259 15.4725 119.911 15.4725C119.458 15.4725 119.093 15.6292 118.814 15.9427C118.535 16.2503 118.396 16.6885 118.396 17.2572C118.396 17.8318 118.535 18.2758 118.814 18.5892C119.093 18.9027 119.458 19.0594 119.911 19.0594C120.259 19.0594 120.549 18.9781 120.782 18.8156C121.014 18.6531 121.173 18.4209 121.26 18.1191H122.114C121.986 18.6067 121.73 18.9984 121.347 19.2944C120.964 19.5846 120.486 19.7297 119.911 19.7297C119.458 19.7297 119.055 19.6282 118.701 19.425C118.353 19.2219 118.08 18.9346 117.882 18.5631C117.685 18.1917 117.586 17.7564 117.586 17.2572ZM124.137 15.5335V18.3455C124.137 18.5776 124.186 18.7431 124.285 18.8417C124.384 18.9346 124.555 18.981 124.799 18.981H125.382V19.6514H124.668C124.227 19.6514 123.896 19.5498 123.676 19.3467C123.455 19.1435 123.345 18.8098 123.345 18.3455V15.5335H122.727V14.8805H123.345V13.6791H124.137V14.8805H125.382V15.5335H124.137ZM130.573 14.8805V19.6514H129.781V18.9462C129.63 19.19 129.418 19.3815 129.145 19.5208C128.878 19.6543 128.582 19.721 128.257 19.721C127.886 19.721 127.552 19.6456 127.256 19.4947C126.96 19.338 126.725 19.1058 126.551 18.7982C126.382 18.4906 126.298 18.1162 126.298 17.6751V14.8805H127.082V17.5707C127.082 18.0408 127.201 18.4035 127.439 18.6589C127.677 18.9085 128.002 19.0332 128.414 19.0332C128.837 19.0332 129.171 18.9027 129.415 18.6415C129.659 18.3803 129.781 18.0001 129.781 17.501V14.8805H130.573ZM132.703 15.6554C132.842 15.3826 133.039 15.1707 133.295 15.0198C133.556 14.8689 133.872 14.7935 134.244 14.7935V15.6118H134.035C133.147 15.6118 132.703 16.0936 132.703 17.057V19.6514H131.911V14.8805H132.703V15.6554ZM139.511 17.0831C139.511 17.234 139.502 17.3936 139.485 17.562H135.672C135.701 18.0321 135.861 18.4006 136.151 18.6676C136.447 18.9288 136.804 19.0594 137.222 19.0594C137.564 19.0594 137.848 18.981 138.075 18.8243C138.307 18.6618 138.469 18.4471 138.562 18.1801H139.415C139.288 18.6386 139.032 19.0129 138.649 19.3031C138.266 19.5875 137.79 19.7297 137.222 19.7297C136.769 19.7297 136.363 19.6282 136.003 19.425C135.649 19.2219 135.37 18.9346 135.167 18.5631C134.964 18.1859 134.862 17.7506 134.862 17.2572C134.862 16.7639 134.961 16.3315 135.158 15.9601C135.356 15.5886 135.631 15.3042 135.985 15.1069C136.345 14.9038 136.757 14.8022 137.222 14.8022C137.674 14.8022 138.075 14.9008 138.423 15.0982C138.771 15.2955 139.038 15.5683 139.224 15.9165C139.415 16.259 139.511 16.6478 139.511 17.0831ZM138.693 16.9177C138.693 16.6159 138.626 16.3576 138.493 16.1429C138.359 15.9223 138.176 15.7569 137.944 15.6467C137.718 15.5306 137.465 15.4725 137.187 15.4725C136.786 15.4725 136.444 15.6002 136.159 15.8556C135.881 16.111 135.721 16.465 135.681 16.9177H138.693ZM145.542 19.6514L143.67 17.5445V19.6514H142.878V13.209H143.67V16.9961L145.507 14.8805H146.613L144.367 17.2572L146.621 19.6514H145.542ZM151.711 17.0831C151.711 17.234 151.703 17.3936 151.685 17.562H147.872C147.901 18.0321 148.061 18.4006 148.351 18.6676C148.647 18.9288 149.004 19.0594 149.422 19.0594C149.764 19.0594 150.049 18.981 150.275 18.8243C150.507 18.6618 150.67 18.4471 150.762 18.1801H151.616C151.488 18.6386 151.233 19.0129 150.849 19.3031C150.466 19.5875 149.99 19.7297 149.422 19.7297C148.969 19.7297 148.563 19.6282 148.203 19.425C147.849 19.2219 147.57 18.9346 147.367 18.5631C147.164 18.1859 147.062 17.7506 147.062 17.2572C147.062 16.7639 147.161 16.3315 147.358 15.9601C147.556 15.5886 147.831 15.3042 148.185 15.1069C148.545 14.9038 148.957 14.8022 149.422 14.8022C149.874 14.8022 150.275 14.9008 150.623 15.0982C150.971 15.2955 151.238 15.5683 151.424 15.9165C151.616 16.259 151.711 16.6478 151.711 17.0831ZM150.893 16.9177C150.893 16.6159 150.826 16.3576 150.693 16.1429C150.559 15.9223 150.376 15.7569 150.144 15.6467C149.918 15.5306 149.665 15.4725 149.387 15.4725C148.986 15.4725 148.644 15.6002 148.36 15.8556C148.081 16.111 147.921 16.465 147.881 16.9177H150.893ZM157.11 17.0831C157.11 17.234 157.101 17.3936 157.084 17.562H153.271C153.3 18.0321 153.459 18.4006 153.75 18.6676C154.046 18.9288 154.402 19.0594 154.82 19.0594C155.163 19.0594 155.447 18.981 155.674 18.8243C155.906 18.6618 156.068 18.4471 156.161 18.1801H157.014C156.887 18.6386 156.631 19.0129 156.248 19.3031C155.865 19.5875 155.389 19.7297 154.82 19.7297C154.368 19.7297 153.961 19.6282 153.602 19.425C153.247 19.2219 152.969 18.9346 152.766 18.5631C152.563 18.1859 152.461 17.7506 152.461 17.2572C152.461 16.7639 152.56 16.3315 152.757 15.9601C152.954 15.5886 153.23 15.3042 153.584 15.1069C153.944 14.9038 154.356 14.8022 154.82 14.8022C155.273 14.8022 155.674 14.9008 156.022 15.0982C156.37 15.2955 156.637 15.5683 156.823 15.9165C157.014 16.259 157.11 16.6478 157.11 17.0831ZM156.292 16.9177C156.292 16.6159 156.225 16.3576 156.091 16.1429C155.958 15.9223 155.775 15.7569 155.543 15.6467C155.317 15.5306 155.064 15.4725 154.786 15.4725C154.385 15.4725 154.043 15.6002 153.758 15.8556C153.48 16.111 153.32 16.465 153.279 16.9177H156.292ZM158.948 15.7598C159.105 15.487 159.337 15.2607 159.644 15.0808C159.958 14.895 160.321 14.8022 160.733 14.8022C161.156 14.8022 161.539 14.9038 161.882 15.1069C162.23 15.31 162.503 15.5973 162.7 15.9688C162.898 16.3344 162.996 16.761 162.996 17.2485C162.996 17.7303 162.898 18.1598 162.7 18.537C162.503 18.9143 162.23 19.2074 161.882 19.4163C161.539 19.6252 161.156 19.7297 160.733 19.7297C160.326 19.7297 159.967 19.6398 159.653 19.4598C159.346 19.2741 159.11 19.0449 158.948 18.7721V21.9149H158.156V14.8805H158.948V15.7598ZM162.187 17.2485C162.187 16.8887 162.114 16.5753 161.969 16.3083C161.824 16.0413 161.626 15.8382 161.377 15.6989C161.133 15.5596 160.863 15.4899 160.567 15.4899C160.277 15.4899 160.007 15.5625 159.758 15.7076C159.514 15.8469 159.317 16.0529 159.166 16.3257C159.021 16.5927 158.948 16.9032 158.948 17.2572C158.948 17.6171 159.021 17.9334 159.166 18.2062C159.317 18.4732 159.514 18.6792 159.758 18.8243C160.007 18.9636 160.277 19.0332 160.567 19.0332C160.863 19.0332 161.133 18.9636 161.377 18.8243C161.626 18.6792 161.824 18.4732 161.969 18.2062C162.114 17.9334 162.187 17.6142 162.187 17.2485ZM165.728 19.7297C165.362 19.7297 165.034 19.6688 164.744 19.5469C164.454 19.4192 164.225 19.2451 164.056 19.0245C163.888 18.7982 163.795 18.5399 163.778 18.2497H164.596C164.619 18.4877 164.73 18.6821 164.927 18.833C165.13 18.9839 165.394 19.0594 165.719 19.0594C166.021 19.0594 166.259 18.9926 166.433 18.8591C166.607 18.7256 166.694 18.5573 166.694 18.3542C166.694 18.1452 166.601 17.9914 166.416 17.8928C166.23 17.7883 165.943 17.6867 165.554 17.5881C165.2 17.4952 164.91 17.4023 164.683 17.3095C164.463 17.2108 164.271 17.0686 164.109 16.8829C163.952 16.6914 163.874 16.4418 163.874 16.1342C163.874 15.8904 163.946 15.667 164.091 15.4638C164.236 15.2607 164.442 15.1011 164.709 14.985C164.976 14.8631 165.281 14.8022 165.624 14.8022C166.152 14.8022 166.578 14.9357 166.903 15.2027C167.228 15.4696 167.402 15.8353 167.426 16.2996H166.633C166.616 16.05 166.514 15.8498 166.329 15.6989C166.149 15.548 165.905 15.4725 165.597 15.4725C165.313 15.4725 165.087 15.5335 164.918 15.6554C164.75 15.7772 164.666 15.9369 164.666 16.1342C164.666 16.2909 164.715 16.4215 164.814 16.5259C164.918 16.6246 165.046 16.7059 165.197 16.7697C165.354 16.8278 165.568 16.8945 165.841 16.97C166.184 17.0628 166.462 17.1557 166.677 17.2485C166.892 17.3356 167.074 17.4691 167.225 17.649C167.382 17.8289 167.463 18.064 167.469 18.3542C167.469 18.6154 167.397 18.8504 167.252 19.0594C167.106 19.2683 166.9 19.4337 166.633 19.5556C166.372 19.6717 166.07 19.7297 165.728 19.7297ZM170.613 17.2572C170.613 16.7639 170.711 16.3344 170.909 15.9688C171.106 15.5973 171.379 15.31 171.727 15.1069C172.081 14.9038 172.484 14.8022 172.937 14.8022C173.523 14.8022 174.005 14.9444 174.382 15.2288C174.765 15.5132 175.018 15.9078 175.14 16.4128H174.286C174.205 16.1226 174.046 15.8933 173.808 15.725C173.575 15.5567 173.285 15.4725 172.937 15.4725C172.484 15.4725 172.119 15.6292 171.84 15.9427C171.561 16.2503 171.422 16.6885 171.422 17.2572C171.422 17.8318 171.561 18.2758 171.84 18.5892C172.119 18.9027 172.484 19.0594 172.937 19.0594C173.285 19.0594 173.575 18.9781 173.808 18.8156C174.04 18.6531 174.199 18.4209 174.286 18.1191H175.14C175.012 18.6067 174.757 18.9984 174.373 19.2944C173.99 19.5846 173.512 19.7297 172.937 19.7297C172.484 19.7297 172.081 19.6282 171.727 19.425C171.379 19.2219 171.106 18.9346 170.909 18.5631C170.711 18.1917 170.613 17.7564 170.613 17.2572ZM178.277 19.7297C177.83 19.7297 177.424 19.6282 177.059 19.425C176.699 19.2219 176.414 18.9346 176.205 18.5631C176.002 18.1859 175.901 17.7506 175.901 17.2572C175.901 16.7697 176.005 16.3402 176.214 15.9688C176.429 15.5915 176.719 15.3042 177.085 15.1069C177.45 14.9038 177.86 14.8022 178.312 14.8022C178.765 14.8022 179.174 14.9038 179.54 15.1069C179.905 15.3042 180.193 15.5886 180.402 15.9601C180.616 16.3315 180.724 16.7639 180.724 17.2572C180.724 17.7506 180.613 18.1859 180.393 18.5631C180.178 18.9346 179.885 19.2219 179.514 19.425C179.142 19.6282 178.73 19.7297 178.277 19.7297ZM178.277 19.0332C178.562 19.0332 178.829 18.9665 179.078 18.833C179.328 18.6995 179.528 18.4993 179.679 18.2323C179.836 17.9653 179.914 17.6403 179.914 17.2572C179.914 16.8742 179.839 16.5492 179.688 16.2822C179.537 16.0152 179.34 15.8179 179.096 15.6902C178.852 15.5567 178.588 15.4899 178.304 15.4899C178.013 15.4899 177.746 15.5567 177.503 15.6902C177.265 15.8179 177.073 16.0152 176.928 16.2822C176.783 16.5492 176.71 16.8742 176.71 17.2572C176.71 17.6461 176.78 17.974 176.919 18.241C177.064 18.508 177.256 18.7082 177.494 18.8417C177.732 18.9694 177.993 19.0332 178.277 19.0332ZM184.09 14.7935C184.67 14.7935 185.14 14.9705 185.5 15.3245C185.86 15.6728 186.04 16.1777 186.04 16.8394V19.6514H185.256V16.9525C185.256 16.4766 185.137 16.1139 184.9 15.8643C184.662 15.6089 184.337 15.4812 183.924 15.4812C183.507 15.4812 183.173 15.6118 182.923 15.873C182.679 16.1342 182.558 16.5143 182.558 17.0135V19.6514H181.765V14.8805H182.558V15.5596C182.714 15.3158 182.926 15.1272 183.193 14.9937C183.466 14.8602 183.765 14.7935 184.09 14.7935ZM188.3 15.5335V18.3455C188.3 18.5776 188.35 18.7431 188.448 18.8417C188.547 18.9346 188.718 18.981 188.962 18.981H189.545V19.6514H188.832C188.39 19.6514 188.06 19.5498 187.839 19.3467C187.618 19.1435 187.508 18.8098 187.508 18.3455V15.5335H186.89V14.8805H187.508V13.6791H188.3V14.8805H189.545V15.5335H188.3ZM194.858 17.0831C194.858 17.234 194.85 17.3936 194.832 17.562H191.019C191.048 18.0321 191.208 18.4006 191.498 18.6676C191.794 18.9288 192.151 19.0594 192.569 19.0594C192.911 19.0594 193.195 18.981 193.422 18.8243C193.654 18.6618 193.816 18.4471 193.909 18.1801H194.762C194.635 18.6386 194.379 19.0129 193.996 19.3031C193.613 19.5875 193.137 19.7297 192.569 19.7297C192.116 19.7297 191.71 19.6282 191.35 19.425C190.996 19.2219 190.717 18.9346 190.514 18.5631C190.311 18.1859 190.209 17.7506 190.209 17.2572C190.209 16.7639 190.308 16.3315 190.505 15.9601C190.703 15.5886 190.978 15.3042 191.332 15.1069C191.692 14.9038 192.104 14.8022 192.569 14.8022C193.021 14.8022 193.422 14.9008 193.77 15.0982C194.118 15.2955 194.385 15.5683 194.571 15.9165C194.762 16.259 194.858 16.6478 194.858 17.0831ZM194.04 16.9177C194.04 16.6159 193.973 16.3576 193.84 16.1429C193.706 15.9223 193.523 15.7569 193.291 15.6467C193.065 15.5306 192.812 15.4725 192.534 15.4725C192.133 15.4725 191.791 15.6002 191.506 15.8556C191.228 16.111 191.068 16.465 191.028 16.9177H194.04ZM198.228 14.7935C198.809 14.7935 199.279 14.9705 199.639 15.3245C199.999 15.6728 200.179 16.1777 200.179 16.8394V19.6514H199.395V16.9525C199.395 16.4766 199.276 16.1139 199.038 15.8643C198.8 15.6089 198.475 15.4812 198.063 15.4812C197.645 15.4812 197.311 15.6118 197.062 15.873C196.818 16.1342 196.696 16.5143 196.696 17.0135V19.6514H195.904V14.8805H196.696V15.5596C196.853 15.3158 197.065 15.1272 197.332 14.9937C197.605 14.8602 197.903 14.7935 198.228 14.7935ZM202.439 15.5335V18.3455C202.439 18.5776 202.488 18.7431 202.587 18.8417C202.686 18.9346 202.857 18.981 203.101 18.981H203.684V19.6514H202.97C202.529 19.6514 202.198 19.5498 201.978 19.3467C201.757 19.1435 201.647 18.8098 201.647 18.3455V15.5335H201.029V14.8805H201.647V13.6791H202.439V14.8805H203.684V15.5335H202.439ZM206.333 19.7297C205.967 19.7297 205.639 19.6688 205.349 19.5469C205.059 19.4192 204.83 19.2451 204.661 19.0245C204.493 18.7982 204.4 18.5399 204.383 18.2497H205.201C205.224 18.4877 205.335 18.6821 205.532 18.833C205.735 18.9839 205.999 19.0594 206.324 19.0594C206.626 19.0594 206.864 18.9926 207.038 18.8591C207.212 18.7256 207.299 18.5573 207.299 18.3542C207.299 18.1452 207.206 17.9914 207.021 17.8928C206.835 17.7883 206.548 17.6867 206.159 17.5881C205.805 17.4952 205.514 17.4023 205.288 17.3095C205.068 17.2108 204.876 17.0686 204.714 16.8829C204.557 16.6914 204.478 16.4418 204.478 16.1342C204.478 15.8904 204.551 15.667 204.696 15.4638C204.841 15.2607 205.047 15.1011 205.314 14.985C205.581 14.8631 205.886 14.8022 206.228 14.8022C206.757 14.8022 207.183 14.9357 207.508 15.2027C207.833 15.4696 208.007 15.8353 208.03 16.2996H207.238C207.221 16.05 207.119 15.8498 206.934 15.6989C206.754 15.548 206.51 15.4725 206.202 15.4725C205.918 15.4725 205.691 15.5335 205.523 15.6554C205.355 15.7772 205.271 15.9369 205.271 16.1342C205.271 16.2909 205.32 16.4215 205.419 16.5259C205.523 16.6246 205.651 16.7059 205.802 16.7697C205.958 16.8278 206.173 16.8945 206.446 16.97C206.788 17.0628 207.067 17.1557 207.282 17.2485C207.497 17.3356 207.679 17.4691 207.83 17.649C207.987 17.8289 208.068 18.064 208.074 18.3542C208.074 18.6154 208.001 18.8504 207.856 19.0594C207.711 19.2683 207.505 19.4337 207.238 19.5556C206.977 19.6717 206.675 19.7297 206.333 19.7297ZM213.455 15.5335H212.454V19.6514H211.661V15.5335H211.043V14.8805H211.661V14.541C211.661 14.007 211.798 13.6182 212.071 13.3744C212.349 13.1248 212.793 13.0001 213.403 13.0001V13.6617C213.054 13.6617 212.808 13.7314 212.663 13.8707C212.523 14.0041 212.454 14.2276 212.454 14.541V14.8805H213.455V15.5335ZM215.171 15.6554C215.31 15.3826 215.507 15.1707 215.763 15.0198C216.024 14.8689 216.34 14.7935 216.712 14.7935V15.6118H216.503C215.615 15.6118 215.171 16.0936 215.171 17.057V19.6514H214.379V14.8805H215.171V15.6554ZM221.979 17.0831C221.979 17.234 221.97 17.3936 221.953 17.562H218.14C218.169 18.0321 218.328 18.4006 218.619 18.6676C218.915 18.9288 219.272 19.0594 219.69 19.0594C220.032 19.0594 220.316 18.981 220.543 18.8243C220.775 18.6618 220.937 18.4471 221.03 18.1801H221.883C221.756 18.6386 221.5 19.0129 221.117 19.3031C220.734 19.5875 220.258 19.7297 219.69 19.7297C219.237 19.7297 218.831 19.6282 218.471 19.425C218.117 19.2219 217.838 18.9346 217.635 18.5631C217.432 18.1859 217.33 17.7506 217.33 17.2572C217.33 16.7639 217.429 16.3315 217.626 15.9601C217.824 15.5886 218.099 15.3042 218.453 15.1069C218.813 14.9038 219.225 14.8022 219.69 14.8022C220.142 14.8022 220.543 14.9008 220.891 15.0982C221.239 15.2955 221.506 15.5683 221.692 15.9165C221.883 16.259 221.979 16.6478 221.979 17.0831ZM221.161 16.9177C221.161 16.6159 221.094 16.3576 220.961 16.1429C220.827 15.9223 220.644 15.7569 220.412 15.6467C220.186 15.5306 219.933 15.4725 219.655 15.4725C219.254 15.4725 218.912 15.6002 218.627 15.8556C218.349 16.111 218.189 16.465 218.149 16.9177H221.161ZM224.714 19.7297C224.348 19.7297 224.02 19.6688 223.73 19.5469C223.44 19.4192 223.211 19.2451 223.042 19.0245C222.874 18.7982 222.781 18.5399 222.764 18.2497H223.582C223.605 18.4877 223.716 18.6821 223.913 18.833C224.116 18.9839 224.38 19.0594 224.705 19.0594C225.007 19.0594 225.245 18.9926 225.419 18.8591C225.593 18.7256 225.68 18.5573 225.68 18.3542C225.68 18.1452 225.587 17.9914 225.402 17.8928C225.216 17.7883 224.929 17.6867 224.54 17.5881C224.186 17.4952 223.895 17.4023 223.669 17.3095C223.449 17.2108 223.257 17.0686 223.095 16.8829C222.938 16.6914 222.859 16.4418 222.859 16.1342C222.859 15.8904 222.932 15.667 223.077 15.4638C223.222 15.2607 223.428 15.1011 223.695 14.985C223.962 14.8631 224.267 14.8022 224.609 14.8022C225.138 14.8022 225.564 14.9357 225.889 15.2027C226.214 15.4696 226.388 15.8353 226.411 16.2996H225.619C225.602 16.05 225.5 15.8498 225.315 15.6989C225.135 15.548 224.891 15.4725 224.583 15.4725C224.299 15.4725 224.072 15.5335 223.904 15.6554C223.736 15.7772 223.652 15.9369 223.652 16.1342C223.652 16.2909 223.701 16.4215 223.8 16.5259C223.904 16.6246 224.032 16.7059 224.183 16.7697C224.339 16.8278 224.554 16.8945 224.827 16.97C225.169 17.0628 225.448 17.1557 225.663 17.2485C225.878 17.3356 226.06 17.4691 226.211 17.649C226.368 17.8289 226.449 18.064 226.455 18.3542C226.455 18.6154 226.382 18.8504 226.237 19.0594C226.092 19.2683 225.886 19.4337 225.619 19.5556C225.358 19.6717 225.056 19.7297 224.714 19.7297ZM229.941 14.7935C230.301 14.7935 230.626 14.8718 230.916 15.0285C231.207 15.1794 231.433 15.4087 231.595 15.7163C231.764 16.0239 231.848 16.3983 231.848 16.8394V19.6514H231.064V16.9525C231.064 16.4766 230.945 16.1139 230.707 15.8643C230.47 15.6089 230.145 15.4812 229.732 15.4812C229.315 15.4812 228.981 15.6118 228.731 15.873C228.487 16.1342 228.366 16.5143 228.366 17.0135V19.6514H227.573V13.209H228.366V15.5596C228.522 15.3158 228.737 15.1272 229.01 14.9937C229.288 14.8602 229.599 14.7935 229.941 14.7935ZM235.167 17.2485C235.167 16.761 235.266 16.3344 235.463 15.9688C235.66 15.5973 235.93 15.31 236.273 15.1069C236.621 14.9038 237.007 14.8022 237.431 14.8022C237.849 14.8022 238.211 14.8921 238.519 15.0721C238.826 15.252 239.056 15.4783 239.207 15.7511V14.8805H240.008V19.6514H239.207V18.7634C239.05 19.042 238.815 19.2741 238.501 19.4598C238.194 19.6398 237.834 19.7297 237.422 19.7297C236.998 19.7297 236.615 19.6252 236.273 19.4163C235.93 19.2074 235.66 18.9143 235.463 18.537C235.266 18.1598 235.167 17.7303 235.167 17.2485ZM239.207 17.2572C239.207 16.8974 239.134 16.584 238.989 16.317C238.844 16.05 238.647 15.8469 238.397 15.7076C238.153 15.5625 237.883 15.4899 237.587 15.4899C237.291 15.4899 237.021 15.5596 236.778 15.6989C236.534 15.8382 236.339 16.0413 236.194 16.3083C236.049 16.5753 235.977 16.8887 235.977 17.2485C235.977 17.6142 236.049 17.9334 236.194 18.2062C236.339 18.4732 236.534 18.6792 236.778 18.8243C237.021 18.9636 237.291 19.0332 237.587 19.0332C237.883 19.0332 238.153 18.9636 238.397 18.8243C238.647 18.6792 238.844 18.4732 238.989 18.2062C239.134 17.9334 239.207 17.6171 239.207 17.2572ZM243.671 14.7935C244.251 14.7935 244.721 14.9705 245.081 15.3245C245.441 15.6728 245.621 16.1777 245.621 16.8394V19.6514H244.837V16.9525C244.837 16.4766 244.718 16.1139 244.48 15.8643C244.243 15.6089 243.918 15.4812 243.505 15.4812C243.088 15.4812 242.754 15.6118 242.504 15.873C242.26 16.1342 242.139 16.5143 242.139 17.0135V19.6514H241.346V14.8805H242.139V15.5596C242.295 15.3158 242.507 15.1272 242.774 14.9937C243.047 14.8602 243.346 14.7935 243.671 14.7935ZM246.619 17.2485C246.619 16.761 246.718 16.3344 246.915 15.9688C247.112 15.5973 247.382 15.31 247.725 15.1069C248.073 14.9038 248.462 14.8022 248.891 14.8022C249.263 14.8022 249.608 14.8892 249.927 15.0634C250.247 15.2317 250.49 15.4551 250.659 15.7337V13.209H251.46V19.6514H250.659V18.7547C250.502 19.0391 250.27 19.2741 249.962 19.4598C249.655 19.6398 249.295 19.7297 248.883 19.7297C248.459 19.7297 248.073 19.6252 247.725 19.4163C247.382 19.2074 247.112 18.9143 246.915 18.537C246.718 18.1598 246.619 17.7303 246.619 17.2485ZM250.659 17.2572C250.659 16.8974 250.586 16.584 250.441 16.317C250.296 16.05 250.099 15.8469 249.849 15.7076C249.605 15.5625 249.335 15.4899 249.039 15.4899C248.743 15.4899 248.473 15.5596 248.23 15.6989C247.986 15.8382 247.791 16.0413 247.646 16.3083C247.501 16.5753 247.429 16.8887 247.429 17.2485C247.429 17.6142 247.501 17.9334 247.646 18.2062C247.791 18.4732 247.986 18.6792 248.23 18.8243C248.473 18.9636 248.743 19.0332 249.039 19.0332C249.335 19.0332 249.605 18.9636 249.849 18.8243C250.099 18.6792 250.296 18.4732 250.441 18.2062C250.586 17.9334 250.659 17.6171 250.659 17.2572ZM71.9698 28.7598C72.1265 28.487 72.3586 28.2607 72.6662 28.0808C72.9796 27.895 73.3424 27.8022 73.7545 27.8022C74.1782 27.8022 74.5612 27.9038 74.9036 28.1069C75.2519 28.31 75.5247 28.5973 75.722 28.9688C75.9193 29.3344 76.018 29.761 76.018 30.2485C76.018 30.7303 75.9193 31.1598 75.722 31.537C75.5247 31.9143 75.2519 32.2074 74.9036 32.4163C74.5612 32.6252 74.1782 32.7297 73.7545 32.7297C73.3482 32.7297 72.9883 32.6398 72.6749 32.4598C72.3673 32.2741 72.1323 32.0449 71.9698 31.7721V34.9149H71.1775V27.8805H71.9698V28.7598ZM75.2083 30.2485C75.2083 29.8887 75.1358 29.5753 74.9907 29.3083C74.8456 29.0413 74.6483 28.8382 74.3987 28.6989C74.1549 28.5596 73.8851 28.4899 73.5891 28.4899C73.2989 28.4899 73.029 28.5625 72.7794 28.7076C72.5356 28.8469 72.3383 29.0529 72.1874 29.3257C72.0423 29.5927 71.9698 29.9032 71.9698 30.2572C71.9698 30.6171 72.0423 30.9334 72.1874 31.2062C72.3383 31.4732 72.5356 31.6792 72.7794 31.8243C73.029 31.9636 73.2989 32.0332 73.5891 32.0332C73.8851 32.0332 74.1549 31.9636 74.3987 31.8243C74.6483 31.6792 74.8456 31.4732 74.9907 31.2062C75.1358 30.9334 75.2083 30.6142 75.2083 30.2485ZM77.853 28.6554C77.9923 28.3826 78.1897 28.1707 78.445 28.0198C78.7062 27.8689 79.0225 27.7935 79.394 27.7935V28.6118H79.185C78.297 28.6118 77.853 29.0936 77.853 30.057V32.6514H77.0608V27.8805H77.853V28.6554ZM82.3892 32.7297C81.9423 32.7297 81.536 32.6282 81.1704 32.425C80.8105 32.2219 80.5262 31.9346 80.3172 31.5631C80.1141 31.1859 80.0125 30.7506 80.0125 30.2572C80.0125 29.7697 80.117 29.3402 80.3259 28.9688C80.5407 28.5915 80.8309 28.3042 81.1965 28.1069C81.5622 27.9038 81.9713 27.8022 82.424 27.8022C82.8767 27.8022 83.2859 27.9038 83.6516 28.1069C84.0172 28.3042 84.3045 28.5886 84.5135 28.9601C84.7282 29.3315 84.8356 29.7639 84.8356 30.2572C84.8356 30.7506 84.7253 31.1859 84.5048 31.5631C84.29 31.9346 83.9969 32.2219 83.6255 32.425C83.254 32.6282 82.8419 32.7297 82.3892 32.7297ZM82.3892 32.0332C82.6736 32.0332 82.9406 31.9665 83.1902 31.833C83.4397 31.6995 83.64 31.4993 83.7909 31.2323C83.9476 30.9653 84.0259 30.6403 84.0259 30.2572C84.0259 29.8742 83.9505 29.5492 83.7996 29.2822C83.6487 29.0152 83.4513 28.8179 83.2076 28.6902C82.9638 28.5567 82.6997 28.4899 82.4153 28.4899C82.1251 28.4899 81.8582 28.5567 81.6144 28.6902C81.3764 28.8179 81.1849 29.0152 81.0398 29.2822C80.8947 29.5492 80.8222 29.8742 80.8222 30.2572C80.8222 30.6461 80.8918 30.974 81.0311 31.241C81.1762 31.508 81.3677 31.7082 81.6057 31.8417C81.8436 31.9694 82.1048 32.0332 82.3892 32.0332ZM86.8436 28.5335V31.3455C86.8436 31.5776 86.8929 31.7431 86.9916 31.8417C87.0902 31.9346 87.2615 31.981 87.5052 31.981H88.0885V32.6514H87.3746C86.9335 32.6514 86.6027 32.5498 86.3822 32.3467C86.1616 32.1435 86.0513 31.8098 86.0513 31.3455V28.5335H85.4332V27.8805H86.0513V26.6791H86.8436V27.8805H88.0885V28.5335H86.8436ZM93.4014 30.0831C93.4014 30.234 93.3927 30.3936 93.3752 30.562H89.5621C89.5911 31.0321 89.7507 31.4006 90.0409 31.6676C90.3369 31.9288 90.6938 32.0594 91.1117 32.0594C91.4541 32.0594 91.7385 31.981 91.9649 31.8243C92.197 31.6618 92.3596 31.4471 92.4524 31.1801H93.3056C93.1779 31.6386 92.9225 32.0129 92.5395 32.3031C92.1564 32.5875 91.6805 32.7297 91.1117 32.7297C90.659 32.7297 90.2527 32.6282 89.8929 32.425C89.5388 32.2219 89.2603 31.9346 89.0571 31.5631C88.854 31.1859 88.7524 30.7506 88.7524 30.2572C88.7524 29.7639 88.8511 29.3315 89.0484 28.9601C89.2457 28.5886 89.5214 28.3042 89.8755 28.1069C90.2353 27.9038 90.6474 27.8022 91.1117 27.8022C91.5644 27.8022 91.9649 27.9008 92.3131 28.0982C92.6614 28.2955 92.9283 28.5683 93.1141 28.9165C93.3056 29.259 93.4014 29.6478 93.4014 30.0831ZM92.583 29.9177C92.583 29.6159 92.5163 29.3576 92.3828 29.1429C92.2493 28.9223 92.0665 28.7569 91.8343 28.6467C91.6079 28.5306 91.3555 28.4725 91.0769 28.4725C90.6764 28.4725 90.334 28.6002 90.0496 28.8556C89.771 29.111 89.6114 29.465 89.5708 29.9177H92.583ZM94.1511 30.2572C94.1511 29.7639 94.2498 29.3344 94.4471 28.9688C94.6444 28.5973 94.9172 28.31 95.2654 28.1069C95.6195 27.9038 96.0229 27.8022 96.4756 27.8022C97.0618 27.8022 97.5435 27.9444 97.9207 28.2288C98.3038 28.5132 98.5563 28.9078 98.6782 29.4128H97.825C97.7437 29.1226 97.5841 28.8933 97.3462 28.725C97.114 28.5567 96.8238 28.4725 96.4756 28.4725C96.0229 28.4725 95.6572 28.6292 95.3786 28.9427C95.1 29.2503 94.9607 29.6885 94.9607 30.2572C94.9607 30.8318 95.1 31.2758 95.3786 31.5892C95.6572 31.9027 96.0229 32.0594 96.4756 32.0594C96.8238 32.0594 97.114 31.9781 97.3462 31.8156C97.5783 31.6531 97.7379 31.4209 97.825 31.1191H98.6782C98.5505 31.6067 98.2951 31.9984 97.912 32.2944C97.529 32.5846 97.0502 32.7297 96.4756 32.7297C96.0229 32.7297 95.6195 32.6282 95.2654 32.425C94.9172 32.2219 94.6444 31.9346 94.4471 31.5631C94.2498 31.1917 94.1511 30.7564 94.1511 30.2572ZM100.702 28.5335V31.3455C100.702 31.5776 100.751 31.7431 100.85 31.8417C100.948 31.9346 101.119 31.981 101.363 31.981H101.947V32.6514H101.233C100.792 32.6514 100.461 32.5498 100.24 32.3467C100.02 32.1435 99.9094 31.8098 99.9094 31.3455V28.5335H99.2912V27.8805H99.9094V26.6791H100.702V27.8805H101.947V28.5335H100.702ZM107.259 30.0831C107.259 30.234 107.251 30.3936 107.233 30.562H103.42C103.449 31.0321 103.609 31.4006 103.899 31.6676C104.195 31.9288 104.552 32.0594 104.97 32.0594C105.312 32.0594 105.597 31.981 105.823 31.8243C106.055 31.6618 106.218 31.4471 106.31 31.1801H107.164C107.036 31.6386 106.781 32.0129 106.398 32.3031C106.014 32.5875 105.539 32.7297 104.97 32.7297C104.517 32.7297 104.111 32.6282 103.751 32.425C103.397 32.2219 103.118 31.9346 102.915 31.5631C102.712 31.1859 102.61 30.7506 102.61 30.2572C102.61 29.7639 102.709 29.3315 102.906 28.9601C103.104 28.5886 103.379 28.3042 103.733 28.1069C104.093 27.9038 104.505 27.8022 104.97 27.8022C105.422 27.8022 105.823 27.9008 106.171 28.0982C106.519 28.2955 106.786 28.5683 106.972 28.9165C107.164 29.259 107.259 29.6478 107.259 30.0831ZM106.441 29.9177C106.441 29.6159 106.374 29.3576 106.241 29.1429C106.107 28.9223 105.924 28.7569 105.692 28.6467C105.466 28.5306 105.214 28.4725 104.935 28.4725C104.534 28.4725 104.192 28.6002 103.908 28.8556C103.629 29.111 103.469 29.465 103.429 29.9177H106.441ZM108.009 30.2485C108.009 29.761 108.108 29.3344 108.305 28.9688C108.502 28.5973 108.772 28.31 109.115 28.1069C109.463 27.9038 109.852 27.8022 110.281 27.8022C110.653 27.8022 110.998 27.8892 111.317 28.0634C111.637 28.2317 111.88 28.4551 112.049 28.7337V26.209H112.85V32.6514H112.049V31.7547C111.892 32.0391 111.66 32.2741 111.352 32.4598C111.045 32.6398 110.685 32.7297 110.273 32.7297C109.849 32.7297 109.463 32.6252 109.115 32.4163C108.772 32.2074 108.502 31.9143 108.305 31.537C108.108 31.1598 108.009 30.7303 108.009 30.2485ZM112.049 30.2572C112.049 29.8974 111.976 29.584 111.831 29.317C111.686 29.05 111.489 28.8469 111.239 28.7076C110.995 28.5625 110.725 28.4899 110.429 28.4899C110.133 28.4899 109.863 28.5596 109.62 28.6989C109.376 28.8382 109.182 29.0413 109.036 29.3083C108.891 29.5753 108.819 29.8887 108.819 30.2485C108.819 30.6142 108.891 30.9334 109.036 31.2062C109.182 31.4732 109.376 31.6792 109.62 31.8243C109.863 31.9636 110.133 32.0332 110.429 32.0332C110.725 32.0332 110.995 31.9636 111.239 31.8243C111.489 31.6792 111.686 31.4732 111.831 31.2062C111.976 30.9334 112.049 30.6171 112.049 30.2572ZM116.213 30.2485C116.213 29.761 116.312 29.3344 116.509 28.9688C116.707 28.5973 116.977 28.31 117.319 28.1069C117.667 27.9038 118.056 27.8022 118.486 27.8022C118.857 27.8022 119.202 27.8892 119.522 28.0634C119.841 28.2317 120.085 28.4551 120.253 28.7337V26.209H121.054V32.6514H120.253V31.7547C120.096 32.0391 119.864 32.2741 119.556 32.4598C119.249 32.6398 118.889 32.7297 118.477 32.7297C118.053 32.7297 117.667 32.6252 117.319 32.4163C116.977 32.2074 116.707 31.9143 116.509 31.537C116.312 31.1598 116.213 30.7303 116.213 30.2485ZM120.253 30.2572C120.253 29.8974 120.18 29.584 120.035 29.317C119.89 29.05 119.693 28.8469 119.443 28.7076C119.2 28.5625 118.93 28.4899 118.634 28.4899C118.338 28.4899 118.068 28.5596 117.824 28.6989C117.58 28.8382 117.386 29.0413 117.241 29.3083C117.096 29.5753 117.023 29.8887 117.023 30.2485C117.023 30.6142 117.096 30.9334 117.241 31.2062C117.386 31.4732 117.58 31.6792 117.824 31.8243C118.068 31.9636 118.338 32.0332 118.634 32.0332C118.93 32.0332 119.2 31.9636 119.443 31.8243C119.693 31.6792 119.89 31.4732 120.035 31.2062C120.18 30.9334 120.253 30.6171 120.253 30.2572ZM126.624 27.8805V32.6514H125.832V31.9462C125.681 32.19 125.469 32.3815 125.196 32.5208C124.929 32.6543 124.633 32.721 124.308 32.721C123.937 32.721 123.603 32.6456 123.307 32.4947C123.011 32.338 122.776 32.1058 122.602 31.7982C122.433 31.4906 122.349 31.1162 122.349 30.6751V27.8805H123.133V30.5707C123.133 31.0408 123.252 31.4035 123.49 31.6589C123.728 31.9085 124.053 32.0332 124.465 32.0332C124.888 32.0332 125.222 31.9027 125.466 31.6415C125.71 31.3803 125.832 31.0001 125.832 30.501V27.8805H126.624ZM128.754 28.6554C128.893 28.3826 129.09 28.1707 129.346 28.0198C129.607 27.8689 129.923 27.7935 130.295 27.7935V28.6118H130.086C129.198 28.6118 128.754 29.0936 128.754 30.057V32.6514H127.961V27.8805H128.754V28.6554ZM131.618 27.1057C131.467 27.1057 131.34 27.0535 131.235 26.949C131.131 26.8445 131.079 26.7168 131.079 26.5659C131.079 26.415 131.131 26.2874 131.235 26.1829C131.34 26.0784 131.467 26.0262 131.618 26.0262C131.763 26.0262 131.885 26.0784 131.984 26.1829C132.088 26.2874 132.141 26.415 132.141 26.5659C132.141 26.7168 132.088 26.8445 131.984 26.949C131.885 27.0535 131.763 27.1057 131.618 27.1057ZM132.001 27.8805V32.6514H131.209V27.8805H132.001ZM135.676 27.7935C136.256 27.7935 136.727 27.9705 137.086 28.3245C137.446 28.6728 137.626 29.1777 137.626 29.8394V32.6514H136.843V29.9525C136.843 29.4766 136.724 29.1139 136.486 28.8643C136.248 28.6089 135.923 28.4812 135.511 28.4812C135.093 28.4812 134.759 28.6118 134.509 28.873C134.266 29.1342 134.144 29.5143 134.144 30.0135V32.6514H133.352V27.8805H134.144V28.5596C134.301 28.3158 134.512 28.1272 134.779 27.9937C135.052 27.8602 135.351 27.7935 135.676 27.7935ZM140.888 27.8022C141.3 27.8022 141.66 27.8921 141.967 28.0721C142.281 28.252 142.513 28.4783 142.664 28.7511V27.8805H143.465V32.7558C143.465 33.1911 143.372 33.5771 143.186 33.9137C143 34.2562 142.733 34.5231 142.385 34.7147C142.043 34.9062 141.642 35.002 141.184 35.002C140.557 35.002 140.035 34.854 139.617 34.558C139.199 34.262 138.952 33.8586 138.877 33.3478H139.66C139.747 33.638 139.927 33.8702 140.2 34.0443C140.473 34.2242 140.801 34.3142 141.184 34.3142C141.619 34.3142 141.973 34.1778 142.246 33.905C142.525 33.6322 142.664 33.2492 142.664 32.7558V31.7547C142.507 32.0332 142.275 32.2654 141.967 32.4511C141.66 32.6369 141.3 32.7297 140.888 32.7297C140.464 32.7297 140.078 32.6252 139.73 32.4163C139.388 32.2074 139.118 31.9143 138.92 31.537C138.723 31.1598 138.624 30.7303 138.624 30.2485C138.624 29.761 138.723 29.3344 138.92 28.9688C139.118 28.5973 139.388 28.31 139.73 28.1069C140.078 27.9038 140.464 27.8022 140.888 27.8022ZM142.664 30.2572C142.664 29.8974 142.591 29.584 142.446 29.317C142.301 29.05 142.104 28.8469 141.854 28.7076C141.61 28.5625 141.341 28.4899 141.045 28.4899C140.749 28.4899 140.479 28.5596 140.235 28.6989C139.991 28.8382 139.797 29.0413 139.652 29.3083C139.506 29.5753 139.434 29.8887 139.434 30.2485C139.434 30.6142 139.506 30.9334 139.652 31.2062C139.797 31.4732 139.991 31.6792 140.235 31.8243C140.479 31.9636 140.749 32.0332 141.045 32.0332C141.341 32.0332 141.61 31.9636 141.854 31.8243C142.104 31.6792 142.301 31.4732 142.446 31.2062C142.591 30.9334 142.664 30.6171 142.664 30.2572ZM149.493 27.7935C149.852 27.7935 150.177 27.8718 150.468 28.0285C150.758 28.1794 150.984 28.4087 151.147 28.7163C151.315 29.0239 151.399 29.3983 151.399 29.8394V32.6514H150.616V29.9525C150.616 29.4766 150.497 29.1139 150.259 28.8643C150.021 28.6089 149.696 28.4812 149.284 28.4812C148.866 28.4812 148.532 28.6118 148.282 28.873C148.039 29.1342 147.917 29.5143 147.917 30.0135V32.6514H147.125V26.209H147.917V28.5596C148.074 28.3158 148.288 28.1272 148.561 27.9937C148.84 27.8602 149.15 27.7935 149.493 27.7935ZM152.397 30.2485C152.397 29.761 152.496 29.3344 152.693 28.9688C152.891 28.5973 153.161 28.31 153.503 28.1069C153.851 27.9038 154.237 27.8022 154.661 27.8022C155.079 27.8022 155.441 27.8921 155.749 28.0721C156.057 28.252 156.286 28.4783 156.437 28.7511V27.8805H157.238V32.6514H156.437V31.7634C156.28 32.042 156.045 32.2741 155.732 32.4598C155.424 32.6398 155.064 32.7297 154.652 32.7297C154.228 32.7297 153.845 32.6252 153.503 32.4163C153.161 32.2074 152.891 31.9143 152.693 31.537C152.496 31.1598 152.397 30.7303 152.397 30.2485ZM156.437 30.2572C156.437 29.8974 156.364 29.584 156.219 29.317C156.074 29.05 155.877 28.8469 155.627 28.7076C155.383 28.5625 155.114 28.4899 154.818 28.4899C154.522 28.4899 154.252 28.5596 154.008 28.6989C153.764 28.8382 153.57 29.0413 153.425 29.3083C153.279 29.5753 153.207 29.8887 153.207 30.2485C153.207 30.6142 153.279 30.9334 153.425 31.2062C153.57 31.4732 153.764 31.6792 154.008 31.8243C154.252 31.9636 154.522 32.0332 154.818 32.0332C155.114 32.0332 155.383 31.9636 155.627 31.8243C155.877 31.6792 156.074 31.4732 156.219 31.2062C156.364 30.9334 156.437 30.6171 156.437 30.2572ZM160.901 27.7935C161.481 27.7935 161.952 27.9705 162.311 28.3245C162.671 28.6728 162.851 29.1777 162.851 29.8394V32.6514H162.068V29.9525C162.068 29.4766 161.949 29.1139 161.711 28.8643C161.473 28.6089 161.148 28.4812 160.736 28.4812C160.318 28.4812 159.984 28.6118 159.734 28.873C159.491 29.1342 159.369 29.5143 159.369 30.0135V32.6514H158.577V27.8805H159.369V28.5596C159.526 28.3158 159.737 28.1272 160.004 27.9937C160.277 27.8602 160.576 27.7935 160.901 27.7935ZM163.849 30.2485C163.849 29.761 163.948 29.3344 164.145 28.9688C164.343 28.5973 164.613 28.31 164.955 28.1069C165.303 27.9038 165.692 27.8022 166.122 27.8022C166.493 27.8022 166.838 27.8892 167.158 28.0634C167.477 28.2317 167.721 28.4551 167.889 28.7337V26.209H168.69V32.6514H167.889V31.7547C167.732 32.0391 167.5 32.2741 167.192 32.4598C166.885 32.6398 166.525 32.7297 166.113 32.7297C165.689 32.7297 165.303 32.6252 164.955 32.4163C164.613 32.2074 164.343 31.9143 164.145 31.537C163.948 31.1598 163.849 30.7303 163.849 30.2485ZM167.889 30.2572C167.889 29.8974 167.816 29.584 167.671 29.317C167.526 29.05 167.329 28.8469 167.079 28.7076C166.835 28.5625 166.566 28.4899 166.27 28.4899C165.974 28.4899 165.704 28.5596 165.46 28.6989C165.216 28.8382 165.022 29.0413 164.877 29.3083C164.731 29.5753 164.659 29.8887 164.659 30.2485C164.659 30.6142 164.731 30.9334 164.877 31.2062C165.022 31.4732 165.216 31.6792 165.46 31.8243C165.704 31.9636 165.974 32.0332 166.27 32.0332C166.566 32.0332 166.835 31.9636 167.079 31.8243C167.329 31.6792 167.526 31.4732 167.671 31.2062C167.816 30.9334 167.889 30.6171 167.889 30.2572ZM170.821 26.209V32.6514H170.029V26.209H170.821ZM172.58 27.1057C172.429 27.1057 172.302 27.0535 172.197 26.949C172.093 26.8445 172.04 26.7168 172.04 26.5659C172.04 26.415 172.093 26.2874 172.197 26.1829C172.302 26.0784 172.429 26.0262 172.58 26.0262C172.725 26.0262 172.847 26.0784 172.946 26.1829C173.05 26.2874 173.103 26.415 173.103 26.5659C173.103 26.7168 173.05 26.8445 172.946 26.949C172.847 27.0535 172.725 27.1057 172.58 27.1057ZM172.963 27.8805V32.6514H172.171V27.8805H172.963ZM176.638 27.7935C177.218 27.7935 177.688 27.9705 178.048 28.3245C178.408 28.6728 178.588 29.1777 178.588 29.8394V32.6514H177.805V29.9525C177.805 29.4766 177.686 29.1139 177.448 28.8643C177.21 28.6089 176.885 28.4812 176.473 28.4812C176.055 28.4812 175.721 28.6118 175.471 28.873C175.228 29.1342 175.106 29.5143 175.106 30.0135V32.6514H174.314V27.8805H175.106V28.5596C175.262 28.3158 175.474 28.1272 175.741 27.9937C176.014 27.8602 176.313 27.7935 176.638 27.7935ZM181.85 27.8022C182.262 27.8022 182.622 27.8921 182.929 28.0721C183.243 28.252 183.475 28.4783 183.626 28.7511V27.8805H184.427V32.7558C184.427 33.1911 184.334 33.5771 184.148 33.9137C183.962 34.2562 183.695 34.5231 183.347 34.7147C183.005 34.9062 182.604 35.002 182.146 35.002C181.519 35.002 180.997 34.854 180.579 34.558C180.161 34.262 179.914 33.8586 179.839 33.3478H180.622C180.709 33.638 180.889 33.8702 181.162 34.0443C181.435 34.2242 181.763 34.3142 182.146 34.3142C182.581 34.3142 182.935 34.1778 183.208 33.905C183.486 33.6322 183.626 33.2492 183.626 32.7558V31.7547C183.469 32.0332 183.237 32.2654 182.929 32.4511C182.622 32.6369 182.262 32.7297 181.85 32.7297C181.426 32.7297 181.04 32.6252 180.692 32.4163C180.349 32.2074 180.08 31.9143 179.882 31.537C179.685 31.1598 179.586 30.7303 179.586 30.2485C179.586 29.761 179.685 29.3344 179.882 28.9688C180.08 28.5973 180.349 28.31 180.692 28.1069C181.04 27.9038 181.426 27.8022 181.85 27.8022ZM183.626 30.2572C183.626 29.8974 183.553 29.584 183.408 29.317C183.263 29.05 183.066 28.8469 182.816 28.7076C182.572 28.5625 182.302 28.4899 182.006 28.4899C181.71 28.4899 181.441 28.5596 181.197 28.6989C180.953 28.8382 180.759 29.0413 180.614 29.3083C180.468 29.5753 180.396 29.8887 180.396 30.2485C180.396 30.6142 180.468 30.9334 180.614 31.2062C180.759 31.4732 180.953 31.6792 181.197 31.8243C181.441 31.9636 181.71 32.0332 182.006 32.0332C182.302 32.0332 182.572 31.9636 182.816 31.8243C183.066 31.6792 183.263 31.4732 183.408 31.2062C183.553 30.9334 183.626 30.6171 183.626 30.2572ZM186.018 32.7036C185.867 32.7036 185.739 32.6514 185.635 32.5469C185.53 32.4424 185.478 32.3147 185.478 32.1638C185.478 32.0129 185.53 31.8852 185.635 31.7808C185.739 31.6763 185.867 31.6241 186.018 31.6241C186.163 31.6241 186.285 31.6763 186.384 31.7808C186.488 31.8852 186.54 32.0129 186.54 32.1638C186.54 32.3147 186.488 32.4424 186.384 32.5469C186.285 32.6514 186.163 32.7036 186.018 32.7036Z" fill="white"/>
</svg>
