<svg width="145" height="37" viewBox="0 0 145 37" fill="none" xmlns="http://www.w3.org/2000/svg">
<rect width="36.5" height="36.5" rx="18.25" fill="white"/>
<path d="M16.4165 20.9974V18.2474M20.0831 20.9974V18.2474M23.7498 20.9974V18.2474M9.08313 14.5807V10.9141M27.4165 12.7474H9.08313M27.4165 14.5807V10.9141M12.7498 20.9974V18.2474" stroke="#564906" stroke-width="2.06182" stroke-linecap="round" stroke-linejoin="round"/>
<path d="M25.5832 18.248H10.9165C9.904 18.248 9.08319 19.0689 9.08319 20.0814V23.748C9.08319 24.7606 9.904 25.5814 10.9165 25.5814H25.5832C26.5957 25.5814 27.4165 24.7606 27.4165 23.748V20.0814C27.4165 19.0689 26.5957 18.248 25.5832 18.248Z" stroke="#564906" stroke-width="2.06182" stroke-linecap="round" stroke-linejoin="round"/>
<path d="M49.725 11.4827C49.725 12.0127 49.6367 12.4993 49.46 12.9427C49.2833 13.386 49.035 13.7677 48.715 14.0877C48.395 14.4077 48.01 14.656 47.56 14.8327C47.11 15.0093 46.61 15.0977 46.06 15.0977H43.305V7.86766H46.06C46.61 7.86766 47.11 7.95766 47.56 8.13766C48.01 8.31432 48.395 8.56266 48.715 8.88266C49.035 9.19932 49.2833 9.57932 49.46 10.0227C49.6367 10.466 49.725 10.9527 49.725 11.4827ZM48.345 11.4827C48.345 11.086 48.2917 10.731 48.185 10.4177C48.0817 10.101 47.93 9.83432 47.73 9.61766C47.5333 9.39766 47.2933 9.22932 47.01 9.11266C46.73 8.99599 46.4133 8.93766 46.06 8.93766H44.655V14.0277H46.06C46.4133 14.0277 46.73 13.9693 47.01 13.8527C47.2933 13.736 47.5333 13.5693 47.73 13.3527C47.93 13.1327 48.0817 12.866 48.185 12.5527C48.2917 12.236 48.345 11.8793 48.345 11.4827ZM51.9095 9.96766V15.0977H50.6695V9.96766H51.9095ZM52.0795 8.47266C52.0795 8.57932 52.0579 8.67932 52.0145 8.77266C51.9712 8.86599 51.9129 8.94766 51.8395 9.01766C51.7695 9.08766 51.6862 9.14432 51.5895 9.18766C51.4929 9.22766 51.3895 9.24766 51.2795 9.24766C51.1729 9.24766 51.0712 9.22766 50.9745 9.18766C50.8812 9.14432 50.7995 9.08766 50.7295 9.01766C50.6595 8.94766 50.6029 8.86599 50.5595 8.77266C50.5195 8.67932 50.4995 8.57932 50.4995 8.47266C50.4995 8.36266 50.5195 8.25932 50.5595 8.16266C50.6029 8.06599 50.6595 7.98266 50.7295 7.91266C50.7995 7.84266 50.8812 7.78766 50.9745 7.74766C51.0712 7.70432 51.1729 7.68266 51.2795 7.68266C51.3895 7.68266 51.4929 7.70432 51.5895 7.74766C51.6862 7.78766 51.7695 7.84266 51.8395 7.91266C51.9129 7.98266 51.9712 8.06599 52.0145 8.16266C52.0579 8.25932 52.0795 8.36266 52.0795 8.47266ZM53.1686 15.0977V9.96766H53.9236C54.0836 9.96766 54.1886 10.0427 54.2386 10.1927L54.3186 10.5727C54.4086 10.4727 54.5019 10.381 54.5986 10.2977C54.6986 10.2143 54.8036 10.1427 54.9136 10.0827C55.0269 10.0227 55.1469 9.97599 55.2736 9.94266C55.4036 9.90599 55.5453 9.88766 55.6986 9.88766C56.0219 9.88766 56.2869 9.97599 56.4936 10.1527C56.7036 10.326 56.8603 10.5577 56.9636 10.8477C57.0436 10.6777 57.1436 10.5327 57.2636 10.4127C57.3836 10.2893 57.5153 10.1893 57.6586 10.1127C57.8019 10.036 57.9536 9.97932 58.1136 9.94266C58.2769 9.90599 58.4403 9.88766 58.6036 9.88766C58.8869 9.88766 59.1386 9.93099 59.3586 10.0177C59.5786 10.1043 59.7636 10.231 59.9136 10.3977C60.0636 10.5643 60.1769 10.7677 60.2536 11.0077C60.3336 11.2477 60.3736 11.5227 60.3736 11.8327V15.0977H59.1386V11.8327C59.1386 11.506 59.0669 11.261 58.9236 11.0977C58.7803 10.931 58.5703 10.8477 58.2936 10.8477C58.1669 10.8477 58.0486 10.8693 57.9386 10.9127C57.8319 10.956 57.7369 11.0193 57.6536 11.1027C57.5736 11.1827 57.5103 11.2843 57.4636 11.4077C57.4169 11.531 57.3936 11.6727 57.3936 11.8327V15.0977H56.1536V11.8327C56.1536 11.4893 56.0836 11.2393 55.9436 11.0827C55.8069 10.926 55.6053 10.8477 55.3386 10.8477C55.1586 10.8477 54.9903 10.8927 54.8336 10.9827C54.6803 11.0693 54.5369 11.1893 54.4036 11.3427V15.0977H53.1686ZM64.8525 11.9427C64.8525 11.7827 64.8292 11.6327 64.7825 11.4927C64.7392 11.3493 64.6725 11.2243 64.5825 11.1177C64.4925 11.011 64.3775 10.9277 64.2375 10.8677C64.1008 10.8043 63.9408 10.7727 63.7575 10.7727C63.4008 10.7727 63.1192 10.8743 62.9125 11.0777C62.7092 11.281 62.5792 11.5693 62.5225 11.9427H64.8525ZM62.4975 12.6877C62.5175 12.951 62.5642 13.1793 62.6375 13.3727C62.7108 13.5627 62.8075 13.721 62.9275 13.8477C63.0475 13.971 63.1892 14.0643 63.3525 14.1277C63.5192 14.1877 63.7025 14.2177 63.9025 14.2177C64.1025 14.2177 64.2742 14.1943 64.4175 14.1477C64.5642 14.101 64.6908 14.0493 64.7975 13.9927C64.9075 13.936 65.0025 13.8843 65.0825 13.8377C65.1658 13.791 65.2458 13.7677 65.3225 13.7677C65.4258 13.7677 65.5025 13.806 65.5525 13.8827L65.9075 14.3327C65.7708 14.4927 65.6175 14.6277 65.4475 14.7377C65.2775 14.8443 65.0992 14.931 64.9125 14.9977C64.7292 15.061 64.5408 15.106 64.3475 15.1327C64.1575 15.1593 63.9725 15.1727 63.7925 15.1727C63.4358 15.1727 63.1042 15.1143 62.7975 14.9977C62.4908 14.8777 62.2242 14.7027 61.9975 14.4727C61.7708 14.2393 61.5925 13.9527 61.4625 13.6127C61.3325 13.2693 61.2675 12.8727 61.2675 12.4227C61.2675 12.0727 61.3242 11.7443 61.4375 11.4377C61.5508 11.1277 61.7125 10.8593 61.9225 10.6327C62.1358 10.4027 62.3942 10.221 62.6975 10.0877C63.0042 9.95432 63.3492 9.88766 63.7325 9.88766C64.0558 9.88766 64.3542 9.93932 64.6275 10.0427C64.9008 10.146 65.1358 10.2977 65.3325 10.4977C65.5292 10.6943 65.6825 10.9377 65.7925 11.2277C65.9058 11.5143 65.9625 11.8427 65.9625 12.2127C65.9625 12.3993 65.9425 12.526 65.9025 12.5927C65.8625 12.656 65.7858 12.6877 65.6725 12.6877H62.4975ZM68.0443 10.5977C68.1476 10.4943 68.256 10.3993 68.3693 10.3127C68.486 10.2227 68.6076 10.1477 68.7343 10.0877C68.8643 10.0243 69.0026 9.97599 69.1493 9.94266C69.296 9.90599 69.456 9.88766 69.6293 9.88766C69.9093 9.88766 70.1576 9.93599 70.3743 10.0327C70.591 10.126 70.771 10.2593 70.9143 10.4327C71.061 10.6027 71.171 10.8077 71.2443 11.0477C71.321 11.2843 71.3593 11.546 71.3593 11.8327V15.0977H70.1243V11.8327C70.1243 11.5193 70.0526 11.2777 69.9093 11.1077C69.766 10.9343 69.5476 10.8477 69.2543 10.8477C69.041 10.8477 68.841 10.896 68.6543 10.9927C68.4676 11.0893 68.291 11.221 68.1243 11.3877V15.0977H66.8893V9.96766H67.6443C67.8043 9.96766 67.9093 10.0427 67.9593 10.1927L68.0443 10.5977ZM75.6638 10.9677C75.6305 11.021 75.5955 11.0593 75.5588 11.0827C75.5222 11.1027 75.4755 11.1127 75.4188 11.1127C75.3588 11.1127 75.2938 11.096 75.2238 11.0627C75.1572 11.0293 75.0788 10.9927 74.9888 10.9527C74.8988 10.9093 74.7955 10.871 74.6788 10.8377C74.5655 10.8043 74.4305 10.7877 74.2738 10.7877C74.0305 10.7877 73.8388 10.8393 73.6988 10.9427C73.5622 11.046 73.4938 11.181 73.4938 11.3477C73.4938 11.4577 73.5288 11.551 73.5988 11.6277C73.6722 11.701 73.7672 11.766 73.8838 11.8227C74.0038 11.8793 74.1388 11.931 74.2888 11.9777C74.4388 12.021 74.5905 12.0693 74.7438 12.1227C74.9005 12.176 75.0538 12.2377 75.2038 12.3077C75.3538 12.3743 75.4872 12.461 75.6038 12.5677C75.7238 12.671 75.8188 12.796 75.8888 12.9427C75.9622 13.0893 75.9988 13.266 75.9988 13.4727C75.9988 13.7193 75.9538 13.9477 75.8638 14.1577C75.7772 14.3643 75.6472 14.5443 75.4738 14.6977C75.3005 14.8477 75.0855 14.966 74.8288 15.0527C74.5755 15.136 74.2822 15.1777 73.9488 15.1777C73.7722 15.1777 73.5988 15.161 73.4288 15.1277C73.2622 15.0977 73.1005 15.0543 72.9438 14.9977C72.7905 14.941 72.6472 14.8743 72.5138 14.7977C72.3838 14.721 72.2688 14.6377 72.1688 14.5477L72.4538 14.0777C72.4905 14.021 72.5338 13.9777 72.5838 13.9477C72.6338 13.9177 72.6972 13.9027 72.7738 13.9027C72.8505 13.9027 72.9222 13.9243 72.9888 13.9677C73.0588 14.011 73.1388 14.0577 73.2288 14.1077C73.3188 14.1577 73.4238 14.2043 73.5438 14.2477C73.6672 14.291 73.8222 14.3127 74.0088 14.3127C74.1555 14.3127 74.2805 14.296 74.3838 14.2627C74.4905 14.226 74.5772 14.1793 74.6438 14.1227C74.7138 14.066 74.7638 14.001 74.7938 13.9277C74.8272 13.851 74.8438 13.7727 74.8438 13.6927C74.8438 13.5727 74.8072 13.4743 74.7338 13.3977C74.6638 13.321 74.5688 13.2543 74.4488 13.1977C74.3322 13.141 74.1972 13.091 74.0438 13.0477C73.8938 13.001 73.7388 12.951 73.5788 12.8977C73.4222 12.8443 73.2672 12.7827 73.1138 12.7127C72.9638 12.6393 72.8288 12.5477 72.7088 12.4377C72.5922 12.3277 72.4972 12.1927 72.4238 12.0327C72.3538 11.8727 72.3188 11.6793 72.3188 11.4527C72.3188 11.2427 72.3605 11.0427 72.4438 10.8527C72.5272 10.6627 72.6488 10.4977 72.8088 10.3577C72.9722 10.2143 73.1738 10.101 73.4138 10.0177C73.6572 9.93099 73.9372 9.88766 74.2538 9.88766C74.6072 9.88766 74.9288 9.94599 75.2188 10.0627C75.5088 10.1793 75.7505 10.3327 75.9438 10.5227L75.6638 10.9677ZM78.2084 9.96766V15.0977H76.9684V9.96766H78.2084ZM78.3784 8.47266C78.3784 8.57932 78.3567 8.67932 78.3134 8.77266C78.27 8.86599 78.2117 8.94766 78.1384 9.01766C78.0684 9.08766 77.985 9.14432 77.8884 9.18766C77.7917 9.22766 77.6884 9.24766 77.5784 9.24766C77.4717 9.24766 77.37 9.22766 77.2734 9.18766C77.18 9.14432 77.0984 9.08766 77.0284 9.01766C76.9584 8.94766 76.9017 8.86599 76.8584 8.77266C76.8184 8.67932 76.7984 8.57932 76.7984 8.47266C76.7984 8.36266 76.8184 8.25932 76.8584 8.16266C76.9017 8.06599 76.9584 7.98266 77.0284 7.91266C77.0984 7.84266 77.18 7.78766 77.2734 7.74766C77.37 7.70432 77.4717 7.68266 77.5784 7.68266C77.6884 7.68266 77.7917 7.70432 77.8884 7.74766C77.985 7.78766 78.0684 7.84266 78.1384 7.91266C78.2117 7.98266 78.27 8.06599 78.3134 8.16266C78.3567 8.25932 78.3784 8.36266 78.3784 8.47266ZM81.7374 9.88766C82.1174 9.88766 82.4624 9.94932 82.7724 10.0727C83.0858 10.196 83.3524 10.371 83.5724 10.5977C83.7958 10.8243 83.9674 11.101 84.0874 11.4277C84.2074 11.7543 84.2674 12.1193 84.2674 12.5227C84.2674 12.9293 84.2074 13.296 84.0874 13.6227C83.9674 13.9493 83.7958 14.2277 83.5724 14.4577C83.3524 14.6877 83.0858 14.8643 82.7724 14.9877C82.4624 15.111 82.1174 15.1727 81.7374 15.1727C81.3541 15.1727 81.0058 15.111 80.6924 14.9877C80.3791 14.8643 80.1108 14.6877 79.8874 14.4577C79.6674 14.2277 79.4958 13.9493 79.3724 13.6227C79.2524 13.296 79.1924 12.9293 79.1924 12.5227C79.1924 12.1193 79.2524 11.7543 79.3724 11.4277C79.4958 11.101 79.6674 10.8243 79.8874 10.5977C80.1108 10.371 80.3791 10.196 80.6924 10.0727C81.0058 9.94932 81.3541 9.88766 81.7374 9.88766ZM81.7374 14.2227C82.1641 14.2227 82.4791 14.0793 82.6824 13.7927C82.8891 13.506 82.9924 13.086 82.9924 12.5327C82.9924 11.9793 82.8891 11.5577 82.6824 11.2677C82.4791 10.9777 82.1641 10.8327 81.7374 10.8327C81.3041 10.8327 80.9824 10.9793 80.7724 11.2727C80.5658 11.5627 80.4624 11.9827 80.4624 12.5327C80.4624 13.0827 80.5658 13.5027 80.7724 13.7927C80.9824 14.0793 81.3041 14.2227 81.7374 14.2227ZM86.3646 10.5977C86.4679 10.4943 86.5763 10.3993 86.6896 10.3127C86.8063 10.2227 86.9279 10.1477 87.0546 10.0877C87.1846 10.0243 87.3229 9.97599 87.4696 9.94266C87.6163 9.90599 87.7763 9.88766 87.9496 9.88766C88.2296 9.88766 88.4779 9.93599 88.6946 10.0327C88.9113 10.126 89.0913 10.2593 89.2346 10.4327C89.3813 10.6027 89.4913 10.8077 89.5646 11.0477C89.6413 11.2843 89.6796 11.546 89.6796 11.8327V15.0977H88.4446V11.8327C88.4446 11.5193 88.3729 11.2777 88.2296 11.1077C88.0863 10.9343 87.8679 10.8477 87.5746 10.8477C87.3613 10.8477 87.1613 10.896 86.9746 10.9927C86.7879 11.0893 86.6113 11.221 86.4446 11.3877V15.0977H85.2096V9.96766H85.9646C86.1246 9.96766 86.2296 10.0427 86.2796 10.1927L86.3646 10.5977Z" fill="white"/>
<path d="M42.804 23.2823V22.6183H44.308V28.4023H43.572V23.2823H42.804ZM46.6145 25.3943C46.3158 25.277 46.0865 25.1063 45.9265 24.8823C45.7665 24.6583 45.6865 24.3863 45.6865 24.0663C45.6865 23.7783 45.7585 23.5197 45.9025 23.2903C46.0465 23.0557 46.2598 22.8717 46.5425 22.7383C46.8305 22.5997 47.1772 22.5303 47.5825 22.5303C47.9878 22.5303 48.3318 22.5997 48.6145 22.7383C48.9025 22.8717 49.1185 23.0557 49.2625 23.2903C49.4118 23.5197 49.4865 23.7783 49.4865 24.0663C49.4865 24.3757 49.4038 24.6477 49.2385 24.8823C49.0732 25.1117 48.8465 25.2823 48.5585 25.3943C48.8892 25.4957 49.1505 25.6743 49.3425 25.9303C49.5398 26.181 49.6385 26.485 49.6385 26.8423C49.6385 27.189 49.5532 27.493 49.3825 27.7543C49.2118 28.0103 48.9692 28.2103 48.6545 28.3543C48.3452 28.493 47.9878 28.5623 47.5825 28.5623C47.1772 28.5623 46.8198 28.493 46.5105 28.3543C46.2065 28.2103 45.9692 28.0103 45.7985 27.7543C45.6278 27.493 45.5425 27.189 45.5425 26.8423C45.5425 26.485 45.6385 26.1783 45.8305 25.9223C46.0225 25.6663 46.2838 25.4903 46.6145 25.3943ZM48.7825 24.1543C48.7825 23.829 48.6758 23.5783 48.4625 23.4023C48.2492 23.2263 47.9558 23.1383 47.5825 23.1383C47.2145 23.1383 46.9238 23.2263 46.7105 23.4023C46.4972 23.5783 46.3905 23.8317 46.3905 24.1623C46.3905 24.461 46.4998 24.701 46.7185 24.8823C46.9425 25.0637 47.2305 25.1543 47.5825 25.1543C47.9398 25.1543 48.2278 25.0637 48.4465 24.8823C48.6705 24.6957 48.7825 24.453 48.7825 24.1543ZM47.5825 25.7143C47.1878 25.7143 46.8652 25.8077 46.6145 25.9943C46.3638 26.1757 46.2385 26.4503 46.2385 26.8183C46.2385 27.1597 46.3585 27.4343 46.5985 27.6423C46.8438 27.8503 47.1718 27.9543 47.5825 27.9543C47.9932 27.9543 48.3185 27.8503 48.5585 27.6423C48.7985 27.4343 48.9185 27.1597 48.9185 26.8183C48.9185 26.461 48.7958 26.189 48.5505 26.0023C48.3052 25.8103 47.9825 25.7143 47.5825 25.7143ZM53.8294 23.9943C53.712 23.4023 53.3467 23.1063 52.7334 23.1063C52.2587 23.1063 51.904 23.2903 51.6694 23.6583C51.4347 24.021 51.32 24.621 51.3254 25.4583C51.448 25.181 51.6507 24.965 51.9334 24.8103C52.2214 24.6503 52.5414 24.5703 52.8934 24.5703C53.4427 24.5703 53.88 24.741 54.2054 25.0823C54.536 25.4237 54.7014 25.8957 54.7014 26.4983C54.7014 26.861 54.6294 27.1863 54.4854 27.4743C54.3467 27.7623 54.1334 27.9917 53.8454 28.1623C53.5627 28.333 53.2187 28.4183 52.8134 28.4183C52.264 28.4183 51.8347 28.2957 51.5254 28.0503C51.216 27.805 51 27.4663 50.8774 27.0343C50.7547 26.6023 50.6934 26.069 50.6934 25.4343C50.6934 23.477 51.376 22.4983 52.7414 22.4983C53.264 22.4983 53.6747 22.6397 53.9734 22.9223C54.272 23.205 54.448 23.5623 54.5014 23.9943H53.8294ZM52.7414 25.1863C52.512 25.1863 52.296 25.2343 52.0934 25.3303C51.8907 25.421 51.7254 25.5623 51.5974 25.7543C51.4747 25.941 51.4134 26.1703 51.4134 26.4423C51.4134 26.8477 51.5307 27.1783 51.7654 27.4343C52 27.685 52.336 27.8103 52.7734 27.8103C53.1467 27.8103 53.4427 27.6957 53.6614 27.4663C53.8854 27.2317 53.9974 26.917 53.9974 26.5223C53.9974 26.1063 53.8907 25.781 53.6774 25.5463C53.464 25.3063 53.152 25.1863 52.7414 25.1863ZM58.5235 20.8663L56.3315 29.7623H55.6115L57.7955 20.8663H58.5235ZM59.2962 23.2823V22.6183H60.8002V28.4023H60.0642V23.2823H59.2962ZM62.0347 24.0743C62.072 23.5837 62.2614 23.1997 62.6027 22.9223C62.944 22.645 63.3867 22.5063 63.9307 22.5063C64.2934 22.5063 64.6054 22.573 64.8667 22.7063C65.1334 22.8343 65.3334 23.0103 65.4667 23.2343C65.6054 23.4583 65.6747 23.7117 65.6747 23.9943C65.6747 24.325 65.5787 24.6103 65.3867 24.8503C65.2 25.0903 64.9547 25.245 64.6507 25.3143V25.3543C64.9974 25.4397 65.272 25.6077 65.4747 25.8583C65.6774 26.109 65.7787 26.437 65.7787 26.8423C65.7787 27.1463 65.7094 27.421 65.5707 27.6663C65.432 27.9063 65.224 28.0957 64.9467 28.2343C64.6694 28.373 64.336 28.4423 63.9467 28.4423C63.3814 28.4423 62.9174 28.2957 62.5547 28.0023C62.192 27.7037 61.9894 27.2823 61.9467 26.7383H62.6507C62.688 27.0583 62.8187 27.3197 63.0427 27.5223C63.2667 27.725 63.5654 27.8263 63.9387 27.8263C64.312 27.8263 64.5947 27.7303 64.7867 27.5383C64.984 27.341 65.0827 27.0877 65.0827 26.7783C65.0827 26.3783 64.9494 26.0903 64.6827 25.9143C64.416 25.7383 64.0134 25.6503 63.4747 25.6503H63.2907V25.0423H63.4827C63.9734 25.037 64.344 24.957 64.5947 24.8023C64.8454 24.6423 64.9707 24.397 64.9707 24.0663C64.9707 23.7837 64.8774 23.557 64.6907 23.3863C64.5094 23.2157 64.248 23.1303 63.9067 23.1303C63.576 23.1303 63.3094 23.2157 63.1067 23.3863C62.904 23.557 62.784 23.7863 62.7467 24.0743H62.0347ZM70.4496 23.2503H67.6416V25.0743C67.7643 24.9037 67.9456 24.765 68.1856 24.6583C68.4256 24.5463 68.6843 24.4903 68.9616 24.4903C69.4043 24.4903 69.7643 24.5837 70.0416 24.7703C70.319 24.9517 70.5163 25.189 70.6336 25.4823C70.7563 25.7703 70.8176 26.077 70.8176 26.4023C70.8176 26.7863 70.7456 27.1303 70.6016 27.4343C70.4576 27.7383 70.2363 27.9783 69.9376 28.1543C69.6443 28.3303 69.279 28.4183 68.8416 28.4183C68.2816 28.4183 67.8283 28.2743 67.4816 27.9863C67.135 27.6983 66.9243 27.3143 66.8496 26.8343H67.5616C67.631 27.1383 67.7776 27.3757 68.0016 27.5463C68.2256 27.717 68.5083 27.8023 68.8496 27.8023C69.271 27.8023 69.5883 27.677 69.8016 27.4263C70.015 27.1703 70.1216 26.8343 70.1216 26.4183C70.1216 26.0023 70.015 25.6823 69.8016 25.4583C69.5883 25.229 69.2736 25.1143 68.8576 25.1143C68.575 25.1143 68.327 25.1837 68.1136 25.3223C67.9056 25.4557 67.7536 25.6397 67.6576 25.8743H66.9696V22.6103H70.4496V23.2503ZM77.2699 27.2023L75.9979 25.9303L74.7259 27.2023L74.2459 26.7223L75.5179 25.4503L74.2699 24.2023L74.7339 23.7303L75.9899 24.9863L77.2459 23.7303L77.7259 24.2103L76.4699 25.4663L77.7339 26.7383L77.2699 27.2023ZM80.9993 23.2823V22.6183H82.5033V28.4023H81.7673V23.2823H80.9993ZM87.3138 23.1863L85.0898 28.4023H84.3538L86.6098 23.2583H83.5218V22.6343H87.3138V23.1863ZM87.929 23.2823V22.6183H89.433V28.4023H88.697V23.2823H87.929ZM93.5235 20.8663L91.3315 29.7623H90.6115L92.7955 20.8663H93.5235ZM94.2962 23.2823V22.6183H95.8002V28.4023H95.0642V23.2823H94.2962ZM96.9627 27.8183C97.64 27.2743 98.1707 26.829 98.5547 26.4823C98.9387 26.1303 99.2614 25.765 99.5227 25.3863C99.7894 25.0023 99.9227 24.6263 99.9227 24.2583C99.9227 23.9117 99.8374 23.6397 99.6667 23.4423C99.5014 23.2397 99.232 23.1383 98.8587 23.1383C98.496 23.1383 98.2134 23.253 98.0107 23.4823C97.8134 23.7063 97.7067 24.0077 97.6907 24.3863H96.9867C97.008 23.789 97.1894 23.3277 97.5307 23.0023C97.872 22.677 98.312 22.5143 98.8507 22.5143C99.4 22.5143 99.8347 22.6663 100.155 22.9703C100.48 23.2743 100.643 23.693 100.643 24.2263C100.643 24.669 100.509 25.101 100.243 25.5223C99.9814 25.9383 99.6827 26.3063 99.3467 26.6263C99.0107 26.941 98.5814 27.309 98.0587 27.7303H100.811V28.3383H96.9627V27.8183ZM101.652 25.4503C101.652 24.533 101.802 23.8183 102.1 23.3063C102.399 22.789 102.922 22.5303 103.668 22.5303C104.41 22.5303 104.93 22.789 105.228 23.3063C105.527 23.8183 105.676 24.533 105.676 25.4503C105.676 26.3837 105.527 27.109 105.228 27.6263C104.93 28.1437 104.41 28.4023 103.668 28.4023C102.922 28.4023 102.399 28.1437 102.1 27.6263C101.802 27.109 101.652 26.3837 101.652 25.4503ZM104.956 25.4503C104.956 24.9863 104.924 24.5943 104.86 24.2743C104.802 23.949 104.676 23.6877 104.484 23.4903C104.298 23.293 104.026 23.1943 103.668 23.1943C103.306 23.1943 103.028 23.293 102.836 23.4903C102.65 23.6877 102.524 23.949 102.46 24.2743C102.402 24.5943 102.372 24.9863 102.372 25.4503C102.372 25.9303 102.402 26.333 102.46 26.6583C102.524 26.9837 102.65 27.245 102.836 27.4423C103.028 27.6397 103.306 27.7383 103.668 27.7383C104.026 27.7383 104.298 27.6397 104.484 27.4423C104.676 27.245 104.802 26.9837 104.86 26.6583C104.924 26.333 104.956 25.9303 104.956 25.4503ZM112.161 27.2023L110.889 25.9303L109.617 27.2023L109.137 26.7223L110.409 25.4503L109.161 24.2023L109.625 23.7303L110.881 24.9863L112.137 23.7303L112.617 24.2103L111.361 25.4663L112.625 26.7383L112.161 27.2023ZM115.906 27.1143V26.5623L118.714 22.6743H119.586V26.4823H120.386V27.1143H119.586V28.4023H118.866V27.1143H115.906ZM118.898 23.4343L116.746 26.4823H118.898V23.4343ZM124.337 23.9943C124.22 23.4023 123.855 23.1063 123.241 23.1063C122.767 23.1063 122.412 23.2903 122.177 23.6583C121.943 24.021 121.828 24.621 121.833 25.4583C121.956 25.181 122.159 24.965 122.441 24.8103C122.729 24.6503 123.049 24.5703 123.401 24.5703C123.951 24.5703 124.388 24.741 124.713 25.0823C125.044 25.4237 125.209 25.8957 125.209 26.4983C125.209 26.861 125.137 27.1863 124.993 27.4743C124.855 27.7623 124.641 27.9917 124.353 28.1623C124.071 28.333 123.727 28.4183 123.321 28.4183C122.772 28.4183 122.343 28.2957 122.033 28.0503C121.724 27.805 121.508 27.4663 121.385 27.0343C121.263 26.6023 121.201 26.069 121.201 25.4343C121.201 23.477 121.884 22.4983 123.249 22.4983C123.772 22.4983 124.183 22.6397 124.481 22.9223C124.78 23.205 124.956 23.5623 125.009 23.9943H124.337ZM123.249 25.1863C123.02 25.1863 122.804 25.2343 122.601 25.3303C122.399 25.421 122.233 25.5623 122.105 25.7543C121.983 25.941 121.921 26.1703 121.921 26.4423C121.921 26.8477 122.039 27.1783 122.273 27.4343C122.508 27.685 122.844 27.8103 123.281 27.8103C123.655 27.8103 123.951 27.6957 124.169 27.4663C124.393 27.2317 124.505 26.917 124.505 26.5223C124.505 26.1063 124.399 25.781 124.185 25.5463C123.972 25.3063 123.66 25.1863 123.249 25.1863ZM133.716 23.9383C134.057 23.9383 134.361 24.0103 134.628 24.1543C134.895 24.293 135.105 24.5037 135.26 24.7863C135.415 25.069 135.492 25.413 135.492 25.8183V28.4023H134.772V25.9223C134.772 25.485 134.663 25.1517 134.444 24.9223C134.231 24.6877 133.94 24.5703 133.572 24.5703C133.193 24.5703 132.892 24.693 132.668 24.9383C132.444 25.1783 132.332 25.5277 132.332 25.9863V28.4023H131.612V25.9223C131.612 25.485 131.503 25.1517 131.284 24.9223C131.071 24.6877 130.78 24.5703 130.412 24.5703C130.033 24.5703 129.732 24.693 129.508 24.9383C129.284 25.1783 129.172 25.5277 129.172 25.9863V28.4023H128.444V24.0183H129.172V24.6503C129.316 24.421 129.508 24.245 129.748 24.1223C129.993 23.9997 130.263 23.9383 130.556 23.9383C130.924 23.9383 131.249 24.021 131.532 24.1863C131.815 24.3517 132.025 24.5943 132.164 24.9143C132.287 24.605 132.489 24.365 132.772 24.1943C133.055 24.0237 133.369 23.9383 133.716 23.9383ZM141.958 23.9383C142.3 23.9383 142.604 24.0103 142.87 24.1543C143.137 24.293 143.348 24.5037 143.502 24.7863C143.657 25.069 143.734 25.413 143.734 25.8183V28.4023H143.014V25.9223C143.014 25.485 142.905 25.1517 142.686 24.9223C142.473 24.6877 142.182 24.5703 141.814 24.5703C141.436 24.5703 141.134 24.693 140.91 24.9383C140.686 25.1783 140.574 25.5277 140.574 25.9863V28.4023H139.854V25.9223C139.854 25.485 139.745 25.1517 139.526 24.9223C139.313 24.6877 139.022 24.5703 138.654 24.5703C138.276 24.5703 137.974 24.693 137.75 24.9383C137.526 25.1783 137.414 25.5277 137.414 25.9863V28.4023H136.686V24.0183H137.414V24.6503C137.558 24.421 137.75 24.245 137.99 24.1223C138.236 23.9997 138.505 23.9383 138.798 23.9383C139.166 23.9383 139.492 24.021 139.774 24.1863C140.057 24.3517 140.268 24.5943 140.406 24.9143C140.529 24.605 140.732 24.365 141.014 24.1943C141.297 24.0237 141.612 23.9383 141.958 23.9383Z" fill="white"/>
</svg>
