<svg width="143" height="34" viewBox="0 0 143 34" fill="none" xmlns="http://www.w3.org/2000/svg">
<rect x="7.25" y="0.25" width="25.5" height="24.5" rx="12.25" stroke="white" stroke-width="0.5"/>
<path d="M14.5833 14.125V9.79167C14.5833 8.77008 14.5833 8.25983 14.9007 7.94242C15.2182 7.625 15.7284 7.625 16.75 7.625H23.25C24.2716 7.625 24.7818 7.625 25.0992 7.94242C25.4167 8.25983 25.4167 8.77008 25.4167 9.79167V14.125C25.4167 15.1466 25.4167 15.6568 25.0992 15.9743C24.7818 16.2917 24.2716 16.2917 23.25 16.2917H16.75C15.7284 16.2917 15.2182 16.2917 14.9007 15.9743C14.5833 15.6568 14.5833 15.1466 14.5833 14.125Z" stroke="white" stroke-width="0.8125" stroke-linecap="round"/>
<path d="M23.7917 9.25487V9.25M23.7917 10.8772V10.8728M23.7917 12.5V12.4951" stroke="white" stroke-width="0.8125" stroke-linecap="round" stroke-linejoin="round"/>
<path d="M16.2083 13.5833V10.3333C16.2083 9.82254 16.2083 9.56742 16.367 9.40871C16.5257 9.25 16.7809 9.25 17.2917 9.25H21.0833C21.5941 9.25 21.8492 9.25 22.008 9.40871C22.1667 9.56742 22.1667 9.82254 22.1667 10.3333V13.5833C22.1667 14.0941 22.1667 14.3492 22.008 14.508C21.8492 14.6667 21.5941 14.6667 21.0833 14.6667H17.2917C16.7809 14.6667 16.5257 14.6667 16.367 14.508C16.2083 14.3492 16.2083 14.0941 16.2083 13.5833Z" stroke="white" stroke-width="0.8125" stroke-linejoin="round"/>
<path d="M16.2083 16.292V17.3753M23.7917 16.292V17.3753" stroke="white" stroke-width="0.8125" stroke-linecap="round"/>
<path d="M4.16813 28.6265L3.57338 32H3.12975L3.57338 29.4845L2.0085 32H1.6965L1.014 29.4943L0.570375 32H0.12675L0.726375 28.6265H1.20413L1.95975 31.415L3.69525 28.6265H4.16813ZM5.10085 28.8946C5.02935 28.8946 4.96922 28.8719 4.92047 28.8264C4.87497 28.7776 4.85222 28.7175 4.85222 28.646C4.85222 28.5485 4.88797 28.4656 4.95947 28.3974C5.03097 28.3259 5.11385 28.2901 5.2081 28.2901C5.28285 28.2901 5.34297 28.3129 5.38847 28.3584C5.43397 28.4039 5.45672 28.464 5.45672 28.5387C5.45672 28.6362 5.42097 28.7207 5.34947 28.7922C5.27797 28.8605 5.1951 28.8946 5.10085 28.8946ZM5.24222 29.3285L4.76935 32H4.32572L4.7986 29.3285H5.24222ZM5.59368 30.6594C5.64243 30.3831 5.73993 30.1426 5.88618 29.9379C6.03568 29.7299 6.21931 29.569 6.43706 29.4552C6.65481 29.3415 6.89043 29.2846 7.14393 29.2846C7.47218 29.2846 7.72731 29.3642 7.90931 29.5235C8.09456 29.6827 8.19693 29.9037 8.21643 30.1865H7.73868C7.72243 30.024 7.65581 29.8956 7.53881 29.8014C7.42506 29.7071 7.27068 29.66 7.07568 29.66C6.82218 29.66 6.60118 29.7477 6.41268 29.9232C6.22743 30.0955 6.10718 30.3409 6.05193 30.6594C6.03568 30.7666 6.02756 30.856 6.02756 30.9275C6.02756 31.1647 6.09093 31.3484 6.21768 31.4784C6.34443 31.6051 6.51343 31.6685 6.72468 31.6685C6.91968 31.6685 7.08868 31.623 7.23168 31.532C7.37793 31.441 7.49006 31.311 7.56806 31.142H8.04581C7.92881 31.415 7.74843 31.6344 7.50468 31.8001C7.26093 31.9626 6.97818 32.0439 6.65643 32.0439C6.32168 32.0439 6.05518 31.948 5.85693 31.7562C5.66193 31.5645 5.56443 31.3029 5.56443 30.9714C5.56443 30.8706 5.57418 30.7666 5.59368 30.6594ZM9.31536 29.8355C9.42261 29.66 9.55749 29.5235 9.71999 29.426C9.88249 29.3285 10.0677 29.2797 10.2757 29.2797L10.1929 29.738H10.0759C9.84511 29.738 9.65174 29.7997 9.49574 29.9232C9.34299 30.0467 9.24061 30.2547 9.18861 30.5472L8.93024 32H8.48661L8.95949 29.3285H9.40311L9.31536 29.8355ZM11.4801 32.0439C11.2558 32.0439 11.0576 31.9984 10.8853 31.9074C10.7163 31.8131 10.5847 31.6831 10.4905 31.5174C10.3962 31.3484 10.3491 31.1534 10.3491 30.9324C10.3491 30.6301 10.419 30.3539 10.5587 30.1036C10.6985 29.8501 10.8902 29.6502 11.134 29.504C11.381 29.3577 11.6556 29.2846 11.9578 29.2846C12.1821 29.2846 12.3803 29.3317 12.5526 29.426C12.7281 29.517 12.863 29.647 12.9572 29.816C13.0547 29.9817 13.1035 30.1767 13.1035 30.401C13.1035 30.7032 13.032 30.9795 12.889 31.2297C12.746 31.48 12.551 31.6782 12.304 31.8245C12.057 31.9707 11.7823 32.0439 11.4801 32.0439ZM11.5337 31.6685C11.745 31.6685 11.9351 31.6116 12.1041 31.4979C12.2731 31.3809 12.4047 31.2281 12.499 31.0396C12.5965 30.8479 12.6452 30.6431 12.6452 30.4254C12.6452 30.1784 12.5737 29.9899 12.4307 29.8599C12.2877 29.7266 12.109 29.66 11.8945 29.66C11.6832 29.66 11.4947 29.7185 11.329 29.8355C11.1632 29.9492 11.0348 30.102 10.9438 30.2937C10.8528 30.4855 10.8073 30.6919 10.8073 30.9129C10.8073 31.1534 10.8756 31.3402 11.0121 31.4735C11.1486 31.6035 11.3225 31.6685 11.5337 31.6685ZM17.4551 29.3285L16.1486 32H15.6904L15.4271 29.8745L14.4034 32H13.9451L13.5795 29.3285H14.0329L14.2523 31.571L15.3053 29.3285H15.7635L16.017 31.5564L17.0164 29.3285H17.4551ZM17.4908 30.6545C17.5395 30.3815 17.637 30.1426 17.7833 29.9379C17.9328 29.7299 18.1132 29.569 18.3244 29.4552C18.5389 29.3415 18.7664 29.2846 19.0069 29.2846C19.2409 29.2846 19.4343 29.335 19.587 29.4357C19.7398 29.5365 19.8454 29.6632 19.9039 29.816L19.9917 29.3285H20.4402L19.9673 32H19.5188L19.6114 31.5027C19.4944 31.6587 19.34 31.7887 19.1483 31.8927C18.9565 31.9935 18.7453 32.0439 18.5145 32.0439C18.3065 32.0439 18.1229 32 17.9637 31.9122C17.8044 31.8212 17.6809 31.6929 17.5932 31.5271C17.5054 31.3614 17.4615 31.1696 17.4615 30.9519C17.4615 30.8544 17.4713 30.7552 17.4908 30.6545ZM19.7577 30.6594C19.7707 30.5911 19.7772 30.518 19.7772 30.44C19.7772 30.2027 19.7057 30.0159 19.5627 29.8794C19.4229 29.7396 19.2442 29.6697 19.0264 29.6697C18.8607 29.6697 18.7014 29.7087 18.5487 29.7867C18.3992 29.8647 18.2708 29.9785 18.1635 30.128C18.0563 30.2775 17.9848 30.453 17.949 30.6545C17.936 30.7227 17.9295 30.7975 17.9295 30.8787C17.9295 31.1192 17.9994 31.3094 18.1392 31.4491C18.2789 31.5856 18.4577 31.6539 18.6754 31.6539C18.8412 31.6539 18.9988 31.6149 19.1483 31.5369C19.301 31.4556 19.431 31.3402 19.5383 31.1907C19.6488 31.038 19.7219 30.8609 19.7577 30.6594ZM21.7846 31.5807L23.0131 29.3285H23.4908L21.9698 32H21.4482L20.873 29.3285H21.3507L21.7846 31.5807ZM25.0828 29.2846C25.307 29.2846 25.5004 29.3285 25.6629 29.4162C25.8286 29.5007 25.9538 29.621 26.0383 29.777C26.126 29.9297 26.1699 30.1052 26.1699 30.3035C26.1699 30.3717 26.1618 30.4546 26.1455 30.5521C26.1325 30.6366 26.1114 30.7244 26.0821 30.8154H23.9469C23.9404 30.8804 23.9371 30.9275 23.9371 30.9567C23.9371 31.181 24.0038 31.3565 24.137 31.4832C24.2735 31.6067 24.4506 31.6685 24.6684 31.6685C24.8601 31.6685 25.0275 31.6246 25.1705 31.5369C25.3168 31.4459 25.4273 31.3256 25.502 31.1761H25.9798C25.8628 31.4329 25.6824 31.6425 25.4386 31.805C25.1981 31.9642 24.9186 32.0439 24.6001 32.0439C24.2654 32.0439 23.9956 31.948 23.7909 31.7562C23.5894 31.5612 23.4886 31.2964 23.4886 30.9616C23.4886 30.8674 23.4984 30.7666 23.5179 30.6594C23.5666 30.3831 23.6658 30.141 23.8153 29.933C23.9648 29.725 24.1484 29.5657 24.3661 29.4552C24.5871 29.3415 24.826 29.2846 25.0828 29.2846ZM25.697 30.4936C25.7068 30.4286 25.7116 30.3685 25.7116 30.3132C25.7116 30.1052 25.645 29.9444 25.5118 29.8306C25.3818 29.7169 25.2111 29.66 24.9999 29.66C24.7724 29.66 24.566 29.7347 24.3808 29.8842C24.1955 30.0305 24.0704 30.2336 24.0054 30.4936H25.697ZM28.6762 30.0256L28.6079 30.401H26.6628L26.7311 30.0256H28.6762ZM30.0986 32.0439C29.8191 32.0439 29.59 31.9772 29.4113 31.844C29.2325 31.7107 29.1431 31.532 29.1431 31.3077C29.1431 31.2655 29.1448 31.2346 29.148 31.2151H29.5819C29.5689 31.3549 29.6095 31.4686 29.7038 31.5564C29.8013 31.6441 29.941 31.688 30.123 31.688C30.305 31.688 30.4513 31.6539 30.5618 31.5856C30.6755 31.5141 30.7324 31.415 30.7324 31.2882C30.7324 31.181 30.6869 31.0965 30.5959 31.0347C30.5049 30.973 30.3651 30.9064 30.1766 30.8349C30.0109 30.7731 29.8744 30.7146 29.7671 30.6594C29.6599 30.6041 29.5689 30.5277 29.4941 30.4302C29.4194 30.3295 29.382 30.2027 29.382 30.05C29.382 29.9005 29.4243 29.7672 29.5088 29.6502C29.5965 29.5332 29.7168 29.4439 29.8695 29.3821C30.0255 29.3171 30.2026 29.2846 30.4009 29.2846C30.6739 29.2846 30.8981 29.3529 31.0736 29.4894C31.2491 29.6259 31.3369 29.8046 31.3369 30.0256C31.3369 30.0679 31.3353 30.1004 31.332 30.1231H30.9079L30.9128 30.0646C30.9128 29.9346 30.8624 29.8322 30.7616 29.7575C30.6641 29.6795 30.5341 29.6405 30.3716 29.6405C30.2124 29.6405 30.0808 29.6762 29.9768 29.7477C29.876 29.8192 29.8256 29.9151 29.8256 30.0354C29.8256 30.1491 29.8728 30.2385 29.967 30.3035C30.0613 30.3685 30.2075 30.44 30.4058 30.518C30.5715 30.583 30.7048 30.6431 30.8055 30.6984C30.9063 30.7504 30.9924 30.8235 31.0639 30.9177C31.1354 31.012 31.1711 31.1306 31.1711 31.2736C31.1711 31.4296 31.124 31.5661 31.0298 31.6831C30.9388 31.8001 30.812 31.8895 30.6495 31.9512C30.487 32.013 30.3034 32.0439 30.0986 32.0439ZM31.773 30.6545C31.8218 30.3815 31.9193 30.1426 32.0655 29.9379C32.215 29.7299 32.3954 29.569 32.6066 29.4552C32.8211 29.3415 33.0486 29.2846 33.2891 29.2846C33.5231 29.2846 33.7165 29.335 33.8693 29.4357C34.022 29.5365 34.1276 29.6632 34.1861 29.816L34.2739 29.3285H34.7224L34.2495 32H33.801L33.8936 31.5027C33.7766 31.6587 33.6223 31.7887 33.4305 31.8927C33.2388 31.9935 33.0275 32.0439 32.7968 32.0439C32.5888 32.0439 32.4051 32 32.2459 31.9122C32.0866 31.8212 31.9631 31.6929 31.8754 31.5271C31.7876 31.3614 31.7438 31.1696 31.7438 30.9519C31.7438 30.8544 31.7535 30.7552 31.773 30.6545ZM34.0399 30.6594C34.0529 30.5911 34.0594 30.518 34.0594 30.44C34.0594 30.2027 33.9879 30.0159 33.8449 29.8794C33.7051 29.7396 33.5264 29.6697 33.3086 29.6697C33.1429 29.6697 32.9836 29.7087 32.8309 29.7867C32.6814 29.8647 32.553 29.9785 32.4458 30.128C32.3385 30.2775 32.267 30.453 32.2313 30.6545C32.2183 30.7227 32.2118 30.7975 32.2118 30.8787C32.2118 31.1192 32.2816 31.3094 32.4214 31.4491C32.5611 31.5856 32.7399 31.6539 32.9576 31.6539C33.1234 31.6539 33.281 31.6149 33.4305 31.5369C33.5833 31.4556 33.7133 31.3402 33.8205 31.1907C33.931 31.038 34.0041 30.8609 34.0399 30.6594ZM36.6518 28.646C36.4536 28.646 36.3073 28.685 36.2131 28.763C36.1221 28.8377 36.0619 28.9629 36.0327 29.1384L35.9986 29.3285H36.5592L36.4958 29.6941H35.9352L35.5257 32H35.0821L35.4867 29.6941H35.1454L35.2088 29.3285H35.5501L35.5842 29.1384C35.6394 28.8394 35.7564 28.6216 35.9352 28.4851C36.1139 28.3454 36.3739 28.2755 36.7152 28.2755L36.6518 28.646ZM38.2367 29.2846C38.4609 29.2846 38.6543 29.3285 38.8168 29.4162C38.9826 29.5007 39.1077 29.621 39.1922 29.777C39.2799 29.9297 39.3238 30.1052 39.3238 30.3035C39.3238 30.3717 39.3157 30.4546 39.2994 30.5521C39.2864 30.6366 39.2653 30.7244 39.2361 30.8154H37.1008C37.0943 30.8804 37.0911 30.9275 37.0911 30.9567C37.0911 31.181 37.1577 31.3565 37.2909 31.4832C37.4274 31.6067 37.6046 31.6685 37.8223 31.6685C38.0141 31.6685 38.1814 31.6246 38.3244 31.5369C38.4707 31.4459 38.5812 31.3256 38.6559 31.1761H39.1337C39.0167 31.4329 38.8363 31.6425 38.5926 31.805C38.3521 31.9642 38.0726 32.0439 37.7541 32.0439C37.4193 32.0439 37.1496 31.948 36.9448 31.7562C36.7433 31.5612 36.6426 31.2964 36.6426 30.9616C36.6426 30.8674 36.6523 30.7666 36.6718 30.6594C36.7206 30.3831 36.8197 30.141 36.9692 29.933C37.1187 29.725 37.3023 29.5657 37.5201 29.4552C37.7411 29.3415 37.9799 29.2846 38.2367 29.2846ZM38.8509 30.4936C38.8607 30.4286 38.8656 30.3685 38.8656 30.3132C38.8656 30.1052 38.7989 29.9444 38.6657 29.8306C38.5357 29.7169 38.3651 29.66 38.1538 29.66C37.9263 29.66 37.7199 29.7347 37.5347 29.8842C37.3494 30.0305 37.2243 30.2336 37.1593 30.4936H38.8509Z" fill="white"/>
<rect x="52.25" y="0.25" width="24.5" height="24.5" rx="12.25" stroke="white" stroke-width="0.5"/>
<g clip-path="url(#clip0_1467_1085)">
<path d="M62.8333 7.08301L64.5 8.74967M64.5 8.74967L66.1667 7.08301M64.5 8.74967V16.2497M59.0833 14.1663L60.75 12.4997M60.75 12.4997L59.0833 10.833M60.75 12.4997H68.25M66.1667 17.9163L64.5 16.2497M64.5 16.2497L62.8333 17.9163M69.9167 10.833L68.25 12.4997M68.25 12.4997L69.9167 14.1663M61.5833 9.58301L62.8333 10.833M62.8333 14.1663L61.5833 15.4163M67.4167 9.58301L66.1667 10.833M66.1667 14.1663L67.4167 15.4163" stroke="white" stroke-width="0.696429" stroke-linecap="round" stroke-linejoin="round"/>
</g>
<path d="M51.6471 28.6021L51.5838 28.9482H50.1115L49.9068 30.1134H51.106L51.0426 30.4595H49.8434L49.5704 32H49.1268L49.7313 28.6021H51.6471ZM52.412 29.8355C52.5193 29.66 52.6542 29.5235 52.8167 29.426C52.9792 29.3285 53.1644 29.2797 53.3724 29.2797L53.2895 29.738H53.1725C52.9418 29.738 52.7484 29.7997 52.5924 29.9232C52.4397 30.0467 52.3373 30.2547 52.2853 30.5472L52.0269 32H51.5833L52.0562 29.3285H52.4998L52.412 29.8355ZM55.035 29.2846C55.2593 29.2846 55.4526 29.3285 55.6151 29.4162C55.7809 29.5007 55.906 29.621 55.9905 29.777C56.0783 29.9297 56.1221 30.1052 56.1221 30.3035C56.1221 30.3717 56.114 30.4546 56.0978 30.5521C56.0848 30.6366 56.0636 30.7244 56.0344 30.8154H53.8991C53.8926 30.8804 53.8894 30.9275 53.8894 30.9567C53.8894 31.181 53.956 31.3565 54.0893 31.4832C54.2258 31.6067 54.4029 31.6685 54.6206 31.6685C54.8124 31.6685 54.9798 31.6246 55.1228 31.5369C55.269 31.4459 55.3795 31.3256 55.4543 31.1761H55.932C55.815 31.4329 55.6346 31.6425 55.3909 31.805C55.1504 31.9642 54.8709 32.0439 54.5524 32.0439C54.2176 32.0439 53.9479 31.948 53.7431 31.7562C53.5416 31.5612 53.4409 31.2964 53.4409 30.9616C53.4409 30.8674 53.4506 30.7666 53.4701 30.6594C53.5189 30.3831 53.618 30.141 53.7675 29.933C53.917 29.725 54.1006 29.5657 54.3184 29.4552C54.5394 29.3415 54.7783 29.2846 55.035 29.2846ZM55.6493 30.4936C55.659 30.4286 55.6639 30.3685 55.6639 30.3132C55.6639 30.1052 55.5973 29.9444 55.464 29.8306C55.334 29.7169 55.1634 29.66 54.9521 29.66C54.7246 29.66 54.5183 29.7347 54.333 29.8842C54.1478 30.0305 54.0226 30.2336 53.9576 30.4936H55.6493ZM58.0581 29.2846C58.2823 29.2846 58.4757 29.3285 58.6382 29.4162C58.804 29.5007 58.9291 29.621 59.0136 29.777C59.1013 29.9297 59.1452 30.1052 59.1452 30.3035C59.1452 30.3717 59.1371 30.4546 59.1208 30.5521C59.1078 30.6366 59.0867 30.7244 59.0575 30.8154H56.9222C56.9157 30.8804 56.9125 30.9275 56.9125 30.9567C56.9125 31.181 56.9791 31.3565 57.1123 31.4832C57.2488 31.6067 57.426 31.6685 57.6437 31.6685C57.8355 31.6685 58.0028 31.6246 58.1458 31.5369C58.2921 31.4459 58.4026 31.3256 58.4773 31.1761H58.9551C58.8381 31.4329 58.6577 31.6425 58.414 31.805C58.1735 31.9642 57.894 32.0439 57.5755 32.0439C57.2407 32.0439 56.971 31.948 56.7662 31.7562C56.5647 31.5612 56.464 31.2964 56.464 30.9616C56.464 30.8674 56.4737 30.7666 56.4932 30.6594C56.542 30.3831 56.6411 30.141 56.7906 29.933C56.9401 29.725 57.1237 29.5657 57.3415 29.4552C57.5625 29.3415 57.8013 29.2846 58.0581 29.2846ZM58.6723 30.4936C58.6821 30.4286 58.687 30.3685 58.687 30.3132C58.687 30.1052 58.6203 29.9444 58.4871 29.8306C58.3571 29.7169 58.1865 29.66 57.9752 29.66C57.7477 29.66 57.5413 29.7347 57.3561 29.8842C57.1708 30.0305 57.0457 30.2336 56.9807 30.4936H58.6723ZM59.8478 31.6344H61.1592L61.0909 32H59.2725L59.3359 31.6344L60.9788 29.6892H59.6918L59.7552 29.3285H61.5492L61.4858 29.6892L59.8478 31.6344ZM63.2997 29.2846C63.5239 29.2846 63.7173 29.3285 63.8798 29.4162C64.0455 29.5007 64.1707 29.621 64.2552 29.777C64.3429 29.9297 64.3868 30.1052 64.3868 30.3035C64.3868 30.3717 64.3787 30.4546 64.3624 30.5521C64.3494 30.6366 64.3283 30.7244 64.299 30.8154H62.1638C62.1573 30.8804 62.154 30.9275 62.154 30.9567C62.154 31.181 62.2207 31.3565 62.3539 31.4832C62.4904 31.6067 62.6675 31.6685 62.8853 31.6685C63.077 31.6685 63.2444 31.6246 63.3874 31.5369C63.5337 31.4459 63.6442 31.3256 63.7189 31.1761H64.1967C64.0797 31.4329 63.8993 31.6425 63.6555 31.805C63.415 31.9642 63.1355 32.0439 62.817 32.0439C62.4823 32.0439 62.2125 31.948 62.0078 31.7562C61.8063 31.5612 61.7055 31.2964 61.7055 30.9616C61.7055 30.8674 61.7153 30.7666 61.7348 30.6594C61.7835 30.3831 61.8827 30.141 62.0322 29.933C62.1817 29.725 62.3653 29.5657 62.583 29.4552C62.804 29.3415 63.0429 29.2846 63.2997 29.2846ZM63.9139 30.4936C63.9237 30.4286 63.9285 30.3685 63.9285 30.3132C63.9285 30.1052 63.8619 29.9444 63.7287 29.8306C63.5987 29.7169 63.428 29.66 63.2168 29.66C62.9893 29.66 62.7829 29.7347 62.5977 29.8842C62.4124 30.0305 62.2873 30.2336 62.2223 30.4936H63.9139ZM65.5184 29.8355C65.6256 29.66 65.7605 29.5235 65.923 29.426C66.0855 29.3285 66.2707 29.2797 66.4787 29.2797L66.3959 29.738H66.2789C66.0481 29.738 65.8547 29.7997 65.6987 29.9232C65.546 30.0467 65.4436 30.2547 65.3916 30.5472L65.1332 32H64.6896L65.1625 29.3285H65.6061L65.5184 29.8355ZM68.7117 30.0256L68.6435 30.401H66.6983L66.7666 30.0256H68.7117ZM70.1342 32.0439C69.8547 32.0439 69.6255 31.9772 69.4468 31.844C69.268 31.7107 69.1787 31.532 69.1787 31.3077C69.1787 31.2655 69.1803 31.2346 69.1835 31.2151H69.6174C69.6044 31.3549 69.645 31.4686 69.7393 31.5564C69.8368 31.6441 69.9765 31.688 70.1585 31.688C70.3405 31.688 70.4868 31.6539 70.5973 31.5856C70.711 31.5141 70.7679 31.415 70.7679 31.2882C70.7679 31.181 70.7224 31.0965 70.6314 31.0347C70.5404 30.973 70.4007 30.9064 70.2122 30.8349C70.0464 30.7731 69.9099 30.7146 69.8027 30.6594C69.6954 30.6041 69.6044 30.5277 69.5297 30.4302C69.4549 30.3295 69.4175 30.2027 69.4175 30.05C69.4175 29.9005 69.4598 29.7672 69.5443 29.6502C69.632 29.5332 69.7523 29.4439 69.905 29.3821C70.061 29.3171 70.2382 29.2846 70.4364 29.2846C70.7094 29.2846 70.9337 29.3529 71.1092 29.4894C71.2847 29.6259 71.3724 29.8046 71.3724 30.0256C71.3724 30.0679 71.3708 30.1004 71.3675 30.1231H70.9434L70.9483 30.0646C70.9483 29.9346 70.8979 29.8322 70.7972 29.7575C70.6997 29.6795 70.5697 29.6405 70.4072 29.6405C70.2479 29.6405 70.1163 29.6762 70.0123 29.7477C69.9115 29.8192 69.8612 29.9151 69.8612 30.0354C69.8612 30.1491 69.9083 30.2385 70.0025 30.3035C70.0968 30.3685 70.243 30.44 70.4413 30.518C70.607 30.583 70.7403 30.6431 70.841 30.6984C70.9418 30.7504 71.0279 30.8235 71.0994 30.9177C71.1709 31.012 71.2067 31.1306 71.2067 31.2736C71.2067 31.4296 71.1595 31.5661 71.0653 31.6831C70.9743 31.8001 70.8475 31.8895 70.685 31.9512C70.5225 32.013 70.3389 32.0439 70.1342 32.0439ZM71.8085 30.6545C71.8573 30.3815 71.9548 30.1426 72.101 29.9379C72.2505 29.7299 72.4309 29.569 72.6422 29.4552C72.8567 29.3415 73.0842 29.2846 73.3247 29.2846C73.5587 29.2846 73.752 29.335 73.9048 29.4357C74.0575 29.5365 74.1632 29.6632 74.2217 29.816L74.3094 29.3285H74.7579L74.285 32H73.8365L73.9292 31.5027C73.8122 31.6587 73.6578 31.7887 73.466 31.8927C73.2743 31.9935 73.063 32.0439 72.8323 32.0439C72.6243 32.0439 72.4407 32 72.2814 31.9122C72.1222 31.8212 71.9987 31.6929 71.9109 31.5271C71.8232 31.3614 71.7793 31.1696 71.7793 30.9519C71.7793 30.8544 71.789 30.7552 71.8085 30.6545ZM74.0754 30.6594C74.0884 30.5911 74.0949 30.518 74.0949 30.44C74.0949 30.2027 74.0234 30.0159 73.8804 29.8794C73.7407 29.7396 73.5619 29.6697 73.3442 29.6697C73.1784 29.6697 73.0192 29.7087 72.8664 29.7867C72.7169 29.8647 72.5885 29.9785 72.4813 30.128C72.374 30.2775 72.3025 30.453 72.2668 30.6545C72.2538 30.7227 72.2473 30.7975 72.2473 30.8787C72.2473 31.1192 72.3172 31.3094 72.4569 31.4491C72.5967 31.5856 72.7754 31.6539 72.9932 31.6539C73.1589 31.6539 73.3165 31.6149 73.466 31.5369C73.6188 31.4556 73.7488 31.3402 73.856 31.1907C73.9665 31.038 74.0397 30.8609 74.0754 30.6594ZM76.6873 28.646C76.4891 28.646 76.3428 28.685 76.2486 28.763C76.1576 28.8377 76.0975 28.9629 76.0682 29.1384L76.0341 29.3285H76.5947L76.5313 29.6941H75.9707L75.5612 32H75.1176L75.5222 29.6941H75.181L75.2443 29.3285H75.5856L75.6197 29.1384C75.675 28.8394 75.792 28.6216 75.9707 28.4851C76.1495 28.3454 76.4095 28.2755 76.7507 28.2755L76.6873 28.646ZM78.2722 29.2846C78.4965 29.2846 78.6898 29.3285 78.8523 29.4162C79.0181 29.5007 79.1432 29.621 79.2277 29.777C79.3155 29.9297 79.3593 30.1052 79.3593 30.3035C79.3593 30.3717 79.3512 30.4546 79.335 30.5521C79.322 30.6366 79.3008 30.7244 79.2716 30.8154H77.1363C77.1298 30.8804 77.1266 30.9275 77.1266 30.9567C77.1266 31.181 77.1932 31.3565 77.3265 31.4832C77.463 31.6067 77.6401 31.6685 77.8578 31.6685C78.0496 31.6685 78.217 31.6246 78.36 31.5369C78.5062 31.4459 78.6167 31.3256 78.6915 31.1761H79.1692C79.0522 31.4329 78.8718 31.6425 78.6281 31.805C78.3876 31.9642 78.1081 32.0439 77.7896 32.0439C77.4548 32.0439 77.1851 31.948 76.9803 31.7562C76.7788 31.5612 76.6781 31.2964 76.6781 30.9616C76.6781 30.8674 76.6878 30.7666 76.7073 30.6594C76.7561 30.3831 76.8552 30.141 77.0047 29.933C77.1542 29.725 77.3378 29.5657 77.5556 29.4552C77.7766 29.3415 78.0155 29.2846 78.2722 29.2846ZM78.8865 30.4936C78.8962 30.4286 78.9011 30.3685 78.9011 30.3132C78.9011 30.1052 78.8345 29.9444 78.7012 29.8306C78.5712 29.7169 78.4006 29.66 78.1893 29.66C77.9618 29.66 77.7555 29.7347 77.5702 29.8842C77.385 30.0305 77.2598 30.2336 77.1948 30.4936H78.8865Z" fill="white"/>
<rect x="103.75" y="0.25" width="24.5" height="24.5" rx="12.25" stroke="white" stroke-width="0.5"/>
<g clip-path="url(#clip1_1467_1085)">
<path d="M119.931 14.0774C119.444 14.3734 118.885 14.5291 118.315 14.5273C117.838 14.5235 117.365 14.4258 116.926 14.2399C116.587 14.7184 116.405 15.2906 116.407 15.877V17.3746C116.407 17.4303 116.395 17.4854 116.373 17.5365C116.351 17.5877 116.319 17.6337 116.278 17.6718C116.238 17.7099 116.19 17.7392 116.137 17.758C116.085 17.7767 116.029 17.7845 115.974 17.7808C115.869 17.7717 115.772 17.7235 115.702 17.6458C115.631 17.5681 115.593 17.4667 115.594 17.3619V16.7302L113.633 14.769C113.341 14.8778 113.033 14.9346 112.722 14.9371C112.294 14.9382 111.873 14.821 111.507 14.5984C110.401 13.926 109.805 12.3787 109.92 10.4577C109.926 10.3583 109.968 10.2645 110.039 10.1941C110.109 10.1237 110.203 10.0816 110.302 10.0758C112.223 9.96255 113.771 10.5562 114.441 11.6627C114.704 12.0964 114.819 12.6041 114.768 13.109C114.765 13.1481 114.751 13.1854 114.727 13.2165C114.703 13.2476 114.671 13.2711 114.634 13.2842C114.597 13.2972 114.557 13.2993 114.518 13.2901C114.48 13.2809 114.446 13.2608 114.419 13.2324L113.444 12.2117C113.367 12.1387 113.264 12.0986 113.159 12.1C113.053 12.1013 112.951 12.144 112.877 12.2189C112.802 12.2938 112.759 12.395 112.758 12.501C112.756 12.6069 112.796 12.7092 112.869 12.786L115.605 15.5917C115.608 15.552 115.612 15.5124 115.616 15.4733C115.705 14.7201 116.037 14.0165 116.563 13.4695L119.132 10.7547C119.208 10.6786 119.251 10.5753 119.251 10.4675C119.251 10.3597 119.208 10.2564 119.132 10.1801C119.056 10.1039 118.952 10.0611 118.845 10.061C118.737 10.061 118.633 10.1037 118.557 10.1799L116.069 12.8114C116.044 12.8378 116.013 12.857 115.978 12.8671C115.943 12.8771 115.906 12.8777 115.871 12.8687C115.836 12.8597 115.804 12.8414 115.778 12.8158C115.752 12.7902 115.734 12.7581 115.725 12.723C115.484 11.8354 115.59 10.9518 116.05 10.1931C116.957 8.69607 119.067 7.89474 121.696 8.04911C121.795 8.05492 121.889 8.09702 121.959 8.16741C122.03 8.23781 122.072 8.3316 122.077 8.43099C122.23 11.0599 121.428 13.1704 119.931 14.0774Z" fill="white"/>
</g>
<path d="M92.6471 28.6021L92.5838 28.9482H91.1115L90.9068 30.1134H92.106L92.0426 30.4595H90.8434L90.5704 32H90.1268L90.7313 28.6021H92.6471ZM93.7582 32.0439C93.5339 32.0439 93.3357 31.9984 93.1634 31.9074C92.9944 31.8131 92.8628 31.6831 92.7685 31.5174C92.6743 31.3484 92.6272 31.1534 92.6272 30.9324C92.6272 30.6301 92.697 30.3539 92.8368 30.1036C92.9765 29.8501 93.1683 29.6502 93.412 29.504C93.659 29.3577 93.9337 29.2846 94.2359 29.2846C94.4602 29.2846 94.6584 29.3317 94.8307 29.426C95.0062 29.517 95.141 29.647 95.2353 29.816C95.3328 29.9817 95.3815 30.1767 95.3815 30.401C95.3815 30.7032 95.31 30.9795 95.167 31.2297C95.024 31.48 94.829 31.6782 94.582 31.8245C94.335 31.9707 94.0604 32.0439 93.7582 32.0439ZM93.8118 31.6685C94.023 31.6685 94.2132 31.6116 94.3822 31.4979C94.5512 31.3809 94.6828 31.2281 94.777 31.0396C94.8745 30.8479 94.9233 30.6431 94.9233 30.4254C94.9233 30.1784 94.8518 29.9899 94.7088 29.8599C94.5658 29.7266 94.387 29.66 94.1725 29.66C93.9613 29.66 93.7728 29.7185 93.607 29.8355C93.4413 29.9492 93.3129 30.102 93.2219 30.2937C93.1309 30.4855 93.0854 30.6919 93.0854 30.9129C93.0854 31.1534 93.1537 31.3402 93.2902 31.4735C93.4267 31.6035 93.6005 31.6685 93.8118 31.6685ZM96.8765 32.0439C96.6522 32.0439 96.454 31.9984 96.2817 31.9074C96.1127 31.8131 95.9811 31.6831 95.8868 31.5174C95.7926 31.3484 95.7455 31.1534 95.7455 30.9324C95.7455 30.6301 95.8153 30.3539 95.9551 30.1036C96.0948 29.8501 96.2866 29.6502 96.5303 29.504C96.7773 29.3577 97.052 29.2846 97.3542 29.2846C97.5785 29.2846 97.7767 29.3317 97.949 29.426C98.1245 29.517 98.2593 29.647 98.3536 29.816C98.4511 29.9817 98.4998 30.1767 98.4998 30.401C98.4998 30.7032 98.4283 30.9795 98.2853 31.2297C98.1423 31.48 97.9473 31.6782 97.7003 31.8245C97.4533 31.9707 97.1787 32.0439 96.8765 32.0439ZM96.9301 31.6685C97.1413 31.6685 97.3315 31.6116 97.5005 31.4979C97.6695 31.3809 97.8011 31.2281 97.8953 31.0396C97.9928 30.8479 98.0416 30.6431 98.0416 30.4254C98.0416 30.1784 97.9701 29.9899 97.8271 29.8599C97.6841 29.7266 97.5053 29.66 97.2908 29.66C97.0796 29.66 96.8911 29.7185 96.7253 29.8355C96.5596 29.9492 96.4312 30.102 96.3402 30.2937C96.2492 30.4855 96.2037 30.6919 96.2037 30.9129C96.2037 31.1534 96.272 31.3402 96.4085 31.4735C96.545 31.6035 96.7188 31.6685 96.9301 31.6685ZM98.8881 30.6545C98.9369 30.3815 99.0344 30.1426 99.1806 29.9379C99.3301 29.7299 99.5121 29.569 99.7266 29.4552C99.9411 29.3415 100.169 29.2846 100.409 29.2846C100.614 29.2846 100.797 29.3334 100.96 29.4309C101.122 29.5251 101.238 29.6502 101.306 29.8062L101.555 28.3925H102.003L101.365 32H100.916L101.009 31.4979C100.895 31.6571 100.742 31.7887 100.55 31.8927C100.359 31.9935 100.147 32.0439 99.9167 32.0439C99.7087 32.0439 99.5251 32 99.3659 31.9122C99.2066 31.8212 99.0815 31.6929 98.9905 31.5271C98.9027 31.3614 98.8589 31.1696 98.8589 30.9519C98.8589 30.8544 98.8686 30.7552 98.8881 30.6545ZM101.155 30.6594C101.168 30.5911 101.174 30.518 101.174 30.44C101.174 30.2027 101.103 30.0159 100.96 29.8794C100.82 29.7396 100.641 29.6697 100.424 29.6697C100.258 29.6697 100.099 29.7087 99.946 29.7867C99.7965 29.8647 99.6681 29.9785 99.5609 30.128C99.4536 30.2775 99.3821 30.453 99.3464 30.6545C99.3334 30.7227 99.3269 30.7975 99.3269 30.8787C99.3269 31.1192 99.3967 31.3094 99.5365 31.4491C99.6762 31.5856 99.855 31.6539 100.073 31.6539C100.238 31.6539 100.396 31.6149 100.546 31.5369C100.698 31.4556 100.828 31.3402 100.936 31.1907C101.046 31.038 101.119 30.8609 101.155 30.6594ZM104.318 30.0256L104.25 30.401H102.304L102.373 30.0256H104.318ZM106.384 29.2846C106.614 29.2846 106.808 29.335 106.964 29.4357C107.12 29.5365 107.225 29.6632 107.281 29.816L107.368 29.3285H107.817L107.334 32.0585C107.292 32.3023 107.201 32.5184 107.061 32.7069C106.925 32.8986 106.751 33.0481 106.54 33.1554C106.328 33.2626 106.094 33.3163 105.838 33.3163C105.487 33.3163 105.209 33.2318 105.004 33.0628C104.799 32.897 104.7 32.6728 104.707 32.39H105.15C105.17 32.5525 105.246 32.6825 105.379 32.78C105.516 32.8808 105.691 32.9311 105.906 32.9311C106.15 32.9311 106.363 32.8548 106.545 32.702C106.727 32.5493 106.842 32.3348 106.891 32.0585L106.988 31.4979C106.871 31.6539 106.717 31.7839 106.525 31.8879C106.337 31.9919 106.127 32.0439 105.896 32.0439C105.688 32.0439 105.505 32 105.345 31.9122C105.186 31.8212 105.061 31.6929 104.97 31.5271C104.882 31.3614 104.838 31.1696 104.838 30.9519C104.838 30.8544 104.848 30.7552 104.868 30.6545C104.916 30.3815 105.014 30.1426 105.16 29.9379C105.31 29.7299 105.49 29.569 105.701 29.4552C105.916 29.3415 106.143 29.2846 106.384 29.2846ZM107.134 30.6594C107.147 30.5911 107.154 30.518 107.154 30.44C107.154 30.2027 107.082 30.0159 106.939 29.8794C106.8 29.7396 106.621 29.6697 106.403 29.6697C106.237 29.6697 106.078 29.7087 105.925 29.7867C105.776 29.8647 105.648 29.9785 105.54 30.128C105.433 30.2775 105.362 30.453 105.326 30.6545C105.313 30.7227 105.306 30.7975 105.306 30.8787C105.306 31.1192 105.376 31.3094 105.516 31.4491C105.656 31.5856 105.834 31.6539 106.052 31.6539C106.218 31.6539 106.376 31.6149 106.525 31.5369C106.678 31.4556 106.808 31.3402 106.915 31.1907C107.026 31.038 107.099 30.8609 107.134 30.6594ZM108.923 29.8355C109.03 29.66 109.165 29.5235 109.327 29.426C109.49 29.3285 109.675 29.2797 109.883 29.2797L109.8 29.738H109.683C109.452 29.738 109.259 29.7997 109.103 29.9232C108.95 30.0467 108.848 30.2547 108.796 30.5472L108.537 32H108.094L108.567 29.3285H109.01L108.923 29.8355ZM109.981 30.6545C110.029 30.3815 110.127 30.1426 110.273 29.9379C110.423 29.7299 110.603 29.569 110.814 29.4552C111.029 29.3415 111.256 29.2846 111.497 29.2846C111.731 29.2846 111.924 29.335 112.077 29.4357C112.23 29.5365 112.335 29.6632 112.394 29.816L112.482 29.3285H112.93L112.457 32H112.009L112.101 31.5027C111.984 31.6587 111.83 31.7887 111.638 31.8927C111.446 31.9935 111.235 32.0439 111.004 32.0439C110.796 32.0439 110.613 32 110.454 31.9122C110.294 31.8212 110.171 31.6929 110.083 31.5271C109.995 31.3614 109.951 31.1696 109.951 30.9519C109.951 30.8544 109.961 30.7552 109.981 30.6545ZM112.248 30.6594C112.261 30.5911 112.267 30.518 112.267 30.44C112.267 30.2027 112.196 30.0159 112.053 29.8794C111.913 29.7396 111.734 29.6697 111.516 29.6697C111.351 29.6697 111.191 29.7087 111.039 29.7867C110.889 29.8647 110.761 29.9785 110.653 30.128C110.546 30.2775 110.475 30.453 110.439 30.6545C110.426 30.7227 110.419 30.7975 110.419 30.8787C110.419 31.1192 110.489 31.3094 110.629 31.4491C110.769 31.5856 110.948 31.6539 111.165 31.6539C111.331 31.6539 111.489 31.6149 111.638 31.5369C111.791 31.4556 111.921 31.3402 112.028 31.1907C112.139 31.038 112.212 30.8609 112.248 30.6594ZM113.275 30.6545C113.324 30.3815 113.421 30.1426 113.568 29.9379C113.717 29.7299 113.899 29.569 114.114 29.4552C114.328 29.3415 114.556 29.2846 114.796 29.2846C115.001 29.2846 115.184 29.3334 115.347 29.4309C115.509 29.5251 115.625 29.6502 115.693 29.8062L115.942 28.3925H116.39L115.752 32H115.303L115.396 31.4979C115.282 31.6571 115.129 31.7887 114.937 31.8927C114.746 31.9935 114.534 32.0439 114.304 32.0439C114.096 32.0439 113.912 32 113.753 31.9122C113.594 31.8212 113.468 31.6929 113.377 31.5271C113.29 31.3614 113.246 31.1696 113.246 30.9519C113.246 30.8544 113.256 30.7552 113.275 30.6545ZM115.542 30.6594C115.555 30.5911 115.561 30.518 115.561 30.44C115.561 30.2027 115.49 30.0159 115.347 29.8794C115.207 29.7396 115.028 29.6697 114.811 29.6697C114.645 29.6697 114.486 29.7087 114.333 29.7867C114.183 29.8647 114.055 29.9785 113.948 30.128C113.841 30.2775 113.769 30.453 113.733 30.6545C113.72 30.7227 113.714 30.7975 113.714 30.8787C113.714 31.1192 113.784 31.3094 113.923 31.4491C114.063 31.5856 114.242 31.6539 114.46 31.6539C114.625 31.6539 114.783 31.6149 114.933 31.5369C115.085 31.4556 115.215 31.3402 115.323 31.1907C115.433 31.038 115.506 30.8609 115.542 30.6594ZM118.134 29.2846C118.359 29.2846 118.552 29.3285 118.715 29.4162C118.88 29.5007 119.005 29.621 119.09 29.777C119.178 29.9297 119.222 30.1052 119.222 30.3035C119.222 30.3717 119.213 30.4546 119.197 30.5521C119.184 30.6366 119.163 30.7244 119.134 30.8154H116.999C116.992 30.8804 116.989 30.9275 116.989 30.9567C116.989 31.181 117.055 31.3565 117.189 31.4832C117.325 31.6067 117.502 31.6685 117.72 31.6685C117.912 31.6685 118.079 31.6246 118.222 31.5369C118.368 31.4459 118.479 31.3256 118.554 31.1761H119.031C118.914 31.4329 118.734 31.6425 118.49 31.805C118.25 31.9642 117.97 32.0439 117.652 32.0439C117.317 32.0439 117.047 31.948 116.843 31.7562C116.641 31.5612 116.54 31.2964 116.54 30.9616C116.54 30.8674 116.55 30.7666 116.57 30.6594C116.618 30.3831 116.717 30.141 116.867 29.933C117.016 29.725 117.2 29.5657 117.418 29.4552C117.639 29.3415 117.878 29.2846 118.134 29.2846ZM118.749 30.4936C118.758 30.4286 118.763 30.3685 118.763 30.3132C118.763 30.1052 118.697 29.9444 118.563 29.8306C118.433 29.7169 118.263 29.66 118.052 29.66C117.824 29.66 117.618 29.7347 117.432 29.8842C117.247 30.0305 117.122 30.2336 117.057 30.4936H118.749ZM124.672 29.2797C124.945 29.2797 125.162 29.3545 125.325 29.504C125.491 29.6502 125.573 29.8647 125.573 30.1475C125.573 30.2515 125.565 30.3441 125.549 30.4254L125.271 32H124.832L125.101 30.4887C125.114 30.4205 125.12 30.3474 125.12 30.2694C125.12 30.0711 125.066 29.9216 124.959 29.8209C124.855 29.7169 124.707 29.6649 124.516 29.6649C124.295 29.6649 124.104 29.7331 123.945 29.8696C123.789 30.0029 123.682 30.1962 123.623 30.4497L123.346 32H122.907L123.175 30.4887C123.188 30.414 123.194 30.3392 123.194 30.2645C123.194 30.0695 123.141 29.9216 123.034 29.8209C122.93 29.7169 122.782 29.6649 122.59 29.6649C122.359 29.6649 122.163 29.7396 122 29.8891C121.838 30.0354 121.732 30.2482 121.683 30.5277V30.518L121.42 32H120.976L121.449 29.3285H121.893L121.825 29.7136C121.935 29.5739 122.072 29.4666 122.234 29.3919C122.397 29.3171 122.567 29.2797 122.746 29.2797C122.97 29.2797 123.159 29.3301 123.311 29.4309C123.467 29.5316 123.57 29.6795 123.619 29.8745C123.729 29.686 123.879 29.5397 124.067 29.4357C124.259 29.3317 124.46 29.2797 124.672 29.2797ZM126.067 30.6545C126.116 30.3815 126.213 30.1426 126.36 29.9379C126.509 29.7299 126.69 29.569 126.901 29.4552C127.115 29.3415 127.343 29.2846 127.583 29.2846C127.817 29.2846 128.011 29.335 128.163 29.4357C128.316 29.5365 128.422 29.6632 128.48 29.816L128.568 29.3285H129.017L128.544 32H128.095L128.188 31.5027C128.071 31.6587 127.916 31.7887 127.725 31.8927C127.533 31.9935 127.322 32.0439 127.091 32.0439C126.883 32.0439 126.699 32 126.54 31.9122C126.381 31.8212 126.257 31.6929 126.17 31.5271C126.082 31.3614 126.038 31.1696 126.038 30.9519C126.038 30.8544 126.048 30.7552 126.067 30.6545ZM128.334 30.6594C128.347 30.5911 128.354 30.518 128.354 30.44C128.354 30.2027 128.282 30.0159 128.139 29.8794C127.999 29.7396 127.821 29.6697 127.603 29.6697C127.437 29.6697 127.278 29.7087 127.125 29.7867C126.976 29.8647 126.847 29.9785 126.74 30.128C126.633 30.2775 126.561 30.453 126.525 30.6545C126.512 30.7227 126.506 30.7975 126.506 30.8787C126.506 31.1192 126.576 31.3094 126.716 31.4491C126.855 31.5856 127.034 31.6539 127.252 31.6539C127.418 31.6539 127.575 31.6149 127.725 31.5369C127.877 31.4556 128.007 31.3402 128.115 31.1907C128.225 31.038 128.298 30.8609 128.334 30.6594ZM129.966 31.2687C129.956 31.3175 129.952 31.3597 129.952 31.3955C129.952 31.4767 129.976 31.5352 130.025 31.571C130.077 31.6067 130.16 31.6246 130.273 31.6246H130.6L130.532 32H130.132C129.921 32 129.761 31.9594 129.654 31.8781C129.55 31.7969 129.498 31.6636 129.498 31.4784C129.498 31.4069 129.505 31.337 129.518 31.2687L129.796 29.6941H129.454L129.518 29.3285H129.864L129.981 28.6557H130.429L130.312 29.3285H131.005L130.941 29.6941H130.244L129.966 31.2687ZM132.702 29.2846C132.927 29.2846 133.12 29.3285 133.282 29.4162C133.448 29.5007 133.573 29.621 133.658 29.777C133.746 29.9297 133.789 30.1052 133.789 30.3035C133.789 30.3717 133.781 30.4546 133.765 30.5521C133.752 30.6366 133.731 30.7244 133.702 30.8154H131.566C131.56 30.8804 131.557 30.9275 131.557 30.9567C131.557 31.181 131.623 31.3565 131.757 31.4832C131.893 31.6067 132.07 31.6685 132.288 31.6685C132.48 31.6685 132.647 31.6246 132.79 31.5369C132.936 31.4459 133.047 31.3256 133.122 31.1761H133.599C133.482 31.4329 133.302 31.6425 133.058 31.805C132.818 31.9642 132.538 32.0439 132.22 32.0439C131.885 32.0439 131.615 31.948 131.41 31.7562C131.209 31.5612 131.108 31.2964 131.108 30.9616C131.108 30.8674 131.118 30.7666 131.137 30.6594C131.186 30.3831 131.285 30.141 131.435 29.933C131.584 29.725 131.768 29.5657 131.986 29.4552C132.207 29.3415 132.446 29.2846 132.702 29.2846ZM133.317 30.4936C133.326 30.4286 133.331 30.3685 133.331 30.3132C133.331 30.1052 133.265 29.9444 133.131 29.8306C133.001 29.7169 132.831 29.66 132.619 29.66C132.392 29.66 132.186 29.7347 132 29.8842C131.815 30.0305 131.69 30.2336 131.625 30.4936H133.317ZM134.921 29.8355C135.028 29.66 135.163 29.5235 135.326 29.426C135.488 29.3285 135.673 29.2797 135.881 29.2797L135.798 29.738H135.681C135.451 29.738 135.257 29.7997 135.101 29.9232C134.949 30.0467 134.846 30.2547 134.794 30.5472L134.536 32H134.092L134.565 29.3285H135.009L134.921 29.8355ZM136.686 28.8946C136.614 28.8946 136.554 28.8719 136.506 28.8264C136.46 28.7776 136.437 28.7175 136.437 28.646C136.437 28.5485 136.473 28.4656 136.545 28.3974C136.616 28.3259 136.699 28.2901 136.793 28.2901C136.868 28.2901 136.928 28.3129 136.974 28.3584C137.019 28.4039 137.042 28.464 137.042 28.5387C137.042 28.6362 137.006 28.7207 136.935 28.7922C136.863 28.8605 136.78 28.8946 136.686 28.8946ZM136.827 29.3285L136.354 32H135.911L136.384 29.3285H136.827ZM137.179 30.6545C137.228 30.3815 137.325 30.1426 137.471 29.9379C137.621 29.7299 137.801 29.569 138.012 29.4552C138.227 29.3415 138.454 29.2846 138.695 29.2846C138.929 29.2846 139.122 29.335 139.275 29.4357C139.428 29.5365 139.533 29.6632 139.592 29.816L139.68 29.3285H140.128L139.655 32H139.207L139.299 31.5027C139.182 31.6587 139.028 31.7887 138.836 31.8927C138.645 31.9935 138.433 32.0439 138.203 32.0439C137.995 32.0439 137.811 32 137.652 31.9122C137.492 31.8212 137.369 31.6929 137.281 31.5271C137.193 31.3614 137.15 31.1696 137.15 30.9519C137.15 30.8544 137.159 30.7552 137.179 30.6545ZM139.446 30.6594C139.459 30.5911 139.465 30.518 139.465 30.44C139.465 30.2027 139.394 30.0159 139.251 29.8794C139.111 29.7396 138.932 29.6697 138.714 29.6697C138.549 29.6697 138.389 29.7087 138.237 29.7867C138.087 29.8647 137.959 29.9785 137.852 30.128C137.744 30.2775 137.673 30.453 137.637 30.6545C137.624 30.7227 137.618 30.7975 137.618 30.8787C137.618 31.1192 137.687 31.3094 137.827 31.4491C137.967 31.5856 138.146 31.6539 138.363 31.6539C138.529 31.6539 138.687 31.6149 138.836 31.5369C138.989 31.4556 139.119 31.3402 139.226 31.1907C139.337 31.038 139.41 30.8609 139.446 30.6594ZM141.487 28.3925L140.849 32H140.405L141.044 28.3925H141.487Z" fill="white"/>
<defs>
<clipPath id="clip0_1467_1085">
<rect width="13" height="13" fill="white" transform="translate(58 6)"/>
</clipPath>
<clipPath id="clip1_1467_1085">
<rect width="13" height="13" fill="white" transform="translate(109.5 6)"/>
</clipPath>
</defs>
</svg>
