<svg width="144" height="37" viewBox="0 0 144 37" fill="none" xmlns="http://www.w3.org/2000/svg">
<rect x="10" width="36.5" height="36.5" rx="18.25" fill="white"/>
<path d="M28.2489 14.2917C28.4732 14.2917 28.6614 14.2157 28.8134 14.0637C28.9654 13.9117 29.0411 13.7238 29.0406 13.5C29.0401 13.2762 28.9641 13.0883 28.8126 12.9363C28.6611 12.7843 28.4732 12.7083 28.2489 12.7083C28.0246 12.7083 27.8367 12.7843 27.6853 12.9363C27.5338 13.0883 27.4578 13.2762 27.4573 13.5C27.4567 13.7238 27.5327 13.9119 27.6853 14.0645C27.8378 14.217 28.0257 14.2927 28.2489 14.2917ZM30.4854 14.2917H31.8708C32.2666 14.2917 32.6097 14.4236 32.9 14.6875C33.1903 14.9514 33.3684 15.2747 33.4343 15.6573L34.5625 23.574C34.6284 24.049 34.5065 24.468 34.1967 24.8311C33.8869 25.1942 33.4877 25.3755 32.9989 25.375H23.4989C23.0107 25.375 22.6115 25.1937 22.3011 24.8311C21.9908 24.4685 21.8689 24.0495 21.9354 23.574L23.0635 15.6573C23.1295 15.2747 23.3076 14.9514 23.5979 14.6875C23.8882 14.4236 24.2312 14.2917 24.6271 14.2917H26.0125C25.9729 14.1597 25.9399 14.0312 25.9135 13.9061C25.8871 13.781 25.8739 13.6457 25.8739 13.5C25.8739 12.8403 26.1048 12.2795 26.5666 11.8177C27.0284 11.3559 27.5892 11.125 28.2489 11.125C28.9087 11.125 29.4694 11.3559 29.9312 11.8177C30.393 12.2795 30.6239 12.8403 30.6239 13.5C30.6239 13.6451 30.6107 13.7805 30.5843 13.9061C30.558 14.0317 30.525 14.1603 30.4854 14.2917Z" fill="#564906"/>
<path d="M62.925 7.86766L60.68 15.0977H59.465L57.885 10.1577C57.8417 10.0377 57.8017 9.89099 57.765 9.71766C57.745 9.80099 57.725 9.87932 57.705 9.95266C57.685 10.026 57.6633 10.0943 57.64 10.1577L56.045 15.0977H54.825L52.585 7.86766H53.71C53.8267 7.86766 53.9233 7.89599 54 7.95266C54.08 8.00599 54.1333 8.07932 54.16 8.17266L55.39 12.4977C55.4167 12.6043 55.4417 12.721 55.465 12.8477C55.4917 12.971 55.5183 13.101 55.545 13.2377C55.5717 13.0977 55.6 12.966 55.63 12.8427C55.6633 12.7193 55.6983 12.6043 55.735 12.4977L57.155 8.17266C57.1817 8.09599 57.2333 8.02599 57.31 7.96266C57.39 7.89932 57.4867 7.86766 57.6 7.86766H57.995C58.1117 7.86766 58.2067 7.89599 58.28 7.95266C58.3533 8.00932 58.4083 8.08266 58.445 8.17266L59.86 12.4977C59.93 12.7043 59.9933 12.9427 60.05 13.2127C60.0933 12.9493 60.1417 12.711 60.195 12.4977L61.425 8.17266C61.445 8.08932 61.495 8.01766 61.575 7.95766C61.6583 7.89766 61.7567 7.86766 61.87 7.86766H62.925ZM66.3173 11.9427C66.3173 11.7827 66.294 11.6327 66.2473 11.4927C66.204 11.3493 66.1373 11.2243 66.0473 11.1177C65.9573 11.011 65.8423 10.9277 65.7023 10.8677C65.5657 10.8043 65.4057 10.7727 65.2223 10.7727C64.8657 10.7727 64.584 10.8743 64.3773 11.0777C64.174 11.281 64.044 11.5693 63.9873 11.9427H66.3173ZM63.9623 12.6877C63.9823 12.951 64.029 13.1793 64.1023 13.3727C64.1757 13.5627 64.2723 13.721 64.3923 13.8477C64.5123 13.971 64.654 14.0643 64.8173 14.1277C64.984 14.1877 65.1673 14.2177 65.3673 14.2177C65.5673 14.2177 65.739 14.1943 65.8823 14.1477C66.029 14.101 66.1557 14.0493 66.2623 13.9927C66.3723 13.936 66.4673 13.8843 66.5473 13.8377C66.6307 13.791 66.7107 13.7677 66.7873 13.7677C66.8907 13.7677 66.9673 13.806 67.0173 13.8827L67.3723 14.3327C67.2357 14.4927 67.0823 14.6277 66.9123 14.7377C66.7423 14.8443 66.564 14.931 66.3773 14.9977C66.194 15.061 66.0057 15.106 65.8123 15.1327C65.6223 15.1593 65.4373 15.1727 65.2573 15.1727C64.9007 15.1727 64.569 15.1143 64.2623 14.9977C63.9557 14.8777 63.689 14.7027 63.4623 14.4727C63.2357 14.2393 63.0573 13.9527 62.9273 13.6127C62.7973 13.2693 62.7323 12.8727 62.7323 12.4227C62.7323 12.0727 62.789 11.7443 62.9023 11.4377C63.0157 11.1277 63.1773 10.8593 63.3873 10.6327C63.6007 10.4027 63.859 10.221 64.1623 10.0877C64.469 9.95432 64.814 9.88766 65.1973 9.88766C65.5207 9.88766 65.819 9.93932 66.0923 10.0427C66.3657 10.146 66.6007 10.2977 66.7973 10.4977C66.994 10.6943 67.1473 10.9377 67.2573 11.2277C67.3707 11.5143 67.4273 11.8427 67.4273 12.2127C67.4273 12.3993 67.4073 12.526 67.3673 12.5927C67.3273 12.656 67.2507 12.6877 67.1373 12.6877H63.9623ZM69.6341 9.96766V15.0977H68.3941V9.96766H69.6341ZM69.8041 8.47266C69.8041 8.57932 69.7825 8.67932 69.7391 8.77266C69.6958 8.86599 69.6375 8.94766 69.5641 9.01766C69.4941 9.08766 69.4108 9.14432 69.3141 9.18766C69.2175 9.22766 69.1141 9.24766 69.0041 9.24766C68.8975 9.24766 68.7958 9.22766 68.6991 9.18766C68.6058 9.14432 68.5241 9.08766 68.4541 9.01766C68.3841 8.94766 68.3275 8.86599 68.2841 8.77266C68.2441 8.67932 68.2241 8.57932 68.2241 8.47266C68.2241 8.36266 68.2441 8.25932 68.2841 8.16266C68.3275 8.06599 68.3841 7.98266 68.4541 7.91266C68.5241 7.84266 68.6058 7.78766 68.6991 7.74766C68.7958 7.70432 68.8975 7.68266 69.0041 7.68266C69.1141 7.68266 69.2175 7.70432 69.3141 7.74766C69.4108 7.78766 69.4941 7.84266 69.5641 7.91266C69.6375 7.98266 69.6958 8.06599 69.7391 8.16266C69.7825 8.25932 69.8041 8.36266 69.8041 8.47266ZM72.7682 12.4077C72.9215 12.4077 73.0549 12.3877 73.1682 12.3477C73.2815 12.3043 73.3749 12.246 73.4482 12.1727C73.5249 12.0993 73.5815 12.011 73.6182 11.9077C73.6582 11.8043 73.6782 11.691 73.6782 11.5677C73.6782 11.3143 73.6015 11.1143 73.4482 10.9677C73.2982 10.8177 73.0715 10.7427 72.7682 10.7427C72.4649 10.7427 72.2365 10.8177 72.0832 10.9677C71.9332 11.1143 71.8582 11.3143 71.8582 11.5677C71.8582 11.6877 71.8765 11.7993 71.9132 11.9027C71.9532 12.006 72.0099 12.096 72.0832 12.1727C72.1599 12.246 72.2549 12.3043 72.3682 12.3477C72.4849 12.3877 72.6182 12.4077 72.7682 12.4077ZM74.1632 15.3277C74.1632 15.2277 74.1332 15.146 74.0732 15.0827C74.0132 15.0193 73.9315 14.971 73.8282 14.9377C73.7249 14.901 73.6032 14.8743 73.4632 14.8577C73.3265 14.841 73.1799 14.8293 73.0232 14.8227C72.8699 14.8127 72.7099 14.8043 72.5432 14.7977C72.3799 14.791 72.2199 14.7777 72.0632 14.7577C71.9265 14.8343 71.8149 14.9243 71.7282 15.0277C71.6449 15.131 71.6032 15.251 71.6032 15.3877C71.6032 15.4777 71.6249 15.561 71.6682 15.6377C71.7149 15.7177 71.7865 15.786 71.8832 15.8427C71.9832 15.8993 72.1115 15.9427 72.2682 15.9727C72.4249 16.006 72.6165 16.0227 72.8432 16.0227C73.0732 16.0227 73.2715 16.0043 73.4382 15.9677C73.6049 15.9343 73.7415 15.886 73.8482 15.8227C73.9582 15.7627 74.0382 15.6893 74.0882 15.6027C74.1382 15.5193 74.1632 15.4277 74.1632 15.3277ZM75.3932 10.1427V10.6027C75.3932 10.7493 75.3049 10.8393 75.1282 10.8727L74.6682 10.9577C74.7382 11.1343 74.7732 11.3277 74.7732 11.5377C74.7732 11.791 74.7215 12.021 74.6182 12.2277C74.5182 12.431 74.3782 12.6043 74.1982 12.7477C74.0182 12.891 73.8049 13.0027 73.5582 13.0827C73.3149 13.1593 73.0515 13.1977 72.7682 13.1977C72.6682 13.1977 72.5715 13.1927 72.4782 13.1827C72.3849 13.1727 72.2932 13.1593 72.2032 13.1427C72.0432 13.2393 71.9632 13.3477 71.9632 13.4677C71.9632 13.571 72.0099 13.6477 72.1032 13.6977C72.1999 13.7443 72.3265 13.7777 72.4832 13.7977C72.6399 13.8177 72.8182 13.831 73.0182 13.8377C73.2182 13.841 73.4232 13.851 73.6332 13.8677C73.8432 13.8843 74.0482 13.9143 74.2482 13.9577C74.4482 13.9977 74.6265 14.0627 74.7832 14.1527C74.9399 14.2427 75.0649 14.366 75.1582 14.5227C75.2549 14.676 75.3032 14.8743 75.3032 15.1177C75.3032 15.3443 75.2465 15.5643 75.1332 15.7777C75.0232 15.991 74.8615 16.181 74.6482 16.3477C74.4382 16.5143 74.1782 16.6477 73.8682 16.7477C73.5615 16.851 73.2115 16.9027 72.8182 16.9027C72.4315 16.9027 72.0949 16.8643 71.8082 16.7877C71.5215 16.7143 71.2832 16.6143 71.0932 16.4877C70.9032 16.3643 70.7615 16.221 70.6682 16.0577C70.5749 15.8943 70.5282 15.7243 70.5282 15.5477C70.5282 15.3077 70.5999 15.1077 70.7432 14.9477C70.8899 14.7843 71.0899 14.6543 71.3432 14.5577C71.2065 14.4877 71.0982 14.3943 71.0182 14.2777C70.9382 14.161 70.8982 14.0077 70.8982 13.8177C70.8982 13.741 70.9115 13.6627 70.9382 13.5827C70.9682 13.4993 71.0099 13.4177 71.0632 13.3377C71.1199 13.2577 71.1899 13.1827 71.2732 13.1127C71.3565 13.0393 71.4549 12.9743 71.5682 12.9177C71.3082 12.7777 71.1032 12.591 70.9532 12.3577C70.8065 12.1243 70.7332 11.851 70.7332 11.5377C70.7332 11.2843 70.7832 11.056 70.8832 10.8527C70.9865 10.646 71.1282 10.471 71.3082 10.3277C71.4915 10.181 71.7065 10.0693 71.9532 9.99266C72.2032 9.91599 72.4749 9.87766 72.7682 9.87766C72.9882 9.87766 73.1949 9.90099 73.3882 9.94766C73.5815 9.99099 73.7582 10.056 73.9182 10.1427H75.3932ZM77.4114 10.5177C77.6114 10.331 77.8314 10.1793 78.0714 10.0627C78.3114 9.94599 78.5931 9.88766 78.9164 9.88766C79.1964 9.88766 79.4447 9.93599 79.6614 10.0327C79.8781 10.126 80.0581 10.2593 80.2014 10.4327C80.3481 10.6027 80.4581 10.8077 80.5314 11.0477C80.6081 11.2843 80.6464 11.546 80.6464 11.8327V15.0977H79.4114V11.8327C79.4114 11.5193 79.3397 11.2777 79.1964 11.1077C79.0531 10.9343 78.8347 10.8477 78.5414 10.8477C78.3281 10.8477 78.1281 10.896 77.9414 10.9927C77.7547 11.0893 77.5781 11.221 77.4114 11.3877V15.0977H76.1764V7.66766H77.4114V10.5177ZM83.4626 15.1777C83.0159 15.1777 82.6726 15.0527 82.4326 14.8027C82.1959 14.5493 82.0776 14.201 82.0776 13.7577V10.8927H81.5526C81.4859 10.8927 81.4292 10.871 81.3826 10.8277C81.3359 10.7843 81.3126 10.7193 81.3126 10.6327V10.1427L82.1376 10.0077L82.3976 8.60766C82.4142 8.54099 82.4459 8.48932 82.4926 8.45266C82.5392 8.41599 82.5992 8.39766 82.6726 8.39766H83.3126V10.0127H84.6826V10.8927H83.3126V13.6727C83.3126 13.8327 83.3509 13.9577 83.4276 14.0477C83.5076 14.1377 83.6159 14.1827 83.7526 14.1827C83.8292 14.1827 83.8926 14.1743 83.9426 14.1577C83.9959 14.1377 84.0409 14.1177 84.0776 14.0977C84.1176 14.0777 84.1526 14.0593 84.1826 14.0427C84.2126 14.0227 84.2426 14.0127 84.2726 14.0127C84.3092 14.0127 84.3392 14.0227 84.3626 14.0427C84.3859 14.0593 84.4109 14.086 84.4376 14.1227L84.8076 14.7227C84.6276 14.8727 84.4209 14.986 84.1876 15.0627C83.9542 15.1393 83.7126 15.1777 83.4626 15.1777Z" fill="white"/>
<path d="M52.82 27.1143V26.5623L55.628 22.6743H56.5V26.4823H57.3V27.1143H56.5V28.4023H55.78V27.1143H52.82ZM55.812 23.4343L53.66 26.4823H55.812V23.4343ZM61.7153 23.2503H58.9073V25.0743C59.0299 24.9037 59.2113 24.765 59.4513 24.6583C59.6913 24.5463 59.9499 24.4903 60.2273 24.4903C60.6699 24.4903 61.0299 24.5837 61.3073 24.7703C61.5846 24.9517 61.7819 25.189 61.8993 25.4823C62.0219 25.7703 62.0833 26.077 62.0833 26.4023C62.0833 26.7863 62.0113 27.1303 61.8673 27.4343C61.7233 27.7383 61.5019 27.9783 61.2033 28.1543C60.9099 28.3303 60.5446 28.4183 60.1073 28.4183C59.5473 28.4183 59.0939 28.2743 58.7473 27.9863C58.4006 27.6983 58.1899 27.3143 58.1153 26.8343H58.8273C58.8966 27.1383 59.0433 27.3757 59.2673 27.5463C59.4913 27.717 59.7739 27.8023 60.1153 27.8023C60.5366 27.8023 60.8539 27.677 61.0673 27.4263C61.2806 27.1703 61.3873 26.8343 61.3873 26.4183C61.3873 26.0023 61.2806 25.6823 61.0673 25.4583C60.8539 25.229 60.5393 25.1143 60.1233 25.1143C59.8406 25.1143 59.5926 25.1837 59.3793 25.3223C59.1713 25.4557 59.0193 25.6397 58.9233 25.8743H58.2353V22.6103H61.7153V23.2503ZM63.4027 28.4503C63.264 28.4503 63.1467 28.4023 63.0507 28.3063C62.9547 28.2103 62.9067 28.093 62.9067 27.9543C62.9067 27.8157 62.9547 27.6983 63.0507 27.6023C63.1467 27.5063 63.264 27.4583 63.4027 27.4583C63.536 27.4583 63.648 27.5063 63.7387 27.6023C63.8347 27.6983 63.8827 27.8157 63.8827 27.9543C63.8827 28.093 63.8347 28.2103 63.7387 28.3063C63.648 28.4023 63.536 28.4503 63.4027 28.4503ZM65.7864 25.3943C65.4877 25.277 65.2584 25.1063 65.0984 24.8823C64.9384 24.6583 64.8584 24.3863 64.8584 24.0663C64.8584 23.7783 64.9304 23.5197 65.0744 23.2903C65.2184 23.0557 65.4317 22.8717 65.7144 22.7383C66.0024 22.5997 66.349 22.5303 66.7544 22.5303C67.1597 22.5303 67.5037 22.5997 67.7864 22.7383C68.0744 22.8717 68.2904 23.0557 68.4344 23.2903C68.5837 23.5197 68.6584 23.7783 68.6584 24.0663C68.6584 24.3757 68.5757 24.6477 68.4104 24.8823C68.245 25.1117 68.0184 25.2823 67.7304 25.3943C68.061 25.4957 68.3224 25.6743 68.5144 25.9303C68.7117 26.181 68.8104 26.485 68.8104 26.8423C68.8104 27.189 68.725 27.493 68.5544 27.7543C68.3837 28.0103 68.141 28.2103 67.8264 28.3543C67.517 28.493 67.1597 28.5623 66.7544 28.5623C66.349 28.5623 65.9917 28.493 65.6824 28.3543C65.3784 28.2103 65.141 28.0103 64.9704 27.7543C64.7997 27.493 64.7144 27.189 64.7144 26.8423C64.7144 26.485 64.8104 26.1783 65.0024 25.9223C65.1944 25.6663 65.4557 25.4903 65.7864 25.3943ZM67.9544 24.1543C67.9544 23.829 67.8477 23.5783 67.6344 23.4023C67.421 23.2263 67.1277 23.1383 66.7544 23.1383C66.3864 23.1383 66.0957 23.2263 65.8824 23.4023C65.669 23.5783 65.5624 23.8317 65.5624 24.1623C65.5624 24.461 65.6717 24.701 65.8904 24.8823C66.1144 25.0637 66.4024 25.1543 66.7544 25.1543C67.1117 25.1543 67.3997 25.0637 67.6184 24.8823C67.8424 24.6957 67.9544 24.453 67.9544 24.1543ZM66.7544 25.7143C66.3597 25.7143 66.037 25.8077 65.7864 25.9943C65.5357 26.1757 65.4104 26.4503 65.4104 26.8183C65.4104 27.1597 65.5304 27.4343 65.7704 27.6423C66.0157 27.8503 66.3437 27.9543 66.7544 27.9543C67.165 27.9543 67.4904 27.8503 67.7304 27.6423C67.9704 27.4343 68.0904 27.1597 68.0904 26.8183C68.0904 26.461 67.9677 26.189 67.7224 26.0023C67.477 25.8103 67.1544 25.7143 66.7544 25.7143ZM70.8333 25.3943C70.5346 25.277 70.3053 25.1063 70.1453 24.8823C69.9853 24.6583 69.9053 24.3863 69.9053 24.0663C69.9053 23.7783 69.9773 23.5197 70.1213 23.2903C70.2653 23.0557 70.4786 22.8717 70.7613 22.7383C71.0493 22.5997 71.3959 22.5303 71.8013 22.5303C72.2066 22.5303 72.5506 22.5997 72.8333 22.7383C73.1213 22.8717 73.3373 23.0557 73.4813 23.2903C73.6306 23.5197 73.7053 23.7783 73.7053 24.0663C73.7053 24.3757 73.6226 24.6477 73.4573 24.8823C73.2919 25.1117 73.0653 25.2823 72.7773 25.3943C73.1079 25.4957 73.3693 25.6743 73.5613 25.9303C73.7586 26.181 73.8573 26.485 73.8573 26.8423C73.8573 27.189 73.7719 27.493 73.6013 27.7543C73.4306 28.0103 73.1879 28.2103 72.8733 28.3543C72.5639 28.493 72.2066 28.5623 71.8013 28.5623C71.3959 28.5623 71.0386 28.493 70.7293 28.3543C70.4253 28.2103 70.1879 28.0103 70.0173 27.7543C69.8466 27.493 69.7613 27.189 69.7613 26.8423C69.7613 26.485 69.8573 26.1783 70.0493 25.9223C70.2412 25.6663 70.5026 25.4903 70.8333 25.3943ZM73.0013 24.1543C73.0013 23.829 72.8946 23.5783 72.6813 23.4023C72.4679 23.2263 72.1746 23.1383 71.8013 23.1383C71.4333 23.1383 71.1426 23.2263 70.9293 23.4023C70.7159 23.5783 70.6093 23.8317 70.6093 24.1623C70.6093 24.461 70.7186 24.701 70.9373 24.8823C71.1613 25.0637 71.4493 25.1543 71.8013 25.1543C72.1586 25.1543 72.4466 25.0637 72.6653 24.8823C72.8893 24.6957 73.0013 24.453 73.0013 24.1543ZM71.8013 25.7143C71.4066 25.7143 71.0839 25.8077 70.8333 25.9943C70.5826 26.1757 70.4572 26.4503 70.4572 26.8183C70.4572 27.1597 70.5773 27.4343 70.8173 27.6423C71.0626 27.8503 71.3906 27.9543 71.8013 27.9543C72.2119 27.9543 72.5373 27.8503 72.7773 27.6423C73.0173 27.4343 73.1373 27.1597 73.1373 26.8183C73.1373 26.461 73.0146 26.189 72.7693 26.0023C72.5239 25.8103 72.2013 25.7143 71.8013 25.7143ZM78.8849 23.9463C79.2636 23.9463 79.5943 24.029 79.8769 24.1943C80.1649 24.3597 80.3783 24.5677 80.5169 24.8183V24.0183H81.2529V28.4983C81.2529 28.8983 81.1676 29.253 80.9969 29.5623C80.8263 29.877 80.5809 30.1223 80.2609 30.2983C79.9463 30.4743 79.5783 30.5623 79.1569 30.5623C78.5809 30.5623 78.1009 30.4263 77.7169 30.1543C77.3329 29.8823 77.1063 29.5117 77.0369 29.0423H77.7569C77.8369 29.309 78.0023 29.5223 78.2529 29.6823C78.5036 29.8477 78.8049 29.9303 79.1569 29.9303C79.5569 29.9303 79.8823 29.805 80.1329 29.5543C80.3889 29.3037 80.5169 28.9517 80.5169 28.4983V27.5783C80.3729 27.8343 80.1596 28.0477 79.8769 28.2183C79.5943 28.389 79.2636 28.4743 78.8849 28.4743C78.4956 28.4743 78.1409 28.3783 77.8209 28.1863C77.5063 27.9943 77.2583 27.725 77.0769 27.3783C76.8956 27.0317 76.8049 26.637 76.8049 26.1943C76.8049 25.7463 76.8956 25.3543 77.0769 25.0183C77.2583 24.677 77.5063 24.413 77.8209 24.2263C78.1409 24.0397 78.4956 23.9463 78.8849 23.9463ZM80.5169 26.2023C80.5169 25.8717 80.4503 25.5837 80.3169 25.3383C80.1836 25.093 80.0023 24.9063 79.7729 24.7783C79.5489 24.645 79.3009 24.5783 79.0289 24.5783C78.7569 24.5783 78.5089 24.6423 78.2849 24.7703C78.0609 24.8983 77.8823 25.085 77.7489 25.3303C77.6156 25.5757 77.5489 25.8637 77.5489 26.1943C77.5489 26.5303 77.6156 26.8237 77.7489 27.0743C77.8823 27.3197 78.0609 27.509 78.2849 27.6423C78.5089 27.7703 78.7569 27.8343 79.0289 27.8343C79.3009 27.8343 79.5489 27.7703 79.7729 27.6423C80.0023 27.509 80.1836 27.3197 80.3169 27.0743C80.4503 26.8237 80.5169 26.533 80.5169 26.2023Z" fill="white"/>
</svg>
