<svg width="109" height="37" viewBox="0 0 109 37" fill="none" xmlns="http://www.w3.org/2000/svg">
<path d="M5.77 13.3928C5.84333 13.3928 5.90833 13.4211 5.965 13.4778L6.495 14.0528C6.20167 14.4161 5.84 14.6944 5.41 14.8878C4.98333 15.0811 4.47 15.1778 3.87 15.1778C3.33333 15.1778 2.85 15.0861 2.42 14.9028C1.99333 14.7194 1.62833 14.4644 1.325 14.1378C1.02167 13.8111 0.788333 13.4211 0.625 12.9678C0.465 12.5144 0.385 12.0194 0.385 11.4828C0.385 10.9394 0.471667 10.4428 0.645 9.99278C0.818333 9.53944 1.06167 9.14944 1.375 8.82278C1.69167 8.49611 2.06833 8.24278 2.505 8.06278C2.94167 7.87944 3.425 7.78778 3.955 7.78778C4.48167 7.78778 4.94833 7.87444 5.355 8.04778C5.765 8.22111 6.11333 8.44778 6.4 8.72778L5.95 9.35278C5.92333 9.39278 5.88833 9.42778 5.845 9.45778C5.805 9.48778 5.74833 9.50278 5.675 9.50278C5.625 9.50278 5.57333 9.48944 5.52 9.46278C5.46667 9.43278 5.40833 9.39778 5.345 9.35778C5.28167 9.31444 5.20833 9.26778 5.125 9.21778C5.04167 9.16778 4.945 9.12278 4.835 9.08278C4.725 9.03944 4.59667 9.00444 4.45 8.97778C4.30667 8.94778 4.14 8.93278 3.95 8.93278C3.62667 8.93278 3.33 8.99111 3.06 9.10778C2.79333 9.22111 2.56333 9.38778 2.37 9.60778C2.17667 9.82444 2.02667 10.0911 1.92 10.4078C1.81333 10.7211 1.76 11.0794 1.76 11.4828C1.76 11.8894 1.81667 12.2511 1.93 12.5678C2.04667 12.8844 2.20333 13.1511 2.4 13.3678C2.59667 13.5844 2.82833 13.7511 3.095 13.8678C3.36167 13.9811 3.64833 14.0378 3.955 14.0378C4.13833 14.0378 4.30333 14.0278 4.45 14.0078C4.6 13.9878 4.73667 13.9561 4.86 13.9128C4.98667 13.8694 5.105 13.8144 5.215 13.7478C5.32833 13.6778 5.44 13.5928 5.55 13.4928C5.58333 13.4628 5.61833 13.4394 5.655 13.4228C5.69167 13.4028 5.73 13.3928 5.77 13.3928ZM9.93133 12.9078C9.57466 12.9244 9.27466 12.9561 9.03133 13.0028C8.78799 13.0461 8.59299 13.1028 8.44633 13.1728C8.29966 13.2428 8.19466 13.3244 8.13133 13.4178C8.06799 13.5111 8.03633 13.6128 8.03633 13.7228C8.03633 13.9394 8.09966 14.0944 8.22633 14.1878C8.35633 14.2811 8.52466 14.3278 8.73133 14.3278C8.98466 14.3278 9.20299 14.2828 9.38633 14.1928C9.57299 14.0994 9.75466 13.9594 9.93133 13.7728V12.9078ZM7.10133 10.6828C7.69133 10.1428 8.40133 9.87278 9.23133 9.87278C9.53133 9.87278 9.79966 9.92278 10.0363 10.0228C10.273 10.1194 10.473 10.2561 10.6363 10.4328C10.7997 10.6061 10.923 10.8144 11.0063 11.0578C11.093 11.3011 11.1363 11.5678 11.1363 11.8578V15.0978H10.5763C10.4597 15.0978 10.3697 15.0811 10.3063 15.0478C10.243 15.0111 10.193 14.9394 10.1563 14.8328L10.0463 14.4628C9.91633 14.5794 9.78966 14.6828 9.66633 14.7728C9.54299 14.8594 9.41466 14.9328 9.28133 14.9928C9.14799 15.0528 9.00466 15.0978 8.85133 15.1278C8.70133 15.1611 8.53466 15.1778 8.35133 15.1778C8.13466 15.1778 7.93466 15.1494 7.75133 15.0928C7.56799 15.0328 7.40966 14.9444 7.27633 14.8278C7.14299 14.7111 7.03966 14.5661 6.96633 14.3928C6.89299 14.2194 6.85633 14.0178 6.85633 13.7878C6.85633 13.6578 6.87799 13.5294 6.92133 13.4028C6.96466 13.2728 7.03466 13.1494 7.13133 13.0328C7.23133 12.9161 7.35966 12.8061 7.51633 12.7028C7.67299 12.5994 7.86466 12.5094 8.09133 12.4328C8.32133 12.3561 8.58799 12.2944 8.89133 12.2478C9.19466 12.1978 9.54133 12.1678 9.93133 12.1578V11.8578C9.93133 11.5144 9.85799 11.2611 9.71133 11.0978C9.56466 10.9311 9.35299 10.8478 9.07633 10.8478C8.87633 10.8478 8.70966 10.8711 8.57633 10.9178C8.44633 10.9644 8.33133 11.0178 8.23133 11.0778C8.13133 11.1344 8.03966 11.1861 7.95633 11.2328C7.87633 11.2794 7.78633 11.3028 7.68633 11.3028C7.59966 11.3028 7.52633 11.2811 7.46633 11.2378C7.40633 11.1911 7.35799 11.1378 7.32133 11.0778L7.10133 10.6828ZM13.4645 10.8578C13.6245 10.5511 13.8145 10.3111 14.0345 10.1378C14.2545 9.96111 14.5145 9.87278 14.8145 9.87278C15.0511 9.87278 15.2411 9.92444 15.3845 10.0278L15.3045 10.9528C15.2878 11.0128 15.2628 11.0561 15.2295 11.0828C15.1995 11.1061 15.1578 11.1178 15.1045 11.1178C15.0545 11.1178 14.9795 11.1094 14.8795 11.0928C14.7828 11.0761 14.6878 11.0678 14.5945 11.0678C14.4578 11.0678 14.3361 11.0878 14.2295 11.1278C14.1228 11.1678 14.0261 11.2261 13.9395 11.3028C13.8561 11.3761 13.7811 11.4661 13.7145 11.5728C13.6511 11.6794 13.5911 11.8011 13.5345 11.9378V15.0978H12.2995V9.96778H13.0245C13.1511 9.96778 13.2395 9.99111 13.2895 10.0378C13.3395 10.0811 13.3728 10.1611 13.3895 10.2778L13.4645 10.8578ZM17.7399 15.1778C17.2933 15.1778 16.9499 15.0528 16.7099 14.8028C16.4733 14.5494 16.3549 14.2011 16.3549 13.7578V10.8928H15.8299C15.7633 10.8928 15.7066 10.8711 15.6599 10.8278C15.6133 10.7844 15.5899 10.7194 15.5899 10.6328V10.1428L16.4149 10.0078L16.6749 8.60778C16.6916 8.54111 16.7233 8.48944 16.7699 8.45278C16.8166 8.41611 16.8766 8.39778 16.9499 8.39778H17.5899V10.0128H18.9599V10.8928H17.5899V13.6728C17.5899 13.8328 17.6283 13.9578 17.7049 14.0478C17.7849 14.1378 17.8933 14.1828 18.0299 14.1828C18.1066 14.1828 18.1699 14.1744 18.2199 14.1578C18.2733 14.1378 18.3183 14.1178 18.3549 14.0978C18.3949 14.0778 18.4299 14.0594 18.4599 14.0428C18.4899 14.0228 18.5199 14.0128 18.5499 14.0128C18.5866 14.0128 18.6166 14.0228 18.6399 14.0428C18.6633 14.0594 18.6883 14.0861 18.7149 14.1228L19.0849 14.7228C18.9049 14.8728 18.6983 14.9861 18.4649 15.0628C18.2316 15.1394 17.9899 15.1778 17.7399 15.1778ZM21.9816 9.88778C22.3616 9.88778 22.7066 9.94944 23.0166 10.0728C23.3299 10.1961 23.5966 10.3711 23.8166 10.5978C24.0399 10.8244 24.2116 11.1011 24.3316 11.4278C24.4516 11.7544 24.5116 12.1194 24.5116 12.5228C24.5116 12.9294 24.4516 13.2961 24.3316 13.6228C24.2116 13.9494 24.0399 14.2278 23.8166 14.4578C23.5966 14.6878 23.3299 14.8644 23.0166 14.9878C22.7066 15.1111 22.3616 15.1728 21.9816 15.1728C21.5982 15.1728 21.2499 15.1111 20.9366 14.9878C20.6232 14.8644 20.3549 14.6878 20.1316 14.4578C19.9116 14.2278 19.7399 13.9494 19.6166 13.6228C19.4966 13.2961 19.4366 12.9294 19.4366 12.5228C19.4366 12.1194 19.4966 11.7544 19.6166 11.4278C19.7399 11.1011 19.9116 10.8244 20.1316 10.5978C20.3549 10.3711 20.6232 10.1961 20.9366 10.0728C21.2499 9.94944 21.5982 9.88778 21.9816 9.88778ZM21.9816 14.2228C22.4082 14.2228 22.7232 14.0794 22.9266 13.7928C23.1332 13.5061 23.2366 13.0861 23.2366 12.5328C23.2366 11.9794 23.1332 11.5578 22.9266 11.2678C22.7232 10.9778 22.4082 10.8328 21.9816 10.8328C21.5482 10.8328 21.2266 10.9794 21.0166 11.2728C20.8099 11.5628 20.7066 11.9828 20.7066 12.5328C20.7066 13.0828 20.8099 13.5028 21.0166 13.7928C21.2266 14.0794 21.5482 14.2228 21.9816 14.2228ZM26.6088 10.5978C26.7121 10.4944 26.8204 10.3994 26.9338 10.3128C27.0504 10.2228 27.1721 10.1478 27.2988 10.0878C27.4288 10.0244 27.5671 9.97611 27.7138 9.94278C27.8604 9.90611 28.0204 9.88778 28.1938 9.88778C28.4738 9.88778 28.7221 9.93611 28.9388 10.0328C29.1554 10.1261 29.3354 10.2594 29.4788 10.4328C29.6254 10.6028 29.7354 10.8078 29.8088 11.0478C29.8854 11.2844 29.9238 11.5461 29.9238 11.8328V15.0978H28.6888V11.8328C28.6888 11.5194 28.6171 11.2778 28.4738 11.1078C28.3304 10.9344 28.1121 10.8478 27.8188 10.8478C27.6054 10.8478 27.4054 10.8961 27.2188 10.9928C27.0321 11.0894 26.8554 11.2211 26.6888 11.3878V15.0978H25.4538V9.96778H26.2088C26.3688 9.96778 26.4738 10.0428 26.5238 10.1928L26.6088 10.5978ZM43.2766 7.86778L41.0316 15.0978H39.8166L38.2366 10.1578C38.1932 10.0378 38.1532 9.89111 38.1166 9.71778C38.0966 9.80111 38.0766 9.87944 38.0566 9.95278C38.0366 10.0261 38.0149 10.0944 37.9916 10.1578L36.3966 15.0978H35.1766L32.9366 7.86778H34.0616C34.1782 7.86778 34.2749 7.89611 34.3516 7.95278C34.4316 8.00611 34.4849 8.07944 34.5116 8.17278L35.7416 12.4978C35.7682 12.6044 35.7932 12.7211 35.8166 12.8478C35.8432 12.9711 35.8699 13.1011 35.8966 13.2378C35.9232 13.0978 35.9516 12.9661 35.9816 12.8428C36.0149 12.7194 36.0499 12.6044 36.0866 12.4978L37.5066 8.17278C37.5332 8.09611 37.5849 8.02611 37.6616 7.96278C37.7416 7.89944 37.8382 7.86778 37.9516 7.86778H38.3466C38.4632 7.86778 38.5582 7.89611 38.6316 7.95278C38.7049 8.00944 38.7599 8.08278 38.7966 8.17278L40.2116 12.4978C40.2816 12.7044 40.3449 12.9428 40.4016 13.2128C40.4449 12.9494 40.4932 12.7111 40.5466 12.4978L41.7766 8.17278C41.7966 8.08944 41.8466 8.01778 41.9266 7.95778C42.0099 7.89778 42.1082 7.86778 42.2216 7.86778H43.2766ZM46.6689 11.9428C46.6689 11.7828 46.6456 11.6328 46.5989 11.4928C46.5556 11.3494 46.4889 11.2244 46.3989 11.1178C46.3089 11.0111 46.1939 10.9278 46.0539 10.8678C45.9172 10.8044 45.7572 10.7728 45.5739 10.7728C45.2172 10.7728 44.9356 10.8744 44.7289 11.0778C44.5256 11.2811 44.3956 11.5694 44.3389 11.9428H46.6689ZM44.3139 12.6878C44.3339 12.9511 44.3806 13.1794 44.4539 13.3728C44.5272 13.5628 44.6239 13.7211 44.7439 13.8478C44.8639 13.9711 45.0056 14.0644 45.1689 14.1278C45.3356 14.1878 45.5189 14.2178 45.7189 14.2178C45.9189 14.2178 46.0906 14.1944 46.2339 14.1478C46.3806 14.1011 46.5072 14.0494 46.6139 13.9928C46.7239 13.9361 46.8189 13.8844 46.8989 13.8378C46.9822 13.7911 47.0622 13.7678 47.1389 13.7678C47.2422 13.7678 47.3189 13.8061 47.3689 13.8828L47.7239 14.3328C47.5872 14.4928 47.4339 14.6278 47.2639 14.7378C47.0939 14.8444 46.9156 14.9311 46.7289 14.9978C46.5456 15.0611 46.3572 15.1061 46.1639 15.1328C45.9739 15.1594 45.7889 15.1728 45.6089 15.1728C45.2522 15.1728 44.9206 15.1144 44.6139 14.9978C44.3072 14.8778 44.0406 14.7028 43.8139 14.4728C43.5872 14.2394 43.4089 13.9528 43.2789 13.6128C43.1489 13.2694 43.0839 12.8728 43.0839 12.4228C43.0839 12.0728 43.1406 11.7444 43.2539 11.4378C43.3672 11.1278 43.5289 10.8594 43.7389 10.6328C43.9522 10.4028 44.2106 10.2211 44.5139 10.0878C44.8206 9.95444 45.1656 9.88778 45.5489 9.88778C45.8722 9.88778 46.1706 9.93944 46.4439 10.0428C46.7172 10.1461 46.9522 10.2978 47.1489 10.4978C47.3456 10.6944 47.4989 10.9378 47.6089 11.2278C47.7222 11.5144 47.7789 11.8428 47.7789 12.2128C47.7789 12.3994 47.7589 12.5261 47.7189 12.5928C47.6789 12.6561 47.6022 12.6878 47.4889 12.6878H44.3139ZM49.9857 9.96778V15.0978H48.7457V9.96778H49.9857ZM50.1557 8.47278C50.1557 8.57944 50.134 8.67944 50.0907 8.77278C50.0474 8.86611 49.989 8.94778 49.9157 9.01778C49.8457 9.08778 49.7624 9.14444 49.6657 9.18778C49.569 9.22778 49.4657 9.24778 49.3557 9.24778C49.249 9.24778 49.1474 9.22778 49.0507 9.18778C48.9574 9.14444 48.8757 9.08778 48.8057 9.01778C48.7357 8.94778 48.679 8.86611 48.6357 8.77278C48.5957 8.67944 48.5757 8.57944 48.5757 8.47278C48.5757 8.36278 48.5957 8.25944 48.6357 8.16278C48.679 8.06611 48.7357 7.98278 48.8057 7.91278C48.8757 7.84278 48.9574 7.78778 49.0507 7.74778C49.1474 7.70444 49.249 7.68278 49.3557 7.68278C49.4657 7.68278 49.569 7.70444 49.6657 7.74778C49.7624 7.78778 49.8457 7.84278 49.9157 7.91278C49.989 7.98278 50.0474 8.06611 50.0907 8.16278C50.134 8.25944 50.1557 8.36278 50.1557 8.47278ZM53.1198 12.4078C53.2731 12.4078 53.4064 12.3878 53.5198 12.3478C53.6331 12.3044 53.7264 12.2461 53.7998 12.1728C53.8764 12.0994 53.9331 12.0111 53.9698 11.9078C54.0098 11.8044 54.0298 11.6911 54.0298 11.5678C54.0298 11.3144 53.9531 11.1144 53.7998 10.9678C53.6498 10.8178 53.4231 10.7428 53.1198 10.7428C52.8164 10.7428 52.5881 10.8178 52.4348 10.9678C52.2848 11.1144 52.2098 11.3144 52.2098 11.5678C52.2098 11.6878 52.2281 11.7994 52.2648 11.9028C52.3048 12.0061 52.3614 12.0961 52.4348 12.1728C52.5114 12.2461 52.6064 12.3044 52.7198 12.3478C52.8364 12.3878 52.9698 12.4078 53.1198 12.4078ZM54.5148 15.3278C54.5148 15.2278 54.4848 15.1461 54.4248 15.0828C54.3648 15.0194 54.2831 14.9711 54.1798 14.9378C54.0764 14.9011 53.9548 14.8744 53.8148 14.8578C53.6781 14.8411 53.5314 14.8294 53.3748 14.8228C53.2214 14.8128 53.0614 14.8044 52.8948 14.7978C52.7314 14.7911 52.5714 14.7778 52.4148 14.7578C52.2781 14.8344 52.1664 14.9244 52.0798 15.0278C51.9964 15.1311 51.9548 15.2511 51.9548 15.3878C51.9548 15.4778 51.9764 15.5611 52.0198 15.6378C52.0664 15.7178 52.1381 15.7861 52.2348 15.8428C52.3348 15.8994 52.4631 15.9428 52.6198 15.9728C52.7764 16.0061 52.9681 16.0228 53.1948 16.0228C53.4248 16.0228 53.6231 16.0044 53.7898 15.9678C53.9564 15.9344 54.0931 15.8861 54.1998 15.8228C54.3098 15.7628 54.3898 15.6894 54.4398 15.6028C54.4898 15.5194 54.5148 15.4278 54.5148 15.3278ZM55.7448 10.1428V10.6028C55.7448 10.7494 55.6564 10.8394 55.4798 10.8728L55.0198 10.9578C55.0898 11.1344 55.1248 11.3278 55.1248 11.5378C55.1248 11.7911 55.0731 12.0211 54.9698 12.2278C54.8698 12.4311 54.7298 12.6044 54.5498 12.7478C54.3698 12.8911 54.1564 13.0028 53.9098 13.0828C53.6664 13.1594 53.4031 13.1978 53.1198 13.1978C53.0198 13.1978 52.9231 13.1928 52.8298 13.1828C52.7364 13.1728 52.6448 13.1594 52.5548 13.1428C52.3948 13.2394 52.3148 13.3478 52.3148 13.4678C52.3148 13.5711 52.3614 13.6478 52.4548 13.6978C52.5514 13.7444 52.6781 13.7778 52.8348 13.7978C52.9914 13.8178 53.1698 13.8311 53.3698 13.8378C53.5698 13.8411 53.7748 13.8511 53.9848 13.8678C54.1948 13.8844 54.3998 13.9144 54.5998 13.9578C54.7998 13.9978 54.9781 14.0628 55.1348 14.1528C55.2914 14.2428 55.4164 14.3661 55.5098 14.5228C55.6064 14.6761 55.6548 14.8744 55.6548 15.1178C55.6548 15.3444 55.5981 15.5644 55.4848 15.7778C55.3748 15.9911 55.2131 16.1811 54.9998 16.3478C54.7898 16.5144 54.5298 16.6478 54.2198 16.7478C53.9131 16.8511 53.5631 16.9028 53.1698 16.9028C52.7831 16.9028 52.4464 16.8644 52.1598 16.7878C51.8731 16.7144 51.6348 16.6144 51.4448 16.4878C51.2548 16.3644 51.1131 16.2211 51.0198 16.0578C50.9264 15.8944 50.8798 15.7244 50.8798 15.5478C50.8798 15.3078 50.9514 15.1078 51.0948 14.9478C51.2414 14.7844 51.4414 14.6544 51.6948 14.5578C51.5581 14.4878 51.4498 14.3944 51.3698 14.2778C51.2898 14.1611 51.2498 14.0078 51.2498 13.8178C51.2498 13.7411 51.2631 13.6628 51.2898 13.5828C51.3198 13.4994 51.3614 13.4178 51.4148 13.3378C51.4714 13.2578 51.5414 13.1828 51.6248 13.1128C51.7081 13.0394 51.8064 12.9744 51.9198 12.9178C51.6598 12.7778 51.4548 12.5911 51.3048 12.3578C51.1581 12.1244 51.0848 11.8511 51.0848 11.5378C51.0848 11.2844 51.1348 11.0561 51.2348 10.8528C51.3381 10.6461 51.4798 10.4711 51.6598 10.3278C51.8431 10.1811 52.0581 10.0694 52.3048 9.99278C52.5548 9.91611 52.8264 9.87778 53.1198 9.87778C53.3398 9.87778 53.5464 9.90111 53.7398 9.94778C53.9331 9.99111 54.1098 10.0561 54.2698 10.1428H55.7448ZM57.763 10.5178C57.963 10.3311 58.183 10.1794 58.423 10.0628C58.663 9.94611 58.9446 9.88778 59.268 9.88778C59.548 9.88778 59.7963 9.93611 60.013 10.0328C60.2296 10.1261 60.4096 10.2594 60.553 10.4328C60.6996 10.6028 60.8096 10.8078 60.883 11.0478C60.9596 11.2844 60.998 11.5461 60.998 11.8328V15.0978H59.763V11.8328C59.763 11.5194 59.6913 11.2778 59.548 11.1078C59.4046 10.9344 59.1863 10.8478 58.893 10.8478C58.6796 10.8478 58.4796 10.8961 58.293 10.9928C58.1063 11.0894 57.9296 11.2211 57.763 11.3878V15.0978H56.528V7.66778H57.763V10.5178ZM63.8141 15.1778C63.3675 15.1778 63.0241 15.0528 62.7841 14.8028C62.5475 14.5494 62.4291 14.2011 62.4291 13.7578V10.8928H61.9041C61.8375 10.8928 61.7808 10.8711 61.7341 10.8278C61.6875 10.7844 61.6641 10.7194 61.6641 10.6328V10.1428L62.4891 10.0078L62.7491 8.60778C62.7658 8.54111 62.7975 8.48944 62.8441 8.45278C62.8908 8.41611 62.9508 8.39778 63.0241 8.39778H63.6641V10.0128H65.0341V10.8928H63.6641V13.6728C63.6641 13.8328 63.7025 13.9578 63.7791 14.0478C63.8591 14.1378 63.9675 14.1828 64.1041 14.1828C64.1808 14.1828 64.2441 14.1744 64.2941 14.1578C64.3475 14.1378 64.3925 14.1178 64.4291 14.0978C64.4691 14.0778 64.5041 14.0594 64.5341 14.0428C64.5641 14.0228 64.5941 14.0128 64.6241 14.0128C64.6608 14.0128 64.6908 14.0228 64.7141 14.0428C64.7375 14.0594 64.7625 14.0861 64.7891 14.1228L65.1591 14.7228C64.9791 14.8728 64.7725 14.9861 64.5391 15.0628C64.3058 15.1394 64.0641 15.1778 63.8141 15.1778Z" fill="white"/>
<path d="M30.304 23.2823V22.6183H31.808V28.4023H31.072V23.2823H30.304ZM33.4105 28.4503C33.2718 28.4503 33.1545 28.4023 33.0585 28.3063C32.9625 28.2103 32.9145 28.093 32.9145 27.9543C32.9145 27.8157 32.9625 27.6983 33.0585 27.6023C33.1545 27.5063 33.2718 27.4583 33.4105 27.4583C33.5438 27.4583 33.6558 27.5063 33.7465 27.6023C33.8425 27.6983 33.8905 27.8157 33.8905 27.9543C33.8905 28.093 33.8425 28.2103 33.7465 28.3063C33.6558 28.4023 33.5438 28.4503 33.4105 28.4503ZM38.4262 23.2503H35.6182V25.0743C35.7409 24.9037 35.9222 24.765 36.1622 24.6583C36.4022 24.5463 36.6609 24.4903 36.9382 24.4903C37.3809 24.4903 37.7409 24.5837 38.0182 24.7703C38.2955 24.9517 38.4929 25.189 38.6102 25.4823C38.7329 25.7703 38.7942 26.077 38.7942 26.4023C38.7942 26.7863 38.7222 27.1303 38.5782 27.4343C38.4342 27.7383 38.2129 27.9783 37.9142 28.1543C37.6209 28.3303 37.2555 28.4183 36.8182 28.4183C36.2582 28.4183 35.8049 28.2743 35.4582 27.9863C35.1115 27.6983 34.9009 27.3143 34.8262 26.8343H35.5382C35.6075 27.1383 35.7542 27.3757 35.9782 27.5463C36.2022 27.717 36.4849 27.8023 36.8262 27.8023C37.2475 27.8023 37.5649 27.677 37.7782 27.4263C37.9915 27.1703 38.0982 26.8343 38.0982 26.4183C38.0982 26.0023 37.9915 25.6823 37.7782 25.4583C37.5649 25.229 37.2502 25.1143 36.8342 25.1143C36.5515 25.1143 36.3035 25.1837 36.0902 25.3223C35.8822 25.4557 35.7302 25.6397 35.6342 25.8743H34.9462V22.6103H38.4262V23.2503ZM40.8176 25.3943C40.519 25.277 40.2896 25.1063 40.1296 24.8823C39.9696 24.6583 39.8896 24.3863 39.8896 24.0663C39.8896 23.7783 39.9616 23.5197 40.1056 23.2903C40.2496 23.0557 40.463 22.8717 40.7456 22.7383C41.0336 22.5997 41.3803 22.5303 41.7856 22.5303C42.191 22.5303 42.535 22.5997 42.8176 22.7383C43.1056 22.8717 43.3216 23.0557 43.4656 23.2903C43.615 23.5197 43.6896 23.7783 43.6896 24.0663C43.6896 24.3757 43.607 24.6477 43.4416 24.8823C43.2763 25.1117 43.0496 25.2823 42.7616 25.3943C43.0923 25.4957 43.3536 25.6743 43.5456 25.9303C43.743 26.181 43.8416 26.485 43.8416 26.8423C43.8416 27.189 43.7563 27.493 43.5856 27.7543C43.415 28.0103 43.1723 28.2103 42.8576 28.3543C42.5483 28.493 42.191 28.5623 41.7856 28.5623C41.3803 28.5623 41.023 28.493 40.7136 28.3543C40.4096 28.2103 40.1723 28.0103 40.0016 27.7543C39.831 27.493 39.7456 27.189 39.7456 26.8423C39.7456 26.485 39.8416 26.1783 40.0336 25.9223C40.2256 25.6663 40.487 25.4903 40.8176 25.3943ZM42.9856 24.1543C42.9856 23.829 42.879 23.5783 42.6656 23.4023C42.4523 23.2263 42.159 23.1383 41.7856 23.1383C41.4176 23.1383 41.127 23.2263 40.9136 23.4023C40.7003 23.5783 40.5936 23.8317 40.5936 24.1623C40.5936 24.461 40.703 24.701 40.9216 24.8823C41.1456 25.0637 41.4336 25.1543 41.7856 25.1543C42.143 25.1543 42.431 25.0637 42.6496 24.8823C42.8736 24.6957 42.9856 24.453 42.9856 24.1543ZM41.7856 25.7143C41.391 25.7143 41.0683 25.8077 40.8176 25.9943C40.567 26.1757 40.4416 26.4503 40.4416 26.8183C40.4416 27.1597 40.5616 27.4343 40.8016 27.6423C41.047 27.8503 41.375 27.9543 41.7856 27.9543C42.1963 27.9543 42.5216 27.8503 42.7616 27.6423C43.0016 27.4343 43.1216 27.1597 43.1216 26.8183C43.1216 26.461 42.999 26.189 42.7536 26.0023C42.5083 25.8103 42.1856 25.7143 41.7856 25.7143ZM44.8085 25.4503C44.8085 24.533 44.9578 23.8183 45.2565 23.3063C45.5552 22.789 46.0778 22.5303 46.8245 22.5303C47.5658 22.5303 48.0858 22.789 48.3845 23.3063C48.6832 23.8183 48.8325 24.533 48.8325 25.4503C48.8325 26.3837 48.6832 27.109 48.3845 27.6263C48.0858 28.1437 47.5658 28.4023 46.8245 28.4023C46.0778 28.4023 45.5552 28.1437 45.2565 27.6263C44.9578 27.109 44.8085 26.3837 44.8085 25.4503ZM48.1125 25.4503C48.1125 24.9863 48.0805 24.5943 48.0165 24.2743C47.9578 23.949 47.8325 23.6877 47.6405 23.4903C47.4538 23.293 47.1818 23.1943 46.8245 23.1943C46.4618 23.1943 46.1845 23.293 45.9925 23.4903C45.8058 23.6877 45.6805 23.949 45.6165 24.2743C45.5578 24.5943 45.5285 24.9863 45.5285 25.4503C45.5285 25.9303 45.5578 26.333 45.6165 26.6583C45.6805 26.9837 45.8058 27.245 45.9925 27.4423C46.1845 27.6397 46.4618 27.7383 46.8245 27.7383C47.1818 27.7383 47.4538 27.6397 47.6405 27.4423C47.8325 27.245 47.9578 26.9837 48.0165 26.6583C48.0805 26.333 48.1125 25.9303 48.1125 25.4503ZM54.2208 23.9383C54.7541 23.9383 55.1861 24.101 55.5168 24.4263C55.8474 24.7463 56.0128 25.2103 56.0128 25.8183V28.4023H55.2928V25.9223C55.2928 25.485 55.1834 25.1517 54.9648 24.9223C54.7461 24.6877 54.4474 24.5703 54.0688 24.5703C53.6848 24.5703 53.3781 24.6903 53.1488 24.9303C52.9248 25.1703 52.8128 25.5197 52.8128 25.9783V28.4023H52.0848V24.0183H52.8128V24.6423C52.9568 24.4183 53.1514 24.245 53.3968 24.1223C53.6474 23.9997 53.9221 23.9383 54.2208 23.9383ZM59.1139 28.4743C58.7033 28.4743 58.3299 28.381 57.9939 28.1943C57.6633 28.0077 57.4019 27.7437 57.2099 27.4023C57.0233 27.0557 56.9299 26.6557 56.9299 26.2023C56.9299 25.7543 57.0259 25.3597 57.2179 25.0183C57.4153 24.6717 57.6819 24.4077 58.0179 24.2263C58.3539 24.0397 58.7299 23.9463 59.1459 23.9463C59.5619 23.9463 59.9379 24.0397 60.2739 24.2263C60.6099 24.4077 60.8739 24.669 61.0659 25.0103C61.2633 25.3517 61.3619 25.749 61.3619 26.2023C61.3619 26.6557 61.2606 27.0557 61.0579 27.4023C60.8606 27.7437 60.5913 28.0077 60.2499 28.1943C59.9086 28.381 59.5299 28.4743 59.1139 28.4743ZM59.1139 27.8343C59.3753 27.8343 59.6206 27.773 59.8499 27.6503C60.0793 27.5277 60.2633 27.3437 60.4019 27.0983C60.5459 26.853 60.6179 26.5543 60.6179 26.2023C60.6179 25.8503 60.5486 25.5517 60.4099 25.3063C60.2713 25.061 60.0899 24.8797 59.8659 24.7623C59.6419 24.6397 59.3993 24.5783 59.1379 24.5783C58.8713 24.5783 58.6259 24.6397 58.4019 24.7623C58.1833 24.8797 58.0073 25.061 57.8739 25.3063C57.7406 25.5517 57.6739 25.8503 57.6739 26.2023C57.6739 26.5597 57.7379 26.861 57.8659 27.1063C57.9993 27.3517 58.1753 27.5357 58.3939 27.6583C58.6126 27.7757 58.8526 27.8343 59.1139 27.8343ZM63.8711 28.4743C63.5351 28.4743 63.2338 28.4183 62.9671 28.3063C62.7005 28.189 62.4898 28.029 62.3351 27.8263C62.1805 27.6183 62.0951 27.381 62.0791 27.1143H62.8311C62.8525 27.333 62.9538 27.5117 63.1351 27.6503C63.3218 27.789 63.5645 27.8583 63.8631 27.8583C64.1405 27.8583 64.3591 27.797 64.5191 27.6743C64.6791 27.5517 64.7591 27.397 64.7591 27.2103C64.7591 27.0183 64.6738 26.877 64.5031 26.7863C64.3325 26.6903 64.0685 26.597 63.7111 26.5063C63.3858 26.421 63.1191 26.3357 62.9111 26.2503C62.7085 26.1597 62.5325 26.029 62.3831 25.8583C62.2391 25.6823 62.1671 25.453 62.1671 25.1703C62.1671 24.9463 62.2338 24.741 62.3671 24.5543C62.5005 24.3677 62.6898 24.221 62.9351 24.1143C63.1805 24.0023 63.4605 23.9463 63.7751 23.9463C64.2605 23.9463 64.6525 24.069 64.9511 24.3143C65.2498 24.5597 65.4098 24.8957 65.4311 25.3223H64.7031C64.6871 25.093 64.5938 24.909 64.4231 24.7703C64.2578 24.6317 64.0338 24.5623 63.7511 24.5623C63.4898 24.5623 63.2818 24.6183 63.1271 24.7303C62.9725 24.8423 62.8951 24.989 62.8951 25.1703C62.8951 25.3143 62.9405 25.4343 63.0311 25.5303C63.1271 25.621 63.2445 25.6957 63.3831 25.7543C63.5271 25.8077 63.7245 25.869 63.9751 25.9383C64.2898 26.0237 64.5458 26.109 64.7431 26.1943C64.9405 26.2743 65.1085 26.397 65.2471 26.5623C65.3911 26.7277 65.4658 26.9437 65.4711 27.2103C65.4711 27.4503 65.4045 27.6663 65.2711 27.8583C65.1378 28.0503 64.9485 28.2023 64.7031 28.3143C64.4631 28.421 64.1858 28.4743 63.8711 28.4743Z" fill="white"/>
<rect x="72" width="36.5" height="36.5" rx="18.25" fill="white" fill-opacity="0.1"/>
<path fill-rule="evenodd" clip-rule="evenodd" d="M89.7863 9.63618C89.9253 9.54926 90.086 9.50317 90.25 9.50317C90.414 9.50317 90.5747 9.54926 90.7138 9.63618L96.7548 13.4118L90.25 17.2382L83.7453 13.4118L89.7863 9.63618ZM82.382 14.6403C82.3772 14.6777 82.3749 14.7154 82.375 14.7532V21.7532C82.375 21.9016 82.4127 22.0476 82.4847 22.1774C82.5566 22.3072 82.6604 22.4165 82.7863 22.4952L89.375 26.6129V18.7537L82.382 14.6403ZM91.125 26.6129L97.7138 22.4952C97.8396 22.4165 97.9434 22.3072 98.0153 22.1774C98.0873 22.0476 98.125 21.9016 98.125 21.7532V14.7532C98.125 14.7153 98.1227 14.6776 98.118 14.6403L91.125 18.7528V26.6129Z" fill="white"/>
</svg>
