<svg width="462" height="39" viewBox="0 0 462 39" fill="none" xmlns="http://www.w3.org/2000/svg">
<g filter="url(#filter0_d_800_438)">
<path d="M6.26342 31.9113L12.2995 8.48711H4.7201V4.13152H17.8897V8.07556L11.8537 31.9113H6.26342ZM28.537 32.4257C26.5021 32.4257 24.9588 32.0713 23.9071 31.3625C22.8782 30.6309 22.1809 29.6134 21.815 28.3102C21.4492 27.0069 21.2663 25.4979 21.2663 23.7831H26.7879C26.7879 24.8349 26.8451 25.6923 26.9594 26.3553C27.0737 27.0184 27.2795 27.4985 27.5768 27.7957C27.8968 28.0701 28.3427 28.1959 28.9143 28.173C29.5088 28.1501 29.9317 27.9101 30.1832 27.4528C30.4347 26.9955 30.5834 26.3439 30.6291 25.4979C30.6977 24.6291 30.732 23.5888 30.732 22.377C30.732 21.4624 30.6748 20.6507 30.5605 19.942C30.469 19.2332 30.2633 18.673 29.9432 18.2615C29.6459 17.827 29.1887 17.6098 28.5713 17.6098C27.9997 17.6098 27.531 17.8156 27.1652 18.2272C26.7994 18.6387 26.5364 19.2789 26.3764 20.1477H21.4378L21.9522 4.13152H34.9161V8.93296H26.5479L26.2392 14.6604C26.4678 14.3403 26.9023 14.0659 27.5425 13.8373C28.1826 13.5858 28.8686 13.4257 29.6002 13.3571C31.0178 13.1971 32.2067 13.46 33.167 14.1459C34.1501 14.809 34.8818 15.8264 35.3619 17.1983C35.8649 18.5701 36.1164 20.2506 36.1164 22.2398C36.1164 23.726 36.025 25.0978 35.8421 26.3553C35.6592 27.59 35.3048 28.6646 34.7789 29.5791C34.253 30.4708 33.4871 31.1682 32.4811 31.6712C31.4751 32.1742 30.1604 32.4257 28.537 32.4257ZM47.3583 32.4257C45.6892 32.4257 44.2945 32.0942 43.1742 31.4311C42.0538 30.7452 41.2079 29.8078 40.6363 28.6188C40.0647 27.4299 39.7789 26.0466 39.7789 24.469V11.8824C39.7789 10.2591 40.0418 8.8415 40.5677 7.62971C41.1164 6.39506 41.951 5.43477 43.0713 4.74885C44.1916 4.06293 45.6206 3.71997 47.3583 3.71997C49.096 3.71997 50.5135 4.06293 51.611 4.74885C52.7313 5.43477 53.5544 6.39506 54.0803 7.62971C54.629 8.8415 54.9034 10.2591 54.9034 11.8824V24.469C54.9034 26.0238 54.6176 27.4071 54.046 28.6188C53.4744 29.8078 52.6284 30.7452 51.5081 31.4311C50.3878 32.0942 49.0045 32.4257 47.3583 32.4257ZM47.3583 27.3156C47.907 27.3156 48.2957 27.1441 48.5244 26.8012C48.7759 26.4353 48.9245 26.0238 48.9702 25.5665C49.0388 25.0864 49.0731 24.6748 49.0731 24.3318V12.0196C49.0731 11.6309 49.0502 11.1965 49.0045 10.7163C48.9588 10.2133 48.8102 9.77893 48.5586 9.4131C48.33 9.02441 47.9299 8.83007 47.3583 8.83007C46.7867 8.83007 46.3751 9.02441 46.1236 9.4131C45.895 9.77893 45.7578 10.2133 45.7121 10.7163C45.6664 11.1965 45.6435 11.6309 45.6435 12.0196V24.3318C45.6435 24.6748 45.6778 25.0864 45.7464 25.5665C45.815 26.0238 45.9636 26.4353 46.1922 26.8012C46.4437 27.1441 46.8324 27.3156 47.3583 27.3156ZM59.4238 31.9113L59.9039 4.13152H66.4887L69.5411 20.2849L72.8335 4.13152H79.1782L79.6584 31.9113H75.3028L74.7884 13.4257L71.5645 31.9113H67.6891L64.2595 13.2885L63.8479 31.9113H59.4238ZM84.3604 31.9113V4.13152H90.4994V27.7614H96.8784V31.9113H84.3604ZM109.713 31.9113V4.13152H117.361C119.235 4.13152 120.859 4.3373 122.231 4.74885C123.603 5.1604 124.666 5.90348 125.42 6.97809C126.198 8.02983 126.586 9.52742 126.586 11.4709C126.586 12.6141 126.495 13.6315 126.312 14.5232C126.129 15.4149 125.786 16.1923 125.283 16.8553C124.803 17.4955 124.106 18.0328 123.191 18.4672L126.998 31.9113H120.653L117.601 19.4618H115.852V31.9113H109.713ZM115.852 15.9293H117.566C118.435 15.9293 119.11 15.7807 119.59 15.4835C120.07 15.1634 120.402 14.7175 120.584 14.1459C120.79 13.5515 120.893 12.8427 120.893 12.0196C120.893 10.8307 120.676 9.90468 120.241 9.24162C119.807 8.57857 119.007 8.24704 117.841 8.24704H115.852V15.9293ZM138.651 32.3228C136.571 32.3228 134.925 31.957 133.713 31.2253C132.501 30.4937 131.632 29.4419 131.106 28.0701C130.58 26.6983 130.318 25.0635 130.318 23.1658V12.8427C130.318 10.9221 130.58 9.28735 131.106 7.93837C131.632 6.5894 132.501 5.56052 133.713 4.85174C134.925 4.12009 136.571 3.75427 138.651 3.75427C140.755 3.75427 142.413 4.12009 143.624 4.85174C144.859 5.56052 145.739 6.5894 146.265 7.93837C146.791 9.28735 147.054 10.9221 147.054 12.8427V23.1658C147.054 25.0635 146.791 26.6983 146.265 28.0701C145.739 29.4419 144.859 30.4937 143.624 31.2253C142.413 31.957 140.755 32.3228 138.651 32.3228ZM138.651 27.9672C139.292 27.9672 139.76 27.8072 140.058 27.4871C140.355 27.167 140.549 26.7554 140.641 26.2524C140.732 25.7494 140.778 25.235 140.778 24.7091V11.3337C140.778 10.7849 140.732 10.2705 140.641 9.79036C140.549 9.28735 140.355 8.8758 140.058 8.5557C139.76 8.23561 139.292 8.07556 138.651 8.07556C138.057 8.07556 137.611 8.23561 137.314 8.5557C137.017 8.8758 136.822 9.28735 136.731 9.79036C136.639 10.2705 136.594 10.7849 136.594 11.3337V24.7091C136.594 25.235 136.628 25.7494 136.697 26.2524C136.788 26.7554 136.971 27.167 137.245 27.4871C137.543 27.8072 138.011 27.9672 138.651 27.9672ZM159.501 32.3228C157.375 32.3228 155.706 31.9798 154.494 31.2939C153.305 30.5851 152.471 29.5677 151.99 28.2416C151.51 26.8926 151.27 25.2464 151.27 23.303V4.13152H157.341V24.229C157.341 24.8006 157.386 25.3722 157.478 25.9438C157.569 26.5154 157.764 26.9841 158.061 27.3499C158.381 27.7157 158.861 27.8986 159.501 27.8986C160.164 27.8986 160.644 27.7157 160.942 27.3499C161.239 26.9841 161.422 26.5154 161.49 25.9438C161.582 25.3722 161.628 24.8006 161.628 24.229V4.13152H167.732V23.303C167.732 25.2464 167.481 26.8926 166.978 28.2416C166.498 29.5677 165.663 30.5851 164.474 31.2939C163.285 31.9798 161.628 32.3228 159.501 32.3228ZM172.324 31.9113V4.13152H176.645L182.339 17.5069V4.13152H187.414V31.9113H183.265L177.571 17.5069V31.9113H172.324ZM192.235 31.9113V4.13152H199.265C201.689 4.13152 203.575 4.44019 204.924 5.05751C206.273 5.65198 207.222 6.60083 207.771 7.90408C208.319 9.18446 208.594 10.8535 208.594 12.9113V22.9943C208.594 25.0749 208.319 26.7783 207.771 28.1044C207.222 29.4076 206.273 30.3679 204.924 30.9853C203.598 31.6026 201.735 31.9113 199.334 31.9113H192.235ZM198.374 27.6586H199.334C200.271 27.6586 200.946 27.5214 201.357 27.247C201.769 26.9726 202.02 26.5611 202.112 26.0123C202.226 25.4636 202.283 24.7777 202.283 23.9546V11.8481C202.283 11.025 202.215 10.362 202.078 9.85895C201.963 9.35594 201.7 8.99012 201.289 8.76148C200.877 8.53284 200.214 8.41852 199.3 8.41852H198.374V27.6586ZM224.98 31.9113V8.69289H220.796V4.13152H235.303V8.69289H231.154V31.9113H224.98ZM235.557 31.9113L240.804 4.13152H247.801L252.979 31.9113H247.32L246.394 26.0466H242.313L241.353 31.9113H235.557ZM242.862 22.377H245.811L244.337 11.5395L242.862 22.377ZM256.47 31.9113V4.13152H262.609V27.7614H268.988V31.9113H256.47ZM272.361 31.9113V4.13152H278.5V27.7614H284.879V31.9113H272.361ZM305.67 32.3228C303.567 32.3228 301.898 31.9456 300.663 31.191C299.451 30.4137 298.594 29.3391 298.091 27.9672C297.588 26.5725 297.336 24.9377 297.336 23.0629V13.0485C297.336 11.1279 297.588 9.48169 298.091 8.10986C298.594 6.71515 299.451 5.64055 300.663 4.88603C301.898 4.13152 303.567 3.75427 305.67 3.75427C307.728 3.75427 309.328 4.09723 310.472 4.78315C311.638 5.4462 312.461 6.38363 312.941 7.59542C313.421 8.80721 313.661 10.2019 313.661 11.7795V14.1802H307.659V11.4023C307.659 10.8535 307.625 10.3277 307.556 9.82465C307.511 9.32165 307.351 8.9101 307.076 8.59C306.802 8.24704 306.333 8.07556 305.67 8.07556C305.03 8.07556 304.55 8.24704 304.23 8.59C303.932 8.93296 303.738 9.36737 303.647 9.89325C303.578 10.3963 303.544 10.9336 303.544 11.5052V24.5719C303.544 25.1892 303.59 25.7608 303.681 26.2867C303.795 26.7897 304.001 27.2013 304.298 27.5214C304.618 27.8186 305.076 27.9672 305.67 27.9672C306.31 27.9672 306.768 27.8072 307.042 27.4871C307.316 27.1441 307.488 26.7097 307.556 26.1838C307.625 25.658 307.659 25.1207 307.659 24.5719V21.6568H313.661V24.0575C313.661 25.6351 313.421 27.0527 312.941 28.3102C312.484 29.5448 311.672 30.528 310.506 31.2596C309.363 31.9684 307.751 32.3228 305.67 32.3228ZM325.681 32.3228C323.6 32.3228 321.954 31.957 320.742 31.2253C319.531 30.4937 318.662 29.4419 318.136 28.0701C317.61 26.6983 317.347 25.0635 317.347 23.1658V12.8427C317.347 10.9221 317.61 9.28735 318.136 7.93837C318.662 6.5894 319.531 5.56052 320.742 4.85174C321.954 4.12009 323.6 3.75427 325.681 3.75427C327.785 3.75427 329.442 4.12009 330.654 4.85174C331.889 5.56052 332.769 6.5894 333.295 7.93837C333.821 9.28735 334.084 10.9221 334.084 12.8427V23.1658C334.084 25.0635 333.821 26.6983 333.295 28.0701C332.769 29.4419 331.889 30.4937 330.654 31.2253C329.442 31.957 327.785 32.3228 325.681 32.3228ZM325.681 27.9672C326.321 27.9672 326.79 27.8072 327.087 27.4871C327.384 27.167 327.579 26.7554 327.67 26.2524C327.762 25.7494 327.807 25.235 327.807 24.7091V11.3337C327.807 10.7849 327.762 10.2705 327.67 9.79036C327.579 9.28735 327.384 8.8758 327.087 8.5557C326.79 8.23561 326.321 8.07556 325.681 8.07556C325.087 8.07556 324.641 8.23561 324.343 8.5557C324.046 8.8758 323.852 9.28735 323.76 9.79036C323.669 10.2705 323.623 10.7849 323.623 11.3337V24.7091C323.623 25.235 323.658 25.7494 323.726 26.2524C323.818 26.7554 324.001 27.167 324.275 27.4871C324.572 27.8072 325.041 27.9672 325.681 27.9672ZM338.506 31.9113V4.13152H342.827L348.52 17.5069V4.13152H353.596V31.9113H349.446L343.753 17.5069V31.9113H338.506ZM360.92 31.9113V8.69289H356.735V4.13152H371.243V8.69289H367.093V31.9113H360.92ZM371.496 31.9113L376.743 4.13152H383.74L388.918 31.9113H383.26L382.334 26.0466H378.252L377.292 31.9113H371.496ZM378.801 22.377H381.751L380.276 11.5395L378.801 22.377ZM392.443 31.9113V4.13152H398.582V31.9113H392.443ZM403.411 31.9113V4.13152H407.732L413.425 17.5069V4.13152H418.501V31.9113H414.351L408.658 17.5069V31.9113H403.411ZM423.321 31.9113V4.13152H435.805V8.31563H429.46V15.2091H434.296V19.4618H429.46V27.7614H435.873V31.9113H423.321ZM439.346 31.9113V4.13152H446.994C448.869 4.13152 450.493 4.3373 451.864 4.74885C453.236 5.1604 454.299 5.90348 455.054 6.97809C455.831 8.02983 456.22 9.52742 456.22 11.4709C456.22 12.6141 456.129 13.6315 455.946 14.5232C455.763 15.4149 455.42 16.1923 454.917 16.8553C454.437 17.4955 453.739 18.0328 452.825 18.4672L456.632 31.9113H450.287L447.234 19.4618H445.485V31.9113H439.346ZM445.485 15.9293H447.2C448.069 15.9293 448.744 15.7807 449.224 15.4835C449.704 15.1634 450.035 14.7175 450.218 14.1459C450.424 13.5515 450.527 12.8427 450.527 12.0196C450.527 10.8307 450.31 9.90468 449.875 9.24162C449.441 8.57857 448.641 8.24704 447.475 8.24704H445.485V15.9293Z" fill="white"/>
</g>
<defs>
<filter id="filter0_d_800_438" x="-0.000273228" y="-2.90871e-05" width="461.352" height="38.1457" filterUnits="userSpaceOnUse" color-interpolation-filters="sRGB">
<feFlood flood-opacity="0" result="BackgroundImageFix"/>
<feColorMatrix in="SourceAlpha" type="matrix" values="0 0 0 0 0 0 0 0 0 0 0 0 0 0 0 0 0 0 127 0" result="hardAlpha"/>
<feOffset dy="1"/>
<feGaussianBlur stdDeviation="2.36"/>
<feComposite in2="hardAlpha" operator="out"/>
<feColorMatrix type="matrix" values="0 0 0 0 0 0 0 0 0 0 0 0 0 0 0 0 0 0 0.25 0"/>
<feBlend mode="normal" in2="BackgroundImageFix" result="effect1_dropShadow_800_438"/>
<feBlend mode="normal" in="SourceGraphic" in2="effect1_dropShadow_800_438" result="shape"/>
</filter>
</defs>
</svg>
