<svg width="116" height="37" viewBox="0 0 116 37" fill="none" xmlns="http://www.w3.org/2000/svg">
<rect width="36.5" height="36.5" rx="18.25" fill="white" fill-opacity="0.1"/>
<path d="M16.4163 20.9974V18.2474M20.083 20.9974V18.2474M23.7497 20.9974V18.2474M9.08301 14.5807V10.9141M27.4163 12.7474H9.08301M27.4163 14.5807V10.9141M12.7497 20.9974V18.2474" stroke="white" stroke-width="2.06182" stroke-linecap="round" stroke-linejoin="round"/>
<path d="M25.583 18.2479H10.9163C9.90382 18.2479 9.08301 19.0687 9.08301 20.0813V23.7479C9.08301 24.7604 9.90382 25.5813 10.9163 25.5813H25.583C26.5955 25.5813 27.4163 24.7604 27.4163 23.7479V20.0813C27.4163 19.0687 26.5955 18.2479 25.583 18.2479Z" stroke="white" stroke-width="2.06182" stroke-linecap="round" stroke-linejoin="round"/>
<path d="M49.725 11.4828C49.725 12.0128 49.6367 12.4994 49.46 12.9428C49.2833 13.3861 49.035 13.7678 48.715 14.0878C48.395 14.4078 48.01 14.6561 47.56 14.8328C47.11 15.0094 46.61 15.0978 46.06 15.0978H43.305V7.86778H46.06C46.61 7.86778 47.11 7.95778 47.56 8.13778C48.01 8.31444 48.395 8.56278 48.715 8.88278C49.035 9.19944 49.2833 9.57944 49.46 10.0228C49.6367 10.4661 49.725 10.9528 49.725 11.4828ZM48.345 11.4828C48.345 11.0861 48.2917 10.7311 48.185 10.4178C48.0817 10.1011 47.93 9.83444 47.73 9.61778C47.5333 9.39778 47.2933 9.22944 47.01 9.11278C46.73 8.99611 46.4133 8.93778 46.06 8.93778H44.655V14.0278H46.06C46.4133 14.0278 46.73 13.9694 47.01 13.8528C47.2933 13.7361 47.5333 13.5694 47.73 13.3528C47.93 13.1328 48.0817 12.8661 48.185 12.5528C48.2917 12.2361 48.345 11.8794 48.345 11.4828ZM51.9095 9.96778V15.0978H50.6695V9.96778H51.9095ZM52.0795 8.47278C52.0795 8.57944 52.0579 8.67944 52.0145 8.77278C51.9712 8.86611 51.9129 8.94778 51.8395 9.01778C51.7695 9.08778 51.6862 9.14444 51.5895 9.18778C51.4929 9.22778 51.3895 9.24778 51.2795 9.24778C51.1729 9.24778 51.0712 9.22778 50.9745 9.18778C50.8812 9.14444 50.7995 9.08778 50.7295 9.01778C50.6595 8.94778 50.6029 8.86611 50.5595 8.77278C50.5195 8.67944 50.4995 8.57944 50.4995 8.47278C50.4995 8.36278 50.5195 8.25944 50.5595 8.16278C50.6029 8.06611 50.6595 7.98278 50.7295 7.91278C50.7995 7.84278 50.8812 7.78778 50.9745 7.74778C51.0712 7.70444 51.1729 7.68278 51.2795 7.68278C51.3895 7.68278 51.4929 7.70444 51.5895 7.74778C51.6862 7.78778 51.7695 7.84278 51.8395 7.91278C51.9129 7.98278 51.9712 8.06611 52.0145 8.16278C52.0579 8.25944 52.0795 8.36278 52.0795 8.47278ZM53.1686 15.0978V9.96778H53.9236C54.0836 9.96778 54.1886 10.0428 54.2386 10.1928L54.3186 10.5728C54.4086 10.4728 54.5019 10.3811 54.5986 10.2978C54.6986 10.2144 54.8036 10.1428 54.9136 10.0828C55.0269 10.0228 55.1469 9.97611 55.2736 9.94278C55.4036 9.90611 55.5453 9.88778 55.6986 9.88778C56.0219 9.88778 56.2869 9.97611 56.4936 10.1528C56.7036 10.3261 56.8603 10.5578 56.9636 10.8478C57.0436 10.6778 57.1436 10.5328 57.2636 10.4128C57.3836 10.2894 57.5153 10.1894 57.6586 10.1128C57.8019 10.0361 57.9536 9.97944 58.1136 9.94278C58.2769 9.90611 58.4403 9.88778 58.6036 9.88778C58.8869 9.88778 59.1386 9.93111 59.3586 10.0178C59.5786 10.1044 59.7636 10.2311 59.9136 10.3978C60.0636 10.5644 60.1769 10.7678 60.2536 11.0078C60.3336 11.2478 60.3736 11.5228 60.3736 11.8328V15.0978H59.1386V11.8328C59.1386 11.5061 59.0669 11.2611 58.9236 11.0978C58.7803 10.9311 58.5703 10.8478 58.2936 10.8478C58.1669 10.8478 58.0486 10.8694 57.9386 10.9128C57.8319 10.9561 57.7369 11.0194 57.6536 11.1028C57.5736 11.1828 57.5103 11.2844 57.4636 11.4078C57.4169 11.5311 57.3936 11.6728 57.3936 11.8328V15.0978H56.1536V11.8328C56.1536 11.4894 56.0836 11.2394 55.9436 11.0828C55.8069 10.9261 55.6053 10.8478 55.3386 10.8478C55.1586 10.8478 54.9903 10.8928 54.8336 10.9828C54.6803 11.0694 54.5369 11.1894 54.4036 11.3428V15.0978H53.1686ZM64.8525 11.9428C64.8525 11.7828 64.8292 11.6328 64.7825 11.4928C64.7392 11.3494 64.6725 11.2244 64.5825 11.1178C64.4925 11.0111 64.3775 10.9278 64.2375 10.8678C64.1008 10.8044 63.9408 10.7728 63.7575 10.7728C63.4008 10.7728 63.1192 10.8744 62.9125 11.0778C62.7092 11.2811 62.5792 11.5694 62.5225 11.9428H64.8525ZM62.4975 12.6878C62.5175 12.9511 62.5642 13.1794 62.6375 13.3728C62.7108 13.5628 62.8075 13.7211 62.9275 13.8478C63.0475 13.9711 63.1892 14.0644 63.3525 14.1278C63.5192 14.1878 63.7025 14.2178 63.9025 14.2178C64.1025 14.2178 64.2742 14.1944 64.4175 14.1478C64.5642 14.1011 64.6908 14.0494 64.7975 13.9928C64.9075 13.9361 65.0025 13.8844 65.0825 13.8378C65.1658 13.7911 65.2458 13.7678 65.3225 13.7678C65.4258 13.7678 65.5025 13.8061 65.5525 13.8828L65.9075 14.3328C65.7708 14.4928 65.6175 14.6278 65.4475 14.7378C65.2775 14.8444 65.0992 14.9311 64.9125 14.9978C64.7292 15.0611 64.5408 15.1061 64.3475 15.1328C64.1575 15.1594 63.9725 15.1728 63.7925 15.1728C63.4358 15.1728 63.1042 15.1144 62.7975 14.9978C62.4908 14.8778 62.2242 14.7028 61.9975 14.4728C61.7708 14.2394 61.5925 13.9528 61.4625 13.6128C61.3325 13.2694 61.2675 12.8728 61.2675 12.4228C61.2675 12.0728 61.3242 11.7444 61.4375 11.4378C61.5508 11.1278 61.7125 10.8594 61.9225 10.6328C62.1358 10.4028 62.3942 10.2211 62.6975 10.0878C63.0042 9.95444 63.3492 9.88778 63.7325 9.88778C64.0558 9.88778 64.3542 9.93944 64.6275 10.0428C64.9008 10.1461 65.1358 10.2978 65.3325 10.4978C65.5292 10.6944 65.6825 10.9378 65.7925 11.2278C65.9058 11.5144 65.9625 11.8428 65.9625 12.2128C65.9625 12.3994 65.9425 12.5261 65.9025 12.5928C65.8625 12.6561 65.7858 12.6878 65.6725 12.6878H62.4975ZM68.0443 10.5978C68.1476 10.4944 68.256 10.3994 68.3693 10.3128C68.486 10.2228 68.6076 10.1478 68.7343 10.0878C68.8643 10.0244 69.0026 9.97611 69.1493 9.94278C69.296 9.90611 69.456 9.88778 69.6293 9.88778C69.9093 9.88778 70.1576 9.93611 70.3743 10.0328C70.591 10.1261 70.771 10.2594 70.9143 10.4328C71.061 10.6028 71.171 10.8078 71.2443 11.0478C71.321 11.2844 71.3593 11.5461 71.3593 11.8328V15.0978H70.1243V11.8328C70.1243 11.5194 70.0526 11.2778 69.9093 11.1078C69.766 10.9344 69.5476 10.8478 69.2543 10.8478C69.041 10.8478 68.841 10.8961 68.6543 10.9928C68.4676 11.0894 68.291 11.2211 68.1243 11.3878V15.0978H66.8893V9.96778H67.6443C67.8043 9.96778 67.9093 10.0428 67.9593 10.1928L68.0443 10.5978ZM75.6638 10.9678C75.6305 11.0211 75.5955 11.0594 75.5588 11.0828C75.5222 11.1028 75.4755 11.1128 75.4188 11.1128C75.3588 11.1128 75.2938 11.0961 75.2238 11.0628C75.1572 11.0294 75.0788 10.9928 74.9888 10.9528C74.8988 10.9094 74.7955 10.8711 74.6788 10.8378C74.5655 10.8044 74.4305 10.7878 74.2738 10.7878C74.0305 10.7878 73.8388 10.8394 73.6988 10.9428C73.5622 11.0461 73.4938 11.1811 73.4938 11.3478C73.4938 11.4578 73.5288 11.5511 73.5988 11.6278C73.6722 11.7011 73.7672 11.7661 73.8838 11.8228C74.0038 11.8794 74.1388 11.9311 74.2888 11.9778C74.4388 12.0211 74.5905 12.0694 74.7438 12.1228C74.9005 12.1761 75.0538 12.2378 75.2038 12.3078C75.3538 12.3744 75.4872 12.4611 75.6038 12.5678C75.7238 12.6711 75.8188 12.7961 75.8888 12.9428C75.9622 13.0894 75.9988 13.2661 75.9988 13.4728C75.9988 13.7194 75.9538 13.9478 75.8638 14.1578C75.7772 14.3644 75.6472 14.5444 75.4738 14.6978C75.3005 14.8478 75.0855 14.9661 74.8288 15.0528C74.5755 15.1361 74.2822 15.1778 73.9488 15.1778C73.7722 15.1778 73.5988 15.1611 73.4288 15.1278C73.2622 15.0978 73.1005 15.0544 72.9438 14.9978C72.7905 14.9411 72.6472 14.8744 72.5138 14.7978C72.3838 14.7211 72.2688 14.6378 72.1688 14.5478L72.4538 14.0778C72.4905 14.0211 72.5338 13.9778 72.5838 13.9478C72.6338 13.9178 72.6972 13.9028 72.7738 13.9028C72.8505 13.9028 72.9222 13.9244 72.9888 13.9678C73.0588 14.0111 73.1388 14.0578 73.2288 14.1078C73.3188 14.1578 73.4238 14.2044 73.5438 14.2478C73.6672 14.2911 73.8222 14.3128 74.0088 14.3128C74.1555 14.3128 74.2805 14.2961 74.3838 14.2628C74.4905 14.2261 74.5772 14.1794 74.6438 14.1228C74.7138 14.0661 74.7638 14.0011 74.7938 13.9278C74.8272 13.8511 74.8438 13.7728 74.8438 13.6928C74.8438 13.5728 74.8072 13.4744 74.7338 13.3978C74.6638 13.3211 74.5688 13.2544 74.4488 13.1978C74.3322 13.1411 74.1972 13.0911 74.0438 13.0478C73.8938 13.0011 73.7388 12.9511 73.5788 12.8978C73.4222 12.8444 73.2672 12.7828 73.1138 12.7128C72.9638 12.6394 72.8288 12.5478 72.7088 12.4378C72.5922 12.3278 72.4972 12.1928 72.4238 12.0328C72.3538 11.8728 72.3188 11.6794 72.3188 11.4528C72.3188 11.2428 72.3605 11.0428 72.4438 10.8528C72.5272 10.6628 72.6488 10.4978 72.8088 10.3578C72.9722 10.2144 73.1738 10.1011 73.4138 10.0178C73.6572 9.93111 73.9372 9.88778 74.2538 9.88778C74.6072 9.88778 74.9288 9.94611 75.2188 10.0628C75.5088 10.1794 75.7505 10.3328 75.9438 10.5228L75.6638 10.9678ZM78.2084 9.96778V15.0978H76.9684V9.96778H78.2084ZM78.3784 8.47278C78.3784 8.57944 78.3567 8.67944 78.3134 8.77278C78.27 8.86611 78.2117 8.94778 78.1384 9.01778C78.0684 9.08778 77.985 9.14444 77.8884 9.18778C77.7917 9.22778 77.6884 9.24778 77.5784 9.24778C77.4717 9.24778 77.37 9.22778 77.2734 9.18778C77.18 9.14444 77.0984 9.08778 77.0284 9.01778C76.9584 8.94778 76.9017 8.86611 76.8584 8.77278C76.8184 8.67944 76.7984 8.57944 76.7984 8.47278C76.7984 8.36278 76.8184 8.25944 76.8584 8.16278C76.9017 8.06611 76.9584 7.98278 77.0284 7.91278C77.0984 7.84278 77.18 7.78778 77.2734 7.74778C77.37 7.70444 77.4717 7.68278 77.5784 7.68278C77.6884 7.68278 77.7917 7.70444 77.8884 7.74778C77.985 7.78778 78.0684 7.84278 78.1384 7.91278C78.2117 7.98278 78.27 8.06611 78.3134 8.16278C78.3567 8.25944 78.3784 8.36278 78.3784 8.47278ZM81.7374 9.88778C82.1174 9.88778 82.4624 9.94944 82.7724 10.0728C83.0858 10.1961 83.3524 10.3711 83.5724 10.5978C83.7958 10.8244 83.9674 11.1011 84.0874 11.4278C84.2074 11.7544 84.2674 12.1194 84.2674 12.5228C84.2674 12.9294 84.2074 13.2961 84.0874 13.6228C83.9674 13.9494 83.7958 14.2278 83.5724 14.4578C83.3524 14.6878 83.0858 14.8644 82.7724 14.9878C82.4624 15.1111 82.1174 15.1728 81.7374 15.1728C81.3541 15.1728 81.0058 15.1111 80.6924 14.9878C80.3791 14.8644 80.1108 14.6878 79.8874 14.4578C79.6674 14.2278 79.4958 13.9494 79.3724 13.6228C79.2524 13.2961 79.1924 12.9294 79.1924 12.5228C79.1924 12.1194 79.2524 11.7544 79.3724 11.4278C79.4958 11.1011 79.6674 10.8244 79.8874 10.5978C80.1108 10.3711 80.3791 10.1961 80.6924 10.0728C81.0058 9.94944 81.3541 9.88778 81.7374 9.88778ZM81.7374 14.2228C82.1641 14.2228 82.4791 14.0794 82.6824 13.7928C82.8891 13.5061 82.9924 13.0861 82.9924 12.5328C82.9924 11.9794 82.8891 11.5578 82.6824 11.2678C82.4791 10.9778 82.1641 10.8328 81.7374 10.8328C81.3041 10.8328 80.9824 10.9794 80.7724 11.2728C80.5658 11.5628 80.4624 11.9828 80.4624 12.5328C80.4624 13.0828 80.5658 13.5028 80.7724 13.7928C80.9824 14.0794 81.3041 14.2228 81.7374 14.2228ZM86.3646 10.5978C86.4679 10.4944 86.5763 10.3994 86.6896 10.3128C86.8063 10.2228 86.9279 10.1478 87.0546 10.0878C87.1846 10.0244 87.3229 9.97611 87.4696 9.94278C87.6163 9.90611 87.7763 9.88778 87.9496 9.88778C88.2296 9.88778 88.4779 9.93611 88.6946 10.0328C88.9113 10.1261 89.0913 10.2594 89.2346 10.4328C89.3813 10.6028 89.4913 10.8078 89.5646 11.0478C89.6413 11.2844 89.6796 11.5461 89.6796 11.8328V15.0978H88.4446V11.8328C88.4446 11.5194 88.3729 11.2778 88.2296 11.1078C88.0863 10.9344 87.8679 10.8478 87.5746 10.8478C87.3613 10.8478 87.1613 10.8961 86.9746 10.9928C86.7879 11.0894 86.6113 11.2211 86.4446 11.3878V15.0978H85.2096V9.96778H85.9646C86.1246 9.96778 86.2296 10.0428 86.2796 10.1928L86.3646 10.5978Z" fill="white"/>
<path d="M42.804 23.2823V22.6183H44.308V28.4023H43.572V23.2823H42.804ZM45.3825 27.1143V26.5623L48.1905 22.6743H49.0625V26.4823H49.8625V27.1143H49.0625V28.4023H48.3425V27.1143H45.3825ZM48.3745 23.4343L46.2225 26.4823H48.3745V23.4343ZM54.2778 23.2503H51.4698V25.0743C51.5924 24.9037 51.7738 24.765 52.0138 24.6583C52.2538 24.5463 52.5124 24.4903 52.7898 24.4903C53.2324 24.4903 53.5924 24.5837 53.8698 24.7703C54.1471 24.9517 54.3444 25.189 54.4618 25.4823C54.5844 25.7703 54.6458 26.077 54.6458 26.4023C54.6458 26.7863 54.5738 27.1303 54.4298 27.4343C54.2858 27.7383 54.0644 27.9783 53.7658 28.1543C53.4724 28.3303 53.1071 28.4183 52.6698 28.4183C52.1098 28.4183 51.6564 28.2743 51.3098 27.9863C50.9631 27.6983 50.7524 27.3143 50.6778 26.8343H51.3898C51.4591 27.1383 51.6058 27.3757 51.8298 27.5463C52.0538 27.717 52.3364 27.8023 52.6778 27.8023C53.0991 27.8023 53.4164 27.677 53.6298 27.4263C53.8431 27.1703 53.9498 26.8343 53.9498 26.4183C53.9498 26.0023 53.8431 25.6823 53.6298 25.4583C53.4164 25.229 53.1018 25.1143 52.6858 25.1143C52.4031 25.1143 52.1551 25.1837 51.9418 25.3223C51.7338 25.4557 51.5818 25.6397 51.4858 25.8743H50.7978V22.6103H54.2778V23.2503ZM61.098 27.2023L59.826 25.9303L58.554 27.2023L58.074 26.7223L59.346 25.4503L58.098 24.2023L58.562 23.7303L59.818 24.9863L61.074 23.7303L61.554 24.2103L60.298 25.4663L61.562 26.7383L61.098 27.2023ZM64.8274 23.2823V22.6183H66.3314V28.4023H65.5954V23.2823H64.8274ZM67.4939 27.8183C68.1713 27.2743 68.7019 26.829 69.0859 26.4823C69.4699 26.1303 69.7926 25.765 70.0539 25.3863C70.3206 25.0023 70.4539 24.6263 70.4539 24.2583C70.4539 23.9117 70.3686 23.6397 70.1979 23.4423C70.0326 23.2397 69.7633 23.1383 69.3899 23.1383C69.0273 23.1383 68.7446 23.253 68.5419 23.4823C68.3446 23.7063 68.2379 24.0077 68.2219 24.3863H67.5179C67.5393 23.789 67.7206 23.3277 68.0619 23.0023C68.4033 22.677 68.8433 22.5143 69.3819 22.5143C69.9313 22.5143 70.3659 22.6663 70.6859 22.9703C71.0113 23.2743 71.1739 23.693 71.1739 24.2263C71.1739 24.669 71.0406 25.101 70.7739 25.5223C70.5126 25.9383 70.2139 26.3063 69.8779 26.6263C69.5419 26.941 69.1126 27.309 68.5899 27.7303H71.3419V28.3383H67.4939V27.8183ZM72.1835 25.4503C72.1835 24.533 72.3328 23.8183 72.6315 23.3063C72.9302 22.789 73.4528 22.5303 74.1995 22.5303C74.9408 22.5303 75.4608 22.789 75.7595 23.3063C76.0582 23.8183 76.2075 24.533 76.2075 25.4503C76.2075 26.3837 76.0582 27.109 75.7595 27.6263C75.4608 28.1437 74.9408 28.4023 74.1995 28.4023C73.4528 28.4023 72.9302 28.1437 72.6315 27.6263C72.3328 27.109 72.1835 26.3837 72.1835 25.4503ZM75.4875 25.4503C75.4875 24.9863 75.4555 24.5943 75.3915 24.2743C75.3328 23.949 75.2075 23.6877 75.0155 23.4903C74.8288 23.293 74.5568 23.1943 74.1995 23.1943C73.8368 23.1943 73.5595 23.293 73.3675 23.4903C73.1808 23.6877 73.0555 23.949 72.9915 24.2743C72.9328 24.5943 72.9035 24.9863 72.9035 25.4503C72.9035 25.9303 72.9328 26.333 72.9915 26.6583C73.0555 26.9837 73.1808 27.245 73.3675 27.4423C73.5595 27.6397 73.8368 27.7383 74.1995 27.7383C74.5568 27.7383 74.8288 27.6397 75.0155 27.4423C75.2075 27.245 75.3328 26.9837 75.3915 26.6583C75.4555 26.333 75.4875 25.9303 75.4875 25.4503ZM82.6918 27.2023L81.4198 25.9303L80.1478 27.2023L79.6678 26.7223L80.9398 25.4503L79.6918 24.2023L80.1558 23.7303L81.4118 24.9863L82.6678 23.7303L83.1478 24.2103L81.8918 25.4663L83.1558 26.7383L82.6918 27.2023ZM89.8372 23.9943C89.7199 23.4023 89.3545 23.1063 88.7412 23.1063C88.2665 23.1063 87.9119 23.2903 87.6772 23.6583C87.4425 24.021 87.3279 24.621 87.3332 25.4583C87.4559 25.181 87.6585 24.965 87.9412 24.8103C88.2292 24.6503 88.5492 24.5703 88.9012 24.5703C89.4505 24.5703 89.8879 24.741 90.2132 25.0823C90.5439 25.4237 90.7092 25.8957 90.7092 26.4983C90.7092 26.861 90.6372 27.1863 90.4932 27.4743C90.3545 27.7623 90.1412 27.9917 89.8532 28.1623C89.5705 28.333 89.2265 28.4183 88.8212 28.4183C88.2719 28.4183 87.8425 28.2957 87.5332 28.0503C87.2239 27.805 87.0079 27.4663 86.8852 27.0343C86.7625 26.6023 86.7012 26.069 86.7012 25.4343C86.7012 23.477 87.3839 22.4983 88.7492 22.4983C89.2719 22.4983 89.6825 22.6397 89.9812 22.9223C90.2799 23.205 90.4559 23.5623 90.5092 23.9943H89.8372ZM88.7492 25.1863C88.5199 25.1863 88.3039 25.2343 88.1012 25.3303C87.8985 25.421 87.7332 25.5623 87.6052 25.7543C87.4825 25.941 87.4212 26.1703 87.4212 26.4423C87.4212 26.8477 87.5385 27.1783 87.7732 27.4343C88.0079 27.685 88.3439 27.8103 88.7812 27.8103C89.1545 27.8103 89.4505 27.6957 89.6692 27.4663C89.8932 27.2317 90.0052 26.917 90.0052 26.5223C90.0052 26.1063 89.8985 25.781 89.6852 25.5463C89.4719 25.3063 89.1599 25.1863 88.7492 25.1863ZM92.7473 25.3943C92.4486 25.277 92.2193 25.1063 92.0593 24.8823C91.8993 24.6583 91.8193 24.3863 91.8193 24.0663C91.8193 23.7783 91.8913 23.5197 92.0353 23.2903C92.1793 23.0557 92.3926 22.8717 92.6753 22.7383C92.9633 22.5997 93.31 22.5303 93.7153 22.5303C94.1206 22.5303 94.4646 22.5997 94.7473 22.7383C95.0353 22.8717 95.2513 23.0557 95.3953 23.2903C95.5446 23.5197 95.6193 23.7783 95.6193 24.0663C95.6193 24.3757 95.5366 24.6477 95.3713 24.8823C95.206 25.1117 94.9793 25.2823 94.6913 25.3943C95.022 25.4957 95.2833 25.6743 95.4753 25.9303C95.6726 26.181 95.7713 26.485 95.7713 26.8423C95.7713 27.189 95.686 27.493 95.5153 27.7543C95.3446 28.0103 95.102 28.2103 94.7873 28.3543C94.478 28.493 94.1206 28.5623 93.7153 28.5623C93.31 28.5623 92.9526 28.493 92.6433 28.3543C92.3393 28.2103 92.102 28.0103 91.9313 27.7543C91.7606 27.493 91.6753 27.189 91.6753 26.8423C91.6753 26.485 91.7713 26.1783 91.9633 25.9223C92.1553 25.6663 92.4166 25.4903 92.7473 25.3943ZM94.9153 24.1543C94.9153 23.829 94.8086 23.5783 94.5953 23.4023C94.382 23.2263 94.0886 23.1383 93.7153 23.1383C93.3473 23.1383 93.0566 23.2263 92.8433 23.4023C92.63 23.5783 92.5233 23.8317 92.5233 24.1623C92.5233 24.461 92.6326 24.701 92.8513 24.8823C93.0753 25.0637 93.3633 25.1543 93.7153 25.1543C94.0726 25.1543 94.3606 25.0637 94.5793 24.8823C94.8033 24.6957 94.9153 24.453 94.9153 24.1543ZM93.7153 25.7143C93.3206 25.7143 92.998 25.8077 92.7473 25.9943C92.4966 26.1757 92.3713 26.4503 92.3713 26.8183C92.3713 27.1597 92.4913 27.4343 92.7313 27.6423C92.9766 27.8503 93.3046 27.9543 93.7153 27.9543C94.126 27.9543 94.4513 27.8503 94.6913 27.6423C94.9313 27.4343 95.0513 27.1597 95.0513 26.8183C95.0513 26.461 94.9286 26.189 94.6833 26.0023C94.438 25.8103 94.1153 25.7143 93.7153 25.7143ZM104.263 23.9383C104.604 23.9383 104.908 24.0103 105.175 24.1543C105.442 24.293 105.652 24.5037 105.807 24.7863C105.962 25.069 106.039 25.413 106.039 25.8183V28.4023H105.319V25.9223C105.319 25.485 105.21 25.1517 104.991 24.9223C104.778 24.6877 104.487 24.5703 104.119 24.5703C103.74 24.5703 103.439 24.693 103.215 24.9383C102.991 25.1783 102.879 25.5277 102.879 25.9863V28.4023H102.159V25.9223C102.159 25.485 102.05 25.1517 101.831 24.9223C101.618 24.6877 101.327 24.5703 100.959 24.5703C100.58 24.5703 100.279 24.693 100.055 24.9383C99.831 25.1783 99.719 25.5277 99.719 25.9863V28.4023H98.991V24.0183H99.719V24.6503C99.863 24.421 100.055 24.245 100.295 24.1223C100.54 23.9997 100.81 23.9383 101.103 23.9383C101.471 23.9383 101.796 24.021 102.079 24.1863C102.362 24.3517 102.572 24.5943 102.711 24.9143C102.834 24.605 103.036 24.365 103.319 24.1943C103.602 24.0237 103.916 23.9383 104.263 23.9383ZM112.505 23.9383C112.847 23.9383 113.151 24.0103 113.417 24.1543C113.684 24.293 113.895 24.5037 114.049 24.7863C114.204 25.069 114.281 25.413 114.281 25.8183V28.4023H113.561V25.9223C113.561 25.485 113.452 25.1517 113.233 24.9223C113.02 24.6877 112.729 24.5703 112.361 24.5703C111.983 24.5703 111.681 24.693 111.457 24.9383C111.233 25.1783 111.121 25.5277 111.121 25.9863V28.4023H110.401V25.9223C110.401 25.485 110.292 25.1517 110.073 24.9223C109.86 24.6877 109.569 24.5703 109.201 24.5703C108.823 24.5703 108.521 24.693 108.297 24.9383C108.073 25.1783 107.961 25.5277 107.961 25.9863V28.4023H107.233V24.0183H107.961V24.6503C108.105 24.421 108.297 24.245 108.537 24.1223C108.783 23.9997 109.052 23.9383 109.345 23.9383C109.713 23.9383 110.039 24.021 110.321 24.1863C110.604 24.3517 110.815 24.5943 110.953 24.9143C111.076 24.605 111.279 24.365 111.561 24.1943C111.844 24.0237 112.159 23.9383 112.505 23.9383Z" fill="white"/>
</svg>
