<svg width="126" height="37" viewBox="0 0 126 37" fill="none" xmlns="http://www.w3.org/2000/svg">
<path d="M3.155 11.5028C3.40167 11.5028 3.61667 11.4728 3.8 11.4128C3.98333 11.3494 4.135 11.2611 4.255 11.1478C4.37833 11.0311 4.47 10.8911 4.53 10.7278C4.59 10.5611 4.62 10.3761 4.62 10.1728C4.62 9.97944 4.59 9.80444 4.53 9.64778C4.47 9.49111 4.38 9.35778 4.26 9.24778C4.14 9.13778 3.98833 9.05444 3.805 8.99778C3.62167 8.93778 3.405 8.90778 3.155 8.90778H2.15V11.5028H3.155ZM3.155 7.86778C3.63833 7.86778 4.05667 7.92444 4.41 8.03778C4.76333 8.15111 5.055 8.30944 5.285 8.51278C5.515 8.71611 5.685 8.95944 5.795 9.24278C5.90833 9.52611 5.965 9.83611 5.965 10.1728C5.965 10.5228 5.90667 10.8444 5.79 11.1378C5.67333 11.4278 5.49833 11.6778 5.265 11.8878C5.03167 12.0978 4.73833 12.2611 4.385 12.3778C4.035 12.4944 3.625 12.5528 3.155 12.5528H2.15V15.0978H0.805V7.86778H3.155ZM8.06188 9.96778V15.0978H6.82188V9.96778H8.06188ZM8.23188 8.47278C8.23188 8.57944 8.21021 8.67944 8.16688 8.77278C8.12354 8.86611 8.06521 8.94778 7.99188 9.01778C7.92188 9.08778 7.83854 9.14444 7.74188 9.18778C7.64521 9.22778 7.54188 9.24778 7.43188 9.24778C7.32521 9.24778 7.22354 9.22778 7.12688 9.18778C7.03354 9.14444 6.95188 9.08778 6.88188 9.01778C6.81188 8.94778 6.75521 8.86611 6.71188 8.77278C6.67188 8.67944 6.65188 8.57944 6.65188 8.47278C6.65188 8.36278 6.67188 8.25944 6.71188 8.16278C6.75521 8.06611 6.81188 7.98278 6.88188 7.91278C6.95188 7.84278 7.03354 7.78778 7.12688 7.74778C7.22354 7.70444 7.32521 7.68278 7.43188 7.68278C7.54188 7.68278 7.64521 7.70444 7.74188 7.74778C7.83854 7.78778 7.92188 7.84278 7.99188 7.91278C8.06521 7.98278 8.12354 8.06611 8.16688 8.16278C8.21021 8.25944 8.23188 8.36278 8.23188 8.47278ZM12.6259 11.9428C12.6259 11.7828 12.6026 11.6328 12.5559 11.4928C12.5126 11.3494 12.4459 11.2244 12.3559 11.1178C12.2659 11.0111 12.1509 10.9278 12.0109 10.8678C11.8743 10.8044 11.7143 10.7728 11.5309 10.7728C11.1743 10.7728 10.8926 10.8744 10.6859 11.0778C10.4826 11.2811 10.3526 11.5694 10.2959 11.9428H12.6259ZM10.2709 12.6878C10.2909 12.9511 10.3376 13.1794 10.4109 13.3728C10.4843 13.5628 10.5809 13.7211 10.7009 13.8478C10.8209 13.9711 10.9626 14.0644 11.1259 14.1278C11.2926 14.1878 11.4759 14.2178 11.6759 14.2178C11.8759 14.2178 12.0476 14.1944 12.1909 14.1478C12.3376 14.1011 12.4643 14.0494 12.5709 13.9928C12.6809 13.9361 12.7759 13.8844 12.8559 13.8378C12.9393 13.7911 13.0193 13.7678 13.0959 13.7678C13.1993 13.7678 13.2759 13.8061 13.3259 13.8828L13.6809 14.3328C13.5443 14.4928 13.3909 14.6278 13.2209 14.7378C13.0509 14.8444 12.8726 14.9311 12.6859 14.9978C12.5026 15.0611 12.3143 15.1061 12.1209 15.1328C11.9309 15.1594 11.7459 15.1728 11.5659 15.1728C11.2093 15.1728 10.8776 15.1144 10.5709 14.9978C10.2643 14.8778 9.9976 14.7028 9.77094 14.4728C9.54427 14.2394 9.36594 13.9528 9.23594 13.6128C9.10594 13.2694 9.04094 12.8728 9.04094 12.4228C9.04094 12.0728 9.0976 11.7444 9.21094 11.4378C9.32427 11.1278 9.48594 10.8594 9.69594 10.6328C9.90927 10.4028 10.1676 10.2211 10.4709 10.0878C10.7776 9.95444 11.1226 9.88778 11.5059 9.88778C11.8293 9.88778 12.1276 9.93944 12.4009 10.0428C12.6743 10.1461 12.9093 10.2978 13.1059 10.4978C13.3026 10.6944 13.4559 10.9378 13.5659 11.2278C13.6793 11.5144 13.7359 11.8428 13.7359 12.2128C13.7359 12.3994 13.7159 12.5261 13.6759 12.5928C13.6359 12.6561 13.5593 12.6878 13.4459 12.6878H10.2709ZM18.3377 11.0528C18.3011 11.0994 18.2644 11.1361 18.2277 11.1628C18.1944 11.1894 18.1444 11.2028 18.0777 11.2028C18.0144 11.2028 17.9527 11.1844 17.8927 11.1478C17.8327 11.1078 17.7611 11.0644 17.6777 11.0178C17.5944 10.9678 17.4944 10.9244 17.3777 10.8878C17.2644 10.8478 17.1227 10.8278 16.9527 10.8278C16.7361 10.8278 16.5461 10.8678 16.3827 10.9478C16.2194 11.0244 16.0827 11.1361 15.9727 11.2828C15.8661 11.4294 15.7861 11.6078 15.7327 11.8178C15.6794 12.0244 15.6527 12.2594 15.6527 12.5228C15.6527 12.7961 15.6811 13.0394 15.7377 13.2528C15.7977 13.4661 15.8827 13.6461 15.9927 13.7928C16.1027 13.9361 16.2361 14.0461 16.3927 14.1228C16.5494 14.1961 16.7261 14.2328 16.9227 14.2328C17.1194 14.2328 17.2777 14.2094 17.3977 14.1628C17.5211 14.1128 17.6244 14.0594 17.7077 14.0028C17.7911 13.9428 17.8627 13.8894 17.9227 13.8428C17.9861 13.7928 18.0561 13.7678 18.1327 13.7678C18.2327 13.7678 18.3077 13.8061 18.3577 13.8828L18.7127 14.3328C18.5761 14.4928 18.4277 14.6278 18.2677 14.7378C18.1077 14.8444 17.9411 14.9311 17.7677 14.9978C17.5977 15.0611 17.4211 15.1061 17.2377 15.1328C17.0577 15.1594 16.8777 15.1728 16.6977 15.1728C16.3811 15.1728 16.0827 15.1144 15.8027 14.9978C15.5227 14.8778 15.2777 14.7044 15.0677 14.4778C14.8577 14.2511 14.6911 13.9744 14.5677 13.6478C14.4477 13.3178 14.3877 12.9428 14.3877 12.5228C14.3877 12.1461 14.4411 11.7978 14.5477 11.4778C14.6577 11.1544 14.8177 10.8761 15.0277 10.6428C15.2377 10.4061 15.4977 10.2211 15.8077 10.0878C16.1177 9.95444 16.4744 9.88778 16.8777 9.88778C17.2611 9.88778 17.5961 9.94944 17.8827 10.0728C18.1727 10.1961 18.4327 10.3728 18.6627 10.6028L18.3377 11.0528ZM22.7041 11.9428C22.7041 11.7828 22.6807 11.6328 22.6341 11.4928C22.5907 11.3494 22.5241 11.2244 22.4341 11.1178C22.3441 11.0111 22.2291 10.9278 22.0891 10.8678C21.9524 10.8044 21.7924 10.7728 21.6091 10.7728C21.2524 10.7728 20.9707 10.8744 20.7641 11.0778C20.5607 11.2811 20.4307 11.5694 20.3741 11.9428H22.7041ZM20.3491 12.6878C20.3691 12.9511 20.4157 13.1794 20.4891 13.3728C20.5624 13.5628 20.6591 13.7211 20.7791 13.8478C20.8991 13.9711 21.0407 14.0644 21.2041 14.1278C21.3707 14.1878 21.5541 14.2178 21.7541 14.2178C21.9541 14.2178 22.1257 14.1944 22.2691 14.1478C22.4157 14.1011 22.5424 14.0494 22.6491 13.9928C22.7591 13.9361 22.8541 13.8844 22.9341 13.8378C23.0174 13.7911 23.0974 13.7678 23.1741 13.7678C23.2774 13.7678 23.3541 13.8061 23.4041 13.8828L23.7591 14.3328C23.6224 14.4928 23.4691 14.6278 23.2991 14.7378C23.1291 14.8444 22.9507 14.9311 22.7641 14.9978C22.5807 15.0611 22.3924 15.1061 22.1991 15.1328C22.0091 15.1594 21.8241 15.1728 21.6441 15.1728C21.2874 15.1728 20.9557 15.1144 20.6491 14.9978C20.3424 14.8778 20.0757 14.7028 19.8491 14.4728C19.6224 14.2394 19.4441 13.9528 19.3141 13.6128C19.1841 13.2694 19.1191 12.8728 19.1191 12.4228C19.1191 12.0728 19.1757 11.7444 19.2891 11.4378C19.4024 11.1278 19.5641 10.8594 19.7741 10.6328C19.9874 10.4028 20.2457 10.2211 20.5491 10.0878C20.8557 9.95444 21.2007 9.88778 21.5841 9.88778C21.9074 9.88778 22.2057 9.93944 22.4791 10.0428C22.7524 10.1461 22.9874 10.2978 23.1841 10.4978C23.3807 10.6944 23.5341 10.9378 23.6441 11.2278C23.7574 11.5144 23.8141 11.8428 23.8141 12.2128C23.8141 12.3994 23.7941 12.5261 23.7541 12.5928C23.7141 12.6561 23.6374 12.6878 23.5241 12.6878H20.3491ZM27.8709 10.9678C27.8375 11.0211 27.8025 11.0594 27.7659 11.0828C27.7292 11.1028 27.6825 11.1128 27.6259 11.1128C27.5659 11.1128 27.5009 11.0961 27.4309 11.0628C27.3642 11.0294 27.2859 10.9928 27.1959 10.9528C27.1059 10.9094 27.0025 10.8711 26.8859 10.8378C26.7725 10.8044 26.6375 10.7878 26.4809 10.7878C26.2375 10.7878 26.0459 10.8394 25.9059 10.9428C25.7692 11.0461 25.7009 11.1811 25.7009 11.3478C25.7009 11.4578 25.7359 11.5511 25.8059 11.6278C25.8792 11.7011 25.9742 11.7661 26.0909 11.8228C26.2109 11.8794 26.3459 11.9311 26.4959 11.9778C26.6459 12.0211 26.7975 12.0694 26.9509 12.1228C27.1075 12.1761 27.2609 12.2378 27.4109 12.3078C27.5609 12.3744 27.6942 12.4611 27.8109 12.5678C27.9309 12.6711 28.0259 12.7961 28.0959 12.9428C28.1692 13.0894 28.2059 13.2661 28.2059 13.4728C28.2059 13.7194 28.1609 13.9478 28.0709 14.1578C27.9842 14.3644 27.8542 14.5444 27.6809 14.6978C27.5075 14.8478 27.2925 14.9661 27.0359 15.0528C26.7825 15.1361 26.4892 15.1778 26.1559 15.1778C25.9792 15.1778 25.8059 15.1611 25.6359 15.1278C25.4692 15.0978 25.3075 15.0544 25.1509 14.9978C24.9975 14.9411 24.8542 14.8744 24.7209 14.7978C24.5909 14.7211 24.4759 14.6378 24.3759 14.5478L24.6609 14.0778C24.6975 14.0211 24.7409 13.9778 24.7909 13.9478C24.8409 13.9178 24.9042 13.9028 24.9809 13.9028C25.0575 13.9028 25.1292 13.9244 25.1959 13.9678C25.2659 14.0111 25.3459 14.0578 25.4359 14.1078C25.5259 14.1578 25.6309 14.2044 25.7509 14.2478C25.8742 14.2911 26.0292 14.3128 26.2159 14.3128C26.3625 14.3128 26.4875 14.2961 26.5909 14.2628C26.6975 14.2261 26.7842 14.1794 26.8509 14.1228C26.9209 14.0661 26.9709 14.0011 27.0009 13.9278C27.0342 13.8511 27.0509 13.7728 27.0509 13.6928C27.0509 13.5728 27.0142 13.4744 26.9409 13.3978C26.8709 13.3211 26.7759 13.2544 26.6559 13.1978C26.5392 13.1411 26.4042 13.0911 26.2509 13.0478C26.1009 13.0011 25.9459 12.9511 25.7859 12.8978C25.6292 12.8444 25.4742 12.7828 25.3209 12.7128C25.1709 12.6394 25.0359 12.5478 24.9159 12.4378C24.7992 12.3278 24.7042 12.1928 24.6309 12.0328C24.5609 11.8728 24.5259 11.6794 24.5259 11.4528C24.5259 11.2428 24.5675 11.0428 24.6509 10.8528C24.7342 10.6628 24.8559 10.4978 25.0159 10.3578C25.1792 10.2144 25.3809 10.1011 25.6209 10.0178C25.8642 9.93111 26.1442 9.88778 26.4609 9.88778C26.8142 9.88778 27.1359 9.94611 27.4259 10.0628C27.7159 10.1794 27.9575 10.3328 28.1509 10.5228L27.8709 10.9678ZM32.802 13.7678C32.942 13.9378 33.0937 14.0578 33.257 14.1278C33.4237 14.1978 33.6037 14.2328 33.797 14.2328C33.9837 14.2328 34.152 14.1978 34.302 14.1278C34.452 14.0578 34.5787 13.9511 34.682 13.8078C34.7887 13.6644 34.8704 13.4844 34.927 13.2678C34.9837 13.0478 35.012 12.7894 35.012 12.4928C35.012 12.1928 34.987 11.9394 34.937 11.7328C34.8904 11.5228 34.822 11.3528 34.732 11.2228C34.642 11.0928 34.532 10.9978 34.402 10.9378C34.2754 10.8778 34.1304 10.8478 33.967 10.8478C33.7104 10.8478 33.492 10.9028 33.312 11.0128C33.132 11.1194 32.962 11.2711 32.802 11.4678V13.7678ZM32.737 10.6678C32.947 10.4311 33.1854 10.2394 33.452 10.0928C33.7187 9.94611 34.032 9.87278 34.392 9.87278C34.672 9.87278 34.927 9.93111 35.157 10.0478C35.3904 10.1644 35.5904 10.3344 35.757 10.5578C35.927 10.7778 36.057 11.0511 36.147 11.3778C36.2404 11.7011 36.287 12.0728 36.287 12.4928C36.287 12.8761 36.2354 13.2311 36.132 13.5578C36.0287 13.8844 35.8804 14.1678 35.687 14.4078C35.497 14.6478 35.2654 14.8361 34.992 14.9728C34.722 15.1061 34.4187 15.1728 34.082 15.1728C33.7954 15.1728 33.5504 15.1294 33.347 15.0428C33.1437 14.9528 32.962 14.8294 32.802 14.6728V16.7728H31.567V9.96778H32.322C32.482 9.96778 32.587 10.0428 32.637 10.1928L32.737 10.6678ZM40.5556 11.9428C40.5556 11.7828 40.5323 11.6328 40.4856 11.4928C40.4423 11.3494 40.3756 11.2244 40.2856 11.1178C40.1956 11.0111 40.0806 10.9278 39.9406 10.8678C39.804 10.8044 39.644 10.7728 39.4606 10.7728C39.104 10.7728 38.8223 10.8744 38.6156 11.0778C38.4123 11.2811 38.2823 11.5694 38.2256 11.9428H40.5556ZM38.2006 12.6878C38.2206 12.9511 38.2673 13.1794 38.3406 13.3728C38.414 13.5628 38.5106 13.7211 38.6306 13.8478C38.7506 13.9711 38.8923 14.0644 39.0556 14.1278C39.2223 14.1878 39.4056 14.2178 39.6056 14.2178C39.8056 14.2178 39.9773 14.1944 40.1206 14.1478C40.2673 14.1011 40.394 14.0494 40.5006 13.9928C40.6106 13.9361 40.7056 13.8844 40.7856 13.8378C40.869 13.7911 40.949 13.7678 41.0256 13.7678C41.129 13.7678 41.2056 13.8061 41.2556 13.8828L41.6106 14.3328C41.474 14.4928 41.3206 14.6278 41.1506 14.7378C40.9806 14.8444 40.8023 14.9311 40.6156 14.9978C40.4323 15.0611 40.244 15.1061 40.0506 15.1328C39.8606 15.1594 39.6756 15.1728 39.4956 15.1728C39.139 15.1728 38.8073 15.1144 38.5006 14.9978C38.194 14.8778 37.9273 14.7028 37.7006 14.4728C37.474 14.2394 37.2956 13.9528 37.1656 13.6128C37.0356 13.2694 36.9706 12.8728 36.9706 12.4228C36.9706 12.0728 37.0273 11.7444 37.1406 11.4378C37.254 11.1278 37.4156 10.8594 37.6256 10.6328C37.839 10.4028 38.0973 10.2211 38.4006 10.0878C38.7073 9.95444 39.0523 9.88778 39.4356 9.88778C39.759 9.88778 40.0573 9.93944 40.3306 10.0428C40.604 10.1461 40.839 10.2978 41.0356 10.4978C41.2323 10.6944 41.3856 10.9378 41.4956 11.2278C41.609 11.5144 41.6656 11.8428 41.6656 12.2128C41.6656 12.3994 41.6456 12.5261 41.6056 12.5928C41.5656 12.6561 41.489 12.6878 41.3756 12.6878H38.2006ZM43.7574 10.8578C43.9174 10.5511 44.1074 10.3111 44.3274 10.1378C44.5474 9.96111 44.8074 9.87278 45.1074 9.87278C45.3441 9.87278 45.5341 9.92444 45.6774 10.0278L45.5974 10.9528C45.5808 11.0128 45.5558 11.0561 45.5224 11.0828C45.4924 11.1061 45.4508 11.1178 45.3974 11.1178C45.3474 11.1178 45.2724 11.1094 45.1724 11.0928C45.0758 11.0761 44.9808 11.0678 44.8874 11.0678C44.7508 11.0678 44.6291 11.0878 44.5224 11.1278C44.4158 11.1678 44.3191 11.2261 44.2324 11.3028C44.1491 11.3761 44.0741 11.4661 44.0074 11.5728C43.9441 11.6794 43.8841 11.8011 43.8274 11.9378V15.0978H42.5924V9.96778H43.3174C43.4441 9.96778 43.5324 9.99111 43.5824 10.0378C43.6324 10.0811 43.6658 10.1611 43.6824 10.2778L43.7574 10.8578ZM52.2147 11.0528C52.178 11.0994 52.1414 11.1361 52.1047 11.1628C52.0714 11.1894 52.0214 11.2028 51.9547 11.2028C51.8914 11.2028 51.8297 11.1844 51.7697 11.1478C51.7097 11.1078 51.638 11.0644 51.5547 11.0178C51.4714 10.9678 51.3714 10.9244 51.2547 10.8878C51.1414 10.8478 50.9997 10.8278 50.8297 10.8278C50.613 10.8278 50.423 10.8678 50.2597 10.9478C50.0964 11.0244 49.9597 11.1361 49.8497 11.2828C49.743 11.4294 49.663 11.6078 49.6097 11.8178C49.5564 12.0244 49.5297 12.2594 49.5297 12.5228C49.5297 12.7961 49.558 13.0394 49.6147 13.2528C49.6747 13.4661 49.7597 13.6461 49.8697 13.7928C49.9797 13.9361 50.113 14.0461 50.2697 14.1228C50.4264 14.1961 50.603 14.2328 50.7997 14.2328C50.9964 14.2328 51.1547 14.2094 51.2747 14.1628C51.398 14.1128 51.5014 14.0594 51.5847 14.0028C51.668 13.9428 51.7397 13.8894 51.7997 13.8428C51.863 13.7928 51.933 13.7678 52.0097 13.7678C52.1097 13.7678 52.1847 13.8061 52.2347 13.8828L52.5897 14.3328C52.453 14.4928 52.3047 14.6278 52.1447 14.7378C51.9847 14.8444 51.818 14.9311 51.6447 14.9978C51.4747 15.0611 51.298 15.1061 51.1147 15.1328C50.9347 15.1594 50.7547 15.1728 50.5747 15.1728C50.258 15.1728 49.9597 15.1144 49.6797 14.9978C49.3997 14.8778 49.1547 14.7044 48.9447 14.4778C48.7347 14.2511 48.568 13.9744 48.4447 13.6478C48.3247 13.3178 48.2647 12.9428 48.2647 12.5228C48.2647 12.1461 48.318 11.7978 48.4247 11.4778C48.5347 11.1544 48.6947 10.8761 48.9047 10.6428C49.1147 10.4061 49.3747 10.2211 49.6847 10.0878C49.9947 9.95444 50.3514 9.88778 50.7547 9.88778C51.138 9.88778 51.473 9.94944 51.7597 10.0728C52.0497 10.1961 52.3097 10.3728 52.5397 10.6028L52.2147 11.0528ZM56.0739 12.9078C55.7172 12.9244 55.4172 12.9561 55.1739 13.0028C54.9306 13.0461 54.7356 13.1028 54.5889 13.1728C54.4422 13.2428 54.3372 13.3244 54.2739 13.4178C54.2106 13.5111 54.1789 13.6128 54.1789 13.7228C54.1789 13.9394 54.2422 14.0944 54.3689 14.1878C54.4989 14.2811 54.6672 14.3278 54.8739 14.3278C55.1272 14.3278 55.3456 14.2828 55.5289 14.1928C55.7156 14.0994 55.8972 13.9594 56.0739 13.7728V12.9078ZM53.2439 10.6828C53.8339 10.1428 54.5439 9.87278 55.3739 9.87278C55.6739 9.87278 55.9422 9.92278 56.1789 10.0228C56.4156 10.1194 56.6156 10.2561 56.7789 10.4328C56.9422 10.6061 57.0656 10.8144 57.1489 11.0578C57.2356 11.3011 57.2789 11.5678 57.2789 11.8578V15.0978H56.7189C56.6022 15.0978 56.5122 15.0811 56.4489 15.0478C56.3856 15.0111 56.3356 14.9394 56.2989 14.8328L56.1889 14.4628C56.0589 14.5794 55.9322 14.6828 55.8089 14.7728C55.6856 14.8594 55.5572 14.9328 55.4239 14.9928C55.2906 15.0528 55.1472 15.0978 54.9939 15.1278C54.8439 15.1611 54.6772 15.1778 54.4939 15.1778C54.2772 15.1778 54.0772 15.1494 53.8939 15.0928C53.7106 15.0328 53.5522 14.9444 53.4189 14.8278C53.2856 14.7111 53.1822 14.5661 53.1089 14.3928C53.0356 14.2194 52.9989 14.0178 52.9989 13.7878C52.9989 13.6578 53.0206 13.5294 53.0639 13.4028C53.1072 13.2728 53.1772 13.1494 53.2739 13.0328C53.3739 12.9161 53.5022 12.8061 53.6589 12.7028C53.8156 12.5994 54.0072 12.5094 54.2339 12.4328C54.4639 12.3561 54.7306 12.2944 55.0339 12.2478C55.3372 12.1978 55.6839 12.1678 56.0739 12.1578V11.8578C56.0739 11.5144 56.0006 11.2611 55.8539 11.0978C55.7072 10.9311 55.4956 10.8478 55.2189 10.8478C55.0189 10.8478 54.8522 10.8711 54.7189 10.9178C54.5889 10.9644 54.4739 11.0178 54.3739 11.0778C54.2739 11.1344 54.1822 11.1861 54.0989 11.2328C54.0189 11.2794 53.9289 11.3028 53.8289 11.3028C53.7422 11.3028 53.6689 11.2811 53.6089 11.2378C53.5489 11.1911 53.5006 11.1378 53.4639 11.0778L53.2439 10.6828ZM59.607 10.8578C59.767 10.5511 59.957 10.3111 60.177 10.1378C60.397 9.96111 60.657 9.87278 60.957 9.87278C61.1937 9.87278 61.3837 9.92444 61.527 10.0278L61.447 10.9528C61.4304 11.0128 61.4054 11.0561 61.372 11.0828C61.342 11.1061 61.3004 11.1178 61.247 11.1178C61.197 11.1178 61.122 11.1094 61.022 11.0928C60.9254 11.0761 60.8304 11.0678 60.737 11.0678C60.6004 11.0678 60.4787 11.0878 60.372 11.1278C60.2654 11.1678 60.1687 11.2261 60.082 11.3028C59.9987 11.3761 59.9237 11.4661 59.857 11.5728C59.7937 11.6794 59.7337 11.8011 59.677 11.9378V15.0978H58.442V9.96778H59.167C59.2937 9.96778 59.382 9.99111 59.432 10.0378C59.482 10.0811 59.5154 10.1611 59.532 10.2778L59.607 10.8578ZM63.8825 15.1778C63.4358 15.1778 63.0925 15.0528 62.8525 14.8028C62.6158 14.5494 62.4975 14.2011 62.4975 13.7578V10.8928H61.9725C61.9058 10.8928 61.8492 10.8711 61.8025 10.8278C61.7558 10.7844 61.7325 10.7194 61.7325 10.6328V10.1428L62.5575 10.0078L62.8175 8.60778C62.8342 8.54111 62.8658 8.48944 62.9125 8.45278C62.9592 8.41611 63.0192 8.39778 63.0925 8.39778H63.7325V10.0128H65.1025V10.8928H63.7325V13.6728C63.7325 13.8328 63.7708 13.9578 63.8475 14.0478C63.9275 14.1378 64.0358 14.1828 64.1725 14.1828C64.2492 14.1828 64.3125 14.1744 64.3625 14.1578C64.4158 14.1378 64.4608 14.1178 64.4975 14.0978C64.5375 14.0778 64.5725 14.0594 64.6025 14.0428C64.6325 14.0228 64.6625 14.0128 64.6925 14.0128C64.7292 14.0128 64.7592 14.0228 64.7825 14.0428C64.8058 14.0594 64.8308 14.0861 64.8575 14.1228L65.2275 14.7228C65.0475 14.8728 64.8408 14.9861 64.6075 15.0628C64.3742 15.1394 64.1325 15.1778 63.8825 15.1778ZM68.1241 9.88778C68.5041 9.88778 68.8491 9.94944 69.1591 10.0728C69.4725 10.1961 69.7391 10.3711 69.9591 10.5978C70.1825 10.8244 70.3541 11.1011 70.4741 11.4278C70.5941 11.7544 70.6541 12.1194 70.6541 12.5228C70.6541 12.9294 70.5941 13.2961 70.4741 13.6228C70.3541 13.9494 70.1825 14.2278 69.9591 14.4578C69.7391 14.6878 69.4725 14.8644 69.1591 14.9878C68.8491 15.1111 68.5041 15.1728 68.1241 15.1728C67.7408 15.1728 67.3925 15.1111 67.0791 14.9878C66.7658 14.8644 66.4975 14.6878 66.2741 14.4578C66.0541 14.2278 65.8825 13.9494 65.7591 13.6228C65.6391 13.2961 65.5791 12.9294 65.5791 12.5228C65.5791 12.1194 65.6391 11.7544 65.7591 11.4278C65.8825 11.1011 66.0541 10.8244 66.2741 10.5978C66.4975 10.3711 66.7658 10.1961 67.0791 10.0728C67.3925 9.94944 67.7408 9.88778 68.1241 9.88778ZM68.1241 14.2228C68.5508 14.2228 68.8658 14.0794 69.0691 13.7928C69.2758 13.5061 69.3791 13.0861 69.3791 12.5328C69.3791 11.9794 69.2758 11.5578 69.0691 11.2678C68.8658 10.9778 68.5508 10.8328 68.1241 10.8328C67.6908 10.8328 67.3691 10.9794 67.1591 11.2728C66.9525 11.5628 66.8491 11.9828 66.8491 12.5328C66.8491 13.0828 66.9525 13.5028 67.1591 13.7928C67.3691 14.0794 67.6908 14.2228 68.1241 14.2228ZM72.7513 10.5978C72.8547 10.4944 72.963 10.3994 73.0763 10.3128C73.193 10.2228 73.3147 10.1478 73.4413 10.0878C73.5713 10.0244 73.7097 9.97611 73.8563 9.94278C74.003 9.90611 74.163 9.88778 74.3363 9.88778C74.6163 9.88778 74.8647 9.93611 75.0813 10.0328C75.298 10.1261 75.478 10.2594 75.6213 10.4328C75.768 10.6028 75.878 10.8078 75.9513 11.0478C76.028 11.2844 76.0663 11.5461 76.0663 11.8328V15.0978H74.8313V11.8328C74.8313 11.5194 74.7597 11.2778 74.6163 11.1078C74.473 10.9344 74.2547 10.8478 73.9613 10.8478C73.748 10.8478 73.548 10.8961 73.3613 10.9928C73.1747 11.0894 72.998 11.2211 72.8313 11.3878V15.0978H71.5963V9.96778H72.3513C72.5113 9.96778 72.6163 10.0428 72.6663 10.1928L72.7513 10.5978Z" fill="white"/>
<path d="M48.72 23.9943C48.6027 23.4023 48.2373 23.1063 47.624 23.1063C47.1493 23.1063 46.7947 23.2903 46.56 23.6583C46.3253 24.021 46.2107 24.621 46.216 25.4583C46.3387 25.181 46.5413 24.965 46.824 24.8103C47.112 24.6503 47.432 24.5703 47.784 24.5703C48.3333 24.5703 48.7707 24.741 49.096 25.0823C49.4267 25.4237 49.592 25.8957 49.592 26.4983C49.592 26.861 49.52 27.1863 49.376 27.4743C49.2373 27.7623 49.024 27.9917 48.736 28.1623C48.4533 28.333 48.1093 28.4183 47.704 28.4183C47.1547 28.4183 46.7253 28.2957 46.416 28.0503C46.1067 27.805 45.8907 27.4663 45.768 27.0343C45.6453 26.6023 45.584 26.069 45.584 25.4343C45.584 23.477 46.2667 22.4983 47.632 22.4983C48.1547 22.4983 48.5653 22.6397 48.864 22.9223C49.1627 23.205 49.3387 23.5623 49.392 23.9943H48.72ZM47.632 25.1863C47.4027 25.1863 47.1867 25.2343 46.984 25.3303C46.7813 25.421 46.616 25.5623 46.488 25.7543C46.3653 25.941 46.304 26.1703 46.304 26.4423C46.304 26.8477 46.4213 27.1783 46.656 27.4343C46.8907 27.685 47.2267 27.8103 47.664 27.8103C48.0373 27.8103 48.3333 27.6957 48.552 27.4663C48.776 27.2317 48.888 26.917 48.888 26.5223C48.888 26.1063 48.7813 25.781 48.568 25.5463C48.3547 25.3063 48.0427 25.1863 47.632 25.1863ZM50.5741 25.4503C50.5741 24.533 50.7235 23.8183 51.0221 23.3063C51.3208 22.789 51.8435 22.5303 52.5901 22.5303C53.3315 22.5303 53.8515 22.789 54.1501 23.3063C54.4488 23.8183 54.5981 24.533 54.5981 25.4503C54.5981 26.3837 54.4488 27.109 54.1501 27.6263C53.8515 28.1437 53.3315 28.4023 52.5901 28.4023C51.8435 28.4023 51.3208 28.1437 51.0221 27.6263C50.7235 27.109 50.5741 26.3837 50.5741 25.4503ZM53.8781 25.4503C53.8781 24.9863 53.8461 24.5943 53.7821 24.2743C53.7235 23.949 53.5981 23.6877 53.4061 23.4903C53.2195 23.293 52.9475 23.1943 52.5901 23.1943C52.2275 23.1943 51.9501 23.293 51.7581 23.4903C51.5715 23.6877 51.4461 23.949 51.3821 24.2743C51.3235 24.5943 51.2941 24.9863 51.2941 25.4503C51.2941 25.9303 51.3235 26.333 51.3821 26.6583C51.4461 26.9837 51.5715 27.245 51.7581 27.4423C51.9501 27.6397 52.2275 27.7383 52.5901 27.7383C52.9475 27.7383 53.2195 27.6397 53.4061 27.4423C53.5981 27.245 53.7235 26.9837 53.7821 26.6583C53.8461 26.333 53.8781 25.9303 53.8781 25.4503ZM55.5976 25.4503C55.5976 24.533 55.7469 23.8183 56.0456 23.3063C56.3442 22.789 56.8669 22.5303 57.6136 22.5303C58.3549 22.5303 58.8749 22.789 59.1736 23.3063C59.4722 23.8183 59.6216 24.533 59.6216 25.4503C59.6216 26.3837 59.4722 27.109 59.1736 27.6263C58.8749 28.1437 58.3549 28.4023 57.6136 28.4023C56.8669 28.4023 56.3442 28.1437 56.0456 27.6263C55.7469 27.109 55.5976 26.3837 55.5976 25.4503ZM58.9016 25.4503C58.9016 24.9863 58.8696 24.5943 58.8056 24.2743C58.7469 23.949 58.6216 23.6877 58.4296 23.4903C58.2429 23.293 57.9709 23.1943 57.6136 23.1943C57.2509 23.1943 56.9736 23.293 56.7816 23.4903C56.5949 23.6877 56.4696 23.949 56.4056 24.2743C56.3469 24.5943 56.3176 24.9863 56.3176 25.4503C56.3176 25.9303 56.3469 26.333 56.4056 26.6583C56.4696 26.9837 56.5949 27.245 56.7816 27.4423C56.9736 27.6397 57.2509 27.7383 57.6136 27.7383C57.9709 27.7383 58.2429 27.6397 58.4296 27.4423C58.6216 27.245 58.7469 26.9837 58.8056 26.6583C58.8696 26.333 58.9016 25.9303 58.9016 25.4503ZM65.0098 23.9383C65.5431 23.9383 65.9751 24.101 66.3058 24.4263C66.6365 24.7463 66.8018 25.2103 66.8018 25.8183V28.4023H66.0818V25.9223C66.0818 25.485 65.9725 25.1517 65.7538 24.9223C65.5351 24.6877 65.2365 24.5703 64.8578 24.5703C64.4738 24.5703 64.1671 24.6903 63.9378 24.9303C63.7138 25.1703 63.6018 25.5197 63.6018 25.9783V28.4023H62.8738V24.0183H63.6018V24.6423C63.7458 24.4183 63.9405 24.245 64.1858 24.1223C64.4365 23.9997 64.7111 23.9383 65.0098 23.9383ZM69.903 28.4743C69.4923 28.4743 69.119 28.381 68.783 28.1943C68.4523 28.0077 68.191 27.7437 67.999 27.4023C67.8123 27.0557 67.719 26.6557 67.719 26.2023C67.719 25.7543 67.815 25.3597 68.007 25.0183C68.2043 24.6717 68.471 24.4077 68.807 24.2263C69.143 24.0397 69.519 23.9463 69.935 23.9463C70.351 23.9463 70.727 24.0397 71.063 24.2263C71.399 24.4077 71.663 24.669 71.855 25.0103C72.0523 25.3517 72.151 25.749 72.151 26.2023C72.151 26.6557 72.0497 27.0557 71.847 27.4023C71.6497 27.7437 71.3803 28.0077 71.039 28.1943C70.6977 28.381 70.319 28.4743 69.903 28.4743ZM69.903 27.8343C70.1643 27.8343 70.4097 27.773 70.639 27.6503C70.8683 27.5277 71.0523 27.3437 71.191 27.0983C71.335 26.853 71.407 26.5543 71.407 26.2023C71.407 25.8503 71.3377 25.5517 71.199 25.3063C71.0603 25.061 70.879 24.8797 70.655 24.7623C70.431 24.6397 70.1883 24.5783 69.927 24.5783C69.6603 24.5783 69.415 24.6397 69.191 24.7623C68.9723 24.8797 68.7963 25.061 68.663 25.3063C68.5297 25.5517 68.463 25.8503 68.463 26.2023C68.463 26.5597 68.527 26.861 68.655 27.1063C68.7883 27.3517 68.9643 27.5357 69.183 27.6583C69.4017 27.7757 69.6417 27.8343 69.903 27.8343ZM74.6602 28.4743C74.3242 28.4743 74.0229 28.4183 73.7562 28.3063C73.4895 28.189 73.2789 28.029 73.1242 27.8263C72.9695 27.6183 72.8842 27.381 72.8682 27.1143H73.6202C73.6415 27.333 73.7429 27.5117 73.9242 27.6503C74.1109 27.789 74.3535 27.8583 74.6522 27.8583C74.9295 27.8583 75.1482 27.797 75.3082 27.6743C75.4682 27.5517 75.5482 27.397 75.5482 27.2103C75.5482 27.0183 75.4629 26.877 75.2922 26.7863C75.1215 26.6903 74.8575 26.597 74.5002 26.5063C74.1749 26.421 73.9082 26.3357 73.7002 26.2503C73.4975 26.1597 73.3215 26.029 73.1722 25.8583C73.0282 25.6823 72.9562 25.453 72.9562 25.1703C72.9562 24.9463 73.0229 24.741 73.1562 24.5543C73.2895 24.3677 73.4789 24.221 73.7242 24.1143C73.9695 24.0023 74.2495 23.9463 74.5642 23.9463C75.0495 23.9463 75.4415 24.069 75.7402 24.3143C76.0389 24.5597 76.1989 24.8957 76.2202 25.3223H75.4922C75.4762 25.093 75.3829 24.909 75.2122 24.7703C75.0469 24.6317 74.8229 24.5623 74.5402 24.5623C74.2789 24.5623 74.0709 24.6183 73.9162 24.7303C73.7615 24.8423 73.6842 24.989 73.6842 25.1703C73.6842 25.3143 73.7295 25.4343 73.8202 25.5303C73.9162 25.621 74.0335 25.6957 74.1722 25.7543C74.3162 25.8077 74.5135 25.869 74.7642 25.9383C75.0789 26.0237 75.3349 26.109 75.5322 26.1943C75.7295 26.2743 75.8975 26.397 76.0362 26.5623C76.1802 26.7277 76.2549 26.9437 76.2602 27.2103C76.2602 27.4503 76.1935 27.6663 76.0602 27.8583C75.9269 28.0503 75.7375 28.2023 75.4922 28.3143C75.2522 28.421 74.9749 28.4743 74.6602 28.4743Z" fill="white"/>
<rect x="83" width="36.5" height="36.5" rx="18.25" fill="white" fill-opacity="0.1"/>
<path d="M102.158 11.1064C101.574 10.8941 100.926 10.8941 100.342 11.1064L98.6063 11.7365L105.919 14.3927L108.442 13.4763C108.294 13.365 108.129 13.2756 107.953 13.2112L102.158 11.1064ZM104.352 14.9622L97.0391 12.306L94.5473 13.2112C94.3669 13.2771 94.2038 13.3656 94.0579 13.4768L101.25 16.0885L104.352 14.9622ZM93.375 14.8225C93.375 14.673 93.3947 14.5282 93.4341 14.3879L100.688 17.0229V25.4964C100.57 25.4711 100.454 25.4379 100.342 25.397L94.5467 23.2922C94.2019 23.1669 93.9053 22.9459 93.6962 22.6583C93.487 22.3706 93.375 22.0299 93.375 21.6809V14.8225ZM102.158 25.397C102.045 25.4385 101.93 25.4718 101.813 25.4969V17.0229L109.066 14.3879C109.105 14.5282 109.125 14.673 109.125 14.8225V21.6809C109.125 22.0299 109.013 22.3706 108.804 22.6583C108.595 22.9459 108.298 23.1669 107.953 23.2922L102.158 25.397Z" fill="white"/>
</svg>
