<svg width="112" height="37" viewBox="0 0 112 37" fill="none" xmlns="http://www.w3.org/2000/svg">
<rect width="36.5" height="36.5" rx="18.25" fill="white" fill-opacity="0.1"/>
<path d="M18.2491 14.2915C18.4734 14.2915 18.6616 14.2155 18.8136 14.0635C18.9656 13.9115 19.0413 13.7237 19.0408 13.4999C19.0403 13.2761 18.9643 13.0882 18.8128 12.9362C18.6613 12.7842 18.4734 12.7082 18.2491 12.7082C18.0248 12.7082 17.8369 12.7842 17.6854 12.9362C17.534 13.0882 17.458 13.2761 17.4574 13.4999C17.4569 13.7237 17.5329 13.9118 17.6854 14.0643C17.838 14.2169 18.0259 14.2926 18.2491 14.2915ZM20.4856 14.2915H21.871C22.2668 14.2915 22.6099 14.4235 22.9002 14.6874C23.1904 14.9513 23.3686 15.2745 23.4345 15.6572L24.5627 23.5738C24.6286 24.0488 24.5067 24.4679 24.1969 24.831C23.8871 25.1941 23.4878 25.3754 22.9991 25.3749H13.4991C13.0109 25.3749 12.6117 25.1936 12.3013 24.831C11.991 24.4684 11.8691 24.0494 11.9356 23.5738L13.0637 15.6572C13.1297 15.2745 13.3078 14.9513 13.5981 14.6874C13.8883 14.4235 14.2314 14.2915 14.6272 14.2915H16.0127C15.9731 14.1596 15.9401 14.0311 15.9137 13.906C15.8873 13.7809 15.8741 13.6455 15.8741 13.4999C15.8741 12.8402 16.105 12.2794 16.5668 11.8176C17.0286 11.3558 17.5894 11.1249 18.2491 11.1249C18.9088 11.1249 19.4696 11.3558 19.9314 11.8176C20.3932 12.2794 20.6241 12.8402 20.6241 13.4999C20.6241 13.645 20.6109 13.7804 20.5845 13.906C20.5581 14.0316 20.5252 14.1601 20.4856 14.2915Z" fill="white"/>
<path d="M52.925 7.86778L50.68 15.0978H49.465L47.885 10.1578C47.8417 10.0378 47.8017 9.89111 47.765 9.71778C47.745 9.80111 47.725 9.87944 47.705 9.95278C47.685 10.0261 47.6633 10.0944 47.64 10.1578L46.045 15.0978H44.825L42.585 7.86778H43.71C43.8267 7.86778 43.9233 7.89611 44 7.95278C44.08 8.00611 44.1333 8.07944 44.16 8.17278L45.39 12.4978C45.4167 12.6044 45.4417 12.7211 45.465 12.8478C45.4917 12.9711 45.5183 13.1011 45.545 13.2378C45.5717 13.0978 45.6 12.9661 45.63 12.8428C45.6633 12.7194 45.6983 12.6044 45.735 12.4978L47.155 8.17278C47.1817 8.09611 47.2333 8.02611 47.31 7.96278C47.39 7.89944 47.4867 7.86778 47.6 7.86778H47.995C48.1117 7.86778 48.2067 7.89611 48.28 7.95278C48.3533 8.00944 48.4083 8.08278 48.445 8.17278L49.86 12.4978C49.93 12.7044 49.9933 12.9428 50.05 13.2128C50.0933 12.9494 50.1417 12.7111 50.195 12.4978L51.425 8.17278C51.445 8.08944 51.495 8.01778 51.575 7.95778C51.6583 7.89778 51.7567 7.86778 51.87 7.86778H52.925ZM56.3173 11.9428C56.3173 11.7828 56.294 11.6328 56.2473 11.4928C56.204 11.3494 56.1373 11.2244 56.0473 11.1178C55.9573 11.0111 55.8423 10.9278 55.7023 10.8678C55.5657 10.8044 55.4057 10.7728 55.2223 10.7728C54.8657 10.7728 54.584 10.8744 54.3773 11.0778C54.174 11.2811 54.044 11.5694 53.9873 11.9428H56.3173ZM53.9623 12.6878C53.9823 12.9511 54.029 13.1794 54.1023 13.3728C54.1757 13.5628 54.2723 13.7211 54.3923 13.8478C54.5123 13.9711 54.654 14.0644 54.8173 14.1278C54.984 14.1878 55.1673 14.2178 55.3673 14.2178C55.5673 14.2178 55.739 14.1944 55.8823 14.1478C56.029 14.1011 56.1557 14.0494 56.2623 13.9928C56.3723 13.9361 56.4673 13.8844 56.5473 13.8378C56.6307 13.7911 56.7107 13.7678 56.7873 13.7678C56.8907 13.7678 56.9673 13.8061 57.0173 13.8828L57.3723 14.3328C57.2357 14.4928 57.0823 14.6278 56.9123 14.7378C56.7423 14.8444 56.564 14.9311 56.3773 14.9978C56.194 15.0611 56.0057 15.1061 55.8123 15.1328C55.6223 15.1594 55.4373 15.1728 55.2573 15.1728C54.9007 15.1728 54.569 15.1144 54.2623 14.9978C53.9557 14.8778 53.689 14.7028 53.4623 14.4728C53.2357 14.2394 53.0573 13.9528 52.9273 13.6128C52.7973 13.2694 52.7323 12.8728 52.7323 12.4228C52.7323 12.0728 52.789 11.7444 52.9023 11.4378C53.0157 11.1278 53.1773 10.8594 53.3873 10.6328C53.6007 10.4028 53.859 10.2211 54.1623 10.0878C54.469 9.95444 54.814 9.88778 55.1973 9.88778C55.5207 9.88778 55.819 9.93944 56.0923 10.0428C56.3657 10.1461 56.6007 10.2978 56.7973 10.4978C56.994 10.6944 57.1473 10.9378 57.2573 11.2278C57.3707 11.5144 57.4273 11.8428 57.4273 12.2128C57.4273 12.3994 57.4073 12.5261 57.3673 12.5928C57.3273 12.6561 57.2507 12.6878 57.1373 12.6878H53.9623ZM59.6341 9.96778V15.0978H58.3941V9.96778H59.6341ZM59.8041 8.47278C59.8041 8.57944 59.7825 8.67944 59.7391 8.77278C59.6958 8.86611 59.6375 8.94778 59.5641 9.01778C59.4941 9.08778 59.4108 9.14444 59.3141 9.18778C59.2175 9.22778 59.1141 9.24778 59.0041 9.24778C58.8975 9.24778 58.7958 9.22778 58.6991 9.18778C58.6058 9.14444 58.5241 9.08778 58.4541 9.01778C58.3841 8.94778 58.3275 8.86611 58.2841 8.77278C58.2441 8.67944 58.2241 8.57944 58.2241 8.47278C58.2241 8.36278 58.2441 8.25944 58.2841 8.16278C58.3275 8.06611 58.3841 7.98278 58.4541 7.91278C58.5241 7.84278 58.6058 7.78778 58.6991 7.74778C58.7958 7.70444 58.8975 7.68278 59.0041 7.68278C59.1141 7.68278 59.2175 7.70444 59.3141 7.74778C59.4108 7.78778 59.4941 7.84278 59.5641 7.91278C59.6375 7.98278 59.6958 8.06611 59.7391 8.16278C59.7825 8.25944 59.8041 8.36278 59.8041 8.47278ZM62.7682 12.4078C62.9215 12.4078 63.0549 12.3878 63.1682 12.3478C63.2815 12.3044 63.3749 12.2461 63.4482 12.1728C63.5249 12.0994 63.5815 12.0111 63.6182 11.9078C63.6582 11.8044 63.6782 11.6911 63.6782 11.5678C63.6782 11.3144 63.6015 11.1144 63.4482 10.9678C63.2982 10.8178 63.0715 10.7428 62.7682 10.7428C62.4649 10.7428 62.2365 10.8178 62.0832 10.9678C61.9332 11.1144 61.8582 11.3144 61.8582 11.5678C61.8582 11.6878 61.8765 11.7994 61.9132 11.9028C61.9532 12.0061 62.0099 12.0961 62.0832 12.1728C62.1599 12.2461 62.2549 12.3044 62.3682 12.3478C62.4849 12.3878 62.6182 12.4078 62.7682 12.4078ZM64.1632 15.3278C64.1632 15.2278 64.1332 15.1461 64.0732 15.0828C64.0132 15.0194 63.9315 14.9711 63.8282 14.9378C63.7249 14.9011 63.6032 14.8744 63.4632 14.8578C63.3265 14.8411 63.1799 14.8294 63.0232 14.8228C62.8699 14.8128 62.7099 14.8044 62.5432 14.7978C62.3799 14.7911 62.2199 14.7778 62.0632 14.7578C61.9265 14.8344 61.8149 14.9244 61.7282 15.0278C61.6449 15.1311 61.6032 15.2511 61.6032 15.3878C61.6032 15.4778 61.6249 15.5611 61.6682 15.6378C61.7149 15.7178 61.7865 15.7861 61.8832 15.8428C61.9832 15.8994 62.1115 15.9428 62.2682 15.9728C62.4249 16.0061 62.6165 16.0228 62.8432 16.0228C63.0732 16.0228 63.2715 16.0044 63.4382 15.9678C63.6049 15.9344 63.7415 15.8861 63.8482 15.8228C63.9582 15.7628 64.0382 15.6894 64.0882 15.6028C64.1382 15.5194 64.1632 15.4278 64.1632 15.3278ZM65.3932 10.1428V10.6028C65.3932 10.7494 65.3049 10.8394 65.1282 10.8728L64.6682 10.9578C64.7382 11.1344 64.7732 11.3278 64.7732 11.5378C64.7732 11.7911 64.7215 12.0211 64.6182 12.2278C64.5182 12.4311 64.3782 12.6044 64.1982 12.7478C64.0182 12.8911 63.8049 13.0028 63.5582 13.0828C63.3149 13.1594 63.0515 13.1978 62.7682 13.1978C62.6682 13.1978 62.5715 13.1928 62.4782 13.1828C62.3849 13.1728 62.2932 13.1594 62.2032 13.1428C62.0432 13.2394 61.9632 13.3478 61.9632 13.4678C61.9632 13.5711 62.0099 13.6478 62.1032 13.6978C62.1999 13.7444 62.3265 13.7778 62.4832 13.7978C62.6399 13.8178 62.8182 13.8311 63.0182 13.8378C63.2182 13.8411 63.4232 13.8511 63.6332 13.8678C63.8432 13.8844 64.0482 13.9144 64.2482 13.9578C64.4482 13.9978 64.6265 14.0628 64.7832 14.1528C64.9399 14.2428 65.0649 14.3661 65.1582 14.5228C65.2549 14.6761 65.3032 14.8744 65.3032 15.1178C65.3032 15.3444 65.2465 15.5644 65.1332 15.7778C65.0232 15.9911 64.8615 16.1811 64.6482 16.3478C64.4382 16.5144 64.1782 16.6478 63.8682 16.7478C63.5615 16.8511 63.2115 16.9028 62.8182 16.9028C62.4315 16.9028 62.0949 16.8644 61.8082 16.7878C61.5215 16.7144 61.2832 16.6144 61.0932 16.4878C60.9032 16.3644 60.7615 16.2211 60.6682 16.0578C60.5749 15.8944 60.5282 15.7244 60.5282 15.5478C60.5282 15.3078 60.5999 15.1078 60.7432 14.9478C60.8899 14.7844 61.0899 14.6544 61.3432 14.5578C61.2065 14.4878 61.0982 14.3944 61.0182 14.2778C60.9382 14.1611 60.8982 14.0078 60.8982 13.8178C60.8982 13.7411 60.9115 13.6628 60.9382 13.5828C60.9682 13.4994 61.0099 13.4178 61.0632 13.3378C61.1199 13.2578 61.1899 13.1828 61.2732 13.1128C61.3565 13.0394 61.4549 12.9744 61.5682 12.9178C61.3082 12.7778 61.1032 12.5911 60.9532 12.3578C60.8065 12.1244 60.7332 11.8511 60.7332 11.5378C60.7332 11.2844 60.7832 11.0561 60.8832 10.8528C60.9865 10.6461 61.1282 10.4711 61.3082 10.3278C61.4915 10.1811 61.7065 10.0694 61.9532 9.99278C62.2032 9.91611 62.4749 9.87778 62.7682 9.87778C62.9882 9.87778 63.1949 9.90111 63.3882 9.94778C63.5815 9.99111 63.7582 10.0561 63.9182 10.1428H65.3932ZM67.4114 10.5178C67.6114 10.3311 67.8314 10.1794 68.0714 10.0628C68.3114 9.94611 68.5931 9.88778 68.9164 9.88778C69.1964 9.88778 69.4447 9.93611 69.6614 10.0328C69.8781 10.1261 70.0581 10.2594 70.2014 10.4328C70.3481 10.6028 70.4581 10.8078 70.5314 11.0478C70.6081 11.2844 70.6464 11.5461 70.6464 11.8328V15.0978H69.4114V11.8328C69.4114 11.5194 69.3397 11.2778 69.1964 11.1078C69.0531 10.9344 68.8347 10.8478 68.5414 10.8478C68.3281 10.8478 68.1281 10.8961 67.9414 10.9928C67.7547 11.0894 67.5781 11.2211 67.4114 11.3878V15.0978H66.1764V7.66778H67.4114V10.5178ZM73.4626 15.1778C73.0159 15.1778 72.6726 15.0528 72.4326 14.8028C72.1959 14.5494 72.0776 14.2011 72.0776 13.7578V10.8928H71.5526C71.4859 10.8928 71.4292 10.8711 71.3826 10.8278C71.3359 10.7844 71.3126 10.7194 71.3126 10.6328V10.1428L72.1376 10.0078L72.3976 8.60778C72.4142 8.54111 72.4459 8.48944 72.4926 8.45278C72.5392 8.41611 72.5992 8.39778 72.6726 8.39778H73.3126V10.0128H74.6826V10.8928H73.3126V13.6728C73.3126 13.8328 73.3509 13.9578 73.4276 14.0478C73.5076 14.1378 73.6159 14.1828 73.7526 14.1828C73.8292 14.1828 73.8926 14.1744 73.9426 14.1578C73.9959 14.1378 74.0409 14.1178 74.0776 14.0978C74.1176 14.0778 74.1526 14.0594 74.1826 14.0428C74.2126 14.0228 74.2426 14.0128 74.2726 14.0128C74.3092 14.0128 74.3392 14.0228 74.3626 14.0428C74.3859 14.0594 74.4109 14.0861 74.4376 14.1228L74.8076 14.7228C74.6276 14.8728 74.4209 14.9861 74.1876 15.0628C73.9542 15.1394 73.7126 15.1778 73.4626 15.1778Z" fill="white"/>
<path d="M42.908 27.8183C43.5853 27.2743 44.116 26.829 44.5 26.4823C44.884 26.1303 45.2067 25.765 45.468 25.3863C45.7347 25.0023 45.868 24.6263 45.868 24.2583C45.868 23.9117 45.7827 23.6397 45.612 23.4423C45.4467 23.2397 45.1773 23.1383 44.804 23.1383C44.4413 23.1383 44.1587 23.253 43.956 23.4823C43.7587 23.7063 43.652 24.0077 43.636 24.3863H42.932C42.9533 23.789 43.1347 23.3277 43.476 23.0023C43.8173 22.677 44.2573 22.5143 44.796 22.5143C45.3453 22.5143 45.78 22.6663 46.1 22.9703C46.4253 23.2743 46.588 23.693 46.588 24.2263C46.588 24.669 46.4547 25.101 46.188 25.5223C45.9267 25.9383 45.628 26.3063 45.292 26.6263C44.956 26.941 44.5267 27.309 44.004 27.7303H46.756V28.3383H42.908V27.8183ZM50.8216 23.9943C50.7042 23.4023 50.3389 23.1063 49.7256 23.1063C49.2509 23.1063 48.8962 23.2903 48.6616 23.6583C48.4269 24.021 48.3122 24.621 48.3176 25.4583C48.4402 25.181 48.6429 24.965 48.9256 24.8103C49.2136 24.6503 49.5336 24.5703 49.8856 24.5703C50.4349 24.5703 50.8722 24.741 51.1976 25.0823C51.5282 25.4237 51.6936 25.8957 51.6936 26.4983C51.6936 26.861 51.6216 27.1863 51.4776 27.4743C51.3389 27.7623 51.1256 27.9917 50.8376 28.1623C50.5549 28.333 50.2109 28.4183 49.8056 28.4183C49.2562 28.4183 48.8269 28.2957 48.5176 28.0503C48.2082 27.805 47.9922 27.4663 47.8696 27.0343C47.7469 26.6023 47.6856 26.069 47.6856 25.4343C47.6856 23.477 48.3682 22.4983 49.7336 22.4983C50.2562 22.4983 50.6669 22.6397 50.9656 22.9223C51.2642 23.205 51.4402 23.5623 51.4936 23.9943H50.8216ZM49.7336 25.1863C49.5042 25.1863 49.2882 25.2343 49.0856 25.3303C48.8829 25.421 48.7176 25.5623 48.5896 25.7543C48.4669 25.941 48.4056 26.1703 48.4056 26.4423C48.4056 26.8477 48.5229 27.1783 48.7576 27.4343C48.9922 27.685 49.3282 27.8103 49.7656 27.8103C50.1389 27.8103 50.4349 27.6957 50.6536 27.4663C50.8776 27.2317 50.9896 26.917 50.9896 26.5223C50.9896 26.1063 50.8829 25.781 50.6696 25.5463C50.4562 25.3063 50.1442 25.1863 49.7336 25.1863ZM53.0277 28.4503C52.889 28.4503 52.7717 28.4023 52.6757 28.3063C52.5797 28.2103 52.5317 28.093 52.5317 27.9543C52.5317 27.8157 52.5797 27.6983 52.6757 27.6023C52.7717 27.5063 52.889 27.4583 53.0277 27.4583C53.161 27.4583 53.273 27.5063 53.3637 27.6023C53.4597 27.6983 53.5077 27.8157 53.5077 27.9543C53.5077 28.093 53.4597 28.2103 53.3637 28.3063C53.273 28.4023 53.161 28.4503 53.0277 28.4503ZM54.3394 24.0743C54.3767 23.5837 54.566 23.1997 54.9074 22.9223C55.2487 22.645 55.6914 22.5063 56.2354 22.5063C56.598 22.5063 56.91 22.573 57.1714 22.7063C57.438 22.8343 57.638 23.0103 57.7714 23.2343C57.91 23.4583 57.9794 23.7117 57.9794 23.9943C57.9794 24.325 57.8834 24.6103 57.6914 24.8503C57.5047 25.0903 57.2594 25.245 56.9554 25.3143V25.3543C57.302 25.4397 57.5767 25.6077 57.7794 25.8583C57.982 26.109 58.0834 26.437 58.0834 26.8423C58.0834 27.1463 58.014 27.421 57.8754 27.6663C57.7367 27.9063 57.5287 28.0957 57.2514 28.2343C56.974 28.373 56.6407 28.4423 56.2514 28.4423C55.686 28.4423 55.222 28.2957 54.8594 28.0023C54.4967 27.7037 54.294 27.2823 54.2514 26.7383H54.9554C54.9927 27.0583 55.1234 27.3197 55.3474 27.5223C55.5714 27.725 55.87 27.8263 56.2434 27.8263C56.6167 27.8263 56.8994 27.7303 57.0914 27.5383C57.2887 27.341 57.3874 27.0877 57.3874 26.7783C57.3874 26.3783 57.254 26.0903 56.9874 25.9143C56.7207 25.7383 56.318 25.6503 55.7794 25.6503H55.5954V25.0423H55.7874C56.278 25.037 56.6487 24.957 56.8994 24.8023C57.15 24.6423 57.2754 24.397 57.2754 24.0663C57.2754 23.7837 57.182 23.557 56.9954 23.3863C56.814 23.2157 56.5527 23.1303 56.2114 23.1303C55.8807 23.1303 55.614 23.2157 55.4114 23.3863C55.2087 23.557 55.0887 23.7863 55.0514 24.0743H54.3394ZM58.9783 27.8183C59.6556 27.2743 60.1863 26.829 60.5703 26.4823C60.9543 26.1303 61.277 25.765 61.5383 25.3863C61.805 25.0023 61.9383 24.6263 61.9383 24.2583C61.9383 23.9117 61.853 23.6397 61.6823 23.4423C61.517 23.2397 61.2476 23.1383 60.8743 23.1383C60.5116 23.1383 60.229 23.253 60.0263 23.4823C59.829 23.7063 59.7223 24.0077 59.7063 24.3863H59.0023C59.0236 23.789 59.205 23.3277 59.5463 23.0023C59.8876 22.677 60.3276 22.5143 60.8663 22.5143C61.4156 22.5143 61.8503 22.6663 62.1703 22.9703C62.4956 23.2743 62.6583 23.693 62.6583 24.2263C62.6583 24.669 62.525 25.101 62.2583 25.5223C61.997 25.9383 61.6983 26.3063 61.3623 26.6263C61.0263 26.941 60.597 27.309 60.0743 27.7303H62.8263V28.3383H58.9783V27.8183ZM67.7287 23.9463C68.1074 23.9463 68.438 24.029 68.7207 24.1943C69.0087 24.3597 69.222 24.5677 69.3607 24.8183V24.0183H70.0967V28.4983C70.0967 28.8983 70.0114 29.253 69.8407 29.5623C69.67 29.877 69.4247 30.1223 69.1047 30.2983C68.79 30.4743 68.422 30.5623 68.0007 30.5623C67.4247 30.5623 66.9447 30.4263 66.5607 30.1543C66.1767 29.8823 65.95 29.5117 65.8807 29.0423H66.6007C66.6807 29.309 66.846 29.5223 67.0967 29.6823C67.3474 29.8477 67.6487 29.9303 68.0007 29.9303C68.4007 29.9303 68.726 29.805 68.9767 29.5543C69.2327 29.3037 69.3607 28.9517 69.3607 28.4983V27.5783C69.2167 27.8343 69.0034 28.0477 68.7207 28.2183C68.438 28.389 68.1074 28.4743 67.7287 28.4743C67.3394 28.4743 66.9847 28.3783 66.6647 28.1863C66.35 27.9943 66.102 27.725 65.9207 27.3783C65.7394 27.0317 65.6487 26.637 65.6487 26.1943C65.6487 25.7463 65.7394 25.3543 65.9207 25.0183C66.102 24.677 66.35 24.413 66.6647 24.2263C66.9847 24.0397 67.3394 23.9463 67.7287 23.9463ZM69.3607 26.2023C69.3607 25.8717 69.294 25.5837 69.1607 25.3383C69.0274 25.093 68.846 24.9063 68.6167 24.7783C68.3927 24.645 68.1447 24.5783 67.8727 24.5783C67.6007 24.5783 67.3527 24.6423 67.1287 24.7703C66.9047 24.8983 66.726 25.085 66.5927 25.3303C66.4594 25.5757 66.3927 25.8637 66.3927 26.1943C66.3927 26.5303 66.4594 26.8237 66.5927 27.0743C66.726 27.3197 66.9047 27.509 67.1287 27.6423C67.3527 27.7703 67.6007 27.8343 67.8727 27.8343C68.1447 27.8343 68.3927 27.7703 68.6167 27.6423C68.846 27.509 69.0274 27.3197 69.1607 27.0743C69.294 26.8237 69.3607 26.533 69.3607 26.2023Z" fill="white"/>
</svg>
