<svg width="499" height="15" viewBox="0 0 499 15" fill="none" xmlns="http://www.w3.org/2000/svg">
<path d="M2 7.09091C2 6.7803 2.07576 6.49716 2.22727 6.24148C2.37879 5.9858 2.58239 5.7822 2.83807 5.63068C3.09375 5.47917 3.37689 5.40341 3.6875 5.40341C3.95644 5.40341 4.20455 5.46117 4.43182 5.5767C4.66099 5.69223 4.85038 5.85038 5 6.05114C5.14962 6.25 5.24242 6.47538 5.27841 6.72727L4.59091 6.72727C4.55303 6.5322 4.44792 6.37311 4.27557 6.25C4.10322 6.125 3.9072 6.0625 3.6875 6.0625C3.49811 6.0625 3.32576 6.1089 3.17045 6.2017C3.01515 6.29451 2.8911 6.41856 2.7983 6.57386C2.70549 6.72917 2.65909 6.90152 2.65909 7.09091C2.65909 7.2803 2.70549 7.45265 2.7983 7.60795C2.8911 7.76326 3.01515 7.88731 3.17045 7.98011C3.32576 8.07292 3.49811 8.11932 3.6875 8.11932C3.9072 8.11932 4.0928 8.05777 4.24432 7.93466C4.39773 7.80966 4.49432 7.64962 4.53409 7.45455L5.22159 7.45455C5.18561 7.70644 5.09754 7.93277 4.95739 8.13352C4.81723 8.33239 4.63731 8.48958 4.41761 8.60511C4.19981 8.72064 3.95644 8.77841 3.6875 8.77841C3.37689 8.77841 3.09375 8.70265 2.83807 8.55114C2.58239 8.39962 2.37879 8.19602 2.22727 7.94034C2.07576 7.68466 2 7.40152 2 7.09091ZM3.65909 10.0909C3.24621 10.0909 2.85795 10.0133 2.49432 9.85795C2.13258 9.70265 1.81345 9.48769 1.53693 9.21307C1.26231 8.93655 1.0464 8.61742 0.889205 8.25568C0.733902 7.89394 0.657197 7.50568 0.659091 7.09091C0.660985 6.67614 0.739583 6.28788 0.894886 5.92614C1.05208 5.56439 1.26799 5.24621 1.54261 4.97159C1.81723 4.69508 2.13542 4.47917 2.49716 4.32386C2.8589 4.16856 3.24621 4.09091 3.65909 4.09091C4.07386 4.09091 4.46212 4.16856 4.82386 4.32386C5.1875 4.47917 5.50568 4.69508 5.77841 4.97159C6.05303 5.24621 6.26799 5.56439 6.4233 5.92614C6.5786 6.28788 6.6572 6.67614 6.65909 7.09091C6.66098 7.50568 6.58428 7.89394 6.42898 8.25568C6.27367 8.61742 6.05871 8.93655 5.78409 9.21307C5.50947 9.48769 5.19034 9.70265 4.8267 9.85795C4.46307 10.0133 4.07386 10.0909 3.65909 10.0909ZM3.65909 9.43182C3.98295 9.43182 4.28693 9.37121 4.57102 9.25C4.85511 9.12879 5.10417 8.96117 5.31818 8.74716C5.5322 8.53314 5.69981 8.28504 5.82102 8.00284C5.94223 7.71875 6.00189 7.41572 6 7.09375C5.99811 6.76989 5.93655 6.46591 5.81534 6.18182C5.69413 5.89773 5.52652 5.64867 5.3125 5.43466C5.09848 5.22064 4.85038 5.05303 4.56818 4.93182C4.28598 4.81061 3.98295 4.75 3.65909 4.75C3.33712 4.75 3.03504 4.81061 2.75284 4.93182C2.47064 5.05303 2.22254 5.22159 2.00852 5.4375C1.79451 5.65152 1.62595 5.90057 1.50284 6.18466C1.38163 6.46686 1.32008 6.76989 1.31818 7.09375C1.31629 7.41383 1.37595 7.71591 1.49716 8C1.61837 8.2822 1.78598 8.5303 2 8.74432C2.21591 8.95833 2.46496 9.12689 2.74716 9.25C3.03125 9.37121 3.33523 9.43182 3.65909 9.43182ZM9.37259 10L9.37259 9.48864L11.293 7.38636C11.5184 7.14015 11.704 6.92614 11.8499 6.74432C11.9957 6.56061 12.1036 6.38826 12.1737 6.22727C12.2457 6.06439 12.2817 5.89394 12.2817 5.71591C12.2817 5.51136 12.2324 5.33428 12.1339 5.18466C12.0374 5.03504 11.9048 4.91951 11.7362 4.83807C11.5677 4.75663 11.3783 4.71591 11.168 4.71591C10.9446 4.71591 10.7495 4.76231 10.5828 4.85511C10.418 4.94602 10.2902 5.07386 10.1993 5.23864C10.1103 5.40341 10.0658 5.59659 10.0658 5.81818L9.39531 5.81818C9.39531 5.47727 9.47391 5.17803 9.63111 4.92045C9.7883 4.66288 10.0023 4.46212 10.2732 4.31818C10.5459 4.17424 10.8518 4.10227 11.1908 4.10227C11.5317 4.10227 11.8338 4.17424 12.097 4.31818C12.3603 4.46212 12.5667 4.65625 12.7163 4.90057C12.866 5.14489 12.9408 5.41667 12.9408 5.71591C12.9408 5.92992 12.9019 6.1392 12.8243 6.34375C12.7485 6.5464 12.616 6.77273 12.4266 7.02273C12.2391 7.27083 11.9786 7.57386 11.6453 7.93182L10.3385 9.32955L10.3385 9.375L13.043 9.375L13.043 10L9.37259 10ZM15.7141 10.0795C15.286 10.0795 14.9214 9.96307 14.6203 9.73011C14.3192 9.49527 14.0891 9.1553 13.93 8.71023C13.7709 8.26326 13.6913 7.72348 13.6913 7.09091C13.6913 6.46212 13.7709 5.92519 13.93 5.48011C14.091 5.03314 14.322 4.69223 14.6232 4.45739C14.9262 4.22064 15.2898 4.10227 15.7141 4.10227C16.1383 4.10227 16.501 4.22064 16.8021 4.45739C17.1052 4.69223 17.3362 5.03314 17.4953 5.48011C17.6563 5.92519 17.7368 6.46212 17.7368 7.09091C17.7368 7.72348 17.6572 8.26326 17.4982 8.71023C17.3391 9.1553 17.1089 9.49527 16.8078 9.73011C16.5067 9.96307 16.1421 10.0795 15.7141 10.0795ZM15.7141 9.45455C16.1383 9.45455 16.4679 9.25 16.7027 8.84091C16.9375 8.43182 17.055 7.84848 17.055 7.09091C17.055 6.58712 17.001 6.15814 16.893 5.80398C16.787 5.44981 16.6336 5.17992 16.4328 4.99432C16.2339 4.80871 15.9944 4.71591 15.7141 4.71591C15.2936 4.71591 14.965 4.9233 14.7283 5.33807C14.4915 5.75095 14.3732 6.33523 14.3732 7.09091C14.3732 7.5947 14.4262 8.02273 14.5322 8.375C14.6383 8.72727 14.7908 8.99527 14.9896 9.17898C15.1904 9.36269 15.4319 9.45455 15.7141 9.45455ZM18.4163 10L18.4163 9.48864L20.3368 7.38636C20.5622 7.14015 20.7478 6.92614 20.8936 6.74432C21.0394 6.56061 21.1474 6.38826 21.2175 6.22727C21.2894 6.06439 21.3254 5.89394 21.3254 5.71591C21.3254 5.51136 21.2762 5.33428 21.1777 5.18466C21.0811 5.03504 20.9485 4.91951 20.78 4.83807C20.6114 4.75663 20.422 4.71591 20.2118 4.71591C19.9883 4.71591 19.7932 4.76231 19.6266 4.85511C19.4618 4.94602 19.3339 5.07386 19.243 5.23864C19.154 5.40341 19.1095 5.59659 19.1095 5.81818L18.4391 5.81818C18.4391 5.47727 18.5177 5.17803 18.6749 4.92045C18.8321 4.66288 19.0461 4.46212 19.3169 4.31818C19.5896 4.17424 19.8955 4.10227 20.2345 4.10227C20.5754 4.10227 20.8775 4.17424 21.1408 4.31818C21.404 4.46212 21.6105 4.65625 21.7601 4.90057C21.9097 5.14489 21.9845 5.41667 21.9845 5.71591C21.9845 5.92992 21.9457 6.1392 21.868 6.34375C21.7923 6.5464 21.6597 6.77273 21.4703 7.02273C21.2828 7.27083 21.0224 7.57386 20.6891 7.93182L19.3822 9.32955L19.3822 9.375L22.0868 9.375L22.0868 10L18.4163 10ZM22.5987 8.80682L22.5987 8.22727L25.1555 4.18182L25.576 4.18182L25.576 5.07955L25.2919 5.07955L23.3601 8.13636L23.3601 8.18182L26.8033 8.18182L26.8033 8.80682L22.5987 8.80682ZM25.3374 10L25.3374 8.63068L25.3374 8.3608L25.3374 4.18182L26.0078 4.18182L26.0078 10L25.3374 10ZM29.3293 10L29.3293 5.63636L29.977 5.63636L29.977 6.29545L30.0224 6.29545C30.102 6.07955 30.2459 5.90436 30.4543 5.76989C30.6626 5.63542 30.8974 5.56818 31.1588 5.56818C31.2081 5.56818 31.2696 5.56913 31.3435 5.57102C31.4173 5.57292 31.4732 5.57576 31.5111 5.57955L31.5111 6.26136C31.4884 6.25568 31.4363 6.24716 31.3548 6.2358C31.2753 6.22254 31.191 6.21591 31.102 6.21591C30.8899 6.21591 30.7005 6.26042 30.5338 6.34943C30.369 6.43655 30.2384 6.55776 30.1418 6.71307C30.0471 6.86648 29.9997 7.04167 29.9997 7.23864L29.9997 10L29.3293 10ZM32.5308 8.40909L32.5195 7.57955L32.6558 7.57955L34.5649 5.63636L35.3945 5.63636L33.3604 7.69318L33.3036 7.69318L32.5308 8.40909ZM31.9058 10L31.9058 4.18182L32.5763 4.18182L32.5763 10L31.9058 10ZM34.6786 10L32.974 7.84091L33.4513 7.375L35.5308 10L34.6786 10ZM37.7074 11.6364L37.7074 5.63636L38.3551 5.63636L38.3551 6.32955L38.4347 6.32955C38.4839 6.25379 38.5521 6.1572 38.6392 6.03977C38.7282 5.92045 38.8551 5.81439 39.0199 5.72159C39.1866 5.62689 39.4119 5.57955 39.696 5.57955C40.0634 5.57955 40.3873 5.6714 40.6676 5.85511C40.9479 6.03883 41.1667 6.29924 41.3239 6.63636C41.4811 6.97348 41.5597 7.37121 41.5597 7.82955C41.5597 8.29167 41.4811 8.69223 41.3239 9.03125C41.1667 9.36837 40.9489 9.62973 40.6705 9.81534C40.392 9.99905 40.071 10.0909 39.7074 10.0909C39.4271 10.0909 39.2027 10.0445 39.0341 9.9517C38.8655 9.85701 38.7358 9.75 38.6449 9.63068C38.554 9.50947 38.4839 9.40909 38.4347 9.32955L38.3778 9.32955L38.3778 11.6364L37.7074 11.6364ZM38.3665 7.81818C38.3665 8.14773 38.4148 8.43845 38.5114 8.69034C38.608 8.94034 38.7491 9.13636 38.9347 9.27841C39.1203 9.41856 39.3475 9.48864 39.6165 9.48864C39.8968 9.48864 40.1307 9.41477 40.3182 9.26705C40.5076 9.11742 40.6496 8.91667 40.7443 8.66477C40.8409 8.41098 40.8892 8.12879 40.8892 7.81818C40.8892 7.51136 40.8419 7.23485 40.7472 6.98864C40.6544 6.74053 40.5133 6.54451 40.3239 6.40057C40.1364 6.25473 39.9006 6.18182 39.6165 6.18182C39.3438 6.18182 39.1146 6.25095 38.929 6.3892C38.7434 6.52557 38.6032 6.71686 38.5085 6.96307C38.4138 7.20739 38.3665 7.49242 38.3665 7.81818ZM43.9551 10.0909C43.5612 10.0909 43.2155 9.99716 42.9182 9.80966C42.6227 9.62216 42.3917 9.35985 42.225 9.02273C42.0602 8.68561 41.9778 8.29167 41.9778 7.84091C41.9778 7.38636 42.0602 6.98958 42.225 6.65057C42.3917 6.31155 42.6227 6.0483 42.9182 5.8608C43.2155 5.6733 43.5612 5.57955 43.9551 5.57955C44.3491 5.57955 44.6937 5.6733 44.9892 5.8608C45.2866 6.0483 45.5176 6.31155 45.6824 6.65057C45.8491 6.98958 45.9324 7.38636 45.9324 7.84091C45.9324 8.29167 45.8491 8.68561 45.6824 9.02273C45.5176 9.35985 45.2866 9.62216 44.9892 9.80966C44.6937 9.99716 44.3491 10.0909 43.9551 10.0909ZM43.9551 9.48864C44.2544 9.48864 44.5006 9.41193 44.6937 9.25852C44.8869 9.10511 45.0299 8.90341 45.1227 8.65341C45.2155 8.40341 45.2619 8.13258 45.2619 7.84091C45.2619 7.54924 45.2155 7.27746 45.1227 7.02557C45.0299 6.77367 44.8869 6.57008 44.6937 6.41477C44.5006 6.25947 44.2544 6.18182 43.9551 6.18182C43.6559 6.18182 43.4097 6.25947 43.2165 6.41477C43.0233 6.57008 42.8803 6.77367 42.7875 7.02557C42.6947 7.27746 42.6483 7.54924 42.6483 7.84091C42.6483 8.13258 42.6947 8.40341 42.7875 8.65341C42.8803 8.90341 43.0233 9.10511 43.2165 9.25852C43.4097 9.41193 43.6559 9.48864 43.9551 9.48864ZM47.2263 4.18182L47.2263 10L46.5558 10L46.5558 4.18182L47.2263 4.18182ZM48.7247 4.18182L48.7247 10L48.0543 10L48.0543 4.18182L48.7247 4.18182ZM49.9845 11.6364C49.8709 11.6364 49.7696 11.6269 49.6805 11.608C49.5915 11.5909 49.53 11.5739 49.4959 11.5568L49.6663 10.9659C49.8292 11.0076 49.9732 11.0227 50.0982 11.0114C50.2232 11 50.334 10.9441 50.4305 10.8437C50.529 10.7453 50.619 10.5852 50.7004 10.3636L50.8254 10.0227L49.2118 5.63636L49.9391 5.63636L51.1436 9.11364L51.1891 9.11364L52.3936 5.63636L53.1209 5.63636L51.2686 10.6364C51.1853 10.8617 51.0821 11.0483 50.959 11.196C50.8358 11.3456 50.6929 11.4564 50.53 11.5284C50.369 11.6004 50.1872 11.6364 49.9845 11.6364ZM57.2285 10.0909C56.8195 10.0909 56.4672 9.99432 56.1717 9.80114C55.8763 9.60795 55.649 9.34186 55.4899 9.00284C55.3308 8.66383 55.2513 8.27652 55.2513 7.84091C55.2513 7.39773 55.3327 7.00663 55.4956 6.66761C55.6604 6.3267 55.8895 6.06061 56.1831 5.86932C56.4785 5.67614 56.8232 5.57955 57.2172 5.57955C57.524 5.57955 57.8005 5.63636 58.0467 5.75C58.2929 5.86364 58.4946 6.02273 58.6518 6.22727C58.809 6.43182 58.9066 6.67045 58.9445 6.94318L58.274 6.94318C58.2229 6.74432 58.1092 6.56818 57.9331 6.41477C57.7589 6.25947 57.524 6.18182 57.2285 6.18182C56.9672 6.18182 56.738 6.25 56.541 6.38636C56.346 6.52083 56.1935 6.71117 56.0837 6.95739C55.9757 7.2017 55.9217 7.48864 55.9217 7.81818C55.9217 8.1553 55.9748 8.44886 56.0808 8.69886C56.1888 8.94886 56.3403 9.14299 56.5354 9.28125C56.7323 9.41951 56.9634 9.48864 57.2285 9.48864C57.4028 9.48864 57.5609 9.45833 57.703 9.39773C57.845 9.33712 57.9653 9.25 58.0638 9.13636C58.1623 9.02273 58.2323 8.88636 58.274 8.72727L58.9445 8.72727C58.9066 8.98485 58.8128 9.21686 58.6632 9.4233C58.5155 9.62784 58.3195 9.79072 58.0751 9.91193C57.8327 10.0312 57.5505 10.0909 57.2285 10.0909ZM61.2973 10.0909C60.9034 10.0909 60.5577 9.99716 60.2604 9.80966C59.9649 9.62216 59.7339 9.35985 59.5672 9.02273C59.4024 8.68561 59.32 8.29167 59.32 7.84091C59.32 7.38636 59.4024 6.98958 59.5672 6.65057C59.7339 6.31155 59.9649 6.0483 60.2604 5.8608C60.5577 5.6733 60.9034 5.57955 61.2973 5.57955C61.6912 5.57955 62.0359 5.6733 62.3314 5.8608C62.6287 6.0483 62.8598 6.31155 63.0246 6.65057C63.1912 6.98958 63.2746 7.38636 63.2746 7.84091C63.2746 8.29167 63.1912 8.68561 63.0246 9.02273C62.8598 9.35985 62.6287 9.62216 62.3314 9.80966C62.0359 9.99716 61.6912 10.0909 61.2973 10.0909ZM61.2973 9.48864C61.5965 9.48864 61.8428 9.41193 62.0359 9.25852C62.2291 9.10511 62.3721 8.90341 62.4649 8.65341C62.5577 8.40341 62.6041 8.13258 62.6041 7.84091C62.6041 7.54924 62.5577 7.27746 62.4649 7.02557C62.3721 6.77367 62.2291 6.57008 62.0359 6.41477C61.8428 6.25947 61.5965 6.18182 61.2973 6.18182C60.9981 6.18182 60.7518 6.25947 60.5587 6.41477C60.3655 6.57008 60.2225 6.77367 60.1297 7.02557C60.0369 7.27746 59.9905 7.54924 59.9905 7.84091C59.9905 8.13258 60.0369 8.40341 60.1297 8.65341C60.2225 8.90341 60.3655 9.10511 60.5587 9.25852C60.7518 9.41193 60.9981 9.48864 61.2973 9.48864ZM64.5685 7.375L64.5685 10L63.898 10L63.898 5.63636L64.5457 5.63636L64.5457 6.31818L64.6026 6.31818C64.7048 6.09659 64.8601 5.91856 65.0685 5.78409C65.2768 5.64773 65.5457 5.57955 65.8753 5.57955C66.1707 5.57955 66.4293 5.64015 66.6509 5.76136C66.8724 5.88068 67.0448 6.0625 67.1679 6.30682C67.291 6.54924 67.3526 6.85606 67.3526 7.22727L67.3526 10L66.6821 10L66.6821 7.27273C66.6821 6.92992 66.5931 6.66288 66.4151 6.47159C66.237 6.27841 65.9927 6.18182 65.6821 6.18182C65.4681 6.18182 65.2768 6.22822 65.1082 6.32102C64.9416 6.41383 64.8099 6.54924 64.7134 6.72727C64.6168 6.9053 64.5685 7.12121 64.5685 7.375ZM70.0754 5.63636L70.0754 6.20455L67.8141 6.20455L67.8141 5.63636L70.0754 5.63636ZM68.4732 4.59091L69.1436 4.59091L69.1436 8.75C69.1436 8.93939 69.1711 9.08144 69.226 9.17614C69.2828 9.26894 69.3548 9.33144 69.4419 9.36364C69.5309 9.39394 69.6247 9.40909 69.7232 9.40909C69.797 9.40909 69.8576 9.4053 69.905 9.39773C69.9523 9.38826 69.9902 9.38068 70.0186 9.375L70.155 9.97727C70.1095 9.99432 70.0461 10.0114 69.9646 10.0284C69.8832 10.0473 69.78 10.0568 69.655 10.0568C69.4656 10.0568 69.28 10.0161 69.0982 9.93466C68.9182 9.85322 68.7686 9.72917 68.6493 9.5625C68.5319 9.39583 68.4732 9.18561 68.4732 8.93182L68.4732 4.59091ZM71.968 10.1023C71.6915 10.1023 71.4406 10.0502 71.2152 9.94602C70.9898 9.83996 70.8108 9.6875 70.6783 9.48864C70.5457 9.28788 70.4794 9.04545 70.4794 8.76136C70.4794 8.51136 70.5286 8.30871 70.6271 8.15341C70.7256 7.99621 70.8572 7.87311 71.022 7.78409C71.1868 7.69508 71.3686 7.62879 71.5675 7.58523C71.7682 7.53977 71.9699 7.50379 72.1726 7.47727C72.4377 7.44318 72.6527 7.41761 72.8175 7.40057C72.9841 7.38163 73.1054 7.35038 73.1811 7.30682C73.2588 7.26326 73.2976 7.1875 73.2976 7.07955L73.2976 7.05682C73.2976 6.77651 73.2209 6.55871 73.0675 6.40341C72.916 6.24811 72.6858 6.17045 72.3771 6.17045C72.0571 6.17045 71.8061 6.24053 71.6243 6.38068C71.4425 6.52083 71.3146 6.67045 71.2408 6.82955L70.6044 6.60227C70.718 6.33712 70.8696 6.13068 71.0589 5.98295C71.2502 5.83333 71.4586 5.72917 71.6839 5.67045C71.9112 5.60985 72.1347 5.57955 72.3544 5.57955C72.4946 5.57955 72.6555 5.59659 72.8374 5.63068C73.0211 5.66288 73.1982 5.73011 73.3686 5.83239C73.541 5.93466 73.6839 6.08902 73.7976 6.29545C73.9112 6.50189 73.968 6.77841 73.968 7.125L73.968 10L73.2976 10L73.2976 9.40909L73.2635 9.40909C73.218 9.50379 73.1423 9.60511 73.0362 9.71307C72.9302 9.82102 72.7891 9.91288 72.6129 9.98864C72.4368 10.0644 72.2218 10.1023 71.968 10.1023ZM72.0703 9.5C72.3355 9.5 72.5589 9.44792 72.7408 9.34375C72.9245 9.23958 73.0627 9.10511 73.1555 8.94034C73.2502 8.77557 73.2976 8.60227 73.2976 8.42045L73.2976 7.80682C73.2692 7.84091 73.2067 7.87216 73.1101 7.90057C73.0154 7.92708 72.9055 7.95076 72.7805 7.97159C72.6574 7.99053 72.5372 8.00758 72.4197 8.02273C72.3042 8.03598 72.2105 8.04735 72.1385 8.05682C71.9643 8.07955 71.8014 8.11648 71.6499 8.16761C71.5002 8.21686 71.379 8.29167 71.2862 8.39205C71.1953 8.49053 71.1499 8.625 71.1499 8.79545C71.1499 9.02841 71.236 9.20455 71.4084 9.32386C71.5826 9.44129 71.8033 9.5 72.0703 9.5ZM74.7918 10L74.7918 5.63636L75.4622 5.63636L75.4622 10L74.7918 10ZM75.1327 4.90909C75.002 4.90909 74.8893 4.86458 74.7946 4.77557C74.7018 4.68655 74.6554 4.57955 74.6554 4.45455C74.6554 4.32955 74.7018 4.22254 74.7946 4.13352C74.8893 4.04451 75.002 4 75.1327 4C75.2634 4 75.3751 4.04451 75.4679 4.13352C75.5626 4.22254 75.6099 4.32955 75.6099 4.45455C75.6099 4.57955 75.5626 4.68655 75.4679 4.77557C75.3751 4.86458 75.2634 4.90909 75.1327 4.90909ZM76.9607 7.375L76.9607 10L76.2902 10L76.2902 5.63636L76.9379 5.63636L76.9379 6.31818L76.9947 6.31818C77.097 6.09659 77.2523 5.91856 77.4607 5.78409C77.669 5.64773 77.9379 5.57955 78.2675 5.57955C78.5629 5.57955 78.8214 5.64015 79.043 5.76136C79.2646 5.88068 79.437 6.0625 79.5601 6.30682C79.6832 6.54924 79.7447 6.85606 79.7447 7.22727L79.7447 10L79.0743 10L79.0743 7.27273C79.0743 6.92992 78.9853 6.66288 78.8072 6.47159C78.6292 6.27841 78.3849 6.18182 78.0743 6.18182C77.8603 6.18182 77.669 6.22822 77.5004 6.32102C77.3338 6.41383 77.2021 6.54924 77.1055 6.72727C77.0089 6.9053 76.9607 7.12121 76.9607 7.375ZM82.3994 10.0909C81.979 10.0909 81.6163 9.99811 81.3114 9.8125C81.0083 9.625 80.7744 9.36364 80.6097 9.02841C80.4468 8.69129 80.3653 8.29924 80.3653 7.85227C80.3653 7.4053 80.4468 7.01136 80.6097 6.67045C80.7744 6.32765 81.0036 6.06061 81.2972 5.86932C81.5926 5.67614 81.9373 5.57955 82.3313 5.57955C82.5585 5.57955 82.783 5.61742 83.0045 5.69318C83.2261 5.76894 83.4278 5.89205 83.6097 6.0625C83.7915 6.23106 83.9364 6.45455 84.0443 6.73295C84.1523 7.01136 84.2063 7.35417 84.2063 7.76136L84.2063 8.04545L80.8426 8.04545L80.8426 7.46591L83.5244 7.46591C83.5244 7.2197 83.4752 7 83.3767 6.80682C83.2801 6.61364 83.1419 6.46117 82.9619 6.34943C82.7839 6.23769 82.5737 6.18182 82.3313 6.18182C82.0642 6.18182 81.8331 6.24811 81.6381 6.38068C81.4449 6.51136 81.2962 6.68182 81.192 6.89205C81.0879 7.10227 81.0358 7.32765 81.0358 7.56818L81.0358 7.95455C81.0358 8.28409 81.0926 8.56345 81.2063 8.79261C81.3218 9.01989 81.4818 9.19318 81.6864 9.3125C81.8909 9.42992 82.1286 9.48864 82.3994 9.48864C82.5756 9.48864 82.7347 9.46402 82.8767 9.41477C83.0206 9.36364 83.1447 9.28788 83.2489 9.1875C83.353 9.08523 83.4335 8.95833 83.4903 8.80682L84.1381 8.98864C84.0699 9.20833 83.9553 9.40152 83.7943 9.56818C83.6333 9.73295 83.4345 9.86174 83.1977 9.95455C82.961 10.0455 82.6949 10.0909 82.3994 10.0909ZM84.8261 10L84.8261 5.63636L85.4739 5.63636L85.4739 6.29545L85.5193 6.29545C85.5989 6.07955 85.7428 5.90436 85.9511 5.76989C86.1595 5.63542 86.3943 5.56818 86.6557 5.56818C86.7049 5.56818 86.7665 5.56913 86.8403 5.57102C86.9142 5.57292 86.9701 5.57576 87.008 5.57955L87.008 6.26136C86.9852 6.25568 86.9331 6.24716 86.8517 6.2358C86.7722 6.22254 86.6879 6.21591 86.5989 6.21591C86.3867 6.21591 86.1974 6.26042 86.0307 6.34943C85.8659 6.43655 85.7352 6.55776 85.6386 6.71307C85.5439 6.86648 85.4966 7.04167 85.4966 7.23864L85.4966 10L84.8261 10ZM90.4936 6.61364L89.8913 6.78409C89.8535 6.68371 89.7976 6.58617 89.7237 6.49148C89.6518 6.39489 89.5533 6.31534 89.4283 6.25284C89.3033 6.19034 89.1432 6.15909 88.9482 6.15909C88.6811 6.15909 88.4586 6.22064 88.2805 6.34375C88.1044 6.46496 88.0163 6.61932 88.0163 6.80682C88.0163 6.97348 88.0769 7.10511 88.1982 7.2017C88.3194 7.2983 88.5088 7.37879 88.7663 7.44318L89.4141 7.60227C89.8042 7.69697 90.0949 7.84186 90.2862 8.03693C90.4775 8.23011 90.5732 8.47917 90.5732 8.78409C90.5732 9.03409 90.5012 9.25758 90.3572 9.45455C90.2152 9.65152 90.0163 9.80682 89.7607 9.92045C89.505 10.0341 89.2076 10.0909 88.8686 10.0909C88.4235 10.0909 88.0552 9.99432 87.7635 9.80114C87.4718 9.60795 87.2872 9.32576 87.2095 8.95455L87.8459 8.79545C87.9065 9.0303 88.0211 9.20644 88.1896 9.32386C88.3601 9.44129 88.5826 9.5 88.8572 9.5C89.1697 9.5 89.4179 9.43371 89.6016 9.30114C89.7872 9.16667 89.88 9.00568 89.88 8.81818C89.88 8.66667 89.8269 8.53977 89.7209 8.4375C89.6148 8.33333 89.4519 8.25568 89.2322 8.20455L88.505 8.03409C88.1054 7.93939 87.8118 7.79261 87.6243 7.59375C87.4387 7.39299 87.3459 7.14205 87.3459 6.84091C87.3459 6.5947 87.415 6.37689 87.5533 6.1875C87.6934 5.99811 87.8838 5.84943 88.1243 5.74148C88.3667 5.63352 88.6413 5.57955 88.9482 5.57955C89.38 5.57955 89.719 5.67424 89.9652 5.86364C90.2133 6.05303 90.3894 6.30303 90.4936 6.61364ZM91.671 10.0455C91.5309 10.0455 91.4106 9.99527 91.3102 9.89489C91.2098 9.79451 91.1597 9.67424 91.1597 9.53409C91.1597 9.39394 91.2098 9.27367 91.3102 9.1733C91.4106 9.07292 91.5309 9.02273 91.671 9.02273C91.8112 9.02273 91.9314 9.07292 92.0318 9.1733C92.1322 9.27367 92.1824 9.39394 92.1824 9.53409C92.1824 9.62689 92.1587 9.71212 92.1114 9.78977C92.0659 9.86742 92.0044 9.92992 91.9267 9.97727C91.8509 10.0227 91.7657 10.0455 91.671 10.0455ZM96.1196 10.1023C95.8431 10.1023 95.5921 10.0502 95.3668 9.94602C95.1414 9.83996 94.9624 9.6875 94.8298 9.48864C94.6973 9.28788 94.631 9.04545 94.631 8.76136C94.631 8.51136 94.6802 8.30871 94.7787 8.15341C94.8772 7.99621 95.0088 7.87311 95.1736 7.78409C95.3384 7.69508 95.5202 7.62879 95.719 7.58523C95.9198 7.53977 96.1215 7.50379 96.3242 7.47727C96.5893 7.44318 96.8043 7.41761 96.969 7.40057C97.1357 7.38163 97.2569 7.35038 97.3327 7.30682C97.4103 7.26326 97.4492 7.1875 97.4492 7.07955L97.4492 7.05682C97.4492 6.77651 97.3724 6.55871 97.219 6.40341C97.0675 6.24811 96.8374 6.17045 96.5287 6.17045C96.2086 6.17045 95.9577 6.24053 95.7759 6.38068C95.594 6.52083 95.4662 6.67045 95.3923 6.82955L94.756 6.60227C94.8696 6.33712 95.0211 6.13068 95.2105 5.98295C95.4018 5.83333 95.6101 5.72917 95.8355 5.67045C96.0628 5.60985 96.2863 5.57955 96.506 5.57955C96.6461 5.57955 96.8071 5.59659 96.9889 5.63068C97.1726 5.66288 97.3497 5.73011 97.5202 5.83239C97.6925 5.93466 97.8355 6.08902 97.9492 6.29545C98.0628 6.50189 98.1196 6.77841 98.1196 7.125L98.1196 10L97.4492 10L97.4492 9.40909L97.4151 9.40909C97.3696 9.50379 97.2938 9.60511 97.1878 9.71307C97.0817 9.82102 96.9406 9.91288 96.7645 9.98864C96.5884 10.0644 96.3734 10.1023 96.1196 10.1023ZM96.2219 9.5C96.487 9.5 96.7105 9.44792 96.8923 9.34375C97.076 9.23958 97.2143 9.10511 97.3071 8.94034C97.4018 8.77557 97.4492 8.60227 97.4492 8.42045L97.4492 7.80682C97.4207 7.84091 97.3582 7.87216 97.2617 7.90057C97.167 7.92708 97.0571 7.95076 96.9321 7.97159C96.809 7.99053 96.6887 8.00758 96.5713 8.02273C96.4558 8.03598 96.362 8.04735 96.2901 8.05682C96.1158 8.07955 95.9529 8.11648 95.8014 8.16761C95.6518 8.21686 95.5306 8.29167 95.4378 8.39205C95.3469 8.49053 95.3014 8.625 95.3014 8.79545C95.3014 9.02841 95.3876 9.20455 95.5599 9.32386C95.7342 9.44129 95.9548 9.5 96.2219 9.5ZM99.6138 4.18182L99.6138 10L98.9433 10L98.9433 4.18182L99.6138 4.18182ZM101.112 4.18182L101.112 10L100.442 10L100.442 4.18182L101.112 4.18182ZM103.79 10L103.79 5.63636L104.438 5.63636L104.438 6.29545L104.483 6.29545C104.563 6.07955 104.707 5.90436 104.915 5.76989C105.124 5.63542 105.358 5.56818 105.62 5.56818C105.669 5.56818 105.731 5.56913 105.804 5.57102C105.878 5.57292 105.934 5.57576 105.972 5.57955L105.972 6.26136C105.949 6.25568 105.897 6.24716 105.816 6.2358C105.736 6.22254 105.652 6.21591 105.563 6.21591C105.351 6.21591 105.161 6.26042 104.995 6.34943C104.83 6.43655 104.699 6.55776 104.603 6.71307C104.508 6.86648 104.461 7.04167 104.461 7.23864L104.461 10L103.79 10ZM106.367 10L106.367 5.63636L107.037 5.63636L107.037 10L106.367 10ZM106.708 4.90909C106.577 4.90909 106.464 4.86458 106.37 4.77557C106.277 4.68655 106.23 4.57955 106.23 4.45455C106.23 4.32955 106.277 4.22254 106.37 4.13352C106.464 4.04451 106.577 4 106.708 4C106.838 4 106.95 4.04451 107.043 4.13352C107.138 4.22254 107.185 4.32955 107.185 4.45455C107.185 4.57955 107.138 4.68655 107.043 4.77557C106.95 4.86458 106.838 4.90909 106.708 4.90909ZM109.627 11.7273C109.303 11.7273 109.024 11.6856 108.791 11.6023C108.558 11.5208 108.364 11.4129 108.209 11.2784C108.056 11.1458 107.933 11.0038 107.842 10.8523L108.377 10.4773C108.437 10.5568 108.514 10.6477 108.607 10.75C108.699 10.8542 108.826 10.9441 108.987 11.0199C109.15 11.0975 109.363 11.1364 109.627 11.1364C109.979 11.1364 110.27 11.0511 110.499 10.8807C110.728 10.7102 110.842 10.4432 110.842 10.0795L110.842 9.19318L110.786 9.19318C110.736 9.27273 110.666 9.37121 110.575 9.48864C110.486 9.60417 110.358 9.70739 110.189 9.7983C110.022 9.88731 109.797 9.93182 109.513 9.93182C109.161 9.93182 108.844 9.84848 108.564 9.68182C108.286 9.51515 108.065 9.27273 107.902 8.95455C107.741 8.63636 107.661 8.25 107.661 7.79545C107.661 7.34848 107.739 6.95928 107.896 6.62784C108.054 6.29451 108.272 6.03693 108.553 5.85511C108.833 5.6714 109.157 5.57955 109.524 5.57955C109.808 5.57955 110.034 5.62689 110.2 5.72159C110.369 5.81439 110.498 5.92045 110.587 6.03977C110.678 6.1572 110.748 6.25379 110.797 6.32955L110.865 6.32955L110.865 5.63636L111.513 5.63636L111.513 10.125C111.513 10.5 111.428 10.8049 111.257 11.0398C111.089 11.2765 110.861 11.4498 110.575 11.5597C110.291 11.6714 109.975 11.7273 109.627 11.7273ZM109.604 9.32955C109.873 9.32955 110.1 9.26799 110.286 9.14489C110.471 9.02178 110.612 8.8447 110.709 8.61364C110.806 8.38258 110.854 8.10606 110.854 7.78409C110.854 7.4697 110.806 7.19223 110.712 6.9517C110.617 6.71117 110.477 6.52273 110.291 6.38636C110.106 6.25 109.877 6.18182 109.604 6.18182C109.32 6.18182 109.083 6.25379 108.894 6.39773C108.706 6.54167 108.565 6.73485 108.47 6.97727C108.378 7.2197 108.331 7.48864 108.331 7.78409C108.331 8.08712 108.378 8.35511 108.473 8.58807C108.57 8.81913 108.712 9.00095 108.899 9.13352C109.089 9.2642 109.324 9.32955 109.604 9.32955ZM113.011 7.375L113.011 10L112.34 10L112.34 4.18182L113.011 4.18182L113.011 6.31818L113.067 6.31818C113.17 6.0928 113.323 5.91383 113.528 5.78125C113.734 5.64678 114.009 5.57955 114.352 5.57955C114.649 5.57955 114.909 5.6392 115.133 5.75852C115.356 5.87595 115.53 6.05682 115.653 6.30114C115.778 6.54356 115.84 6.85227 115.84 7.22727L115.84 10L115.17 10L115.17 7.27273C115.17 6.92614 115.08 6.65814 114.9 6.46875C114.722 6.27746 114.475 6.18182 114.158 6.18182C113.939 6.18182 113.742 6.22822 113.567 6.32102C113.395 6.41383 113.259 6.54924 113.158 6.72727C113.06 6.9053 113.011 7.12121 113.011 7.375ZM118.564 5.63636L118.564 6.20455L116.303 6.20455L116.303 5.63636L118.564 5.63636ZM116.962 4.59091L117.633 4.59091L117.633 8.75C117.633 8.93939 117.66 9.08144 117.715 9.17614C117.772 9.26894 117.844 9.33144 117.931 9.36364C118.02 9.39394 118.114 9.40909 118.212 9.40909C118.286 9.40909 118.347 9.4053 118.394 9.39773C118.441 9.38826 118.479 9.38068 118.508 9.375L118.644 9.97727C118.599 9.99432 118.535 10.0114 118.454 10.0284C118.372 10.0473 118.269 10.0568 118.144 10.0568C117.955 10.0568 117.769 10.0161 117.587 9.93466C117.407 9.85322 117.258 9.72917 117.138 9.5625C117.021 9.39583 116.962 9.18561 116.962 8.93182L116.962 4.59091ZM122.186 6.61364L121.584 6.78409C121.546 6.68371 121.49 6.58617 121.416 6.49148C121.344 6.39489 121.245 6.31534 121.12 6.25284C120.995 6.19034 120.835 6.15909 120.64 6.15909C120.373 6.15909 120.151 6.22064 119.973 6.34375C119.797 6.46496 119.709 6.61932 119.709 6.80682C119.709 6.97348 119.769 7.10511 119.89 7.2017C120.012 7.2983 120.201 7.37879 120.459 7.44318L121.106 7.60227C121.496 7.69697 121.787 7.84186 121.978 8.03693C122.17 8.23011 122.265 8.47917 122.265 8.78409C122.265 9.03409 122.193 9.25758 122.049 9.45455C121.907 9.65152 121.709 9.80682 121.453 9.92045C121.197 10.0341 120.9 10.0909 120.561 10.0909C120.116 10.0909 119.747 9.99432 119.456 9.80114C119.164 9.60795 118.979 9.32576 118.902 8.95455L119.538 8.79545C119.599 9.0303 119.713 9.20644 119.882 9.32386C120.052 9.44129 120.275 9.5 120.549 9.5C120.862 9.5 121.11 9.43371 121.294 9.30114C121.479 9.16667 121.572 9.00568 121.572 8.81818C121.572 8.66667 121.519 8.53977 121.413 8.4375C121.307 8.33333 121.144 8.25568 120.924 8.20455L120.197 8.03409C119.798 7.93939 119.504 7.79261 119.316 7.59375C119.131 7.39299 119.038 7.14205 119.038 6.84091C119.038 6.5947 119.107 6.37689 119.245 6.1875C119.386 5.99811 119.576 5.84943 119.816 5.74148C120.059 5.63352 120.334 5.57955 120.64 5.57955C121.072 5.57955 121.411 5.67424 121.657 5.86364C121.905 6.05303 122.082 6.30303 122.186 6.61364ZM124.725 10L124.725 5.63636L125.372 5.63636L125.372 6.29545L125.418 6.29545C125.497 6.07955 125.641 5.90436 125.85 5.76989C126.058 5.63542 126.293 5.56818 126.554 5.56818C126.603 5.56818 126.665 5.56913 126.739 5.57102C126.813 5.57292 126.869 5.57576 126.906 5.57955L126.906 6.26136C126.884 6.25568 126.832 6.24716 126.75 6.2358C126.671 6.22254 126.586 6.21591 126.497 6.21591C126.285 6.21591 126.096 6.26042 125.929 6.34943C125.764 6.43655 125.634 6.55776 125.537 6.71307C125.442 6.86648 125.395 7.04167 125.395 7.23864L125.395 10L124.725 10ZM128.998 10.0909C128.577 10.0909 128.215 9.99811 127.91 9.8125C127.607 9.625 127.373 9.36364 127.208 9.02841C127.045 8.69129 126.964 8.29924 126.964 7.85227C126.964 7.4053 127.045 7.01136 127.208 6.67045C127.373 6.32765 127.602 6.06061 127.896 5.86932C128.191 5.67614 128.536 5.57955 128.93 5.57955C129.157 5.57955 129.381 5.61742 129.603 5.69318C129.825 5.76894 130.026 5.89205 130.208 6.0625C130.39 6.23106 130.535 6.45455 130.643 6.73295C130.751 7.01136 130.805 7.35417 130.805 7.76136L130.805 8.04545L127.441 8.04545L127.441 7.46591L130.123 7.46591C130.123 7.2197 130.074 7 129.975 6.80682C129.879 6.61364 129.74 6.46117 129.56 6.34943C129.382 6.23769 129.172 6.18182 128.93 6.18182C128.663 6.18182 128.432 6.24811 128.237 6.38068C128.043 6.51136 127.895 6.68182 127.79 6.89205C127.686 7.10227 127.634 7.32765 127.634 7.56818L127.634 7.95455C127.634 8.28409 127.691 8.56345 127.805 8.79261C127.92 9.01989 128.08 9.19318 128.285 9.3125C128.489 9.42992 128.727 9.48864 128.998 9.48864C129.174 9.48864 129.333 9.46402 129.475 9.41477C129.619 9.36364 129.743 9.28788 129.847 9.1875C129.951 9.08523 130.032 8.95833 130.089 8.80682L130.737 8.98864C130.668 9.20833 130.554 9.40152 130.393 9.56818C130.232 9.73295 130.033 9.86174 129.796 9.95455C129.559 10.0455 129.293 10.0909 128.998 10.0909ZM134.515 6.61364L133.913 6.78409C133.875 6.68371 133.819 6.58617 133.746 6.49148C133.674 6.39489 133.575 6.31534 133.45 6.25284C133.325 6.19034 133.165 6.15909 132.97 6.15909C132.703 6.15909 132.48 6.22064 132.302 6.34375C132.126 6.46496 132.038 6.61932 132.038 6.80682C132.038 6.97348 132.099 7.10511 132.22 7.2017C132.341 7.2983 132.531 7.37879 132.788 7.44318L133.436 7.60227C133.826 7.69697 134.117 7.84186 134.308 8.03693C134.499 8.23011 134.595 8.47917 134.595 8.78409C134.595 9.03409 134.523 9.25758 134.379 9.45455C134.237 9.65152 134.038 9.80682 133.783 9.92045C133.527 10.0341 133.23 10.0909 132.89 10.0909C132.445 10.0909 132.077 9.99432 131.785 9.80114C131.494 9.60795 131.309 9.32576 131.231 8.95455L131.868 8.79545C131.928 9.0303 132.043 9.20644 132.212 9.32386C132.382 9.44129 132.605 9.5 132.879 9.5C133.192 9.5 133.44 9.43371 133.623 9.30114C133.809 9.16667 133.902 9.00568 133.902 8.81818C133.902 8.66667 133.849 8.53977 133.743 8.4375C133.637 8.33333 133.474 8.25568 133.254 8.20455L132.527 8.03409C132.127 7.93939 131.834 7.79261 131.646 7.59375C131.461 7.39299 131.368 7.14205 131.368 6.84091C131.368 6.5947 131.437 6.37689 131.575 6.1875C131.715 5.99811 131.906 5.84943 132.146 5.74148C132.389 5.63352 132.663 5.57955 132.97 5.57955C133.402 5.57955 133.741 5.67424 133.987 5.86364C134.235 6.05303 134.411 6.30303 134.515 6.61364ZM137.034 10.0909C136.613 10.0909 136.251 9.99811 135.946 9.8125C135.643 9.625 135.409 9.36364 135.244 9.02841C135.081 8.69129 135 8.29924 135 7.85227C135 7.4053 135.081 7.01136 135.244 6.67045C135.409 6.32765 135.638 6.06061 135.932 5.86932C136.227 5.67614 136.572 5.57955 136.966 5.57955C137.193 5.57955 137.417 5.61742 137.639 5.69318C137.861 5.76894 138.062 5.89205 138.244 6.0625C138.426 6.23106 138.571 6.45455 138.679 6.73295C138.787 7.01136 138.841 7.35417 138.841 7.76136L138.841 8.04545L135.477 8.04545L135.477 7.46591L138.159 7.46591C138.159 7.2197 138.11 7 138.011 6.80682C137.914 6.61364 137.776 6.46117 137.596 6.34943C137.418 6.23769 137.208 6.18182 136.966 6.18182C136.699 6.18182 136.468 6.24811 136.272 6.38068C136.079 6.51136 135.931 6.68182 135.826 6.89205C135.722 7.10227 135.67 7.32765 135.67 7.56818L135.67 7.95455C135.67 8.28409 135.727 8.56345 135.841 8.79261C135.956 9.01989 136.116 9.19318 136.321 9.3125C136.525 9.42992 136.763 9.48864 137.034 9.48864C137.21 9.48864 137.369 9.46402 137.511 9.41477C137.655 9.36364 137.779 9.28788 137.883 9.1875C137.987 9.08523 138.068 8.95833 138.125 8.80682L138.772 8.98864C138.704 9.20833 138.59 9.40152 138.429 9.56818C138.268 9.73295 138.069 9.86174 137.832 9.95455C137.595 10.0455 137.329 10.0909 137.034 10.0909ZM139.461 10L139.461 5.63636L140.108 5.63636L140.108 6.29545L140.154 6.29545C140.233 6.07955 140.377 5.90436 140.586 5.76989C140.794 5.63542 141.029 5.56818 141.29 5.56818C141.339 5.56818 141.401 5.56913 141.475 5.57102C141.549 5.57292 141.604 5.57576 141.642 5.57955L141.642 6.26136C141.62 6.25568 141.568 6.24716 141.486 6.2358C141.407 6.22254 141.322 6.21591 141.233 6.21591C141.021 6.21591 140.832 6.26042 140.665 6.34943C140.5 6.43655 140.37 6.55776 140.273 6.71307C140.178 6.86648 140.131 7.04167 140.131 7.23864L140.131 10L139.461 10ZM145.738 5.63636L144.124 10L143.443 10L141.829 5.63636L142.556 5.63636L143.761 9.11364L143.806 9.11364L145.011 5.63636L145.738 5.63636ZM147.896 10.0909C147.476 10.0909 147.113 9.99811 146.808 9.8125C146.505 9.625 146.271 9.36364 146.107 9.02841C145.944 8.69129 145.862 8.29924 145.862 7.85227C145.862 7.4053 145.944 7.01136 146.107 6.67045C146.271 6.32765 146.5 6.06061 146.794 5.86932C147.089 5.67614 147.434 5.57955 147.828 5.57955C148.055 5.57955 148.28 5.61742 148.501 5.69318C148.723 5.76894 148.925 5.89205 149.107 6.0625C149.288 6.23106 149.433 6.45455 149.541 6.73295C149.649 7.01136 149.703 7.35417 149.703 7.76136L149.703 8.04545L146.339 8.04545L146.339 7.46591L149.021 7.46591C149.021 7.2197 148.972 7 148.874 6.80682C148.777 6.61364 148.639 6.46117 148.459 6.34943C148.281 6.23769 148.071 6.18182 147.828 6.18182C147.561 6.18182 147.33 6.24811 147.135 6.38068C146.942 6.51136 146.793 6.68182 146.689 6.89205C146.585 7.10227 146.533 7.32765 146.533 7.56818L146.533 7.95455C146.533 8.28409 146.589 8.56345 146.703 8.79261C146.819 9.01989 146.979 9.19318 147.183 9.3125C147.388 9.42992 147.625 9.48864 147.896 9.48864C148.072 9.48864 148.232 9.46402 148.374 9.41477C148.518 9.36364 148.642 9.28788 148.746 9.1875C148.85 9.08523 148.93 8.95833 148.987 8.80682L149.635 8.98864C149.567 9.20833 149.452 9.40152 149.291 9.56818C149.13 9.73295 148.931 9.86174 148.695 9.95455C148.458 10.0455 148.192 10.0909 147.896 10.0909ZM151.971 10.0909C151.607 10.0909 151.286 9.99905 151.008 9.81534C150.729 9.62973 150.511 9.36837 150.354 9.03125C150.197 8.69223 150.118 8.29167 150.118 7.82955C150.118 7.37121 150.197 6.97348 150.354 6.63636C150.511 6.29924 150.73 6.03883 151.011 5.85511C151.291 5.6714 151.615 5.57955 151.982 5.57955C152.266 5.57955 152.491 5.62689 152.655 5.72159C152.822 5.81439 152.949 5.92045 153.036 6.03977C153.125 6.1572 153.194 6.25379 153.243 6.32955L153.3 6.32955L153.3 4.18182L153.971 4.18182L153.971 10L153.323 10L153.323 9.32955L153.243 9.32955C153.194 9.40909 153.124 9.50947 153.033 9.63068C152.942 9.75 152.813 9.85701 152.644 9.9517C152.475 10.0445 152.251 10.0909 151.971 10.0909ZM152.062 9.48864C152.331 9.48864 152.558 9.41856 152.743 9.27841C152.929 9.13636 153.07 8.94034 153.167 8.69034C153.263 8.43845 153.312 8.14773 153.312 7.81818C153.312 7.49242 153.264 7.20739 153.17 6.96307C153.075 6.71686 152.935 6.52557 152.749 6.3892C152.564 6.25095 152.334 6.18182 152.062 6.18182C151.778 6.18182 151.541 6.25473 151.351 6.40057C151.164 6.54451 151.023 6.74053 150.928 6.98864C150.835 7.23485 150.789 7.51136 150.789 7.81818C150.789 8.12879 150.836 8.41098 150.931 8.66477C151.028 8.91667 151.17 9.11742 151.357 9.26705C151.547 9.41477 151.781 9.48864 152.062 9.48864ZM155.38 10.0455C155.24 10.0455 155.12 9.99527 155.02 9.89489C154.919 9.79451 154.869 9.67424 154.869 9.53409C154.869 9.39394 154.919 9.27367 155.02 9.1733C155.12 9.07292 155.24 9.02273 155.38 9.02273C155.521 9.02273 155.641 9.07292 155.741 9.1733C155.842 9.27367 155.892 9.39394 155.892 9.53409C155.892 9.62689 155.868 9.71212 155.821 9.78977C155.775 9.86742 155.714 9.92992 155.636 9.97727C155.56 10.0227 155.475 10.0455 155.38 10.0455Z" fill="white"/>
<path d="M487.75 12.1193C487.108 12.1193 486.561 11.9446 486.109 11.5952C485.658 11.2429 485.313 10.733 485.074 10.0653C484.835 9.39489 484.716 8.58523 484.716 7.63636C484.716 6.69318 484.835 5.88778 485.074 5.22017C485.315 4.54972 485.662 4.03835 486.114 3.68608C486.568 3.33097 487.114 3.15341 487.75 3.15341C488.386 3.15341 488.93 3.33097 489.382 3.68608C489.837 4.03835 490.183 4.54972 490.422 5.22017C490.663 5.88778 490.784 6.69318 490.784 7.63636C490.784 8.58523 490.665 9.39489 490.426 10.0653C490.188 10.733 489.842 11.2429 489.391 11.5952C488.939 11.9446 488.392 12.1193 487.75 12.1193ZM487.75 11.1818C488.386 11.1818 488.881 10.875 489.233 10.2614C489.585 9.64773 489.761 8.77273 489.761 7.63636C489.761 6.88068 489.68 6.23722 489.518 5.70597C489.359 5.17472 489.129 4.76989 488.828 4.49148C488.53 4.21307 488.17 4.07386 487.75 4.07386C487.119 4.07386 486.626 4.38494 486.271 5.0071C485.916 5.62642 485.739 6.50284 485.739 7.63636C485.739 8.39205 485.818 9.03409 485.977 9.5625C486.136 10.0909 486.365 10.4929 486.663 10.7685C486.964 11.044 487.327 11.1818 487.75 11.1818ZM495.131 12.1193C494.631 12.1193 494.18 12.0199 493.78 11.821C493.379 11.6222 493.058 11.3494 492.817 11.0028C492.575 10.6562 492.443 10.2614 492.42 9.81818H493.443C493.483 10.2131 493.662 10.5398 493.98 10.7983C494.301 11.054 494.685 11.1818 495.131 11.1818C495.489 11.1818 495.807 11.098 496.085 10.9304C496.366 10.7628 496.587 10.5327 496.746 10.2401C496.908 9.9446 496.989 9.6108 496.989 9.23864C496.989 8.85795 496.905 8.51847 496.737 8.22017C496.572 7.91903 496.345 7.68182 496.055 7.50852C495.766 7.33523 495.435 7.24716 495.062 7.24432C494.795 7.24148 494.521 7.28267 494.24 7.3679C493.959 7.45028 493.727 7.55682 493.545 7.6875L492.557 7.56818L493.085 3.27273H497.619V4.21023H493.972L493.665 6.78409H493.716C493.895 6.64205 494.119 6.52415 494.389 6.4304C494.659 6.33665 494.94 6.28977 495.233 6.28977C495.767 6.28977 496.243 6.41761 496.661 6.6733C497.081 6.92614 497.411 7.27273 497.649 7.71307C497.891 8.15341 498.011 8.65625 498.011 9.22159C498.011 9.77841 497.886 10.2756 497.636 10.7131C497.389 11.1477 497.048 11.4915 496.614 11.7443C496.179 11.9943 495.685 12.1193 495.131 12.1193Z" fill="white"/>
</svg>
