<svg width="177" height="38" viewBox="0 0 177 38" fill="none" xmlns="http://www.w3.org/2000/svg">
<rect x="12.3906" y="0.487965" width="26.2188" height="25.1729" rx="12.5864" stroke="white" stroke-width="0.97593"/>
<path d="M19.8362 14.7743V10.2418C19.8362 9.17329 19.8362 8.63959 20.1682 8.30759C20.5002 7.97559 21.0339 7.97559 22.1024 7.97559H28.9011C29.9696 7.97559 30.5033 7.97559 30.8353 8.30759C31.1673 8.63959 31.1673 9.17329 31.1673 10.2418V14.7743C31.1673 15.8428 31.1673 16.3765 30.8353 16.7085C30.5033 17.0405 29.9696 17.0405 28.9011 17.0405H22.1024C21.0339 17.0405 20.5002 17.0405 20.1682 16.7085C19.8362 16.3765 19.8362 15.8428 19.8362 14.7743Z" stroke="white" stroke-width="0.849836" stroke-linecap="round"/>
<path d="M29.4683 9.68088V9.67578M29.4683 11.3777V11.3732M29.4683 13.0751V13.07" stroke="white" stroke-width="0.849836" stroke-linecap="round" stroke-linejoin="round"/>
<path d="M21.5358 14.2082V10.8089C21.5358 10.2746 21.5358 10.0078 21.7018 9.84178C21.8678 9.67578 22.1346 9.67578 22.6689 9.67578H26.6348C27.169 9.67578 27.4359 9.67578 27.6019 9.84178C27.7679 10.0078 27.7679 10.2746 27.7679 10.8089V14.2082C27.7679 14.7425 27.7679 15.0094 27.6019 15.1754C27.4359 15.3414 27.169 15.3414 26.6348 15.3414H22.6689C22.1346 15.3414 21.8678 15.3414 21.7018 15.1754C21.5358 15.0094 21.5358 14.7425 21.5358 14.2082Z" stroke="white" stroke-width="0.849836" stroke-linejoin="round"/>
<path d="M21.5358 17.041V18.1741M29.4676 17.041V18.1741" stroke="white" stroke-width="0.849836" stroke-linecap="round"/>
<path d="M5.35542 31.001L4.60517 35.2402H3.90982L4.42218 32.3368L2.61671 35.2402H2.13485L1.348 32.3368L0.83564 35.2402H0.14029L0.890536 31.001H1.64078L2.54352 34.3253L4.61127 31.001H5.35542ZM6.54383 31.4341C6.43404 31.4341 6.34458 31.3995 6.27545 31.3304C6.20632 31.2613 6.17176 31.1739 6.17176 31.0681C6.17176 30.9258 6.22462 30.8038 6.33035 30.7022C6.44014 30.5964 6.56416 30.5436 6.70242 30.5436C6.81221 30.5436 6.89964 30.5781 6.9647 30.6473C7.03383 30.7164 7.06839 30.8038 7.06839 30.9095C7.06839 31.0519 7.01553 31.1759 6.9098 31.2816C6.80408 31.3833 6.68209 31.4341 6.54383 31.4341ZM6.80611 31.8794L6.21445 35.2402H5.5191L6.11076 31.8794H6.80611ZM7.19448 33.5568C7.25548 33.2111 7.37747 32.9082 7.56046 32.6479C7.74751 32.3836 7.97726 32.1803 8.24971 32.038C8.52622 31.8956 8.8251 31.8245 9.14634 31.8245C9.55298 31.8245 9.87219 31.9221 10.104 32.1173C10.3358 32.3084 10.4679 32.5829 10.5004 32.9407H9.7502C9.71767 32.774 9.64244 32.6439 9.52451 32.5503C9.40659 32.4568 9.24597 32.41 9.04265 32.41C8.758 32.41 8.51402 32.5117 8.3107 32.715C8.10738 32.9143 7.97319 33.1948 7.90813 33.5568C7.8878 33.6869 7.87763 33.7926 7.87763 33.8739C7.87763 34.1423 7.94473 34.3497 8.07892 34.4961C8.21311 34.6384 8.40016 34.7096 8.64008 34.7096C9.04265 34.7096 9.33949 34.5327 9.53061 34.1789H10.2809C10.1223 34.5205 9.89049 34.7929 9.58551 34.9963C9.2846 35.1955 8.93489 35.2951 8.53639 35.2951C8.11348 35.2951 7.77801 35.1752 7.52996 34.9353C7.28191 34.6913 7.15788 34.3619 7.15788 33.9471C7.15788 33.8211 7.17008 33.6909 7.19448 33.5568ZM11.9681 32.471C12.1063 32.2677 12.269 32.1091 12.456 31.9953C12.6471 31.8814 12.8586 31.8245 13.0904 31.8245L12.9623 32.5442H12.7854C12.517 32.5442 12.3015 32.6113 12.1388 32.7455C11.9762 32.8797 11.8623 33.1115 11.7973 33.4409L11.4801 35.2402H10.7847L11.3764 31.8794H12.0717L11.9681 32.471ZM14.5957 35.2951C14.311 35.2951 14.061 35.2362 13.8454 35.1182C13.6299 35.0003 13.4612 34.8336 13.3392 34.6181C13.2212 34.4026 13.1623 34.1565 13.1623 33.88C13.1623 33.5019 13.2497 33.1562 13.4246 32.8431C13.6035 32.53 13.8475 32.2819 14.1565 32.099C14.4696 31.916 14.8173 31.8245 15.1995 31.8245C15.4842 31.8245 15.7363 31.8855 15.9559 32.0075C16.1755 32.1254 16.3463 32.2921 16.4682 32.5076C16.5943 32.7191 16.6573 32.9651 16.6573 33.2457C16.6573 33.6239 16.5658 33.9695 16.3829 34.2826C16.1999 34.5957 15.9518 34.8438 15.6387 35.0267C15.3256 35.2057 14.9779 35.2951 14.5957 35.2951ZM14.6811 34.7096C14.9129 34.7096 15.1243 34.6445 15.3154 34.5144C15.5106 34.3802 15.6631 34.2053 15.7729 33.9898C15.8827 33.7702 15.9376 33.5364 15.9376 33.2884C15.9376 33.0078 15.8583 32.7923 15.6997 32.6418C15.5411 32.4873 15.3419 32.41 15.1019 32.41C14.8661 32.41 14.6546 32.4771 14.4676 32.6113C14.2846 32.7414 14.1402 32.9183 14.0345 33.142C13.9329 33.3616 13.882 33.5974 13.882 33.8495C13.882 34.122 13.9552 34.3334 14.1016 34.4839C14.2521 34.6343 14.4452 34.7096 14.6811 34.7096ZM22.1207 31.8794L20.486 35.2402H19.7541L19.5223 32.7577L18.3999 35.2402H17.668L17.2105 31.8794H17.9181L18.1499 34.5815L19.3332 31.8794H20.059L20.2725 34.5693L21.4375 31.8794H22.1207ZM22.1158 33.5446C22.1768 33.207 22.2988 32.9082 22.4817 32.6479C22.6688 32.3877 22.8965 32.1864 23.1649 32.0441C23.4333 31.8977 23.7139 31.8245 24.0066 31.8245C24.271 31.8245 24.4926 31.8773 24.6715 31.9831C24.8504 32.0847 24.9846 32.2128 25.0741 32.3673L25.1595 31.8794H25.8609L25.2692 35.2402H24.5678L24.6593 34.7401C24.5129 34.8987 24.3279 35.0308 24.1042 35.1365C23.8846 35.2423 23.6447 35.2951 23.3845 35.2951C23.1324 35.2951 22.9067 35.2382 22.7074 35.1243C22.5122 35.0105 22.3577 34.8499 22.2439 34.6425C22.1341 34.431 22.0792 34.1891 22.0792 33.9166C22.0792 33.7946 22.0914 33.6706 22.1158 33.5446ZM24.8667 33.5568C24.8829 33.4795 24.8911 33.3961 24.8911 33.3067C24.8911 33.0342 24.8097 32.8207 24.6471 32.6662C24.4885 32.5076 24.2893 32.4283 24.0493 32.4283C23.8704 32.4283 23.6956 32.4731 23.5248 32.5625C23.354 32.6479 23.2056 32.776 23.0795 32.9468C22.9534 33.1135 22.8701 33.3128 22.8294 33.5446C22.8132 33.6218 22.805 33.7052 22.805 33.7946C22.805 34.0712 22.8843 34.2907 23.0429 34.4534C23.2056 34.612 23.4068 34.6913 23.6468 34.6913C23.8257 34.6913 24.0005 34.6465 24.1713 34.5571C24.3421 34.4676 24.4905 34.3375 24.6166 34.1667C24.7427 33.9919 24.826 33.7885 24.8667 33.5568ZM27.5916 34.6181L29.025 31.8794H29.7752L27.9026 35.2402H27.0609L26.3778 31.8794H27.1219L27.5916 34.6181ZM31.7464 31.8245C32.1652 31.8245 32.4987 31.9424 32.7467 32.1783C32.9989 32.4141 33.1249 32.7313 33.1249 33.1298C33.1249 33.2233 33.1147 33.3351 33.0944 33.4653C33.0782 33.5547 33.0497 33.6645 33.009 33.7946H30.4411C30.437 33.8231 30.435 33.8658 30.435 33.9227C30.435 34.1626 30.5082 34.3538 30.6546 34.4961C30.805 34.6384 31.0002 34.7096 31.2401 34.7096C31.6183 34.7096 31.9091 34.553 32.1124 34.2399H32.8626C32.7081 34.549 32.4804 34.8031 32.1795 35.0024C31.8786 35.1975 31.5309 35.2951 31.1365 35.2951C30.8559 35.2951 30.6099 35.2402 30.3984 35.1304C30.187 35.0207 30.0223 34.8641 29.9043 34.6608C29.7864 34.4534 29.7275 34.2114 29.7275 33.9349C29.7275 33.817 29.7397 33.6909 29.7641 33.5568C29.8251 33.2111 29.9491 32.9082 30.1361 32.6479C30.3232 32.3836 30.555 32.1803 30.8315 32.038C31.1121 31.8956 31.417 31.8245 31.7464 31.8245ZM32.3991 33.2945C32.4072 33.2213 32.4113 33.1684 32.4113 33.1359C32.4113 32.9122 32.336 32.7353 32.1856 32.6052C32.0392 32.4751 31.8481 32.41 31.6122 32.41C31.3642 32.41 31.1405 32.4893 30.9413 32.6479C30.742 32.8065 30.6058 33.022 30.5326 33.2945H32.3991ZM36.4869 32.7394L36.3832 33.325H33.8763L33.98 32.7394H36.4869ZM38.2677 35.2951C38.036 35.2951 37.8245 35.2565 37.6334 35.1792C37.4423 35.0979 37.2918 34.9861 37.182 34.8438C37.0722 34.6974 37.0173 34.5307 37.0173 34.3436C37.0173 34.3111 37.0214 34.2663 37.0295 34.2094H37.7066C37.6903 34.3639 37.7371 34.492 37.8469 34.5937C37.9567 34.6953 38.1112 34.7462 38.3104 34.7462C38.5056 34.7462 38.6663 34.7116 38.7923 34.6425C38.9184 34.5733 38.9814 34.4717 38.9814 34.3375C38.9814 34.2236 38.9285 34.1321 38.8228 34.063C38.7211 33.9939 38.5565 33.9166 38.3287 33.8312C38.1132 33.7458 37.9384 33.6665 37.8042 33.5934C37.67 33.5202 37.5541 33.4205 37.4565 33.2945C37.3589 33.1643 37.3101 33.0037 37.3101 32.8126C37.3101 32.6174 37.365 32.4466 37.4748 32.3002C37.5887 32.1498 37.7452 32.0339 37.9445 31.9526C38.1478 31.8672 38.3796 31.8245 38.6398 31.8245C38.8757 31.8245 39.0851 31.8651 39.2681 31.9465C39.4551 32.0237 39.5995 32.1356 39.7011 32.2819C39.8069 32.4243 39.8597 32.589 39.8597 32.776C39.8597 32.8329 39.8577 32.8756 39.8536 32.9041H39.1949C39.2111 32.7455 39.1644 32.6174 39.0546 32.5198C38.9489 32.4222 38.7964 32.3734 38.5971 32.3734C38.4223 32.3734 38.2799 32.41 38.1702 32.4832C38.0644 32.5564 38.0116 32.6561 38.0116 32.7821C38.0116 32.9082 38.0665 33.0098 38.1763 33.0871C38.286 33.1603 38.4548 33.2416 38.6825 33.3311C38.8899 33.4124 39.0587 33.4897 39.1888 33.5629C39.3189 33.636 39.4307 33.7336 39.5243 33.8556C39.6178 33.9776 39.6645 34.1301 39.6645 34.3131C39.6645 34.5124 39.6036 34.6872 39.4816 34.8377C39.3636 34.9841 39.1989 35.0979 38.9875 35.1792C38.776 35.2565 38.5361 35.2951 38.2677 35.2951ZM40.3549 33.5446C40.4159 33.207 40.5379 32.9082 40.7209 32.6479C40.9079 32.3877 41.1356 32.1864 41.404 32.0441C41.6724 31.8977 41.953 31.8245 42.2458 31.8245C42.5101 31.8245 42.7317 31.8773 42.9106 31.9831C43.0895 32.0847 43.2237 32.2128 43.3132 32.3673L43.3986 31.8794H44.1L43.5084 35.2402H42.8069L42.8984 34.7401C42.752 34.8987 42.567 35.0308 42.3434 35.1365C42.1238 35.2423 41.8839 35.2951 41.6236 35.2951C41.3715 35.2951 41.1458 35.2382 40.9466 35.1243C40.7514 35.0105 40.5968 34.8499 40.483 34.6425C40.3732 34.431 40.3183 34.1891 40.3183 33.9166C40.3183 33.7946 40.3305 33.6706 40.3549 33.5446ZM43.1058 33.5568C43.1221 33.4795 43.1302 33.3961 43.1302 33.3067C43.1302 33.0342 43.0489 32.8207 42.8862 32.6662C42.7276 32.5076 42.5284 32.4283 42.2885 32.4283C42.1095 32.4283 41.9347 32.4731 41.7639 32.5625C41.5931 32.6479 41.4447 32.776 41.3186 32.9468C41.1926 33.1135 41.1092 33.3128 41.0685 33.5446C41.0523 33.6218 41.0441 33.7052 41.0441 33.7946C41.0441 34.0712 41.1234 34.2907 41.282 34.4534C41.4447 34.612 41.646 34.6913 41.8859 34.6913C42.0648 34.6913 42.2397 34.6465 42.4104 34.5571C42.5812 34.4676 42.7297 34.3375 42.8557 34.1667C42.9818 33.9919 43.0651 33.7885 43.1058 33.5568ZM46.5138 31.1108C46.3024 31.1108 46.1458 31.1515 46.0442 31.2328C45.9425 31.3141 45.8754 31.4504 45.8429 31.6415L45.8002 31.8794H46.4223L46.3247 32.4466H45.7026L45.2085 35.2402H44.5071L45.0011 32.4466H44.6047L44.7023 31.8794H45.0987L45.1414 31.6415C45.2106 31.2552 45.3631 30.9746 45.5989 30.7998C45.8348 30.6208 46.1723 30.5314 46.6114 30.5314L46.5138 31.1108ZM48.4964 31.8245C48.9152 31.8245 49.2487 31.9424 49.4967 32.1783C49.7488 32.4141 49.8749 32.7313 49.8749 33.1298C49.8749 33.2233 49.8647 33.3351 49.8444 33.4653C49.8281 33.5547 49.7997 33.6645 49.759 33.7946H47.1911C47.187 33.8231 47.185 33.8658 47.185 33.9227C47.185 34.1626 47.2582 34.3538 47.4046 34.4961C47.555 34.6384 47.7502 34.7096 47.9901 34.7096C48.3683 34.7096 48.659 34.553 48.8624 34.2399H49.6126C49.4581 34.549 49.2304 34.8031 48.9295 35.0024C48.6285 35.1975 48.2809 35.2951 47.8864 35.2951C47.6058 35.2951 47.3598 35.2402 47.1484 35.1304C46.9369 35.0207 46.7722 34.8641 46.6543 34.6608C46.5364 34.4534 46.4774 34.2114 46.4774 33.9349C46.4774 33.817 46.4896 33.6909 46.514 33.5568C46.575 33.2111 46.699 32.9082 46.8861 32.6479C47.0732 32.3836 47.3049 32.1803 47.5814 32.038C47.862 31.8956 48.167 31.8245 48.4964 31.8245ZM49.149 33.2945C49.1572 33.2213 49.1612 33.1684 49.1612 33.1359C49.1612 32.9122 49.086 32.7353 48.9356 32.6052C48.7892 32.4751 48.598 32.41 48.3622 32.41C48.1141 32.41 47.8905 32.4893 47.6912 32.6479C47.492 32.8065 47.3558 33.022 47.2826 33.2945H49.149Z" fill="white"/>
<rect x="68.8928" y="0.487965" width="25.1729" height="25.1729" rx="12.5864" stroke="white" stroke-width="0.97593"/>
<g clip-path="url(#clip0_1486_2276)">
<path d="M79.7369 7.40918L81.4801 9.15243M81.4801 9.15243L83.2234 7.40918M81.4801 9.15243V16.9971M75.8146 14.818L77.5578 13.0748M77.5578 13.0748L75.8146 11.3315M77.5578 13.0748H85.4025M83.2234 18.7403L81.4801 16.9971M81.4801 16.9971L79.7369 18.7403M87.1457 11.3315L85.4025 13.0748M85.4025 13.0748L87.1457 14.818M78.4295 10.0241L79.7369 11.3315M79.7369 14.818L78.4295 16.1254M84.5308 10.0241L83.2234 11.3315M83.2234 14.818L84.5308 16.1254" stroke="white" stroke-width="0.728431" stroke-linecap="round" stroke-linejoin="round"/>
</g>
<path d="M65.3644 31.001L65.2669 31.5439H63.4675L63.2418 32.8309H64.6447L64.5471 33.3677H63.1442L62.8148 35.2402H62.1195L62.8697 31.001H65.3644ZM66.4419 32.471C66.5802 32.2677 66.7428 32.1091 66.9299 31.9953C67.121 31.8814 67.3325 31.8245 67.5642 31.8245L67.4362 32.5442H67.2593C66.9909 32.5442 66.7754 32.6113 66.6127 32.7455C66.4501 32.8797 66.3362 33.1115 66.2711 33.4409L65.954 35.2402H65.2586L65.8503 31.8794H66.5456L66.4419 32.471ZM69.649 31.8245C70.0678 31.8245 70.4013 31.9424 70.6493 32.1783C70.9014 32.4141 71.0275 32.7313 71.0275 33.1298C71.0275 33.2233 71.0173 33.3351 70.997 33.4653C70.9807 33.5547 70.9523 33.6645 70.9116 33.7946H68.3437C68.3396 33.8231 68.3376 33.8658 68.3376 33.9227C68.3376 34.1626 68.4108 34.3538 68.5572 34.4961C68.7076 34.6384 68.9028 34.7096 69.1427 34.7096C69.5209 34.7096 69.8117 34.553 70.015 34.2399H70.7652C70.6107 34.549 70.383 34.8031 70.0821 35.0024C69.7812 35.1975 69.4335 35.2951 69.039 35.2951C68.7585 35.2951 68.5125 35.2402 68.301 35.1304C68.0896 35.0207 67.9249 34.8641 67.8069 34.6608C67.689 34.4534 67.6301 34.2114 67.6301 33.9349C67.6301 33.817 67.6422 33.6909 67.6666 33.5568C67.7276 33.2111 67.8517 32.9082 68.0387 32.6479C68.2258 32.3836 68.4576 32.1803 68.7341 32.038C69.0147 31.8956 69.3196 31.8245 69.649 31.8245ZM70.3017 33.2945C70.3098 33.2213 70.3139 33.1684 70.3139 33.1359C70.3139 32.9122 70.2386 32.7353 70.0882 32.6052C69.9418 32.4751 69.7507 32.41 69.5148 32.41C69.2668 32.41 69.0431 32.4893 68.8439 32.6479C68.6446 32.8065 68.5084 33.022 68.4352 33.2945H70.3017ZM73.4136 31.8245C73.8324 31.8245 74.1659 31.9424 74.4139 32.1783C74.666 32.4141 74.7921 32.7313 74.7921 33.1298C74.7921 33.2233 74.7819 33.3351 74.7616 33.4653C74.7453 33.5547 74.7169 33.6645 74.6762 33.7946H72.1083C72.1042 33.8231 72.1022 33.8658 72.1022 33.9227C72.1022 34.1626 72.1754 34.3538 72.3218 34.4961C72.4722 34.6384 72.6674 34.7096 72.9073 34.7096C73.2855 34.7096 73.5762 34.553 73.7796 34.2399H74.5298C74.3753 34.549 74.1476 34.8031 73.8466 35.0024C73.5457 35.1975 73.1981 35.2951 72.8036 35.2951C72.523 35.2951 72.277 35.2402 72.0656 35.1304C71.8541 35.0207 71.6894 34.8641 71.5715 34.6608C71.4536 34.4534 71.3946 34.2114 71.3946 33.9349C71.3946 33.817 71.4068 33.6909 71.4312 33.5568C71.4922 33.2111 71.6162 32.9082 71.8033 32.6479C71.9903 32.3836 72.2221 32.1803 72.4986 32.038C72.7792 31.8956 73.0842 31.8245 73.4136 31.8245ZM74.0662 33.2945C74.0744 33.2213 74.0784 33.1684 74.0784 33.1359C74.0784 32.9122 74.0032 32.7353 73.8527 32.6052C73.7064 32.4751 73.5152 32.41 73.2794 32.41C73.0313 32.41 72.8077 32.4893 72.6084 32.6479C72.4092 32.8065 72.273 33.022 72.1998 33.2945H74.0662ZM75.8484 34.673H77.3733L77.2696 35.2402H74.9396L75.0433 34.673L76.9647 32.4466H75.4337L75.5313 31.8794H77.8613L77.7637 32.4466L75.8484 34.673ZM80.0492 31.8245C80.4681 31.8245 80.8015 31.9424 81.0496 32.1783C81.3017 32.4141 81.4277 32.7313 81.4277 33.1298C81.4277 33.2233 81.4176 33.3351 81.3972 33.4653C81.381 33.5547 81.3525 33.6645 81.3118 33.7946H78.7439C78.7399 33.8231 78.7378 33.8658 78.7378 33.9227C78.7378 34.1626 78.811 34.3538 78.9574 34.4961C79.1079 34.6384 79.3031 34.7096 79.543 34.7096C79.9211 34.7096 80.2119 34.553 80.4152 34.2399H81.1655C81.0109 34.549 80.7832 34.8031 80.4823 35.0024C80.1814 35.1975 79.8337 35.2951 79.4393 35.2951C79.1587 35.2951 78.9127 35.2402 78.7012 35.1304C78.4898 35.0207 78.3251 34.8641 78.2072 34.6608C78.0892 34.4534 78.0303 34.2114 78.0303 33.9349C78.0303 33.817 78.0425 33.6909 78.0669 33.5568C78.1279 33.2111 78.2519 32.9082 78.439 32.6479C78.626 32.3836 78.8578 32.1803 79.1343 32.038C79.4149 31.8956 79.7199 31.8245 80.0492 31.8245ZM80.7019 33.2945C80.71 33.2213 80.7141 33.1684 80.7141 33.1359C80.7141 32.9122 80.6389 32.7353 80.4884 32.6052C80.342 32.4751 80.1509 32.41 79.915 32.41C79.667 32.41 79.4433 32.4893 79.2441 32.6479C79.0448 32.8065 78.9086 33.022 78.8354 33.2945H80.7019ZM82.9477 32.471C83.0859 32.2677 83.2486 32.1091 83.4356 31.9953C83.6268 31.8814 83.8382 31.8245 84.07 31.8245L83.9419 32.5442H83.765C83.4966 32.5442 83.2811 32.6113 83.1185 32.7455C82.9558 32.8797 82.8419 33.1115 82.7769 33.4409L82.4597 35.2402H81.7644L82.356 31.8794H83.0514L82.9477 32.471ZM87.1307 32.7394L87.027 33.325H84.5201L84.6238 32.7394H87.1307ZM88.9115 35.2951C88.6797 35.2951 88.4683 35.2565 88.2772 35.1792C88.086 35.0979 87.9356 34.9861 87.8258 34.8438C87.716 34.6974 87.6611 34.5307 87.6611 34.3436C87.6611 34.3111 87.6652 34.2663 87.6733 34.2094H88.3504C88.3341 34.3639 88.3809 34.492 88.4906 34.5937C88.6004 34.6953 88.755 34.7462 88.9542 34.7462C89.1494 34.7462 89.31 34.7116 89.4361 34.6425C89.5621 34.5733 89.6252 34.4717 89.6252 34.3375C89.6252 34.2236 89.5723 34.1321 89.4666 34.063C89.3649 33.9939 89.2002 33.9166 88.9725 33.8312C88.757 33.7458 88.5821 33.6665 88.448 33.5934C88.3138 33.5202 88.1979 33.4205 88.1003 33.2945C88.0027 33.1643 87.9539 33.0037 87.9539 32.8126C87.9539 32.6174 88.0088 32.4466 88.1186 32.3002C88.2324 32.1498 88.389 32.0339 88.5882 31.9526C88.7916 31.8672 89.0233 31.8245 89.2836 31.8245C89.5194 31.8245 89.7289 31.8651 89.9118 31.9465C90.0989 32.0237 90.2433 32.1356 90.3449 32.2819C90.4506 32.4243 90.5035 32.589 90.5035 32.776C90.5035 32.8329 90.5015 32.8756 90.4974 32.9041H89.8387C89.8549 32.7455 89.8082 32.6174 89.6984 32.5198C89.5926 32.4222 89.4401 32.3734 89.2409 32.3734C89.066 32.3734 88.9237 32.41 88.8139 32.4832C88.7082 32.5564 88.6553 32.6561 88.6553 32.7821C88.6553 32.9082 88.7102 33.0098 88.82 33.0871C88.9298 33.1603 89.0986 33.2416 89.3263 33.3311C89.5337 33.4124 89.7024 33.4897 89.8326 33.5629C89.9627 33.636 90.0745 33.7336 90.168 33.8556C90.2616 33.9776 90.3083 34.1301 90.3083 34.3131C90.3083 34.5124 90.2473 34.6872 90.1253 34.8377C90.0074 34.9841 89.8427 35.0979 89.6313 35.1792C89.4198 35.2565 89.1799 35.2951 88.9115 35.2951ZM90.9987 33.5446C91.0597 33.207 91.1817 32.9082 91.3646 32.6479C91.5517 32.3877 91.7794 32.1864 92.0478 32.0441C92.3162 31.8977 92.5968 31.8245 92.8895 31.8245C93.1538 31.8245 93.3755 31.8773 93.5544 31.9831C93.7333 32.0847 93.8675 32.2128 93.957 32.3673L94.0423 31.8794H94.7438L94.1521 35.2402H93.4507L93.5422 34.7401C93.3958 34.8987 93.2108 35.0308 92.9871 35.1365C92.7675 35.2423 92.5276 35.2951 92.2674 35.2951C92.0153 35.2951 91.7896 35.2382 91.5903 35.1243C91.3951 35.0105 91.2406 34.8499 91.1268 34.6425C91.017 34.431 90.9621 34.1891 90.9621 33.9166C90.9621 33.7946 90.9743 33.6706 90.9987 33.5446ZM93.7496 33.5568C93.7658 33.4795 93.774 33.3961 93.774 33.3067C93.774 33.0342 93.6926 32.8207 93.53 32.6662C93.3714 32.5076 93.1721 32.4283 92.9322 32.4283C92.7533 32.4283 92.5785 32.4731 92.4077 32.5625C92.2369 32.6479 92.0885 32.776 91.9624 32.9468C91.8363 33.1135 91.753 33.3128 91.7123 33.5446C91.696 33.6218 91.6879 33.7052 91.6879 33.7946C91.6879 34.0712 91.7672 34.2907 91.9258 34.4534C92.0885 34.612 92.2897 34.6913 92.5297 34.6913C92.7086 34.6913 92.8834 34.6465 93.0542 34.5571C93.225 34.4676 93.3734 34.3375 93.4995 34.1667C93.6255 33.9919 93.7089 33.7885 93.7496 33.5568ZM97.1576 31.1108C96.9462 31.1108 96.7896 31.1515 96.6879 31.2328C96.5863 31.3141 96.5192 31.4504 96.4867 31.6415L96.444 31.8794H97.0661L96.9685 32.4466H96.3464L95.8523 35.2402H95.1508L95.6449 32.4466H95.2484L95.346 31.8794H95.7425L95.7852 31.6415C95.8543 31.2552 96.0068 30.9746 96.2427 30.7998C96.4785 30.6208 96.816 30.5314 97.2552 30.5314L97.1576 31.1108ZM99.1402 31.8245C99.559 31.8245 99.8924 31.9424 100.14 32.1783C100.393 32.4141 100.519 32.7313 100.519 33.1298C100.519 33.2233 100.508 33.3351 100.488 33.4653C100.472 33.5547 100.443 33.6645 100.403 33.7946H97.8348C97.8308 33.8231 97.8287 33.8658 97.8287 33.9227C97.8287 34.1626 97.9019 34.3538 98.0483 34.4961C98.1988 34.6384 98.394 34.7096 98.6339 34.7096C99.0121 34.7096 99.3028 34.553 99.5061 34.2399H100.256C100.102 34.549 99.8741 34.8031 99.5732 35.0024C99.2723 35.1975 98.9246 35.2951 98.5302 35.2951C98.2496 35.2951 98.0036 35.2402 97.7921 35.1304C97.5807 35.0207 97.416 34.8641 97.2981 34.6608C97.1802 34.4534 97.1212 34.2114 97.1212 33.9349C97.1212 33.817 97.1334 33.6909 97.1578 33.5568C97.2188 33.2111 97.3428 32.9082 97.5299 32.6479C97.7169 32.3836 97.9487 32.1803 98.2252 32.038C98.5058 31.8956 98.8108 31.8245 99.1402 31.8245ZM99.7928 33.2945C99.8009 33.2213 99.805 33.1684 99.805 33.1359C99.805 32.9122 99.7298 32.7353 99.5793 32.6052C99.4329 32.4751 99.2418 32.41 99.006 32.41C98.7579 32.41 98.5343 32.4893 98.335 32.6479C98.1358 32.8065 97.9995 33.022 97.9263 33.2945H99.7928Z" fill="white"/>
<rect x="131.7" y="0.487965" width="25.1729" height="25.1729" rx="12.5864" stroke="white" stroke-width="0.97593"/>
<g clip-path="url(#clip1_1486_2276)">
<path d="M148.398 14.7253C147.888 15.035 147.303 15.1979 146.707 15.1959C146.208 15.192 145.714 15.0898 145.254 14.8953C144.899 15.3958 144.71 15.9944 144.711 16.6077V18.1741C144.711 18.2323 144.699 18.29 144.676 18.3435C144.653 18.397 144.619 18.4451 144.577 18.485C144.534 18.5248 144.484 18.5555 144.429 18.5751C144.374 18.5947 144.316 18.6029 144.258 18.599C144.149 18.5895 144.047 18.5391 143.974 18.4578C143.9 18.3765 143.86 18.2704 143.861 18.1608V17.5001L141.81 15.4488C141.505 15.5625 141.183 15.622 140.857 15.6246C140.409 15.6257 139.969 15.5031 139.587 15.2703C138.429 14.5671 137.806 12.9487 137.927 10.9393C137.933 10.8354 137.977 10.7373 138.05 10.6636C138.124 10.59 138.222 10.546 138.326 10.5399C140.336 10.4215 141.954 11.0424 142.655 12.1997C142.93 12.6534 143.051 13.1844 142.998 13.7125C142.994 13.7534 142.979 13.7924 142.954 13.825C142.929 13.8575 142.895 13.8821 142.857 13.8957C142.818 13.9094 142.776 13.9115 142.736 13.9019C142.696 13.8923 142.66 13.8713 142.632 13.8415L141.612 12.7739C141.532 12.6976 141.425 12.6557 141.314 12.6571C141.203 12.6585 141.097 12.7032 141.019 12.7815C140.94 12.8599 140.896 12.9657 140.894 13.0765C140.893 13.1873 140.935 13.2943 141.011 13.3746L143.873 16.3092C143.876 16.2678 143.88 16.2264 143.884 16.1855C143.977 15.3976 144.325 14.6617 144.874 14.0896L147.561 11.2501C147.641 11.1704 147.686 11.0623 147.686 10.9496C147.686 10.8369 147.641 10.7288 147.562 10.6491C147.482 10.5693 147.374 10.5245 147.261 10.5245C147.148 10.5244 147.04 10.5691 146.961 10.6488L144.358 13.4012C144.332 13.4288 144.299 13.4489 144.262 13.4594C144.226 13.47 144.187 13.4706 144.151 13.4611C144.114 13.4517 144.08 13.4326 144.053 13.4058C144.027 13.379 144.007 13.3455 143.998 13.3088C143.746 12.3803 143.857 11.4561 144.338 10.6626C145.286 9.09678 147.494 8.25863 150.243 8.4201C150.347 8.42617 150.445 8.4702 150.519 8.54383C150.592 8.61746 150.636 8.71557 150.642 8.81952C150.802 11.5693 149.964 13.7767 148.398 14.7253Z" fill="white"/>
</g>
<path d="M114.671 31.001L114.574 31.5439H112.774L112.549 32.8309H113.952L113.854 33.3677H112.451L112.122 35.2402H111.426L112.177 31.001H114.671ZM116.036 35.2951C115.751 35.2951 115.501 35.2362 115.285 35.1182C115.07 35.0003 114.901 34.8336 114.779 34.6181C114.661 34.4026 114.602 34.1565 114.602 33.88C114.602 33.5019 114.69 33.1562 114.864 32.8431C115.043 32.53 115.287 32.2819 115.596 32.099C115.909 31.916 116.257 31.8245 116.639 31.8245C116.924 31.8245 117.176 31.8855 117.396 32.0075C117.615 32.1254 117.786 32.2921 117.908 32.5076C118.034 32.7191 118.097 32.9651 118.097 33.2457C118.097 33.6239 118.006 33.9695 117.823 34.2826C117.64 34.5957 117.392 34.8438 117.079 35.0267C116.765 35.2057 116.418 35.2951 116.036 35.2951ZM116.121 34.7096C116.353 34.7096 116.564 34.6445 116.755 34.5144C116.95 34.3802 117.103 34.2053 117.213 33.9898C117.323 33.7702 117.377 33.5364 117.377 33.2884C117.377 33.0078 117.298 32.7923 117.14 32.6418C116.981 32.4873 116.782 32.41 116.542 32.41C116.306 32.41 116.095 32.4771 115.907 32.6113C115.724 32.7414 115.58 32.9183 115.474 33.142C115.373 33.3616 115.322 33.5974 115.322 33.8495C115.322 34.122 115.395 34.3334 115.541 34.4839C115.692 34.6343 115.885 34.7096 116.121 34.7096ZM119.925 35.2951C119.641 35.2951 119.39 35.2362 119.175 35.1182C118.959 35.0003 118.791 34.8336 118.669 34.6181C118.551 34.4026 118.492 34.1565 118.492 33.88C118.492 33.5019 118.579 33.1562 118.754 32.8431C118.933 32.53 119.177 32.2819 119.486 32.099C119.799 31.916 120.147 31.8245 120.529 31.8245C120.814 31.8245 121.066 31.8855 121.285 32.0075C121.505 32.1254 121.676 32.2921 121.798 32.5076C121.924 32.7191 121.987 32.9651 121.987 33.2457C121.987 33.6239 121.895 33.9695 121.712 34.2826C121.529 34.5957 121.281 34.8438 120.968 35.0267C120.655 35.2057 120.307 35.2951 119.925 35.2951ZM120.011 34.7096C120.242 34.7096 120.454 34.6445 120.645 34.5144C120.84 34.3802 120.993 34.2053 121.102 33.9898C121.212 33.7702 121.267 33.5364 121.267 33.2884C121.267 33.0078 121.188 32.7923 121.029 32.6418C120.871 32.4873 120.671 32.41 120.431 32.41C120.196 32.41 119.984 32.4771 119.797 32.6113C119.614 32.7414 119.47 32.9183 119.364 33.142C119.262 33.3616 119.212 33.5974 119.212 33.8495C119.212 34.122 119.285 34.3334 119.431 34.4839C119.582 34.6343 119.775 34.7096 120.011 34.7096ZM122.412 33.5446C122.473 33.207 122.595 32.9082 122.778 32.6479C122.965 32.3877 123.193 32.1864 123.461 32.0441C123.729 31.8977 124.012 31.8245 124.309 31.8245C124.529 31.8245 124.736 31.8733 124.931 31.9709C125.126 32.0644 125.275 32.1905 125.376 32.349L125.663 30.7266H126.364L125.565 35.2402H124.864L124.955 34.734C124.809 34.9007 124.626 35.0369 124.407 35.1426C124.191 35.2443 123.953 35.2951 123.693 35.2951C123.437 35.2951 123.209 35.2382 123.01 35.1243C122.81 35.0105 122.654 34.8499 122.54 34.6425C122.43 34.431 122.375 34.1891 122.375 33.9166C122.375 33.7946 122.388 33.6706 122.412 33.5446ZM125.163 33.5568C125.179 33.4795 125.187 33.3961 125.187 33.3067C125.187 33.0342 125.106 32.8207 124.943 32.6662C124.785 32.5076 124.585 32.4283 124.346 32.4283C124.167 32.4283 123.992 32.4731 123.821 32.5625C123.65 32.6479 123.502 32.776 123.376 32.9468C123.25 33.1135 123.166 33.3128 123.126 33.5446C123.109 33.6218 123.101 33.7052 123.101 33.7946C123.101 34.0712 123.181 34.2907 123.339 34.4534C123.502 34.612 123.703 34.6913 123.943 34.6913C124.122 34.6913 124.297 34.6465 124.468 34.5571C124.638 34.4676 124.787 34.3375 124.913 34.1667C125.039 33.9919 125.122 33.7885 125.163 33.5568ZM129.504 32.7394L129.4 33.325H126.894L126.997 32.7394H129.504ZM132.005 31.8245C132.265 31.8245 132.487 31.8773 132.67 31.9831C132.857 32.0847 132.991 32.2128 133.072 32.3673L133.158 31.8794H133.859L133.261 35.2951C133.204 35.6042 133.09 35.8787 132.92 36.1186C132.749 36.3626 132.527 36.5537 132.255 36.6919C131.982 36.8302 131.675 36.8993 131.334 36.8993C131.037 36.8993 130.777 36.8505 130.553 36.7529C130.329 36.6594 130.161 36.5232 130.047 36.3443C129.933 36.1653 129.884 35.9539 129.9 35.7099H130.59C130.61 35.8848 130.697 36.025 130.852 36.1308C131.006 36.2406 131.204 36.2955 131.444 36.2955C131.724 36.2955 131.966 36.2101 132.169 36.0393C132.373 35.8685 132.503 35.6204 132.56 35.2951L132.657 34.734C132.511 34.8926 132.328 35.0267 132.108 35.1365C131.889 35.2423 131.651 35.2951 131.395 35.2951C131.139 35.2951 130.911 35.2382 130.712 35.1243C130.512 35.0105 130.356 34.8499 130.242 34.6425C130.132 34.431 130.077 34.1891 130.077 33.9166C130.077 33.7946 130.089 33.6706 130.114 33.5446C130.175 33.207 130.297 32.9082 130.48 32.6479C130.667 32.3877 130.895 32.1864 131.163 32.0441C131.431 31.8977 131.712 31.8245 132.005 31.8245ZM132.865 33.5568C132.881 33.4795 132.889 33.3961 132.889 33.3067C132.889 33.0342 132.808 32.8207 132.645 32.6662C132.487 32.5076 132.287 32.4283 132.047 32.4283C131.869 32.4283 131.694 32.4731 131.523 32.5625C131.352 32.6479 131.204 32.776 131.078 32.9468C130.952 33.1135 130.868 33.3128 130.828 33.5446C130.811 33.6218 130.803 33.7052 130.803 33.7946C130.803 34.0712 130.882 34.2907 131.041 34.4534C131.204 34.612 131.405 34.6913 131.645 34.6913C131.824 34.6913 131.999 34.6465 132.169 34.5571C132.34 34.4676 132.489 34.3375 132.615 34.1667C132.741 33.9919 132.824 33.7885 132.865 33.5568ZM135.364 32.471C135.502 32.2677 135.665 32.1091 135.852 31.9953C136.043 31.8814 136.255 31.8245 136.486 31.8245L136.358 32.5442H136.181C135.913 32.5442 135.697 32.6113 135.535 32.7455C135.372 32.8797 135.258 33.1115 135.193 33.4409L134.876 35.2402H134.181L134.772 31.8794H135.468L135.364 32.471ZM136.589 33.5446C136.65 33.207 136.772 32.9082 136.955 32.6479C137.142 32.3877 137.369 32.1864 137.638 32.0441C137.906 31.8977 138.187 31.8245 138.48 31.8245C138.744 31.8245 138.965 31.8773 139.144 31.9831C139.323 32.0847 139.458 32.2128 139.547 32.3673L139.632 31.8794H140.334L139.742 35.2402H139.041L139.132 34.7401C138.986 34.8987 138.801 35.0308 138.577 35.1365C138.358 35.2423 138.118 35.2951 137.857 35.2951C137.605 35.2951 137.38 35.2382 137.18 35.1243C136.985 35.0105 136.831 34.8499 136.717 34.6425C136.607 34.431 136.552 34.1891 136.552 33.9166C136.552 33.7946 136.564 33.6706 136.589 33.5446ZM139.34 33.5568C139.356 33.4795 139.364 33.3961 139.364 33.3067C139.364 33.0342 139.283 32.8207 139.12 32.6662C138.961 32.5076 138.762 32.4283 138.522 32.4283C138.343 32.4283 138.168 32.4731 137.998 32.5625C137.827 32.6479 137.678 32.776 137.552 32.9468C137.426 33.1135 137.343 33.3128 137.302 33.5446C137.286 33.6218 137.278 33.7052 137.278 33.7946C137.278 34.0712 137.357 34.2907 137.516 34.4534C137.678 34.612 137.88 34.6913 138.12 34.6913C138.299 34.6913 138.473 34.6465 138.644 34.5571C138.815 34.4676 138.963 34.3375 139.09 34.1667C139.216 33.9919 139.299 33.7885 139.34 33.5568ZM140.723 33.5446C140.784 33.207 140.906 32.9082 141.089 32.6479C141.276 32.3877 141.503 32.1864 141.772 32.0441C142.04 31.8977 142.323 31.8245 142.62 31.8245C142.839 31.8245 143.047 31.8733 143.242 31.9709C143.437 32.0644 143.585 32.1905 143.687 32.349L143.974 30.7266H144.675L143.876 35.2402H143.175L143.266 34.734C143.12 34.9007 142.937 35.0369 142.717 35.1426C142.502 35.2443 142.264 35.2951 142.003 35.2951C141.747 35.2951 141.52 35.2382 141.32 35.1243C141.121 35.0105 140.965 34.8499 140.851 34.6425C140.741 34.431 140.686 34.1891 140.686 33.9166C140.686 33.7946 140.698 33.6706 140.723 33.5446ZM143.473 33.5568C143.49 33.4795 143.498 33.3961 143.498 33.3067C143.498 33.0342 143.417 32.8207 143.254 32.6662C143.095 32.5076 142.896 32.4283 142.656 32.4283C142.477 32.4283 142.302 32.4731 142.132 32.5625C141.961 32.6479 141.812 32.776 141.686 32.9468C141.56 33.1135 141.477 33.3128 141.436 33.5446C141.42 33.6218 141.412 33.7052 141.412 33.7946C141.412 34.0712 141.491 34.2907 141.65 34.4534C141.812 34.612 142.014 34.6913 142.254 34.6913C142.432 34.6913 142.607 34.6465 142.778 34.5571C142.949 34.4676 143.097 34.3375 143.223 34.1667C143.349 33.9919 143.433 33.7885 143.473 33.5568ZM146.839 31.8245C147.258 31.8245 147.591 31.9424 147.839 32.1783C148.091 32.4141 148.217 32.7313 148.217 33.1298C148.217 33.2233 148.207 33.3351 148.187 33.4653C148.171 33.5547 148.142 33.6645 148.101 33.7946H145.534C145.529 33.8231 145.527 33.8658 145.527 33.9227C145.527 34.1626 145.601 34.3538 145.747 34.4961C145.897 34.6384 146.093 34.7096 146.333 34.7096C146.711 34.7096 147.001 34.553 147.205 34.2399H147.955C147.801 34.549 147.573 34.8031 147.272 35.0024C146.971 35.1975 146.623 35.2951 146.229 35.2951C145.948 35.2951 145.702 35.2402 145.491 35.1304C145.279 35.0207 145.115 34.8641 144.997 34.6608C144.879 34.4534 144.82 34.2114 144.82 33.9349C144.82 33.817 144.832 33.6909 144.856 33.5568C144.917 33.2111 145.041 32.9082 145.229 32.6479C145.416 32.3836 145.647 32.1803 145.924 32.038C146.204 31.8956 146.509 31.8245 146.839 31.8245ZM147.491 33.2945C147.5 33.2213 147.504 33.1684 147.504 33.1359C147.504 32.9122 147.428 32.7353 147.278 32.6052C147.132 32.4751 146.94 32.41 146.705 32.41C146.457 32.41 146.233 32.4893 146.034 32.6479C145.834 32.8065 145.698 33.022 145.625 33.2945H147.491ZM155.055 31.8245C155.409 31.8245 155.691 31.92 155.903 32.1112C156.114 32.3023 156.22 32.5727 156.22 32.9224C156.22 33.0159 156.21 33.1278 156.189 33.2579L155.836 35.2402H155.146L155.482 33.3616C155.498 33.2477 155.506 33.1664 155.506 33.1176C155.506 32.8939 155.443 32.7231 155.317 32.6052C155.195 32.4873 155.024 32.4283 154.805 32.4283C154.54 32.4283 154.317 32.5097 154.134 32.6723C153.955 32.8309 153.841 33.0607 153.792 33.3616L153.457 35.2402H152.768L153.103 33.3616C153.119 33.2477 153.127 33.1664 153.127 33.1176C153.127 32.8939 153.064 32.7231 152.938 32.6052C152.816 32.4873 152.646 32.4283 152.426 32.4283C152.162 32.4283 151.938 32.5097 151.755 32.6723C151.576 32.8309 151.462 33.0607 151.413 33.3616V33.3433L151.078 35.2402H150.383L150.974 31.8794H151.67L151.603 32.2697C151.737 32.1315 151.897 32.0237 152.084 31.9465C152.276 31.8651 152.473 31.8245 152.676 31.8245C152.944 31.8245 153.174 31.8814 153.365 31.9953C153.56 32.1091 153.697 32.2738 153.774 32.4893C153.908 32.286 154.093 32.1254 154.329 32.0075C154.565 31.8855 154.807 31.8245 155.055 31.8245ZM156.788 33.5446C156.849 33.207 156.971 32.9082 157.154 32.6479C157.341 32.3877 157.568 32.1864 157.837 32.0441C158.105 31.8977 158.386 31.8245 158.678 31.8245C158.943 31.8245 159.164 31.8773 159.343 31.9831C159.522 32.0847 159.656 32.2128 159.746 32.3673L159.831 31.8794H160.533L159.941 35.2402H159.24L159.331 34.7401C159.185 34.8987 159 35.0308 158.776 35.1365C158.556 35.2423 158.316 35.2951 158.056 35.2951C157.804 35.2951 157.578 35.2382 157.379 35.1243C157.184 35.0105 157.029 34.8499 156.916 34.6425C156.806 34.431 156.751 34.1891 156.751 33.9166C156.751 33.7946 156.763 33.6706 156.788 33.5446ZM159.538 33.5568C159.555 33.4795 159.563 33.3961 159.563 33.3067C159.563 33.0342 159.482 32.8207 159.319 32.6662C159.16 32.5076 158.961 32.4283 158.721 32.4283C158.542 32.4283 158.367 32.4731 158.197 32.5625C158.026 32.6479 157.877 32.776 157.751 32.9468C157.625 33.1135 157.542 33.3128 157.501 33.5446C157.485 33.6218 157.477 33.7052 157.477 33.7946C157.477 34.0712 157.556 34.2907 157.715 34.4534C157.877 34.612 158.079 34.6913 158.319 34.6913C158.497 34.6913 158.672 34.6465 158.843 34.5571C159.014 34.4676 159.162 34.3375 159.288 34.1667C159.414 33.9919 159.498 33.7885 159.538 33.5568ZM161.83 34.307C161.822 34.3639 161.818 34.4005 161.818 34.4168C161.818 34.5022 161.844 34.5652 161.897 34.6059C161.95 34.6425 162.038 34.6608 162.16 34.6608H162.587L162.483 35.2402H161.934C161.666 35.2402 161.46 35.1874 161.318 35.0816C161.176 34.9719 161.104 34.799 161.104 34.5632C161.104 34.4737 161.113 34.3883 161.129 34.307L161.458 32.4466H161.062L161.159 31.8794H161.562L161.708 31.0437H162.41L162.263 31.8794H163.075L162.977 32.4466H162.16L161.83 34.307ZM165.173 31.8245C165.592 31.8245 165.926 31.9424 166.174 32.1783C166.426 32.4141 166.552 32.7313 166.552 33.1298C166.552 33.2233 166.542 33.3351 166.521 33.4653C166.505 33.5547 166.477 33.6645 166.436 33.7946H163.868C163.864 33.8231 163.862 33.8658 163.862 33.9227C163.862 34.1626 163.935 34.3538 164.081 34.4961C164.232 34.6384 164.427 34.7096 164.667 34.7096C165.045 34.7096 165.336 34.553 165.539 34.2399H166.289C166.135 34.549 165.907 34.8031 165.606 35.0024C165.305 35.1975 164.958 35.2951 164.563 35.2951C164.283 35.2951 164.037 35.2402 163.825 35.1304C163.614 35.0207 163.449 34.8641 163.331 34.6608C163.213 34.4534 163.154 34.2114 163.154 33.9349C163.154 33.817 163.166 33.6909 163.191 33.5568C163.252 33.2111 163.376 32.9082 163.563 32.6479C163.75 32.3836 163.982 32.1803 164.258 32.038C164.539 31.8956 164.844 31.8245 165.173 31.8245ZM165.826 33.2945C165.834 33.2213 165.838 33.1684 165.838 33.1359C165.838 32.9122 165.763 32.7353 165.612 32.6052C165.466 32.4751 165.275 32.41 165.039 32.41C164.791 32.41 164.567 32.4893 164.368 32.6479C164.169 32.8065 164.033 33.022 163.959 33.2945H165.826ZM168.072 32.471C168.21 32.2677 168.373 32.1091 168.56 31.9953C168.751 31.8814 168.962 31.8245 169.194 31.8245L169.066 32.5442H168.889C168.621 32.5442 168.405 32.6113 168.242 32.7455C168.08 32.8797 167.966 33.1115 167.901 33.4409L167.584 35.2402H166.888L167.48 31.8794H168.175L168.072 32.471ZM170.254 31.4341C170.144 31.4341 170.055 31.3995 169.986 31.3304C169.917 31.2613 169.882 31.1739 169.882 31.0681C169.882 30.9258 169.935 30.8038 170.041 30.7022C170.15 30.5964 170.274 30.5436 170.413 30.5436C170.522 30.5436 170.61 30.5781 170.675 30.6473C170.744 30.7164 170.779 30.8038 170.779 30.9095C170.779 31.0519 170.726 31.1759 170.62 31.2816C170.514 31.3833 170.392 31.4341 170.254 31.4341ZM170.516 31.8794L169.925 35.2402H169.229L169.821 31.8794H170.516ZM170.905 33.5446C170.966 33.207 171.088 32.9082 171.271 32.6479C171.458 32.3877 171.685 32.1864 171.954 32.0441C172.222 31.8977 172.503 31.8245 172.796 31.8245C173.06 31.8245 173.281 31.8773 173.46 31.9831C173.639 32.0847 173.774 32.2128 173.863 32.3673L173.948 31.8794H174.65L174.058 35.2402H173.357L173.448 34.7401C173.302 34.8987 173.117 35.0308 172.893 35.1365C172.674 35.2423 172.434 35.2951 172.173 35.2951C171.921 35.2951 171.696 35.2382 171.496 35.1243C171.301 35.0105 171.147 34.8499 171.033 34.6425C170.923 34.431 170.868 34.1891 170.868 33.9166C170.868 33.7946 170.88 33.6706 170.905 33.5446ZM173.656 33.5568C173.672 33.4795 173.68 33.3961 173.68 33.3067C173.68 33.0342 173.599 32.8207 173.436 32.6662C173.277 32.5076 173.078 32.4283 172.838 32.4283C172.659 32.4283 172.484 32.4731 172.314 32.5625C172.143 32.6479 171.994 32.776 171.868 32.9468C171.742 33.1135 171.659 33.3128 171.618 33.5446C171.602 33.6218 171.594 33.7052 171.594 33.7946C171.594 34.0712 171.673 34.2907 171.832 34.4534C171.994 34.612 172.196 34.6913 172.436 34.6913C172.615 34.6913 172.789 34.6465 172.96 34.5571C173.131 34.4676 173.279 34.3375 173.406 34.1667C173.532 33.9919 173.615 33.7885 173.656 33.5568ZM176.466 30.7266L175.667 35.2402H174.971L175.771 30.7266H176.466Z" fill="white"/>
<defs>
<clipPath id="clip0_1486_2276">
<rect width="13.5974" height="13.5974" fill="white" transform="translate(74.6805 6.27539)"/>
</clipPath>
<clipPath id="clip1_1486_2276">
<rect width="13.5974" height="13.5974" fill="white" transform="translate(137.487 6.27539)"/>
</clipPath>
</defs>
</svg>
