<svg width="162" height="37" viewBox="0 0 162 37" fill="none" xmlns="http://www.w3.org/2000/svg">
<path d="M5.88 17L3.836 13.29H3.262V17H0.868V7.172H4.886C5.66067 7.172 6.31867 7.30733 6.86 7.578C7.41067 7.84867 7.82133 8.222 8.092 8.698C8.36267 9.16467 8.498 9.68733 8.498 10.266C8.498 10.9193 8.31133 11.5027 7.938 12.016C7.574 12.5293 7.03267 12.8933 6.314 13.108L8.582 17H5.88ZM3.262 11.596H4.746C5.18467 11.596 5.51133 11.4887 5.726 11.274C5.95 11.0593 6.062 10.756 6.062 10.364C6.062 9.99067 5.95 9.69667 5.726 9.482C5.51133 9.26733 5.18467 9.16 4.746 9.16H3.262V11.596ZM15.6988 17L12.3948 12.66V17H10.0008V7.172H12.3948V11.484L15.6708 7.172H18.4848L14.6768 11.988L18.6248 17H15.6988ZM30.2193 10.336C30.2193 10.9053 30.0887 11.428 29.8273 11.904C29.566 12.3707 29.1647 12.7487 28.6233 13.038C28.082 13.3273 27.41 13.472 26.6073 13.472H25.1233V17H22.7293V7.172H26.6073C27.3913 7.172 28.054 7.30733 28.5953 7.578C29.1367 7.84867 29.5427 8.222 29.8133 8.698C30.084 9.174 30.2193 9.72 30.2193 10.336ZM26.4253 11.568C26.8827 11.568 27.2233 11.4607 27.4473 11.246C27.6713 11.0313 27.7833 10.728 27.7833 10.336C27.7833 9.944 27.6713 9.64067 27.4473 9.426C27.2233 9.21133 26.8827 9.104 26.4253 9.104H25.1233V11.568H26.4253ZM36.1137 17.098C35.1897 17.098 34.3403 16.8833 33.5657 16.454C32.8003 16.0247 32.189 15.4273 31.7317 14.662C31.2837 13.8873 31.0597 13.0193 31.0597 12.058C31.0597 11.0967 31.2837 10.2333 31.7317 9.468C32.189 8.70267 32.8003 8.10533 33.5657 7.676C34.3403 7.24667 35.1897 7.032 36.1137 7.032C37.0377 7.032 37.8823 7.24667 38.6477 7.676C39.4223 8.10533 40.029 8.70267 40.4677 9.468C40.9157 10.2333 41.1397 11.0967 41.1397 12.058C41.1397 13.0193 40.9157 13.8873 40.4677 14.662C40.0197 15.4273 39.413 16.0247 38.6477 16.454C37.8823 16.8833 37.0377 17.098 36.1137 17.098ZM36.1137 14.914C36.8977 14.914 37.523 14.6527 37.9897 14.13C38.4657 13.6073 38.7037 12.9167 38.7037 12.058C38.7037 11.19 38.4657 10.4993 37.9897 9.986C37.523 9.46333 36.8977 9.202 36.1137 9.202C35.3203 9.202 34.6857 9.45867 34.2097 9.972C33.743 10.4853 33.5097 11.1807 33.5097 12.058C33.5097 12.926 33.743 13.6213 34.2097 14.144C34.6857 14.6573 35.3203 14.914 36.1137 14.914ZM44.8655 15.152H48.0015V17H42.4715V7.172H44.8655V15.152ZM57.5714 7.172L54.1694 13.752V17H51.7754V13.752L48.3734 7.172H51.0894L52.9934 11.288L54.8834 7.172H57.5714ZM64.0636 12.072C64.0636 11.1013 64.2736 10.238 64.6936 9.482C65.1136 8.71667 65.6969 8.124 66.4436 7.704C67.1996 7.27467 68.0536 7.06 69.0056 7.06C70.1722 7.06 71.1709 7.368 72.0016 7.984C72.8322 8.6 73.3876 9.44 73.6676 10.504H71.0356C70.8396 10.0933 70.5596 9.78067 70.1956 9.566C69.8409 9.35133 69.4349 9.244 68.9776 9.244C68.2402 9.244 67.6429 9.50067 67.1856 10.014C66.7282 10.5273 66.4996 11.2133 66.4996 12.072C66.4996 12.9307 66.7282 13.6167 67.1856 14.13C67.6429 14.6433 68.2402 14.9 68.9776 14.9C69.4349 14.9 69.8409 14.7927 70.1956 14.578C70.5596 14.3633 70.8396 14.0507 71.0356 13.64H73.6676C73.3876 14.704 72.8322 15.544 72.0016 16.16C71.1709 16.7667 70.1722 17.07 69.0056 17.07C68.0536 17.07 67.1996 16.86 66.4436 16.44C65.6969 16.0107 65.1136 15.418 64.6936 14.662C64.2736 13.906 64.0636 13.0427 64.0636 12.072ZM79.7816 17.098C78.8576 17.098 78.0083 16.8833 77.2336 16.454C76.4683 16.0247 75.857 15.4273 75.3996 14.662C74.9516 13.8873 74.7276 13.0193 74.7276 12.058C74.7276 11.0967 74.9516 10.2333 75.3996 9.468C75.857 8.70267 76.4683 8.10533 77.2336 7.676C78.0083 7.24667 78.8576 7.032 79.7816 7.032C80.7056 7.032 81.5503 7.24667 82.3156 7.676C83.0903 8.10533 83.697 8.70267 84.1356 9.468C84.5836 10.2333 84.8076 11.0967 84.8076 12.058C84.8076 13.0193 84.5836 13.8873 84.1356 14.662C83.6876 15.4273 83.081 16.0247 82.3156 16.454C81.5503 16.8833 80.7056 17.098 79.7816 17.098ZM79.7816 14.914C80.5656 14.914 81.191 14.6527 81.6576 14.13C82.1336 13.6073 82.3716 12.9167 82.3716 12.058C82.3716 11.19 82.1336 10.4993 81.6576 9.986C81.191 9.46333 80.5656 9.202 79.7816 9.202C78.9883 9.202 78.3536 9.45867 77.8776 9.972C77.411 10.4853 77.1776 11.1807 77.1776 12.058C77.1776 12.926 77.411 13.6213 77.8776 14.144C78.3536 14.6573 78.9883 14.914 79.7816 14.914ZM94.9315 17H92.5375L88.5335 10.938V17H86.1395V7.172H88.5335L92.5375 13.262V7.172H94.9315V17ZM103.737 7.172V9.09H101.133V17H98.7388V9.09H96.1348V7.172H103.737ZM111.056 15.264H107.388L106.8 17H104.294L107.85 7.172H110.622L114.178 17H111.644L111.056 15.264ZM110.44 13.416L109.222 9.818L108.018 13.416H110.44ZM117.655 7.172V17H115.261V7.172H117.655ZM128.181 17H125.787L121.783 10.938V17H119.389V7.172H121.783L125.787 13.262V7.172H128.181V17ZM132.311 9.09V11.078H135.517V12.926H132.311V15.082H135.937V17H129.917V7.172H135.937V9.09H132.311ZM142.503 17L140.459 13.29H139.885V17H137.491V7.172H141.509C142.284 7.172 142.942 7.30733 143.483 7.578C144.034 7.84867 144.444 8.222 144.715 8.698C144.986 9.16467 145.121 9.68733 145.121 10.266C145.121 10.9193 144.934 11.5027 144.561 12.016C144.197 12.5293 143.656 12.8933 142.937 13.108L145.205 17H142.503ZM139.885 11.596H141.369C141.808 11.596 142.134 11.4887 142.349 11.274C142.573 11.0593 142.685 10.756 142.685 10.364C142.685 9.99067 142.573 9.69667 142.349 9.482C142.134 9.26733 141.808 9.16 141.369 9.16H139.885V11.596ZM150.18 17.098C149.461 17.098 148.817 16.9813 148.248 16.748C147.679 16.5147 147.221 16.1693 146.876 15.712C146.54 15.2547 146.363 14.704 146.344 14.06H148.892C148.929 14.424 149.055 14.704 149.27 14.9C149.485 15.0867 149.765 15.18 150.11 15.18C150.465 15.18 150.745 15.1007 150.95 14.942C151.155 14.774 151.258 14.5453 151.258 14.256C151.258 14.0133 151.174 13.8127 151.006 13.654C150.847 13.4953 150.647 13.3647 150.404 13.262C150.171 13.1593 149.835 13.0427 149.396 12.912C148.761 12.716 148.243 12.52 147.842 12.324C147.441 12.128 147.095 11.8387 146.806 11.456C146.517 11.0733 146.372 10.574 146.372 9.958C146.372 9.04333 146.703 8.32933 147.366 7.816C148.029 7.29333 148.892 7.032 149.956 7.032C151.039 7.032 151.911 7.29333 152.574 7.816C153.237 8.32933 153.591 9.048 153.638 9.972H151.048C151.029 9.65467 150.913 9.40733 150.698 9.23C150.483 9.04333 150.208 8.95 149.872 8.95C149.583 8.95 149.349 9.02933 149.172 9.188C148.995 9.33733 148.906 9.55667 148.906 9.846C148.906 10.1633 149.055 10.4107 149.354 10.588C149.653 10.7653 150.119 10.9567 150.754 11.162C151.389 11.3767 151.902 11.582 152.294 11.778C152.695 11.974 153.041 12.2587 153.33 12.632C153.619 13.0053 153.764 13.486 153.764 14.074C153.764 14.634 153.619 15.1427 153.33 15.6C153.05 16.0573 152.639 16.4213 152.098 16.692C151.557 16.9627 150.917 17.098 150.18 17.098Z" fill="white"/>
<path d="M2.384 34.056C2.016 34.056 1.68533 33.992 1.392 33.864C1.104 33.7307 0.877333 33.5493 0.712 33.32C0.546667 33.0853 0.461333 32.816 0.456 32.512H1.232C1.25867 32.7733 1.36533 32.9947 1.552 33.176C1.744 33.352 2.02133 33.44 2.384 33.44C2.73067 33.44 3.00267 33.3547 3.2 33.184C3.40267 33.008 3.504 32.784 3.504 32.512C3.504 32.2987 3.44533 32.1253 3.328 31.992C3.21067 31.8587 3.064 31.7573 2.888 31.688C2.712 31.6187 2.47467 31.544 2.176 31.464C1.808 31.368 1.512 31.272 1.288 31.176C1.06933 31.08 0.88 30.9307 0.72 30.728C0.565333 30.52 0.488 30.2427 0.488 29.896C0.488 29.592 0.565333 29.3227 0.72 29.088C0.874667 28.8533 1.09067 28.672 1.368 28.544C1.65067 28.416 1.97333 28.352 2.336 28.352C2.85867 28.352 3.28533 28.4827 3.616 28.744C3.952 29.0053 4.14133 29.352 4.184 29.784H3.384C3.35733 29.5707 3.24533 29.384 3.048 29.224C2.85067 29.0587 2.58933 28.976 2.264 28.976C1.96 28.976 1.712 29.056 1.52 29.216C1.328 29.3707 1.232 29.5893 1.232 29.872C1.232 30.0747 1.288 30.24 1.4 30.368C1.51733 30.496 1.65867 30.5947 1.824 30.664C1.99467 30.728 2.232 30.8027 2.536 30.888C2.904 30.9893 3.2 31.0907 3.424 31.192C3.648 31.288 3.84 31.44 4 31.648C4.16 31.8507 4.24 32.128 4.24 32.48C4.24 32.752 4.168 33.008 4.024 33.248C3.88 33.488 3.66667 33.6827 3.384 33.832C3.10133 33.9813 2.768 34.056 2.384 34.056ZM12.3193 28.424L10.7033 34H9.88731L8.59131 29.512L7.24731 34L6.43931 34.008L4.87931 28.424H5.65531L6.87131 33.152L8.21531 28.424H9.03131L10.3113 33.136L11.5353 28.424H12.3193ZM13.844 29.016V30.88H15.876V31.48H13.844V33.4H16.116V34H13.116V28.416H16.116V29.016H13.844ZM17.9456 29.016V30.88H19.9776V31.48H17.9456V33.4H20.2176V34H17.2176V28.416H20.2176V29.016H17.9456ZM24.7511 28.424V29.016H23.2311V34H22.5031V29.016H20.9751V28.424H24.7511ZM30.5721 31.128C30.7747 31.16 30.9587 31.2427 31.1241 31.376C31.2947 31.5093 31.4281 31.6747 31.5241 31.872C31.6254 32.0693 31.6761 32.28 31.6761 32.504C31.6761 32.7867 31.6041 33.0427 31.4601 33.272C31.3161 33.496 31.1054 33.6747 30.8281 33.808C30.5561 33.936 30.2334 34 29.8601 34H27.7801V28.424H29.7801C30.1587 28.424 30.4814 28.488 30.7481 28.616C31.0147 28.7387 31.2147 28.9067 31.3481 29.12C31.4814 29.3333 31.5481 29.5733 31.5481 29.84C31.5481 30.1707 31.4574 30.4453 31.2761 30.664C31.1001 30.8773 30.8654 31.032 30.5721 31.128ZM28.5081 30.832H29.7321C30.0734 30.832 30.3374 30.752 30.5241 30.592C30.7107 30.432 30.8041 30.2107 30.8041 29.928C30.8041 29.6453 30.7107 29.424 30.5241 29.264C30.3374 29.104 30.0681 29.024 29.7161 29.024H28.5081V30.832ZM29.7961 33.4C30.1587 33.4 30.4414 33.3147 30.6441 33.144C30.8467 32.9733 30.9481 32.736 30.9481 32.432C30.9481 32.1227 30.8414 31.88 30.6281 31.704C30.4147 31.5227 30.1294 31.432 29.7721 31.432H28.5081V33.4H29.7961ZM35.2143 34.056C34.697 34.056 34.225 33.936 33.7983 33.696C33.3716 33.4507 33.033 33.112 32.7823 32.68C32.537 32.2427 32.4143 31.752 32.4143 31.208C32.4143 30.664 32.537 30.176 32.7823 29.744C33.033 29.3067 33.3716 28.968 33.7983 28.728C34.225 28.4827 34.697 28.36 35.2143 28.36C35.737 28.36 36.2116 28.4827 36.6383 28.728C37.065 28.968 37.401 29.304 37.6463 29.736C37.8916 30.168 38.0143 30.6587 38.0143 31.208C38.0143 31.7573 37.8916 32.248 37.6463 32.68C37.401 33.112 37.065 33.4507 36.6383 33.696C36.2116 33.936 35.737 34.056 35.2143 34.056ZM35.2143 33.424C35.6036 33.424 35.953 33.3333 36.2623 33.152C36.577 32.9707 36.8223 32.712 36.9983 32.376C37.1796 32.04 37.2703 31.6507 37.2703 31.208C37.2703 30.76 37.1796 30.3707 36.9983 30.04C36.8223 29.704 36.5796 29.4453 36.2703 29.264C35.961 29.0827 35.609 28.992 35.2143 28.992C34.8196 28.992 34.4676 29.0827 34.1583 29.264C33.849 29.4453 33.6036 29.704 33.4223 30.04C33.2463 30.3707 33.1583 30.76 33.1583 31.208C33.1583 31.6507 33.2463 32.04 33.4223 32.376C33.6036 32.712 33.849 32.9707 34.1583 33.152C34.473 33.3333 34.825 33.424 35.2143 33.424ZM41.2554 31.216L42.9674 34H42.1434L40.8074 31.824L39.5354 34H38.7274L40.4314 31.216L38.7194 28.424H39.5354L40.8794 30.608L42.1594 28.424H42.9754L41.2554 31.216ZM47.9489 35.488C47.4369 34.9867 47.0369 34.3493 46.7489 33.576C46.4663 32.8027 46.3249 31.968 46.3249 31.072C46.3249 30.1547 46.4743 29.2987 46.7729 28.504C47.0769 27.704 47.5089 27.0453 48.0689 26.528H48.8289V26.6C48.2316 27.16 47.7809 27.8347 47.4769 28.624C47.1783 29.408 47.0289 30.224 47.0289 31.072C47.0289 31.8987 47.1703 32.688 47.4529 33.44C47.7409 34.192 48.1596 34.8507 48.7089 35.416V35.488H47.9489ZM50.4378 28.424V34H49.7098V28.424H50.4378ZM57.3345 28.464V34H56.6065V29.872L54.7665 34H54.2545L52.4065 29.864V34H51.6785V28.464H52.4625L54.5105 33.04L56.5585 28.464H57.3345ZM59.2971 33.408H61.2491V34H58.5691V28.424H59.2971V33.408ZM61.7903 35.488V35.416C62.3396 34.8507 62.7556 34.192 63.0383 33.44C63.3263 32.688 63.4703 31.8987 63.4703 31.072C63.4703 30.224 63.3183 29.408 63.0143 28.624C62.7156 27.8347 62.2676 27.16 61.6702 26.6V26.528H62.4303C62.9903 27.0453 63.4196 27.704 63.7183 28.504C64.0223 29.2987 64.1743 30.1547 64.1743 31.072C64.1743 31.968 64.0303 32.8027 63.7423 33.576C63.4596 34.3493 63.0623 34.9867 62.5503 35.488H61.7903ZM67.5159 31.208C67.5159 30.664 67.6385 30.176 67.8839 29.744C68.1292 29.3067 68.4625 28.9653 68.8839 28.72C69.3105 28.4747 69.7825 28.352 70.2999 28.352C70.9079 28.352 71.4385 28.4987 71.8919 28.792C72.3452 29.0853 72.6759 29.5013 72.8839 30.04H72.0119C71.8572 29.704 71.6332 29.4453 71.3399 29.264C71.0519 29.0827 70.7052 28.992 70.2999 28.992C69.9105 28.992 69.5612 29.0827 69.2519 29.264C68.9425 29.4453 68.6999 29.704 68.5239 30.04C68.3479 30.3707 68.2599 30.76 68.2599 31.208C68.2599 31.6507 68.3479 32.04 68.5239 32.376C68.6999 32.7067 68.9425 32.9627 69.2519 33.144C69.5612 33.3253 69.9105 33.416 70.2999 33.416C70.7052 33.416 71.0519 33.328 71.3399 33.152C71.6332 32.9707 71.8572 32.712 72.0119 32.376H72.8839C72.6759 32.9093 72.3452 33.3227 71.8919 33.616C71.4385 33.904 70.9079 34.048 70.2999 34.048C69.7825 34.048 69.3105 33.928 68.8839 33.688C68.4625 33.4427 68.1292 33.104 67.8839 32.672C67.6385 32.24 67.5159 31.752 67.5159 31.208ZM76.4956 34.056C75.9782 34.056 75.5062 33.936 75.0796 33.696C74.6529 33.4507 74.3142 33.112 74.0636 32.68C73.8182 32.2427 73.6956 31.752 73.6956 31.208C73.6956 30.664 73.8182 30.176 74.0636 29.744C74.3142 29.3067 74.6529 28.968 75.0796 28.728C75.5062 28.4827 75.9782 28.36 76.4956 28.36C77.0182 28.36 77.4929 28.4827 77.9196 28.728C78.3462 28.968 78.6822 29.304 78.9276 29.736C79.1729 30.168 79.2956 30.6587 79.2956 31.208C79.2956 31.7573 79.1729 32.248 78.9276 32.68C78.6822 33.112 78.3462 33.4507 77.9196 33.696C77.4929 33.936 77.0182 34.056 76.4956 34.056ZM76.4956 33.424C76.8849 33.424 77.2342 33.3333 77.5436 33.152C77.8582 32.9707 78.1036 32.712 78.2796 32.376C78.4609 32.04 78.5516 31.6507 78.5516 31.208C78.5516 30.76 78.4609 30.3707 78.2796 30.04C78.1036 29.704 77.8609 29.4453 77.5516 29.264C77.2422 29.0827 76.8902 28.992 76.4956 28.992C76.1009 28.992 75.7489 29.0827 75.4396 29.264C75.1302 29.4453 74.8849 29.704 74.7036 30.04C74.5276 30.3707 74.4396 30.76 74.4396 31.208C74.4396 31.6507 74.5276 32.04 74.7036 32.376C74.8849 32.712 75.1302 32.9707 75.4396 33.152C75.7542 33.3333 76.1062 33.424 76.4956 33.424ZM84.6406 34H83.9126L80.9846 29.56V34H80.2566V28.416H80.9846L83.9126 32.848V28.416H84.6406V34ZM89.3136 28.424V29.016H87.7936V34H87.0656V29.016H85.5376V28.424H89.3136ZM93.5058 32.76H91.0738L90.6258 34H89.8577L91.8738 28.456H92.7138L94.7218 34H93.9538L93.5058 32.76ZM93.2978 32.168L92.2898 29.352L91.2818 32.168H93.2978ZM96.3284 28.424V34H95.6004V28.424H96.3284ZM101.953 34H101.225L98.2971 29.56V34H97.5691V28.416H98.2971L101.225 32.848V28.416H101.953V34ZM103.922 29.016V30.88H105.954V31.48H103.922V33.4H106.194V34H103.194V28.416H106.194V29.016H103.922ZM110.232 34L108.904 31.72H108.024V34H107.296V28.424H109.096C109.517 28.424 109.872 28.496 110.16 28.64C110.453 28.784 110.672 28.9787 110.816 29.224C110.96 29.4693 111.032 29.7493 111.032 30.064C111.032 30.448 110.92 30.7867 110.696 31.08C110.477 31.3733 110.146 31.568 109.704 31.664L111.104 34H110.232ZM108.024 31.136H109.096C109.49 31.136 109.786 31.04 109.984 30.848C110.181 30.6507 110.28 30.3893 110.28 30.064C110.28 29.7333 110.181 29.4773 109.984 29.296C109.792 29.1147 109.496 29.024 109.096 29.024H108.024V31.136Z" fill="white"/>
</svg>
