<svg width="499" height="15" viewBox="0 0 499 15" fill="none" xmlns="http://www.w3.org/2000/svg">
<path d="M1.63636 10L0.318182 5.63636H0.852273L1.88636 9.2358H1.9233L2.95455 5.63636H3.49148L4.5142 9.22727H4.55398L5.58807 5.63636H6.12216L4.80398 10H4.28125L3.24716 6.4233H3.19318L2.15909 10H1.63636ZM8.07386 10L6.75568 5.63636H7.28977L8.32386 9.2358H8.3608L9.39205 5.63636H9.92898L10.9517 9.22727H10.9915L12.0256 5.63636H12.5597L11.2415 10H10.7188L9.68466 6.4233H9.63068L8.59659 10H8.07386ZM14.5114 10L13.1932 5.63636H13.7273L14.7614 9.2358H14.7983L15.8295 5.63636H16.3665L17.3892 9.22727H17.429L18.4631 5.63636H18.9972L17.679 10H17.1562L16.1222 6.4233H16.0682L15.0341 10H14.5114ZM19.7898 10.0426C19.678 10.0426 19.5814 10.0028 19.5 9.9233C19.4205 9.84186 19.3807 9.74527 19.3807 9.63352C19.3807 9.51989 19.4205 9.4233 19.5 9.34375C19.5814 9.2642 19.678 9.22443 19.7898 9.22443C19.9034 9.22443 20 9.2642 20.0795 9.34375C20.1591 9.4233 20.1989 9.51989 20.1989 9.63352C20.1989 9.70739 20.1799 9.77557 20.142 9.83807C20.1061 9.90057 20.0568 9.95076 19.9943 9.98864C19.9337 10.0246 19.8655 10.0426 19.7898 10.0426ZM21.5348 10V5.63636H22.0263V6.30682H22.0632C22.1503 6.08712 22.3018 5.91004 22.5178 5.77557C22.7356 5.6392 22.9818 5.57102 23.2564 5.57102C23.2981 5.57102 23.3445 5.57197 23.3956 5.57386C23.4467 5.57576 23.4893 5.57765 23.5234 5.57955V6.09375C23.5007 6.08996 23.4609 6.08428 23.4041 6.0767C23.3473 6.06913 23.2857 6.06534 23.2195 6.06534C22.9922 6.06534 22.7895 6.11364 22.6115 6.21023C22.4354 6.30492 22.2962 6.43655 22.1939 6.60511C22.0916 6.77367 22.0405 6.96591 22.0405 7.18182V10H21.5348ZM24.8466 8.35227L24.8409 7.69034H24.9545L27 5.63636H27.6392L25.6193 7.65909L25.5739 7.66761L24.8466 8.35227ZM24.3864 10V4.18182H24.892V10H24.3864ZM27.1051 10L25.3324 7.75852L25.696 7.40909L27.7528 10H27.1051ZM28.5895 11.6364V5.63636H29.081V6.46875H29.1406C29.2012 6.33807 29.2846 6.20455 29.3906 6.06818C29.4967 5.92992 29.6368 5.81345 29.8111 5.71875C29.9872 5.62405 30.2088 5.5767 30.4759 5.5767C30.8357 5.5767 31.1501 5.6714 31.419 5.8608C31.6899 6.0483 31.9001 6.31155 32.0497 6.65057C32.2012 6.98769 32.277 7.38068 32.277 7.82955C32.277 8.2803 32.2012 8.67519 32.0497 9.0142C31.9001 9.35322 31.6899 9.61742 31.419 9.80682C31.1501 9.99621 30.8376 10.0909 30.4815 10.0909C30.2183 10.0909 29.9976 10.0436 29.8196 9.94886C29.6435 9.85417 29.5005 9.73769 29.3906 9.59943C29.2827 9.45928 29.1993 9.32292 29.1406 9.19034H29.0952V11.6364H28.5895ZM29.0895 7.82102C29.0895 8.1733 29.1416 8.4858 29.2457 8.75852C29.3518 9.02936 29.5033 9.24242 29.7003 9.39773C29.8991 9.55114 30.1397 9.62784 30.4219 9.62784C30.7116 9.62784 30.956 9.5483 31.1548 9.3892C31.3556 9.22822 31.508 9.01136 31.6122 8.73864C31.7183 8.46591 31.7713 8.16004 31.7713 7.82102C31.7713 7.4858 31.7192 7.18371 31.6151 6.91477C31.5128 6.64583 31.3613 6.43277 31.1605 6.27557C30.9598 6.11648 30.7135 6.03693 30.4219 6.03693C30.1378 6.03693 29.8963 6.11364 29.6974 6.26705C29.4986 6.41856 29.3471 6.62879 29.2429 6.89773C29.1406 7.16477 29.0895 7.47254 29.0895 7.82102ZM35.0824 10.0909C34.7055 10.0909 34.3722 9.99527 34.0824 9.80398C33.7945 9.61269 33.5691 9.34848 33.4062 9.01136C33.2434 8.67235 33.1619 8.28125 33.1619 7.83807C33.1619 7.3911 33.2434 6.99811 33.4062 6.65909C33.5691 6.31818 33.7945 6.05303 34.0824 5.86364C34.3722 5.67235 34.7055 5.5767 35.0824 5.5767C35.4593 5.5767 35.7917 5.67235 36.0795 5.86364C36.3674 6.05492 36.5928 6.32008 36.7557 6.65909C36.9205 6.99811 37.0028 7.3911 37.0028 7.83807C37.0028 8.28125 36.9214 8.67235 36.7585 9.01136C36.5956 9.34848 36.3693 9.61269 36.0795 9.80398C35.7917 9.99527 35.4593 10.0909 35.0824 10.0909ZM35.0824 9.62784C35.3854 9.62784 35.642 9.5464 35.8523 9.38352C36.0625 9.22064 36.2216 9.00379 36.3295 8.73295C36.4394 8.46212 36.4943 8.16383 36.4943 7.83807C36.4943 7.51231 36.4394 7.21307 36.3295 6.94034C36.2216 6.66761 36.0625 6.44886 35.8523 6.28409C35.642 6.11932 35.3854 6.03693 35.0824 6.03693C34.7813 6.03693 34.5246 6.11932 34.3125 6.28409C34.1023 6.44886 33.9422 6.66761 33.8324 6.94034C33.7244 7.21307 33.6705 7.51231 33.6705 7.83807C33.6705 8.16383 33.7244 8.46212 33.8324 8.73295C33.9422 9.00379 34.1023 9.22064 34.3125 9.38352C34.5227 9.5464 34.7794 9.62784 35.0824 9.62784ZM38.6186 4.18182V10H38.1129V4.18182H38.6186ZM40.3089 11.6364C40.2086 11.6364 40.1148 11.6269 40.0277 11.608C39.9406 11.589 39.8714 11.5682 39.8203 11.5455L39.9567 11.0994C40.129 11.1525 40.2824 11.1714 40.4169 11.1562C40.5514 11.143 40.6707 11.0824 40.7749 10.9744C40.879 10.8684 40.9718 10.7055 41.0533 10.4858L41.2124 10.0426L39.6072 5.63636H40.1555L41.451 9.33239H41.4908L42.7862 5.63636H43.3345L41.4879 10.6903C41.4103 10.9006 41.3146 11.0758 41.201 11.2159C41.0874 11.358 40.9557 11.4631 40.8061 11.5312C40.6584 11.6013 40.4927 11.6364 40.3089 11.6364ZM44.3239 11.6364V5.63636H44.8153V6.46875H44.875C44.9356 6.33807 45.0189 6.20455 45.125 6.06818C45.2311 5.92992 45.3712 5.81345 45.5455 5.71875C45.7216 5.62405 45.9432 5.5767 46.2102 5.5767C46.5701 5.5767 46.8845 5.6714 47.1534 5.8608C47.4242 6.0483 47.6345 6.31155 47.7841 6.65057C47.9356 6.98769 48.0114 7.38068 48.0114 7.82955C48.0114 8.2803 47.9356 8.67519 47.7841 9.0142C47.6345 9.35322 47.4242 9.61742 47.1534 9.80682C46.8845 9.99621 46.572 10.0909 46.2159 10.0909C45.9527 10.0909 45.732 10.0436 45.554 9.94886C45.3778 9.85417 45.2348 9.73769 45.125 9.59943C45.017 9.45928 44.9337 9.32292 44.875 9.19034H44.8295V11.6364H44.3239ZM44.8239 7.82102C44.8239 8.1733 44.8759 8.4858 44.9801 8.75852C45.0862 9.02936 45.2377 9.24242 45.4347 9.39773C45.6335 9.55114 45.8741 9.62784 46.1562 9.62784C46.446 9.62784 46.6903 9.5483 46.8892 9.3892C47.09 9.22822 47.2424 9.01136 47.3466 8.73864C47.4527 8.46591 47.5057 8.16004 47.5057 7.82102C47.5057 7.4858 47.4536 7.18371 47.3494 6.91477C47.2472 6.64583 47.0956 6.43277 46.8949 6.27557C46.6941 6.11648 46.4479 6.03693 46.1562 6.03693C45.8722 6.03693 45.6307 6.11364 45.4318 6.26705C45.233 6.41856 45.0814 6.62879 44.9773 6.89773C44.875 7.16477 44.8239 7.47254 44.8239 7.82102ZM49.1207 10V5.63636H49.6122V6.30682H49.6491C49.7363 6.08712 49.8878 5.91004 50.1037 5.77557C50.3215 5.6392 50.5677 5.57102 50.8423 5.57102C50.884 5.57102 50.9304 5.57197 50.9815 5.57386C51.0327 5.57576 51.0753 5.57765 51.1094 5.57955V6.09375C51.0866 6.08996 51.0469 6.08428 50.9901 6.0767C50.9332 6.06913 50.8717 6.06534 50.8054 6.06534C50.5781 6.06534 50.3755 6.11364 50.1974 6.21023C50.0213 6.30492 49.8821 6.43655 49.7798 6.60511C49.6776 6.77367 49.6264 6.96591 49.6264 7.18182V10H49.1207ZM53.5355 10.0909C53.1586 10.0909 52.8253 9.99527 52.5355 9.80398C52.2476 9.61269 52.0223 9.34848 51.8594 9.01136C51.6965 8.67235 51.6151 8.28125 51.6151 7.83807C51.6151 7.3911 51.6965 6.99811 51.8594 6.65909C52.0223 6.31818 52.2476 6.05303 52.5355 5.86364C52.8253 5.67235 53.1586 5.5767 53.5355 5.5767C53.9124 5.5767 54.2448 5.67235 54.5327 5.86364C54.8205 6.05492 55.0459 6.32008 55.2088 6.65909C55.3736 6.99811 55.456 7.3911 55.456 7.83807C55.456 8.28125 55.3745 8.67235 55.2116 9.01136C55.0488 9.34848 54.8224 9.61269 54.5327 9.80398C54.2448 9.99527 53.9124 10.0909 53.5355 10.0909ZM53.5355 9.62784C53.8385 9.62784 54.0952 9.5464 54.3054 9.38352C54.5156 9.22064 54.6747 9.00379 54.7827 8.73295C54.8925 8.46212 54.9474 8.16383 54.9474 7.83807C54.9474 7.51231 54.8925 7.21307 54.7827 6.94034C54.6747 6.66761 54.5156 6.44886 54.3054 6.28409C54.0952 6.11932 53.8385 6.03693 53.5355 6.03693C53.2344 6.03693 52.9777 6.11932 52.7656 6.28409C52.5554 6.44886 52.3954 6.66761 52.2855 6.94034C52.1776 7.21307 52.1236 7.51231 52.1236 7.83807C52.1236 8.16383 52.1776 8.46212 52.2855 8.73295C52.3954 9.00379 52.5554 9.22064 52.7656 9.38352C52.9759 9.5464 53.2325 9.62784 53.5355 9.62784ZM58.1371 10.0909C57.7791 10.0909 57.4657 9.99621 57.1967 9.80682C56.9278 9.61742 56.7176 9.35322 56.5661 9.0142C56.4164 8.67519 56.3416 8.2803 56.3416 7.82955C56.3416 7.38068 56.4164 6.98769 56.5661 6.65057C56.7176 6.31155 56.9287 6.0483 57.1996 5.8608C57.4704 5.6714 57.7857 5.5767 58.1456 5.5767C58.4107 5.5767 58.6314 5.62405 58.8075 5.71875C58.9837 5.81155 59.1248 5.92708 59.2308 6.06534C59.3369 6.2036 59.4193 6.33807 59.478 6.46875H59.5234V4.18182H60.032V10H59.5376V9.19034H59.478C59.4193 9.32292 59.3359 9.45928 59.228 9.59943C59.12 9.73769 58.977 9.85417 58.799 9.94886C58.6229 10.0436 58.4022 10.0909 58.1371 10.0909ZM58.1967 9.62784C58.4789 9.62784 58.7195 9.55114 58.9183 9.39773C59.1172 9.24242 59.2687 9.02936 59.3729 8.75852C59.4789 8.4858 59.532 8.1733 59.532 7.82102C59.532 7.47254 59.4799 7.16477 59.3757 6.89773C59.2715 6.62879 59.12 6.41856 58.9212 6.26705C58.7223 6.11364 58.4808 6.03693 58.1967 6.03693C57.9051 6.03693 57.6589 6.11648 57.4581 6.27557C57.2592 6.43277 57.1077 6.64583 57.0036 6.91477C56.9013 7.18371 56.8501 7.4858 56.8501 7.82102C56.8501 8.16004 56.9022 8.46591 57.0064 8.73864C57.1106 9.01136 57.2621 9.22822 57.4609 9.3892C57.6617 9.5483 57.907 9.62784 58.1967 9.62784ZM64.245 8.33239V5.63636H64.7507V10H64.245V9.27557H64.2053C64.103 9.49905 63.9411 9.68561 63.7195 9.83523C63.4979 9.98295 63.227 10.0568 62.907 10.0568C62.6286 10.0568 62.3814 9.99621 62.1655 9.875C61.9496 9.75189 61.7801 9.57197 61.657 9.33523C61.5339 9.09848 61.4723 8.80777 61.4723 8.46307V5.63636H61.978V8.43182C61.978 8.77273 62.0784 9.04735 62.2791 9.25568C62.4799 9.46212 62.7375 9.56534 63.0518 9.56534C63.2488 9.56534 63.4382 9.51799 63.62 9.4233C63.8018 9.3286 63.9515 9.19034 64.0689 9.00852C64.1863 8.82481 64.245 8.59943 64.245 8.33239ZM67.794 10.0909C67.4039 10.0909 67.0639 9.99337 66.7741 9.7983C66.4863 9.60322 66.2628 9.33617 66.1037 8.99716C65.9446 8.65814 65.8651 8.27178 65.8651 7.83807C65.8651 7.40057 65.9455 7.01136 66.1065 6.67045C66.2694 6.32955 66.4948 6.0625 66.7827 5.86932C67.0705 5.67424 67.4048 5.5767 67.7855 5.5767C68.0772 5.5767 68.3414 5.63352 68.5781 5.74716C68.8149 5.8589 69.0099 6.01705 69.1634 6.22159C69.3187 6.42424 69.4162 6.66098 69.456 6.93182H68.9446C68.8916 6.68561 68.7637 6.47538 68.5611 6.30114C68.3603 6.125 68.1046 6.03693 67.794 6.03693C67.5156 6.03693 67.2694 6.11269 67.0554 6.2642C66.8414 6.41383 66.6738 6.62311 66.5526 6.89205C66.4332 7.15909 66.3736 7.46875 66.3736 7.82102C66.3736 8.17519 66.4323 8.48864 66.5497 8.76136C66.6671 9.0322 66.8319 9.24432 67.044 9.39773C67.258 9.55114 67.508 9.62784 67.794 9.62784C67.9872 9.62784 68.1634 9.59186 68.3224 9.51989C68.4834 9.44602 68.6179 9.34186 68.7259 9.20739C68.8357 9.07292 68.9096 8.91288 68.9474 8.72727H69.4588C69.4209 8.99053 69.3272 9.22538 69.1776 9.43182C69.0298 9.63636 68.8376 9.79735 68.6009 9.91477C68.366 10.0322 68.0971 10.0909 67.794 10.0909ZM72.2614 5.63636V6.0767H70.179V5.63636H72.2614ZM70.8295 4.59091H71.3381V8.8608C71.3381 9.04261 71.3693 9.18561 71.4318 9.28977C71.4943 9.39205 71.5758 9.46496 71.6761 9.50852C71.7765 9.55019 71.8835 9.57102 71.9972 9.57102C72.0634 9.57102 72.1203 9.56723 72.1676 9.55966C72.215 9.55019 72.2566 9.54072 72.2926 9.53125L72.4006 9.98864C72.3513 10.0076 72.2907 10.0246 72.2188 10.0398C72.1468 10.0568 72.0578 10.0653 71.9517 10.0653C71.7661 10.0653 71.5871 10.0246 71.4148 9.94318C71.2443 9.86174 71.1042 9.74053 70.9943 9.57955C70.8845 9.41856 70.8295 9.21875 70.8295 8.98011V4.59091ZM76.2635 6.59375L75.8004 6.72443C75.755 6.59375 75.6906 6.47538 75.6072 6.36932C75.5239 6.26326 75.415 6.17898 75.2805 6.11648C75.148 6.05398 74.9832 6.02273 74.7862 6.02273C74.4908 6.02273 74.2483 6.0928 74.0589 6.23295C73.8696 6.37311 73.7749 6.55398 73.7749 6.77557C73.7749 6.96307 73.8393 7.11553 73.968 7.23295C74.0987 7.34848 74.2995 7.44034 74.5703 7.50852L75.2294 7.67045C75.5949 7.75947 75.8686 7.90057 76.0504 8.09375C76.2341 8.28693 76.326 8.52936 76.326 8.82102C76.326 9.06723 76.2578 9.28598 76.1214 9.47727C75.9851 9.66856 75.7947 9.81913 75.5504 9.92898C75.308 10.0369 75.0268 10.0909 74.7067 10.0909C74.2805 10.0909 73.9292 9.99527 73.6527 9.80398C73.3762 9.6108 73.1991 9.33239 73.1214 8.96875L73.6072 8.84943C73.6697 9.1089 73.7919 9.30492 73.9737 9.4375C74.1574 9.57008 74.3989 9.63636 74.6982 9.63636C75.0334 9.63636 75.3014 9.56155 75.5021 9.41193C75.7029 9.26042 75.8033 9.07102 75.8033 8.84375C75.8033 8.66761 75.7446 8.51989 75.6271 8.40057C75.5097 8.27936 75.3317 8.19034 75.093 8.13352L74.38 7.96307C74.0012 7.87216 73.7209 7.72822 73.5391 7.53125C73.3572 7.33428 73.2663 7.08996 73.2663 6.7983C73.2663 6.55777 73.3317 6.34659 73.4624 6.16477C73.593 5.98106 73.773 5.83712 74.0021 5.73295C74.2313 5.62879 74.4927 5.5767 74.7862 5.5767C75.1858 5.5767 75.505 5.66761 75.7436 5.84943C75.9841 6.02936 76.1574 6.27746 76.2635 6.59375ZM77.8366 10.0426C77.7249 10.0426 77.6283 10.0028 77.5469 9.9233C77.4673 9.84186 77.4276 9.74527 77.4276 9.63352C77.4276 9.51989 77.4673 9.4233 77.5469 9.34375C77.6283 9.2642 77.7249 9.22443 77.8366 9.22443C77.9503 9.22443 78.0469 9.2642 78.1264 9.34375C78.206 9.4233 78.2457 9.51989 78.2457 9.63352C78.2457 9.70739 78.2268 9.77557 78.1889 9.83807C78.1529 9.90057 78.1037 9.95076 78.0412 9.98864C77.9806 10.0246 77.9124 10.0426 77.8366 10.0426ZM81.2862 10.0909C80.8961 10.0909 80.5561 9.99337 80.2663 9.7983C79.9785 9.60322 79.755 9.33617 79.5959 8.99716C79.4368 8.65814 79.3572 8.27178 79.3572 7.83807C79.3572 7.40057 79.4377 7.01136 79.5987 6.67045C79.7616 6.32955 79.987 6.0625 80.2749 5.86932C80.5627 5.67424 80.897 5.5767 81.2777 5.5767C81.5694 5.5767 81.8336 5.63352 82.0703 5.74716C82.3071 5.8589 82.5021 6.01705 82.6555 6.22159C82.8108 6.42424 82.9084 6.66098 82.9482 6.93182H82.4368C82.3838 6.68561 82.2559 6.47538 82.0533 6.30114C81.8525 6.125 81.5968 6.03693 81.2862 6.03693C81.0078 6.03693 80.7616 6.11269 80.5476 6.2642C80.3336 6.41383 80.166 6.62311 80.0447 6.89205C79.9254 7.15909 79.8658 7.46875 79.8658 7.82102C79.8658 8.17519 79.9245 8.48864 80.0419 8.76136C80.1593 9.0322 80.3241 9.24432 80.5362 9.39773C80.7502 9.55114 81.0002 9.62784 81.2862 9.62784C81.4794 9.62784 81.6555 9.59186 81.8146 9.51989C81.9756 9.44602 82.1101 9.34186 82.218 9.20739C82.3279 9.07292 82.4018 8.91288 82.4396 8.72727H82.951C82.9131 8.99053 82.8194 9.22538 82.6697 9.43182C82.522 9.63636 82.3298 9.79735 82.093 9.91477C81.8582 10.0322 81.5893 10.0909 81.2862 10.0909ZM85.7308 10.0909C85.3539 10.0909 85.0206 9.99527 84.7308 9.80398C84.4429 9.61269 84.2176 9.34848 84.0547 9.01136C83.8918 8.67235 83.8104 8.28125 83.8104 7.83807C83.8104 7.3911 83.8918 6.99811 84.0547 6.65909C84.2176 6.31818 84.4429 6.05303 84.7308 5.86364C85.0206 5.67235 85.3539 5.5767 85.7308 5.5767C86.1077 5.5767 86.4401 5.67235 86.728 5.86364C87.0159 6.05492 87.2412 6.32008 87.4041 6.65909C87.5689 6.99811 87.6513 7.3911 87.6513 7.83807C87.6513 8.28125 87.5698 8.67235 87.407 9.01136C87.2441 9.34848 87.0178 9.61269 86.728 9.80398C86.4401 9.99527 86.1077 10.0909 85.7308 10.0909ZM85.7308 9.62784C86.0339 9.62784 86.2905 9.5464 86.5007 9.38352C86.7109 9.22064 86.87 9.00379 86.978 8.73295C87.0878 8.46212 87.1428 8.16383 87.1428 7.83807C87.1428 7.51231 87.0878 7.21307 86.978 6.94034C86.87 6.66761 86.7109 6.44886 86.5007 6.28409C86.2905 6.11932 86.0339 6.03693 85.7308 6.03693C85.4297 6.03693 85.1731 6.11932 84.9609 6.28409C84.7507 6.44886 84.5907 6.66761 84.4808 6.94034C84.3729 7.21307 84.3189 7.51231 84.3189 7.83807C84.3189 8.16383 84.3729 8.46212 84.4808 8.73295C84.5907 9.00379 84.7507 9.22064 84.9609 9.38352C85.1712 9.5464 85.4278 9.62784 85.7308 9.62784ZM88.7614 10V5.63636H89.2528V6.30682H89.2983C89.3854 6.08144 89.5303 5.90436 89.733 5.77557C89.9375 5.64489 90.1828 5.57955 90.4688 5.57955C90.7699 5.57955 91.017 5.65057 91.2102 5.79261C91.4053 5.93277 91.5511 6.12595 91.6477 6.37216H91.6847C91.7831 6.12973 91.9432 5.9375 92.1648 5.79545C92.3883 5.65152 92.6591 5.57955 92.9773 5.57955C93.3826 5.57955 93.7027 5.70739 93.9375 5.96307C94.1723 6.21686 94.2898 6.58807 94.2898 7.0767V10H93.7841V7.0767C93.7841 6.73201 93.696 6.47348 93.5199 6.30114C93.3438 6.12879 93.1117 6.04261 92.8239 6.04261C92.4905 6.04261 92.2339 6.14489 92.054 6.34943C91.8741 6.55398 91.7841 6.81345 91.7841 7.12784V10H91.267V7.03125C91.267 6.7358 91.1847 6.49716 91.0199 6.31534C90.8551 6.13352 90.6231 6.04261 90.3239 6.04261C90.1231 6.04261 89.9422 6.09186 89.7812 6.19034C89.6222 6.28883 89.4962 6.42614 89.4034 6.60227C89.3125 6.77652 89.267 6.97727 89.267 7.20455V10H88.7614Z" fill="black"/>
<path d="M487.75 12.1193C487.108 12.1193 486.561 11.9446 486.109 11.5952C485.658 11.2429 485.313 10.733 485.074 10.0653C484.835 9.39489 484.716 8.58523 484.716 7.63636C484.716 6.69318 484.835 5.88778 485.074 5.22017C485.315 4.54972 485.662 4.03835 486.114 3.68608C486.568 3.33097 487.114 3.15341 487.75 3.15341C488.386 3.15341 488.93 3.33097 489.382 3.68608C489.837 4.03835 490.183 4.54972 490.422 5.22017C490.663 5.88778 490.784 6.69318 490.784 7.63636C490.784 8.58523 490.665 9.39489 490.426 10.0653C490.188 10.733 489.842 11.2429 489.391 11.5952C488.939 11.9446 488.392 12.1193 487.75 12.1193ZM487.75 11.1818C488.386 11.1818 488.881 10.875 489.233 10.2614C489.585 9.64773 489.761 8.77273 489.761 7.63636C489.761 6.88068 489.68 6.23722 489.518 5.70597C489.359 5.17472 489.129 4.76989 488.828 4.49148C488.53 4.21307 488.17 4.07386 487.75 4.07386C487.119 4.07386 486.626 4.38494 486.271 5.0071C485.916 5.62642 485.739 6.50284 485.739 7.63636C485.739 8.39205 485.818 9.03409 485.977 9.5625C486.136 10.0909 486.365 10.4929 486.663 10.7685C486.964 11.044 487.327 11.1818 487.75 11.1818ZM492.403 12V11.233L495.284 8.07955C495.622 7.71023 495.901 7.3892 496.119 7.11648C496.338 6.84091 496.5 6.58239 496.605 6.34091C496.713 6.09659 496.767 5.84091 496.767 5.57386C496.767 5.26705 496.693 5.00142 496.545 4.77699C496.401 4.55256 496.202 4.37926 495.949 4.2571C495.696 4.13494 495.412 4.07386 495.097 4.07386C494.761 4.07386 494.469 4.14347 494.219 4.28267C493.972 4.41903 493.78 4.6108 493.643 4.85795C493.51 5.10511 493.443 5.39489 493.443 5.72727H492.438C492.438 5.21591 492.555 4.76705 492.791 4.38068C493.027 3.99432 493.348 3.69318 493.754 3.47727C494.163 3.26136 494.622 3.15341 495.131 3.15341C495.642 3.15341 496.095 3.26136 496.49 3.47727C496.885 3.69318 497.195 3.98437 497.419 4.35085C497.643 4.71733 497.756 5.125 497.756 5.57386C497.756 5.89489 497.697 6.20881 497.581 6.51562C497.467 6.8196 497.268 7.15909 496.984 7.53409C496.703 7.90625 496.312 8.3608 495.812 8.89773L493.852 10.9943V11.0625H497.909V12H492.403Z" fill="black"/>
</svg>
