<svg width="14" height="9" viewBox="0 0 14 9" fill="none" xmlns="http://www.w3.org/2000/svg">
<path d="M3.03418 8.966C2.39213 8.966 1.84526 8.79128 1.39355 8.44185C0.94185 8.08958 0.59668 7.57963 0.358043 6.91202C0.119407 6.24157 8.88109e-05 5.43191 8.88109e-05 4.48304C8.88109e-05 3.53986 0.119407 2.73446 0.358043 2.06685C0.599521 1.3964 0.946112 0.885032 1.39782 0.532759C1.85236 0.177645 2.39782 8.84533e-05 3.03418 8.84533e-05C3.67054 8.84533e-05 4.21458 0.177645 4.66628 0.532759C5.12083 0.885032 5.46742 1.3964 5.70605 2.06685C5.94753 2.73446 6.06827 3.53986 6.06827 4.48304C6.06827 5.43191 5.94895 6.24157 5.71032 6.91202C5.47168 7.57963 5.12651 8.08958 4.6748 8.44185C4.2231 8.79128 3.67623 8.966 3.03418 8.966ZM3.03418 8.0285C3.67054 8.0285 4.16486 7.72168 4.51713 7.10804C4.86941 6.49441 5.04554 5.61941 5.04554 4.48304C5.04554 3.72736 4.96458 3.0839 4.80265 2.55265C4.64355 2.0214 4.41344 1.61657 4.1123 1.33816C3.81401 1.05975 3.45463 0.920543 3.03418 0.920543C2.4035 0.920543 1.9106 1.23162 1.55549 1.85378C1.20037 2.4731 1.02282 3.34952 1.02282 4.48304C1.02282 5.23872 1.10236 5.88077 1.26145 6.40918C1.42054 6.93759 1.64924 7.33958 1.94753 7.61515C2.24867 7.89071 2.61088 8.0285 3.03418 8.0285ZM7.68759 8.84668V8.07963L10.5683 4.92622C10.9063 4.55691 11.1847 4.23588 11.4035 3.96316C11.6222 3.68759 11.7842 3.42907 11.8893 3.18759C11.9972 2.94327 12.0512 2.68759 12.0512 2.42054C12.0512 2.11373 11.9774 1.8481 11.8296 1.62367C11.6847 1.39924 11.4859 1.22594 11.233 1.10378C10.9802 0.981623 10.6961 0.920543 10.3808 0.920543C10.0455 0.920543 9.75293 0.990145 9.50293 1.12935C9.25577 1.26571 9.06401 1.45747 8.92765 1.70463C8.79412 1.95179 8.72736 2.24157 8.72736 2.57395H7.72168C7.72168 2.06259 7.83958 1.61372 8.07537 1.22736C8.31117 0.840997 8.63219 0.539861 9.03844 0.323952C9.44753 0.108043 9.90634 8.84533e-05 10.4149 8.84533e-05C10.9262 8.84533e-05 11.3794 0.108043 11.7742 0.323952C12.1691 0.539861 12.4788 0.831054 12.7032 1.19753C12.9276 1.56401 13.0399 1.97168 13.0399 2.42054C13.0399 2.74157 12.9816 3.05549 12.8651 3.3623C12.7515 3.66628 12.5526 4.00577 12.2686 4.38077C11.9873 4.75293 11.5967 5.20747 11.0967 5.74441L9.13645 7.841V7.90918H13.1933V8.84668H7.68759Z" fill="black"/>
</svg>
