<svg width="14" height="9" viewBox="0 0 14 9" fill="none" xmlns="http://www.w3.org/2000/svg">
<path d="M3.03418 8.966C2.39213 8.966 1.84526 8.79128 1.39355 8.44185C0.94185 8.08958 0.59668 7.57963 0.358043 6.91202C0.119407 6.24157 8.88109e-05 5.43191 8.88109e-05 4.48304C8.88109e-05 3.53986 0.119407 2.73446 0.358043 2.06685C0.599521 1.3964 0.946112 0.885032 1.39782 0.532759C1.85236 0.177645 2.39782 8.84533e-05 3.03418 8.84533e-05C3.67054 8.84533e-05 4.21458 0.177645 4.66628 0.532759C5.12083 0.885032 5.46742 1.3964 5.70605 2.06685C5.94753 2.73446 6.06827 3.53986 6.06827 4.48304C6.06827 5.43191 5.94895 6.24157 5.71032 6.91202C5.47168 7.57963 5.12651 8.08958 4.6748 8.44185C4.2231 8.79128 3.67623 8.966 3.03418 8.966ZM3.03418 8.0285C3.67054 8.0285 4.16486 7.72168 4.51713 7.10804C4.86941 6.49441 5.04554 5.61941 5.04554 4.48304C5.04554 3.72736 4.96458 3.0839 4.80265 2.55265C4.64355 2.0214 4.41344 1.61657 4.1123 1.33816C3.81401 1.05975 3.45463 0.920543 3.03418 0.920543C2.4035 0.920543 1.9106 1.23162 1.55549 1.85378C1.20037 2.4731 1.02282 3.34952 1.02282 4.48304C1.02282 5.23872 1.10236 5.88077 1.26145 6.40918C1.42054 6.93759 1.64924 7.33958 1.94753 7.61515C2.24867 7.89071 2.61088 8.0285 3.03418 8.0285ZM10.6365 8.966C10.074 8.966 9.57253 8.86941 9.13219 8.67623C8.69469 8.48304 8.34668 8.21458 8.08816 7.87083C7.83248 7.52424 7.69327 7.12225 7.67054 6.66486H8.74441C8.76713 6.94611 8.86373 7.18901 9.03418 7.39355C9.20463 7.59526 9.42765 7.75151 9.70321 7.8623C9.97878 7.9731 10.2842 8.0285 10.6194 8.0285C10.9944 8.0285 11.3268 7.96316 11.6166 7.83248C11.9063 7.70179 12.1336 7.51998 12.2984 7.28702C12.4632 7.05407 12.5455 6.78418 12.5455 6.47736C12.5455 6.15634 12.466 5.87367 12.3069 5.62935C12.1478 5.38219 11.9149 5.18901 11.608 5.0498C11.3012 4.9106 10.9262 4.841 10.483 4.841H9.78418V3.9035H10.483C10.8296 3.9035 11.1336 3.841 11.395 3.716C11.6592 3.591 11.8651 3.41486 12.0129 3.18759C12.1634 2.96032 12.2387 2.69327 12.2387 2.38645C12.2387 2.091 12.1734 1.8339 12.0427 1.61515C11.912 1.3964 11.7274 1.22594 11.4887 1.10378C11.2529 0.981623 10.9745 0.920543 10.6535 0.920543C10.3524 0.920543 10.0683 0.975941 9.80123 1.08674C9.53702 1.19469 9.32111 1.35236 9.1535 1.55975C8.98588 1.76429 8.89498 2.01145 8.88077 2.30122H7.85804C7.87509 1.84384 8.01287 1.44327 8.2714 1.09952C8.52992 0.752929 8.86799 0.483043 9.2856 0.289861C9.70605 0.0966794 10.1677 8.84533e-05 10.6705 8.84533e-05C11.2103 8.84533e-05 11.6734 0.109463 12.0597 0.328213C12.4461 0.544122 12.743 0.829634 12.9504 1.18475C13.1578 1.53986 13.2615 1.92338 13.2615 2.33532C13.2615 2.82679 13.1322 3.24583 12.8737 3.59242C12.618 3.93901 12.27 4.17907 11.8296 4.31259V4.38077C12.3808 4.47168 12.8112 4.70605 13.1208 5.0839C13.4305 5.4589 13.5853 5.92338 13.5853 6.47736C13.5853 6.95179 13.4561 7.37793 13.1975 7.75577C12.9419 8.13077 12.5924 8.42623 12.1492 8.64213C11.7061 8.85804 11.2018 8.966 10.6365 8.966Z" fill="white"/>
</svg>
