<svg width="14" height="9" viewBox="0 0 14 9" fill="none" xmlns="http://www.w3.org/2000/svg">
<path d="M3.03418 8.966C2.39213 8.966 1.84526 8.79128 1.39355 8.44185C0.94185 8.08958 0.59668 7.57963 0.358043 6.91202C0.119407 6.24157 8.88109e-05 5.43191 8.88109e-05 4.48304C8.88109e-05 3.53986 0.119407 2.73446 0.358043 2.06685C0.599521 1.3964 0.946112 0.885032 1.39782 0.532759C1.85236 0.177645 2.39782 8.84533e-05 3.03418 8.84533e-05C3.67054 8.84533e-05 4.21458 0.177645 4.66628 0.532759C5.12083 0.885032 5.46742 1.3964 5.70605 2.06685C5.94753 2.73446 6.06827 3.53986 6.06827 4.48304C6.06827 5.43191 5.94895 6.24157 5.71032 6.91202C5.47168 7.57963 5.12651 8.08958 4.6748 8.44185C4.2231 8.79128 3.67623 8.966 3.03418 8.966ZM3.03418 8.0285C3.67054 8.0285 4.16486 7.72168 4.51713 7.10804C4.86941 6.49441 5.04554 5.61941 5.04554 4.48304C5.04554 3.72736 4.96458 3.0839 4.80265 2.55265C4.64355 2.0214 4.41344 1.61657 4.1123 1.33816C3.81401 1.05975 3.45463 0.920543 3.03418 0.920543C2.4035 0.920543 1.9106 1.23162 1.55549 1.85378C1.20037 2.4731 1.02282 3.34952 1.02282 4.48304C1.02282 5.23872 1.10236 5.88077 1.26145 6.40918C1.42054 6.93759 1.64924 7.33958 1.94753 7.61515C2.24867 7.89071 2.61088 8.0285 3.03418 8.0285ZM7.48304 7.05691V6.18759L11.3183 0.119407H11.949V1.466H11.5228L8.62509 6.05123V6.11941H13.7899V7.05691H7.48304ZM11.591 8.84668V6.7927V6.38787V0.119407H12.5967V8.84668H11.591Z" fill="black"/>
</svg>
