<svg width="14" height="9" viewBox="0 0 14 9" fill="none" xmlns="http://www.w3.org/2000/svg">
<path d="M3.03418 8.966C2.39213 8.966 1.84526 8.79128 1.39355 8.44185C0.94185 8.08958 0.59668 7.57963 0.358043 6.91202C0.119407 6.24157 8.88109e-05 5.43191 8.88109e-05 4.48304C8.88109e-05 3.53986 0.119407 2.73446 0.358043 2.06685C0.599521 1.3964 0.946112 0.885032 1.39782 0.532759C1.85236 0.177645 2.39782 8.84533e-05 3.03418 8.84533e-05C3.67054 8.84533e-05 4.21458 0.177645 4.66628 0.532759C5.12083 0.885032 5.46742 1.3964 5.70605 2.06685C5.94753 2.73446 6.06827 3.53986 6.06827 4.48304C6.06827 5.43191 5.94895 6.24157 5.71032 6.91202C5.47168 7.57963 5.12651 8.08958 4.6748 8.44185C4.2231 8.79128 3.67623 8.966 3.03418 8.966ZM3.03418 8.0285C3.67054 8.0285 4.16486 7.72168 4.51713 7.10804C4.86941 6.49441 5.04554 5.61941 5.04554 4.48304C5.04554 3.72736 4.96458 3.0839 4.80265 2.55265C4.64355 2.0214 4.41344 1.61657 4.1123 1.33816C3.81401 1.05975 3.45463 0.920543 3.03418 0.920543C2.4035 0.920543 1.9106 1.23162 1.55549 1.85378C1.20037 2.4731 1.02282 3.34952 1.02282 4.48304C1.02282 5.23872 1.10236 5.88077 1.26145 6.40918C1.42054 6.93759 1.64924 7.33958 1.94753 7.61515C2.24867 7.89071 2.61088 8.0285 3.03418 8.0285ZM10.4149 8.966C9.91486 8.966 9.46458 8.86657 9.06401 8.6677C8.66344 8.46884 8.34242 8.19611 8.10094 7.84952C7.85946 7.50293 7.72736 7.10804 7.70463 6.66486H8.72736C8.76713 7.05975 8.94611 7.38645 9.26429 7.64498C9.58532 7.90066 9.96884 8.0285 10.4149 8.0285C10.7728 8.0285 11.091 7.94469 11.3694 7.77708C11.6507 7.60946 11.8708 7.37935 12.0299 7.08674C12.1919 6.79128 12.2728 6.45748 12.2728 6.08532C12.2728 5.70463 12.189 5.36515 12.0214 5.06685C11.8566 4.76571 11.6294 4.5285 11.3396 4.3552C11.0498 4.18191 10.7188 4.09384 10.3467 4.091C10.0796 4.08816 9.80549 4.12935 9.52424 4.21458C9.24299 4.29696 9.01145 4.4035 8.82963 4.53418L7.841 4.41486L8.36941 0.119407H12.9035V1.05691H9.25577L8.94895 3.63077H9.00009C9.17907 3.48873 9.4035 3.37083 9.67338 3.27708C9.94327 3.18333 10.2245 3.13645 10.5171 3.13645C11.0512 3.13645 11.5271 3.26429 11.9447 3.51997C12.3651 3.77282 12.6947 4.11941 12.9333 4.55975C13.1748 5.00009 13.2955 5.50293 13.2955 6.06827C13.2955 6.62509 13.1705 7.12225 12.9205 7.55975C12.6734 7.99441 12.3325 8.33816 11.8978 8.591C11.4632 8.841 10.9688 8.966 10.4149 8.966Z" fill="white"/>
</svg>
