<svg width="14" height="9" viewBox="0 0 14 9" fill="none" xmlns="http://www.w3.org/2000/svg">
<path d="M3.03418 8.966C2.39213 8.966 1.84526 8.79128 1.39355 8.44185C0.94185 8.08958 0.59668 7.57963 0.358043 6.91202C0.119407 6.24157 8.88109e-05 5.43191 8.88109e-05 4.48304C8.88109e-05 3.53986 0.119407 2.73446 0.358043 2.06685C0.599521 1.3964 0.946112 0.885032 1.39782 0.532759C1.85236 0.177645 2.39782 8.84533e-05 3.03418 8.84533e-05C3.67054 8.84533e-05 4.21458 0.177645 4.66628 0.532759C5.12083 0.885032 5.46742 1.3964 5.70605 2.06685C5.94753 2.73446 6.06827 3.53986 6.06827 4.48304C6.06827 5.43191 5.94895 6.24157 5.71032 6.91202C5.47168 7.57963 5.12651 8.08958 4.6748 8.44185C4.2231 8.79128 3.67623 8.966 3.03418 8.966ZM3.03418 8.0285C3.67054 8.0285 4.16486 7.72168 4.51713 7.10804C4.86941 6.49441 5.04554 5.61941 5.04554 4.48304C5.04554 3.72736 4.96458 3.0839 4.80265 2.55265C4.64355 2.0214 4.41344 1.61657 4.1123 1.33816C3.81401 1.05975 3.45463 0.920543 3.03418 0.920543C2.4035 0.920543 1.9106 1.23162 1.55549 1.85378C1.20037 2.4731 1.02282 3.34952 1.02282 4.48304C1.02282 5.23872 1.10236 5.88077 1.26145 6.40918C1.42054 6.93759 1.64924 7.33958 1.94753 7.61515C2.24867 7.89071 2.61088 8.0285 3.03418 8.0285ZM10.5853 8.966C10.2274 8.96032 9.86941 8.89213 9.51145 8.76145C9.1535 8.63077 8.82679 8.4106 8.53134 8.10094C8.23588 7.78844 7.99867 7.36657 7.81969 6.83532C7.64071 6.30123 7.55123 5.63077 7.55123 4.82395C7.55123 4.05123 7.62367 3.36657 7.76855 2.76997C7.91344 2.17054 8.12367 1.66628 8.39924 1.25719C8.6748 0.845259 9.00719 0.532759 9.3964 0.31969C9.78844 0.106622 10.2302 8.84533e-05 10.7217 8.84533e-05C11.2103 8.84533e-05 11.645 0.0980999 12.0257 0.294123C12.4092 0.487304 12.7217 0.757191 12.9632 1.10378C13.2046 1.45037 13.3609 1.84952 13.4319 2.30122H12.3921C12.2955 1.90918 12.108 1.5839 11.8296 1.32537C11.5512 1.06685 11.1819 0.937588 10.7217 0.937588C10.0455 0.937588 9.51287 1.23162 9.12367 1.81969C8.7373 2.40776 8.5427 3.23304 8.53986 4.29554H8.60804C8.76713 4.05407 8.95605 3.8481 9.1748 3.67765C9.3964 3.50435 9.64071 3.37083 9.90776 3.27708C10.1748 3.18333 10.4575 3.13645 10.7558 3.13645C11.2558 3.13645 11.7132 3.26145 12.1279 3.51145C12.5427 3.75861 12.8751 4.10094 13.1251 4.53844C13.3751 4.9731 13.5001 5.47168 13.5001 6.03418C13.5001 6.57395 13.3794 7.06827 13.1379 7.51713C12.8964 7.96316 12.5569 8.31827 12.1194 8.58248C11.6847 8.84384 11.1734 8.97168 10.5853 8.966ZM10.5853 8.0285C10.9433 8.0285 11.2643 7.93901 11.5484 7.76003C11.8353 7.58105 12.0612 7.341 12.2259 7.03986C12.3936 6.73873 12.4774 6.4035 12.4774 6.03418C12.4774 5.67338 12.3964 5.34526 12.2345 5.0498C12.0754 4.75151 11.8552 4.51429 11.574 4.33816C11.2955 4.16202 10.9774 4.07395 10.6194 4.07395C10.3495 4.07395 10.0981 4.12793 9.86515 4.23588C9.63219 4.341 9.42765 4.48588 9.25151 4.67054C9.07821 4.8552 8.94185 5.06685 8.84242 5.30549C8.74299 5.54128 8.69327 5.78986 8.69327 6.05123C8.69327 6.39782 8.77424 6.72168 8.93617 7.02282C9.10094 7.32395 9.32537 7.56685 9.60946 7.75151C9.8964 7.93617 10.2217 8.0285 10.5853 8.0285Z" fill="black"/>
</svg>
