<svg width="94" height="8" viewBox="0 0 94 8" fill="none" xmlns="http://www.w3.org/2000/svg">
<path d="M1.318 5.81836L-0.000177562 1.45472H0.533913L1.568 5.05415H1.60494L2.63619 1.45472H3.17312L4.19585 5.04563H4.23562L5.26971 1.45472H5.8038L4.48562 5.81836H3.96289L2.9288 2.24165H2.87482L1.84073 5.81836H1.318ZM7.7555 5.81836L6.43732 1.45472H6.97141L8.0055 5.05415H8.04244L9.07369 1.45472H9.61062L10.6333 5.04563H10.6731L11.7072 1.45472H12.2413L10.9231 5.81836H10.4004L9.3663 2.24165H9.31232L8.27823 5.81836H7.7555ZM14.193 5.81836L12.8748 1.45472H13.4089L14.443 5.05415H14.4799L15.5112 1.45472H16.0481L17.0708 5.04563H17.1106L18.1447 1.45472H18.6788L17.3606 5.81836H16.8379L15.8038 2.24165H15.7498L14.7157 5.81836H14.193ZM19.4714 5.86097C19.3597 5.86097 19.2631 5.8212 19.1816 5.74165C19.1021 5.66022 19.0623 5.56362 19.0623 5.45188C19.0623 5.33825 19.1021 5.24165 19.1816 5.16211C19.2631 5.08256 19.3597 5.04279 19.4714 5.04279C19.585 5.04279 19.6816 5.08256 19.7612 5.16211C19.8407 5.24165 19.8805 5.33825 19.8805 5.45188C19.8805 5.52575 19.8616 5.59393 19.8237 5.65643C19.7877 5.71893 19.7385 5.76912 19.676 5.807C19.6154 5.84298 19.5472 5.86097 19.4714 5.86097ZM21.2164 5.81836V1.45472H21.7079V2.12518H21.7449C21.832 1.90548 21.9835 1.7284 22.1994 1.59393C22.4172 1.45756 22.6634 1.38938 22.938 1.38938C22.9797 1.38938 23.0261 1.39033 23.0772 1.39222C23.1284 1.39412 23.171 1.39601 23.2051 1.3979V1.91211C23.1824 1.90832 23.1426 1.90264 23.0858 1.89506C23.0289 1.88749 22.9674 1.8837 22.9011 1.8837C22.6738 1.8837 22.4712 1.932 22.2931 2.02859C22.117 2.12328 21.9778 2.25491 21.8755 2.42347C21.7733 2.59203 21.7221 2.78427 21.7221 3.00018V5.81836H21.2164ZM24.5282 4.17063L24.5225 3.5087H24.6362L26.6816 1.45472H27.3208L25.301 3.47745L25.2555 3.48597L24.5282 4.17063ZM24.068 5.81836V0.000177383H24.5737V5.81836H24.068ZM26.7868 5.81836L25.014 3.57688L25.3777 3.22745L27.4345 5.81836H26.7868ZM28.2711 7.45472V1.45472H28.7626V2.28711H28.8223C28.8829 2.15643 28.9662 2.0229 29.0723 1.88654C29.1783 1.74828 29.3185 1.63181 29.4927 1.53711C29.6689 1.44241 29.8904 1.39506 30.1575 1.39506C30.5173 1.39506 30.8317 1.48976 31.1007 1.67915C31.3715 1.86665 31.5817 2.12991 31.7314 2.46893C31.8829 2.80605 31.9586 3.19904 31.9586 3.6479C31.9586 4.09866 31.8829 4.49355 31.7314 4.83256C31.5817 5.17158 31.3715 5.43578 31.1007 5.62518C30.8317 5.81457 30.5192 5.90927 30.1632 5.90927C29.8999 5.90927 29.6793 5.86192 29.5012 5.76722C29.3251 5.67253 29.1821 5.55605 29.0723 5.41779C28.9643 5.27764 28.881 5.14128 28.8223 5.0087H28.7768V7.45472H28.2711ZM28.7711 3.63938C28.7711 3.99165 28.8232 4.30415 28.9274 4.57688C29.0334 4.84772 29.185 5.06078 29.3819 5.21609C29.5808 5.3695 29.8213 5.4462 30.1035 5.4462C30.3933 5.4462 30.6376 5.36665 30.8365 5.20756C31.0372 5.04658 31.1897 4.82972 31.2939 4.557C31.3999 4.28427 31.4529 3.9784 31.4529 3.63938C31.4529 3.30415 31.4009 3.00207 31.2967 2.73313C31.1944 2.46419 31.0429 2.25112 30.8422 2.09393C30.6414 1.93484 30.3952 1.85529 30.1035 1.85529C29.8194 1.85529 29.5779 1.932 29.3791 2.0854C29.1802 2.23692 29.0287 2.44715 28.9245 2.71609C28.8223 2.98313 28.7711 3.2909 28.7711 3.63938ZM34.764 5.90927C34.3871 5.90927 34.0538 5.81362 33.764 5.62234C33.4761 5.43105 33.2508 5.16684 33.0879 4.82972C32.925 4.49071 32.8436 4.09961 32.8436 3.65643C32.8436 3.20946 32.925 2.81647 33.0879 2.47745C33.2508 2.13654 33.4761 1.87139 33.764 1.682C34.0538 1.49071 34.3871 1.39506 34.764 1.39506C35.1409 1.39506 35.4733 1.49071 35.7612 1.682C36.0491 1.87328 36.2744 2.13843 36.4373 2.47745C36.6021 2.81647 36.6845 3.20946 36.6845 3.65643C36.6845 4.09961 36.603 4.49071 36.4402 4.82972C36.2773 5.16684 36.051 5.43105 35.7612 5.62234C35.4733 5.81362 35.1409 5.90927 34.764 5.90927ZM34.764 5.4462C35.0671 5.4462 35.3237 5.36476 35.5339 5.20188C35.7441 5.039 35.9032 4.82215 36.0112 4.55131C36.121 4.28048 36.176 3.98219 36.176 3.65643C36.176 3.33067 36.121 3.03143 36.0112 2.7587C35.9032 2.48597 35.7441 2.26722 35.5339 2.10245C35.3237 1.93768 35.0671 1.85529 34.764 1.85529C34.4629 1.85529 34.2063 1.93768 33.9941 2.10245C33.7839 2.26722 33.6239 2.48597 33.514 2.7587C33.4061 3.03143 33.3521 3.33067 33.3521 3.65643C33.3521 3.98219 33.4061 4.28048 33.514 4.55131C33.6239 4.82215 33.7839 5.039 33.9941 5.20188C34.2044 5.36476 34.461 5.4462 34.764 5.4462ZM38.3002 0.000177383V5.81836H37.7946V0.000177383H38.3002ZM39.9906 7.45472C39.8902 7.45472 39.7965 7.44525 39.7093 7.42631C39.6222 7.40737 39.5531 7.38654 39.502 7.36381L39.6383 6.91779C39.8107 6.97082 39.9641 6.98976 40.0985 6.97461C40.233 6.96135 40.3523 6.90075 40.4565 6.79279C40.5607 6.68673 40.6535 6.52385 40.7349 6.30415L40.894 5.86097L39.2889 1.45472H39.8372L41.1326 5.15075H41.1724L42.4679 1.45472H43.0162L41.1696 6.5087C41.0919 6.71893 40.9963 6.89412 40.8826 7.03427C40.769 7.17631 40.6374 7.28143 40.4877 7.34961C40.34 7.41969 40.1743 7.45472 39.9906 7.45472ZM44.0055 7.45472V1.45472H44.497V2.28711H44.5566C44.6172 2.15643 44.7006 2.0229 44.8066 1.88654C44.9127 1.74828 45.0529 1.63181 45.2271 1.53711C45.4032 1.44241 45.6248 1.39506 45.8919 1.39506C46.2517 1.39506 46.5661 1.48976 46.835 1.67915C47.1059 1.86665 47.3161 2.12991 47.4657 2.46893C47.6172 2.80605 47.693 3.19904 47.693 3.6479C47.693 4.09866 47.6172 4.49355 47.4657 4.83256C47.3161 5.17158 47.1059 5.43578 46.835 5.62518C46.5661 5.81457 46.2536 5.90927 45.8975 5.90927C45.6343 5.90927 45.4136 5.86192 45.2356 5.76722C45.0595 5.67253 44.9165 5.55605 44.8066 5.41779C44.6987 5.27764 44.6154 5.14128 44.5566 5.0087H44.5112V7.45472H44.0055ZM44.5055 3.63938C44.5055 3.99165 44.5576 4.30415 44.6618 4.57688C44.7678 4.84772 44.9193 5.06078 45.1163 5.21609C45.3152 5.3695 45.5557 5.4462 45.8379 5.4462C46.1277 5.4462 46.372 5.36665 46.5708 5.20756C46.7716 5.04658 46.9241 4.82972 47.0282 4.557C47.1343 4.28427 47.1873 3.9784 47.1873 3.63938C47.1873 3.30415 47.1352 3.00207 47.0311 2.73313C46.9288 2.46419 46.7773 2.25112 46.5765 2.09393C46.3758 1.93484 46.1296 1.85529 45.8379 1.85529C45.5538 1.85529 45.3123 1.932 45.1135 2.0854C44.9146 2.23692 44.7631 2.44715 44.6589 2.71609C44.5566 2.98313 44.5055 3.2909 44.5055 3.63938ZM48.8024 5.81836V1.45472H49.2939V2.12518H49.3308C49.4179 1.90548 49.5694 1.7284 49.7853 1.59393C50.0031 1.45756 50.2493 1.38938 50.524 1.38938C50.5656 1.38938 50.612 1.39033 50.6632 1.39222C50.7143 1.39412 50.7569 1.39601 50.791 1.3979V1.91211C50.7683 1.90832 50.7285 1.90264 50.6717 1.89506C50.6149 1.88749 50.5533 1.8837 50.487 1.8837C50.2598 1.8837 50.0571 1.932 49.8791 2.02859C49.7029 2.12328 49.5637 2.25491 49.4615 2.42347C49.3592 2.59203 49.3081 2.78427 49.3081 3.00018V5.81836H48.8024ZM53.2172 5.90927C52.8403 5.90927 52.5069 5.81362 52.2172 5.62234C51.9293 5.43105 51.7039 5.16684 51.541 4.82972C51.3781 4.49071 51.2967 4.09961 51.2967 3.65643C51.2967 3.20946 51.3781 2.81647 51.541 2.47745C51.7039 2.13654 51.9293 1.87139 52.2172 1.682C52.5069 1.49071 52.8403 1.39506 53.2172 1.39506C53.594 1.39506 53.9264 1.49071 54.2143 1.682C54.5022 1.87328 54.7276 2.13843 54.8904 2.47745C55.0552 2.81647 55.1376 3.20946 55.1376 3.65643C55.1376 4.09961 55.0562 4.49071 54.8933 4.82972C54.7304 5.16684 54.5041 5.43105 54.2143 5.62234C53.9264 5.81362 53.594 5.90927 53.2172 5.90927ZM53.2172 5.4462C53.5202 5.4462 53.7768 5.36476 53.987 5.20188C54.1973 5.039 54.3564 4.82215 54.4643 4.55131C54.5742 4.28048 54.6291 3.98219 54.6291 3.65643C54.6291 3.33067 54.5742 3.03143 54.4643 2.7587C54.3564 2.48597 54.1973 2.26722 53.987 2.10245C53.7768 1.93768 53.5202 1.85529 53.2172 1.85529C52.916 1.85529 52.6594 1.93768 52.4473 2.10245C52.237 2.26722 52.077 2.48597 51.9672 2.7587C51.8592 3.03143 51.8052 3.33067 51.8052 3.65643C51.8052 3.98219 51.8592 4.28048 51.9672 4.55131C52.077 4.82215 52.237 5.039 52.4473 5.20188C52.6575 5.36476 52.9141 5.4462 53.2172 5.4462ZM57.8187 5.90927C57.4608 5.90927 57.1473 5.81457 56.8784 5.62518C56.6094 5.43578 56.3992 5.17158 56.2477 4.83256C56.0981 4.49355 56.0233 4.09866 56.0233 3.6479C56.0233 3.19904 56.0981 2.80605 56.2477 2.46893C56.3992 2.12991 56.6104 1.86665 56.8812 1.67915C57.152 1.48976 57.4674 1.39506 57.8272 1.39506C58.0924 1.39506 58.313 1.44241 58.4892 1.53711C58.6653 1.62991 58.8064 1.74544 58.9125 1.8837C59.0185 2.02196 59.1009 2.15643 59.1596 2.28711H59.2051V0.000177383H59.7136V5.81836H59.2193V5.0087H59.1596C59.1009 5.14128 59.0176 5.27764 58.9096 5.41779C58.8017 5.55605 58.6587 5.67253 58.4806 5.76722C58.3045 5.86192 58.0839 5.90927 57.8187 5.90927ZM57.8784 5.4462C58.1606 5.4462 58.4011 5.3695 58.6 5.21609C58.7988 5.06078 58.9503 4.84772 59.0545 4.57688C59.1606 4.30415 59.2136 3.99165 59.2136 3.63938C59.2136 3.2909 59.1615 2.98313 59.0574 2.71609C58.9532 2.44715 58.8017 2.23692 58.6028 2.0854C58.4039 1.932 58.1625 1.85529 57.8784 1.85529C57.5867 1.85529 57.3405 1.93484 57.1397 2.09393C56.9409 2.25112 56.7894 2.46419 56.6852 2.73313C56.5829 3.00207 56.5318 3.30415 56.5318 3.63938C56.5318 3.9784 56.5839 4.28427 56.688 4.557C56.7922 4.82972 56.9437 5.04658 57.1426 5.20756C57.3433 5.36665 57.5886 5.4462 57.8784 5.4462ZM63.9267 4.15075V1.45472H64.4324V5.81836H63.9267V5.09393H63.8869C63.7846 5.31741 63.6227 5.50397 63.4011 5.65359C63.1795 5.80131 62.9087 5.87518 62.5886 5.87518C62.3102 5.87518 62.063 5.81457 61.8471 5.69336C61.6312 5.57025 61.4617 5.39033 61.3386 5.15359C61.2155 4.91684 61.1539 4.62612 61.1539 4.28143V1.45472H61.6596V4.25018C61.6596 4.59109 61.76 4.86571 61.9608 5.07404C62.1615 5.28048 62.4191 5.3837 62.7335 5.3837C62.9305 5.3837 63.1199 5.33635 63.3017 5.24165C63.4835 5.14696 63.6331 5.0087 63.7505 4.82688C63.868 4.64317 63.9267 4.41779 63.9267 4.15075ZM67.4757 5.90927C67.0855 5.90927 66.7456 5.81173 66.4558 5.61665C66.1679 5.42158 65.9444 5.15453 65.7853 4.81552C65.6262 4.4765 65.5467 4.09014 65.5467 3.65643C65.5467 3.21893 65.6272 2.82972 65.7882 2.48881C65.9511 2.1479 66.1764 1.88086 66.4643 1.68768C66.7522 1.4926 67.0865 1.39506 67.4672 1.39506C67.7588 1.39506 68.023 1.45188 68.2598 1.56552C68.4965 1.67726 68.6916 1.8354 68.845 2.03995C69.0003 2.2426 69.0978 2.47934 69.1376 2.75018H68.6262C68.5732 2.50397 68.4454 2.29374 68.2427 2.1195C68.042 1.94336 67.7863 1.85529 67.4757 1.85529C67.1973 1.85529 66.9511 1.93105 66.737 2.08256C66.523 2.23219 66.3554 2.44147 66.2342 2.7104C66.1149 2.97745 66.0552 3.28711 66.0552 3.63938C66.0552 3.99355 66.1139 4.307 66.2314 4.57972C66.3488 4.85056 66.5136 5.06268 66.7257 5.21609C66.9397 5.3695 67.1897 5.4462 67.4757 5.4462C67.6689 5.4462 67.845 5.41022 68.0041 5.33825C68.1651 5.26438 68.2995 5.16022 68.4075 5.02575C68.5173 4.89128 68.5912 4.73124 68.6291 4.54563H69.1404C69.1026 4.80889 69.0088 5.04374 68.8592 5.25018C68.7115 5.45472 68.5192 5.61571 68.2825 5.73313C68.0476 5.85056 67.7787 5.90927 67.4757 5.90927ZM71.943 1.45472V1.89506H69.8606V1.45472H71.943ZM70.5112 0.409268H71.0197V4.67915C71.0197 4.86097 71.051 5.00397 71.1135 5.10813C71.176 5.2104 71.2574 5.28332 71.3578 5.32688C71.4582 5.36855 71.5652 5.38938 71.6788 5.38938C71.7451 5.38938 71.8019 5.38559 71.8493 5.37802C71.8966 5.36855 71.9383 5.35908 71.9743 5.34961L72.0822 5.807C72.033 5.82594 71.9724 5.84298 71.9004 5.85813C71.8284 5.87518 71.7394 5.8837 71.6333 5.8837C71.4477 5.8837 71.2688 5.84298 71.0964 5.76154C70.926 5.6801 70.7858 5.55889 70.676 5.3979C70.5661 5.23692 70.5112 5.03711 70.5112 4.79847V0.409268ZM75.9451 2.41211L75.4821 2.54279C75.4366 2.41211 75.3722 2.29374 75.2889 2.18768C75.2056 2.08162 75.0967 1.99734 74.9622 1.93484C74.8296 1.87234 74.6648 1.84109 74.4679 1.84109C74.1724 1.84109 73.93 1.91116 73.7406 2.05131C73.5512 2.19147 73.4565 2.37234 73.4565 2.59393C73.4565 2.78143 73.5209 2.93389 73.6497 3.05131C73.7804 3.16684 73.9811 3.2587 74.252 3.32688L74.911 3.48881C75.2766 3.57783 75.5502 3.71893 75.7321 3.91211C75.9158 4.10529 76.0076 4.34772 76.0076 4.63938C76.0076 4.88559 75.9395 5.10434 75.8031 5.29563C75.6667 5.48692 75.4764 5.63749 75.2321 5.74734C74.9896 5.85529 74.7084 5.90927 74.3883 5.90927C73.9622 5.90927 73.6109 5.81362 73.3343 5.62234C73.0578 5.42915 72.8807 5.15075 72.8031 4.78711L73.2889 4.66779C73.3514 4.92726 73.4735 5.12328 73.6554 5.25586C73.8391 5.38844 74.0806 5.45472 74.3798 5.45472C74.715 5.45472 74.983 5.37991 75.1838 5.23029C75.3845 5.07878 75.4849 4.88938 75.4849 4.66211C75.4849 4.48597 75.4262 4.33825 75.3088 4.21893C75.1913 4.09772 75.0133 4.0087 74.7747 3.95188L74.0616 3.78143C73.6828 3.69052 73.4025 3.54658 73.2207 3.34961C73.0389 3.15264 72.948 2.90832 72.948 2.61665C72.948 2.37612 73.0133 2.16495 73.144 1.98313C73.2747 1.79942 73.4546 1.65548 73.6838 1.55131C73.9129 1.44715 74.1743 1.39506 74.4679 1.39506C74.8675 1.39506 75.1866 1.48597 75.4252 1.66779C75.6658 1.84772 75.8391 2.09582 75.9451 2.41211ZM77.5183 5.86097C77.4065 5.86097 77.31 5.8212 77.2285 5.74165C77.149 5.66022 77.1092 5.56362 77.1092 5.45188C77.1092 5.33825 77.149 5.24165 77.2285 5.16211C77.31 5.08256 77.4065 5.04279 77.5183 5.04279C77.6319 5.04279 77.7285 5.08256 77.8081 5.16211C77.8876 5.24165 77.9274 5.33825 77.9274 5.45188C77.9274 5.52575 77.9084 5.59393 77.8706 5.65643C77.8346 5.71893 77.7853 5.76912 77.7228 5.807C77.6622 5.84298 77.594 5.86097 77.5183 5.86097ZM80.9679 5.90927C80.5777 5.90927 80.2377 5.81173 79.948 5.61665C79.6601 5.42158 79.4366 5.15453 79.2775 4.81552C79.1184 4.4765 79.0389 4.09014 79.0389 3.65643C79.0389 3.21893 79.1194 2.82972 79.2804 2.48881C79.4432 2.1479 79.6686 1.88086 79.9565 1.68768C80.2444 1.4926 80.5787 1.39506 80.9593 1.39506C81.251 1.39506 81.5152 1.45188 81.752 1.56552C81.9887 1.67726 82.1838 1.8354 82.3372 2.03995C82.4925 2.2426 82.59 2.47934 82.6298 2.75018H82.1184C82.0654 2.50397 81.9376 2.29374 81.7349 2.1195C81.5342 1.94336 81.2785 1.85529 80.9679 1.85529C80.6895 1.85529 80.4432 1.93105 80.2292 2.08256C80.0152 2.23219 79.8476 2.44147 79.7264 2.7104C79.6071 2.97745 79.5474 3.28711 79.5474 3.63938C79.5474 3.99355 79.6061 4.307 79.7235 4.57972C79.841 4.85056 80.0057 5.06268 80.2179 5.21609C80.4319 5.3695 80.6819 5.4462 80.9679 5.4462C81.161 5.4462 81.3372 5.41022 81.4963 5.33825C81.6573 5.26438 81.7917 5.16022 81.8997 5.02575C82.0095 4.89128 82.0834 4.73124 82.1213 4.54563H82.6326C82.5948 4.80889 82.501 5.04374 82.3514 5.25018C82.2037 5.45472 82.0114 5.61571 81.7747 5.73313C81.5398 5.85056 81.2709 5.90927 80.9679 5.90927ZM85.4125 5.90927C85.0356 5.90927 84.7022 5.81362 84.4125 5.62234C84.1246 5.43105 83.8992 5.16684 83.7363 4.82972C83.5734 4.49071 83.492 4.09961 83.492 3.65643C83.492 3.20946 83.5734 2.81647 83.7363 2.47745C83.8992 2.13654 84.1246 1.87139 84.4125 1.682C84.7022 1.49071 85.0356 1.39506 85.4125 1.39506C85.7894 1.39506 86.1217 1.49071 86.4096 1.682C86.6975 1.87328 86.9229 2.13843 87.0858 2.47745C87.2505 2.81647 87.3329 3.20946 87.3329 3.65643C87.3329 4.09961 87.2515 4.49071 87.0886 4.82972C86.9257 5.16684 86.6994 5.43105 86.4096 5.62234C86.1217 5.81362 85.7894 5.90927 85.4125 5.90927ZM85.4125 5.4462C85.7155 5.4462 85.9721 5.36476 86.1824 5.20188C86.3926 5.039 86.5517 4.82215 86.6596 4.55131C86.7695 4.28048 86.8244 3.98219 86.8244 3.65643C86.8244 3.33067 86.7695 3.03143 86.6596 2.7587C86.5517 2.48597 86.3926 2.26722 86.1824 2.10245C85.9721 1.93768 85.7155 1.85529 85.4125 1.85529C85.1113 1.85529 84.8547 1.93768 84.6426 2.10245C84.4324 2.26722 84.2723 2.48597 84.1625 2.7587C84.0545 3.03143 84.0005 3.33067 84.0005 3.65643C84.0005 3.98219 84.0545 4.28048 84.1625 4.55131C84.2723 4.82215 84.4324 5.039 84.6426 5.20188C84.8528 5.36476 85.1094 5.4462 85.4125 5.4462ZM88.443 5.81836V1.45472H88.9345V2.12518H88.9799C89.0671 1.8998 89.2119 1.72272 89.4146 1.59393C89.6191 1.46325 89.8644 1.3979 90.1504 1.3979C90.4515 1.3979 90.6987 1.46893 90.8919 1.61097C91.0869 1.75112 91.2328 1.94431 91.3294 2.19052H91.3663C91.4648 1.94809 91.6248 1.75586 91.8464 1.61381C92.0699 1.46987 92.3407 1.3979 92.6589 1.3979C93.0642 1.3979 93.3843 1.52575 93.6191 1.78143C93.854 2.03522 93.9714 2.40643 93.9714 2.89506V5.81836H93.4657V2.89506C93.4657 2.55037 93.3777 2.29184 93.2015 2.1195C93.0254 1.94715 92.7934 1.86097 92.5055 1.86097C92.1722 1.86097 91.9155 1.96325 91.7356 2.16779C91.5557 2.37234 91.4657 2.63181 91.4657 2.9462V5.81836H90.9487V2.84961C90.9487 2.55415 90.8663 2.31552 90.7015 2.1337C90.5368 1.95188 90.3047 1.86097 90.0055 1.86097C89.8047 1.86097 89.6239 1.91022 89.4629 2.0087C89.3038 2.10718 89.1779 2.2445 89.085 2.42063C88.9941 2.59487 88.9487 2.79563 88.9487 3.0229V5.81836H88.443Z" fill="black"/>
</svg>
