<svg width="162" height="37" viewBox="0 0 162 37" fill="none" xmlns="http://www.w3.org/2000/svg">
<path d="M5.88 17L3.836 13.29H3.262V17H0.868V7.172H4.886C5.66067 7.172 6.31867 7.30733 6.86 7.578C7.41067 7.84867 7.82133 8.222 8.092 8.698C8.36267 9.16467 8.498 9.68733 8.498 10.266C8.498 10.9193 8.31133 11.5027 7.938 12.016C7.574 12.5293 7.03267 12.8933 6.314 13.108L8.582 17H5.88ZM3.262 11.596H4.746C5.18467 11.596 5.51133 11.4887 5.726 11.274C5.95 11.0593 6.062 10.756 6.062 10.364C6.062 9.99067 5.95 9.69667 5.726 9.482C5.51133 9.26733 5.18467 9.16 4.746 9.16H3.262V11.596ZM15.6988 17L12.3948 12.66V17H10.0008V7.172H12.3948V11.484L15.6708 7.172H18.4848L14.6768 11.988L18.6248 17H15.6988ZM30.2193 10.336C30.2193 10.9053 30.0887 11.428 29.8273 11.904C29.566 12.3707 29.1647 12.7487 28.6233 13.038C28.082 13.3273 27.41 13.472 26.6073 13.472H25.1233V17H22.7293V7.172H26.6073C27.3913 7.172 28.054 7.30733 28.5953 7.578C29.1367 7.84867 29.5427 8.222 29.8133 8.698C30.084 9.174 30.2193 9.72 30.2193 10.336ZM26.4253 11.568C26.8827 11.568 27.2233 11.4607 27.4473 11.246C27.6713 11.0313 27.7833 10.728 27.7833 10.336C27.7833 9.944 27.6713 9.64067 27.4473 9.426C27.2233 9.21133 26.8827 9.104 26.4253 9.104H25.1233V11.568H26.4253ZM36.1137 17.098C35.1897 17.098 34.3403 16.8833 33.5657 16.454C32.8003 16.0247 32.189 15.4273 31.7317 14.662C31.2837 13.8873 31.0597 13.0193 31.0597 12.058C31.0597 11.0967 31.2837 10.2333 31.7317 9.468C32.189 8.70267 32.8003 8.10533 33.5657 7.676C34.3403 7.24667 35.1897 7.032 36.1137 7.032C37.0377 7.032 37.8823 7.24667 38.6477 7.676C39.4223 8.10533 40.029 8.70267 40.4677 9.468C40.9157 10.2333 41.1397 11.0967 41.1397 12.058C41.1397 13.0193 40.9157 13.8873 40.4677 14.662C40.0197 15.4273 39.413 16.0247 38.6477 16.454C37.8823 16.8833 37.0377 17.098 36.1137 17.098ZM36.1137 14.914C36.8977 14.914 37.523 14.6527 37.9897 14.13C38.4657 13.6073 38.7037 12.9167 38.7037 12.058C38.7037 11.19 38.4657 10.4993 37.9897 9.986C37.523 9.46333 36.8977 9.202 36.1137 9.202C35.3203 9.202 34.6857 9.45867 34.2097 9.972C33.743 10.4853 33.5097 11.1807 33.5097 12.058C33.5097 12.926 33.743 13.6213 34.2097 14.144C34.6857 14.6573 35.3203 14.914 36.1137 14.914ZM44.8655 15.152H48.0015V17H42.4715V7.172H44.8655V15.152ZM57.5714 7.172L54.1694 13.752V17H51.7754V13.752L48.3734 7.172H51.0894L52.9934 11.288L54.8834 7.172H57.5714ZM64.0636 12.072C64.0636 11.1013 64.2736 10.238 64.6936 9.482C65.1136 8.71667 65.6969 8.124 66.4436 7.704C67.1996 7.27467 68.0536 7.06 69.0056 7.06C70.1722 7.06 71.1709 7.368 72.0016 7.984C72.8322 8.6 73.3876 9.44 73.6676 10.504H71.0356C70.8396 10.0933 70.5596 9.78067 70.1956 9.566C69.8409 9.35133 69.4349 9.244 68.9776 9.244C68.2402 9.244 67.6429 9.50067 67.1856 10.014C66.7282 10.5273 66.4996 11.2133 66.4996 12.072C66.4996 12.9307 66.7282 13.6167 67.1856 14.13C67.6429 14.6433 68.2402 14.9 68.9776 14.9C69.4349 14.9 69.8409 14.7927 70.1956 14.578C70.5596 14.3633 70.8396 14.0507 71.0356 13.64H73.6676C73.3876 14.704 72.8322 15.544 72.0016 16.16C71.1709 16.7667 70.1722 17.07 69.0056 17.07C68.0536 17.07 67.1996 16.86 66.4436 16.44C65.6969 16.0107 65.1136 15.418 64.6936 14.662C64.2736 13.906 64.0636 13.0427 64.0636 12.072ZM79.7816 17.098C78.8576 17.098 78.0083 16.8833 77.2336 16.454C76.4683 16.0247 75.857 15.4273 75.3996 14.662C74.9516 13.8873 74.7276 13.0193 74.7276 12.058C74.7276 11.0967 74.9516 10.2333 75.3996 9.468C75.857 8.70267 76.4683 8.10533 77.2336 7.676C78.0083 7.24667 78.8576 7.032 79.7816 7.032C80.7056 7.032 81.5503 7.24667 82.3156 7.676C83.0903 8.10533 83.697 8.70267 84.1356 9.468C84.5836 10.2333 84.8076 11.0967 84.8076 12.058C84.8076 13.0193 84.5836 13.8873 84.1356 14.662C83.6876 15.4273 83.081 16.0247 82.3156 16.454C81.5503 16.8833 80.7056 17.098 79.7816 17.098ZM79.7816 14.914C80.5656 14.914 81.191 14.6527 81.6576 14.13C82.1336 13.6073 82.3716 12.9167 82.3716 12.058C82.3716 11.19 82.1336 10.4993 81.6576 9.986C81.191 9.46333 80.5656 9.202 79.7816 9.202C78.9883 9.202 78.3536 9.45867 77.8776 9.972C77.411 10.4853 77.1776 11.1807 77.1776 12.058C77.1776 12.926 77.411 13.6213 77.8776 14.144C78.3536 14.6573 78.9883 14.914 79.7816 14.914ZM94.9315 17H92.5375L88.5335 10.938V17H86.1395V7.172H88.5335L92.5375 13.262V7.172H94.9315V17ZM103.737 7.172V9.09H101.133V17H98.7388V9.09H96.1348V7.172H103.737ZM111.056 15.264H107.388L106.8 17H104.294L107.85 7.172H110.622L114.178 17H111.644L111.056 15.264ZM110.44 13.416L109.222 9.818L108.018 13.416H110.44ZM117.655 7.172V17H115.261V7.172H117.655ZM128.181 17H125.787L121.783 10.938V17H119.389V7.172H121.783L125.787 13.262V7.172H128.181V17ZM132.311 9.09V11.078H135.517V12.926H132.311V15.082H135.937V17H129.917V7.172H135.937V9.09H132.311ZM142.503 17L140.459 13.29H139.885V17H137.491V7.172H141.509C142.284 7.172 142.942 7.30733 143.483 7.578C144.034 7.84867 144.444 8.222 144.715 8.698C144.986 9.16467 145.121 9.68733 145.121 10.266C145.121 10.9193 144.934 11.5027 144.561 12.016C144.197 12.5293 143.656 12.8933 142.937 13.108L145.205 17H142.503ZM139.885 11.596H141.369C141.808 11.596 142.134 11.4887 142.349 11.274C142.573 11.0593 142.685 10.756 142.685 10.364C142.685 9.99067 142.573 9.69667 142.349 9.482C142.134 9.26733 141.808 9.16 141.369 9.16H139.885V11.596ZM150.18 17.098C149.461 17.098 148.817 16.9813 148.248 16.748C147.679 16.5147 147.221 16.1693 146.876 15.712C146.54 15.2547 146.363 14.704 146.344 14.06H148.892C148.929 14.424 149.055 14.704 149.27 14.9C149.485 15.0867 149.765 15.18 150.11 15.18C150.465 15.18 150.745 15.1007 150.95 14.942C151.155 14.774 151.258 14.5453 151.258 14.256C151.258 14.0133 151.174 13.8127 151.006 13.654C150.847 13.4953 150.647 13.3647 150.404 13.262C150.171 13.1593 149.835 13.0427 149.396 12.912C148.761 12.716 148.243 12.52 147.842 12.324C147.441 12.128 147.095 11.8387 146.806 11.456C146.517 11.0733 146.372 10.574 146.372 9.958C146.372 9.04333 146.703 8.32933 147.366 7.816C148.029 7.29333 148.892 7.032 149.956 7.032C151.039 7.032 151.911 7.29333 152.574 7.816C153.237 8.32933 153.591 9.048 153.638 9.972H151.048C151.029 9.65467 150.913 9.40733 150.698 9.23C150.483 9.04333 150.208 8.95 149.872 8.95C149.583 8.95 149.349 9.02933 149.172 9.188C148.995 9.33733 148.906 9.55667 148.906 9.846C148.906 10.1633 149.055 10.4107 149.354 10.588C149.653 10.7653 150.119 10.9567 150.754 11.162C151.389 11.3767 151.902 11.582 152.294 11.778C152.695 11.974 153.041 12.2587 153.33 12.632C153.619 13.0053 153.764 13.486 153.764 14.074C153.764 14.634 153.619 15.1427 153.33 15.6C153.05 16.0573 152.639 16.4213 152.098 16.692C151.557 16.9627 150.917 17.098 150.18 17.098Z" fill="white"/>
<path d="M3.552 34L2.224 31.72H1.344V34H0.616V28.424H2.416C2.83733 28.424 3.192 28.496 3.48 28.64C3.77333 28.784 3.992 28.9787 4.136 29.224C4.28 29.4693 4.352 29.7493 4.352 30.064C4.352 30.448 4.24 30.7867 4.016 31.08C3.79733 31.3733 3.46667 31.568 3.024 31.664L4.424 34H3.552ZM1.344 31.136H2.416C2.81067 31.136 3.10667 31.04 3.304 30.848C3.50133 30.6507 3.6 30.3893 3.6 30.064C3.6 29.7333 3.50133 29.4773 3.304 29.296C3.112 29.1147 2.816 29.024 2.416 29.024H1.344V31.136ZM8.01119 34.056C7.49385 34.056 7.02185 33.936 6.59519 33.696C6.16852 33.4507 5.82985 33.112 5.57919 32.68C5.33385 32.2427 5.21119 31.752 5.21119 31.208C5.21119 30.664 5.33385 30.176 5.57919 29.744C5.82985 29.3067 6.16852 28.968 6.59519 28.728C7.02185 28.4827 7.49385 28.36 8.01119 28.36C8.53385 28.36 9.00852 28.4827 9.43519 28.728C9.86185 28.968 10.1979 29.304 10.4432 29.736C10.6885 30.168 10.8112 30.6587 10.8112 31.208C10.8112 31.7573 10.6885 32.248 10.4432 32.68C10.1979 33.112 9.86185 33.4507 9.43519 33.696C9.00852 33.936 8.53385 34.056 8.01119 34.056ZM8.01119 33.424C8.40052 33.424 8.74985 33.3333 9.05919 33.152C9.37385 32.9707 9.61919 32.712 9.79519 32.376C9.97652 32.04 10.0672 31.6507 10.0672 31.208C10.0672 30.76 9.97652 30.3707 9.79519 30.04C9.61919 29.704 9.37652 29.4453 9.06719 29.264C8.75785 29.0827 8.40585 28.992 8.01119 28.992C7.61652 28.992 7.26452 29.0827 6.95519 29.264C6.64585 29.4453 6.40052 29.704 6.21919 30.04C6.04319 30.3707 5.95519 30.76 5.95519 31.208C5.95519 31.6507 6.04319 32.04 6.21919 32.376C6.40052 32.712 6.64585 32.9707 6.95519 33.152C7.26985 33.3333 7.62185 33.424 8.01119 33.424ZM12.4843 28.424V31.952C12.4843 32.448 12.6043 32.816 12.8443 33.056C13.0896 33.296 13.4283 33.416 13.8603 33.416C14.2869 33.416 14.6203 33.296 14.8603 33.056C15.1056 32.816 15.2283 32.448 15.2283 31.952V28.424H15.9563V31.944C15.9563 32.408 15.8629 32.8 15.6762 33.12C15.4896 33.4347 15.2363 33.6693 14.9163 33.824C14.6016 33.9787 14.2469 34.056 13.8523 34.056C13.4576 34.056 13.1003 33.9787 12.7803 33.824C12.4656 33.6693 12.2149 33.4347 12.0283 33.12C11.8469 32.8 11.7563 32.408 11.7563 31.944V28.424H12.4843ZM21.5547 34H20.8267L17.8987 29.56V34H17.1707V28.416H17.8987L20.8267 32.848V28.416H21.5547V34ZM24.5317 28.424C25.1397 28.424 25.665 28.5387 26.1077 28.768C26.5557 28.992 26.897 29.3147 27.1317 29.736C27.3717 30.1573 27.4917 30.6533 27.4917 31.224C27.4917 31.7947 27.3717 32.2907 27.1317 32.712C26.897 33.128 26.5557 33.448 26.1077 33.672C25.665 33.8907 25.1397 34 24.5317 34H22.7957V28.424H24.5317ZM24.5317 33.4C25.2517 33.4 25.801 33.2107 26.1797 32.832C26.5584 32.448 26.7477 31.912 26.7477 31.224C26.7477 30.5307 26.5557 29.9893 26.1717 29.6C25.793 29.2107 25.2464 29.016 24.5317 29.016H23.5237V33.4H24.5317ZM32.3528 34.056C31.9848 34.056 31.6541 33.992 31.3608 33.864C31.0728 33.7307 30.8461 33.5493 30.6808 33.32C30.5154 33.0853 30.4301 32.816 30.4248 32.512H31.2008C31.2274 32.7733 31.3341 32.9947 31.5208 33.176C31.7128 33.352 31.9901 33.44 32.3528 33.44C32.6994 33.44 32.9714 33.3547 33.1688 33.184C33.3714 33.008 33.4728 32.784 33.4728 32.512C33.4728 32.2987 33.4141 32.1253 33.2968 31.992C33.1794 31.8587 33.0328 31.7573 32.8568 31.688C32.6808 31.6187 32.4434 31.544 32.1448 31.464C31.7768 31.368 31.4808 31.272 31.2568 31.176C31.0381 31.08 30.8488 30.9307 30.6888 30.728C30.5341 30.52 30.4568 30.2427 30.4568 29.896C30.4568 29.592 30.5341 29.3227 30.6888 29.088C30.8434 28.8533 31.0594 28.672 31.3368 28.544C31.6194 28.416 31.9421 28.352 32.3048 28.352C32.8274 28.352 33.2541 28.4827 33.5848 28.744C33.9208 29.0053 34.1101 29.352 34.1528 29.784H33.3528C33.3261 29.5707 33.2141 29.384 33.0168 29.224C32.8194 29.0587 32.5581 28.976 32.2328 28.976C31.9288 28.976 31.6808 29.056 31.4888 29.216C31.2968 29.3707 31.2008 29.5893 31.2008 29.872C31.2008 30.0747 31.2568 30.24 31.3688 30.368C31.4861 30.496 31.6274 30.5947 31.7928 30.664C31.9634 30.728 32.2008 30.8027 32.5048 30.888C32.8728 30.9893 33.1688 31.0907 33.3928 31.192C33.6168 31.288 33.8088 31.44 33.9688 31.648C34.1288 31.8507 34.2088 32.128 34.2088 32.48C34.2088 32.752 34.1368 33.008 33.9928 33.248C33.8488 33.488 33.6354 33.6827 33.3528 33.832C33.0701 33.9813 32.7368 34.056 32.3528 34.056ZM39.7521 35.056L38.6401 33.944C38.3681 34.0187 38.0907 34.056 37.8081 34.056C37.2907 34.056 36.8187 33.936 36.3921 33.696C35.9654 33.4507 35.6267 33.112 35.3761 32.68C35.1307 32.2427 35.0081 31.752 35.0081 31.208C35.0081 30.664 35.1307 30.176 35.3761 29.744C35.6267 29.3067 35.9654 28.968 36.3921 28.728C36.8187 28.4827 37.2907 28.36 37.8081 28.36C38.3307 28.36 38.8054 28.4827 39.2321 28.728C39.6587 28.968 39.9947 29.304 40.2401 29.736C40.4854 30.168 40.6081 30.6587 40.6081 31.208C40.6081 31.7413 40.4907 32.2213 40.2561 32.648C40.0214 33.0747 39.6987 33.4107 39.2881 33.656L40.6961 35.056H39.7521ZM35.7521 31.208C35.7521 31.6507 35.8401 32.04 36.0161 32.376C36.1974 32.712 36.4427 32.9707 36.7521 33.152C37.0667 33.3333 37.4187 33.424 37.8081 33.424C38.1974 33.424 38.5467 33.3333 38.8561 33.152C39.1707 32.9707 39.4161 32.712 39.5921 32.376C39.7734 32.04 39.8641 31.6507 39.8641 31.208C39.8641 30.76 39.7734 30.3707 39.5921 30.04C39.4161 29.704 39.1734 29.4453 38.8641 29.264C38.5547 29.0827 38.2027 28.992 37.8081 28.992C37.4134 28.992 37.0614 29.0827 36.7521 29.264C36.4427 29.4453 36.1974 29.704 36.0161 30.04C35.8401 30.3707 35.7521 30.76 35.7521 31.208ZM42.2968 28.424V31.952C42.2968 32.448 42.4168 32.816 42.6568 33.056C42.9021 33.296 43.2408 33.416 43.6728 33.416C44.0994 33.416 44.4328 33.296 44.6728 33.056C44.9181 32.816 45.0408 32.448 45.0408 31.952V28.424H45.7688V31.944C45.7688 32.408 45.6754 32.8 45.4887 33.12C45.3021 33.4347 45.0488 33.6693 44.7288 33.824C44.4141 33.9787 44.0594 34.056 43.6648 34.056C43.2701 34.056 42.9128 33.9787 42.5928 33.824C42.2781 33.6693 42.0274 33.4347 41.8408 33.12C41.6594 32.8 41.5688 32.408 41.5688 31.944V28.424H42.2968ZM50.2792 32.76H47.8472L47.3992 34H46.6312L48.6472 28.456H49.4872L51.4952 34H50.7272L50.2792 32.76ZM50.0712 32.168L49.0632 29.352L48.0552 32.168H50.0712ZM55.3098 34L53.9818 31.72H53.1018V34H52.3738V28.424H54.1738C54.5951 28.424 54.9498 28.496 55.2378 28.64C55.5311 28.784 55.7498 28.9787 55.8938 29.224C56.0378 29.4693 56.1098 29.7493 56.1098 30.064C56.1098 30.448 55.9978 30.7867 55.7738 31.08C55.5551 31.3733 55.2245 31.568 54.7818 31.664L56.1818 34H55.3098ZM53.1018 31.136H54.1738C54.5685 31.136 54.8645 31.04 55.0618 30.848C55.2591 30.6507 55.3578 30.3893 55.3578 30.064C55.3578 29.7333 55.2591 29.4773 55.0618 29.296C54.8698 29.1147 54.5738 29.024 54.1738 29.024H53.1018V31.136ZM57.969 29.016V30.88H60.001V31.48H57.969V33.4H60.241V34H57.241V28.416H60.241V29.016H57.969ZM63.2034 31.208C63.2034 30.664 63.326 30.176 63.5714 29.744C63.8167 29.3067 64.15 28.9653 64.5714 28.72C64.998 28.4747 65.47 28.352 65.9874 28.352C66.5954 28.352 67.126 28.4987 67.5794 28.792C68.0327 29.0853 68.3634 29.5013 68.5714 30.04H67.6994C67.5447 29.704 67.3207 29.4453 67.0274 29.264C66.7394 29.0827 66.3927 28.992 65.9874 28.992C65.598 28.992 65.2487 29.0827 64.9394 29.264C64.63 29.4453 64.3874 29.704 64.2114 30.04C64.0354 30.3707 63.9474 30.76 63.9474 31.208C63.9474 31.6507 64.0354 32.04 64.2114 32.376C64.3874 32.7067 64.63 32.9627 64.9394 33.144C65.2487 33.3253 65.598 33.416 65.9874 33.416C66.3927 33.416 66.7394 33.328 67.0274 33.152C67.3207 32.9707 67.5447 32.712 67.6994 32.376H68.5714C68.3634 32.9093 68.0327 33.3227 67.5794 33.616C67.126 33.904 66.5954 34.048 65.9874 34.048C65.47 34.048 64.998 33.928 64.5714 33.688C64.15 33.4427 63.8167 33.104 63.5714 32.672C63.326 32.24 63.2034 31.752 63.2034 31.208ZM72.1831 34.056C71.6657 34.056 71.1937 33.936 70.7671 33.696C70.3404 33.4507 70.0017 33.112 69.7511 32.68C69.5057 32.2427 69.3831 31.752 69.3831 31.208C69.3831 30.664 69.5057 30.176 69.7511 29.744C70.0017 29.3067 70.3404 28.968 70.7671 28.728C71.1937 28.4827 71.6657 28.36 72.1831 28.36C72.7057 28.36 73.1804 28.4827 73.6071 28.728C74.0337 28.968 74.3697 29.304 74.6151 29.736C74.8604 30.168 74.9831 30.6587 74.9831 31.208C74.9831 31.7573 74.8604 32.248 74.6151 32.68C74.3697 33.112 74.0337 33.4507 73.6071 33.696C73.1804 33.936 72.7057 34.056 72.1831 34.056ZM72.1831 33.424C72.5724 33.424 72.9217 33.3333 73.2311 33.152C73.5457 32.9707 73.7911 32.712 73.9671 32.376C74.1484 32.04 74.2391 31.6507 74.2391 31.208C74.2391 30.76 74.1484 30.3707 73.9671 30.04C73.7911 29.704 73.5484 29.4453 73.2391 29.264C72.9297 29.0827 72.5777 28.992 72.1831 28.992C71.7884 28.992 71.4364 29.0827 71.1271 29.264C70.8177 29.4453 70.5724 29.704 70.3911 30.04C70.2151 30.3707 70.1271 30.76 70.1271 31.208C70.1271 31.6507 70.2151 32.04 70.3911 32.376C70.5724 32.712 70.8177 32.9707 71.1271 33.152C71.4417 33.3333 71.7937 33.424 72.1831 33.424ZM80.3281 34H79.6001L76.6721 29.56V34H75.9441V28.416H76.6721L79.6001 32.848V28.416H80.3281V34ZM85.0011 28.424V29.016H83.4811V34H82.7531V29.016H81.2251V28.424H85.0011ZM89.1933 32.76H86.7613L86.3133 34H85.5452L87.5613 28.456H88.4013L90.4093 34H89.6413L89.1933 32.76ZM88.9853 32.168L87.9773 29.352L86.9693 32.168H88.9853ZM92.0159 28.424V34H91.2879V28.424H92.0159ZM97.6406 34H96.9126L93.9846 29.56V34H93.2566V28.416H93.9846L96.9126 32.848V28.416H97.6406V34ZM99.6096 29.016V30.88H101.642V31.48H99.6096V33.4H101.882V34H98.8816V28.416H101.882V29.016H99.6096ZM105.919 34L104.591 31.72H103.711V34H102.983V28.424H104.783C105.205 28.424 105.559 28.496 105.847 28.64C106.141 28.784 106.359 28.9787 106.503 29.224C106.647 29.4693 106.719 29.7493 106.719 30.064C106.719 30.448 106.607 30.7867 106.383 31.08C106.165 31.3733 105.834 31.568 105.391 31.664L106.791 34H105.919ZM103.711 31.136H104.783C105.178 31.136 105.474 31.04 105.671 30.848C105.869 30.6507 105.967 30.3893 105.967 30.064C105.967 29.7333 105.869 29.4773 105.671 29.296C105.479 29.1147 105.183 29.024 104.783 29.024H103.711V31.136Z" fill="white"/>
</svg>
