<svg width="313" height="35" viewBox="0 0 313 35" fill="none" xmlns="http://www.w3.org/2000/svg">
<path d="M4.01804 1.0781C5.05404 1.0781 5.95937 1.27877 6.73404 1.68011C7.51804 2.07211 8.12004 2.64144 8.54004 3.38811C8.96937 4.12544 9.18404 4.98877 9.18404 5.97811C9.18404 6.96744 8.96937 7.82611 8.54004 8.55411C8.12004 9.28211 7.51804 9.84211 6.73404 10.2341C5.95937 10.6168 5.05404 10.8081 4.01804 10.8081H0.840039V1.0781H4.01804ZM4.01804 9.50611C5.15671 9.50611 6.02937 9.19811 6.63604 8.58211C7.24271 7.96611 7.54604 7.09811 7.54604 5.97811C7.54604 4.84877 7.24271 3.96677 6.63604 3.3321C6.02937 2.69744 5.15671 2.3801 4.01804 2.3801H2.43604V9.50611H4.01804ZM17.8358 6.76211C17.8358 7.05144 17.8172 7.31277 17.7798 7.54611H11.8858C11.9325 8.16211 12.1612 8.65677 12.5718 9.03011C12.9825 9.40344 13.4865 9.59011 14.0838 9.59011C14.9425 9.59011 15.5492 9.23077 15.9038 8.51211H17.6258C17.3925 9.22144 16.9678 9.80477 16.3518 10.2621C15.7452 10.7101 14.9892 10.9341 14.0838 10.9341C13.3465 10.9341 12.6838 10.7708 12.0958 10.4441C11.5172 10.1081 11.0598 9.64144 10.7238 9.04411C10.3972 8.43744 10.2338 7.73744 10.2338 6.94411C10.2338 6.15077 10.3925 5.45544 10.7098 4.85811C11.0365 4.25144 11.4892 3.78477 12.0678 3.4581C12.6558 3.13144 13.3278 2.96811 14.0838 2.96811C14.8118 2.96811 15.4605 3.12677 16.0298 3.44411C16.5992 3.76144 17.0425 4.20944 17.3598 4.78811C17.6772 5.35744 17.8358 6.01544 17.8358 6.76211ZM16.1698 6.25811C16.1605 5.67011 15.9505 5.19877 15.5398 4.84411C15.1292 4.48944 14.6205 4.31211 14.0138 4.31211C13.4632 4.31211 12.9918 4.48944 12.5998 4.84411C12.2078 5.18944 11.9745 5.66077 11.8998 6.25811H16.1698ZM22.2064 10.9341C21.5998 10.9341 21.0538 10.8268 20.5684 10.6121C20.0924 10.3881 19.7144 10.0894 19.4344 9.71611C19.1544 9.33344 19.0051 8.90877 18.9864 8.44211H20.6384C20.6664 8.76877 20.8204 9.04411 21.1004 9.26811C21.3898 9.48277 21.7491 9.59011 22.1784 9.59011C22.6264 9.59011 22.9718 9.50611 23.2144 9.33811C23.4664 9.16077 23.5924 8.93677 23.5924 8.66611C23.5924 8.37677 23.4524 8.16211 23.1724 8.02211C22.9018 7.88211 22.4678 7.72811 21.8704 7.56011C21.2918 7.40144 20.8204 7.24744 20.4564 7.09811C20.0924 6.94877 19.7751 6.72011 19.5044 6.41211C19.2431 6.10411 19.1124 5.69811 19.1124 5.19411C19.1124 4.78344 19.2338 4.41011 19.4764 4.0741C19.7191 3.72877 20.0644 3.45811 20.5124 3.2621C20.9698 3.06611 21.4924 2.96811 22.0804 2.96811C22.9578 2.96811 23.6624 3.19211 24.1944 3.64011C24.7358 4.07877 25.0251 4.68077 25.0624 5.44611H23.4664C23.4384 5.10077 23.2984 4.82544 23.0464 4.62011C22.7944 4.41477 22.4538 4.31211 22.0244 4.31211C21.6044 4.31211 21.2824 4.39144 21.0584 4.55011C20.8344 4.70877 20.7224 4.91877 20.7224 5.18011C20.7224 5.38544 20.7971 5.55811 20.9464 5.69811C21.0958 5.83811 21.2778 5.95011 21.4924 6.03411C21.7071 6.10877 22.0244 6.20677 22.4444 6.32811C23.0044 6.47744 23.4618 6.63144 23.8164 6.79011C24.1804 6.93944 24.4931 7.16344 24.7544 7.46211C25.0158 7.76077 25.1511 8.15744 25.1604 8.65211C25.1604 9.09077 25.0391 9.48277 24.7964 9.82811C24.5538 10.1734 24.2084 10.4441 23.7604 10.6401C23.3218 10.8361 22.8038 10.9341 22.2064 10.9341ZM27.697 2.07211C27.4076 2.07211 27.165 1.97411 26.969 1.7781C26.773 1.58211 26.675 1.33944 26.675 1.05011C26.675 0.760772 26.773 0.518105 26.969 0.322105C27.165 0.126105 27.4076 0.0281049 27.697 0.0281049C27.977 0.0281049 28.215 0.126105 28.411 0.322105C28.607 0.518105 28.705 0.760772 28.705 1.05011C28.705 1.33944 28.607 1.58211 28.411 1.7781C28.215 1.97411 27.977 2.07211 27.697 2.07211ZM28.481 3.09411V10.8081H26.885V3.09411H28.481ZM33.6844 2.96811C34.2817 2.96811 34.809 3.08944 35.2664 3.3321C35.733 3.56544 36.097 3.85944 36.3584 4.21411V3.09411H37.9684V10.9341C37.9684 11.6434 37.819 12.2734 37.5204 12.8241C37.2217 13.3841 36.7877 13.8228 36.2184 14.1401C35.6584 14.4574 34.9864 14.6161 34.2024 14.6161C33.157 14.6161 32.289 14.3688 31.5984 13.8741C30.9077 13.3888 30.5157 12.7261 30.4224 11.8861H32.0044C32.1257 12.2874 32.3824 12.6094 32.7744 12.8521C33.1757 13.1041 33.6517 13.2301 34.2024 13.2301C34.8464 13.2301 35.3644 13.0341 35.7564 12.6421C36.1577 12.2501 36.3584 11.6808 36.3584 10.9341V9.64611C36.0877 10.0101 35.719 10.3181 35.2524 10.5701C34.795 10.8128 34.2724 10.9341 33.6844 10.9341C33.0124 10.9341 32.3964 10.7661 31.8364 10.4301C31.2857 10.0848 30.847 9.60877 30.5204 9.00211C30.203 8.38611 30.0444 7.69077 30.0444 6.91611C30.0444 6.14144 30.203 5.45544 30.5204 4.85811C30.847 4.26077 31.2857 3.79877 31.8364 3.4721C32.3964 3.13611 33.0124 2.96811 33.6844 2.96811ZM36.3584 6.94411C36.3584 6.41211 36.2464 5.95011 36.0224 5.55811C35.8077 5.16611 35.523 4.86744 35.1684 4.66211C34.8137 4.45677 34.431 4.35411 34.0204 4.35411C33.6097 4.35411 33.227 4.45677 32.8724 4.66211C32.5177 4.85811 32.2284 5.15211 32.0044 5.54411C31.7897 5.92677 31.6824 6.38411 31.6824 6.91611C31.6824 7.44811 31.7897 7.91477 32.0044 8.31611C32.2284 8.71744 32.5177 9.02544 32.8724 9.24011C33.2364 9.44544 33.619 9.54811 34.0204 9.54811C34.431 9.54811 34.8137 9.44544 35.1684 9.24011C35.523 9.03477 35.8077 8.73611 36.0224 8.34411C36.2464 7.94277 36.3584 7.47611 36.3584 6.94411ZM43.9566 2.96811C44.5633 2.96811 45.1046 3.09411 45.5806 3.3461C46.066 3.5981 46.444 3.97144 46.7146 4.46611C46.9853 4.96077 47.1206 5.55811 47.1206 6.25811V10.8081H45.5386V6.49611C45.5386 5.80544 45.366 5.27811 45.0206 4.9141C44.6753 4.54077 44.204 4.35411 43.6066 4.35411C43.0093 4.35411 42.5333 4.54077 42.1786 4.9141C41.8333 5.27811 41.6606 5.80544 41.6606 6.49611V10.8081H40.0646V3.09411H41.6606V3.9761C41.922 3.65877 42.2533 3.41144 42.6546 3.23411C43.0653 3.05677 43.4993 2.96811 43.9566 2.96811ZM56.2264 6.76211C56.2264 7.05144 56.2078 7.31277 56.1704 7.54611H50.2764C50.3231 8.16211 50.5518 8.65677 50.9624 9.03011C51.3731 9.40344 51.8771 9.59011 52.4744 9.59011C53.3331 9.59011 53.9398 9.23077 54.2944 8.51211H56.0164C55.7831 9.22144 55.3584 9.80477 54.7424 10.2621C54.1358 10.7101 53.3798 10.9341 52.4744 10.9341C51.7371 10.9341 51.0744 10.7708 50.4864 10.4441C49.9078 10.1081 49.4504 9.64144 49.1144 9.04411C48.7878 8.43744 48.6244 7.73744 48.6244 6.94411C48.6244 6.15077 48.7831 5.45544 49.1004 4.85811C49.4271 4.25144 49.8798 3.78477 50.4584 3.4581C51.0464 3.13144 51.7184 2.96811 52.4744 2.96811C53.2024 2.96811 53.8511 3.12677 54.4204 3.44411C54.9898 3.76144 55.4331 4.20944 55.7504 4.78811C56.0678 5.35744 56.2264 6.01544 56.2264 6.76211ZM54.5604 6.25811C54.5511 5.67011 54.3411 5.19877 53.9304 4.84411C53.5198 4.48944 53.0111 4.31211 52.4044 4.31211C51.8538 4.31211 51.3824 4.48944 50.9904 4.84411C50.5984 5.18944 50.3651 5.66077 50.2904 6.25811H54.5604ZM57.2651 6.91611C57.2651 6.14144 57.4237 5.45544 57.7411 4.85811C58.0677 4.26077 58.5064 3.79877 59.0571 3.4721C59.6171 3.13611 60.2377 2.96811 60.9191 2.96811C61.4231 2.96811 61.9177 3.08011 62.4031 3.30411C62.8977 3.51877 63.2897 3.80811 63.5791 4.1721V0.448105H65.1891V10.8081H63.5791V9.64611C63.3177 10.0194 62.9537 10.3274 62.4871 10.5701C62.0297 10.8128 61.5024 10.9341 60.9051 10.9341C60.2331 10.9341 59.6171 10.7661 59.0571 10.4301C58.5064 10.0848 58.0677 9.60877 57.7411 9.00211C57.4237 8.38611 57.2651 7.69077 57.2651 6.91611ZM63.5791 6.94411C63.5791 6.41211 63.4671 5.95011 63.2431 5.55811C63.0284 5.16611 62.7437 4.86744 62.3891 4.66211C62.0344 4.45677 61.6517 4.35411 61.2411 4.35411C60.8304 4.35411 60.4477 4.45677 60.0931 4.66211C59.7384 4.85811 59.4491 5.15211 59.2251 5.54411C59.0104 5.92677 58.9031 6.38411 58.9031 6.91611C58.9031 7.44811 59.0104 7.91477 59.2251 8.31611C59.4491 8.71744 59.7384 9.02544 60.0931 9.24011C60.4571 9.44544 60.8397 9.54811 61.2411 9.54811C61.6517 9.54811 62.0344 9.44544 62.3891 9.24011C62.7437 9.03477 63.0284 8.73611 63.2431 8.34411C63.4671 7.94277 63.5791 7.47611 63.5791 6.94411ZM74.1561 4.3961H72.7281V10.8081H71.1181V4.3961H70.2081V3.09411H71.1181V2.54811C71.1181 1.66144 71.3514 1.01744 71.8181 0.616105C72.2941 0.205438 73.0361 0.000105262 74.0441 0.000105262V1.3301C73.5587 1.3301 73.2181 1.42344 73.0221 1.61011C72.8261 1.78744 72.7281 2.10011 72.7281 2.54811V3.09411H74.1561V4.3961ZM78.9165 10.9341C78.1885 10.9341 77.5305 10.7708 76.9425 10.4441C76.3545 10.1081 75.8925 9.64144 75.5565 9.04411C75.2205 8.43744 75.0525 7.73744 75.0525 6.94411C75.0525 6.16011 75.2252 5.46477 75.5705 4.85811C75.9158 4.25144 76.3872 3.78477 76.9845 3.4581C77.5818 3.13144 78.2492 2.96811 78.9865 2.96811C79.7238 2.96811 80.3912 3.13144 80.9885 3.4581C81.5858 3.78477 82.0572 4.25144 82.4025 4.85811C82.7478 5.46477 82.9205 6.16011 82.9205 6.94411C82.9205 7.72811 82.7432 8.42344 82.3885 9.03011C82.0338 9.63677 81.5485 10.1081 80.9325 10.4441C80.3258 10.7708 79.6538 10.9341 78.9165 10.9341ZM78.9165 9.54811C79.3272 9.54811 79.7098 9.45011 80.0645 9.25411C80.4285 9.05811 80.7225 8.76411 80.9465 8.37211C81.1705 7.98011 81.2825 7.50411 81.2825 6.94411C81.2825 6.38411 81.1752 5.91277 80.9605 5.53011C80.7458 5.13811 80.4612 4.84411 80.1065 4.64811C79.7518 4.45211 79.3692 4.35411 78.9585 4.35411C78.5478 4.35411 78.1652 4.45211 77.8105 4.64811C77.4652 4.84411 77.1898 5.13811 76.9845 5.53011C76.7792 5.91277 76.6765 6.38411 76.6765 6.94411C76.6765 7.77477 76.8865 8.41877 77.3065 8.87611C77.7358 9.32411 78.2725 9.54811 78.9165 9.54811ZM86.0942 4.21411C86.3276 3.82211 86.6356 3.51877 87.0182 3.30411C87.4102 3.08011 87.8722 2.96811 88.4042 2.96811V4.62011H87.9982C87.3729 4.62011 86.8969 4.77877 86.5702 5.09611C86.2529 5.41344 86.0942 5.96411 86.0942 6.74811V10.8081H84.4982V3.09411H86.0942V4.21411ZM103.756 1.0781V10.8081H102.16V4.14411L99.192 10.8081H98.086L95.104 4.14411V10.8081H93.508V1.0781H95.23L98.646 8.70811L102.048 1.0781H103.756ZM109.2 10.9341C108.472 10.9341 107.814 10.7708 107.226 10.4441C106.638 10.1081 106.176 9.64144 105.84 9.04411C105.504 8.43744 105.336 7.73744 105.336 6.94411C105.336 6.16011 105.508 5.46477 105.854 4.85811C106.199 4.25144 106.67 3.78477 107.268 3.4581C107.865 3.13144 108.532 2.96811 109.27 2.96811C110.007 2.96811 110.674 3.13144 111.272 3.4581C111.869 3.78477 112.34 4.25144 112.686 4.85811C113.031 5.46477 113.204 6.16011 113.204 6.94411C113.204 7.72811 113.026 8.42344 112.672 9.03011C112.317 9.63677 111.832 10.1081 111.216 10.4441C110.609 10.7708 109.937 10.9341 109.2 10.9341ZM109.2 9.54811C109.61 9.54811 109.993 9.45011 110.348 9.25411C110.712 9.05811 111.006 8.76411 111.23 8.37211C111.454 7.98011 111.566 7.50411 111.566 6.94411C111.566 6.38411 111.458 5.91277 111.244 5.53011C111.029 5.13811 110.744 4.84411 110.39 4.64811C110.035 4.45211 109.652 4.35411 109.242 4.35411C108.831 4.35411 108.448 4.45211 108.094 4.64811C107.748 4.84411 107.473 5.13811 107.268 5.53011C107.062 5.91277 106.96 6.38411 106.96 6.94411C106.96 7.77477 107.17 8.41877 107.59 8.87611C108.019 9.32411 108.556 9.54811 109.2 9.54811ZM114.249 6.91611C114.249 6.14144 114.408 5.45544 114.725 4.85811C115.052 4.26077 115.491 3.79877 116.041 3.4721C116.601 3.13611 117.222 2.96811 117.903 2.96811C118.407 2.96811 118.902 3.08011 119.387 3.30411C119.882 3.51877 120.274 3.80811 120.563 4.1721V0.448105H122.173V10.8081H120.563V9.64611C120.302 10.0194 119.938 10.3274 119.471 10.5701C119.014 10.8128 118.487 10.9341 117.889 10.9341C117.217 10.9341 116.601 10.7661 116.041 10.4301C115.491 10.0848 115.052 9.60877 114.725 9.00211C114.408 8.38611 114.249 7.69077 114.249 6.91611ZM120.563 6.94411C120.563 6.41211 120.451 5.95011 120.227 5.55811C120.013 5.16611 119.728 4.86744 119.373 4.66211C119.019 4.45677 118.636 4.35411 118.225 4.35411C117.815 4.35411 117.432 4.45677 117.077 4.66211C116.723 4.85811 116.433 5.15211 116.209 5.54411C115.995 5.92677 115.887 6.38411 115.887 6.91611C115.887 7.44811 115.995 7.91477 116.209 8.31611C116.433 8.71744 116.723 9.02544 117.077 9.24011C117.441 9.44544 117.824 9.54811 118.225 9.54811C118.636 9.54811 119.019 9.44544 119.373 9.24011C119.728 9.03477 120.013 8.73611 120.227 8.34411C120.451 7.94277 120.563 7.47611 120.563 6.94411ZM131.34 6.76211C131.34 7.05144 131.321 7.31277 131.284 7.54611H125.39C125.436 8.16211 125.665 8.65677 126.076 9.03011C126.486 9.40344 126.99 9.59011 127.588 9.59011C128.446 9.59011 129.053 9.23077 129.408 8.51211H131.13C130.896 9.22144 130.472 9.80477 129.856 10.2621C129.249 10.7101 128.493 10.9341 127.588 10.9341C126.85 10.9341 126.188 10.7708 125.6 10.4441C125.021 10.1081 124.564 9.64144 124.228 9.04411C123.901 8.43744 123.738 7.73744 123.738 6.94411C123.738 6.15077 123.896 5.45544 124.214 4.85811C124.54 4.25144 124.993 3.78477 125.572 3.4581C126.16 3.13144 126.832 2.96811 127.588 2.96811C128.316 2.96811 128.964 3.12677 129.534 3.44411C130.103 3.76144 130.546 4.20944 130.864 4.78811C131.181 5.35744 131.34 6.01544 131.34 6.76211ZM129.674 6.25811C129.664 5.67011 129.454 5.19877 129.044 4.84411C128.633 4.48944 128.124 4.31211 127.518 4.31211C126.967 4.31211 126.496 4.48944 126.104 4.84411C125.712 5.18944 125.478 5.66077 125.404 6.25811H129.674ZM134.506 4.21411C134.74 3.82211 135.048 3.51877 135.43 3.30411C135.822 3.08011 136.284 2.96811 136.816 2.96811V4.62011H136.41C135.785 4.62011 135.309 4.77877 134.982 5.09611C134.665 5.41344 134.506 5.96411 134.506 6.74811V10.8081H132.91V3.09411H134.506V4.21411ZM142.175 2.96811C142.782 2.96811 143.323 3.09411 143.799 3.3461C144.285 3.5981 144.663 3.97144 144.933 4.46611C145.204 4.96077 145.339 5.55811 145.339 6.25811V10.8081H143.757V6.49611C143.757 5.80544 143.585 5.27811 143.239 4.9141C142.894 4.54077 142.423 4.35411 141.825 4.35411C141.228 4.35411 140.752 4.54077 140.397 4.9141C140.052 5.27811 139.879 5.80544 139.879 6.49611V10.8081H138.283V3.09411H139.879V3.9761C140.141 3.65877 140.472 3.41144 140.873 3.23411C141.284 3.05677 141.718 2.96811 142.175 2.96811ZM156.738 1.0781V2.3801H152.608V5.25011H155.828V6.55211H152.608V10.8081H151.012V1.0781H156.738ZM161.563 10.9341C160.835 10.9341 160.177 10.7708 159.589 10.4441C159.001 10.1081 158.539 9.64144 158.203 9.04411C157.867 8.43744 157.699 7.73744 157.699 6.94411C157.699 6.16011 157.872 5.46477 158.217 4.85811C158.562 4.25144 159.034 3.78477 159.631 3.4581C160.228 3.13144 160.896 2.96811 161.633 2.96811C162.37 2.96811 163.038 3.13144 163.635 3.4581C164.232 3.78477 164.704 4.25144 165.049 4.85811C165.394 5.46477 165.567 6.16011 165.567 6.94411C165.567 7.72811 165.39 8.42344 165.035 9.03011C164.68 9.63677 164.195 10.1081 163.579 10.4441C162.972 10.7708 162.3 10.9341 161.563 10.9341ZM161.563 9.54811C161.974 9.54811 162.356 9.45011 162.711 9.25411C163.075 9.05811 163.369 8.76411 163.593 8.37211C163.817 7.98011 163.929 7.50411 163.929 6.94411C163.929 6.38411 163.822 5.91277 163.607 5.53011C163.392 5.13811 163.108 4.84411 162.753 4.64811C162.398 4.45211 162.016 4.35411 161.605 4.35411C161.194 4.35411 160.812 4.45211 160.457 4.64811C160.112 4.84411 159.836 5.13811 159.631 5.53011C159.426 5.91277 159.323 6.38411 159.323 6.94411C159.323 7.77477 159.533 8.41877 159.953 8.87611C160.382 9.32411 160.919 9.54811 161.563 9.54811ZM170.491 10.9341C169.763 10.9341 169.105 10.7708 168.517 10.4441C167.929 10.1081 167.467 9.64144 167.131 9.04411C166.795 8.43744 166.627 7.73744 166.627 6.94411C166.627 6.16011 166.799 5.46477 167.145 4.85811C167.49 4.25144 167.961 3.78477 168.559 3.4581C169.156 3.13144 169.823 2.96811 170.561 2.96811C171.298 2.96811 171.965 3.13144 172.563 3.4581C173.16 3.78477 173.631 4.25144 173.977 4.85811C174.322 5.46477 174.495 6.16011 174.495 6.94411C174.495 7.72811 174.317 8.42344 173.963 9.03011C173.608 9.63677 173.123 10.1081 172.507 10.4441C171.9 10.7708 171.228 10.9341 170.491 10.9341ZM170.491 9.54811C170.901 9.54811 171.284 9.45011 171.639 9.25411C172.003 9.05811 172.297 8.76411 172.521 8.37211C172.745 7.98011 172.857 7.50411 172.857 6.94411C172.857 6.38411 172.749 5.91277 172.535 5.53011C172.32 5.13811 172.035 4.84411 171.681 4.64811C171.326 4.45211 170.943 4.35411 170.533 4.35411C170.122 4.35411 169.739 4.45211 169.385 4.64811C169.039 4.84411 168.764 5.13811 168.559 5.53011C168.353 5.91277 168.251 6.38411 168.251 6.94411C168.251 7.77477 168.461 8.41877 168.881 8.87611C169.31 9.32411 169.847 9.54811 170.491 9.54811ZM175.54 6.91611C175.54 6.14144 175.699 5.45544 176.016 4.85811C176.343 4.26077 176.782 3.79877 177.332 3.4721C177.892 3.13611 178.513 2.96811 179.194 2.96811C179.698 2.96811 180.193 3.08011 180.678 3.30411C181.173 3.51877 181.565 3.80811 181.854 4.1721V0.448105H183.464V10.8081H181.854V9.64611C181.593 10.0194 181.229 10.3274 180.762 10.5701C180.305 10.8128 179.778 10.9341 179.18 10.9341C178.508 10.9341 177.892 10.7661 177.332 10.4301C176.782 10.0848 176.343 9.60877 176.016 9.00211C175.699 8.38611 175.54 7.69077 175.54 6.91611ZM181.854 6.94411C181.854 6.41211 181.742 5.95011 181.518 5.55811C181.304 5.16611 181.019 4.86744 180.664 4.66211C180.31 4.45677 179.927 4.35411 179.516 4.35411C179.106 4.35411 178.723 4.45677 178.368 4.66211C178.014 4.85811 177.724 5.15211 177.5 5.54411C177.286 5.92677 177.178 6.38411 177.178 6.91611C177.178 7.44811 177.286 7.91477 177.5 8.31611C177.724 8.71744 178.014 9.02544 178.368 9.24011C178.732 9.44544 179.115 9.54811 179.516 9.54811C179.927 9.54811 180.31 9.44544 180.664 9.24011C181.019 9.03477 181.304 8.73611 181.518 8.34411C181.742 7.94277 181.854 7.47611 181.854 6.94411ZM194.405 5.81011C194.928 5.90344 195.371 6.17877 195.735 6.63611C196.099 7.09344 196.281 7.61144 196.281 8.19011C196.281 8.68477 196.151 9.13277 195.889 9.53411C195.637 9.92611 195.269 10.2388 194.783 10.4721C194.298 10.6961 193.733 10.8081 193.089 10.8081H189.197V1.0781H192.907C193.57 1.0781 194.139 1.1901 194.615 1.41411C195.091 1.63811 195.451 1.94144 195.693 2.32411C195.936 2.69744 196.057 3.11744 196.057 3.58411C196.057 4.14411 195.908 4.61077 195.609 4.98411C195.311 5.35744 194.909 5.63277 194.405 5.81011ZM190.793 5.16611H192.767C193.29 5.16611 193.696 5.04944 193.985 4.81611C194.284 4.57344 194.433 4.22811 194.433 3.7801C194.433 3.34144 194.284 3.00077 193.985 2.7581C193.696 2.5061 193.29 2.3801 192.767 2.3801H190.793V5.16611ZM192.949 9.50611C193.491 9.50611 193.915 9.37544 194.223 9.11411C194.531 8.85277 194.685 8.48877 194.685 8.02211C194.685 7.54611 194.522 7.16811 194.195 6.88811C193.869 6.60811 193.435 6.46811 192.893 6.46811H190.793V9.50611H192.949ZM205.002 3.09411V10.8081H203.406V9.89811C203.154 10.2154 202.822 10.4674 202.412 10.6541C202.01 10.8314 201.581 10.9201 201.124 10.9201C200.517 10.9201 199.971 10.7941 199.486 10.5421C199.01 10.2901 198.632 9.91677 198.352 9.42211C198.081 8.92744 197.946 8.33011 197.946 7.63011V3.09411H199.528V7.39211C199.528 8.08277 199.7 8.61477 200.046 8.98811C200.391 9.35211 200.862 9.53411 201.46 9.53411C202.057 9.53411 202.528 9.35211 202.874 8.98811C203.228 8.61477 203.406 8.08277 203.406 7.39211V3.09411H205.002ZM209.908 10.9341C209.301 10.9341 208.755 10.8268 208.27 10.6121C207.794 10.3881 207.416 10.0894 207.136 9.71611C206.856 9.33344 206.706 8.90877 206.688 8.44211H208.34C208.368 8.76877 208.522 9.04411 208.802 9.26811C209.091 9.48277 209.45 9.59011 209.88 9.59011C210.328 9.59011 210.673 9.50611 210.916 9.33811C211.168 9.16077 211.294 8.93677 211.294 8.66611C211.294 8.37677 211.154 8.16211 210.874 8.02211C210.603 7.88211 210.169 7.72811 209.572 7.56011C208.993 7.40144 208.522 7.24744 208.158 7.09811C207.794 6.94877 207.476 6.72011 207.206 6.41211C206.944 6.10411 206.814 5.69811 206.814 5.19411C206.814 4.78344 206.935 4.41011 207.178 4.0741C207.42 3.72877 207.766 3.45811 208.214 3.2621C208.671 3.06611 209.194 2.96811 209.782 2.96811C210.659 2.96811 211.364 3.19211 211.896 3.64011C212.437 4.07877 212.726 4.68077 212.764 5.44611H211.168C211.14 5.10077 211 4.82544 210.748 4.62011C210.496 4.41477 210.155 4.31211 209.726 4.31211C209.306 4.31211 208.984 4.39144 208.76 4.55011C208.536 4.70877 208.424 4.91877 208.424 5.18011C208.424 5.38544 208.498 5.55811 208.648 5.69811C208.797 5.83811 208.979 5.95011 209.194 6.03411C209.408 6.10877 209.726 6.20677 210.146 6.32811C210.706 6.47744 211.163 6.63144 211.518 6.79011C211.882 6.93944 212.194 7.16344 212.456 7.46211C212.717 7.76077 212.852 8.15744 212.862 8.65211C212.862 9.09077 212.74 9.48277 212.498 9.82811C212.255 10.1734 211.91 10.4441 211.462 10.6401C211.023 10.8361 210.505 10.9341 209.908 10.9341ZM215.398 2.07211C215.109 2.07211 214.866 1.97411 214.67 1.7781C214.474 1.58211 214.376 1.33944 214.376 1.05011C214.376 0.760772 214.474 0.518105 214.67 0.322105C214.866 0.126105 215.109 0.0281049 215.398 0.0281049C215.678 0.0281049 215.916 0.126105 216.112 0.322105C216.308 0.518105 216.406 0.760772 216.406 1.05011C216.406 1.33944 216.308 1.58211 216.112 1.7781C215.916 1.97411 215.678 2.07211 215.398 2.07211ZM216.182 3.09411V10.8081H214.586V3.09411H216.182ZM222.17 2.96811C222.776 2.96811 223.318 3.09411 223.794 3.3461C224.279 3.5981 224.657 3.97144 224.928 4.46611C225.198 4.96077 225.334 5.55811 225.334 6.25811V10.8081H223.752V6.49611C223.752 5.80544 223.579 5.27811 223.234 4.9141C222.888 4.54077 222.417 4.35411 221.82 4.35411C221.222 4.35411 220.746 4.54077 220.392 4.9141C220.046 5.27811 219.874 5.80544 219.874 6.49611V10.8081H218.278V3.09411H219.874V3.9761C220.135 3.65877 220.466 3.41144 220.868 3.23411C221.278 3.05677 221.712 2.96811 222.17 2.96811ZM234.439 6.76211C234.439 7.05144 234.421 7.31277 234.383 7.54611H228.489C228.536 8.16211 228.765 8.65677 229.175 9.03011C229.586 9.40344 230.09 9.59011 230.687 9.59011C231.546 9.59011 232.153 9.23077 232.507 8.51211H234.229C233.996 9.22144 233.571 9.80477 232.955 10.2621C232.349 10.7101 231.593 10.9341 230.687 10.9341C229.95 10.9341 229.287 10.7708 228.699 10.4441C228.121 10.1081 227.663 9.64144 227.327 9.04411C227.001 8.43744 226.837 7.73744 226.837 6.94411C226.837 6.15077 226.996 5.45544 227.313 4.85811C227.64 4.25144 228.093 3.78477 228.671 3.4581C229.259 3.13144 229.931 2.96811 230.687 2.96811C231.415 2.96811 232.064 3.12677 232.633 3.44411C233.203 3.76144 233.646 4.20944 233.963 4.78811C234.281 5.35744 234.439 6.01544 234.439 6.76211ZM232.773 6.25811C232.764 5.67011 232.554 5.19877 232.143 4.84411C231.733 4.48944 231.224 4.31211 230.617 4.31211C230.067 4.31211 229.595 4.48944 229.203 4.84411C228.811 5.18944 228.578 5.66077 228.503 6.25811H232.773ZM238.81 10.9341C238.203 10.9341 237.657 10.8268 237.172 10.6121C236.696 10.3881 236.318 10.0894 236.038 9.71611C235.758 9.33344 235.609 8.90877 235.59 8.44211H237.242C237.27 8.76877 237.424 9.04411 237.704 9.26811C237.993 9.48277 238.353 9.59011 238.782 9.59011C239.23 9.59011 239.575 9.50611 239.818 9.33811C240.07 9.16077 240.196 8.93677 240.196 8.66611C240.196 8.37677 240.056 8.16211 239.776 8.02211C239.505 7.88211 239.071 7.72811 238.474 7.56011C237.895 7.40144 237.424 7.24744 237.06 7.09811C236.696 6.94877 236.379 6.72011 236.108 6.41211C235.847 6.10411 235.716 5.69811 235.716 5.19411C235.716 4.78344 235.837 4.41011 236.08 4.0741C236.323 3.72877 236.668 3.45811 237.116 3.2621C237.573 3.06611 238.096 2.96811 238.684 2.96811C239.561 2.96811 240.266 3.19211 240.798 3.64011C241.339 4.07877 241.629 4.68077 241.666 5.44611H240.07C240.042 5.10077 239.902 4.82544 239.65 4.62011C239.398 4.41477 239.057 4.31211 238.628 4.31211C238.208 4.31211 237.886 4.39144 237.662 4.55011C237.438 4.70877 237.326 4.91877 237.326 5.18011C237.326 5.38544 237.401 5.55811 237.55 5.69811C237.699 5.83811 237.881 5.95011 238.096 6.03411C238.311 6.10877 238.628 6.20677 239.048 6.32811C239.608 6.47744 240.065 6.63144 240.42 6.79011C240.784 6.93944 241.097 7.16344 241.358 7.46211C241.619 7.76077 241.755 8.15744 241.764 8.65211C241.764 9.09077 241.643 9.48277 241.4 9.82811C241.157 10.1734 240.812 10.4441 240.364 10.6401C239.925 10.8361 239.407 10.9341 238.81 10.9341ZM246.288 10.9341C245.682 10.9341 245.136 10.8268 244.65 10.6121C244.174 10.3881 243.796 10.0894 243.516 9.71611C243.236 9.33344 243.087 8.90877 243.068 8.44211H244.72C244.748 8.76877 244.902 9.04411 245.182 9.26811C245.472 9.48277 245.831 9.59011 246.26 9.59011C246.708 9.59011 247.054 9.50611 247.296 9.33811C247.548 9.16077 247.674 8.93677 247.674 8.66611C247.674 8.37677 247.534 8.16211 247.254 8.02211C246.984 7.88211 246.55 7.72811 245.952 7.56011C245.374 7.40144 244.902 7.24744 244.538 7.09811C244.174 6.94877 243.857 6.72011 243.586 6.41211C243.325 6.10411 243.194 5.69811 243.194 5.19411C243.194 4.78344 243.316 4.41011 243.558 4.0741C243.801 3.72877 244.146 3.45811 244.594 3.2621C245.052 3.06611 245.574 2.96811 246.162 2.96811C247.04 2.96811 247.744 3.19211 248.276 3.64011C248.818 4.07877 249.107 4.68077 249.144 5.44611H247.548C247.52 5.10077 247.38 4.82544 247.128 4.62011C246.876 4.41477 246.536 4.31211 246.106 4.31211C245.686 4.31211 245.364 4.39144 245.14 4.55011C244.916 4.70877 244.804 4.91877 244.804 5.18011C244.804 5.38544 244.879 5.55811 245.028 5.69811C245.178 5.83811 245.36 5.95011 245.574 6.03411C245.789 6.10877 246.106 6.20677 246.526 6.32811C247.086 6.47744 247.544 6.63144 247.898 6.79011C248.262 6.93944 248.575 7.16344 248.836 7.46211C249.098 7.76077 249.233 8.15744 249.242 8.65211C249.242 9.09077 249.121 9.48277 248.878 9.82811C248.636 10.1734 248.29 10.4441 247.842 10.6401C247.404 10.8361 246.886 10.9341 246.288 10.9341ZM258.037 6.76211C258.037 7.05144 258.018 7.31277 257.981 7.54611H252.087C252.134 8.16211 252.362 8.65677 252.773 9.03011C253.184 9.40344 253.688 9.59011 254.285 9.59011C255.144 9.59011 255.75 9.23077 256.105 8.51211H257.827C257.594 9.22144 257.169 9.80477 256.553 10.2621C255.946 10.7101 255.19 10.9341 254.285 10.9341C253.548 10.9341 252.885 10.7708 252.297 10.4441C251.718 10.1081 251.261 9.64144 250.925 9.04411C250.598 8.43744 250.435 7.73744 250.435 6.94411C250.435 6.15077 250.594 5.45544 250.911 4.85811C251.238 4.25144 251.69 3.78477 252.269 3.4581C252.857 3.13144 253.529 2.96811 254.285 2.96811C255.013 2.96811 255.662 3.12677 256.231 3.44411C256.8 3.76144 257.244 4.20944 257.561 4.78811C257.878 5.35744 258.037 6.01544 258.037 6.76211ZM256.371 6.25811C256.362 5.67011 256.152 5.19877 255.741 4.84411C255.33 4.48944 254.822 4.31211 254.215 4.31211C253.664 4.31211 253.193 4.48944 252.801 4.84411C252.409 5.18944 252.176 5.66077 252.101 6.25811H256.371ZM262.408 10.9341C261.801 10.9341 261.255 10.8268 260.77 10.6121C260.294 10.3881 259.916 10.0894 259.636 9.71611C259.356 9.33344 259.206 8.90877 259.188 8.44211H260.84C260.868 8.76877 261.022 9.04411 261.302 9.26811C261.591 9.48277 261.95 9.59011 262.38 9.59011C262.828 9.59011 263.173 9.50611 263.416 9.33811C263.668 9.16077 263.794 8.93677 263.794 8.66611C263.794 8.37677 263.654 8.16211 263.374 8.02211C263.103 7.88211 262.669 7.72811 262.072 7.56011C261.493 7.40144 261.022 7.24744 260.658 7.09811C260.294 6.94877 259.976 6.72011 259.706 6.41211C259.444 6.10411 259.314 5.69811 259.314 5.19411C259.314 4.78344 259.435 4.41011 259.678 4.0741C259.92 3.72877 260.266 3.45811 260.714 3.2621C261.171 3.06611 261.694 2.96811 262.282 2.96811C263.159 2.96811 263.864 3.19211 264.396 3.64011C264.937 4.07877 265.226 4.68077 265.264 5.44611H263.668C263.64 5.10077 263.5 4.82544 263.248 4.62011C262.996 4.41477 262.655 4.31211 262.226 4.31211C261.806 4.31211 261.484 4.39144 261.26 4.55011C261.036 4.70877 260.924 4.91877 260.924 5.18011C260.924 5.38544 260.998 5.55811 261.148 5.69811C261.297 5.83811 261.479 5.95011 261.694 6.03411C261.908 6.10877 262.226 6.20677 262.646 6.32811C263.206 6.47744 263.663 6.63144 264.018 6.79011C264.382 6.93944 264.694 7.16344 264.956 7.46211C265.217 7.76077 265.352 8.15744 265.362 8.65211C265.362 9.09077 265.24 9.48277 264.998 9.82811C264.755 10.1734 264.41 10.4441 263.962 10.6401C263.523 10.8361 263.005 10.9341 262.408 10.9341ZM8.05004 21.0781L4.83004 27.2801V30.8081H3.23404V27.2801L3.90708e-05 21.0781H1.77804L4.03204 25.8521L6.28604 21.0781H8.05004ZM12.6626 30.9341C11.9346 30.9341 11.2766 30.7708 10.6886 30.4441C10.1006 30.1081 9.6386 29.6414 9.3026 29.0441C8.9666 28.4374 8.7986 27.7374 8.7986 26.9441C8.7986 26.1601 8.97127 25.4648 9.3166 24.8581C9.66193 24.2514 10.1333 23.7848 10.7306 23.4581C11.3279 23.1314 11.9953 22.9681 12.7326 22.9681C13.4699 22.9681 14.1373 23.1314 14.7346 23.4581C15.3319 23.7848 15.8033 24.2514 16.1486 24.8581C16.4939 25.4648 16.6666 26.1601 16.6666 26.9441C16.6666 27.7281 16.4893 28.4234 16.1346 29.0301C15.7799 29.6368 15.2946 30.1081 14.6786 30.4441C14.0719 30.7708 13.3999 30.9341 12.6626 30.9341ZM12.6626 29.5481C13.0733 29.5481 13.4559 29.4501 13.8106 29.2541C14.1746 29.0581 14.4686 28.7641 14.6926 28.3721C14.9166 27.9801 15.0286 27.5041 15.0286 26.9441C15.0286 26.3841 14.9213 25.9128 14.7066 25.5301C14.4919 25.1381 14.2073 24.8441 13.8526 24.6481C13.4979 24.4521 13.1153 24.3541 12.7046 24.3541C12.2939 24.3541 11.9113 24.4521 11.5566 24.6481C11.2113 24.8441 10.9359 25.1381 10.7306 25.5301C10.5253 25.9128 10.4226 26.3841 10.4226 26.9441C10.4226 27.7748 10.6326 28.4188 11.0526 28.8761C11.4819 29.3241 12.0186 29.5481 12.6626 29.5481ZM25.2303 23.0941V30.8081H23.6343V29.8981C23.3823 30.2154 23.051 30.4674 22.6403 30.6541C22.239 30.8314 21.8097 30.9201 21.3523 30.9201C20.7457 30.9201 20.1997 30.7941 19.7143 30.5421C19.2383 30.2901 18.8603 29.9168 18.5803 29.4221C18.3097 28.9274 18.1743 28.3301 18.1743 27.6301V23.0941H19.7563V27.3921C19.7563 28.0828 19.929 28.6148 20.2743 28.9881C20.6197 29.3521 21.091 29.5341 21.6883 29.5341C22.2857 29.5341 22.757 29.3521 23.1023 28.9881C23.457 28.6148 23.6343 28.0828 23.6343 27.3921V23.0941H25.2303ZM28.9321 24.2141C29.1655 23.8221 29.4735 23.5188 29.8561 23.3041C30.2481 23.0801 30.7101 22.9681 31.2421 22.9681V24.6201H30.8361C30.2108 24.6201 29.7348 24.7788 29.4081 25.0961C29.0908 25.4134 28.9321 25.9641 28.9321 26.7481V30.8081H27.3361V23.0941H28.9321V24.2141ZM42.6319 21.0781V22.3801H40.0419V30.8081H38.4459V22.3801H35.8419V21.0781H42.6319ZM45.8442 24.2141C46.0776 23.8221 46.3856 23.5188 46.7682 23.3041C47.1602 23.0801 47.6222 22.9681 48.1542 22.9681V24.6201H47.7482C47.1229 24.6201 46.6469 24.7788 46.3202 25.0961C46.0029 25.4134 45.8442 25.9641 45.8442 26.7481V30.8081H44.2482V23.0941H45.8442V24.2141ZM56.6073 23.0941V30.8081H55.0113V29.8981C54.7593 30.2154 54.428 30.4674 54.0173 30.6541C53.616 30.8314 53.1866 30.9201 52.7293 30.9201C52.1226 30.9201 51.5766 30.7941 51.0913 30.5421C50.6153 30.2901 50.2373 29.9168 49.9573 29.4221C49.6866 28.9274 49.5513 28.3301 49.5513 27.6301V23.0941H51.1333V27.3921C51.1333 28.0828 51.306 28.6148 51.6513 28.9881C51.9966 29.3521 52.468 29.5341 53.0653 29.5341C53.6626 29.5341 54.134 29.3521 54.4793 28.9881C54.834 28.6148 55.0113 28.0828 55.0113 27.3921V23.0941H56.6073ZM61.5131 30.9341C60.9064 30.9341 60.3604 30.8268 59.8751 30.6121C59.3991 30.3881 59.0211 30.0894 58.7411 29.7161C58.4611 29.3334 58.3118 28.9088 58.2931 28.4421H59.9451C59.9731 28.7688 60.1271 29.0441 60.4071 29.2681C60.6964 29.4828 61.0558 29.5901 61.4851 29.5901C61.9331 29.5901 62.2784 29.5061 62.5211 29.3381C62.7731 29.1608 62.8991 28.9368 62.8991 28.6661C62.8991 28.3768 62.7591 28.1621 62.4791 28.0221C62.2084 27.8821 61.7744 27.7281 61.1771 27.5601C60.5984 27.4014 60.1271 27.2474 59.7631 27.0981C59.3991 26.9488 59.0818 26.7201 58.8111 26.4121C58.5498 26.1041 58.4191 25.6981 58.4191 25.1941C58.4191 24.7834 58.5404 24.4101 58.7831 24.0741C59.0258 23.7288 59.3711 23.4581 59.8191 23.2621C60.2764 23.0661 60.7991 22.9681 61.3871 22.9681C62.2644 22.9681 62.9691 23.1921 63.5011 23.6401C64.0424 24.0788 64.3318 24.6808 64.3691 25.4461H62.7731C62.7451 25.1008 62.6051 24.8254 62.3531 24.6201C62.1011 24.4148 61.7604 24.3121 61.3311 24.3121C60.9111 24.3121 60.5891 24.3914 60.3651 24.5501C60.1411 24.7088 60.0291 24.9188 60.0291 25.1801C60.0291 25.3854 60.1038 25.5581 60.2531 25.6981C60.4024 25.8381 60.5844 25.9501 60.7991 26.0341C61.0138 26.1088 61.3311 26.2068 61.7511 26.3281C62.3111 26.4774 62.7684 26.6314 63.1231 26.7901C63.4871 26.9394 63.7998 27.1634 64.0611 27.4621C64.3224 27.7608 64.4578 28.1574 64.4671 28.6521C64.4671 29.0908 64.3458 29.4828 64.1031 29.8281C63.8604 30.1734 63.5151 30.4441 63.0671 30.6401C62.6284 30.8361 62.1104 30.9341 61.5131 30.9341ZM68.0536 24.3961V28.6661C68.0536 28.9554 68.1189 29.1654 68.2496 29.2961C68.3896 29.4174 68.6229 29.4781 68.9496 29.4781H69.9296V30.8081H68.6696C67.9509 30.8081 67.4003 30.6401 67.0176 30.3041C66.6349 29.9681 66.4436 29.4221 66.4436 28.6661V24.3961H65.5336V23.0941H66.4436V21.1761H68.0536V23.0941H69.9296V24.3961H68.0536ZM78.4706 26.7621C78.4706 27.0514 78.4519 27.3128 78.4146 27.5461H72.5206C72.5673 28.1621 72.7959 28.6568 73.2066 29.0301C73.6173 29.4034 74.1213 29.5901 74.7186 29.5901C75.5773 29.5901 76.1839 29.2308 76.5386 28.5121H78.2606C78.0273 29.2214 77.6026 29.8048 76.9866 30.2621C76.3799 30.7101 75.6239 30.9341 74.7186 30.9341C73.9813 30.9341 73.3186 30.7708 72.7306 30.4441C72.1519 30.1081 71.6946 29.6414 71.3586 29.0441C71.0319 28.4374 70.8686 27.7374 70.8686 26.9441C70.8686 26.1508 71.0273 25.4554 71.3446 24.8581C71.6713 24.2514 72.1239 23.7848 72.7026 23.4581C73.2906 23.1314 73.9626 22.9681 74.7186 22.9681C75.4466 22.9681 76.0953 23.1268 76.6646 23.4441C77.2339 23.7614 77.6773 24.2094 77.9946 24.7881C78.3119 25.3574 78.4706 26.0154 78.4706 26.7621ZM76.8046 26.2581C76.7953 25.6701 76.5853 25.1988 76.1746 24.8441C75.7639 24.4894 75.2553 24.3121 74.6486 24.3121C74.0979 24.3121 73.6266 24.4894 73.2346 24.8441C72.8426 25.1894 72.6093 25.6608 72.5346 26.2581H76.8046ZM79.5092 26.9161C79.5092 26.1414 79.6679 25.4554 79.9852 24.8581C80.3119 24.2608 80.7505 23.7988 81.3012 23.4721C81.8612 23.1361 82.4819 22.9681 83.1632 22.9681C83.6672 22.9681 84.1619 23.0801 84.6472 23.3041C85.1419 23.5188 85.5339 23.8081 85.8232 24.1721V20.4481H87.4332V30.8081H85.8232V29.6461C85.5619 30.0194 85.1979 30.3274 84.7312 30.5701C84.2739 30.8128 83.7465 30.9341 83.1492 30.9341C82.4772 30.9341 81.8612 30.7661 81.3012 30.4301C80.7505 30.0848 80.3119 29.6088 79.9852 29.0021C79.6679 28.3861 79.5092 27.6908 79.5092 26.9161ZM85.8232 26.9441C85.8232 26.4121 85.7112 25.9501 85.4872 25.5581C85.2725 25.1661 84.9879 24.8674 84.6332 24.6621C84.2785 24.4568 83.8959 24.3541 83.4852 24.3541C83.0745 24.3541 82.6919 24.4568 82.3372 24.6621C81.9825 24.8581 81.6932 25.1521 81.4692 25.5441C81.2545 25.9268 81.1472 26.3841 81.1472 26.9161C81.1472 27.4481 81.2545 27.9148 81.4692 28.3161C81.6932 28.7174 81.9825 29.0254 82.3372 29.2401C82.7012 29.4454 83.0839 29.5481 83.4852 29.5481C83.8959 29.5481 84.2785 29.4454 84.6332 29.2401C84.9879 29.0348 85.2725 28.7361 85.4872 28.3441C85.7112 27.9428 85.8232 27.4761 85.8232 26.9441ZM98.8922 21.0781V22.3801H94.7622V25.2501H97.9822V26.5521H94.7622V30.8081H93.1662V21.0781H98.8922ZM103.717 30.9341C102.989 30.9341 102.331 30.7708 101.743 30.4441C101.155 30.1081 100.693 29.6414 100.357 29.0441C100.021 28.4374 99.8533 27.7374 99.8533 26.9441C99.8533 26.1601 100.026 25.4648 100.371 24.8581C100.717 24.2514 101.188 23.7848 101.785 23.4581C102.383 23.1314 103.05 22.9681 103.787 22.9681C104.525 22.9681 105.192 23.1314 105.789 23.4581C106.387 23.7848 106.858 24.2514 107.203 24.8581C107.549 25.4648 107.721 26.1601 107.721 26.9441C107.721 27.7281 107.544 28.4234 107.189 29.0301C106.835 29.6368 106.349 30.1081 105.733 30.4441C105.127 30.7708 104.455 30.9341 103.717 30.9341ZM103.717 29.5481C104.128 29.5481 104.511 29.4501 104.865 29.2541C105.229 29.0581 105.523 28.7641 105.747 28.3721C105.971 27.9801 106.083 27.5041 106.083 26.9441C106.083 26.3841 105.976 25.9128 105.761 25.5301C105.547 25.1381 105.262 24.8441 104.907 24.6481C104.553 24.4521 104.17 24.3541 103.759 24.3541C103.349 24.3541 102.966 24.4521 102.611 24.6481C102.266 24.8441 101.991 25.1381 101.785 25.5301C101.58 25.9128 101.477 26.3841 101.477 26.9441C101.477 27.7748 101.687 28.4188 102.107 28.8761C102.537 29.3241 103.073 29.5481 103.717 29.5481ZM112.645 30.9341C111.917 30.9341 111.259 30.7708 110.671 30.4441C110.083 30.1081 109.621 29.6414 109.285 29.0441C108.949 28.4374 108.781 27.7374 108.781 26.9441C108.781 26.1601 108.954 25.4648 109.299 24.8581C109.644 24.2514 110.116 23.7848 110.713 23.4581C111.31 23.1314 111.978 22.9681 112.715 22.9681C113.452 22.9681 114.12 23.1314 114.717 23.4581C115.314 23.7848 115.786 24.2514 116.131 24.8581C116.476 25.4648 116.649 26.1601 116.649 26.9441C116.649 27.7281 116.472 28.4234 116.117 29.0301C115.762 29.6368 115.277 30.1081 114.661 30.4441C114.054 30.7708 113.382 30.9341 112.645 30.9341ZM112.645 29.5481C113.056 29.5481 113.438 29.4501 113.793 29.2541C114.157 29.0581 114.451 28.7641 114.675 28.3721C114.899 27.9801 115.011 27.5041 115.011 26.9441C115.011 26.3841 114.904 25.9128 114.689 25.5301C114.474 25.1381 114.19 24.8441 113.835 24.6481C113.48 24.4521 113.098 24.3541 112.687 24.3541C112.276 24.3541 111.894 24.4521 111.539 24.6481C111.194 24.8441 110.918 25.1381 110.713 25.5301C110.508 25.9128 110.405 26.3841 110.405 26.9441C110.405 27.7748 110.615 28.4188 111.035 28.8761C111.464 29.3241 112.001 29.5481 112.645 29.5481ZM117.695 26.9161C117.695 26.1414 117.853 25.4554 118.171 24.8581C118.497 24.2608 118.936 23.7988 119.487 23.4721C120.047 23.1361 120.667 22.9681 121.349 22.9681C121.853 22.9681 122.347 23.0801 122.833 23.3041C123.327 23.5188 123.719 23.8081 124.009 24.1721V20.4481H125.619V30.8081H124.009V29.6461C123.747 30.0194 123.383 30.3274 122.917 30.5701C122.459 30.8128 121.932 30.9341 121.335 30.9341C120.663 30.9341 120.047 30.7661 119.487 30.4301C118.936 30.0848 118.497 29.6088 118.171 29.0021C117.853 28.3861 117.695 27.6908 117.695 26.9161ZM124.009 26.9441C124.009 26.4121 123.897 25.9501 123.673 25.5581C123.458 25.1661 123.173 24.8674 122.819 24.6621C122.464 24.4568 122.081 24.3541 121.671 24.3541C121.26 24.3541 120.877 24.4568 120.523 24.6621C120.168 24.8581 119.879 25.1521 119.655 25.5441C119.44 25.9268 119.333 26.3841 119.333 26.9161C119.333 27.4481 119.44 27.9148 119.655 28.3161C119.879 28.7174 120.168 29.0254 120.523 29.2401C120.887 29.4454 121.269 29.5481 121.671 29.5481C122.081 29.5481 122.464 29.4454 122.819 29.2401C123.173 29.0348 123.458 28.7361 123.673 28.3441C123.897 27.9428 124.009 27.4761 124.009 26.9441ZM133.637 25.0681V26.4121H127.883V25.0681H133.637ZM142.946 23.8781C142.694 23.3928 142.344 23.0288 141.896 22.7861C141.448 22.5341 140.93 22.4081 140.342 22.4081C139.698 22.4081 139.124 22.5528 138.62 22.8421C138.116 23.1314 137.72 23.5421 137.43 24.0741C137.15 24.6061 137.01 25.2221 137.01 25.9221C137.01 26.6221 137.15 27.2428 137.43 27.7841C137.72 28.3161 138.116 28.7268 138.62 29.0161C139.124 29.3054 139.698 29.4501 140.342 29.4501C141.21 29.4501 141.915 29.2074 142.456 28.7221C142.998 28.2368 143.329 27.5788 143.45 26.7481H139.796V25.4741H145.158V26.7201C145.056 27.4761 144.785 28.1714 144.346 28.8061C143.917 29.4408 143.352 29.9494 142.652 30.3321C141.962 30.7054 141.192 30.8921 140.342 30.8921C139.428 30.8921 138.592 30.6821 137.836 30.2621C137.08 29.8328 136.478 29.2401 136.03 28.4841C135.592 27.7281 135.372 26.8741 135.372 25.9221C135.372 24.9701 135.592 24.1161 136.03 23.3601C136.478 22.6041 137.08 22.0161 137.836 21.5961C138.602 21.1668 139.437 20.9521 140.342 20.9521C141.378 20.9521 142.298 21.2088 143.1 21.7221C143.912 22.2261 144.5 22.9448 144.864 23.8781H142.946ZM148.329 24.2141C148.562 23.8221 148.87 23.5188 149.253 23.3041C149.645 23.0801 150.107 22.9681 150.639 22.9681V24.6201H150.233C149.607 24.6201 149.131 24.7788 148.805 25.0961C148.487 25.4134 148.329 25.9641 148.329 26.7481V30.8081H146.733V23.0941H148.329V24.2141ZM151.574 26.9161C151.574 26.1414 151.732 25.4554 152.05 24.8581C152.376 24.2608 152.815 23.7988 153.366 23.4721C153.926 23.1361 154.542 22.9681 155.214 22.9681C155.82 22.9681 156.348 23.0894 156.796 23.3321C157.253 23.5654 157.617 23.8594 157.888 24.2141V23.0941H159.498V30.8081H157.888V29.6601C157.617 30.0241 157.248 30.3274 156.782 30.5701C156.315 30.8128 155.783 30.9341 155.186 30.9341C154.523 30.9341 153.916 30.7661 153.366 30.4301C152.815 30.0848 152.376 29.6088 152.05 29.0021C151.732 28.3861 151.574 27.6908 151.574 26.9161ZM157.888 26.9441C157.888 26.4121 157.776 25.9501 157.552 25.5581C157.337 25.1661 157.052 24.8674 156.698 24.6621C156.343 24.4568 155.96 24.3541 155.55 24.3541C155.139 24.3541 154.756 24.4568 154.402 24.6621C154.047 24.8581 153.758 25.1521 153.534 25.5441C153.319 25.9268 153.212 26.3841 153.212 26.9161C153.212 27.4481 153.319 27.9148 153.534 28.3161C153.758 28.7174 154.047 29.0254 154.402 29.2401C154.766 29.4454 155.148 29.5481 155.55 29.5481C155.96 29.5481 156.343 29.4454 156.698 29.2401C157.052 29.0348 157.337 28.7361 157.552 28.3441C157.776 27.9428 157.888 27.4761 157.888 26.9441ZM161.062 26.9161C161.062 26.1414 161.221 25.4554 161.538 24.8581C161.865 24.2608 162.303 23.7988 162.854 23.4721C163.414 23.1361 164.035 22.9681 164.716 22.9681C165.22 22.9681 165.715 23.0801 166.2 23.3041C166.695 23.5188 167.087 23.8081 167.376 24.1721V20.4481H168.986V30.8081H167.376V29.6461C167.115 30.0194 166.751 30.3274 166.284 30.5701C165.827 30.8128 165.299 30.9341 164.702 30.9341C164.03 30.9341 163.414 30.7661 162.854 30.4301C162.303 30.0848 161.865 29.6088 161.538 29.0021C161.221 28.3861 161.062 27.6908 161.062 26.9161ZM167.376 26.9441C167.376 26.4121 167.264 25.9501 167.04 25.5581C166.825 25.1661 166.541 24.8674 166.186 24.6621C165.831 24.4568 165.449 24.3541 165.038 24.3541C164.627 24.3541 164.245 24.4568 163.89 24.6621C163.535 24.8581 163.246 25.1521 163.022 25.5441C162.807 25.9268 162.7 26.3841 162.7 26.9161C162.7 27.4481 162.807 27.9148 163.022 28.3161C163.246 28.7174 163.535 29.0254 163.89 29.2401C164.254 29.4454 164.637 29.5481 165.038 29.5481C165.449 29.5481 165.831 29.4454 166.186 29.2401C166.541 29.0348 166.825 28.7361 167.04 28.3441C167.264 27.9428 167.376 27.4761 167.376 26.9441ZM178.152 26.7621C178.152 27.0514 178.134 27.3128 178.096 27.5461H172.202C172.249 28.1621 172.478 28.6568 172.888 29.0301C173.299 29.4034 173.803 29.5901 174.4 29.5901C175.259 29.5901 175.866 29.2308 176.22 28.5121H177.942C177.709 29.2214 177.284 29.8048 176.668 30.2621C176.062 30.7101 175.306 30.9341 174.4 30.9341C173.663 30.9341 173 30.7708 172.412 30.4441C171.834 30.1081 171.376 29.6414 171.04 29.0441C170.714 28.4374 170.55 27.7374 170.55 26.9441C170.55 26.1508 170.709 25.4554 171.026 24.8581C171.353 24.2514 171.806 23.7848 172.384 23.4581C172.972 23.1314 173.644 22.9681 174.4 22.9681C175.128 22.9681 175.777 23.1268 176.346 23.4441C176.916 23.7614 177.359 24.2094 177.676 24.7881C177.994 25.3574 178.152 26.0154 178.152 26.7621ZM176.486 26.2581C176.477 25.6701 176.267 25.1988 175.856 24.8441C175.446 24.4894 174.937 24.3121 174.33 24.3121C173.78 24.3121 173.308 24.4894 172.916 24.8441C172.524 25.1894 172.291 25.6608 172.216 26.2581H176.486ZM190.164 23.9761C190.164 24.4708 190.047 24.9374 189.814 25.3761C189.58 25.8148 189.207 26.1741 188.694 26.4541C188.18 26.7248 187.522 26.8601 186.72 26.8601H184.956V30.8081H183.36V21.0781H186.72C187.466 21.0781 188.096 21.2088 188.61 21.4701C189.132 21.7221 189.52 22.0674 189.772 22.5061C190.033 22.9448 190.164 23.4348 190.164 23.9761ZM186.72 25.5581C187.326 25.5581 187.779 25.4228 188.078 25.1521C188.376 24.8721 188.526 24.4801 188.526 23.9761C188.526 22.9121 187.924 22.3801 186.72 22.3801H184.956V25.5581H186.72ZM191.154 26.9161C191.154 26.1414 191.312 25.4554 191.63 24.8581C191.956 24.2608 192.395 23.7988 192.946 23.4721C193.506 23.1361 194.122 22.9681 194.794 22.9681C195.4 22.9681 195.928 23.0894 196.376 23.3321C196.833 23.5654 197.197 23.8594 197.468 24.2141V23.0941H199.078V30.8081H197.468V29.6601C197.197 30.0241 196.828 30.3274 196.362 30.5701C195.895 30.8128 195.363 30.9341 194.766 30.9341C194.103 30.9341 193.496 30.7661 192.946 30.4301C192.395 30.0848 191.956 29.6088 191.63 29.0021C191.312 28.3861 191.154 27.6908 191.154 26.9161ZM197.468 26.9441C197.468 26.4121 197.356 25.9501 197.132 25.5581C196.917 25.1661 196.632 24.8674 196.278 24.6621C195.923 24.4568 195.54 24.3541 195.13 24.3541C194.719 24.3541 194.336 24.4568 193.982 24.6621C193.627 24.8581 193.338 25.1521 193.114 25.5441C192.899 25.9268 192.792 26.3841 192.792 26.9161C192.792 27.4481 192.899 27.9148 193.114 28.3161C193.338 28.7174 193.627 29.0254 193.982 29.2401C194.346 29.4454 194.728 29.5481 195.13 29.5481C195.54 29.5481 195.923 29.4454 196.278 29.2401C196.632 29.0348 196.917 28.7361 197.132 28.3441C197.356 27.9428 197.468 27.4761 197.468 26.9441ZM200.642 26.9441C200.642 26.1508 200.801 25.4554 201.118 24.8581C201.445 24.2514 201.893 23.7848 202.462 23.4581C203.031 23.1314 203.685 22.9681 204.422 22.9681C205.355 22.9681 206.125 23.1921 206.732 23.6401C207.348 24.0788 207.763 24.7088 207.978 25.5301H206.256C206.116 25.1474 205.892 24.8488 205.584 24.6341C205.276 24.4194 204.889 24.3121 204.422 24.3121C203.769 24.3121 203.246 24.5454 202.854 25.0121C202.471 25.4694 202.28 26.1134 202.28 26.9441C202.28 27.7748 202.471 28.4234 202.854 28.8901C203.246 29.3568 203.769 29.5901 204.422 29.5901C205.346 29.5901 205.957 29.1841 206.256 28.3721H207.978C207.754 29.1561 207.334 29.7814 206.718 30.2481C206.102 30.7054 205.337 30.9341 204.422 30.9341C203.685 30.9341 203.031 30.7708 202.462 30.4441C201.893 30.1081 201.445 29.6414 201.118 29.0441C200.801 28.4374 200.642 27.7374 200.642 26.9441ZM212.621 26.9581L216.177 30.8081H214.021L211.165 27.4901V30.8081H209.569V20.4481H211.165V26.4681L213.965 23.0941H216.177L212.621 26.9581ZM216.789 26.9161C216.789 26.1414 216.947 25.4554 217.265 24.8581C217.591 24.2608 218.03 23.7988 218.581 23.4721C219.141 23.1361 219.757 22.9681 220.429 22.9681C221.035 22.9681 221.563 23.0894 222.011 23.3321C222.468 23.5654 222.832 23.8594 223.103 24.2141V23.0941H224.713V30.8081H223.103V29.6601C222.832 30.0241 222.463 30.3274 221.997 30.5701C221.53 30.8128 220.998 30.9341 220.401 30.9341C219.738 30.9341 219.131 30.7661 218.581 30.4301C218.03 30.0848 217.591 29.6088 217.265 29.0021C216.947 28.3861 216.789 27.6908 216.789 26.9161ZM223.103 26.9441C223.103 26.4121 222.991 25.9501 222.767 25.5581C222.552 25.1661 222.267 24.8674 221.913 24.6621C221.558 24.4568 221.175 24.3541 220.765 24.3541C220.354 24.3541 219.971 24.4568 219.617 24.6621C219.262 24.8581 218.973 25.1521 218.749 25.5441C218.534 25.9268 218.427 26.3841 218.427 26.9161C218.427 27.4481 218.534 27.9148 218.749 28.3161C218.973 28.7174 219.262 29.0254 219.617 29.2401C219.981 29.4454 220.363 29.5481 220.765 29.5481C221.175 29.5481 221.558 29.4454 221.913 29.2401C222.267 29.0348 222.552 28.7361 222.767 28.3441C222.991 27.9428 223.103 27.4761 223.103 26.9441ZM229.917 22.9681C230.514 22.9681 231.041 23.0894 231.499 23.3321C231.965 23.5654 232.329 23.8594 232.591 24.2141V23.0941H234.201V30.9341C234.201 31.6434 234.051 32.2734 233.753 32.8241C233.454 33.3841 233.02 33.8228 232.451 34.1401C231.891 34.4574 231.219 34.6161 230.435 34.6161C229.389 34.6161 228.521 34.3688 227.831 33.8741C227.14 33.3888 226.748 32.7261 226.655 31.8861H228.237C228.358 32.2874 228.615 32.6094 229.007 32.8521C229.408 33.1041 229.884 33.2301 230.435 33.2301C231.079 33.2301 231.597 33.0341 231.989 32.6421C232.39 32.2501 232.591 31.6808 232.591 30.9341V29.6461C232.32 30.0101 231.951 30.3181 231.485 30.5701C231.027 30.8128 230.505 30.9341 229.917 30.9341C229.245 30.9341 228.629 30.7661 228.069 30.4301C227.518 30.0848 227.079 29.6088 226.753 29.0021C226.435 28.3861 226.277 27.6908 226.277 26.9161C226.277 26.1414 226.435 25.4554 226.753 24.8581C227.079 24.2608 227.518 23.7988 228.069 23.4721C228.629 23.1361 229.245 22.9681 229.917 22.9681ZM232.591 26.9441C232.591 26.4121 232.479 25.9501 232.255 25.5581C232.04 25.1661 231.755 24.8674 231.401 24.6621C231.046 24.4568 230.663 24.3541 230.253 24.3541C229.842 24.3541 229.459 24.4568 229.105 24.6621C228.75 24.8581 228.461 25.1521 228.237 25.5441C228.022 25.9268 227.915 26.3841 227.915 26.9161C227.915 27.4481 228.022 27.9148 228.237 28.3161C228.461 28.7174 228.75 29.0254 229.105 29.2401C229.469 29.4454 229.851 29.5481 230.253 29.5481C230.663 29.5481 231.046 29.4454 231.401 29.2401C231.755 29.0348 232.04 28.7361 232.255 28.3441C232.479 27.9428 232.591 27.4761 232.591 26.9441ZM237.109 22.0721C236.82 22.0721 236.577 21.9741 236.381 21.7781C236.185 21.5821 236.087 21.3394 236.087 21.0501C236.087 20.7608 236.185 20.5181 236.381 20.3221C236.577 20.1261 236.82 20.0281 237.109 20.0281C237.389 20.0281 237.627 20.1261 237.823 20.3221C238.019 20.5181 238.117 20.7608 238.117 21.0501C238.117 21.3394 238.019 21.5821 237.823 21.7781C237.627 21.9741 237.389 22.0721 237.109 22.0721ZM237.893 23.0941V30.8081H236.297V23.0941H237.893ZM243.88 22.9681C244.487 22.9681 245.028 23.0941 245.504 23.3461C245.99 23.5981 246.368 23.9714 246.638 24.4661C246.909 24.9608 247.044 25.5581 247.044 26.2581V30.8081H245.462V26.4961C245.462 25.8054 245.29 25.2781 244.944 24.9141C244.599 24.5408 244.128 24.3541 243.53 24.3541C242.933 24.3541 242.457 24.5408 242.102 24.9141C241.757 25.2781 241.584 25.8054 241.584 26.4961V30.8081H239.988V23.0941H241.584V23.9761C241.846 23.6588 242.177 23.4114 242.578 23.2341C242.989 23.0568 243.423 22.9681 243.88 22.9681ZM252.188 22.9681C252.786 22.9681 253.313 23.0894 253.77 23.3321C254.237 23.5654 254.601 23.8594 254.862 24.2141V23.0941H256.472V30.9341C256.472 31.6434 256.323 32.2734 256.024 32.8241C255.726 33.3841 255.292 33.8228 254.722 34.1401C254.162 34.4574 253.49 34.6161 252.706 34.6161C251.661 34.6161 250.793 34.3688 250.102 33.8741C249.412 33.3888 249.02 32.7261 248.926 31.8861H250.508C250.63 32.2874 250.886 32.6094 251.278 32.8521C251.68 33.1041 252.156 33.2301 252.706 33.2301C253.35 33.2301 253.868 33.0341 254.26 32.6421C254.662 32.2501 254.862 31.6808 254.862 30.9341V29.6461C254.592 30.0101 254.223 30.3181 253.756 30.5701C253.299 30.8128 252.776 30.9341 252.188 30.9341C251.516 30.9341 250.9 30.7661 250.34 30.4301C249.79 30.0848 249.351 29.6088 249.024 29.0021C248.707 28.3861 248.548 27.6908 248.548 26.9161C248.548 26.1414 248.707 25.4554 249.024 24.8581C249.351 24.2608 249.79 23.7988 250.34 23.4721C250.9 23.1361 251.516 22.9681 252.188 22.9681ZM254.862 26.9441C254.862 26.4121 254.75 25.9501 254.526 25.5581C254.312 25.1661 254.027 24.8674 253.672 24.6621C253.318 24.4568 252.935 24.3541 252.524 24.3541C252.114 24.3541 251.731 24.4568 251.376 24.6621C251.022 24.8581 250.732 25.1521 250.508 25.5441C250.294 25.9268 250.186 26.3841 250.186 26.9161C250.186 27.4481 250.294 27.9148 250.508 28.3161C250.732 28.7174 251.022 29.0254 251.376 29.2401C251.74 29.4454 252.123 29.5481 252.524 29.5481C252.935 29.5481 253.318 29.4454 253.672 29.2401C254.027 29.0348 254.312 28.7361 254.526 28.3441C254.75 27.9428 254.862 27.4761 254.862 26.9441ZM269.009 23.9761C269.009 24.4708 268.893 24.9374 268.659 25.3761C268.426 25.8148 268.053 26.1741 267.539 26.4541C267.026 26.7248 266.368 26.8601 265.565 26.8601H263.801V30.8081H262.205V21.0781H265.565C266.312 21.0781 266.942 21.2088 267.455 21.4701C267.978 21.7221 268.365 22.0674 268.617 22.5061C268.879 22.9448 269.009 23.4348 269.009 23.9761ZM265.565 25.5581C266.172 25.5581 266.625 25.4228 266.923 25.1521C267.222 24.8721 267.371 24.4801 267.371 23.9761C267.371 22.9121 266.769 22.3801 265.565 22.3801H263.801V25.5581H265.565ZM269.999 26.9161C269.999 26.1414 270.158 25.4554 270.475 24.8581C270.802 24.2608 271.241 23.7988 271.791 23.4721C272.351 23.1361 272.967 22.9681 273.639 22.9681C274.246 22.9681 274.773 23.0894 275.221 23.3321C275.679 23.5654 276.043 23.8594 276.313 24.2141V23.0941H277.923V30.8081H276.313V29.6601C276.043 30.0241 275.674 30.3274 275.207 30.5701C274.741 30.8128 274.209 30.9341 273.611 30.9341C272.949 30.9341 272.342 30.7661 271.791 30.4301C271.241 30.0848 270.802 29.6088 270.475 29.0021C270.158 28.3861 269.999 27.6908 269.999 26.9161ZM276.313 26.9441C276.313 26.4121 276.201 25.9501 275.977 25.5581C275.763 25.1661 275.478 24.8674 275.123 24.6621C274.769 24.4568 274.386 24.3541 273.975 24.3541C273.565 24.3541 273.182 24.4568 272.827 24.6621C272.473 24.8581 272.183 25.1521 271.959 25.5441C271.745 25.9268 271.637 26.3841 271.637 26.9161C271.637 27.4481 271.745 27.9148 271.959 28.3161C272.183 28.7174 272.473 29.0254 272.827 29.2401C273.191 29.4454 273.574 29.5481 273.975 29.5481C274.386 29.5481 274.769 29.4454 275.123 29.2401C275.478 29.0348 275.763 28.7361 275.977 28.3441C276.201 27.9428 276.313 27.4761 276.313 26.9441ZM281.616 24.2141C281.849 23.8221 282.157 23.5188 282.54 23.3041C282.932 23.0801 283.394 22.9681 283.926 22.9681V24.6201H283.52C282.894 24.6201 282.418 24.7788 282.092 25.0961C281.774 25.4134 281.616 25.9641 281.616 26.7481V30.8081H280.02V23.0941H281.616V24.2141ZM287.255 24.3961V28.6661C287.255 28.9554 287.32 29.1654 287.451 29.2961C287.591 29.4174 287.824 29.4781 288.151 29.4781H289.131V30.8081H287.871C287.152 30.8081 286.601 30.6401 286.219 30.3041C285.836 29.9681 285.645 29.4221 285.645 28.6661V24.3961H284.735V23.0941H285.645V21.1761H287.255V23.0941H289.131V24.3961H287.255ZM294.494 22.9681C295.1 22.9681 295.642 23.0941 296.118 23.3461C296.603 23.5981 296.981 23.9714 297.252 24.4661C297.522 24.9608 297.658 25.5581 297.658 26.2581V30.8081H296.076V26.4961C296.076 25.8054 295.903 25.2781 295.558 24.9141C295.212 24.5408 294.741 24.3541 294.144 24.3541C293.546 24.3541 293.07 24.5408 292.716 24.9141C292.37 25.2781 292.198 25.8054 292.198 26.4961V30.8081H290.602V23.0941H292.198V23.9761C292.459 23.6588 292.79 23.4114 293.192 23.2341C293.602 23.0568 294.036 22.9681 294.494 22.9681ZM306.764 26.7621C306.764 27.0514 306.745 27.3128 306.708 27.5461H300.814C300.86 28.1621 301.089 28.6568 301.5 29.0301C301.91 29.4034 302.414 29.5901 303.012 29.5901C303.87 29.5901 304.477 29.2308 304.832 28.5121H306.554C306.32 29.2214 305.896 29.8048 305.28 30.2621C304.673 30.7101 303.917 30.9341 303.012 30.9341C302.274 30.9341 301.612 30.7708 301.024 30.4441C300.445 30.1081 299.988 29.6414 299.652 29.0441C299.325 28.4374 299.162 27.7374 299.162 26.9441C299.162 26.1508 299.32 25.4554 299.638 24.8581C299.964 24.2514 300.417 23.7848 300.996 23.4581C301.584 23.1314 302.256 22.9681 303.012 22.9681C303.74 22.9681 304.388 23.1268 304.958 23.4441C305.527 23.7614 305.97 24.2094 306.288 24.7881C306.605 25.3574 306.764 26.0154 306.764 26.7621ZM305.098 26.2581C305.088 25.6701 304.878 25.1988 304.468 24.8441C304.057 24.4894 303.548 24.3121 302.942 24.3121C302.391 24.3121 301.92 24.4894 301.528 24.8441C301.136 25.1894 300.902 25.6608 300.828 26.2581H305.098ZM309.93 24.2141C310.164 23.8221 310.472 23.5188 310.854 23.3041C311.246 23.0801 311.708 22.9681 312.24 22.9681V24.6201H311.834C311.209 24.6201 310.733 24.7788 310.406 25.0961C310.089 25.4134 309.93 25.9641 309.93 26.7481V30.8081H308.334V23.0941H309.93V24.2141Z" fill="#83C9EC"/>
</svg>
