<svg width="427" height="14" viewBox="0 0 427 14" fill="none" xmlns="http://www.w3.org/2000/svg">
<path d="M4.42799 9.98029C4.56678 9.93981 4.71596 9.95612 4.84272 10.0256C4.96948 10.0951 5.06344 10.2122 5.10392 10.351C5.14439 10.4897 5.12808 10.6389 5.05857 10.7657C4.98906 10.8925 4.87203 10.9864 4.73325 11.0269C4.4607 11.1065 4.26446 11.1904 4.13854 11.2667C4.26827 11.3447 4.47323 11.4319 4.75778 11.5131C5.38737 11.693 6.28842 11.8118 7.30613 11.8118C8.32383 11.8118 9.22488 11.693 9.85448 11.5131C10.1396 11.4319 10.344 11.3447 10.4737 11.2667C10.3483 11.1904 10.1521 11.1065 9.87955 11.0269C9.74295 10.9846 9.62842 10.8904 9.56066 10.7645C9.49289 10.6385 9.47732 10.491 9.51729 10.3538C9.55726 10.2165 9.64958 10.1004 9.77434 10.0305C9.89911 9.96066 10.0463 9.94262 10.1843 9.98029C10.5484 10.0866 10.882 10.2229 11.1382 10.3978C11.3753 10.5608 11.6669 10.8448 11.6669 11.2667C11.6669 11.6935 11.3682 11.9797 11.1273 12.1427C10.8667 12.3182 10.526 12.4551 10.1537 12.5613C9.40259 12.7767 8.39633 12.902 7.30613 12.902C6.21592 12.902 5.20966 12.7767 4.45851 12.5613C4.08621 12.4551 3.74552 12.3182 3.48496 12.1427C3.24403 11.9792 2.94531 11.6935 2.94531 11.2667C2.94531 10.8448 3.23694 10.5608 3.47406 10.3978C3.73026 10.2229 4.06386 10.0866 4.42799 9.98029ZM7.30613 2C8.3904 2 9.43027 2.43073 10.197 3.19742C10.9637 3.96412 11.3944 5.00399 11.3944 6.08826C11.3944 7.48808 10.6312 8.62626 9.84085 9.43519C9.52665 9.75349 9.18901 10.0478 8.83078 10.3155C8.50699 10.5586 7.76674 11.0143 7.76674 11.0143C7.62634 11.0941 7.46762 11.1361 7.30613 11.1361C7.14463 11.1361 6.98591 11.0941 6.84552 11.0143C6.47815 10.8013 6.12292 10.568 5.78148 10.3155C5.42271 10.0484 5.08502 9.7541 4.7714 9.43519C3.98101 8.62626 3.21786 7.48808 3.21786 6.08826C3.21786 5.00399 3.64859 3.96412 4.41529 3.19742C5.18199 2.43073 6.22185 2 7.30613 2ZM7.30613 4.99806C7.01699 4.99806 6.73969 5.11292 6.53524 5.31737C6.33078 5.52183 6.21592 5.79912 6.21592 6.08826C6.21592 6.3774 6.33078 6.6547 6.53524 6.85915C6.73969 7.06361 7.01699 7.17847 7.30613 7.17847C7.59527 7.17847 7.87256 7.06361 8.07702 6.85915C8.28147 6.6547 8.39633 6.3774 8.39633 6.08826C8.39633 5.79912 8.28147 5.52183 8.07702 5.31737C7.87256 5.11292 7.59527 4.99806 7.30613 4.99806Z" fill="white"/>
<path d="M20.6392 9.5V3.68182H22.7131C23.1638 3.68182 23.5379 3.75947 23.8352 3.91477C24.1345 4.07008 24.358 4.28504 24.5057 4.55966C24.6534 4.83239 24.7273 5.14773 24.7273 5.50568C24.7273 5.86174 24.6525 6.17519 24.5028 6.44602C24.3551 6.71496 24.1316 6.92424 23.8324 7.07386C23.535 7.22348 23.161 7.2983 22.7102 7.2983H21.1392V6.54261H22.6307C22.9148 6.54261 23.1458 6.50189 23.3239 6.42045C23.5038 6.33902 23.6354 6.22064 23.7188 6.06534C23.8021 5.91004 23.8438 5.72348 23.8438 5.50568C23.8438 5.28598 23.8011 5.09564 23.7159 4.93466C23.6326 4.77367 23.5009 4.65057 23.321 4.56534C23.143 4.47822 22.9091 4.43466 22.6193 4.43466H21.517V9.5H20.6392ZM23.5114 6.875L24.9489 9.5H23.9489L22.5398 6.875H23.5114ZM25.7955 9.5V3.68182H26.6733V6.46023H26.7443L29.1847 3.68182H30.2898L27.9432 6.30114L30.2983 9.5H29.2415L27.3608 6.90057L26.6733 7.69034V9.5H25.7955ZM33.2251 9.5V3.68182H35.299C35.7517 3.68182 36.1267 3.7642 36.424 3.92898C36.7214 4.09375 36.9439 4.31913 37.0916 4.60511C37.2393 4.8892 37.3132 5.20928 37.3132 5.56534C37.3132 5.9233 37.2384 6.24527 37.0888 6.53125C36.9411 6.81534 36.7176 7.04072 36.4183 7.20739C36.121 7.37216 35.7469 7.45455 35.2962 7.45455H33.87V6.71023H35.2166C35.5026 6.71023 35.7346 6.66098 35.9126 6.5625C36.0907 6.46212 36.2214 6.32576 36.3047 6.15341C36.388 5.98106 36.4297 5.78504 36.4297 5.56534C36.4297 5.34564 36.388 5.15057 36.3047 4.98011C36.2214 4.80966 36.0897 4.67614 35.9098 4.57955C35.7318 4.48295 35.4969 4.43466 35.2053 4.43466H34.103V9.5H33.2251ZM40.0575 9.58807C39.6484 9.58807 39.2914 9.49432 38.9865 9.30682C38.6816 9.11932 38.4448 8.85701 38.2763 8.51989C38.1077 8.18277 38.0234 7.78883 38.0234 7.33807C38.0234 6.88542 38.1077 6.48958 38.2763 6.15057C38.4448 5.81155 38.6816 5.5483 38.9865 5.3608C39.2914 5.1733 39.6484 5.07955 40.0575 5.07955C40.4666 5.07955 40.8236 5.1733 41.1286 5.3608C41.4335 5.5483 41.6702 5.81155 41.8388 6.15057C42.0073 6.48958 42.0916 6.88542 42.0916 7.33807C42.0916 7.78883 42.0073 8.18277 41.8388 8.51989C41.6702 8.85701 41.4335 9.11932 41.1286 9.30682C40.8236 9.49432 40.4666 9.58807 40.0575 9.58807ZM40.0604 8.875C40.3255 8.875 40.5452 8.80492 40.7195 8.66477C40.8937 8.52462 41.0225 8.33807 41.1058 8.10511C41.1911 7.87216 41.2337 7.61553 41.2337 7.33523C41.2337 7.05682 41.1911 6.80114 41.1058 6.56818C41.0225 6.33333 40.8937 6.14489 40.7195 6.00284C40.5452 5.8608 40.3255 5.78977 40.0604 5.78977C39.7933 5.78977 39.5717 5.8608 39.3956 6.00284C39.2214 6.14489 39.0916 6.33333 39.0064 6.56818C38.9231 6.80114 38.8814 7.05682 38.8814 7.33523C38.8814 7.61553 38.9231 7.87216 39.0064 8.10511C39.0916 8.33807 39.2214 8.52462 39.3956 8.66477C39.5717 8.80492 39.7933 8.875 40.0604 8.875ZM43.8892 3.68182V9.5H43.0398V3.68182H43.8892ZM45.5689 11.1364C45.442 11.1364 45.3265 11.1259 45.2223 11.1051C45.1181 11.0862 45.0405 11.0653 44.9893 11.0426L45.1939 10.3466C45.3492 10.3883 45.4875 10.4063 45.6087 10.4006C45.7299 10.3949 45.8369 10.3494 45.9297 10.2642C46.0244 10.179 46.1077 10.0398 46.1797 9.84659L46.2848 9.55682L44.6882 5.13636H45.5973L46.7024 8.52273H46.7479L47.853 5.13636H48.7649L46.9666 10.0824C46.8833 10.3097 46.7772 10.5019 46.6484 10.6591C46.5196 10.8182 46.3662 10.9375 46.1882 11.017C46.0102 11.0966 45.8037 11.1364 45.5689 11.1364ZM51.7486 9.5V3.68182H53.8224C54.2751 3.68182 54.6501 3.7642 54.9474 3.92898C55.2448 4.09375 55.4673 4.31913 55.6151 4.60511C55.7628 4.8892 55.8366 5.20928 55.8366 5.56534C55.8366 5.9233 55.7618 6.24527 55.6122 6.53125C55.4645 6.81534 55.241 7.04072 54.9418 7.20739C54.6444 7.37216 54.2704 7.45455 53.8196 7.45455H52.3935V6.71023H53.7401C54.026 6.71023 54.258 6.66098 54.4361 6.5625C54.6141 6.46212 54.7448 6.32576 54.8281 6.15341C54.9115 5.98106 54.9531 5.78504 54.9531 5.56534C54.9531 5.34564 54.9115 5.15057 54.8281 4.98011C54.7448 4.80966 54.6132 4.67614 54.4332 4.57955C54.2552 4.48295 54.0204 4.43466 53.7287 4.43466H52.6264V9.5H51.7486ZM56.7976 9.5V5.13636H57.6186V5.82955H57.6641C57.7436 5.5947 57.8838 5.41004 58.0845 5.27557C58.2872 5.1392 58.5163 5.07102 58.772 5.07102C58.825 5.07102 58.8875 5.07292 58.9595 5.0767C59.0334 5.08049 59.0911 5.08523 59.1328 5.09091V5.90341C59.0987 5.89394 59.0381 5.88352 58.951 5.87216C58.8639 5.8589 58.7768 5.85227 58.6896 5.85227C58.4889 5.85227 58.3099 5.89489 58.1527 5.98011C57.9974 6.06345 57.8743 6.17992 57.7834 6.32955C57.6925 6.47727 57.647 6.64583 57.647 6.83523V9.5H56.7976ZM61.5497 9.58807C61.1406 9.58807 60.7836 9.49432 60.4787 9.30682C60.1738 9.11932 59.937 8.85701 59.7685 8.51989C59.5999 8.18277 59.5156 7.78883 59.5156 7.33807C59.5156 6.88542 59.5999 6.48958 59.7685 6.15057C59.937 5.81155 60.1738 5.5483 60.4787 5.3608C60.7836 5.1733 61.1406 5.07955 61.5497 5.07955C61.9588 5.07955 62.3158 5.1733 62.6207 5.3608C62.9257 5.5483 63.1624 5.81155 63.331 6.15057C63.4995 6.48958 63.5838 6.88542 63.5838 7.33807C63.5838 7.78883 63.4995 8.18277 63.331 8.51989C63.1624 8.85701 62.9257 9.11932 62.6207 9.30682C62.3158 9.49432 61.9588 9.58807 61.5497 9.58807ZM61.5526 8.875C61.8177 8.875 62.0374 8.80492 62.2116 8.66477C62.3859 8.52462 62.5147 8.33807 62.598 8.10511C62.6832 7.87216 62.7259 7.61553 62.7259 7.33523C62.7259 7.05682 62.6832 6.80114 62.598 6.56818C62.5147 6.33333 62.3859 6.14489 62.2116 6.00284C62.0374 5.8608 61.8177 5.78977 61.5526 5.78977C61.2855 5.78977 61.0639 5.8608 60.8878 6.00284C60.7135 6.14489 60.5838 6.33333 60.4986 6.56818C60.4152 6.80114 60.3736 7.05682 60.3736 7.33523C60.3736 7.61553 60.4152 7.87216 60.4986 8.10511C60.5838 8.33807 60.7135 8.52462 60.8878 8.66477C61.0639 8.80492 61.2855 8.875 61.5526 8.875ZM66.1655 9.58523C65.8132 9.58523 65.4988 9.49527 65.2223 9.31534C64.9477 9.13352 64.7318 8.875 64.5746 8.53977C64.4193 8.20265 64.3416 7.7983 64.3416 7.3267C64.3416 6.85511 64.4202 6.4517 64.5774 6.11648C64.7365 5.78125 64.9543 5.52462 65.2308 5.34659C65.5073 5.16856 65.8208 5.07955 66.1712 5.07955C66.442 5.07955 66.6598 5.125 66.8246 5.21591C66.9912 5.30492 67.12 5.40909 67.2109 5.52841C67.3037 5.64773 67.3757 5.75284 67.4268 5.84375H67.478V3.68182H68.3274V9.5H67.4979V8.82102H67.4268C67.3757 8.91383 67.3018 9.01989 67.2053 9.1392C67.1106 9.25852 66.9799 9.36269 66.8132 9.4517C66.6465 9.54072 66.4306 9.58523 66.1655 9.58523ZM66.353 8.8608C66.5973 8.8608 66.8037 8.7964 66.9723 8.66761C67.1428 8.53693 67.2715 8.35606 67.3587 8.125C67.4477 7.89394 67.4922 7.625 67.4922 7.31818C67.4922 7.01515 67.4486 6.75 67.3615 6.52273C67.2744 6.29545 67.1465 6.11837 66.978 5.99148C66.8094 5.86458 66.6011 5.80114 66.353 5.80114C66.0973 5.80114 65.8842 5.86742 65.7138 6C65.5433 6.13258 65.4145 6.31345 65.3274 6.54261C65.2422 6.77178 65.1996 7.0303 65.1996 7.31818C65.1996 7.60985 65.2431 7.87216 65.3303 8.10511C65.4174 8.33807 65.5462 8.52273 65.7166 8.65909C65.889 8.79356 66.1011 8.8608 66.353 8.8608ZM72.304 7.69034V5.13636H73.1562V9.5H72.321V8.74432H72.2756C72.1752 8.97727 72.0142 9.1714 71.7926 9.3267C71.5729 9.48011 71.2992 9.55682 70.9716 9.55682C70.6913 9.55682 70.4432 9.49527 70.2273 9.37216C70.0133 9.24716 69.8447 9.0625 69.7216 8.81818C69.6004 8.57386 69.5398 8.27178 69.5398 7.91193V5.13636H70.3892V7.80966C70.3892 8.10701 70.4716 8.34375 70.6364 8.51989C70.8011 8.69602 71.0152 8.78409 71.2784 8.78409C71.4375 8.78409 71.5956 8.74432 71.7528 8.66477C71.9119 8.58523 72.0436 8.46496 72.1477 8.30398C72.2538 8.14299 72.3059 7.93845 72.304 7.69034ZM76.1357 9.58807C75.7133 9.58807 75.3497 9.49242 75.0447 9.30114C74.7417 9.10795 74.5088 8.84186 74.3459 8.50284C74.183 8.16383 74.1016 7.77557 74.1016 7.33807C74.1016 6.89489 74.1849 6.50379 74.3516 6.16477C74.5182 5.82386 74.7531 5.55777 75.0561 5.36648C75.3591 5.17519 75.7161 5.07955 76.1271 5.07955C76.4586 5.07955 76.754 5.1411 77.0135 5.2642C77.273 5.38542 77.4822 5.55587 77.6413 5.77557C77.8023 5.99527 77.898 6.25189 77.9283 6.54545H77.1016C77.0561 6.34091 76.9519 6.16477 76.7891 6.01705C76.6281 5.86932 76.4122 5.79545 76.1413 5.79545C75.9046 5.79545 75.6972 5.85795 75.5192 5.98295C75.343 6.10606 75.2057 6.2822 75.1072 6.51136C75.0088 6.73864 74.9595 7.00758 74.9595 7.31818C74.9595 7.63636 75.0078 7.91098 75.1044 8.14205C75.201 8.37311 75.3374 8.55208 75.5135 8.67898C75.6915 8.80587 75.9008 8.86932 76.1413 8.86932C76.3023 8.86932 76.4482 8.83996 76.5788 8.78125C76.7114 8.72064 76.8222 8.63447 76.9112 8.52273C77.0021 8.41098 77.0656 8.27652 77.1016 8.11932H77.9283C77.898 8.40152 77.8061 8.65341 77.6527 8.875C77.4993 9.09659 77.2938 9.27083 77.0362 9.39773C76.7805 9.52462 76.4804 9.58807 76.1357 9.58807ZM80.8736 5.13636V5.81818H78.4901V5.13636H80.8736ZM79.1293 4.09091H79.9787V8.21875C79.9787 8.38352 80.0033 8.50758 80.0526 8.59091C80.1018 8.67235 80.1652 8.72822 80.2429 8.75852C80.3224 8.78693 80.4086 8.80114 80.5014 8.80114C80.5696 8.80114 80.6293 8.7964 80.6804 8.78693C80.7315 8.77746 80.7713 8.76989 80.7997 8.7642L80.9531 9.46591C80.9039 9.48485 80.8338 9.50379 80.7429 9.52273C80.652 9.54356 80.5384 9.55492 80.402 9.55682C80.1785 9.56061 79.9702 9.52083 79.777 9.4375C79.5838 9.35417 79.4276 9.22538 79.3082 9.05114C79.1889 8.87689 79.1293 8.65814 79.1293 8.39489V4.09091ZM85.0128 6.2017L84.2429 6.33807C84.2107 6.23958 84.1596 6.14583 84.0895 6.05682C84.0213 5.9678 83.9285 5.89489 83.8111 5.83807C83.6937 5.78125 83.5469 5.75284 83.3707 5.75284C83.1302 5.75284 82.9295 5.80682 82.7685 5.91477C82.6075 6.02083 82.527 6.15814 82.527 6.3267C82.527 6.47254 82.581 6.58996 82.6889 6.67898C82.7969 6.76799 82.9711 6.84091 83.2116 6.89773L83.9048 7.05682C84.3063 7.14962 84.6056 7.29261 84.8026 7.4858C84.9995 7.67898 85.098 7.92992 85.098 8.23864C85.098 8.5 85.0223 8.73295 84.8707 8.9375C84.7211 9.14015 84.5118 9.29924 84.2429 9.41477C83.9759 9.5303 83.6662 9.58807 83.3139 9.58807C82.8253 9.58807 82.4266 9.4839 82.1179 9.27557C81.8092 9.06534 81.6198 8.76705 81.5497 8.38068L82.3707 8.25568C82.4219 8.4697 82.527 8.63163 82.6861 8.74148C82.8452 8.84943 83.0526 8.90341 83.3082 8.90341C83.5866 8.90341 83.8092 8.84564 83.9759 8.73011C84.1425 8.61269 84.2259 8.4697 84.2259 8.30114C84.2259 8.16477 84.1747 8.05019 84.0724 7.95739C83.9721 7.86458 83.8177 7.79451 83.6094 7.74716L82.8707 7.58523C82.4635 7.49242 82.1624 7.3447 81.9673 7.14205C81.7741 6.93939 81.6776 6.68277 81.6776 6.37216C81.6776 6.11458 81.7495 5.8892 81.8935 5.69602C82.0374 5.50284 82.2363 5.35227 82.4901 5.24432C82.7438 5.13447 83.0346 5.07955 83.3622 5.07955C83.8338 5.07955 84.205 5.18182 84.4759 5.38636C84.7467 5.58902 84.9257 5.8608 85.0128 6.2017ZM88.1378 9.5V8.86364L90.1065 6.82386C90.3168 6.60227 90.4901 6.40814 90.6264 6.24148C90.7647 6.07292 90.8679 5.91288 90.9361 5.76136C91.0043 5.60985 91.0384 5.44886 91.0384 5.27841C91.0384 5.08523 90.9929 4.91856 90.902 4.77841C90.8111 4.63636 90.687 4.52746 90.5298 4.4517C90.3726 4.37405 90.1955 4.33523 89.9986 4.33523C89.7902 4.33523 89.6084 4.37784 89.4531 4.46307C89.2978 4.5483 89.1785 4.66856 89.0952 4.82386C89.0118 4.97917 88.9702 5.16098 88.9702 5.36932H88.1321C88.1321 5.01515 88.2135 4.70549 88.3764 4.44034C88.5393 4.17519 88.7628 3.9697 89.0469 3.82386C89.331 3.67614 89.6539 3.60227 90.0156 3.60227C90.3812 3.60227 90.7031 3.67519 90.9815 3.82102C91.2618 3.96496 91.4806 4.16193 91.6378 4.41193C91.795 4.66004 91.8736 4.94034 91.8736 5.25284C91.8736 5.46875 91.8329 5.67992 91.7514 5.88636C91.6719 6.0928 91.5327 6.32292 91.3338 6.5767C91.1349 6.8286 90.8584 7.13447 90.5043 7.49432L89.348 8.70455V8.74716H91.9673V9.5H88.1378ZM92.7969 8.36364V7.65341L95.3111 3.68182H95.8707V4.72727H95.5156L93.7173 7.57386V7.61932H97.1634V8.36364H92.7969ZM95.5554 9.5V8.14773L95.5611 7.82386V3.68182H96.3935V9.5H95.5554ZM100.179 9.59659C99.7301 9.5947 99.3466 9.47633 99.0284 9.24148C98.7102 9.00663 98.4669 8.66477 98.2983 8.21591C98.1297 7.76705 98.0455 7.22633 98.0455 6.59375C98.0455 5.96307 98.1297 5.42424 98.2983 4.97727C98.4688 4.5303 98.7131 4.18939 99.0312 3.95455C99.3513 3.7197 99.7339 3.60227 100.179 3.60227C100.624 3.60227 101.006 3.72064 101.324 3.95739C101.642 4.19223 101.885 4.53314 102.054 4.98011C102.224 5.42519 102.31 5.96307 102.31 6.59375C102.31 7.22822 102.225 7.76989 102.057 8.21875C101.888 8.66572 101.645 9.00758 101.327 9.24432C101.009 9.47917 100.626 9.59659 100.179 9.59659ZM100.179 8.83807C100.573 8.83807 100.881 8.64583 101.102 8.26136C101.326 7.87689 101.438 7.32102 101.438 6.59375C101.438 6.1108 101.386 5.70265 101.284 5.36932C101.184 5.03409 101.039 4.7803 100.849 4.60795C100.662 4.43371 100.438 4.34659 100.179 4.34659C99.7869 4.34659 99.4792 4.53977 99.2557 4.92614C99.0322 5.3125 98.9195 5.86837 98.9176 6.59375C98.9176 7.0786 98.9678 7.48864 99.0682 7.82386C99.1705 8.1572 99.3153 8.41004 99.5028 8.58239C99.6903 8.75284 99.9157 8.83807 100.179 8.83807ZM105.545 3.40909L103.67 10.375H102.911L104.786 3.40909H105.545ZM106.826 9.5H105.894L107.988 3.68182H109.002L111.096 9.5H110.164L108.519 4.73864H108.474L106.826 9.5ZM106.982 7.22159H110.005V7.96023H106.982V7.22159ZM113.79 3.68182V9.5H112.91V4.5625H112.876L111.484 5.47159V4.63068L112.935 3.68182H113.79ZM116.145 8.70455L116.102 9.0142C116.074 9.24148 116.026 9.47822 115.957 9.72443C115.891 9.97254 115.822 10.2027 115.75 10.4148C115.68 10.6269 115.622 10.7955 115.577 10.9205H114.974C114.999 10.803 115.033 10.6439 115.077 10.4432C115.12 10.2443 115.163 10.0218 115.205 9.77557C115.246 9.52936 115.277 9.27841 115.298 9.02273L115.327 8.70455H116.145ZM121.32 9.5H119.436V3.68182H121.379C121.949 3.68182 122.439 3.7983 122.848 4.03125C123.257 4.26231 123.571 4.5947 123.788 5.02841C124.008 5.46023 124.118 5.97822 124.118 6.58239C124.118 7.18845 124.007 7.70928 123.786 8.14489C123.566 8.58049 123.248 8.91572 122.831 9.15057C122.414 9.38352 121.911 9.5 121.32 9.5ZM120.314 8.73295H121.271C121.714 8.73295 122.083 8.64962 122.376 8.48295C122.67 8.31439 122.89 8.07102 123.036 7.75284C123.181 7.43277 123.254 7.04261 123.254 6.58239C123.254 6.12595 123.181 5.73864 123.036 5.42045C122.892 5.10227 122.677 4.8608 122.391 4.69602C122.105 4.53125 121.75 4.44886 121.325 4.44886H120.314V8.73295ZM125.141 9.5V5.13636H125.962V5.82955H126.008C126.087 5.5947 126.228 5.41004 126.428 5.27557C126.631 5.1392 126.86 5.07102 127.116 5.07102C127.169 5.07102 127.231 5.07292 127.303 5.0767C127.377 5.08049 127.435 5.08523 127.477 5.09091V5.90341C127.442 5.89394 127.382 5.88352 127.295 5.87216C127.208 5.8589 127.121 5.85227 127.033 5.85227C126.833 5.85227 126.654 5.89489 126.496 5.98011C126.341 6.06345 126.218 6.17992 126.127 6.32955C126.036 6.47727 125.991 6.64583 125.991 6.83523V9.5H125.141ZM128.271 9.55398C128.116 9.55398 127.982 9.49905 127.871 9.3892C127.759 9.27746 127.703 9.14299 127.703 8.9858C127.703 8.83049 127.759 8.69792 127.871 8.58807C127.982 8.47633 128.116 8.42045 128.271 8.42045C128.427 8.42045 128.56 8.47633 128.672 8.58807C128.784 8.69792 128.839 8.83049 128.839 8.9858C128.839 9.08996 128.813 9.18561 128.76 9.27273C128.709 9.35795 128.641 9.42614 128.555 9.47727C128.47 9.52841 128.375 9.55398 128.271 9.55398ZM132.56 9.5H131.629L133.722 3.68182H134.737L136.83 9.5H135.898L134.254 4.73864H134.208L132.56 9.5ZM132.717 7.22159H135.739V7.96023H132.717V7.22159ZM137.67 9.5V3.68182H138.52V5.84375H138.571C138.62 5.75284 138.691 5.64773 138.784 5.52841C138.877 5.40909 139.006 5.30492 139.17 5.21591C139.335 5.125 139.553 5.07955 139.824 5.07955C140.176 5.07955 140.491 5.16856 140.767 5.34659C141.044 5.52462 141.26 5.78125 141.418 6.11648C141.577 6.4517 141.656 6.85511 141.656 7.3267C141.656 7.7983 141.578 8.20265 141.42 8.53977C141.263 8.875 141.047 9.13352 140.773 9.31534C140.498 9.49527 140.185 9.58523 139.832 9.58523C139.567 9.58523 139.35 9.54072 139.182 9.4517C139.015 9.36269 138.884 9.25852 138.79 9.1392C138.695 9.01989 138.622 8.91383 138.571 8.82102H138.5V9.5H137.67ZM138.503 7.31818C138.503 7.625 138.547 7.89394 138.636 8.125C138.725 8.35606 138.854 8.53693 139.023 8.66761C139.191 8.7964 139.398 8.8608 139.642 8.8608C139.896 8.8608 140.108 8.79356 140.278 8.65909C140.449 8.52273 140.578 8.33807 140.665 8.10511C140.754 7.87216 140.798 7.60985 140.798 7.31818C140.798 7.0303 140.755 6.77178 140.668 6.54261C140.582 6.31345 140.454 6.13258 140.281 6C140.111 5.86742 139.898 5.80114 139.642 5.80114C139.396 5.80114 139.188 5.86458 139.017 5.99148C138.848 6.11837 138.721 6.29545 138.634 6.52273C138.546 6.75 138.503 7.01515 138.503 7.31818ZM144.244 9.58523C143.891 9.58523 143.577 9.49527 143.3 9.31534C143.026 9.13352 142.81 8.875 142.653 8.53977C142.497 8.20265 142.42 7.7983 142.42 7.3267C142.42 6.85511 142.498 6.4517 142.656 6.11648C142.815 5.78125 143.032 5.52462 143.309 5.34659C143.585 5.16856 143.899 5.07955 144.249 5.07955C144.52 5.07955 144.738 5.125 144.903 5.21591C145.069 5.30492 145.198 5.40909 145.289 5.52841C145.382 5.64773 145.454 5.75284 145.505 5.84375H145.556V3.68182H146.406V9.5H145.576V8.82102H145.505C145.454 8.91383 145.38 9.01989 145.283 9.1392C145.189 9.25852 145.058 9.36269 144.891 9.4517C144.725 9.54072 144.509 9.58523 144.244 9.58523ZM144.431 8.8608C144.675 8.8608 144.882 8.7964 145.05 8.66761C145.221 8.53693 145.35 8.35606 145.437 8.125C145.526 7.89394 145.57 7.625 145.57 7.31818C145.57 7.01515 145.527 6.75 145.44 6.52273C145.353 6.29545 145.225 6.11837 145.056 5.99148C144.888 5.86458 144.679 5.80114 144.431 5.80114C144.175 5.80114 143.962 5.86742 143.792 6C143.621 6.13258 143.493 6.31345 143.406 6.54261C143.32 6.77178 143.278 7.0303 143.278 7.31818C143.278 7.60985 143.321 7.87216 143.408 8.10511C143.496 8.33807 143.624 8.52273 143.795 8.65909C143.967 8.79356 144.179 8.8608 144.431 8.8608ZM150.382 7.69034V5.13636H151.234V9.5H150.399V8.74432H150.354C150.253 8.97727 150.092 9.1714 149.871 9.3267C149.651 9.48011 149.377 9.55682 149.05 9.55682C148.769 9.55682 148.521 9.49527 148.305 9.37216C148.091 9.24716 147.923 9.0625 147.8 8.81818C147.679 8.57386 147.618 8.27178 147.618 7.91193V5.13636H148.467V7.80966C148.467 8.10701 148.55 8.34375 148.714 8.51989C148.879 8.69602 149.093 8.78409 149.357 8.78409C149.516 8.78409 149.674 8.74432 149.831 8.66477C149.99 8.58523 150.122 8.46496 150.226 8.30398C150.332 8.14299 150.384 7.93845 150.382 7.69034ZM153.225 3.68182V9.5H152.376V3.68182H153.225ZM156.553 9.5V3.68182H157.431V6.46023H157.502L159.942 3.68182H161.048L158.701 6.30114L161.056 9.5H159.999L158.119 6.90057L157.431 7.69034V9.5H156.553ZM163.067 9.59659C162.791 9.59659 162.541 9.54545 162.317 9.44318C162.094 9.33902 161.917 9.18845 161.786 8.99148C161.657 8.79451 161.593 8.55303 161.593 8.26705C161.593 8.02083 161.64 7.81818 161.735 7.65909C161.83 7.5 161.958 7.37405 162.119 7.28125C162.28 7.18845 162.46 7.11837 162.658 7.07102C162.857 7.02367 163.06 6.98769 163.266 6.96307C163.528 6.93277 163.74 6.90814 163.903 6.8892C164.066 6.86837 164.184 6.83523 164.258 6.78977C164.332 6.74432 164.369 6.67045 164.369 6.56818V6.5483C164.369 6.30019 164.299 6.10795 164.158 5.97159C164.02 5.83523 163.814 5.76705 163.539 5.76705C163.253 5.76705 163.028 5.83049 162.863 5.95739C162.7 6.08239 162.587 6.22159 162.525 6.375L161.727 6.19318C161.821 5.92803 161.96 5.71402 162.141 5.55114C162.325 5.38636 162.536 5.26705 162.775 5.19318C163.013 5.11742 163.264 5.07955 163.528 5.07955C163.702 5.07955 163.887 5.10038 164.082 5.14205C164.279 5.18182 164.462 5.25568 164.633 5.36364C164.805 5.47159 164.946 5.62595 165.056 5.8267C165.166 6.02557 165.221 6.28409 165.221 6.60227V9.5H164.391V8.90341H164.357C164.302 9.01326 164.22 9.12121 164.11 9.22727C164 9.33333 163.859 9.4214 163.687 9.49148C163.514 9.56155 163.308 9.59659 163.067 9.59659ZM163.252 8.91477C163.487 8.91477 163.688 8.86837 163.854 8.77557C164.023 8.68277 164.151 8.56155 164.238 8.41193C164.327 8.26042 164.371 8.09848 164.371 7.92614V7.36364C164.341 7.39394 164.282 7.42235 164.195 7.44886C164.11 7.47348 164.013 7.49527 163.903 7.5142C163.793 7.53125 163.686 7.54735 163.582 7.5625C163.478 7.57576 163.39 7.58712 163.32 7.59659C163.156 7.61742 163.005 7.65246 162.869 7.7017C162.734 7.75095 162.626 7.82197 162.545 7.91477C162.465 8.00568 162.425 8.12689 162.425 8.27841C162.425 8.48864 162.503 8.64773 162.658 8.75568C162.814 8.86174 163.012 8.91477 163.252 8.91477ZM167.202 3.68182V9.5H166.352V3.68182H167.202ZM169.614 9.59659C169.338 9.59659 169.088 9.54545 168.864 9.44318C168.641 9.33902 168.464 9.18845 168.333 8.99148C168.204 8.79451 168.14 8.55303 168.14 8.26705C168.14 8.02083 168.187 7.81818 168.282 7.65909C168.377 7.5 168.504 7.37405 168.665 7.28125C168.826 7.18845 169.006 7.11837 169.205 7.07102C169.404 7.02367 169.607 6.98769 169.813 6.96307C170.075 6.93277 170.287 6.90814 170.45 6.8892C170.612 6.86837 170.731 6.83523 170.805 6.78977C170.879 6.74432 170.915 6.67045 170.915 6.56818V6.5483C170.915 6.30019 170.845 6.10795 170.705 5.97159C170.567 5.83523 170.361 5.76705 170.086 5.76705C169.8 5.76705 169.575 5.83049 169.41 5.95739C169.247 6.08239 169.134 6.22159 169.072 6.375L168.273 6.19318C168.368 5.92803 168.506 5.71402 168.688 5.55114C168.872 5.38636 169.083 5.26705 169.322 5.19318C169.56 5.11742 169.811 5.07955 170.075 5.07955C170.249 5.07955 170.433 5.10038 170.629 5.14205C170.826 5.18182 171.009 5.25568 171.18 5.36364C171.352 5.47159 171.493 5.62595 171.603 5.8267C171.713 6.02557 171.768 6.28409 171.768 6.60227V9.5H170.938V8.90341H170.904C170.849 9.01326 170.767 9.12121 170.657 9.22727C170.547 9.33333 170.406 9.4214 170.234 9.49148C170.061 9.56155 169.855 9.59659 169.614 9.59659ZM169.799 8.91477C170.034 8.91477 170.235 8.86837 170.401 8.77557C170.57 8.68277 170.698 8.56155 170.785 8.41193C170.874 8.26042 170.918 8.09848 170.918 7.92614V7.36364C170.888 7.39394 170.829 7.42235 170.742 7.44886C170.657 7.47348 170.559 7.49527 170.45 7.5142C170.34 7.53125 170.233 7.54735 170.129 7.5625C170.024 7.57576 169.937 7.58712 169.867 7.59659C169.702 7.61742 169.552 7.65246 169.415 7.7017C169.281 7.75095 169.173 7.82197 169.092 7.91477C169.012 8.00568 168.972 8.12689 168.972 8.27841C168.972 8.48864 169.05 8.64773 169.205 8.75568C169.361 8.86174 169.558 8.91477 169.799 8.91477ZM172.899 9.5V5.13636H173.714V5.84659H173.768C173.859 5.60606 174.008 5.41856 174.214 5.28409C174.421 5.14773 174.668 5.07955 174.956 5.07955C175.248 5.07955 175.492 5.14773 175.689 5.28409C175.888 5.42045 176.035 5.60795 176.129 5.84659H176.175C176.279 5.61364 176.445 5.42803 176.672 5.28977C176.899 5.14962 177.17 5.07955 177.484 5.07955C177.88 5.07955 178.203 5.2036 178.453 5.4517C178.705 5.69981 178.831 6.07386 178.831 6.57386V9.5H177.982V6.65341C177.982 6.35795 177.901 6.14394 177.74 6.01136C177.579 5.87879 177.387 5.8125 177.163 5.8125C176.887 5.8125 176.672 5.89773 176.518 6.06818C176.365 6.23674 176.288 6.4536 176.288 6.71875V9.5H175.442V6.59943C175.442 6.36269 175.368 6.17235 175.22 6.02841C175.072 5.88447 174.88 5.8125 174.643 5.8125C174.482 5.8125 174.334 5.85511 174.197 5.94034C174.063 6.02367 173.954 6.14015 173.871 6.28977C173.789 6.43939 173.749 6.61269 173.749 6.80966V9.5H172.899ZM186.851 3.68182V9.5H186.044L183.087 5.23295H183.033V9.5H182.155V3.68182H182.967L185.928 7.95455H185.982V3.68182H186.851ZM189.333 9.59659C189.057 9.59659 188.807 9.54545 188.583 9.44318C188.36 9.33902 188.183 9.18845 188.052 8.99148C187.923 8.79451 187.859 8.55303 187.859 8.26705C187.859 8.02083 187.906 7.81818 188.001 7.65909C188.095 7.5 188.223 7.37405 188.384 7.28125C188.545 7.18845 188.725 7.11837 188.924 7.07102C189.123 7.02367 189.326 6.98769 189.532 6.96307C189.793 6.93277 190.005 6.90814 190.168 6.8892C190.331 6.86837 190.45 6.83523 190.523 6.78977C190.597 6.74432 190.634 6.67045 190.634 6.56818V6.5483C190.634 6.30019 190.564 6.10795 190.424 5.97159C190.286 5.83523 190.079 5.76705 189.805 5.76705C189.519 5.76705 189.293 5.83049 189.129 5.95739C188.966 6.08239 188.853 6.22159 188.79 6.375L187.992 6.19318C188.087 5.92803 188.225 5.71402 188.407 5.55114C188.591 5.38636 188.802 5.26705 189.04 5.19318C189.279 5.11742 189.53 5.07955 189.793 5.07955C189.968 5.07955 190.152 5.10038 190.347 5.14205C190.544 5.18182 190.728 5.25568 190.898 5.36364C191.071 5.47159 191.212 5.62595 191.322 5.8267C191.432 6.02557 191.487 6.28409 191.487 6.60227V9.5H190.657V8.90341H190.623C190.568 9.01326 190.486 9.12121 190.376 9.22727C190.266 9.33333 190.125 9.4214 189.952 9.49148C189.78 9.56155 189.574 9.59659 189.333 9.59659ZM189.518 8.91477C189.753 8.91477 189.953 8.86837 190.12 8.77557C190.289 8.68277 190.416 8.56155 190.504 8.41193C190.593 8.26042 190.637 8.09848 190.637 7.92614V7.36364C190.607 7.39394 190.548 7.42235 190.461 7.44886C190.376 7.47348 190.278 7.49527 190.168 7.5142C190.058 7.53125 189.951 7.54735 189.847 7.5625C189.743 7.57576 189.656 7.58712 189.586 7.59659C189.421 7.61742 189.271 7.65246 189.134 7.7017C189 7.75095 188.892 7.82197 188.81 7.91477C188.731 8.00568 188.691 8.12689 188.691 8.27841C188.691 8.48864 188.769 8.64773 188.924 8.75568C189.079 8.86174 189.277 8.91477 189.518 8.91477ZM194.447 11.2273C194.101 11.2273 193.803 11.1818 193.553 11.0909C193.304 11 193.102 10.8797 192.945 10.7301C192.787 10.5805 192.67 10.4167 192.592 10.2386L193.322 9.9375C193.374 10.0208 193.442 10.1089 193.527 10.2017C193.614 10.2964 193.732 10.3769 193.879 10.4432C194.029 10.5095 194.221 10.5426 194.456 10.5426C194.778 10.5426 195.044 10.464 195.254 10.3068C195.464 10.1515 195.57 9.90341 195.57 9.5625V8.70455H195.516C195.464 8.79735 195.391 8.90057 195.294 9.0142C195.199 9.12784 195.069 9.22633 194.902 9.30966C194.735 9.39299 194.518 9.43466 194.251 9.43466C193.907 9.43466 193.596 9.35417 193.32 9.19318C193.045 9.0303 192.827 8.79072 192.666 8.47443C192.507 8.15625 192.428 7.76515 192.428 7.30114C192.428 6.83712 192.506 6.43939 192.663 6.10795C192.822 5.77652 193.04 5.52273 193.317 5.34659C193.593 5.16856 193.907 5.07955 194.257 5.07955C194.528 5.07955 194.747 5.125 194.913 5.21591C195.08 5.30492 195.21 5.40909 195.303 5.52841C195.397 5.64773 195.47 5.75284 195.521 5.84375H195.584V5.13636H196.416V9.59659C196.416 9.97159 196.329 10.2794 196.155 10.5199C195.981 10.7604 195.745 10.9384 195.447 11.054C195.152 11.1695 194.819 11.2273 194.447 11.2273ZM194.439 8.73011C194.683 8.73011 194.89 8.6733 195.058 8.55966C195.229 8.44413 195.357 8.27936 195.445 8.06534C195.534 7.84943 195.578 7.59091 195.578 7.28977C195.578 6.99621 195.535 6.73769 195.447 6.5142C195.36 6.29072 195.232 6.11648 195.064 5.99148C194.895 5.86458 194.687 5.80114 194.439 5.80114C194.183 5.80114 193.97 5.86742 193.8 6C193.629 6.13068 193.5 6.30871 193.413 6.53409C193.328 6.75947 193.286 7.01136 193.286 7.28977C193.286 7.57576 193.329 7.8267 193.416 8.04261C193.503 8.25852 193.632 8.42708 193.803 8.5483C193.975 8.66951 194.187 8.73011 194.439 8.73011ZM198.825 9.59659C198.549 9.59659 198.299 9.54545 198.075 9.44318C197.852 9.33902 197.675 9.18845 197.544 8.99148C197.415 8.79451 197.351 8.55303 197.351 8.26705C197.351 8.02083 197.398 7.81818 197.493 7.65909C197.588 7.5 197.715 7.37405 197.876 7.28125C198.037 7.18845 198.217 7.11837 198.416 7.07102C198.615 7.02367 198.818 6.98769 199.024 6.96307C199.286 6.93277 199.498 6.90814 199.661 6.8892C199.823 6.86837 199.942 6.83523 200.016 6.78977C200.089 6.74432 200.126 6.67045 200.126 6.56818V6.5483C200.126 6.30019 200.056 6.10795 199.916 5.97159C199.778 5.83523 199.571 5.76705 199.297 5.76705C199.011 5.76705 198.786 5.83049 198.621 5.95739C198.458 6.08239 198.345 6.22159 198.283 6.375L197.484 6.19318C197.579 5.92803 197.717 5.71402 197.899 5.55114C198.083 5.38636 198.294 5.26705 198.533 5.19318C198.771 5.11742 199.022 5.07955 199.286 5.07955C199.46 5.07955 199.644 5.10038 199.839 5.14205C200.036 5.18182 200.22 5.25568 200.391 5.36364C200.563 5.47159 200.704 5.62595 200.814 5.8267C200.924 6.02557 200.979 6.28409 200.979 6.60227V9.5H200.149V8.90341H200.115C200.06 9.01326 199.978 9.12121 199.868 9.22727C199.758 9.33333 199.617 9.4214 199.445 9.49148C199.272 9.56155 199.066 9.59659 198.825 9.59659ZM199.01 8.91477C199.245 8.91477 199.446 8.86837 199.612 8.77557C199.781 8.68277 199.909 8.56155 199.996 8.41193C200.085 8.26042 200.129 8.09848 200.129 7.92614V7.36364C200.099 7.39394 200.04 7.42235 199.953 7.44886C199.868 7.47348 199.77 7.49527 199.661 7.5142C199.551 7.53125 199.444 7.54735 199.339 7.5625C199.235 7.57576 199.148 7.58712 199.078 7.59659C198.913 7.61742 198.763 7.65246 198.626 7.7017C198.492 7.75095 198.384 7.82197 198.303 7.91477C198.223 8.00568 198.183 8.12689 198.183 8.27841C198.183 8.48864 198.261 8.64773 198.416 8.75568C198.571 8.86174 198.769 8.91477 199.01 8.91477ZM202.11 9.5V5.13636H202.931V5.82955H202.977C203.056 5.5947 203.196 5.41004 203.397 5.27557C203.6 5.1392 203.829 5.07102 204.085 5.07102C204.138 5.07102 204.2 5.07292 204.272 5.0767C204.346 5.08049 204.404 5.08523 204.445 5.09091V5.90341C204.411 5.89394 204.351 5.88352 204.263 5.87216C204.176 5.8589 204.089 5.85227 204.002 5.85227C203.801 5.85227 203.622 5.89489 203.465 5.98011C203.31 6.06345 203.187 6.17992 203.096 6.32955C203.005 6.47727 202.96 6.64583 202.96 6.83523V9.5H202.11ZM205.786 8.70455L205.743 9.0142C205.714 9.24148 205.666 9.47822 205.598 9.72443C205.532 9.97254 205.463 10.2027 205.391 10.4148C205.321 10.6269 205.263 10.7955 205.217 10.9205H204.615C204.64 10.803 204.674 10.6439 204.717 10.4432C204.761 10.2443 204.804 10.0218 204.845 9.77557C204.887 9.52936 204.918 9.27841 204.939 9.02273L204.967 8.70455H205.786ZM208.79 4.4375V3.68182H213.293V4.4375H211.477V9.5H210.602V4.4375H208.79ZM215.069 6.90909V9.5H214.219V3.68182H215.058V5.84659H215.112C215.214 5.61174 215.37 5.42519 215.58 5.28693C215.79 5.14867 216.065 5.07955 216.404 5.07955C216.703 5.07955 216.965 5.1411 217.188 5.2642C217.414 5.38731 217.588 5.57102 217.711 5.81534C217.836 6.05777 217.898 6.3608 217.898 6.72443V9.5H217.049V6.8267C217.049 6.50663 216.967 6.25852 216.802 6.08239C216.637 5.90436 216.408 5.81534 216.114 5.81534C215.914 5.81534 215.734 5.85795 215.575 5.94318C215.417 6.02841 215.293 6.15341 215.202 6.31818C215.113 6.48106 215.069 6.67803 215.069 6.90909ZM220.302 9.59659C220.025 9.59659 219.775 9.54545 219.552 9.44318C219.328 9.33902 219.151 9.18845 219.021 8.99148C218.892 8.79451 218.827 8.55303 218.827 8.26705C218.827 8.02083 218.875 7.81818 218.969 7.65909C219.064 7.5 219.192 7.37405 219.353 7.28125C219.514 7.18845 219.694 7.11837 219.893 7.07102C220.092 7.02367 220.294 6.98769 220.501 6.96307C220.762 6.93277 220.974 6.90814 221.137 6.8892C221.3 6.86837 221.418 6.83523 221.492 6.78977C221.566 6.74432 221.603 6.67045 221.603 6.56818V6.5483C221.603 6.30019 221.533 6.10795 221.393 5.97159C221.254 5.83523 221.048 5.76705 220.773 5.76705C220.487 5.76705 220.262 5.83049 220.097 5.95739C219.934 6.08239 219.822 6.22159 219.759 6.375L218.961 6.19318C219.056 5.92803 219.194 5.71402 219.376 5.55114C219.559 5.38636 219.771 5.26705 220.009 5.19318C220.248 5.11742 220.499 5.07955 220.762 5.07955C220.936 5.07955 221.121 5.10038 221.316 5.14205C221.513 5.18182 221.697 5.25568 221.867 5.36364C222.04 5.47159 222.181 5.62595 222.29 5.8267C222.4 6.02557 222.455 6.28409 222.455 6.60227V9.5H221.626V8.90341H221.592C221.537 9.01326 221.454 9.12121 221.344 9.22727C221.235 9.33333 221.094 9.4214 220.921 9.49148C220.749 9.56155 220.542 9.59659 220.302 9.59659ZM220.487 8.91477C220.721 8.91477 220.922 8.86837 221.089 8.77557C221.257 8.68277 221.385 8.56155 221.472 8.41193C221.561 8.26042 221.606 8.09848 221.606 7.92614V7.36364C221.576 7.39394 221.517 7.42235 221.43 7.44886C221.344 7.47348 221.247 7.49527 221.137 7.5142C221.027 7.53125 220.92 7.54735 220.816 7.5625C220.712 7.57576 220.625 7.58712 220.555 7.59659C220.39 7.61742 220.239 7.65246 220.103 7.7017C219.969 7.75095 219.861 7.82197 219.779 7.91477C219.7 8.00568 219.66 8.12689 219.66 8.27841C219.66 8.48864 219.737 8.64773 219.893 8.75568C220.048 8.86174 220.246 8.91477 220.487 8.91477ZM225.22 9.58523C224.868 9.58523 224.554 9.49527 224.277 9.31534C224.002 9.13352 223.786 8.875 223.629 8.53977C223.474 8.20265 223.396 7.7983 223.396 7.3267C223.396 6.85511 223.475 6.4517 223.632 6.11648C223.791 5.78125 224.009 5.52462 224.286 5.34659C224.562 5.16856 224.875 5.07955 225.226 5.07955C225.497 5.07955 225.714 5.125 225.879 5.21591C226.046 5.30492 226.175 5.40909 226.266 5.52841C226.358 5.64773 226.43 5.75284 226.482 5.84375H226.533V3.68182H227.382V9.5H226.553V8.82102H226.482C226.43 8.91383 226.357 9.01989 226.26 9.1392C226.165 9.25852 226.035 9.36269 225.868 9.4517C225.701 9.54072 225.485 9.58523 225.22 9.58523ZM225.408 8.8608C225.652 8.8608 225.858 8.7964 226.027 8.66761C226.197 8.53693 226.326 8.35606 226.413 8.125C226.502 7.89394 226.547 7.625 226.547 7.31818C226.547 7.01515 226.503 6.75 226.416 6.52273C226.329 6.29545 226.201 6.11837 226.033 5.99148C225.864 5.86458 225.656 5.80114 225.408 5.80114C225.152 5.80114 224.939 5.86742 224.768 6C224.598 6.13258 224.469 6.31345 224.382 6.54261C224.297 6.77178 224.254 7.0303 224.254 7.31818C224.254 7.60985 224.298 7.87216 224.385 8.10511C224.472 8.33807 224.601 8.52273 224.771 8.65909C224.944 8.79356 225.156 8.8608 225.408 8.8608ZM229.864 9.59659C229.588 9.59659 229.338 9.54545 229.114 9.44318C228.891 9.33902 228.714 9.18845 228.583 8.99148C228.454 8.79451 228.39 8.55303 228.39 8.26705C228.39 8.02083 228.437 7.81818 228.532 7.65909C228.627 7.5 228.754 7.37405 228.915 7.28125C229.076 7.18845 229.256 7.11837 229.455 7.07102C229.654 7.02367 229.857 6.98769 230.063 6.96307C230.325 6.93277 230.537 6.90814 230.7 6.8892C230.862 6.86837 230.981 6.83523 231.055 6.78977C231.129 6.74432 231.165 6.67045 231.165 6.56818V6.5483C231.165 6.30019 231.095 6.10795 230.955 5.97159C230.817 5.83523 230.611 5.76705 230.336 5.76705C230.05 5.76705 229.825 5.83049 229.66 5.95739C229.497 6.08239 229.384 6.22159 229.322 6.375L228.523 6.19318C228.618 5.92803 228.756 5.71402 228.938 5.55114C229.122 5.38636 229.333 5.26705 229.572 5.19318C229.81 5.11742 230.061 5.07955 230.325 5.07955C230.499 5.07955 230.683 5.10038 230.879 5.14205C231.076 5.18182 231.259 5.25568 231.43 5.36364C231.602 5.47159 231.743 5.62595 231.853 5.8267C231.963 6.02557 232.018 6.28409 232.018 6.60227V9.5H231.188V8.90341H231.154C231.099 9.01326 231.017 9.12121 230.907 9.22727C230.797 9.33333 230.656 9.4214 230.484 9.49148C230.311 9.56155 230.105 9.59659 229.864 9.59659ZM230.049 8.91477C230.284 8.91477 230.485 8.86837 230.651 8.77557C230.82 8.68277 230.948 8.56155 231.035 8.41193C231.124 8.26042 231.168 8.09848 231.168 7.92614V7.36364C231.138 7.39394 231.079 7.42235 230.992 7.44886C230.907 7.47348 230.809 7.49527 230.7 7.5142C230.59 7.53125 230.483 7.54735 230.379 7.5625C230.274 7.57576 230.187 7.58712 230.117 7.59659C229.952 7.61742 229.802 7.65246 229.665 7.7017C229.531 7.75095 229.423 7.82197 229.342 7.91477C229.262 8.00568 229.222 8.12689 229.222 8.27841C229.222 8.48864 229.3 8.64773 229.455 8.75568C229.611 8.86174 229.808 8.91477 230.049 8.91477ZM234.979 11.2273C234.632 11.2273 234.334 11.1818 234.084 11.0909C233.836 11 233.633 10.8797 233.476 10.7301C233.319 10.5805 233.201 10.4167 233.124 10.2386L233.854 9.9375C233.905 10.0208 233.973 10.1089 234.058 10.2017C234.145 10.2964 234.263 10.3769 234.411 10.4432C234.56 10.5095 234.752 10.5426 234.987 10.5426C235.309 10.5426 235.575 10.464 235.786 10.3068C235.996 10.1515 236.101 9.90341 236.101 9.5625V8.70455H236.047C235.996 8.79735 235.922 8.90057 235.825 9.0142C235.731 9.12784 235.6 9.22633 235.433 9.30966C235.267 9.39299 235.05 9.43466 234.783 9.43466C234.438 9.43466 234.127 9.35417 233.851 9.19318C233.576 9.0303 233.358 8.79072 233.197 8.47443C233.038 8.15625 232.959 7.76515 232.959 7.30114C232.959 6.83712 233.037 6.43939 233.195 6.10795C233.354 5.77652 233.571 5.52273 233.848 5.34659C234.125 5.16856 234.438 5.07955 234.788 5.07955C235.059 5.07955 235.278 5.125 235.445 5.21591C235.611 5.30492 235.741 5.40909 235.834 5.52841C235.929 5.64773 236.001 5.75284 236.053 5.84375H236.115V5.13636H236.947V9.59659C236.947 9.97159 236.86 10.2794 236.686 10.5199C236.512 10.7604 236.276 10.9384 235.979 11.054C235.683 11.1695 235.35 11.2273 234.979 11.2273ZM234.97 8.73011C235.214 8.73011 235.421 8.6733 235.589 8.55966C235.76 8.44413 235.889 8.27936 235.976 8.06534C236.065 7.84943 236.109 7.59091 236.109 7.28977C236.109 6.99621 236.066 6.73769 235.979 6.5142C235.892 6.29072 235.764 6.11648 235.595 5.99148C235.427 5.86458 235.218 5.80114 234.97 5.80114C234.714 5.80114 234.501 5.86742 234.331 6C234.161 6.13068 234.032 6.30871 233.945 6.53409C233.859 6.75947 233.817 7.01136 233.817 7.28977C233.817 7.57576 233.86 7.8267 233.947 8.04261C234.035 8.25852 234.163 8.42708 234.334 8.5483C234.506 8.66951 234.718 8.73011 234.97 8.73011ZM239.357 9.59659C239.08 9.59659 238.83 9.54545 238.607 9.44318C238.383 9.33902 238.206 9.18845 238.075 8.99148C237.946 8.79451 237.882 8.55303 237.882 8.26705C237.882 8.02083 237.929 7.81818 238.024 7.65909C238.119 7.5 238.247 7.37405 238.408 7.28125C238.569 7.18845 238.749 7.11837 238.947 7.07102C239.146 7.02367 239.349 6.98769 239.555 6.96307C239.817 6.93277 240.029 6.90814 240.192 6.8892C240.355 6.86837 240.473 6.83523 240.547 6.78977C240.621 6.74432 240.658 6.67045 240.658 6.56818V6.5483C240.658 6.30019 240.588 6.10795 240.447 5.97159C240.309 5.83523 240.103 5.76705 239.828 5.76705C239.542 5.76705 239.317 5.83049 239.152 5.95739C238.989 6.08239 238.876 6.22159 238.814 6.375L238.016 6.19318C238.11 5.92803 238.249 5.71402 238.43 5.55114C238.614 5.38636 238.825 5.26705 239.064 5.19318C239.303 5.11742 239.554 5.07955 239.817 5.07955C239.991 5.07955 240.176 5.10038 240.371 5.14205C240.568 5.18182 240.751 5.25568 240.922 5.36364C241.094 5.47159 241.235 5.62595 241.345 5.8267C241.455 6.02557 241.51 6.28409 241.51 6.60227V9.5H240.68V8.90341H240.646C240.591 9.01326 240.509 9.12121 240.399 9.22727C240.289 9.33333 240.148 9.4214 239.976 9.49148C239.804 9.56155 239.597 9.59659 239.357 9.59659ZM239.541 8.91477C239.776 8.91477 239.977 8.86837 240.143 8.77557C240.312 8.68277 240.44 8.56155 240.527 8.41193C240.616 8.26042 240.661 8.09848 240.661 7.92614V7.36364C240.63 7.39394 240.571 7.42235 240.484 7.44886C240.399 7.47348 240.302 7.49527 240.192 7.5142C240.082 7.53125 239.975 7.54735 239.871 7.5625C239.767 7.57576 239.679 7.58712 239.609 7.59659C239.445 7.61742 239.294 7.65246 239.158 7.7017C239.023 7.75095 238.915 7.82197 238.834 7.91477C238.754 8.00568 238.714 8.12689 238.714 8.27841C238.714 8.48864 238.792 8.64773 238.947 8.75568C239.103 8.86174 239.301 8.91477 239.541 8.91477ZM242.641 9.5V5.13636H243.457V5.84659H243.511C243.602 5.60606 243.75 5.41856 243.957 5.28409C244.163 5.14773 244.41 5.07955 244.698 5.07955C244.99 5.07955 245.234 5.14773 245.431 5.28409C245.63 5.42045 245.777 5.60795 245.871 5.84659H245.917C246.021 5.61364 246.187 5.42803 246.414 5.28977C246.641 5.14962 246.912 5.07955 247.227 5.07955C247.622 5.07955 247.945 5.2036 248.195 5.4517C248.447 5.69981 248.573 6.07386 248.573 6.57386V9.5H247.724V6.65341C247.724 6.35795 247.643 6.14394 247.482 6.01136C247.321 5.87879 247.129 5.8125 246.906 5.8125C246.629 5.8125 246.414 5.89773 246.261 6.06818C246.107 6.23674 246.031 6.4536 246.031 6.71875V9.5H245.184V6.59943C245.184 6.36269 245.11 6.17235 244.962 6.02841C244.815 5.88447 244.622 5.8125 244.386 5.8125C244.225 5.8125 244.076 5.85511 243.94 5.94034C243.805 6.02367 243.696 6.14015 243.613 6.28977C243.531 6.43939 243.491 6.61269 243.491 6.80966V9.5H242.641ZM251.897 9.5V3.68182H253.971C254.422 3.68182 254.796 3.75947 255.093 3.91477C255.392 4.07008 255.616 4.28504 255.763 4.55966C255.911 4.83239 255.985 5.14773 255.985 5.50568C255.985 5.86174 255.91 6.17519 255.761 6.44602C255.613 6.71496 255.389 6.92424 255.09 7.07386C254.793 7.22348 254.419 7.2983 253.968 7.2983H252.397V6.54261H253.888C254.173 6.54261 254.404 6.50189 254.582 6.42045C254.762 6.33902 254.893 6.22064 254.977 6.06534C255.06 5.91004 255.102 5.72348 255.102 5.50568C255.102 5.28598 255.059 5.09564 254.974 4.93466C254.89 4.77367 254.759 4.65057 254.579 4.56534C254.401 4.47822 254.167 4.43466 253.877 4.43466H252.775V9.5H251.897ZM254.769 6.875L256.207 9.5H255.207L253.798 6.875H254.769ZM258.768 9.58807C258.359 9.58807 258.002 9.49432 257.697 9.30682C257.393 9.11932 257.156 8.85701 256.987 8.51989C256.819 8.18277 256.734 7.78883 256.734 7.33807C256.734 6.88542 256.819 6.48958 256.987 6.15057C257.156 5.81155 257.393 5.5483 257.697 5.3608C258.002 5.1733 258.359 5.07955 258.768 5.07955C259.178 5.07955 259.535 5.1733 259.839 5.3608C260.144 5.5483 260.381 5.81155 260.55 6.15057C260.718 6.48958 260.803 6.88542 260.803 7.33807C260.803 7.78883 260.718 8.18277 260.55 8.51989C260.381 8.85701 260.144 9.11932 259.839 9.30682C259.535 9.49432 259.178 9.58807 258.768 9.58807ZM258.771 8.875C259.036 8.875 259.256 8.80492 259.43 8.66477C259.605 8.52462 259.733 8.33807 259.817 8.10511C259.902 7.87216 259.945 7.61553 259.945 7.33523C259.945 7.05682 259.902 6.80114 259.817 6.56818C259.733 6.33333 259.605 6.14489 259.43 6.00284C259.256 5.8608 259.036 5.78977 258.771 5.78977C258.504 5.78977 258.283 5.8608 258.107 6.00284C257.932 6.14489 257.803 6.33333 257.717 6.56818C257.634 6.80114 257.592 7.05682 257.592 7.33523C257.592 7.61553 257.634 7.87216 257.717 8.10511C257.803 8.33807 257.932 8.52462 258.107 8.66477C258.283 8.80492 258.504 8.875 258.771 8.875ZM263.021 9.59659C262.744 9.59659 262.494 9.54545 262.271 9.44318C262.047 9.33902 261.87 9.18845 261.739 8.99148C261.611 8.79451 261.546 8.55303 261.546 8.26705C261.546 8.02083 261.594 7.81818 261.688 7.65909C261.783 7.5 261.911 7.37405 262.072 7.28125C262.233 7.18845 262.413 7.11837 262.612 7.07102C262.81 7.02367 263.013 6.98769 263.219 6.96307C263.481 6.93277 263.693 6.90814 263.856 6.8892C264.019 6.86837 264.137 6.83523 264.211 6.78977C264.285 6.74432 264.322 6.67045 264.322 6.56818V6.5483C264.322 6.30019 264.252 6.10795 264.112 5.97159C263.973 5.83523 263.767 5.76705 263.492 5.76705C263.206 5.76705 262.981 5.83049 262.816 5.95739C262.653 6.08239 262.54 6.22159 262.478 6.375L261.68 6.19318C261.774 5.92803 261.913 5.71402 262.094 5.55114C262.278 5.38636 262.489 5.26705 262.728 5.19318C262.967 5.11742 263.218 5.07955 263.481 5.07955C263.655 5.07955 263.84 5.10038 264.035 5.14205C264.232 5.18182 264.415 5.25568 264.586 5.36364C264.758 5.47159 264.899 5.62595 265.009 5.8267C265.119 6.02557 265.174 6.28409 265.174 6.60227V9.5H264.344V8.90341H264.31C264.255 9.01326 264.173 9.12121 264.063 9.22727C263.953 9.33333 263.812 9.4214 263.64 9.49148C263.468 9.56155 263.261 9.59659 263.021 9.59659ZM263.205 8.91477C263.44 8.91477 263.641 8.86837 263.808 8.77557C263.976 8.68277 264.104 8.56155 264.191 8.41193C264.28 8.26042 264.325 8.09848 264.325 7.92614V7.36364C264.294 7.39394 264.236 7.42235 264.148 7.44886C264.063 7.47348 263.966 7.49527 263.856 7.5142C263.746 7.53125 263.639 7.54735 263.535 7.5625C263.431 7.57576 263.344 7.58712 263.273 7.59659C263.109 7.61742 262.958 7.65246 262.822 7.7017C262.687 7.75095 262.579 7.82197 262.498 7.91477C262.418 8.00568 262.379 8.12689 262.379 8.27841C262.379 8.48864 262.456 8.64773 262.612 8.75568C262.767 8.86174 262.965 8.91477 263.205 8.91477ZM267.939 9.58523C267.587 9.58523 267.272 9.49527 266.996 9.31534C266.721 9.13352 266.505 8.875 266.348 8.53977C266.193 8.20265 266.115 7.7983 266.115 7.3267C266.115 6.85511 266.194 6.4517 266.351 6.11648C266.51 5.78125 266.728 5.52462 267.004 5.34659C267.281 5.16856 267.594 5.07955 267.945 5.07955C268.215 5.07955 268.433 5.125 268.598 5.21591C268.765 5.30492 268.893 5.40909 268.984 5.52841C269.077 5.64773 269.149 5.75284 269.2 5.84375H269.251V3.68182H270.101V9.5H269.271V8.82102H269.2C269.149 8.91383 269.075 9.01989 268.979 9.1392C268.884 9.25852 268.753 9.36269 268.587 9.4517C268.42 9.54072 268.204 9.58523 267.939 9.58523ZM268.126 8.8608C268.371 8.8608 268.577 8.7964 268.746 8.66761C268.916 8.53693 269.045 8.35606 269.132 8.125C269.221 7.89394 269.266 7.625 269.266 7.31818C269.266 7.01515 269.222 6.75 269.135 6.52273C269.048 6.29545 268.92 6.11837 268.751 5.99148C268.583 5.86458 268.375 5.80114 268.126 5.80114C267.871 5.80114 267.658 5.86742 267.487 6C267.317 6.13258 267.188 6.31345 267.101 6.54261C267.016 6.77178 266.973 7.0303 266.973 7.31818C266.973 7.60985 267.017 7.87216 267.104 8.10511C267.191 8.33807 267.32 8.52273 267.49 8.65909C267.662 8.79356 267.875 8.8608 268.126 8.8608ZM272.418 8.70455L272.376 9.0142C272.347 9.24148 272.299 9.47822 272.231 9.72443C272.165 9.97254 272.095 10.2027 272.023 10.4148C271.953 10.6269 271.896 10.7955 271.85 10.9205H271.248C271.272 10.803 271.307 10.6439 271.35 10.4432C271.394 10.2443 271.436 10.0218 271.478 9.77557C271.52 9.52936 271.551 9.27841 271.572 9.02273L271.6 8.70455H272.418ZM280.542 5.57386H279.656C279.621 5.38447 279.558 5.2178 279.465 5.07386C279.372 4.92992 279.259 4.80777 279.124 4.70739C278.99 4.60701 278.839 4.53125 278.673 4.48011C278.508 4.42898 278.333 4.40341 278.147 4.40341C277.812 4.40341 277.512 4.48769 277.246 4.65625C276.983 4.82481 276.775 5.07197 276.621 5.39773C276.47 5.72348 276.394 6.12121 276.394 6.59091C276.394 7.06439 276.47 7.46402 276.621 7.78977C276.775 8.11553 276.984 8.36174 277.249 8.52841C277.514 8.69508 277.813 8.77841 278.144 8.77841C278.328 8.77841 278.502 8.75379 278.667 8.70455C278.834 8.65341 278.984 8.5786 279.119 8.48011C279.253 8.38163 279.367 8.26136 279.46 8.11932C279.554 7.97538 279.62 7.81061 279.656 7.625L280.542 7.62784C280.495 7.91383 280.403 8.17708 280.266 8.41761C280.132 8.65625 279.959 8.86269 279.746 9.03693C279.536 9.20928 279.296 9.3428 279.025 9.4375C278.754 9.5322 278.459 9.57955 278.138 9.57955C277.635 9.57955 277.186 9.46023 276.792 9.22159C276.398 8.98106 276.087 8.63731 275.86 8.19034C275.635 7.74337 275.522 7.21023 275.522 6.59091C275.522 5.9697 275.636 5.43655 275.863 4.99148C276.09 4.54451 276.401 4.2017 276.795 3.96307C277.189 3.72254 277.637 3.60227 278.138 3.60227C278.447 3.60227 278.735 3.64678 279.002 3.7358C279.271 3.82292 279.513 3.9517 279.727 4.12216C279.941 4.29072 280.118 4.49716 280.258 4.74148C280.398 4.9839 280.493 5.26136 280.542 5.57386ZM283.362 9.58807C282.953 9.58807 282.596 9.49432 282.291 9.30682C281.986 9.11932 281.75 8.85701 281.581 8.51989C281.412 8.18277 281.328 7.78883 281.328 7.33807C281.328 6.88542 281.412 6.48958 281.581 6.15057C281.75 5.81155 281.986 5.5483 282.291 5.3608C282.596 5.1733 282.953 5.07955 283.362 5.07955C283.771 5.07955 284.128 5.1733 284.433 5.3608C284.738 5.5483 284.975 5.81155 285.143 6.15057C285.312 6.48958 285.396 6.88542 285.396 7.33807C285.396 7.78883 285.312 8.18277 285.143 8.51989C284.975 8.85701 284.738 9.11932 284.433 9.30682C284.128 9.49432 283.771 9.58807 283.362 9.58807ZM283.365 8.875C283.63 8.875 283.85 8.80492 284.024 8.66477C284.198 8.52462 284.327 8.33807 284.411 8.10511C284.496 7.87216 284.538 7.61553 284.538 7.33523C284.538 7.05682 284.496 6.80114 284.411 6.56818C284.327 6.33333 284.198 6.14489 284.024 6.00284C283.85 5.8608 283.63 5.78977 283.365 5.78977C283.098 5.78977 282.876 5.8608 282.7 6.00284C282.526 6.14489 282.396 6.33333 282.311 6.56818C282.228 6.80114 282.186 7.05682 282.186 7.33523C282.186 7.61553 282.228 7.87216 282.311 8.10511C282.396 8.33807 282.526 8.52462 282.7 8.66477C282.876 8.80492 283.098 8.875 283.365 8.875ZM286.344 9.5V5.13636H287.194V9.5H286.344ZM286.773 4.46307C286.626 4.46307 286.499 4.41383 286.393 4.31534C286.289 4.21496 286.237 4.09564 286.237 3.95739C286.237 3.81723 286.289 3.69792 286.393 3.59943C286.499 3.49905 286.626 3.44886 286.773 3.44886C286.921 3.44886 287.047 3.49905 287.151 3.59943C287.257 3.69792 287.31 3.81723 287.31 3.95739C287.31 4.09564 287.257 4.21496 287.151 4.31534C287.047 4.41383 286.921 4.46307 286.773 4.46307ZM288.337 9.5V5.13636H289.152V5.84659H289.206C289.297 5.60606 289.446 5.41856 289.652 5.28409C289.858 5.14773 290.106 5.07955 290.393 5.07955C290.685 5.07955 290.929 5.14773 291.126 5.28409C291.325 5.42045 291.472 5.60795 291.567 5.84659H291.612C291.716 5.61364 291.882 5.42803 292.109 5.28977C292.337 5.14962 292.607 5.07955 292.922 5.07955C293.318 5.07955 293.641 5.2036 293.891 5.4517C294.143 5.69981 294.268 6.07386 294.268 6.57386V9.5H293.419V6.65341C293.419 6.35795 293.339 6.14394 293.178 6.01136C293.017 5.87879 292.824 5.8125 292.601 5.8125C292.324 5.8125 292.109 5.89773 291.956 6.06818C291.803 6.23674 291.726 6.4536 291.726 6.71875V9.5H290.879V6.59943C290.879 6.36269 290.805 6.17235 290.658 6.02841C290.51 5.88447 290.318 5.8125 290.081 5.8125C289.92 5.8125 289.771 5.85511 289.635 5.94034C289.5 6.02367 289.392 6.14015 289.308 6.28977C289.227 6.43939 289.186 6.61269 289.186 6.80966V9.5H288.337ZM295.475 9.5V3.68182H296.325V5.84375H296.376C296.425 5.75284 296.496 5.64773 296.589 5.52841C296.682 5.40909 296.81 5.30492 296.975 5.21591C297.14 5.125 297.358 5.07955 297.629 5.07955C297.981 5.07955 298.295 5.16856 298.572 5.34659C298.848 5.52462 299.065 5.78125 299.222 6.11648C299.381 6.4517 299.461 6.85511 299.461 7.3267C299.461 7.7983 299.382 8.20265 299.225 8.53977C299.068 8.875 298.852 9.13352 298.577 9.31534C298.303 9.49527 297.989 9.58523 297.637 9.58523C297.372 9.58523 297.155 9.54072 296.987 9.4517C296.82 9.36269 296.689 9.25852 296.594 9.1392C296.5 9.01989 296.427 8.91383 296.376 8.82102H296.305V9.5H295.475ZM296.308 7.31818C296.308 7.625 296.352 7.89394 296.441 8.125C296.53 8.35606 296.659 8.53693 296.827 8.66761C296.996 8.7964 297.202 8.8608 297.447 8.8608C297.701 8.8608 297.913 8.79356 298.083 8.65909C298.254 8.52273 298.382 8.33807 298.469 8.10511C298.558 7.87216 298.603 7.60985 298.603 7.31818C298.603 7.0303 298.559 6.77178 298.472 6.54261C298.387 6.31345 298.258 6.13258 298.086 6C297.915 5.86742 297.702 5.80114 297.447 5.80114C297.201 5.80114 296.992 5.86458 296.822 5.99148C296.653 6.11837 296.525 6.29545 296.438 6.52273C296.351 6.75 296.308 7.01515 296.308 7.31818ZM301.685 9.59659C301.408 9.59659 301.158 9.54545 300.935 9.44318C300.711 9.33902 300.534 9.18845 300.403 8.99148C300.275 8.79451 300.21 8.55303 300.21 8.26705C300.21 8.02083 300.258 7.81818 300.352 7.65909C300.447 7.5 300.575 7.37405 300.736 7.28125C300.897 7.18845 301.077 7.11837 301.276 7.07102C301.474 7.02367 301.677 6.98769 301.884 6.96307C302.145 6.93277 302.357 6.90814 302.52 6.8892C302.683 6.86837 302.801 6.83523 302.875 6.78977C302.949 6.74432 302.986 6.67045 302.986 6.56818V6.5483C302.986 6.30019 302.916 6.10795 302.776 5.97159C302.637 5.83523 302.431 5.76705 302.156 5.76705C301.87 5.76705 301.645 5.83049 301.48 5.95739C301.317 6.08239 301.205 6.22159 301.142 6.375L300.344 6.19318C300.438 5.92803 300.577 5.71402 300.759 5.55114C300.942 5.38636 301.153 5.26705 301.392 5.19318C301.631 5.11742 301.882 5.07955 302.145 5.07955C302.319 5.07955 302.504 5.10038 302.699 5.14205C302.896 5.18182 303.08 5.25568 303.25 5.36364C303.422 5.47159 303.563 5.62595 303.673 5.8267C303.783 6.02557 303.838 6.28409 303.838 6.60227V9.5H303.009V8.90341H302.974C302.92 9.01326 302.837 9.12121 302.727 9.22727C302.617 9.33333 302.476 9.4214 302.304 9.49148C302.132 9.56155 301.925 9.59659 301.685 9.59659ZM301.869 8.91477C302.104 8.91477 302.305 8.86837 302.472 8.77557C302.64 8.68277 302.768 8.56155 302.855 8.41193C302.944 8.26042 302.989 8.09848 302.989 7.92614V7.36364C302.958 7.39394 302.9 7.42235 302.812 7.44886C302.727 7.47348 302.63 7.49527 302.52 7.5142C302.41 7.53125 302.303 7.54735 302.199 7.5625C302.095 7.57576 302.008 7.58712 301.938 7.59659C301.773 7.61742 301.622 7.65246 301.486 7.7017C301.351 7.75095 301.243 7.82197 301.162 7.91477C301.082 8.00568 301.043 8.12689 301.043 8.27841C301.043 8.48864 301.12 8.64773 301.276 8.75568C301.431 8.86174 301.629 8.91477 301.869 8.91477ZM307.006 5.13636V5.81818H304.623V5.13636H307.006ZM305.262 4.09091H306.112V8.21875C306.112 8.38352 306.136 8.50758 306.185 8.59091C306.235 8.67235 306.298 8.72822 306.376 8.75852C306.455 8.78693 306.541 8.80114 306.634 8.80114C306.702 8.80114 306.762 8.7964 306.813 8.78693C306.864 8.77746 306.904 8.76989 306.933 8.7642L307.086 9.46591C307.037 9.48485 306.967 9.50379 306.876 9.52273C306.785 9.54356 306.671 9.55492 306.535 9.55682C306.311 9.56061 306.103 9.52083 305.91 9.4375C305.717 9.35417 305.56 9.22538 305.441 9.05114C305.322 8.87689 305.262 8.65814 305.262 8.39489V4.09091ZM309.737 9.58807C309.328 9.58807 308.971 9.49432 308.666 9.30682C308.361 9.11932 308.125 8.85701 307.956 8.51989C307.787 8.18277 307.703 7.78883 307.703 7.33807C307.703 6.88542 307.787 6.48958 307.956 6.15057C308.125 5.81155 308.361 5.5483 308.666 5.3608C308.971 5.1733 309.328 5.07955 309.737 5.07955C310.146 5.07955 310.503 5.1733 310.808 5.3608C311.113 5.5483 311.35 5.81155 311.518 6.15057C311.687 6.48958 311.771 6.88542 311.771 7.33807C311.771 7.78883 311.687 8.18277 311.518 8.51989C311.35 8.85701 311.113 9.11932 310.808 9.30682C310.503 9.49432 310.146 9.58807 309.737 9.58807ZM309.74 8.875C310.005 8.875 310.225 8.80492 310.399 8.66477C310.573 8.52462 310.702 8.33807 310.786 8.10511C310.871 7.87216 310.913 7.61553 310.913 7.33523C310.913 7.05682 310.871 6.80114 310.786 6.56818C310.702 6.33333 310.573 6.14489 310.399 6.00284C310.225 5.8608 310.005 5.78977 309.74 5.78977C309.473 5.78977 309.251 5.8608 309.075 6.00284C308.901 6.14489 308.771 6.33333 308.686 6.56818C308.603 6.80114 308.561 7.05682 308.561 7.33523C308.561 7.61553 308.603 7.87216 308.686 8.10511C308.771 8.33807 308.901 8.52462 309.075 8.66477C309.251 8.80492 309.473 8.875 309.74 8.875ZM312.719 9.5V5.13636H313.54V5.82955H313.586C313.665 5.5947 313.806 5.41004 314.006 5.27557C314.209 5.1392 314.438 5.07102 314.694 5.07102C314.747 5.07102 314.809 5.07292 314.881 5.0767C314.955 5.08049 315.013 5.08523 315.055 5.09091V5.90341C315.021 5.89394 314.96 5.88352 314.873 5.87216C314.786 5.8589 314.699 5.85227 314.612 5.85227C314.411 5.85227 314.232 5.89489 314.075 5.98011C313.919 6.06345 313.796 6.17992 313.705 6.32955C313.614 6.47727 313.569 6.64583 313.569 6.83523V9.5H312.719ZM317.514 9.58807C317.084 9.58807 316.714 9.49621 316.403 9.3125C316.095 9.12689 315.856 8.86648 315.688 8.53125C315.521 8.19413 315.438 7.79924 315.438 7.34659C315.438 6.89962 315.521 6.50568 315.688 6.16477C315.856 5.82386 316.091 5.55777 316.392 5.36648C316.695 5.17519 317.049 5.07955 317.455 5.07955C317.701 5.07955 317.939 5.12027 318.17 5.2017C318.402 5.28314 318.609 5.41098 318.793 5.58523C318.976 5.75947 319.121 5.9858 319.227 6.2642C319.333 6.54072 319.386 6.87689 319.386 7.27273V7.57386H315.918V6.9375H318.554C318.554 6.71402 318.509 6.5161 318.418 6.34375C318.327 6.16951 318.199 6.0322 318.034 5.93182C317.871 5.83144 317.68 5.78125 317.46 5.78125C317.222 5.78125 317.013 5.83996 316.835 5.95739C316.659 6.07292 316.523 6.22443 316.426 6.41193C316.331 6.59754 316.284 6.79924 316.284 7.01705V7.5142C316.284 7.80587 316.335 8.05398 316.438 8.25852C316.542 8.46307 316.687 8.61932 316.872 8.72727C317.058 8.83333 317.275 8.88636 317.523 8.88636C317.684 8.88636 317.83 8.86364 317.963 8.81818C318.096 8.77083 318.21 8.70076 318.307 8.60795C318.403 8.51515 318.477 8.40057 318.528 8.2642L319.332 8.40909C319.268 8.64583 319.152 8.85322 318.986 9.03125C318.821 9.20739 318.614 9.3447 318.364 9.44318C318.116 9.53977 317.832 9.58807 317.514 9.58807ZM325.875 6.22443V6.96023H321.875V6.22443H325.875ZM330.583 9.57955C330.324 9.57576 330.068 9.52841 329.816 9.4375C329.566 9.34659 329.339 9.19508 329.134 8.98295C328.93 8.77083 328.766 8.4858 328.643 8.12784C328.522 7.76989 328.461 7.32292 328.461 6.78693C328.461 6.27936 328.511 5.8286 328.612 5.43466C328.714 5.04072 328.861 4.70833 329.052 4.4375C329.243 4.16477 329.474 3.95739 329.745 3.81534C330.016 3.6733 330.32 3.60227 330.657 3.60227C331.004 3.60227 331.311 3.67045 331.58 3.80682C331.849 3.94318 332.067 4.13163 332.234 4.37216C332.402 4.61269 332.509 4.88636 332.555 5.19318H331.688C331.629 4.95076 331.513 4.75284 331.339 4.59943C331.165 4.44602 330.937 4.36932 330.657 4.36932C330.231 4.36932 329.898 4.55492 329.66 4.92614C329.423 5.29735 329.304 5.81345 329.302 6.47443H329.344C329.445 6.30966 329.568 6.16951 329.714 6.05398C329.862 5.93655 330.026 5.84659 330.208 5.78409C330.392 5.7197 330.585 5.6875 330.788 5.6875C331.125 5.6875 331.43 5.76989 331.702 5.93466C331.977 6.09754 332.196 6.32292 332.359 6.6108C332.522 6.89867 332.603 7.22822 332.603 7.59943C332.603 7.97064 332.519 8.30682 332.35 8.60795C332.183 8.90909 331.949 9.14773 331.646 9.32386C331.343 9.49811 330.988 9.58333 330.583 9.57955ZM330.58 8.84091C330.804 8.84091 331.004 8.78598 331.18 8.67614C331.356 8.56629 331.495 8.41856 331.597 8.23295C331.7 8.04735 331.751 7.83996 331.751 7.6108C331.751 7.38731 331.701 7.18371 331.6 7C331.502 6.81629 331.365 6.67045 331.191 6.5625C331.019 6.45455 330.822 6.40057 330.6 6.40057C330.432 6.40057 330.275 6.43277 330.131 6.49716C329.989 6.56155 329.864 6.65057 329.756 6.7642C329.648 6.87784 329.563 7.00852 329.501 7.15625C329.44 7.30208 329.41 7.45644 329.41 7.61932C329.41 7.83712 329.46 8.03883 329.56 8.22443C329.663 8.41004 329.802 8.55966 329.978 8.6733C330.156 8.78504 330.357 8.84091 330.58 8.84091ZM333.516 8.36364V7.65341L336.03 3.68182H336.589V4.72727H336.234L334.436 7.57386V7.61932H337.882V8.36364H333.516ZM336.274 9.5V8.14773L336.28 7.82386V3.68182H337.112V9.5H336.274ZM341.001 3.68182V9.5H340.121V4.5625H340.087L338.695 5.47159V4.63068L340.146 3.68182H341.001ZM344.783 3.68182V9.5H343.902V4.5625H343.868L342.476 5.47159V4.63068L343.928 3.68182H344.783ZM348.382 9.59659C347.933 9.5947 347.55 9.47633 347.232 9.24148C346.913 9.00663 346.67 8.66477 346.501 8.21591C346.333 7.76705 346.249 7.22633 346.249 6.59375C346.249 5.96307 346.333 5.42424 346.501 4.97727C346.672 4.5303 346.916 4.18939 347.234 3.95455C347.554 3.7197 347.937 3.60227 348.382 3.60227C348.827 3.60227 349.209 3.72064 349.527 3.95739C349.845 4.19223 350.089 4.53314 350.257 4.98011C350.428 5.42519 350.513 5.96307 350.513 6.59375C350.513 7.22822 350.429 7.76989 350.26 8.21875C350.091 8.66572 349.848 9.00758 349.53 9.24432C349.212 9.47917 348.829 9.59659 348.382 9.59659ZM348.382 8.83807C348.776 8.83807 349.084 8.64583 349.305 8.26136C349.529 7.87689 349.641 7.32102 349.641 6.59375C349.641 6.1108 349.589 5.70265 349.487 5.36932C349.387 5.03409 349.242 4.7803 349.053 4.60795C348.865 4.43371 348.642 4.34659 348.382 4.34659C347.99 4.34659 347.682 4.53977 347.459 4.92614C347.235 5.3125 347.123 5.86837 347.121 6.59375C347.121 7.0786 347.171 7.48864 347.271 7.82386C347.374 8.1572 347.518 8.41004 347.706 8.58239C347.893 8.75284 348.119 8.83807 348.382 8.83807ZM353.487 9.57955C353.079 9.57955 352.719 9.50947 352.407 9.36932C352.096 9.22917 351.853 9.03598 351.677 8.78977C351.501 8.54356 351.414 8.26326 351.415 7.94886C351.414 7.70265 351.464 7.47633 351.566 7.26989C351.67 7.06155 351.811 6.88826 351.989 6.75C352.167 6.60985 352.366 6.52083 352.586 6.48295V6.44886C352.296 6.37879 352.064 6.22348 351.89 5.98295C351.716 5.74242 351.629 5.46591 351.631 5.15341C351.629 4.85606 351.708 4.59091 351.867 4.35795C352.028 4.12311 352.249 3.93845 352.529 3.80398C352.809 3.66951 353.129 3.60227 353.487 3.60227C353.841 3.60227 354.157 3.67045 354.435 3.80682C354.716 3.94129 354.936 4.12595 355.097 4.3608C355.258 4.59375 355.34 4.85795 355.342 5.15341C355.34 5.46591 355.251 5.74242 355.075 5.98295C354.898 6.22348 354.669 6.37879 354.387 6.44886V6.48295C354.605 6.52083 354.801 6.60985 354.975 6.75C355.151 6.88826 355.291 7.06155 355.396 7.26989C355.502 7.47633 355.556 7.70265 355.558 7.94886C355.556 8.26326 355.467 8.54356 355.29 8.78977C355.114 9.03598 354.87 9.22917 354.558 9.36932C354.247 9.50947 353.89 9.57955 353.487 9.57955ZM353.487 8.8608C353.727 8.8608 353.935 8.82102 354.112 8.74148C354.288 8.66004 354.424 8.54735 354.521 8.40341C354.617 8.25758 354.666 8.08712 354.668 7.89205C354.666 7.68939 354.613 7.51042 354.509 7.35511C354.407 7.19981 354.268 7.07765 354.092 6.98864C353.915 6.89962 353.714 6.85511 353.487 6.85511C353.257 6.85511 353.054 6.89962 352.876 6.98864C352.698 7.07765 352.558 7.19981 352.455 7.35511C352.353 7.51042 352.303 7.68939 352.305 7.89205C352.303 8.08712 352.349 8.25758 352.444 8.40341C352.54 8.54735 352.678 8.66004 352.856 8.74148C353.034 8.82102 353.244 8.8608 353.487 8.8608ZM353.487 6.15341C353.68 6.15341 353.851 6.11458 354.001 6.03693C354.15 5.95928 354.268 5.85133 354.353 5.71307C354.44 5.57481 354.485 5.41288 354.487 5.22727C354.485 5.04545 354.441 4.88636 354.356 4.75C354.272 4.61364 354.156 4.50852 354.006 4.43466C353.857 4.3589 353.683 4.32102 353.487 4.32102C353.286 4.32102 353.11 4.3589 352.958 4.43466C352.808 4.50852 352.692 4.61364 352.609 4.75C352.525 4.88636 352.485 5.04545 352.487 5.22727C352.485 5.41288 352.526 5.57481 352.612 5.71307C352.697 5.85133 352.814 5.95928 352.964 6.03693C353.115 6.11458 353.29 6.15341 353.487 6.15341ZM357.52 8.70455L357.477 9.0142C357.449 9.24148 357.401 9.47822 357.332 9.72443C357.266 9.97254 357.197 10.2027 357.125 10.4148C357.055 10.6269 356.997 10.7955 356.952 10.9205H356.349C356.374 10.803 356.408 10.6439 356.452 10.4432C356.495 10.2443 356.538 10.0218 356.58 9.77557C356.621 9.52936 356.652 9.27841 356.673 9.02273L356.702 8.70455H357.52ZM360.524 4.4375V3.68182H365.027V4.4375H363.212V9.5H362.337V4.4375H360.524ZM366.63 9.59659C366.353 9.59659 366.103 9.54545 365.88 9.44318C365.656 9.33902 365.479 9.18845 365.349 8.99148C365.22 8.79451 365.156 8.55303 365.156 8.26705C365.156 8.02083 365.203 7.81818 365.298 7.65909C365.392 7.5 365.52 7.37405 365.681 7.28125C365.842 7.18845 366.022 7.11837 366.221 7.07102C366.42 7.02367 366.622 6.98769 366.829 6.96307C367.09 6.93277 367.302 6.90814 367.465 6.8892C367.628 6.86837 367.746 6.83523 367.82 6.78977C367.894 6.74432 367.931 6.67045 367.931 6.56818V6.5483C367.931 6.30019 367.861 6.10795 367.721 5.97159C367.583 5.83523 367.376 5.76705 367.102 5.76705C366.816 5.76705 366.59 5.83049 366.425 5.95739C366.263 6.08239 366.15 6.22159 366.087 6.375L365.289 6.19318C365.384 5.92803 365.522 5.71402 365.704 5.55114C365.888 5.38636 366.099 5.26705 366.337 5.19318C366.576 5.11742 366.827 5.07955 367.09 5.07955C367.264 5.07955 367.449 5.10038 367.644 5.14205C367.841 5.18182 368.025 5.25568 368.195 5.36364C368.368 5.47159 368.509 5.62595 368.619 5.8267C368.728 6.02557 368.783 6.28409 368.783 6.60227V9.5H367.954V8.90341H367.92C367.865 9.01326 367.782 9.12121 367.673 9.22727C367.563 9.33333 367.422 9.4214 367.249 9.49148C367.077 9.56155 366.871 9.59659 366.63 9.59659ZM366.815 8.91477C367.049 8.91477 367.25 8.86837 367.417 8.77557C367.585 8.68277 367.713 8.56155 367.8 8.41193C367.889 8.26042 367.934 8.09848 367.934 7.92614V7.36364C367.904 7.39394 367.845 7.42235 367.758 7.44886C367.673 7.47348 367.575 7.49527 367.465 7.5142C367.355 7.53125 367.248 7.54735 367.144 7.5625C367.04 7.57576 366.953 7.58712 366.883 7.59659C366.718 7.61742 366.567 7.65246 366.431 7.7017C366.297 7.75095 366.189 7.82197 366.107 7.91477C366.028 8.00568 365.988 8.12689 365.988 8.27841C365.988 8.48864 366.066 8.64773 366.221 8.75568C366.376 8.86174 366.574 8.91477 366.815 8.91477ZM369.915 9.5V5.13636H370.73V5.84659H370.784C370.875 5.60606 371.024 5.41856 371.23 5.28409C371.437 5.14773 371.684 5.07955 371.972 5.07955C372.263 5.07955 372.508 5.14773 372.705 5.28409C372.903 5.42045 373.05 5.60795 373.145 5.84659H373.19C373.295 5.61364 373.46 5.42803 373.688 5.28977C373.915 5.14962 374.186 5.07955 374.5 5.07955C374.896 5.07955 375.219 5.2036 375.469 5.4517C375.721 5.69981 375.847 6.07386 375.847 6.57386V9.5H374.997V6.65341C374.997 6.35795 374.917 6.14394 374.756 6.01136C374.595 5.87879 374.402 5.8125 374.179 5.8125C373.902 5.8125 373.688 5.89773 373.534 6.06818C373.381 6.23674 373.304 6.4536 373.304 6.71875V9.5H372.457V6.59943C372.457 6.36269 372.384 6.17235 372.236 6.02841C372.088 5.88447 371.896 5.8125 371.659 5.8125C371.498 5.8125 371.349 5.85511 371.213 5.94034C371.079 6.02367 370.97 6.14015 370.886 6.28977C370.805 6.43939 370.764 6.61269 370.764 6.80966V9.5H369.915ZM376.985 9.5V5.13636H377.835V9.5H376.985ZM377.414 4.46307C377.266 4.46307 377.139 4.41383 377.033 4.31534C376.929 4.21496 376.877 4.09564 376.877 3.95739C376.877 3.81723 376.929 3.69792 377.033 3.59943C377.139 3.49905 377.266 3.44886 377.414 3.44886C377.562 3.44886 377.688 3.49905 377.792 3.59943C377.898 3.69792 377.951 3.81723 377.951 3.95739C377.951 4.09564 377.898 4.21496 377.792 4.31534C377.688 4.41383 377.562 4.46307 377.414 4.46307ZM379.827 3.68182V9.5H378.977V3.68182H379.827ZM387.851 3.68182V9.5H387.044L384.087 5.23295H384.033V9.5H383.155V3.68182H383.967L386.928 7.95455H386.982V3.68182H387.851ZM390.333 9.59659C390.057 9.59659 389.807 9.54545 389.583 9.44318C389.36 9.33902 389.183 9.18845 389.052 8.99148C388.923 8.79451 388.859 8.55303 388.859 8.26705C388.859 8.02083 388.906 7.81818 389.001 7.65909C389.095 7.5 389.223 7.37405 389.384 7.28125C389.545 7.18845 389.725 7.11837 389.924 7.07102C390.123 7.02367 390.326 6.98769 390.532 6.96307C390.793 6.93277 391.005 6.90814 391.168 6.8892C391.331 6.86837 391.45 6.83523 391.523 6.78977C391.597 6.74432 391.634 6.67045 391.634 6.56818V6.5483C391.634 6.30019 391.564 6.10795 391.424 5.97159C391.286 5.83523 391.079 5.76705 390.805 5.76705C390.519 5.76705 390.293 5.83049 390.129 5.95739C389.966 6.08239 389.853 6.22159 389.79 6.375L388.992 6.19318C389.087 5.92803 389.225 5.71402 389.407 5.55114C389.591 5.38636 389.802 5.26705 390.04 5.19318C390.279 5.11742 390.53 5.07955 390.793 5.07955C390.968 5.07955 391.152 5.10038 391.347 5.14205C391.544 5.18182 391.728 5.25568 391.898 5.36364C392.071 5.47159 392.212 5.62595 392.322 5.8267C392.432 6.02557 392.487 6.28409 392.487 6.60227V9.5H391.657V8.90341H391.623C391.568 9.01326 391.486 9.12121 391.376 9.22727C391.266 9.33333 391.125 9.4214 390.952 9.49148C390.78 9.56155 390.574 9.59659 390.333 9.59659ZM390.518 8.91477C390.753 8.91477 390.953 8.86837 391.12 8.77557C391.289 8.68277 391.416 8.56155 391.504 8.41193C391.593 8.26042 391.637 8.09848 391.637 7.92614V7.36364C391.607 7.39394 391.548 7.42235 391.461 7.44886C391.376 7.47348 391.278 7.49527 391.168 7.5142C391.058 7.53125 390.951 7.54735 390.847 7.5625C390.743 7.57576 390.656 7.58712 390.586 7.59659C390.421 7.61742 390.271 7.65246 390.134 7.7017C390 7.75095 389.892 7.82197 389.81 7.91477C389.731 8.00568 389.691 8.12689 389.691 8.27841C389.691 8.48864 389.769 8.64773 389.924 8.75568C390.079 8.86174 390.277 8.91477 390.518 8.91477ZM395.251 9.58523C394.899 9.58523 394.585 9.49527 394.308 9.31534C394.034 9.13352 393.818 8.875 393.661 8.53977C393.505 8.20265 393.428 7.7983 393.428 7.3267C393.428 6.85511 393.506 6.4517 393.663 6.11648C393.822 5.78125 394.04 5.52462 394.317 5.34659C394.593 5.16856 394.907 5.07955 395.257 5.07955C395.528 5.07955 395.746 5.125 395.911 5.21591C396.077 5.30492 396.206 5.40909 396.297 5.52841C396.39 5.64773 396.462 5.75284 396.513 5.84375H396.564V3.68182H397.413V9.5H396.584V8.82102H396.513C396.462 8.91383 396.388 9.01989 396.291 9.1392C396.196 9.25852 396.066 9.36269 395.899 9.4517C395.732 9.54072 395.517 9.58523 395.251 9.58523ZM395.439 8.8608C395.683 8.8608 395.89 8.7964 396.058 8.66761C396.229 8.53693 396.357 8.35606 396.445 8.125C396.534 7.89394 396.578 7.625 396.578 7.31818C396.578 7.01515 396.535 6.75 396.447 6.52273C396.36 6.29545 396.232 6.11837 396.064 5.99148C395.895 5.86458 395.687 5.80114 395.439 5.80114C395.183 5.80114 394.97 5.86742 394.8 6C394.629 6.13258 394.5 6.31345 394.413 6.54261C394.328 6.77178 394.286 7.0303 394.286 7.31818C394.286 7.60985 394.329 7.87216 394.416 8.10511C394.503 8.33807 394.632 8.52273 394.803 8.65909C394.975 8.79356 395.187 8.8608 395.439 8.8608ZM401.39 7.69034V5.13636H402.242V9.5H401.407V8.74432H401.362C401.261 8.97727 401.1 9.1714 400.879 9.3267C400.659 9.48011 400.385 9.55682 400.058 9.55682C399.777 9.55682 399.529 9.49527 399.313 9.37216C399.099 9.24716 398.931 9.0625 398.808 8.81818C398.686 8.57386 398.626 8.27178 398.626 7.91193V5.13636H399.475V7.80966C399.475 8.10701 399.558 8.34375 399.722 8.51989C399.887 8.69602 400.101 8.78409 400.364 8.78409C400.523 8.78409 400.682 8.74432 400.839 8.66477C400.998 8.58523 401.129 8.46496 401.234 8.30398C401.34 8.14299 401.392 7.93845 401.39 7.69034ZM404.489 8.70455L404.446 9.0142C404.418 9.24148 404.369 9.47822 404.301 9.72443C404.235 9.97254 404.166 10.2027 404.094 10.4148C404.024 10.6269 403.966 10.7955 403.92 10.9205H403.318C403.343 10.803 403.377 10.6439 403.42 10.4432C403.464 10.2443 403.507 10.0218 403.548 9.77557C403.59 9.52936 403.621 9.27841 403.642 9.02273L403.67 8.70455H404.489ZM408.658 3.68182V9.5H407.78V3.68182H408.658ZM410.717 6.90909V9.5H409.868V5.13636H410.683V5.84659H410.737C410.838 5.61553 410.995 5.42992 411.209 5.28977C411.425 5.14962 411.696 5.07955 412.024 5.07955C412.321 5.07955 412.582 5.14205 412.805 5.26705C413.029 5.39015 413.202 5.57386 413.325 5.81818C413.448 6.0625 413.51 6.36458 413.51 6.72443V9.5H412.661V6.8267C412.661 6.51042 412.578 6.26326 412.413 6.08523C412.249 5.9053 412.022 5.81534 411.734 5.81534C411.537 5.81534 411.362 5.85795 411.209 5.94318C411.057 6.02841 410.937 6.15341 410.848 6.31818C410.761 6.48106 410.717 6.67803 410.717 6.90909ZM416.283 9.58523C415.93 9.58523 415.616 9.49527 415.339 9.31534C415.065 9.13352 414.849 8.875 414.692 8.53977C414.536 8.20265 414.459 7.7983 414.459 7.3267C414.459 6.85511 414.537 6.4517 414.695 6.11648C414.854 5.78125 415.071 5.52462 415.348 5.34659C415.625 5.16856 415.938 5.07955 416.288 5.07955C416.559 5.07955 416.777 5.125 416.942 5.21591C417.108 5.30492 417.237 5.40909 417.328 5.52841C417.421 5.64773 417.493 5.75284 417.544 5.84375H417.595V3.68182H418.445V9.5H417.615V8.82102H417.544C417.493 8.91383 417.419 9.01989 417.322 9.1392C417.228 9.25852 417.097 9.36269 416.93 9.4517C416.764 9.54072 416.548 9.58523 416.283 9.58523ZM416.47 8.8608C416.714 8.8608 416.921 8.7964 417.089 8.66761C417.26 8.53693 417.389 8.35606 417.476 8.125C417.565 7.89394 417.609 7.625 417.609 7.31818C417.609 7.01515 417.566 6.75 417.479 6.52273C417.392 6.29545 417.264 6.11837 417.095 5.99148C416.927 5.86458 416.718 5.80114 416.47 5.80114C416.214 5.80114 416.001 5.86742 415.831 6C415.661 6.13258 415.532 6.31345 415.445 6.54261C415.359 6.77178 415.317 7.0303 415.317 7.31818C415.317 7.60985 415.36 7.87216 415.447 8.10511C415.535 8.33807 415.663 8.52273 415.834 8.65909C416.006 8.79356 416.218 8.8608 416.47 8.8608ZM419.657 9.5V5.13636H420.506V9.5H419.657ZM420.086 4.46307C419.938 4.46307 419.811 4.41383 419.705 4.31534C419.601 4.21496 419.549 4.09564 419.549 3.95739C419.549 3.81723 419.601 3.69792 419.705 3.59943C419.811 3.49905 419.938 3.44886 420.086 3.44886C420.234 3.44886 420.36 3.49905 420.464 3.59943C420.57 3.69792 420.623 3.81723 420.623 3.95739C420.623 4.09564 420.57 4.21496 420.464 4.31534C420.36 4.41383 420.234 4.46307 420.086 4.46307ZM422.919 9.59659C422.643 9.59659 422.393 9.54545 422.169 9.44318C421.946 9.33902 421.768 9.18845 421.638 8.99148C421.509 8.79451 421.445 8.55303 421.445 8.26705C421.445 8.02083 421.492 7.81818 421.587 7.65909C421.681 7.5 421.809 7.37405 421.97 7.28125C422.131 7.18845 422.311 7.11837 422.51 7.07102C422.709 7.02367 422.911 6.98769 423.118 6.96307C423.379 6.93277 423.591 6.90814 423.754 6.8892C423.917 6.86837 424.036 6.83523 424.109 6.78977C424.183 6.74432 424.22 6.67045 424.22 6.56818V6.5483C424.22 6.30019 424.15 6.10795 424.01 5.97159C423.872 5.83523 423.665 5.76705 423.391 5.76705C423.105 5.76705 422.879 5.83049 422.714 5.95739C422.552 6.08239 422.439 6.22159 422.376 6.375L421.578 6.19318C421.673 5.92803 421.811 5.71402 421.993 5.55114C422.177 5.38636 422.388 5.26705 422.626 5.19318C422.865 5.11742 423.116 5.07955 423.379 5.07955C423.554 5.07955 423.738 5.10038 423.933 5.14205C424.13 5.18182 424.314 5.25568 424.484 5.36364C424.657 5.47159 424.798 5.62595 424.908 5.8267C425.018 6.02557 425.072 6.28409 425.072 6.60227V9.5H424.243V8.90341H424.209C424.154 9.01326 424.071 9.12121 423.962 9.22727C423.852 9.33333 423.711 9.4214 423.538 9.49148C423.366 9.56155 423.16 9.59659 422.919 9.59659ZM423.104 8.91477C423.339 8.91477 423.539 8.86837 423.706 8.77557C423.875 8.68277 424.002 8.56155 424.089 8.41193C424.179 8.26042 424.223 8.09848 424.223 7.92614V7.36364C424.193 7.39394 424.134 7.42235 424.047 7.44886C423.962 7.47348 423.864 7.49527 423.754 7.5142C423.644 7.53125 423.537 7.54735 423.433 7.5625C423.329 7.57576 423.242 7.58712 423.172 7.59659C423.007 7.61742 422.857 7.65246 422.72 7.7017C422.586 7.75095 422.478 7.82197 422.396 7.91477C422.317 8.00568 422.277 8.12689 422.277 8.27841C422.277 8.48864 422.355 8.64773 422.51 8.75568C422.665 8.86174 422.863 8.91477 423.104 8.91477Z" fill="white"/>
</svg>
