<svg width="343" height="143" viewBox="0 0 343 143" fill="none" xmlns="http://www.w3.org/2000/svg">
<path d="M26.6222 10.5582C26.6222 12.3932 26.2011 14.0777 25.3588 15.6118C24.5165 17.1159 23.2231 18.3342 21.4783 19.2667C19.7336 20.1992 17.5678 20.6655 14.9808 20.6655H10.1979V32.0361H2.48212V0.360704H14.9808C17.5076 0.360704 19.6434 0.79688 21.3881 1.66923C23.1328 2.54158 24.4413 3.74483 25.3137 5.27897C26.186 6.8131 26.6222 8.57285 26.6222 10.5582ZM14.3942 14.5289C15.8682 14.5289 16.9662 14.183 17.6881 13.4911C18.4101 12.7993 18.771 11.8216 18.771 10.5582C18.771 9.2948 18.4101 8.31716 17.6881 7.6253C16.9662 6.93343 15.8682 6.5875 14.3942 6.5875H10.1979V14.5289H14.3942ZM50.3573 26.441H38.5354L36.6403 32.0361H28.5635L40.0244 0.360704H48.9585L60.4194 32.0361H52.2524L50.3573 26.441ZM48.3719 20.485L44.4463 8.8887L40.5659 20.485H48.3719ZM62.599 16.1533C62.599 13.0249 63.2758 10.2424 64.6295 7.80578C65.9831 5.33913 67.8632 3.42898 70.2697 2.07533C72.7063 0.691595 75.4587 -0.000270696 78.527 -0.000270696C82.2871 -0.000270696 85.5058 0.992406 88.183 2.97776C90.8602 4.96312 92.6501 7.67042 93.5525 11.0997H85.0696C84.4379 9.7761 83.5355 8.76838 82.3623 8.07651C81.2192 7.38465 79.9107 7.03871 78.4367 7.03871C76.0603 7.03871 74.1351 7.86595 72.6612 9.52041C71.1872 11.1749 70.4502 13.3858 70.4502 16.1533C70.4502 18.9208 71.1872 21.1317 72.6612 22.7862C74.1351 24.4406 76.0603 25.2679 78.4367 25.2679C79.9107 25.2679 81.2192 24.9219 82.3623 24.2301C83.5355 23.5382 84.4379 22.5305 85.0696 21.2069H93.5525C92.6501 24.6362 90.8602 27.3435 88.183 29.3288C85.5058 31.2841 82.2871 32.2617 78.527 32.2617C75.4587 32.2617 72.7063 31.5849 70.2697 30.2313C67.8632 28.8475 65.9831 26.9374 64.6295 24.5008C63.2758 22.0642 62.599 19.2817 62.599 16.1533ZM116.642 32.0361L105.993 18.0484V32.0361H98.2776V0.360704H105.993V14.2582L116.552 0.360704H125.621L113.348 15.8826L126.073 32.0361H116.642ZM149.458 26.441H137.636L135.741 32.0361H127.664L139.125 0.360704H148.059L159.52 32.0361H151.353L149.458 26.441ZM147.472 20.485L143.547 8.8887L139.666 20.485H147.472ZM184.035 10.3777C183.463 9.32488 182.636 8.52773 181.553 7.98627C180.5 7.41473 179.252 7.12896 177.808 7.12896C175.311 7.12896 173.311 7.95619 171.807 9.61065C170.303 11.235 169.55 13.4159 169.55 16.1533C169.55 19.0712 170.333 21.3573 171.897 23.0118C173.491 24.6362 175.672 25.4484 178.439 25.4484C180.335 25.4484 181.929 24.9671 183.222 24.0045C184.546 23.0419 185.509 21.6581 186.11 19.8533H176.319V14.1679H193.104V21.3423C192.532 23.2675 191.555 25.0573 190.171 26.7118C188.817 28.3662 187.088 29.7048 184.982 30.7276C182.876 31.7504 180.5 32.2617 177.853 32.2617C174.724 32.2617 171.927 31.5849 169.46 30.2313C167.024 28.8475 165.114 26.9374 163.73 24.5008C162.376 22.0642 161.699 19.2817 161.699 16.1533C161.699 13.0249 162.376 10.2424 163.73 7.80578C165.114 5.33913 167.024 3.42898 169.46 2.07533C171.897 0.691595 174.679 -0.000270696 177.808 -0.000270696C181.598 -0.000270696 184.787 0.917204 187.374 2.75215C189.991 4.5871 191.72 7.12896 192.563 10.3777H184.035ZM205.094 0.360704V32.0361H197.378V0.360704H205.094ZM239.022 32.0361H231.306L218.401 12.4984V32.0361H210.685V0.360704H218.401L231.306 19.9886V0.360704H239.022V32.0361ZM265.641 10.3777C265.07 9.32488 264.243 8.52773 263.16 7.98627C262.107 7.41473 260.858 7.12896 259.415 7.12896C256.918 7.12896 254.917 7.95619 253.413 9.61065C251.909 11.235 251.157 13.4159 251.157 16.1533C251.157 19.0712 251.939 21.3573 253.504 23.0118C255.098 24.6362 257.279 25.4484 260.046 25.4484C261.941 25.4484 263.536 24.9671 264.829 24.0045C266.153 23.0419 267.115 21.6581 267.717 19.8533H257.926V14.1679H274.711V21.3423C274.139 23.2675 273.162 25.0573 271.778 26.7118C270.424 28.3662 268.695 29.7048 266.589 30.7276C264.483 31.7504 262.107 32.2617 259.46 32.2617C256.331 32.2617 253.534 31.5849 251.067 30.2313C248.63 28.8475 246.72 26.9374 245.337 24.5008C243.983 22.0642 243.306 19.2817 243.306 16.1533C243.306 13.0249 243.983 10.2424 245.337 7.80578C246.72 5.33913 248.63 3.42898 251.067 2.07533C253.504 0.691595 256.286 -0.000270696 259.415 -0.000270696C263.205 -0.000270696 266.393 0.917204 268.98 2.75215C271.597 4.5871 273.327 7.12896 274.169 10.3777H265.641ZM25.2686 55.3607V61.5424H16.8759V87.0361H9.16013V61.5424H0.767491V55.3607H25.2686ZM56.5749 55.3607V87.0361H48.8591V73.996H36.8567V87.0361H29.1409V55.3607H36.8567V67.7692H48.8591V55.3607H56.5749ZM81.8632 81.441H70.0413L68.1462 87.0361H60.0694L71.5303 55.3607H80.4644L91.9253 87.0361H83.7583L81.8632 81.441ZM79.8778 75.485L75.9522 63.8887L72.0718 75.485H79.8778ZM118.2 55.3607V61.5424H109.807V87.0361H102.091V61.5424H93.6988V55.3607H118.2ZM139.35 61.5424V67.9497H149.683V73.9057H139.35V80.8545H151.036V87.0361H131.634V55.3607H151.036V61.5424H139.35ZM163.762 81.0801H173.869V87.0361H156.046V55.3607H163.762V81.0801ZM185.265 61.5424V67.9497H195.598V73.9057H185.265V80.8545H196.951V87.0361H177.549V55.3607H196.951V61.5424H185.265ZM231.696 55.3607L220.46 87.0361H210.804L199.569 55.3607H207.781L215.632 79.2752L223.529 55.3607H231.696ZM254.639 81.441H242.817L240.922 87.0361H232.845L244.306 55.3607H253.24L264.701 87.0361H256.534L254.639 81.441ZM252.653 75.485L248.728 63.8887L244.847 75.485H252.653ZM290.975 55.3607V61.5424H282.583V87.0361H274.867V61.5424H266.474V55.3607H290.975ZM302.564 61.5424V67.9497H312.896V73.9057H302.564V80.8545H314.25V87.0361H294.848V55.3607H314.25V61.5424H302.564ZM330.72 87.352C328.404 87.352 326.328 86.976 324.493 86.2239C322.658 85.4719 321.184 84.3589 320.071 82.8849C318.989 81.411 318.417 79.6362 318.357 77.5606H326.569C326.689 78.7337 327.095 79.6362 327.787 80.2679C328.479 80.8695 329.382 81.1703 330.495 81.1703C331.638 81.1703 332.54 80.9146 333.202 80.4032C333.864 79.8618 334.195 79.1248 334.195 78.1923C334.195 77.4102 333.924 76.7634 333.382 76.252C332.871 75.7407 332.224 75.3195 331.442 74.9886C330.69 74.6577 329.607 74.2817 328.193 73.8606C326.148 73.2289 324.478 72.5972 323.185 71.9655C321.891 71.3338 320.778 70.4013 319.846 69.1679C318.913 67.9346 318.447 66.3253 318.447 64.3399C318.447 61.392 319.515 59.0908 321.651 57.4363C323.787 55.7518 326.569 54.9095 329.998 54.9095C333.488 54.9095 336.3 55.7518 338.436 57.4363C340.572 59.0908 341.715 61.407 341.865 64.385H333.518C333.458 63.3623 333.082 62.5651 332.39 61.9936C331.698 61.392 330.81 61.0912 329.728 61.0912C328.795 61.0912 328.043 61.3468 327.471 61.8582C326.9 62.3395 326.614 63.0464 326.614 63.9789C326.614 65.0017 327.095 65.7989 328.058 66.3704C329.021 66.9419 330.525 67.5586 332.57 68.2204C334.616 68.9123 336.27 69.574 337.534 70.2057C338.827 70.8374 339.94 71.7549 340.873 72.9582C341.805 74.1614 342.271 75.7106 342.271 77.6057C342.271 79.4106 341.805 81.05 340.873 82.524C339.97 83.9979 338.647 85.1711 336.902 86.0435C335.157 86.9158 333.097 87.352 330.72 87.352ZM29.6454 110.361L18.6808 131.568V142.036H10.965V131.568L0.000422171 110.361H8.75403L14.8906 123.626L20.982 110.361H29.6454ZM47.7346 142.352C44.7566 142.352 42.0192 141.66 39.5224 140.276C37.0558 138.893 35.0855 136.967 33.6115 134.501C32.1676 132.004 31.4457 129.207 31.4457 126.108C31.4457 123.01 32.1676 120.227 33.6115 117.761C35.0855 115.294 37.0558 113.369 39.5224 111.985C42.0192 110.601 44.7566 109.909 47.7346 109.909C50.7126 109.909 53.435 110.601 55.9016 111.985C58.3984 113.369 60.3536 115.294 61.7674 117.761C63.2113 120.227 63.9333 123.01 63.9333 126.108C63.9333 129.207 63.2113 132.004 61.7674 134.501C60.3235 136.967 58.3683 138.893 55.9016 140.276C53.435 141.66 50.7126 142.352 47.7346 142.352ZM47.7346 135.313C50.2614 135.313 52.2768 134.471 53.7809 132.786C55.315 131.102 56.0821 128.876 56.0821 126.108C56.0821 123.311 55.315 121.085 53.7809 119.43C52.2768 117.746 50.2614 116.903 47.7346 116.903C45.1777 116.903 43.1322 117.731 41.598 119.385C40.094 121.04 39.342 123.281 39.342 126.108C39.342 128.906 40.094 131.147 41.598 132.831C43.1322 134.486 45.1777 135.313 47.7346 135.313ZM75.8063 110.361V129.312C75.8063 131.207 76.2725 132.666 77.205 133.689C78.1376 134.711 79.5063 135.223 81.3111 135.223C83.116 135.223 84.4997 134.711 85.4623 133.689C86.4249 132.666 86.9062 131.207 86.9062 129.312V110.361H94.622V129.267C94.622 132.094 94.0204 134.486 92.8172 136.441C91.6139 138.396 89.9895 139.87 87.944 140.863C85.9286 141.856 83.6725 142.352 81.1758 142.352C78.679 142.352 76.438 141.871 74.4526 140.908C72.4973 139.915 70.9482 138.441 69.8051 136.486C68.662 134.501 68.0905 132.094 68.0905 129.267V110.361H75.8063ZM116.194 142.036L109.606 130.079H107.756V142.036H100.04V110.361H112.99C115.487 110.361 117.608 110.797 119.352 111.669C121.127 112.542 122.451 113.745 123.323 115.279C124.195 116.783 124.631 118.468 124.631 120.333C124.631 122.438 124.03 124.318 122.827 125.973C121.653 127.627 119.909 128.8 117.592 129.492L124.902 142.036H116.194ZM107.756 124.619H112.539C113.953 124.619 115.006 124.273 115.697 123.581C116.419 122.889 116.78 121.912 116.78 120.648C116.78 119.445 116.419 118.498 115.697 117.806C115.006 117.114 113.953 116.768 112.539 116.768H107.756V124.619ZM158.214 125.792C160.049 126.183 161.523 127.101 162.636 128.545C163.749 129.959 164.305 131.583 164.305 133.418C164.305 136.065 163.373 138.171 161.508 139.735C159.673 141.269 157.101 142.036 153.792 142.036H139.037V110.361H153.295C156.514 110.361 159.026 111.098 160.831 112.572C162.666 114.046 163.583 116.046 163.583 118.573C163.583 120.438 163.087 121.987 162.094 123.22C161.132 124.454 159.838 125.311 158.214 125.792ZM146.753 123.175H151.806C153.07 123.175 154.032 122.905 154.694 122.363C155.386 121.792 155.732 120.964 155.732 119.881C155.732 118.798 155.386 117.971 154.694 117.4C154.032 116.828 153.07 116.542 151.806 116.542H146.753V123.175ZM152.438 135.809C153.732 135.809 154.724 135.524 155.416 134.952C156.138 134.35 156.499 133.493 156.499 132.38C156.499 131.267 156.123 130.395 155.371 129.763C154.649 129.131 153.641 128.815 152.348 128.815H146.753V135.809H152.438ZM184.934 142.036L178.346 130.079H176.496V142.036H168.78V110.361H181.73C184.227 110.361 186.348 110.797 188.092 111.669C189.867 112.542 191.191 113.745 192.063 115.279C192.935 116.783 193.372 118.468 193.372 120.333C193.372 122.438 192.77 124.318 191.567 125.973C190.394 127.627 188.649 128.8 186.333 129.492L193.642 142.036H184.934ZM176.496 124.619H181.279C182.693 124.619 183.746 124.273 184.437 123.581C185.159 122.889 185.52 121.912 185.52 120.648C185.52 119.445 185.159 118.498 184.437 117.806C183.746 117.114 182.693 116.768 181.279 116.768H176.496V124.619ZM217.933 136.441H206.111L204.216 142.036H196.139L207.6 110.361H216.534L227.995 142.036H219.828L217.933 136.441ZM215.948 130.485L212.022 118.889L208.142 130.485H215.948ZM259.82 142.036H252.104L239.199 122.498V142.036H231.484V110.361H239.199L252.104 129.989V110.361H259.82V142.036ZM277.28 110.361C280.619 110.361 283.537 111.022 286.034 112.346C288.53 113.67 290.455 115.535 291.809 117.941C293.193 120.318 293.885 123.07 293.885 126.198C293.885 129.297 293.193 132.049 291.809 134.456C290.455 136.862 288.515 138.727 285.988 140.051C283.492 141.374 280.589 142.036 277.28 142.036H265.413V110.361H277.28ZM276.784 135.358C279.701 135.358 281.973 134.561 283.597 132.967C285.221 131.372 286.034 129.116 286.034 126.198C286.034 123.281 285.221 121.009 283.597 119.385C281.973 117.761 279.701 116.948 276.784 116.948H273.129V135.358H276.784Z" fill="white"/>
</svg>
