<svg width="251" height="20" viewBox="0 0 251 20" fill="none" xmlns="http://www.w3.org/2000/svg">
<g clip-path="url(#clip0_1134_14)">
<path d="M3.2 8.69996C3.3 8.74996 3.35 8.74996 3.45 8.74996C3.55 8.74996 3.65 8.69996 3.7 8.69996L7.2 6.64996C7.35 6.54996 7.45 6.39996 7.45 6.19996C7.45 5.99996 7.35 5.84996 7.2 5.74996L5.95 4.99996L7 3.09996C7.2 2.74996 7.5 2.44996 7.85 2.24996C8.85 1.69996 10.1 2.09996 10.65 3.09996C10.8 3.34996 11.1 3.39996 11.35 3.24996H11.4C11.6 3.09996 11.65 2.79996 11.55 2.59996C11.25 2.09996 10.85 1.64996 10.35 1.39996C8.85 0.599956 7 1.09996 6.2 2.59996L4.8 4.94996C4.65 5.19996 4.75 5.49996 4.95 5.64996L5.95 6.24996L3.95 7.44996V4.09996C3.95 3.79996 3.75 3.59996 3.45 3.59996C3.2 3.64996 3 3.84996 3 4.14996V8.29996C3 8.44996 3.1 8.59996 3.2 8.69996Z" fill="white"/>
<path d="M16.05 10.5L14.3 7.4C14.25 7.3 14.1 7.2 14 7.15C13.85 7.1 13.75 7.15 13.6 7.2L12.5 7.85V5.5L15.25 7.15C15.3 7.15 15.3 7.2 15.35 7.2C15.6 7.3 15.9 7.2 16 6.95C16.1 6.7 16 6.4 15.75 6.3L12.25 4.2C12.1 4.1 11.9 4.1 11.75 4.2C11.55 4.25 11.5 4.4 11.5 4.6V8.75C11.5 8.95 11.55 9.15 11.7 9.25C11.85 9.35 12.05 9.35 12.2 9.25L13.65 8.4L15.15 11.05C15.5 11.7 15.5 12.45 15.15 13.1C14.85 13.7 14.2 14.05 13.55 14.05H13.1C12.85 14.05 12.5 14.25 12.5 14.55C12.55 14.85 12.8 15.05 13.1 15.05H13.55C14.6 15.05 15.55 14.5 16.05 13.6C16.6 12.6 16.6 11.45 16.05 10.5Z" fill="white"/>
<path d="M11.1996 14.1001L7.69961 12.0001C7.54961 11.9001 7.34961 11.9001 7.19961 12.0001C7.04961 12.1001 6.99961 12.2501 6.99961 12.4501V14.1001H4.54961C3.79961 14.0501 3.09961 13.6501 2.74961 12.9501C2.34961 12.2501 2.34961 11.3501 2.74961 10.6501C2.89961 10.4001 2.79961 10.1001 2.54961 9.95012C2.29961 9.80012 1.99961 9.90012 1.84961 10.1501C1.24961 11.2001 1.29961 12.4501 1.89961 13.4501C2.44961 14.4001 3.49961 15.0001 4.59961 15.0001H7.49961C7.79961 15.0001 7.99961 14.8001 7.99961 14.5001V13.3001L9.99961 14.5001L7.19961 16.1501C7.04961 16.2501 6.94961 16.4001 6.94961 16.6001C6.94961 16.9001 7.19961 17.1001 7.44961 17.1001C7.54961 17.1001 7.59961 17.0501 7.69961 17.0001L11.1996 14.9001C11.2996 14.8501 11.3496 14.8001 11.3996 14.7001C11.5496 14.5001 11.4496 14.2001 11.1996 14.1001Z" fill="white"/>
</g>
<path d="M30.504 6.6V4.794H33.878V15H31.862V6.6H30.504ZM35.8143 9.764C35.8143 8.14933 36.1036 6.88467 36.6823 5.97C37.2703 5.05533 38.2409 4.598 39.5943 4.598C40.9476 4.598 41.9136 5.05533 42.4923 5.97C43.0803 6.88467 43.3743 8.14933 43.3743 9.764C43.3743 11.388 43.0803 12.662 42.4923 13.586C41.9136 14.51 40.9476 14.972 39.5943 14.972C38.2409 14.972 37.2703 14.51 36.6823 13.586C36.1036 12.662 35.8143 11.388 35.8143 9.764ZM41.4423 9.764C41.4423 9.07333 41.3956 8.49467 41.3023 8.028C41.2183 7.552 41.0409 7.16467 40.7703 6.866C40.5089 6.56733 40.1169 6.418 39.5943 6.418C39.0716 6.418 38.6749 6.56733 38.4043 6.866C38.1429 7.16467 37.9656 7.552 37.8723 8.028C37.7883 8.49467 37.7463 9.07333 37.7463 9.764C37.7463 10.4733 37.7883 11.0707 37.8723 11.556C37.9563 12.032 38.1336 12.4193 38.4043 12.718C38.6749 13.0073 39.0716 13.152 39.5943 13.152C40.1169 13.152 40.5136 13.0073 40.7843 12.718C41.0549 12.4193 41.2323 12.032 41.3163 11.556C41.4003 11.0707 41.4423 10.4733 41.4423 9.764ZM44.865 9.764C44.865 8.14933 45.1544 6.88467 45.733 5.97C46.321 5.05533 47.2917 4.598 48.645 4.598C49.9984 4.598 50.9644 5.05533 51.543 5.97C52.131 6.88467 52.425 8.14933 52.425 9.764C52.425 11.388 52.131 12.662 51.543 13.586C50.9644 14.51 49.9984 14.972 48.645 14.972C47.2917 14.972 46.321 14.51 45.733 13.586C45.1544 12.662 44.865 11.388 44.865 9.764ZM50.493 9.764C50.493 9.07333 50.4464 8.49467 50.353 8.028C50.269 7.552 50.0917 7.16467 49.821 6.866C49.5597 6.56733 49.1677 6.418 48.645 6.418C48.1224 6.418 47.7257 6.56733 47.455 6.866C47.1937 7.16467 47.0164 7.552 46.923 8.028C46.839 8.49467 46.797 9.07333 46.797 9.764C46.797 10.4733 46.839 11.0707 46.923 11.556C47.007 12.032 47.1844 12.4193 47.455 12.718C47.7257 13.0073 48.1224 13.152 48.645 13.152C49.1677 13.152 49.5644 13.0073 49.835 12.718C50.1057 12.4193 50.283 12.032 50.367 11.556C50.451 11.0707 50.493 10.4733 50.493 9.764ZM53.6918 7.3C53.6918 6.59067 53.8972 6.03533 54.3078 5.634C54.7278 5.23267 55.2645 5.032 55.9178 5.032C56.5712 5.032 57.1032 5.23267 57.5138 5.634C57.9338 6.03533 58.1438 6.59067 58.1438 7.3C58.1438 8.01867 57.9338 8.57867 57.5138 8.98C57.1032 9.38133 56.5712 9.582 55.9178 9.582C55.2645 9.582 54.7278 9.38133 54.3078 8.98C53.8972 8.57867 53.6918 8.01867 53.6918 7.3ZM62.6798 5.2L57.1778 15H55.2738L60.7618 5.2H62.6798ZM55.9038 6.208C55.3905 6.208 55.1338 6.572 55.1338 7.3C55.1338 8.03733 55.3905 8.406 55.9038 8.406C56.1558 8.406 56.3518 8.31733 56.4918 8.14C56.6318 7.95333 56.7018 7.67333 56.7018 7.3C56.7018 6.572 56.4358 6.208 55.9038 6.208ZM59.8378 12.886C59.8378 12.1673 60.0432 11.612 60.4538 11.22C60.8738 10.8187 61.4105 10.618 62.0638 10.618C62.7172 10.618 63.2445 10.8187 63.6458 11.22C64.0565 11.612 64.2618 12.1673 64.2618 12.886C64.2618 13.6047 64.0565 14.1647 63.6458 14.566C63.2445 14.9673 62.7172 15.168 62.0638 15.168C61.4012 15.168 60.8645 14.9673 60.4538 14.566C60.0432 14.1647 59.8378 13.6047 59.8378 12.886ZM62.0498 11.794C61.5178 11.794 61.2518 12.158 61.2518 12.886C61.2518 13.6233 61.5178 13.992 62.0498 13.992C62.5725 13.992 62.8338 13.6233 62.8338 12.886C62.8338 12.158 62.5725 11.794 62.0498 11.794ZM74.1232 15L71.9672 11.192H71.0432V15H69.0832V5.228H72.7512C73.5072 5.228 74.1512 5.36333 74.6832 5.634C75.2152 5.89533 75.6119 6.25467 75.8732 6.712C76.1439 7.16 76.2792 7.664 76.2792 8.224C76.2792 8.868 76.0925 9.45133 75.7192 9.974C75.3459 10.4873 74.7905 10.842 74.0532 11.038L76.3912 15H74.1232ZM71.0432 9.722H72.6812C73.2132 9.722 73.6099 9.596 73.8712 9.344C74.1325 9.08267 74.2632 8.72333 74.2632 8.266C74.2632 7.818 74.1325 7.47267 73.8712 7.23C73.6099 6.978 73.2132 6.852 72.6812 6.852H71.0432V9.722ZM85.2619 10.954C85.2619 11.234 85.2433 11.486 85.2059 11.71H79.5359C79.5826 12.27 79.7786 12.7087 80.1239 13.026C80.4693 13.3433 80.8939 13.502 81.3979 13.502C82.1259 13.502 82.6439 13.1893 82.9519 12.564H85.0659C84.8419 13.3107 84.4126 13.9267 83.7779 14.412C83.1433 14.888 82.3639 15.126 81.4399 15.126C80.6933 15.126 80.0213 14.9627 79.4239 14.636C78.8359 14.3 78.3739 13.8287 78.0379 13.222C77.7113 12.6153 77.5479 11.9153 77.5479 11.122C77.5479 10.3193 77.7113 9.61467 78.0379 9.008C78.3646 8.40133 78.8219 7.93467 79.4099 7.608C79.9979 7.28133 80.6746 7.118 81.4399 7.118C82.1773 7.118 82.8353 7.27667 83.4139 7.594C84.0019 7.91133 84.4546 8.364 84.7719 8.952C85.0986 9.53067 85.2619 10.198 85.2619 10.954ZM83.2319 10.394C83.2226 9.89 83.0406 9.48867 82.6859 9.19C82.3313 8.882 81.8973 8.728 81.3839 8.728C80.8986 8.728 80.4879 8.87733 80.1519 9.176C79.8253 9.46533 79.6246 9.87133 79.5499 10.394H83.2319ZM86.1886 11.122C86.1886 10.3193 86.3519 9.61933 86.6786 9.022C87.0052 8.41533 87.4579 7.94867 88.0366 7.622C88.6152 7.286 89.2779 7.118 90.0246 7.118C90.9859 7.118 91.7792 7.36067 92.4046 7.846C93.0392 8.322 93.4639 8.994 93.6786 9.862H91.5646C91.4526 9.526 91.2612 9.26467 90.9906 9.078C90.7292 8.882 90.4026 8.784 90.0106 8.784C89.4506 8.784 89.0072 8.98933 88.6806 9.4C88.3539 9.80133 88.1906 10.3753 88.1906 11.122C88.1906 11.8593 88.3539 12.4333 88.6806 12.844C89.0072 13.2453 89.4506 13.446 90.0106 13.446C90.8039 13.446 91.3219 13.0913 91.5646 12.382H93.6786C93.4639 13.222 93.0392 13.8893 92.4046 14.384C91.7699 14.8787 90.9766 15.126 90.0246 15.126C89.2779 15.126 88.6152 14.9627 88.0366 14.636C87.4579 14.3 87.0052 13.8333 86.6786 13.236C86.3519 12.6293 86.1886 11.9247 86.1886 11.122ZM102.534 7.244L97.7324 18.668H95.6464L97.3264 14.804L94.2184 7.244H96.4164L98.4184 12.662L100.448 7.244H102.534ZM103.087 11.122C103.087 10.3193 103.25 9.61933 103.577 9.022C103.904 8.41533 104.356 7.94867 104.935 7.622C105.514 7.286 106.176 7.118 106.923 7.118C107.884 7.118 108.678 7.36067 109.303 7.846C109.938 8.322 110.362 8.994 110.577 9.862H108.463C108.351 9.526 108.16 9.26467 107.889 9.078C107.628 8.882 107.301 8.784 106.909 8.784C106.349 8.784 105.906 8.98933 105.579 9.4C105.252 9.80133 105.089 10.3753 105.089 11.122C105.089 11.8593 105.252 12.4333 105.579 12.844C105.906 13.2453 106.349 13.446 106.909 13.446C107.702 13.446 108.22 13.0913 108.463 12.382H110.577C110.362 13.222 109.938 13.8893 109.303 14.384C108.668 14.8787 107.875 15.126 106.923 15.126C106.176 15.126 105.514 14.9627 104.935 14.636C104.356 14.3 103.904 13.8333 103.577 13.236C103.25 12.6293 103.087 11.9247 103.087 11.122ZM113.973 4.64V15H112.013V4.64H113.973ZM115.405 11.094C115.405 10.31 115.559 9.61467 115.867 9.008C116.185 8.40133 116.609 7.93467 117.141 7.608C117.683 7.28133 118.285 7.118 118.947 7.118C119.526 7.118 120.03 7.23467 120.459 7.468C120.898 7.70133 121.248 7.99533 121.509 8.35V7.244H123.483V15H121.509V13.866C121.257 14.23 120.907 14.5333 120.459 14.776C120.021 15.0093 119.512 15.126 118.933 15.126C118.28 15.126 117.683 14.958 117.141 14.622C116.609 14.286 116.185 13.8147 115.867 13.208C115.559 12.592 115.405 11.8873 115.405 11.094ZM121.509 11.122C121.509 10.646 121.416 10.24 121.229 9.904C121.043 9.55867 120.791 9.29733 120.473 9.12C120.156 8.93333 119.815 8.84 119.451 8.84C119.087 8.84 118.751 8.92867 118.443 9.106C118.135 9.28333 117.883 9.54467 117.687 9.89C117.501 10.226 117.407 10.6273 117.407 11.094C117.407 11.5607 117.501 11.9713 117.687 12.326C117.883 12.6713 118.135 12.9373 118.443 13.124C118.761 13.3107 119.097 13.404 119.451 13.404C119.815 13.404 120.156 13.3153 120.473 13.138C120.791 12.9513 121.043 12.69 121.229 12.354C121.416 12.0087 121.509 11.598 121.509 11.122ZM127.358 8.378C127.61 8.00467 127.955 7.70133 128.394 7.468C128.842 7.23467 129.35 7.118 129.92 7.118C130.582 7.118 131.18 7.28133 131.712 7.608C132.253 7.93467 132.678 8.40133 132.986 9.008C133.303 9.60533 133.462 10.3007 133.462 11.094C133.462 11.8873 133.303 12.592 132.986 13.208C132.678 13.8147 132.253 14.286 131.712 14.622C131.18 14.958 130.582 15.126 129.92 15.126C129.341 15.126 128.832 15.014 128.394 14.79C127.964 14.5567 127.619 14.258 127.358 13.894V15H125.398V4.64H127.358V8.378ZM131.46 11.094C131.46 10.6273 131.362 10.226 131.166 9.89C130.979 9.54467 130.727 9.28333 130.41 9.106C130.102 8.92867 129.766 8.84 129.402 8.84C129.047 8.84 128.711 8.93333 128.394 9.12C128.086 9.29733 127.834 9.55867 127.638 9.904C127.451 10.2493 127.358 10.6553 127.358 11.122C127.358 11.5887 127.451 11.9947 127.638 12.34C127.834 12.6853 128.086 12.9513 128.394 13.138C128.711 13.3153 129.047 13.404 129.402 13.404C129.766 13.404 130.102 13.3107 130.41 13.124C130.727 12.9373 130.979 12.6713 131.166 12.326C131.362 11.9807 131.46 11.57 131.46 11.094ZM136.846 4.64V15H134.886V4.64H136.846ZM145.992 10.954C145.992 11.234 145.974 11.486 145.936 11.71H140.266C140.313 12.27 140.509 12.7087 140.854 13.026C141.2 13.3433 141.624 13.502 142.128 13.502C142.856 13.502 143.374 13.1893 143.682 12.564H145.796C145.572 13.3107 145.143 13.9267 144.508 14.412C143.874 14.888 143.094 15.126 142.17 15.126C141.424 15.126 140.752 14.9627 140.154 14.636C139.566 14.3 139.104 13.8287 138.768 13.222C138.442 12.6153 138.278 11.9153 138.278 11.122C138.278 10.3193 138.442 9.61467 138.768 9.008C139.095 8.40133 139.552 7.93467 140.14 7.608C140.728 7.28133 141.405 7.118 142.17 7.118C142.908 7.118 143.566 7.27667 144.144 7.594C144.732 7.91133 145.185 8.364 145.502 8.952C145.829 9.53067 145.992 10.198 145.992 10.954ZM143.962 10.394C143.953 9.89 143.771 9.48867 143.416 9.19C143.062 8.882 142.628 8.728 142.114 8.728C141.629 8.728 141.218 8.87733 140.882 9.176C140.556 9.46533 140.355 9.87133 140.28 10.394H143.962ZM158.277 15L157.213 13.95C156.308 14.762 155.202 15.168 153.895 15.168C153.176 15.168 152.542 15.0467 151.991 14.804C151.45 14.552 151.03 14.202 150.731 13.754C150.432 13.2967 150.283 12.7693 150.283 12.172C150.283 11.528 150.465 10.9493 150.829 10.436C151.193 9.92267 151.73 9.50733 152.439 9.19C152.187 8.882 152.005 8.588 151.893 8.308C151.781 8.01867 151.725 7.71067 151.725 7.384C151.725 6.936 151.842 6.53467 152.075 6.18C152.308 5.816 152.64 5.53133 153.069 5.326C153.508 5.12067 154.016 5.018 154.595 5.018C155.183 5.018 155.687 5.13 156.107 5.354C156.527 5.578 156.84 5.87667 157.045 6.25C157.25 6.62333 157.339 7.03867 157.311 7.496H155.407C155.416 7.188 155.342 6.95467 155.183 6.796C155.024 6.628 154.81 6.544 154.539 6.544C154.278 6.544 154.058 6.62333 153.881 6.782C153.713 6.93133 153.629 7.12733 153.629 7.37C153.629 7.60333 153.699 7.83667 153.839 8.07C153.979 8.294 154.208 8.574 154.525 8.91L156.989 11.346C157.008 11.3273 157.022 11.3087 157.031 11.29C157.04 11.2713 157.05 11.2527 157.059 11.234L157.857 9.904H159.901L158.921 11.626C158.734 11.99 158.534 12.3353 158.319 12.662L160.685 15H158.277ZM153.951 13.544C154.716 13.544 155.393 13.2733 155.981 12.732L153.573 10.352C152.668 10.7533 152.215 11.3227 152.215 12.06C152.215 12.48 152.374 12.8347 152.691 13.124C153.008 13.404 153.428 13.544 153.951 13.544ZM171.025 5.228V6.81H166.951V9.316H170.073V10.87H166.951V15H164.991V5.228H171.025ZM175.859 15.126C175.113 15.126 174.441 14.9627 173.843 14.636C173.246 14.3 172.775 13.8287 172.429 13.222C172.093 12.6153 171.925 11.9153 171.925 11.122C171.925 10.3287 172.098 9.62867 172.443 9.022C172.798 8.41533 173.279 7.94867 173.885 7.622C174.492 7.286 175.169 7.118 175.915 7.118C176.662 7.118 177.339 7.286 177.945 7.622C178.552 7.94867 179.028 8.41533 179.373 9.022C179.728 9.62867 179.905 10.3287 179.905 11.122C179.905 11.9153 179.723 12.6153 179.359 13.222C179.005 13.8287 178.519 14.3 177.903 14.636C177.297 14.9627 176.615 15.126 175.859 15.126ZM175.859 13.418C176.214 13.418 176.545 13.334 176.853 13.166C177.171 12.9887 177.423 12.7273 177.609 12.382C177.796 12.0367 177.889 11.6167 177.889 11.122C177.889 10.3847 177.693 9.82 177.301 9.428C176.919 9.02667 176.447 8.826 175.887 8.826C175.327 8.826 174.856 9.02667 174.473 9.428C174.1 9.82 173.913 10.3847 173.913 11.122C173.913 11.8593 174.095 12.4287 174.459 12.83C174.833 13.222 175.299 13.418 175.859 13.418ZM184.787 15.126C184.04 15.126 183.368 14.9627 182.771 14.636C182.174 14.3 181.702 13.8287 181.357 13.222C181.021 12.6153 180.853 11.9153 180.853 11.122C180.853 10.3287 181.026 9.62867 181.371 9.022C181.726 8.41533 182.206 7.94867 182.813 7.622C183.42 7.286 184.096 7.118 184.843 7.118C185.59 7.118 186.266 7.286 186.873 7.622C187.48 7.94867 187.956 8.41533 188.301 9.022C188.656 9.62867 188.833 10.3287 188.833 11.122C188.833 11.9153 188.651 12.6153 188.287 13.222C187.932 13.8287 187.447 14.3 186.831 14.636C186.224 14.9627 185.543 15.126 184.787 15.126ZM184.787 13.418C185.142 13.418 185.473 13.334 185.781 13.166C186.098 12.9887 186.35 12.7273 186.537 12.382C186.724 12.0367 186.817 11.6167 186.817 11.122C186.817 10.3847 186.621 9.82 186.229 9.428C185.846 9.02667 185.375 8.826 184.815 8.826C184.255 8.826 183.784 9.02667 183.401 9.428C183.028 9.82 182.841 10.3847 182.841 11.122C182.841 11.8593 183.023 12.4287 183.387 12.83C183.76 13.222 184.227 13.418 184.787 13.418ZM189.767 11.094C189.767 10.31 189.921 9.61467 190.229 9.008C190.546 8.40133 190.975 7.93467 191.517 7.608C192.058 7.28133 192.66 7.118 193.323 7.118C193.827 7.118 194.307 7.23 194.765 7.454C195.222 7.66867 195.586 7.958 195.857 8.322V4.64H197.845V15H195.857V13.852C195.614 14.2347 195.273 14.5427 194.835 14.776C194.396 15.0093 193.887 15.126 193.309 15.126C192.655 15.126 192.058 14.958 191.517 14.622C190.975 14.286 190.546 13.8147 190.229 13.208C189.921 12.592 189.767 11.8873 189.767 11.094ZM195.871 11.122C195.871 10.646 195.777 10.24 195.591 9.904C195.404 9.55867 195.152 9.29733 194.835 9.12C194.517 8.93333 194.177 8.84 193.813 8.84C193.449 8.84 193.113 8.92867 192.805 9.106C192.497 9.28333 192.245 9.54467 192.049 9.89C191.862 10.226 191.769 10.6273 191.769 11.094C191.769 11.5607 191.862 11.9713 192.049 12.326C192.245 12.6713 192.497 12.9373 192.805 13.124C193.122 13.3107 193.458 13.404 193.813 13.404C194.177 13.404 194.517 13.3153 194.835 13.138C195.152 12.9513 195.404 12.69 195.591 12.354C195.777 12.0087 195.871 11.598 195.871 11.122ZM205.723 9.176V10.828H199.787V9.176H205.723ZM214.725 8.168C214.501 7.75733 214.193 7.44467 213.801 7.23C213.409 7.01533 212.952 6.908 212.429 6.908C211.85 6.908 211.337 7.03867 210.889 7.3C210.441 7.56133 210.091 7.93467 209.839 8.42C209.587 8.90533 209.461 9.46533 209.461 10.1C209.461 10.7533 209.587 11.3227 209.839 11.808C210.1 12.2933 210.46 12.6667 210.917 12.928C211.374 13.1893 211.906 13.32 212.513 13.32C213.26 13.32 213.871 13.124 214.347 12.732C214.823 12.3307 215.136 11.7753 215.285 11.066H211.925V9.568H217.217V11.276C217.086 11.9573 216.806 12.5873 216.377 13.166C215.948 13.7447 215.392 14.2113 214.711 14.566C214.039 14.9113 213.283 15.084 212.443 15.084C211.5 15.084 210.646 14.874 209.881 14.454C209.125 14.0247 208.528 13.432 208.089 12.676C207.66 11.92 207.445 11.0613 207.445 10.1C207.445 9.13867 207.66 8.28 208.089 7.524C208.528 6.75867 209.125 6.166 209.881 5.746C210.646 5.31667 211.496 5.102 212.429 5.102C213.53 5.102 214.487 5.37267 215.299 5.914C216.111 6.446 216.671 7.19733 216.979 8.168H214.725ZM220.627 8.448C220.879 8.03733 221.206 7.71533 221.607 7.482C222.018 7.24867 222.485 7.132 223.007 7.132V9.19H222.489C221.873 9.19 221.407 9.33467 221.089 9.624C220.781 9.91333 220.627 10.4173 220.627 11.136V15H218.667V7.244H220.627V8.448ZM223.823 11.094C223.823 10.31 223.977 9.61467 224.285 9.008C224.603 8.40133 225.027 7.93467 225.559 7.608C226.101 7.28133 226.703 7.118 227.365 7.118C227.944 7.118 228.448 7.23467 228.877 7.468C229.316 7.70133 229.666 7.99533 229.927 8.35V7.244H231.901V15H229.927V13.866C229.675 14.23 229.325 14.5333 228.877 14.776C228.439 15.0093 227.93 15.126 227.351 15.126C226.698 15.126 226.101 14.958 225.559 14.622C225.027 14.286 224.603 13.8147 224.285 13.208C223.977 12.592 223.823 11.8873 223.823 11.094ZM229.927 11.122C229.927 10.646 229.834 10.24 229.647 9.904C229.461 9.55867 229.209 9.29733 228.891 9.12C228.574 8.93333 228.233 8.84 227.869 8.84C227.505 8.84 227.169 8.92867 226.861 9.106C226.553 9.28333 226.301 9.54467 226.105 9.89C225.919 10.226 225.825 10.6273 225.825 11.094C225.825 11.5607 225.919 11.9713 226.105 12.326C226.301 12.6713 226.553 12.9373 226.861 13.124C227.179 13.3107 227.515 13.404 227.869 13.404C228.233 13.404 228.574 13.3153 228.891 13.138C229.209 12.9513 229.461 12.69 229.647 12.354C229.834 12.0087 229.927 11.598 229.927 11.122ZM233.312 11.094C233.312 10.31 233.466 9.61467 233.774 9.008C234.091 8.40133 234.52 7.93467 235.062 7.608C235.603 7.28133 236.205 7.118 236.868 7.118C237.372 7.118 237.852 7.23 238.31 7.454C238.767 7.66867 239.131 7.958 239.402 8.322V4.64H241.39V15H239.402V13.852C239.159 14.2347 238.818 14.5427 238.38 14.776C237.941 15.0093 237.432 15.126 236.854 15.126C236.2 15.126 235.603 14.958 235.062 14.622C234.52 14.286 234.091 13.8147 233.774 13.208C233.466 12.592 233.312 11.8873 233.312 11.094ZM239.416 11.122C239.416 10.646 239.322 10.24 239.136 9.904C238.949 9.55867 238.697 9.29733 238.38 9.12C238.062 8.93333 237.722 8.84 237.358 8.84C236.994 8.84 236.658 8.92867 236.35 9.106C236.042 9.28333 235.79 9.54467 235.594 9.89C235.407 10.226 235.314 10.6273 235.314 11.094C235.314 11.5607 235.407 11.9713 235.594 12.326C235.79 12.6713 236.042 12.9373 236.35 13.124C236.667 13.3107 237.003 13.404 237.358 13.404C237.722 13.404 238.062 13.3153 238.38 13.138C238.697 12.9513 238.949 12.69 239.136 12.354C239.322 12.0087 239.416 11.598 239.416 11.122ZM250.514 10.954C250.514 11.234 250.495 11.486 250.458 11.71H244.788C244.835 12.27 245.031 12.7087 245.376 13.026C245.721 13.3433 246.146 13.502 246.65 13.502C247.378 13.502 247.896 13.1893 248.204 12.564H250.318C250.094 13.3107 249.665 13.9267 249.03 14.412C248.395 14.888 247.616 15.126 246.692 15.126C245.945 15.126 245.273 14.9627 244.676 14.636C244.088 14.3 243.626 13.8287 243.29 13.222C242.963 12.6153 242.8 11.9153 242.8 11.122C242.8 10.3193 242.963 9.61467 243.29 9.008C243.617 8.40133 244.074 7.93467 244.662 7.608C245.25 7.28133 245.927 7.118 246.692 7.118C247.429 7.118 248.087 7.27667 248.666 7.594C249.254 7.91133 249.707 8.364 250.024 8.952C250.351 9.53067 250.514 10.198 250.514 10.954ZM248.484 10.394C248.475 9.89 248.293 9.48867 247.938 9.19C247.583 8.882 247.149 8.728 246.636 8.728C246.151 8.728 245.74 8.87733 245.404 9.176C245.077 9.46533 244.877 9.87133 244.802 10.394H248.484Z" fill="white"/>
<defs>
<clipPath id="clip0_1134_14">
<rect width="18" height="18" fill="white"/>
</clipPath>
</defs>
</svg>
