<svg width="325" height="73" viewBox="0 0 325 73" fill="none" xmlns="http://www.w3.org/2000/svg">
<g filter="url(#filter0_d_765_4409)">
<path d="M8.27163 30.024V9.38405C8.03696 9.51205 7.77029 9.64005 7.47163 9.76805C7.17296 9.89605 6.85296 10.0347 6.51163 10.184C6.19163 10.312 5.87163 10.44 5.55163 10.568C5.25296 10.696 4.97563 10.824 4.71963 10.952V6.98405C4.95429 6.85605 5.28496 6.68538 5.71163 6.47205C6.13829 6.23738 6.59696 5.98138 7.08763 5.70405C7.57829 5.42671 8.03696 5.14938 8.46363 4.87205C8.89029 4.57338 9.21029 4.31738 9.42363 4.10405H13.6156V30.024H8.27163ZM25.1281 30.504C23.5708 30.504 22.2695 30.1947 21.2241 29.576C20.1788 28.936 19.3895 28.0614 18.8561 26.952C18.3228 25.8427 18.0561 24.552 18.0561 23.08V11.336C18.0561 9.82138 18.3015 8.49871 18.7921 7.36805C19.3041 6.21605 20.0828 5.32005 21.1281 4.68005C22.1735 4.04005 23.5068 3.72005 25.1281 3.72005C26.7495 3.72005 28.0721 4.04005 29.0961 4.68005C30.1415 5.32005 30.9095 6.21605 31.4001 7.36805C31.9121 8.49871 32.1681 9.82138 32.1681 11.336V23.08C32.1681 24.5307 31.9015 25.8214 31.3681 26.952C30.8348 28.0614 30.0455 28.936 29.0001 29.576C27.9548 30.1947 26.6641 30.504 25.1281 30.504ZM25.1281 25.736C25.6401 25.736 26.0028 25.576 26.2161 25.256C26.4508 24.9147 26.5895 24.5307 26.6321 24.104C26.6961 23.656 26.7281 23.272 26.7281 22.952V11.464C26.7281 11.1014 26.7068 10.696 26.6641 10.248C26.6215 9.77871 26.4828 9.37338 26.2481 9.03205C26.0348 8.66938 25.6615 8.48805 25.1281 8.48805C24.5948 8.48805 24.2108 8.66938 23.9761 9.03205C23.7628 9.37338 23.6348 9.77871 23.5921 10.248C23.5495 10.696 23.5281 11.1014 23.5281 11.464V22.952C23.5281 23.272 23.5601 23.656 23.6241 24.104C23.6881 24.5307 23.8268 24.9147 24.0401 25.256C24.2748 25.576 24.6375 25.736 25.1281 25.736ZM42.7219 30.504C41.1645 30.504 39.8632 30.1947 38.8179 29.576C37.7725 28.936 36.9832 28.0614 36.4499 26.952C35.9165 25.8427 35.6499 24.552 35.6499 23.08V11.336C35.6499 9.82138 35.8952 8.49871 36.3859 7.36805C36.8979 6.21605 37.6765 5.32005 38.7219 4.68005C39.7672 4.04005 41.1005 3.72005 42.7219 3.72005C44.3432 3.72005 45.6659 4.04005 46.6899 4.68005C47.7352 5.32005 48.5032 6.21605 48.9939 7.36805C49.5059 8.49871 49.7619 9.82138 49.7619 11.336V23.08C49.7619 24.5307 49.4952 25.8214 48.9619 26.952C48.4285 28.0614 47.6392 28.936 46.5939 29.576C45.5485 30.1947 44.2579 30.504 42.7219 30.504ZM42.7219 25.736C43.2339 25.736 43.5965 25.576 43.8099 25.256C44.0445 24.9147 44.1832 24.5307 44.2259 24.104C44.2899 23.656 44.3219 23.272 44.3219 22.952V11.464C44.3219 11.1014 44.3005 10.696 44.2579 10.248C44.2152 9.77871 44.0765 9.37338 43.8419 9.03205C43.6285 8.66938 43.2552 8.48805 42.7219 8.48805C42.1885 8.48805 41.8045 8.66938 41.5699 9.03205C41.3565 9.37338 41.2285 9.77871 41.1859 10.248C41.1432 10.696 41.1219 11.1014 41.1219 11.464V22.952C41.1219 23.272 41.1539 23.656 41.2179 24.104C41.2819 24.5307 41.4205 24.9147 41.6339 25.256C41.8685 25.576 42.2312 25.736 42.7219 25.736ZM60.3156 30.504C58.7583 30.504 57.457 30.1947 56.4116 29.576C55.3663 28.936 54.577 28.0614 54.0436 26.952C53.5103 25.8427 53.2436 24.552 53.2436 23.08V11.336C53.2436 9.82138 53.489 8.49871 53.9796 7.36805C54.4916 6.21605 55.2703 5.32005 56.3156 4.68005C57.361 4.04005 58.6943 3.72005 60.3156 3.72005C61.937 3.72005 63.2596 4.04005 64.2836 4.68005C65.329 5.32005 66.097 6.21605 66.5876 7.36805C67.0996 8.49871 67.3556 9.82138 67.3556 11.336V23.08C67.3556 24.5307 67.089 25.8214 66.5556 26.952C66.0223 28.0614 65.233 28.936 64.1876 29.576C63.1423 30.1947 61.8516 30.504 60.3156 30.504ZM60.3156 25.736C60.8276 25.736 61.1903 25.576 61.4036 25.256C61.6383 24.9147 61.777 24.5307 61.8196 24.104C61.8836 23.656 61.9156 23.272 61.9156 22.952V11.464C61.9156 11.1014 61.8943 10.696 61.8516 10.248C61.809 9.77871 61.6703 9.37338 61.4356 9.03205C61.2223 8.66938 60.849 8.48805 60.3156 8.48805C59.7823 8.48805 59.3983 8.66938 59.1636 9.03205C58.9503 9.37338 58.8223 9.77871 58.7796 10.248C58.737 10.696 58.7156 11.1014 58.7156 11.464V22.952C58.7156 23.272 58.7476 23.656 58.8116 24.104C58.8756 24.5307 59.0143 24.9147 59.2276 25.256C59.4623 25.576 59.825 25.736 60.3156 25.736ZM70.9334 30.024L71.3814 4.10405H77.5254L80.3734 19.176L83.4454 4.10405H89.3654L89.8134 30.024H85.7494L85.2694 12.776L82.2614 30.024H78.6454L75.4454 12.648L75.0614 30.024H70.9334ZM93.5606 30.024V4.10405H99.2886V26.152H105.241V30.024H93.5606ZM115.936 30.024V4.10405H123.072C124.821 4.10405 126.336 4.29605 127.616 4.68005C128.896 5.06405 129.888 5.75738 130.592 6.76005C131.317 7.74138 131.68 9.13871 131.68 10.952C131.68 12.0187 131.594 12.968 131.424 13.8C131.253 14.632 130.933 15.3574 130.464 15.976C130.016 16.5734 129.365 17.0747 128.512 17.48L132.064 30.024H126.144L123.296 18.408H121.664V30.024H115.936ZM121.664 15.112H123.264C124.074 15.112 124.704 14.9734 125.152 14.696C125.6 14.3974 125.909 13.9814 126.08 13.448C126.272 12.8934 126.368 12.232 126.368 11.464C126.368 10.3547 126.165 9.49071 125.76 8.87205C125.354 8.25338 124.608 7.94405 123.52 7.94405H121.664V15.112ZM142.297 30.408C140.356 30.408 138.82 30.0667 137.689 29.384C136.558 28.7014 135.748 27.72 135.257 26.44C134.766 25.16 134.521 23.6347 134.521 21.864V12.232C134.521 10.44 134.766 8.91471 135.257 7.65605C135.748 6.39738 136.558 5.43738 137.689 4.77605C138.82 4.09338 140.356 3.75205 142.297 3.75205C144.26 3.75205 145.806 4.09338 146.937 4.77605C148.089 5.43738 148.91 6.39738 149.401 7.65605C149.892 8.91471 150.137 10.44 150.137 12.232V21.864C150.137 23.6347 149.892 25.16 149.401 26.44C148.91 27.72 148.089 28.7014 146.937 29.384C145.806 30.0667 144.26 30.408 142.297 30.408ZM142.297 26.344C142.894 26.344 143.332 26.1947 143.609 25.896C143.886 25.5974 144.068 25.2134 144.153 24.744C144.238 24.2747 144.281 23.7947 144.281 23.304V10.824C144.281 10.312 144.238 9.83205 144.153 9.38405C144.068 8.91471 143.886 8.53071 143.609 8.23205C143.332 7.93338 142.894 7.78405 142.297 7.78405C141.742 7.78405 141.326 7.93338 141.049 8.23205C140.772 8.53071 140.59 8.91471 140.505 9.38405C140.42 9.83205 140.377 10.312 140.377 10.824V23.304C140.377 23.7947 140.409 24.2747 140.473 24.744C140.558 25.2134 140.729 25.5974 140.985 25.896C141.262 26.1947 141.7 26.344 142.297 26.344ZM161.111 30.408C159.127 30.408 157.57 30.088 156.439 29.448C155.33 28.7867 154.551 27.8374 154.103 26.6C153.655 25.3414 153.431 23.8054 153.431 21.992V4.10405H159.095V22.856C159.095 23.3894 159.138 23.9227 159.223 24.456C159.308 24.9894 159.49 25.4267 159.767 25.768C160.066 26.1094 160.514 26.28 161.111 26.28C161.73 26.28 162.178 26.1094 162.455 25.768C162.732 25.4267 162.903 24.9894 162.967 24.456C163.052 23.9227 163.095 23.3894 163.095 22.856V4.10405H168.791V21.992C168.791 23.8054 168.556 25.3414 168.087 26.6C167.639 27.8374 166.86 28.7867 165.751 29.448C164.642 30.088 163.095 30.408 161.111 30.408ZM172.436 30.024V4.10405H176.468L181.78 16.584V4.10405H186.516V30.024H182.644L177.332 16.584V30.024H172.436ZM190.373 30.024V4.10405H196.933C199.194 4.10405 200.954 4.39205 202.213 4.96805C203.472 5.52271 204.357 6.40805 204.869 7.62405C205.381 8.81871 205.637 10.376 205.637 12.296V21.704C205.637 23.6454 205.381 25.2347 204.869 26.472C204.357 27.688 203.472 28.584 202.213 29.16C200.976 29.736 199.237 30.024 196.997 30.024H190.373ZM196.101 26.056H196.997C197.872 26.056 198.501 25.928 198.885 25.672C199.269 25.416 199.504 25.032 199.589 24.52C199.696 24.008 199.749 23.368 199.749 22.6V11.304C199.749 10.536 199.685 9.91738 199.557 9.44805C199.45 8.97871 199.205 8.63738 198.821 8.42405C198.437 8.21071 197.818 8.10405 196.965 8.10405H196.101V26.056ZM224.191 30.408C222.569 30.408 221.215 30.12 220.127 29.544C219.039 28.968 218.217 28.0827 217.663 26.888C217.108 25.672 216.799 24.104 216.735 22.184L221.631 21.448C221.652 22.5574 221.748 23.4534 221.919 24.136C222.111 24.8187 222.367 25.3094 222.687 25.608C223.028 25.9067 223.433 26.056 223.903 26.056C224.5 26.056 224.884 25.8534 225.055 25.448C225.247 25.0427 225.343 24.616 225.343 24.168C225.343 23.1014 225.087 22.2054 224.575 21.48C224.063 20.7334 223.369 19.9867 222.495 19.24L220.255 17.288C219.273 16.456 218.441 15.5174 217.759 14.472C217.097 13.4054 216.767 12.0934 216.767 10.536C216.767 8.33871 217.417 6.66405 218.719 5.51205C220.02 4.33871 221.791 3.75205 224.031 3.75205C225.417 3.75205 226.527 3.98671 227.359 4.45605C228.212 4.92538 228.852 5.54405 229.279 6.31205C229.727 7.05871 230.025 7.85871 230.175 8.71205C230.345 9.54405 230.441 10.344 230.463 11.112L225.535 11.72C225.513 10.952 225.46 10.2907 225.375 9.73605C225.311 9.16005 225.161 8.72271 224.927 8.42405C224.692 8.10405 224.329 7.94405 223.839 7.94405C223.305 7.94405 222.911 8.16805 222.655 8.61605C222.42 9.06405 222.303 9.51205 222.303 9.96005C222.303 10.92 222.527 11.7094 222.975 12.328C223.444 12.9254 224.052 13.5547 224.799 14.216L226.943 16.104C228.073 17.064 229.023 18.152 229.791 19.368C230.58 20.584 230.975 22.088 230.975 23.88C230.975 25.096 230.697 26.2054 230.143 27.208C229.588 28.1894 228.799 28.968 227.775 29.544C226.772 30.12 225.577 30.408 224.191 30.408ZM247.028 35.112C246.559 34.8987 245.993 34.5467 245.332 34.056C244.671 33.5867 244.009 33.0214 243.348 32.36C242.708 31.72 242.164 31.0587 241.716 30.376C241.631 30.3974 241.545 30.408 241.46 30.408C241.375 30.408 241.279 30.408 241.172 30.408C239.231 30.408 237.695 30.0667 236.564 29.384C235.433 28.7014 234.623 27.72 234.132 26.44C233.641 25.16 233.396 23.6347 233.396 21.864V12.232C233.396 10.44 233.641 8.91471 234.132 7.65605C234.623 6.39738 235.433 5.43738 236.564 4.77605C237.695 4.09338 239.231 3.75205 241.172 3.75205C243.135 3.75205 244.681 4.09338 245.812 4.77605C246.964 5.43738 247.785 6.39738 248.276 7.65605C248.767 8.91471 249.012 10.44 249.012 12.232V21.864C249.012 23.08 248.895 24.1787 248.66 25.16C248.447 26.1414 248.084 26.9947 247.572 27.72C247.081 28.4454 246.42 29.0214 245.588 29.448C245.865 29.7467 246.153 30.0347 246.452 30.312C246.751 30.6107 247.049 30.8774 247.348 31.112C247.647 31.368 247.945 31.5707 248.244 31.72L247.028 35.112ZM241.172 26.344C241.769 26.344 242.207 26.1947 242.484 25.896C242.761 25.5974 242.943 25.2134 243.028 24.744C243.113 24.2747 243.156 23.7947 243.156 23.304V10.824C243.156 10.312 243.113 9.83205 243.028 9.38405C242.943 8.91471 242.761 8.53071 242.484 8.23205C242.207 7.93338 241.769 7.78405 241.172 7.78405C240.575 7.78405 240.137 7.93338 239.86 8.23205C239.604 8.53071 239.433 8.91471 239.348 9.38405C239.284 9.83205 239.252 10.312 239.252 10.824V23.304C239.252 23.7947 239.284 24.2747 239.348 24.744C239.433 25.2134 239.604 25.5974 239.86 25.896C240.137 26.1947 240.575 26.344 241.172 26.344ZM259.986 30.408C258.002 30.408 256.445 30.088 255.314 29.448C254.205 28.7867 253.426 27.8374 252.978 26.6C252.53 25.3414 252.306 23.8054 252.306 21.992V4.10405H257.97V22.856C257.97 23.3894 258.013 23.9227 258.098 24.456C258.183 24.9894 258.365 25.4267 258.642 25.768C258.941 26.1094 259.389 26.28 259.986 26.28C260.605 26.28 261.053 26.1094 261.33 25.768C261.607 25.4267 261.778 24.9894 261.842 24.456C261.927 23.9227 261.97 23.3894 261.97 22.856V4.10405H267.666V21.992C267.666 23.8054 267.431 25.3414 266.962 26.6C266.514 27.8374 265.735 28.7867 264.626 29.448C263.517 30.088 261.97 30.408 259.986 30.408ZM269.813 30.024L274.709 4.10405H281.237L286.069 30.024H280.789L279.925 24.552H276.117L275.221 30.024H269.813ZM276.629 21.128H279.381L278.005 11.016L276.629 21.128ZM288.686 30.024V4.10405H295.822C297.571 4.10405 299.086 4.29605 300.366 4.68005C301.646 5.06405 302.638 5.75738 303.342 6.76005C304.067 7.74138 304.43 9.13871 304.43 10.952C304.43 12.0187 304.344 12.968 304.174 13.8C304.003 14.632 303.683 15.3574 303.214 15.976C302.766 16.5734 302.115 17.0747 301.262 17.48L304.814 30.024H298.894L296.046 18.408H294.414V30.024H288.686ZM294.414 15.112H296.014C296.824 15.112 297.454 14.9734 297.902 14.696C298.35 14.3974 298.659 13.9814 298.83 13.448C299.022 12.8934 299.118 12.232 299.118 11.464C299.118 10.3547 298.915 9.49071 298.51 8.87205C298.104 8.25338 297.358 7.94405 296.27 7.94405H294.414V15.112ZM307.873 30.024V4.10405H319.521V8.00805H313.601V14.44H318.113V18.408H313.601V26.152H319.585V30.024H307.873ZM98.3753 66.408C96.4126 66.408 94.8553 66.056 93.7033 65.352C92.5726 64.6267 91.7726 63.624 91.3033 62.344C90.8339 61.0427 90.5993 59.5174 90.5993 57.768V48.424C90.5993 46.632 90.8339 45.096 91.3033 43.816C91.7726 42.5147 92.5726 41.512 93.7033 40.808C94.8553 40.104 96.4126 39.752 98.3753 39.752C100.295 39.752 101.789 40.072 102.855 40.712C103.943 41.3307 104.711 42.2054 105.159 43.336C105.607 44.4667 105.831 45.768 105.831 47.24V49.48H100.231V46.888C100.231 46.376 100.199 45.8854 100.135 45.416C100.093 44.9467 99.9433 44.5627 99.6873 44.264C99.4313 43.944 98.9939 43.784 98.3753 43.784C97.7779 43.784 97.3299 43.944 97.0312 44.264C96.7539 44.584 96.5726 44.9894 96.4873 45.48C96.4233 45.9494 96.3913 46.4507 96.3913 46.984V59.176C96.3913 59.752 96.4339 60.2854 96.5193 60.776C96.6259 61.2454 96.8179 61.6294 97.0953 61.928C97.3939 62.2054 97.8206 62.344 98.3753 62.344C98.9726 62.344 99.3993 62.1947 99.6553 61.896C99.9113 61.576 100.071 61.1707 100.135 60.68C100.199 60.1894 100.231 59.688 100.231 59.176V56.456H105.831V58.696C105.831 60.168 105.607 61.4907 105.159 62.664C104.733 63.816 103.975 64.7334 102.887 65.416C101.821 66.0774 100.317 66.408 98.3753 66.408ZM116.407 66.408C114.465 66.408 112.929 66.0667 111.799 65.384C110.668 64.7014 109.857 63.72 109.367 62.44C108.876 61.16 108.631 59.6347 108.631 57.864V48.232C108.631 46.44 108.876 44.9147 109.367 43.656C109.857 42.3974 110.668 41.4374 111.799 40.776C112.929 40.0934 114.465 39.752 116.407 39.752C118.369 39.752 119.916 40.0934 121.047 40.776C122.199 41.4374 123.02 42.3974 123.51 43.656C124.001 44.9147 124.247 46.44 124.247 48.232V57.864C124.247 59.6347 124.001 61.16 123.51 62.44C123.02 63.72 122.199 64.7014 121.047 65.384C119.916 66.0667 118.369 66.408 116.407 66.408ZM116.407 62.344C117.004 62.344 117.441 62.1947 117.719 61.896C117.996 61.5974 118.177 61.2134 118.263 60.744C118.348 60.2747 118.391 59.7947 118.391 59.304V46.824C118.391 46.312 118.348 45.832 118.263 45.384C118.177 44.9147 117.996 44.5307 117.719 44.232C117.441 43.9334 117.004 43.784 116.407 43.784C115.852 43.784 115.436 43.9334 115.159 44.232C114.881 44.5307 114.7 44.9147 114.615 45.384C114.529 45.832 114.487 46.312 114.487 46.824V59.304C114.487 59.7947 114.519 60.2747 114.583 60.744C114.668 61.2134 114.839 61.5974 115.095 61.896C115.372 62.1947 115.809 62.344 116.407 62.344ZM127.733 66.024V40.104H131.765L137.077 52.584V40.104H141.812V66.024H137.941L132.629 52.584V66.024H127.733ZM148.006 66.024V44.36H144.102V40.104H157.638V44.36H153.766V66.024H148.006ZM157.235 66.024L162.131 40.104H168.659L173.491 66.024H168.211L167.347 60.552H163.539L162.643 66.024H157.235ZM164.051 57.128H166.803L165.427 47.016L164.051 57.128ZM176.14 66.024V40.104H181.868V66.024H176.14ZM185.733 66.024V40.104H189.765L195.077 52.584V40.104H199.812V66.024H195.941L190.629 52.584V66.024H185.733ZM203.67 66.024V40.104H215.318V44.008H209.398V50.44H213.91V54.408H209.398V62.152H215.382V66.024H203.67ZM217.983 66.024V40.104H225.119C226.868 40.104 228.383 40.296 229.663 40.68C230.943 41.064 231.935 41.7574 232.639 42.76C233.364 43.7414 233.727 45.1387 233.727 46.952C233.727 48.0187 233.641 48.968 233.471 49.8C233.3 50.632 232.98 51.3574 232.51 51.976C232.063 52.5734 231.412 53.0747 230.559 53.48L234.111 66.024H228.191L225.343 54.408H223.711V66.024H217.983ZM223.711 51.112H225.311C226.121 51.112 226.751 50.9734 227.199 50.696C227.647 50.3974 227.956 49.9814 228.127 49.448C228.319 48.8934 228.415 48.232 228.415 47.464C228.415 46.3547 228.212 45.4907 227.807 44.872C227.401 44.2534 226.655 43.944 225.567 43.944H223.711V51.112Z" fill="white"/>
</g>
<defs>
<filter id="filter0_d_765_4409" x="-0.000273228" y="9.29832e-05" width="324.305" height="72.128" filterUnits="userSpaceOnUse" color-interpolation-filters="sRGB">
<feFlood flood-opacity="0" result="BackgroundImageFix"/>
<feColorMatrix in="SourceAlpha" type="matrix" values="0 0 0 0 0 0 0 0 0 0 0 0 0 0 0 0 0 0 127 0" result="hardAlpha"/>
<feOffset dy="1"/>
<feGaussianBlur stdDeviation="2.36"/>
<feComposite in2="hardAlpha" operator="out"/>
<feColorMatrix type="matrix" values="0 0 0 0 0 0 0 0 0 0 0 0 0 0 0 0 0 0 0.25 0"/>
<feBlend mode="normal" in2="BackgroundImageFix" result="effect1_dropShadow_765_4409"/>
<feBlend mode="normal" in="SourceGraphic" in2="effect1_dropShadow_765_4409" result="shape"/>
</filter>
</defs>
</svg>
