<svg width="397" height="27" viewBox="0 0 397 27" fill="none" xmlns="http://www.w3.org/2000/svg">
<path d="M1.057 0.40908V9.13635H0.000177622V0.40908H1.057ZM5.51119 9.27272C4.96573 9.27272 4.4842 9.13493 4.06658 8.85936C3.64897 8.58095 3.32227 8.18891 3.08647 7.68323C2.85067 7.1747 2.73278 6.57385 2.73278 5.88067C2.73278 5.19317 2.85067 4.59658 3.08647 4.0909C3.32227 3.58522 3.65039 3.19459 4.07085 2.91902C4.4913 2.64345 4.9771 2.50567 5.52823 2.50567C5.95437 2.50567 6.29102 2.57669 6.53817 2.71874C6.78817 2.85794 6.97852 3.01703 7.1092 3.19601C7.24272 3.37215 7.34641 3.51703 7.42028 3.63067H7.5055V0.40908H8.51119V9.13635H7.5396V8.13067H7.42028C7.34641 8.24999 7.2413 8.40056 7.10494 8.58238C6.96857 8.76135 6.77397 8.92186 6.52113 9.06391C6.26829 9.20311 5.93164 9.27272 5.51119 9.27272ZM5.64755 8.36931C6.05096 8.36931 6.39187 8.26419 6.67028 8.05397C6.94869 7.8409 7.16033 7.54686 7.30522 7.17186C7.45011 6.79402 7.52255 6.35794 7.52255 5.86363C7.52255 5.37499 7.45153 4.94743 7.30948 4.58095C7.16744 4.21164 6.95721 3.9247 6.6788 3.72016C6.40039 3.51277 6.05664 3.40908 5.64755 3.40908C5.22141 3.40908 4.8663 3.51845 4.58221 3.7372C4.30096 3.95311 4.08931 4.24715 3.94727 4.61931C3.80806 4.98863 3.73846 5.4034 3.73846 5.86363C3.73846 6.32953 3.80948 6.75283 3.95153 7.13351C4.09641 7.51135 4.30948 7.81249 4.59073 8.03692C4.87482 8.25851 5.2271 8.36931 5.64755 8.36931ZM13.237 9.27272C12.6064 9.27272 12.0623 9.13351 11.6049 8.8551C11.1504 8.57385 10.7995 8.18181 10.5524 7.67897C10.3081 7.17328 10.1859 6.58522 10.1859 5.91476C10.1859 5.24431 10.3081 4.6534 10.5524 4.14203C10.7995 3.62783 11.1433 3.22726 11.5836 2.94033C12.0268 2.65056 12.5439 2.50567 13.1348 2.50567C13.4757 2.50567 13.8123 2.56249 14.1447 2.67612C14.4771 2.78976 14.7797 2.97442 15.0524 3.2301C15.3251 3.48294 15.5424 3.81817 15.7044 4.23578C15.8663 4.6534 15.9473 5.1676 15.9473 5.7784V6.20453H10.9018V5.33522H14.9245C14.9245 4.9659 14.8507 4.63635 14.7029 4.34658C14.5581 4.05681 14.3507 3.82811 14.0808 3.6605C13.8137 3.49289 13.4984 3.40908 13.1348 3.40908C12.7342 3.40908 12.3876 3.50851 12.095 3.70738C11.8052 3.9034 11.5822 4.15908 11.426 4.47442C11.2697 4.78976 11.1916 5.12783 11.1916 5.48863V6.06817C11.1916 6.56249 11.2768 6.98152 11.4473 7.32527C11.6206 7.66618 11.8606 7.92613 12.1674 8.1051C12.4743 8.28124 12.8308 8.36931 13.237 8.36931C13.5012 8.36931 13.7399 8.33238 13.9529 8.25851C14.1689 8.18181 14.3549 8.06817 14.5112 7.9176C14.6674 7.76419 14.7882 7.57385 14.8734 7.34658L15.845 7.61931C15.7427 7.94885 15.5708 8.23863 15.3294 8.48863C15.0879 8.73578 14.7896 8.92897 14.4345 9.06817C14.0794 9.20453 13.6802 9.27272 13.237 9.27272ZM19.4032 9.28976C18.9885 9.28976 18.612 9.21164 18.274 9.05539C17.9359 8.8963 17.6674 8.6676 17.4686 8.36931C17.2697 8.06817 17.1703 7.70453 17.1703 7.2784C17.1703 6.9034 17.2441 6.59942 17.3919 6.36647C17.5396 6.13067 17.737 5.94601 17.9842 5.81249C18.2314 5.67897 18.5041 5.57953 18.8024 5.51419C19.1035 5.44601 19.4061 5.39203 19.71 5.35226C20.1078 5.30113 20.4302 5.26277 20.6774 5.2372C20.9274 5.2088 21.1092 5.16192 21.2228 5.09658C21.3393 5.03124 21.3975 4.9176 21.3975 4.75567V4.72158C21.3975 4.30113 21.2825 3.97442 21.0524 3.74147C20.8251 3.50851 20.4799 3.39203 20.0169 3.39203C19.5368 3.39203 19.1603 3.49715 18.8876 3.70738C18.6149 3.9176 18.4231 4.14203 18.3123 4.38067L17.3578 4.03976C17.5282 3.64203 17.7555 3.33238 18.0396 3.11078C18.3265 2.88635 18.639 2.7301 18.9771 2.64203C19.318 2.55113 19.6532 2.50567 19.9828 2.50567C20.193 2.50567 20.4345 2.53124 20.7072 2.58237C20.9828 2.63067 21.2484 2.73152 21.5041 2.88493C21.7626 3.03834 21.9771 3.26988 22.1475 3.57953C22.318 3.88919 22.4032 4.30397 22.4032 4.82385V9.13635H21.3975V8.24999H21.3464C21.2782 8.39203 21.1646 8.54402 21.0055 8.70595C20.8464 8.86789 20.6348 9.00567 20.3706 9.11931C20.1064 9.23294 19.7839 9.28976 19.4032 9.28976ZM19.5566 8.38635C19.9544 8.38635 20.2896 8.30823 20.5623 8.15198C20.8379 7.99573 21.0453 7.79402 21.1845 7.54686C21.3265 7.2997 21.3975 7.03976 21.3975 6.76703V5.84658C21.3549 5.89772 21.2612 5.94459 21.1163 5.9872C20.9743 6.02698 20.8095 6.06249 20.622 6.09374C20.4373 6.12215 20.2569 6.14772 20.0808 6.17044C19.9075 6.19033 19.7669 6.20738 19.6589 6.22158C19.3975 6.25567 19.1532 6.31107 18.926 6.38777C18.7015 6.46164 18.5197 6.57385 18.3805 6.72442C18.2441 6.87215 18.176 7.07385 18.176 7.32953C18.176 7.67897 18.3052 7.94317 18.5637 8.12215C18.8251 8.29828 19.1561 8.38635 19.5566 8.38635ZM25.2445 0.40908V9.13635H24.2388V0.40908H25.2445ZM33.3762 2.5909V3.44317H29.8478V2.5909H33.3762ZM30.9047 9.13635V1.68749C30.9047 1.31249 30.9927 0.999988 31.1689 0.749988C31.345 0.499988 31.5737 0.312488 31.8549 0.187488C32.1362 0.0624883 32.4331 -1.16825e-05 32.7456 -1.16825e-05C32.9927 -1.16825e-05 33.1944 0.0198748 33.3507 0.0596478C33.5069 0.0994203 33.6234 0.136352 33.7001 0.170443L33.4103 1.03976C33.3592 1.02272 33.2882 1.00141 33.1973 0.975841C33.1092 0.950273 32.9927 0.937488 32.8478 0.937488C32.5154 0.937488 32.2754 1.0213 32.1277 1.18891C31.9828 1.35652 31.9103 1.60226 31.9103 1.92612V9.13635H30.9047ZM37.1752 9.27272C36.5843 9.27272 36.0659 9.13209 35.6199 8.85084C35.1767 8.56959 34.8301 8.17613 34.5801 7.67044C34.3329 7.16476 34.2093 6.57385 34.2093 5.89772C34.2093 5.2159 34.3329 4.62073 34.5801 4.1122C34.8301 3.60368 35.1767 3.2088 35.6199 2.92755C36.0659 2.6463 36.5843 2.50567 37.1752 2.50567C37.7662 2.50567 38.2832 2.6463 38.7264 2.92755C39.1724 3.2088 39.519 3.60368 39.7662 4.1122C40.0162 4.62073 40.1412 5.2159 40.1412 5.89772C40.1412 6.57385 40.0162 7.16476 39.7662 7.67044C39.519 8.17613 39.1724 8.56959 38.7264 8.85084C38.2832 9.13209 37.7662 9.27272 37.1752 9.27272ZM37.1752 8.36931C37.6241 8.36931 37.9934 8.25425 38.2832 8.02414C38.573 7.79402 38.7875 7.49147 38.9267 7.11647C39.0659 6.74147 39.1355 6.33522 39.1355 5.89772C39.1355 5.46022 39.0659 5.05255 38.9267 4.6747C38.7875 4.29686 38.573 3.99147 38.2832 3.75851C37.9934 3.52556 37.6241 3.40908 37.1752 3.40908C36.7264 3.40908 36.3571 3.52556 36.0673 3.75851C35.7775 3.99147 35.563 4.29686 35.4238 4.6747C35.2846 5.05255 35.215 5.46022 35.215 5.89772C35.215 6.33522 35.2846 6.74147 35.4238 7.11647C35.563 7.49147 35.7775 7.79402 36.0673 8.02414C36.3571 8.25425 36.7264 8.36931 37.1752 8.36931ZM41.6763 9.13635V2.5909H42.6479V3.57953H42.7161C42.8354 3.25567 43.0513 2.99289 43.3638 2.79118C43.6763 2.58948 44.0286 2.48862 44.4206 2.48862C44.4945 2.48862 44.5868 2.49005 44.6976 2.49289C44.8084 2.49573 44.8922 2.49999 44.949 2.50567V3.5284C44.915 3.51988 44.8368 3.50709 44.7147 3.49005C44.5953 3.47016 44.4689 3.46022 44.3354 3.46022C44.0172 3.46022 43.7331 3.52698 43.4831 3.6605C43.236 3.79118 43.04 3.973 42.8951 4.20595C42.753 4.43607 42.682 4.69885 42.682 4.99431V9.13635H41.6763ZM49.6525 9.13635V0.40908H50.6582V3.63067H50.7434C50.8173 3.51703 50.9196 3.37215 51.0502 3.19601C51.1838 3.01703 51.3741 2.85794 51.6213 2.71874C51.8713 2.57669 52.2093 2.50567 52.6355 2.50567C53.1866 2.50567 53.6724 2.64345 54.0929 2.91902C54.5133 3.19459 54.8414 3.58522 55.0772 4.0909C55.313 4.59658 55.4309 5.19317 55.4309 5.88067C55.4309 6.57385 55.313 7.1747 55.0772 7.68323C54.8414 8.18891 54.5147 8.58095 54.0971 8.85936C53.6795 9.13493 53.198 9.27272 52.6525 9.27272C52.2321 9.27272 51.8954 9.20311 51.6426 9.06391C51.3897 8.92186 51.1951 8.76135 51.0588 8.58238C50.9224 8.40056 50.8173 8.24999 50.7434 8.13067H50.6241V9.13635H49.6525ZM50.6412 5.86363C50.6412 6.35794 50.7136 6.79402 50.8585 7.17186C51.0034 7.54686 51.215 7.8409 51.4934 8.05397C51.7718 8.26419 52.1127 8.36931 52.5162 8.36931C52.9366 8.36931 53.2875 8.25851 53.5687 8.03692C53.8528 7.81249 54.0659 7.51135 54.2079 7.13351C54.3528 6.75283 54.4252 6.32953 54.4252 5.86363C54.4252 5.4034 54.3542 4.98863 54.2122 4.61931C54.073 4.24715 53.8613 3.95311 53.5772 3.7372C53.296 3.51845 52.9423 3.40908 52.5162 3.40908C52.1071 3.40908 51.7633 3.51277 51.4849 3.72016C51.2065 3.9247 50.9963 4.21164 50.8542 4.58095C50.7122 4.94743 50.6412 5.37499 50.6412 5.86363ZM61.0943 6.46022V2.5909H62.1V9.13635H61.0943V8.0284H61.0261C60.8727 8.36078 60.6341 8.64345 60.3102 8.87641C59.9863 9.10652 59.5772 9.22158 59.0829 9.22158C58.6738 9.22158 58.3102 9.13209 57.992 8.95311C57.6738 8.7713 57.4238 8.49857 57.242 8.13493C57.0602 7.76845 56.9693 7.30681 56.9693 6.74999V2.5909H57.975V6.68181C57.975 7.15908 58.1085 7.53976 58.3755 7.82385C58.6454 8.10794 58.9892 8.24999 59.4068 8.24999C59.6568 8.24999 59.911 8.18607 60.1696 8.05823C60.4309 7.93039 60.6497 7.73436 60.8258 7.47016C61.0048 7.20595 61.0943 6.86931 61.0943 6.46022ZM64.9476 0.40908V9.13635H63.9419V0.40908H64.9476ZM67.7271 6.74999L67.71 5.50567H67.9146L70.7782 2.5909H72.0226L68.9714 5.67613H68.8862L67.7271 6.74999ZM66.7896 9.13635V0.40908H67.7953V9.13635H66.7896ZM70.9487 9.13635L68.3919 5.89772L69.1078 5.19885L72.2271 9.13635H70.9487ZM81.3283 4.05681L80.4249 4.31249C80.3681 4.16192 80.2843 4.01561 80.1735 3.87357C80.0655 3.72868 79.9178 3.60936 79.7303 3.51561C79.5428 3.42186 79.3027 3.37499 79.0101 3.37499C78.6096 3.37499 78.2757 3.46732 78.0087 3.65198C77.7445 3.8338 77.6124 4.06533 77.6124 4.34658C77.6124 4.59658 77.7033 4.79402 77.8851 4.93891C78.0669 5.0838 78.351 5.20453 78.7374 5.30113L79.709 5.53976C80.2942 5.68181 80.7303 5.89914 81.0172 6.19175C81.3042 6.48152 81.4476 6.8551 81.4476 7.31249C81.4476 7.68749 81.3397 8.02272 81.1238 8.31817C80.9107 8.61363 80.6124 8.84658 80.2289 9.01703C79.8453 9.18749 79.3993 9.27272 78.8908 9.27272C78.2232 9.27272 77.6706 9.12783 77.2331 8.83806C76.7956 8.54828 76.5186 8.12499 76.4022 7.56817L77.3567 7.32953C77.4476 7.68181 77.6195 7.94601 77.8723 8.12215C78.128 8.29828 78.4618 8.38635 78.8738 8.38635C79.3425 8.38635 79.7147 8.28692 79.9902 8.08806C80.2686 7.88635 80.4078 7.64488 80.4078 7.36363C80.4078 7.13635 80.3283 6.94601 80.1692 6.7926C80.0101 6.63635 79.7658 6.51988 79.4363 6.44317L78.3453 6.18749C77.7459 6.04544 77.3056 5.82527 77.0243 5.52698C76.7459 5.22584 76.6067 4.84942 76.6067 4.39772C76.6067 4.0284 76.7104 3.70169 76.9178 3.4176C77.128 3.13351 77.4135 2.9105 77.7743 2.74857C78.138 2.58664 78.5499 2.50567 79.0101 2.50567C79.6578 2.50567 80.1664 2.64772 80.5357 2.93181C80.9078 3.2159 81.1721 3.5909 81.3283 4.05681ZM85.7058 9.27272C85.0751 9.27272 84.5311 9.13351 84.0737 8.8551C83.6191 8.57385 83.2683 8.18181 83.0211 7.67897C82.7768 7.17328 82.6547 6.58522 82.6547 5.91476C82.6547 5.24431 82.7768 4.6534 83.0211 4.14203C83.2683 3.62783 83.612 3.22726 84.0524 2.94033C84.4956 2.65056 85.0126 2.50567 85.6035 2.50567C85.9444 2.50567 86.2811 2.56249 86.6135 2.67612C86.9458 2.78976 87.2484 2.97442 87.5211 3.2301C87.7939 3.48294 88.0112 3.81817 88.1731 4.23578C88.335 4.6534 88.416 5.1676 88.416 5.7784V6.20453H83.3706V5.33522H87.3933C87.3933 4.9659 87.3194 4.63635 87.1717 4.34658C87.0268 4.05681 86.8194 3.82811 86.5495 3.6605C86.2825 3.49289 85.9672 3.40908 85.6035 3.40908C85.2029 3.40908 84.8564 3.50851 84.5637 3.70738C84.274 3.9034 84.051 4.15908 83.8947 4.47442C83.7385 4.78976 83.6603 5.12783 83.6603 5.48863V6.06817C83.6603 6.56249 83.7456 6.98152 83.916 7.32527C84.0893 7.66618 84.3294 7.92613 84.6362 8.1051C84.943 8.28124 85.2995 8.36931 85.7058 8.36931C85.97 8.36931 86.2086 8.33238 86.4217 8.25851C86.6376 8.18181 86.8237 8.06817 86.9799 7.9176C87.1362 7.76419 87.2569 7.57385 87.3422 7.34658L88.3137 7.61931C88.2115 7.94885 88.0396 8.23863 87.7981 8.48863C87.5566 8.73578 87.2583 8.92897 86.9032 9.06817C86.5481 9.20453 86.149 9.27272 85.7058 9.27272ZM89.9458 9.13635V2.5909H90.9174V3.57953H90.9856C91.1049 3.25567 91.3208 2.99289 91.6333 2.79118C91.9458 2.58948 92.2981 2.48862 92.6902 2.48862C92.764 2.48862 92.8564 2.49005 92.9672 2.49289C93.0779 2.49573 93.1618 2.49999 93.2186 2.50567V3.5284C93.1845 3.51988 93.1064 3.50709 92.9842 3.49005C92.8649 3.47016 92.7385 3.46022 92.6049 3.46022C92.2868 3.46022 92.0027 3.52698 91.7527 3.6605C91.5055 3.79118 91.3095 3.973 91.1646 4.20595C91.0225 4.43607 90.9515 4.69885 90.9515 4.99431V9.13635H89.9458ZM99.9622 2.5909L97.5417 9.13635H96.519L94.0985 2.5909H95.1895L96.9963 7.80681H97.0645L98.8713 2.5909H99.9622ZM101.29 9.13635V2.5909H102.295V9.13635H101.29ZM101.801 1.49999C101.605 1.49999 101.436 1.43323 101.294 1.2997C101.155 1.16618 101.085 1.00567 101.085 0.818171C101.085 0.630671 101.155 0.470159 101.294 0.336636C101.436 0.203114 101.605 0.136353 101.801 0.136353C101.997 0.136353 102.165 0.203114 102.304 0.336636C102.446 0.470159 102.517 0.630671 102.517 0.818171C102.517 1.00567 102.446 1.16618 102.304 1.2997C102.165 1.43323 101.997 1.49999 101.801 1.49999ZM105.143 5.19885V9.13635H104.137V2.5909H105.109V3.61363H105.194C105.347 3.28124 105.58 3.01419 105.893 2.81249C106.205 2.60794 106.609 2.50567 107.103 2.50567C107.546 2.50567 107.934 2.59658 108.267 2.7784C108.599 2.95738 108.857 3.2301 109.042 3.59658C109.227 3.96022 109.319 4.42044 109.319 4.97726V9.13635H108.313V5.04544C108.313 4.53124 108.18 4.13067 107.913 3.84374C107.646 3.55397 107.279 3.40908 106.813 3.40908C106.492 3.40908 106.205 3.47868 105.953 3.61789C105.703 3.75709 105.505 3.96022 105.36 4.22726C105.215 4.49431 105.143 4.81817 105.143 5.19885ZM113.799 11.7273C113.313 11.7273 112.895 11.6648 112.546 11.5398C112.197 11.4176 111.905 11.2557 111.672 11.054C111.442 10.8551 111.259 10.642 111.123 10.4148L111.924 9.85226C112.015 9.97158 112.13 10.1079 112.269 10.2614C112.408 10.4176 112.599 10.5525 112.84 10.6662C113.084 10.7827 113.404 10.8409 113.799 10.8409C114.327 10.8409 114.763 10.7131 115.107 10.4574C115.451 10.2017 115.623 9.80113 115.623 9.25567V7.92613H115.537C115.464 8.04544 115.358 8.19317 115.222 8.36931C115.089 8.5426 114.895 8.69743 114.643 8.8338C114.393 8.96732 114.055 9.03408 113.628 9.03408C113.1 9.03408 112.626 8.90908 112.205 8.65908C111.787 8.40908 111.456 8.04544 111.212 7.56817C110.971 7.0909 110.85 6.51135 110.85 5.82953C110.85 5.15908 110.968 4.57527 111.204 4.07811C111.439 3.57811 111.768 3.19175 112.188 2.91902C112.608 2.64345 113.094 2.50567 113.645 2.50567C114.072 2.50567 114.41 2.57669 114.66 2.71874C114.912 2.85794 115.106 3.01703 115.239 3.19601C115.376 3.37215 115.481 3.51703 115.555 3.63067H115.657V2.5909H116.628V9.32385C116.628 9.88635 116.501 10.3437 116.245 10.696C115.992 11.0511 115.651 11.3111 115.222 11.4758C114.796 11.6435 114.322 11.7273 113.799 11.7273ZM113.765 8.13067C114.168 8.13067 114.509 8.03834 114.787 7.85368C115.066 7.66902 115.278 7.4034 115.422 7.05681C115.567 6.71022 115.64 6.29544 115.64 5.81249C115.64 5.3409 115.569 4.9247 115.427 4.56391C115.285 4.20311 115.074 3.92044 114.796 3.7159C114.518 3.51135 114.174 3.40908 113.765 3.40908C113.339 3.40908 112.983 3.51703 112.699 3.73294C112.418 3.94885 112.206 4.23863 112.064 4.60226C111.925 4.9659 111.856 5.36931 111.856 5.81249C111.856 6.26703 111.927 6.66902 112.069 7.01845C112.214 7.36505 112.427 7.63777 112.708 7.83664C112.992 8.03266 113.344 8.13067 113.765 8.13067ZM123.106 4.05681L122.202 4.31249C122.145 4.16192 122.062 4.01561 121.951 3.87357C121.843 3.72868 121.695 3.60936 121.508 3.51561C121.32 3.42186 121.08 3.37499 120.787 3.37499C120.387 3.37499 120.053 3.46732 119.786 3.65198C119.522 3.8338 119.39 4.06533 119.39 4.34658C119.39 4.59658 119.481 4.79402 119.662 4.93891C119.844 5.0838 120.128 5.20453 120.515 5.30113L121.486 5.53976C122.072 5.68181 122.508 5.89914 122.795 6.19175C123.081 6.48152 123.225 6.8551 123.225 7.31249C123.225 7.68749 123.117 8.02272 122.901 8.31817C122.688 8.61363 122.39 8.84658 122.006 9.01703C121.623 9.18749 121.177 9.27272 120.668 9.27272C120.001 9.27272 119.448 9.12783 119.01 8.83806C118.573 8.54828 118.296 8.12499 118.18 7.56817L119.134 7.32953C119.225 7.68181 119.397 7.94601 119.65 8.12215C119.905 8.29828 120.239 8.38635 120.651 8.38635C121.12 8.38635 121.492 8.28692 121.768 8.08806C122.046 7.88635 122.185 7.64488 122.185 7.36363C122.185 7.13635 122.106 6.94601 121.947 6.7926C121.787 6.63635 121.543 6.51988 121.214 6.44317L120.123 6.18749C119.523 6.04544 119.083 5.82527 118.802 5.52698C118.523 5.22584 118.384 4.84942 118.384 4.39772C118.384 4.0284 118.488 3.70169 118.695 3.4176C118.905 3.13351 119.191 2.9105 119.552 2.74857C119.915 2.58664 120.327 2.50567 120.787 2.50567C121.435 2.50567 121.944 2.64772 122.313 2.93181C122.685 3.2159 122.949 3.5909 123.106 4.05681ZM126.239 7.94317L126.171 8.4034C126.122 8.72726 126.048 9.07385 125.949 9.44317C125.852 9.81249 125.752 10.1605 125.646 10.4872C125.541 10.8139 125.455 11.0739 125.387 11.267H124.619C124.656 11.0852 124.705 10.8452 124.764 10.5469C124.824 10.2486 124.884 9.91476 124.943 9.54544C125.006 9.17897 125.057 8.80397 125.097 8.42044L125.148 7.94317H126.239ZM134.392 2.5909V3.44317H130.863V2.5909H134.392ZM131.92 9.13635V1.68749C131.92 1.31249 132.008 0.999988 132.184 0.749988C132.361 0.499988 132.589 0.312488 132.871 0.187488C133.152 0.0624883 133.449 -1.16825e-05 133.761 -1.16825e-05C134.008 -1.16825e-05 134.21 0.0198748 134.366 0.0596478C134.523 0.0994203 134.639 0.136352 134.716 0.170443L134.426 1.03976C134.375 1.02272 134.304 1.00141 134.213 0.975841C134.125 0.950273 134.008 0.937488 133.863 0.937488C133.531 0.937488 133.291 1.0213 133.143 1.18891C132.998 1.35652 132.926 1.60226 132.926 1.92612V9.13635H131.92ZM137.54 9.28976C137.125 9.28976 136.749 9.21164 136.411 9.05539C136.073 8.8963 135.804 8.6676 135.605 8.36931C135.406 8.06817 135.307 7.70453 135.307 7.2784C135.307 6.9034 135.381 6.59942 135.529 6.36647C135.676 6.13067 135.874 5.94601 136.121 5.81249C136.368 5.67897 136.641 5.57953 136.939 5.51419C137.24 5.44601 137.543 5.39203 137.847 5.35226C138.244 5.30113 138.567 5.26277 138.814 5.2372C139.064 5.2088 139.246 5.16192 139.36 5.09658C139.476 5.03124 139.534 4.9176 139.534 4.75567V4.72158C139.534 4.30113 139.419 3.97442 139.189 3.74147C138.962 3.50851 138.617 3.39203 138.154 3.39203C137.673 3.39203 137.297 3.49715 137.024 3.70738C136.752 3.9176 136.56 4.14203 136.449 4.38067L135.494 4.03976C135.665 3.64203 135.892 3.33238 136.176 3.11078C136.463 2.88635 136.776 2.7301 137.114 2.64203C137.455 2.55113 137.79 2.50567 138.119 2.50567C138.33 2.50567 138.571 2.53124 138.844 2.58237C139.119 2.63067 139.385 2.73152 139.641 2.88493C139.899 3.03834 140.114 3.26988 140.284 3.57953C140.455 3.88919 140.54 4.30397 140.54 4.82385V9.13635H139.534V8.24999H139.483C139.415 8.39203 139.301 8.54402 139.142 8.70595C138.983 8.86789 138.771 9.00567 138.507 9.11931C138.243 9.23294 137.921 9.28976 137.54 9.28976ZM137.693 8.38635C138.091 8.38635 138.426 8.30823 138.699 8.15198C138.975 7.99573 139.182 7.79402 139.321 7.54686C139.463 7.2997 139.534 7.03976 139.534 6.76703V5.84658C139.492 5.89772 139.398 5.94459 139.253 5.9872C139.111 6.02698 138.946 6.06249 138.759 6.09374C138.574 6.12215 138.394 6.14772 138.218 6.17044C138.044 6.19033 137.904 6.20738 137.796 6.22158C137.534 6.25567 137.29 6.31107 137.063 6.38777C136.838 6.46164 136.656 6.57385 136.517 6.72442C136.381 6.87215 136.313 7.07385 136.313 7.32953C136.313 7.67897 136.442 7.94317 136.7 8.12215C136.962 8.29828 137.293 8.38635 137.693 8.38635ZM142.376 9.13635V2.5909H143.347V3.61363H143.432C143.569 3.26419 143.789 2.99289 144.093 2.7997C144.397 2.60368 144.762 2.50567 145.188 2.50567C145.62 2.50567 145.979 2.60368 146.266 2.7997C146.556 2.99289 146.782 3.26419 146.944 3.61363H147.012C147.18 3.27556 147.431 3.00709 147.766 2.80823C148.101 2.60652 148.503 2.50567 148.972 2.50567C149.557 2.50567 150.036 2.68891 150.408 3.05539C150.78 3.41902 150.966 3.98578 150.966 4.75567V9.13635H149.961V4.75567C149.961 4.27272 149.829 3.92755 149.564 3.72016C149.3 3.51277 148.989 3.40908 148.631 3.40908C148.171 3.40908 147.814 3.54828 147.562 3.82669C147.309 4.10226 147.182 4.45169 147.182 4.87499V9.13635H146.16V4.6534C146.16 4.28124 146.039 3.98152 145.797 3.75425C145.556 3.52414 145.245 3.40908 144.864 3.40908C144.603 3.40908 144.358 3.47868 144.131 3.61789C143.907 3.75709 143.725 3.95027 143.586 4.19743C143.449 4.44175 143.381 4.72442 143.381 5.04544V9.13635H142.376ZM152.805 9.13635V2.5909H153.811V9.13635H152.805ZM153.317 1.49999C153.121 1.49999 152.952 1.43323 152.809 1.2997C152.67 1.16618 152.601 1.00567 152.601 0.818171C152.601 0.630671 152.67 0.470159 152.809 0.336636C152.952 0.203114 153.121 0.136353 153.317 0.136353C153.513 0.136353 153.68 0.203114 153.819 0.336636C153.961 0.470159 154.032 0.630671 154.032 0.818171C154.032 1.00567 153.961 1.16618 153.819 1.2997C153.68 1.43323 153.513 1.49999 153.317 1.49999ZM156.659 0.40908V9.13635H155.653V0.40908H156.659ZM159.148 11.5909C158.978 11.5909 158.826 11.5767 158.692 11.5483C158.559 11.5227 158.466 11.4971 158.415 11.4716L158.671 10.5852C158.915 10.6477 159.131 10.6704 159.319 10.6534C159.506 10.6364 159.672 10.5525 159.817 10.402C159.965 10.2543 160.1 10.0142 160.222 9.68181L160.41 9.17044L157.989 2.5909H159.08L160.887 7.80681H160.955L162.762 2.5909H163.853L161.074 10.0909C160.949 10.429 160.795 10.7088 160.61 10.9304C160.425 11.1548 160.211 11.321 159.966 11.429C159.725 11.5369 159.452 11.5909 159.148 11.5909ZM168.555 9.13635V2.5909H169.527V3.61363H169.612C169.748 3.26419 169.969 2.99289 170.273 2.7997C170.577 2.60368 170.942 2.50567 171.368 2.50567C171.8 2.50567 172.159 2.60368 172.446 2.7997C172.736 2.99289 172.961 3.26419 173.123 3.61363H173.192C173.359 3.27556 173.611 3.00709 173.946 2.80823C174.281 2.60652 174.683 2.50567 175.152 2.50567C175.737 2.50567 176.216 2.68891 176.588 3.05539C176.96 3.41902 177.146 3.98578 177.146 4.75567V9.13635H176.14V4.75567C176.14 4.27272 176.008 3.92755 175.744 3.72016C175.48 3.51277 175.169 3.40908 174.811 3.40908C174.351 3.40908 173.994 3.54828 173.741 3.82669C173.488 4.10226 173.362 4.45169 173.362 4.87499V9.13635H172.339V4.6534C172.339 4.28124 172.219 3.98152 171.977 3.75425C171.736 3.52414 171.425 3.40908 171.044 3.40908C170.782 3.40908 170.538 3.47868 170.311 3.61789C170.086 3.75709 169.905 3.95027 169.765 4.19743C169.629 4.44175 169.561 4.72442 169.561 5.04544V9.13635H168.555ZM181.729 9.27272C181.099 9.27272 180.555 9.13351 180.097 8.8551C179.643 8.57385 179.292 8.18181 179.045 7.67897C178.8 7.17328 178.678 6.58522 178.678 5.91476C178.678 5.24431 178.8 4.6534 179.045 4.14203C179.292 3.62783 179.635 3.22726 180.076 2.94033C180.519 2.65056 181.036 2.50567 181.627 2.50567C181.968 2.50567 182.305 2.56249 182.637 2.67612C182.969 2.78976 183.272 2.97442 183.545 3.2301C183.817 3.48294 184.035 3.81817 184.197 4.23578C184.358 4.6534 184.439 5.1676 184.439 5.7784V6.20453H179.394V5.33522H183.417C183.417 4.9659 183.343 4.63635 183.195 4.34658C183.05 4.05681 182.843 3.82811 182.573 3.6605C182.306 3.49289 181.991 3.40908 181.627 3.40908C181.226 3.40908 180.88 3.50851 180.587 3.70738C180.297 3.9034 180.074 4.15908 179.918 4.47442C179.762 4.78976 179.684 5.12783 179.684 5.48863V6.06817C179.684 6.56249 179.769 6.98152 179.939 7.32527C180.113 7.66618 180.353 7.92613 180.66 8.1051C180.966 8.28124 181.323 8.36931 181.729 8.36931C181.993 8.36931 182.232 8.33238 182.445 8.25851C182.661 8.18181 182.847 8.06817 183.003 7.9176C183.16 7.76419 183.28 7.57385 183.366 7.34658L184.337 7.61931C184.235 7.94885 184.063 8.23863 183.822 8.48863C183.58 8.73578 183.282 8.92897 182.927 9.06817C182.572 9.20453 182.172 9.27272 181.729 9.27272ZM187.895 9.28976C187.481 9.28976 187.104 9.21164 186.766 9.05539C186.428 8.8963 186.16 8.6676 185.961 8.36931C185.762 8.06817 185.662 7.70453 185.662 7.2784C185.662 6.9034 185.736 6.59942 185.884 6.36647C186.032 6.13067 186.229 5.94601 186.476 5.81249C186.724 5.67897 186.996 5.57953 187.295 5.51419C187.596 5.44601 187.898 5.39203 188.202 5.35226C188.6 5.30113 188.922 5.26277 189.17 5.2372C189.42 5.2088 189.601 5.16192 189.715 5.09658C189.831 5.03124 189.89 4.9176 189.89 4.75567V4.72158C189.89 4.30113 189.775 3.97442 189.545 3.74147C189.317 3.50851 188.972 3.39203 188.509 3.39203C188.029 3.39203 187.653 3.49715 187.38 3.70738C187.107 3.9176 186.915 4.14203 186.805 4.38067L185.85 4.03976C186.02 3.64203 186.248 3.33238 186.532 3.11078C186.819 2.88635 187.131 2.7301 187.469 2.64203C187.81 2.55113 188.145 2.50567 188.475 2.50567C188.685 2.50567 188.927 2.53124 189.199 2.58237C189.475 2.63067 189.741 2.73152 189.996 2.88493C190.255 3.03834 190.469 3.26988 190.64 3.57953C190.81 3.88919 190.895 4.30397 190.895 4.82385V9.13635H189.89V8.24999H189.839C189.77 8.39203 189.657 8.54402 189.498 8.70595C189.339 8.86789 189.127 9.00567 188.863 9.11931C188.599 9.23294 188.276 9.28976 187.895 9.28976ZM188.049 8.38635C188.447 8.38635 188.782 8.30823 189.055 8.15198C189.33 7.99573 189.537 7.79402 189.677 7.54686C189.819 7.2997 189.89 7.03976 189.89 6.76703V5.84658C189.847 5.89772 189.753 5.94459 189.608 5.9872C189.466 6.02698 189.302 6.06249 189.114 6.09374C188.93 6.12215 188.749 6.14772 188.573 6.17044C188.4 6.19033 188.259 6.20738 188.151 6.22158C187.89 6.25567 187.645 6.31107 187.418 6.38777C187.194 6.46164 187.012 6.57385 186.873 6.72442C186.736 6.87215 186.668 7.07385 186.668 7.32953C186.668 7.67897 186.797 7.94317 187.056 8.12215C187.317 8.29828 187.648 8.38635 188.049 8.38635ZM193.737 0.40908V9.13635H192.731V0.40908H193.737ZM200.215 4.05681L199.312 4.31249C199.255 4.16192 199.171 4.01561 199.06 3.87357C198.952 3.72868 198.805 3.60936 198.617 3.51561C198.43 3.42186 198.189 3.37499 197.897 3.37499C197.496 3.37499 197.162 3.46732 196.895 3.65198C196.631 3.8338 196.499 4.06533 196.499 4.34658C196.499 4.59658 196.59 4.79402 196.772 4.93891C196.954 5.0838 197.238 5.20453 197.624 5.30113L198.596 5.53976C199.181 5.68181 199.617 5.89914 199.904 6.19175C200.191 6.48152 200.334 6.8551 200.334 7.31249C200.334 7.68749 200.226 8.02272 200.01 8.31817C199.797 8.61363 199.499 8.84658 199.116 9.01703C198.732 9.18749 198.286 9.27272 197.778 9.27272C197.11 9.27272 196.557 9.12783 196.12 8.83806C195.682 8.54828 195.405 8.12499 195.289 7.56817L196.243 7.32953C196.334 7.68181 196.506 7.94601 196.759 8.12215C197.015 8.29828 197.349 8.38635 197.76 8.38635C198.229 8.38635 198.601 8.28692 198.877 8.08806C199.155 7.88635 199.295 7.64488 199.295 7.36363C199.295 7.13635 199.215 6.94601 199.056 6.7926C198.897 6.63635 198.653 6.51988 198.323 6.44317L197.232 6.18749C196.633 6.04544 196.192 5.82527 195.911 5.52698C195.633 5.22584 195.493 4.84942 195.493 4.39772C195.493 4.0284 195.597 3.70169 195.805 3.4176C196.015 3.13351 196.3 2.9105 196.661 2.74857C197.025 2.58664 197.437 2.50567 197.897 2.50567C198.545 2.50567 199.053 2.64772 199.422 2.93181C199.795 3.2159 200.059 3.5909 200.215 4.05681ZM203.348 7.94317L203.28 8.4034C203.232 8.72726 203.158 9.07385 203.058 9.44317C202.962 9.81249 202.861 10.1605 202.756 10.4872C202.651 10.8139 202.564 11.0739 202.496 11.267H201.729C201.766 11.0852 201.814 10.8452 201.874 10.5469C201.933 10.2486 201.993 9.91476 202.053 9.54544C202.115 9.17897 202.166 8.80397 202.206 8.42044L202.257 7.94317H203.348ZM210.513 9.28976C210.098 9.28976 209.721 9.21164 209.383 9.05539C209.045 8.8963 208.777 8.6676 208.578 8.36931C208.379 8.06817 208.28 7.70453 208.28 7.2784C208.28 6.9034 208.354 6.59942 208.501 6.36647C208.649 6.13067 208.846 5.94601 209.094 5.81249C209.341 5.67897 209.613 5.57953 209.912 5.51419C210.213 5.44601 210.515 5.39203 210.819 5.35226C211.217 5.30113 211.54 5.26277 211.787 5.2372C212.037 5.2088 212.219 5.16192 212.332 5.09658C212.449 5.03124 212.507 4.9176 212.507 4.75567V4.72158C212.507 4.30113 212.392 3.97442 212.162 3.74147C211.934 3.50851 211.589 3.39203 211.126 3.39203C210.646 3.39203 210.27 3.49715 209.997 3.70738C209.724 3.9176 209.532 4.14203 209.422 4.38067L208.467 4.03976C208.638 3.64203 208.865 3.33238 209.149 3.11078C209.436 2.88635 209.748 2.7301 210.086 2.64203C210.427 2.55113 210.763 2.50567 211.092 2.50567C211.302 2.50567 211.544 2.53124 211.817 2.58237C212.092 2.63067 212.358 2.73152 212.613 2.88493C212.872 3.03834 213.086 3.26988 213.257 3.57953C213.427 3.88919 213.513 4.30397 213.513 4.82385V9.13635H212.507V8.24999H212.456C212.388 8.39203 212.274 8.54402 212.115 8.70595C211.956 8.86789 211.744 9.00567 211.48 9.11931C211.216 9.23294 210.893 9.28976 210.513 9.28976ZM210.666 8.38635C211.064 8.38635 211.399 8.30823 211.672 8.15198C211.947 7.99573 212.155 7.79402 212.294 7.54686C212.436 7.2997 212.507 7.03976 212.507 6.76703V5.84658C212.464 5.89772 212.371 5.94459 212.226 5.9872C212.084 6.02698 211.919 6.06249 211.731 6.09374C211.547 6.12215 211.366 6.14772 211.19 6.17044C211.017 6.19033 210.876 6.20738 210.768 6.22158C210.507 6.25567 210.263 6.31107 210.035 6.38777C209.811 6.46164 209.629 6.57385 209.49 6.72442C209.354 6.87215 209.285 7.07385 209.285 7.32953C209.285 7.67897 209.415 7.94317 209.673 8.12215C209.934 8.29828 210.265 8.38635 210.666 8.38635ZM216.354 5.19885V9.13635H215.348V2.5909H216.32V3.61363H216.405C216.558 3.28124 216.791 3.01419 217.104 2.81249C217.416 2.60794 217.82 2.50567 218.314 2.50567C218.757 2.50567 219.145 2.59658 219.477 2.7784C219.81 2.95738 220.068 3.2301 220.253 3.59658C220.438 3.96022 220.53 4.42044 220.53 4.97726V9.13635H219.524V5.04544C219.524 4.53124 219.391 4.13067 219.124 3.84374C218.857 3.55397 218.49 3.40908 218.024 3.40908C217.703 3.40908 217.416 3.47868 217.164 3.61789C216.914 3.75709 216.716 3.96022 216.571 4.22726C216.426 4.49431 216.354 4.81817 216.354 5.19885ZM224.839 9.27272C224.294 9.27272 223.812 9.13493 223.395 8.85936C222.977 8.58095 222.65 8.18891 222.415 7.68323C222.179 7.1747 222.061 6.57385 222.061 5.88067C222.061 5.19317 222.179 4.59658 222.415 4.0909C222.65 3.58522 222.979 3.19459 223.399 2.91902C223.819 2.64345 224.305 2.50567 224.856 2.50567C225.282 2.50567 225.619 2.57669 225.866 2.71874C226.116 2.85794 226.307 3.01703 226.437 3.19601C226.571 3.37215 226.675 3.51703 226.748 3.63067H226.834V0.40908H227.839V9.13635H226.868V8.13067H226.748C226.675 8.24999 226.569 8.40056 226.433 8.58238C226.297 8.76135 226.102 8.92186 225.849 9.06391C225.596 9.20311 225.26 9.27272 224.839 9.27272ZM224.976 8.36931C225.379 8.36931 225.72 8.26419 225.998 8.05397C226.277 7.8409 226.488 7.54686 226.633 7.17186C226.778 6.79402 226.851 6.35794 226.851 5.86363C226.851 5.37499 226.78 4.94743 226.638 4.58095C226.496 4.21164 226.285 3.9247 226.007 3.72016C225.729 3.51277 225.385 3.40908 224.976 3.40908C224.55 3.40908 224.194 3.51845 223.91 3.7372C223.629 3.95311 223.417 4.24715 223.275 4.61931C223.136 4.98863 223.067 5.4034 223.067 5.86363C223.067 6.32953 223.138 6.75283 223.28 7.13351C223.425 7.51135 223.638 7.81249 223.919 8.03692C224.203 8.25851 224.555 8.36931 224.976 8.36931ZM234.202 5.19885V9.13635H233.196V0.40908H234.202V3.61363H234.287C234.44 3.27556 234.67 3.00709 234.977 2.80823C235.287 2.60652 235.699 2.50567 236.213 2.50567C236.659 2.50567 237.05 2.59516 237.385 2.77414C237.72 2.95027 237.98 3.22158 238.165 3.58806C238.352 3.95169 238.446 4.41476 238.446 4.97726V9.13635H237.44V5.04544C237.44 4.52556 237.305 4.12357 237.035 3.83948C236.768 3.55255 236.398 3.40908 235.923 3.40908C235.594 3.40908 235.298 3.47868 235.037 3.61789C234.778 3.75709 234.574 3.96022 234.423 4.22726C234.275 4.49431 234.202 4.81817 234.202 5.19885ZM243.03 9.27272C242.399 9.27272 241.855 9.13351 241.398 8.8551C240.943 8.57385 240.593 8.18181 240.345 7.67897C240.101 7.17328 239.979 6.58522 239.979 5.91476C239.979 5.24431 240.101 4.6534 240.345 4.14203C240.593 3.62783 240.936 3.22726 241.377 2.94033C241.82 2.65056 242.337 2.50567 242.928 2.50567C243.269 2.50567 243.605 2.56249 243.938 2.67612C244.27 2.78976 244.573 2.97442 244.845 3.2301C245.118 3.48294 245.335 3.81817 245.497 4.23578C245.659 4.6534 245.74 5.1676 245.74 5.7784V6.20453H240.695V5.33522H244.718C244.718 4.9659 244.644 4.63635 244.496 4.34658C244.351 4.05681 244.144 3.82811 243.874 3.6605C243.607 3.49289 243.291 3.40908 242.928 3.40908C242.527 3.40908 242.181 3.50851 241.888 3.70738C241.598 3.9034 241.375 4.15908 241.219 4.47442C241.063 4.78976 240.985 5.12783 240.985 5.48863V6.06817C240.985 6.56249 241.07 6.98152 241.24 7.32527C241.414 7.66618 241.654 7.92613 241.96 8.1051C242.267 8.28124 242.624 8.36931 243.03 8.36931C243.294 8.36931 243.533 8.33238 243.746 8.25851C243.962 8.18181 244.148 8.06817 244.304 7.9176C244.46 7.76419 244.581 7.57385 244.666 7.34658L245.638 7.61931C245.536 7.94885 245.364 8.23863 245.122 8.48863C244.881 8.73578 244.583 8.92897 244.227 9.06817C243.872 9.20453 243.473 9.27272 243.03 9.27272ZM249.196 9.28976C248.781 9.28976 248.405 9.21164 248.067 9.05539C247.729 8.8963 247.46 8.6676 247.262 8.36931C247.063 8.06817 246.963 7.70453 246.963 7.2784C246.963 6.9034 247.037 6.59942 247.185 6.36647C247.333 6.13067 247.53 5.94601 247.777 5.81249C248.024 5.67897 248.297 5.57953 248.595 5.51419C248.896 5.44601 249.199 5.39203 249.503 5.35226C249.901 5.30113 250.223 5.26277 250.47 5.2372C250.72 5.2088 250.902 5.16192 251.016 5.09658C251.132 5.03124 251.191 4.9176 251.191 4.75567V4.72158C251.191 4.30113 251.075 3.97442 250.845 3.74147C250.618 3.50851 250.273 3.39203 249.81 3.39203C249.33 3.39203 248.953 3.49715 248.681 3.70738C248.408 3.9176 248.216 4.14203 248.105 4.38067L247.151 4.03976C247.321 3.64203 247.548 3.33238 247.833 3.11078C248.119 2.88635 248.432 2.7301 248.77 2.64203C249.111 2.55113 249.446 2.50567 249.776 2.50567C249.986 2.50567 250.227 2.53124 250.5 2.58237C250.776 2.63067 251.041 2.73152 251.297 2.88493C251.556 3.03834 251.77 3.26988 251.941 3.57953C252.111 3.88919 252.196 4.30397 252.196 4.82385V9.13635H251.191V8.24999H251.139C251.071 8.39203 250.958 8.54402 250.798 8.70595C250.639 8.86789 250.428 9.00567 250.164 9.11931C249.899 9.23294 249.577 9.28976 249.196 9.28976ZM249.35 8.38635C249.747 8.38635 250.083 8.30823 250.355 8.15198C250.631 7.99573 250.838 7.79402 250.977 7.54686C251.119 7.2997 251.191 7.03976 251.191 6.76703V5.84658C251.148 5.89772 251.054 5.94459 250.909 5.9872C250.767 6.02698 250.602 6.06249 250.415 6.09374C250.23 6.12215 250.05 6.14772 249.874 6.17044C249.7 6.19033 249.56 6.20738 249.452 6.22158C249.191 6.25567 248.946 6.31107 248.719 6.38777C248.494 6.46164 248.313 6.57385 248.173 6.72442C248.037 6.87215 247.969 7.07385 247.969 7.32953C247.969 7.67897 248.098 7.94317 248.357 8.12215C248.618 8.29828 248.949 8.38635 249.35 8.38635ZM259.15 2.5909L256.729 9.13635H255.706L253.286 2.5909H254.377L256.184 7.80681H256.252L258.059 2.5909H259.15ZM261.125 11.5909C260.954 11.5909 260.802 11.5767 260.669 11.5483C260.535 11.5227 260.443 11.4971 260.392 11.4716L260.648 10.5852C260.892 10.6477 261.108 10.6704 261.295 10.6534C261.483 10.6364 261.649 10.5525 261.794 10.402C261.942 10.2543 262.077 10.0142 262.199 9.68181L262.386 9.17044L259.966 2.5909H261.057L262.863 7.80681H262.932L264.738 2.5909H265.829L263.051 10.0909C262.926 10.429 262.771 10.7088 262.586 10.9304C262.402 11.1548 262.187 11.321 261.943 11.429C261.702 11.5369 261.429 11.5909 261.125 11.5909ZM273.174 11.7273C272.688 11.7273 272.27 11.6648 271.921 11.5398C271.572 11.4176 271.28 11.2557 271.047 11.054C270.817 10.8551 270.634 10.642 270.498 10.4148L271.299 9.85226C271.39 9.97158 271.505 10.1079 271.644 10.2614C271.783 10.4176 271.974 10.5525 272.215 10.6662C272.459 10.7827 272.779 10.8409 273.174 10.8409C273.702 10.8409 274.138 10.7131 274.482 10.4574C274.826 10.2017 274.998 9.80113 274.998 9.25567V7.92613H274.912C274.839 8.04544 274.733 8.19317 274.597 8.36931C274.464 8.5426 274.27 8.69743 274.018 8.8338C273.768 8.96732 273.43 9.03408 273.003 9.03408C272.475 9.03408 272.001 8.90908 271.58 8.65908C271.162 8.40908 270.831 8.04544 270.587 7.56817C270.346 7.0909 270.225 6.51135 270.225 5.82953C270.225 5.15908 270.343 4.57527 270.579 4.07811C270.814 3.57811 271.143 3.19175 271.563 2.91902C271.983 2.64345 272.469 2.50567 273.02 2.50567C273.447 2.50567 273.785 2.57669 274.035 2.71874C274.287 2.85794 274.481 3.01703 274.614 3.19601C274.751 3.37215 274.856 3.51703 274.93 3.63067H275.032V2.5909H276.003V9.32385C276.003 9.88635 275.876 10.3437 275.62 10.696C275.367 11.0511 275.026 11.3111 274.597 11.4758C274.171 11.6435 273.697 11.7273 273.174 11.7273ZM273.14 8.13067C273.543 8.13067 273.884 8.03834 274.162 7.85368C274.441 7.66902 274.653 7.4034 274.797 7.05681C274.942 6.71022 275.015 6.29544 275.015 5.81249C275.015 5.3409 274.944 4.9247 274.802 4.56391C274.66 4.20311 274.449 3.92044 274.171 3.7159C273.893 3.51135 273.549 3.40908 273.14 3.40908C272.714 3.40908 272.358 3.51703 272.074 3.73294C271.793 3.94885 271.581 4.23863 271.439 4.60226C271.3 4.9659 271.231 5.36931 271.231 5.81249C271.231 6.26703 271.302 6.66902 271.444 7.01845C271.589 7.36505 271.802 7.63777 272.083 7.83664C272.367 8.03266 272.719 8.13067 273.14 8.13067ZM277.844 9.13635V2.5909H278.816V3.57953H278.884C279.003 3.25567 279.219 2.99289 279.532 2.79118C279.844 2.58948 280.197 2.48862 280.589 2.48862C280.662 2.48862 280.755 2.49005 280.866 2.49289C280.976 2.49573 281.06 2.49999 281.117 2.50567V3.5284C281.083 3.51988 281.005 3.50709 280.883 3.49005C280.763 3.47016 280.637 3.46022 280.503 3.46022C280.185 3.46022 279.901 3.52698 279.651 3.6605C279.404 3.79118 279.208 3.973 279.063 4.20595C278.921 4.43607 278.85 4.69885 278.85 4.99431V9.13635H277.844ZM284.235 9.28976C283.82 9.28976 283.444 9.21164 283.106 9.05539C282.768 8.8963 282.499 8.6676 282.301 8.36931C282.102 8.06817 282.002 7.70453 282.002 7.2784C282.002 6.9034 282.076 6.59942 282.224 6.36647C282.372 6.13067 282.569 5.94601 282.816 5.81249C283.063 5.67897 283.336 5.57953 283.634 5.51419C283.936 5.44601 284.238 5.39203 284.542 5.35226C284.94 5.30113 285.262 5.26277 285.509 5.2372C285.759 5.2088 285.941 5.16192 286.055 5.09658C286.171 5.03124 286.23 4.9176 286.23 4.75567V4.72158C286.23 4.30113 286.115 3.97442 285.884 3.74147C285.657 3.50851 285.312 3.39203 284.849 3.39203C284.369 3.39203 283.992 3.49715 283.72 3.70738C283.447 3.9176 283.255 4.14203 283.144 4.38067L282.19 4.03976C282.36 3.64203 282.588 3.33238 282.872 3.11078C283.159 2.88635 283.471 2.7301 283.809 2.64203C284.15 2.55113 284.485 2.50567 284.815 2.50567C285.025 2.50567 285.267 2.53124 285.539 2.58237C285.815 2.63067 286.08 2.73152 286.336 2.88493C286.595 3.03834 286.809 3.26988 286.98 3.57953C287.15 3.88919 287.235 4.30397 287.235 4.82385V9.13635H286.23V8.24999H286.178C286.11 8.39203 285.997 8.54402 285.838 8.70595C285.678 8.86789 285.467 9.00567 285.203 9.11931C284.938 9.23294 284.616 9.28976 284.235 9.28976ZM284.389 8.38635C284.786 8.38635 285.122 8.30823 285.394 8.15198C285.67 7.99573 285.877 7.79402 286.017 7.54686C286.159 7.2997 286.23 7.03976 286.23 6.76703V5.84658C286.187 5.89772 286.093 5.94459 285.948 5.9872C285.806 6.02698 285.642 6.06249 285.454 6.09374C285.269 6.12215 285.089 6.14772 284.913 6.17044C284.74 6.19033 284.599 6.20738 284.491 6.22158C284.23 6.25567 283.985 6.31107 283.758 6.38777C283.534 6.46164 283.352 6.57385 283.213 6.72442C283.076 6.87215 283.008 7.07385 283.008 7.32953C283.008 7.67897 283.137 7.94317 283.396 8.12215C283.657 8.29828 283.988 8.38635 284.389 8.38635ZM294.189 2.5909L291.768 9.13635H290.746L288.325 2.5909H289.416L291.223 7.80681H291.291L293.098 2.5909H294.189ZM295.516 9.13635V2.5909H296.522V9.13635H295.516ZM296.028 1.49999C295.831 1.49999 295.662 1.43323 295.52 1.2997C295.381 1.16618 295.312 1.00567 295.312 0.818171C295.312 0.630671 295.381 0.470159 295.52 0.336636C295.662 0.203114 295.831 0.136353 296.028 0.136353C296.224 0.136353 296.391 0.203114 296.53 0.336636C296.672 0.470159 296.743 0.630671 296.743 0.818171C296.743 1.00567 296.672 1.16618 296.53 1.2997C296.391 1.43323 296.224 1.49999 296.028 1.49999ZM301.108 9.27272C300.477 9.27272 299.933 9.13351 299.476 8.8551C299.021 8.57385 298.671 8.18181 298.423 7.67897C298.179 7.17328 298.057 6.58522 298.057 5.91476C298.057 5.24431 298.179 4.6534 298.423 4.14203C298.671 3.62783 299.014 3.22726 299.455 2.94033C299.898 2.65056 300.415 2.50567 301.006 2.50567C301.347 2.50567 301.683 2.56249 302.016 2.67612C302.348 2.78976 302.651 2.97442 302.923 3.2301C303.196 3.48294 303.414 3.81817 303.575 4.23578C303.737 4.6534 303.818 5.1676 303.818 5.7784V6.20453H298.773V5.33522H302.796C302.796 4.9659 302.722 4.63635 302.574 4.34658C302.429 4.05681 302.222 3.82811 301.952 3.6605C301.685 3.49289 301.369 3.40908 301.006 3.40908C300.605 3.40908 300.259 3.50851 299.966 3.70738C299.676 3.9034 299.453 4.15908 299.297 4.47442C299.141 4.78976 299.063 5.12783 299.063 5.48863V6.06817C299.063 6.56249 299.148 6.98152 299.318 7.32527C299.492 7.66618 299.732 7.92613 300.039 8.1051C300.345 8.28124 300.702 8.36931 301.108 8.36931C301.372 8.36931 301.611 8.33238 301.824 8.25851C302.04 8.18181 302.226 8.06817 302.382 7.9176C302.539 7.76419 302.659 7.57385 302.744 7.34658L303.716 7.61931C303.614 7.94885 303.442 8.23863 303.2 8.48863C302.959 8.73578 302.661 8.92897 302.306 9.06817C301.95 9.20453 301.551 9.27272 301.108 9.27272ZM309.985 4.05681L309.081 4.31249C309.024 4.16192 308.941 4.01561 308.83 3.87357C308.722 3.72868 308.574 3.60936 308.387 3.51561C308.199 3.42186 307.959 3.37499 307.666 3.37499C307.266 3.37499 306.932 3.46732 306.665 3.65198C306.401 3.8338 306.269 4.06533 306.269 4.34658C306.269 4.59658 306.36 4.79402 306.541 4.93891C306.723 5.0838 307.007 5.20453 307.394 5.30113L308.365 5.53976C308.95 5.68181 309.387 5.89914 309.673 6.19175C309.96 6.48152 310.104 6.8551 310.104 7.31249C310.104 7.68749 309.996 8.02272 309.78 8.31817C309.567 8.61363 309.269 8.84658 308.885 9.01703C308.502 9.18749 308.056 9.27272 307.547 9.27272C306.879 9.27272 306.327 9.12783 305.889 8.83806C305.452 8.54828 305.175 8.12499 305.058 7.56817L306.013 7.32953C306.104 7.68181 306.276 7.94601 306.529 8.12215C306.784 8.29828 307.118 8.38635 307.53 8.38635C307.999 8.38635 308.371 8.28692 308.646 8.08806C308.925 7.88635 309.064 7.64488 309.064 7.36363C309.064 7.13635 308.985 6.94601 308.825 6.7926C308.666 6.63635 308.422 6.51988 308.093 6.44317L307.002 6.18749C306.402 6.04544 305.962 5.82527 305.681 5.52698C305.402 5.22584 305.263 4.84942 305.263 4.39772C305.263 4.0284 305.367 3.70169 305.574 3.4176C305.784 3.13351 306.07 2.9105 306.431 2.74857C306.794 2.58664 307.206 2.50567 307.666 2.50567C308.314 2.50567 308.823 2.64772 309.192 2.93181C309.564 3.2159 309.828 3.5909 309.985 4.05681ZM312.351 9.20453C312.14 9.20453 311.96 9.12925 311.809 8.97868C311.659 8.82811 311.584 8.64772 311.584 8.43749C311.584 8.22726 311.659 8.04686 311.809 7.8963C311.96 7.74573 312.14 7.67044 312.351 7.67044C312.561 7.67044 312.741 7.74573 312.892 7.8963C313.042 8.04686 313.118 8.22726 313.118 8.43749C313.118 8.57669 313.082 8.70453 313.011 8.82101C312.943 8.93749 312.851 9.03124 312.734 9.10226C312.621 9.17044 312.493 9.20453 312.351 9.20453ZM318.434 9.13635V0.40908H321.383C322.067 0.40908 322.627 0.532659 323.062 0.779818C323.499 1.02414 323.823 1.3551 324.033 1.77272C324.243 2.19033 324.349 2.65624 324.349 3.17044C324.349 3.68465 324.243 4.15198 324.033 4.57243C323.826 4.99289 323.505 5.32811 323.07 5.57811C322.635 5.82527 322.079 5.94885 321.4 5.94885H319.286V5.01135H321.366C321.834 5.01135 322.211 4.93039 322.495 4.76845C322.779 4.60652 322.985 4.38777 323.113 4.1122C323.243 3.8338 323.309 3.51988 323.309 3.17044C323.309 2.82101 323.243 2.50851 323.113 2.23294C322.985 1.95738 322.778 1.74147 322.491 1.58522C322.204 1.42613 321.823 1.34658 321.349 1.34658H319.491V9.13635H318.434ZM325.915 9.13635V2.5909H326.886V3.57953H326.954C327.074 3.25567 327.29 2.99289 327.602 2.79118C327.915 2.58948 328.267 2.48862 328.659 2.48862C328.733 2.48862 328.825 2.49005 328.936 2.49289C329.047 2.49573 329.131 2.49999 329.187 2.50567V3.5284C329.153 3.51988 329.075 3.50709 328.953 3.49005C328.834 3.47016 328.707 3.46022 328.574 3.46022C328.256 3.46022 327.971 3.52698 327.721 3.6605C327.474 3.79118 327.278 3.973 327.133 4.20595C326.991 4.43607 326.92 4.69885 326.92 4.99431V9.13635H325.915ZM332.925 9.27272C332.294 9.27272 331.75 9.13351 331.292 8.8551C330.838 8.57385 330.487 8.18181 330.24 7.67897C329.996 7.17328 329.873 6.58522 329.873 5.91476C329.873 5.24431 329.996 4.6534 330.24 4.14203C330.487 3.62783 330.831 3.22726 331.271 2.94033C331.714 2.65056 332.231 2.50567 332.822 2.50567C333.163 2.50567 333.5 2.56249 333.832 2.67612C334.165 2.78976 334.467 2.97442 334.74 3.2301C335.013 3.48294 335.23 3.81817 335.392 4.23578C335.554 4.6534 335.635 5.1676 335.635 5.7784V6.20453H330.589V5.33522H334.612C334.612 4.9659 334.538 4.63635 334.39 4.34658C334.246 4.05681 334.038 3.82811 333.768 3.6605C333.501 3.49289 333.186 3.40908 332.822 3.40908C332.422 3.40908 332.075 3.50851 331.782 3.70738C331.493 3.9034 331.27 4.15908 331.113 4.47442C330.957 4.78976 330.879 5.12783 330.879 5.48863V6.06817C330.879 6.56249 330.964 6.98152 331.135 7.32527C331.308 7.66618 331.548 7.92613 331.855 8.1051C332.162 8.28124 332.518 8.36931 332.925 8.36931C333.189 8.36931 333.427 8.33238 333.64 8.25851C333.856 8.18181 334.042 8.06817 334.199 7.9176C334.355 7.76419 334.476 7.57385 334.561 7.34658L335.532 7.61931C335.43 7.94885 335.258 8.23863 335.017 8.48863C334.775 8.73578 334.477 8.92897 334.122 9.06817C333.767 9.20453 333.368 9.27272 332.925 9.27272ZM337.165 9.13635V2.5909H338.136V3.61363H338.221C338.358 3.26419 338.578 2.99289 338.882 2.7997C339.186 2.60368 339.551 2.50567 339.977 2.50567C340.409 2.50567 340.768 2.60368 341.055 2.7997C341.345 2.99289 341.571 3.26419 341.733 3.61363H341.801C341.969 3.27556 342.22 3.00709 342.555 2.80823C342.89 2.60652 343.292 2.50567 343.761 2.50567C344.346 2.50567 344.825 2.68891 345.197 3.05539C345.569 3.41902 345.756 3.98578 345.756 4.75567V9.13635H344.75V4.75567C344.75 4.27272 344.618 3.92755 344.354 3.72016C344.089 3.51277 343.778 3.40908 343.42 3.40908C342.96 3.40908 342.604 3.54828 342.351 3.82669C342.098 4.10226 341.971 4.45169 341.971 4.87499V9.13635H340.949V4.6534C340.949 4.28124 340.828 3.98152 340.586 3.75425C340.345 3.52414 340.034 3.40908 339.653 3.40908C339.392 3.40908 339.148 3.47868 338.92 3.61789C338.696 3.75709 338.514 3.95027 338.375 4.19743C338.238 4.44175 338.17 4.72442 338.17 5.04544V9.13635H337.165ZM347.594 9.13635V2.5909H348.6V9.13635H347.594ZM348.106 1.49999C347.91 1.49999 347.741 1.43323 347.599 1.2997C347.459 1.16618 347.39 1.00567 347.39 0.818171C347.39 0.630671 347.459 0.470159 347.599 0.336636C347.741 0.203114 347.91 0.136353 348.106 0.136353C348.302 0.136353 348.469 0.203114 348.608 0.336636C348.751 0.470159 348.822 0.630671 348.822 0.818171C348.822 1.00567 348.751 1.16618 348.608 1.2997C348.469 1.43323 348.302 1.49999 348.106 1.49999ZM354.567 6.46022V2.5909H355.573V9.13635H354.567V8.0284H354.499C354.345 8.36078 354.107 8.64345 353.783 8.87641C353.459 9.10652 353.05 9.22158 352.556 9.22158C352.146 9.22158 351.783 9.13209 351.465 8.95311C351.146 8.7713 350.896 8.49857 350.715 8.13493C350.533 7.76845 350.442 7.30681 350.442 6.74999V2.5909H351.448V6.68181C351.448 7.15908 351.581 7.53976 351.848 7.82385C352.118 8.10794 352.462 8.24999 352.879 8.24999C353.129 8.24999 353.384 8.18607 353.642 8.05823C353.904 7.93039 354.122 7.73436 354.298 7.47016C354.477 7.20595 354.567 6.86931 354.567 6.46022ZM357.415 9.13635V2.5909H358.386V3.61363H358.471C358.608 3.26419 358.828 2.99289 359.132 2.7997C359.436 2.60368 359.801 2.50567 360.227 2.50567C360.659 2.50567 361.018 2.60368 361.305 2.7997C361.595 2.99289 361.821 3.26419 361.983 3.61363H362.051C362.219 3.27556 362.47 3.00709 362.805 2.80823C363.14 2.60652 363.542 2.50567 364.011 2.50567C364.596 2.50567 365.075 2.68891 365.447 3.05539C365.819 3.41902 366.006 3.98578 366.006 4.75567V9.13635H365V4.75567C365 4.27272 364.868 3.92755 364.604 3.72016C364.339 3.51277 364.028 3.40908 363.67 3.40908C363.21 3.40908 362.854 3.54828 362.601 3.82669C362.348 4.10226 362.221 4.45169 362.221 4.87499V9.13635H361.199V4.6534C361.199 4.28124 361.078 3.98152 360.836 3.75425C360.595 3.52414 360.284 3.40908 359.903 3.40908C359.642 3.40908 359.398 3.47868 359.17 3.61789C358.946 3.75709 358.764 3.95027 358.625 4.19743C358.488 4.44175 358.42 4.72442 358.42 5.04544V9.13635H357.415ZM371.356 9.13635V0.40908H372.361V3.63067H372.447C372.52 3.51703 372.623 3.37215 372.753 3.19601C372.887 3.01703 373.077 2.85794 373.324 2.71874C373.574 2.57669 373.912 2.50567 374.339 2.50567C374.89 2.50567 375.376 2.64345 375.796 2.91902C376.216 3.19459 376.545 3.58522 376.78 4.0909C377.016 4.59658 377.134 5.19317 377.134 5.88067C377.134 6.57385 377.016 7.1747 376.78 7.68323C376.545 8.18891 376.218 8.58095 375.8 8.85936C375.383 9.13493 374.901 9.27272 374.356 9.27272C373.935 9.27272 373.599 9.20311 373.346 9.06391C373.093 8.92186 372.898 8.76135 372.762 8.58238C372.626 8.40056 372.52 8.24999 372.447 8.13067H372.327V9.13635H371.356ZM372.344 5.86363C372.344 6.35794 372.417 6.79402 372.562 7.17186C372.706 7.54686 372.918 7.8409 373.197 8.05397C373.475 8.26419 373.816 8.36931 374.219 8.36931C374.64 8.36931 374.991 8.25851 375.272 8.03692C375.556 7.81249 375.769 7.51135 375.911 7.13351C376.056 6.75283 376.128 6.32953 376.128 5.86363C376.128 5.4034 376.057 4.98863 375.915 4.61931C375.776 4.24715 375.564 3.95311 375.28 3.7372C374.999 3.51845 374.645 3.40908 374.219 3.40908C373.81 3.40908 373.466 3.51277 373.188 3.72016C372.91 3.9247 372.699 4.21164 372.557 4.58095C372.415 4.94743 372.344 5.37499 372.344 5.86363ZM382.797 6.46022V2.5909H383.803V9.13635H382.797V8.0284H382.729C382.576 8.36078 382.337 8.64345 382.013 8.87641C381.689 9.10652 381.28 9.22158 380.786 9.22158C380.377 9.22158 380.013 9.13209 379.695 8.95311C379.377 8.7713 379.127 8.49857 378.945 8.13493C378.763 7.76845 378.672 7.30681 378.672 6.74999V2.5909H379.678V6.68181C379.678 7.15908 379.812 7.53976 380.079 7.82385C380.349 8.10794 380.692 8.24999 381.11 8.24999C381.36 8.24999 381.614 8.18607 381.873 8.05823C382.134 7.93039 382.353 7.73436 382.529 7.47016C382.708 7.20595 382.797 6.86931 382.797 6.46022ZM385.645 9.13635V2.5909H386.651V9.13635H385.645ZM386.156 1.49999C385.96 1.49999 385.791 1.43323 385.649 1.2997C385.51 1.16618 385.441 1.00567 385.441 0.818171C385.441 0.630671 385.51 0.470159 385.649 0.336636C385.791 0.203114 385.96 0.136353 386.156 0.136353C386.352 0.136353 386.52 0.203114 386.659 0.336636C386.801 0.470159 386.872 0.630671 386.872 0.818171C386.872 1.00567 386.801 1.16618 386.659 1.2997C386.52 1.43323 386.352 1.49999 386.156 1.49999ZM389.498 0.40908V9.13635H388.493V0.40908H389.498ZM393.812 9.27272C393.267 9.27272 392.785 9.13493 392.367 8.85936C391.95 8.58095 391.623 8.18891 391.387 7.68323C391.151 7.1747 391.034 6.57385 391.034 5.88067C391.034 5.19317 391.151 4.59658 391.387 4.0909C391.623 3.58522 391.951 3.19459 392.372 2.91902C392.792 2.64345 393.278 2.50567 393.829 2.50567C394.255 2.50567 394.592 2.57669 394.839 2.71874C395.089 2.85794 395.279 3.01703 395.41 3.19601C395.544 3.37215 395.647 3.51703 395.721 3.63067H395.806V0.40908H396.812V9.13635H395.84V8.13067H395.721C395.647 8.24999 395.542 8.40056 395.406 8.58238C395.269 8.76135 395.075 8.92186 394.822 9.06391C394.569 9.20311 394.232 9.27272 393.812 9.27272ZM393.948 8.36931C394.352 8.36931 394.693 8.26419 394.971 8.05397C395.249 7.8409 395.461 7.54686 395.606 7.17186C395.751 6.79402 395.823 6.35794 395.823 5.86363C395.823 5.37499 395.752 4.94743 395.61 4.58095C395.468 4.21164 395.258 3.9247 394.98 3.72016C394.701 3.51277 394.357 3.40908 393.948 3.40908C393.522 3.40908 393.167 3.51845 392.883 3.7372C392.602 3.95311 392.39 4.24715 392.248 4.61931C392.109 4.98863 392.039 5.4034 392.039 5.86363C392.039 6.32953 392.11 6.75283 392.252 7.13351C392.397 7.51135 392.61 7.81249 392.892 8.03692C393.176 8.25851 393.528 8.36931 393.948 8.36931ZM34.2045 24.2727C33.6136 24.2727 33.0952 24.1321 32.6491 23.8508C32.206 23.5696 31.8594 23.1761 31.6094 22.6704C31.3622 22.1648 31.2386 21.5739 31.2386 20.8977C31.2386 20.2159 31.3622 19.6207 31.6094 19.1122C31.8594 18.6037 32.206 18.2088 32.6491 17.9275C33.0952 17.6463 33.6136 17.5057 34.2045 17.5057C34.7955 17.5057 35.3125 17.6463 35.7557 17.9275C36.2017 18.2088 36.5483 18.6037 36.7955 19.1122C37.0455 19.6207 37.1705 20.2159 37.1705 20.8977C37.1705 21.5739 37.0455 22.1648 36.7955 22.6704C36.5483 23.1761 36.2017 23.5696 35.7557 23.8508C35.3125 24.1321 34.7955 24.2727 34.2045 24.2727ZM34.2045 23.3693C34.6534 23.3693 35.0227 23.2543 35.3125 23.0241C35.6023 22.794 35.8168 22.4915 35.956 22.1165C36.0952 21.7415 36.1648 21.3352 36.1648 20.8977C36.1648 20.4602 36.0952 20.0525 35.956 19.6747C35.8168 19.2969 35.6023 18.9915 35.3125 18.7585C35.0227 18.5256 34.6534 18.4091 34.2045 18.4091C33.7557 18.4091 33.3864 18.5256 33.0966 18.7585C32.8068 18.9915 32.5923 19.2969 32.4531 19.6747C32.3139 20.0525 32.2443 20.4602 32.2443 20.8977C32.2443 21.3352 32.3139 21.7415 32.4531 22.1165C32.5923 22.4915 32.8068 22.794 33.0966 23.0241C33.3864 23.2543 33.7557 23.3693 34.2045 23.3693ZM41.6204 17.5909V18.4432H38.092V17.5909H41.6204ZM39.1488 24.1364V16.6875C39.1488 16.3125 39.2369 16 39.413 15.75C39.5891 15.5 39.8178 15.3125 40.0991 15.1875C40.3803 15.0625 40.6772 15 40.9897 15C41.2369 15 41.4386 15.0199 41.5948 15.0596C41.7511 15.0994 41.8675 15.1364 41.9442 15.1704L41.6545 16.0398C41.6033 16.0227 41.5323 16.0014 41.4414 15.9758C41.3533 15.9503 41.2369 15.9375 41.092 15.9375C40.7596 15.9375 40.5195 16.0213 40.3718 16.1889C40.2269 16.3565 40.1545 16.6023 40.1545 16.9261V24.1364H39.1488ZM45.9446 17.5909V18.4432H42.4162V17.5909H45.9446ZM43.473 24.1364V16.6875C43.473 16.3125 43.5611 16 43.7372 15.75C43.9134 15.5 44.142 15.3125 44.4233 15.1875C44.7045 15.0625 45.0014 15 45.3139 15C45.5611 15 45.7628 15.0199 45.919 15.0596C46.0753 15.0994 46.1918 15.1364 46.2685 15.1704L45.9787 16.0398C45.9276 16.0227 45.8565 16.0014 45.7656 15.9758C45.6776 15.9503 45.5611 15.9375 45.4162 15.9375C45.0838 15.9375 44.8438 16.0213 44.696 16.1889C44.5511 16.3565 44.4787 16.6023 44.4787 16.9261V24.1364H43.473ZM49.8288 24.2727C49.1982 24.2727 48.6541 24.1335 48.1967 23.8551C47.7422 23.5739 47.3913 23.1818 47.1442 22.679C46.8999 22.1733 46.7777 21.5852 46.7777 20.9148C46.7777 20.2443 46.8999 19.6534 47.1442 19.142C47.3913 18.6278 47.7351 18.2273 48.1754 17.9403C48.6186 17.6506 49.1357 17.5057 49.7266 17.5057C50.0675 17.5057 50.4041 17.5625 50.7365 17.6761C51.0689 17.7898 51.3714 17.9744 51.6442 18.2301C51.9169 18.4829 52.1342 18.8182 52.2962 19.2358C52.4581 19.6534 52.5391 20.1676 52.5391 20.7784V21.2045H47.4936V20.3352H51.5163C51.5163 19.9659 51.4425 19.6364 51.2947 19.3466C51.1499 19.0568 50.9425 18.8281 50.6726 18.6605C50.4055 18.4929 50.0902 18.4091 49.7266 18.4091C49.326 18.4091 48.9794 18.5085 48.6868 18.7074C48.397 18.9034 48.174 19.1591 48.0178 19.4744C47.8615 19.7898 47.7834 20.1278 47.7834 20.4886V21.0682C47.7834 21.5625 47.8686 21.9815 48.0391 22.3253C48.2124 22.6662 48.4524 22.9261 48.7592 23.1051C49.0661 23.2812 49.4226 23.3693 49.8288 23.3693C50.093 23.3693 50.3317 23.3324 50.5447 23.2585C50.7607 23.1818 50.9467 23.0682 51.103 22.9176C51.2592 22.7642 51.38 22.5739 51.4652 22.3466L52.4368 22.6193C52.3345 22.9489 52.1626 23.2386 51.9212 23.4886C51.6797 23.7358 51.3814 23.929 51.0263 24.0682C50.6712 24.2045 50.272 24.2727 49.8288 24.2727ZM54.0689 24.1364V17.5909H55.0405V18.5795H55.1087C55.228 18.2557 55.4439 17.9929 55.7564 17.7912C56.0689 17.5895 56.4212 17.4886 56.8132 17.4886C56.8871 17.4886 56.9794 17.49 57.0902 17.4929C57.201 17.4957 57.2848 17.5 57.3416 17.5057V18.5284C57.3075 18.5199 57.2294 18.5071 57.1072 18.49C56.9879 18.4702 56.8615 18.4602 56.728 18.4602C56.4098 18.4602 56.1257 18.527 55.8757 18.6605C55.6286 18.7912 55.4325 18.973 55.2876 19.206C55.1456 19.4361 55.0746 19.6989 55.0746 19.9943V24.1364H54.0689ZM63.1701 19.0568L62.2667 19.3125C62.2099 19.1619 62.1261 19.0156 62.0153 18.8736C61.9073 18.7287 61.7596 18.6094 61.5721 18.5156C61.3846 18.4219 61.1445 18.375 60.8519 18.375C60.4513 18.375 60.1175 18.4673 59.8505 18.652C59.5863 18.8338 59.4542 19.0653 59.4542 19.3466C59.4542 19.5966 59.5451 19.794 59.7269 19.9389C59.9087 20.0838 60.1928 20.2045 60.5792 20.3011L61.5508 20.5398C62.136 20.6818 62.5721 20.8991 62.859 21.1918C63.146 21.4815 63.2894 21.8551 63.2894 22.3125C63.2894 22.6875 63.1815 23.0227 62.9656 23.3182C62.7525 23.6136 62.4542 23.8466 62.0707 24.017C61.6871 24.1875 61.2411 24.2727 60.7326 24.2727C60.065 24.2727 59.5124 24.1278 59.0749 23.8381C58.6374 23.5483 58.3604 23.125 58.244 22.5682L59.1985 22.3295C59.2894 22.6818 59.4613 22.946 59.7141 23.1221C59.9698 23.2983 60.3036 23.3864 60.7156 23.3864C61.1843 23.3864 61.5565 23.2869 61.832 23.0881C62.1104 22.8864 62.2496 22.6449 62.2496 22.3636C62.2496 22.1364 62.1701 21.946 62.011 21.7926C61.8519 21.6364 61.6076 21.5199 61.2781 21.4432L60.1871 21.1875C59.5877 21.0454 59.1474 20.8253 58.8661 20.527C58.5877 20.2258 58.4485 19.8494 58.4485 19.3977C58.4485 19.0284 58.5522 18.7017 58.7596 18.4176C58.9698 18.1335 59.2553 17.9105 59.6161 17.7486C59.9798 17.5866 60.3917 17.5057 60.8519 17.5057C61.4996 17.5057 62.0082 17.6477 62.3775 17.9318C62.7496 18.2159 63.0138 18.5909 63.1701 19.0568ZM72.8146 19.0568L71.9112 19.3125C71.8544 19.1619 71.7706 19.0156 71.6598 18.8736C71.5518 18.7287 71.4041 18.6094 71.2166 18.5156C71.0291 18.4219 70.7891 18.375 70.4964 18.375C70.0959 18.375 69.7621 18.4673 69.495 18.652C69.2308 18.8338 69.0987 19.0653 69.0987 19.3466C69.0987 19.5966 69.1896 19.794 69.3714 19.9389C69.5533 20.0838 69.8374 20.2045 70.2237 20.3011L71.1953 20.5398C71.7805 20.6818 72.2166 20.8991 72.5036 21.1918C72.7905 21.4815 72.9339 21.8551 72.9339 22.3125C72.9339 22.6875 72.826 23.0227 72.6101 23.3182C72.397 23.6136 72.0987 23.8466 71.7152 24.017C71.3317 24.1875 70.8857 24.2727 70.3771 24.2727C69.7095 24.2727 69.157 24.1278 68.7195 23.8381C68.282 23.5483 68.005 23.125 67.8885 22.5682L68.843 22.3295C68.9339 22.6818 69.1058 22.946 69.3587 23.1221C69.6143 23.2983 69.9482 23.3864 70.3601 23.3864C70.8288 23.3864 71.201 23.2869 71.4766 23.0881C71.755 22.8864 71.8942 22.6449 71.8942 22.3636C71.8942 22.1364 71.8146 21.946 71.6555 21.7926C71.4964 21.6364 71.2521 21.5199 70.9226 21.4432L69.8317 21.1875C69.2322 21.0454 68.7919 20.8253 68.5107 20.527C68.2322 20.2258 68.093 19.8494 68.093 19.3977C68.093 19.0284 68.1967 18.7017 68.4041 18.4176C68.6143 18.1335 68.8999 17.9105 69.2607 17.7486C69.6243 17.5866 70.0362 17.5057 70.4964 17.5057C71.1442 17.5057 71.6527 17.6477 72.022 17.9318C72.3942 18.2159 72.6584 18.5909 72.8146 19.0568ZM77.1921 24.2727C76.5614 24.2727 76.0174 24.1335 75.56 23.8551C75.1055 23.5739 74.7546 23.1818 74.5075 22.679C74.2631 22.1733 74.141 21.5852 74.141 20.9148C74.141 20.2443 74.2631 19.6534 74.5075 19.142C74.7546 18.6278 75.0984 18.2273 75.5387 17.9403C75.9819 17.6506 76.4989 17.5057 77.0898 17.5057C77.4308 17.5057 77.7674 17.5625 78.0998 17.6761C78.4322 17.7898 78.7347 17.9744 79.0075 18.2301C79.2802 18.4829 79.4975 18.8182 79.6594 19.2358C79.8214 19.6534 79.9023 20.1676 79.9023 20.7784V21.2045H74.8569V20.3352H78.8796C78.8796 19.9659 78.8058 19.6364 78.658 19.3466C78.5131 19.0568 78.3058 18.8281 78.0359 18.6605C77.7688 18.4929 77.4535 18.4091 77.0898 18.4091C76.6893 18.4091 76.3427 18.5085 76.0501 18.7074C75.7603 18.9034 75.5373 19.1591 75.381 19.4744C75.2248 19.7898 75.1467 20.1278 75.1467 20.4886V21.0682C75.1467 21.5625 75.2319 21.9815 75.4023 22.3253C75.5756 22.6662 75.8157 22.9261 76.1225 23.1051C76.4293 23.2812 76.7859 23.3693 77.1921 23.3693C77.4563 23.3693 77.695 23.3324 77.908 23.2585C78.1239 23.1818 78.31 23.0682 78.4663 22.9176C78.6225 22.7642 78.7433 22.5739 78.8285 22.3466L79.8001 22.6193C79.6978 22.9489 79.5259 23.2386 79.2844 23.4886C79.043 23.7358 78.7447 23.929 78.3896 24.0682C78.0344 24.2045 77.6353 24.2727 77.1921 24.2727ZM84.0913 24.2727C83.4776 24.2727 82.9492 24.1278 82.506 23.8381C82.0629 23.5483 81.7219 23.1491 81.4833 22.6406C81.2447 22.1321 81.1254 21.5511 81.1254 20.8977C81.1254 20.2329 81.2475 19.6463 81.4918 19.1378C81.739 18.6264 82.0827 18.2273 82.5231 17.9403C82.9663 17.6506 83.4833 17.5057 84.0742 17.5057C84.5344 17.5057 84.9492 17.5909 85.3185 17.7614C85.6879 17.9318 85.9904 18.1704 86.2262 18.4773C86.462 18.7841 86.6083 19.142 86.6651 19.5511H85.6594C85.5827 19.2528 85.4123 18.9886 85.1481 18.7585C84.8867 18.5256 84.5344 18.4091 84.0913 18.4091C83.6992 18.4091 83.3555 18.5114 83.06 18.7159C82.7674 18.9176 82.5387 19.2031 82.3739 19.5724C82.212 19.9389 82.131 20.3693 82.131 20.8636C82.131 21.3693 82.2106 21.8096 82.3697 22.1846C82.5316 22.5596 82.7589 22.8508 83.0515 23.0582C83.3469 23.2656 83.6935 23.3693 84.0913 23.3693C84.3526 23.3693 84.5898 23.3239 84.8029 23.2329C85.016 23.142 85.1964 23.0114 85.3441 22.8409C85.4918 22.6704 85.5969 22.4659 85.6594 22.2273H86.6651C86.6083 22.6136 86.4677 22.9616 86.2433 23.2713C86.0217 23.5781 85.7276 23.8224 85.3612 24.0043C84.9975 24.1832 84.5742 24.2727 84.0913 24.2727ZM92.2603 21.4602V17.5909H93.266V24.1364H92.2603V23.0284H92.1921C92.0387 23.3608 91.8001 23.6435 91.4762 23.8764C91.1523 24.1065 90.7433 24.2216 90.2489 24.2216C89.8398 24.2216 89.4762 24.1321 89.158 23.9531C88.8398 23.7713 88.5898 23.4986 88.408 23.1349C88.2262 22.7685 88.1353 22.3068 88.1353 21.75V17.5909H89.141V21.6818C89.141 22.1591 89.2745 22.5398 89.5415 22.8239C89.8114 23.1079 90.1552 23.25 90.5728 23.25C90.8228 23.25 91.0771 23.1861 91.3356 23.0582C91.5969 22.9304 91.8157 22.7344 91.9918 22.4702C92.1708 22.206 92.2603 21.8693 92.2603 21.4602ZM95.108 24.1364V17.5909H96.0795V18.5795H96.1477C96.267 18.2557 96.483 17.9929 96.7955 17.7912C97.108 17.5895 97.4602 17.4886 97.8523 17.4886C97.9261 17.4886 98.0185 17.49 98.1293 17.4929C98.2401 17.4957 98.3239 17.5 98.3807 17.5057V18.5284C98.3466 18.5199 98.2685 18.5071 98.1463 18.49C98.027 18.4702 97.9006 18.4602 97.767 18.4602C97.4489 18.4602 97.1648 18.527 96.9148 18.6605C96.6676 18.7912 96.4716 18.973 96.3267 19.206C96.1847 19.4361 96.1136 19.6989 96.1136 19.9943V24.1364H95.108ZM102.118 24.2727C101.487 24.2727 100.943 24.1335 100.486 23.8551C100.031 23.5739 99.6804 23.1818 99.4332 22.679C99.1889 22.1733 99.0668 21.5852 99.0668 20.9148C99.0668 20.2443 99.1889 19.6534 99.4332 19.142C99.6804 18.6278 100.024 18.2273 100.464 17.9403C100.908 17.6506 101.425 17.5057 102.016 17.5057C102.357 17.5057 102.693 17.5625 103.026 17.6761C103.358 17.7898 103.661 17.9744 103.933 18.2301C104.206 18.4829 104.423 18.8182 104.585 19.2358C104.747 19.6534 104.828 20.1676 104.828 20.7784V21.2045H99.7827V20.3352H103.805C103.805 19.9659 103.732 19.6364 103.584 19.3466C103.439 19.0568 103.232 18.8281 102.962 18.6605C102.695 18.4929 102.379 18.4091 102.016 18.4091C101.615 18.4091 101.268 18.5085 100.976 18.7074C100.686 18.9034 100.463 19.1591 100.307 19.4744C100.151 19.7898 100.072 20.1278 100.072 20.4886V21.0682C100.072 21.5625 100.158 21.9815 100.328 22.3253C100.501 22.6662 100.741 22.9261 101.048 23.1051C101.355 23.2812 101.712 23.3693 102.118 23.3693C102.382 23.3693 102.621 23.3324 102.834 23.2585C103.05 23.1818 103.236 23.0682 103.392 22.9176C103.548 22.7642 103.669 22.5739 103.754 22.3466L104.726 22.6193C104.624 22.9489 104.452 23.2386 104.21 23.4886C103.969 23.7358 103.67 23.929 103.315 24.0682C102.96 24.2045 102.561 24.2727 102.118 24.2727ZM112.58 17.5909V18.4432H109.188V17.5909H112.58ZM110.176 16.0227H111.182V22.2614C111.182 22.5454 111.223 22.7585 111.305 22.9006C111.391 23.0398 111.499 23.1335 111.629 23.1818C111.763 23.2273 111.903 23.25 112.051 23.25C112.162 23.25 112.253 23.2443 112.324 23.2329C112.395 23.2187 112.452 23.2074 112.494 23.1989L112.699 24.1023C112.631 24.1278 112.536 24.1534 112.413 24.179C112.291 24.2074 112.136 24.2216 111.949 24.2216C111.665 24.2216 111.386 24.1605 111.114 24.0383C110.844 23.9162 110.619 23.7301 110.44 23.4801C110.264 23.2301 110.176 22.9148 110.176 22.5341V16.0227ZM114.092 24.1364V17.5909H115.064V18.5795H115.132C115.251 18.2557 115.467 17.9929 115.78 17.7912C116.092 17.5895 116.445 17.4886 116.837 17.4886C116.911 17.4886 117.003 17.49 117.114 17.4929C117.224 17.4957 117.308 17.5 117.365 17.5057V18.5284C117.331 18.5199 117.253 18.5071 117.131 18.49C117.011 18.4702 116.885 18.4602 116.751 18.4602C116.433 18.4602 116.149 18.527 115.899 18.6605C115.652 18.7912 115.456 18.973 115.311 19.206C115.169 19.4361 115.098 19.6989 115.098 19.9943V24.1364H114.092ZM120.483 24.2898C120.069 24.2898 119.692 24.2116 119.354 24.0554C119.016 23.8963 118.748 23.6676 118.549 23.3693C118.35 23.0682 118.25 22.7045 118.25 22.2784C118.25 21.9034 118.324 21.5994 118.472 21.3665C118.62 21.1307 118.817 20.946 119.064 20.8125C119.311 20.679 119.584 20.5795 119.882 20.5142C120.184 20.446 120.486 20.392 120.79 20.3523C121.188 20.3011 121.51 20.2628 121.757 20.2372C122.007 20.2088 122.189 20.1619 122.303 20.0966C122.419 20.0312 122.478 19.9176 122.478 19.7557V19.7216C122.478 19.3011 122.363 18.9744 122.132 18.7415C121.905 18.5085 121.56 18.392 121.097 18.392C120.617 18.392 120.24 18.4971 119.968 18.7074C119.695 18.9176 119.503 19.142 119.392 19.3807L118.438 19.0398C118.608 18.642 118.836 18.3324 119.12 18.1108C119.407 17.8864 119.719 17.7301 120.057 17.642C120.398 17.5511 120.733 17.5057 121.063 17.5057C121.273 17.5057 121.515 17.5312 121.787 17.5824C122.063 17.6307 122.328 17.7315 122.584 17.8849C122.843 18.0383 123.057 18.2699 123.228 18.5795C123.398 18.8892 123.483 19.304 123.483 19.8239V24.1364H122.478V23.25H122.426C122.358 23.392 122.245 23.544 122.086 23.706C121.926 23.8679 121.715 24.0057 121.451 24.1193C121.186 24.2329 120.864 24.2898 120.483 24.2898ZM120.637 23.3864C121.034 23.3864 121.37 23.3082 121.642 23.152C121.918 22.9957 122.125 22.794 122.265 22.5469C122.407 22.2997 122.478 22.0398 122.478 21.767V20.8466C122.435 20.8977 122.341 20.9446 122.196 20.9872C122.054 21.027 121.89 21.0625 121.702 21.0937C121.517 21.1221 121.337 21.1477 121.161 21.1704C120.988 21.1903 120.847 21.2074 120.739 21.2216C120.478 21.2557 120.233 21.3111 120.006 21.3878C119.782 21.4616 119.6 21.5739 119.461 21.7244C119.324 21.8721 119.256 22.0739 119.256 22.3295C119.256 22.679 119.385 22.9432 119.644 23.1221C119.905 23.2983 120.236 23.3864 120.637 23.3864ZM126.325 20.1989V24.1364H125.319V17.5909H126.29V18.6136H126.376C126.529 18.2812 126.762 18.0142 127.075 17.8125C127.387 17.6079 127.79 17.5057 128.285 17.5057C128.728 17.5057 129.116 17.5966 129.448 17.7784C129.781 17.9574 130.039 18.2301 130.224 18.5966C130.408 18.9602 130.501 19.4204 130.501 19.9773V24.1364H129.495V20.0454C129.495 19.5312 129.362 19.1307 129.094 18.8437C128.827 18.554 128.461 18.4091 127.995 18.4091C127.674 18.4091 127.387 18.4787 127.134 18.6179C126.884 18.7571 126.687 18.9602 126.542 19.2273C126.397 19.4943 126.325 19.8182 126.325 20.1989ZM136.975 19.0568L136.071 19.3125C136.015 19.1619 135.931 19.0156 135.82 18.8736C135.712 18.7287 135.564 18.6094 135.377 18.5156C135.189 18.4219 134.949 18.375 134.657 18.375C134.256 18.375 133.922 18.4673 133.655 18.652C133.391 18.8338 133.259 19.0653 133.259 19.3466C133.259 19.5966 133.35 19.794 133.532 19.9389C133.713 20.0838 133.998 20.2045 134.384 20.3011L135.355 20.5398C135.941 20.6818 136.377 20.8991 136.664 21.1918C136.951 21.4815 137.094 21.8551 137.094 22.3125C137.094 22.6875 136.986 23.0227 136.77 23.3182C136.557 23.6136 136.259 23.8466 135.875 24.017C135.492 24.1875 135.046 24.2727 134.537 24.2727C133.87 24.2727 133.317 24.1278 132.88 23.8381C132.442 23.5483 132.165 23.125 132.049 22.5682L133.003 22.3295C133.094 22.6818 133.266 22.946 133.519 23.1221C133.775 23.2983 134.108 23.3864 134.52 23.3864C134.989 23.3864 135.361 23.2869 135.637 23.0881C135.915 22.8864 136.054 22.6449 136.054 22.3636C136.054 22.1364 135.975 21.946 135.816 21.7926C135.657 21.6364 135.412 21.5199 135.083 21.4432L133.992 21.1875C133.392 21.0454 132.952 20.8253 132.671 20.527C132.392 20.2258 132.253 19.8494 132.253 19.3977C132.253 19.0284 132.357 18.7017 132.564 18.4176C132.775 18.1335 133.06 17.9105 133.421 17.7486C133.784 17.5866 134.196 17.5057 134.657 17.5057C135.304 17.5057 135.813 17.6477 136.182 17.9318C136.554 18.2159 136.819 18.5909 136.975 19.0568ZM138.608 26.5909V17.5909H139.58V18.6307H139.699C139.773 18.517 139.875 18.3721 140.006 18.196C140.139 18.017 140.33 17.8579 140.577 17.7187C140.827 17.5767 141.165 17.5057 141.591 17.5057C142.142 17.5057 142.628 17.6435 143.048 17.919C143.469 18.1946 143.797 18.5852 144.033 19.0909C144.268 19.5966 144.386 20.1932 144.386 20.8807C144.386 21.5739 144.268 22.1747 144.033 22.6832C143.797 23.1889 143.47 23.581 143.053 23.8594C142.635 24.1349 142.153 24.2727 141.608 24.2727C141.188 24.2727 140.851 24.2031 140.598 24.0639C140.345 23.9219 140.151 23.7614 140.014 23.5824C139.878 23.4006 139.773 23.25 139.699 23.1307H139.614V26.5909H138.608ZM139.597 20.8636C139.597 21.3579 139.669 21.794 139.814 22.1719C139.959 22.5469 140.17 22.8409 140.449 23.054C140.727 23.2642 141.068 23.3693 141.472 23.3693C141.892 23.3693 142.243 23.2585 142.524 23.0369C142.808 22.8125 143.021 22.5114 143.163 22.1335C143.308 21.7528 143.381 21.3295 143.381 20.8636C143.381 20.4034 143.31 19.9886 143.168 19.6193C143.028 19.2471 142.817 18.9531 142.533 18.7372C142.251 18.5185 141.898 18.4091 141.472 18.4091C141.063 18.4091 140.719 18.5128 140.44 18.7202C140.162 18.9247 139.952 19.2116 139.81 19.581C139.668 19.9474 139.597 20.375 139.597 20.8636ZM148.58 24.2727C147.989 24.2727 147.47 24.1321 147.024 23.8508C146.581 23.5696 146.234 23.1761 145.984 22.6704C145.737 22.1648 145.614 21.5739 145.614 20.8977C145.614 20.2159 145.737 19.6207 145.984 19.1122C146.234 18.6037 146.581 18.2088 147.024 17.9275C147.47 17.6463 147.989 17.5057 148.58 17.5057C149.17 17.5057 149.688 17.6463 150.131 17.9275C150.577 18.2088 150.923 18.6037 151.17 19.1122C151.42 19.6207 151.545 20.2159 151.545 20.8977C151.545 21.5739 151.42 22.1648 151.17 22.6704C150.923 23.1761 150.577 23.5696 150.131 23.8508C149.688 24.1321 149.17 24.2727 148.58 24.2727ZM148.58 23.3693C149.028 23.3693 149.398 23.2543 149.688 23.0241C149.977 22.794 150.192 22.4915 150.331 22.1165C150.47 21.7415 150.54 21.3352 150.54 20.8977C150.54 20.4602 150.47 20.0525 150.331 19.6747C150.192 19.2969 149.977 18.9915 149.688 18.7585C149.398 18.5256 149.028 18.4091 148.58 18.4091C148.131 18.4091 147.761 18.5256 147.472 18.7585C147.182 18.9915 146.967 19.2969 146.828 19.6747C146.689 20.0525 146.619 20.4602 146.619 20.8977C146.619 21.3352 146.689 21.7415 146.828 22.1165C146.967 22.4915 147.182 22.794 147.472 23.0241C147.761 23.2543 148.131 23.3693 148.58 23.3693ZM153.081 24.1364V17.5909H154.052V18.5795H154.12C154.24 18.2557 154.456 17.9929 154.768 17.7912C155.081 17.5895 155.433 17.4886 155.825 17.4886C155.899 17.4886 155.991 17.49 156.102 17.4929C156.213 17.4957 156.297 17.5 156.353 17.5057V18.5284C156.319 18.5199 156.241 18.5071 156.119 18.49C156 18.4702 155.873 18.4602 155.74 18.4602C155.422 18.4602 155.137 18.527 154.887 18.6605C154.64 18.7912 154.444 18.973 154.299 19.206C154.157 19.4361 154.086 19.6989 154.086 19.9943V24.1364H153.081ZM160.802 17.5909V18.4432H157.41V17.5909H160.802ZM158.399 16.0227H159.404V22.2614C159.404 22.5454 159.446 22.7585 159.528 22.9006C159.613 23.0398 159.721 23.1335 159.852 23.1818C159.985 23.2273 160.126 23.25 160.274 23.25C160.385 23.25 160.475 23.2443 160.547 23.2329C160.618 23.2187 160.674 23.2074 160.717 23.1989L160.922 24.1023C160.853 24.1278 160.758 24.1534 160.636 24.179C160.514 24.2074 160.359 24.2216 160.172 24.2216C159.887 24.2216 159.609 24.1605 159.336 24.0383C159.066 23.9162 158.842 23.7301 158.663 23.4801C158.487 23.2301 158.399 22.9148 158.399 22.5341V16.0227ZM167.616 24.2898C167.201 24.2898 166.825 24.2116 166.487 24.0554C166.149 23.8963 165.88 23.6676 165.681 23.3693C165.483 23.0682 165.383 22.7045 165.383 22.2784C165.383 21.9034 165.457 21.5994 165.605 21.3665C165.752 21.1307 165.95 20.946 166.197 20.8125C166.444 20.679 166.717 20.5795 167.015 20.5142C167.316 20.446 167.619 20.392 167.923 20.3523C168.321 20.3011 168.643 20.2628 168.89 20.2372C169.14 20.2088 169.322 20.1619 169.436 20.0966C169.552 20.0312 169.61 19.9176 169.61 19.7557V19.7216C169.61 19.3011 169.495 18.9744 169.265 18.7415C169.038 18.5085 168.693 18.392 168.23 18.392C167.75 18.392 167.373 18.4971 167.1 18.7074C166.828 18.9176 166.636 19.142 166.525 19.3807L165.571 19.0398C165.741 18.642 165.968 18.3324 166.252 18.1108C166.539 17.8864 166.852 17.7301 167.19 17.642C167.531 17.5511 167.866 17.5057 168.196 17.5057C168.406 17.5057 168.647 17.5312 168.92 17.5824C169.196 17.6307 169.461 17.7315 169.717 17.8849C169.975 18.0383 170.19 18.2699 170.36 18.5795C170.531 18.8892 170.616 19.304 170.616 19.8239V24.1364H169.61V23.25H169.559C169.491 23.392 169.377 23.544 169.218 23.706C169.059 23.8679 168.848 24.0057 168.583 24.1193C168.319 24.2329 167.997 24.2898 167.616 24.2898ZM167.77 23.3864C168.167 23.3864 168.502 23.3082 168.775 23.152C169.051 22.9957 169.258 22.794 169.397 22.5469C169.539 22.2997 169.61 22.0398 169.61 21.767V20.8466C169.568 20.8977 169.474 20.9446 169.329 20.9872C169.187 21.027 169.022 21.0625 168.835 21.0937C168.65 21.1221 168.47 21.1477 168.294 21.1704C168.12 21.1903 167.98 21.2074 167.872 21.2216C167.61 21.2557 167.366 21.3111 167.139 21.3878C166.914 21.4616 166.733 21.5739 166.593 21.7244C166.457 21.8721 166.389 22.0739 166.389 22.3295C166.389 22.679 166.518 22.9432 166.777 23.1221C167.038 23.2983 167.369 23.3864 167.77 23.3864ZM173.457 20.1989V24.1364H172.452V17.5909H173.423V18.6136H173.509C173.662 18.2812 173.895 18.0142 174.207 17.8125C174.52 17.6079 174.923 17.5057 175.418 17.5057C175.861 17.5057 176.249 17.5966 176.581 17.7784C176.913 17.9574 177.172 18.2301 177.357 18.5966C177.541 18.9602 177.634 19.4204 177.634 19.9773V24.1364H176.628V20.0454C176.628 19.5312 176.494 19.1307 176.227 18.8437C175.96 18.554 175.594 18.4091 175.128 18.4091C174.807 18.4091 174.52 18.4787 174.267 18.6179C174.017 18.7571 173.82 18.9602 173.675 19.2273C173.53 19.4943 173.457 19.8182 173.457 20.1989ZM181.943 24.2727C181.397 24.2727 180.916 24.1349 180.498 23.8594C180.081 23.581 179.754 23.1889 179.518 22.6832C179.282 22.1747 179.164 21.5739 179.164 20.8807C179.164 20.1932 179.282 19.5966 179.518 19.0909C179.754 18.5852 180.082 18.1946 180.502 17.919C180.923 17.6435 181.409 17.5057 181.96 17.5057C182.386 17.5057 182.723 17.5767 182.97 17.7187C183.22 17.8579 183.41 18.017 183.541 18.196C183.674 18.3721 183.778 18.517 183.852 18.6307H183.937V15.4091H184.943V24.1364H183.971V23.1307H183.852C183.778 23.25 183.673 23.4006 183.537 23.5824C183.4 23.7614 183.206 23.9219 182.953 24.0639C182.7 24.2031 182.363 24.2727 181.943 24.2727ZM182.079 23.3693C182.483 23.3693 182.824 23.2642 183.102 23.054C183.38 22.8409 183.592 22.5469 183.737 22.1719C183.882 21.794 183.954 21.3579 183.954 20.8636C183.954 20.375 183.883 19.9474 183.741 19.581C183.599 19.2116 183.389 18.9247 183.11 18.7202C182.832 18.5128 182.488 18.4091 182.079 18.4091C181.653 18.4091 181.298 18.5185 181.014 18.7372C180.733 18.9531 180.521 19.2471 180.379 19.6193C180.24 19.9886 180.17 20.4034 180.17 20.8636C180.17 21.3295 180.241 21.7528 180.383 22.1335C180.528 22.5114 180.741 22.8125 181.022 23.0369C181.306 23.2585 181.659 23.3693 182.079 23.3693ZM193.044 24.2727C192.413 24.2727 191.869 24.1335 191.412 23.8551C190.957 23.5739 190.606 23.1818 190.359 22.679C190.115 22.1733 189.993 21.5852 189.993 20.9148C189.993 20.2443 190.115 19.6534 190.359 19.142C190.606 18.6278 190.95 18.2273 191.39 17.9403C191.833 17.6506 192.35 17.5057 192.941 17.5057C193.282 17.5057 193.619 17.5625 193.951 17.6761C194.284 17.7898 194.586 17.9744 194.859 18.2301C195.132 18.4829 195.349 18.8182 195.511 19.2358C195.673 19.6534 195.754 20.1676 195.754 20.7784V21.2045H190.708V20.3352H194.731C194.731 19.9659 194.657 19.6364 194.51 19.3466C194.365 19.0568 194.157 18.8281 193.887 18.6605C193.62 18.4929 193.305 18.4091 192.941 18.4091C192.541 18.4091 192.194 18.5085 191.902 18.7074C191.612 18.9034 191.389 19.1591 191.233 19.4744C191.076 19.7898 190.998 20.1278 190.998 20.4886V21.0682C190.998 21.5625 191.083 21.9815 191.254 22.3253C191.427 22.6662 191.667 22.9261 191.974 23.1051C192.281 23.2812 192.637 23.3693 193.044 23.3693C193.308 23.3693 193.547 23.3324 193.76 23.2585C193.975 23.1818 194.162 23.0682 194.318 22.9176C194.474 22.7642 194.595 22.5739 194.68 22.3466L195.652 22.6193C195.549 22.9489 195.377 23.2386 195.136 23.4886C194.895 23.7358 194.596 23.929 194.241 24.0682C193.886 24.2045 193.487 24.2727 193.044 24.2727ZM197.858 17.5909L199.426 20.267L200.994 17.5909H202.153L200.04 20.8636L202.153 24.1364H200.994L199.426 21.5966L197.858 24.1364H196.699L198.778 20.8636L196.699 17.5909H197.858ZM205.978 24.2727C205.364 24.2727 204.836 24.1278 204.393 23.8381C203.95 23.5483 203.609 23.1491 203.37 22.6406C203.131 22.1321 203.012 21.5511 203.012 20.8977C203.012 20.2329 203.134 19.6463 203.379 19.1378C203.626 18.6264 203.969 18.2273 204.41 17.9403C204.853 17.6506 205.37 17.5057 205.961 17.5057C206.421 17.5057 206.836 17.5909 207.205 17.7614C207.575 17.9318 207.877 18.1704 208.113 18.4773C208.349 18.7841 208.495 19.142 208.552 19.5511H207.546C207.469 19.2528 207.299 18.9886 207.035 18.7585C206.773 18.5256 206.421 18.4091 205.978 18.4091C205.586 18.4091 205.242 18.5114 204.947 18.7159C204.654 18.9176 204.425 19.2031 204.261 19.5724C204.099 19.9389 204.018 20.3693 204.018 20.8636C204.018 21.3693 204.097 21.8096 204.256 22.1846C204.418 22.5596 204.646 22.8508 204.938 23.0582C205.234 23.2656 205.58 23.3693 205.978 23.3693C206.239 23.3693 206.477 23.3239 206.69 23.2329C206.903 23.142 207.083 23.0114 207.231 22.8409C207.379 22.6704 207.484 22.4659 207.546 22.2273H208.552C208.495 22.6136 208.354 22.9616 208.13 23.2713C207.908 23.5781 207.614 23.8224 207.248 24.0043C206.884 24.1832 206.461 24.2727 205.978 24.2727ZM212.766 24.2727C212.136 24.2727 211.592 24.1335 211.134 23.8551C210.68 23.5739 210.329 23.1818 210.082 22.679C209.837 22.1733 209.715 21.5852 209.715 20.9148C209.715 20.2443 209.837 19.6534 210.082 19.142C210.329 18.6278 210.673 18.2273 211.113 17.9403C211.556 17.6506 212.073 17.5057 212.664 17.5057C213.005 17.5057 213.342 17.5625 213.674 17.6761C214.006 17.7898 214.309 17.9744 214.582 18.2301C214.854 18.4829 215.072 18.8182 215.234 19.2358C215.396 19.6534 215.477 20.1676 215.477 20.7784V21.2045H210.431V20.3352H214.454C214.454 19.9659 214.38 19.6364 214.232 19.3466C214.087 19.0568 213.88 18.8281 213.61 18.6605C213.343 18.4929 213.028 18.4091 212.664 18.4091C212.263 18.4091 211.917 18.5085 211.624 18.7074C211.335 18.9034 211.112 19.1591 210.955 19.4744C210.799 19.7898 210.721 20.1278 210.721 20.4886V21.0682C210.721 21.5625 210.806 21.9815 210.977 22.3253C211.15 22.6662 211.39 22.9261 211.697 23.1051C212.004 23.2812 212.36 23.3693 212.766 23.3693C213.031 23.3693 213.269 23.3324 213.482 23.2585C213.698 23.1818 213.884 23.0682 214.04 22.9176C214.197 22.7642 214.317 22.5739 214.403 22.3466L215.374 22.6193C215.272 22.9489 215.1 23.2386 214.859 23.4886C214.617 23.7358 214.319 23.929 213.964 24.0682C213.609 24.2045 213.21 24.2727 212.766 24.2727ZM218.012 15.4091V24.1364H217.006V15.4091H218.012ZM220.86 15.4091V24.1364H219.854V15.4091H220.86ZM225.446 24.2727C224.815 24.2727 224.271 24.1335 223.814 23.8551C223.359 23.5739 223.009 23.1818 222.761 22.679C222.517 22.1733 222.395 21.5852 222.395 20.9148C222.395 20.2443 222.517 19.6534 222.761 19.142C223.009 18.6278 223.352 18.2273 223.793 17.9403C224.236 17.6506 224.753 17.5057 225.344 17.5057C225.685 17.5057 226.021 17.5625 226.354 17.6761C226.686 17.7898 226.989 17.9744 227.261 18.2301C227.534 18.4829 227.751 18.8182 227.913 19.2358C228.075 19.6534 228.156 20.1676 228.156 20.7784V21.2045H223.111V20.3352H227.134C227.134 19.9659 227.06 19.6364 226.912 19.3466C226.767 19.0568 226.56 18.8281 226.29 18.6605C226.023 18.4929 225.707 18.4091 225.344 18.4091C224.943 18.4091 224.597 18.5085 224.304 18.7074C224.014 18.9034 223.791 19.1591 223.635 19.4744C223.479 19.7898 223.401 20.1278 223.401 20.4886V21.0682C223.401 21.5625 223.486 21.9815 223.656 22.3253C223.83 22.6662 224.07 22.9261 224.376 23.1051C224.683 23.2812 225.04 23.3693 225.446 23.3693C225.71 23.3693 225.949 23.3324 226.162 23.2585C226.378 23.1818 226.564 23.0682 226.72 22.9176C226.876 22.7642 226.997 22.5739 227.082 22.3466L228.054 22.6193C227.952 22.9489 227.78 23.2386 227.538 23.4886C227.297 23.7358 226.999 23.929 226.643 24.0682C226.288 24.2045 225.889 24.2727 225.446 24.2727ZM230.692 20.1989V24.1364H229.686V17.5909H230.658V18.6136H230.743C230.896 18.2812 231.129 18.0142 231.442 17.8125C231.754 17.6079 232.158 17.5057 232.652 17.5057C233.095 17.5057 233.483 17.5966 233.815 17.7784C234.148 17.9574 234.406 18.2301 234.591 18.5966C234.776 18.9602 234.868 19.4204 234.868 19.9773V24.1364H233.862V20.0454C233.862 19.5312 233.729 19.1307 233.462 18.8437C233.195 18.554 232.828 18.4091 232.362 18.4091C232.041 18.4091 231.754 18.4787 231.501 18.6179C231.251 18.7571 231.054 18.9602 230.909 19.2273C230.764 19.4943 230.692 19.8182 230.692 20.1989ZM239.552 17.5909V18.4432H236.16V17.5909H239.552ZM237.149 16.0227H238.154V22.2614C238.154 22.5454 238.196 22.7585 238.278 22.9006C238.363 23.0398 238.471 23.1335 238.602 23.1818C238.735 23.2273 238.876 23.25 239.024 23.25C239.135 23.25 239.225 23.2443 239.297 23.2329C239.368 23.2187 239.424 23.2074 239.467 23.1989L239.672 24.1023C239.603 24.1278 239.508 24.1534 239.386 24.179C239.264 24.2074 239.109 24.2216 238.922 24.2216C238.637 24.2216 238.359 24.1605 238.086 24.0383C237.816 23.9162 237.592 23.7301 237.413 23.4801C237.237 23.2301 237.149 22.9148 237.149 22.5341V16.0227ZM249.076 19.0568L248.173 19.3125C248.116 19.1619 248.032 19.0156 247.922 18.8736C247.814 18.7287 247.666 18.6094 247.478 18.5156C247.291 18.4219 247.051 18.375 246.758 18.375C246.358 18.375 246.024 18.4673 245.757 18.652C245.493 18.8338 245.36 19.0653 245.36 19.3466C245.36 19.5966 245.451 19.794 245.633 19.9389C245.815 20.0838 246.099 20.2045 246.485 20.3011L247.457 20.5398C248.042 20.6818 248.478 20.8991 248.765 21.1918C249.052 21.4815 249.196 21.8551 249.196 22.3125C249.196 22.6875 249.088 23.0227 248.872 23.3182C248.659 23.6136 248.36 23.8466 247.977 24.017C247.593 24.1875 247.147 24.2727 246.639 24.2727C245.971 24.2727 245.419 24.1278 244.981 23.8381C244.544 23.5483 244.267 23.125 244.15 22.5682L245.105 22.3295C245.196 22.6818 245.368 22.946 245.62 23.1221C245.876 23.2983 246.21 23.3864 246.622 23.3864C247.091 23.3864 247.463 23.2869 247.738 23.0881C248.017 22.8864 248.156 22.6449 248.156 22.3636C248.156 22.1364 248.076 21.946 247.917 21.7926C247.758 21.6364 247.514 21.5199 247.184 21.4432L246.093 21.1875C245.494 21.0454 245.054 20.8253 244.772 20.527C244.494 20.2258 244.355 19.8494 244.355 19.3977C244.355 19.0284 244.458 18.7017 244.666 18.4176C244.876 18.1335 245.162 17.9105 245.522 17.7486C245.886 17.5866 246.298 17.5057 246.758 17.5057C247.406 17.5057 247.914 17.6477 248.284 17.9318C248.656 18.2159 248.92 18.5909 249.076 19.0568ZM253.556 17.5909V18.4432H250.164V17.5909H253.556ZM251.153 16.0227H252.158V22.2614C252.158 22.5454 252.2 22.7585 252.282 22.9006C252.367 23.0398 252.475 23.1335 252.606 23.1818C252.739 23.2273 252.88 23.25 253.028 23.25C253.138 23.25 253.229 23.2443 253.3 23.2329C253.371 23.2187 253.428 23.2074 253.471 23.1989L253.675 24.1023C253.607 24.1278 253.512 24.1534 253.39 24.179C253.268 24.2074 253.113 24.2216 252.925 24.2216C252.641 24.2216 252.363 24.1605 252.09 24.0383C251.82 23.9162 251.596 23.7301 251.417 23.4801C251.241 23.2301 251.153 22.9148 251.153 22.5341V16.0227ZM257.658 24.2727C257.067 24.2727 256.548 24.1321 256.102 23.8508C255.659 23.5696 255.312 23.1761 255.062 22.6704C254.815 22.1648 254.692 21.5739 254.692 20.8977C254.692 20.2159 254.815 19.6207 255.062 19.1122C255.312 18.6037 255.659 18.2088 256.102 17.9275C256.548 17.6463 257.067 17.5057 257.658 17.5057C258.249 17.5057 258.766 17.6463 259.209 17.9275C259.655 18.2088 260.001 18.6037 260.249 19.1122C260.499 19.6207 260.624 20.2159 260.624 20.8977C260.624 21.5739 260.499 22.1648 260.249 22.6704C260.001 23.1761 259.655 23.5696 259.209 23.8508C258.766 24.1321 258.249 24.2727 257.658 24.2727ZM257.658 23.3693C258.107 23.3693 258.476 23.2543 258.766 23.0241C259.055 22.794 259.27 22.4915 259.409 22.1165C259.548 21.7415 259.618 21.3352 259.618 20.8977C259.618 20.4602 259.548 20.0525 259.409 19.6747C259.27 19.2969 259.055 18.9915 258.766 18.7585C258.476 18.5256 258.107 18.4091 257.658 18.4091C257.209 18.4091 256.839 18.5256 256.55 18.7585C256.26 18.9915 256.045 19.2969 255.906 19.6747C255.767 20.0525 255.697 20.4602 255.697 20.8977C255.697 21.3352 255.767 21.7415 255.906 22.1165C256.045 22.4915 256.26 22.794 256.55 23.0241C256.839 23.2543 257.209 23.3693 257.658 23.3693ZM262.159 24.1364V17.5909H263.13V18.5795H263.199C263.318 18.2557 263.534 17.9929 263.846 17.7912C264.159 17.5895 264.511 17.4886 264.903 17.4886C264.977 17.4886 265.069 17.49 265.18 17.4929C265.291 17.4957 265.375 17.5 265.431 17.5057V18.5284C265.397 18.5199 265.319 18.5071 265.197 18.49C265.078 18.4702 264.951 18.4602 264.818 18.4602C264.5 18.4602 264.216 18.527 263.966 18.6605C263.718 18.7912 263.522 18.973 263.377 19.206C263.235 19.4361 263.164 19.6989 263.164 19.9943V24.1364H262.159ZM268.55 24.2898C268.135 24.2898 267.759 24.2116 267.42 24.0554C267.082 23.8963 266.814 23.6676 266.615 23.3693C266.416 23.0682 266.317 22.7045 266.317 22.2784C266.317 21.9034 266.391 21.5994 266.538 21.3665C266.686 21.1307 266.884 20.946 267.131 20.8125C267.378 20.679 267.651 20.5795 267.949 20.5142C268.25 20.446 268.553 20.392 268.857 20.3523C269.254 20.3011 269.577 20.2628 269.824 20.2372C270.074 20.2088 270.256 20.1619 270.369 20.0966C270.486 20.0312 270.544 19.9176 270.544 19.7557V19.7216C270.544 19.3011 270.429 18.9744 270.199 18.7415C269.972 18.5085 269.626 18.392 269.163 18.392C268.683 18.392 268.307 18.4971 268.034 18.7074C267.761 18.9176 267.57 19.142 267.459 19.3807L266.504 19.0398C266.675 18.642 266.902 18.3324 267.186 18.1108C267.473 17.8864 267.786 17.7301 268.124 17.642C268.464 17.5511 268.8 17.5057 269.129 17.5057C269.339 17.5057 269.581 17.5312 269.854 17.5824C270.129 17.6307 270.395 17.7315 270.651 17.8849C270.909 18.0383 271.124 18.2699 271.294 18.5795C271.464 18.8892 271.55 19.304 271.55 19.8239V24.1364H270.544V23.25H270.493C270.425 23.392 270.311 23.544 270.152 23.706C269.993 23.8679 269.781 24.0057 269.517 24.1193C269.253 24.2329 268.93 24.2898 268.55 24.2898ZM268.703 23.3864C269.101 23.3864 269.436 23.3082 269.709 23.152C269.984 22.9957 270.192 22.794 270.331 22.5469C270.473 22.2997 270.544 22.0398 270.544 21.767V20.8466C270.501 20.8977 270.408 20.9446 270.263 20.9872C270.121 21.027 269.956 21.0625 269.768 21.0937C269.584 21.1221 269.403 21.1477 269.227 21.1704C269.054 21.1903 268.913 21.2074 268.805 21.2216C268.544 21.2557 268.3 21.3111 268.072 21.3878C267.848 21.4616 267.666 21.5739 267.527 21.7244C267.391 21.8721 267.322 22.0739 267.322 22.3295C267.322 22.679 267.452 22.9432 267.71 23.1221C267.972 23.2983 268.303 23.3864 268.703 23.3864ZM276.027 26.7273C275.542 26.7273 275.124 26.6648 274.775 26.5398C274.425 26.4176 274.134 26.2557 273.901 26.054C273.671 25.8551 273.488 25.642 273.351 25.4148L274.152 24.8523C274.243 24.9716 274.358 25.1079 274.498 25.2614C274.637 25.4176 274.827 25.5525 275.069 25.6662C275.313 25.7827 275.632 25.8409 276.027 25.8409C276.556 25.8409 276.992 25.7131 277.336 25.4574C277.679 25.2017 277.851 24.8011 277.851 24.2557V22.9261H277.766C277.692 23.0454 277.587 23.1932 277.451 23.3693C277.317 23.5426 277.124 23.6974 276.871 23.8338C276.621 23.9673 276.283 24.0341 275.857 24.0341C275.328 24.0341 274.854 23.9091 274.434 23.6591C274.016 23.4091 273.685 23.0454 273.441 22.5682C273.199 22.0909 273.078 21.5114 273.078 20.8295C273.078 20.1591 273.196 19.5753 273.432 19.0781C273.668 18.5781 273.996 18.1918 274.417 17.919C274.837 17.6435 275.323 17.5057 275.874 17.5057C276.3 17.5057 276.638 17.5767 276.888 17.7187C277.141 17.8579 277.334 18.017 277.468 18.196C277.604 18.3721 277.709 18.517 277.783 18.6307H277.885V17.5909H278.857V24.3239C278.857 24.8864 278.729 25.3437 278.473 25.696C278.221 26.0511 277.88 26.3111 277.451 26.4758C277.025 26.6435 276.55 26.7273 276.027 26.7273ZM275.993 23.1307C276.397 23.1307 276.738 23.0383 277.016 22.8537C277.294 22.669 277.506 22.4034 277.651 22.0568C277.796 21.7102 277.868 21.2954 277.868 20.8125C277.868 20.3409 277.797 19.9247 277.655 19.5639C277.513 19.2031 277.303 18.9204 277.025 18.7159C276.746 18.5114 276.402 18.4091 275.993 18.4091C275.567 18.4091 275.212 18.517 274.928 18.7329C274.647 18.9489 274.435 19.2386 274.293 19.6023C274.154 19.9659 274.084 20.3693 274.084 20.8125C274.084 21.267 274.155 21.669 274.297 22.0185C274.442 22.365 274.655 22.6378 274.936 22.8366C275.221 23.0327 275.573 23.1307 275.993 23.1307ZM283.442 24.2727C282.811 24.2727 282.267 24.1335 281.81 23.8551C281.355 23.5739 281.005 23.1818 280.757 22.679C280.513 22.1733 280.391 21.5852 280.391 20.9148C280.391 20.2443 280.513 19.6534 280.757 19.142C281.005 18.6278 281.348 18.2273 281.789 17.9403C282.232 17.6506 282.749 17.5057 283.34 17.5057C283.681 17.5057 284.017 17.5625 284.35 17.6761C284.682 17.7898 284.985 17.9744 285.257 18.2301C285.53 18.4829 285.748 18.8182 285.909 19.2358C286.071 19.6534 286.152 20.1676 286.152 20.7784V21.2045H281.107V20.3352H285.13C285.13 19.9659 285.056 19.6364 284.908 19.3466C284.763 19.0568 284.556 18.8281 284.286 18.6605C284.019 18.4929 283.703 18.4091 283.34 18.4091C282.939 18.4091 282.593 18.5085 282.3 18.7074C282.01 18.9034 281.787 19.1591 281.631 19.4744C281.475 19.7898 281.397 20.1278 281.397 20.4886V21.0682C281.397 21.5625 281.482 21.9815 281.652 22.3253C281.826 22.6662 282.066 22.9261 282.373 23.1051C282.679 23.2812 283.036 23.3693 283.442 23.3693C283.706 23.3693 283.945 23.3324 284.158 23.2585C284.374 23.1818 284.56 23.0682 284.716 22.9176C284.873 22.7642 284.993 22.5739 285.078 22.3466L286.05 22.6193C285.948 22.9489 285.776 23.2386 285.534 23.4886C285.293 23.7358 284.995 23.929 284.64 24.0682C284.284 24.2045 283.885 24.2727 283.442 24.2727ZM291.057 26.5909V17.5909H292.029V18.6307H292.148C292.222 18.517 292.324 18.3721 292.455 18.196C292.588 18.017 292.779 17.8579 293.026 17.7187C293.276 17.5767 293.614 17.5057 294.04 17.5057C294.591 17.5057 295.077 17.6435 295.498 17.919C295.918 18.1946 296.246 18.5852 296.482 19.0909C296.718 19.5966 296.836 20.1932 296.836 20.8807C296.836 21.5739 296.718 22.1747 296.482 22.6832C296.246 23.1889 295.919 23.581 295.502 23.8594C295.084 24.1349 294.603 24.2727 294.057 24.2727C293.637 24.2727 293.3 24.2031 293.047 24.0639C292.794 23.9219 292.6 23.7614 292.463 23.5824C292.327 23.4006 292.222 23.25 292.148 23.1307H292.063V26.5909H291.057ZM292.046 20.8636C292.046 21.3579 292.118 21.794 292.263 22.1719C292.408 22.5469 292.62 22.8409 292.898 23.054C293.176 23.2642 293.517 23.3693 293.921 23.3693C294.341 23.3693 294.692 23.2585 294.973 23.0369C295.257 22.8125 295.471 22.5114 295.613 22.1335C295.757 21.7528 295.83 21.3295 295.83 20.8636C295.83 20.4034 295.759 19.9886 295.617 19.6193C295.478 19.2471 295.266 18.9531 294.982 18.7372C294.701 18.5185 294.347 18.4091 293.921 18.4091C293.512 18.4091 293.168 18.5128 292.89 18.7202C292.611 18.9247 292.401 19.2116 292.259 19.581C292.117 19.9474 292.046 20.375 292.046 20.8636ZM301.114 24.2727C300.483 24.2727 299.939 24.1335 299.482 23.8551C299.027 23.5739 298.676 23.1818 298.429 22.679C298.185 22.1733 298.063 21.5852 298.063 20.9148C298.063 20.2443 298.185 19.6534 298.429 19.142C298.676 18.6278 299.02 18.2273 299.461 17.9403C299.904 17.6506 300.421 17.5057 301.012 17.5057C301.353 17.5057 301.689 17.5625 302.022 17.6761C302.354 17.7898 302.657 17.9744 302.929 18.2301C303.202 18.4829 303.419 18.8182 303.581 19.2358C303.743 19.6534 303.824 20.1676 303.824 20.7784V21.2045H298.779V20.3352H302.801C302.801 19.9659 302.728 19.6364 302.58 19.3466C302.435 19.0568 302.228 18.8281 301.958 18.6605C301.691 18.4929 301.375 18.4091 301.012 18.4091C300.611 18.4091 300.265 18.5085 299.972 18.7074C299.682 18.9034 299.459 19.1591 299.303 19.4744C299.147 19.7898 299.069 20.1278 299.069 20.4886V21.0682C299.069 21.5625 299.154 21.9815 299.324 22.3253C299.498 22.6662 299.738 22.9261 300.044 23.1051C300.351 23.2812 300.708 23.3693 301.114 23.3693C301.378 23.3693 301.617 23.3324 301.83 23.2585C302.046 23.1818 302.232 23.0682 302.388 22.9176C302.544 22.7642 302.665 22.5739 302.75 22.3466L303.722 22.6193C303.62 22.9489 303.448 23.2386 303.206 23.4886C302.965 23.7358 302.667 23.929 302.311 24.0682C301.956 24.2045 301.557 24.2727 301.114 24.2727ZM305.354 24.1364V17.5909H306.326V18.5795H306.394C306.513 18.2557 306.729 17.9929 307.042 17.7912C307.354 17.5895 307.706 17.4886 308.098 17.4886C308.172 17.4886 308.265 17.49 308.375 17.4929C308.486 17.4957 308.57 17.5 308.627 17.5057V18.5284C308.593 18.5199 308.515 18.5071 308.392 18.49C308.273 18.4702 308.147 18.4602 308.013 18.4602C307.695 18.4602 307.411 18.527 307.161 18.6605C306.914 18.7912 306.718 18.973 306.573 19.206C306.431 19.4361 306.36 19.6989 306.36 19.9943V24.1364H305.354ZM313.144 17.5909V18.4432H309.615V17.5909H313.144ZM310.672 24.1364V16.6875C310.672 16.3125 310.76 16 310.936 15.75C311.113 15.5 311.341 15.3125 311.623 15.1875C311.904 15.0625 312.201 15 312.513 15C312.76 15 312.962 15.0199 313.118 15.0596C313.275 15.0994 313.391 15.1364 313.468 15.1704L313.178 16.0398C313.127 16.0227 313.056 16.0014 312.965 15.9758C312.877 15.9503 312.76 15.9375 312.615 15.9375C312.283 15.9375 312.043 16.0213 311.895 16.1889C311.75 16.3565 311.678 16.6023 311.678 16.9261V24.1364H310.672ZM316.943 24.2727C316.352 24.2727 315.833 24.1321 315.387 23.8508C314.944 23.5696 314.598 23.1761 314.348 22.6704C314.1 22.1648 313.977 21.5739 313.977 20.8977C313.977 20.2159 314.1 19.6207 314.348 19.1122C314.598 18.6037 314.944 18.2088 315.387 17.9275C315.833 17.6463 316.352 17.5057 316.943 17.5057C317.534 17.5057 318.051 17.6463 318.494 17.9275C318.94 18.2088 319.287 18.6037 319.534 19.1122C319.784 19.6207 319.909 20.2159 319.909 20.8977C319.909 21.5739 319.784 22.1648 319.534 22.6704C319.287 23.1761 318.94 23.5696 318.494 23.8508C318.051 24.1321 317.534 24.2727 316.943 24.2727ZM316.943 23.3693C317.392 23.3693 317.761 23.2543 318.051 23.0241C318.341 22.794 318.555 22.4915 318.694 22.1165C318.833 21.7415 318.903 21.3352 318.903 20.8977C318.903 20.4602 318.833 20.0525 318.694 19.6747C318.555 19.2969 318.341 18.9915 318.051 18.7585C317.761 18.5256 317.392 18.4091 316.943 18.4091C316.494 18.4091 316.125 18.5256 315.835 18.7585C315.545 18.9915 315.331 19.2969 315.191 19.6747C315.052 20.0525 314.983 20.4602 314.983 20.8977C314.983 21.3352 315.052 21.7415 315.191 22.1165C315.331 22.4915 315.545 22.794 315.835 23.0241C316.125 23.2543 316.494 23.3693 316.943 23.3693ZM321.444 24.1364V17.5909H322.415V18.5795H322.484C322.603 18.2557 322.819 17.9929 323.131 17.7912C323.444 17.5895 323.796 17.4886 324.188 17.4886C324.262 17.4886 324.354 17.49 324.465 17.4929C324.576 17.4957 324.66 17.5 324.717 17.5057V18.5284C324.683 18.5199 324.604 18.5071 324.482 18.49C324.363 18.4702 324.237 18.4602 324.103 18.4602C323.785 18.4602 323.501 18.527 323.251 18.6605C323.004 18.7912 322.808 18.973 322.663 19.206C322.521 19.4361 322.45 19.6989 322.45 19.9943V24.1364H321.444ZM325.909 24.1364V17.5909H326.88V18.6136H326.966C327.102 18.2642 327.322 17.9929 327.626 17.7997C327.93 17.6037 328.295 17.5057 328.721 17.5057C329.153 17.5057 329.512 17.6037 329.799 17.7997C330.089 17.9929 330.315 18.2642 330.477 18.6136H330.545C330.713 18.2756 330.964 18.0071 331.299 17.8082C331.635 17.6065 332.037 17.5057 332.505 17.5057C333.091 17.5057 333.569 17.6889 333.941 18.0554C334.314 18.419 334.5 18.9858 334.5 19.7557V24.1364H333.494V19.7557C333.494 19.2727 333.362 18.9275 333.098 18.7202C332.833 18.5128 332.522 18.4091 332.164 18.4091C331.704 18.4091 331.348 18.5483 331.095 18.8267C330.842 19.1023 330.716 19.4517 330.716 19.875V24.1364H329.693V19.6534C329.693 19.2812 329.572 18.9815 329.331 18.7543C329.089 18.5241 328.778 18.4091 328.397 18.4091C328.136 18.4091 327.892 18.4787 327.664 18.6179C327.44 18.7571 327.258 18.9503 327.119 19.1974C326.983 19.4418 326.914 19.7244 326.914 20.0454V24.1364H325.909ZM338.265 24.2898C337.85 24.2898 337.473 24.2116 337.135 24.0554C336.797 23.8963 336.529 23.6676 336.33 23.3693C336.131 23.0682 336.032 22.7045 336.032 22.2784C336.032 21.9034 336.105 21.5994 336.253 21.3665C336.401 21.1307 336.598 20.946 336.846 20.8125C337.093 20.679 337.365 20.5795 337.664 20.5142C337.965 20.446 338.267 20.392 338.571 20.3523C338.969 20.3011 339.292 20.2628 339.539 20.2372C339.789 20.2088 339.971 20.1619 340.084 20.0966C340.201 20.0312 340.259 19.9176 340.259 19.7557V19.7216C340.259 19.3011 340.144 18.9744 339.914 18.7415C339.686 18.5085 339.341 18.392 338.878 18.392C338.398 18.392 338.022 18.4971 337.749 18.7074C337.476 18.9176 337.284 19.142 337.174 19.3807L336.219 19.0398C336.39 18.642 336.617 18.3324 336.901 18.1108C337.188 17.8864 337.5 17.7301 337.838 17.642C338.179 17.5511 338.515 17.5057 338.844 17.5057C339.054 17.5057 339.296 17.5312 339.569 17.5824C339.844 17.6307 340.11 17.7315 340.365 17.8849C340.624 18.0383 340.838 18.2699 341.009 18.5795C341.179 18.8892 341.265 19.304 341.265 19.8239V24.1364H340.259V23.25H340.208C340.14 23.392 340.026 23.544 339.867 23.706C339.708 23.8679 339.496 24.0057 339.232 24.1193C338.968 24.2329 338.645 24.2898 338.265 24.2898ZM338.418 23.3864C338.816 23.3864 339.151 23.3082 339.424 23.152C339.699 22.9957 339.907 22.794 340.046 22.5469C340.188 22.2997 340.259 22.0398 340.259 21.767V20.8466C340.216 20.8977 340.123 20.9446 339.978 20.9872C339.836 21.027 339.671 21.0625 339.483 21.0937C339.299 21.1221 339.118 21.1477 338.942 21.1704C338.769 21.1903 338.628 21.2074 338.52 21.2216C338.259 21.2557 338.015 21.3111 337.787 21.3878C337.563 21.4616 337.381 21.5739 337.242 21.7244C337.105 21.8721 337.037 22.0739 337.037 22.3295C337.037 22.679 337.167 22.9432 337.425 23.1221C337.686 23.2983 338.017 23.3864 338.418 23.3864ZM344.106 20.1989V24.1364H343.1V17.5909H344.072V18.6136H344.157C344.31 18.2812 344.543 18.0142 344.856 17.8125C345.168 17.6079 345.572 17.5057 346.066 17.5057C346.509 17.5057 346.897 17.5966 347.229 17.7784C347.562 17.9574 347.82 18.2301 348.005 18.5966C348.19 18.9602 348.282 19.4204 348.282 19.9773V24.1364H347.276V20.0454C347.276 19.5312 347.143 19.1307 346.876 18.8437C346.609 18.554 346.242 18.4091 345.776 18.4091C345.455 18.4091 345.168 18.4787 344.915 18.6179C344.665 18.7571 344.468 18.9602 344.323 19.2273C344.178 19.4943 344.106 19.8182 344.106 20.1989ZM352.779 24.2727C352.165 24.2727 351.637 24.1278 351.194 23.8381C350.75 23.5483 350.409 23.1491 350.171 22.6406C349.932 22.1321 349.813 21.5511 349.813 20.8977C349.813 20.2329 349.935 19.6463 350.179 19.1378C350.426 18.6264 350.77 18.2273 351.211 17.9403C351.654 17.6506 352.171 17.5057 352.762 17.5057C353.222 17.5057 353.637 17.5909 354.006 17.7614C354.375 17.9318 354.678 18.1704 354.914 18.4773C355.15 18.7841 355.296 19.142 355.353 19.5511H354.347C354.27 19.2528 354.1 18.9886 353.836 18.7585C353.574 18.5256 353.222 18.4091 352.779 18.4091C352.387 18.4091 352.043 18.5114 351.748 18.7159C351.455 18.9176 351.226 19.2031 351.061 19.5724C350.9 19.9389 350.819 20.3693 350.819 20.8636C350.819 21.3693 350.898 21.8096 351.057 22.1846C351.219 22.5596 351.446 22.8508 351.739 23.0582C352.034 23.2656 352.381 23.3693 352.779 23.3693C353.04 23.3693 353.277 23.3239 353.49 23.2329C353.703 23.142 353.884 23.0114 354.032 22.8409C354.179 22.6704 354.284 22.4659 354.347 22.2273H355.353C355.296 22.6136 355.155 22.9616 354.931 23.2713C354.709 23.5781 354.415 23.8224 354.049 24.0043C353.685 24.1832 353.262 24.2727 352.779 24.2727ZM359.567 24.2727C358.936 24.2727 358.392 24.1335 357.935 23.8551C357.48 23.5739 357.13 23.1818 356.882 22.679C356.638 22.1733 356.516 21.5852 356.516 20.9148C356.516 20.2443 356.638 19.6534 356.882 19.142C357.13 18.6278 357.473 18.2273 357.914 17.9403C358.357 17.6506 358.874 17.5057 359.465 17.5057C359.806 17.5057 360.142 17.5625 360.475 17.6761C360.807 17.7898 361.11 17.9744 361.382 18.2301C361.655 18.4829 361.873 18.8182 362.034 19.2358C362.196 19.6534 362.277 20.1676 362.277 20.7784V21.2045H357.232V20.3352H361.255C361.255 19.9659 361.181 19.6364 361.033 19.3466C360.888 19.0568 360.681 18.8281 360.411 18.6605C360.144 18.4929 359.828 18.4091 359.465 18.4091C359.064 18.4091 358.718 18.5085 358.425 18.7074C358.135 18.9034 357.912 19.1591 357.756 19.4744C357.6 19.7898 357.522 20.1278 357.522 20.4886V21.0682C357.522 21.5625 357.607 21.9815 357.777 22.3253C357.951 22.6662 358.191 22.9261 358.498 23.1051C358.804 23.2812 359.161 23.3693 359.567 23.3693C359.831 23.3693 360.07 23.3324 360.283 23.2585C360.499 23.1818 360.685 23.0682 360.841 22.9176C360.998 22.7642 361.118 22.5739 361.203 22.3466L362.175 22.6193C362.073 22.9489 361.901 23.2386 361.659 23.4886C361.418 23.7358 361.12 23.929 360.765 24.0682C360.409 24.2045 360.01 24.2727 359.567 24.2727ZM364.54 24.2045C364.33 24.2045 364.15 24.1293 363.999 23.9787C363.848 23.8281 363.773 23.6477 363.773 23.4375C363.773 23.2273 363.848 23.0469 363.999 22.8963C364.15 22.7457 364.33 22.6704 364.54 22.6704C364.75 22.6704 364.931 22.7457 365.081 22.8963C365.232 23.0469 365.307 23.2273 365.307 23.4375C365.307 23.5767 365.272 23.7045 365.201 23.821C365.132 23.9375 365.04 24.0312 364.924 24.1023C364.81 24.1704 364.682 24.2045 364.54 24.2045Z" fill="white"/>
</svg>
