<svg width="406" height="39" viewBox="0 0 406 39" fill="none" xmlns="http://www.w3.org/2000/svg">
<g filter="url(#filter0_d_811_278)">
<path d="M8.5267 31.9113V9.79036C8.27519 9.92754 7.98939 10.0647 7.6693 10.2019C7.3492 10.3391 7.00624 10.4877 6.64042 10.6478C6.29746 10.7849 5.9545 10.9221 5.61154 11.0593C5.29144 11.1965 4.99421 11.3337 4.71984 11.4709V7.21816C4.97135 7.08098 5.32574 6.89806 5.78302 6.66942C6.2403 6.41792 6.73187 6.14355 7.25774 5.84632C7.78362 5.54909 8.27519 5.25186 8.73247 4.95463C9.18975 4.63453 9.53271 4.36016 9.76135 4.13152H14.2541V31.9113H8.5267ZM27.2785 32.4257C25.6095 32.4257 24.2148 32.0942 23.0944 31.4311C21.9741 30.7452 21.1281 29.8078 20.5565 28.6188C19.9849 27.4299 19.6991 26.0466 19.6991 24.469V11.8824C19.6991 10.2591 19.9621 8.8415 20.4879 7.62971C21.0367 6.39506 21.8712 5.43477 22.9916 4.74885C24.1119 4.06293 25.5409 3.71997 27.2785 3.71997C29.0162 3.71997 30.4338 4.06293 31.5312 4.74885C32.6516 5.43477 33.4747 6.39506 34.0006 7.62971C34.5493 8.8415 34.8237 10.2591 34.8237 11.8824V24.469C34.8237 26.0238 34.5379 27.4071 33.9663 28.6188C33.3947 29.8078 32.5487 30.7452 31.4284 31.4311C30.308 32.0942 28.9248 32.4257 27.2785 32.4257ZM27.2785 27.3156C27.8273 27.3156 28.216 27.1441 28.4446 26.8012C28.6961 26.4353 28.8447 26.0238 28.8905 25.5665C28.9591 25.0864 28.9933 24.6748 28.9933 24.3318V12.0196C28.9933 11.6309 28.9705 11.1965 28.9248 10.7163C28.879 10.2133 28.7304 9.77893 28.4789 9.4131C28.2503 9.02441 27.8501 8.83007 27.2785 8.83007C26.7069 8.83007 26.2954 9.02441 26.0439 9.4131C25.8153 9.77893 25.6781 10.2133 25.6323 10.7163C25.5866 11.1965 25.5638 11.6309 25.5638 12.0196V24.3318C25.5638 24.6748 25.598 25.0864 25.6666 25.5665C25.7352 26.0238 25.8838 26.4353 26.1125 26.8012C26.364 27.1441 26.7527 27.3156 27.2785 27.3156ZM46.8206 32.4257C45.1515 32.4257 43.7568 32.0942 42.6364 31.4311C41.5161 30.7452 40.6701 29.8078 40.0985 28.6188C39.5269 27.4299 39.2411 26.0466 39.2411 24.469V11.8824C39.2411 10.2591 39.5041 8.8415 40.0299 7.62971C40.5787 6.39506 41.4132 5.43477 42.5336 4.74885C43.6539 4.06293 45.0829 3.71997 46.8206 3.71997C48.5582 3.71997 49.9758 4.06293 51.0733 4.74885C52.1936 5.43477 53.0167 6.39506 53.5426 7.62971C54.0913 8.8415 54.3657 10.2591 54.3657 11.8824V24.469C54.3657 26.0238 54.0799 27.4071 53.5083 28.6188C52.9367 29.8078 52.0907 30.7452 50.9704 31.4311C49.85 32.0942 48.4668 32.4257 46.8206 32.4257ZM46.8206 27.3156C47.3693 27.3156 47.758 27.1441 47.9866 26.8012C48.2381 26.4353 48.3867 26.0238 48.4325 25.5665C48.5011 25.0864 48.5353 24.6748 48.5353 24.3318V12.0196C48.5353 11.6309 48.5125 11.1965 48.4668 10.7163C48.421 10.2133 48.2724 9.77893 48.0209 9.4131C47.7923 9.02441 47.3921 8.83007 46.8206 8.83007C46.249 8.83007 45.8374 9.02441 45.5859 9.4131C45.3573 9.77893 45.2201 10.2133 45.1743 10.7163C45.1286 11.1965 45.1058 11.6309 45.1058 12.0196V24.3318C45.1058 24.6748 45.14 25.0864 45.2086 25.5665C45.2772 26.0238 45.4258 26.4353 45.6545 26.8012C45.906 27.1441 46.2947 27.3156 46.8206 27.3156ZM66.3626 32.4257C64.6935 32.4257 63.2988 32.0942 62.1784 31.4311C61.0581 30.7452 60.2121 29.8078 59.6405 28.6188C59.0689 27.4299 58.7831 26.0466 58.7831 24.469V11.8824C58.7831 10.2591 59.0461 8.8415 59.5719 7.62971C60.1207 6.39506 60.9552 5.43477 62.0756 4.74885C63.1959 4.06293 64.6249 3.71997 66.3626 3.71997C68.1002 3.71997 69.5178 4.06293 70.6152 4.74885C71.7356 5.43477 72.5587 6.39506 73.0846 7.62971C73.6333 8.8415 73.9077 10.2591 73.9077 11.8824V24.469C73.9077 26.0238 73.6219 27.4071 73.0503 28.6188C72.4787 29.8078 71.6327 30.7452 70.5124 31.4311C69.392 32.0942 68.0088 32.4257 66.3626 32.4257ZM66.3626 27.3156C66.9113 27.3156 67.3 27.1441 67.5286 26.8012C67.7801 26.4353 67.9287 26.0238 67.9745 25.5665C68.0431 25.0864 68.0773 24.6748 68.0773 24.3318V12.0196C68.0773 11.6309 68.0545 11.1965 68.0088 10.7163C67.963 10.2133 67.8144 9.77893 67.5629 9.4131C67.3343 9.02441 66.9341 8.83007 66.3626 8.83007C65.791 8.83007 65.3794 9.02441 65.1279 9.4131C64.8993 9.77893 64.7621 10.2133 64.7163 10.7163C64.6706 11.1965 64.6478 11.6309 64.6478 12.0196V24.3318C64.6478 24.6748 64.682 25.0864 64.7506 25.5665C64.8192 26.0238 64.9678 26.4353 65.1965 26.8012C65.448 27.1441 65.8367 27.3156 66.3626 27.3156ZM78.428 31.9113L78.9082 4.13152H85.493L88.5453 20.2849L91.8378 4.13152H98.1825L98.6626 31.9113H94.3071L93.7926 13.4257L90.5688 31.9113H86.6934L83.2638 13.2885L82.8522 31.9113H78.428ZM103.365 31.9113V4.13152H109.504V27.7614H115.883V31.9113H103.365ZM128.717 31.9113V4.13152H136.365C138.24 4.13152 139.863 4.3373 141.235 4.74885C142.607 5.1604 143.67 5.90348 144.424 6.97809C145.202 8.02983 145.591 9.52742 145.591 11.4709C145.591 12.6141 145.499 13.6315 145.316 14.5232C145.133 15.4149 144.79 16.1923 144.287 16.8553C143.807 17.4955 143.11 18.0328 142.195 18.4672L146.002 31.9113H139.657L136.605 19.4618H134.856V31.9113H128.717ZM134.856 15.9293H136.571C137.44 15.9293 138.114 15.7807 138.594 15.4835C139.074 15.1634 139.406 14.7175 139.589 14.1459C139.794 13.5515 139.897 12.8427 139.897 12.0196C139.897 10.8307 139.68 9.90468 139.246 9.24162C138.811 8.57857 138.011 8.24704 136.845 8.24704H134.856V15.9293ZM157.656 32.3228C155.575 32.3228 153.929 31.957 152.717 31.2253C151.505 30.4937 150.636 29.4419 150.111 28.0701C149.585 26.6983 149.322 25.0635 149.322 23.1658V12.8427C149.322 10.9221 149.585 9.28735 150.111 7.93837C150.636 6.5894 151.505 5.56052 152.717 4.85174C153.929 4.12009 155.575 3.75427 157.656 3.75427C159.759 3.75427 161.417 4.12009 162.629 4.85174C163.863 5.56052 164.744 6.5894 165.269 7.93837C165.795 9.28735 166.058 10.9221 166.058 12.8427V23.1658C166.058 25.0635 165.795 26.6983 165.269 28.0701C164.744 29.4419 163.863 30.4937 162.629 31.2253C161.417 31.957 159.759 32.3228 157.656 32.3228ZM157.656 27.9672C158.296 27.9672 158.765 27.8072 159.062 27.4871C159.359 27.167 159.553 26.7554 159.645 26.2524C159.736 25.7494 159.782 25.235 159.782 24.7091V11.3337C159.782 10.7849 159.736 10.2705 159.645 9.79036C159.553 9.28735 159.359 8.8758 159.062 8.5557C158.765 8.23561 158.296 8.07556 157.656 8.07556C157.061 8.07556 156.615 8.23561 156.318 8.5557C156.021 8.8758 155.827 9.28735 155.735 9.79036C155.644 10.2705 155.598 10.7849 155.598 11.3337V24.7091C155.598 25.235 155.632 25.7494 155.701 26.2524C155.792 26.7554 155.975 27.167 156.25 27.4871C156.547 27.8072 157.016 27.9672 157.656 27.9672ZM178.506 32.3228C176.379 32.3228 174.71 31.9798 173.498 31.2939C172.309 30.5851 171.475 29.5677 170.995 28.2416C170.515 26.8926 170.274 25.2464 170.274 23.303V4.13152H176.345V24.229C176.345 24.8006 176.391 25.3722 176.482 25.9438C176.574 26.5154 176.768 26.9841 177.065 27.3499C177.385 27.7157 177.865 27.8986 178.506 27.8986C179.169 27.8986 179.649 27.7157 179.946 27.3499C180.243 26.9841 180.426 26.5154 180.495 25.9438C180.586 25.3722 180.632 24.8006 180.632 24.229V4.13152H186.737V23.303C186.737 25.2464 186.485 26.8926 185.982 28.2416C185.502 29.5677 184.667 30.5851 183.478 31.2939C182.29 31.9798 180.632 32.3228 178.506 32.3228ZM191.328 31.9113V4.13152H195.65L201.343 17.5069V4.13152H206.419V31.9113H202.269L196.576 17.5069V31.9113H191.328ZM211.239 31.9113V4.13152H218.27C220.693 4.13152 222.579 4.44019 223.928 5.05751C225.277 5.65198 226.226 6.60083 226.775 7.90408C227.324 9.18446 227.598 10.8535 227.598 12.9113V22.9943C227.598 25.0749 227.324 26.7783 226.775 28.1044C226.226 29.4076 225.277 30.3679 223.928 30.9853C222.602 31.6026 220.739 31.9113 218.338 31.9113H211.239ZM217.378 27.6586H218.338C219.276 27.6586 219.95 27.5214 220.362 27.247C220.773 26.9726 221.025 26.5611 221.116 26.0123C221.23 25.4636 221.288 24.7777 221.288 23.9546V11.8481C221.288 11.025 221.219 10.362 221.082 9.85895C220.968 9.35594 220.705 8.99012 220.293 8.76148C219.881 8.53284 219.218 8.41852 218.304 8.41852H217.378V27.6586ZM249.438 32.3228C247.334 32.3228 245.665 31.9456 244.43 31.191C243.219 30.4137 242.361 29.3391 241.858 27.9672C241.355 26.5725 241.104 24.9377 241.104 23.0629V13.0485C241.104 11.1279 241.355 9.48169 241.858 8.10986C242.361 6.71515 243.219 5.64055 244.43 4.88603C245.665 4.13152 247.334 3.75427 249.438 3.75427C251.495 3.75427 253.096 4.09723 254.239 4.78315C255.405 5.4462 256.228 6.38363 256.708 7.59542C257.188 8.80721 257.429 10.2019 257.429 11.7795V14.1802H251.427V11.4023C251.427 10.8535 251.392 10.3277 251.324 9.82465C251.278 9.32165 251.118 8.9101 250.844 8.59C250.569 8.24704 250.101 8.07556 249.438 8.07556C248.797 8.07556 248.317 8.24704 247.997 8.59C247.7 8.93296 247.506 9.36737 247.414 9.89325C247.346 10.3963 247.311 10.9336 247.311 11.5052V24.5719C247.311 25.1892 247.357 25.7608 247.448 26.2867C247.563 26.7897 247.769 27.2013 248.066 27.5214C248.386 27.8186 248.843 27.9672 249.438 27.9672C250.078 27.9672 250.535 27.8072 250.809 27.4871C251.084 27.1441 251.255 26.7097 251.324 26.1838C251.392 25.658 251.427 25.1207 251.427 24.5719V21.6568H257.429V24.0575C257.429 25.6351 257.188 27.0527 256.708 28.3102C256.251 29.5448 255.439 30.528 254.273 31.2596C253.13 31.9684 251.518 32.3228 249.438 32.3228ZM269.449 32.3228C267.368 32.3228 265.722 31.957 264.51 31.2253C263.298 30.4937 262.429 29.4419 261.903 28.0701C261.378 26.6983 261.115 25.0635 261.115 23.1658V12.8427C261.115 10.9221 261.378 9.28735 261.903 7.93837C262.429 6.5894 263.298 5.56052 264.51 4.85174C265.722 4.12009 267.368 3.75427 269.449 3.75427C271.552 3.75427 273.21 4.12009 274.421 4.85174C275.656 5.56052 276.536 6.5894 277.062 7.93837C277.588 9.28735 277.851 10.9221 277.851 12.8427V23.1658C277.851 25.0635 277.588 26.6983 277.062 28.0701C276.536 29.4419 275.656 30.4937 274.421 31.2253C273.21 31.957 271.552 32.3228 269.449 32.3228ZM269.449 27.9672C270.089 27.9672 270.557 27.8072 270.855 27.4871C271.152 27.167 271.346 26.7554 271.438 26.2524C271.529 25.7494 271.575 25.235 271.575 24.7091V11.3337C271.575 10.7849 271.529 10.2705 271.438 9.79036C271.346 9.28735 271.152 8.8758 270.855 8.5557C270.557 8.23561 270.089 8.07556 269.449 8.07556C268.854 8.07556 268.408 8.23561 268.111 8.5557C267.814 8.8758 267.619 9.28735 267.528 9.79036C267.436 10.2705 267.391 10.7849 267.391 11.3337V24.7091C267.391 25.235 267.425 25.7494 267.494 26.2524C267.585 26.7554 267.768 27.167 268.042 27.4871C268.34 27.8072 268.808 27.9672 269.449 27.9672ZM282.273 31.9113V4.13152H286.594L292.287 17.5069V4.13152H297.363V31.9113H293.213L287.52 17.5069V31.9113H282.273ZM304.687 31.9113V8.69289H300.503V4.13152H315.01V8.69289H310.86V31.9113H304.687ZM315.264 31.9113L320.511 4.13152H327.507L332.686 31.9113H327.027L326.101 26.0466H322.02L321.06 31.9113H315.264ZM322.569 22.377H325.518L324.043 11.5395L322.569 22.377ZM336.211 31.9113V4.13152H342.35V31.9113H336.211ZM347.178 31.9113V4.13152H351.499L357.193 17.5069V4.13152H362.268V31.9113H358.119L352.425 17.5069V31.9113H347.178ZM367.089 31.9113V4.13152H379.572V8.31563H373.228V15.2091H378.063V19.4618H373.228V27.7614H379.641V31.9113H367.089ZM383.114 31.9113V4.13152H390.762C392.637 4.13152 394.26 4.3373 395.632 4.74885C397.004 5.1604 398.067 5.90348 398.821 6.97809C399.599 8.02983 399.988 9.52742 399.988 11.4709C399.988 12.6141 399.896 13.6315 399.713 14.5232C399.53 15.4149 399.187 16.1923 398.684 16.8553C398.204 17.4955 397.507 18.0328 396.592 18.4672L400.399 31.9113H394.054L391.002 19.4618H389.253V31.9113H383.114ZM389.253 15.9293H390.968C391.837 15.9293 392.511 15.7807 392.991 15.4835C393.471 15.1634 393.803 14.7175 393.986 14.1459C394.192 13.5515 394.294 12.8427 394.294 12.0196C394.294 10.8307 394.077 9.90468 393.643 9.24162C393.208 8.57857 392.408 8.24704 391.242 8.24704H389.253V15.9293Z" fill="white"/>
</g>
<defs>
<filter id="filter0_d_811_278" x="-0.000273228" y="-2.90871e-05" width="405.119" height="38.1457" filterUnits="userSpaceOnUse" color-interpolation-filters="sRGB">
<feFlood flood-opacity="0" result="BackgroundImageFix"/>
<feColorMatrix in="SourceAlpha" type="matrix" values="0 0 0 0 0 0 0 0 0 0 0 0 0 0 0 0 0 0 127 0" result="hardAlpha"/>
<feOffset dy="1"/>
<feGaussianBlur stdDeviation="2.36"/>
<feComposite in2="hardAlpha" operator="out"/>
<feColorMatrix type="matrix" values="0 0 0 0 0 0 0 0 0 0 0 0 0 0 0 0 0 0 0.25 0"/>
<feBlend mode="normal" in2="BackgroundImageFix" result="effect1_dropShadow_811_278"/>
<feBlend mode="normal" in="SourceGraphic" in2="effect1_dropShadow_811_278" result="shape"/>
</filter>
</defs>
</svg>
