<svg width="204" height="42" viewBox="0 0 204 42" fill="none" xmlns="http://www.w3.org/2000/svg">
<g clip-path="url(#clip0_989_579)">
<path d="M17.4727 17.0321V11.8063C17.4727 10.5743 17.4727 9.95894 17.8554 9.57615C18.2382 9.19336 18.8536 9.19336 20.0856 9.19336H27.9243C29.1563 9.19336 29.7716 9.19336 30.1544 9.57615C30.5372 9.95894 30.5372 10.5743 30.5372 11.8063V17.0321C30.5372 18.2641 30.5372 18.8794 30.1544 19.2622C29.7716 19.645 29.1563 19.645 27.9243 19.645H20.0856C18.8536 19.645 18.2382 19.645 17.8554 19.2622C17.4727 18.8794 17.4727 18.2641 17.4727 17.0321Z" stroke="black" stroke-width="0.97984" stroke-linecap="round"/>
<path d="M28.5781 11.1582V11.1523M28.5781 13.1146V13.1094M28.5781 15.0717V15.0658" stroke="black" stroke-width="0.97984" stroke-linecap="round" stroke-linejoin="round"/>
<path d="M19.4336 16.3782V12.4588C19.4336 11.8428 19.4336 11.5351 19.625 11.3437C19.8164 11.1523 20.1241 11.1523 20.74 11.1523H25.3126C25.9286 11.1523 26.2363 11.1523 26.4277 11.3437C26.6191 11.5351 26.6191 11.8428 26.6191 12.4588V16.3782C26.6191 16.9941 26.6191 17.3018 26.4277 17.4932C26.2363 17.6846 25.9286 17.6846 25.3126 17.6846H20.74C20.1241 17.6846 19.8164 17.6846 19.625 17.4932C19.4336 17.3018 19.4336 16.9941 19.4336 16.3782Z" stroke="black" stroke-width="0.97984" stroke-linejoin="round"/>
<path d="M19.4336 19.6465V20.9529M28.5788 19.6465V20.9529" stroke="black" stroke-width="0.97984" stroke-linecap="round"/>
</g>
<path d="M5.02658 35.4923L4.30933 39.5605H3.77434L4.30933 36.527L2.42216 39.5605H2.04591L1.22284 36.5387L0.687847 39.5605H0.152855L0.875977 35.4923H1.45212L2.36337 38.8551L4.45631 35.4923H5.02658ZM6.1514 35.8156C6.06518 35.8156 5.99267 35.7882 5.93388 35.7333C5.87901 35.6745 5.85157 35.602 5.85157 35.5158C5.85157 35.3982 5.89468 35.2982 5.98091 35.2159C6.06714 35.1297 6.16708 35.0866 6.28074 35.0866C6.37089 35.0866 6.4434 35.114 6.49827 35.1689C6.55314 35.2238 6.58057 35.2963 6.58057 35.3864C6.58057 35.504 6.53746 35.6059 6.45123 35.6921C6.36501 35.7744 6.26506 35.8156 6.1514 35.8156ZM6.32189 36.3388L5.75163 39.5605H5.21664L5.7869 36.3388H6.32189ZM6.74574 37.9438C6.80453 37.6107 6.92211 37.3206 7.09848 37.0737C7.27877 36.8229 7.50021 36.6289 7.76281 36.4917C8.02541 36.3545 8.30956 36.2859 8.61527 36.2859C9.01113 36.2859 9.3188 36.3819 9.53828 36.574C9.76168 36.766 9.88514 37.0326 9.90866 37.3735H9.33251C9.31292 37.1776 9.23257 37.0228 9.09147 36.9091C8.9543 36.7954 8.76813 36.7386 8.53296 36.7386C8.22725 36.7386 7.96074 36.8444 7.73342 37.0561C7.51001 37.2638 7.365 37.5597 7.29837 37.9438C7.27877 38.0732 7.26897 38.1809 7.26897 38.2672C7.26897 38.5533 7.3454 38.7747 7.49825 38.9315C7.65111 39.0843 7.85492 39.1608 8.10967 39.1608C8.34484 39.1608 8.54864 39.1059 8.72109 38.9962C8.89746 38.8864 9.03268 38.7296 9.12675 38.5258H9.70289C9.5618 38.8551 9.34427 39.1196 9.05032 39.3195C8.75637 39.5155 8.41538 39.6135 8.02737 39.6135C7.62367 39.6135 7.30229 39.4978 7.0632 39.2666C6.82804 39.0354 6.71046 38.7198 6.71046 38.3201C6.71046 38.1986 6.72222 38.0732 6.74574 37.9438ZM11.2339 36.9503C11.3633 36.7386 11.5259 36.574 11.7219 36.4564C11.9179 36.3388 12.1413 36.28 12.3921 36.28L12.2921 36.8327H12.1511C11.8728 36.8327 11.6396 36.9071 11.4514 37.0561C11.2672 37.205 11.1438 37.4559 11.0811 37.8086L10.7695 39.5605H10.2345L10.8048 36.3388H11.3397L11.2339 36.9503ZM13.8445 39.6135C13.5741 39.6135 13.335 39.5586 13.1272 39.4488C12.9234 39.3352 12.7647 39.1784 12.651 38.9785C12.5374 38.7747 12.4806 38.5396 12.4806 38.273C12.4806 37.9085 12.5648 37.5754 12.7334 37.2736C12.9019 36.9679 13.1331 36.7269 13.4271 36.5505C13.725 36.3741 14.0561 36.2859 14.4206 36.2859C14.6911 36.2859 14.9302 36.3428 15.1379 36.4564C15.3495 36.5662 15.5122 36.7229 15.6258 36.9267C15.7434 37.1266 15.8022 37.3618 15.8022 37.6322C15.8022 37.9967 15.716 38.3299 15.5435 38.6317C15.3711 38.9334 15.1359 39.1725 14.838 39.3489C14.5402 39.5253 14.209 39.6135 13.8445 39.6135ZM13.9092 39.1608C14.1639 39.1608 14.3932 39.0922 14.597 38.955C14.8008 38.8139 14.9595 38.6297 15.0732 38.4024C15.1908 38.1711 15.2496 37.9242 15.2496 37.6616C15.2496 37.3637 15.1634 37.1364 14.9909 36.9796C14.8185 36.819 14.6029 36.7386 14.3442 36.7386C14.0895 36.7386 13.8621 36.8092 13.6622 36.9503C13.4624 37.0874 13.3075 37.2716 13.1978 37.5029C13.0881 37.7341 13.0332 37.983 13.0332 38.2495C13.0332 38.5396 13.1155 38.7649 13.2801 38.9256C13.4447 39.0824 13.6544 39.1608 13.9092 39.1608ZM21.0501 36.3388L19.4745 39.5605H18.9219L18.6044 36.9973L17.3698 39.5605H16.8172L16.3763 36.3388H16.923L17.1876 39.0432L18.4575 36.3388H19.0101L19.3158 39.0256L20.521 36.3388H21.0501ZM21.0931 37.9379C21.1519 37.6087 21.2695 37.3206 21.4459 37.0737C21.6261 36.8229 21.8437 36.6289 22.0984 36.4917C22.3571 36.3545 22.6315 36.2859 22.9215 36.2859C23.2037 36.2859 23.4369 36.3467 23.6211 36.4682C23.8053 36.5897 23.9327 36.7425 24.0032 36.9267L24.1091 36.3388H24.6499L24.0797 39.5605H23.5388L23.6505 38.9609C23.5094 39.149 23.3232 39.3058 23.092 39.4312C22.8607 39.5527 22.606 39.6135 22.3277 39.6135C22.0769 39.6135 21.8554 39.5605 21.6634 39.4547C21.4713 39.345 21.3224 39.1902 21.2166 38.9903C21.1108 38.7904 21.0578 38.5592 21.0578 38.2966C21.0578 38.179 21.0696 38.0594 21.0931 37.9379ZM23.8269 37.9438C23.8425 37.8615 23.8504 37.7733 23.8504 37.6793C23.8504 37.3931 23.7642 37.1678 23.5917 37.0032C23.4232 36.8346 23.2076 36.7504 22.945 36.7504C22.7451 36.7504 22.5531 36.7974 22.3689 36.8915C22.1886 36.9855 22.0338 37.1227 21.9044 37.303C21.7751 37.4833 21.6889 37.6949 21.6457 37.9379C21.6301 38.0202 21.6222 38.1104 21.6222 38.2084C21.6222 38.4984 21.7065 38.7277 21.875 38.8962C22.0436 39.0608 22.2591 39.1431 22.5217 39.1431C22.7216 39.1431 22.9117 39.0961 23.092 39.002C23.2762 38.9041 23.433 38.7649 23.5623 38.5846C23.6956 38.4004 23.7838 38.1868 23.8269 37.9438ZM26.2713 39.0549L27.7528 36.3388H28.3289L26.4947 39.5605H25.8656L25.1719 36.3388H25.748L26.2713 39.0549ZM30.2487 36.2859C30.5191 36.2859 30.7523 36.3388 30.9483 36.4447C31.1482 36.5466 31.2991 36.6916 31.401 36.8797C31.5068 37.0639 31.5597 37.2756 31.5597 37.5146C31.5597 37.5969 31.5499 37.6969 31.5303 37.8145C31.5147 37.9164 31.4892 38.0222 31.4539 38.1319H28.8789C28.8711 38.2103 28.8671 38.2672 28.8671 38.3024C28.8671 38.5729 28.9475 38.7845 29.1082 38.9374C29.2728 39.0863 29.4864 39.1608 29.749 39.1608C29.9802 39.1608 30.1821 39.1079 30.3545 39.002C30.5309 38.8923 30.6642 38.7473 30.7543 38.567H31.3304C31.1894 38.8766 30.9718 39.1294 30.6779 39.3254C30.3878 39.5174 30.0508 39.6135 29.6667 39.6135C29.263 39.6135 28.9377 39.4978 28.6908 39.2666C28.4478 39.0314 28.3263 38.712 28.3263 38.3083C28.3263 38.1947 28.338 38.0732 28.3615 37.9438C28.4203 37.6107 28.5399 37.3187 28.7202 37.0678C28.9004 36.817 29.1219 36.6249 29.3845 36.4917C29.651 36.3545 29.9391 36.2859 30.2487 36.2859ZM30.9895 37.7439C31.0012 37.6655 31.0071 37.593 31.0071 37.5264C31.0071 37.2756 30.9268 37.0816 30.7661 36.9444C30.6093 36.8072 30.4035 36.7386 30.1488 36.7386C29.8744 36.7386 29.6255 36.8288 29.4021 37.009C29.1787 37.1854 29.0278 37.4304 28.9494 37.7439H30.9895ZM34.5822 37.1795L34.4999 37.6322H32.1542L32.2365 37.1795H34.5822ZM36.2976 39.6135C35.9606 39.6135 35.6843 39.5331 35.4687 39.3724C35.2531 39.2117 35.1453 38.9962 35.1453 38.7257C35.1453 38.6748 35.1473 38.6375 35.1512 38.614H35.6745C35.6588 38.7826 35.7078 38.9197 35.8214 39.0256C35.939 39.1314 36.1075 39.1843 36.327 39.1843C36.5465 39.1843 36.7229 39.1431 36.8561 39.0608C36.9933 38.9746 37.0619 38.8551 37.0619 38.7022C37.0619 38.5729 37.007 38.471 36.8973 38.3965C36.7876 38.322 36.619 38.2417 36.3917 38.1555C36.1918 38.081 36.0272 38.0104 35.8979 37.9438C35.7685 37.8772 35.6588 37.7851 35.5686 37.6675C35.4785 37.546 35.4334 37.3931 35.4334 37.2089C35.4334 37.0286 35.4844 36.8679 35.5863 36.7269C35.6921 36.5858 35.8371 36.478 36.0213 36.4035C36.2095 36.3251 36.4231 36.2859 36.6621 36.2859C36.9914 36.2859 37.2618 36.3682 37.4734 36.5328C37.6851 36.6975 37.7909 36.913 37.7909 37.1795C37.7909 37.2305 37.789 37.2697 37.785 37.2971H37.2736L37.2794 37.2266C37.2794 37.0698 37.2187 36.9463 37.0972 36.8562C36.9796 36.7621 36.8228 36.7151 36.6269 36.7151C36.4348 36.7151 36.2761 36.7582 36.1507 36.8444C36.0292 36.9307 35.9684 37.0463 35.9684 37.1913C35.9684 37.3285 36.0252 37.4363 36.1389 37.5146C36.2526 37.593 36.4289 37.6793 36.668 37.7733C36.8679 37.8517 37.0286 37.9242 37.1501 37.9908C37.2716 38.0536 37.3755 38.1417 37.4617 38.2554C37.5479 38.3691 37.591 38.5121 37.591 38.6846C37.591 38.8727 37.5342 39.0373 37.4205 39.1784C37.3108 39.3195 37.1579 39.4273 36.962 39.5018C36.766 39.5762 36.5446 39.6135 36.2976 39.6135ZM38.3169 37.9379C38.3756 37.6087 38.4932 37.3206 38.6696 37.0737C38.8499 36.8229 39.0674 36.6289 39.3222 36.4917C39.5809 36.3545 39.8552 36.2859 40.1452 36.2859C40.4274 36.2859 40.6606 36.3467 40.8448 36.4682C41.0291 36.5897 41.1564 36.7425 41.227 36.9267L41.3328 36.3388H41.8737L41.3034 39.5605H40.7625L40.8742 38.9609C40.7331 39.149 40.547 39.3058 40.3157 39.4312C40.0845 39.5527 39.8297 39.6135 39.5515 39.6135C39.3006 39.6135 39.0792 39.5605 38.8871 39.4547C38.6951 39.345 38.5461 39.1902 38.4403 38.9903C38.3345 38.7904 38.2816 38.5592 38.2816 38.2966C38.2816 38.179 38.2933 38.0594 38.3169 37.9379ZM41.0506 37.9438C41.0663 37.8615 41.0741 37.7733 41.0741 37.6793C41.0741 37.3931 40.9879 37.1678 40.8154 37.0032C40.6469 36.8346 40.4314 36.7504 40.1688 36.7504C39.9689 36.7504 39.7768 36.7974 39.5926 36.8915C39.4123 36.9855 39.2575 37.1227 39.1282 37.303C38.9988 37.4833 38.9126 37.6949 38.8695 37.9379C38.8538 38.0202 38.846 38.1104 38.846 38.2084C38.846 38.4984 38.9302 38.7277 39.0988 38.8962C39.2673 39.0608 39.4829 39.1431 39.7455 39.1431C39.9454 39.1431 40.1354 39.0961 40.3157 39.002C40.4999 38.9041 40.6567 38.7649 40.7861 38.5846C40.9193 38.4004 41.0075 38.1868 41.0506 37.9438ZM44.2005 35.5158C43.9614 35.5158 43.785 35.5628 43.6714 35.6569C43.5616 35.747 43.4891 35.8979 43.4539 36.1096L43.4127 36.3388H44.0888L44.0124 36.7798H43.3363L42.8424 39.5605H42.3074L42.7954 36.7798H42.3839L42.4603 36.3388H42.8718L42.913 36.1096C42.9796 35.749 43.1207 35.4864 43.3363 35.3218C43.5518 35.1532 43.8654 35.069 44.2769 35.069L44.2005 35.5158ZM46.1118 36.2859C46.3822 36.2859 46.6154 36.3388 46.8114 36.4447C47.0113 36.5466 47.1622 36.6916 47.2641 36.8797C47.3699 37.0639 47.4228 37.2756 47.4228 37.5146C47.4228 37.5969 47.413 37.6969 47.3934 37.8145C47.3777 37.9164 47.3523 38.0222 47.317 38.1319H44.742C44.7341 38.2103 44.7302 38.2672 44.7302 38.3024C44.7302 38.5729 44.8105 38.7845 44.9712 38.9374C45.1359 39.0863 45.3495 39.1608 45.6121 39.1608C45.8433 39.1608 46.0451 39.1079 46.2176 39.002C46.394 38.8923 46.5272 38.7473 46.6174 38.567H47.1935C47.0524 38.8766 46.8349 39.1294 46.5409 39.3254C46.2509 39.5174 45.9138 39.6135 45.5297 39.6135C45.1261 39.6135 44.8007 39.4978 44.5538 39.2666C44.3108 39.0314 44.1893 38.712 44.1893 38.3083C44.1893 38.1947 44.2011 38.0732 44.2246 37.9438C44.2834 37.6107 44.4029 37.3187 44.5832 37.0678C44.7635 36.817 44.985 36.6249 45.2476 36.4917C45.5141 36.3545 45.8021 36.2859 46.1118 36.2859ZM46.8525 37.7439C46.8643 37.6655 46.8702 37.593 46.8702 37.5264C46.8702 37.2756 46.7898 37.0816 46.6291 36.9444C46.4724 36.8072 46.2666 36.7386 46.0118 36.7386C45.7375 36.7386 45.4886 36.8288 45.2652 37.009C45.0418 37.1854 44.8909 37.4304 44.8125 37.7439H46.8525Z" fill="black"/>
<line x1="61.8686" y1="5.70508" x2="61.8686" y2="35.854" stroke="black" stroke-width="1.20596"/>
<g clip-path="url(#clip1_989_579)">
<path d="M91.0223 8.54102L93.0323 10.5509M93.0323 10.5509L95.0422 8.54102M93.0323 10.5509V19.5956M86.5 17.0832L88.5099 15.0733M88.5099 15.0733L86.5 13.0634M88.5099 15.0733H97.5546M95.0422 21.6055L93.0323 19.5956M93.0323 19.5956L91.0223 21.6055M99.5645 13.0634L97.5546 15.0733M97.5546 15.0733L99.5645 17.0832M89.5149 11.5559L91.0223 13.0634M91.0223 17.0832L89.5149 18.5907M96.5496 11.5559L95.0422 13.0634M95.0422 17.0832L96.5496 18.5907" stroke="black" stroke-width="0.839863" stroke-linecap="round" stroke-linejoin="round"/>
</g>
<path d="M77.7236 35.4629L77.6471 35.8803H75.8717L75.6248 37.2854H77.071L76.9946 37.7028H75.5483L75.2191 39.5605H74.6841L75.4131 35.4629H77.7236ZM78.646 36.9503C78.7754 36.7386 78.938 36.574 79.134 36.4564C79.33 36.3388 79.5534 36.28 79.8042 36.28L79.7043 36.8327H79.5632C79.2849 36.8327 79.0517 36.9071 78.8635 37.0561C78.6793 37.205 78.5559 37.4559 78.4932 37.8086L78.1816 39.5605H77.6466L78.2169 36.3388H78.7518L78.646 36.9503ZM81.8092 36.2859C82.0797 36.2859 82.3129 36.3388 82.5088 36.4447C82.7087 36.5466 82.8596 36.6916 82.9615 36.8797C83.0673 37.0639 83.1202 37.2756 83.1202 37.5146C83.1202 37.5969 83.1105 37.6969 83.0909 37.8145C83.0752 37.9164 83.0497 38.0222 83.0144 38.1319H80.4394C80.4316 38.2103 80.4276 38.2672 80.4276 38.3024C80.4276 38.5729 80.508 38.7845 80.6687 38.9374C80.8333 39.0863 81.0469 39.1608 81.3095 39.1608C81.5407 39.1608 81.7426 39.1079 81.915 39.002C82.0914 38.8923 82.2247 38.7473 82.3148 38.567H82.891C82.7499 38.8766 82.5323 39.1294 82.2384 39.3254C81.9484 39.5174 81.6113 39.6135 81.2272 39.6135C80.8235 39.6135 80.4982 39.4978 80.2513 39.2666C80.0083 39.0314 79.8868 38.712 79.8868 38.3083C79.8868 38.1947 79.8985 38.0732 79.9221 37.9438C79.9808 37.6107 80.1004 37.3187 80.2807 37.0678C80.461 36.817 80.6824 36.6249 80.945 36.4917C81.2115 36.3545 81.4996 36.2859 81.8092 36.2859ZM82.55 37.7439C82.5617 37.6655 82.5676 37.593 82.5676 37.5264C82.5676 37.2756 82.4873 37.0816 82.3266 36.9444C82.1698 36.8072 81.964 36.7386 81.7093 36.7386C81.4349 36.7386 81.186 36.8288 80.9626 37.009C80.7392 37.1854 80.5883 37.4304 80.51 37.7439H82.55ZM85.4549 36.2859C85.7254 36.2859 85.9586 36.3388 86.1545 36.4447C86.3544 36.5466 86.5053 36.6916 86.6072 36.8797C86.713 37.0639 86.7659 37.2756 86.7659 37.5146C86.7659 37.5969 86.7561 37.6969 86.7365 37.8145C86.7209 37.9164 86.6954 38.0222 86.6601 38.1319H84.0851C84.0773 38.2103 84.0733 38.2672 84.0733 38.3024C84.0733 38.5729 84.1537 38.7845 84.3144 38.9374C84.479 39.0863 84.6926 39.1608 84.9552 39.1608C85.1864 39.1608 85.3883 39.1079 85.5607 39.002C85.7371 38.8923 85.8704 38.7473 85.9605 38.567H86.5367C86.3956 38.8766 86.178 39.1294 85.8841 39.3254C85.5941 39.5174 85.257 39.6135 84.8729 39.6135C84.4692 39.6135 84.1439 39.4978 83.897 39.2666C83.654 39.0314 83.5325 38.712 83.5325 38.3083C83.5325 38.1947 83.5442 38.0732 83.5677 37.9438C83.6265 37.6107 83.7461 37.3187 83.9264 37.0678C84.1067 36.817 84.3281 36.6249 84.5907 36.4917C84.8572 36.3545 85.1453 36.2859 85.4549 36.2859ZM86.1957 37.7439C86.2074 37.6655 86.2133 37.593 86.2133 37.5264C86.2133 37.2756 86.133 37.0816 85.9723 36.9444C85.8155 36.8072 85.6097 36.7386 85.355 36.7386C85.0806 36.7386 84.8317 36.8288 84.6083 37.009C84.3849 37.1854 84.234 37.4304 84.1556 37.7439H86.1957ZM87.6132 39.1196H89.1947L89.1124 39.5605H86.9195L86.9959 39.1196L88.9771 36.7739H87.4251L87.5015 36.3388H89.665L89.5886 36.7739L87.6132 39.1196ZM91.776 36.2859C92.0465 36.2859 92.2797 36.3388 92.4756 36.4447C92.6755 36.5466 92.8264 36.6916 92.9283 36.8797C93.0341 37.0639 93.0871 37.2756 93.0871 37.5146C93.0871 37.5969 93.0773 37.6969 93.0577 37.8145C93.042 37.9164 93.0165 38.0222 92.9812 38.1319H90.4062C90.3984 38.2103 90.3945 38.2672 90.3945 38.3024C90.3945 38.5729 90.4748 38.7845 90.6355 38.9374C90.8001 39.0863 91.0137 39.1608 91.2763 39.1608C91.5076 39.1608 91.7094 39.1079 91.8819 39.002C92.0582 38.8923 92.1915 38.7473 92.2816 38.567H92.8578C92.7167 38.8766 92.4992 39.1294 92.2052 39.3254C91.9152 39.5174 91.5781 39.6135 91.194 39.6135C90.7903 39.6135 90.465 39.4978 90.2181 39.2666C89.9751 39.0314 89.8536 38.712 89.8536 38.3083C89.8536 38.1947 89.8653 38.0732 89.8889 37.9438C89.9476 37.6107 90.0672 37.3187 90.2475 37.0678C90.4278 36.817 90.6492 36.6249 90.9118 36.4917C91.1783 36.3545 91.4664 36.2859 91.776 36.2859ZM92.5168 37.7439C92.5285 37.6655 92.5344 37.593 92.5344 37.5264C92.5344 37.2756 92.4541 37.0816 92.2934 36.9444C92.1366 36.8072 91.9308 36.7386 91.6761 36.7386C91.4017 36.7386 91.1529 36.8288 90.9294 37.009C90.706 37.1854 90.5551 37.4304 90.4768 37.7439H92.5168ZM94.4517 36.9503C94.581 36.7386 94.7437 36.574 94.9396 36.4564C95.1356 36.3388 95.359 36.28 95.6099 36.28L95.5099 36.8327H95.3688C95.0905 36.8327 94.8573 36.9071 94.6692 37.0561C94.485 37.205 94.3615 37.4559 94.2988 37.8086L93.9872 39.5605H93.4522L94.0225 36.3388H94.5575L94.4517 36.9503ZM98.3027 37.1795L98.2204 37.6322H95.8747L95.957 37.1795H98.3027ZM100.018 39.6135C99.6811 39.6135 99.4047 39.5331 99.1892 39.3724C98.9736 39.2117 98.8658 38.9962 98.8658 38.7257C98.8658 38.6748 98.8678 38.6375 98.8717 38.614H99.3949C99.3793 38.7826 99.4283 38.9197 99.5419 39.0256C99.6595 39.1314 99.828 39.1843 100.048 39.1843C100.267 39.1843 100.443 39.1431 100.577 39.0608C100.714 38.9746 100.782 38.8551 100.782 38.7022C100.782 38.5729 100.728 38.471 100.618 38.3965C100.508 38.322 100.34 38.2417 100.112 38.1555C99.9123 38.081 99.7477 38.0104 99.6183 37.9438C99.489 37.8772 99.3793 37.7851 99.2891 37.6675C99.199 37.546 99.1539 37.3931 99.1539 37.2089C99.1539 37.0286 99.2049 36.8679 99.3068 36.7269C99.4126 36.5858 99.5576 36.478 99.7418 36.4035C99.9299 36.3251 100.144 36.2859 100.383 36.2859C100.712 36.2859 100.982 36.3682 101.194 36.5328C101.406 36.6975 101.511 36.913 101.511 37.1795C101.511 37.2305 101.509 37.2697 101.506 37.2971H100.994L101 37.2266C101 37.0698 100.939 36.9463 100.818 36.8562C100.7 36.7621 100.543 36.7151 100.347 36.7151C100.155 36.7151 99.9966 36.7582 99.8711 36.8444C99.7496 36.9307 99.6889 37.0463 99.6889 37.1913C99.6889 37.3285 99.7457 37.4363 99.8594 37.5146C99.973 37.593 100.149 37.6793 100.388 37.7733C100.588 37.8517 100.749 37.9242 100.871 37.9908C100.992 38.0536 101.096 38.1417 101.182 38.2554C101.268 38.3691 101.312 38.5121 101.312 38.6846C101.312 38.8727 101.255 39.0373 101.141 39.1784C101.031 39.3195 100.878 39.4273 100.682 39.5018C100.486 39.5762 100.265 39.6135 100.018 39.6135ZM102.037 37.9379C102.096 37.6087 102.214 37.3206 102.39 37.0737C102.57 36.8229 102.788 36.6289 103.043 36.4917C103.301 36.3545 103.576 36.2859 103.866 36.2859C104.148 36.2859 104.381 36.3467 104.565 36.4682C104.75 36.5897 104.877 36.7425 104.947 36.9267L105.053 36.3388H105.594L105.024 39.5605H104.483L104.595 38.9609C104.454 39.149 104.267 39.3058 104.036 39.4312C103.805 39.5527 103.55 39.6135 103.272 39.6135C103.021 39.6135 102.8 39.5605 102.608 39.4547C102.416 39.345 102.267 39.1902 102.161 38.9903C102.055 38.7904 102.002 38.5592 102.002 38.2966C102.002 38.179 102.014 38.0594 102.037 37.9379ZM104.771 37.9438C104.787 37.8615 104.795 37.7733 104.795 37.6793C104.795 37.3931 104.708 37.1678 104.536 37.0032C104.367 36.8346 104.152 36.7504 103.889 36.7504C103.689 36.7504 103.497 36.7974 103.313 36.8915C103.133 36.9855 102.978 37.1227 102.849 37.303C102.719 37.4833 102.633 37.6949 102.59 37.9379C102.574 38.0202 102.566 38.1104 102.566 38.2084C102.566 38.4984 102.651 38.7277 102.819 38.8962C102.988 39.0608 103.203 39.1431 103.466 39.1431C103.666 39.1431 103.856 39.0961 104.036 39.002C104.22 38.9041 104.377 38.7649 104.507 38.5846C104.64 38.4004 104.728 38.1868 104.771 37.9438ZM107.921 35.5158C107.682 35.5158 107.506 35.5628 107.392 35.6569C107.282 35.747 107.21 35.8979 107.174 36.1096L107.133 36.3388H107.809L107.733 36.7798H107.057L106.563 39.5605H106.028L106.516 36.7798H106.104L106.181 36.3388H106.592L106.633 36.1096C106.7 35.749 106.841 35.4864 107.057 35.3218C107.272 35.1532 107.586 35.069 107.997 35.069L107.921 35.5158ZM109.832 36.2859C110.103 36.2859 110.336 36.3388 110.532 36.4447C110.732 36.5466 110.883 36.6916 110.985 36.8797C111.09 37.0639 111.143 37.2756 111.143 37.5146C111.143 37.5969 111.133 37.6969 111.114 37.8145C111.098 37.9164 111.073 38.0222 111.037 38.1319H108.462C108.455 38.2103 108.451 38.2672 108.451 38.3024C108.451 38.5729 108.531 38.7845 108.692 38.9374C108.856 39.0863 109.07 39.1608 109.333 39.1608C109.564 39.1608 109.766 39.1079 109.938 39.002C110.114 38.8923 110.248 38.7473 110.338 38.567H110.914C110.773 38.8766 110.555 39.1294 110.261 39.3254C109.971 39.5174 109.634 39.6135 109.25 39.6135C108.847 39.6135 108.521 39.4978 108.274 39.2666C108.031 39.0314 107.91 38.712 107.91 38.3083C107.91 38.1947 107.922 38.0732 107.945 37.9438C108.004 37.6107 108.123 37.3187 108.304 37.0678C108.484 36.817 108.705 36.6249 108.968 36.4917C109.235 36.3545 109.523 36.2859 109.832 36.2859ZM110.573 37.7439C110.585 37.6655 110.591 37.593 110.591 37.5264C110.591 37.2756 110.51 37.0816 110.35 36.9444C110.193 36.8072 109.987 36.7386 109.732 36.7386C109.458 36.7386 109.209 36.8288 108.986 37.009C108.762 37.1854 108.611 37.4304 108.533 37.7439H110.573Z" fill="black"/>
<line x1="125.4" y1="5.70508" x2="125.4" y2="35.854" stroke="black" stroke-width="1.20596"/>
<path d="M175.363 16.9761C174.776 17.3331 174.101 17.5209 173.414 17.5187C172.838 17.5141 172.269 17.3964 171.739 17.1721C171.33 17.7492 171.111 18.4393 171.113 19.1465V20.9524C171.113 21.0196 171.099 21.0861 171.073 21.1477C171.046 21.2094 171.007 21.2649 170.958 21.3109C170.909 21.3568 170.851 21.3922 170.788 21.4148C170.725 21.4374 170.657 21.4468 170.59 21.4423C170.464 21.4314 170.347 21.3732 170.262 21.2795C170.178 21.1858 170.131 21.0635 170.133 20.9371V20.1753L167.768 17.8102C167.416 17.9414 167.044 18.01 166.669 18.0129C166.152 18.0142 165.646 17.8729 165.204 17.6044C163.87 16.7936 163.151 14.9276 163.29 12.6109C163.297 12.4911 163.348 12.378 163.433 12.2931C163.518 12.2082 163.631 12.1574 163.751 12.1504C166.068 12.0138 167.934 12.7297 168.742 14.0642C169.06 14.5872 169.198 15.1994 169.137 15.8083C169.133 15.8554 169.116 15.9005 169.087 15.938C169.058 15.9755 169.019 16.0038 168.974 16.0196C168.93 16.0353 168.881 16.0378 168.835 16.0267C168.789 16.0156 168.748 15.9914 168.715 15.9571L167.539 14.7262C167.447 14.6382 167.323 14.5898 167.196 14.5915C167.068 14.5931 166.946 14.6446 166.855 14.7349C166.765 14.8253 166.714 14.9473 166.712 15.0751C166.71 15.2028 166.759 15.3262 166.847 15.4188L170.146 18.8023C170.15 18.7545 170.154 18.7068 170.159 18.6596C170.266 17.7513 170.667 16.9027 171.301 16.2431L174.399 12.9692C174.491 12.8773 174.542 12.7527 174.542 12.6228C174.543 12.4928 174.491 12.3682 174.399 12.2763C174.307 12.1843 174.183 12.1326 174.053 12.1326C173.923 12.1325 173.798 12.1841 173.706 12.2759L170.705 15.4494C170.675 15.4812 170.637 15.5044 170.595 15.5166C170.553 15.5287 170.509 15.5294 170.466 15.5185C170.424 15.5076 170.385 15.4856 170.354 15.4547C170.323 15.4238 170.301 15.3852 170.29 15.3428C170 14.2724 170.128 13.2068 170.682 12.2919C171.776 10.4865 174.321 9.52015 177.491 9.70632C177.611 9.71332 177.724 9.76408 177.809 9.84898C177.894 9.93387 177.944 10.047 177.951 10.1668C178.135 13.3372 177.169 15.8824 175.363 16.9761Z" fill="black"/>
<path d="M142.317 35.4629L142.241 35.8803H140.465L140.219 37.2854H141.665L141.588 37.7028H140.142L139.813 39.5605H139.278L140.007 35.4629H142.317ZM143.657 39.6135C143.387 39.6135 143.148 39.5586 142.94 39.4488C142.736 39.3352 142.577 39.1784 142.464 38.9785C142.35 38.7747 142.293 38.5396 142.293 38.273C142.293 37.9085 142.378 37.5754 142.546 37.2736C142.715 36.9679 142.946 36.7269 143.24 36.5505C143.538 36.3741 143.869 36.2859 144.233 36.2859C144.504 36.2859 144.743 36.3428 144.951 36.4564C145.162 36.5662 145.325 36.7229 145.439 36.9267C145.556 37.1266 145.615 37.3618 145.615 37.6322C145.615 37.9967 145.529 38.3299 145.356 38.6317C145.184 38.9334 144.949 39.1725 144.651 39.3489C144.353 39.5253 144.022 39.6135 143.657 39.6135ZM143.722 39.1608C143.977 39.1608 144.206 39.0922 144.41 38.955C144.614 38.8139 144.772 38.6297 144.886 38.4024C145.003 38.1711 145.062 37.9242 145.062 37.6616C145.062 37.3637 144.976 37.1364 144.804 36.9796C144.631 36.819 144.416 36.7386 144.157 36.7386C143.902 36.7386 143.675 36.8092 143.475 36.9503C143.275 37.0874 143.12 37.2716 143.01 37.5029C142.901 37.7341 142.846 37.983 142.846 38.2495C142.846 38.5396 142.928 38.7649 143.093 38.9256C143.257 39.0824 143.467 39.1608 143.722 39.1608ZM147.418 39.6135C147.147 39.6135 146.908 39.5586 146.7 39.4488C146.497 39.3352 146.338 39.1784 146.224 38.9785C146.111 38.7747 146.054 38.5396 146.054 38.273C146.054 37.9085 146.138 37.5754 146.307 37.2736C146.475 36.9679 146.706 36.7269 147 36.5505C147.298 36.3741 147.629 36.2859 147.994 36.2859C148.264 36.2859 148.503 36.3428 148.711 36.4564C148.923 36.5662 149.085 36.7229 149.199 36.9267C149.317 37.1266 149.375 37.3618 149.375 37.6322C149.375 37.9967 149.289 38.3299 149.117 38.6317C148.944 38.9334 148.709 39.1725 148.411 39.3489C148.113 39.5253 147.782 39.6135 147.418 39.6135ZM147.482 39.1608C147.737 39.1608 147.966 39.0922 148.17 38.955C148.374 38.8139 148.533 38.6297 148.646 38.4024C148.764 38.1711 148.823 37.9242 148.823 37.6616C148.823 37.3637 148.737 37.1364 148.564 36.9796C148.392 36.819 148.176 36.7386 147.917 36.7386C147.663 36.7386 147.435 36.8092 147.235 36.9503C147.036 37.0874 146.881 37.2716 146.771 37.5029C146.661 37.7341 146.606 37.983 146.606 38.2495C146.606 38.5396 146.689 38.7649 146.853 38.9256C147.018 39.0824 147.228 39.1608 147.482 39.1608ZM149.844 37.9379C149.902 37.6087 150.02 37.3206 150.196 37.0737C150.377 36.8229 150.596 36.6289 150.855 36.4917C151.114 36.3545 151.388 36.2859 151.678 36.2859C151.925 36.2859 152.146 36.3447 152.342 36.4623C152.538 36.576 152.677 36.7269 152.76 36.915L153.06 35.2101H153.6L152.83 39.5605H152.289L152.401 38.955C152.264 39.1471 152.08 39.3058 151.848 39.4312C151.617 39.5527 151.362 39.6135 151.084 39.6135C150.833 39.6135 150.612 39.5605 150.42 39.4547C150.228 39.345 150.077 39.1902 149.967 38.9903C149.861 38.7904 149.808 38.5592 149.808 38.2966C149.808 38.179 149.82 38.0594 149.844 37.9379ZM152.577 37.9438C152.593 37.8615 152.601 37.7733 152.601 37.6793C152.601 37.3931 152.515 37.1678 152.342 37.0032C152.174 36.8346 151.958 36.7504 151.696 36.7504C151.496 36.7504 151.304 36.7974 151.119 36.8915C150.939 36.9855 150.784 37.1227 150.655 37.303C150.526 37.4833 150.439 37.6949 150.396 37.9379C150.381 38.0202 150.373 38.1104 150.373 38.2084C150.373 38.4984 150.457 38.7277 150.626 38.8962C150.794 39.0608 151.01 39.1431 151.272 39.1431C151.472 39.1431 151.662 39.0961 151.843 39.002C152.027 38.9041 152.184 38.7649 152.313 38.5846C152.446 38.4004 152.534 38.1868 152.577 37.9438ZM156.392 37.1795L156.309 37.6322H153.964L154.046 37.1795H156.392ZM158.883 36.2859C159.161 36.2859 159.395 36.3467 159.583 36.4682C159.771 36.5897 159.898 36.7425 159.965 36.9267L160.071 36.3388H160.612L160.029 39.6311C159.979 39.925 159.869 40.1857 159.7 40.413C159.536 40.6442 159.326 40.8245 159.071 40.9539C158.816 41.0832 158.534 41.1479 158.225 41.1479C157.801 41.1479 157.466 41.046 157.219 40.8422C156.972 40.6423 156.853 40.3719 156.861 40.0309H157.396C157.419 40.2268 157.511 40.3836 157.672 40.5012C157.837 40.6227 158.048 40.6834 158.307 40.6834C158.601 40.6834 158.858 40.5913 159.077 40.4071C159.297 40.2229 159.436 39.9642 159.494 39.6311L159.612 38.955C159.471 39.1431 159.285 39.2999 159.054 39.4253C158.826 39.5507 158.573 39.6135 158.295 39.6135C158.044 39.6135 157.823 39.5605 157.631 39.4547C157.439 39.345 157.288 39.1902 157.178 38.9903C157.072 38.7904 157.019 38.5592 157.019 38.2966C157.019 38.179 157.031 38.0594 157.055 37.9379C157.113 37.6087 157.231 37.3206 157.407 37.0737C157.588 36.8229 157.805 36.6289 158.06 36.4917C158.319 36.3545 158.593 36.2859 158.883 36.2859ZM159.788 37.9438C159.804 37.8615 159.812 37.7733 159.812 37.6793C159.812 37.3931 159.726 37.1678 159.553 37.0032C159.385 36.8346 159.169 36.7504 158.907 36.7504C158.707 36.7504 158.515 36.7974 158.33 36.8915C158.15 36.9855 157.995 37.1227 157.866 37.303C157.737 37.4833 157.65 37.6949 157.607 37.9379C157.592 38.0202 157.584 38.1104 157.584 38.2084C157.584 38.4984 157.668 38.7277 157.837 38.8962C158.005 39.0608 158.221 39.1431 158.483 39.1431C158.683 39.1431 158.873 39.0961 159.054 39.002C159.238 38.9041 159.395 38.7649 159.524 38.5846C159.657 38.4004 159.745 38.1868 159.788 37.9438ZM161.945 36.9503C162.074 36.7386 162.237 36.574 162.433 36.4564C162.629 36.3388 162.852 36.28 163.103 36.28L163.003 36.8327H162.862C162.584 36.8327 162.35 36.9071 162.162 37.0561C161.978 37.205 161.855 37.4559 161.792 37.8086L161.48 39.5605H160.945L161.516 36.3388H162.051L161.945 36.9503ZM163.221 37.9379C163.28 37.6087 163.397 37.3206 163.574 37.0737C163.754 36.8229 163.971 36.6289 164.226 36.4917C164.485 36.3545 164.759 36.2859 165.049 36.2859C165.331 36.2859 165.565 36.3467 165.749 36.4682C165.933 36.5897 166.06 36.7425 166.131 36.9267L166.237 36.3388H166.778L166.207 39.5605H165.666L165.778 38.9609C165.637 39.149 165.451 39.3058 165.22 39.4312C164.988 39.5527 164.734 39.6135 164.455 39.6135C164.205 39.6135 163.983 39.5605 163.791 39.4547C163.599 39.345 163.45 39.1902 163.344 38.9903C163.238 38.7904 163.186 38.5592 163.186 38.2966C163.186 38.179 163.197 38.0594 163.221 37.9379ZM165.955 37.9438C165.97 37.8615 165.978 37.7733 165.978 37.6793C165.978 37.3931 165.892 37.1678 165.719 37.0032C165.551 36.8346 165.335 36.7504 165.073 36.7504C164.873 36.7504 164.681 36.7974 164.497 36.8915C164.316 36.9855 164.161 37.1227 164.032 37.303C163.903 37.4833 163.817 37.6949 163.773 37.9379C163.758 38.0202 163.75 38.1104 163.75 38.2084C163.75 38.4984 163.834 38.7277 164.003 38.8962C164.171 39.0608 164.387 39.1431 164.649 39.1431C164.849 39.1431 165.039 39.0961 165.22 39.002C165.404 38.9041 165.561 38.7649 165.69 38.5846C165.823 38.4004 165.911 38.1868 165.955 37.9438ZM167.194 37.9379C167.253 37.6087 167.37 37.3206 167.546 37.0737C167.727 36.8229 167.946 36.6289 168.205 36.4917C168.464 36.3545 168.738 36.2859 169.028 36.2859C169.275 36.2859 169.496 36.3447 169.692 36.4623C169.888 36.576 170.027 36.7269 170.11 36.915L170.41 35.2101H170.95L170.18 39.5605H169.639L169.751 38.955C169.614 39.1471 169.43 39.3058 169.198 39.4312C168.967 39.5527 168.712 39.6135 168.434 39.6135C168.183 39.6135 167.962 39.5605 167.77 39.4547C167.578 39.345 167.427 39.1902 167.317 38.9903C167.211 38.7904 167.158 38.5592 167.158 38.2966C167.158 38.179 167.17 38.0594 167.194 37.9379ZM169.927 37.9438C169.943 37.8615 169.951 37.7733 169.951 37.6793C169.951 37.3931 169.865 37.1678 169.692 37.0032C169.524 36.8346 169.308 36.7504 169.046 36.7504C168.846 36.7504 168.654 36.7974 168.469 36.8915C168.289 36.9855 168.134 37.1227 168.005 37.303C167.876 37.4833 167.789 37.6949 167.746 37.9379C167.731 38.0202 167.723 38.1104 167.723 38.2084C167.723 38.4984 167.807 38.7277 167.976 38.8962C168.144 39.0608 168.36 39.1431 168.622 39.1431C168.822 39.1431 169.012 39.0961 169.193 39.002C169.377 38.9041 169.534 38.7649 169.663 38.5846C169.796 38.4004 169.884 38.1868 169.927 37.9438ZM173.054 36.2859C173.324 36.2859 173.557 36.3388 173.753 36.4447C173.953 36.5466 174.104 36.6916 174.206 36.8797C174.312 37.0639 174.365 37.2756 174.365 37.5146C174.365 37.5969 174.355 37.6969 174.335 37.8145C174.32 37.9164 174.294 38.0222 174.259 38.1319H171.684C171.676 38.2103 171.672 38.2672 171.672 38.3024C171.672 38.5729 171.753 38.7845 171.913 38.9374C172.078 39.0863 172.292 39.1608 172.554 39.1608C172.785 39.1608 172.987 39.1079 173.16 39.002C173.336 38.8923 173.469 38.7473 173.559 38.567H174.136C173.994 38.8766 173.777 39.1294 173.483 39.3254C173.193 39.5174 172.856 39.6135 172.472 39.6135C172.068 39.6135 171.743 39.4978 171.496 39.2666C171.253 39.0314 171.131 38.712 171.131 38.3083C171.131 38.1947 171.143 38.0732 171.167 37.9438C171.225 37.6107 171.345 37.3187 171.525 37.0678C171.706 36.817 171.927 36.6249 172.19 36.4917C172.456 36.3545 172.744 36.2859 173.054 36.2859ZM173.795 37.7439C173.806 37.6655 173.812 37.593 173.812 37.5264C173.812 37.2756 173.732 37.0816 173.571 36.9444C173.414 36.8072 173.209 36.7386 172.954 36.7386C172.68 36.7386 172.431 36.8288 172.207 37.009C171.984 37.1854 171.833 37.4304 171.755 37.7439H173.795ZM180.937 36.28C181.267 36.28 181.529 36.3702 181.725 36.5505C181.925 36.7269 182.025 36.9855 182.025 37.3265C182.025 37.4519 182.015 37.5636 181.996 37.6616L181.661 39.5605H181.131L181.455 37.738C181.47 37.6557 181.478 37.5676 181.478 37.4735C181.478 37.2344 181.414 37.0541 181.284 36.9326C181.159 36.8072 180.981 36.7445 180.749 36.7445C180.483 36.7445 180.254 36.8268 180.061 36.9914C179.873 37.1521 179.744 37.3853 179.673 37.691L179.338 39.5605H178.809L179.133 37.738C179.148 37.6479 179.156 37.5578 179.156 37.4676C179.156 37.2324 179.091 37.0541 178.962 36.9326C178.837 36.8072 178.658 36.7445 178.427 36.7445C178.149 36.7445 177.912 36.8346 177.716 37.0149C177.52 37.1913 177.392 37.448 177.334 37.7851V37.7733L177.016 39.5605H176.481L177.051 36.3388H177.586L177.504 36.8033C177.637 36.6347 177.802 36.5054 177.998 36.4153C178.194 36.3251 178.4 36.28 178.615 36.28C178.886 36.28 179.113 36.3408 179.297 36.4623C179.485 36.5838 179.609 36.7621 179.668 36.9973C179.801 36.77 179.981 36.5936 180.208 36.4682C180.44 36.3428 180.683 36.28 180.937 36.28ZM182.62 37.9379C182.679 37.6087 182.797 37.3206 182.973 37.0737C183.153 36.8229 183.371 36.6289 183.626 36.4917C183.884 36.3545 184.159 36.2859 184.449 36.2859C184.731 36.2859 184.964 36.3467 185.148 36.4682C185.333 36.5897 185.46 36.7425 185.531 36.9267L185.636 36.3388H186.177L185.607 39.5605H185.066L185.178 38.9609C185.037 39.149 184.851 39.3058 184.619 39.4312C184.388 39.5527 184.133 39.6135 183.855 39.6135C183.604 39.6135 183.383 39.5605 183.191 39.4547C182.999 39.345 182.85 39.1902 182.744 38.9903C182.638 38.7904 182.585 38.5592 182.585 38.2966C182.585 38.179 182.597 38.0594 182.62 37.9379ZM185.354 37.9438C185.37 37.8615 185.378 37.7733 185.378 37.6793C185.378 37.3931 185.292 37.1678 185.119 37.0032C184.951 36.8346 184.735 36.7504 184.472 36.7504C184.272 36.7504 184.08 36.7974 183.896 36.8915C183.716 36.9855 183.561 37.1227 183.432 37.303C183.302 37.4833 183.216 37.6949 183.173 37.9379C183.157 38.0202 183.15 38.1104 183.15 38.2084C183.15 38.4984 183.234 38.7277 183.402 38.8962C183.571 39.0608 183.786 39.1431 184.049 39.1431C184.249 39.1431 184.439 39.0961 184.619 39.002C184.804 38.9041 184.96 38.7649 185.09 38.5846C185.223 38.4004 185.311 38.1868 185.354 37.9438ZM187.322 38.6787C187.311 38.7375 187.305 38.7884 187.305 38.8315C187.305 38.9295 187.334 39.0001 187.393 39.0432C187.456 39.0863 187.556 39.1079 187.693 39.1079H188.087L188.004 39.5605H187.522C187.268 39.5605 187.075 39.5116 186.946 39.4136C186.821 39.3156 186.758 39.1549 186.758 38.9315C186.758 38.8453 186.766 38.761 186.782 38.6787L187.117 36.7798H186.705L186.782 36.3388H187.199L187.34 35.5275H187.881L187.74 36.3388H188.575L188.498 36.7798H187.658L187.322 38.6787ZM190.622 36.2859C190.893 36.2859 191.126 36.3388 191.322 36.4447C191.522 36.5466 191.672 36.6916 191.774 36.8797C191.88 37.0639 191.933 37.2756 191.933 37.5146C191.933 37.5969 191.923 37.6969 191.904 37.8145C191.888 37.9164 191.863 38.0222 191.827 38.1319H189.252C189.244 38.2103 189.24 38.2672 189.24 38.3024C189.24 38.5729 189.321 38.7845 189.482 38.9374C189.646 39.0863 189.86 39.1608 190.122 39.1608C190.354 39.1608 190.555 39.1079 190.728 39.002C190.904 38.8923 191.038 38.7473 191.128 38.567H191.704C191.563 38.8766 191.345 39.1294 191.051 39.3254C190.761 39.5174 190.424 39.6135 190.04 39.6135C189.636 39.6135 189.311 39.4978 189.064 39.2666C188.821 39.0314 188.7 38.712 188.7 38.3083C188.7 38.1947 188.711 38.0732 188.735 37.9438C188.794 37.6107 188.913 37.3187 189.094 37.0678C189.274 36.817 189.495 36.6249 189.758 36.4917C190.024 36.3545 190.312 36.2859 190.622 36.2859ZM191.363 37.7439C191.375 37.6655 191.38 37.593 191.38 37.5264C191.38 37.2756 191.3 37.0816 191.139 36.9444C190.983 36.8072 190.777 36.7386 190.522 36.7386C190.248 36.7386 189.999 36.8288 189.775 37.009C189.552 37.1854 189.401 37.4304 189.323 37.7439H191.363ZM193.298 36.9503C193.427 36.7386 193.59 36.574 193.786 36.4564C193.982 36.3388 194.205 36.28 194.456 36.28L194.356 36.8327H194.215C193.937 36.8327 193.703 36.9071 193.515 37.0561C193.331 37.205 193.208 37.4559 193.145 37.8086L192.833 39.5605H192.298L192.869 36.3388H193.404L193.298 36.9503ZM195.426 35.8156C195.34 35.8156 195.267 35.7882 195.209 35.7333C195.154 35.6745 195.126 35.602 195.126 35.5158C195.126 35.3982 195.169 35.2982 195.256 35.2159C195.342 35.1297 195.442 35.0866 195.556 35.0866C195.646 35.0866 195.718 35.114 195.773 35.1689C195.828 35.2238 195.855 35.2963 195.855 35.3864C195.855 35.504 195.812 35.6059 195.726 35.6921C195.64 35.7744 195.54 35.8156 195.426 35.8156ZM195.597 36.3388L195.026 39.5605H194.491L195.062 36.3388H195.597ZM196.021 37.9379C196.079 37.6087 196.197 37.3206 196.373 37.0737C196.554 36.8229 196.771 36.6289 197.026 36.4917C197.285 36.3545 197.559 36.2859 197.849 36.2859C198.131 36.2859 198.364 36.3467 198.549 36.4682C198.733 36.5897 198.86 36.7425 198.931 36.9267L199.036 36.3388H199.577L199.007 39.5605H198.466L198.578 38.9609C198.437 39.149 198.251 39.3058 198.019 39.4312C197.788 39.5527 197.533 39.6135 197.255 39.6135C197.004 39.6135 196.783 39.5605 196.591 39.4547C196.399 39.345 196.25 39.1902 196.144 38.9903C196.038 38.7904 195.985 38.5592 195.985 38.2966C195.985 38.179 195.997 38.0594 196.021 37.9379ZM198.754 37.9438C198.77 37.8615 198.778 37.7733 198.778 37.6793C198.778 37.3931 198.692 37.1678 198.519 37.0032C198.351 36.8346 198.135 36.7504 197.872 36.7504C197.673 36.7504 197.48 36.7974 197.296 36.8915C197.116 36.9855 196.961 37.1227 196.832 37.303C196.703 37.4833 196.616 37.6949 196.573 37.9379C196.557 38.0202 196.55 38.1104 196.55 38.2084C196.55 38.4984 196.634 38.7277 196.802 38.8962C196.971 39.0608 197.187 39.1431 197.449 39.1431C197.649 39.1431 197.839 39.0961 198.019 39.002C198.204 38.9041 198.36 38.7649 198.49 38.5846C198.623 38.4004 198.711 38.1868 198.754 37.9438ZM201.216 35.2101L200.446 39.5605H199.911L200.681 35.2101H201.216Z" fill="black"/>
<defs>
<clipPath id="clip0_989_579">
<rect width="15.6774" height="15.6774" fill="white" transform="translate(16.1641 7.23633)"/>
</clipPath>
<clipPath id="clip1_989_579">
<rect width="15.6774" height="15.6774" fill="white" transform="translate(85.1914 7.23633)"/>
</clipPath>
</defs>
</svg>
