<svg width="126" height="25" viewBox="0 0 126 25" fill="none" xmlns="http://www.w3.org/2000/svg">
<path d="M5.1585 19.8234C4.0385 19.8234 3.1025 19.5834 2.3505 19.1034C1.6145 18.6234 1.0545 17.9594 0.6705 17.1114C0.2865 16.2634 0.0625 15.2794 -0.00149998 14.1594L2.3985 13.5114C2.4465 14.1994 2.5505 14.8634 2.7105 15.5034C2.8865 16.1434 3.1665 16.6714 3.5505 17.0874C3.9345 17.4874 4.4705 17.6874 5.1585 17.6874C5.8625 17.6874 6.3905 17.4954 6.7425 17.1114C7.1105 16.7114 7.2945 16.1434 7.2945 15.4074C7.2945 14.5274 7.0945 13.8234 6.6945 13.2954C6.2945 12.7514 5.7905 12.2074 5.1825 11.6634L1.9185 8.78342C1.2785 8.22342 0.8065 7.61542 0.5025 6.95942C0.1985 6.28742 0.0465 5.46342 0.0465 4.48742C0.0465 3.06342 0.4545 1.95942 1.2705 1.17542C2.0865 0.391421 3.1985 -0.00057888 4.6065 -0.00057888C5.3745 -0.00057888 6.0465 0.103421 6.6225 0.311421C7.2145 0.503421 7.7025 0.807421 8.0865 1.22342C8.4865 1.63942 8.7985 2.16742 9.0225 2.80742C9.2625 3.43142 9.4225 4.16742 9.5025 5.01542L7.1985 5.63942C7.1505 4.99942 7.0545 4.41542 6.9105 3.88742C6.7665 3.34342 6.5105 2.91142 6.1425 2.59142C5.7905 2.25542 5.2785 2.08742 4.6065 2.08742C3.9345 2.08742 3.4065 2.27142 3.0225 2.63942C2.6545 2.99142 2.4705 3.51942 2.4705 4.22342C2.4705 4.81542 2.5665 5.30342 2.7585 5.68742C2.9665 6.07142 3.2945 6.46342 3.7425 6.86342L7.0305 9.74342C7.7665 10.3834 8.4145 11.1514 8.9745 12.0474C9.5345 12.9274 9.8145 13.9754 9.8145 15.1914C9.8145 16.1514 9.6145 16.9834 9.2145 17.6874C8.8145 18.3754 8.2625 18.9034 7.5585 19.2714C6.8705 19.6394 6.0705 19.8234 5.1585 19.8234ZM12.1822 24.1674V5.73542H14.7502V6.83942C15.0542 6.48742 15.4222 6.18342 15.8542 5.92742C16.2862 5.67142 16.7982 5.54342 17.3903 5.54342C18.1102 5.54342 18.6782 5.73542 19.0942 6.11942C19.5262 6.48742 19.8463 6.95942 20.0543 7.53542C20.2622 8.09542 20.3982 8.67142 20.4622 9.26342C20.5263 9.83942 20.5583 10.3354 20.5583 10.7514V14.1114C20.5583 15.0874 20.4623 16.0154 20.2703 16.8954C20.0782 17.7594 19.7262 18.4634 19.2142 19.0074C18.7182 19.5354 18.0142 19.7994 17.1022 19.7994C16.6062 19.7994 16.1662 19.6794 15.7822 19.4394C15.3982 19.1834 15.0542 18.8954 14.7502 18.5754V24.1674H12.1822ZM16.5982 17.7834C17.0462 17.7834 17.3662 17.6234 17.5583 17.3034C17.7503 16.9674 17.8702 16.5194 17.9182 15.9594C17.9662 15.3994 17.9902 14.7834 17.9902 14.1114V10.7514C17.9902 10.1754 17.9582 9.64742 17.8943 9.16742C17.8303 8.67142 17.6942 8.27942 17.4862 7.99142C17.2782 7.70342 16.9503 7.55942 16.5022 7.55942C16.1662 7.55942 15.8462 7.63142 15.5422 7.77542C15.2382 7.91942 14.9742 8.08742 14.7502 8.27942V17.1594C14.9902 17.3354 15.2622 17.4874 15.5662 17.6154C15.8702 17.7274 16.2142 17.7834 16.5982 17.7834ZM27.2132 19.7994C26.1252 19.7994 25.2852 19.5914 24.6932 19.1754C24.1012 18.7434 23.6852 18.1194 23.4452 17.3034C23.2212 16.4714 23.1092 15.4554 23.1092 14.2554V11.0874C23.1092 9.85542 23.2292 8.83142 23.4692 8.01542C23.7092 7.19942 24.1252 6.58342 24.7172 6.16742C25.3252 5.75142 26.1572 5.54342 27.2132 5.54342C28.3812 5.54342 29.2372 5.78342 29.7812 6.26342C30.3412 6.74342 30.7092 7.43942 30.8852 8.35142C31.0612 9.24742 31.1492 10.3274 31.1492 11.5914V12.7194H25.6772V15.5034C25.6772 16.0634 25.7252 16.5194 25.8212 16.8714C25.9332 17.2234 26.1012 17.4874 26.3252 17.6634C26.5652 17.8234 26.8692 17.9034 27.2372 17.9034C27.6212 17.9034 27.9092 17.8154 28.1012 17.6394C28.3092 17.4474 28.4452 17.1834 28.5092 16.8474C28.5892 16.4954 28.6292 16.0874 28.6292 15.6234V14.7834H31.1252V15.3114C31.1252 16.7034 30.8292 17.7994 30.2372 18.5994C29.6452 19.3994 28.6372 19.7994 27.2132 19.7994ZM25.6772 11.3274H28.6292V10.0794C28.6292 9.50342 28.5972 9.02342 28.5332 8.63942C28.4692 8.23942 28.3332 7.94342 28.1252 7.75142C27.9332 7.54342 27.6212 7.43942 27.1892 7.43942C26.7732 7.43942 26.4532 7.53542 26.2292 7.72742C26.0212 7.91942 25.8772 8.24742 25.7972 8.71142C25.7172 9.15942 25.6772 9.78342 25.6772 10.5834V11.3274ZM37.7467 19.7994C36.6107 19.7994 35.7467 19.5754 35.1547 19.1274C34.5787 18.6634 34.1867 18.0154 33.9787 17.1834C33.7867 16.3514 33.6907 15.3834 33.6907 14.2794V11.0874C33.6907 9.91942 33.7947 8.92742 34.0027 8.11142C34.2107 7.27942 34.6027 6.64742 35.1787 6.21542C35.7707 5.76742 36.6267 5.54342 37.7467 5.54342C38.7547 5.54342 39.5307 5.71142 40.0747 6.04742C40.6347 6.36742 41.0187 6.85542 41.2267 7.51142C41.4347 8.15142 41.5387 8.95142 41.5387 9.91142V10.7274H39.2107V9.88742C39.2107 9.27942 39.1707 8.79942 39.0907 8.44742C39.0107 8.09542 38.8667 7.83942 38.6587 7.67942C38.4507 7.51942 38.1547 7.43942 37.7707 7.43942C37.3547 7.43942 37.0347 7.53542 36.8107 7.72742C36.5867 7.91942 36.4347 8.24742 36.3547 8.71142C36.2907 9.15942 36.2587 9.77542 36.2587 10.5594V14.9274C36.2587 16.1114 36.3707 16.9034 36.5947 17.3034C36.8187 17.7034 37.2187 17.9034 37.7947 17.9034C38.2267 17.9034 38.5387 17.8074 38.7307 17.6154C38.9387 17.4074 39.0667 17.1194 39.1147 16.7514C39.1787 16.3834 39.2107 15.9674 39.2107 15.5034V14.3754H41.5387V15.3354C41.5387 16.2634 41.4267 17.0634 41.2027 17.7354C40.9947 18.4074 40.6107 18.9194 40.0507 19.2714C39.5067 19.6234 38.7387 19.7994 37.7467 19.7994ZM44.4699 19.6074V5.73542H47.0379V19.6074H44.4699ZM44.4699 3.67142V0.983421H47.0379V3.67142H44.4699ZM51.0823 19.6074V7.63142H49.4263V5.73542H51.0823V5.01542C51.0823 4.08742 51.1783 3.31942 51.3703 2.71142C51.5783 2.10342 51.9223 1.64742 52.4023 1.34342C52.8823 1.03942 53.5383 0.887421 54.3703 0.887421C54.5783 0.887421 54.7943 0.895421 55.0183 0.911421C55.2583 0.927421 55.5063 0.951421 55.7623 0.983421V2.90342C55.6023 2.87142 55.4423 2.84742 55.2823 2.83142C55.1383 2.81542 55.0023 2.80742 54.8743 2.80742C54.3783 2.80742 54.0503 2.94342 53.8903 3.21542C53.7303 3.48742 53.6503 3.94342 53.6503 4.58342V5.73542H59.3143V19.6074H56.7463V7.63142H53.6503V19.6074H51.0823ZM56.9863 3.67142V0.983421H59.3383V3.67142H56.9863ZM66.3274 19.7994C65.1914 19.7994 64.3274 19.5754 63.7354 19.1274C63.1594 18.6634 62.7674 18.0154 62.5594 17.1834C62.3674 16.3514 62.2714 15.3834 62.2714 14.2794V11.0874C62.2714 9.91942 62.3754 8.92742 62.5834 8.11142C62.7914 7.27942 63.1834 6.64742 63.7594 6.21542C64.3514 5.76742 65.2074 5.54342 66.3274 5.54342C67.3354 5.54342 68.1114 5.71142 68.6554 6.04742C69.2154 6.36742 69.5994 6.85542 69.8074 7.51142C70.0154 8.15142 70.1194 8.95142 70.1194 9.91142V10.7274H67.7914V9.88742C67.7914 9.27942 67.7514 8.79942 67.6714 8.44742C67.5914 8.09542 67.4474 7.83942 67.2394 7.67942C67.0314 7.51942 66.7354 7.43942 66.3514 7.43942C65.9354 7.43942 65.6154 7.53542 65.3914 7.72742C65.1674 7.91942 65.0154 8.24742 64.9354 8.71142C64.8714 9.15942 64.8394 9.77542 64.8394 10.5594V14.9274C64.8394 16.1114 64.9514 16.9034 65.1754 17.3034C65.3994 17.7034 65.7994 17.9034 66.3754 17.9034C66.8074 17.9034 67.1194 17.8074 67.3114 17.6154C67.5194 17.4074 67.6474 17.1194 67.6954 16.7514C67.7594 16.3834 67.7914 15.9674 67.7914 15.5034V14.3754H70.1194V15.3354C70.1194 16.2634 70.0074 17.0634 69.7834 17.7354C69.5754 18.4074 69.1914 18.9194 68.6314 19.2714C68.0874 19.6234 67.3194 19.7994 66.3274 19.7994ZM74.9706 19.7994C74.4266 19.7994 73.9466 19.6474 73.5306 19.3434C73.1146 19.0234 72.7866 18.6234 72.5466 18.1434C72.3066 17.6474 72.1866 17.1274 72.1866 16.5834C72.1866 15.7194 72.3306 14.9914 72.6186 14.3994C72.9066 13.8074 73.2986 13.3114 73.7946 12.9114C74.3066 12.4954 74.8906 12.1354 75.5466 11.8314C76.2186 11.5274 76.9226 11.2314 77.6586 10.9434V9.95942C77.6586 9.39942 77.6266 8.93542 77.5626 8.56742C77.4986 8.19942 77.3626 7.92742 77.1546 7.75142C76.9626 7.55942 76.6666 7.46342 76.2666 7.46342C75.9146 7.46342 75.6266 7.54342 75.4026 7.70342C75.1946 7.86342 75.0426 8.09542 74.9466 8.39942C74.8506 8.68742 74.8026 9.03142 74.8026 9.43142V10.1274L72.2586 10.0314C72.2906 8.49542 72.6426 7.36742 73.3146 6.64742C73.9866 5.91142 75.0266 5.54342 76.4346 5.54342C77.8106 5.54342 78.7866 5.91942 79.3626 6.67142C79.9386 7.42342 80.2266 8.51142 80.2266 9.93542V16.2714C80.2266 16.7034 80.2346 17.1194 80.2506 17.5194C80.2826 17.9194 80.3146 18.2954 80.3466 18.6474C80.3946 18.9834 80.4346 19.3034 80.4666 19.6074H78.1146C78.0666 19.3514 78.0026 19.0314 77.9226 18.6474C77.8586 18.2474 77.8106 17.8874 77.7786 17.5674C77.6186 18.1114 77.3066 18.6234 76.8426 19.1034C76.3946 19.5674 75.7706 19.7994 74.9706 19.7994ZM75.9786 17.5914C76.2346 17.5914 76.4746 17.5194 76.6986 17.3754C76.9226 17.2314 77.1226 17.0714 77.2986 16.8954C77.4746 16.7034 77.5946 16.5514 77.6586 16.4394V12.5034C77.2586 12.7274 76.8826 12.9514 76.5306 13.1754C76.1786 13.3994 75.8666 13.6394 75.5946 13.8954C75.3386 14.1354 75.1306 14.4154 74.9706 14.7354C74.8266 15.0394 74.7546 15.3914 74.7546 15.7914C74.7546 16.3514 74.8586 16.7914 75.0666 17.1114C75.2746 17.4314 75.5786 17.5914 75.9786 17.5914ZM86.8554 19.7994C86.1354 19.7994 85.5514 19.6634 85.1034 19.3914C84.6714 19.1194 84.3514 18.7354 84.1434 18.2394C83.9514 17.7434 83.8554 17.1594 83.8554 16.4874V7.43942H82.3914V5.73542H83.8554V1.67942H86.4234V5.73542H88.6554V7.43942H86.4234V16.3194C86.4234 16.8634 86.5114 17.2554 86.6874 17.4954C86.8634 17.7194 87.1994 17.8314 87.6954 17.8314C87.8234 17.8314 87.9674 17.8234 88.1274 17.8074C88.3034 17.7914 88.4714 17.7754 88.6314 17.7594V19.6554C88.3114 19.7034 88.0154 19.7354 87.7434 19.7514C87.4714 19.7834 87.1754 19.7994 86.8554 19.7994ZM91.1902 19.6074V5.73542H93.7582V19.6074H91.1902ZM91.1902 3.67142V0.983421H93.7582V3.67142H91.1902ZM100.803 19.7994C99.7786 19.7994 98.9706 19.5914 98.3786 19.1754C97.7866 18.7594 97.3626 18.1674 97.1066 17.3994C96.8666 16.6314 96.7466 15.7274 96.7466 14.6874V10.6554C96.7466 9.61542 96.8666 8.71142 97.1066 7.94342C97.3626 7.17542 97.7866 6.58342 98.3786 6.16742C98.9706 5.75142 99.7786 5.54342 100.803 5.54342C101.827 5.54342 102.627 5.75142 103.203 6.16742C103.795 6.58342 104.211 7.17542 104.451 7.94342C104.707 8.71142 104.835 9.61542 104.835 10.6554V14.6874C104.835 15.7274 104.707 16.6314 104.451 17.3994C104.211 18.1674 103.795 18.7594 103.203 19.1754C102.627 19.5914 101.827 19.7994 100.803 19.7994ZM100.803 17.9034C101.299 17.9034 101.643 17.7594 101.835 17.4714C102.043 17.1834 102.163 16.8074 102.195 16.3434C102.243 15.8634 102.267 15.3674 102.267 14.8554V10.5114C102.267 9.98342 102.243 9.48742 102.195 9.02342C102.163 8.55942 102.043 8.18342 101.835 7.89542C101.643 7.59142 101.299 7.43942 100.803 7.43942C100.307 7.43942 99.9546 7.59142 99.7466 7.89542C99.5386 8.18342 99.4106 8.55942 99.3626 9.02342C99.3306 9.48742 99.3146 9.98342 99.3146 10.5114V14.8554C99.3146 15.3674 99.3306 15.8634 99.3626 16.3434C99.4106 16.8074 99.5386 17.1834 99.7466 17.4714C99.9546 17.7594 100.307 17.9034 100.803 17.9034ZM107.662 19.6074V5.73542H110.23V7.10342C110.694 6.67142 111.206 6.30342 111.766 5.99942C112.326 5.69542 112.942 5.54342 113.614 5.54342C114.174 5.54342 114.598 5.68742 114.886 5.97542C115.19 6.26342 115.398 6.62342 115.51 7.05542C115.638 7.48742 115.702 7.92742 115.702 8.37542V19.6074H113.134V9.11942C113.134 8.62342 113.062 8.23942 112.918 7.96742C112.774 7.69542 112.478 7.55942 112.03 7.55942C111.742 7.55942 111.438 7.64742 111.118 7.82342C110.814 7.98342 110.518 8.18342 110.23 8.42342V19.6074H107.662ZM121.905 19.7994C120.769 19.7994 119.857 19.4474 119.169 18.7434C118.481 18.0234 118.089 17.0794 117.993 15.9114L120.129 15.2634C120.257 16.1434 120.473 16.8074 120.777 17.2554C121.081 17.6874 121.529 17.9034 122.121 17.9034C122.585 17.9034 122.937 17.7754 123.177 17.5194C123.417 17.2474 123.537 16.8874 123.537 16.4394C123.537 16.0394 123.449 15.6794 123.273 15.3594C123.097 15.0394 122.809 14.7114 122.409 14.3754L120.033 12.3354C119.553 11.9194 119.145 11.4554 118.809 10.9434C118.489 10.4314 118.329 9.76742 118.329 8.95142C118.329 8.21542 118.473 7.59942 118.761 7.10342C119.065 6.59142 119.481 6.20742 120.009 5.95142C120.553 5.67942 121.185 5.54342 121.905 5.54342C123.057 5.54342 123.937 5.90342 124.545 6.62342C125.153 7.32742 125.505 8.18342 125.601 9.19142L123.777 9.83942C123.713 9.35942 123.617 8.94342 123.489 8.59142C123.361 8.22342 123.177 7.94342 122.937 7.75142C122.697 7.54342 122.385 7.43942 122.001 7.43942C121.585 7.43942 121.249 7.58342 120.993 7.87142C120.753 8.14342 120.633 8.47142 120.633 8.85542C120.633 9.09542 120.681 9.33542 120.777 9.57542C120.889 9.79942 121.073 10.0234 121.329 10.2474L123.777 12.5034C124.113 12.8074 124.425 13.1354 124.713 13.4874C125.017 13.8394 125.265 14.2394 125.457 14.6874C125.649 15.1354 125.745 15.6554 125.745 16.2474C125.745 17.0314 125.585 17.6874 125.265 18.2154C124.945 18.7434 124.497 19.1434 123.921 19.4154C123.345 19.6714 122.673 19.7994 121.905 19.7994Z" fill="black" fill-opacity="0.64"/>
</svg>
