<svg width="124" height="37" viewBox="0 0 124 37" fill="none" xmlns="http://www.w3.org/2000/svg">
<path d="M21.27 13.3927C21.3433 13.3927 21.4083 13.421 21.465 13.4777L21.995 14.0527C21.7017 14.416 21.34 14.6943 20.91 14.8877C20.4833 15.081 19.97 15.1777 19.37 15.1777C18.8333 15.1777 18.35 15.086 17.92 14.9027C17.4933 14.7193 17.1283 14.4643 16.825 14.1377C16.5217 13.811 16.2883 13.421 16.125 12.9677C15.965 12.5143 15.885 12.0193 15.885 11.4827C15.885 10.9393 15.9717 10.4427 16.145 9.99266C16.3183 9.53932 16.5617 9.14932 16.875 8.82266C17.1917 8.49599 17.5683 8.24266 18.005 8.06266C18.4417 7.87932 18.925 7.78766 19.455 7.78766C19.9817 7.78766 20.4483 7.87432 20.855 8.04766C21.265 8.22099 21.6133 8.44766 21.9 8.72766L21.45 9.35266C21.4233 9.39266 21.3883 9.42766 21.345 9.45766C21.305 9.48766 21.2483 9.50266 21.175 9.50266C21.125 9.50266 21.0733 9.48932 21.02 9.46266C20.9667 9.43266 20.9083 9.39766 20.845 9.35766C20.7817 9.31432 20.7083 9.26766 20.625 9.21766C20.5417 9.16766 20.445 9.12266 20.335 9.08266C20.225 9.03932 20.0967 9.00432 19.95 8.97766C19.8067 8.94766 19.64 8.93266 19.45 8.93266C19.1267 8.93266 18.83 8.99099 18.56 9.10766C18.2933 9.22099 18.0633 9.38766 17.87 9.60766C17.6767 9.82432 17.5267 10.091 17.42 10.4077C17.3133 10.721 17.26 11.0793 17.26 11.4827C17.26 11.8893 17.3167 12.251 17.43 12.5677C17.5467 12.8843 17.7033 13.151 17.9 13.3677C18.0967 13.5843 18.3283 13.751 18.595 13.8677C18.8617 13.981 19.1483 14.0377 19.455 14.0377C19.6383 14.0377 19.8033 14.0277 19.95 14.0077C20.1 13.9877 20.2367 13.956 20.36 13.9127C20.4867 13.8693 20.605 13.8143 20.715 13.7477C20.8283 13.6777 20.94 13.5927 21.05 13.4927C21.0833 13.4627 21.1183 13.4393 21.155 13.4227C21.1917 13.4027 21.23 13.3927 21.27 13.3927ZM25.4313 12.9077C25.0747 12.9243 24.7747 12.956 24.5313 13.0027C24.288 13.046 24.093 13.1027 23.9463 13.1727C23.7997 13.2427 23.6947 13.3243 23.6313 13.4177C23.568 13.511 23.5363 13.6127 23.5363 13.7227C23.5363 13.9393 23.5997 14.0943 23.7263 14.1877C23.8563 14.281 24.0247 14.3277 24.2313 14.3277C24.4847 14.3277 24.703 14.2827 24.8863 14.1927C25.073 14.0993 25.2547 13.9593 25.4313 13.7727V12.9077ZM22.6013 10.6827C23.1913 10.1427 23.9013 9.87266 24.7313 9.87266C25.0313 9.87266 25.2997 9.92266 25.5363 10.0227C25.773 10.1193 25.973 10.256 26.1363 10.4327C26.2997 10.606 26.423 10.8143 26.5063 11.0577C26.593 11.301 26.6363 11.5677 26.6363 11.8577V15.0977H26.0763C25.9597 15.0977 25.8697 15.081 25.8063 15.0477C25.743 15.011 25.693 14.9393 25.6563 14.8327L25.5463 14.4627C25.4163 14.5793 25.2897 14.6827 25.1663 14.7727C25.043 14.8593 24.9147 14.9327 24.7813 14.9927C24.648 15.0527 24.5047 15.0977 24.3513 15.1277C24.2013 15.161 24.0347 15.1777 23.8513 15.1777C23.6347 15.1777 23.4347 15.1493 23.2513 15.0927C23.068 15.0327 22.9097 14.9443 22.7763 14.8277C22.643 14.711 22.5397 14.566 22.4663 14.3927C22.393 14.2193 22.3563 14.0177 22.3563 13.7877C22.3563 13.6577 22.378 13.5293 22.4213 13.4027C22.4647 13.2727 22.5347 13.1493 22.6313 13.0327C22.7313 12.916 22.8597 12.806 23.0163 12.7027C23.173 12.5993 23.3647 12.5093 23.5913 12.4327C23.8213 12.356 24.088 12.2943 24.3913 12.2477C24.6947 12.1977 25.0413 12.1677 25.4313 12.1577V11.8577C25.4313 11.5143 25.358 11.261 25.2113 11.0977C25.0647 10.931 24.853 10.8477 24.5763 10.8477C24.3763 10.8477 24.2097 10.871 24.0763 10.9177C23.9463 10.9643 23.8313 11.0177 23.7313 11.0777C23.6313 11.1343 23.5397 11.186 23.4563 11.2327C23.3763 11.2793 23.2863 11.3027 23.1863 11.3027C23.0997 11.3027 23.0263 11.281 22.9663 11.2377C22.9063 11.191 22.858 11.1377 22.8213 11.0777L22.6013 10.6827ZM28.9645 10.8577C29.1245 10.551 29.3145 10.311 29.5345 10.1377C29.7545 9.96099 30.0145 9.87266 30.3145 9.87266C30.5511 9.87266 30.7411 9.92432 30.8845 10.0277L30.8045 10.9527C30.7878 11.0127 30.7628 11.056 30.7295 11.0827C30.6995 11.106 30.6578 11.1177 30.6045 11.1177C30.5545 11.1177 30.4795 11.1093 30.3795 11.0927C30.2828 11.076 30.1878 11.0677 30.0945 11.0677C29.9578 11.0677 29.8361 11.0877 29.7295 11.1277C29.6228 11.1677 29.5261 11.226 29.4395 11.3027C29.3561 11.376 29.2811 11.466 29.2145 11.5727C29.1511 11.6793 29.0911 11.801 29.0345 11.9377V15.0977H27.7995V9.96766H28.5245C28.6511 9.96766 28.7395 9.99099 28.7895 10.0377C28.8395 10.081 28.8728 10.161 28.8895 10.2777L28.9645 10.8577ZM33.2399 15.1777C32.7933 15.1777 32.4499 15.0527 32.2099 14.8027C31.9733 14.5493 31.8549 14.201 31.8549 13.7577V10.8927H31.3299C31.2633 10.8927 31.2066 10.871 31.1599 10.8277C31.1133 10.7843 31.0899 10.7193 31.0899 10.6327V10.1427L31.9149 10.0077L32.1749 8.60766C32.1916 8.54099 32.2233 8.48932 32.2699 8.45266C32.3166 8.41599 32.3766 8.39766 32.4499 8.39766H33.0899V10.0127H34.4599V10.8927H33.0899V13.6727C33.0899 13.8327 33.1283 13.9577 33.2049 14.0477C33.2849 14.1377 33.3933 14.1827 33.5299 14.1827C33.6066 14.1827 33.6699 14.1743 33.7199 14.1577C33.7733 14.1377 33.8183 14.1177 33.8549 14.0977C33.8949 14.0777 33.9299 14.0593 33.9599 14.0427C33.9899 14.0227 34.0199 14.0127 34.0499 14.0127C34.0866 14.0127 34.1166 14.0227 34.1399 14.0427C34.1633 14.0593 34.1883 14.086 34.2149 14.1227L34.5849 14.7227C34.4049 14.8727 34.1983 14.986 33.9649 15.0627C33.7316 15.1393 33.4899 15.1777 33.2399 15.1777ZM37.4816 9.88766C37.8616 9.88766 38.2066 9.94932 38.5166 10.0727C38.8299 10.196 39.0966 10.371 39.3166 10.5977C39.5399 10.8243 39.7116 11.101 39.8316 11.4277C39.9516 11.7543 40.0116 12.1193 40.0116 12.5227C40.0116 12.9293 39.9516 13.296 39.8316 13.6227C39.7116 13.9493 39.5399 14.2277 39.3166 14.4577C39.0966 14.6877 38.8299 14.8643 38.5166 14.9877C38.2066 15.111 37.8616 15.1727 37.4816 15.1727C37.0982 15.1727 36.7499 15.111 36.4366 14.9877C36.1232 14.8643 35.8549 14.6877 35.6316 14.4577C35.4116 14.2277 35.2399 13.9493 35.1166 13.6227C34.9966 13.296 34.9366 12.9293 34.9366 12.5227C34.9366 12.1193 34.9966 11.7543 35.1166 11.4277C35.2399 11.101 35.4116 10.8243 35.6316 10.5977C35.8549 10.371 36.1232 10.196 36.4366 10.0727C36.7499 9.94932 37.0982 9.88766 37.4816 9.88766ZM37.4816 14.2227C37.9082 14.2227 38.2232 14.0793 38.4266 13.7927C38.6332 13.506 38.7366 13.086 38.7366 12.5327C38.7366 11.9793 38.6332 11.5577 38.4266 11.2677C38.2232 10.9777 37.9082 10.8327 37.4816 10.8327C37.0482 10.8327 36.7266 10.9793 36.5166 11.2727C36.3099 11.5627 36.2066 11.9827 36.2066 12.5327C36.2066 13.0827 36.3099 13.5027 36.5166 13.7927C36.7266 14.0793 37.0482 14.2227 37.4816 14.2227ZM42.1088 10.5977C42.2121 10.4943 42.3204 10.3993 42.4338 10.3127C42.5504 10.2227 42.6721 10.1477 42.7988 10.0877C42.9288 10.0243 43.0671 9.97599 43.2138 9.94266C43.3604 9.90599 43.5204 9.88766 43.6938 9.88766C43.9738 9.88766 44.2221 9.93599 44.4388 10.0327C44.6554 10.126 44.8354 10.2593 44.9788 10.4327C45.1254 10.6027 45.2354 10.8077 45.3088 11.0477C45.3854 11.2843 45.4238 11.546 45.4238 11.8327V15.0977H44.1888V11.8327C44.1888 11.5193 44.1171 11.2777 43.9738 11.1077C43.8304 10.9343 43.6121 10.8477 43.3188 10.8477C43.1054 10.8477 42.9054 10.896 42.7188 10.9927C42.5321 11.0893 42.3554 11.221 42.1888 11.3877V15.0977H40.9538V9.96766H41.7088C41.8688 9.96766 41.9738 10.0427 42.0238 10.1927L42.1088 10.5977ZM58.7766 7.86766L56.5316 15.0977H55.3166L53.7366 10.1577C53.6932 10.0377 53.6532 9.89099 53.6166 9.71766C53.5966 9.80099 53.5766 9.87932 53.5566 9.95266C53.5366 10.026 53.5149 10.0943 53.4916 10.1577L51.8966 15.0977H50.6766L48.4366 7.86766H49.5616C49.6782 7.86766 49.7749 7.89599 49.8516 7.95266C49.9316 8.00599 49.9849 8.07932 50.0116 8.17266L51.2416 12.4977C51.2682 12.6043 51.2932 12.721 51.3166 12.8477C51.3432 12.971 51.3699 13.101 51.3966 13.2377C51.4232 13.0977 51.4516 12.966 51.4816 12.8427C51.5149 12.7193 51.5499 12.6043 51.5866 12.4977L53.0066 8.17266C53.0332 8.09599 53.0849 8.02599 53.1616 7.96266C53.2416 7.89932 53.3382 7.86766 53.4516 7.86766H53.8466C53.9632 7.86766 54.0582 7.89599 54.1316 7.95266C54.2049 8.00932 54.2599 8.08266 54.2966 8.17266L55.7116 12.4977C55.7816 12.7043 55.8449 12.9427 55.9016 13.2127C55.9449 12.9493 55.9932 12.711 56.0466 12.4977L57.2766 8.17266C57.2966 8.08932 57.3466 8.01766 57.4266 7.95766C57.5099 7.89766 57.6082 7.86766 57.7216 7.86766H58.7766ZM62.1689 11.9427C62.1689 11.7827 62.1456 11.6327 62.0989 11.4927C62.0556 11.3493 61.9889 11.2243 61.8989 11.1177C61.8089 11.011 61.6939 10.9277 61.5539 10.8677C61.4172 10.8043 61.2572 10.7727 61.0739 10.7727C60.7172 10.7727 60.4356 10.8743 60.2289 11.0777C60.0256 11.281 59.8956 11.5693 59.8389 11.9427H62.1689ZM59.8139 12.6877C59.8339 12.951 59.8806 13.1793 59.9539 13.3727C60.0272 13.5627 60.1239 13.721 60.2439 13.8477C60.3639 13.971 60.5056 14.0643 60.6689 14.1277C60.8356 14.1877 61.0189 14.2177 61.2189 14.2177C61.4189 14.2177 61.5906 14.1943 61.7339 14.1477C61.8806 14.101 62.0072 14.0493 62.1139 13.9927C62.2239 13.936 62.3189 13.8843 62.3989 13.8377C62.4822 13.791 62.5622 13.7677 62.6389 13.7677C62.7422 13.7677 62.8189 13.806 62.8689 13.8827L63.2239 14.3327C63.0872 14.4927 62.9339 14.6277 62.7639 14.7377C62.5939 14.8443 62.4156 14.931 62.2289 14.9977C62.0456 15.061 61.8572 15.106 61.6639 15.1327C61.4739 15.1593 61.2889 15.1727 61.1089 15.1727C60.7522 15.1727 60.4206 15.1143 60.1139 14.9977C59.8072 14.8777 59.5406 14.7027 59.3139 14.4727C59.0872 14.2393 58.9089 13.9527 58.7789 13.6127C58.6489 13.2693 58.5839 12.8727 58.5839 12.4227C58.5839 12.0727 58.6406 11.7443 58.7539 11.4377C58.8672 11.1277 59.0289 10.8593 59.2389 10.6327C59.4522 10.4027 59.7106 10.221 60.0139 10.0877C60.3206 9.95432 60.6656 9.88766 61.0489 9.88766C61.3722 9.88766 61.6706 9.93932 61.9439 10.0427C62.2172 10.146 62.4522 10.2977 62.6489 10.4977C62.8456 10.6943 62.9989 10.9377 63.1089 11.2277C63.2222 11.5143 63.2789 11.8427 63.2789 12.2127C63.2789 12.3993 63.2589 12.526 63.2189 12.5927C63.1789 12.656 63.1022 12.6877 62.9889 12.6877H59.8139ZM65.4857 9.96766V15.0977H64.2457V9.96766H65.4857ZM65.6557 8.47266C65.6557 8.57932 65.634 8.67932 65.5907 8.77266C65.5474 8.86599 65.489 8.94766 65.4157 9.01766C65.3457 9.08766 65.2624 9.14432 65.1657 9.18766C65.069 9.22766 64.9657 9.24766 64.8557 9.24766C64.749 9.24766 64.6474 9.22766 64.5507 9.18766C64.4574 9.14432 64.3757 9.08766 64.3057 9.01766C64.2357 8.94766 64.179 8.86599 64.1357 8.77266C64.0957 8.67932 64.0757 8.57932 64.0757 8.47266C64.0757 8.36266 64.0957 8.25932 64.1357 8.16266C64.179 8.06599 64.2357 7.98266 64.3057 7.91266C64.3757 7.84266 64.4574 7.78766 64.5507 7.74766C64.6474 7.70432 64.749 7.68266 64.8557 7.68266C64.9657 7.68266 65.069 7.70432 65.1657 7.74766C65.2624 7.78766 65.3457 7.84266 65.4157 7.91266C65.489 7.98266 65.5474 8.06599 65.5907 8.16266C65.634 8.25932 65.6557 8.36266 65.6557 8.47266ZM68.6198 12.4077C68.7731 12.4077 68.9064 12.3877 69.0198 12.3477C69.1331 12.3043 69.2264 12.246 69.2998 12.1727C69.3764 12.0993 69.4331 12.011 69.4698 11.9077C69.5098 11.8043 69.5298 11.691 69.5298 11.5677C69.5298 11.3143 69.4531 11.1143 69.2998 10.9677C69.1498 10.8177 68.9231 10.7427 68.6198 10.7427C68.3164 10.7427 68.0881 10.8177 67.9348 10.9677C67.7848 11.1143 67.7098 11.3143 67.7098 11.5677C67.7098 11.6877 67.7281 11.7993 67.7648 11.9027C67.8048 12.006 67.8614 12.096 67.9348 12.1727C68.0114 12.246 68.1064 12.3043 68.2198 12.3477C68.3364 12.3877 68.4698 12.4077 68.6198 12.4077ZM70.0148 15.3277C70.0148 15.2277 69.9848 15.146 69.9248 15.0827C69.8648 15.0193 69.7831 14.971 69.6798 14.9377C69.5764 14.901 69.4548 14.8743 69.3148 14.8577C69.1781 14.841 69.0314 14.8293 68.8748 14.8227C68.7214 14.8127 68.5614 14.8043 68.3948 14.7977C68.2314 14.791 68.0714 14.7777 67.9148 14.7577C67.7781 14.8343 67.6664 14.9243 67.5798 15.0277C67.4964 15.131 67.4548 15.251 67.4548 15.3877C67.4548 15.4777 67.4764 15.561 67.5198 15.6377C67.5664 15.7177 67.6381 15.786 67.7348 15.8427C67.8348 15.8993 67.9631 15.9427 68.1198 15.9727C68.2764 16.006 68.4681 16.0227 68.6948 16.0227C68.9248 16.0227 69.1231 16.0043 69.2898 15.9677C69.4564 15.9343 69.5931 15.886 69.6998 15.8227C69.8098 15.7627 69.8898 15.6893 69.9398 15.6027C69.9898 15.5193 70.0148 15.4277 70.0148 15.3277ZM71.2448 10.1427V10.6027C71.2448 10.7493 71.1564 10.8393 70.9798 10.8727L70.5198 10.9577C70.5898 11.1343 70.6248 11.3277 70.6248 11.5377C70.6248 11.791 70.5731 12.021 70.4698 12.2277C70.3698 12.431 70.2298 12.6043 70.0498 12.7477C69.8698 12.891 69.6564 13.0027 69.4098 13.0827C69.1664 13.1593 68.9031 13.1977 68.6198 13.1977C68.5198 13.1977 68.4231 13.1927 68.3298 13.1827C68.2364 13.1727 68.1448 13.1593 68.0548 13.1427C67.8948 13.2393 67.8148 13.3477 67.8148 13.4677C67.8148 13.571 67.8614 13.6477 67.9548 13.6977C68.0514 13.7443 68.1781 13.7777 68.3348 13.7977C68.4914 13.8177 68.6698 13.831 68.8698 13.8377C69.0698 13.841 69.2748 13.851 69.4848 13.8677C69.6948 13.8843 69.8998 13.9143 70.0998 13.9577C70.2998 13.9977 70.4781 14.0627 70.6348 14.1527C70.7914 14.2427 70.9164 14.366 71.0098 14.5227C71.1064 14.676 71.1548 14.8743 71.1548 15.1177C71.1548 15.3443 71.0981 15.5643 70.9848 15.7777C70.8748 15.991 70.7131 16.181 70.4998 16.3477C70.2898 16.5143 70.0298 16.6477 69.7198 16.7477C69.4131 16.851 69.0631 16.9027 68.6698 16.9027C68.2831 16.9027 67.9464 16.8643 67.6598 16.7877C67.3731 16.7143 67.1348 16.6143 66.9448 16.4877C66.7548 16.3643 66.6131 16.221 66.5198 16.0577C66.4264 15.8943 66.3798 15.7243 66.3798 15.5477C66.3798 15.3077 66.4514 15.1077 66.5948 14.9477C66.7414 14.7843 66.9414 14.6543 67.1948 14.5577C67.0581 14.4877 66.9498 14.3943 66.8698 14.2777C66.7898 14.161 66.7498 14.0077 66.7498 13.8177C66.7498 13.741 66.7631 13.6627 66.7898 13.5827C66.8198 13.4993 66.8614 13.4177 66.9148 13.3377C66.9714 13.2577 67.0414 13.1827 67.1248 13.1127C67.2081 13.0393 67.3064 12.9743 67.4198 12.9177C67.1598 12.7777 66.9548 12.591 66.8048 12.3577C66.6581 12.1243 66.5848 11.851 66.5848 11.5377C66.5848 11.2843 66.6348 11.056 66.7348 10.8527C66.8381 10.646 66.9798 10.471 67.1598 10.3277C67.3431 10.181 67.5581 10.0693 67.8048 9.99266C68.0548 9.91599 68.3264 9.87766 68.6198 9.87766C68.8398 9.87766 69.0464 9.90099 69.2398 9.94766C69.4331 9.99099 69.6098 10.056 69.7698 10.1427H71.2448ZM73.263 10.5177C73.463 10.331 73.683 10.1793 73.923 10.0627C74.163 9.94599 74.4446 9.88766 74.768 9.88766C75.048 9.88766 75.2963 9.93599 75.513 10.0327C75.7296 10.126 75.9096 10.2593 76.053 10.4327C76.1996 10.6027 76.3096 10.8077 76.383 11.0477C76.4596 11.2843 76.498 11.546 76.498 11.8327V15.0977H75.263V11.8327C75.263 11.5193 75.1913 11.2777 75.048 11.1077C74.9046 10.9343 74.6863 10.8477 74.393 10.8477C74.1796 10.8477 73.9796 10.896 73.793 10.9927C73.6063 11.0893 73.4296 11.221 73.263 11.3877V15.0977H72.028V7.66766H73.263V10.5177ZM79.3141 15.1777C78.8675 15.1777 78.5241 15.0527 78.2841 14.8027C78.0475 14.5493 77.9291 14.201 77.9291 13.7577V10.8927H77.4041C77.3375 10.8927 77.2808 10.871 77.2341 10.8277C77.1875 10.7843 77.1641 10.7193 77.1641 10.6327V10.1427L77.9891 10.0077L78.2491 8.60766C78.2658 8.54099 78.2975 8.48932 78.3441 8.45266C78.3908 8.41599 78.4508 8.39766 78.5241 8.39766H79.1641V10.0127H80.5341V10.8927H79.1641V13.6727C79.1641 13.8327 79.2025 13.9577 79.2791 14.0477C79.3591 14.1377 79.4675 14.1827 79.6041 14.1827C79.6808 14.1827 79.7441 14.1743 79.7941 14.1577C79.8475 14.1377 79.8925 14.1177 79.9291 14.0977C79.9691 14.0777 80.0041 14.0593 80.0341 14.0427C80.0641 14.0227 80.0941 14.0127 80.1241 14.0127C80.1608 14.0127 80.1908 14.0227 80.2141 14.0427C80.2375 14.0593 80.2625 14.086 80.2891 14.1227L80.6591 14.7227C80.4791 14.8727 80.2725 14.986 80.0391 15.0627C79.8058 15.1393 79.5641 15.1777 79.3141 15.1777Z" fill="white"/>
<path d="M50.804 23.2823V22.6183H52.308V28.4023H51.572V23.2823H50.804ZM53.9105 28.4503C53.7718 28.4503 53.6545 28.4023 53.5585 28.3063C53.4625 28.2103 53.4145 28.093 53.4145 27.9543C53.4145 27.8157 53.4625 27.6983 53.5585 27.6023C53.6545 27.5063 53.7718 27.4583 53.9105 27.4583C54.0438 27.4583 54.1558 27.5063 54.2465 27.6023C54.3425 27.6983 54.3905 27.8157 54.3905 27.9543C54.3905 28.093 54.3425 28.2103 54.2465 28.3063C54.1558 28.4023 54.0438 28.4503 53.9105 28.4503ZM58.9262 23.2503H56.1182V25.0743C56.2409 24.9037 56.4222 24.765 56.6622 24.6583C56.9022 24.5463 57.1609 24.4903 57.4382 24.4903C57.8809 24.4903 58.2409 24.5837 58.5182 24.7703C58.7955 24.9517 58.9929 25.189 59.1102 25.4823C59.2329 25.7703 59.2942 26.077 59.2942 26.4023C59.2942 26.7863 59.2222 27.1303 59.0782 27.4343C58.9342 27.7383 58.7129 27.9783 58.4142 28.1543C58.1209 28.3303 57.7555 28.4183 57.3182 28.4183C56.7582 28.4183 56.3049 28.2743 55.9582 27.9863C55.6115 27.6983 55.4009 27.3143 55.3262 26.8343H56.0382C56.1075 27.1383 56.2542 27.3757 56.4782 27.5463C56.7022 27.717 56.9849 27.8023 57.3262 27.8023C57.7475 27.8023 58.0649 27.677 58.2782 27.4263C58.4915 27.1703 58.5982 26.8343 58.5982 26.4183C58.5982 26.0023 58.4915 25.6823 58.2782 25.4583C58.0649 25.229 57.7502 25.1143 57.3342 25.1143C57.0515 25.1143 56.8035 25.1837 56.5902 25.3223C56.3822 25.4557 56.2302 25.6397 56.1342 25.8743H55.4462V22.6103H58.9262V23.2503ZM61.3176 25.3943C61.019 25.277 60.7896 25.1063 60.6296 24.8823C60.4696 24.6583 60.3896 24.3863 60.3896 24.0663C60.3896 23.7783 60.4616 23.5197 60.6056 23.2903C60.7496 23.0557 60.963 22.8717 61.2456 22.7383C61.5336 22.5997 61.8803 22.5303 62.2856 22.5303C62.691 22.5303 63.035 22.5997 63.3176 22.7383C63.6056 22.8717 63.8216 23.0557 63.9656 23.2903C64.115 23.5197 64.1896 23.7783 64.1896 24.0663C64.1896 24.3757 64.107 24.6477 63.9416 24.8823C63.7763 25.1117 63.5496 25.2823 63.2616 25.3943C63.5923 25.4957 63.8536 25.6743 64.0456 25.9303C64.243 26.181 64.3416 26.485 64.3416 26.8423C64.3416 27.189 64.2563 27.493 64.0856 27.7543C63.915 28.0103 63.6723 28.2103 63.3576 28.3543C63.0483 28.493 62.691 28.5623 62.2856 28.5623C61.8803 28.5623 61.523 28.493 61.2136 28.3543C60.9096 28.2103 60.6723 28.0103 60.5016 27.7543C60.331 27.493 60.2456 27.189 60.2456 26.8423C60.2456 26.485 60.3416 26.1783 60.5336 25.9223C60.7256 25.6663 60.987 25.4903 61.3176 25.3943ZM63.4856 24.1543C63.4856 23.829 63.379 23.5783 63.1656 23.4023C62.9523 23.2263 62.659 23.1383 62.2856 23.1383C61.9176 23.1383 61.627 23.2263 61.4136 23.4023C61.2003 23.5783 61.0936 23.8317 61.0936 24.1623C61.0936 24.461 61.203 24.701 61.4216 24.8823C61.6456 25.0637 61.9336 25.1543 62.2856 25.1543C62.643 25.1543 62.931 25.0637 63.1496 24.8823C63.3736 24.6957 63.4856 24.453 63.4856 24.1543ZM62.2856 25.7143C61.891 25.7143 61.5683 25.8077 61.3176 25.9943C61.067 26.1757 60.9416 26.4503 60.9416 26.8183C60.9416 27.1597 61.0616 27.4343 61.3016 27.6423C61.547 27.8503 61.875 27.9543 62.2856 27.9543C62.6963 27.9543 63.0216 27.8503 63.2616 27.6423C63.5016 27.4343 63.6216 27.1597 63.6216 26.8183C63.6216 26.461 63.499 26.189 63.2536 26.0023C63.0083 25.8103 62.6856 25.7143 62.2856 25.7143ZM65.3085 25.4503C65.3085 24.533 65.4578 23.8183 65.7565 23.3063C66.0552 22.789 66.5778 22.5303 67.3245 22.5303C68.0658 22.5303 68.5858 22.789 68.8845 23.3063C69.1832 23.8183 69.3325 24.533 69.3325 25.4503C69.3325 26.3837 69.1832 27.109 68.8845 27.6263C68.5858 28.1437 68.0658 28.4023 67.3245 28.4023C66.5778 28.4023 66.0552 28.1437 65.7565 27.6263C65.4578 27.109 65.3085 26.3837 65.3085 25.4503ZM68.6125 25.4503C68.6125 24.9863 68.5805 24.5943 68.5165 24.2743C68.4578 23.949 68.3325 23.6877 68.1405 23.4903C67.9538 23.293 67.6818 23.1943 67.3245 23.1943C66.9618 23.1943 66.6845 23.293 66.4925 23.4903C66.3058 23.6877 66.1805 23.949 66.1165 24.2743C66.0578 24.5943 66.0285 24.9863 66.0285 25.4503C66.0285 25.9303 66.0578 26.333 66.1165 26.6583C66.1805 26.9837 66.3058 27.245 66.4925 27.4423C66.6845 27.6397 66.9618 27.7383 67.3245 27.7383C67.6818 27.7383 67.9538 27.6397 68.1405 27.4423C68.3325 27.245 68.4578 26.9837 68.5165 26.6583C68.5805 26.333 68.6125 25.9303 68.6125 25.4503ZM75.0328 28.4023L73.3128 26.4663V28.4023H72.5848V22.4823H73.3128V25.9623L75.0008 24.0183H76.0168L73.9528 26.2023L76.0248 28.4023H75.0328ZM78.5099 23.9463C78.8886 23.9463 79.2193 24.029 79.5019 24.1943C79.7899 24.3597 80.0033 24.5677 80.1419 24.8183V24.0183H80.8779V28.4983C80.8779 28.8983 80.7926 29.253 80.6219 29.5623C80.4513 29.877 80.2059 30.1223 79.8859 30.2983C79.5713 30.4743 79.2033 30.5623 78.7819 30.5623C78.2059 30.5623 77.7259 30.4263 77.3419 30.1543C76.9579 29.8823 76.7313 29.5117 76.6619 29.0423H77.3819C77.4619 29.309 77.6273 29.5223 77.8779 29.6823C78.1286 29.8477 78.4299 29.9303 78.7819 29.9303C79.1819 29.9303 79.5073 29.805 79.7579 29.5543C80.0139 29.3037 80.1419 28.9517 80.1419 28.4983V27.5783C79.9979 27.8343 79.7846 28.0477 79.5019 28.2183C79.2193 28.389 78.8886 28.4743 78.5099 28.4743C78.1206 28.4743 77.7659 28.3783 77.4459 28.1863C77.1313 27.9943 76.8833 27.725 76.7019 27.3783C76.5206 27.0317 76.4299 26.637 76.4299 26.1943C76.4299 25.7463 76.5206 25.3543 76.7019 25.0183C76.8833 24.677 77.1313 24.413 77.4459 24.2263C77.7659 24.0397 78.1206 23.9463 78.5099 23.9463ZM80.1419 26.2023C80.1419 25.8717 80.0753 25.5837 79.9419 25.3383C79.8086 25.093 79.6273 24.9063 79.3979 24.7783C79.1739 24.645 78.9259 24.5783 78.6539 24.5783C78.3819 24.5783 78.1339 24.6423 77.9099 24.7703C77.6859 24.8983 77.5073 25.085 77.3739 25.3303C77.2406 25.5757 77.1739 25.8637 77.1739 26.1943C77.1739 26.5303 77.2406 26.8237 77.3739 27.0743C77.5073 27.3197 77.6859 27.509 77.9099 27.6423C78.1339 27.7703 78.3819 27.8343 78.6539 27.8343C78.9259 27.8343 79.1739 27.7703 79.3979 27.6423C79.6273 27.509 79.8086 27.3197 79.9419 27.0743C80.0753 26.8237 80.1419 26.533 80.1419 26.2023Z" fill="white"/>
<rect x="87.5" width="36.5" height="36.5" rx="18.25" fill="white"/>
<path fill-rule="evenodd" clip-rule="evenodd" d="M105.287 9.63593C105.426 9.54902 105.586 9.50293 105.75 9.50293C105.914 9.50293 106.075 9.54902 106.214 9.63593L112.255 13.4116L105.75 17.2379L99.2457 13.4116L105.287 9.63593ZM97.8825 14.6401C97.8777 14.6775 97.8754 14.7152 97.8755 14.7529V21.7529C97.8755 21.9013 97.9132 22.0473 97.9852 22.1771C98.0571 22.3069 98.1609 22.4163 98.2867 22.4949L104.875 26.6127V18.7534L97.8825 14.6401ZM106.625 26.6127L113.214 22.4949C113.34 22.4163 113.444 22.3069 113.516 22.1771C113.588 22.0473 113.625 21.9013 113.625 21.7529V14.7529C113.625 14.715 113.623 14.6774 113.618 14.6401L106.625 18.7526V26.6127Z" fill="#99008F"/>
</svg>
