<svg width="308" height="73" viewBox="0 0 308 73" fill="none" xmlns="http://www.w3.org/2000/svg">
<g filter="url(#filter0_d_765_4298)">
<path d="M6.16008 30.024L11.7921 8.16799H4.72008V4.10398H17.0081V7.78399L11.3761 30.024H6.16008ZM26.3026 30.504C24.4039 30.504 22.9639 30.1733 21.9826 29.512C21.0226 28.8293 20.3719 27.88 20.0306 26.664C19.6892 25.448 19.5186 24.04 19.5186 22.44H24.6706C24.6706 23.4213 24.7239 24.2213 24.8306 24.84C24.9372 25.4587 25.1292 25.9067 25.4066 26.184C25.7052 26.44 26.1212 26.5573 26.6546 26.536C27.2092 26.5147 27.6039 26.2907 27.8386 25.864C28.0732 25.4373 28.2119 24.8293 28.2546 24.04C28.3186 23.2293 28.3506 22.2587 28.3506 21.128C28.3506 20.2747 28.2972 19.5173 28.1906 18.856C28.1052 18.1947 27.9132 17.672 27.6146 17.288C27.3372 16.8827 26.9106 16.68 26.3346 16.68C25.8012 16.68 25.3639 16.872 25.0226 17.256C24.6812 17.64 24.4359 18.2373 24.2866 19.048H19.6786L20.1586 4.10398H32.2546V8.58399H24.4466L24.1586 13.928C24.3719 13.6293 24.7772 13.3733 25.3746 13.16C25.9719 12.9253 26.6119 12.776 27.2946 12.712C28.6172 12.5627 29.7266 12.808 30.6226 13.448C31.5399 14.0667 32.2226 15.016 32.6706 16.296C33.1399 17.576 33.3746 19.144 33.3746 21C33.3746 22.3867 33.2892 23.6667 33.1186 24.84C32.9479 25.992 32.6172 26.9947 32.1266 27.848C31.6359 28.68 30.9212 29.3307 29.9826 29.8C29.0439 30.2693 27.8172 30.504 26.3026 30.504ZM43.2238 30.504C41.6665 30.504 40.3652 30.1947 39.3198 29.576C38.2745 28.936 37.4852 28.0613 36.9518 26.952C36.4185 25.8427 36.1518 24.552 36.1518 23.08V11.336C36.1518 9.82132 36.3972 8.49865 36.8878 7.36799C37.3998 6.21599 38.1785 5.31999 39.2238 4.67999C40.2692 4.03999 41.6025 3.71999 43.2238 3.71999C44.8452 3.71999 46.1678 4.03999 47.1918 4.67999C48.2372 5.31999 49.0052 6.21599 49.4958 7.36799C50.0078 8.49865 50.2638 9.82132 50.2638 11.336V23.08C50.2638 24.5307 49.9972 25.8213 49.4638 26.952C48.9305 28.0613 48.1412 28.936 47.0958 29.576C46.0505 30.1947 44.7598 30.504 43.2238 30.504ZM43.2238 25.736C43.7358 25.736 44.0985 25.576 44.3118 25.256C44.5465 24.9147 44.6852 24.5307 44.7278 24.104C44.7918 23.656 44.8238 23.272 44.8238 22.952V11.464C44.8238 11.1013 44.8025 10.696 44.7598 10.248C44.7172 9.77865 44.5785 9.37332 44.3438 9.03199C44.1305 8.66932 43.7572 8.48799 43.2238 8.48799C42.6905 8.48799 42.3065 8.66932 42.0718 9.03199C41.8585 9.37332 41.7305 9.77865 41.6878 10.248C41.6452 10.696 41.6238 11.1013 41.6238 11.464V22.952C41.6238 23.272 41.6558 23.656 41.7198 24.104C41.7838 24.5307 41.9225 24.9147 42.1358 25.256C42.3705 25.576 42.7332 25.736 43.2238 25.736ZM53.8416 30.024L54.2896 4.10398H60.4336L63.2816 19.176L66.3536 4.10398H72.2736L72.7216 30.024H68.6576L68.1776 12.776L65.1696 30.024H61.5536L58.3536 12.648L57.9696 30.024H53.8416ZM76.4688 30.024V4.10398H82.1968V26.152H88.1488V30.024H76.4688ZM98.8438 30.024V4.10398H105.98C107.729 4.10398 109.244 4.29598 110.524 4.67999C111.804 5.06399 112.796 5.75732 113.5 6.75998C114.225 7.74132 114.588 9.13865 114.588 10.952C114.588 12.0187 114.502 12.968 114.332 13.8C114.161 14.632 113.841 15.3573 113.372 15.976C112.924 16.5733 112.273 17.0747 111.42 17.48L114.972 30.024H109.052L106.204 18.408H104.572V30.024H98.8438ZM104.572 15.112H106.172C106.982 15.112 107.612 14.9733 108.06 14.696C108.508 14.3973 108.817 13.9813 108.988 13.448C109.18 12.8933 109.276 12.232 109.276 11.464C109.276 10.3547 109.073 9.49065 108.668 8.87199C108.262 8.25332 107.516 7.94398 106.428 7.94398H104.572V15.112ZM125.205 30.408C123.264 30.408 121.728 30.0667 120.597 29.384C119.467 28.7013 118.656 27.72 118.165 26.44C117.675 25.16 117.429 23.6347 117.429 21.864V12.232C117.429 10.44 117.675 8.91465 118.165 7.65598C118.656 6.39732 119.467 5.43732 120.597 4.77599C121.728 4.09332 123.264 3.75199 125.205 3.75199C127.168 3.75199 128.715 4.09332 129.845 4.77599C130.997 5.43732 131.819 6.39732 132.309 7.65598C132.8 8.91465 133.045 10.44 133.045 12.232V21.864C133.045 23.6347 132.8 25.16 132.309 26.44C131.819 27.72 130.997 28.7013 129.845 29.384C128.715 30.0667 127.168 30.408 125.205 30.408ZM125.205 26.344C125.803 26.344 126.24 26.1947 126.517 25.896C126.795 25.5973 126.976 25.2133 127.061 24.744C127.147 24.2747 127.189 23.7947 127.189 23.304V10.824C127.189 10.312 127.147 9.83199 127.061 9.38399C126.976 8.91465 126.795 8.53065 126.517 8.23199C126.24 7.93332 125.803 7.78399 125.205 7.78399C124.651 7.78399 124.235 7.93332 123.957 8.23199C123.68 8.53065 123.499 8.91465 123.413 9.38399C123.328 9.83199 123.285 10.312 123.285 10.824V23.304C123.285 23.7947 123.317 24.2747 123.381 24.744C123.467 25.2133 123.637 25.5973 123.893 25.896C124.171 26.1947 124.608 26.344 125.205 26.344ZM144.019 30.408C142.035 30.408 140.478 30.088 139.347 29.448C138.238 28.7867 137.459 27.8373 137.011 26.6C136.563 25.3413 136.339 23.8053 136.339 21.992V4.10398H142.003V22.856C142.003 23.3893 142.046 23.9227 142.131 24.456C142.217 24.9893 142.398 25.4267 142.675 25.768C142.974 26.1093 143.422 26.28 144.019 26.28C144.638 26.28 145.086 26.1093 145.363 25.768C145.641 25.4267 145.811 24.9893 145.875 24.456C145.961 23.9227 146.003 23.3893 146.003 22.856V4.10398H151.699V21.992C151.699 23.8053 151.465 25.3413 150.995 26.6C150.547 27.8373 149.769 28.7867 148.659 29.448C147.55 30.088 146.003 30.408 144.019 30.408ZM155.344 30.024V4.10398H159.376L164.688 16.584V4.10398H169.424V30.024H165.552L160.24 16.584V30.024H155.344ZM173.281 30.024V4.10398H179.841C182.103 4.10398 183.863 4.39198 185.121 4.96799C186.38 5.52265 187.265 6.40799 187.777 7.62399C188.289 8.81865 188.545 10.376 188.545 12.296V21.704C188.545 23.6453 188.289 25.2347 187.777 26.472C187.265 27.688 186.38 28.584 185.121 29.16C183.884 29.736 182.145 30.024 179.905 30.024H173.281ZM179.009 26.056H179.905C180.78 26.056 181.409 25.928 181.793 25.672C182.177 25.416 182.412 25.032 182.497 24.52C182.604 24.008 182.657 23.368 182.657 22.6V11.304C182.657 10.536 182.593 9.91732 182.465 9.44799C182.359 8.97865 182.113 8.63732 181.729 8.42399C181.345 8.21065 180.727 8.10398 179.873 8.10398H179.009V26.056ZM207.099 30.408C205.477 30.408 204.123 30.12 203.035 29.544C201.947 28.968 201.125 28.0827 200.571 26.888C200.016 25.672 199.707 24.104 199.643 22.184L204.539 21.448C204.56 22.5573 204.656 23.4533 204.827 24.136C205.019 24.8187 205.275 25.3093 205.595 25.608C205.936 25.9067 206.341 26.056 206.811 26.056C207.408 26.056 207.792 25.8533 207.963 25.448C208.155 25.0427 208.251 24.616 208.251 24.168C208.251 23.1013 207.995 22.2053 207.483 21.48C206.971 20.7333 206.277 19.9867 205.403 19.24L203.163 17.288C202.181 16.456 201.349 15.5173 200.667 14.472C200.005 13.4053 199.675 12.0933 199.675 10.536C199.675 8.33865 200.325 6.66399 201.627 5.51199C202.928 4.33865 204.699 3.75199 206.939 3.75199C208.325 3.75199 209.435 3.98665 210.267 4.45599C211.12 4.92532 211.76 5.54399 212.187 6.31199C212.635 7.05865 212.933 7.85865 213.083 8.71199C213.253 9.54399 213.349 10.344 213.371 11.112L208.443 11.72C208.421 10.952 208.368 10.2907 208.283 9.73599C208.219 9.15999 208.069 8.72265 207.835 8.42399C207.6 8.10399 207.237 7.94398 206.747 7.94398C206.213 7.94398 205.819 8.16799 205.563 8.61599C205.328 9.06399 205.211 9.51199 205.211 9.95999C205.211 10.92 205.435 11.7093 205.883 12.328C206.352 12.9253 206.96 13.5547 207.707 14.216L209.851 16.104C210.981 17.064 211.931 18.152 212.699 19.368C213.488 20.584 213.883 22.088 213.883 23.88C213.883 25.096 213.605 26.2053 213.051 27.208C212.496 28.1893 211.707 28.968 210.683 29.544C209.68 30.12 208.485 30.408 207.099 30.408ZM229.936 35.112C229.467 34.8987 228.902 34.5467 228.24 34.056C227.579 33.5867 226.918 33.0213 226.256 32.36C225.616 31.72 225.072 31.0587 224.624 30.376C224.539 30.3973 224.454 30.408 224.368 30.408C224.283 30.408 224.187 30.408 224.08 30.408C222.139 30.408 220.603 30.0667 219.472 29.384C218.342 28.7013 217.531 27.72 217.04 26.44C216.55 25.16 216.304 23.6347 216.304 21.864V12.232C216.304 10.44 216.55 8.91465 217.04 7.65598C217.531 6.39732 218.342 5.43732 219.472 4.77599C220.603 4.09332 222.139 3.75199 224.08 3.75199C226.043 3.75199 227.59 4.09332 228.72 4.77599C229.872 5.43732 230.694 6.39732 231.184 7.65598C231.675 8.91465 231.92 10.44 231.92 12.232V21.864C231.92 23.08 231.803 24.1787 231.568 25.16C231.355 26.1413 230.992 26.9947 230.48 27.72C229.99 28.4453 229.328 29.0213 228.496 29.448C228.774 29.7467 229.062 30.0347 229.36 30.312C229.659 30.6107 229.958 30.8773 230.256 31.112C230.555 31.368 230.854 31.5707 231.152 31.72L229.936 35.112ZM224.08 26.344C224.678 26.344 225.115 26.1947 225.392 25.896C225.67 25.5973 225.851 25.2133 225.936 24.744C226.022 24.2747 226.064 23.7947 226.064 23.304V10.824C226.064 10.312 226.022 9.83199 225.936 9.38399C225.851 8.91465 225.67 8.53065 225.392 8.23199C225.115 7.93332 224.678 7.78399 224.08 7.78399C223.483 7.78399 223.046 7.93332 222.768 8.23199C222.512 8.53065 222.342 8.91465 222.256 9.38399C222.192 9.83199 222.16 10.312 222.16 10.824V23.304C222.16 23.7947 222.192 24.2747 222.256 24.744C222.342 25.2133 222.512 25.5973 222.768 25.896C223.046 26.1947 223.483 26.344 224.08 26.344ZM242.894 30.408C240.91 30.408 239.353 30.088 238.222 29.448C237.113 28.7867 236.334 27.8373 235.886 26.6C235.438 25.3413 235.214 23.8053 235.214 21.992V4.10398H240.878V22.856C240.878 23.3893 240.921 23.9227 241.006 24.456C241.092 24.9893 241.273 25.4267 241.55 25.768C241.849 26.1093 242.297 26.28 242.894 26.28C243.513 26.28 243.961 26.1093 244.238 25.768C244.516 25.4267 244.686 24.9893 244.75 24.456C244.836 23.9227 244.878 23.3893 244.878 22.856V4.10398H250.574V21.992C250.574 23.8053 250.34 25.3413 249.87 26.6C249.422 27.8373 248.644 28.7867 247.534 29.448C246.425 30.088 244.878 30.408 242.894 30.408ZM252.721 30.024L257.617 4.10398H264.145L268.977 30.024H263.697L262.833 24.552H259.025L258.129 30.024H252.721ZM259.537 21.128H262.289L260.913 11.016L259.537 21.128ZM271.594 30.024V4.10398H278.73C280.479 4.10398 281.994 4.29598 283.274 4.67999C284.554 5.06399 285.546 5.75732 286.25 6.75998C286.975 7.74132 287.338 9.13865 287.338 10.952C287.338 12.0187 287.252 12.968 287.082 13.8C286.911 14.632 286.591 15.3573 286.122 15.976C285.674 16.5733 285.023 17.0747 284.17 17.48L287.722 30.024H281.802L278.954 18.408H277.322V30.024H271.594ZM277.322 15.112H278.922C279.732 15.112 280.362 14.9733 280.81 14.696C281.258 14.3973 281.567 13.9813 281.738 13.448C281.93 12.8933 282.026 12.232 282.026 11.464C282.026 10.3547 281.823 9.49065 281.418 8.87199C281.012 8.25332 280.266 7.94398 279.178 7.94398H277.322V15.112ZM290.781 30.024V4.10398H302.429V8.00799H296.509V14.44H301.021V18.408H296.509V26.152H302.493V30.024H290.781ZM89.8616 66.408C87.8989 66.408 86.3416 66.056 85.1896 65.352C84.0589 64.6267 83.2589 63.624 82.7896 62.344C82.3202 61.0427 82.0856 59.5173 82.0856 57.768V48.424C82.0856 46.632 82.3202 45.096 82.7896 43.816C83.2589 42.5147 84.0589 41.512 85.1896 40.808C86.3416 40.104 87.8989 39.752 89.8616 39.752C91.7816 39.752 93.2749 40.072 94.3416 40.712C95.4296 41.3307 96.1976 42.2053 96.6456 43.336C97.0936 44.4667 97.3176 45.768 97.3176 47.24V49.48H91.7176V46.888C91.7176 46.376 91.6856 45.8853 91.6216 45.416C91.5789 44.9467 91.4296 44.5627 91.1736 44.264C90.9176 43.944 90.4802 43.784 89.8616 43.784C89.2642 43.784 88.8162 43.944 88.5176 44.264C88.2402 44.584 88.0589 44.9893 87.9736 45.48C87.9096 45.9493 87.8776 46.4507 87.8776 46.984V59.176C87.8776 59.752 87.9202 60.2853 88.0056 60.776C88.1122 61.2453 88.3042 61.6293 88.5816 61.928C88.8802 62.2053 89.3069 62.344 89.8616 62.344C90.4589 62.344 90.8856 62.1947 91.1416 61.896C91.3976 61.576 91.5576 61.1707 91.6216 60.68C91.6856 60.1893 91.7176 59.688 91.7176 59.176V56.456H97.3176V58.696C97.3176 60.168 97.0936 61.4907 96.6456 62.664C96.2189 63.816 95.4616 64.7333 94.3736 65.416C93.3069 66.0773 91.8029 66.408 89.8616 66.408ZM107.893 66.408C105.951 66.408 104.415 66.0667 103.285 65.384C102.154 64.7013 101.343 63.72 100.853 62.44C100.362 61.16 100.117 59.6347 100.117 57.864V48.232C100.117 46.44 100.362 44.9147 100.853 43.656C101.343 42.3973 102.154 41.4373 103.285 40.776C104.415 40.0933 105.951 39.752 107.893 39.752C109.855 39.752 111.402 40.0933 112.533 40.776C113.685 41.4373 114.506 42.3973 114.997 43.656C115.487 44.9147 115.733 46.44 115.733 48.232V57.864C115.733 59.6347 115.487 61.16 114.997 62.44C114.506 63.72 113.685 64.7013 112.533 65.384C111.402 66.0667 109.855 66.408 107.893 66.408ZM107.893 62.344C108.49 62.344 108.927 62.1947 109.205 61.896C109.482 61.5973 109.663 61.2133 109.749 60.744C109.834 60.2747 109.877 59.7947 109.877 59.304V46.824C109.877 46.312 109.834 45.832 109.749 45.384C109.663 44.9147 109.482 44.5307 109.205 44.232C108.927 43.9333 108.49 43.784 107.893 43.784C107.338 43.784 106.922 43.9333 106.645 44.232C106.367 44.5307 106.186 44.9147 106.101 45.384C106.015 45.832 105.973 46.312 105.973 46.824V59.304C105.973 59.7947 106.005 60.2747 106.069 60.744C106.154 61.2133 106.325 61.5973 106.581 61.896C106.858 62.1947 107.295 62.344 107.893 62.344ZM119.219 66.024V40.104H123.251L128.563 52.584V40.104H133.299V66.024H129.427L124.115 52.584V66.024H119.219ZM139.492 66.024V44.36H135.588V40.104H149.124V44.36H145.252V66.024H139.492ZM148.721 66.024L153.617 40.104H160.145L164.977 66.024H159.697L158.833 60.552H155.025L154.129 66.024H148.721ZM155.537 57.128H158.289L156.913 47.016L155.537 57.128ZM167.626 66.024V40.104H173.354V66.024H167.626ZM177.219 66.024V40.104H181.251L186.563 52.584V40.104H191.299V66.024H187.427L182.115 52.584V66.024H177.219ZM195.156 66.024V40.104H206.804V44.008H200.884V50.44H205.396V54.408H200.884V62.152H206.868V66.024H195.156ZM209.469 66.024V40.104H216.605C218.354 40.104 219.869 40.296 221.149 40.68C222.429 41.064 223.421 41.7573 224.125 42.76C224.85 43.7413 225.213 45.1387 225.213 46.952C225.213 48.0187 225.127 48.968 224.957 49.8C224.786 50.632 224.466 51.3573 223.997 51.976C223.549 52.5733 222.898 53.0747 222.045 53.48L225.597 66.024H219.677L216.829 54.408H215.197V66.024H209.469ZM215.197 51.112H216.797C217.607 51.112 218.237 50.9733 218.685 50.696C219.133 50.3973 219.442 49.9813 219.613 49.448C219.805 48.8933 219.901 48.232 219.901 47.464C219.901 46.3547 219.698 45.4907 219.293 44.872C218.887 44.2533 218.141 43.944 217.053 43.944H215.197V51.112Z" fill="white"/>
</g>
<defs>
<filter id="filter0_d_765_4298" x="0.000215054" y="-2.90871e-05" width="307.213" height="72.128" filterUnits="userSpaceOnUse" color-interpolation-filters="sRGB">
<feFlood flood-opacity="0" result="BackgroundImageFix"/>
<feColorMatrix in="SourceAlpha" type="matrix" values="0 0 0 0 0 0 0 0 0 0 0 0 0 0 0 0 0 0 127 0" result="hardAlpha"/>
<feOffset dy="1"/>
<feGaussianBlur stdDeviation="2.36"/>
<feComposite in2="hardAlpha" operator="out"/>
<feColorMatrix type="matrix" values="0 0 0 0 0 0 0 0 0 0 0 0 0 0 0 0 0 0 0.25 0"/>
<feBlend mode="normal" in2="BackgroundImageFix" result="effect1_dropShadow_765_4298"/>
<feBlend mode="normal" in="SourceGraphic" in2="effect1_dropShadow_765_4298" result="shape"/>
</filter>
</defs>
</svg>
