<svg width="124" height="37" viewBox="0 0 124 37" fill="none" xmlns="http://www.w3.org/2000/svg">
<path d="M7.655 11.5027C7.90167 11.5027 8.11667 11.4727 8.3 11.4127C8.48333 11.3493 8.635 11.261 8.755 11.1477C8.87833 11.031 8.97 10.891 9.03 10.7277C9.09 10.561 9.12 10.376 9.12 10.1727C9.12 9.97932 9.09 9.80432 9.03 9.64766C8.97 9.49099 8.88 9.35766 8.76 9.24766C8.64 9.13766 8.48833 9.05432 8.305 8.99766C8.12167 8.93766 7.905 8.90766 7.655 8.90766H6.65V11.5027H7.655ZM7.655 7.86766C8.13833 7.86766 8.55667 7.92432 8.91 8.03766C9.26333 8.15099 9.555 8.30932 9.785 8.51266C10.015 8.71599 10.185 8.95932 10.295 9.24266C10.4083 9.52599 10.465 9.83599 10.465 10.1727C10.465 10.5227 10.4067 10.8443 10.29 11.1377C10.1733 11.4277 9.99833 11.6777 9.765 11.8877C9.53167 12.0977 9.23833 12.261 8.885 12.3777C8.535 12.4943 8.125 12.5527 7.655 12.5527H6.65V15.0977H5.305V7.86766H7.655ZM12.5619 9.96766V15.0977H11.3219V9.96766H12.5619ZM12.7319 8.47266C12.7319 8.57932 12.7102 8.67932 12.6669 8.77266C12.6235 8.86599 12.5652 8.94766 12.4919 9.01766C12.4219 9.08766 12.3385 9.14432 12.2419 9.18766C12.1452 9.22766 12.0419 9.24766 11.9319 9.24766C11.8252 9.24766 11.7235 9.22766 11.6269 9.18766C11.5335 9.14432 11.4519 9.08766 11.3819 9.01766C11.3119 8.94766 11.2552 8.86599 11.2119 8.77266C11.1719 8.67932 11.1519 8.57932 11.1519 8.47266C11.1519 8.36266 11.1719 8.25932 11.2119 8.16266C11.2552 8.06599 11.3119 7.98266 11.3819 7.91266C11.4519 7.84266 11.5335 7.78766 11.6269 7.74766C11.7235 7.70432 11.8252 7.68266 11.9319 7.68266C12.0419 7.68266 12.1452 7.70432 12.2419 7.74766C12.3385 7.78766 12.4219 7.84266 12.4919 7.91266C12.5652 7.98266 12.6235 8.06599 12.6669 8.16266C12.7102 8.25932 12.7319 8.36266 12.7319 8.47266ZM17.1259 11.9427C17.1259 11.7827 17.1026 11.6327 17.0559 11.4927C17.0126 11.3493 16.9459 11.2243 16.8559 11.1177C16.7659 11.011 16.6509 10.9277 16.5109 10.8677C16.3743 10.8043 16.2143 10.7727 16.0309 10.7727C15.6743 10.7727 15.3926 10.8743 15.1859 11.0777C14.9826 11.281 14.8526 11.5693 14.7959 11.9427H17.1259ZM14.7709 12.6877C14.7909 12.951 14.8376 13.1793 14.9109 13.3727C14.9843 13.5627 15.0809 13.721 15.2009 13.8477C15.3209 13.971 15.4626 14.0643 15.6259 14.1277C15.7926 14.1877 15.9759 14.2177 16.1759 14.2177C16.3759 14.2177 16.5476 14.1943 16.6909 14.1477C16.8376 14.101 16.9643 14.0493 17.0709 13.9927C17.1809 13.936 17.2759 13.8843 17.3559 13.8377C17.4393 13.791 17.5193 13.7677 17.5959 13.7677C17.6993 13.7677 17.7759 13.806 17.8259 13.8827L18.1809 14.3327C18.0443 14.4927 17.8909 14.6277 17.7209 14.7377C17.5509 14.8443 17.3726 14.931 17.1859 14.9977C17.0026 15.061 16.8143 15.106 16.6209 15.1327C16.4309 15.1593 16.2459 15.1727 16.0659 15.1727C15.7093 15.1727 15.3776 15.1143 15.0709 14.9977C14.7643 14.8777 14.4976 14.7027 14.2709 14.4727C14.0443 14.2393 13.8659 13.9527 13.7359 13.6127C13.6059 13.2693 13.5409 12.8727 13.5409 12.4227C13.5409 12.0727 13.5976 11.7443 13.7109 11.4377C13.8243 11.1277 13.9859 10.8593 14.1959 10.6327C14.4093 10.4027 14.6676 10.221 14.9709 10.0877C15.2776 9.95432 15.6226 9.88766 16.0059 9.88766C16.3293 9.88766 16.6276 9.93932 16.9009 10.0427C17.1743 10.146 17.4093 10.2977 17.6059 10.4977C17.8026 10.6943 17.9559 10.9377 18.0659 11.2277C18.1793 11.5143 18.2359 11.8427 18.2359 12.2127C18.2359 12.3993 18.2159 12.526 18.1759 12.5927C18.1359 12.656 18.0593 12.6877 17.9459 12.6877H14.7709ZM22.8377 11.0527C22.8011 11.0993 22.7644 11.136 22.7277 11.1627C22.6944 11.1893 22.6444 11.2027 22.5777 11.2027C22.5144 11.2027 22.4527 11.1843 22.3927 11.1477C22.3327 11.1077 22.2611 11.0643 22.1777 11.0177C22.0944 10.9677 21.9944 10.9243 21.8777 10.8877C21.7644 10.8477 21.6227 10.8277 21.4527 10.8277C21.2361 10.8277 21.0461 10.8677 20.8827 10.9477C20.7194 11.0243 20.5827 11.136 20.4727 11.2827C20.3661 11.4293 20.2861 11.6077 20.2327 11.8177C20.1794 12.0243 20.1527 12.2593 20.1527 12.5227C20.1527 12.796 20.1811 13.0393 20.2377 13.2527C20.2977 13.466 20.3827 13.646 20.4927 13.7927C20.6027 13.936 20.7361 14.046 20.8927 14.1227C21.0494 14.196 21.2261 14.2327 21.4227 14.2327C21.6194 14.2327 21.7777 14.2093 21.8977 14.1627C22.0211 14.1127 22.1244 14.0593 22.2077 14.0027C22.2911 13.9427 22.3627 13.8893 22.4227 13.8427C22.4861 13.7927 22.5561 13.7677 22.6327 13.7677C22.7327 13.7677 22.8077 13.806 22.8577 13.8827L23.2127 14.3327C23.0761 14.4927 22.9277 14.6277 22.7677 14.7377C22.6077 14.8443 22.4411 14.931 22.2677 14.9977C22.0977 15.061 21.9211 15.106 21.7377 15.1327C21.5577 15.1593 21.3777 15.1727 21.1977 15.1727C20.8811 15.1727 20.5827 15.1143 20.3027 14.9977C20.0227 14.8777 19.7777 14.7043 19.5677 14.4777C19.3577 14.251 19.1911 13.9743 19.0677 13.6477C18.9477 13.3177 18.8877 12.9427 18.8877 12.5227C18.8877 12.146 18.9411 11.7977 19.0477 11.4777C19.1577 11.1543 19.3177 10.876 19.5277 10.6427C19.7377 10.406 19.9977 10.221 20.3077 10.0877C20.6177 9.95432 20.9744 9.88766 21.3777 9.88766C21.7611 9.88766 22.0961 9.94932 22.3827 10.0727C22.6727 10.196 22.9327 10.3727 23.1627 10.6027L22.8377 11.0527ZM27.2041 11.9427C27.2041 11.7827 27.1807 11.6327 27.1341 11.4927C27.0907 11.3493 27.0241 11.2243 26.9341 11.1177C26.8441 11.011 26.7291 10.9277 26.5891 10.8677C26.4524 10.8043 26.2924 10.7727 26.1091 10.7727C25.7524 10.7727 25.4707 10.8743 25.2641 11.0777C25.0607 11.281 24.9307 11.5693 24.8741 11.9427H27.2041ZM24.8491 12.6877C24.8691 12.951 24.9157 13.1793 24.9891 13.3727C25.0624 13.5627 25.1591 13.721 25.2791 13.8477C25.3991 13.971 25.5407 14.0643 25.7041 14.1277C25.8707 14.1877 26.0541 14.2177 26.2541 14.2177C26.4541 14.2177 26.6257 14.1943 26.7691 14.1477C26.9157 14.101 27.0424 14.0493 27.1491 13.9927C27.2591 13.936 27.3541 13.8843 27.4341 13.8377C27.5174 13.791 27.5974 13.7677 27.6741 13.7677C27.7774 13.7677 27.8541 13.806 27.9041 13.8827L28.2591 14.3327C28.1224 14.4927 27.9691 14.6277 27.7991 14.7377C27.6291 14.8443 27.4507 14.931 27.2641 14.9977C27.0807 15.061 26.8924 15.106 26.6991 15.1327C26.5091 15.1593 26.3241 15.1727 26.1441 15.1727C25.7874 15.1727 25.4557 15.1143 25.1491 14.9977C24.8424 14.8777 24.5757 14.7027 24.3491 14.4727C24.1224 14.2393 23.9441 13.9527 23.8141 13.6127C23.6841 13.2693 23.6191 12.8727 23.6191 12.4227C23.6191 12.0727 23.6757 11.7443 23.7891 11.4377C23.9024 11.1277 24.0641 10.8593 24.2741 10.6327C24.4874 10.4027 24.7457 10.221 25.0491 10.0877C25.3557 9.95432 25.7007 9.88766 26.0841 9.88766C26.4074 9.88766 26.7057 9.93932 26.9791 10.0427C27.2524 10.146 27.4874 10.2977 27.6841 10.4977C27.8807 10.6943 28.0341 10.9377 28.1441 11.2277C28.2574 11.5143 28.3141 11.8427 28.3141 12.2127C28.3141 12.3993 28.2941 12.526 28.2541 12.5927C28.2141 12.656 28.1374 12.6877 28.0241 12.6877H24.8491ZM32.3709 10.9677C32.3375 11.021 32.3025 11.0593 32.2659 11.0827C32.2292 11.1027 32.1825 11.1127 32.1259 11.1127C32.0659 11.1127 32.0009 11.096 31.9309 11.0627C31.8642 11.0293 31.7859 10.9927 31.6959 10.9527C31.6059 10.9093 31.5025 10.871 31.3859 10.8377C31.2725 10.8043 31.1375 10.7877 30.9809 10.7877C30.7375 10.7877 30.5459 10.8393 30.4059 10.9427C30.2692 11.046 30.2009 11.181 30.2009 11.3477C30.2009 11.4577 30.2359 11.551 30.3059 11.6277C30.3792 11.701 30.4742 11.766 30.5909 11.8227C30.7109 11.8793 30.8459 11.931 30.9959 11.9777C31.1459 12.021 31.2975 12.0693 31.4509 12.1227C31.6075 12.176 31.7609 12.2377 31.9109 12.3077C32.0609 12.3743 32.1942 12.461 32.3109 12.5677C32.4309 12.671 32.5259 12.796 32.5959 12.9427C32.6692 13.0893 32.7059 13.266 32.7059 13.4727C32.7059 13.7193 32.6609 13.9477 32.5709 14.1577C32.4842 14.3643 32.3542 14.5443 32.1809 14.6977C32.0075 14.8477 31.7925 14.966 31.5359 15.0527C31.2825 15.136 30.9892 15.1777 30.6559 15.1777C30.4792 15.1777 30.3059 15.161 30.1359 15.1277C29.9692 15.0977 29.8075 15.0543 29.6509 14.9977C29.4975 14.941 29.3542 14.8743 29.2209 14.7977C29.0909 14.721 28.9759 14.6377 28.8759 14.5477L29.1609 14.0777C29.1975 14.021 29.2409 13.9777 29.2909 13.9477C29.3409 13.9177 29.4042 13.9027 29.4809 13.9027C29.5575 13.9027 29.6292 13.9243 29.6959 13.9677C29.7659 14.011 29.8459 14.0577 29.9359 14.1077C30.0259 14.1577 30.1309 14.2043 30.2509 14.2477C30.3742 14.291 30.5292 14.3127 30.7159 14.3127C30.8625 14.3127 30.9875 14.296 31.0909 14.2627C31.1975 14.226 31.2842 14.1793 31.3509 14.1227C31.4209 14.066 31.4709 14.001 31.5009 13.9277C31.5342 13.851 31.5509 13.7727 31.5509 13.6927C31.5509 13.5727 31.5142 13.4743 31.4409 13.3977C31.3709 13.321 31.2759 13.2543 31.1559 13.1977C31.0392 13.141 30.9042 13.091 30.7509 13.0477C30.6009 13.001 30.4459 12.951 30.2859 12.8977C30.1292 12.8443 29.9742 12.7827 29.8209 12.7127C29.6709 12.6393 29.5359 12.5477 29.4159 12.4377C29.2992 12.3277 29.2042 12.1927 29.1309 12.0327C29.0609 11.8727 29.0259 11.6793 29.0259 11.4527C29.0259 11.2427 29.0675 11.0427 29.1509 10.8527C29.2342 10.6627 29.3559 10.4977 29.5159 10.3577C29.6792 10.2143 29.8809 10.101 30.1209 10.0177C30.3642 9.93099 30.6442 9.88766 30.9609 9.88766C31.3142 9.88766 31.6359 9.94599 31.9259 10.0627C32.2159 10.1793 32.4575 10.3327 32.6509 10.5227L32.3709 10.9677ZM37.302 13.7677C37.442 13.9377 37.5937 14.0577 37.757 14.1277C37.9237 14.1977 38.1037 14.2327 38.297 14.2327C38.4837 14.2327 38.652 14.1977 38.802 14.1277C38.952 14.0577 39.0787 13.951 39.182 13.8077C39.2887 13.6643 39.3704 13.4843 39.427 13.2677C39.4837 13.0477 39.512 12.7893 39.512 12.4927C39.512 12.1927 39.487 11.9393 39.437 11.7327C39.3904 11.5227 39.322 11.3527 39.232 11.2227C39.142 11.0927 39.032 10.9977 38.902 10.9377C38.7754 10.8777 38.6304 10.8477 38.467 10.8477C38.2104 10.8477 37.992 10.9027 37.812 11.0127C37.632 11.1193 37.462 11.271 37.302 11.4677V13.7677ZM37.237 10.6677C37.447 10.431 37.6854 10.2393 37.952 10.0927C38.2187 9.94599 38.532 9.87266 38.892 9.87266C39.172 9.87266 39.427 9.93099 39.657 10.0477C39.8904 10.1643 40.0904 10.3343 40.257 10.5577C40.427 10.7777 40.557 11.051 40.647 11.3777C40.7404 11.701 40.787 12.0727 40.787 12.4927C40.787 12.876 40.7354 13.231 40.632 13.5577C40.5287 13.8843 40.3804 14.1677 40.187 14.4077C39.997 14.6477 39.7654 14.836 39.492 14.9727C39.222 15.106 38.9187 15.1727 38.582 15.1727C38.2954 15.1727 38.0504 15.1293 37.847 15.0427C37.6437 14.9527 37.462 14.8293 37.302 14.6727V16.7727H36.067V9.96766H36.822C36.982 9.96766 37.087 10.0427 37.137 10.1927L37.237 10.6677ZM45.0556 11.9427C45.0556 11.7827 45.0323 11.6327 44.9856 11.4927C44.9423 11.3493 44.8756 11.2243 44.7856 11.1177C44.6956 11.011 44.5806 10.9277 44.4406 10.8677C44.304 10.8043 44.144 10.7727 43.9606 10.7727C43.604 10.7727 43.3223 10.8743 43.1156 11.0777C42.9123 11.281 42.7823 11.5693 42.7256 11.9427H45.0556ZM42.7006 12.6877C42.7206 12.951 42.7673 13.1793 42.8406 13.3727C42.914 13.5627 43.0106 13.721 43.1306 13.8477C43.2506 13.971 43.3923 14.0643 43.5556 14.1277C43.7223 14.1877 43.9056 14.2177 44.1056 14.2177C44.3056 14.2177 44.4773 14.1943 44.6206 14.1477C44.7673 14.101 44.894 14.0493 45.0006 13.9927C45.1106 13.936 45.2056 13.8843 45.2856 13.8377C45.369 13.791 45.449 13.7677 45.5256 13.7677C45.629 13.7677 45.7056 13.806 45.7556 13.8827L46.1106 14.3327C45.974 14.4927 45.8206 14.6277 45.6506 14.7377C45.4806 14.8443 45.3023 14.931 45.1156 14.9977C44.9323 15.061 44.744 15.106 44.5506 15.1327C44.3606 15.1593 44.1756 15.1727 43.9956 15.1727C43.639 15.1727 43.3073 15.1143 43.0006 14.9977C42.694 14.8777 42.4273 14.7027 42.2006 14.4727C41.974 14.2393 41.7956 13.9527 41.6656 13.6127C41.5356 13.2693 41.4706 12.8727 41.4706 12.4227C41.4706 12.0727 41.5273 11.7443 41.6406 11.4377C41.754 11.1277 41.9156 10.8593 42.1256 10.6327C42.339 10.4027 42.5973 10.221 42.9006 10.0877C43.2073 9.95432 43.5523 9.88766 43.9356 9.88766C44.259 9.88766 44.5573 9.93932 44.8306 10.0427C45.104 10.146 45.339 10.2977 45.5356 10.4977C45.7323 10.6943 45.8856 10.9377 45.9956 11.2277C46.109 11.5143 46.1656 11.8427 46.1656 12.2127C46.1656 12.3993 46.1456 12.526 46.1056 12.5927C46.0656 12.656 45.989 12.6877 45.8756 12.6877H42.7006ZM48.2574 10.8577C48.4174 10.551 48.6074 10.311 48.8274 10.1377C49.0474 9.96099 49.3074 9.87266 49.6074 9.87266C49.8441 9.87266 50.0341 9.92432 50.1774 10.0277L50.0974 10.9527C50.0808 11.0127 50.0558 11.056 50.0224 11.0827C49.9924 11.106 49.9508 11.1177 49.8974 11.1177C49.8474 11.1177 49.7724 11.1093 49.6724 11.0927C49.5758 11.076 49.4808 11.0677 49.3874 11.0677C49.2508 11.0677 49.1291 11.0877 49.0224 11.1277C48.9158 11.1677 48.8191 11.226 48.7324 11.3027C48.6491 11.376 48.5741 11.466 48.5074 11.5727C48.4441 11.6793 48.3841 11.801 48.3274 11.9377V15.0977H47.0924V9.96766H47.8174C47.9441 9.96766 48.0324 9.99099 48.0824 10.0377C48.1324 10.081 48.1658 10.161 48.1824 10.2777L48.2574 10.8577ZM56.7147 11.0527C56.678 11.0993 56.6414 11.136 56.6047 11.1627C56.5714 11.1893 56.5214 11.2027 56.4547 11.2027C56.3914 11.2027 56.3297 11.1843 56.2697 11.1477C56.2097 11.1077 56.138 11.0643 56.0547 11.0177C55.9714 10.9677 55.8714 10.9243 55.7547 10.8877C55.6414 10.8477 55.4997 10.8277 55.3297 10.8277C55.113 10.8277 54.923 10.8677 54.7597 10.9477C54.5964 11.0243 54.4597 11.136 54.3497 11.2827C54.243 11.4293 54.163 11.6077 54.1097 11.8177C54.0564 12.0243 54.0297 12.2593 54.0297 12.5227C54.0297 12.796 54.058 13.0393 54.1147 13.2527C54.1747 13.466 54.2597 13.646 54.3697 13.7927C54.4797 13.936 54.613 14.046 54.7697 14.1227C54.9264 14.196 55.103 14.2327 55.2997 14.2327C55.4964 14.2327 55.6547 14.2093 55.7747 14.1627C55.898 14.1127 56.0014 14.0593 56.0847 14.0027C56.168 13.9427 56.2397 13.8893 56.2997 13.8427C56.363 13.7927 56.433 13.7677 56.5097 13.7677C56.6097 13.7677 56.6847 13.806 56.7347 13.8827L57.0897 14.3327C56.953 14.4927 56.8047 14.6277 56.6447 14.7377C56.4847 14.8443 56.318 14.931 56.1447 14.9977C55.9747 15.061 55.798 15.106 55.6147 15.1327C55.4347 15.1593 55.2547 15.1727 55.0747 15.1727C54.758 15.1727 54.4597 15.1143 54.1797 14.9977C53.8997 14.8777 53.6547 14.7043 53.4447 14.4777C53.2347 14.251 53.068 13.9743 52.9447 13.6477C52.8247 13.3177 52.7647 12.9427 52.7647 12.5227C52.7647 12.146 52.818 11.7977 52.9247 11.4777C53.0347 11.1543 53.1947 10.876 53.4047 10.6427C53.6147 10.406 53.8747 10.221 54.1847 10.0877C54.4947 9.95432 54.8514 9.88766 55.2547 9.88766C55.638 9.88766 55.973 9.94932 56.2597 10.0727C56.5497 10.196 56.8097 10.3727 57.0397 10.6027L56.7147 11.0527ZM60.5739 12.9077C60.2172 12.9243 59.9172 12.956 59.6739 13.0027C59.4306 13.046 59.2356 13.1027 59.0889 13.1727C58.9422 13.2427 58.8372 13.3243 58.7739 13.4177C58.7106 13.511 58.6789 13.6127 58.6789 13.7227C58.6789 13.9393 58.7422 14.0943 58.8689 14.1877C58.9989 14.281 59.1672 14.3277 59.3739 14.3277C59.6272 14.3277 59.8456 14.2827 60.0289 14.1927C60.2156 14.0993 60.3972 13.9593 60.5739 13.7727V12.9077ZM57.7439 10.6827C58.3339 10.1427 59.0439 9.87266 59.8739 9.87266C60.1739 9.87266 60.4422 9.92266 60.6789 10.0227C60.9156 10.1193 61.1156 10.256 61.2789 10.4327C61.4422 10.606 61.5656 10.8143 61.6489 11.0577C61.7356 11.301 61.7789 11.5677 61.7789 11.8577V15.0977H61.2189C61.1022 15.0977 61.0122 15.081 60.9489 15.0477C60.8856 15.011 60.8356 14.9393 60.7989 14.8327L60.6889 14.4627C60.5589 14.5793 60.4322 14.6827 60.3089 14.7727C60.1856 14.8593 60.0572 14.9327 59.9239 14.9927C59.7906 15.0527 59.6472 15.0977 59.4939 15.1277C59.3439 15.161 59.1772 15.1777 58.9939 15.1777C58.7772 15.1777 58.5772 15.1493 58.3939 15.0927C58.2106 15.0327 58.0522 14.9443 57.9189 14.8277C57.7856 14.711 57.6822 14.566 57.6089 14.3927C57.5356 14.2193 57.4989 14.0177 57.4989 13.7877C57.4989 13.6577 57.5206 13.5293 57.5639 13.4027C57.6072 13.2727 57.6772 13.1493 57.7739 13.0327C57.8739 12.916 58.0022 12.806 58.1589 12.7027C58.3156 12.5993 58.5072 12.5093 58.7339 12.4327C58.9639 12.356 59.2306 12.2943 59.5339 12.2477C59.8372 12.1977 60.1839 12.1677 60.5739 12.1577V11.8577C60.5739 11.5143 60.5006 11.261 60.3539 11.0977C60.2072 10.931 59.9956 10.8477 59.7189 10.8477C59.5189 10.8477 59.3522 10.871 59.2189 10.9177C59.0889 10.9643 58.9739 11.0177 58.8739 11.0777C58.7739 11.1343 58.6822 11.186 58.5989 11.2327C58.5189 11.2793 58.4289 11.3027 58.3289 11.3027C58.2422 11.3027 58.1689 11.281 58.1089 11.2377C58.0489 11.191 58.0006 11.1377 57.9639 11.0777L57.7439 10.6827ZM64.107 10.8577C64.267 10.551 64.457 10.311 64.677 10.1377C64.897 9.96099 65.157 9.87266 65.457 9.87266C65.6937 9.87266 65.8837 9.92432 66.027 10.0277L65.947 10.9527C65.9304 11.0127 65.9054 11.056 65.872 11.0827C65.842 11.106 65.8004 11.1177 65.747 11.1177C65.697 11.1177 65.622 11.1093 65.522 11.0927C65.4254 11.076 65.3304 11.0677 65.237 11.0677C65.1004 11.0677 64.9787 11.0877 64.872 11.1277C64.7654 11.1677 64.6687 11.226 64.582 11.3027C64.4987 11.376 64.4237 11.466 64.357 11.5727C64.2937 11.6793 64.2337 11.801 64.177 11.9377V15.0977H62.942V9.96766H63.667C63.7937 9.96766 63.882 9.99099 63.932 10.0377C63.982 10.081 64.0154 10.161 64.032 10.2777L64.107 10.8577ZM68.3825 15.1777C67.9358 15.1777 67.5925 15.0527 67.3525 14.8027C67.1158 14.5493 66.9975 14.201 66.9975 13.7577V10.8927H66.4725C66.4058 10.8927 66.3492 10.871 66.3025 10.8277C66.2558 10.7843 66.2325 10.7193 66.2325 10.6327V10.1427L67.0575 10.0077L67.3175 8.60766C67.3342 8.54099 67.3658 8.48932 67.4125 8.45266C67.4592 8.41599 67.5192 8.39766 67.5925 8.39766H68.2325V10.0127H69.6025V10.8927H68.2325V13.6727C68.2325 13.8327 68.2708 13.9577 68.3475 14.0477C68.4275 14.1377 68.5358 14.1827 68.6725 14.1827C68.7492 14.1827 68.8125 14.1743 68.8625 14.1577C68.9158 14.1377 68.9608 14.1177 68.9975 14.0977C69.0375 14.0777 69.0725 14.0593 69.1025 14.0427C69.1325 14.0227 69.1625 14.0127 69.1925 14.0127C69.2292 14.0127 69.2592 14.0227 69.2825 14.0427C69.3058 14.0593 69.3308 14.086 69.3575 14.1227L69.7275 14.7227C69.5475 14.8727 69.3408 14.986 69.1075 15.0627C68.8742 15.1393 68.6325 15.1777 68.3825 15.1777ZM72.6241 9.88766C73.0041 9.88766 73.3491 9.94932 73.6591 10.0727C73.9725 10.196 74.2391 10.371 74.4591 10.5977C74.6825 10.8243 74.8541 11.101 74.9741 11.4277C75.0941 11.7543 75.1541 12.1193 75.1541 12.5227C75.1541 12.9293 75.0941 13.296 74.9741 13.6227C74.8541 13.9493 74.6825 14.2277 74.4591 14.4577C74.2391 14.6877 73.9725 14.8643 73.6591 14.9877C73.3491 15.111 73.0041 15.1727 72.6241 15.1727C72.2408 15.1727 71.8925 15.111 71.5791 14.9877C71.2658 14.8643 70.9975 14.6877 70.7741 14.4577C70.5541 14.2277 70.3825 13.9493 70.2591 13.6227C70.1391 13.296 70.0791 12.9293 70.0791 12.5227C70.0791 12.1193 70.1391 11.7543 70.2591 11.4277C70.3825 11.101 70.5541 10.8243 70.7741 10.5977C70.9975 10.371 71.2658 10.196 71.5791 10.0727C71.8925 9.94932 72.2408 9.88766 72.6241 9.88766ZM72.6241 14.2227C73.0508 14.2227 73.3658 14.0793 73.5691 13.7927C73.7758 13.506 73.8791 13.086 73.8791 12.5327C73.8791 11.9793 73.7758 11.5577 73.5691 11.2677C73.3658 10.9777 73.0508 10.8327 72.6241 10.8327C72.1908 10.8327 71.8691 10.9793 71.6591 11.2727C71.4525 11.5627 71.3491 11.9827 71.3491 12.5327C71.3491 13.0827 71.4525 13.5027 71.6591 13.7927C71.8691 14.0793 72.1908 14.2227 72.6241 14.2227ZM77.2513 10.5977C77.3547 10.4943 77.463 10.3993 77.5763 10.3127C77.693 10.2227 77.8147 10.1477 77.9413 10.0877C78.0713 10.0243 78.2097 9.97599 78.3563 9.94266C78.503 9.90599 78.663 9.88766 78.8363 9.88766C79.1163 9.88766 79.3647 9.93599 79.5813 10.0327C79.798 10.126 79.978 10.2593 80.1213 10.4327C80.268 10.6027 80.378 10.8077 80.4513 11.0477C80.528 11.2843 80.5663 11.546 80.5663 11.8327V15.0977H79.3313V11.8327C79.3313 11.5193 79.2597 11.2777 79.1163 11.1077C78.973 10.9343 78.7547 10.8477 78.4613 10.8477C78.248 10.8477 78.048 10.896 77.8613 10.9927C77.6747 11.0893 77.498 11.221 77.3313 11.3877V15.0977H76.0963V9.96766H76.8513C77.0113 9.96766 77.1163 10.0427 77.1663 10.1927L77.2513 10.5977Z" fill="white"/>
<path d="M54.22 23.9943C54.1027 23.4023 53.7373 23.1063 53.124 23.1063C52.6493 23.1063 52.2947 23.2903 52.06 23.6583C51.8253 24.021 51.7107 24.621 51.716 25.4583C51.8387 25.181 52.0413 24.965 52.324 24.8103C52.612 24.6503 52.932 24.5703 53.284 24.5703C53.8333 24.5703 54.2707 24.741 54.596 25.0823C54.9267 25.4237 55.092 25.8957 55.092 26.4983C55.092 26.861 55.02 27.1863 54.876 27.4743C54.7373 27.7623 54.524 27.9917 54.236 28.1623C53.9533 28.333 53.6093 28.4183 53.204 28.4183C52.6547 28.4183 52.2253 28.2957 51.916 28.0503C51.6067 27.805 51.3907 27.4663 51.268 27.0343C51.1453 26.6023 51.084 26.069 51.084 25.4343C51.084 23.477 51.7667 22.4983 53.132 22.4983C53.6547 22.4983 54.0653 22.6397 54.364 22.9223C54.6627 23.205 54.8387 23.5623 54.892 23.9943H54.22ZM53.132 25.1863C52.9027 25.1863 52.6867 25.2343 52.484 25.3303C52.2813 25.421 52.116 25.5623 51.988 25.7543C51.8653 25.941 51.804 26.1703 51.804 26.4423C51.804 26.8477 51.9213 27.1783 52.156 27.4343C52.3907 27.685 52.7267 27.8103 53.164 27.8103C53.5373 27.8103 53.8333 27.6957 54.052 27.4663C54.276 27.2317 54.388 26.917 54.388 26.5223C54.388 26.1063 54.2813 25.781 54.068 25.5463C53.8547 25.3063 53.5427 25.1863 53.132 25.1863ZM56.0741 25.4503C56.0741 24.533 56.2235 23.8183 56.5221 23.3063C56.8208 22.789 57.3435 22.5303 58.0901 22.5303C58.8315 22.5303 59.3515 22.789 59.6501 23.3063C59.9488 23.8183 60.0981 24.533 60.0981 25.4503C60.0981 26.3837 59.9488 27.109 59.6501 27.6263C59.3515 28.1437 58.8315 28.4023 58.0901 28.4023C57.3435 28.4023 56.8208 28.1437 56.5221 27.6263C56.2235 27.109 56.0741 26.3837 56.0741 25.4503ZM59.3781 25.4503C59.3781 24.9863 59.3461 24.5943 59.2821 24.2743C59.2235 23.949 59.0981 23.6877 58.9061 23.4903C58.7195 23.293 58.4475 23.1943 58.0901 23.1943C57.7275 23.1943 57.4501 23.293 57.2581 23.4903C57.0715 23.6877 56.9461 23.949 56.8821 24.2743C56.8235 24.5943 56.7941 24.9863 56.7941 25.4503C56.7941 25.9303 56.8235 26.333 56.8821 26.6583C56.9461 26.9837 57.0715 27.245 57.2581 27.4423C57.4501 27.6397 57.7275 27.7383 58.0901 27.7383C58.4475 27.7383 58.7195 27.6397 58.9061 27.4423C59.0981 27.245 59.2235 26.9837 59.2821 26.6583C59.3461 26.333 59.3781 25.9303 59.3781 25.4503ZM61.0976 25.4503C61.0976 24.533 61.2469 23.8183 61.5456 23.3063C61.8442 22.789 62.3669 22.5303 63.1136 22.5303C63.8549 22.5303 64.3749 22.789 64.6736 23.3063C64.9722 23.8183 65.1216 24.533 65.1216 25.4503C65.1216 26.3837 64.9722 27.109 64.6736 27.6263C64.3749 28.1437 63.8549 28.4023 63.1136 28.4023C62.3669 28.4023 61.8442 28.1437 61.5456 27.6263C61.2469 27.109 61.0976 26.3837 61.0976 25.4503ZM64.4016 25.4503C64.4016 24.9863 64.3696 24.5943 64.3056 24.2743C64.2469 23.949 64.1216 23.6877 63.9296 23.4903C63.7429 23.293 63.4709 23.1943 63.1136 23.1943C62.7509 23.1943 62.4736 23.293 62.2816 23.4903C62.0949 23.6877 61.9696 23.949 61.9056 24.2743C61.8469 24.5943 61.8176 24.9863 61.8176 25.4503C61.8176 25.9303 61.8469 26.333 61.9056 26.6583C61.9696 26.9837 62.0949 27.245 62.2816 27.4423C62.4736 27.6397 62.7509 27.7383 63.1136 27.7383C63.4709 27.7383 63.7429 27.6397 63.9296 27.4423C64.1216 27.245 64.2469 26.9837 64.3056 26.6583C64.3696 26.333 64.4016 25.9303 64.4016 25.4503ZM70.625 28.4023H69.897L66.969 23.9623V28.4023H66.241V22.8183H66.969L69.897 27.2503V22.8183H70.625V28.4023ZM73.778 28.4743C73.3673 28.4743 72.994 28.381 72.658 28.1943C72.3273 28.0077 72.066 27.7437 71.874 27.4023C71.6873 27.0557 71.594 26.6557 71.594 26.2023C71.594 25.7543 71.69 25.3597 71.882 25.0183C72.0793 24.6717 72.346 24.4077 72.682 24.2263C73.018 24.0397 73.394 23.9463 73.81 23.9463C74.226 23.9463 74.602 24.0397 74.938 24.2263C75.274 24.4077 75.538 24.669 75.73 25.0103C75.9273 25.3517 76.026 25.749 76.026 26.2023C76.026 26.6557 75.9247 27.0557 75.722 27.4023C75.5247 27.7437 75.2553 28.0077 74.914 28.1943C74.5727 28.381 74.194 28.4743 73.778 28.4743ZM73.778 27.8343C74.0393 27.8343 74.2847 27.773 74.514 27.6503C74.7433 27.5277 74.9273 27.3437 75.066 27.0983C75.21 26.853 75.282 26.5543 75.282 26.2023C75.282 25.8503 75.2127 25.5517 75.074 25.3063C74.9353 25.061 74.754 24.8797 74.53 24.7623C74.306 24.6397 74.0633 24.5783 73.802 24.5783C73.5353 24.5783 73.29 24.6397 73.066 24.7623C72.8473 24.8797 72.6713 25.061 72.538 25.3063C72.4047 25.5517 72.338 25.8503 72.338 26.2023C72.338 26.5597 72.402 26.861 72.53 27.1063C72.6633 27.3517 72.8393 27.5357 73.058 27.6583C73.2767 27.7757 73.5167 27.8343 73.778 27.8343ZM78.5352 28.4743C78.1992 28.4743 77.8979 28.4183 77.6312 28.3063C77.3645 28.189 77.1539 28.029 76.9992 27.8263C76.8445 27.6183 76.7592 27.381 76.7432 27.1143H77.4952C77.5165 27.333 77.6179 27.5117 77.7992 27.6503C77.9859 27.789 78.2285 27.8583 78.5272 27.8583C78.8045 27.8583 79.0232 27.797 79.1832 27.6743C79.3432 27.5517 79.4232 27.397 79.4232 27.2103C79.4232 27.0183 79.3379 26.877 79.1672 26.7863C78.9965 26.6903 78.7325 26.597 78.3752 26.5063C78.0499 26.421 77.7832 26.3357 77.5752 26.2503C77.3725 26.1597 77.1965 26.029 77.0472 25.8583C76.9032 25.6823 76.8312 25.453 76.8312 25.1703C76.8312 24.9463 76.8979 24.741 77.0312 24.5543C77.1645 24.3677 77.3539 24.221 77.5992 24.1143C77.8445 24.0023 78.1245 23.9463 78.4392 23.9463C78.9245 23.9463 79.3165 24.069 79.6152 24.3143C79.9139 24.5597 80.0739 24.8957 80.0952 25.3223H79.3672C79.3512 25.093 79.2579 24.909 79.0872 24.7703C78.9219 24.6317 78.6979 24.5623 78.4152 24.5623C78.1539 24.5623 77.9459 24.6183 77.7912 24.7303C77.6365 24.8423 77.5592 24.989 77.5592 25.1703C77.5592 25.3143 77.6045 25.4343 77.6952 25.5303C77.7912 25.621 77.9085 25.6957 78.0472 25.7543C78.1912 25.8077 78.3885 25.869 78.6392 25.9383C78.9539 26.0237 79.2099 26.109 79.4072 26.1943C79.6045 26.2743 79.7725 26.397 79.9112 26.5623C80.0552 26.7277 80.1299 26.9437 80.1352 27.2103C80.1352 27.4503 80.0685 27.6663 79.9352 27.8583C79.8019 28.0503 79.6125 28.2023 79.3672 28.3143C79.1272 28.421 78.8499 28.4743 78.5352 28.4743Z" fill="white"/>
<rect x="87.5" width="36.5" height="36.5" rx="18.25" fill="white"/>
<path d="M106.659 11.1065C106.074 10.8942 105.427 10.8942 104.842 11.1065L103.107 11.7366L110.419 14.3928L112.942 13.4764C112.795 13.3651 112.63 13.2757 112.454 13.2113L106.659 11.1065ZM108.853 14.9623L101.54 12.3061L99.0477 13.2113C98.8674 13.2772 98.7042 13.3658 98.5584 13.477L105.75 16.0886L108.853 14.9623ZM97.8755 14.8226C97.8755 14.6732 97.8952 14.5283 97.9346 14.3881L105.188 17.0231V25.4965C105.07 25.4712 104.955 25.438 104.842 25.3972L99.0472 23.2923C98.7024 23.167 98.4058 22.946 98.1967 22.6584C97.9875 22.3707 97.8755 22.03 97.8755 21.6811V14.8226ZM106.659 25.3972C106.546 25.4386 106.43 25.4719 106.313 25.497V17.0231L113.566 14.3881C113.605 14.5283 113.625 14.6732 113.625 14.8226V21.6811C113.625 22.03 113.513 22.3707 113.304 22.6584C113.095 22.946 112.799 23.167 112.454 23.2923L106.659 25.3972Z" fill="#99008F"/>
</svg>
