<svg width="82" height="32" viewBox="0 0 82 32" fill="none" xmlns="http://www.w3.org/2000/svg">
<path d="M20.6523 8.43119C20.6523 5.98391 22.6363 4 25.0835 4H77.2212C79.6684 4 81.6523 5.98391 81.6523 8.43119V22.5688C81.6523 25.0161 79.6684 27 77.2212 27H25.0835C22.6363 27 20.6523 25.0161 20.6523 22.5688V8.43119Z" fill="#BD46B5"/>
<circle cx="15.8257" cy="15.8257" r="15.8257" fill="white"/>
<circle cx="15.8248" cy="15.5084" r="13.2936" fill="#BD46B5"/>
<path d="M38.2844 20L38.2844 12.7273L41.1538 12.7273C41.7054 12.7273 42.1753 12.8326 42.5636 13.0433C42.9518 13.2517 43.2478 13.5417 43.4513 13.9134C43.6573 14.2827 43.7603 14.7088 43.7603 15.1918C43.7603 15.6747 43.6561 16.1009 43.4478 16.4702C43.2395 16.8395 42.9376 17.1271 42.5423 17.3331C42.1493 17.5391 41.6734 17.642 41.1147 17.642L39.2859 17.642L39.2859 16.4098L40.8661 16.4098C41.1621 16.4098 41.4059 16.3589 41.5977 16.2571C41.7918 16.1529 41.9362 16.0097 42.0309 15.8274C42.128 15.6428 42.1765 15.4309 42.1765 15.1918C42.1765 14.9503 42.128 14.7396 42.0309 14.5597C41.9362 14.3774 41.7918 14.2365 41.5977 14.1371C41.4035 14.0353 41.1573 13.9844 40.859 13.9844L39.8221 13.9844L39.8221 20L38.2844 20ZM44.2306 20L44.2306 14.5455L45.6973 14.5455L45.6973 15.4972L45.7541 15.4972C45.8535 15.1586 46.0204 14.9029 46.2548 14.7301C46.4892 14.5549 46.7591 14.4673 47.0645 14.4673C47.1402 14.4673 47.2219 14.4721 47.3095 14.4815C47.3971 14.491 47.474 14.504 47.5403 14.5206L47.5403 15.8629C47.4693 15.8416 47.371 15.8227 47.2456 15.8061C47.1201 15.7895 47.0053 15.7812 46.9011 15.7812C46.6786 15.7812 46.4797 15.8298 46.3045 15.9268C46.1317 16.0215 45.9944 16.1541 45.8926 16.3246C45.7931 16.495 45.7434 16.6915 45.7434 16.9141L45.7434 20L44.2306 20ZM50.0543 20.1065C49.4933 20.1065 49.0103 19.9929 48.6055 19.7656C48.203 19.536 47.8929 19.2116 47.6751 18.7926C47.4573 18.3712 47.3484 17.8729 47.3484 17.2976C47.3484 16.7365 47.4573 16.2441 47.6751 15.8203C47.8929 15.3965 48.1995 15.0663 48.5948 14.8295C48.9925 14.5928 49.4589 14.4744 49.994 14.4744C50.3538 14.4744 50.6888 14.5324 50.9989 14.6484C51.3114 14.7621 51.5837 14.9337 51.8157 15.1634C52.0501 15.393 52.2324 15.6818 52.3626 16.0298C52.4928 16.3755 52.5579 16.7803 52.5579 17.2443L52.5579 17.6598L47.9521 17.6598L47.9521 16.7223L51.1339 16.7223C51.1339 16.5045 51.0865 16.3116 50.9918 16.1435C50.8971 15.9754 50.7657 15.844 50.5977 15.7493C50.4319 15.6522 50.239 15.6037 50.0188 15.6037C49.7892 15.6037 49.5856 15.657 49.408 15.7635C49.2328 15.8677 49.0955 16.0085 48.9961 16.1861C48.8967 16.3613 48.8458 16.5566 48.8434 16.772L48.8434 17.6634C48.8434 17.9332 48.8931 18.1664 48.9925 18.3629C49.0943 18.5594 49.2376 18.7109 49.4222 18.8175C49.6069 18.924 49.8259 18.9773 50.0792 18.9773C50.2473 18.9773 50.4012 18.9536 50.5408 18.9062C50.6805 18.8589 50.8001 18.7879 50.8995 18.6932C50.9989 18.5985 51.0747 18.4825 51.1268 18.3452L52.5259 18.4375C52.4549 18.7737 52.3093 19.0672 52.0891 19.3182C51.8713 19.5668 51.5896 19.7609 51.244 19.9006C50.9007 20.0379 50.5041 20.1065 50.0543 20.1065ZM57.9838 14.5455L56.0769 20L54.3723 20L52.4654 14.5455L54.0634 14.5455L55.1962 18.4482L55.253 18.4482L56.3823 14.5455L57.9838 14.5455ZM58.258 20L58.258 14.5455L59.7708 14.5455L59.7708 20L58.258 20ZM59.0179 13.8423C58.793 13.8423 58.6001 13.7678 58.4391 13.6186C58.2805 13.4671 58.2012 13.286 58.2012 13.0753C58.2012 12.867 58.2805 12.6882 58.4391 12.5391C58.6001 12.3875 58.793 12.3118 59.0179 12.3118C59.2428 12.3118 59.4346 12.3875 59.5932 12.5391C59.7542 12.6882 59.8347 12.867 59.8347 13.0753C59.8347 13.286 59.7542 13.4671 59.5932 13.6186C59.4346 13.7678 59.2428 13.8423 59.0179 13.8423ZM62.9471 20.1065C62.3955 20.1065 61.9184 19.9893 61.516 19.755C61.1159 19.5182 60.8069 19.1892 60.5891 18.7678C60.3713 18.344 60.2624 17.8527 60.2624 17.294C60.2624 16.7306 60.3713 16.2382 60.5891 15.8168C60.8069 15.393 61.1159 15.0639 61.516 14.8295C61.9184 14.5928 62.3955 14.4744 62.9471 14.4744C63.4987 14.4744 63.9746 14.5928 64.3746 14.8295C64.7771 15.0639 65.0872 15.393 65.305 15.8168C65.5228 16.2382 65.6317 16.7306 65.6317 17.294C65.6317 17.8527 65.5228 18.344 65.305 18.7678C65.0872 19.1892 64.7771 19.5182 64.3746 19.755C63.9746 19.9893 63.4987 20.1065 62.9471 20.1065ZM62.9542 18.9347C63.2051 18.9347 63.4147 18.8636 63.5827 18.7216C63.7508 18.5772 63.8775 18.3807 63.9627 18.1321C64.0503 17.8835 64.0941 17.6006 64.0941 17.2834C64.0941 16.9661 64.0503 16.6832 63.9627 16.4347C63.8775 16.1861 63.7508 15.9896 63.5827 15.8452C63.4147 15.7008 63.2051 15.6286 62.9542 15.6286C62.7009 15.6286 62.4878 15.7008 62.315 15.8452C62.1445 15.9896 62.0155 16.1861 61.9279 16.4347C61.8427 16.6832 61.8001 16.9661 61.8001 17.2834C61.8001 17.6006 61.8427 17.8835 61.9279 18.1321C62.0155 18.3807 62.1445 18.5772 62.315 18.7216C62.4878 18.8636 62.7009 18.9347 62.9542 18.9347ZM69.6133 17.6776L69.6133 14.5455L71.1261 14.5455L71.1261 20L69.6737 20L69.6737 19.0092L69.6168 19.0092C69.4937 19.3288 69.2889 19.5857 69.0025 19.7798C68.7184 19.974 68.3716 20.071 67.962 20.071C67.5974 20.071 67.2766 19.9882 66.9996 19.8224C66.7227 19.6567 66.506 19.4212 66.3498 19.1158C66.1959 18.8104 66.1178 18.4446 66.1154 18.0185L66.1154 14.5455L67.6282 14.5455L67.6282 17.7486C67.6306 18.0705 67.717 18.325 67.8874 18.5121C68.0579 18.6991 68.2863 18.7926 68.5728 18.7926C68.7551 18.7926 68.9255 18.7512 69.0842 18.6683C69.2428 18.5831 69.3706 18.4576 69.4677 18.2919C69.5671 18.1262 69.6156 17.9214 69.6133 17.6776ZM76.3745 16.1009L74.9895 16.1861C74.9658 16.0677 74.915 15.9612 74.8368 15.8665C74.7587 15.7694 74.6557 15.6925 74.5279 15.6357C74.4024 15.5765 74.2521 15.5469 74.0769 15.5469C73.8425 15.5469 73.6448 15.5966 73.4838 15.696C73.3229 15.7931 73.2424 15.9233 73.2424 16.0866C73.2424 16.2169 73.2944 16.3269 73.3986 16.4169C73.5028 16.5069 73.6815 16.5791 73.9348 16.6335L74.9221 16.8324C75.4524 16.9413 75.8477 17.1165 76.1081 17.358C76.3685 17.5994 76.4988 17.9167 76.4988 18.3097C76.4988 18.6671 76.3934 18.9808 76.1827 19.2507C75.9744 19.5206 75.6879 19.7313 75.3233 19.8828C74.9611 20.032 74.5433 20.1065 74.0698 20.1065C73.3477 20.1065 72.7724 19.9562 72.3439 19.6555C71.9178 19.3525 71.668 18.9406 71.5946 18.4197L73.0826 18.3416C73.1275 18.5618 73.2364 18.7299 73.4093 18.8459C73.5821 18.9595 73.8034 19.0163 74.0733 19.0163C74.3385 19.0163 74.5516 18.9654 74.7125 18.8636C74.8759 18.7595 74.9587 18.6257 74.9611 18.4624C74.9587 18.325 74.9007 18.2126 74.7871 18.125C74.6735 18.035 74.4983 17.9664 74.2615 17.919L73.3169 17.7308C72.7843 17.6243 72.3877 17.4396 72.1273 17.1768C71.8693 16.9141 71.7402 16.5791 71.7402 16.1719C71.7402 15.8215 71.8349 15.5196 72.0243 15.2663C72.2161 15.013 72.4848 14.8177 72.8304 14.6804C73.1784 14.5431 73.5856 14.4744 74.052 14.4744C74.7409 14.4744 75.2831 14.62 75.6784 14.9112C76.0762 15.2024 76.3082 15.599 76.3745 16.1009Z" fill="white"/>
<g clip-path="url(#clip0_1467_293)">
<path d="M15.0175 11.1108C15.3104 10.8178 15.3103 10.3428 15.0172 10.0499C14.7243 9.75734 14.2498 9.75741 13.957 10.0501L8.70801 15.2972C8.61486 15.3898 8.54093 15.4999 8.49048 15.6211C8.44003 15.7424 8.41406 15.8724 8.41406 16.0037C8.41406 16.1351 8.44003 16.2651 8.49048 16.3863C8.54093 16.5076 8.61486 16.6177 8.70801 16.7102L13.957 21.9601C14.2497 22.2529 14.7243 22.2529 15.0171 21.9602C15.3098 21.6675 15.3098 21.193 15.0171 20.9002L10.83 16.7123C10.4395 16.3218 10.4396 15.6887 10.8301 15.2982L15.0175 11.1108Z" fill="white"/>
<path d="M17.8179 12.6962C17.9288 12.5767 17.9597 12.4034 17.897 12.2529C17.7831 11.9796 17.4281 11.9093 17.2186 12.1187L13.8053 15.5308C13.7432 15.5926 13.694 15.6659 13.6603 15.7468C13.6267 15.8276 13.6094 15.9143 13.6094 16.0018C13.6094 16.0894 13.6267 16.1761 13.6603 16.2569C13.694 16.3377 13.7432 16.4111 13.8053 16.4728L17.2155 19.8836C17.4262 20.0943 17.7834 20.0233 17.8974 19.748C17.9599 19.5969 17.9286 19.4232 17.8173 19.3035L15.3812 16.6832C15.0246 16.2996 15.0243 15.7058 15.3806 15.322L17.8179 12.6962Z" fill="white"/>
</g>
<defs>
<clipPath id="clip0_1467_293">
<rect width="12" height="16" fill="white" transform="matrix(-1 0 0 1 20 8)"/>
</clipPath>
</defs>
</svg>
