<svg width="391" height="27" viewBox="0 0 391 27" fill="none" xmlns="http://www.w3.org/2000/svg">
<path d="M6.30691 3.13635C6.21316 2.84942 6.08958 2.59232 5.93617 2.36505C5.7856 2.13493 5.6052 1.93891 5.39498 1.77698C5.18759 1.61505 4.95179 1.49147 4.68759 1.40624C4.42338 1.32101 4.13361 1.2784 3.81827 1.2784C3.30123 1.2784 2.83105 1.41192 2.40776 1.67897C1.98446 1.94601 1.64782 2.33948 1.39782 2.85936C1.14782 3.37925 1.02282 4.01703 1.02282 4.77272C1.02282 5.5284 1.14924 6.16618 1.40208 6.68607C1.65492 7.20595 1.99725 7.59942 2.42907 7.86647C2.86088 8.13351 3.34668 8.26703 3.88645 8.26703C4.38645 8.26703 4.82679 8.1605 5.20748 7.94743C5.591 7.73152 5.88929 7.42755 6.10236 7.0355C6.31827 6.64061 6.42623 6.17613 6.42623 5.64203L6.75009 5.71022H4.12509V4.77272H7.44895V5.71022C7.44895 6.42897 7.29554 7.05397 6.98873 7.58522C6.68475 8.11647 6.26429 8.5284 5.72736 8.82101C5.19327 9.11078 4.57963 9.25567 3.88645 9.25567C3.11373 9.25567 2.43475 9.07385 1.84952 8.71022C1.26713 8.34658 0.812589 7.82953 0.485884 7.15908C0.162021 6.48863 8.88109e-05 5.69317 8.88109e-05 4.77272C8.88109e-05 4.08238 0.0924183 3.46164 0.277077 2.9105C0.464577 2.35652 0.728782 1.88493 1.06969 1.49573C1.4106 1.10652 1.81401 0.808228 2.27992 0.600841C2.74583 0.393455 3.25861 0.289761 3.81827 0.289761C4.2785 0.289761 4.70748 0.359364 5.1052 0.498568C5.50577 0.634932 5.8623 0.829534 6.1748 1.08237C6.49015 1.33237 6.75293 1.63209 6.96316 1.98152C7.17338 2.32811 7.31827 2.71306 7.39782 3.13635H6.30691ZM9.1226 9.13635V2.5909H10.0942V3.57953H10.1624C10.2817 3.25567 10.4976 2.99289 10.8101 2.79118C11.1226 2.58948 11.4749 2.48862 11.8669 2.48862C11.9408 2.48862 12.0331 2.49005 12.1439 2.49289C12.2547 2.49573 12.3385 2.49999 12.3953 2.50567V3.5284C12.3612 3.51988 12.2831 3.50709 12.161 3.49005C12.0416 3.47016 11.9152 3.46022 11.7817 3.46022C11.4635 3.46022 11.1794 3.52698 10.9294 3.6605C10.6823 3.79118 10.4862 3.973 10.3414 4.20595C10.1993 4.43607 10.1283 4.69885 10.1283 4.99431V9.13635H9.1226ZM16.1325 9.27272C15.5019 9.27272 14.9578 9.13351 14.5004 8.8551C14.0459 8.57385 13.695 8.18181 13.4479 7.67897C13.2036 7.17328 13.0814 6.58522 13.0814 5.91476C13.0814 5.24431 13.2036 4.6534 13.4479 4.14203C13.695 3.62783 14.0388 3.22726 14.4791 2.94033C14.9223 2.65056 15.4394 2.50567 16.0303 2.50567C16.3712 2.50567 16.7078 2.56249 17.0402 2.67612C17.3726 2.78976 17.6752 2.97442 17.9479 3.2301C18.2206 3.48294 18.4379 3.81817 18.5999 4.23578C18.7618 4.6534 18.8428 5.1676 18.8428 5.7784V6.20453H13.7973V5.33522H17.82C17.82 4.9659 17.7462 4.63635 17.5985 4.34658C17.4536 4.05681 17.2462 3.82811 16.9763 3.6605C16.7093 3.49289 16.3939 3.40908 16.0303 3.40908C15.6297 3.40908 15.2831 3.50851 14.9905 3.70738C14.7007 3.9034 14.4777 4.15908 14.3215 4.47442C14.1652 4.78976 14.0871 5.12783 14.0871 5.48863V6.06817C14.0871 6.56249 14.1723 6.98152 14.3428 7.32527C14.5161 7.66618 14.7561 7.92613 15.0629 8.1051C15.3698 8.28124 15.7263 8.36931 16.1325 8.36931C16.3968 8.36931 16.6354 8.33238 16.8485 8.25851C17.0644 8.18181 17.2504 8.06817 17.4067 7.9176C17.5629 7.76419 17.6837 7.57385 17.7689 7.34658L18.7405 7.61931C18.6382 7.94885 18.4664 8.23863 18.2249 8.48863C17.9834 8.73578 17.6851 8.92897 17.33 9.06817C16.9749 9.20453 16.5757 9.27272 16.1325 9.27272ZM22.2987 9.28976C21.884 9.28976 21.5075 9.21164 21.1695 9.05539C20.8314 8.8963 20.5629 8.6676 20.3641 8.36931C20.1652 8.06817 20.0658 7.70453 20.0658 7.2784C20.0658 6.9034 20.1396 6.59942 20.2874 6.36647C20.4351 6.13067 20.6325 5.94601 20.8797 5.81249C21.1269 5.67897 21.3996 5.57953 21.6979 5.51419C21.999 5.44601 22.3016 5.39203 22.6056 5.35226C23.0033 5.30113 23.3257 5.26277 23.5729 5.2372C23.8229 5.2088 24.0047 5.16192 24.1183 5.09658C24.2348 5.03124 24.2931 4.9176 24.2931 4.75567V4.72158C24.2931 4.30113 24.178 3.97442 23.9479 3.74147C23.7206 3.50851 23.3754 3.39203 22.9124 3.39203C22.4323 3.39203 22.0558 3.49715 21.7831 3.70738C21.5104 3.9176 21.3186 4.14203 21.2078 4.38067L20.2533 4.03976C20.4237 3.64203 20.651 3.33238 20.9351 3.11078C21.222 2.88635 21.5345 2.7301 21.8726 2.64203C22.2135 2.55113 22.5487 2.50567 22.8783 2.50567C23.0885 2.50567 23.33 2.53124 23.6027 2.58237C23.8783 2.63067 24.1439 2.73152 24.3996 2.88493C24.6581 3.03834 24.8726 3.26988 25.0431 3.57953C25.2135 3.88919 25.2987 4.30397 25.2987 4.82385V9.13635H24.2931V8.24999H24.2419C24.1737 8.39203 24.0601 8.54402 23.901 8.70595C23.7419 8.86789 23.5303 9.00567 23.2661 9.11931C23.0019 9.23294 22.6794 9.28976 22.2987 9.28976ZM22.4521 8.38635C22.8499 8.38635 23.1851 8.30823 23.4578 8.15198C23.7334 7.99573 23.9408 7.79402 24.08 7.54686C24.222 7.2997 24.2931 7.03976 24.2931 6.76703V5.84658C24.2504 5.89772 24.1567 5.94459 24.0118 5.9872C23.8698 6.02698 23.705 6.06249 23.5175 6.09374C23.3328 6.12215 23.1524 6.14772 22.9763 6.17044C22.803 6.19033 22.6624 6.20738 22.5544 6.22158C22.2931 6.25567 22.0487 6.31107 21.8215 6.38777C21.597 6.46164 21.4152 6.57385 21.276 6.72442C21.1396 6.87215 21.0715 7.07385 21.0715 7.32953C21.0715 7.67897 21.2007 7.94317 21.4593 8.12215C21.7206 8.29828 22.0516 8.38635 22.4521 8.38635ZM29.9809 2.5909V3.44317H26.5889V2.5909H29.9809ZM27.5775 1.02272H28.5832V7.26135C28.5832 7.54544 28.6244 7.75851 28.7068 7.90056C28.792 8.03976 28.8999 8.13351 29.0306 8.18181C29.1642 8.22726 29.3048 8.24999 29.4525 8.24999C29.5633 8.24999 29.6542 8.24431 29.7252 8.23294C29.7963 8.21874 29.8531 8.20738 29.8957 8.19885L30.1002 9.10226C30.032 9.12783 29.9369 9.1534 29.8147 9.17897C29.6926 9.20738 29.5377 9.22158 29.3502 9.22158C29.0661 9.22158 28.7877 9.1605 28.515 9.03834C28.2451 8.91618 28.0207 8.7301 27.8417 8.4801C27.6656 8.2301 27.5775 7.91476 27.5775 7.53408V1.02272ZM37.7835 2.5909V3.44317H34.2551V2.5909H37.7835ZM35.3119 9.13635V1.68749C35.3119 1.31249 35.3999 0.999988 35.5761 0.749988C35.7522 0.499988 35.9809 0.312488 36.2622 0.187488C36.5434 0.0624883 36.8403 -1.16825e-05 37.1528 -1.16825e-05C37.3999 -1.16825e-05 37.6017 0.0198748 37.7579 0.0596478C37.9142 0.0994203 38.0306 0.136352 38.1073 0.170443L37.8176 1.03976C37.7664 1.02272 37.6954 1.00141 37.6045 0.975841C37.5164 0.950273 37.3999 0.937488 37.2551 0.937488C36.9227 0.937488 36.6826 1.0213 36.5349 1.18891C36.39 1.35652 36.3176 1.60226 36.3176 1.92612V9.13635H35.3119ZM41.5825 9.27272C40.9916 9.27272 40.4731 9.13209 40.0271 8.85084C39.5839 8.56959 39.2373 8.17613 38.9873 7.67044C38.7401 7.16476 38.6166 6.57385 38.6166 5.89772C38.6166 5.2159 38.7401 4.62073 38.9873 4.1122C39.2373 3.60368 39.5839 3.2088 40.0271 2.92755C40.4731 2.6463 40.9916 2.50567 41.5825 2.50567C42.1734 2.50567 42.6904 2.6463 43.1336 2.92755C43.5796 3.2088 43.9262 3.60368 44.1734 4.1122C44.4234 4.62073 44.5484 5.2159 44.5484 5.89772C44.5484 6.57385 44.4234 7.16476 44.1734 7.67044C43.9262 8.17613 43.5796 8.56959 43.1336 8.85084C42.6904 9.13209 42.1734 9.27272 41.5825 9.27272ZM41.5825 8.36931C42.0313 8.36931 42.4007 8.25425 42.6904 8.02414C42.9802 7.79402 43.1947 7.49147 43.3339 7.11647C43.4731 6.74147 43.5427 6.33522 43.5427 5.89772C43.5427 5.46022 43.4731 5.05255 43.3339 4.6747C43.1947 4.29686 42.9802 3.99147 42.6904 3.75851C42.4007 3.52556 42.0313 3.40908 41.5825 3.40908C41.1336 3.40908 40.7643 3.52556 40.4745 3.75851C40.1847 3.99147 39.9703 4.29686 39.8311 4.6747C39.6919 5.05255 39.6222 5.46022 39.6222 5.89772C39.6222 6.33522 39.6919 6.74147 39.8311 7.11647C39.9703 7.49147 40.1847 7.79402 40.4745 8.02414C40.7643 8.25425 41.1336 8.36931 41.5825 8.36931ZM46.0835 9.13635V2.5909H47.0551V3.57953H47.1233C47.2426 3.25567 47.4585 2.99289 47.771 2.79118C48.0835 2.58948 48.4358 2.48862 48.8279 2.48862C48.9017 2.48862 48.9941 2.49005 49.1048 2.49289C49.2156 2.49573 49.2994 2.49999 49.3563 2.50567V3.5284C49.3222 3.51988 49.2441 3.50709 49.1219 3.49005C49.0026 3.47016 48.8762 3.46022 48.7426 3.46022C48.4244 3.46022 48.1404 3.52698 47.8904 3.6605C47.6432 3.79118 47.4472 3.973 47.3023 4.20595C47.1602 4.43607 47.0892 4.69885 47.0892 4.99431V9.13635H46.0835ZM54.0597 9.13635V0.40908H55.0654V3.63067H55.1507C55.2245 3.51703 55.3268 3.37215 55.4575 3.19601C55.591 3.01703 55.7813 2.85794 56.0285 2.71874C56.2785 2.57669 56.6166 2.50567 57.0427 2.50567C57.5938 2.50567 58.0796 2.64345 58.5001 2.91902C58.9205 3.19459 59.2487 3.58522 59.4845 4.0909C59.7203 4.59658 59.8382 5.19317 59.8382 5.88067C59.8382 6.57385 59.7203 7.1747 59.4845 7.68323C59.2487 8.18891 58.922 8.58095 58.5044 8.85936C58.0867 9.13493 57.6052 9.27272 57.0597 9.27272C56.6393 9.27272 56.3026 9.20311 56.0498 9.06391C55.797 8.92186 55.6024 8.76135 55.466 8.58238C55.3296 8.40056 55.2245 8.24999 55.1507 8.13067H55.0313V9.13635H54.0597ZM55.0484 5.86363C55.0484 6.35794 55.1208 6.79402 55.2657 7.17186C55.4106 7.54686 55.6222 7.8409 55.9007 8.05397C56.1791 8.26419 56.52 8.36931 56.9234 8.36931C57.3438 8.36931 57.6947 8.25851 57.9759 8.03692C58.26 7.81249 58.4731 7.51135 58.6151 7.13351C58.76 6.75283 58.8325 6.32953 58.8325 5.86363C58.8325 5.4034 58.7615 4.98863 58.6194 4.61931C58.4802 4.24715 58.2686 3.95311 57.9845 3.7372C57.7032 3.51845 57.3495 3.40908 56.9234 3.40908C56.5143 3.40908 56.1705 3.51277 55.8921 3.72016C55.6137 3.9247 55.4035 4.21164 55.2615 4.58095C55.1194 4.94743 55.0484 5.37499 55.0484 5.86363ZM61.3765 9.13635V2.5909H62.3822V9.13635H61.3765ZM61.8879 1.49999C61.6919 1.49999 61.5228 1.43323 61.3808 1.2997C61.2416 1.16618 61.172 1.00567 61.172 0.818171C61.172 0.630671 61.2416 0.470159 61.3808 0.336636C61.5228 0.203114 61.6919 0.136353 61.8879 0.136353C62.0839 0.136353 62.2515 0.203114 62.3907 0.336636C62.5328 0.470159 62.6038 0.630671 62.6038 0.818171C62.6038 1.00567 62.5328 1.16618 62.3907 1.2997C62.2515 1.43323 62.0839 1.49999 61.8879 1.49999ZM64.2242 9.13635V2.5909H65.1958V3.57953H65.2639C65.3833 3.25567 65.5992 2.99289 65.9117 2.79118C66.2242 2.58948 66.5764 2.48862 66.9685 2.48862C67.0423 2.48862 67.1347 2.49005 67.2455 2.49289C67.3563 2.49573 67.4401 2.49999 67.4969 2.50567V3.5284C67.4628 3.51988 67.3847 3.50709 67.2625 3.49005C67.1432 3.47016 67.0168 3.46022 66.8833 3.46022C66.5651 3.46022 66.281 3.52698 66.031 3.6605C65.7838 3.79118 65.5878 3.973 65.4429 4.20595C65.3009 4.43607 65.2298 4.69885 65.2298 4.99431V9.13635H64.2242ZM69.536 11.5909C69.3655 11.5909 69.2135 11.5767 69.08 11.5483C68.9465 11.5227 68.8541 11.4971 68.803 11.4716L69.0587 10.5852C69.303 10.6477 69.5189 10.6704 69.7064 10.6534C69.8939 10.6364 70.0601 10.5525 70.205 10.402C70.3527 10.2543 70.4877 10.0142 70.6098 9.68181L70.7973 9.17044L68.3769 2.5909H69.4678L71.2746 7.80681H71.3428L73.1496 2.5909H74.2405L71.4621 10.0909C71.3371 10.429 71.1823 10.7088 70.9976 10.9304C70.8129 11.1548 70.5985 11.321 70.3541 11.429C70.1127 11.5369 69.8399 11.5909 69.536 11.5909ZM77.2948 9.28976C76.8801 9.28976 76.5036 9.21164 76.1656 9.05539C75.8275 8.8963 75.559 8.6676 75.3602 8.36931C75.1613 8.06817 75.0619 7.70453 75.0619 7.2784C75.0619 6.9034 75.1357 6.59942 75.2835 6.36647C75.4312 6.13067 75.6286 5.94601 75.8758 5.81249C76.123 5.67897 76.3957 5.57953 76.694 5.51419C76.9951 5.44601 77.2977 5.39203 77.6017 5.35226C77.9994 5.30113 78.3218 5.26277 78.569 5.2372C78.819 5.2088 79.0008 5.16192 79.1144 5.09658C79.2309 5.03124 79.2892 4.9176 79.2892 4.75567V4.72158C79.2892 4.30113 79.1741 3.97442 78.944 3.74147C78.7167 3.50851 78.3715 3.39203 77.9085 3.39203C77.4284 3.39203 77.0519 3.49715 76.7792 3.70738C76.5065 3.9176 76.3147 4.14203 76.2039 4.38067L75.2494 4.03976C75.4198 3.64203 75.6471 3.33238 75.9312 3.11078C76.2181 2.88635 76.5306 2.7301 76.8687 2.64203C77.2096 2.55113 77.5448 2.50567 77.8744 2.50567C78.0846 2.50567 78.3261 2.53124 78.5988 2.58237C78.8744 2.63067 79.14 2.73152 79.3957 2.88493C79.6542 3.03834 79.8687 3.26988 80.0392 3.57953C80.2096 3.88919 80.2948 4.30397 80.2948 4.82385V9.13635H79.2892V8.24999H79.238C79.1698 8.39203 79.0562 8.54402 78.8971 8.70595C78.738 8.86789 78.5264 9.00567 78.2622 9.11931C77.998 9.23294 77.6755 9.28976 77.2948 9.28976ZM77.4482 8.38635C77.846 8.38635 78.1812 8.30823 78.4539 8.15198C78.7295 7.99573 78.9369 7.79402 79.0761 7.54686C79.2181 7.2997 79.2892 7.03976 79.2892 6.76703V5.84658C79.2465 5.89772 79.1528 5.94459 79.0079 5.9872C78.8659 6.02698 78.7011 6.06249 78.5136 6.09374C78.3289 6.12215 78.1485 6.14772 77.9724 6.17044C77.7991 6.19033 77.6585 6.20738 77.5505 6.22158C77.2892 6.25567 77.0448 6.31107 76.8176 6.38777C76.5931 6.46164 76.4113 6.57385 76.2721 6.72442C76.1357 6.87215 76.0676 7.07385 76.0676 7.32953C76.0676 7.67897 76.1968 7.94317 76.4553 8.12215C76.7167 8.29828 77.0477 8.38635 77.4482 8.38635ZM83.1361 5.19885V9.13635H82.1304V2.5909H83.102V3.61363H83.1872C83.3406 3.28124 83.5736 3.01419 83.8861 2.81249C84.1986 2.60794 84.602 2.50567 85.0963 2.50567C85.5395 2.50567 85.9273 2.59658 86.2597 2.7784C86.5921 2.95738 86.8506 3.2301 87.0352 3.59658C87.2199 3.96022 87.3122 4.42044 87.3122 4.97726V9.13635H86.3066V5.04544C86.3066 4.53124 86.173 4.13067 85.906 3.84374C85.6389 3.55397 85.2725 3.40908 84.8066 3.40908C84.4855 3.40908 84.1986 3.47868 83.9458 3.61789C83.6958 3.75709 83.4983 3.96022 83.3534 4.22726C83.2085 4.49431 83.1361 4.81817 83.1361 5.19885ZM89.1499 9.13635V2.5909H90.1556V9.13635H89.1499ZM89.6613 1.49999C89.4653 1.49999 89.2963 1.43323 89.1542 1.2997C89.015 1.16618 88.9454 1.00567 88.9454 0.818171C88.9454 0.630671 89.015 0.470159 89.1542 0.336636C89.2963 0.203114 89.4653 0.136353 89.6613 0.136353C89.8573 0.136353 90.0249 0.203114 90.1642 0.336636C90.3062 0.470159 90.3772 0.630671 90.3772 0.818171C90.3772 1.00567 90.3062 1.16618 90.1642 1.2997C90.0249 1.43323 89.8573 1.49999 89.6613 1.49999ZM96.634 4.05681L95.7306 4.31249C95.6737 4.16192 95.5899 4.01561 95.4791 3.87357C95.3712 3.72868 95.2235 3.60936 95.036 3.51561C94.8485 3.42186 94.6084 3.37499 94.3158 3.37499C93.9152 3.37499 93.5814 3.46732 93.3144 3.65198C93.0502 3.8338 92.9181 4.06533 92.9181 4.34658C92.9181 4.59658 93.009 4.79402 93.1908 4.93891C93.3726 5.0838 93.6567 5.20453 94.0431 5.30113L95.0146 5.53976C95.5999 5.68181 96.036 5.89914 96.3229 6.19175C96.6098 6.48152 96.7533 6.8551 96.7533 7.31249C96.7533 7.68749 96.6453 8.02272 96.4294 8.31817C96.2164 8.61363 95.9181 8.84658 95.5345 9.01703C95.151 9.18749 94.705 9.27272 94.1965 9.27272C93.5289 9.27272 92.9763 9.12783 92.5388 8.83806C92.1013 8.54828 91.8243 8.12499 91.7078 7.56817L92.6624 7.32953C92.7533 7.68181 92.9252 7.94601 93.178 8.12215C93.4337 8.29828 93.7675 8.38635 94.1794 8.38635C94.6482 8.38635 95.0203 8.28692 95.2959 8.08806C95.5743 7.88635 95.7135 7.64488 95.7135 7.36363C95.7135 7.13635 95.634 6.94601 95.4749 6.7926C95.3158 6.63635 95.0715 6.51988 94.7419 6.44317L93.651 6.18749C93.0516 6.04544 92.6112 5.82527 92.33 5.52698C92.0516 5.22584 91.9124 4.84942 91.9124 4.39772C91.9124 4.0284 92.0161 3.70169 92.2235 3.4176C92.4337 3.13351 92.7192 2.9105 93.08 2.74857C93.4436 2.58664 93.8556 2.50567 94.3158 2.50567C94.9635 2.50567 95.472 2.64772 95.8414 2.93181C96.2135 3.2159 96.4777 3.5909 96.634 4.05681ZM99.7671 7.94317L99.699 8.4034C99.6507 8.72726 99.5768 9.07385 99.4774 9.44317C99.3808 9.81249 99.2799 10.1605 99.1748 10.4872C99.0697 10.8139 98.983 11.0739 98.9149 11.267H98.1478C98.1847 11.0852 98.233 10.8452 98.2927 10.5469C98.3524 10.2486 98.412 9.91476 98.4717 9.54544C98.5342 9.17897 98.5853 8.80397 98.6251 8.42044L98.6762 7.94317H99.7671ZM105.005 9.13635V2.5909H105.977V3.57953H106.045C106.165 3.25567 106.38 2.99289 106.693 2.79118C107.005 2.58948 107.358 2.48862 107.75 2.48862C107.824 2.48862 107.916 2.49005 108.027 2.49289C108.138 2.49573 108.221 2.49999 108.278 2.50567V3.5284C108.244 3.51988 108.166 3.50709 108.044 3.49005C107.924 3.47016 107.798 3.46022 107.665 3.46022C107.346 3.46022 107.062 3.52698 106.812 3.6605C106.565 3.79118 106.369 3.973 106.224 4.20595C106.082 4.43607 106.011 4.69885 106.011 4.99431V9.13635H105.005ZM109.47 9.13635V2.5909H110.476V9.13635H109.47ZM109.982 1.49999C109.786 1.49999 109.617 1.43323 109.475 1.2997C109.335 1.16618 109.266 1.00567 109.266 0.818171C109.266 0.630671 109.335 0.470159 109.475 0.336636C109.617 0.203114 109.786 0.136353 109.982 0.136353C110.178 0.136353 110.345 0.203114 110.484 0.336636C110.627 0.470159 110.698 0.630671 110.698 0.818171C110.698 1.00567 110.627 1.16618 110.484 1.2997C110.345 1.43323 110.178 1.49999 109.982 1.49999ZM114.977 9.27272C114.363 9.27272 113.835 9.12783 113.392 8.83806C112.949 8.54828 112.608 8.14914 112.369 7.64061C112.13 7.13209 112.011 6.55113 112.011 5.89772C112.011 5.23294 112.133 4.6463 112.378 4.13777C112.625 3.62641 112.968 3.22726 113.409 2.94033C113.852 2.65056 114.369 2.50567 114.96 2.50567C115.42 2.50567 115.835 2.5909 116.204 2.76135C116.574 2.93181 116.876 3.17044 117.112 3.47726C117.348 3.78408 117.494 4.14203 117.551 4.55113H116.545C116.468 4.25283 116.298 3.98863 116.034 3.75851C115.772 3.52556 115.42 3.40908 114.977 3.40908C114.585 3.40908 114.241 3.51135 113.946 3.7159C113.653 3.9176 113.424 4.20311 113.26 4.57243C113.098 4.93891 113.017 5.36931 113.017 5.86363C113.017 6.36931 113.096 6.80965 113.255 7.18465C113.417 7.55965 113.645 7.85084 113.937 8.05823C114.233 8.26561 114.579 8.36931 114.977 8.36931C115.238 8.36931 115.476 8.32385 115.689 8.23294C115.902 8.14203 116.082 8.01135 116.23 7.8409C116.378 7.67044 116.483 7.4659 116.545 7.22726H117.551C117.494 7.61363 117.353 7.96164 117.129 8.2713C116.907 8.57811 116.613 8.82243 116.247 9.00425C115.883 9.18323 115.46 9.27272 114.977 9.27272ZM121.765 9.27272C121.135 9.27272 120.591 9.13351 120.133 8.8551C119.679 8.57385 119.328 8.18181 119.081 7.67897C118.836 7.17328 118.714 6.58522 118.714 5.91476C118.714 5.24431 118.836 4.6534 119.081 4.14203C119.328 3.62783 119.672 3.22726 120.112 2.94033C120.555 2.65056 121.072 2.50567 121.663 2.50567C122.004 2.50567 122.341 2.56249 122.673 2.67612C123.005 2.78976 123.308 2.97442 123.581 3.2301C123.853 3.48294 124.071 3.81817 124.233 4.23578C124.395 4.6534 124.476 5.1676 124.476 5.7784V6.20453H119.43V5.33522H123.453C123.453 4.9659 123.379 4.63635 123.231 4.34658C123.086 4.05681 122.879 3.82811 122.609 3.6605C122.342 3.49289 122.027 3.40908 121.663 3.40908C121.263 3.40908 120.916 3.50851 120.623 3.70738C120.334 3.9034 120.111 4.15908 119.954 4.47442C119.798 4.78976 119.72 5.12783 119.72 5.48863V6.06817C119.72 6.56249 119.805 6.98152 119.976 7.32527C120.149 7.66618 120.389 7.92613 120.696 8.1051C121.003 8.28124 121.359 8.36931 121.765 8.36931C122.03 8.36931 122.268 8.33238 122.481 8.25851C122.697 8.18181 122.883 8.06817 123.04 7.9176C123.196 7.76419 123.316 7.57385 123.402 7.34658L124.373 7.61931C124.271 7.94885 124.099 8.23863 123.858 8.48863C123.616 8.73578 123.318 8.92897 122.963 9.06817C122.608 9.20453 122.209 9.27272 121.765 9.27272ZM129.517 9.13635V0.40908H130.522V3.63067H130.608C130.682 3.51703 130.784 3.37215 130.915 3.19601C131.048 3.01703 131.238 2.85794 131.486 2.71874C131.736 2.57669 132.074 2.50567 132.5 2.50567C133.051 2.50567 133.537 2.64345 133.957 2.91902C134.378 3.19459 134.706 3.58522 134.941 4.0909C135.177 4.59658 135.295 5.19317 135.295 5.88067C135.295 6.57385 135.177 7.1747 134.941 7.68323C134.706 8.18891 134.379 8.58095 133.961 8.85936C133.544 9.13493 133.062 9.27272 132.517 9.27272C132.096 9.27272 131.76 9.20311 131.507 9.06391C131.254 8.92186 131.059 8.76135 130.923 8.58238C130.787 8.40056 130.682 8.24999 130.608 8.13067H130.488V9.13635H129.517ZM130.505 5.86363C130.505 6.35794 130.578 6.79402 130.723 7.17186C130.868 7.54686 131.079 7.8409 131.358 8.05397C131.636 8.26419 131.977 8.36931 132.38 8.36931C132.801 8.36931 133.152 8.25851 133.433 8.03692C133.717 7.81249 133.93 7.51135 134.072 7.13351C134.217 6.75283 134.29 6.32953 134.29 5.86363C134.29 5.4034 134.218 4.98863 134.076 4.61931C133.937 4.24715 133.726 3.95311 133.441 3.7372C133.16 3.51845 132.807 3.40908 132.38 3.40908C131.971 3.40908 131.628 3.51277 131.349 3.72016C131.071 3.9247 130.861 4.21164 130.718 4.58095C130.576 4.94743 130.505 5.37499 130.505 5.86363ZM139.493 9.27272C138.902 9.27272 138.383 9.13209 137.937 8.85084C137.494 8.56959 137.147 8.17613 136.897 7.67044C136.65 7.16476 136.527 6.57385 136.527 5.89772C136.527 5.2159 136.65 4.62073 136.897 4.1122C137.147 3.60368 137.494 3.2088 137.937 2.92755C138.383 2.6463 138.902 2.50567 139.493 2.50567C140.084 2.50567 140.601 2.6463 141.044 2.92755C141.49 3.2088 141.836 3.60368 142.084 4.1122C142.334 4.62073 142.459 5.2159 142.459 5.89772C142.459 6.57385 142.334 7.16476 142.084 7.67044C141.836 8.17613 141.49 8.56959 141.044 8.85084C140.601 9.13209 140.084 9.27272 139.493 9.27272ZM139.493 8.36931C139.941 8.36931 140.311 8.25425 140.601 8.02414C140.89 7.79402 141.105 7.49147 141.244 7.11647C141.383 6.74147 141.453 6.33522 141.453 5.89772C141.453 5.46022 141.383 5.05255 141.244 4.6747C141.105 4.29686 140.89 3.99147 140.601 3.75851C140.311 3.52556 139.941 3.40908 139.493 3.40908C139.044 3.40908 138.674 3.52556 138.385 3.75851C138.095 3.99147 137.88 4.29686 137.741 4.6747C137.602 5.05255 137.532 5.46022 137.532 5.89772C137.532 6.33522 137.602 6.74147 137.741 7.11647C137.88 7.49147 138.095 7.79402 138.385 8.02414C138.674 8.25425 139.044 8.36931 139.493 8.36931ZM145.254 9.13635L143.26 2.5909H144.316L145.731 7.60226H145.799L147.197 2.5909H148.271L149.652 7.58522H149.72L151.135 2.5909H152.191L150.197 9.13635H149.209L147.777 4.10794H147.674L146.243 9.13635H145.254ZM154.527 0.40908V9.13635H153.521V0.40908H154.527ZM161.005 4.05681L160.102 4.31249C160.045 4.16192 159.961 4.01561 159.85 3.87357C159.742 3.72868 159.595 3.60936 159.407 3.51561C159.22 3.42186 158.979 3.37499 158.687 3.37499C158.286 3.37499 157.953 3.46732 157.685 3.65198C157.421 3.8338 157.289 4.06533 157.289 4.34658C157.289 4.59658 157.38 4.79402 157.562 4.93891C157.744 5.0838 158.028 5.20453 158.414 5.30113L159.386 5.53976C159.971 5.68181 160.407 5.89914 160.694 6.19175C160.981 6.48152 161.124 6.8551 161.124 7.31249C161.124 7.68749 161.016 8.02272 160.801 8.31817C160.587 8.61363 160.289 8.84658 159.906 9.01703C159.522 9.18749 159.076 9.27272 158.568 9.27272C157.9 9.27272 157.347 9.12783 156.91 8.83806C156.472 8.54828 156.195 8.12499 156.079 7.56817L157.033 7.32953C157.124 7.68181 157.296 7.94601 157.549 8.12215C157.805 8.29828 158.139 8.38635 158.551 8.38635C159.019 8.38635 159.391 8.28692 159.667 8.08806C159.945 7.88635 160.085 7.64488 160.085 7.36363C160.085 7.13635 160.005 6.94601 159.846 6.7926C159.687 6.63635 159.443 6.51988 159.113 6.44317L158.022 6.18749C157.423 6.04544 156.982 5.82527 156.701 5.52698C156.423 5.22584 156.283 4.84942 156.283 4.39772C156.283 4.0284 156.387 3.70169 156.595 3.4176C156.805 3.13351 157.09 2.9105 157.451 2.74857C157.815 2.58664 158.227 2.50567 158.687 2.50567C159.335 2.50567 159.843 2.64772 160.212 2.93181C160.585 3.2159 160.849 3.5909 161.005 4.05681ZM164.138 7.94317L164.07 8.4034C164.022 8.72726 163.948 9.07385 163.848 9.44317C163.752 9.81249 163.651 10.1605 163.546 10.4872C163.441 10.8139 163.354 11.0739 163.286 11.267H162.519C162.556 11.0852 162.604 10.8452 162.664 10.5469C162.723 10.2486 162.783 9.91476 162.843 9.54544C162.905 9.17897 162.956 8.80397 162.996 8.42044L163.047 7.94317H164.138ZM169.377 11.5909V2.5909H170.348V3.63067H170.467C170.541 3.51703 170.644 3.37215 170.774 3.19601C170.908 3.01703 171.098 2.85794 171.345 2.71874C171.595 2.57669 171.933 2.50567 172.359 2.50567C172.911 2.50567 173.396 2.64345 173.817 2.91902C174.237 3.19459 174.565 3.58522 174.801 4.0909C175.037 4.59658 175.155 5.19317 175.155 5.88067C175.155 6.57385 175.037 7.1747 174.801 7.68323C174.565 8.18891 174.239 8.58095 173.821 8.85936C173.403 9.13493 172.922 9.27272 172.377 9.27272C171.956 9.27272 171.619 9.20311 171.367 9.06391C171.114 8.92186 170.919 8.76135 170.783 8.58238C170.646 8.40056 170.541 8.24999 170.467 8.13067H170.382V11.5909H169.377ZM170.365 5.86363C170.365 6.35794 170.438 6.79402 170.582 7.17186C170.727 7.54686 170.939 7.8409 171.217 8.05397C171.496 8.26419 171.837 8.36931 172.24 8.36931C172.661 8.36931 173.011 8.25851 173.293 8.03692C173.577 7.81249 173.79 7.51135 173.932 7.13351C174.077 6.75283 174.149 6.32953 174.149 5.86363C174.149 5.4034 174.078 4.98863 173.936 4.61931C173.797 4.24715 173.585 3.95311 173.301 3.7372C173.02 3.51845 172.666 3.40908 172.24 3.40908C171.831 3.40908 171.487 3.51277 171.209 3.72016C170.93 3.9247 170.72 4.21164 170.578 4.58095C170.436 4.94743 170.365 5.37499 170.365 5.86363ZM178.615 9.28976C178.2 9.28976 177.824 9.21164 177.486 9.05539C177.148 8.8963 176.879 8.6676 176.68 8.36931C176.482 8.06817 176.382 7.70453 176.382 7.2784C176.382 6.9034 176.456 6.59942 176.604 6.36647C176.752 6.13067 176.949 5.94601 177.196 5.81249C177.443 5.67897 177.716 5.57953 178.014 5.51419C178.315 5.44601 178.618 5.39203 178.922 5.35226C179.32 5.30113 179.642 5.26277 179.889 5.2372C180.139 5.2088 180.321 5.16192 180.435 5.09658C180.551 5.03124 180.609 4.9176 180.609 4.75567V4.72158C180.609 4.30113 180.494 3.97442 180.264 3.74147C180.037 3.50851 179.692 3.39203 179.229 3.39203C178.749 3.39203 178.372 3.49715 178.1 3.70738C177.827 3.9176 177.635 4.14203 177.524 4.38067L176.57 4.03976C176.74 3.64203 176.967 3.33238 177.252 3.11078C177.538 2.88635 177.851 2.7301 178.189 2.64203C178.53 2.55113 178.865 2.50567 179.195 2.50567C179.405 2.50567 179.646 2.53124 179.919 2.58237C180.195 2.63067 180.46 2.73152 180.716 2.88493C180.975 3.03834 181.189 3.26988 181.359 3.57953C181.53 3.88919 181.615 4.30397 181.615 4.82385V9.13635H180.609V8.24999H180.558C180.49 8.39203 180.377 8.54402 180.217 8.70595C180.058 8.86789 179.847 9.00567 179.582 9.11931C179.318 9.23294 178.996 9.28976 178.615 9.28976ZM178.769 8.38635C179.166 8.38635 179.502 8.30823 179.774 8.15198C180.05 7.99573 180.257 7.79402 180.396 7.54686C180.538 7.2997 180.609 7.03976 180.609 6.76703V5.84658C180.567 5.89772 180.473 5.94459 180.328 5.9872C180.186 6.02698 180.021 6.06249 179.834 6.09374C179.649 6.12215 179.469 6.14772 179.293 6.17044C179.119 6.19033 178.979 6.20738 178.871 6.22158C178.609 6.25567 178.365 6.31107 178.138 6.38777C177.913 6.46164 177.732 6.57385 177.592 6.72442C177.456 6.87215 177.388 7.07385 177.388 7.32953C177.388 7.67897 177.517 7.94317 177.776 8.12215C178.037 8.29828 178.368 8.38635 178.769 8.38635ZM188.087 4.05681L187.184 4.31249C187.127 4.16192 187.043 4.01561 186.932 3.87357C186.824 3.72868 186.677 3.60936 186.489 3.51561C186.302 3.42186 186.062 3.37499 185.769 3.37499C185.368 3.37499 185.035 3.46732 184.767 3.65198C184.503 3.8338 184.371 4.06533 184.371 4.34658C184.371 4.59658 184.462 4.79402 184.644 4.93891C184.826 5.0838 185.11 5.20453 185.496 5.30113L186.468 5.53976C187.053 5.68181 187.489 5.89914 187.776 6.19175C188.063 6.48152 188.206 6.8551 188.206 7.31249C188.206 7.68749 188.098 8.02272 187.883 8.31817C187.669 8.61363 187.371 8.84658 186.988 9.01703C186.604 9.18749 186.158 9.27272 185.65 9.27272C184.982 9.27272 184.429 9.12783 183.992 8.83806C183.554 8.54828 183.277 8.12499 183.161 7.56817L184.116 7.32953C184.206 7.68181 184.378 7.94601 184.631 8.12215C184.887 8.29828 185.221 8.38635 185.633 8.38635C186.101 8.38635 186.473 8.28692 186.749 8.08806C187.027 7.88635 187.167 7.64488 187.167 7.36363C187.167 7.13635 187.087 6.94601 186.928 6.7926C186.769 6.63635 186.525 6.51988 186.195 6.44317L185.104 6.18749C184.505 6.04544 184.064 5.82527 183.783 5.52698C183.505 5.22584 183.366 4.84942 183.366 4.39772C183.366 4.0284 183.469 3.70169 183.677 3.4176C183.887 3.13351 184.172 2.9105 184.533 2.74857C184.897 2.58664 185.309 2.50567 185.769 2.50567C186.417 2.50567 186.925 2.64772 187.294 2.93181C187.667 3.2159 187.931 3.5909 188.087 4.05681ZM192.567 2.5909V3.44317H189.175V2.5909H192.567ZM190.163 1.02272H191.169V7.26135C191.169 7.54544 191.21 7.75851 191.293 7.90056C191.378 8.03976 191.486 8.13351 191.617 8.18181C191.75 8.22726 191.891 8.24999 192.038 8.24999C192.149 8.24999 192.24 8.24431 192.311 8.23294C192.382 8.21874 192.439 8.20738 192.482 8.19885L192.686 9.10226C192.618 9.12783 192.523 9.1534 192.401 9.17897C192.278 9.20738 192.124 9.22158 191.936 9.22158C191.652 9.22158 191.374 9.1605 191.101 9.03834C190.831 8.91618 190.607 8.7301 190.428 8.4801C190.252 8.2301 190.163 7.91476 190.163 7.53408V1.02272ZM196.006 9.28976C195.591 9.28976 195.215 9.21164 194.877 9.05539C194.538 8.8963 194.27 8.6676 194.071 8.36931C193.872 8.06817 193.773 7.70453 193.773 7.2784C193.773 6.9034 193.847 6.59942 193.994 6.36647C194.142 6.13067 194.34 5.94601 194.587 5.81249C194.834 5.67897 195.107 5.57953 195.405 5.51419C195.706 5.44601 196.009 5.39203 196.313 5.35226C196.71 5.30113 197.033 5.26277 197.28 5.2372C197.53 5.2088 197.712 5.16192 197.825 5.09658C197.942 5.03124 198 4.9176 198 4.75567V4.72158C198 4.30113 197.885 3.97442 197.655 3.74147C197.428 3.50851 197.082 3.39203 196.619 3.39203C196.139 3.39203 195.763 3.49715 195.49 3.70738C195.217 3.9176 195.026 4.14203 194.915 4.38067L193.96 4.03976C194.131 3.64203 194.358 3.33238 194.642 3.11078C194.929 2.88635 195.242 2.7301 195.58 2.64203C195.921 2.55113 196.256 2.50567 196.585 2.50567C196.796 2.50567 197.037 2.53124 197.31 2.58237C197.585 2.63067 197.851 2.73152 198.107 2.88493C198.365 3.03834 198.58 3.26988 198.75 3.57953C198.921 3.88919 199.006 4.30397 199.006 4.82385V9.13635H198V8.24999H197.949C197.881 8.39203 197.767 8.54402 197.608 8.70595C197.449 8.86789 197.237 9.00567 196.973 9.11931C196.709 9.23294 196.386 9.28976 196.006 9.28976ZM196.159 8.38635C196.557 8.38635 196.892 8.30823 197.165 8.15198C197.44 7.99573 197.648 7.79402 197.787 7.54686C197.929 7.2997 198 7.03976 198 6.76703V5.84658C197.957 5.89772 197.864 5.94459 197.719 5.9872C197.577 6.02698 197.412 6.06249 197.225 6.09374C197.04 6.12215 196.859 6.14772 196.683 6.17044C196.51 6.19033 196.369 6.20738 196.261 6.22158C196 6.25567 195.756 6.31107 195.528 6.38777C195.304 6.46164 195.122 6.57385 194.983 6.72442C194.847 6.87215 194.778 7.07385 194.778 7.32953C194.778 7.67897 194.908 7.94317 195.166 8.12215C195.428 8.29828 195.759 8.38635 196.159 8.38635ZM202.341 7.94317L202.273 8.4034C202.225 8.72726 202.151 9.07385 202.052 9.44317C201.955 9.81249 201.854 10.1605 201.749 10.4872C201.644 10.8139 201.557 11.0739 201.489 11.267H200.722C200.759 11.0852 200.807 10.8452 200.867 10.5469C200.927 10.2486 200.986 9.91476 201.046 9.54544C201.108 9.17897 201.16 8.80397 201.199 8.42044L201.25 7.94317H202.341ZM209.506 9.28976C209.091 9.28976 208.715 9.21164 208.377 9.05539C208.038 8.8963 207.77 8.6676 207.571 8.36931C207.372 8.06817 207.273 7.70453 207.273 7.2784C207.273 6.9034 207.347 6.59942 207.494 6.36647C207.642 6.13067 207.84 5.94601 208.087 5.81249C208.334 5.67897 208.607 5.57953 208.905 5.51419C209.206 5.44601 209.509 5.39203 209.813 5.35226C210.21 5.30113 210.533 5.26277 210.78 5.2372C211.03 5.2088 211.212 5.16192 211.325 5.09658C211.442 5.03124 211.5 4.9176 211.5 4.75567V4.72158C211.5 4.30113 211.385 3.97442 211.155 3.74147C210.928 3.50851 210.582 3.39203 210.119 3.39203C209.639 3.39203 209.263 3.49715 208.99 3.70738C208.717 3.9176 208.526 4.14203 208.415 4.38067L207.46 4.03976C207.631 3.64203 207.858 3.33238 208.142 3.11078C208.429 2.88635 208.742 2.7301 209.08 2.64203C209.421 2.55113 209.756 2.50567 210.085 2.50567C210.296 2.50567 210.537 2.53124 210.81 2.58237C211.085 2.63067 211.351 2.73152 211.607 2.88493C211.865 3.03834 212.08 3.26988 212.25 3.57953C212.421 3.88919 212.506 4.30397 212.506 4.82385V9.13635H211.5V8.24999H211.449C211.381 8.39203 211.267 8.54402 211.108 8.70595C210.949 8.86789 210.737 9.00567 210.473 9.11931C210.209 9.23294 209.886 9.28976 209.506 9.28976ZM209.659 8.38635C210.057 8.38635 210.392 8.30823 210.665 8.15198C210.94 7.99573 211.148 7.79402 211.287 7.54686C211.429 7.2997 211.5 7.03976 211.5 6.76703V5.84658C211.457 5.89772 211.364 5.94459 211.219 5.9872C211.077 6.02698 210.912 6.06249 210.725 6.09374C210.54 6.12215 210.359 6.14772 210.183 6.17044C210.01 6.19033 209.869 6.20738 209.761 6.22158C209.5 6.25567 209.256 6.31107 209.028 6.38777C208.804 6.46164 208.622 6.57385 208.483 6.72442C208.347 6.87215 208.278 7.07385 208.278 7.32953C208.278 7.67897 208.408 7.94317 208.666 8.12215C208.928 8.29828 209.259 8.38635 209.659 8.38635ZM215.347 5.19885V9.13635H214.341V2.5909H215.313V3.61363H215.398C215.552 3.28124 215.785 3.01419 216.097 2.81249C216.41 2.60794 216.813 2.50567 217.307 2.50567C217.75 2.50567 218.138 2.59658 218.471 2.7784C218.803 2.95738 219.062 3.2301 219.246 3.59658C219.431 3.96022 219.523 4.42044 219.523 4.97726V9.13635H218.517V5.04544C218.517 4.53124 218.384 4.13067 218.117 3.84374C217.85 3.55397 217.483 3.40908 217.017 3.40908C216.696 3.40908 216.41 3.47868 216.157 3.61789C215.907 3.75709 215.709 3.96022 215.564 4.22726C215.419 4.49431 215.347 4.81817 215.347 5.19885ZM223.832 9.27272C223.287 9.27272 222.805 9.13493 222.388 8.85936C221.97 8.58095 221.644 8.18891 221.408 7.68323C221.172 7.1747 221.054 6.57385 221.054 5.88067C221.054 5.19317 221.172 4.59658 221.408 4.0909C221.644 3.58522 221.972 3.19459 222.392 2.91902C222.813 2.64345 223.298 2.50567 223.85 2.50567C224.276 2.50567 224.612 2.57669 224.859 2.71874C225.109 2.85794 225.3 3.01703 225.43 3.19601C225.564 3.37215 225.668 3.51703 225.742 3.63067H225.827V0.40908H226.832V9.13635H225.861V8.13067H225.742C225.668 8.24999 225.563 8.40056 225.426 8.58238C225.29 8.76135 225.095 8.92186 224.842 9.06391C224.59 9.20311 224.253 9.27272 223.832 9.27272ZM223.969 8.36931C224.372 8.36931 224.713 8.26419 224.992 8.05397C225.27 7.8409 225.482 7.54686 225.627 7.17186C225.771 6.79402 225.844 6.35794 225.844 5.86363C225.844 5.37499 225.773 4.94743 225.631 4.58095C225.489 4.21164 225.278 3.9247 225 3.72016C224.722 3.51277 224.378 3.40908 223.969 3.40908C223.543 3.40908 223.188 3.51845 222.903 3.7372C222.622 3.95311 222.411 4.24715 222.269 4.61931C222.129 4.98863 222.06 5.4034 222.06 5.86363C222.06 6.32953 222.131 6.75283 222.273 7.13351C222.418 7.51135 222.631 7.81249 222.912 8.03692C223.196 8.25851 223.548 8.36931 223.969 8.36931ZM233.195 0.40908V9.13635H232.189V0.40908H233.195ZM236.963 9.28976C236.548 9.28976 236.172 9.21164 235.834 9.05539C235.495 8.8963 235.227 8.6676 235.028 8.36931C234.829 8.06817 234.73 7.70453 234.73 7.2784C234.73 6.9034 234.804 6.59942 234.951 6.36647C235.099 6.13067 235.297 5.94601 235.544 5.81249C235.791 5.67897 236.064 5.57953 236.362 5.51419C236.663 5.44601 236.966 5.39203 237.27 5.35226C237.667 5.30113 237.99 5.26277 238.237 5.2372C238.487 5.2088 238.669 5.16192 238.782 5.09658C238.899 5.03124 238.957 4.9176 238.957 4.75567V4.72158C238.957 4.30113 238.842 3.97442 238.612 3.74147C238.385 3.50851 238.04 3.39203 237.576 3.39203C237.096 3.39203 236.72 3.49715 236.447 3.70738C236.174 3.9176 235.983 4.14203 235.872 4.38067L234.917 4.03976C235.088 3.64203 235.315 3.33238 235.599 3.11078C235.886 2.88635 236.199 2.7301 236.537 2.64203C236.878 2.55113 237.213 2.50567 237.542 2.50567C237.753 2.50567 237.994 2.53124 238.267 2.58237C238.542 2.63067 238.808 2.73152 239.064 2.88493C239.322 3.03834 239.537 3.26988 239.707 3.57953C239.878 3.88919 239.963 4.30397 239.963 4.82385V9.13635H238.957V8.24999H238.906C238.838 8.39203 238.724 8.54402 238.565 8.70595C238.406 8.86789 238.194 9.00567 237.93 9.11931C237.666 9.23294 237.343 9.28976 236.963 9.28976ZM237.116 8.38635C237.514 8.38635 237.849 8.30823 238.122 8.15198C238.397 7.99573 238.605 7.79402 238.744 7.54686C238.886 7.2997 238.957 7.03976 238.957 6.76703V5.84658C238.915 5.89772 238.821 5.94459 238.676 5.9872C238.534 6.02698 238.369 6.06249 238.182 6.09374C237.997 6.12215 237.816 6.14772 237.64 6.17044C237.467 6.19033 237.326 6.20738 237.218 6.22158C236.957 6.25567 236.713 6.31107 236.486 6.38777C236.261 6.46164 236.079 6.57385 235.94 6.72442C235.804 6.87215 235.736 7.07385 235.736 7.32953C235.736 7.67897 235.865 7.94317 236.123 8.12215C236.385 8.29828 236.716 8.38635 237.116 8.38635ZM241.798 9.13635V2.5909H242.77V3.57953H242.838C242.957 3.25567 243.173 2.99289 243.486 2.79118C243.798 2.58948 244.151 2.48862 244.543 2.48862C244.617 2.48862 244.709 2.49005 244.82 2.49289C244.93 2.49573 245.014 2.49999 245.071 2.50567V3.5284C245.037 3.51988 244.959 3.50709 244.837 3.49005C244.717 3.47016 244.591 3.46022 244.457 3.46022C244.139 3.46022 243.855 3.52698 243.605 3.6605C243.358 3.79118 243.162 3.973 243.017 4.20595C242.875 4.43607 242.804 4.69885 242.804 4.99431V9.13635H241.798ZM248.706 11.7273C248.22 11.7273 247.803 11.6648 247.453 11.5398C247.104 11.4176 246.813 11.2557 246.58 11.054C246.35 10.8551 246.166 10.642 246.03 10.4148L246.831 9.85226C246.922 9.97158 247.037 10.1079 247.176 10.2614C247.315 10.4176 247.506 10.5525 247.747 10.6662C247.992 10.7827 248.311 10.8409 248.706 10.8409C249.234 10.8409 249.671 10.7131 250.014 10.4574C250.358 10.2017 250.53 9.80113 250.53 9.25567V7.92613H250.445C250.371 8.04544 250.266 8.19317 250.129 8.36931C249.996 8.5426 249.803 8.69743 249.55 8.8338C249.3 8.96732 248.962 9.03408 248.536 9.03408C248.007 9.03408 247.533 8.90908 247.112 8.65908C246.695 8.40908 246.364 8.04544 246.119 7.56817C245.878 7.0909 245.757 6.51135 245.757 5.82953C245.757 5.15908 245.875 4.57527 246.111 4.07811C246.347 3.57811 246.675 3.19175 247.095 2.91902C247.516 2.64345 248.002 2.50567 248.553 2.50567C248.979 2.50567 249.317 2.57669 249.567 2.71874C249.82 2.85794 250.013 3.01703 250.146 3.19601C250.283 3.37215 250.388 3.51703 250.462 3.63067H250.564V2.5909H251.536V9.32385C251.536 9.88635 251.408 10.3437 251.152 10.696C250.899 11.0511 250.558 11.3111 250.129 11.4758C249.703 11.6435 249.229 11.7273 248.706 11.7273ZM248.672 8.13067C249.075 8.13067 249.416 8.03834 249.695 7.85368C249.973 7.66902 250.185 7.4034 250.33 7.05681C250.475 6.71022 250.547 6.29544 250.547 5.81249C250.547 5.3409 250.476 4.9247 250.334 4.56391C250.192 4.20311 249.982 3.92044 249.703 3.7159C249.425 3.51135 249.081 3.40908 248.672 3.40908C248.246 3.40908 247.891 3.51703 247.607 3.73294C247.325 3.94885 247.114 4.23863 246.972 4.60226C246.832 4.9659 246.763 5.36931 246.763 5.81249C246.763 6.26703 246.834 6.66902 246.976 7.01845C247.121 7.36505 247.334 7.63777 247.615 7.83664C247.899 8.03266 248.252 8.13067 248.672 8.13067ZM256.121 9.27272C255.49 9.27272 254.946 9.13351 254.489 8.8551C254.034 8.57385 253.683 8.18181 253.436 7.67897C253.192 7.17328 253.07 6.58522 253.07 5.91476C253.07 5.24431 253.192 4.6534 253.436 4.14203C253.683 3.62783 254.027 3.22726 254.467 2.94033C254.911 2.65056 255.428 2.50567 256.019 2.50567C256.359 2.50567 256.696 2.56249 257.028 2.67612C257.361 2.78976 257.663 2.97442 257.936 3.2301C258.209 3.48294 258.426 3.81817 258.588 4.23578C258.75 4.6534 258.831 5.1676 258.831 5.7784V6.20453H253.786V5.33522H257.808C257.808 4.9659 257.734 4.63635 257.587 4.34658C257.442 4.05681 257.234 3.82811 256.965 3.6605C256.698 3.49289 256.382 3.40908 256.019 3.40908C255.618 3.40908 255.271 3.50851 254.979 3.70738C254.689 3.9034 254.466 4.15908 254.31 4.47442C254.153 4.78976 254.075 5.12783 254.075 5.48863V6.06817C254.075 6.56249 254.161 6.98152 254.331 7.32527C254.504 7.66618 254.744 7.92613 255.051 8.1051C255.358 8.28124 255.715 8.36931 256.121 8.36931C256.385 8.36931 256.624 8.33238 256.837 8.25851C257.053 8.18181 257.239 8.06817 257.395 7.9176C257.551 7.76419 257.672 7.57385 257.757 7.34658L258.729 7.61931C258.627 7.94885 258.455 8.23863 258.213 8.48863C257.972 8.73578 257.673 8.92897 257.318 9.06817C256.963 9.20453 256.564 9.27272 256.121 9.27272ZM260.361 9.13635V2.5909H261.332V3.57953H261.401C261.52 3.25567 261.736 2.99289 262.048 2.79118C262.361 2.58948 262.713 2.48862 263.105 2.48862C263.179 2.48862 263.271 2.49005 263.382 2.49289C263.493 2.49573 263.577 2.49999 263.634 2.50567V3.5284C263.6 3.51988 263.521 3.50709 263.399 3.49005C263.28 3.47016 263.153 3.46022 263.02 3.46022C262.702 3.46022 262.418 3.52698 262.168 3.6605C261.921 3.79118 261.725 3.973 261.58 4.20595C261.438 4.43607 261.367 4.69885 261.367 4.99431V9.13635H260.361ZM270.86 9.27272C270.246 9.27272 269.718 9.12783 269.275 8.83806C268.831 8.54828 268.491 8.14914 268.252 7.64061C268.013 7.13209 267.894 6.55113 267.894 5.89772C267.894 5.23294 268.016 4.6463 268.26 4.13777C268.508 3.62641 268.851 3.22726 269.292 2.94033C269.735 2.65056 270.252 2.50567 270.843 2.50567C271.303 2.50567 271.718 2.5909 272.087 2.76135C272.456 2.93181 272.759 3.17044 272.995 3.47726C273.231 3.78408 273.377 4.14203 273.434 4.55113H272.428C272.351 4.25283 272.181 3.98863 271.917 3.75851C271.655 3.52556 271.303 3.40908 270.86 3.40908C270.468 3.40908 270.124 3.51135 269.829 3.7159C269.536 3.9176 269.307 4.20311 269.142 4.57243C268.981 4.93891 268.9 5.36931 268.9 5.86363C268.9 6.36931 268.979 6.80965 269.138 7.18465C269.3 7.55965 269.527 7.85084 269.82 8.05823C270.116 8.26561 270.462 8.36931 270.86 8.36931C271.121 8.36931 271.358 8.32385 271.571 8.23294C271.785 8.14203 271.965 8.01135 272.113 7.8409C272.26 7.67044 272.366 7.4659 272.428 7.22726H273.434C273.377 7.61363 273.236 7.96164 273.012 8.2713C272.79 8.57811 272.496 8.82243 272.13 9.00425C271.766 9.18323 271.343 9.27272 270.86 9.27272ZM279.029 6.46022V2.5909H280.035V9.13635H279.029V8.0284H278.961C278.807 8.36078 278.569 8.64345 278.245 8.87641C277.921 9.10652 277.512 9.22158 277.017 9.22158C276.608 9.22158 276.245 9.13209 275.927 8.95311C275.608 8.7713 275.358 8.49857 275.177 8.13493C274.995 7.76845 274.904 7.30681 274.904 6.74999V2.5909H275.91V6.68181C275.91 7.15908 276.043 7.53976 276.31 7.82385C276.58 8.10794 276.924 8.24999 277.341 8.24999C277.591 8.24999 277.846 8.18607 278.104 8.05823C278.366 7.93039 278.584 7.73436 278.76 7.47016C278.939 7.20595 279.029 6.86931 279.029 6.46022ZM281.877 9.13635V2.5909H282.848V3.57953H282.916C283.036 3.25567 283.252 2.99289 283.564 2.79118C283.877 2.58948 284.229 2.48862 284.621 2.48862C284.695 2.48862 284.787 2.49005 284.898 2.49289C285.009 2.49573 285.092 2.49999 285.149 2.50567V3.5284C285.115 3.51988 285.037 3.50709 284.915 3.49005C284.796 3.47016 284.669 3.46022 284.536 3.46022C284.217 3.46022 283.933 3.52698 283.683 3.6605C283.436 3.79118 283.24 3.973 283.095 4.20595C282.953 4.43607 282.882 4.69885 282.882 4.99431V9.13635H281.877ZM286.341 9.13635V2.5909H287.313V3.57953H287.381C287.5 3.25567 287.716 2.99289 288.029 2.79118C288.341 2.58948 288.694 2.48862 289.086 2.48862C289.16 2.48862 289.252 2.49005 289.363 2.49289C289.473 2.49573 289.557 2.49999 289.614 2.50567V3.5284C289.58 3.51988 289.502 3.50709 289.38 3.49005C289.26 3.47016 289.134 3.46022 289 3.46022C288.682 3.46022 288.398 3.52698 288.148 3.6605C287.901 3.79118 287.705 3.973 287.56 4.20595C287.418 4.43607 287.347 4.69885 287.347 4.99431V9.13635H286.341ZM291.653 11.5909C291.483 11.5909 291.331 11.5767 291.197 11.5483C291.064 11.5227 290.971 11.4971 290.92 11.4716L291.176 10.5852C291.42 10.6477 291.636 10.6704 291.824 10.6534C292.011 10.6364 292.177 10.5525 292.322 10.402C292.47 10.2543 292.605 10.0142 292.727 9.68181L292.915 9.17044L290.494 2.5909H291.585L293.392 7.80681H293.46L295.267 2.5909H296.358L293.579 10.0909C293.454 10.429 293.299 10.7088 293.115 10.9304C292.93 11.1548 292.716 11.321 292.471 11.429C292.23 11.5369 291.957 11.5909 291.653 11.5909ZM301.06 11.5909V2.5909H302.032V3.63067H302.151C302.225 3.51703 302.327 3.37215 302.458 3.19601C302.591 3.01703 302.782 2.85794 303.029 2.71874C303.279 2.57669 303.617 2.50567 304.043 2.50567C304.594 2.50567 305.08 2.64345 305.5 2.91902C305.921 3.19459 306.249 3.58522 306.485 4.0909C306.721 4.59658 306.839 5.19317 306.839 5.88067C306.839 6.57385 306.721 7.1747 306.485 7.68323C306.249 8.18891 305.922 8.58095 305.505 8.85936C305.087 9.13493 304.606 9.27272 304.06 9.27272C303.64 9.27272 303.303 9.20311 303.05 9.06391C302.797 8.92186 302.603 8.76135 302.466 8.58238C302.33 8.40056 302.225 8.24999 302.151 8.13067H302.066V11.5909H301.06ZM302.049 5.86363C302.049 6.35794 302.121 6.79402 302.266 7.17186C302.411 7.54686 302.623 7.8409 302.901 8.05397C303.179 8.26419 303.52 8.36931 303.924 8.36931C304.344 8.36931 304.695 8.25851 304.976 8.03692C305.26 7.81249 305.473 7.51135 305.616 7.13351C305.76 6.75283 305.833 6.32953 305.833 5.86363C305.833 5.4034 305.762 4.98863 305.62 4.61931C305.481 4.24715 305.269 3.95311 304.985 3.7372C304.704 3.51845 304.35 3.40908 303.924 3.40908C303.515 3.40908 303.171 3.51277 302.892 3.72016C302.614 3.9247 302.404 4.21164 302.262 4.58095C302.12 4.94743 302.049 5.37499 302.049 5.86363ZM311.032 9.27272C310.441 9.27272 309.922 9.13209 309.476 8.85084C309.033 8.56959 308.687 8.17613 308.437 7.67044C308.189 7.16476 308.066 6.57385 308.066 5.89772C308.066 5.2159 308.189 4.62073 308.437 4.1122C308.687 3.60368 309.033 3.2088 309.476 2.92755C309.922 2.6463 310.441 2.50567 311.032 2.50567C311.623 2.50567 312.14 2.6463 312.583 2.92755C313.029 3.2088 313.375 3.60368 313.623 4.1122C313.873 4.62073 313.998 5.2159 313.998 5.89772C313.998 6.57385 313.873 7.16476 313.623 7.67044C313.375 8.17613 313.029 8.56959 312.583 8.85084C312.14 9.13209 311.623 9.27272 311.032 9.27272ZM311.032 8.36931C311.481 8.36931 311.85 8.25425 312.14 8.02414C312.429 7.79402 312.644 7.49147 312.783 7.11647C312.922 6.74147 312.992 6.33522 312.992 5.89772C312.992 5.46022 312.922 5.05255 312.783 4.6747C312.644 4.29686 312.429 3.99147 312.14 3.75851C311.85 3.52556 311.481 3.40908 311.032 3.40908C310.583 3.40908 310.214 3.52556 309.924 3.75851C309.634 3.99147 309.419 4.29686 309.28 4.6747C309.141 5.05255 309.071 5.46022 309.071 5.89772C309.071 6.33522 309.141 6.74147 309.28 7.11647C309.419 7.49147 309.634 7.79402 309.924 8.02414C310.214 8.25425 310.583 8.36931 311.032 8.36931ZM315.533 9.13635V2.5909H316.504V3.57953H316.573C316.692 3.25567 316.908 2.99289 317.22 2.79118C317.533 2.58948 317.885 2.48862 318.277 2.48862C318.351 2.48862 318.443 2.49005 318.554 2.49289C318.665 2.49573 318.749 2.49999 318.805 2.50567V3.5284C318.771 3.51988 318.693 3.50709 318.571 3.49005C318.452 3.47016 318.325 3.46022 318.192 3.46022C317.874 3.46022 317.59 3.52698 317.34 3.6605C317.092 3.79118 316.896 3.973 316.752 4.20595C316.609 4.43607 316.538 4.69885 316.538 4.99431V9.13635H315.533ZM323.254 2.5909V3.44317H319.862V2.5909H323.254ZM320.851 1.02272H321.857V7.26135C321.857 7.54544 321.898 7.75851 321.98 7.90056C322.065 8.03976 322.173 8.13351 322.304 8.18181C322.438 8.22726 322.578 8.24999 322.726 8.24999C322.837 8.24999 322.928 8.24431 322.999 8.23294C323.07 8.21874 323.127 8.20738 323.169 8.19885L323.374 9.10226C323.305 9.12783 323.21 9.1534 323.088 9.17897C322.966 9.20738 322.811 9.22158 322.624 9.22158C322.34 9.22158 322.061 9.1605 321.788 9.03834C321.519 8.91618 321.294 8.7301 321.115 8.4801C320.939 8.2301 320.851 7.91476 320.851 7.53408V1.02272ZM324.767 9.13635V2.5909H325.773V9.13635H324.767ZM325.278 1.49999C325.082 1.49999 324.913 1.43323 324.771 1.2997C324.632 1.16618 324.563 1.00567 324.563 0.818171C324.563 0.630671 324.632 0.470159 324.771 0.336636C324.913 0.203114 325.082 0.136353 325.278 0.136353C325.475 0.136353 325.642 0.203114 325.781 0.336636C325.923 0.470159 325.994 0.630671 325.994 0.818171C325.994 1.00567 325.923 1.16618 325.781 1.2997C325.642 1.43323 325.475 1.49999 325.278 1.49999ZM330.274 9.27272C329.683 9.27272 329.165 9.13209 328.718 8.85084C328.275 8.56959 327.929 8.17613 327.679 7.67044C327.432 7.16476 327.308 6.57385 327.308 5.89772C327.308 5.2159 327.432 4.62073 327.679 4.1122C327.929 3.60368 328.275 3.2088 328.718 2.92755C329.165 2.6463 329.683 2.50567 330.274 2.50567C330.865 2.50567 331.382 2.6463 331.825 2.92755C332.271 3.2088 332.618 3.60368 332.865 4.1122C333.115 4.62073 333.24 5.2159 333.24 5.89772C333.24 6.57385 333.115 7.16476 332.865 7.67044C332.618 8.17613 332.271 8.56959 331.825 8.85084C331.382 9.13209 330.865 9.27272 330.274 9.27272ZM330.274 8.36931C330.723 8.36931 331.092 8.25425 331.382 8.02414C331.672 7.79402 331.886 7.49147 332.025 7.11647C332.165 6.74147 332.234 6.33522 332.234 5.89772C332.234 5.46022 332.165 5.05255 332.025 4.6747C331.886 4.29686 331.672 3.99147 331.382 3.75851C331.092 3.52556 330.723 3.40908 330.274 3.40908C329.825 3.40908 329.456 3.52556 329.166 3.75851C328.876 3.99147 328.662 4.29686 328.522 4.6747C328.383 5.05255 328.314 5.46022 328.314 5.89772C328.314 6.33522 328.383 6.74147 328.522 7.11647C328.662 7.49147 328.876 7.79402 329.166 8.02414C329.456 8.25425 329.825 8.36931 330.274 8.36931ZM335.781 5.19885V9.13635H334.775V2.5909H335.747V3.61363H335.832C335.985 3.28124 336.218 3.01419 336.531 2.81249C336.843 2.60794 337.247 2.50567 337.741 2.50567C338.184 2.50567 338.572 2.59658 338.904 2.7784C339.237 2.95738 339.495 3.2301 339.68 3.59658C339.864 3.96022 339.957 4.42044 339.957 4.97726V9.13635H338.951V5.04544C338.951 4.53124 338.818 4.13067 338.551 3.84374C338.283 3.55397 337.917 3.40908 337.451 3.40908C337.13 3.40908 336.843 3.47868 336.59 3.61789C336.34 3.75709 336.143 3.96022 335.998 4.22726C335.853 4.49431 335.781 4.81817 335.781 5.19885ZM346.431 4.05681L345.527 4.31249C345.471 4.16192 345.387 4.01561 345.276 3.87357C345.168 3.72868 345.02 3.60936 344.833 3.51561C344.645 3.42186 344.405 3.37499 344.113 3.37499C343.712 3.37499 343.378 3.46732 343.111 3.65198C342.847 3.8338 342.715 4.06533 342.715 4.34658C342.715 4.59658 342.806 4.79402 342.988 4.93891C343.169 5.0838 343.454 5.20453 343.84 5.30113L344.812 5.53976C345.397 5.68181 345.833 5.89914 346.12 6.19175C346.407 6.48152 346.55 6.8551 346.55 7.31249C346.55 7.68749 346.442 8.02272 346.226 8.31817C346.013 8.61363 345.715 8.84658 345.331 9.01703C344.948 9.18749 344.502 9.27272 343.993 9.27272C343.326 9.27272 342.773 9.12783 342.336 8.83806C341.898 8.54828 341.621 8.12499 341.505 7.56817L342.459 7.32953C342.55 7.68181 342.722 7.94601 342.975 8.12215C343.231 8.29828 343.564 8.38635 343.976 8.38635C344.445 8.38635 344.817 8.28692 345.093 8.08806C345.371 7.88635 345.51 7.64488 345.51 7.36363C345.51 7.13635 345.431 6.94601 345.272 6.7926C345.113 6.63635 344.868 6.51988 344.539 6.44317L343.448 6.18749C342.848 6.04544 342.408 5.82527 342.127 5.52698C341.848 5.22584 341.709 4.84942 341.709 4.39772C341.709 4.0284 341.813 3.70169 342.02 3.4176C342.231 3.13351 342.516 2.9105 342.877 2.74857C343.241 2.58664 343.652 2.50567 344.113 2.50567C344.76 2.50567 345.269 2.64772 345.638 2.93181C346.01 3.2159 346.275 3.5909 346.431 4.05681ZM348.797 9.20453C348.587 9.20453 348.406 9.12925 348.256 8.97868C348.105 8.82811 348.03 8.64772 348.03 8.43749C348.03 8.22726 348.105 8.04686 348.256 7.8963C348.406 7.74573 348.587 7.67044 348.797 7.67044C349.007 7.67044 349.188 7.74573 349.338 7.8963C349.489 8.04686 349.564 8.22726 349.564 8.43749C349.564 8.57669 349.528 8.70453 349.457 8.82101C349.389 8.93749 349.297 9.03124 349.18 9.10226C349.067 9.17044 348.939 9.20453 348.797 9.20453ZM359.653 2.5909C359.602 2.15908 359.394 1.82385 359.031 1.58522C358.667 1.34658 358.221 1.22726 357.693 1.22726C357.306 1.22726 356.968 1.28976 356.678 1.41476C356.391 1.53976 356.167 1.71164 356.005 1.93039C355.846 2.14914 355.766 2.39772 355.766 2.67612C355.766 2.90908 355.822 3.10936 355.933 3.27698C356.046 3.44175 356.191 3.57953 356.367 3.69033C356.543 3.79828 356.728 3.88777 356.921 3.9588C357.114 4.02698 357.292 4.08238 357.454 4.12499L358.34 4.36363C358.568 4.42328 358.82 4.50567 359.099 4.61078C359.38 4.7159 359.649 4.85936 359.904 5.04118C360.163 5.22016 360.376 5.45027 360.543 5.73152C360.711 6.01277 360.795 6.35794 360.795 6.76703C360.795 7.23863 360.671 7.66476 360.424 8.04544C360.18 8.42613 359.822 8.72868 359.35 8.95311C358.881 9.17755 358.312 9.28976 357.641 9.28976C357.016 9.28976 356.475 9.18891 356.018 8.9872C355.563 8.7855 355.205 8.50425 354.944 8.14345C354.685 7.78266 354.539 7.36363 354.505 6.88635H355.596C355.624 7.2159 355.735 7.48863 355.928 7.70453C356.124 7.9176 356.372 8.07669 356.67 8.18181C356.971 8.28408 357.295 8.33522 357.641 8.33522C358.045 8.33522 358.407 8.26988 358.728 8.13919C359.049 8.00567 359.303 7.82101 359.491 7.58522C359.678 7.34658 359.772 7.06817 359.772 6.74999C359.772 6.46022 359.691 6.22442 359.529 6.0426C359.367 5.86078 359.154 5.71306 358.89 5.59942C358.626 5.48578 358.34 5.38635 358.033 5.30113L356.96 4.99431C356.278 4.79828 355.738 4.51845 355.34 4.15482C354.943 3.79118 354.744 3.31533 354.744 2.72726C354.744 2.23862 354.876 1.81249 355.14 1.44885C355.407 1.08238 355.765 0.798284 356.214 0.59658C356.666 0.392034 357.17 0.289761 357.727 0.289761C358.289 0.289761 358.789 0.390614 359.227 0.592318C359.664 0.791182 360.011 1.06391 360.266 1.4105C360.525 1.75709 360.661 2.15056 360.676 2.5909H359.653ZM365.243 2.5909V3.44317H361.851V2.5909H365.243ZM362.839 1.02272H363.845V7.26135C363.845 7.54544 363.886 7.75851 363.968 7.90056C364.054 8.03976 364.162 8.13351 364.292 8.18181C364.426 8.22726 364.566 8.24999 364.714 8.24999C364.825 8.24999 364.916 8.24431 364.987 8.23294C365.058 8.21874 365.115 8.20738 365.157 8.19885L365.362 9.10226C365.294 9.12783 365.199 9.1534 365.076 9.17897C364.954 9.20738 364.799 9.22158 364.612 9.22158C364.328 9.22158 364.049 9.1605 363.777 9.03834C363.507 8.91618 363.282 8.7301 363.103 8.4801C362.927 8.2301 362.839 7.91476 362.839 7.53408V1.02272ZM370.88 6.46022V2.5909H371.886V9.13635H370.88V8.0284H370.812C370.659 8.36078 370.42 8.64345 370.096 8.87641C369.772 9.10652 369.363 9.22158 368.869 9.22158C368.46 9.22158 368.096 9.13209 367.778 8.95311C367.46 8.7713 367.21 8.49857 367.028 8.13493C366.846 7.76845 366.755 7.30681 366.755 6.74999V2.5909H367.761V6.68181C367.761 7.15908 367.895 7.53976 368.162 7.82385C368.432 8.10794 368.775 8.24999 369.193 8.24999C369.443 8.24999 369.697 8.18607 369.956 8.05823C370.217 7.93039 370.436 7.73436 370.612 7.47016C370.791 7.20595 370.88 6.86931 370.88 6.46022ZM373.728 9.13635V2.5909H374.7V3.57953H374.768C374.887 3.25567 375.103 2.99289 375.416 2.79118C375.728 2.58948 376.08 2.48862 376.472 2.48862C376.546 2.48862 376.639 2.49005 376.749 2.49289C376.86 2.49573 376.944 2.49999 377.001 2.50567V3.5284C376.967 3.51988 376.889 3.50709 376.766 3.49005C376.647 3.47016 376.521 3.46022 376.387 3.46022C376.069 3.46022 375.785 3.52698 375.535 3.6605C375.288 3.79118 375.092 3.973 374.947 4.20595C374.805 4.43607 374.734 4.69885 374.734 4.99431V9.13635H373.728ZM380.465 9.27272C379.92 9.27272 379.438 9.13493 379.021 8.85936C378.603 8.58095 378.276 8.18891 378.041 7.68323C377.805 7.1747 377.687 6.57385 377.687 5.88067C377.687 5.19317 377.805 4.59658 378.041 4.0909C378.276 3.58522 378.604 3.19459 379.025 2.91902C379.445 2.64345 379.931 2.50567 380.482 2.50567C380.908 2.50567 381.245 2.57669 381.492 2.71874C381.742 2.85794 381.933 3.01703 382.063 3.19601C382.197 3.37215 382.301 3.51703 382.374 3.63067H382.46V0.40908H383.465V9.13635H382.494V8.13067H382.374C382.301 8.24999 382.195 8.40056 382.059 8.58238C381.923 8.76135 381.728 8.92186 381.475 9.06391C381.222 9.20311 380.886 9.27272 380.465 9.27272ZM380.602 8.36931C381.005 8.36931 381.346 8.26419 381.624 8.05397C381.903 7.8409 382.114 7.54686 382.259 7.17186C382.404 6.79402 382.477 6.35794 382.477 5.86363C382.477 5.37499 382.406 4.94743 382.264 4.58095C382.122 4.21164 381.911 3.9247 381.633 3.72016C381.354 3.51277 381.011 3.40908 380.602 3.40908C380.176 3.40908 379.82 3.51845 379.536 3.7372C379.255 3.95311 379.043 4.24715 378.901 4.61931C378.762 4.98863 378.693 5.4034 378.693 5.86363C378.693 6.32953 378.764 6.75283 378.906 7.13351C379.051 7.51135 379.264 7.81249 379.545 8.03692C379.829 8.25851 380.181 8.36931 380.602 8.36931ZM386.095 11.5909C385.924 11.5909 385.772 11.5767 385.639 11.5483C385.505 11.5227 385.413 11.4971 385.362 11.4716L385.617 10.5852C385.862 10.6477 386.078 10.6704 386.265 10.6534C386.453 10.6364 386.619 10.5525 386.764 10.402C386.911 10.2543 387.046 10.0142 387.168 9.68181L387.356 9.17044L384.935 2.5909H386.026L387.833 7.80681H387.901L389.708 2.5909H390.799L388.021 10.0909C387.896 10.429 387.741 10.7088 387.556 10.9304C387.372 11.1548 387.157 11.321 386.913 11.429C386.671 11.5369 386.399 11.5909 386.095 11.5909ZM48.7629 19.0568L47.8595 19.3125C47.8026 19.1619 47.7188 19.0156 47.608 18.8736C47.5001 18.7287 47.3524 18.6094 47.1649 18.5156C46.9774 18.4219 46.7373 18.375 46.4447 18.375C46.0441 18.375 45.7103 18.4673 45.4433 18.652C45.1791 18.8338 45.047 19.0653 45.047 19.3466C45.047 19.5966 45.1379 19.794 45.3197 19.9389C45.5015 20.0838 45.7856 20.2045 46.172 20.3011L47.1436 20.5398C47.7288 20.6818 48.1649 20.8991 48.4518 21.1918C48.7387 21.4815 48.8822 21.8551 48.8822 22.3125C48.8822 22.6875 48.7742 23.0227 48.5583 23.3182C48.3453 23.6136 48.047 23.8466 47.6634 24.017C47.2799 24.1875 46.8339 24.2727 46.3254 24.2727C45.6578 24.2727 45.1052 24.1278 44.6677 23.8381C44.2302 23.5483 43.9532 23.125 43.8367 22.5682L44.7913 22.3295C44.8822 22.6818 45.0541 22.946 45.3069 23.1221C45.5626 23.2983 45.8964 23.3864 46.3083 23.3864C46.7771 23.3864 47.1492 23.2869 47.4248 23.0881C47.7032 22.8864 47.8424 22.6449 47.8424 22.3636C47.8424 22.1364 47.7629 21.946 47.6038 21.7926C47.4447 21.6364 47.2004 21.5199 46.8708 21.4432L45.7799 21.1875C45.1805 21.0454 44.7401 20.8253 44.4589 20.527C44.1805 20.2258 44.0413 19.8494 44.0413 19.3977C44.0413 19.0284 44.145 18.7017 44.3524 18.4176C44.5626 18.1335 44.8481 17.9105 45.2089 17.7486C45.5725 17.5866 45.9845 17.5057 46.4447 17.5057C47.0924 17.5057 47.6009 17.6477 47.9703 17.9318C48.3424 18.2159 48.6066 18.5909 48.7629 19.0568ZM53.2426 17.5909V18.4432H49.8506V17.5909H53.2426ZM50.8392 16.0227H51.8449V22.2614C51.8449 22.5454 51.8861 22.7585 51.9685 22.9006C52.0537 23.0398 52.1617 23.1335 52.2923 23.1818C52.4259 23.2273 52.5665 23.25 52.7142 23.25C52.825 23.25 52.9159 23.2443 52.9869 23.2329C53.058 23.2187 53.1148 23.2074 53.1574 23.1989L53.3619 24.1023C53.2938 24.1278 53.1986 24.1534 53.0764 24.179C52.9543 24.2074 52.7994 24.2216 52.6119 24.2216C52.3279 24.2216 52.0494 24.1605 51.7767 24.0383C51.5068 23.9162 51.2824 23.7301 51.1034 23.4801C50.9273 23.2301 50.8392 22.9148 50.8392 22.5341V16.0227ZM54.7554 24.1364V17.5909H55.727V18.5795H55.7952C55.9145 18.2557 56.1304 17.9929 56.4429 17.7912C56.7554 17.5895 57.1077 17.4886 57.4997 17.4886C57.5736 17.4886 57.6659 17.49 57.7767 17.4929C57.8875 17.4957 57.9713 17.5 58.0281 17.5057V18.5284C57.9941 18.5199 57.9159 18.5071 57.7938 18.49C57.6744 18.4702 57.548 18.4602 57.4145 18.4602C57.0963 18.4602 56.8122 18.527 56.5622 18.6605C56.3151 18.7912 56.1191 18.973 55.9742 19.206C55.8321 19.4361 55.7611 19.6989 55.7611 19.9943V24.1364H54.7554ZM63.3453 21.4602V17.5909H64.3509V24.1364H63.3453V23.0284H63.2771C63.1237 23.3608 62.885 23.6435 62.5612 23.8764C62.2373 24.1065 61.8282 24.2216 61.3339 24.2216C60.9248 24.2216 60.5612 24.1321 60.243 23.9531C59.9248 23.7713 59.6748 23.4986 59.493 23.1349C59.3112 22.7685 59.2203 22.3068 59.2203 21.75V17.5909H60.2259V21.6818C60.2259 22.1591 60.3595 22.5398 60.6265 22.8239C60.8964 23.1079 61.2401 23.25 61.6578 23.25C61.9078 23.25 62.162 23.1861 62.4205 23.0582C62.6819 22.9304 62.9007 22.7344 63.0768 22.4702C63.2558 22.206 63.3453 21.8693 63.3453 21.4602ZM68.852 24.2727C68.2384 24.2727 67.71 24.1278 67.2668 23.8381C66.8236 23.5483 66.4827 23.1491 66.2441 22.6406C66.0054 22.1321 65.8861 21.5511 65.8861 20.8977C65.8861 20.2329 66.0083 19.6463 66.2526 19.1378C66.4997 18.6264 66.8435 18.2273 67.2838 17.9403C67.727 17.6506 68.2441 17.5057 68.835 17.5057C69.2952 17.5057 69.71 17.5909 70.0793 17.7614C70.4486 17.9318 70.7512 18.1704 70.9869 18.4773C71.2227 18.7841 71.3691 19.142 71.4259 19.5511H70.4202C70.3435 19.2528 70.173 18.9886 69.9088 18.7585C69.6475 18.5256 69.2952 18.4091 68.852 18.4091C68.46 18.4091 68.1162 18.5114 67.8208 18.7159C67.5281 18.9176 67.2994 19.2031 67.1347 19.5724C66.9727 19.9389 66.8918 20.3693 66.8918 20.8636C66.8918 21.3693 66.9713 21.8096 67.1304 22.1846C67.2923 22.5596 67.5196 22.8508 67.8122 23.0582C68.1077 23.2656 68.4543 23.3693 68.852 23.3693C69.1134 23.3693 69.3506 23.3239 69.5637 23.2329C69.7767 23.142 69.9571 23.0114 70.1048 22.8409C70.2526 22.6704 70.3577 22.4659 70.4202 22.2273H71.4259C71.3691 22.6136 71.2284 22.9616 71.004 23.2713C70.7824 23.5781 70.4884 23.8224 70.1219 24.0043C69.7583 24.1832 69.335 24.2727 68.852 24.2727ZM75.7426 17.5909V18.4432H72.3506V17.5909H75.7426ZM73.3392 16.0227H74.3449V22.2614C74.3449 22.5454 74.3861 22.7585 74.4685 22.9006C74.5537 23.0398 74.6617 23.1335 74.7923 23.1818C74.9259 23.2273 75.0665 23.25 75.2142 23.25C75.325 23.25 75.4159 23.2443 75.4869 23.2329C75.558 23.2187 75.6148 23.2074 75.6574 23.1989L75.8619 24.1023C75.7938 24.1278 75.6986 24.1534 75.5764 24.179C75.4543 24.2074 75.2994 24.2216 75.1119 24.2216C74.8279 24.2216 74.5494 24.1605 74.2767 24.0383C74.0068 23.9162 73.7824 23.7301 73.6034 23.4801C73.4273 23.2301 73.3392 22.9148 73.3392 22.5341V16.0227ZM81.3804 21.4602V17.5909H82.3861V24.1364H81.3804V23.0284H81.3122C81.1588 23.3608 80.9202 23.6435 80.5963 23.8764C80.2725 24.1065 79.8634 24.2216 79.3691 24.2216C78.96 24.2216 78.5963 24.1321 78.2781 23.9531C77.96 23.7713 77.71 23.4986 77.5281 23.1349C77.3463 22.7685 77.2554 22.3068 77.2554 21.75V17.5909H78.2611V21.6818C78.2611 22.1591 78.3946 22.5398 78.6617 22.8239C78.9316 23.1079 79.2753 23.25 79.6929 23.25C79.9429 23.25 80.1972 23.1861 80.4557 23.0582C80.7171 22.9304 80.9358 22.7344 81.1119 22.4702C81.2909 22.206 81.3804 21.8693 81.3804 21.4602ZM84.2281 24.1364V17.5909H85.1997V18.5795H85.2678C85.3872 18.2557 85.6031 17.9929 85.9156 17.7912C86.2281 17.5895 86.5803 17.4886 86.9724 17.4886C87.0463 17.4886 87.1386 17.49 87.2494 17.4929C87.3602 17.4957 87.444 17.5 87.5008 17.5057V18.5284C87.4667 18.5199 87.3886 18.5071 87.2664 18.49C87.1471 18.4702 87.0207 18.4602 86.8872 18.4602C86.569 18.4602 86.2849 18.527 86.0349 18.6605C85.7877 18.7912 85.5917 18.973 85.4468 19.206C85.3048 19.4361 85.2338 19.6989 85.2338 19.9943V24.1364H84.2281ZM91.238 24.2727C90.6073 24.2727 90.0633 24.1335 89.6059 23.8551C89.1514 23.5739 88.8005 23.1818 88.5534 22.679C88.309 22.1733 88.1869 21.5852 88.1869 20.9148C88.1869 20.2443 88.309 19.6534 88.5534 19.142C88.8005 18.6278 89.1443 18.2273 89.5846 17.9403C90.0278 17.6506 90.5448 17.5057 91.1357 17.5057C91.4767 17.5057 91.8133 17.5625 92.1457 17.6761C92.4781 17.7898 92.7806 17.9744 93.0534 18.2301C93.3261 18.4829 93.5434 18.8182 93.7053 19.2358C93.8673 19.6534 93.9482 20.1676 93.9482 20.7784V21.2045H88.9028V20.3352H92.9255C92.9255 19.9659 92.8517 19.6364 92.7039 19.3466C92.559 19.0568 92.3517 18.8281 92.0818 18.6605C91.8147 18.4929 91.4994 18.4091 91.1357 18.4091C90.7352 18.4091 90.3886 18.5085 90.096 18.7074C89.8062 18.9034 89.5832 19.1591 89.4269 19.4744C89.2707 19.7898 89.1926 20.1278 89.1926 20.4886V21.0682C89.1926 21.5625 89.2778 21.9815 89.4482 22.3253C89.6215 22.6662 89.8616 22.9261 90.1684 23.1051C90.4752 23.2812 90.8318 23.3693 91.238 23.3693C91.5022 23.3693 91.7409 23.3324 91.9539 23.2585C92.1698 23.1818 92.3559 23.0682 92.5122 22.9176C92.6684 22.7642 92.7892 22.5739 92.8744 22.3466L93.846 22.6193C93.7437 22.9489 93.5718 23.2386 93.3303 23.4886C93.0889 23.7358 92.7906 23.929 92.4355 24.0682C92.0803 24.2045 91.6812 24.2727 91.238 24.2727ZM101.597 24.2727C100.967 24.2727 100.423 24.1335 99.9653 23.8551C99.5107 23.5739 99.1599 23.1818 98.9127 22.679C98.6684 22.1733 98.5463 21.5852 98.5463 20.9148C98.5463 20.2443 98.6684 19.6534 98.9127 19.142C99.1599 18.6278 99.5036 18.2273 99.944 17.9403C100.387 17.6506 100.904 17.5057 101.495 17.5057C101.836 17.5057 102.173 17.5625 102.505 17.6761C102.837 17.7898 103.14 17.9744 103.413 18.2301C103.685 18.4829 103.903 18.8182 104.065 19.2358C104.227 19.6534 104.308 20.1676 104.308 20.7784V21.2045H99.2622V20.3352H103.285C103.285 19.9659 103.211 19.6364 103.063 19.3466C102.918 19.0568 102.711 18.8281 102.441 18.6605C102.174 18.4929 101.859 18.4091 101.495 18.4091C101.095 18.4091 100.748 18.5085 100.455 18.7074C100.166 18.9034 99.9426 19.1591 99.7863 19.4744C99.6301 19.7898 99.5519 20.1278 99.5519 20.4886V21.0682C99.5519 21.5625 99.6372 21.9815 99.8076 22.3253C99.9809 22.6662 100.221 22.9261 100.528 23.1051C100.835 23.2812 101.191 23.3693 101.597 23.3693C101.862 23.3693 102.1 23.3324 102.313 23.2585C102.529 23.1818 102.715 23.0682 102.872 22.9176C103.028 22.7642 103.149 22.5739 103.234 22.3466L104.205 22.6193C104.103 22.9489 103.931 23.2386 103.69 23.4886C103.448 23.7358 103.15 23.929 102.795 24.0682C102.44 24.2045 102.041 24.2727 101.597 24.2727ZM106.843 20.1989V24.1364H105.837V17.5909H106.809V18.6136H106.894C107.048 18.2812 107.281 18.0142 107.593 17.8125C107.906 17.6079 108.309 17.5057 108.803 17.5057C109.247 17.5057 109.634 17.5966 109.967 17.7784C110.299 17.9574 110.558 18.2301 110.742 18.5966C110.927 18.9602 111.019 19.4204 111.019 19.9773V24.1364H110.014V20.0454C110.014 19.5312 109.88 19.1307 109.613 18.8437C109.346 18.554 108.979 18.4091 108.514 18.4091C108.193 18.4091 107.906 18.4787 107.653 18.6179C107.403 18.7571 107.205 18.9602 107.06 19.2273C106.916 19.4943 106.843 19.8182 106.843 20.1989ZM117.493 19.0568L116.59 19.3125C116.533 19.1619 116.449 19.0156 116.339 18.8736C116.231 18.7287 116.083 18.6094 115.895 18.5156C115.708 18.4219 115.468 18.375 115.175 18.375C114.775 18.375 114.441 18.4673 114.174 18.652C113.91 18.8338 113.777 19.0653 113.777 19.3466C113.777 19.5966 113.868 19.794 114.05 19.9389C114.232 20.0838 114.516 20.2045 114.902 20.3011L115.874 20.5398C116.459 20.6818 116.895 20.8991 117.182 21.1918C117.469 21.4815 117.613 21.8551 117.613 22.3125C117.613 22.6875 117.505 23.0227 117.289 23.3182C117.076 23.6136 116.777 23.8466 116.394 24.017C116.01 24.1875 115.564 24.2727 115.056 24.2727C114.388 24.2727 113.836 24.1278 113.398 23.8381C112.961 23.5483 112.684 23.125 112.567 22.5682L113.522 22.3295C113.613 22.6818 113.785 22.946 114.037 23.1221C114.293 23.2983 114.627 23.3864 115.039 23.3864C115.508 23.3864 115.88 23.2869 116.155 23.0881C116.434 22.8864 116.573 22.6449 116.573 22.3636C116.573 22.1364 116.493 21.946 116.334 21.7926C116.175 21.6364 115.931 21.5199 115.601 21.4432L114.51 21.1875C113.911 21.0454 113.471 20.8253 113.189 20.527C112.911 20.2258 112.772 19.8494 112.772 19.3977C112.772 19.0284 112.875 18.7017 113.083 18.4176C113.293 18.1335 113.579 17.9105 113.939 17.7486C114.303 17.5866 114.715 17.5057 115.175 17.5057C115.823 17.5057 116.331 17.6477 116.701 17.9318C117.073 18.2159 117.337 18.5909 117.493 19.0568ZM123.252 21.4602V17.5909H124.257V24.1364H123.252V23.0284H123.183C123.03 23.3608 122.791 23.6435 122.467 23.8764C122.144 24.1065 121.734 24.2216 121.24 24.2216C120.831 24.2216 120.467 24.1321 120.149 23.9531C119.831 23.7713 119.581 23.4986 119.399 23.1349C119.217 22.7685 119.127 22.3068 119.127 21.75V17.5909H120.132V21.6818C120.132 22.1591 120.266 22.5398 120.533 22.8239C120.803 23.1079 121.146 23.25 121.564 23.25C121.814 23.25 122.068 23.1861 122.327 23.0582C122.588 22.9304 122.807 22.7344 122.983 22.4702C123.162 22.206 123.252 21.8693 123.252 21.4602ZM126.099 24.1364V17.5909H127.071V18.5795H127.139C127.258 18.2557 127.474 17.9929 127.787 17.7912C128.099 17.5895 128.451 17.4886 128.843 17.4886C128.917 17.4886 129.01 17.49 129.12 17.4929C129.231 17.4957 129.315 17.5 129.372 17.5057V18.5284C129.338 18.5199 129.26 18.5071 129.138 18.49C129.018 18.4702 128.892 18.4602 128.758 18.4602C128.44 18.4602 128.156 18.527 127.906 18.6605C127.659 18.7912 127.463 18.973 127.318 19.206C127.176 19.4361 127.105 19.6989 127.105 19.9943V24.1364H126.099ZM133.109 24.2727C132.478 24.2727 131.934 24.1335 131.477 23.8551C131.022 23.5739 130.672 23.1818 130.424 22.679C130.18 22.1733 130.058 21.5852 130.058 20.9148C130.058 20.2443 130.18 19.6534 130.424 19.142C130.672 18.6278 131.015 18.2273 131.456 17.9403C131.899 17.6506 132.416 17.5057 133.007 17.5057C133.348 17.5057 133.684 17.5625 134.017 17.6761C134.349 17.7898 134.652 17.9744 134.924 18.2301C135.197 18.4829 135.415 18.8182 135.576 19.2358C135.738 19.6534 135.819 20.1676 135.819 20.7784V21.2045H130.774V20.3352H134.797C134.797 19.9659 134.723 19.6364 134.575 19.3466C134.43 19.0568 134.223 18.8281 133.953 18.6605C133.686 18.4929 133.37 18.4091 133.007 18.4091C132.606 18.4091 132.26 18.5085 131.967 18.7074C131.677 18.9034 131.454 19.1591 131.298 19.4744C131.142 19.7898 131.064 20.1278 131.064 20.4886V21.0682C131.064 21.5625 131.149 21.9815 131.319 22.3253C131.493 22.6662 131.733 22.9261 132.04 23.1051C132.346 23.2812 132.703 23.3693 133.109 23.3693C133.373 23.3693 133.612 23.3324 133.825 23.2585C134.041 23.1818 134.227 23.0682 134.383 22.9176C134.54 22.7642 134.66 22.5739 134.745 22.3466L135.717 22.6193C135.615 22.9489 135.443 23.2386 135.201 23.4886C134.96 23.7358 134.662 23.929 134.307 24.0682C133.951 24.2045 133.552 24.2727 133.109 24.2727ZM141.986 19.0568L141.082 19.3125C141.025 19.1619 140.941 19.0156 140.831 18.8736C140.723 18.7287 140.575 18.6094 140.388 18.5156C140.2 18.4219 139.96 18.375 139.667 18.375C139.267 18.375 138.933 18.4673 138.666 18.652C138.402 18.8338 138.27 19.0653 138.27 19.3466C138.27 19.5966 138.361 19.794 138.542 19.9389C138.724 20.0838 139.008 20.2045 139.395 20.3011L140.366 20.5398C140.951 20.6818 141.388 20.8991 141.674 21.1918C141.961 21.4815 142.105 21.8551 142.105 22.3125C142.105 22.6875 141.997 23.0227 141.781 23.3182C141.568 23.6136 141.27 23.8466 140.886 24.017C140.503 24.1875 140.057 24.2727 139.548 24.2727C138.88 24.2727 138.328 24.1278 137.89 23.8381C137.453 23.5483 137.176 23.125 137.059 22.5682L138.014 22.3295C138.105 22.6818 138.277 22.946 138.53 23.1221C138.785 23.2983 139.119 23.3864 139.531 23.3864C140 23.3864 140.372 23.2869 140.647 23.0881C140.926 22.8864 141.065 22.6449 141.065 22.3636C141.065 22.1364 140.986 21.946 140.826 21.7926C140.667 21.6364 140.423 21.5199 140.093 21.4432L139.003 21.1875C138.403 21.0454 137.963 20.8253 137.682 20.527C137.403 20.2258 137.264 19.8494 137.264 19.3977C137.264 19.0284 137.368 18.7017 137.575 18.4176C137.785 18.1335 138.071 17.9105 138.432 17.7486C138.795 17.5866 139.207 17.5057 139.667 17.5057C140.315 17.5057 140.824 17.6477 141.193 17.9318C141.565 18.2159 141.829 18.5909 141.986 19.0568ZM151.63 19.0568L150.727 19.3125C150.67 19.1619 150.586 19.0156 150.475 18.8736C150.367 18.7287 150.22 18.6094 150.032 18.5156C149.845 18.4219 149.604 18.375 149.312 18.375C148.911 18.375 148.578 18.4673 148.31 18.652C148.046 18.8338 147.914 19.0653 147.914 19.3466C147.914 19.5966 148.005 19.794 148.187 19.9389C148.369 20.0838 148.653 20.2045 149.039 20.3011L150.011 20.5398C150.596 20.6818 151.032 20.8991 151.319 21.1918C151.606 21.4815 151.749 21.8551 151.749 22.3125C151.749 22.6875 151.641 23.0227 151.426 23.3182C151.212 23.6136 150.914 23.8466 150.531 24.017C150.147 24.1875 149.701 24.2727 149.193 24.2727C148.525 24.2727 147.972 24.1278 147.535 23.8381C147.097 23.5483 146.82 23.125 146.704 22.5682L147.658 22.3295C147.749 22.6818 147.921 22.946 148.174 23.1221C148.43 23.2983 148.764 23.3864 149.176 23.3864C149.644 23.3864 150.016 23.2869 150.292 23.0881C150.57 22.8864 150.71 22.6449 150.71 22.3636C150.71 22.1364 150.63 21.946 150.471 21.7926C150.312 21.6364 150.068 21.5199 149.738 21.4432L148.647 21.1875C148.048 21.0454 147.607 20.8253 147.326 20.527C147.048 20.2258 146.908 19.8494 146.908 19.3977C146.908 19.0284 147.012 18.7017 147.22 18.4176C147.43 18.1335 147.715 17.9105 148.076 17.7486C148.44 17.5866 148.852 17.5057 149.312 17.5057C149.96 17.5057 150.468 17.6477 150.837 17.9318C151.21 18.2159 151.474 18.5909 151.63 19.0568ZM155.189 24.2898C154.775 24.2898 154.398 24.2116 154.06 24.0554C153.722 23.8963 153.454 23.6676 153.255 23.3693C153.056 23.0682 152.956 22.7045 152.956 22.2784C152.956 21.9034 153.03 21.5994 153.178 21.3665C153.326 21.1307 153.523 20.946 153.77 20.8125C154.017 20.679 154.29 20.5795 154.589 20.5142C154.89 20.446 155.192 20.392 155.496 20.3523C155.894 20.3011 156.216 20.2628 156.464 20.2372C156.714 20.2088 156.895 20.1619 157.009 20.0966C157.125 20.0312 157.184 19.9176 157.184 19.7557V19.7216C157.184 19.3011 157.069 18.9744 156.839 18.7415C156.611 18.5085 156.266 18.392 155.803 18.392C155.323 18.392 154.946 18.4971 154.674 18.7074C154.401 18.9176 154.209 19.142 154.098 19.3807L153.144 19.0398C153.314 18.642 153.542 18.3324 153.826 18.1108C154.113 17.8864 154.425 17.7301 154.763 17.642C155.104 17.5511 155.439 17.5057 155.769 17.5057C155.979 17.5057 156.221 17.5312 156.493 17.5824C156.769 17.6307 157.035 17.7315 157.29 17.8849C157.549 18.0383 157.763 18.2699 157.934 18.5795C158.104 18.8892 158.189 19.304 158.189 19.8239V24.1364H157.184V23.25H157.133C157.064 23.392 156.951 23.544 156.792 23.706C156.633 23.8679 156.421 24.0057 156.157 24.1193C155.892 24.2329 155.57 24.2898 155.189 24.2898ZM155.343 23.3864C155.741 23.3864 156.076 23.3082 156.348 23.152C156.624 22.9957 156.831 22.794 156.971 22.5469C157.113 22.2997 157.184 22.0398 157.184 21.767V20.8466C157.141 20.8977 157.047 20.9446 156.902 20.9872C156.76 21.027 156.596 21.0625 156.408 21.0937C156.223 21.1221 156.043 21.1477 155.867 21.1704C155.694 21.1903 155.553 21.2074 155.445 21.2216C155.184 21.2557 154.939 21.3111 154.712 21.3878C154.488 21.4616 154.306 21.5739 154.167 21.7244C154.03 21.8721 153.962 22.0739 153.962 22.3295C153.962 22.679 154.091 22.9432 154.35 23.1221C154.611 23.2983 154.942 23.3864 155.343 23.3864ZM162.94 17.5909V18.4432H159.411V17.5909H162.94ZM160.468 24.1364V16.6875C160.468 16.3125 160.556 16 160.732 15.75C160.908 15.5 161.137 15.3125 161.418 15.1875C161.7 15.0625 161.997 15 162.309 15C162.556 15 162.758 15.0199 162.914 15.0596C163.07 15.0994 163.187 15.1364 163.264 15.1704L162.974 16.0398C162.923 16.0227 162.852 16.0014 162.761 15.9758C162.673 15.9503 162.556 15.9375 162.411 15.9375C162.079 15.9375 161.839 16.0213 161.691 16.1889C161.546 16.3565 161.474 16.6023 161.474 16.9261V24.1364H160.468ZM166.824 24.2727C166.193 24.2727 165.649 24.1335 165.192 23.8551C164.737 23.5739 164.386 23.1818 164.139 22.679C163.895 22.1733 163.773 21.5852 163.773 20.9148C163.773 20.2443 163.895 19.6534 164.139 19.142C164.386 18.6278 164.73 18.2273 165.171 17.9403C165.614 17.6506 166.131 17.5057 166.722 17.5057C167.063 17.5057 167.399 17.5625 167.732 17.6761C168.064 17.7898 168.367 17.9744 168.639 18.2301C168.912 18.4829 169.129 18.8182 169.291 19.2358C169.453 19.6534 169.534 20.1676 169.534 20.7784V21.2045H164.489V20.3352H168.511C168.511 19.9659 168.438 19.6364 168.29 19.3466C168.145 19.0568 167.938 18.8281 167.668 18.6605C167.401 18.4929 167.085 18.4091 166.722 18.4091C166.321 18.4091 165.975 18.5085 165.682 18.7074C165.392 18.9034 165.169 19.1591 165.013 19.4744C164.857 19.7898 164.778 20.1278 164.778 20.4886V21.0682C164.778 21.5625 164.864 21.9815 165.034 22.3253C165.207 22.6662 165.448 22.9261 165.754 23.1051C166.061 23.2812 166.418 23.3693 166.824 23.3693C167.088 23.3693 167.327 23.3324 167.54 23.2585C167.756 23.1818 167.942 23.0682 168.098 22.9176C168.254 22.7642 168.375 22.5739 168.46 22.3466L169.432 22.6193C169.33 22.9489 169.158 23.2386 168.916 23.4886C168.675 23.7358 168.377 23.929 168.021 24.0682C167.666 24.2045 167.267 24.2727 166.824 24.2727ZM176.911 24.2727C176.365 24.2727 175.884 24.1349 175.466 23.8594C175.048 23.581 174.722 23.1889 174.486 22.6832C174.25 22.1747 174.132 21.5739 174.132 20.8807C174.132 20.1932 174.25 19.5966 174.486 19.0909C174.722 18.5852 175.05 18.1946 175.47 17.919C175.891 17.6435 176.377 17.5057 176.928 17.5057C177.354 17.5057 177.69 17.5767 177.938 17.7187C178.188 17.8579 178.378 18.017 178.509 18.196C178.642 18.3721 178.746 18.517 178.82 18.6307H178.905V15.4091H179.911V24.1364H178.939V23.1307H178.82C178.746 23.25 178.641 23.4006 178.504 23.5824C178.368 23.7614 178.173 23.9219 177.921 24.0639C177.668 24.2031 177.331 24.2727 176.911 24.2727ZM177.047 23.3693C177.45 23.3693 177.791 23.2642 178.07 23.054C178.348 22.8409 178.56 22.5469 178.705 22.1719C178.85 21.794 178.922 21.3579 178.922 20.8636C178.922 20.375 178.851 19.9474 178.709 19.581C178.567 19.2116 178.357 18.9247 178.078 18.7202C177.8 18.5128 177.456 18.4091 177.047 18.4091C176.621 18.4091 176.266 18.5185 175.982 18.7372C175.7 18.9531 175.489 19.2471 175.347 19.6193C175.207 19.9886 175.138 20.4034 175.138 20.8636C175.138 21.3295 175.209 21.7528 175.351 22.1335C175.496 22.5114 175.709 22.8125 175.99 23.0369C176.274 23.2585 176.627 23.3693 177.047 23.3693ZM184.636 24.2727C184.006 24.2727 183.462 24.1335 183.004 23.8551C182.55 23.5739 182.199 23.1818 181.952 22.679C181.707 22.1733 181.585 21.5852 181.585 20.9148C181.585 20.2443 181.707 19.6534 181.952 19.142C182.199 18.6278 182.543 18.2273 182.983 17.9403C183.426 17.6506 183.943 17.5057 184.534 17.5057C184.875 17.5057 185.212 17.5625 185.544 17.6761C185.877 17.7898 186.179 17.9744 186.452 18.2301C186.725 18.4829 186.942 18.8182 187.104 19.2358C187.266 19.6534 187.347 20.1676 187.347 20.7784V21.2045H182.301V20.3352H186.324C186.324 19.9659 186.25 19.6364 186.102 19.3466C185.957 19.0568 185.75 18.8281 185.48 18.6605C185.213 18.4929 184.898 18.4091 184.534 18.4091C184.134 18.4091 183.787 18.5085 183.494 18.7074C183.205 18.9034 182.982 19.1591 182.825 19.4744C182.669 19.7898 182.591 20.1278 182.591 20.4886V21.0682C182.591 21.5625 182.676 21.9815 182.847 22.3253C183.02 22.6662 183.26 22.9261 183.567 23.1051C183.874 23.2812 184.23 23.3693 184.636 23.3693C184.901 23.3693 185.139 23.3324 185.352 23.2585C185.568 23.1818 185.754 23.0682 185.911 22.9176C186.067 22.7642 186.188 22.5739 186.273 22.3466L187.244 22.6193C187.142 22.9489 186.97 23.2386 186.729 23.4886C186.487 23.7358 186.189 23.929 185.834 24.0682C185.479 24.2045 185.08 24.2727 184.636 24.2727ZM189.882 15.4091V24.1364H188.877V15.4091H189.882ZM191.724 24.1364V17.5909H192.73V24.1364H191.724ZM192.236 16.5C192.04 16.5 191.87 16.4332 191.728 16.2997C191.589 16.1662 191.52 16.0057 191.52 15.8182C191.52 15.6307 191.589 15.4702 191.728 15.3366C191.87 15.2031 192.04 15.1364 192.236 15.1364C192.432 15.1364 192.599 15.2031 192.738 15.3366C192.88 15.4702 192.951 15.6307 192.951 15.8182C192.951 16.0057 192.88 16.1662 192.738 16.2997C192.599 16.4332 192.432 16.5 192.236 16.5ZM199.924 17.5909L197.504 24.1364H196.481L194.06 17.5909H195.151L196.958 22.8068H197.026L198.833 17.5909H199.924ZM203.761 24.2727C203.131 24.2727 202.587 24.1335 202.129 23.8551C201.675 23.5739 201.324 23.1818 201.077 22.679C200.832 22.1733 200.71 21.5852 200.71 20.9148C200.71 20.2443 200.832 19.6534 201.077 19.142C201.324 18.6278 201.668 18.2273 202.108 17.9403C202.551 17.6506 203.068 17.5057 203.659 17.5057C204 17.5057 204.337 17.5625 204.669 17.6761C205.002 17.7898 205.304 17.9744 205.577 18.2301C205.85 18.4829 206.067 18.8182 206.229 19.2358C206.391 19.6534 206.472 20.1676 206.472 20.7784V21.2045H201.426V20.3352H205.449C205.449 19.9659 205.375 19.6364 205.227 19.3466C205.082 19.0568 204.875 18.8281 204.605 18.6605C204.338 18.4929 204.023 18.4091 203.659 18.4091C203.259 18.4091 202.912 18.5085 202.619 18.7074C202.33 18.9034 202.107 19.1591 201.95 19.4744C201.794 19.7898 201.716 20.1278 201.716 20.4886V21.0682C201.716 21.5625 201.801 21.9815 201.972 22.3253C202.145 22.6662 202.385 22.9261 202.692 23.1051C202.999 23.2812 203.355 23.3693 203.761 23.3693C204.026 23.3693 204.264 23.3324 204.477 23.2585C204.693 23.1818 204.879 23.0682 205.036 22.9176C205.192 22.7642 205.313 22.5739 205.398 22.3466L206.369 22.6193C206.267 22.9489 206.095 23.2386 205.854 23.4886C205.612 23.7358 205.314 23.929 204.959 24.0682C204.604 24.2045 204.205 24.2727 203.761 24.2727ZM208.002 24.1364V17.5909H208.973V18.5795H209.041C209.161 18.2557 209.377 17.9929 209.689 17.7912C210.002 17.5895 210.354 17.4886 210.746 17.4886C210.82 17.4886 210.912 17.49 211.023 17.4929C211.134 17.4957 211.217 17.5 211.274 17.5057V18.5284C211.24 18.5199 211.162 18.5071 211.04 18.49C210.921 18.4702 210.794 18.4602 210.661 18.4602C210.342 18.4602 210.058 18.527 209.808 18.6605C209.561 18.7912 209.365 18.973 209.22 19.206C209.078 19.4361 209.007 19.6989 209.007 19.9943V24.1364H208.002ZM213.313 26.5909C213.143 26.5909 212.991 26.5767 212.857 26.5483C212.724 26.5227 212.631 26.4971 212.58 26.4716L212.836 25.5852C213.08 25.6477 213.296 25.6704 213.484 25.6534C213.671 25.6364 213.837 25.5525 213.982 25.402C214.13 25.2543 214.265 25.0142 214.387 24.6818L214.575 24.1704L212.154 17.5909H213.245L215.052 22.8068H215.12L216.927 17.5909H218.018L215.239 25.0909C215.114 25.429 214.96 25.7088 214.775 25.9304C214.59 26.1548 214.376 26.321 214.131 26.429C213.89 26.5369 213.617 26.5909 213.313 26.5909ZM224.646 24.2898C224.232 24.2898 223.855 24.2116 223.517 24.0554C223.179 23.8963 222.911 23.6676 222.712 23.3693C222.513 23.0682 222.413 22.7045 222.413 22.2784C222.413 21.9034 222.487 21.5994 222.635 21.3665C222.783 21.1307 222.98 20.946 223.227 20.8125C223.475 20.679 223.747 20.5795 224.046 20.5142C224.347 20.446 224.649 20.392 224.953 20.3523C225.351 20.3011 225.673 20.2628 225.921 20.2372C226.171 20.2088 226.352 20.1619 226.466 20.0966C226.582 20.0312 226.641 19.9176 226.641 19.7557V19.7216C226.641 19.3011 226.526 18.9744 226.296 18.7415C226.068 18.5085 225.723 18.392 225.26 18.392C224.78 18.392 224.403 18.4971 224.131 18.7074C223.858 18.9176 223.666 19.142 223.555 19.3807L222.601 19.0398C222.771 18.642 222.999 18.3324 223.283 18.1108C223.57 17.8864 223.882 17.7301 224.22 17.642C224.561 17.5511 224.896 17.5057 225.226 17.5057C225.436 17.5057 225.678 17.5312 225.95 17.5824C226.226 17.6307 226.492 17.7315 226.747 17.8849C227.006 18.0383 227.22 18.2699 227.391 18.5795C227.561 18.8892 227.646 19.304 227.646 19.8239V24.1364H226.641V23.25H226.59C226.521 23.392 226.408 23.544 226.249 23.706C226.09 23.8679 225.878 24.0057 225.614 24.1193C225.35 24.2329 225.027 24.2898 224.646 24.2898ZM224.8 23.3864C225.198 23.3864 225.533 23.3082 225.805 23.152C226.081 22.9957 226.288 22.794 226.428 22.5469C226.57 22.2997 226.641 22.0398 226.641 21.767V20.8466C226.598 20.8977 226.504 20.9446 226.359 20.9872C226.217 21.027 226.053 21.0625 225.865 21.0937C225.68 21.1221 225.5 21.1477 225.324 21.1704C225.151 21.1903 225.01 21.2074 224.902 21.2216C224.641 21.2557 224.396 21.3111 224.169 21.3878C223.945 21.4616 223.763 21.5739 223.624 21.7244C223.487 21.8721 223.419 22.0739 223.419 22.3295C223.419 22.679 223.548 22.9432 223.807 23.1221C224.068 23.2983 224.399 23.3864 224.8 23.3864ZM230.488 20.1989V24.1364H229.482V17.5909H230.454V18.6136H230.539C230.692 18.2812 230.925 18.0142 231.238 17.8125C231.55 17.6079 231.954 17.5057 232.448 17.5057C232.891 17.5057 233.279 17.5966 233.611 17.7784C233.944 17.9574 234.202 18.2301 234.387 18.5966C234.571 18.9602 234.664 19.4204 234.664 19.9773V24.1364H233.658V20.0454C233.658 19.5312 233.525 19.1307 233.258 18.8437C232.991 18.554 232.624 18.4091 232.158 18.4091C231.837 18.4091 231.55 18.4787 231.297 18.6179C231.047 18.7571 230.85 18.9602 230.705 19.2273C230.56 19.4943 230.488 19.8182 230.488 20.1989ZM238.973 24.2727C238.428 24.2727 237.946 24.1349 237.528 23.8594C237.111 23.581 236.784 23.1889 236.548 22.6832C236.313 22.1747 236.195 21.5739 236.195 20.8807C236.195 20.1932 236.313 19.5966 236.548 19.0909C236.784 18.5852 237.112 18.1946 237.533 17.919C237.953 17.6435 238.439 17.5057 238.99 17.5057C239.416 17.5057 239.753 17.5767 240 17.7187C240.25 17.8579 240.44 18.017 240.571 18.196C240.705 18.3721 240.808 18.517 240.882 18.6307H240.967V15.4091H241.973V24.1364H241.002V23.1307H240.882C240.808 23.25 240.703 23.4006 240.567 23.5824C240.43 23.7614 240.236 23.9219 239.983 24.0639C239.73 24.2031 239.394 24.2727 238.973 24.2727ZM239.109 23.3693C239.513 23.3693 239.854 23.2642 240.132 23.054C240.411 22.8409 240.622 22.5469 240.767 22.1719C240.912 21.794 240.984 21.3579 240.984 20.8636C240.984 20.375 240.913 19.9474 240.771 19.581C240.629 19.2116 240.419 18.9247 240.141 18.7202C239.862 18.5128 239.519 18.4091 239.109 18.4091C238.683 18.4091 238.328 18.5185 238.044 18.7372C237.763 18.9531 237.551 19.2471 237.409 19.6193C237.27 19.9886 237.2 20.4034 237.2 20.8636C237.2 21.3295 237.271 21.7528 237.413 22.1335C237.558 22.5114 237.771 22.8125 238.053 23.0369C238.337 23.2585 238.689 23.3693 239.109 23.3693ZM250.074 24.2727C249.443 24.2727 248.899 24.1335 248.442 23.8551C247.987 23.5739 247.636 23.1818 247.389 22.679C247.145 22.1733 247.023 21.5852 247.023 20.9148C247.023 20.2443 247.145 19.6534 247.389 19.142C247.636 18.6278 247.98 18.2273 248.421 17.9403C248.864 17.6506 249.381 17.5057 249.972 17.5057C250.313 17.5057 250.649 17.5625 250.982 17.6761C251.314 17.7898 251.617 17.9744 251.889 18.2301C252.162 18.4829 252.379 18.8182 252.541 19.2358C252.703 19.6534 252.784 20.1676 252.784 20.7784V21.2045H247.739V20.3352H251.761C251.761 19.9659 251.688 19.6364 251.54 19.3466C251.395 19.0568 251.188 18.8281 250.918 18.6605C250.651 18.4929 250.335 18.4091 249.972 18.4091C249.571 18.4091 249.225 18.5085 248.932 18.7074C248.642 18.9034 248.419 19.1591 248.263 19.4744C248.107 19.7898 248.028 20.1278 248.028 20.4886V21.0682C248.028 21.5625 248.114 21.9815 248.284 22.3253C248.457 22.6662 248.698 22.9261 249.004 23.1051C249.311 23.2812 249.668 23.3693 250.074 23.3693C250.338 23.3693 250.577 23.3324 250.79 23.2585C251.006 23.1818 251.192 23.0682 251.348 22.9176C251.504 22.7642 251.625 22.5739 251.71 22.3466L252.682 22.6193C252.58 22.9489 252.408 23.2386 252.166 23.4886C251.925 23.7358 251.627 23.929 251.271 24.0682C250.916 24.2045 250.517 24.2727 250.074 24.2727ZM257.229 17.5909V18.4432H253.7V17.5909H257.229ZM254.757 24.1364V16.6875C254.757 16.3125 254.845 16 255.021 15.75C255.198 15.5 255.426 15.3125 255.707 15.1875C255.989 15.0625 256.286 15 256.598 15C256.845 15 257.047 15.0199 257.203 15.0596C257.359 15.0994 257.476 15.1364 257.553 15.1704L257.263 16.0398C257.212 16.0227 257.141 16.0014 257.05 15.9758C256.962 15.9503 256.845 15.9375 256.7 15.9375C256.368 15.9375 256.128 16.0213 255.98 16.1889C255.835 16.3565 255.763 16.6023 255.763 16.9261V24.1364H254.757ZM261.553 17.5909V18.4432H258.025V17.5909H261.553ZM259.081 24.1364V16.6875C259.081 16.3125 259.169 16 259.346 15.75C259.522 15.5 259.75 15.3125 260.032 15.1875C260.313 15.0625 260.61 15 260.922 15C261.169 15 261.371 15.0199 261.527 15.0596C261.684 15.0994 261.8 15.1364 261.877 15.1704L261.587 16.0398C261.536 16.0227 261.465 16.0014 261.374 15.9758C261.286 15.9503 261.169 15.9375 261.025 15.9375C260.692 15.9375 260.452 16.0213 260.304 16.1889C260.16 16.3565 260.087 16.6023 260.087 16.9261V24.1364H259.081ZM262.962 24.1364V17.5909H263.968V24.1364H262.962ZM263.474 16.5C263.278 16.5 263.109 16.4332 262.967 16.2997C262.828 16.1662 262.758 16.0057 262.758 15.8182C262.758 15.6307 262.828 15.4702 262.967 15.3366C263.109 15.2031 263.278 15.1364 263.474 15.1364C263.67 15.1364 263.837 15.2031 263.977 15.3366C264.119 15.4702 264.19 15.6307 264.19 15.8182C264.19 16.0057 264.119 16.1662 263.977 16.2997C263.837 16.4332 263.67 16.5 263.474 16.5ZM268.469 24.2727C267.856 24.2727 267.327 24.1278 266.884 23.8381C266.441 23.5483 266.1 23.1491 265.861 22.6406C265.623 22.1321 265.503 21.5511 265.503 20.8977C265.503 20.2329 265.625 19.6463 265.87 19.1378C266.117 18.6264 266.461 18.2273 266.901 17.9403C267.344 17.6506 267.861 17.5057 268.452 17.5057C268.912 17.5057 269.327 17.5909 269.696 17.7614C270.066 17.9318 270.368 18.1704 270.604 18.4773C270.84 18.7841 270.986 19.142 271.043 19.5511H270.037C269.961 19.2528 269.79 18.9886 269.526 18.7585C269.265 18.5256 268.912 18.4091 268.469 18.4091C268.077 18.4091 267.733 18.5114 267.438 18.7159C267.145 18.9176 266.917 19.2031 266.752 19.5724C266.59 19.9389 266.509 20.3693 266.509 20.8636C266.509 21.3693 266.589 21.8096 266.748 22.1846C266.91 22.5596 267.137 22.8508 267.429 23.0582C267.725 23.2656 268.071 23.3693 268.469 23.3693C268.731 23.3693 268.968 23.3239 269.181 23.2329C269.394 23.142 269.574 23.0114 269.722 22.8409C269.87 22.6704 269.975 22.4659 270.037 22.2273H271.043C270.986 22.6136 270.846 22.9616 270.621 23.2713C270.4 23.5781 270.106 23.8224 269.739 24.0043C269.375 24.1832 268.952 24.2727 268.469 24.2727ZM272.513 24.1364V17.5909H273.519V24.1364H272.513ZM273.025 16.5C272.829 16.5 272.66 16.4332 272.517 16.2997C272.378 16.1662 272.309 16.0057 272.309 15.8182C272.309 15.6307 272.378 15.4702 272.517 15.3366C272.66 15.2031 272.829 15.1364 273.025 15.1364C273.221 15.1364 273.388 15.2031 273.527 15.3366C273.669 15.4702 273.741 15.6307 273.741 15.8182C273.741 16.0057 273.669 16.1662 273.527 16.2997C273.388 16.4332 273.221 16.5 273.025 16.5ZM278.105 24.2727C277.475 24.2727 276.93 24.1335 276.473 23.8551C276.019 23.5739 275.668 23.1818 275.421 22.679C275.176 22.1733 275.054 21.5852 275.054 20.9148C275.054 20.2443 275.176 19.6534 275.421 19.142C275.668 18.6278 276.011 18.2273 276.452 17.9403C276.895 17.6506 277.412 17.5057 278.003 17.5057C278.344 17.5057 278.68 17.5625 279.013 17.6761C279.345 17.7898 279.648 17.9744 279.921 18.2301C280.193 18.4829 280.411 18.8182 280.573 19.2358C280.734 19.6534 280.815 20.1676 280.815 20.7784V21.2045H275.77V20.3352H279.793C279.793 19.9659 279.719 19.6364 279.571 19.3466C279.426 19.0568 279.219 18.8281 278.949 18.6605C278.682 18.4929 278.367 18.4091 278.003 18.4091C277.602 18.4091 277.256 18.5085 276.963 18.7074C276.673 18.9034 276.45 19.1591 276.294 19.4744C276.138 19.7898 276.06 20.1278 276.06 20.4886V21.0682C276.06 21.5625 276.145 21.9815 276.315 22.3253C276.489 22.6662 276.729 22.9261 277.036 23.1051C277.342 23.2812 277.699 23.3693 278.105 23.3693C278.369 23.3693 278.608 23.3324 278.821 23.2585C279.037 23.1818 279.223 23.0682 279.379 22.9176C279.536 22.7642 279.656 22.5739 279.742 22.3466L280.713 22.6193C280.611 22.9489 280.439 23.2386 280.198 23.4886C279.956 23.7358 279.658 23.929 279.303 24.0682C278.948 24.2045 278.548 24.2727 278.105 24.2727ZM283.351 20.1989V24.1364H282.345V17.5909H283.317V18.6136H283.402C283.555 18.2812 283.788 18.0142 284.101 17.8125C284.413 17.6079 284.817 17.5057 285.311 17.5057C285.754 17.5057 286.142 17.5966 286.475 17.7784C286.807 17.9574 287.065 18.2301 287.25 18.5966C287.435 18.9602 287.527 19.4204 287.527 19.9773V24.1364H286.521V20.0454C286.521 19.5312 286.388 19.1307 286.121 18.8437C285.854 18.554 285.487 18.4091 285.021 18.4091C284.7 18.4091 284.413 18.4787 284.161 18.6179C283.911 18.7571 283.713 18.9602 283.568 19.2273C283.423 19.4943 283.351 19.8182 283.351 20.1989ZM292.211 17.5909V18.4432H288.819V17.5909H292.211ZM289.808 16.0227H290.814V22.2614C290.814 22.5454 290.855 22.7585 290.937 22.9006C291.022 23.0398 291.13 23.1335 291.261 23.1818C291.395 23.2273 291.535 23.25 291.683 23.25C291.794 23.25 291.885 23.2443 291.956 23.2329C292.027 23.2187 292.084 23.2074 292.126 23.1989L292.331 24.1023C292.263 24.1278 292.167 24.1534 292.045 24.179C291.923 24.2074 291.768 24.2216 291.581 24.2216C291.297 24.2216 291.018 24.1605 290.745 24.0383C290.476 23.9162 290.251 23.7301 290.072 23.4801C289.896 23.2301 289.808 22.9148 289.808 22.5341V16.0227ZM301.736 19.0568L300.832 19.3125C300.775 19.1619 300.691 19.0156 300.581 18.8736C300.473 18.7287 300.325 18.6094 300.138 18.5156C299.95 18.4219 299.71 18.375 299.417 18.375C299.017 18.375 298.683 18.4673 298.416 18.652C298.152 18.8338 298.02 19.0653 298.02 19.3466C298.02 19.5966 298.111 19.794 298.292 19.9389C298.474 20.0838 298.758 20.2045 299.145 20.3011L300.116 20.5398C300.701 20.6818 301.138 20.8991 301.424 21.1918C301.711 21.4815 301.855 21.8551 301.855 22.3125C301.855 22.6875 301.747 23.0227 301.531 23.3182C301.318 23.6136 301.02 23.8466 300.636 24.017C300.253 24.1875 299.807 24.2727 299.298 24.2727C298.63 24.2727 298.078 24.1278 297.64 23.8381C297.203 23.5483 296.926 23.125 296.809 22.5682L297.764 22.3295C297.855 22.6818 298.027 22.946 298.28 23.1221C298.535 23.2983 298.869 23.3864 299.281 23.3864C299.75 23.3864 300.122 23.2869 300.397 23.0881C300.676 22.8864 300.815 22.6449 300.815 22.3636C300.815 22.1364 300.736 21.946 300.576 21.7926C300.417 21.6364 300.173 21.5199 299.843 21.4432L298.753 21.1875C298.153 21.0454 297.713 20.8253 297.432 20.527C297.153 20.2258 297.014 19.8494 297.014 19.3977C297.014 19.0284 297.118 18.7017 297.325 18.4176C297.535 18.1335 297.821 17.9105 298.182 17.7486C298.545 17.5866 298.957 17.5057 299.417 17.5057C300.065 17.5057 300.574 17.6477 300.943 17.9318C301.315 18.2159 301.579 18.5909 301.736 19.0568ZM306.215 17.5909V18.4432H302.823V17.5909H306.215ZM303.812 16.0227H304.818V22.2614C304.818 22.5454 304.859 22.7585 304.941 22.9006C305.026 23.0398 305.134 23.1335 305.265 23.1818C305.399 23.2273 305.539 23.25 305.687 23.25C305.798 23.25 305.889 23.2443 305.96 23.2329C306.031 23.2187 306.087 23.2074 306.13 23.1989L306.335 24.1023C306.266 24.1278 306.171 24.1534 306.049 24.179C305.927 24.2074 305.772 24.2216 305.585 24.2216C305.301 24.2216 305.022 24.1605 304.749 24.0383C304.479 23.9162 304.255 23.7301 304.076 23.4801C303.9 23.2301 303.812 22.9148 303.812 22.5341V16.0227ZM309.654 24.2898C309.239 24.2898 308.863 24.2116 308.525 24.0554C308.187 23.8963 307.918 23.6676 307.72 23.3693C307.521 23.0682 307.421 22.7045 307.421 22.2784C307.421 21.9034 307.495 21.5994 307.643 21.3665C307.791 21.1307 307.988 20.946 308.235 20.8125C308.482 20.679 308.755 20.5795 309.053 20.5142C309.354 20.446 309.657 20.392 309.961 20.3523C310.359 20.3011 310.681 20.2628 310.928 20.2372C311.178 20.2088 311.36 20.1619 311.474 20.0966C311.59 20.0312 311.649 19.9176 311.649 19.7557V19.7216C311.649 19.3011 311.533 18.9744 311.303 18.7415C311.076 18.5085 310.731 18.392 310.268 18.392C309.788 18.392 309.411 18.4971 309.139 18.7074C308.866 18.9176 308.674 19.142 308.563 19.3807L307.609 19.0398C307.779 18.642 308.006 18.3324 308.291 18.1108C308.578 17.8864 308.89 17.7301 309.228 17.642C309.569 17.5511 309.904 17.5057 310.234 17.5057C310.444 17.5057 310.685 17.5312 310.958 17.5824C311.234 17.6307 311.499 17.7315 311.755 17.8849C312.014 18.0383 312.228 18.2699 312.399 18.5795C312.569 18.8892 312.654 19.304 312.654 19.8239V24.1364H311.649V23.25H311.597C311.529 23.392 311.416 23.544 311.256 23.706C311.097 23.8679 310.886 24.0057 310.622 24.1193C310.357 24.2329 310.035 24.2898 309.654 24.2898ZM309.808 23.3864C310.205 23.3864 310.541 23.3082 310.813 23.152C311.089 22.9957 311.296 22.794 311.435 22.5469C311.578 22.2997 311.649 22.0398 311.649 21.767V20.8466C311.606 20.8977 311.512 20.9446 311.367 20.9872C311.225 21.027 311.06 21.0625 310.873 21.0937C310.688 21.1221 310.508 21.1477 310.332 21.1704C310.158 21.1903 310.018 21.2074 309.91 21.2216C309.649 21.2557 309.404 21.3111 309.177 21.3878C308.953 21.4616 308.771 21.5739 308.631 21.7244C308.495 21.8721 308.427 22.0739 308.427 22.3295C308.427 22.679 308.556 22.9432 308.815 23.1221C309.076 23.2983 309.407 23.3864 309.808 23.3864ZM317.149 24.2727C316.535 24.2727 316.007 24.1278 315.564 23.8381C315.12 23.5483 314.78 23.1491 314.541 22.6406C314.302 22.1321 314.183 21.5511 314.183 20.8977C314.183 20.2329 314.305 19.6463 314.549 19.1378C314.797 18.6264 315.14 18.2273 315.581 17.9403C316.024 17.6506 316.541 17.5057 317.132 17.5057C317.592 17.5057 318.007 17.5909 318.376 17.7614C318.745 17.9318 319.048 18.1704 319.284 18.4773C319.52 18.7841 319.666 19.142 319.723 19.5511H318.717C318.64 19.2528 318.47 18.9886 318.206 18.7585C317.944 18.5256 317.592 18.4091 317.149 18.4091C316.757 18.4091 316.413 18.5114 316.118 18.7159C315.825 18.9176 315.596 19.2031 315.432 19.5724C315.27 19.9389 315.189 20.3693 315.189 20.8636C315.189 21.3693 315.268 21.8096 315.427 22.1846C315.589 22.5596 315.816 22.8508 316.109 23.0582C316.405 23.2656 316.751 23.3693 317.149 23.3693C317.41 23.3693 317.647 23.3239 317.861 23.2329C318.074 23.142 318.254 23.0114 318.402 22.8409C318.549 22.6704 318.655 22.4659 318.717 22.2273H319.723C319.666 22.6136 319.525 22.9616 319.301 23.2713C319.079 23.5781 318.785 23.8224 318.419 24.0043C318.055 24.1832 317.632 24.2727 317.149 24.2727ZM322.13 21.75L322.113 20.5057H322.318L325.182 17.5909H326.426L323.375 20.6761H323.29L322.13 21.75ZM321.193 24.1364V15.4091H322.199V24.1364H321.193ZM325.352 24.1364L322.795 20.8977L323.511 20.1989L326.63 24.1364H325.352ZM327.72 24.1364V17.5909H328.726V24.1364H327.72ZM328.232 16.5C328.036 16.5 327.867 16.4332 327.725 16.2997C327.585 16.1662 327.516 16.0057 327.516 15.8182C327.516 15.6307 327.585 15.4702 327.725 15.3366C327.867 15.2031 328.036 15.1364 328.232 15.1364C328.428 15.1364 328.595 15.2031 328.734 15.3366C328.877 15.4702 328.948 15.6307 328.948 15.8182C328.948 16.0057 328.877 16.1662 328.734 16.2997C328.595 16.4332 328.428 16.5 328.232 16.5ZM331.574 20.1989V24.1364H330.568V17.5909H331.54V18.6136H331.625C331.778 18.2812 332.011 18.0142 332.324 17.8125C332.636 17.6079 333.04 17.5057 333.534 17.5057C333.977 17.5057 334.365 17.5966 334.697 17.7784C335.03 17.9574 335.288 18.2301 335.473 18.5966C335.657 18.9602 335.75 19.4204 335.75 19.9773V24.1364H334.744V20.0454C334.744 19.5312 334.611 19.1307 334.343 18.8437C334.076 18.554 333.71 18.4091 333.244 18.4091C332.923 18.4091 332.636 18.4787 332.383 18.6179C332.133 18.7571 331.936 18.9602 331.791 19.2273C331.646 19.4943 331.574 19.8182 331.574 20.1989ZM340.229 26.7273C339.744 26.7273 339.326 26.6648 338.977 26.5398C338.627 26.4176 338.336 26.2557 338.103 26.054C337.873 25.8551 337.69 25.642 337.553 25.4148L338.354 24.8523C338.445 24.9716 338.56 25.1079 338.7 25.2614C338.839 25.4176 339.029 25.5525 339.271 25.6662C339.515 25.7827 339.835 25.8409 340.229 25.8409C340.758 25.8409 341.194 25.7131 341.538 25.4574C341.881 25.2017 342.053 24.8011 342.053 24.2557V22.9261H341.968C341.894 23.0454 341.789 23.1932 341.653 23.3693C341.519 23.5426 341.326 23.6974 341.073 23.8338C340.823 23.9673 340.485 24.0341 340.059 24.0341C339.531 24.0341 339.056 23.9091 338.636 23.6591C338.218 23.4091 337.887 23.0454 337.643 22.5682C337.401 22.0909 337.281 21.5114 337.281 20.8295C337.281 20.1591 337.399 19.5753 337.634 19.0781C337.87 18.5781 338.198 18.1918 338.619 17.919C339.039 17.6435 339.525 17.5057 340.076 17.5057C340.502 17.5057 340.84 17.5767 341.09 17.7187C341.343 17.8579 341.536 18.017 341.67 18.196C341.806 18.3721 341.911 18.517 341.985 18.6307H342.087V17.5909H343.059V24.3239C343.059 24.8864 342.931 25.3437 342.676 25.696C342.423 26.0511 342.082 26.3111 341.653 26.4758C341.227 26.6435 340.752 26.7273 340.229 26.7273ZM340.195 23.1307C340.599 23.1307 340.94 23.0383 341.218 22.8537C341.497 22.669 341.708 22.4034 341.853 22.0568C341.998 21.7102 342.07 21.2954 342.07 20.8125C342.07 20.3409 341.999 19.9247 341.857 19.5639C341.715 19.2031 341.505 18.9204 341.227 18.7159C340.948 18.5114 340.604 18.4091 340.195 18.4091C339.769 18.4091 339.414 18.517 339.13 18.7329C338.849 18.9489 338.637 19.2386 338.495 19.6023C338.356 19.9659 338.286 20.3693 338.286 20.8125C338.286 21.267 338.357 21.669 338.499 22.0185C338.644 22.365 338.857 22.6378 339.139 22.8366C339.423 23.0327 339.775 23.1307 340.195 23.1307ZM345.633 24.2045C345.423 24.2045 345.242 24.1293 345.092 23.9787C344.941 23.8281 344.866 23.6477 344.866 23.4375C344.866 23.2273 344.941 23.0469 345.092 22.8963C345.242 22.7457 345.423 22.6704 345.633 22.6704C345.843 22.6704 346.024 22.7457 346.174 22.8963C346.325 23.0469 346.4 23.2273 346.4 23.4375C346.4 23.5767 346.364 23.7045 346.293 23.821C346.225 23.9375 346.133 24.0312 346.016 24.1023C345.903 24.1704 345.775 24.2045 345.633 24.2045Z" fill="white"/>
</svg>
