<svg width="68" height="19" viewBox="0 0 68 19" fill="none" xmlns="http://www.w3.org/2000/svg">
<path d="M9.5 0.5H58.167C63.1374 0.500175 67.167 4.52955 67.167 9.5C67.167 14.4705 63.1374 18.4998 58.167 18.5H9.5C4.52944 18.5 0.5 14.4706 0.5 9.5C0.5 4.52944 4.52944 0.5 9.5 0.5Z" stroke="#3FA9A7"/>
<path d="M6.86044 12L6.86044 7.63636L9.49396 7.63636L9.49396 8.10511L7.38885 8.10511L7.38885 9.57955L9.3576 9.57955L9.3576 10.0483L7.38885 10.0483L7.38885 11.5312L9.52805 11.5312L9.52805 12L6.86044 12ZM10.4532 8.72727L11.2373 10.0653L12.0214 8.72727L12.6009 8.72727L11.5441 10.3636L12.6009 12L12.0214 12L11.2373 10.7301L10.4532 12L9.87365 12L10.9134 10.3636L9.87365 8.72727L10.4532 8.72727ZM13.0184 13.2273L13.0184 8.72727L13.5042 8.72727L13.5042 9.24716L13.5639 9.24716C13.6008 9.19034 13.652 9.1179 13.7173 9.02983C13.7841 8.94034 13.8792 8.8608 14.0028 8.79119C14.1278 8.72017 14.2968 8.68466 14.5099 8.68466C14.7855 8.68466 15.0284 8.75355 15.2386 8.89134C15.4488 9.02912 15.6129 9.22443 15.7308 9.47727C15.8487 9.73011 15.9076 10.0284 15.9076 10.3722C15.9076 10.7187 15.8487 11.0192 15.7308 11.2734C15.6129 11.5263 15.4495 11.7223 15.2407 11.8615C15.0319 11.9993 14.7912 12.0682 14.5184 12.0682C14.3082 12.0682 14.1399 12.0334 14.0135 11.9638C13.887 11.8928 13.7897 11.8125 13.7216 11.723C13.6534 11.6321 13.6008 11.5568 13.5639 11.4972L13.5213 11.4972L13.5213 13.2273L13.0184 13.2273ZM13.5127 10.3636C13.5127 10.6108 13.549 10.8288 13.6214 11.0178C13.6939 11.2053 13.7997 11.3523 13.9389 11.4588C14.0781 11.5639 14.2485 11.6165 14.4502 11.6165C14.6605 11.6165 14.8359 11.5611 14.9765 11.4503C15.1186 11.3381 15.2251 11.1875 15.2961 10.9986C15.3686 10.8082 15.4048 10.5966 15.4048 10.3636C15.4048 10.1335 15.3693 9.92614 15.2983 9.74148C15.2287 9.5554 15.1228 9.40838 14.9808 9.30043C14.8402 9.19105 14.6633 9.13636 14.4502 9.13636C14.2457 9.13636 14.0738 9.18821 13.9346 9.2919C13.7954 9.39418 13.6903 9.53764 13.6193 9.7223C13.5483 9.90554 13.5127 10.1193 13.5127 10.3636ZM17.7042 12.0682C17.4088 12.0682 17.1495 11.9979 16.9265 11.8572C16.7049 11.7166 16.5316 11.5199 16.4066 11.267C16.2831 11.0142 16.2213 10.7187 16.2213 10.3807C16.2213 10.0398 16.2831 9.74219 16.4066 9.48793C16.5316 9.23366 16.7049 9.03622 16.9265 8.8956C17.1495 8.75497 17.4088 8.68466 17.7042 8.68466C17.9997 8.68466 18.2582 8.75497 18.4798 8.8956C18.7028 9.03622 18.8761 9.23366 18.9997 9.48793C19.1247 9.74219 19.1872 10.0398 19.1872 10.3807C19.1872 10.7187 19.1247 11.0142 18.9997 11.267C18.8761 11.5199 18.7028 11.7166 18.4798 11.8572C18.2582 11.9979 17.9997 12.0682 17.7042 12.0682ZM17.7042 11.6165C17.9287 11.6165 18.1133 11.5589 18.2582 11.4439C18.4031 11.3288 18.5103 11.1776 18.5799 10.9901C18.6495 10.8026 18.6843 10.5994 18.6843 10.3807C18.6843 10.1619 18.6495 9.9581 18.5799 9.76918C18.5103 9.58026 18.4031 9.42756 18.2582 9.31108C18.1133 9.1946 17.9287 9.13636 17.7042 9.13636C17.4798 9.13636 17.2951 9.1946 17.1502 9.31108C17.0054 9.42756 16.8981 9.58026 16.8285 9.76918C16.7589 9.9581 16.7241 10.1619 16.7241 10.3807C16.7241 10.5994 16.7589 10.8026 16.8285 10.9901C16.8981 11.1776 17.0054 11.3288 17.1502 11.4439C17.2951 11.5589 17.4798 11.6165 17.7042 11.6165ZM19.6548 12L19.6548 8.72727L20.1406 8.72727L20.1406 9.22159L20.1746 9.22159C20.2343 9.05966 20.3423 8.92827 20.4985 8.82741C20.6548 8.72656 20.8309 8.67614 21.0269 8.67614C21.0638 8.67614 21.11 8.67685 21.1654 8.67827C21.2208 8.67969 21.2627 8.68182 21.2911 8.68466L21.2911 9.19602C21.2741 9.19176 21.235 9.18537 21.1739 9.17685C21.1143 9.1669 21.0511 9.16193 20.9843 9.16193C20.8252 9.16193 20.6832 9.19531 20.5582 9.26207C20.4346 9.32741 20.3366 9.41832 20.2641 9.5348C20.1931 9.64986 20.1576 9.78125 20.1576 9.92898L20.1576 12L19.6548 12ZM23.2156 8.72727L23.2156 9.15341L21.5195 9.15341L21.5195 8.72727L23.2156 8.72727ZM22.0138 7.94318L22.5167 7.94318L22.5167 11.0625C22.5167 11.2045 22.5373 11.3111 22.5785 11.3821C22.6211 11.4517 22.6751 11.4986 22.7404 11.5227C22.8072 11.5455 22.8775 11.5568 22.9513 11.5568C23.0067 11.5568 23.0522 11.554 23.0877 11.5483C23.1232 11.5412 23.1516 11.5355 23.1729 11.5312L23.2752 11.983C23.2411 11.9957 23.1935 12.0085 23.1325 12.0213C23.0714 12.0355 22.994 12.0426 22.9002 12.0426C22.7582 12.0426 22.619 12.0121 22.4826 11.951C22.3477 11.8899 22.2354 11.7969 22.146 11.6719C22.0579 11.5469 22.0138 11.3892 22.0138 11.1989L22.0138 7.94318ZM25.1276 12L25.1276 7.63636L27.7441 7.63636L27.7441 8.10511L25.656 8.10511L25.656 9.57955L27.5481 9.57955L27.5481 10.0483L25.656 10.0483L25.656 12L25.1276 12ZM30.1384 10.6619L30.1384 8.72727L30.6412 8.72727L30.6412 12L30.1384 12L30.1384 11.446L30.1043 11.446C30.0276 11.6122 29.9082 11.7536 29.7463 11.87C29.5844 11.9851 29.3798 12.0426 29.1327 12.0426C28.9281 12.0426 28.7463 11.9979 28.5872 11.9084C28.4281 11.8175 28.3031 11.6811 28.2122 11.4993C28.1213 11.3161 28.0759 11.0852 28.0759 10.8068L28.0759 8.72727L28.5787 8.72727L28.5787 10.7727C28.5787 11.0114 28.6455 11.2017 28.779 11.3437C28.9139 11.4858 29.0858 11.5568 29.2946 11.5568C29.4196 11.5568 29.5467 11.5249 29.676 11.4609C29.8067 11.397 29.9161 11.299 30.0041 11.1669C30.0936 11.0348 30.1384 10.8665 30.1384 10.6619ZM31.765 7.63636L31.765 12L31.2622 12L31.2622 7.63636L31.765 7.63636ZM32.8888 7.63636L32.8888 12L32.386 12L32.386 7.63636L32.8888 7.63636ZM38.4769 9L37.9485 9C37.9172 8.84801 37.8625 8.71449 37.7844 8.59943C37.7077 8.48437 37.614 8.38778 37.5032 8.30966C37.3938 8.23011 37.2723 8.17045 37.1388 8.13068C37.0053 8.09091 36.8661 8.07102 36.7212 8.07102C36.457 8.07102 36.2176 8.13778 36.0032 8.27131C35.7901 8.40483 35.6203 8.60156 35.4939 8.86151C35.3689 9.12145 35.3064 9.44034 35.3064 9.81818C35.3064 10.196 35.3689 10.5149 35.4939 10.7749C35.6203 11.0348 35.7901 11.2315 36.0032 11.3651C36.2176 11.4986 36.457 11.5653 36.7212 11.5653C36.8661 11.5653 37.0053 11.5455 37.1388 11.5057C37.2723 11.4659 37.3938 11.407 37.5032 11.3288C37.614 11.2493 37.7077 11.152 37.7844 11.0369C37.8625 10.9205 37.9172 10.7869 37.9485 10.6364L38.4769 10.6364C38.4371 10.8594 38.3647 11.0589 38.2596 11.2351C38.1544 11.4112 38.0238 11.5611 37.8675 11.6847C37.7113 11.8068 37.5358 11.8999 37.3412 11.9638C37.148 12.0277 36.9414 12.0597 36.7212 12.0597C36.349 12.0597 36.0181 11.9687 35.7283 11.7869C35.4385 11.6051 35.2105 11.3466 35.0444 11.0114C34.8782 10.6761 34.7951 10.2784 34.7951 9.81818C34.7951 9.35795 34.8782 8.96023 35.0444 8.625C35.2105 8.28977 35.4385 8.03125 35.7283 7.84943C36.0181 7.66761 36.349 7.5767 36.7212 7.5767C36.9414 7.5767 37.148 7.60866 37.3412 7.67259C37.5358 7.73651 37.7113 7.83026 37.8675 7.95384C38.0238 8.07599 38.1544 8.22514 38.2596 8.40128C38.3647 8.57599 38.4371 8.77557 38.4769 9ZM39.9256 12.0767C39.7183 12.0767 39.53 12.0376 39.361 11.9595C39.192 11.88 39.0577 11.7656 38.9583 11.6165C38.8589 11.4659 38.8092 11.2841 38.8092 11.071C38.8092 10.8835 38.8461 10.7315 38.92 10.6151C38.9938 10.4972 39.0925 10.4048 39.2161 10.3381C39.3397 10.2713 39.4761 10.2216 39.6252 10.1889C39.7758 10.1548 39.9271 10.1278 40.079 10.108C40.2779 10.0824 40.4391 10.0632 40.5627 10.0504C40.6877 10.0362 40.7786 10.0128 40.8354 9.98011C40.8937 9.94744 40.9228 9.89062 40.9228 9.80966L40.9228 9.79261C40.9228 9.58239 40.8653 9.41903 40.7502 9.30256C40.6366 9.18608 40.464 9.12784 40.2325 9.12784C39.9924 9.12784 39.8042 9.1804 39.6678 9.28551C39.5315 9.39062 39.4356 9.50284 39.3802 9.62216L38.9029 9.4517C38.9881 9.25284 39.1018 9.09801 39.2438 8.98722C39.3873 8.875 39.5435 8.79687 39.7126 8.75284C39.883 8.70739 40.0506 8.68466 40.2154 8.68466C40.3205 8.68466 40.4413 8.69744 40.5776 8.72301C40.7154 8.74716 40.8482 8.79759 40.9761 8.87429C41.1053 8.95099 41.2126 9.06676 41.2978 9.22159C41.383 9.37642 41.4256 9.58381 41.4256 9.84375L41.4256 12L40.9228 12L40.9228 11.5568L40.8972 11.5568C40.8631 11.6278 40.8063 11.7038 40.7268 11.7848C40.6472 11.8658 40.5414 11.9347 40.4093 11.9915C40.2772 12.0483 40.116 12.0767 39.9256 12.0767ZM40.0023 11.625C40.2012 11.625 40.3688 11.5859 40.5052 11.5078C40.643 11.4297 40.7467 11.3288 40.8163 11.2053C40.8873 11.0817 40.9228 10.9517 40.9228 10.8153L40.9228 10.3551C40.9015 10.3807 40.8546 10.4041 40.7822 10.4254C40.7111 10.4453 40.6288 10.4631 40.535 10.4787C40.4427 10.4929 40.3525 10.5057 40.2644 10.517C40.1778 10.527 40.1075 10.5355 40.0535 10.5426C39.9228 10.5597 39.8006 10.5874 39.687 10.6257C39.5748 10.6626 39.4839 10.7187 39.4143 10.794C39.3461 10.8679 39.312 10.9687 39.312 11.0966C39.312 11.2713 39.3766 11.4034 39.5059 11.4929C39.6366 11.581 39.8021 11.625 40.0023 11.625ZM43.4667 8.72727L43.4667 9.15341L41.7707 9.15341L41.7707 8.72727L43.4667 8.72727ZM42.265 7.94318L42.7679 7.94318L42.7679 11.0625C42.7679 11.2045 42.7885 11.3111 42.8297 11.3821C42.8723 11.4517 42.9262 11.4986 42.9916 11.5227C43.0583 11.5455 43.1287 11.5568 43.2025 11.5568C43.2579 11.5568 43.3034 11.554 43.3389 11.5483C43.3744 11.5412 43.4028 11.5355 43.4241 11.5312L43.5264 11.983C43.4923 11.9957 43.4447 12.0085 43.3836 12.0213C43.3225 12.0355 43.2451 12.0426 43.1514 12.0426C43.0093 12.0426 42.8701 12.0121 42.7338 11.951C42.5988 11.8899 42.4866 11.7969 42.3971 11.6719C42.3091 11.5469 42.265 11.3892 42.265 11.1989L42.265 7.94318ZM44.8862 12.0767C44.6788 12.0767 44.4906 12.0376 44.3216 11.9595C44.1525 11.88 44.0183 11.7656 43.9189 11.6165C43.8194 11.4659 43.7697 11.2841 43.7697 11.071C43.7697 10.8835 43.8066 10.7315 43.8805 10.6151C43.9544 10.4972 44.0531 10.4048 44.1767 10.3381C44.3002 10.2713 44.4366 10.2216 44.5858 10.1889C44.7363 10.1548 44.8876 10.1278 45.0396 10.108C45.2385 10.0824 45.3997 10.0632 45.5233 10.0504C45.6483 10.0362 45.7392 10.0128 45.796 9.98011C45.8542 9.94744 45.8833 9.89062 45.8833 9.80966L45.8833 9.79261C45.8833 9.58239 45.8258 9.41903 45.7108 9.30256C45.5971 9.18608 45.4245 9.12784 45.193 9.12784C44.9529 9.12784 44.7647 9.1804 44.6284 9.28551C44.492 9.39062 44.3961 9.50284 44.3407 9.62216L43.8635 9.4517C43.9487 9.25284 44.0623 9.09801 44.2044 8.98722C44.3478 8.875 44.5041 8.79687 44.6731 8.75284C44.8436 8.70739 45.0112 8.68466 45.176 8.68466C45.2811 8.68466 45.4018 8.69744 45.5382 8.72301C45.676 8.74716 45.8088 8.79759 45.9366 8.87429C46.0659 8.95099 46.1731 9.06676 46.2583 9.22159C46.3436 9.37642 46.3862 9.58381 46.3862 9.84375L46.3862 12L45.8833 12L45.8833 11.5568L45.8578 11.5568C45.8237 11.6278 45.7669 11.7038 45.6873 11.7848C45.6078 11.8658 45.502 11.9347 45.3699 11.9915C45.2377 12.0483 45.0765 12.0767 44.8862 12.0767ZM44.9629 11.625C45.1618 11.625 45.3294 11.5859 45.4657 11.5078C45.6035 11.4297 45.7072 11.3288 45.7768 11.2053C45.8478 11.0817 45.8833 10.9517 45.8833 10.8153L45.8833 10.3551C45.862 10.3807 45.8152 10.4041 45.7427 10.4254C45.6717 10.4453 45.5893 10.4631 45.4956 10.4787C45.4032 10.4929 45.313 10.5057 45.225 10.517C45.1383 10.527 45.068 10.5355 45.014 10.5426C44.8833 10.5597 44.7612 10.5874 44.6475 10.6257C44.5353 10.6626 44.4444 10.7187 44.3748 10.794C44.3066 10.8679 44.2725 10.9687 44.2725 11.0966C44.2725 11.2713 44.3372 11.4034 44.4664 11.4929C44.5971 11.581 44.7626 11.625 44.9629 11.625ZM47.5068 7.63636L47.5068 12L47.004 12L47.004 7.63636L47.5068 7.63636ZM49.4574 12.0682C49.1619 12.0682 48.9027 11.9979 48.6797 11.8572C48.4581 11.7166 48.2848 11.5199 48.1598 11.267C48.0362 11.0142 47.9744 10.7187 47.9744 10.3807C47.9744 10.0398 48.0362 9.74219 48.1598 9.48793C48.2848 9.23366 48.4581 9.03622 48.6797 8.8956C48.9027 8.75497 49.1619 8.68466 49.4574 8.68466C49.7528 8.68466 50.0113 8.75497 50.2329 8.8956C50.4559 9.03622 50.6292 9.23366 50.7528 9.48793C50.8778 9.74219 50.9403 10.0398 50.9403 10.3807C50.9403 10.7187 50.8778 11.0142 50.7528 11.267C50.6292 11.5199 50.4559 11.7166 50.2329 11.8572C50.0113 11.9979 49.7528 12.0682 49.4574 12.0682ZM49.4574 11.6165C49.6818 11.6165 49.8664 11.5589 50.0113 11.4439C50.1562 11.3288 50.2635 11.1776 50.3331 10.9901C50.4027 10.8026 50.4375 10.5994 50.4375 10.3807C50.4375 10.1619 50.4027 9.9581 50.3331 9.76918C50.2635 9.58026 50.1562 9.42756 50.0113 9.31108C49.8664 9.1946 49.6818 9.13636 49.4574 9.13636C49.2329 9.13636 49.0483 9.1946 48.9034 9.31108C48.7585 9.42756 48.6512 9.58026 48.5816 9.76918C48.512 9.9581 48.4772 10.1619 48.4772 10.3807C48.4772 10.5994 48.512 10.8026 48.5816 10.9901C48.6512 11.1776 48.7585 11.3288 48.9034 11.4439C49.0483 11.5589 49.2329 11.6165 49.4574 11.6165ZM52.7289 13.2955C52.486 13.2955 52.2772 13.2642 52.1025 13.2017C51.9278 13.1406 51.7822 13.0597 51.6657 12.9588C51.5506 12.8594 51.459 12.7528 51.3908 12.6392L51.7914 12.358C51.8369 12.4176 51.8944 12.4858 51.964 12.5625C52.0336 12.6406 52.1288 12.7081 52.2495 12.7649C52.3717 12.8232 52.5315 12.8523 52.7289 12.8523C52.9931 12.8523 53.2111 12.7884 53.383 12.6605C53.5549 12.5327 53.6408 12.3324 53.6408 12.0597L53.6408 11.3949L53.5982 11.3949C53.5613 11.4545 53.5087 11.5284 53.4406 11.6165C53.3738 11.7031 53.2772 11.7805 53.1508 11.8487C53.0258 11.9155 52.8567 11.9489 52.6437 11.9489C52.3795 11.9489 52.1423 11.8864 51.932 11.7614C51.7232 11.6364 51.5577 11.4545 51.4356 11.2159C51.3148 10.9773 51.2545 10.6875 51.2545 10.3466C51.2545 10.0114 51.3134 9.71946 51.4313 9.47088C51.5492 9.22088 51.7133 9.0277 51.9235 8.89134C52.1337 8.75355 52.3766 8.68466 52.6522 8.68466C52.8653 8.68466 53.0343 8.72017 53.1593 8.79119C53.2857 8.8608 53.3823 8.94034 53.4491 9.02983C53.5173 9.1179 53.5698 9.19034 53.6067 9.24716L53.6579 9.24716L53.6579 8.72727L54.1437 8.72727L54.1437 12.0937C54.1437 12.375 54.0798 12.6037 53.9519 12.7798C53.8255 12.9574 53.655 13.0874 53.4406 13.1697C53.2275 13.2536 52.9903 13.2955 52.7289 13.2955ZM52.7119 11.4972C52.9136 11.4972 53.084 11.451 53.2232 11.3587C53.3624 11.2663 53.4683 11.1335 53.5407 10.9602C53.6131 10.7869 53.6494 10.5795 53.6494 10.3381C53.6494 10.1023 53.6138 9.89418 53.5428 9.71378C53.4718 9.53338 53.3667 9.39205 53.2275 9.28977C53.0883 9.1875 52.9164 9.13636 52.7119 9.13636C52.4988 9.13636 52.3212 9.19034 52.1792 9.2983C52.0386 9.40625 51.9327 9.55114 51.8617 9.73295C51.7921 9.91477 51.7573 10.1165 51.7573 10.3381C51.7573 10.5653 51.7928 10.7663 51.8638 10.9411C51.9363 11.1143 52.0428 11.2507 52.1835 11.3501C52.3255 11.4482 52.5016 11.4972 52.7119 11.4972ZM56.8266 10.6619L56.8266 8.72727L57.3295 8.72727L57.3295 12L56.8266 12L56.8266 11.446L56.7925 11.446C56.7158 11.6122 56.5965 11.7536 56.4346 11.87C56.2727 11.9851 56.0681 12.0426 55.821 12.0426C55.6164 12.0426 55.4346 11.9979 55.2755 11.9084C55.1164 11.8175 54.9914 11.6811 54.9005 11.4993C54.8096 11.3161 54.7641 11.0852 54.7641 10.8068L54.7641 8.72727L55.267 8.72727L55.267 10.7727C55.267 11.0114 55.3337 11.2017 55.4673 11.3437C55.6022 11.4858 55.7741 11.5568 55.9829 11.5568C56.1079 11.5568 56.235 11.5249 56.3643 11.4609C56.495 11.397 56.6043 11.299 56.6924 11.1669C56.7819 11.0348 56.8266 10.8665 56.8266 10.6619ZM59.3226 12.0682C59.0073 12.0682 58.7353 11.9986 58.5066 11.8594C58.2793 11.7187 58.1039 11.5227 57.9803 11.2713C57.8581 11.0185 57.7971 10.7244 57.7971 10.3892C57.7971 10.054 57.8581 9.75852 57.9803 9.50284C58.1039 9.24574 58.2757 9.04545 58.4959 8.90199C58.7175 8.7571 58.976 8.68466 59.2715 8.68466C59.4419 8.68466 59.6103 8.71307 59.7765 8.76989C59.9426 8.8267 60.0939 8.91903 60.2303 9.04687C60.3667 9.1733 60.4753 9.34091 60.5563 9.54972C60.6373 9.75852 60.6777 10.0156 60.6777 10.321L60.6777 10.5341L58.155 10.5341L58.155 10.0994L60.1664 10.0994C60.1664 9.91477 60.1294 9.75 60.0556 9.60511C59.9831 9.46023 59.8794 9.34588 59.7445 9.26207C59.611 9.17827 59.4533 9.13636 59.2715 9.13636C59.0712 9.13636 58.8979 9.18608 58.7516 9.28551C58.6067 9.38352 58.4952 9.51136 58.4171 9.66903C58.339 9.8267 58.2999 9.99574 58.2999 10.1761L58.2999 10.4659C58.2999 10.7131 58.3425 10.9226 58.4277 11.0945C58.5144 11.2649 58.6344 11.3949 58.7878 11.4844C58.9412 11.5724 59.1195 11.6165 59.3226 11.6165C59.4547 11.6165 59.574 11.598 59.6806 11.5611C59.7885 11.5227 59.8816 11.4659 59.9597 11.3906C60.0378 11.3139 60.0982 11.2187 60.1408 11.1051L60.6266 11.2415C60.5755 11.4062 60.4895 11.5511 60.3688 11.6761C60.248 11.7997 60.0989 11.8963 59.9213 11.9659C59.7438 12.0341 59.5442 12.0682 59.3226 12.0682Z" fill="#3FA9A7"/>
</svg>
