<svg width="146" height="30" viewBox="0 0 146 30" fill="none" xmlns="http://www.w3.org/2000/svg">
<path d="M12.3594 12.1102V8.39481C12.3594 7.5189 12.3594 7.08141 12.6315 6.80926C12.9037 6.53711 13.3412 6.53711 14.2171 6.53711H19.7902C20.6661 6.53711 21.1036 6.53711 21.3757 6.80926C21.6479 7.08141 21.6479 7.5189 21.6479 8.39481V12.1102C21.6479 12.9861 21.6479 13.4236 21.3757 13.6957C21.1036 13.9679 20.6661 13.9679 19.7902 13.9679H14.2171C13.3412 13.9679 12.9037 13.9679 12.6315 13.6957C12.3594 13.4236 12.3594 12.9861 12.3594 12.1102Z" stroke="#5D5A5A" stroke-width="0.696637" stroke-linecap="round"/>
<path d="M20.2539 7.93387V7.92969M20.2539 9.32482V9.3211M20.2539 10.7162V10.7121" stroke="#5D5A5A" stroke-width="0.696637" stroke-linecap="round" stroke-linejoin="round"/>
<path d="M13.7539 11.6451V8.85854C13.7539 8.42058 13.7539 8.20184 13.89 8.06576C14.0261 7.92969 14.2448 7.92969 14.6828 7.92969H17.9337C18.3717 7.92969 18.5904 7.92969 18.7265 8.06576C18.8626 8.20184 18.8626 8.42058 18.8626 8.85854V11.6451C18.8626 12.083 18.8626 12.3018 18.7265 12.4379C18.5904 12.5739 18.3717 12.5739 17.9337 12.5739H14.6828C14.2448 12.5739 14.0261 12.5739 13.89 12.4379C13.7539 12.3018 13.7539 12.083 13.7539 11.6451Z" stroke="#5D5A5A" stroke-width="0.696637" stroke-linejoin="round"/>
<path d="M13.7539 13.9688V14.8976M20.2558 13.9688V14.8976" stroke="#5D5A5A" stroke-width="0.696637" stroke-linecap="round"/>
<path d="M3.57375 24.258L3.06381 27.1504H2.68344L3.06381 24.9936L1.72209 27.1504H1.45458L0.869403 25.002L0.489039 27.1504H0.108675L0.622793 24.258H1.03242L1.68029 26.6488L3.1683 24.258H3.57375ZM4.37346 24.4878C4.31216 24.4878 4.26061 24.4683 4.21881 24.4293C4.1798 24.3875 4.16029 24.336 4.16029 24.2747C4.16029 24.1911 4.19095 24.12 4.25225 24.0615C4.31355 24.0002 4.38461 23.9695 4.46542 23.9695C4.52951 23.9695 4.58106 23.9891 4.62007 24.0281C4.65909 24.0671 4.67859 24.1186 4.67859 24.1827C4.67859 24.2663 4.64794 24.3388 4.58663 24.4001C4.52533 24.4586 4.45427 24.4878 4.37346 24.4878ZM4.49468 24.8598L4.08924 27.1504H3.70887L4.11432 24.8598H4.49468ZM4.79602 26.0009C4.83782 25.7641 4.92141 25.5579 5.04681 25.3823C5.17499 25.204 5.33243 25.0661 5.51913 24.9685C5.70583 24.871 5.90785 24.8222 6.1252 24.8222C6.40664 24.8222 6.62539 24.8905 6.78143 25.027C6.94027 25.1636 7.02804 25.3531 7.04476 25.5955H6.63514C6.62121 25.4562 6.56408 25.3461 6.46377 25.2653C6.36624 25.1845 6.23388 25.1441 6.06668 25.1441C5.84933 25.1441 5.65985 25.2193 5.49823 25.3698C5.33939 25.5175 5.23629 25.7279 5.18892 26.0009C5.17499 26.0929 5.16802 26.1695 5.16802 26.2308C5.16802 26.4342 5.22236 26.5917 5.33103 26.7031C5.43971 26.8118 5.58461 26.8662 5.76574 26.8662C5.93293 26.8662 6.07783 26.8272 6.20044 26.7491C6.32583 26.6711 6.42197 26.5596 6.48884 26.4147H6.89847C6.79815 26.6488 6.6435 26.8369 6.43451 26.979C6.22552 27.1183 5.98309 27.188 5.70722 27.188C5.4202 27.188 5.19171 27.1058 5.02173 26.9414C4.85454 26.777 4.77094 26.5527 4.77094 26.2684C4.77094 26.1821 4.7793 26.0929 4.79602 26.0009ZM7.98698 25.2946C8.07894 25.1441 8.19458 25.027 8.33391 24.9434C8.47324 24.8598 8.63207 24.8181 8.81041 24.8181L8.73935 25.211H8.63904C8.44119 25.211 8.27539 25.2639 8.14164 25.3698C8.01067 25.4757 7.92289 25.654 7.87831 25.9048L7.65678 27.1504H7.27641L7.68186 24.8598H8.06222L7.98698 25.2946ZM9.84302 27.188C9.65075 27.188 9.48077 27.149 9.33308 27.071C9.18818 26.9902 9.07533 26.8787 8.99452 26.7366C8.91371 26.5917 8.8733 26.4245 8.8733 26.235C8.8733 25.9759 8.93321 25.739 9.05303 25.5244C9.17286 25.3071 9.33726 25.1357 9.54625 25.0103C9.75803 24.8849 9.99349 24.8222 10.2526 24.8222C10.4449 24.8222 10.6149 24.8626 10.7626 24.9434C10.9131 25.0215 11.0287 25.1329 11.1095 25.2778C11.1931 25.4199 11.2349 25.5871 11.2349 25.7794C11.2349 26.0386 11.1736 26.2754 11.051 26.49C10.9284 26.7045 10.7612 26.8745 10.5494 26.9999C10.3376 27.1253 10.1022 27.188 9.84302 27.188ZM9.889 26.8662C10.0701 26.8662 10.2331 26.8174 10.378 26.7199C10.5229 26.6196 10.6358 26.4886 10.7166 26.327C10.8002 26.1626 10.842 25.987 10.842 25.8003C10.842 25.5885 10.7807 25.4269 10.6581 25.3154C10.5355 25.2012 10.3822 25.1441 10.1983 25.1441C10.0172 25.1441 9.85556 25.1942 9.71345 25.2946C9.57133 25.3921 9.46126 25.523 9.38324 25.6875C9.30522 25.8519 9.2662 26.0288 9.2662 26.2183C9.2662 26.4245 9.32472 26.5847 9.44176 26.699C9.55879 26.8104 9.70787 26.8662 9.889 26.8662ZM14.966 24.8598L13.8458 27.1504H13.4529L13.2272 25.328L12.3494 27.1504H11.9565L11.6431 24.8598H12.0318L12.2199 26.7826L13.1227 24.8598H13.5156L13.733 26.77L14.5898 24.8598H14.966ZM14.9966 25.9968C15.0384 25.7627 15.122 25.5579 15.2474 25.3823C15.3755 25.204 15.5302 25.0661 15.7113 24.9685C15.8952 24.871 16.0903 24.8222 16.2965 24.8222C16.4971 24.8222 16.6629 24.8654 16.7939 24.9518C16.9249 25.0382 17.0154 25.1469 17.0656 25.2778L17.1408 24.8598H17.5254L17.1199 27.1504H16.7354L16.8148 26.724C16.7145 26.8578 16.5821 26.9693 16.4177 27.0584C16.2533 27.1448 16.0722 27.188 15.8743 27.188C15.696 27.188 15.5386 27.1504 15.402 27.0752C15.2655 26.9971 15.1596 26.8871 15.0844 26.7449C15.0091 26.6028 14.9715 26.4384 14.9715 26.2517C14.9715 26.1681 14.9799 26.0831 14.9966 25.9968ZM16.9402 26.0009C16.9513 25.9424 16.9569 25.8797 16.9569 25.8128C16.9569 25.6094 16.8956 25.4492 16.773 25.3322C16.6532 25.2123 16.4999 25.1524 16.3132 25.1524C16.1711 25.1524 16.0346 25.1859 15.9036 25.2528C15.7754 25.3196 15.6653 25.4172 15.5734 25.5453C15.4814 25.6735 15.4201 25.824 15.3895 25.9968C15.3783 26.0553 15.3728 26.1194 15.3728 26.189C15.3728 26.3952 15.4327 26.5582 15.5525 26.6781C15.6723 26.7951 15.8256 26.8536 16.0123 26.8536C16.1544 26.8536 16.2895 26.8202 16.4177 26.7533C16.5487 26.6836 16.6601 26.5847 16.7521 26.4565C16.8468 26.3256 16.9095 26.1737 16.9402 26.0009ZM18.6781 26.7909L19.7314 24.8598H20.141L18.8369 27.1504H18.3897L17.8965 24.8598H18.3061L18.6781 26.7909ZM21.5059 24.8222C21.6982 24.8222 21.864 24.8598 22.0033 24.9351C22.1454 25.0075 22.2527 25.1106 22.3252 25.2444C22.4004 25.3754 22.438 25.5258 22.438 25.6958C22.438 25.7543 22.4311 25.8254 22.4171 25.909C22.406 25.9814 22.3879 26.0567 22.3628 26.1347H20.532C20.5265 26.1904 20.5237 26.2308 20.5237 26.2559C20.5237 26.4482 20.5808 26.5987 20.695 26.7073C20.8121 26.8132 20.9639 26.8662 21.1506 26.8662C21.315 26.8662 21.4586 26.8285 21.5812 26.7533C21.7066 26.6753 21.8013 26.5722 21.8654 26.444H22.275C22.1747 26.6641 22.02 26.8439 21.8111 26.9832C21.6049 27.1197 21.3652 27.188 21.0921 27.188C20.8051 27.188 20.5738 27.1058 20.3983 26.9414C20.2255 26.7742 20.1391 26.5471 20.1391 26.2601C20.1391 26.1793 20.1475 26.0929 20.1642 26.0009C20.206 25.7641 20.291 25.5565 20.4192 25.3781C20.5474 25.1998 20.7048 25.0633 20.8915 24.9685C21.081 24.871 21.2858 24.8222 21.5059 24.8222ZM22.0326 25.8588C22.0409 25.8031 22.0451 25.7515 22.0451 25.7042C22.0451 25.5258 21.988 25.3879 21.8738 25.2904C21.7623 25.1928 21.616 25.1441 21.4349 25.1441C21.2398 25.1441 21.0629 25.2082 20.904 25.3363C20.7452 25.4617 20.6379 25.6359 20.5822 25.8588H22.0326ZM24.5869 25.4576L24.5284 25.7794H22.8607L22.9192 25.4576H24.5869ZM25.8065 27.188C25.5669 27.188 25.3704 27.1309 25.2172 27.0166C25.0639 26.9024 24.9873 26.7491 24.9873 26.5569C24.9873 26.5206 24.9887 26.4942 24.9915 26.4774H25.3635C25.3523 26.5973 25.3872 26.6948 25.468 26.77C25.5516 26.8453 25.6714 26.8829 25.8274 26.8829C25.9835 26.8829 26.1089 26.8536 26.2036 26.7951C26.3011 26.7338 26.3499 26.6488 26.3499 26.5401C26.3499 26.4482 26.3109 26.3757 26.2329 26.3228C26.1549 26.2698 26.035 26.2127 25.8734 26.1514C25.7313 26.0985 25.6143 26.0483 25.5223 26.0009C25.4304 25.9536 25.3523 25.8881 25.2882 25.8045C25.2241 25.7181 25.1921 25.6094 25.1921 25.4785C25.1921 25.3503 25.2283 25.236 25.3008 25.1357C25.376 25.0354 25.4791 24.9588 25.6101 24.9058C25.7438 24.8501 25.8957 24.8222 26.0657 24.8222C26.2998 24.8222 26.492 24.8807 26.6425 24.9978C26.793 25.1148 26.8682 25.2681 26.8682 25.4576C26.8682 25.4938 26.8668 25.5217 26.864 25.5412H26.5004L26.5046 25.491C26.5046 25.3795 26.4614 25.2918 26.375 25.2277C26.2914 25.1608 26.1799 25.1274 26.0406 25.1274C25.9041 25.1274 25.7912 25.158 25.702 25.2193C25.6157 25.2806 25.5725 25.3628 25.5725 25.4659C25.5725 25.5635 25.6129 25.6401 25.6937 25.6958C25.7745 25.7515 25.8999 25.8128 26.0699 25.8797C26.212 25.9355 26.3262 25.987 26.4126 26.0344C26.499 26.079 26.5728 26.1417 26.6341 26.2225C26.6954 26.3033 26.7261 26.405 26.7261 26.5276C26.7261 26.6614 26.6857 26.7784 26.6049 26.8787C26.5269 26.979 26.4182 27.0556 26.2789 27.1086C26.1395 27.1615 25.9821 27.188 25.8065 27.188ZM27.2421 25.9968C27.2839 25.7627 27.3675 25.5579 27.4929 25.3823C27.6211 25.204 27.7758 25.0661 27.9569 24.9685C28.1408 24.871 28.3359 24.8222 28.5421 24.8222C28.7427 24.8222 28.9085 24.8654 29.0395 24.9518C29.1704 25.0382 29.261 25.1469 29.3112 25.2778L29.3864 24.8598H29.7709L29.3655 27.1504H28.9809L29.0604 26.724C28.9601 26.8578 28.8277 26.9693 28.6633 27.0584C28.4989 27.1448 28.3178 27.188 28.1199 27.188C27.9416 27.188 27.7841 27.1504 27.6476 27.0752C27.511 26.9971 27.4052 26.8871 27.3299 26.7449C27.2547 26.6028 27.2171 26.4384 27.2171 26.2517C27.2171 26.1681 27.2254 26.0831 27.2421 25.9968ZM29.1858 26.0009C29.1969 25.9424 29.2025 25.8797 29.2025 25.8128C29.2025 25.6094 29.1412 25.4492 29.0186 25.3322C28.8987 25.2123 28.7455 25.1524 28.5588 25.1524C28.4167 25.1524 28.2801 25.1859 28.1492 25.2528C28.021 25.3196 27.9109 25.4172 27.819 25.5453C27.727 25.6735 27.6657 25.824 27.635 25.9968C27.6239 26.0553 27.6183 26.1194 27.6183 26.189C27.6183 26.3952 27.6782 26.5582 27.7981 26.6781C27.9179 26.7951 28.0711 26.8536 28.2578 26.8536C28.4 26.8536 28.5351 26.8202 28.6633 26.7533C28.7943 26.6836 28.9057 26.5847 28.9977 26.4565C29.0924 26.3256 29.1551 26.1737 29.1858 26.0009ZM31.4252 24.2747C31.2553 24.2747 31.1299 24.3081 31.049 24.375C30.971 24.4391 30.9195 24.5464 30.8944 24.6968L30.8651 24.8598H31.3458L31.2915 25.1733H30.8108L30.4597 27.1504H30.0793L30.4263 25.1733H30.1337L30.188 24.8598H30.4806L30.5098 24.6968C30.5572 24.4405 30.6575 24.2538 30.8108 24.1367C30.9641 24.0169 31.187 23.957 31.4796 23.957L31.4252 24.2747ZM32.7841 24.8222C32.9764 24.8222 33.1422 24.8598 33.2815 24.9351C33.4236 25.0075 33.5309 25.1106 33.6033 25.2444C33.6786 25.3754 33.7162 25.5258 33.7162 25.6958C33.7162 25.7543 33.7092 25.8254 33.6953 25.909C33.6842 25.9814 33.666 26.0567 33.641 26.1347H31.8102C31.8046 26.1904 31.8018 26.2308 31.8018 26.2559C31.8018 26.4482 31.859 26.5987 31.9732 26.7073C32.0902 26.8132 32.2421 26.8662 32.4288 26.8662C32.5932 26.8662 32.7367 26.8285 32.8593 26.7533C32.9847 26.6753 33.0795 26.5722 33.1436 26.444H33.5532C33.4529 26.6641 33.2982 26.8439 33.0892 26.9832C32.883 27.1197 32.6434 27.188 32.3703 27.188C32.0833 27.188 31.852 27.1058 31.6764 26.9414C31.5037 26.7742 31.4173 26.5471 31.4173 26.2601C31.4173 26.1793 31.4257 26.0929 31.4424 26.0009C31.4842 25.7641 31.5692 25.5565 31.6973 25.3781C31.8255 25.1998 31.983 25.0633 32.1697 24.9685C32.3591 24.871 32.564 24.8222 32.7841 24.8222ZM33.3108 25.8588C33.3191 25.8031 33.3233 25.7515 33.3233 25.7042C33.3233 25.5258 33.2662 25.3879 33.1519 25.2904C33.0405 25.1928 32.8942 25.1441 32.713 25.1441C32.518 25.1441 32.341 25.2082 32.1822 25.3363C32.0234 25.4617 31.9161 25.6359 31.8604 25.8588H33.3108Z" fill="#5D5A5A"/>
<line x1="43.8584" y1="3.85742" x2="43.8584" y2="25.2924" stroke="#5D5A5A" stroke-width="0.857399"/>
<g clip-path="url(#clip0_989_485)">
<path d="M64.934 6.07227L66.363 7.50126M66.363 7.50126L67.792 6.07227M66.363 7.50126V13.9318M61.7188 12.1455L63.1477 10.7165M63.1477 10.7165L61.7188 9.28751M63.1477 10.7165H69.5782M67.792 15.3608L66.363 13.9318M66.363 13.9318L64.934 15.3608M71.0072 9.28751L69.5782 10.7165M69.5782 10.7165L71.0072 12.1455M63.8622 8.21576L64.934 9.28751M64.934 12.1455L63.8622 13.2173M68.8637 8.21576L67.792 9.28751M67.792 12.1455L68.8637 13.2173" stroke="#5D5A5A" stroke-width="0.597117" stroke-linecap="round" stroke-linejoin="round"/>
</g>
<path d="M55.1329 24.2371L55.0786 24.5338H53.8163L53.6407 25.5328H54.669L54.6146 25.8296H53.5864L53.3523 27.1504H52.972L53.4903 24.2371H55.1329ZM55.7888 25.2946C55.8807 25.1441 55.9964 25.027 56.1357 24.9434C56.275 24.8598 56.4338 24.8181 56.6122 24.8181L56.5411 25.211H56.4408C56.243 25.211 56.0772 25.2639 55.9434 25.3698C55.8124 25.4757 55.7247 25.654 55.6801 25.9048L55.4586 27.1504H55.0782L55.4836 24.8598H55.864L55.7888 25.2946ZM58.0377 24.8222C58.23 24.8222 58.3958 24.8598 58.5351 24.9351C58.6772 25.0075 58.7845 25.1106 58.8569 25.2444C58.9322 25.3754 58.9698 25.5258 58.9698 25.6958C58.9698 25.7543 58.9628 25.8254 58.9489 25.909C58.9378 25.9814 58.9196 26.0567 58.8946 26.1347H57.0638C57.0582 26.1904 57.0554 26.2308 57.0554 26.2559C57.0554 26.4482 57.1126 26.5987 57.2268 26.7073C57.3439 26.8132 57.4957 26.8662 57.6824 26.8662C57.8468 26.8662 57.9903 26.8285 58.1129 26.7533C58.2383 26.6753 58.3331 26.5722 58.3972 26.444H58.8068C58.7065 26.6641 58.5518 26.8439 58.3428 26.9832C58.1366 27.1197 57.897 27.188 57.6239 27.188C57.3369 27.188 57.1056 27.1058 56.9301 26.9414C56.7573 26.7742 56.6709 26.5471 56.6709 26.2601C56.6709 26.1793 56.6793 26.0929 56.696 26.0009C56.7378 25.7641 56.8228 25.5565 56.9509 25.3781C57.0791 25.1998 57.2366 25.0633 57.4233 24.9685C57.6128 24.871 57.8176 24.8222 58.0377 24.8222ZM58.5644 25.8588C58.5727 25.8031 58.5769 25.7515 58.5769 25.7042C58.5769 25.5258 58.5198 25.3879 58.4055 25.2904C58.2941 25.1928 58.1478 25.1441 57.9666 25.1441C57.7716 25.1441 57.5946 25.2082 57.4358 25.3363C57.277 25.4617 57.1697 25.6359 57.114 25.8588H58.5644ZM60.6297 24.8222C60.822 24.8222 60.9878 24.8598 61.1271 24.9351C61.2692 25.0075 61.3765 25.1106 61.4489 25.2444C61.5242 25.3754 61.5618 25.5258 61.5618 25.6958C61.5618 25.7543 61.5548 25.8254 61.5409 25.909C61.5297 25.9814 61.5116 26.0567 61.4865 26.1347H59.6558C59.6502 26.1904 59.6474 26.2308 59.6474 26.2559C59.6474 26.4482 59.7045 26.5987 59.8188 26.7073C59.9358 26.8132 60.0877 26.8662 60.2744 26.8662C60.4388 26.8662 60.5823 26.8285 60.7049 26.7533C60.8303 26.6753 60.9251 26.5722 60.9891 26.444H61.3988C61.2985 26.6641 61.1438 26.8439 60.9348 26.9832C60.7286 27.1197 60.489 27.188 60.2159 27.188C59.9289 27.188 59.6976 27.1058 59.522 26.9414C59.3493 26.7742 59.2629 26.5471 59.2629 26.2601C59.2629 26.1793 59.2712 26.0929 59.288 26.0009C59.3298 25.7641 59.4147 25.5565 59.5429 25.3781C59.6711 25.1998 59.8285 25.0633 60.0152 24.9685C60.2047 24.871 60.4095 24.8222 60.6297 24.8222ZM61.1563 25.8588C61.1647 25.8031 61.1689 25.7515 61.1689 25.7042C61.1689 25.5258 61.1118 25.3879 60.9975 25.2904C60.886 25.1928 60.7398 25.1441 60.5586 25.1441C60.3636 25.1441 60.1866 25.2082 60.0278 25.3363C59.869 25.4617 59.7617 25.6359 59.7059 25.8588H61.1563ZM62.1642 26.8369H63.2885L63.23 27.1504H61.6709L61.7253 26.8369L63.1339 25.1692H62.0304L62.0847 24.8598H63.6229L63.5686 25.1692L62.1642 26.8369ZM65.1238 24.8222C65.3161 24.8222 65.4819 24.8598 65.6212 24.9351C65.7633 25.0075 65.8706 25.1106 65.9431 25.2444C66.0183 25.3754 66.0559 25.5258 66.0559 25.6958C66.0559 25.7543 66.0489 25.8254 66.035 25.909C66.0239 25.9814 66.0057 26.0567 65.9807 26.1347H64.1499C64.1443 26.1904 64.1415 26.2308 64.1415 26.2559C64.1415 26.4482 64.1987 26.5987 64.3129 26.7073C64.43 26.8132 64.5818 26.8662 64.7685 26.8662C64.9329 26.8662 65.0764 26.8285 65.199 26.7533C65.3244 26.6753 65.4192 26.5722 65.4833 26.444H65.8929C65.7926 26.6641 65.6379 26.8439 65.4289 26.9832C65.2227 27.1197 64.9831 27.188 64.71 27.188C64.423 27.188 64.1917 27.1058 64.0162 26.9414C63.8434 26.7742 63.757 26.5471 63.757 26.2601C63.757 26.1793 63.7654 26.0929 63.7821 26.0009C63.8239 25.7641 63.9089 25.5565 64.0371 25.3781C64.1652 25.1998 64.3227 25.0633 64.5094 24.9685C64.6989 24.871 64.9037 24.8222 65.1238 24.8222ZM65.6505 25.8588C65.6588 25.8031 65.663 25.7515 65.663 25.7042C65.663 25.5258 65.6059 25.3879 65.4916 25.2904C65.3802 25.1928 65.2339 25.1441 65.0527 25.1441C64.8577 25.1441 64.6807 25.2082 64.5219 25.3363C64.3631 25.4617 64.2558 25.6359 64.2001 25.8588H65.6505ZM67.0261 25.2946C67.1181 25.1441 67.2337 25.027 67.373 24.9434C67.5124 24.8598 67.6712 24.8181 67.8495 24.8181L67.7785 25.211H67.6782C67.4803 25.211 67.3145 25.2639 67.1808 25.3698C67.0498 25.4757 66.962 25.654 66.9174 25.9048L66.6959 27.1504H66.3155L66.721 24.8598H67.1013L67.0261 25.2946ZM69.7641 25.4576L69.7056 25.7794H68.0378L68.0963 25.4576H69.7641ZM70.9837 27.188C70.744 27.188 70.5476 27.1309 70.3943 27.0166C70.2411 26.9024 70.1644 26.7491 70.1644 26.5569C70.1644 26.5206 70.1658 26.4942 70.1686 26.4774H70.5406C70.5295 26.5973 70.5643 26.6948 70.6451 26.77C70.7287 26.8453 70.8485 26.8829 71.0046 26.8829C71.1606 26.8829 71.286 26.8536 71.3808 26.7951C71.4783 26.7338 71.5271 26.6488 71.5271 26.5401C71.5271 26.4482 71.488 26.3757 71.41 26.3228C71.332 26.2698 71.2122 26.2127 71.0506 26.1514C70.9084 26.0985 70.7914 26.0483 70.6995 26.0009C70.6075 25.9536 70.5295 25.8881 70.4654 25.8045C70.4013 25.7181 70.3693 25.6094 70.3693 25.4785C70.3693 25.3503 70.4055 25.236 70.4779 25.1357C70.5532 25.0354 70.6563 24.9588 70.7872 24.9058C70.921 24.8501 71.0729 24.8222 71.2428 24.8222C71.4769 24.8222 71.6692 24.8807 71.8196 24.9978C71.9701 25.1148 72.0454 25.2681 72.0454 25.4576C72.0454 25.4938 72.044 25.5217 72.0412 25.5412H71.6775L71.6817 25.491C71.6817 25.3795 71.6385 25.2918 71.5521 25.2277C71.4685 25.1608 71.3571 25.1274 71.2178 25.1274C71.0812 25.1274 70.9684 25.158 70.8792 25.2193C70.7928 25.2806 70.7496 25.3628 70.7496 25.4659C70.7496 25.5635 70.79 25.6401 70.8708 25.6958C70.9516 25.7515 71.077 25.8128 71.247 25.8797C71.3891 25.9355 71.5034 25.987 71.5898 26.0344C71.6761 26.079 71.75 26.1417 71.8113 26.2225C71.8726 26.3033 71.9032 26.405 71.9032 26.5276C71.9032 26.6614 71.8628 26.7784 71.782 26.8787C71.704 26.979 71.5953 27.0556 71.456 27.1086C71.3167 27.1615 71.1592 27.188 70.9837 27.188ZM72.4193 25.9968C72.4611 25.7627 72.5447 25.5579 72.6701 25.3823C72.7983 25.204 72.9529 25.0661 73.134 24.9685C73.318 24.871 73.513 24.8222 73.7192 24.8222C73.9198 24.8222 74.0856 24.8654 74.2166 24.9518C74.3476 25.0382 74.4381 25.1469 74.4883 25.2778L74.5635 24.8598H74.9481L74.5426 27.1504H74.1581L74.2375 26.724C74.1372 26.8578 74.0048 26.9693 73.8404 27.0584C73.676 27.1448 73.4949 27.188 73.2971 27.188C73.1187 27.188 72.9613 27.1504 72.8247 27.0752C72.6882 26.9971 72.5823 26.8871 72.5071 26.7449C72.4318 26.6028 72.3942 26.4384 72.3942 26.2517C72.3942 26.1681 72.4026 26.0831 72.4193 25.9968ZM74.3629 26.0009C74.3741 25.9424 74.3796 25.8797 74.3796 25.8128C74.3796 25.6094 74.3183 25.4492 74.1957 25.3322C74.0759 25.2123 73.9226 25.1524 73.7359 25.1524C73.5938 25.1524 73.4573 25.1859 73.3263 25.2528C73.1981 25.3196 73.0881 25.4172 72.9961 25.5453C72.9042 25.6735 72.8428 25.824 72.8122 25.9968C72.801 26.0553 72.7955 26.1194 72.7955 26.189C72.7955 26.3952 72.8554 26.5582 72.9752 26.6781C73.095 26.7951 73.2483 26.8536 73.435 26.8536C73.5771 26.8536 73.7122 26.8202 73.8404 26.7533C73.9714 26.6836 74.0829 26.5847 74.1748 26.4565C74.2696 26.3256 74.3323 26.1737 74.3629 26.0009ZM76.6024 24.2747C76.4324 24.2747 76.307 24.3081 76.2262 24.375C76.1482 24.4391 76.0966 24.5464 76.0715 24.6968L76.0423 24.8598H76.523L76.4686 25.1733H75.9879L75.6368 27.1504H75.2565L75.6034 25.1733H75.3108L75.3651 24.8598H75.6577L75.687 24.6968C75.7344 24.4405 75.8347 24.2538 75.9879 24.1367C76.1412 24.0169 76.3641 23.957 76.6567 23.957L76.6024 24.2747ZM77.9612 24.8222C78.1535 24.8222 78.3193 24.8598 78.4586 24.9351C78.6008 25.0075 78.708 25.1106 78.7805 25.2444C78.8557 25.3754 78.8933 25.5258 78.8933 25.6958C78.8933 25.7543 78.8864 25.8254 78.8724 25.909C78.8613 25.9814 78.8432 26.0567 78.8181 26.1347H76.9873C76.9818 26.1904 76.979 26.2308 76.979 26.2559C76.979 26.4482 77.0361 26.5987 77.1504 26.7073C77.2674 26.8132 77.4193 26.8662 77.606 26.8662C77.7704 26.8662 77.9139 26.8285 78.0365 26.7533C78.1619 26.6753 78.2566 26.5722 78.3207 26.444H78.7303C78.63 26.6641 78.4754 26.8439 78.2664 26.9832C78.0602 27.1197 77.8205 27.188 77.5474 27.188C77.2604 27.188 77.0291 27.1058 76.8536 26.9414C76.6808 26.7742 76.5944 26.5471 76.5944 26.2601C76.5944 26.1793 76.6028 26.0929 76.6195 26.0009C76.6613 25.7641 76.7463 25.5565 76.8745 25.3781C77.0027 25.1998 77.1601 25.0633 77.3468 24.9685C77.5363 24.871 77.7411 24.8222 77.9612 24.8222ZM78.4879 25.8588C78.4963 25.8031 78.5004 25.7515 78.5004 25.7042C78.5004 25.5258 78.4433 25.3879 78.3291 25.2904C78.2176 25.1928 78.0713 25.1441 77.8902 25.1441C77.6951 25.1441 77.5182 25.2082 77.3593 25.3363C77.2005 25.4617 77.0932 25.6359 77.0375 25.8588H78.4879Z" fill="#5D5A5A"/>
<line x1="89.7217" y1="3.85742" x2="89.7217" y2="25.2924" stroke="#5D5A5A" stroke-width="0.857399"/>
<g clip-path="url(#clip1_989_485)">
<path d="M125.248 12.0695C124.83 12.3234 124.351 12.4569 123.862 12.4553C123.453 12.4521 123.048 12.3683 122.671 12.2089C122.38 12.6191 122.225 13.1098 122.226 13.6126V14.8966C122.226 14.9443 122.216 14.9916 122.197 15.0354C122.178 15.0793 122.151 15.1187 122.116 15.1514C122.081 15.1841 122.04 15.2092 121.995 15.2253C121.95 15.2414 121.902 15.2481 121.854 15.2449C121.765 15.2371 121.682 15.1957 121.621 15.1291C121.561 15.0625 121.528 14.9755 121.529 14.8857V14.344L119.848 12.6625C119.598 12.7558 119.333 12.8046 119.067 12.8067C118.699 12.8076 118.339 12.7071 118.025 12.5162C117.076 11.9398 116.566 10.6131 116.664 8.96601C116.669 8.8808 116.706 8.80038 116.766 8.74002C116.826 8.67966 116.907 8.64357 116.992 8.63859C118.639 8.5415 119.966 9.05048 120.54 9.99921C120.766 10.3711 120.865 10.8064 120.821 11.2392C120.818 11.2728 120.806 11.3048 120.786 11.3315C120.765 11.3581 120.737 11.3783 120.706 11.3895C120.674 11.4006 120.64 11.4024 120.607 11.3945C120.574 11.3866 120.544 11.3694 120.521 11.345L119.685 10.4699C119.619 10.4073 119.532 10.3729 119.441 10.3741C119.35 10.3753 119.263 10.4119 119.199 10.4761C119.135 10.5403 119.098 10.6271 119.097 10.7179C119.096 10.8088 119.13 10.8965 119.193 10.9623L121.539 13.3679C121.541 13.3339 121.544 13.3 121.548 13.2664C121.624 12.6206 121.909 12.0174 122.359 11.5484L124.562 9.22072C124.627 9.15542 124.664 9.06683 124.664 8.97444C124.664 8.88205 124.628 8.79343 124.562 8.72807C124.497 8.66271 124.408 8.62597 124.316 8.62593C124.224 8.62589 124.135 8.66255 124.07 8.72785L121.936 10.9841C121.915 11.0067 121.888 11.0232 121.858 11.0318C121.828 11.0405 121.796 11.0409 121.766 11.0332C121.736 11.0255 121.709 11.0098 121.687 10.9879C121.665 10.9659 121.649 10.9384 121.641 10.9083C121.435 10.1472 121.526 9.38966 121.92 8.73917C122.697 7.45562 124.507 6.76856 126.76 6.90092C126.846 6.9059 126.926 6.94199 126.986 7.00235C127.047 7.06271 127.083 7.14313 127.088 7.22834C127.219 9.48239 126.531 11.2919 125.248 12.0695Z" fill="#5D5A5A"/>
</g>
<path d="M101.645 24.2371L101.59 24.5338H100.328L100.152 25.5328H101.181L101.126 25.8296H100.098L99.864 27.1504H99.4837L100.002 24.2371H101.645ZM102.597 27.188C102.405 27.188 102.235 27.149 102.087 27.071C101.942 26.9902 101.83 26.8787 101.749 26.7366C101.668 26.5917 101.628 26.4245 101.628 26.235C101.628 25.9759 101.687 25.739 101.807 25.5244C101.927 25.3071 102.091 25.1357 102.3 25.0103C102.512 24.8849 102.748 24.8222 103.007 24.8222C103.199 24.8222 103.369 24.8626 103.517 24.9434C103.667 25.0215 103.783 25.1329 103.864 25.2778C103.947 25.4199 103.989 25.5871 103.989 25.7794C103.989 26.0386 103.928 26.2754 103.805 26.49C103.683 26.7045 103.515 26.8745 103.304 26.9999C103.092 27.1253 102.856 27.188 102.597 27.188ZM102.643 26.8662C102.824 26.8662 102.987 26.8174 103.132 26.7199C103.277 26.6196 103.39 26.4886 103.471 26.327C103.554 26.1626 103.596 25.987 103.596 25.8003C103.596 25.5885 103.535 25.4269 103.412 25.3154C103.29 25.2012 103.136 25.1441 102.953 25.1441C102.771 25.1441 102.61 25.1942 102.468 25.2946C102.326 25.3921 102.215 25.523 102.137 25.6875C102.059 25.8519 102.02 26.0288 102.02 26.2183C102.02 26.4245 102.079 26.5847 102.196 26.699C102.313 26.8104 102.462 26.8662 102.643 26.8662ZM105.271 27.188C105.079 27.188 104.909 27.149 104.761 27.071C104.616 26.9902 104.503 26.8787 104.422 26.7366C104.342 26.5917 104.301 26.4245 104.301 26.235C104.301 25.9759 104.361 25.739 104.481 25.5244C104.601 25.3071 104.765 25.1357 104.974 25.0103C105.186 24.8849 105.421 24.8222 105.68 24.8222C105.873 24.8222 106.043 24.8626 106.19 24.9434C106.341 25.0215 106.457 25.1329 106.537 25.2778C106.621 25.4199 106.663 25.5871 106.663 25.7794C106.663 26.0386 106.601 26.2754 106.479 26.49C106.356 26.7045 106.189 26.8745 105.977 26.9999C105.765 27.1253 105.53 27.188 105.271 27.188ZM105.317 26.8662C105.498 26.8662 105.661 26.8174 105.806 26.7199C105.951 26.6196 106.064 26.4886 106.144 26.327C106.228 26.1626 106.27 25.987 106.27 25.8003C106.27 25.5885 106.209 25.4269 106.086 25.3154C105.963 25.2012 105.81 25.1441 105.626 25.1441C105.445 25.1441 105.283 25.1942 105.141 25.2946C104.999 25.3921 104.889 25.523 104.811 25.6875C104.733 25.8519 104.694 26.0288 104.694 26.2183C104.694 26.4245 104.753 26.5847 104.87 26.699C104.987 26.8104 105.136 26.8662 105.317 26.8662ZM106.996 25.9968C107.037 25.7627 107.121 25.5579 107.246 25.3823C107.375 25.204 107.531 25.0661 107.715 24.9685C107.899 24.871 108.094 24.8222 108.3 24.8222C108.475 24.8222 108.633 24.864 108.772 24.9476C108.911 25.0284 109.01 25.1357 109.069 25.2695L109.282 24.0573H109.667L109.119 27.1504H108.734L108.814 26.7199C108.716 26.8564 108.585 26.9693 108.421 27.0584C108.257 27.1448 108.075 27.188 107.878 27.188C107.699 27.188 107.542 27.1504 107.405 27.0752C107.269 26.9971 107.161 26.8871 107.083 26.7449C107.008 26.6028 106.971 26.4384 106.971 26.2517C106.971 26.1681 106.979 26.0831 106.996 25.9968ZM108.939 26.0009C108.95 25.9424 108.956 25.8797 108.956 25.8128C108.956 25.6094 108.895 25.4492 108.772 25.3322C108.652 25.2123 108.499 25.1524 108.312 25.1524C108.17 25.1524 108.034 25.1859 107.903 25.2528C107.775 25.3196 107.664 25.4172 107.572 25.5453C107.481 25.6735 107.419 25.824 107.389 25.9968C107.377 26.0553 107.372 26.1194 107.372 26.189C107.372 26.3952 107.432 26.5582 107.552 26.6781C107.671 26.7951 107.825 26.8536 108.011 26.8536C108.153 26.8536 108.289 26.8202 108.417 26.7533C108.548 26.6836 108.659 26.5847 108.751 26.4565C108.846 26.3256 108.909 26.1737 108.939 26.0009ZM111.651 25.4576L111.593 25.7794H109.925L109.983 25.4576H111.651ZM113.422 24.8222C113.62 24.8222 113.786 24.8654 113.92 24.9518C114.054 25.0382 114.144 25.1469 114.191 25.2778L114.267 24.8598H114.651L114.237 27.2005C114.201 27.4095 114.123 27.5948 114.003 27.7565C113.886 27.9209 113.737 28.0491 113.556 28.141C113.375 28.233 113.174 28.2789 112.954 28.2789C112.653 28.2789 112.415 28.2065 112.24 28.0616C112.064 27.9195 111.979 27.7272 111.985 27.4848H112.365C112.382 27.6241 112.447 27.7356 112.561 27.8192C112.678 27.9055 112.829 27.9487 113.013 27.9487C113.222 27.9487 113.404 27.8833 113.56 27.7523C113.716 27.6213 113.815 27.4374 113.857 27.2005L113.941 26.7199C113.84 26.8536 113.708 26.9651 113.544 27.0543C113.382 27.1434 113.202 27.188 113.004 27.188C112.826 27.188 112.669 27.1504 112.532 27.0752C112.396 26.9971 112.288 26.8871 112.21 26.7449C112.135 26.6028 112.097 26.4384 112.097 26.2517C112.097 26.1681 112.106 26.0831 112.122 25.9968C112.164 25.7627 112.248 25.5579 112.373 25.3823C112.501 25.204 112.656 25.0661 112.837 24.9685C113.021 24.871 113.216 24.8222 113.422 24.8222ZM114.066 26.0009C114.077 25.9424 114.083 25.8797 114.083 25.8128C114.083 25.6094 114.022 25.4492 113.899 25.3322C113.779 25.2123 113.626 25.1524 113.439 25.1524C113.297 25.1524 113.16 25.1859 113.029 25.2528C112.901 25.3196 112.791 25.4172 112.699 25.5453C112.607 25.6735 112.546 25.824 112.515 25.9968C112.504 26.0553 112.499 26.1194 112.499 26.189C112.499 26.3952 112.559 26.5582 112.678 26.6781C112.798 26.7951 112.951 26.8536 113.138 26.8536C113.28 26.8536 113.415 26.8202 113.544 26.7533C113.675 26.6836 113.786 26.5847 113.878 26.4565C113.973 26.3256 114.035 26.1737 114.066 26.0009ZM115.599 25.2946C115.691 25.1441 115.807 25.027 115.946 24.9434C116.085 24.8598 116.244 24.8181 116.423 24.8181L116.352 25.211H116.251C116.053 25.211 115.888 25.2639 115.754 25.3698C115.623 25.4757 115.535 25.654 115.49 25.9048L115.269 27.1504H114.889L115.294 24.8598H115.674L115.599 25.2946ZM116.506 25.9968C116.548 25.7627 116.632 25.5579 116.757 25.3823C116.885 25.204 117.04 25.0661 117.221 24.9685C117.405 24.871 117.6 24.8222 117.806 24.8222C118.007 24.8222 118.173 24.8654 118.304 24.9518C118.435 25.0382 118.525 25.1469 118.575 25.2778L118.651 24.8598H119.035L118.63 27.1504H118.245L118.325 26.724C118.224 26.8578 118.092 26.9693 117.928 27.0584C117.763 27.1448 117.582 27.188 117.384 27.188C117.206 27.188 117.048 27.1504 116.912 27.0752C116.775 26.9971 116.669 26.8871 116.594 26.7449C116.519 26.6028 116.481 26.4384 116.481 26.2517C116.481 26.1681 116.49 26.0831 116.506 25.9968ZM118.45 26.0009C118.461 25.9424 118.467 25.8797 118.467 25.8128C118.467 25.6094 118.405 25.4492 118.283 25.3322C118.163 25.2123 118.01 25.1524 117.823 25.1524C117.681 25.1524 117.544 25.1859 117.413 25.2528C117.285 25.3196 117.175 25.4172 117.083 25.5453C116.991 25.6735 116.93 25.824 116.899 25.9968C116.888 26.0553 116.883 26.1194 116.883 26.189C116.883 26.3952 116.942 26.5582 117.062 26.6781C117.182 26.7951 117.335 26.8536 117.522 26.8536C117.664 26.8536 117.799 26.8202 117.928 26.7533C118.058 26.6836 118.17 26.5847 118.262 26.4565C118.357 26.3256 118.419 26.1737 118.45 26.0009ZM119.331 25.9968C119.373 25.7627 119.456 25.5579 119.582 25.3823C119.71 25.204 119.866 25.0661 120.05 24.9685C120.234 24.871 120.429 24.8222 120.635 24.8222C120.811 24.8222 120.968 24.864 121.107 24.9476C121.247 25.0284 121.346 25.1357 121.404 25.2695L121.617 24.0573H122.002L121.454 27.1504H121.07L121.149 26.7199C121.052 26.8564 120.921 26.9693 120.756 27.0584C120.592 27.1448 120.411 27.188 120.213 27.188C120.035 27.188 119.877 27.1504 119.741 27.0752C119.604 26.9971 119.497 26.8871 119.419 26.7449C119.344 26.6028 119.306 26.4384 119.306 26.2517C119.306 26.1681 119.314 26.0831 119.331 25.9968ZM121.275 26.0009C121.286 25.9424 121.291 25.8797 121.291 25.8128C121.291 25.6094 121.23 25.4492 121.107 25.3322C120.988 25.2123 120.834 25.1524 120.648 25.1524C120.506 25.1524 120.369 25.1859 120.238 25.2528C120.11 25.3196 120 25.4172 119.908 25.5453C119.816 25.6735 119.755 25.824 119.724 25.9968C119.713 26.0553 119.707 26.1194 119.707 26.189C119.707 26.3952 119.767 26.5582 119.887 26.6781C120.007 26.7951 120.16 26.8536 120.347 26.8536C120.489 26.8536 120.624 26.8202 120.752 26.7533C120.883 26.6836 120.995 26.5847 121.087 26.4565C121.181 26.3256 121.244 26.1737 121.275 26.0009ZM123.497 24.8222C123.69 24.8222 123.855 24.8598 123.995 24.9351C124.137 25.0075 124.244 25.1106 124.317 25.2444C124.392 25.3754 124.429 25.5258 124.429 25.6958C124.429 25.7543 124.423 25.8254 124.409 25.909C124.397 25.9814 124.379 26.0567 124.354 26.1347H122.523C122.518 26.1904 122.515 26.2308 122.515 26.2559C122.515 26.4482 122.572 26.5987 122.687 26.7073C122.804 26.8132 122.955 26.8662 123.142 26.8662C123.307 26.8662 123.45 26.8285 123.573 26.7533C123.698 26.6753 123.793 26.5722 123.857 26.444H124.266C124.166 26.6641 124.012 26.8439 123.803 26.9832C123.596 27.1197 123.357 27.188 123.084 27.188C122.797 27.188 122.565 27.1058 122.39 26.9414C122.217 26.7742 122.131 26.5471 122.131 26.2601C122.131 26.1793 122.139 26.0929 122.156 26.0009C122.197 25.7641 122.282 25.5565 122.411 25.3781C122.539 25.1998 122.696 25.0633 122.883 24.9685C123.072 24.871 123.277 24.8222 123.497 24.8222ZM124.024 25.8588C124.032 25.8031 124.037 25.7515 124.037 25.7042C124.037 25.5258 123.979 25.3879 123.865 25.2904C123.754 25.1928 123.607 25.1441 123.426 25.1441C123.231 25.1441 123.054 25.2082 122.896 25.3363C122.737 25.4617 122.629 25.6359 122.574 25.8588H124.024ZM129.102 24.8181C129.336 24.8181 129.523 24.8821 129.663 25.0103C129.805 25.1357 129.876 25.3196 129.876 25.5621C129.876 25.6512 129.869 25.7306 129.855 25.8003L129.617 27.1504H129.24L129.47 25.8546C129.481 25.7961 129.487 25.7334 129.487 25.6666C129.487 25.4966 129.441 25.3684 129.349 25.282C129.26 25.1928 129.133 25.1483 128.969 25.1483C128.779 25.1483 128.616 25.2068 128.48 25.3238C128.346 25.4381 128.254 25.6039 128.204 25.8212L127.965 27.1504H127.589L127.819 25.8546C127.83 25.7906 127.836 25.7265 127.836 25.6624C127.836 25.4952 127.79 25.3684 127.698 25.282C127.609 25.1928 127.482 25.1483 127.318 25.1483C127.12 25.1483 126.951 25.2123 126.812 25.3405C126.673 25.4659 126.582 25.6484 126.54 25.8881V25.8797L126.314 27.1504H125.934L126.34 24.8598H126.72L126.661 25.1901C126.756 25.0702 126.873 24.9783 127.012 24.9142C127.152 24.8501 127.298 24.8181 127.451 24.8181C127.644 24.8181 127.805 24.8612 127.936 24.9476C128.07 25.034 128.158 25.1608 128.2 25.328C128.294 25.1664 128.422 25.041 128.584 24.9518C128.749 24.8626 128.921 24.8181 129.102 24.8181ZM130.299 25.9968C130.341 25.7627 130.424 25.5579 130.55 25.3823C130.678 25.204 130.833 25.0661 131.014 24.9685C131.198 24.871 131.393 24.8222 131.599 24.8222C131.8 24.8222 131.965 24.8654 132.096 24.9518C132.227 25.0382 132.318 25.1469 132.368 25.2778L132.443 24.8598H132.828L132.422 27.1504H132.038L132.117 26.724C132.017 26.8578 131.885 26.9693 131.72 27.0584C131.556 27.1448 131.375 27.188 131.177 27.188C130.998 27.188 130.841 27.1504 130.704 27.0752C130.568 26.9971 130.462 26.8871 130.387 26.7449C130.312 26.6028 130.274 26.4384 130.274 26.2517C130.274 26.1681 130.282 26.0831 130.299 25.9968ZM132.243 26.0009C132.254 25.9424 132.259 25.8797 132.259 25.8128C132.259 25.6094 132.198 25.4492 132.075 25.3322C131.956 25.2123 131.802 25.1524 131.616 25.1524C131.474 25.1524 131.337 25.1859 131.206 25.2528C131.078 25.3196 130.968 25.4172 130.876 25.5453C130.784 25.6735 130.723 25.824 130.692 25.9968C130.681 26.0553 130.675 26.1194 130.675 26.189C130.675 26.3952 130.735 26.5582 130.855 26.6781C130.975 26.7951 131.128 26.8536 131.315 26.8536C131.457 26.8536 131.592 26.8202 131.72 26.7533C131.851 26.6836 131.963 26.5847 132.055 26.4565C132.149 26.3256 132.212 26.1737 132.243 26.0009ZM133.642 26.5234C133.634 26.5652 133.629 26.6014 133.629 26.6321C133.629 26.7018 133.65 26.7519 133.692 26.7826C133.737 26.8132 133.808 26.8285 133.905 26.8285H134.185L134.127 27.1504H133.784C133.603 27.1504 133.466 27.1156 133.374 27.0459C133.285 26.9762 133.241 26.862 133.241 26.7031C133.241 26.6418 133.246 26.5819 133.257 26.5234L133.496 25.1733H133.203L133.257 24.8598H133.554L133.654 24.283H134.039L133.939 24.8598H134.532L134.478 25.1733H133.88L133.642 26.5234ZM135.988 24.8222C136.18 24.8222 136.346 24.8598 136.485 24.9351C136.627 25.0075 136.735 25.1106 136.807 25.2444C136.882 25.3754 136.92 25.5258 136.92 25.6958C136.92 25.7543 136.913 25.8254 136.899 25.909C136.888 25.9814 136.87 26.0567 136.845 26.1347H135.014C135.008 26.1904 135.006 26.2308 135.006 26.2559C135.006 26.4482 135.063 26.5987 135.177 26.7073C135.294 26.8132 135.446 26.8662 135.633 26.8662C135.797 26.8662 135.941 26.8285 136.063 26.7533C136.189 26.6753 136.283 26.5722 136.347 26.444H136.757C136.657 26.6641 136.502 26.8439 136.293 26.9832C136.087 27.1197 135.847 27.188 135.574 27.188C135.287 27.188 135.056 27.1058 134.88 26.9414C134.707 26.7742 134.621 26.5471 134.621 26.2601C134.621 26.1793 134.629 26.0929 134.646 26.0009C134.688 25.7641 134.773 25.5565 134.901 25.3781C135.029 25.1998 135.187 25.0633 135.373 24.9685C135.563 24.871 135.768 24.8222 135.988 24.8222ZM136.515 25.8588C136.523 25.8031 136.527 25.7515 136.527 25.7042C136.527 25.5258 136.47 25.3879 136.356 25.2904C136.244 25.1928 136.098 25.1441 135.917 25.1441C135.722 25.1441 135.545 25.2082 135.386 25.3363C135.227 25.4617 135.12 25.6359 135.064 25.8588H136.515ZM137.89 25.2946C137.982 25.1441 138.098 25.027 138.237 24.9434C138.376 24.8598 138.535 24.8181 138.714 24.8181L138.643 25.211H138.542C138.344 25.211 138.179 25.2639 138.045 25.3698C137.914 25.4757 137.826 25.654 137.782 25.9048L137.56 27.1504H137.18L137.585 24.8598H137.965L137.89 25.2946ZM139.403 24.4878C139.342 24.4878 139.291 24.4683 139.249 24.4293C139.21 24.3875 139.19 24.336 139.19 24.2747C139.19 24.1911 139.221 24.12 139.282 24.0615C139.344 24.0002 139.415 23.9695 139.495 23.9695C139.56 23.9695 139.611 23.9891 139.65 24.0281C139.689 24.0671 139.709 24.1186 139.709 24.1827C139.709 24.2663 139.678 24.3388 139.617 24.4001C139.555 24.4586 139.484 24.4878 139.403 24.4878ZM139.525 24.8598L139.119 27.1504H138.739L139.144 24.8598H139.525ZM139.826 25.9968C139.868 25.7627 139.951 25.5579 140.077 25.3823C140.205 25.204 140.36 25.0661 140.541 24.9685C140.725 24.871 140.92 24.8222 141.126 24.8222C141.327 24.8222 141.492 24.8654 141.623 24.9518C141.754 25.0382 141.845 25.1469 141.895 25.2778L141.97 24.8598H142.355L141.949 27.1504H141.565L141.644 26.724C141.544 26.8578 141.412 26.9693 141.247 27.0584C141.083 27.1448 140.902 27.188 140.704 27.188C140.525 27.188 140.368 27.1504 140.231 27.0752C140.095 26.9971 139.989 26.8871 139.914 26.7449C139.839 26.6028 139.801 26.4384 139.801 26.2517C139.801 26.1681 139.809 26.0831 139.826 25.9968ZM141.77 26.0009C141.781 25.9424 141.786 25.8797 141.786 25.8128C141.786 25.6094 141.725 25.4492 141.602 25.3322C141.483 25.2123 141.329 25.1524 141.143 25.1524C141.001 25.1524 140.864 25.1859 140.733 25.2528C140.605 25.3196 140.495 25.4172 140.403 25.5453C140.311 25.6735 140.25 25.824 140.219 25.9968C140.208 26.0553 140.202 26.1194 140.202 26.189C140.202 26.3952 140.262 26.5582 140.382 26.6781C140.502 26.7951 140.655 26.8536 140.842 26.8536C140.984 26.8536 141.119 26.8202 141.247 26.7533C141.378 26.6836 141.49 26.5847 141.582 26.4565C141.676 26.3256 141.739 26.1737 141.77 26.0009ZM143.52 24.0573L142.973 27.1504H142.592L143.14 24.0573H143.52Z" fill="#5D5A5A"/>
<defs>
<clipPath id="clip0_989_485">
<rect width="11.1462" height="11.1462" fill="white" transform="translate(60.7891 5.14453)"/>
</clipPath>
<clipPath id="clip1_989_485">
<rect width="11.1462" height="11.1462" fill="white" transform="translate(116.305 5.14453)"/>
</clipPath>
</defs>
</svg>
