<svg width="162" height="37" viewBox="0 0 162 37" fill="none" xmlns="http://www.w3.org/2000/svg">
<path d="M5.88 17L3.836 13.29H3.262V17H0.868V7.172H4.886C5.66067 7.172 6.31867 7.30733 6.86 7.578C7.41067 7.84867 7.82133 8.222 8.092 8.698C8.36267 9.16467 8.498 9.68733 8.498 10.266C8.498 10.9193 8.31133 11.5027 7.938 12.016C7.574 12.5293 7.03267 12.8933 6.314 13.108L8.582 17H5.88ZM3.262 11.596H4.746C5.18467 11.596 5.51133 11.4887 5.726 11.274C5.95 11.0593 6.062 10.756 6.062 10.364C6.062 9.99067 5.95 9.69667 5.726 9.482C5.51133 9.26733 5.18467 9.16 4.746 9.16H3.262V11.596ZM15.6988 17L12.3948 12.66V17H10.0008V7.172H12.3948V11.484L15.6708 7.172H18.4848L14.6768 11.988L18.6248 17H15.6988ZM30.2193 10.336C30.2193 10.9053 30.0887 11.428 29.8273 11.904C29.566 12.3707 29.1647 12.7487 28.6233 13.038C28.082 13.3273 27.41 13.472 26.6073 13.472H25.1233V17H22.7293V7.172H26.6073C27.3913 7.172 28.054 7.30733 28.5953 7.578C29.1367 7.84867 29.5427 8.222 29.8133 8.698C30.084 9.174 30.2193 9.72 30.2193 10.336ZM26.4253 11.568C26.8827 11.568 27.2233 11.4607 27.4473 11.246C27.6713 11.0313 27.7833 10.728 27.7833 10.336C27.7833 9.944 27.6713 9.64067 27.4473 9.426C27.2233 9.21133 26.8827 9.104 26.4253 9.104H25.1233V11.568H26.4253ZM36.1137 17.098C35.1897 17.098 34.3403 16.8833 33.5657 16.454C32.8003 16.0247 32.189 15.4273 31.7317 14.662C31.2837 13.8873 31.0597 13.0193 31.0597 12.058C31.0597 11.0967 31.2837 10.2333 31.7317 9.468C32.189 8.70267 32.8003 8.10533 33.5657 7.676C34.3403 7.24667 35.1897 7.032 36.1137 7.032C37.0377 7.032 37.8823 7.24667 38.6477 7.676C39.4223 8.10533 40.029 8.70267 40.4677 9.468C40.9157 10.2333 41.1397 11.0967 41.1397 12.058C41.1397 13.0193 40.9157 13.8873 40.4677 14.662C40.0197 15.4273 39.413 16.0247 38.6477 16.454C37.8823 16.8833 37.0377 17.098 36.1137 17.098ZM36.1137 14.914C36.8977 14.914 37.523 14.6527 37.9897 14.13C38.4657 13.6073 38.7037 12.9167 38.7037 12.058C38.7037 11.19 38.4657 10.4993 37.9897 9.986C37.523 9.46333 36.8977 9.202 36.1137 9.202C35.3203 9.202 34.6857 9.45867 34.2097 9.972C33.743 10.4853 33.5097 11.1807 33.5097 12.058C33.5097 12.926 33.743 13.6213 34.2097 14.144C34.6857 14.6573 35.3203 14.914 36.1137 14.914ZM44.8655 15.152H48.0015V17H42.4715V7.172H44.8655V15.152ZM57.5714 7.172L54.1694 13.752V17H51.7754V13.752L48.3734 7.172H51.0894L52.9934 11.288L54.8834 7.172H57.5714ZM64.0636 12.072C64.0636 11.1013 64.2736 10.238 64.6936 9.482C65.1136 8.71667 65.6969 8.124 66.4436 7.704C67.1996 7.27467 68.0536 7.06 69.0056 7.06C70.1722 7.06 71.1709 7.368 72.0016 7.984C72.8322 8.6 73.3876 9.44 73.6676 10.504H71.0356C70.8396 10.0933 70.5596 9.78067 70.1956 9.566C69.8409 9.35133 69.4349 9.244 68.9776 9.244C68.2402 9.244 67.6429 9.50067 67.1856 10.014C66.7282 10.5273 66.4996 11.2133 66.4996 12.072C66.4996 12.9307 66.7282 13.6167 67.1856 14.13C67.6429 14.6433 68.2402 14.9 68.9776 14.9C69.4349 14.9 69.8409 14.7927 70.1956 14.578C70.5596 14.3633 70.8396 14.0507 71.0356 13.64H73.6676C73.3876 14.704 72.8322 15.544 72.0016 16.16C71.1709 16.7667 70.1722 17.07 69.0056 17.07C68.0536 17.07 67.1996 16.86 66.4436 16.44C65.6969 16.0107 65.1136 15.418 64.6936 14.662C64.2736 13.906 64.0636 13.0427 64.0636 12.072ZM79.7816 17.098C78.8576 17.098 78.0083 16.8833 77.2336 16.454C76.4683 16.0247 75.857 15.4273 75.3996 14.662C74.9516 13.8873 74.7276 13.0193 74.7276 12.058C74.7276 11.0967 74.9516 10.2333 75.3996 9.468C75.857 8.70267 76.4683 8.10533 77.2336 7.676C78.0083 7.24667 78.8576 7.032 79.7816 7.032C80.7056 7.032 81.5503 7.24667 82.3156 7.676C83.0903 8.10533 83.697 8.70267 84.1356 9.468C84.5836 10.2333 84.8076 11.0967 84.8076 12.058C84.8076 13.0193 84.5836 13.8873 84.1356 14.662C83.6876 15.4273 83.081 16.0247 82.3156 16.454C81.5503 16.8833 80.7056 17.098 79.7816 17.098ZM79.7816 14.914C80.5656 14.914 81.191 14.6527 81.6576 14.13C82.1336 13.6073 82.3716 12.9167 82.3716 12.058C82.3716 11.19 82.1336 10.4993 81.6576 9.986C81.191 9.46333 80.5656 9.202 79.7816 9.202C78.9883 9.202 78.3536 9.45867 77.8776 9.972C77.411 10.4853 77.1776 11.1807 77.1776 12.058C77.1776 12.926 77.411 13.6213 77.8776 14.144C78.3536 14.6573 78.9883 14.914 79.7816 14.914ZM94.9315 17H92.5375L88.5335 10.938V17H86.1395V7.172H88.5335L92.5375 13.262V7.172H94.9315V17ZM103.737 7.172V9.09H101.133V17H98.7388V9.09H96.1348V7.172H103.737ZM111.056 15.264H107.388L106.8 17H104.294L107.85 7.172H110.622L114.178 17H111.644L111.056 15.264ZM110.44 13.416L109.222 9.818L108.018 13.416H110.44ZM117.655 7.172V17H115.261V7.172H117.655ZM128.181 17H125.787L121.783 10.938V17H119.389V7.172H121.783L125.787 13.262V7.172H128.181V17ZM132.311 9.09V11.078H135.517V12.926H132.311V15.082H135.937V17H129.917V7.172H135.937V9.09H132.311ZM142.503 17L140.459 13.29H139.885V17H137.491V7.172H141.509C142.284 7.172 142.942 7.30733 143.483 7.578C144.034 7.84867 144.444 8.222 144.715 8.698C144.986 9.16467 145.121 9.68733 145.121 10.266C145.121 10.9193 144.934 11.5027 144.561 12.016C144.197 12.5293 143.656 12.8933 142.937 13.108L145.205 17H142.503ZM139.885 11.596H141.369C141.808 11.596 142.134 11.4887 142.349 11.274C142.573 11.0593 142.685 10.756 142.685 10.364C142.685 9.99067 142.573 9.69667 142.349 9.482C142.134 9.26733 141.808 9.16 141.369 9.16H139.885V11.596ZM150.18 17.098C149.461 17.098 148.817 16.9813 148.248 16.748C147.679 16.5147 147.221 16.1693 146.876 15.712C146.54 15.2547 146.363 14.704 146.344 14.06H148.892C148.929 14.424 149.055 14.704 149.27 14.9C149.485 15.0867 149.765 15.18 150.11 15.18C150.465 15.18 150.745 15.1007 150.95 14.942C151.155 14.774 151.258 14.5453 151.258 14.256C151.258 14.0133 151.174 13.8127 151.006 13.654C150.847 13.4953 150.647 13.3647 150.404 13.262C150.171 13.1593 149.835 13.0427 149.396 12.912C148.761 12.716 148.243 12.52 147.842 12.324C147.441 12.128 147.095 11.8387 146.806 11.456C146.517 11.0733 146.372 10.574 146.372 9.958C146.372 9.04333 146.703 8.32933 147.366 7.816C148.029 7.29333 148.892 7.032 149.956 7.032C151.039 7.032 151.911 7.29333 152.574 7.816C153.237 8.32933 153.591 9.048 153.638 9.972H151.048C151.029 9.65467 150.913 9.40733 150.698 9.23C150.483 9.04333 150.208 8.95 149.872 8.95C149.583 8.95 149.349 9.02933 149.172 9.188C148.995 9.33733 148.906 9.55667 148.906 9.846C148.906 10.1633 149.055 10.4107 149.354 10.588C149.653 10.7653 150.119 10.9567 150.754 11.162C151.389 11.3767 151.902 11.582 152.294 11.778C152.695 11.974 153.041 12.2587 153.33 12.632C153.619 13.0053 153.764 13.486 153.764 14.074C153.764 14.634 153.619 15.1427 153.33 15.6C153.05 16.0573 152.639 16.4213 152.098 16.692C151.557 16.9627 150.917 17.098 150.18 17.098Z" fill="#777878"/>
<path d="M3.144 34.056C2.62667 34.056 2.15467 33.936 1.728 33.696C1.30133 33.4507 0.962667 33.112 0.712 32.68C0.466667 32.2427 0.344 31.752 0.344 31.208C0.344 30.664 0.466667 30.176 0.712 29.744C0.962667 29.3067 1.30133 28.968 1.728 28.728C2.15467 28.4827 2.62667 28.36 3.144 28.36C3.66667 28.36 4.14133 28.4827 4.568 28.728C4.99467 28.968 5.33067 29.304 5.576 29.736C5.82133 30.168 5.944 30.6587 5.944 31.208C5.944 31.7573 5.82133 32.248 5.576 32.68C5.33067 33.112 4.99467 33.4507 4.568 33.696C4.14133 33.936 3.66667 34.056 3.144 34.056ZM3.144 33.424C3.53333 33.424 3.88267 33.3333 4.192 33.152C4.50667 32.9707 4.752 32.712 4.928 32.376C5.10933 32.04 5.2 31.6507 5.2 31.208C5.2 30.76 5.10933 30.3707 4.928 30.04C4.752 29.704 4.50933 29.4453 4.2 29.264C3.89067 29.0827 3.53867 28.992 3.144 28.992C2.74933 28.992 2.39733 29.0827 2.088 29.264C1.77867 29.4453 1.53333 29.704 1.352 30.04C1.176 30.3707 1.088 30.76 1.088 31.208C1.088 31.6507 1.176 32.04 1.352 32.376C1.53333 32.712 1.77867 32.9707 2.088 33.152C2.40267 33.3333 2.75467 33.424 3.144 33.424ZM8.53706 33.328L9.89706 29.616H10.6731L8.95306 34H8.10506L6.38506 29.616H7.16906L8.53706 33.328ZM11.1174 31.792C11.1174 31.344 11.2081 30.952 11.3894 30.616C11.5708 30.2747 11.8188 30.0107 12.1334 29.824C12.4534 29.6373 12.8081 29.544 13.1974 29.544C13.5814 29.544 13.9148 29.6267 14.1974 29.792C14.4801 29.9573 14.6908 30.1653 14.8294 30.416V29.616H15.5654V34H14.8294V33.184C14.6854 33.44 14.4694 33.6533 14.1814 33.824C13.8988 33.9893 13.5681 34.072 13.1894 34.072C12.8001 34.072 12.4481 33.976 12.1334 33.784C11.8188 33.592 11.5708 33.3227 11.3894 32.976C11.2081 32.6293 11.1174 32.2347 11.1174 31.792ZM14.8294 31.8C14.8294 31.4693 14.7628 31.1813 14.6294 30.936C14.4961 30.6907 14.3148 30.504 14.0854 30.376C13.8614 30.2427 13.6134 30.176 13.3414 30.176C13.0694 30.176 12.8214 30.24 12.5974 30.368C12.3734 30.496 12.1948 30.6827 12.0614 30.928C11.9281 31.1733 11.8614 31.4613 11.8614 31.792C11.8614 32.128 11.9281 32.4213 12.0614 32.672C12.1948 32.9173 12.3734 33.1067 12.5974 33.24C12.8214 33.368 13.0694 33.432 13.3414 33.432C13.6134 33.432 13.8614 33.368 14.0854 33.24C14.3148 33.1067 14.4961 32.9173 14.6294 32.672C14.7628 32.4213 14.8294 32.1307 14.8294 31.8ZM17.5237 28.08V34H16.7957V28.08H17.5237ZM20.6253 31.208C20.6253 30.664 20.7479 30.176 20.9933 29.744C21.2386 29.3067 21.5719 28.9653 21.9933 28.72C22.4199 28.4747 22.8919 28.352 23.4093 28.352C24.0173 28.352 24.5479 28.4987 25.0013 28.792C25.4546 29.0853 25.7853 29.5013 25.9933 30.04H25.1213C24.9666 29.704 24.7426 29.4453 24.4493 29.264C24.1613 29.0827 23.8146 28.992 23.4093 28.992C23.0199 28.992 22.6706 29.0827 22.3613 29.264C22.0519 29.4453 21.8093 29.704 21.6333 30.04C21.4573 30.3707 21.3693 30.76 21.3693 31.208C21.3693 31.6507 21.4573 32.04 21.6333 32.376C21.8093 32.7067 22.0519 32.9627 22.3613 33.144C22.6706 33.3253 23.0199 33.416 23.4093 33.416C23.8146 33.416 24.1613 33.328 24.4493 33.152C24.7426 32.9707 24.9666 32.712 25.1213 32.376H25.9933C25.7853 32.9093 25.4546 33.3227 25.0013 33.616C24.5479 33.904 24.0173 34.048 23.4093 34.048C22.8919 34.048 22.4199 33.928 21.9933 33.688C21.5719 33.4427 21.2386 33.104 20.9933 32.672C20.7479 32.24 20.6253 31.752 20.6253 31.208ZM29.6049 34.056C29.0876 34.056 28.6156 33.936 28.1889 33.696C27.7623 33.4507 27.4236 33.112 27.1729 32.68C26.9276 32.2427 26.8049 31.752 26.8049 31.208C26.8049 30.664 26.9276 30.176 27.1729 29.744C27.4236 29.3067 27.7623 28.968 28.1889 28.728C28.6156 28.4827 29.0876 28.36 29.6049 28.36C30.1276 28.36 30.6023 28.4827 31.0289 28.728C31.4556 28.968 31.7916 29.304 32.0369 29.736C32.2823 30.168 32.4049 30.6587 32.4049 31.208C32.4049 31.7573 32.2823 32.248 32.0369 32.68C31.7916 33.112 31.4556 33.4507 31.0289 33.696C30.6023 33.936 30.1276 34.056 29.6049 34.056ZM29.6049 33.424C29.9943 33.424 30.3436 33.3333 30.6529 33.152C30.9676 32.9707 31.2129 32.712 31.3889 32.376C31.5703 32.04 31.6609 31.6507 31.6609 31.208C31.6609 30.76 31.5703 30.3707 31.3889 30.04C31.2129 29.704 30.9703 29.4453 30.6609 29.264C30.3516 29.0827 29.9996 28.992 29.6049 28.992C29.2103 28.992 28.8583 29.0827 28.5489 29.264C28.2396 29.4453 27.9943 29.704 27.8129 30.04C27.6369 30.3707 27.5489 30.76 27.5489 31.208C27.5489 31.6507 27.6369 32.04 27.8129 32.376C27.9943 32.712 28.2396 32.9707 28.5489 33.152C28.8636 33.3333 29.2156 33.424 29.6049 33.424ZM37.75 34H37.022L34.094 29.56V34H33.366V28.416H34.094L37.022 32.848V28.416H37.75V34ZM42.423 28.424V29.016H40.903V34H40.175V29.016H38.647V28.424H42.423ZM46.6151 32.76H44.1831L43.7351 34H42.9671L44.9831 28.456H45.8231L47.8311 34H47.0631L46.6151 32.76ZM46.4071 32.168L45.3991 29.352L44.3911 32.168H46.4071ZM49.4378 28.424V34H48.7098V28.424H49.4378ZM55.0625 34H54.3345L51.4065 29.56V34H50.6785V28.416H51.4065L54.3345 32.848V28.416H55.0625V34ZM57.0315 29.016V30.88H59.0635V31.48H57.0315V33.4H59.3035V34H56.3035V28.416H59.3035V29.016H57.0315ZM63.3411 34L62.0131 31.72H61.1331V34H60.4051V28.424H62.2051C62.6264 28.424 62.9811 28.496 63.2691 28.64C63.5624 28.784 63.7811 28.9787 63.9251 29.224C64.0691 29.4693 64.1411 29.7493 64.1411 30.064C64.1411 30.448 64.0291 30.7867 63.8051 31.08C63.5864 31.3733 63.2557 31.568 62.8131 31.664L64.2131 34H63.3411ZM61.1331 31.136H62.2051C62.5997 31.136 62.8957 31.04 63.0931 30.848C63.2904 30.6507 63.3891 30.3893 63.3891 30.064C63.3891 29.7333 63.2904 29.4773 63.0931 29.296C62.9011 29.1147 62.6051 29.024 62.2051 29.024H61.1331V31.136Z" fill="#777878"/>
</svg>
