<svg width="109" height="37" viewBox="0 0 109 37" fill="none" xmlns="http://www.w3.org/2000/svg">
<path d="M5.77 13.3927C5.84333 13.3927 5.90833 13.421 5.965 13.4777L6.495 14.0527C6.20167 14.416 5.84 14.6943 5.41 14.8877C4.98333 15.081 4.47 15.1777 3.87 15.1777C3.33333 15.1777 2.85 15.086 2.42 14.9027C1.99333 14.7193 1.62833 14.4643 1.325 14.1377C1.02167 13.811 0.788333 13.421 0.625 12.9677C0.465 12.5143 0.385 12.0193 0.385 11.4827C0.385 10.9393 0.471667 10.4427 0.645 9.99266C0.818333 9.53932 1.06167 9.14932 1.375 8.82266C1.69167 8.49599 2.06833 8.24266 2.505 8.06266C2.94167 7.87932 3.425 7.78766 3.955 7.78766C4.48167 7.78766 4.94833 7.87432 5.355 8.04766C5.765 8.22099 6.11333 8.44766 6.4 8.72766L5.95 9.35266C5.92333 9.39266 5.88833 9.42766 5.845 9.45766C5.805 9.48766 5.74833 9.50266 5.675 9.50266C5.625 9.50266 5.57333 9.48932 5.52 9.46266C5.46667 9.43266 5.40833 9.39766 5.345 9.35766C5.28167 9.31432 5.20833 9.26766 5.125 9.21766C5.04167 9.16766 4.945 9.12266 4.835 9.08266C4.725 9.03932 4.59667 9.00432 4.45 8.97766C4.30667 8.94766 4.14 8.93266 3.95 8.93266C3.62667 8.93266 3.33 8.99099 3.06 9.10766C2.79333 9.22099 2.56333 9.38766 2.37 9.60766C2.17667 9.82432 2.02667 10.091 1.92 10.4077C1.81333 10.721 1.76 11.0793 1.76 11.4827C1.76 11.8893 1.81667 12.251 1.93 12.5677C2.04667 12.8843 2.20333 13.151 2.4 13.3677C2.59667 13.5843 2.82833 13.751 3.095 13.8677C3.36167 13.981 3.64833 14.0377 3.955 14.0377C4.13833 14.0377 4.30333 14.0277 4.45 14.0077C4.6 13.9877 4.73667 13.956 4.86 13.9127C4.98667 13.8693 5.105 13.8143 5.215 13.7477C5.32833 13.6777 5.44 13.5927 5.55 13.4927C5.58333 13.4627 5.61833 13.4393 5.655 13.4227C5.69167 13.4027 5.73 13.3927 5.77 13.3927ZM9.93133 12.9077C9.57466 12.9243 9.27466 12.956 9.03133 13.0027C8.78799 13.046 8.59299 13.1027 8.44633 13.1727C8.29966 13.2427 8.19466 13.3243 8.13133 13.4177C8.06799 13.511 8.03633 13.6127 8.03633 13.7227C8.03633 13.9393 8.09966 14.0943 8.22633 14.1877C8.35633 14.281 8.52466 14.3277 8.73133 14.3277C8.98466 14.3277 9.20299 14.2827 9.38633 14.1927C9.57299 14.0993 9.75466 13.9593 9.93133 13.7727V12.9077ZM7.10133 10.6827C7.69133 10.1427 8.40133 9.87266 9.23133 9.87266C9.53133 9.87266 9.79966 9.92266 10.0363 10.0227C10.273 10.1193 10.473 10.256 10.6363 10.4327C10.7997 10.606 10.923 10.8143 11.0063 11.0577C11.093 11.301 11.1363 11.5677 11.1363 11.8577V15.0977H10.5763C10.4597 15.0977 10.3697 15.081 10.3063 15.0477C10.243 15.011 10.193 14.9393 10.1563 14.8327L10.0463 14.4627C9.91633 14.5793 9.78966 14.6827 9.66633 14.7727C9.54299 14.8593 9.41466 14.9327 9.28133 14.9927C9.14799 15.0527 9.00466 15.0977 8.85133 15.1277C8.70133 15.161 8.53466 15.1777 8.35133 15.1777C8.13466 15.1777 7.93466 15.1493 7.75133 15.0927C7.56799 15.0327 7.40966 14.9443 7.27633 14.8277C7.14299 14.711 7.03966 14.566 6.96633 14.3927C6.89299 14.2193 6.85633 14.0177 6.85633 13.7877C6.85633 13.6577 6.87799 13.5293 6.92133 13.4027C6.96466 13.2727 7.03466 13.1493 7.13133 13.0327C7.23133 12.916 7.35966 12.806 7.51633 12.7027C7.67299 12.5993 7.86466 12.5093 8.09133 12.4327C8.32133 12.356 8.58799 12.2943 8.89133 12.2477C9.19466 12.1977 9.54133 12.1677 9.93133 12.1577V11.8577C9.93133 11.5143 9.85799 11.261 9.71133 11.0977C9.56466 10.931 9.35299 10.8477 9.07633 10.8477C8.87633 10.8477 8.70966 10.871 8.57633 10.9177C8.44633 10.9643 8.33133 11.0177 8.23133 11.0777C8.13133 11.1343 8.03966 11.186 7.95633 11.2327C7.87633 11.2793 7.78633 11.3027 7.68633 11.3027C7.59966 11.3027 7.52633 11.281 7.46633 11.2377C7.40633 11.191 7.35799 11.1377 7.32133 11.0777L7.10133 10.6827ZM13.4645 10.8577C13.6245 10.551 13.8145 10.311 14.0345 10.1377C14.2545 9.96099 14.5145 9.87266 14.8145 9.87266C15.0511 9.87266 15.2411 9.92432 15.3845 10.0277L15.3045 10.9527C15.2878 11.0127 15.2628 11.056 15.2295 11.0827C15.1995 11.106 15.1578 11.1177 15.1045 11.1177C15.0545 11.1177 14.9795 11.1093 14.8795 11.0927C14.7828 11.076 14.6878 11.0677 14.5945 11.0677C14.4578 11.0677 14.3361 11.0877 14.2295 11.1277C14.1228 11.1677 14.0261 11.226 13.9395 11.3027C13.8561 11.376 13.7811 11.466 13.7145 11.5727C13.6511 11.6793 13.5911 11.801 13.5345 11.9377V15.0977H12.2995V9.96766H13.0245C13.1511 9.96766 13.2395 9.99099 13.2895 10.0377C13.3395 10.081 13.3728 10.161 13.3895 10.2777L13.4645 10.8577ZM17.7399 15.1777C17.2933 15.1777 16.9499 15.0527 16.7099 14.8027C16.4733 14.5493 16.3549 14.201 16.3549 13.7577V10.8927H15.8299C15.7633 10.8927 15.7066 10.871 15.6599 10.8277C15.6133 10.7843 15.5899 10.7193 15.5899 10.6327V10.1427L16.4149 10.0077L16.6749 8.60766C16.6916 8.54099 16.7233 8.48932 16.7699 8.45266C16.8166 8.41599 16.8766 8.39766 16.9499 8.39766H17.5899V10.0127H18.9599V10.8927H17.5899V13.6727C17.5899 13.8327 17.6283 13.9577 17.7049 14.0477C17.7849 14.1377 17.8933 14.1827 18.0299 14.1827C18.1066 14.1827 18.1699 14.1743 18.2199 14.1577C18.2733 14.1377 18.3183 14.1177 18.3549 14.0977C18.3949 14.0777 18.4299 14.0593 18.4599 14.0427C18.4899 14.0227 18.5199 14.0127 18.5499 14.0127C18.5866 14.0127 18.6166 14.0227 18.6399 14.0427C18.6633 14.0593 18.6883 14.086 18.7149 14.1227L19.0849 14.7227C18.9049 14.8727 18.6983 14.986 18.4649 15.0627C18.2316 15.1393 17.9899 15.1777 17.7399 15.1777ZM21.9816 9.88766C22.3616 9.88766 22.7066 9.94932 23.0166 10.0727C23.3299 10.196 23.5966 10.371 23.8166 10.5977C24.0399 10.8243 24.2116 11.101 24.3316 11.4277C24.4516 11.7543 24.5116 12.1193 24.5116 12.5227C24.5116 12.9293 24.4516 13.296 24.3316 13.6227C24.2116 13.9493 24.0399 14.2277 23.8166 14.4577C23.5966 14.6877 23.3299 14.8643 23.0166 14.9877C22.7066 15.111 22.3616 15.1727 21.9816 15.1727C21.5982 15.1727 21.2499 15.111 20.9366 14.9877C20.6232 14.8643 20.3549 14.6877 20.1316 14.4577C19.9116 14.2277 19.7399 13.9493 19.6166 13.6227C19.4966 13.296 19.4366 12.9293 19.4366 12.5227C19.4366 12.1193 19.4966 11.7543 19.6166 11.4277C19.7399 11.101 19.9116 10.8243 20.1316 10.5977C20.3549 10.371 20.6232 10.196 20.9366 10.0727C21.2499 9.94932 21.5982 9.88766 21.9816 9.88766ZM21.9816 14.2227C22.4082 14.2227 22.7232 14.0793 22.9266 13.7927C23.1332 13.506 23.2366 13.086 23.2366 12.5327C23.2366 11.9793 23.1332 11.5577 22.9266 11.2677C22.7232 10.9777 22.4082 10.8327 21.9816 10.8327C21.5482 10.8327 21.2266 10.9793 21.0166 11.2727C20.8099 11.5627 20.7066 11.9827 20.7066 12.5327C20.7066 13.0827 20.8099 13.5027 21.0166 13.7927C21.2266 14.0793 21.5482 14.2227 21.9816 14.2227ZM26.6088 10.5977C26.7121 10.4943 26.8204 10.3993 26.9338 10.3127C27.0504 10.2227 27.1721 10.1477 27.2988 10.0877C27.4288 10.0243 27.5671 9.97599 27.7138 9.94266C27.8604 9.90599 28.0204 9.88766 28.1938 9.88766C28.4738 9.88766 28.7221 9.93599 28.9388 10.0327C29.1554 10.126 29.3354 10.2593 29.4788 10.4327C29.6254 10.6027 29.7354 10.8077 29.8088 11.0477C29.8854 11.2843 29.9238 11.546 29.9238 11.8327V15.0977H28.6888V11.8327C28.6888 11.5193 28.6171 11.2777 28.4738 11.1077C28.3304 10.9343 28.1121 10.8477 27.8188 10.8477C27.6054 10.8477 27.4054 10.896 27.2188 10.9927C27.0321 11.0893 26.8554 11.221 26.6888 11.3877V15.0977H25.4538V9.96766H26.2088C26.3688 9.96766 26.4738 10.0427 26.5238 10.1927L26.6088 10.5977ZM43.2766 7.86766L41.0316 15.0977H39.8166L38.2366 10.1577C38.1932 10.0377 38.1532 9.89099 38.1166 9.71766C38.0966 9.80099 38.0766 9.87932 38.0566 9.95266C38.0366 10.026 38.0149 10.0943 37.9916 10.1577L36.3966 15.0977H35.1766L32.9366 7.86766H34.0616C34.1782 7.86766 34.2749 7.89599 34.3516 7.95266C34.4316 8.00599 34.4849 8.07932 34.5116 8.17266L35.7416 12.4977C35.7682 12.6043 35.7932 12.721 35.8166 12.8477C35.8432 12.971 35.8699 13.101 35.8966 13.2377C35.9232 13.0977 35.9516 12.966 35.9816 12.8427C36.0149 12.7193 36.0499 12.6043 36.0866 12.4977L37.5066 8.17266C37.5332 8.09599 37.5849 8.02599 37.6616 7.96266C37.7416 7.89932 37.8382 7.86766 37.9516 7.86766H38.3466C38.4632 7.86766 38.5582 7.89599 38.6316 7.95266C38.7049 8.00932 38.7599 8.08266 38.7966 8.17266L40.2116 12.4977C40.2816 12.7043 40.3449 12.9427 40.4016 13.2127C40.4449 12.9493 40.4932 12.711 40.5466 12.4977L41.7766 8.17266C41.7966 8.08932 41.8466 8.01766 41.9266 7.95766C42.0099 7.89766 42.1082 7.86766 42.2216 7.86766H43.2766ZM46.6689 11.9427C46.6689 11.7827 46.6456 11.6327 46.5989 11.4927C46.5556 11.3493 46.4889 11.2243 46.3989 11.1177C46.3089 11.011 46.1939 10.9277 46.0539 10.8677C45.9172 10.8043 45.7572 10.7727 45.5739 10.7727C45.2172 10.7727 44.9356 10.8743 44.7289 11.0777C44.5256 11.281 44.3956 11.5693 44.3389 11.9427H46.6689ZM44.3139 12.6877C44.3339 12.951 44.3806 13.1793 44.4539 13.3727C44.5272 13.5627 44.6239 13.721 44.7439 13.8477C44.8639 13.971 45.0056 14.0643 45.1689 14.1277C45.3356 14.1877 45.5189 14.2177 45.7189 14.2177C45.9189 14.2177 46.0906 14.1943 46.2339 14.1477C46.3806 14.101 46.5072 14.0493 46.6139 13.9927C46.7239 13.936 46.8189 13.8843 46.8989 13.8377C46.9822 13.791 47.0622 13.7677 47.1389 13.7677C47.2422 13.7677 47.3189 13.806 47.3689 13.8827L47.7239 14.3327C47.5872 14.4927 47.4339 14.6277 47.2639 14.7377C47.0939 14.8443 46.9156 14.931 46.7289 14.9977C46.5456 15.061 46.3572 15.106 46.1639 15.1327C45.9739 15.1593 45.7889 15.1727 45.6089 15.1727C45.2522 15.1727 44.9206 15.1143 44.6139 14.9977C44.3072 14.8777 44.0406 14.7027 43.8139 14.4727C43.5872 14.2393 43.4089 13.9527 43.2789 13.6127C43.1489 13.2693 43.0839 12.8727 43.0839 12.4227C43.0839 12.0727 43.1406 11.7443 43.2539 11.4377C43.3672 11.1277 43.5289 10.8593 43.7389 10.6327C43.9522 10.4027 44.2106 10.221 44.5139 10.0877C44.8206 9.95432 45.1656 9.88766 45.5489 9.88766C45.8722 9.88766 46.1706 9.93932 46.4439 10.0427C46.7172 10.146 46.9522 10.2977 47.1489 10.4977C47.3456 10.6943 47.4989 10.9377 47.6089 11.2277C47.7222 11.5143 47.7789 11.8427 47.7789 12.2127C47.7789 12.3993 47.7589 12.526 47.7189 12.5927C47.6789 12.656 47.6022 12.6877 47.4889 12.6877H44.3139ZM49.9857 9.96766V15.0977H48.7457V9.96766H49.9857ZM50.1557 8.47266C50.1557 8.57932 50.134 8.67932 50.0907 8.77266C50.0474 8.86599 49.989 8.94766 49.9157 9.01766C49.8457 9.08766 49.7624 9.14432 49.6657 9.18766C49.569 9.22766 49.4657 9.24766 49.3557 9.24766C49.249 9.24766 49.1474 9.22766 49.0507 9.18766C48.9574 9.14432 48.8757 9.08766 48.8057 9.01766C48.7357 8.94766 48.679 8.86599 48.6357 8.77266C48.5957 8.67932 48.5757 8.57932 48.5757 8.47266C48.5757 8.36266 48.5957 8.25932 48.6357 8.16266C48.679 8.06599 48.7357 7.98266 48.8057 7.91266C48.8757 7.84266 48.9574 7.78766 49.0507 7.74766C49.1474 7.70432 49.249 7.68266 49.3557 7.68266C49.4657 7.68266 49.569 7.70432 49.6657 7.74766C49.7624 7.78766 49.8457 7.84266 49.9157 7.91266C49.989 7.98266 50.0474 8.06599 50.0907 8.16266C50.134 8.25932 50.1557 8.36266 50.1557 8.47266ZM53.1198 12.4077C53.2731 12.4077 53.4064 12.3877 53.5198 12.3477C53.6331 12.3043 53.7264 12.246 53.7998 12.1727C53.8764 12.0993 53.9331 12.011 53.9698 11.9077C54.0098 11.8043 54.0298 11.691 54.0298 11.5677C54.0298 11.3143 53.9531 11.1143 53.7998 10.9677C53.6498 10.8177 53.4231 10.7427 53.1198 10.7427C52.8164 10.7427 52.5881 10.8177 52.4348 10.9677C52.2848 11.1143 52.2098 11.3143 52.2098 11.5677C52.2098 11.6877 52.2281 11.7993 52.2648 11.9027C52.3048 12.006 52.3614 12.096 52.4348 12.1727C52.5114 12.246 52.6064 12.3043 52.7198 12.3477C52.8364 12.3877 52.9698 12.4077 53.1198 12.4077ZM54.5148 15.3277C54.5148 15.2277 54.4848 15.146 54.4248 15.0827C54.3648 15.0193 54.2831 14.971 54.1798 14.9377C54.0764 14.901 53.9548 14.8743 53.8148 14.8577C53.6781 14.841 53.5314 14.8293 53.3748 14.8227C53.2214 14.8127 53.0614 14.8043 52.8948 14.7977C52.7314 14.791 52.5714 14.7777 52.4148 14.7577C52.2781 14.8343 52.1664 14.9243 52.0798 15.0277C51.9964 15.131 51.9548 15.251 51.9548 15.3877C51.9548 15.4777 51.9764 15.561 52.0198 15.6377C52.0664 15.7177 52.1381 15.786 52.2348 15.8427C52.3348 15.8993 52.4631 15.9427 52.6198 15.9727C52.7764 16.006 52.9681 16.0227 53.1948 16.0227C53.4248 16.0227 53.6231 16.0043 53.7898 15.9677C53.9564 15.9343 54.0931 15.886 54.1998 15.8227C54.3098 15.7627 54.3898 15.6893 54.4398 15.6027C54.4898 15.5193 54.5148 15.4277 54.5148 15.3277ZM55.7448 10.1427V10.6027C55.7448 10.7493 55.6564 10.8393 55.4798 10.8727L55.0198 10.9577C55.0898 11.1343 55.1248 11.3277 55.1248 11.5377C55.1248 11.791 55.0731 12.021 54.9698 12.2277C54.8698 12.431 54.7298 12.6043 54.5498 12.7477C54.3698 12.891 54.1564 13.0027 53.9098 13.0827C53.6664 13.1593 53.4031 13.1977 53.1198 13.1977C53.0198 13.1977 52.9231 13.1927 52.8298 13.1827C52.7364 13.1727 52.6448 13.1593 52.5548 13.1427C52.3948 13.2393 52.3148 13.3477 52.3148 13.4677C52.3148 13.571 52.3614 13.6477 52.4548 13.6977C52.5514 13.7443 52.6781 13.7777 52.8348 13.7977C52.9914 13.8177 53.1698 13.831 53.3698 13.8377C53.5698 13.841 53.7748 13.851 53.9848 13.8677C54.1948 13.8843 54.3998 13.9143 54.5998 13.9577C54.7998 13.9977 54.9781 14.0627 55.1348 14.1527C55.2914 14.2427 55.4164 14.366 55.5098 14.5227C55.6064 14.676 55.6548 14.8743 55.6548 15.1177C55.6548 15.3443 55.5981 15.5643 55.4848 15.7777C55.3748 15.991 55.2131 16.181 54.9998 16.3477C54.7898 16.5143 54.5298 16.6477 54.2198 16.7477C53.9131 16.851 53.5631 16.9027 53.1698 16.9027C52.7831 16.9027 52.4464 16.8643 52.1598 16.7877C51.8731 16.7143 51.6348 16.6143 51.4448 16.4877C51.2548 16.3643 51.1131 16.221 51.0198 16.0577C50.9264 15.8943 50.8798 15.7243 50.8798 15.5477C50.8798 15.3077 50.9514 15.1077 51.0948 14.9477C51.2414 14.7843 51.4414 14.6543 51.6948 14.5577C51.5581 14.4877 51.4498 14.3943 51.3698 14.2777C51.2898 14.161 51.2498 14.0077 51.2498 13.8177C51.2498 13.741 51.2631 13.6627 51.2898 13.5827C51.3198 13.4993 51.3614 13.4177 51.4148 13.3377C51.4714 13.2577 51.5414 13.1827 51.6248 13.1127C51.7081 13.0393 51.8064 12.9743 51.9198 12.9177C51.6598 12.7777 51.4548 12.591 51.3048 12.3577C51.1581 12.1243 51.0848 11.851 51.0848 11.5377C51.0848 11.2843 51.1348 11.056 51.2348 10.8527C51.3381 10.646 51.4798 10.471 51.6598 10.3277C51.8431 10.181 52.0581 10.0693 52.3048 9.99266C52.5548 9.91599 52.8264 9.87766 53.1198 9.87766C53.3398 9.87766 53.5464 9.90099 53.7398 9.94766C53.9331 9.99099 54.1098 10.056 54.2698 10.1427H55.7448ZM57.763 10.5177C57.963 10.331 58.183 10.1793 58.423 10.0627C58.663 9.94599 58.9446 9.88766 59.268 9.88766C59.548 9.88766 59.7963 9.93599 60.013 10.0327C60.2296 10.126 60.4096 10.2593 60.553 10.4327C60.6996 10.6027 60.8096 10.8077 60.883 11.0477C60.9596 11.2843 60.998 11.546 60.998 11.8327V15.0977H59.763V11.8327C59.763 11.5193 59.6913 11.2777 59.548 11.1077C59.4046 10.9343 59.1863 10.8477 58.893 10.8477C58.6796 10.8477 58.4796 10.896 58.293 10.9927C58.1063 11.0893 57.9296 11.221 57.763 11.3877V15.0977H56.528V7.66766H57.763V10.5177ZM63.8141 15.1777C63.3675 15.1777 63.0241 15.0527 62.7841 14.8027C62.5475 14.5493 62.4291 14.201 62.4291 13.7577V10.8927H61.9041C61.8375 10.8927 61.7808 10.871 61.7341 10.8277C61.6875 10.7843 61.6641 10.7193 61.6641 10.6327V10.1427L62.4891 10.0077L62.7491 8.60766C62.7658 8.54099 62.7975 8.48932 62.8441 8.45266C62.8908 8.41599 62.9508 8.39766 63.0241 8.39766H63.6641V10.0127H65.0341V10.8927H63.6641V13.6727C63.6641 13.8327 63.7025 13.9577 63.7791 14.0477C63.8591 14.1377 63.9675 14.1827 64.1041 14.1827C64.1808 14.1827 64.2441 14.1743 64.2941 14.1577C64.3475 14.1377 64.3925 14.1177 64.4291 14.0977C64.4691 14.0777 64.5041 14.0593 64.5341 14.0427C64.5641 14.0227 64.5941 14.0127 64.6241 14.0127C64.6608 14.0127 64.6908 14.0227 64.7141 14.0427C64.7375 14.0593 64.7625 14.086 64.7891 14.1227L65.1591 14.7227C64.9791 14.8727 64.7725 14.986 64.5391 15.0627C64.3058 15.1393 64.0641 15.1777 63.8141 15.1777Z" fill="white"/>
<path d="M35.304 23.2821V22.6181H36.808V28.4021H36.072V23.2821H35.304ZM38.4105 28.4501C38.2718 28.4501 38.1545 28.4021 38.0585 28.3061C37.9625 28.2101 37.9145 28.0928 37.9145 27.9541C37.9145 27.8154 37.9625 27.6981 38.0585 27.6021C38.1545 27.5061 38.2718 27.4581 38.4105 27.4581C38.5438 27.4581 38.6558 27.5061 38.7465 27.6021C38.8425 27.6981 38.8905 27.8154 38.8905 27.9541C38.8905 28.0928 38.8425 28.2101 38.7465 28.3061C38.6558 28.4021 38.5438 28.4501 38.4105 28.4501ZM43.4262 23.2501H40.6182V25.0741C40.7409 24.9034 40.9222 24.7648 41.1622 24.6581C41.4022 24.5461 41.6609 24.4901 41.9382 24.4901C42.3809 24.4901 42.7409 24.5834 43.0182 24.7701C43.2955 24.9514 43.4929 25.1888 43.6102 25.4821C43.7329 25.7701 43.7942 26.0768 43.7942 26.4021C43.7942 26.7861 43.7222 27.1301 43.5782 27.4341C43.4342 27.7381 43.2129 27.9781 42.9142 28.1541C42.6209 28.3301 42.2555 28.4181 41.8182 28.4181C41.2582 28.4181 40.8049 28.2741 40.4582 27.9861C40.1115 27.6981 39.9009 27.3141 39.8262 26.8341H40.5382C40.6075 27.1381 40.7542 27.3754 40.9782 27.5461C41.2022 27.7168 41.4849 27.8021 41.8262 27.8021C42.2475 27.8021 42.5649 27.6768 42.7782 27.4261C42.9915 27.1701 43.0982 26.8341 43.0982 26.4181C43.0982 26.0021 42.9915 25.6821 42.7782 25.4581C42.5649 25.2288 42.2502 25.1141 41.8342 25.1141C41.5515 25.1141 41.3035 25.1834 41.0902 25.3221C40.8822 25.4554 40.7302 25.6394 40.6342 25.8741H39.9462V22.6101H43.4262V23.2501ZM44.5856 27.1141V26.5621L47.3936 22.6741H48.2656V26.4821H49.0656V27.1141H48.2656V28.4021H47.5456V27.1141H44.5856ZM47.5776 23.4341L45.4256 26.4821H47.5776V23.4341ZM49.7929 25.4501C49.7929 24.5328 49.9422 23.8181 50.2409 23.3061C50.5395 22.7888 51.0622 22.5301 51.8089 22.5301C52.5502 22.5301 53.0702 22.7888 53.3689 23.3061C53.6675 23.8181 53.8169 24.5328 53.8169 25.4501C53.8169 26.3834 53.6675 27.1088 53.3689 27.6261C53.0702 28.1434 52.5502 28.4021 51.8089 28.4021C51.0622 28.4021 50.5395 28.1434 50.2409 27.6261C49.9422 27.1088 49.7929 26.3834 49.7929 25.4501ZM53.0969 25.4501C53.0969 24.9861 53.0649 24.5941 53.0009 24.2741C52.9422 23.9488 52.8169 23.6874 52.6249 23.4901C52.4382 23.2928 52.1662 23.1941 51.8089 23.1941C51.4462 23.1941 51.1689 23.2928 50.9769 23.4901C50.7902 23.6874 50.6649 23.9488 50.6009 24.2741C50.5422 24.5941 50.5129 24.9861 50.5129 25.4501C50.5129 25.9301 50.5422 26.3328 50.6009 26.6581C50.6649 26.9834 50.7902 27.2448 50.9769 27.4421C51.1689 27.6394 51.4462 27.7381 51.8089 27.7381C52.1662 27.7381 52.4382 27.6394 52.6249 27.4421C52.8169 27.2448 52.9422 26.9834 53.0009 26.6581C53.0649 26.3328 53.0969 25.9301 53.0969 25.4501ZM59.5171 28.4021L57.7971 26.4661V28.4021H57.0691V22.4821H57.7971V25.9621L59.4851 24.0181H60.5011L58.4371 26.2021L60.5091 28.4021H59.5171ZM62.9943 23.9461C63.373 23.9461 63.7036 24.0288 63.9863 24.1941C64.2743 24.3594 64.4876 24.5674 64.6263 24.8181V24.0181H65.3623V28.4981C65.3623 28.8981 65.277 29.2528 65.1063 29.5621C64.9356 29.8768 64.6903 30.1221 64.3703 30.2981C64.0556 30.4741 63.6876 30.5621 63.2663 30.5621C62.6903 30.5621 62.2103 30.4261 61.8263 30.1541C61.4423 29.8821 61.2156 29.5114 61.1463 29.0421H61.8663C61.9463 29.3088 62.1116 29.5221 62.3623 29.6821C62.613 29.8474 62.9143 29.9301 63.2663 29.9301C63.6663 29.9301 63.9916 29.8048 64.2423 29.5541C64.4983 29.3034 64.6263 28.9514 64.6263 28.4981V27.5781C64.4823 27.8341 64.269 28.0474 63.9863 28.2181C63.7036 28.3888 63.373 28.4741 62.9943 28.4741C62.605 28.4741 62.2503 28.3781 61.9303 28.1861C61.6156 27.9941 61.3676 27.7248 61.1863 27.3781C61.005 27.0314 60.9143 26.6368 60.9143 26.1941C60.9143 25.7461 61.005 25.3541 61.1863 25.0181C61.3676 24.6768 61.6156 24.4128 61.9303 24.2261C62.2503 24.0394 62.605 23.9461 62.9943 23.9461ZM64.6263 26.2021C64.6263 25.8714 64.5596 25.5834 64.4263 25.3381C64.293 25.0928 64.1116 24.9061 63.8823 24.7781C63.6583 24.6448 63.4103 24.5781 63.1383 24.5781C62.8663 24.5781 62.6183 24.6421 62.3943 24.7701C62.1703 24.8981 61.9916 25.0848 61.8583 25.3301C61.725 25.5754 61.6583 25.8634 61.6583 26.1941C61.6583 26.5301 61.725 26.8234 61.8583 27.0741C61.9916 27.3194 62.1703 27.5088 62.3943 27.6421C62.6183 27.7701 62.8663 27.8341 63.1383 27.8341C63.4103 27.8341 63.6583 27.7701 63.8823 27.6421C64.1116 27.5088 64.293 27.3194 64.4263 27.0741C64.5596 26.8234 64.6263 26.5328 64.6263 26.2021Z" fill="white"/>
<rect x="72" width="36.5" height="36.5" rx="18.25" fill="white" fill-opacity="0.1"/>
<path fill-rule="evenodd" clip-rule="evenodd" d="M89.7863 9.63618C89.9253 9.54926 90.086 9.50317 90.25 9.50317C90.414 9.50317 90.5747 9.54926 90.7138 9.63618L96.7548 13.4118L90.25 17.2382L83.7453 13.4118L89.7863 9.63618ZM82.382 14.6403C82.3772 14.6777 82.3749 14.7154 82.375 14.7532V21.7532C82.375 21.9016 82.4127 22.0476 82.4847 22.1774C82.5566 22.3072 82.6604 22.4165 82.7863 22.4952L89.375 26.6129V18.7537L82.382 14.6403ZM91.125 26.6129L97.7138 22.4952C97.8396 22.4165 97.9434 22.3072 98.0153 22.1774C98.0873 22.0476 98.125 21.9016 98.125 21.7532V14.7532C98.125 14.7153 98.1227 14.6776 98.118 14.6403L91.125 18.7528V26.6129Z" fill="white"/>
</svg>
