<svg width="119" height="37" viewBox="0 0 119 37" fill="none" xmlns="http://www.w3.org/2000/svg">
<path d="M30.7501 13.3985C30.8232 13.3985 30.888 13.4268 30.9444 13.4832L31.4726 14.0563C31.1803 14.4183 30.8199 14.6957 30.3914 14.8884C29.9662 15.081 29.4546 15.1774 28.8567 15.1774C28.3218 15.1774 27.8402 15.086 27.4117 14.9033C26.9865 14.7206 26.6227 14.4665 26.3204 14.141C26.0181 13.8154 25.7856 13.4268 25.6228 12.975C25.4634 12.5232 25.3837 12.0299 25.3837 11.4951C25.3837 10.9537 25.47 10.4587 25.6428 10.0102C25.8155 9.55848 26.058 9.16982 26.3703 8.84428C26.6858 8.51874 27.0612 8.26628 27.4964 8.0869C27.9315 7.9042 28.4132 7.81285 28.9414 7.81285C29.4662 7.81285 29.9313 7.89922 30.3365 8.07195C30.7451 8.24469 31.0923 8.47057 31.3779 8.74961L30.9295 9.37245C30.9029 9.41232 30.868 9.4472 30.8249 9.47709C30.785 9.50699 30.7285 9.52194 30.6554 9.52194C30.6056 9.52194 30.5541 9.50865 30.501 9.48207C30.4478 9.45218 30.3897 9.4173 30.3266 9.37744C30.2635 9.33425 30.1904 9.28775 30.1073 9.23792C30.0243 9.18809 29.928 9.14325 29.8183 9.10338C29.7087 9.0602 29.5808 9.02532 29.4347 8.99875C29.2918 8.96885 29.1257 8.9539 28.9364 8.9539C28.6142 8.9539 28.3185 9.01203 28.0495 9.1283C27.7837 9.24124 27.5545 9.40733 27.3618 9.62658C27.1692 9.8425 27.0197 10.1082 26.9134 10.4238C26.8071 10.7361 26.7539 11.0932 26.7539 11.4951C26.7539 11.9004 26.8104 12.2608 26.9233 12.5764C27.0396 12.892 27.1957 13.1577 27.3917 13.3736C27.5877 13.5895 27.8186 13.7556 28.0843 13.8719C28.3501 13.9848 28.6358 14.0413 28.9414 14.0413C29.1241 14.0413 29.2885 14.0313 29.4347 14.0114C29.5841 13.9915 29.7203 13.9599 29.8433 13.9167C29.9695 13.8736 30.0874 13.8187 30.197 13.7523C30.31 13.6825 30.4213 13.5978 30.5309 13.4982C30.5641 13.4683 30.599 13.445 30.6355 13.4284C30.6721 13.4085 30.7103 13.3985 30.7501 13.3985ZM34.8971 12.9152C34.5417 12.9318 34.2427 12.9634 34.0002 13.0099C33.7577 13.0531 33.5634 13.1095 33.4172 13.1793C33.2711 13.249 33.1664 13.3304 33.1033 13.4234C33.0402 13.5165 33.0086 13.6178 33.0086 13.7274C33.0086 13.9433 33.0717 14.0978 33.198 14.1908C33.3275 14.2838 33.4953 14.3303 33.7012 14.3303C33.9537 14.3303 34.1713 14.2855 34.354 14.1958C34.54 14.1028 34.721 13.9632 34.8971 13.7772V12.9152ZM32.0769 10.6979C32.6648 10.1597 33.3724 9.89066 34.1995 9.89066C34.4985 9.89066 34.7659 9.94049 35.0017 10.0401C35.2376 10.1365 35.4369 10.2727 35.5997 10.4487C35.7624 10.6215 35.8854 10.8291 35.9684 11.0716C36.0548 11.3141 36.098 11.5798 36.098 11.8688V15.0977H35.5399C35.4236 15.0977 35.3339 15.081 35.2708 15.0478C35.2077 15.0113 35.1579 14.9399 35.1213 14.8336L35.0117 14.4648C34.8822 14.5811 34.7559 14.6841 34.633 14.7738C34.5101 14.8601 34.3822 14.9332 34.2493 14.993C34.1165 15.0528 33.9736 15.0977 33.8208 15.1276C33.6713 15.1608 33.5053 15.1774 33.3225 15.1774C33.1066 15.1774 32.9073 15.1491 32.7246 15.0927C32.5419 15.0329 32.3841 14.9449 32.2513 14.8286C32.1184 14.7123 32.0154 14.5678 31.9423 14.3951C31.8692 14.2223 31.8327 14.0214 31.8327 13.7922C31.8327 13.6626 31.8543 13.5347 31.8975 13.4085C31.9407 13.2789 32.0104 13.156 32.1068 13.0398C32.2064 12.9235 32.3343 12.8139 32.4904 12.7109C32.6466 12.6079 32.8376 12.5182 33.0634 12.4418C33.2927 12.3654 33.5584 12.304 33.8607 12.2575C34.163 12.2076 34.5084 12.1778 34.8971 12.1678V11.8688C34.8971 11.5267 34.824 11.2742 34.6779 11.1114C34.5317 10.9453 34.3208 10.8623 34.0451 10.8623C33.8457 10.8623 33.6796 10.8856 33.5468 10.9321C33.4172 10.9786 33.3026 11.0317 33.203 11.0915C33.1033 11.148 33.012 11.1995 32.9289 11.246C32.8492 11.2925 32.7595 11.3157 32.6598 11.3157C32.5735 11.3157 32.5004 11.2941 32.4406 11.251C32.3808 11.2045 32.3326 11.1513 32.2961 11.0915L32.0769 10.6979ZM38.4181 10.8723C38.5775 10.5667 38.7668 10.3275 38.9861 10.1547C39.2053 9.97869 39.4644 9.89066 39.7634 9.89066C39.9993 9.89066 40.1886 9.94215 40.3314 10.0451L40.2517 10.9669C40.2351 11.0267 40.2102 11.0699 40.177 11.0965C40.1471 11.1197 40.1056 11.1314 40.0524 11.1314C40.0026 11.1314 39.9278 11.1231 39.8282 11.1065C39.7318 11.0898 39.6372 11.0815 39.5442 11.0815C39.408 11.0815 39.2867 11.1015 39.1804 11.1413C39.0741 11.1812 38.9778 11.2393 38.8914 11.3157C38.8084 11.3888 38.7336 11.4785 38.6672 11.5848C38.6041 11.6911 38.5443 11.8124 38.4878 11.9485V15.0977H37.2571V9.98533H37.9796C38.1058 9.98533 38.1938 10.0086 38.2437 10.0551C38.2935 10.0983 38.3267 10.178 38.3433 10.2943L38.4181 10.8723ZM42.6788 15.1774C42.2337 15.1774 41.8915 15.0528 41.6523 14.8037C41.4165 14.5512 41.2986 14.2041 41.2986 13.7623V10.9071H40.7754C40.7089 10.9071 40.6525 10.8856 40.606 10.8424C40.5595 10.7992 40.5362 10.7344 40.5362 10.648V10.1597L41.3584 10.0252L41.6175 8.63002C41.6341 8.56358 41.6656 8.5121 41.7121 8.47556C41.7586 8.43901 41.8184 8.42074 41.8915 8.42074H42.5293V10.0302H43.8946V10.9071H42.5293V13.6776C42.5293 13.837 42.5675 13.9616 42.6439 14.0513C42.7236 14.141 42.8316 14.1858 42.9678 14.1858C43.0442 14.1858 43.1073 14.1775 43.1571 14.1609C43.2103 14.141 43.2551 14.121 43.2917 14.1011C43.3315 14.0812 43.3664 14.0629 43.3963 14.0463C43.4262 14.0264 43.4561 14.0164 43.486 14.0164C43.5225 14.0164 43.5524 14.0264 43.5757 14.0463C43.5989 14.0629 43.6239 14.0895 43.6504 14.126L44.0192 14.7239C43.8398 14.8734 43.6338 14.9864 43.4013 15.0628C43.1688 15.1392 42.9279 15.1774 42.6788 15.1774ZM46.9058 9.90561C47.2845 9.90561 47.6283 9.96706 47.9372 10.09C48.2495 10.2129 48.5152 10.3873 48.7345 10.6132C48.9571 10.839 49.1281 11.1148 49.2477 11.4403C49.3673 11.7658 49.4271 12.1296 49.4271 12.5315C49.4271 12.9368 49.3673 13.3022 49.2477 13.6277C49.1281 13.9533 48.9571 14.2307 48.7345 14.4599C48.5152 14.6891 48.2495 14.8651 47.9372 14.988C47.6283 15.1109 47.2845 15.1724 46.9058 15.1724C46.5238 15.1724 46.1767 15.1109 45.8644 14.988C45.5522 14.8651 45.2848 14.6891 45.0622 14.4599C44.8429 14.2307 44.6719 13.9533 44.549 13.6277C44.4294 13.3022 44.3696 12.9368 44.3696 12.5315C44.3696 12.1296 44.4294 11.7658 44.549 11.4403C44.6719 11.1148 44.8429 10.839 45.0622 10.6132C45.2848 10.3873 45.5522 10.2129 45.8644 10.09C46.1767 9.96706 46.5238 9.90561 46.9058 9.90561ZM46.9058 14.2257C47.331 14.2257 47.6449 14.0828 47.8476 13.7972C48.0535 13.5115 48.1565 13.0929 48.1565 12.5415C48.1565 11.9901 48.0535 11.5699 47.8476 11.2809C47.6449 10.9919 47.331 10.8474 46.9058 10.8474C46.474 10.8474 46.1534 10.9935 45.9441 11.2858C45.7382 11.5748 45.6352 11.9934 45.6352 12.5415C45.6352 13.0896 45.7382 13.5082 45.9441 13.7972C46.1534 14.0828 46.474 14.2257 46.9058 14.2257ZM51.5171 10.6132C51.62 10.5102 51.728 10.4155 51.8409 10.3291C51.9572 10.2395 52.0784 10.1647 52.2047 10.1049C52.3342 10.0418 52.4721 9.99364 52.6182 9.96042C52.7644 9.92388 52.9239 9.90561 53.0966 9.90561C53.3756 9.90561 53.6231 9.95378 53.839 10.0501C54.0549 10.1431 54.2343 10.276 54.3772 10.4487C54.5233 10.6181 54.6329 10.8224 54.706 11.0616C54.7824 11.2975 54.8206 11.5582 54.8206 11.8439V15.0977H53.5899V11.8439C53.5899 11.5317 53.5185 11.2908 53.3756 11.1214C53.2328 10.9487 53.0152 10.8623 52.7229 10.8623C52.5103 10.8623 52.311 10.9105 52.125 11.0068C51.9389 11.1031 51.7629 11.2343 51.5968 11.4004V15.0977H50.366V9.98533H51.1184C51.2779 9.98533 51.3825 10.0601 51.4323 10.2096L51.5171 10.6132ZM62.4454 9.20304C62.4056 9.2728 62.3624 9.32429 62.3159 9.35751C62.2727 9.3874 62.2179 9.40235 62.1515 9.40235C62.0817 9.40235 62.0053 9.37744 61.9222 9.32761C61.8425 9.27446 61.7462 9.21633 61.6332 9.15321C61.5203 9.0901 61.3874 9.03363 61.2346 8.9838C61.0851 8.93065 60.9074 8.90407 60.7015 8.90407C60.5154 8.90407 60.3527 8.92733 60.2132 8.97383C60.0736 9.01702 59.9557 9.07847 59.8594 9.15819C59.7664 9.23792 59.6966 9.33425 59.6501 9.4472C59.6036 9.55682 59.5803 9.67806 59.5803 9.81094C59.5803 9.98035 59.6268 10.1215 59.7199 10.2345C59.8162 10.3474 59.9424 10.4437 60.0986 10.5235C60.2547 10.6032 60.4324 10.6746 60.6317 10.7377C60.831 10.8008 61.0353 10.8689 61.2446 10.942C61.4539 11.0118 61.6582 11.0948 61.8575 11.1912C62.0568 11.2842 62.2345 11.4038 62.3906 11.5499C62.5468 11.6928 62.6713 11.8688 62.7643 12.0781C62.8607 12.2874 62.9088 12.5415 62.9088 12.8405C62.9088 13.166 62.8524 13.4716 62.7394 13.7573C62.6298 14.0396 62.467 14.2871 62.2511 14.4997C62.0385 14.709 61.7777 14.8751 61.4688 14.998C61.1599 15.1176 60.8061 15.1774 60.4075 15.1774C60.1783 15.1774 59.9524 15.1541 59.7298 15.1076C59.5073 15.0644 59.293 15.0013 59.087 14.9183C58.8844 14.8352 58.6934 14.7356 58.514 14.6193C58.3347 14.503 58.1752 14.3735 58.0357 14.2307L58.4293 13.5879C58.4625 13.5414 58.5057 13.5032 58.5589 13.4733C58.612 13.4401 58.6685 13.4234 58.7283 13.4234C58.8113 13.4234 58.901 13.4583 58.9974 13.5281C59.0937 13.5945 59.2083 13.6693 59.3412 13.7523C59.474 13.8354 59.6285 13.9118 59.8046 13.9815C59.9839 14.048 60.1982 14.0812 60.4473 14.0812C60.8294 14.0812 61.125 13.9915 61.3343 13.8121C61.5436 13.6294 61.6482 13.3686 61.6482 13.0298C61.6482 12.8405 61.6 12.686 61.5037 12.5664C61.4107 12.4468 61.2861 12.3472 61.13 12.2674C60.9739 12.1844 60.7961 12.1146 60.5968 12.0582C60.3975 12.0017 60.1949 11.9402 59.9889 11.8738C59.783 11.8074 59.5803 11.7276 59.381 11.6346C59.1817 11.5416 59.004 11.4204 58.8479 11.2709C58.6917 11.1214 58.5655 10.9354 58.4692 10.7128C58.3762 10.4869 58.3297 10.2096 58.3297 9.8807C58.3297 9.61827 58.3812 9.36249 58.4841 9.11335C58.5904 8.86421 58.7432 8.64331 58.9425 8.45064C59.1419 8.25797 59.3877 8.10351 59.68 7.98724C59.9723 7.87098 60.3078 7.81285 60.6865 7.81285C61.1117 7.81285 61.5037 7.87928 61.8625 8.01216C62.2212 8.14503 62.5268 8.33105 62.7793 8.57023L62.4454 9.20304ZM65.1399 9.98533V15.0977H63.9041V9.98533H65.1399ZM65.3093 8.49549C65.3093 8.60179 65.2877 8.70144 65.2445 8.79445C65.2013 8.88746 65.1432 8.96885 65.0701 9.03861C65.0004 9.10837 64.9173 9.16484 64.821 9.20802C64.7246 9.24788 64.6217 9.26782 64.512 9.26782C64.4057 9.26782 64.3044 9.24788 64.2081 9.20802C64.1151 9.16484 64.0337 9.10837 63.9639 9.03861C63.8942 8.96885 63.8377 8.88746 63.7945 8.79445C63.7547 8.70144 63.7347 8.60179 63.7347 8.49549C63.7347 8.38587 63.7547 8.28289 63.7945 8.18655C63.8377 8.09022 63.8942 8.00718 63.9639 7.93742C64.0337 7.86766 64.1151 7.81285 64.2081 7.77298C64.3044 7.7298 64.4057 7.70821 64.512 7.70821C64.6217 7.70821 64.7246 7.7298 64.821 7.77298C64.9173 7.81285 65.0004 7.86766 65.0701 7.93742C65.1432 8.00718 65.2013 8.09022 65.2445 8.18655C65.2877 8.28289 65.3093 8.38587 65.3093 8.49549ZM70.0669 10.4936C70.0669 10.5799 70.0519 10.6647 70.022 10.7477C69.9922 10.8307 69.9523 10.8988 69.9025 10.952L67.4759 14.1509H69.9922V15.0977H66.0458V14.5844C66.0458 14.528 66.0591 14.4615 66.0857 14.3851C66.1122 14.3054 66.1521 14.2307 66.2052 14.1609L68.6568 10.9271H66.1903V9.98533H70.0669V10.4936ZM74.1844 11.9535C74.1844 11.7941 74.1611 11.6446 74.1146 11.5051C74.0714 11.3622 74.005 11.2377 73.9153 11.1314C73.8256 11.0251 73.711 10.942 73.5715 10.8822C73.4353 10.8191 73.2758 10.7876 73.0931 10.7876C72.7377 10.7876 72.457 10.8889 72.2511 11.0915C72.0484 11.2941 71.9189 11.5815 71.8624 11.9535H74.1844ZM71.8375 12.696C71.8574 12.9584 71.9039 13.1859 71.977 13.3786C72.0501 13.5679 72.1464 13.7257 72.266 13.852C72.3856 13.9749 72.5268 14.0679 72.6895 14.131C72.8556 14.1908 73.0383 14.2207 73.2376 14.2207C73.437 14.2207 73.608 14.1974 73.7509 14.1509C73.897 14.1044 74.0233 14.0529 74.1296 13.9965C74.2392 13.94 74.3339 13.8885 74.4136 13.842C74.4966 13.7955 74.5764 13.7722 74.6528 13.7722C74.7557 13.7722 74.8321 13.8104 74.882 13.8868L75.2357 14.3353C75.0995 14.4947 74.9467 14.6293 74.7773 14.7389C74.6079 14.8452 74.4302 14.9316 74.2442 14.998C74.0615 15.0611 73.8738 15.106 73.6811 15.1325C73.4918 15.1591 73.3074 15.1724 73.128 15.1724C72.7726 15.1724 72.4421 15.1143 72.1365 14.998C71.8308 14.8784 71.5651 14.704 71.3392 14.4748C71.1133 14.2423 70.9356 13.9566 70.8061 13.6178C70.6765 13.2756 70.6117 12.8803 70.6117 12.4319C70.6117 12.0831 70.6682 11.7559 70.7811 11.4503C70.8941 11.1413 71.0552 10.8739 71.2645 10.648C71.4771 10.4188 71.7345 10.2378 72.0368 10.1049C72.3424 9.97205 72.6862 9.90561 73.0682 9.90561C73.3905 9.90561 73.6878 9.9571 73.9601 10.0601C74.2325 10.1631 74.4667 10.3142 74.6627 10.5135C74.8587 10.7095 75.0115 10.952 75.1211 11.241C75.2341 11.5267 75.2905 11.8539 75.2905 12.2226C75.2905 12.4086 75.2706 12.5349 75.2308 12.6013C75.1909 12.6644 75.1145 12.696 75.0015 12.696H71.8375Z" fill="white"/>
<path d="M0.408 27.8181C1.08533 27.2741 1.616 26.8288 2 26.4821C2.384 26.1301 2.70667 25.7648 2.968 25.3861C3.23467 25.0021 3.368 24.6261 3.368 24.2581C3.368 23.9114 3.28267 23.6394 3.112 23.4421C2.94667 23.2394 2.67733 23.1381 2.304 23.1381C1.94133 23.1381 1.65867 23.2528 1.456 23.4821C1.25867 23.7061 1.152 24.0074 1.136 24.3861H0.432C0.453333 23.7888 0.634667 23.3274 0.976 23.0021C1.31733 22.6768 1.75733 22.5141 2.296 22.5141C2.84533 22.5141 3.28 22.6661 3.6 22.9701C3.92533 23.2741 4.088 23.6928 4.088 24.2261C4.088 24.6688 3.95467 25.1008 3.688 25.5221C3.42667 25.9381 3.128 26.3061 2.792 26.6261C2.456 26.9408 2.02667 27.3088 1.504 27.7301H4.256V28.3381H0.408V27.8181ZM4.92156 27.1141V26.5621L7.72956 22.6741H8.60156V26.4821H9.40156V27.1141H8.60156V28.4021H7.88156V27.1141H4.92156ZM7.91356 23.4341L5.76156 26.4821H7.91356V23.4341ZM15.6136 27.2021L14.3416 25.9301L13.0696 27.2021L12.5896 26.7221L13.8616 25.4501L12.6136 24.2021L13.0776 23.7301L14.3336 24.9861L15.5896 23.7301L16.0696 24.2101L14.8136 25.4661L16.0776 26.7381L15.6136 27.2021ZM19.4471 27.8181C20.1244 27.2741 20.6551 26.8288 21.0391 26.4821C21.4231 26.1301 21.7457 25.7648 22.0071 25.3861C22.2737 25.0021 22.4071 24.6261 22.4071 24.2581C22.4071 23.9114 22.3217 23.6394 22.1511 23.4421C21.9857 23.2394 21.7164 23.1381 21.3431 23.1381C20.9804 23.1381 20.6977 23.2528 20.4951 23.4821C20.2977 23.7061 20.1911 24.0074 20.1751 24.3861H19.4711C19.4924 23.7888 19.6737 23.3274 20.0151 23.0021C20.3564 22.6768 20.7964 22.5141 21.3351 22.5141C21.8844 22.5141 22.3191 22.6661 22.6391 22.9701C22.9644 23.2741 23.1271 23.6928 23.1271 24.2261C23.1271 24.6688 22.9937 25.1008 22.7271 25.5221C22.4657 25.9381 22.1671 26.3061 21.8311 26.6261C21.4951 26.9408 21.0657 27.3088 20.5431 27.7301H23.2951V28.3381H19.4471V27.8181ZM24.1366 25.4501C24.1366 24.5328 24.286 23.8181 24.5846 23.3061C24.8833 22.7888 25.406 22.5301 26.1526 22.5301C26.894 22.5301 27.414 22.7888 27.7126 23.3061C28.0113 23.8181 28.1606 24.5328 28.1606 25.4501C28.1606 26.3834 28.0113 27.1088 27.7126 27.6261C27.414 28.1434 26.894 28.4021 26.1526 28.4021C25.406 28.4021 24.8833 28.1434 24.5846 27.6261C24.286 27.1088 24.1366 26.3834 24.1366 25.4501ZM27.4406 25.4501C27.4406 24.9861 27.4086 24.5941 27.3446 24.2741C27.286 23.9488 27.1606 23.6874 26.9686 23.4901C26.782 23.2928 26.51 23.1941 26.1526 23.1941C25.79 23.1941 25.5126 23.2928 25.3206 23.4901C25.134 23.6874 25.0086 23.9488 24.9446 24.2741C24.886 24.5941 24.8566 24.9861 24.8566 25.4501C24.8566 25.9301 24.886 26.3328 24.9446 26.6581C25.0086 26.9834 25.134 27.2448 25.3206 27.4421C25.5126 27.6394 25.79 27.7381 26.1526 27.7381C26.51 27.7381 26.782 27.6394 26.9686 27.4421C27.1606 27.2448 27.286 26.9834 27.3446 26.6581C27.4086 26.3328 27.4406 25.9301 27.4406 25.4501ZM34.6449 27.2021L33.3729 25.9301L32.1009 27.2021L31.6209 26.7221L32.8929 25.4501L31.6449 24.2021L32.1089 23.7301L33.3649 24.9861L34.6209 23.7301L35.1009 24.2101L33.8449 25.4661L35.1089 26.7381L34.6449 27.2021ZM38.3743 23.2821V22.6181H39.8783V28.4021H39.1423V23.2821H38.3743ZM44.8168 23.2501H42.0088V25.0741C42.1315 24.9034 42.3128 24.7648 42.5528 24.6581C42.7928 24.5461 43.0515 24.4901 43.3288 24.4901C43.7715 24.4901 44.1315 24.5834 44.4088 24.7701C44.6861 24.9514 44.8835 25.1888 45.0008 25.4821C45.1235 25.7701 45.1848 26.0768 45.1848 26.4021C45.1848 26.7861 45.1128 27.1301 44.9688 27.4341C44.8248 27.7381 44.6035 27.9781 44.3048 28.1541C44.0115 28.3301 43.6461 28.4181 43.2088 28.4181C42.6488 28.4181 42.1955 28.2741 41.8488 27.9861C41.5021 27.6981 41.2915 27.3141 41.2168 26.8341H41.9288C41.9981 27.1381 42.1448 27.3754 42.3688 27.5461C42.5928 27.7168 42.8755 27.8021 43.2168 27.8021C43.6381 27.8021 43.9555 27.6768 44.1688 27.4261C44.3821 27.1701 44.4888 26.8341 44.4888 26.4181C44.4888 26.0021 44.3821 25.6821 44.1688 25.4581C43.9555 25.2288 43.6408 25.1141 43.2248 25.1141C42.9421 25.1141 42.6941 25.1834 42.4808 25.3221C42.2728 25.4554 42.1208 25.6394 42.0248 25.8741H41.3368V22.6101H44.8168V23.2501ZM46.5043 28.4501C46.3656 28.4501 46.2483 28.4021 46.1523 28.3061C46.0563 28.2101 46.0083 28.0928 46.0083 27.9541C46.0083 27.8154 46.0563 27.6981 46.1523 27.6021C46.2483 27.5061 46.3656 27.4581 46.5043 27.4581C46.6376 27.4581 46.7496 27.5061 46.8403 27.6021C46.9363 27.6981 46.9843 27.8154 46.9843 27.9541C46.9843 28.0928 46.9363 28.2101 46.8403 28.3061C46.7496 28.4021 46.6376 28.4501 46.5043 28.4501ZM51.3919 23.1861L49.1679 28.4021H48.4319L50.6879 23.2581H47.5999V22.6341H51.3919V23.1861ZM55.8871 23.2501H53.0791V25.0741C53.2018 24.9034 53.3831 24.7648 53.6231 24.6581C53.8631 24.5461 54.1218 24.4901 54.3991 24.4901C54.8418 24.4901 55.2018 24.5834 55.4791 24.7701C55.7565 24.9514 55.9538 25.1888 56.0711 25.4821C56.1938 25.7701 56.2551 26.0768 56.2551 26.4021C56.2551 26.7861 56.1831 27.1301 56.0391 27.4341C55.8951 27.7381 55.6738 27.9781 55.3751 28.1541C55.0818 28.3301 54.7165 28.4181 54.2791 28.4181C53.7191 28.4181 53.2658 28.2741 52.9191 27.9861C52.5725 27.6981 52.3618 27.3141 52.2871 26.8341H52.9991C53.0685 27.1381 53.2151 27.3754 53.4391 27.5461C53.6631 27.7168 53.9458 27.8021 54.2871 27.8021C54.7085 27.8021 55.0258 27.6768 55.2391 27.4261C55.4525 27.1701 55.5591 26.8341 55.5591 26.4181C55.5591 26.0021 55.4525 25.6821 55.2391 25.4581C55.0258 25.2288 54.7111 25.1141 54.2951 25.1141C54.0125 25.1141 53.7645 25.1834 53.5511 25.3221C53.3431 25.4554 53.1911 25.6394 53.0951 25.8741H52.4071V22.6101H55.8871V23.2501ZM64.7474 23.9381C65.0887 23.9381 65.3927 24.0101 65.6594 24.1541C65.926 24.2928 66.1367 24.5034 66.2914 24.7861C66.446 25.0688 66.5234 25.4128 66.5234 25.8181V28.4021H65.8034V25.9221C65.8034 25.4848 65.694 25.1514 65.4754 24.9221C65.262 24.6874 64.9714 24.5701 64.6034 24.5701C64.2247 24.5701 63.9234 24.6928 63.6994 24.9381C63.4754 25.1781 63.3634 25.5274 63.3634 25.9861V28.4021H62.6434V25.9221C62.6434 25.4848 62.534 25.1514 62.3154 24.9221C62.102 24.6874 61.8114 24.5701 61.4434 24.5701C61.0647 24.5701 60.7634 24.6928 60.5394 24.9381C60.3154 25.1781 60.2034 25.5274 60.2034 25.9861V28.4021H59.4754V24.0181H60.2034V24.6501C60.3474 24.4208 60.5394 24.2448 60.7794 24.1221C61.0247 23.9994 61.294 23.9381 61.5874 23.9381C61.9554 23.9381 62.2807 24.0208 62.5634 24.1861C62.846 24.3514 63.0567 24.5941 63.1954 24.9141C63.318 24.6048 63.5207 24.3648 63.8034 24.1941C64.086 24.0234 64.4007 23.9381 64.7474 23.9381ZM72.9896 23.9381C73.3309 23.9381 73.6349 24.0101 73.9016 24.1541C74.1682 24.2928 74.3789 24.5034 74.5336 24.7861C74.6882 25.0688 74.7656 25.4128 74.7656 25.8181V28.4021H74.0456V25.9221C74.0456 25.4848 73.9362 25.1514 73.7176 24.9221C73.5042 24.6874 73.2136 24.5701 72.8456 24.5701C72.4669 24.5701 72.1656 24.6928 71.9416 24.9381C71.7176 25.1781 71.6056 25.5274 71.6056 25.9861V28.4021H70.8856V25.9221C70.8856 25.4848 70.7762 25.1514 70.5576 24.9221C70.3442 24.6874 70.0536 24.5701 69.6856 24.5701C69.3069 24.5701 69.0056 24.6928 68.7816 24.9381C68.5576 25.1781 68.4456 25.5274 68.4456 25.9861V28.4021H67.7176V24.0181H68.4456V24.6501C68.5896 24.4208 68.7816 24.2448 69.0216 24.1221C69.2669 23.9994 69.5362 23.9381 69.8296 23.9381C70.1976 23.9381 70.5229 24.0208 70.8056 24.1861C71.0882 24.3514 71.2989 24.5941 71.4376 24.9141C71.5602 24.6048 71.7629 24.3648 72.0456 24.1941C72.3282 24.0234 72.6429 23.9381 72.9896 23.9381Z" fill="white"/>
<rect x="82" width="36.5" height="36.5" rx="18.25" fill="white" fill-opacity="0.1"/>
<path fill-rule="evenodd" clip-rule="evenodd" d="M109.336 19.2569H91.164L93.043 21.1354C93.1359 21.2283 93.2096 21.3386 93.2598 21.4599C93.3101 21.5813 93.336 21.7113 93.336 21.8427C93.336 21.974 93.3101 22.1041 93.2598 22.2254C93.2096 22.3468 93.1359 22.4571 93.043 22.5499C92.9501 22.6428 92.8399 22.7165 92.7185 22.7668C92.5972 22.817 92.4671 22.8429 92.3358 22.8429C92.2044 22.8429 92.0743 22.817 91.953 22.7668C91.8316 22.7165 91.7214 22.6428 91.6285 22.5499L88.0935 19.0144L88.0685 18.9884C87.9681 18.8949 87.8879 18.7817 87.8331 18.6558C87.7783 18.53 87.75 18.3942 87.75 18.2569C87.75 18.0104 87.839 17.7844 87.987 17.6104C88.0187 17.5664 88.054 17.5248 88.093 17.4854L91.6285 13.9504C91.816 13.7629 92.0703 13.6575 92.3356 13.6574C92.6008 13.6574 92.8552 13.7627 93.0427 13.9502C93.2303 14.1377 93.3357 14.392 93.3358 14.6573C93.3358 14.9225 93.2305 15.1769 93.043 15.3644L91.15 17.2569H109.349L107.456 15.3644C107.364 15.2716 107.29 15.1613 107.24 15.0399C107.189 14.9186 107.164 14.7885 107.164 14.6572C107.164 14.5258 107.189 14.3958 107.24 14.2744C107.29 14.1531 107.364 14.0428 107.456 13.9499C107.644 13.7624 107.898 13.657 108.164 13.657C108.295 13.657 108.425 13.6829 108.547 13.7331C108.668 13.7834 108.778 13.8571 108.871 13.9499L112.406 17.4854C112.446 17.5248 112.482 17.5664 112.513 17.6104C112.661 17.7844 112.75 18.0104 112.75 18.2569C112.75 18.5459 112.627 18.8059 112.431 18.9884L112.406 19.0144L108.871 22.5494C108.683 22.737 108.429 22.8424 108.164 22.8425C107.899 22.8425 107.644 22.7372 107.457 22.5497C107.269 22.3622 107.164 22.1078 107.164 21.8426C107.164 21.5774 107.269 21.323 107.456 21.1354L109.336 19.2569Z" fill="white"/>
</svg>
