<svg width="386" height="39" viewBox="0 0 386 39" fill="none" xmlns="http://www.w3.org/2000/svg">
<g filter="url(#filter0_d_774_123)">
<path d="M8.5223 31.907V9.78608C8.2708 9.92327 7.985 10.0605 7.6649 10.1976C7.34481 10.3348 7.00185 10.4834 6.63602 10.6435C6.29306 10.7807 5.9501 10.9179 5.60714 11.055C5.28705 11.1922 4.98982 11.3294 4.71545 11.4666V7.21389C4.96695 7.0767 5.32134 6.89379 5.77862 6.66515C6.2359 6.41365 6.72748 6.13928 7.25335 5.84205C7.77922 5.54482 8.2708 5.24759 8.72808 4.95035C9.18536 4.63026 9.52832 4.35589 9.75696 4.12725H14.2497V31.907H8.5223ZM27.2742 32.4214C25.6051 32.4214 24.2104 32.0899 23.09 31.4268C21.9697 30.7409 21.1237 29.8035 20.5521 28.6146C19.9805 27.4256 19.6947 26.0424 19.6947 24.4648V11.8781C19.6947 10.2548 19.9577 8.83723 20.4836 7.62544C21.0323 6.39079 21.8668 5.4305 22.9872 4.74458C24.1075 4.05866 25.5365 3.7157 27.2742 3.7157C29.0118 3.7157 30.4294 4.05866 31.5269 4.74458C32.6472 5.4305 33.4703 6.39079 33.9962 7.62544C34.5449 8.83723 34.8193 10.2548 34.8193 11.8781V24.4648C34.8193 26.0195 34.5335 27.4028 33.9619 28.6146C33.3903 29.8035 32.5443 30.7409 31.424 31.4268C30.3036 32.0899 28.9204 32.4214 27.2742 32.4214ZM27.2742 27.3113C27.8229 27.3113 28.2116 27.1398 28.4402 26.7969C28.6917 26.4311 28.8403 26.0195 28.8861 25.5622C28.9547 25.0821 28.989 24.6705 28.989 24.3276V12.0153C28.989 11.6266 28.9661 11.1922 28.9204 10.7121C28.8746 10.2091 28.726 9.77465 28.4745 9.40883C28.2459 9.02014 27.8458 8.8258 27.2742 8.8258C26.7026 8.8258 26.291 9.02014 26.0395 9.40883C25.8109 9.77465 25.6737 10.2091 25.6279 10.7121C25.5822 11.1922 25.5594 11.6266 25.5594 12.0153V24.3276C25.5594 24.6705 25.5937 25.0821 25.6622 25.5622C25.7308 26.0195 25.8795 26.4311 26.1081 26.7969C26.3596 27.1398 26.7483 27.3113 27.2742 27.3113ZM46.8162 32.4214C45.1471 32.4214 43.7524 32.0899 42.632 31.4268C41.5117 30.7409 40.6657 29.8035 40.0941 28.6146C39.5225 27.4256 39.2367 26.0424 39.2367 24.4648V11.8781C39.2367 10.2548 39.4997 8.83723 40.0256 7.62544C40.5743 6.39079 41.4088 5.4305 42.5292 4.74458C43.6495 4.05866 45.0785 3.7157 46.8162 3.7157C48.5538 3.7157 49.9714 4.05866 51.0689 4.74458C52.1892 5.4305 53.0123 6.39079 53.5382 7.62544C54.0869 8.83723 54.3613 10.2548 54.3613 11.8781V24.4648C54.3613 26.0195 54.0755 27.4028 53.5039 28.6146C52.9323 29.8035 52.0863 30.7409 50.966 31.4268C49.8456 32.0899 48.4624 32.4214 46.8162 32.4214ZM46.8162 27.3113C47.3649 27.3113 47.7536 27.1398 47.9822 26.7969C48.2337 26.4311 48.3823 26.0195 48.4281 25.5622C48.4967 25.0821 48.531 24.6705 48.531 24.3276V12.0153C48.531 11.6266 48.5081 11.1922 48.4624 10.7121C48.4166 10.2091 48.268 9.77465 48.0165 9.40883C47.7879 9.02014 47.3878 8.8258 46.8162 8.8258C46.2446 8.8258 45.833 9.02014 45.5815 9.40883C45.3529 9.77465 45.2157 10.2091 45.1699 10.7121C45.1242 11.1922 45.1014 11.6266 45.1014 12.0153V24.3276C45.1014 24.6705 45.1357 25.0821 45.2042 25.5622C45.2728 26.0195 45.4215 26.4311 45.6501 26.7969C45.9016 27.1398 46.2903 27.3113 46.8162 27.3113ZM58.8816 31.907L59.3618 4.12725H65.9466L68.9989 20.2807L72.2914 4.12725H78.6361L79.1163 31.907H74.7607L74.2462 13.4215L71.0224 31.907H67.147L63.7174 13.2843L63.3058 31.907H58.8816ZM83.8183 31.907V4.12725H89.9573V27.7572H96.3363V31.907H83.8183ZM109.171 31.907V4.12725H116.819C118.693 4.12725 120.317 4.33303 121.689 4.74458C123.06 5.15613 124.124 5.89921 124.878 6.97382C125.655 8.02556 126.044 9.52315 126.044 11.4666C126.044 12.6098 125.953 13.6272 125.77 14.5189C125.587 15.4106 125.244 16.188 124.741 16.8511C124.261 17.4912 123.563 18.0285 122.649 18.463L126.456 31.907H120.111L117.059 19.4575H115.309V31.907H109.171ZM115.309 15.9251H117.024C117.893 15.9251 118.568 15.7764 119.048 15.4792C119.528 15.1591 119.859 14.7133 120.042 14.1417C120.248 13.5472 120.351 12.8384 120.351 12.0153C120.351 10.8264 120.134 9.90041 119.699 9.23735C119.265 8.57429 118.465 8.24277 117.299 8.24277H115.309V15.9251ZM138.109 32.3185C136.029 32.3185 134.383 31.9527 133.171 31.2211C131.959 30.4894 131.09 29.4377 130.564 28.0658C130.038 26.694 129.775 25.0592 129.775 23.1615V12.8384C129.775 10.9179 130.038 9.28308 130.564 7.9341C131.09 6.58513 131.959 5.55625 133.171 4.84747C134.383 4.11582 136.029 3.75 138.109 3.75C140.213 3.75 141.87 4.11582 143.082 4.84747C144.317 5.55625 145.197 6.58513 145.723 7.9341C146.249 9.28308 146.512 10.9179 146.512 12.8384V23.1615C146.512 25.0592 146.249 26.694 145.723 28.0658C145.197 29.4377 144.317 30.4894 143.082 31.2211C141.87 31.9527 140.213 32.3185 138.109 32.3185ZM138.109 27.9629C138.75 27.9629 139.218 27.8029 139.515 27.4828C139.813 27.1627 140.007 26.7512 140.098 26.2481C140.19 25.7451 140.236 25.2307 140.236 24.7048V11.3294C140.236 10.7807 140.19 10.2662 140.098 9.78608C140.007 9.28308 139.813 8.87153 139.515 8.55143C139.218 8.23133 138.75 8.07129 138.109 8.07129C137.515 8.07129 137.069 8.23133 136.772 8.55143C136.475 8.87153 136.28 9.28308 136.189 9.78608C136.097 10.2662 136.052 10.7807 136.052 11.3294V24.7048C136.052 25.2307 136.086 25.7451 136.154 26.2481C136.246 26.7512 136.429 27.1627 136.703 27.4828C137 27.8029 137.469 27.9629 138.109 27.9629ZM158.959 32.3185C156.833 32.3185 155.164 31.9756 153.952 31.2897C152.763 30.5809 151.928 29.5634 151.448 28.2373C150.968 26.8883 150.728 25.2421 150.728 23.2987V4.12725H156.798V24.2247C156.798 24.7963 156.844 25.3679 156.936 25.9395C157.027 26.5111 157.221 26.9798 157.519 27.3456C157.839 27.7114 158.319 27.8944 158.959 27.8944C159.622 27.8944 160.102 27.7114 160.4 27.3456C160.697 26.9798 160.88 26.5111 160.948 25.9395C161.04 25.3679 161.085 24.7963 161.085 24.2247V4.12725H167.19V23.2987C167.19 25.2421 166.939 26.8883 166.436 28.2373C165.956 29.5634 165.121 30.5809 163.932 31.2897C162.743 31.9756 161.085 32.3185 158.959 32.3185ZM171.782 31.907V4.12725H176.103L181.796 17.5027V4.12725H186.872V31.907H182.722L177.029 17.5027V31.907H171.782ZM191.692 31.907V4.12725H198.723C201.147 4.12725 203.033 4.43591 204.382 5.05324C205.731 5.64771 206.68 6.59656 207.229 7.89981C207.777 9.18019 208.052 10.8493 208.052 12.907V22.99C208.052 25.0707 207.777 26.774 207.229 28.1001C206.68 29.4034 205.731 30.3637 204.382 30.981C203.056 31.5983 201.192 31.907 198.792 31.907H191.692ZM197.831 27.6543H198.792C199.729 27.6543 200.404 27.5171 200.815 27.2427C201.227 26.9684 201.478 26.5568 201.57 26.0081C201.684 25.4593 201.741 24.7734 201.741 23.9503V11.8438C201.741 11.0207 201.673 10.3577 201.535 9.85468C201.421 9.35167 201.158 8.98585 200.747 8.75721C200.335 8.52857 199.672 8.41425 198.757 8.41425H197.831V27.6543ZM229.891 32.3185C227.788 32.3185 226.119 31.9413 224.884 31.1868C223.672 30.4094 222.815 29.3348 222.312 27.9629C221.809 26.5682 221.557 24.9335 221.557 23.0586V13.0442C221.557 11.1236 221.809 9.47742 222.312 8.10558C222.815 6.71088 223.672 5.63627 224.884 4.88176C226.119 4.12725 227.788 3.75 229.891 3.75C231.949 3.75 233.549 4.09296 234.693 4.77888C235.859 5.44193 236.682 6.37935 237.162 7.59114C237.642 8.80293 237.882 10.1976 237.882 11.7753V14.176H231.88V11.398C231.88 10.8493 231.846 10.3234 231.777 9.82038C231.732 9.31737 231.572 8.90582 231.297 8.58573C231.023 8.24277 230.554 8.07129 229.891 8.07129C229.251 8.07129 228.771 8.24277 228.451 8.58573C228.154 8.92869 227.959 9.3631 227.868 9.88897C227.799 10.392 227.765 10.9293 227.765 11.5009V24.5676C227.765 25.185 227.811 25.7566 227.902 26.2824C228.016 26.7855 228.222 27.197 228.519 27.5171C228.839 27.8143 229.297 27.9629 229.891 27.9629C230.531 27.9629 230.989 27.8029 231.263 27.4828C231.537 27.1398 231.709 26.7054 231.777 26.1796C231.846 25.6537 231.88 25.1164 231.88 24.5676V21.6525H237.882V24.0532C237.882 25.6308 237.642 27.0484 237.162 28.3059C236.705 29.5406 235.893 30.5237 234.727 31.2554C233.584 31.9641 231.972 32.3185 229.891 32.3185ZM249.902 32.3185C247.821 32.3185 246.175 31.9527 244.963 31.2211C243.752 30.4894 242.883 29.4377 242.357 28.0658C241.831 26.694 241.568 25.0592 241.568 23.1615V12.8384C241.568 10.9179 241.831 9.28308 242.357 7.9341C242.883 6.58513 243.752 5.55625 244.963 4.84747C246.175 4.11582 247.821 3.75 249.902 3.75C252.006 3.75 253.663 4.11582 254.875 4.84747C256.11 5.55625 256.99 6.58513 257.516 7.9341C258.042 9.28308 258.305 10.9179 258.305 12.8384V23.1615C258.305 25.0592 258.042 26.694 257.516 28.0658C256.99 29.4377 256.11 30.4894 254.875 31.2211C253.663 31.9527 252.006 32.3185 249.902 32.3185ZM249.902 27.9629C250.542 27.9629 251.011 27.8029 251.308 27.4828C251.605 27.1627 251.8 26.7512 251.891 26.2481C251.983 25.7451 252.028 25.2307 252.028 24.7048V11.3294C252.028 10.7807 251.983 10.2662 251.891 9.78608C251.8 9.28308 251.605 8.87153 251.308 8.55143C251.011 8.23133 250.542 8.07129 249.902 8.07129C249.308 8.07129 248.862 8.23133 248.565 8.55143C248.267 8.87153 248.073 9.28308 247.982 9.78608C247.89 10.2662 247.844 10.7807 247.844 11.3294V24.7048C247.844 25.2307 247.879 25.7451 247.947 26.2481C248.039 26.7512 248.222 27.1627 248.496 27.4828C248.793 27.8029 249.262 27.9629 249.902 27.9629ZM262.727 31.907V4.12725H267.048L272.741 17.5027V4.12725H277.817V31.907H273.667L267.974 17.5027V31.907H262.727ZM285.141 31.907V8.68861H280.957V4.12725H295.464V8.68861H291.314V31.907H285.141ZM295.717 31.907L300.965 4.12725H307.961L313.14 31.907H307.481L306.555 26.0424H302.474L301.513 31.907H295.717ZM303.022 22.3727H305.972L304.497 11.5352L303.022 22.3727ZM316.665 31.907V4.12725H322.804V31.907H316.665ZM327.632 31.907V4.12725H331.953L337.646 17.5027V4.12725H342.722V31.907H338.572L332.879 17.5027V31.907H327.632ZM347.542 31.907V4.12725H360.026V8.31136H353.681V15.2048H358.517V19.4575H353.681V27.7572H360.095V31.907H347.542ZM363.567 31.907V4.12725H371.215C373.09 4.12725 374.714 4.33303 376.086 4.74458C377.457 5.15613 378.521 5.89921 379.275 6.97382C380.052 8.02556 380.441 9.52315 380.441 11.4666C380.441 12.6098 380.35 13.6272 380.167 14.5189C379.984 15.4106 379.641 16.188 379.138 16.8511C378.658 17.4912 377.96 18.0285 377.046 18.463L380.853 31.907H374.508L371.456 19.4575H369.706V31.907H363.567ZM369.706 15.9251H371.421C372.29 15.9251 372.965 15.7764 373.445 15.4792C373.925 15.1591 374.256 14.7133 374.439 14.1417C374.645 13.5472 374.748 12.8384 374.748 12.0153C374.748 10.8264 374.531 9.90041 374.096 9.23735C373.662 8.57429 372.862 8.24277 371.696 8.24277H369.706V15.9251Z" fill="white"/>
</g>
<defs>
<filter id="filter0_d_774_123" x="0.000125408" y="0.000125408" width="385.568" height="38.137" filterUnits="userSpaceOnUse" color-interpolation-filters="sRGB">
<feFlood flood-opacity="0" result="BackgroundImageFix"/>
<feColorMatrix in="SourceAlpha" type="matrix" values="0 0 0 0 0 0 0 0 0 0 0 0 0 0 0 0 0 0 127 0" result="hardAlpha"/>
<feOffset dy="1"/>
<feGaussianBlur stdDeviation="2.35785"/>
<feComposite in2="hardAlpha" operator="out"/>
<feColorMatrix type="matrix" values="0 0 0 0 0 0 0 0 0 0 0 0 0 0 0 0 0 0 0.25 0"/>
<feBlend mode="normal" in2="BackgroundImageFix" result="effect1_dropShadow_774_123"/>
<feBlend mode="normal" in="SourceGraphic" in2="effect1_dropShadow_774_123" result="shape"/>
</filter>
</defs>
</svg>
