<svg width="120" height="37" viewBox="0 0 120 37" fill="none" xmlns="http://www.w3.org/2000/svg">
<path d="M3.155 11.5027C3.40167 11.5027 3.61667 11.4727 3.8 11.4127C3.98333 11.3493 4.135 11.261 4.255 11.1477C4.37833 11.031 4.47 10.891 4.53 10.7277C4.59 10.561 4.62 10.376 4.62 10.1727C4.62 9.97932 4.59 9.80432 4.53 9.64766C4.47 9.49099 4.38 9.35766 4.26 9.24766C4.14 9.13766 3.98833 9.05432 3.805 8.99766C3.62167 8.93766 3.405 8.90766 3.155 8.90766H2.15V11.5027H3.155ZM3.155 7.86766C3.63833 7.86766 4.05667 7.92432 4.41 8.03766C4.76333 8.15099 5.055 8.30932 5.285 8.51266C5.515 8.71599 5.685 8.95932 5.795 9.24266C5.90833 9.52599 5.965 9.83599 5.965 10.1727C5.965 10.5227 5.90667 10.8443 5.79 11.1377C5.67333 11.4277 5.49833 11.6777 5.265 11.8877C5.03167 12.0977 4.73833 12.261 4.385 12.3777C4.035 12.4943 3.625 12.5527 3.155 12.5527H2.15V15.0977H0.805V7.86766H3.155ZM8.06188 9.96766V15.0977H6.82188V9.96766H8.06188ZM8.23188 8.47266C8.23188 8.57932 8.21021 8.67932 8.16688 8.77266C8.12354 8.86599 8.06521 8.94766 7.99188 9.01766C7.92188 9.08766 7.83854 9.14432 7.74188 9.18766C7.64521 9.22766 7.54188 9.24766 7.43188 9.24766C7.32521 9.24766 7.22354 9.22766 7.12688 9.18766C7.03354 9.14432 6.95188 9.08766 6.88188 9.01766C6.81188 8.94766 6.75521 8.86599 6.71188 8.77266C6.67188 8.67932 6.65188 8.57932 6.65188 8.47266C6.65188 8.36266 6.67188 8.25932 6.71188 8.16266C6.75521 8.06599 6.81188 7.98266 6.88188 7.91266C6.95188 7.84266 7.03354 7.78766 7.12688 7.74766C7.22354 7.70432 7.32521 7.68266 7.43188 7.68266C7.54188 7.68266 7.64521 7.70432 7.74188 7.74766C7.83854 7.78766 7.92188 7.84266 7.99188 7.91266C8.06521 7.98266 8.12354 8.06599 8.16688 8.16266C8.21021 8.25932 8.23188 8.36266 8.23188 8.47266ZM12.6259 11.9427C12.6259 11.7827 12.6026 11.6327 12.5559 11.4927C12.5126 11.3493 12.4459 11.2243 12.3559 11.1177C12.2659 11.011 12.1509 10.9277 12.0109 10.8677C11.8743 10.8043 11.7143 10.7727 11.5309 10.7727C11.1743 10.7727 10.8926 10.8743 10.6859 11.0777C10.4826 11.281 10.3526 11.5693 10.2959 11.9427H12.6259ZM10.2709 12.6877C10.2909 12.951 10.3376 13.1793 10.4109 13.3727C10.4843 13.5627 10.5809 13.721 10.7009 13.8477C10.8209 13.971 10.9626 14.0643 11.1259 14.1277C11.2926 14.1877 11.4759 14.2177 11.6759 14.2177C11.8759 14.2177 12.0476 14.1943 12.1909 14.1477C12.3376 14.101 12.4643 14.0493 12.5709 13.9927C12.6809 13.936 12.7759 13.8843 12.8559 13.8377C12.9393 13.791 13.0193 13.7677 13.0959 13.7677C13.1993 13.7677 13.2759 13.806 13.3259 13.8827L13.6809 14.3327C13.5443 14.4927 13.3909 14.6277 13.2209 14.7377C13.0509 14.8443 12.8726 14.931 12.6859 14.9977C12.5026 15.061 12.3143 15.106 12.1209 15.1327C11.9309 15.1593 11.7459 15.1727 11.5659 15.1727C11.2093 15.1727 10.8776 15.1143 10.5709 14.9977C10.2643 14.8777 9.9976 14.7027 9.77094 14.4727C9.54427 14.2393 9.36594 13.9527 9.23594 13.6127C9.10594 13.2693 9.04094 12.8727 9.04094 12.4227C9.04094 12.0727 9.0976 11.7443 9.21094 11.4377C9.32427 11.1277 9.48594 10.8593 9.69594 10.6327C9.90927 10.4027 10.1676 10.221 10.4709 10.0877C10.7776 9.95432 11.1226 9.88766 11.5059 9.88766C11.8293 9.88766 12.1276 9.93932 12.4009 10.0427C12.6743 10.146 12.9093 10.2977 13.1059 10.4977C13.3026 10.6943 13.4559 10.9377 13.5659 11.2277C13.6793 11.5143 13.7359 11.8427 13.7359 12.2127C13.7359 12.3993 13.7159 12.526 13.6759 12.5927C13.6359 12.656 13.5593 12.6877 13.4459 12.6877H10.2709ZM18.3377 11.0527C18.3011 11.0993 18.2644 11.136 18.2277 11.1627C18.1944 11.1893 18.1444 11.2027 18.0777 11.2027C18.0144 11.2027 17.9527 11.1843 17.8927 11.1477C17.8327 11.1077 17.7611 11.0643 17.6777 11.0177C17.5944 10.9677 17.4944 10.9243 17.3777 10.8877C17.2644 10.8477 17.1227 10.8277 16.9527 10.8277C16.7361 10.8277 16.5461 10.8677 16.3827 10.9477C16.2194 11.0243 16.0827 11.136 15.9727 11.2827C15.8661 11.4293 15.7861 11.6077 15.7327 11.8177C15.6794 12.0243 15.6527 12.2593 15.6527 12.5227C15.6527 12.796 15.6811 13.0393 15.7377 13.2527C15.7977 13.466 15.8827 13.646 15.9927 13.7927C16.1027 13.936 16.2361 14.046 16.3927 14.1227C16.5494 14.196 16.7261 14.2327 16.9227 14.2327C17.1194 14.2327 17.2777 14.2093 17.3977 14.1627C17.5211 14.1127 17.6244 14.0593 17.7077 14.0027C17.7911 13.9427 17.8627 13.8893 17.9227 13.8427C17.9861 13.7927 18.0561 13.7677 18.1327 13.7677C18.2327 13.7677 18.3077 13.806 18.3577 13.8827L18.7127 14.3327C18.5761 14.4927 18.4277 14.6277 18.2677 14.7377C18.1077 14.8443 17.9411 14.931 17.7677 14.9977C17.5977 15.061 17.4211 15.106 17.2377 15.1327C17.0577 15.1593 16.8777 15.1727 16.6977 15.1727C16.3811 15.1727 16.0827 15.1143 15.8027 14.9977C15.5227 14.8777 15.2777 14.7043 15.0677 14.4777C14.8577 14.251 14.6911 13.9743 14.5677 13.6477C14.4477 13.3177 14.3877 12.9427 14.3877 12.5227C14.3877 12.146 14.4411 11.7977 14.5477 11.4777C14.6577 11.1543 14.8177 10.876 15.0277 10.6427C15.2377 10.406 15.4977 10.221 15.8077 10.0877C16.1177 9.95432 16.4744 9.88766 16.8777 9.88766C17.2611 9.88766 17.5961 9.94932 17.8827 10.0727C18.1727 10.196 18.4327 10.3727 18.6627 10.6027L18.3377 11.0527ZM22.7041 11.9427C22.7041 11.7827 22.6807 11.6327 22.6341 11.4927C22.5907 11.3493 22.5241 11.2243 22.4341 11.1177C22.3441 11.011 22.2291 10.9277 22.0891 10.8677C21.9524 10.8043 21.7924 10.7727 21.6091 10.7727C21.2524 10.7727 20.9707 10.8743 20.7641 11.0777C20.5607 11.281 20.4307 11.5693 20.3741 11.9427H22.7041ZM20.3491 12.6877C20.3691 12.951 20.4157 13.1793 20.4891 13.3727C20.5624 13.5627 20.6591 13.721 20.7791 13.8477C20.8991 13.971 21.0407 14.0643 21.2041 14.1277C21.3707 14.1877 21.5541 14.2177 21.7541 14.2177C21.9541 14.2177 22.1257 14.1943 22.2691 14.1477C22.4157 14.101 22.5424 14.0493 22.6491 13.9927C22.7591 13.936 22.8541 13.8843 22.9341 13.8377C23.0174 13.791 23.0974 13.7677 23.1741 13.7677C23.2774 13.7677 23.3541 13.806 23.4041 13.8827L23.7591 14.3327C23.6224 14.4927 23.4691 14.6277 23.2991 14.7377C23.1291 14.8443 22.9507 14.931 22.7641 14.9977C22.5807 15.061 22.3924 15.106 22.1991 15.1327C22.0091 15.1593 21.8241 15.1727 21.6441 15.1727C21.2874 15.1727 20.9557 15.1143 20.6491 14.9977C20.3424 14.8777 20.0757 14.7027 19.8491 14.4727C19.6224 14.2393 19.4441 13.9527 19.3141 13.6127C19.1841 13.2693 19.1191 12.8727 19.1191 12.4227C19.1191 12.0727 19.1757 11.7443 19.2891 11.4377C19.4024 11.1277 19.5641 10.8593 19.7741 10.6327C19.9874 10.4027 20.2457 10.221 20.5491 10.0877C20.8557 9.95432 21.2007 9.88766 21.5841 9.88766C21.9074 9.88766 22.2057 9.93932 22.4791 10.0427C22.7524 10.146 22.9874 10.2977 23.1841 10.4977C23.3807 10.6943 23.5341 10.9377 23.6441 11.2277C23.7574 11.5143 23.8141 11.8427 23.8141 12.2127C23.8141 12.3993 23.7941 12.526 23.7541 12.5927C23.7141 12.656 23.6374 12.6877 23.5241 12.6877H20.3491ZM27.8709 10.9677C27.8375 11.021 27.8025 11.0593 27.7659 11.0827C27.7292 11.1027 27.6825 11.1127 27.6259 11.1127C27.5659 11.1127 27.5009 11.096 27.4309 11.0627C27.3642 11.0293 27.2859 10.9927 27.1959 10.9527C27.1059 10.9093 27.0025 10.871 26.8859 10.8377C26.7725 10.8043 26.6375 10.7877 26.4809 10.7877C26.2375 10.7877 26.0459 10.8393 25.9059 10.9427C25.7692 11.046 25.7009 11.181 25.7009 11.3477C25.7009 11.4577 25.7359 11.551 25.8059 11.6277C25.8792 11.701 25.9742 11.766 26.0909 11.8227C26.2109 11.8793 26.3459 11.931 26.4959 11.9777C26.6459 12.021 26.7975 12.0693 26.9509 12.1227C27.1075 12.176 27.2609 12.2377 27.4109 12.3077C27.5609 12.3743 27.6942 12.461 27.8109 12.5677C27.9309 12.671 28.0259 12.796 28.0959 12.9427C28.1692 13.0893 28.2059 13.266 28.2059 13.4727C28.2059 13.7193 28.1609 13.9477 28.0709 14.1577C27.9842 14.3643 27.8542 14.5443 27.6809 14.6977C27.5075 14.8477 27.2925 14.966 27.0359 15.0527C26.7825 15.136 26.4892 15.1777 26.1559 15.1777C25.9792 15.1777 25.8059 15.161 25.6359 15.1277C25.4692 15.0977 25.3075 15.0543 25.1509 14.9977C24.9975 14.941 24.8542 14.8743 24.7209 14.7977C24.5909 14.721 24.4759 14.6377 24.3759 14.5477L24.6609 14.0777C24.6975 14.021 24.7409 13.9777 24.7909 13.9477C24.8409 13.9177 24.9042 13.9027 24.9809 13.9027C25.0575 13.9027 25.1292 13.9243 25.1959 13.9677C25.2659 14.011 25.3459 14.0577 25.4359 14.1077C25.5259 14.1577 25.6309 14.2043 25.7509 14.2477C25.8742 14.291 26.0292 14.3127 26.2159 14.3127C26.3625 14.3127 26.4875 14.296 26.5909 14.2627C26.6975 14.226 26.7842 14.1793 26.8509 14.1227C26.9209 14.066 26.9709 14.001 27.0009 13.9277C27.0342 13.851 27.0509 13.7727 27.0509 13.6927C27.0509 13.5727 27.0142 13.4743 26.9409 13.3977C26.8709 13.321 26.7759 13.2543 26.6559 13.1977C26.5392 13.141 26.4042 13.091 26.2509 13.0477C26.1009 13.001 25.9459 12.951 25.7859 12.8977C25.6292 12.8443 25.4742 12.7827 25.3209 12.7127C25.1709 12.6393 25.0359 12.5477 24.9159 12.4377C24.7992 12.3277 24.7042 12.1927 24.6309 12.0327C24.5609 11.8727 24.5259 11.6793 24.5259 11.4527C24.5259 11.2427 24.5675 11.0427 24.6509 10.8527C24.7342 10.6627 24.8559 10.4977 25.0159 10.3577C25.1792 10.2143 25.3809 10.101 25.6209 10.0177C25.8642 9.93099 26.1442 9.88766 26.4609 9.88766C26.8142 9.88766 27.1359 9.94599 27.4259 10.0627C27.7159 10.1793 27.9575 10.3327 28.1509 10.5227L27.8709 10.9677ZM32.802 13.7677C32.942 13.9377 33.0937 14.0577 33.257 14.1277C33.4237 14.1977 33.6037 14.2327 33.797 14.2327C33.9837 14.2327 34.152 14.1977 34.302 14.1277C34.452 14.0577 34.5787 13.951 34.682 13.8077C34.7887 13.6643 34.8704 13.4843 34.927 13.2677C34.9837 13.0477 35.012 12.7893 35.012 12.4927C35.012 12.1927 34.987 11.9393 34.937 11.7327C34.8904 11.5227 34.822 11.3527 34.732 11.2227C34.642 11.0927 34.532 10.9977 34.402 10.9377C34.2754 10.8777 34.1304 10.8477 33.967 10.8477C33.7104 10.8477 33.492 10.9027 33.312 11.0127C33.132 11.1193 32.962 11.271 32.802 11.4677V13.7677ZM32.737 10.6677C32.947 10.431 33.1854 10.2393 33.452 10.0927C33.7187 9.94599 34.032 9.87266 34.392 9.87266C34.672 9.87266 34.927 9.93099 35.157 10.0477C35.3904 10.1643 35.5904 10.3343 35.757 10.5577C35.927 10.7777 36.057 11.051 36.147 11.3777C36.2404 11.701 36.287 12.0727 36.287 12.4927C36.287 12.876 36.2354 13.231 36.132 13.5577C36.0287 13.8843 35.8804 14.1677 35.687 14.4077C35.497 14.6477 35.2654 14.836 34.992 14.9727C34.722 15.106 34.4187 15.1727 34.082 15.1727C33.7954 15.1727 33.5504 15.1293 33.347 15.0427C33.1437 14.9527 32.962 14.8293 32.802 14.6727V16.7727H31.567V9.96766H32.322C32.482 9.96766 32.587 10.0427 32.637 10.1927L32.737 10.6677ZM40.5556 11.9427C40.5556 11.7827 40.5323 11.6327 40.4856 11.4927C40.4423 11.3493 40.3756 11.2243 40.2856 11.1177C40.1956 11.011 40.0806 10.9277 39.9406 10.8677C39.804 10.8043 39.644 10.7727 39.4606 10.7727C39.104 10.7727 38.8223 10.8743 38.6156 11.0777C38.4123 11.281 38.2823 11.5693 38.2256 11.9427H40.5556ZM38.2006 12.6877C38.2206 12.951 38.2673 13.1793 38.3406 13.3727C38.414 13.5627 38.5106 13.721 38.6306 13.8477C38.7506 13.971 38.8923 14.0643 39.0556 14.1277C39.2223 14.1877 39.4056 14.2177 39.6056 14.2177C39.8056 14.2177 39.9773 14.1943 40.1206 14.1477C40.2673 14.101 40.394 14.0493 40.5006 13.9927C40.6106 13.936 40.7056 13.8843 40.7856 13.8377C40.869 13.791 40.949 13.7677 41.0256 13.7677C41.129 13.7677 41.2056 13.806 41.2556 13.8827L41.6106 14.3327C41.474 14.4927 41.3206 14.6277 41.1506 14.7377C40.9806 14.8443 40.8023 14.931 40.6156 14.9977C40.4323 15.061 40.244 15.106 40.0506 15.1327C39.8606 15.1593 39.6756 15.1727 39.4956 15.1727C39.139 15.1727 38.8073 15.1143 38.5006 14.9977C38.194 14.8777 37.9273 14.7027 37.7006 14.4727C37.474 14.2393 37.2956 13.9527 37.1656 13.6127C37.0356 13.2693 36.9706 12.8727 36.9706 12.4227C36.9706 12.0727 37.0273 11.7443 37.1406 11.4377C37.254 11.1277 37.4156 10.8593 37.6256 10.6327C37.839 10.4027 38.0973 10.221 38.4006 10.0877C38.7073 9.95432 39.0523 9.88766 39.4356 9.88766C39.759 9.88766 40.0573 9.93932 40.3306 10.0427C40.604 10.146 40.839 10.2977 41.0356 10.4977C41.2323 10.6943 41.3856 10.9377 41.4956 11.2277C41.609 11.5143 41.6656 11.8427 41.6656 12.2127C41.6656 12.3993 41.6456 12.526 41.6056 12.5927C41.5656 12.656 41.489 12.6877 41.3756 12.6877H38.2006ZM43.7574 10.8577C43.9174 10.551 44.1074 10.311 44.3274 10.1377C44.5474 9.96099 44.8074 9.87266 45.1074 9.87266C45.3441 9.87266 45.5341 9.92432 45.6774 10.0277L45.5974 10.9527C45.5808 11.0127 45.5558 11.056 45.5224 11.0827C45.4924 11.106 45.4508 11.1177 45.3974 11.1177C45.3474 11.1177 45.2724 11.1093 45.1724 11.0927C45.0758 11.076 44.9808 11.0677 44.8874 11.0677C44.7508 11.0677 44.6291 11.0877 44.5224 11.1277C44.4158 11.1677 44.3191 11.226 44.2324 11.3027C44.1491 11.376 44.0741 11.466 44.0074 11.5727C43.9441 11.6793 43.8841 11.801 43.8274 11.9377V15.0977H42.5924V9.96766H43.3174C43.4441 9.96766 43.5324 9.99099 43.5824 10.0377C43.6324 10.081 43.6658 10.161 43.6824 10.2777L43.7574 10.8577ZM52.2147 11.0527C52.178 11.0993 52.1414 11.136 52.1047 11.1627C52.0714 11.1893 52.0214 11.2027 51.9547 11.2027C51.8914 11.2027 51.8297 11.1843 51.7697 11.1477C51.7097 11.1077 51.638 11.0643 51.5547 11.0177C51.4714 10.9677 51.3714 10.9243 51.2547 10.8877C51.1414 10.8477 50.9997 10.8277 50.8297 10.8277C50.613 10.8277 50.423 10.8677 50.2597 10.9477C50.0964 11.0243 49.9597 11.136 49.8497 11.2827C49.743 11.4293 49.663 11.6077 49.6097 11.8177C49.5564 12.0243 49.5297 12.2593 49.5297 12.5227C49.5297 12.796 49.558 13.0393 49.6147 13.2527C49.6747 13.466 49.7597 13.646 49.8697 13.7927C49.9797 13.936 50.113 14.046 50.2697 14.1227C50.4264 14.196 50.603 14.2327 50.7997 14.2327C50.9964 14.2327 51.1547 14.2093 51.2747 14.1627C51.398 14.1127 51.5014 14.0593 51.5847 14.0027C51.668 13.9427 51.7397 13.8893 51.7997 13.8427C51.863 13.7927 51.933 13.7677 52.0097 13.7677C52.1097 13.7677 52.1847 13.806 52.2347 13.8827L52.5897 14.3327C52.453 14.4927 52.3047 14.6277 52.1447 14.7377C51.9847 14.8443 51.818 14.931 51.6447 14.9977C51.4747 15.061 51.298 15.106 51.1147 15.1327C50.9347 15.1593 50.7547 15.1727 50.5747 15.1727C50.258 15.1727 49.9597 15.1143 49.6797 14.9977C49.3997 14.8777 49.1547 14.7043 48.9447 14.4777C48.7347 14.251 48.568 13.9743 48.4447 13.6477C48.3247 13.3177 48.2647 12.9427 48.2647 12.5227C48.2647 12.146 48.318 11.7977 48.4247 11.4777C48.5347 11.1543 48.6947 10.876 48.9047 10.6427C49.1147 10.406 49.3747 10.221 49.6847 10.0877C49.9947 9.95432 50.3514 9.88766 50.7547 9.88766C51.138 9.88766 51.473 9.94932 51.7597 10.0727C52.0497 10.196 52.3097 10.3727 52.5397 10.6027L52.2147 11.0527ZM56.0739 12.9077C55.7172 12.9243 55.4172 12.956 55.1739 13.0027C54.9306 13.046 54.7356 13.1027 54.5889 13.1727C54.4422 13.2427 54.3372 13.3243 54.2739 13.4177C54.2106 13.511 54.1789 13.6127 54.1789 13.7227C54.1789 13.9393 54.2422 14.0943 54.3689 14.1877C54.4989 14.281 54.6672 14.3277 54.8739 14.3277C55.1272 14.3277 55.3456 14.2827 55.5289 14.1927C55.7156 14.0993 55.8972 13.9593 56.0739 13.7727V12.9077ZM53.2439 10.6827C53.8339 10.1427 54.5439 9.87266 55.3739 9.87266C55.6739 9.87266 55.9422 9.92266 56.1789 10.0227C56.4156 10.1193 56.6156 10.256 56.7789 10.4327C56.9422 10.606 57.0656 10.8143 57.1489 11.0577C57.2356 11.301 57.2789 11.5677 57.2789 11.8577V15.0977H56.7189C56.6022 15.0977 56.5122 15.081 56.4489 15.0477C56.3856 15.011 56.3356 14.9393 56.2989 14.8327L56.1889 14.4627C56.0589 14.5793 55.9322 14.6827 55.8089 14.7727C55.6856 14.8593 55.5572 14.9327 55.4239 14.9927C55.2906 15.0527 55.1472 15.0977 54.9939 15.1277C54.8439 15.161 54.6772 15.1777 54.4939 15.1777C54.2772 15.1777 54.0772 15.1493 53.8939 15.0927C53.7106 15.0327 53.5522 14.9443 53.4189 14.8277C53.2856 14.711 53.1822 14.566 53.1089 14.3927C53.0356 14.2193 52.9989 14.0177 52.9989 13.7877C52.9989 13.6577 53.0206 13.5293 53.0639 13.4027C53.1072 13.2727 53.1772 13.1493 53.2739 13.0327C53.3739 12.916 53.5022 12.806 53.6589 12.7027C53.8156 12.5993 54.0072 12.5093 54.2339 12.4327C54.4639 12.356 54.7306 12.2943 55.0339 12.2477C55.3372 12.1977 55.6839 12.1677 56.0739 12.1577V11.8577C56.0739 11.5143 56.0006 11.261 55.8539 11.0977C55.7072 10.931 55.4956 10.8477 55.2189 10.8477C55.0189 10.8477 54.8522 10.871 54.7189 10.9177C54.5889 10.9643 54.4739 11.0177 54.3739 11.0777C54.2739 11.1343 54.1822 11.186 54.0989 11.2327C54.0189 11.2793 53.9289 11.3027 53.8289 11.3027C53.7422 11.3027 53.6689 11.281 53.6089 11.2377C53.5489 11.191 53.5006 11.1377 53.4639 11.0777L53.2439 10.6827ZM59.607 10.8577C59.767 10.551 59.957 10.311 60.177 10.1377C60.397 9.96099 60.657 9.87266 60.957 9.87266C61.1937 9.87266 61.3837 9.92432 61.527 10.0277L61.447 10.9527C61.4304 11.0127 61.4054 11.056 61.372 11.0827C61.342 11.106 61.3004 11.1177 61.247 11.1177C61.197 11.1177 61.122 11.1093 61.022 11.0927C60.9254 11.076 60.8304 11.0677 60.737 11.0677C60.6004 11.0677 60.4787 11.0877 60.372 11.1277C60.2654 11.1677 60.1687 11.226 60.082 11.3027C59.9987 11.376 59.9237 11.466 59.857 11.5727C59.7937 11.6793 59.7337 11.801 59.677 11.9377V15.0977H58.442V9.96766H59.167C59.2937 9.96766 59.382 9.99099 59.432 10.0377C59.482 10.081 59.5154 10.161 59.532 10.2777L59.607 10.8577ZM63.8825 15.1777C63.4358 15.1777 63.0925 15.0527 62.8525 14.8027C62.6158 14.5493 62.4975 14.201 62.4975 13.7577V10.8927H61.9725C61.9058 10.8927 61.8492 10.871 61.8025 10.8277C61.7558 10.7843 61.7325 10.7193 61.7325 10.6327V10.1427L62.5575 10.0077L62.8175 8.60766C62.8342 8.54099 62.8658 8.48932 62.9125 8.45266C62.9592 8.41599 63.0192 8.39766 63.0925 8.39766H63.7325V10.0127H65.1025V10.8927H63.7325V13.6727C63.7325 13.8327 63.7708 13.9577 63.8475 14.0477C63.9275 14.1377 64.0358 14.1827 64.1725 14.1827C64.2492 14.1827 64.3125 14.1743 64.3625 14.1577C64.4158 14.1377 64.4608 14.1177 64.4975 14.0977C64.5375 14.0777 64.5725 14.0593 64.6025 14.0427C64.6325 14.0227 64.6625 14.0127 64.6925 14.0127C64.7292 14.0127 64.7592 14.0227 64.7825 14.0427C64.8058 14.0593 64.8308 14.086 64.8575 14.1227L65.2275 14.7227C65.0475 14.8727 64.8408 14.986 64.6075 15.0627C64.3742 15.1393 64.1325 15.1777 63.8825 15.1777ZM68.1241 9.88766C68.5041 9.88766 68.8491 9.94932 69.1591 10.0727C69.4725 10.196 69.7391 10.371 69.9591 10.5977C70.1825 10.8243 70.3541 11.101 70.4741 11.4277C70.5941 11.7543 70.6541 12.1193 70.6541 12.5227C70.6541 12.9293 70.5941 13.296 70.4741 13.6227C70.3541 13.9493 70.1825 14.2277 69.9591 14.4577C69.7391 14.6877 69.4725 14.8643 69.1591 14.9877C68.8491 15.111 68.5041 15.1727 68.1241 15.1727C67.7408 15.1727 67.3925 15.111 67.0791 14.9877C66.7658 14.8643 66.4975 14.6877 66.2741 14.4577C66.0541 14.2277 65.8825 13.9493 65.7591 13.6227C65.6391 13.296 65.5791 12.9293 65.5791 12.5227C65.5791 12.1193 65.6391 11.7543 65.7591 11.4277C65.8825 11.101 66.0541 10.8243 66.2741 10.5977C66.4975 10.371 66.7658 10.196 67.0791 10.0727C67.3925 9.94932 67.7408 9.88766 68.1241 9.88766ZM68.1241 14.2227C68.5508 14.2227 68.8658 14.0793 69.0691 13.7927C69.2758 13.506 69.3791 13.086 69.3791 12.5327C69.3791 11.9793 69.2758 11.5577 69.0691 11.2677C68.8658 10.9777 68.5508 10.8327 68.1241 10.8327C67.6908 10.8327 67.3691 10.9793 67.1591 11.2727C66.9525 11.5627 66.8491 11.9827 66.8491 12.5327C66.8491 13.0827 66.9525 13.5027 67.1591 13.7927C67.3691 14.0793 67.6908 14.2227 68.1241 14.2227ZM72.7513 10.5977C72.8547 10.4943 72.963 10.3993 73.0763 10.3127C73.193 10.2227 73.3147 10.1477 73.4413 10.0877C73.5713 10.0243 73.7097 9.97599 73.8563 9.94266C74.003 9.90599 74.163 9.88766 74.3363 9.88766C74.6163 9.88766 74.8647 9.93599 75.0813 10.0327C75.298 10.126 75.478 10.2593 75.6213 10.4327C75.768 10.6027 75.878 10.8077 75.9513 11.0477C76.028 11.2843 76.0663 11.546 76.0663 11.8327V15.0977H74.8313V11.8327C74.8313 11.5193 74.7597 11.2777 74.6163 11.1077C74.473 10.9343 74.2547 10.8477 73.9613 10.8477C73.748 10.8477 73.548 10.896 73.3613 10.9927C73.1747 11.0893 72.998 11.221 72.8313 11.3877V15.0977H71.5963V9.96766H72.3513C72.5113 9.96766 72.6163 10.0427 72.6663 10.1927L72.7513 10.5977Z" fill="white"/>
<path d="M42.408 27.8181C43.0853 27.2741 43.616 26.8288 44 26.4821C44.384 26.1301 44.7067 25.7648 44.968 25.3861C45.2347 25.0021 45.368 24.6261 45.368 24.2581C45.368 23.9114 45.2827 23.6394 45.112 23.4421C44.9467 23.2394 44.6773 23.1381 44.304 23.1381C43.9413 23.1381 43.6587 23.2528 43.456 23.4821C43.2587 23.7061 43.152 24.0074 43.136 24.3861H42.432C42.4533 23.7888 42.6347 23.3274 42.976 23.0021C43.3173 22.6768 43.7573 22.5141 44.296 22.5141C44.8453 22.5141 45.28 22.6661 45.6 22.9701C45.9253 23.2741 46.088 23.6928 46.088 24.2261C46.088 24.6688 45.9547 25.1008 45.688 25.5221C45.4267 25.9381 45.128 26.3061 44.792 26.6261C44.456 26.9408 44.0267 27.3088 43.504 27.7301H46.256V28.3381H42.408V27.8181ZM47.0976 25.4501C47.0976 24.5328 47.2469 23.8181 47.5456 23.3061C47.8442 22.7888 48.3669 22.5301 49.1136 22.5301C49.8549 22.5301 50.3749 22.7888 50.6736 23.3061C50.9722 23.8181 51.1216 24.5328 51.1216 25.4501C51.1216 26.3834 50.9722 27.1088 50.6736 27.6261C50.3749 28.1434 49.8549 28.4021 49.1136 28.4021C48.3669 28.4021 47.8442 28.1434 47.5456 27.6261C47.2469 27.1088 47.0976 26.3834 47.0976 25.4501ZM50.4016 25.4501C50.4016 24.9861 50.3696 24.5941 50.3056 24.2741C50.2469 23.9488 50.1216 23.6874 49.9296 23.4901C49.7429 23.2928 49.4709 23.1941 49.1136 23.1941C48.7509 23.1941 48.4736 23.2928 48.2816 23.4901C48.0949 23.6874 47.9696 23.9488 47.9056 24.2741C47.8469 24.5941 47.8176 24.9861 47.8176 25.4501C47.8176 25.9301 47.8469 26.3328 47.9056 26.6581C47.9696 26.9834 48.0949 27.2448 48.2816 27.4421C48.4736 27.6394 48.7509 27.7381 49.1136 27.7381C49.4709 27.7381 49.7429 27.6394 49.9296 27.4421C50.1216 27.2448 50.2469 26.9834 50.3056 26.6581C50.3696 26.3328 50.4016 25.9301 50.4016 25.4501ZM52.121 25.4501C52.121 24.5328 52.2703 23.8181 52.569 23.3061C52.8677 22.7888 53.3903 22.5301 54.137 22.5301C54.8783 22.5301 55.3983 22.7888 55.697 23.3061C55.9957 23.8181 56.145 24.5328 56.145 25.4501C56.145 26.3834 55.9957 27.1088 55.697 27.6261C55.3983 28.1434 54.8783 28.4021 54.137 28.4021C53.3903 28.4021 52.8677 28.1434 52.569 27.6261C52.2703 27.1088 52.121 26.3834 52.121 25.4501ZM55.425 25.4501C55.425 24.9861 55.393 24.5941 55.329 24.2741C55.2703 23.9488 55.145 23.6874 54.953 23.4901C54.7663 23.2928 54.4943 23.1941 54.137 23.1941C53.7743 23.1941 53.497 23.2928 53.305 23.4901C53.1183 23.6874 52.993 23.9488 52.929 24.2741C52.8703 24.5941 52.841 24.9861 52.841 25.4501C52.841 25.9301 52.8703 26.3328 52.929 26.6581C52.993 26.9834 53.1183 27.2448 53.305 27.4421C53.497 27.6394 53.7743 27.7381 54.137 27.7381C54.4943 27.7381 54.7663 27.6394 54.953 27.4421C55.145 27.2448 55.2703 26.9834 55.329 26.6581C55.393 26.3328 55.425 25.9301 55.425 25.4501ZM57.1444 25.4501C57.1444 24.5328 57.2938 23.8181 57.5924 23.3061C57.8911 22.7888 58.4138 22.5301 59.1604 22.5301C59.9018 22.5301 60.4218 22.7888 60.7204 23.3061C61.0191 23.8181 61.1684 24.5328 61.1684 25.4501C61.1684 26.3834 61.0191 27.1088 60.7204 27.6261C60.4218 28.1434 59.9018 28.4021 59.1604 28.4021C58.4138 28.4021 57.8911 28.1434 57.5924 27.6261C57.2938 27.1088 57.1444 26.3834 57.1444 25.4501ZM60.4484 25.4501C60.4484 24.9861 60.4164 24.5941 60.3524 24.2741C60.2938 23.9488 60.1684 23.6874 59.9764 23.4901C59.7898 23.2928 59.5178 23.1941 59.1604 23.1941C58.7978 23.1941 58.5204 23.2928 58.3284 23.4901C58.1418 23.6874 58.0164 23.9488 57.9524 24.2741C57.8938 24.5941 57.8644 24.9861 57.8644 25.4501C57.8644 25.9301 57.8938 26.3328 57.9524 26.6581C58.0164 26.9834 58.1418 27.2448 58.3284 27.4421C58.5204 27.6394 58.7978 27.7381 59.1604 27.7381C59.5178 27.7381 59.7898 27.6394 59.9764 27.4421C60.1684 27.2448 60.2938 26.9834 60.3524 26.6581C60.4164 26.3328 60.4484 25.9301 60.4484 25.4501ZM66.6719 28.4021H65.9439L63.0159 23.9621V28.4021H62.2879V22.8181H63.0159L65.9439 27.2501V22.8181H66.6719V28.4021ZM69.8249 28.4741C69.4142 28.4741 69.0409 28.3808 68.7049 28.1941C68.3742 28.0074 68.1129 27.7434 67.9209 27.4021C67.7342 27.0554 67.6409 26.6554 67.6409 26.2021C67.6409 25.7541 67.7369 25.3594 67.9289 25.0181C68.1262 24.6714 68.3929 24.4074 68.7289 24.2261C69.0649 24.0394 69.4409 23.9461 69.8569 23.9461C70.2729 23.9461 70.6489 24.0394 70.9849 24.2261C71.3209 24.4074 71.5849 24.6688 71.7769 25.0101C71.9742 25.3514 72.0729 25.7488 72.0729 26.2021C72.0729 26.6554 71.9715 27.0554 71.7689 27.4021C71.5715 27.7434 71.3022 28.0074 70.9609 28.1941C70.6195 28.3808 70.2409 28.4741 69.8249 28.4741ZM69.8249 27.8341C70.0862 27.8341 70.3315 27.7728 70.5609 27.6501C70.7902 27.5274 70.9742 27.3434 71.1129 27.0981C71.2569 26.8528 71.3289 26.5541 71.3289 26.2021C71.3289 25.8501 71.2595 25.5514 71.1209 25.3061C70.9822 25.0608 70.8009 24.8794 70.5769 24.7621C70.3529 24.6394 70.1102 24.5781 69.8489 24.5781C69.5822 24.5781 69.3369 24.6394 69.1129 24.7621C68.8942 24.8794 68.7182 25.0608 68.5849 25.3061C68.4515 25.5514 68.3849 25.8501 68.3849 26.2021C68.3849 26.5594 68.4489 26.8608 68.5769 27.1061C68.7102 27.3514 68.8862 27.5354 69.1049 27.6581C69.3235 27.7754 69.5635 27.8341 69.8249 27.8341ZM74.5821 28.4741C74.2461 28.4741 73.9447 28.4181 73.6781 28.3061C73.4114 28.1888 73.2007 28.0288 73.0461 27.8261C72.8914 27.6181 72.8061 27.3808 72.7901 27.1141H73.5421C73.5634 27.3328 73.6647 27.5114 73.8461 27.6501C74.0327 27.7888 74.2754 27.8581 74.5741 27.8581C74.8514 27.8581 75.0701 27.7968 75.2301 27.6741C75.3901 27.5514 75.4701 27.3968 75.4701 27.2101C75.4701 27.0181 75.3847 26.8768 75.2141 26.7861C75.0434 26.6901 74.7794 26.5968 74.4221 26.5061C74.0967 26.4208 73.8301 26.3354 73.6221 26.2501C73.4194 26.1594 73.2434 26.0288 73.0941 25.8581C72.9501 25.6821 72.8781 25.4528 72.8781 25.1701C72.8781 24.9461 72.9447 24.7408 73.0781 24.5541C73.2114 24.3674 73.4007 24.2208 73.6461 24.1141C73.8914 24.0021 74.1714 23.9461 74.4861 23.9461C74.9714 23.9461 75.3634 24.0688 75.6621 24.3141C75.9607 24.5594 76.1207 24.8954 76.1421 25.3221H75.4141C75.3981 25.0928 75.3047 24.9088 75.1341 24.7701C74.9687 24.6314 74.7447 24.5621 74.4621 24.5621C74.2007 24.5621 73.9927 24.6181 73.8381 24.7301C73.6834 24.8421 73.6061 24.9888 73.6061 25.1701C73.6061 25.3141 73.6514 25.4341 73.7421 25.5301C73.8381 25.6208 73.9554 25.6954 74.0941 25.7541C74.2381 25.8074 74.4354 25.8688 74.6861 25.9381C75.0007 26.0234 75.2567 26.1088 75.4541 26.1941C75.6514 26.2741 75.8194 26.3968 75.9581 26.5621C76.1021 26.7274 76.1767 26.9434 76.1821 27.2101C76.1821 27.4501 76.1154 27.6661 75.9821 27.8581C75.8487 28.0501 75.6594 28.2021 75.4141 28.3141C75.1741 28.4208 74.8967 28.4741 74.5821 28.4741Z" fill="white"/>
<rect x="83" width="36.5" height="36.5" rx="18.25" fill="white" fill-opacity="0.1"/>
<path d="M102.158 11.1065C101.574 10.8942 100.926 10.8942 100.342 11.1065L98.6063 11.7366L105.919 14.3928L108.442 13.4764C108.294 13.3651 108.129 13.2757 107.953 13.2113L102.158 11.1065ZM104.352 14.9623L97.0391 12.3061L94.5473 13.2113C94.3669 13.2772 94.2038 13.3658 94.0579 13.477L101.25 16.0886L104.352 14.9623ZM93.375 14.8226C93.375 14.6732 93.3947 14.5283 93.4341 14.3881L100.688 17.0231V25.4965C100.57 25.4712 100.454 25.438 100.342 25.3972L94.5467 23.2923C94.2019 23.167 93.9053 22.946 93.6962 22.6584C93.487 22.3707 93.375 22.03 93.375 21.6811V14.8226ZM102.158 25.3972C102.045 25.4386 101.93 25.4719 101.813 25.497V17.0231L109.066 14.3881C109.105 14.5283 109.125 14.6732 109.125 14.8226V21.6811C109.125 22.03 109.013 22.3707 108.804 22.6584C108.595 22.946 108.298 23.167 107.953 23.2923L102.158 25.3972Z" fill="white"/>
</svg>
