<svg width="141" height="37" viewBox="0 0 141 37" fill="none" xmlns="http://www.w3.org/2000/svg">
<rect width="36.5" height="36.5" rx="18.25" fill="white"/>
<path fill-rule="evenodd" clip-rule="evenodd" d="M27.336 19.2562H9.164L11.043 21.1347C11.1359 21.2276 11.2096 21.3378 11.2598 21.4592C11.3101 21.5805 11.336 21.7106 11.336 21.842C11.336 21.9733 11.3101 22.1034 11.2598 22.2247C11.2096 22.3461 11.1359 22.4563 11.043 22.5492C10.9501 22.6421 10.8399 22.7158 10.7185 22.766C10.5972 22.8163 10.4671 22.8422 10.3358 22.8422C10.2044 22.8422 10.0743 22.8163 9.95299 22.766C9.83164 22.7158 9.72138 22.6421 9.6285 22.5492L6.0935 19.0137L6.0685 18.9877C5.96805 18.8942 5.88793 18.7809 5.83314 18.6551C5.77834 18.5292 5.75004 18.3935 5.75 18.2562C5.75 18.0097 5.839 17.7837 5.987 17.6097C6.01867 17.5657 6.054 17.524 6.093 17.4847L9.6285 13.9497C9.81601 13.7621 10.0703 13.6567 10.3356 13.6567C10.6008 13.6566 10.8552 13.7619 11.0427 13.9495C11.2303 14.137 11.3357 14.3913 11.3358 14.6565C11.3358 14.9217 11.2305 15.1761 11.043 15.3637L9.15 17.2562H27.349L25.4565 15.3637C25.3636 15.2708 25.2899 15.1606 25.2397 15.0392C25.1894 14.9179 25.1635 14.7878 25.1635 14.6565C25.1635 14.5251 25.1894 14.395 25.2397 14.2737C25.2899 14.1523 25.3636 14.0421 25.4565 13.9492C25.6441 13.7616 25.8985 13.6562 26.1637 13.6562C26.2951 13.6562 26.4252 13.6821 26.5465 13.7324C26.6679 13.7827 26.7781 13.8563 26.871 13.9492L30.406 17.4847C30.446 17.524 30.4815 17.5657 30.5125 17.6097C30.6605 17.7837 30.7495 18.0097 30.7495 18.2562C30.7495 18.5452 30.627 18.8052 30.431 18.9877L30.406 19.0137L26.871 22.5487C26.6835 22.7363 26.4291 22.8417 26.1639 22.8417C25.8987 22.8418 25.6443 22.7365 25.4568 22.549C25.2692 22.3614 25.1638 22.1071 25.1637 21.8419C25.1637 21.5767 25.269 21.3223 25.4565 21.1347L27.336 19.2562Z" fill="#031022" fill-opacity="0.66"/>
<path d="M48.2501 13.3985C48.3232 13.3985 48.388 13.4268 48.4444 13.4832L48.9726 14.0563C48.6803 14.4183 48.3199 14.6957 47.8914 14.8884C47.4662 15.081 46.9546 15.1774 46.3567 15.1774C45.8218 15.1774 45.3402 15.086 44.9117 14.9033C44.4865 14.7206 44.1227 14.4665 43.8204 14.141C43.5181 13.8154 43.2856 13.4268 43.1228 12.975C42.9634 12.5232 42.8837 12.0299 42.8837 11.4951C42.8837 10.9537 42.97 10.4587 43.1428 10.0102C43.3155 9.55848 43.558 9.16982 43.8703 8.84428C44.1858 8.51874 44.5612 8.26628 44.9964 8.0869C45.4315 7.9042 45.9132 7.81285 46.4414 7.81285C46.9662 7.81285 47.4313 7.89922 47.8365 8.07195C48.2451 8.24469 48.5923 8.47057 48.8779 8.74961L48.4295 9.37245C48.4029 9.41232 48.368 9.4472 48.3249 9.47709C48.285 9.50699 48.2285 9.52194 48.1554 9.52194C48.1056 9.52194 48.0541 9.50865 48.001 9.48207C47.9478 9.45218 47.8897 9.4173 47.8266 9.37744C47.7635 9.33425 47.6904 9.28775 47.6073 9.23792C47.5243 9.18809 47.428 9.14325 47.3183 9.10338C47.2087 9.0602 47.0808 9.02532 46.9347 8.99875C46.7918 8.96885 46.6257 8.9539 46.4364 8.9539C46.1142 8.9539 45.8185 9.01203 45.5495 9.1283C45.2837 9.24124 45.0545 9.40733 44.8618 9.62658C44.6692 9.8425 44.5197 10.1082 44.4134 10.4238C44.3071 10.7361 44.2539 11.0932 44.2539 11.4951C44.2539 11.9004 44.3104 12.2608 44.4233 12.5764C44.5396 12.892 44.6957 13.1577 44.8917 13.3736C45.0877 13.5895 45.3186 13.7556 45.5843 13.8719C45.8501 13.9848 46.1358 14.0413 46.4414 14.0413C46.6241 14.0413 46.7885 14.0313 46.9347 14.0114C47.0841 13.9915 47.2203 13.9599 47.3433 13.9167C47.4695 13.8736 47.5874 13.8187 47.697 13.7523C47.81 13.6825 47.9213 13.5978 48.0309 13.4982C48.0641 13.4683 48.099 13.445 48.1355 13.4284C48.1721 13.4085 48.2103 13.3985 48.2501 13.3985ZM52.3971 12.9152C52.0417 12.9318 51.7427 12.9634 51.5002 13.0099C51.2577 13.0531 51.0634 13.1095 50.9172 13.1793C50.7711 13.249 50.6664 13.3304 50.6033 13.4234C50.5402 13.5165 50.5086 13.6178 50.5086 13.7274C50.5086 13.9433 50.5717 14.0978 50.698 14.1908C50.8275 14.2838 50.9953 14.3303 51.2012 14.3303C51.4537 14.3303 51.6713 14.2855 51.854 14.1958C52.04 14.1028 52.221 13.9632 52.3971 13.7772V12.9152ZM49.5769 10.6979C50.1648 10.1597 50.8724 9.89066 51.6995 9.89066C51.9985 9.89066 52.2659 9.94049 52.5017 10.0401C52.7376 10.1365 52.9369 10.2727 53.0997 10.4487C53.2624 10.6215 53.3854 10.8291 53.4684 11.0716C53.5548 11.3141 53.598 11.5798 53.598 11.8688V15.0977H53.0399C52.9236 15.0977 52.8339 15.081 52.7708 15.0478C52.7077 15.0113 52.6579 14.9399 52.6213 14.8336L52.5117 14.4648C52.3822 14.5811 52.2559 14.6841 52.133 14.7738C52.0101 14.8601 51.8822 14.9332 51.7493 14.993C51.6165 15.0528 51.4736 15.0977 51.3208 15.1276C51.1713 15.1608 51.0053 15.1774 50.8225 15.1774C50.6066 15.1774 50.4073 15.1491 50.2246 15.0927C50.0419 15.0329 49.8841 14.9449 49.7513 14.8286C49.6184 14.7123 49.5154 14.5678 49.4423 14.3951C49.3692 14.2223 49.3327 14.0214 49.3327 13.7922C49.3327 13.6626 49.3543 13.5347 49.3975 13.4085C49.4407 13.2789 49.5104 13.156 49.6068 13.0398C49.7064 12.9235 49.8343 12.8139 49.9904 12.7109C50.1466 12.6079 50.3376 12.5182 50.5634 12.4418C50.7927 12.3654 51.0584 12.304 51.3607 12.2575C51.663 12.2076 52.0084 12.1778 52.3971 12.1678V11.8688C52.3971 11.5267 52.324 11.2742 52.1779 11.1114C52.0317 10.9453 51.8208 10.8623 51.5451 10.8623C51.3457 10.8623 51.1796 10.8856 51.0468 10.9321C50.9172 10.9786 50.8026 11.0317 50.703 11.0915C50.6033 11.148 50.512 11.1995 50.4289 11.246C50.3492 11.2925 50.2595 11.3157 50.1598 11.3157C50.0735 11.3157 50.0004 11.2941 49.9406 11.251C49.8808 11.2045 49.8326 11.1513 49.7961 11.0915L49.5769 10.6979ZM55.9181 10.8723C56.0775 10.5667 56.2668 10.3275 56.4861 10.1547C56.7053 9.97869 56.9644 9.89066 57.2634 9.89066C57.4993 9.89066 57.6886 9.94215 57.8314 10.0451L57.7517 10.9669C57.7351 11.0267 57.7102 11.0699 57.677 11.0965C57.6471 11.1197 57.6056 11.1314 57.5524 11.1314C57.5026 11.1314 57.4278 11.1231 57.3282 11.1065C57.2318 11.0898 57.1372 11.0815 57.0442 11.0815C56.908 11.0815 56.7867 11.1015 56.6804 11.1413C56.5741 11.1812 56.4778 11.2393 56.3914 11.3157C56.3084 11.3888 56.2336 11.4785 56.1672 11.5848C56.1041 11.6911 56.0443 11.8124 55.9878 11.9485V15.0977H54.7571V9.98533H55.4796C55.6058 9.98533 55.6938 10.0086 55.7437 10.0551C55.7935 10.0983 55.8267 10.178 55.8433 10.2943L55.9181 10.8723ZM60.1788 15.1774C59.7337 15.1774 59.3915 15.0528 59.1523 14.8037C58.9165 14.5512 58.7986 14.2041 58.7986 13.7623V10.9071H58.2754C58.2089 10.9071 58.1525 10.8856 58.106 10.8424C58.0595 10.7992 58.0362 10.7344 58.0362 10.648V10.1597L58.8584 10.0252L59.1175 8.63002C59.1341 8.56358 59.1656 8.5121 59.2121 8.47556C59.2586 8.43901 59.3184 8.42074 59.3915 8.42074H60.0293V10.0302H61.3946V10.9071H60.0293V13.6776C60.0293 13.837 60.0675 13.9616 60.1439 14.0513C60.2236 14.141 60.3316 14.1858 60.4678 14.1858C60.5442 14.1858 60.6073 14.1775 60.6571 14.1609C60.7103 14.141 60.7551 14.121 60.7917 14.1011C60.8315 14.0812 60.8664 14.0629 60.8963 14.0463C60.9262 14.0264 60.9561 14.0164 60.986 14.0164C61.0225 14.0164 61.0524 14.0264 61.0757 14.0463C61.0989 14.0629 61.1239 14.0895 61.1504 14.126L61.5192 14.7239C61.3398 14.8734 61.1338 14.9864 60.9013 15.0628C60.6688 15.1392 60.4279 15.1774 60.1788 15.1774ZM64.4058 9.90561C64.7845 9.90561 65.1283 9.96706 65.4372 10.09C65.7495 10.2129 66.0152 10.3873 66.2345 10.6132C66.4571 10.839 66.6281 11.1148 66.7477 11.4403C66.8673 11.7658 66.9271 12.1296 66.9271 12.5315C66.9271 12.9368 66.8673 13.3022 66.7477 13.6277C66.6281 13.9533 66.4571 14.2307 66.2345 14.4599C66.0152 14.6891 65.7495 14.8651 65.4372 14.988C65.1283 15.1109 64.7845 15.1724 64.4058 15.1724C64.0238 15.1724 63.6767 15.1109 63.3644 14.988C63.0522 14.8651 62.7848 14.6891 62.5622 14.4599C62.3429 14.2307 62.1719 13.9533 62.049 13.6277C61.9294 13.3022 61.8696 12.9368 61.8696 12.5315C61.8696 12.1296 61.9294 11.7658 62.049 11.4403C62.1719 11.1148 62.3429 10.839 62.5622 10.6132C62.7848 10.3873 63.0522 10.2129 63.3644 10.09C63.6767 9.96706 64.0238 9.90561 64.4058 9.90561ZM64.4058 14.2257C64.831 14.2257 65.1449 14.0828 65.3476 13.7972C65.5535 13.5115 65.6565 13.0929 65.6565 12.5415C65.6565 11.9901 65.5535 11.5699 65.3476 11.2809C65.1449 10.9919 64.831 10.8474 64.4058 10.8474C63.974 10.8474 63.6534 10.9935 63.4441 11.2858C63.2382 11.5748 63.1352 11.9934 63.1352 12.5415C63.1352 13.0896 63.2382 13.5082 63.4441 13.7972C63.6534 14.0828 63.974 14.2257 64.4058 14.2257ZM69.0171 10.6132C69.12 10.5102 69.228 10.4155 69.3409 10.3291C69.4572 10.2395 69.5784 10.1647 69.7047 10.1049C69.8342 10.0418 69.9721 9.99364 70.1182 9.96042C70.2644 9.92388 70.4239 9.90561 70.5966 9.90561C70.8756 9.90561 71.1231 9.95378 71.339 10.0501C71.5549 10.1431 71.7343 10.276 71.8772 10.4487C72.0233 10.6181 72.1329 10.8224 72.206 11.0616C72.2824 11.2975 72.3206 11.5582 72.3206 11.8439V15.0977H71.0899V11.8439C71.0899 11.5317 71.0185 11.2908 70.8756 11.1214C70.7328 10.9487 70.5152 10.8623 70.2229 10.8623C70.0103 10.8623 69.811 10.9105 69.625 11.0068C69.4389 11.1031 69.2629 11.2343 69.0968 11.4004V15.0977H67.866V9.98533H68.6184C68.7779 9.98533 68.8825 10.0601 68.9323 10.2096L69.0171 10.6132ZM79.9454 9.20304C79.9056 9.2728 79.8624 9.32429 79.8159 9.35751C79.7727 9.3874 79.7179 9.40235 79.6515 9.40235C79.5817 9.40235 79.5053 9.37744 79.4222 9.32761C79.3425 9.27446 79.2462 9.21633 79.1332 9.15321C79.0203 9.0901 78.8874 9.03363 78.7346 8.9838C78.5851 8.93065 78.4074 8.90407 78.2015 8.90407C78.0154 8.90407 77.8527 8.92733 77.7132 8.97383C77.5736 9.01702 77.4557 9.07847 77.3594 9.15819C77.2664 9.23792 77.1966 9.33425 77.1501 9.4472C77.1036 9.55682 77.0803 9.67806 77.0803 9.81094C77.0803 9.98035 77.1268 10.1215 77.2199 10.2345C77.3162 10.3474 77.4424 10.4437 77.5986 10.5235C77.7547 10.6032 77.9324 10.6746 78.1317 10.7377C78.331 10.8008 78.5353 10.8689 78.7446 10.942C78.9539 11.0118 79.1582 11.0948 79.3575 11.1912C79.5568 11.2842 79.7345 11.4038 79.8906 11.5499C80.0468 11.6928 80.1713 11.8688 80.2643 12.0781C80.3607 12.2874 80.4088 12.5415 80.4088 12.8405C80.4088 13.166 80.3524 13.4716 80.2394 13.7573C80.1298 14.0396 79.967 14.2871 79.7511 14.4997C79.5385 14.709 79.2777 14.8751 78.9688 14.998C78.6599 15.1176 78.3061 15.1774 77.9075 15.1774C77.6783 15.1774 77.4524 15.1541 77.2298 15.1076C77.0073 15.0644 76.793 15.0013 76.587 14.9183C76.3844 14.8352 76.1934 14.7356 76.014 14.6193C75.8347 14.503 75.6752 14.3735 75.5357 14.2307L75.9293 13.5879C75.9625 13.5414 76.0057 13.5032 76.0589 13.4733C76.112 13.4401 76.1685 13.4234 76.2283 13.4234C76.3113 13.4234 76.401 13.4583 76.4974 13.5281C76.5937 13.5945 76.7083 13.6693 76.8412 13.7523C76.974 13.8354 77.1285 13.9118 77.3046 13.9815C77.4839 14.048 77.6982 14.0812 77.9473 14.0812C78.3294 14.0812 78.625 13.9915 78.8343 13.8121C79.0436 13.6294 79.1482 13.3686 79.1482 13.0298C79.1482 12.8405 79.1 12.686 79.0037 12.5664C78.9107 12.4468 78.7861 12.3472 78.63 12.2674C78.4739 12.1844 78.2961 12.1146 78.0968 12.0582C77.8975 12.0017 77.6949 11.9402 77.4889 11.8738C77.283 11.8074 77.0803 11.7276 76.881 11.6346C76.6817 11.5416 76.504 11.4204 76.3479 11.2709C76.1917 11.1214 76.0655 10.9354 75.9692 10.7128C75.8762 10.4869 75.8297 10.2096 75.8297 9.8807C75.8297 9.61827 75.8812 9.36249 75.9841 9.11335C76.0904 8.86421 76.2432 8.64331 76.4425 8.45064C76.6419 8.25797 76.8877 8.10351 77.18 7.98724C77.4723 7.87098 77.8078 7.81285 78.1865 7.81285C78.6117 7.81285 79.0037 7.87928 79.3625 8.01216C79.7212 8.14503 80.0268 8.33105 80.2793 8.57023L79.9454 9.20304ZM82.6399 9.98533V15.0977H81.4041V9.98533H82.6399ZM82.8093 8.49549C82.8093 8.60179 82.7877 8.70144 82.7445 8.79445C82.7013 8.88746 82.6432 8.96885 82.5701 9.03861C82.5004 9.10837 82.4173 9.16484 82.321 9.20802C82.2246 9.24788 82.1217 9.26782 82.012 9.26782C81.9057 9.26782 81.8044 9.24788 81.7081 9.20802C81.6151 9.16484 81.5337 9.10837 81.4639 9.03861C81.3942 8.96885 81.3377 8.88746 81.2945 8.79445C81.2547 8.70144 81.2347 8.60179 81.2347 8.49549C81.2347 8.38587 81.2547 8.28289 81.2945 8.18655C81.3377 8.09022 81.3942 8.00718 81.4639 7.93742C81.5337 7.86766 81.6151 7.81285 81.7081 7.77298C81.8044 7.7298 81.9057 7.70821 82.012 7.70821C82.1217 7.70821 82.2246 7.7298 82.321 7.77298C82.4173 7.81285 82.5004 7.86766 82.5701 7.93742C82.6432 8.00718 82.7013 8.09022 82.7445 8.18655C82.7877 8.28289 82.8093 8.38587 82.8093 8.49549ZM87.5669 10.4936C87.5669 10.5799 87.5519 10.6647 87.522 10.7477C87.4922 10.8307 87.4523 10.8988 87.4025 10.952L84.9759 14.1509H87.4922V15.0977H83.5458V14.5844C83.5458 14.528 83.5591 14.4615 83.5857 14.3851C83.6122 14.3054 83.6521 14.2307 83.7052 14.1609L86.1568 10.9271H83.6903V9.98533H87.5669V10.4936ZM91.6844 11.9535C91.6844 11.7941 91.6611 11.6446 91.6146 11.5051C91.5714 11.3622 91.505 11.2377 91.4153 11.1314C91.3256 11.0251 91.211 10.942 91.0715 10.8822C90.9353 10.8191 90.7758 10.7876 90.5931 10.7876C90.2377 10.7876 89.957 10.8889 89.7511 11.0915C89.5484 11.2941 89.4189 11.5815 89.3624 11.9535H91.6844ZM89.3375 12.696C89.3574 12.9584 89.4039 13.1859 89.477 13.3786C89.5501 13.5679 89.6464 13.7257 89.766 13.852C89.8856 13.9749 90.0268 14.0679 90.1895 14.131C90.3556 14.1908 90.5383 14.2207 90.7376 14.2207C90.937 14.2207 91.108 14.1974 91.2509 14.1509C91.397 14.1044 91.5233 14.0529 91.6296 13.9965C91.7392 13.94 91.8339 13.8885 91.9136 13.842C91.9966 13.7955 92.0764 13.7722 92.1528 13.7722C92.2557 13.7722 92.3321 13.8104 92.382 13.8868L92.7357 14.3353C92.5995 14.4947 92.4467 14.6293 92.2773 14.7389C92.1079 14.8452 91.9302 14.9316 91.7442 14.998C91.5615 15.0611 91.3738 15.106 91.1811 15.1325C90.9918 15.1591 90.8074 15.1724 90.628 15.1724C90.2726 15.1724 89.9421 15.1143 89.6365 14.998C89.3308 14.8784 89.0651 14.704 88.8392 14.4748C88.6133 14.2423 88.4356 13.9566 88.3061 13.6178C88.1765 13.2756 88.1117 12.8803 88.1117 12.4319C88.1117 12.0831 88.1682 11.7559 88.2811 11.4503C88.3941 11.1413 88.5552 10.8739 88.7645 10.648C88.9771 10.4188 89.2345 10.2378 89.5368 10.1049C89.8424 9.97205 90.1862 9.90561 90.5682 9.90561C90.8905 9.90561 91.1878 9.9571 91.4601 10.0601C91.7325 10.1631 91.9667 10.3142 92.1627 10.5135C92.3587 10.7095 92.5115 10.952 92.6211 11.241C92.7341 11.5267 92.7905 11.8539 92.7905 12.2226C92.7905 12.4086 92.7706 12.5349 92.7308 12.6013C92.6909 12.6644 92.6145 12.696 92.5015 12.696H89.3375Z" fill="#5D5A5A"/>
<path d="M42.908 27.8183C43.5853 27.2743 44.116 26.829 44.5 26.4823C44.884 26.1303 45.2067 25.765 45.468 25.3863C45.7347 25.0023 45.868 24.6263 45.868 24.2583C45.868 23.9117 45.7827 23.6397 45.612 23.4423C45.4467 23.2397 45.1773 23.1383 44.804 23.1383C44.4413 23.1383 44.1587 23.253 43.956 23.4823C43.7587 23.7063 43.652 24.0077 43.636 24.3863H42.932C42.9533 23.789 43.1347 23.3277 43.476 23.0023C43.8173 22.677 44.2573 22.5143 44.796 22.5143C45.3453 22.5143 45.78 22.6663 46.1 22.9703C46.4253 23.2743 46.588 23.693 46.588 24.2263C46.588 24.669 46.4547 25.101 46.188 25.5223C45.9267 25.9383 45.628 26.3063 45.292 26.6263C44.956 26.941 44.5267 27.309 44.004 27.7303H46.756V28.3383H42.908V27.8183ZM47.4216 27.1143V26.5623L50.2296 22.6743H51.1016V26.4823H51.9016V27.1143H51.1016V28.4023H50.3816V27.1143H47.4216ZM50.4136 23.4343L48.2616 26.4823H50.4136V23.4343ZM58.1136 27.2023L56.8416 25.9303L55.5696 27.2023L55.0896 26.7223L56.3616 25.4503L55.1136 24.2023L55.5776 23.7303L56.8336 24.9863L58.0896 23.7303L58.5696 24.2103L57.3136 25.4663L58.5776 26.7383L58.1136 27.2023ZM61.9471 27.8183C62.6244 27.2743 63.1551 26.829 63.5391 26.4823C63.9231 26.1303 64.2457 25.765 64.5071 25.3863C64.7737 25.0023 64.9071 24.6263 64.9071 24.2583C64.9071 23.9117 64.8217 23.6397 64.6511 23.4423C64.4857 23.2397 64.2164 23.1383 63.8431 23.1383C63.4804 23.1383 63.1977 23.253 62.9951 23.4823C62.7977 23.7063 62.6911 24.0077 62.6751 24.3863H61.9711C61.9924 23.789 62.1737 23.3277 62.5151 23.0023C62.8564 22.677 63.2964 22.5143 63.8351 22.5143C64.3844 22.5143 64.8191 22.6663 65.1391 22.9703C65.4644 23.2743 65.6271 23.693 65.6271 24.2263C65.6271 24.669 65.4937 25.101 65.2271 25.5223C64.9657 25.9383 64.6671 26.3063 64.3311 26.6263C63.9951 26.941 63.5657 27.309 63.0431 27.7303H65.7951V28.3383H61.9471V27.8183ZM66.6366 25.4503C66.6366 24.533 66.786 23.8183 67.0846 23.3063C67.3833 22.789 67.906 22.5303 68.6526 22.5303C69.394 22.5303 69.914 22.789 70.2126 23.3063C70.5113 23.8183 70.6606 24.533 70.6606 25.4503C70.6606 26.3837 70.5113 27.109 70.2126 27.6263C69.914 28.1437 69.394 28.4023 68.6526 28.4023C67.906 28.4023 67.3833 28.1437 67.0846 27.6263C66.786 27.109 66.6366 26.3837 66.6366 25.4503ZM69.9406 25.4503C69.9406 24.9863 69.9086 24.5943 69.8446 24.2743C69.786 23.949 69.6606 23.6877 69.4686 23.4903C69.282 23.293 69.01 23.1943 68.6526 23.1943C68.29 23.1943 68.0126 23.293 67.8206 23.4903C67.634 23.6877 67.5086 23.949 67.4446 24.2743C67.386 24.5943 67.3566 24.9863 67.3566 25.4503C67.3566 25.9303 67.386 26.333 67.4446 26.6583C67.5086 26.9837 67.634 27.245 67.8206 27.4423C68.0126 27.6397 68.29 27.7383 68.6526 27.7383C69.01 27.7383 69.282 27.6397 69.4686 27.4423C69.6606 27.245 69.786 26.9837 69.8446 26.6583C69.9086 26.333 69.9406 25.9303 69.9406 25.4503ZM77.1449 27.2023L75.8729 25.9303L74.6009 27.2023L74.1209 26.7223L75.3929 25.4503L74.1449 24.2023L74.6089 23.7303L75.8649 24.9863L77.1209 23.7303L77.6009 24.2103L76.3449 25.4663L77.6089 26.7383L77.1449 27.2023ZM80.8743 23.2823V22.6183H82.3783V28.4023H81.6423V23.2823H80.8743ZM87.3168 23.2503H84.5088V25.0743C84.6315 24.9037 84.8128 24.765 85.0528 24.6583C85.2928 24.5463 85.5515 24.4903 85.8288 24.4903C86.2715 24.4903 86.6315 24.5837 86.9088 24.7703C87.1861 24.9517 87.3835 25.189 87.5008 25.4823C87.6235 25.7703 87.6848 26.077 87.6848 26.4023C87.6848 26.7863 87.6128 27.1303 87.4688 27.4343C87.3248 27.7383 87.1035 27.9783 86.8048 28.1543C86.5115 28.3303 86.1461 28.4183 85.7088 28.4183C85.1488 28.4183 84.6955 28.2743 84.3488 27.9863C84.0021 27.6983 83.7915 27.3143 83.7168 26.8343H84.4288C84.4981 27.1383 84.6448 27.3757 84.8688 27.5463C85.0928 27.717 85.3755 27.8023 85.7168 27.8023C86.1381 27.8023 86.4555 27.677 86.6688 27.4263C86.8821 27.1703 86.9888 26.8343 86.9888 26.4183C86.9888 26.0023 86.8821 25.6823 86.6688 25.4583C86.4555 25.229 86.1408 25.1143 85.7248 25.1143C85.4421 25.1143 85.1941 25.1837 84.9808 25.3223C84.7728 25.4557 84.6208 25.6397 84.5248 25.8743H83.8368V22.6103H87.3168V23.2503ZM89.0043 28.4503C88.8656 28.4503 88.7483 28.4023 88.6523 28.3063C88.5563 28.2103 88.5083 28.093 88.5083 27.9543C88.5083 27.8157 88.5563 27.6983 88.6523 27.6023C88.7483 27.5063 88.8656 27.4583 89.0043 27.4583C89.1376 27.4583 89.2496 27.5063 89.3403 27.6023C89.4363 27.6983 89.4843 27.8157 89.4843 27.9543C89.4843 28.093 89.4363 28.2103 89.3403 28.3063C89.2496 28.4023 89.1376 28.4503 89.0043 28.4503ZM93.8919 23.1863L91.6679 28.4023H90.9319L93.1879 23.2583H90.0999V22.6343H93.8919V23.1863ZM98.3871 23.2503H95.5791V25.0743C95.7018 24.9037 95.8831 24.765 96.1231 24.6583C96.3631 24.5463 96.6218 24.4903 96.8991 24.4903C97.3418 24.4903 97.7018 24.5837 97.9791 24.7703C98.2565 24.9517 98.4538 25.189 98.5711 25.4823C98.6938 25.7703 98.7551 26.077 98.7551 26.4023C98.7551 26.7863 98.6831 27.1303 98.5391 27.4343C98.3951 27.7383 98.1738 27.9783 97.8751 28.1543C97.5818 28.3303 97.2165 28.4183 96.7791 28.4183C96.2191 28.4183 95.7658 28.2743 95.4191 27.9863C95.0725 27.6983 94.8618 27.3143 94.7871 26.8343H95.4991C95.5685 27.1383 95.7151 27.3757 95.9391 27.5463C96.1631 27.717 96.4458 27.8023 96.7871 27.8023C97.2085 27.8023 97.5258 27.677 97.7391 27.4263C97.9525 27.1703 98.0591 26.8343 98.0591 26.4183C98.0591 26.0023 97.9525 25.6823 97.7391 25.4583C97.5258 25.229 97.2111 25.1143 96.7951 25.1143C96.5125 25.1143 96.2645 25.1837 96.0511 25.3223C95.8431 25.4557 95.6911 25.6397 95.5951 25.8743H94.9071V22.6103H98.3871V23.2503ZM107.247 23.9383C107.589 23.9383 107.893 24.0103 108.159 24.1543C108.426 24.293 108.637 24.5037 108.791 24.7863C108.946 25.069 109.023 25.413 109.023 25.8183V28.4023H108.303V25.9223C108.303 25.485 108.194 25.1517 107.975 24.9223C107.762 24.6877 107.471 24.5703 107.103 24.5703C106.725 24.5703 106.423 24.693 106.199 24.9383C105.975 25.1783 105.863 25.5277 105.863 25.9863V28.4023H105.143V25.9223C105.143 25.485 105.034 25.1517 104.815 24.9223C104.602 24.6877 104.311 24.5703 103.943 24.5703C103.565 24.5703 103.263 24.693 103.039 24.9383C102.815 25.1783 102.703 25.5277 102.703 25.9863V28.4023H101.975V24.0183H102.703V24.6503C102.847 24.421 103.039 24.245 103.279 24.1223C103.525 23.9997 103.794 23.9383 104.087 23.9383C104.455 23.9383 104.781 24.021 105.063 24.1863C105.346 24.3517 105.557 24.5943 105.695 24.9143C105.818 24.605 106.021 24.365 106.303 24.1943C106.586 24.0237 106.901 23.9383 107.247 23.9383ZM115.49 23.9383C115.831 23.9383 116.135 24.0103 116.402 24.1543C116.668 24.293 116.879 24.5037 117.034 24.7863C117.188 25.069 117.266 25.413 117.266 25.8183V28.4023H116.546V25.9223C116.546 25.485 116.436 25.1517 116.218 24.9223C116.004 24.6877 115.714 24.5703 115.346 24.5703C114.967 24.5703 114.666 24.693 114.442 24.9383C114.218 25.1783 114.106 25.5277 114.106 25.9863V28.4023H113.386V25.9223C113.386 25.485 113.276 25.1517 113.058 24.9223C112.844 24.6877 112.554 24.5703 112.186 24.5703C111.807 24.5703 111.506 24.693 111.282 24.9383C111.058 25.1783 110.946 25.5277 110.946 25.9863V28.4023H110.218V24.0183H110.946V24.6503C111.09 24.421 111.282 24.245 111.522 24.1223C111.767 23.9997 112.036 23.9383 112.33 23.9383C112.698 23.9383 113.023 24.021 113.306 24.1863C113.588 24.3517 113.799 24.5943 113.938 24.9143C114.06 24.605 114.263 24.365 114.546 24.1943C114.828 24.0237 115.143 23.9383 115.49 23.9383Z" fill="#5D5A5A"/>
</svg>
