<svg width="372" height="26" viewBox="0 0 372 26" fill="none" xmlns="http://www.w3.org/2000/svg">
<path d="M4.65852 2.71062C4.65852 3.29062 4.45852 3.77396 4.05852 4.16062C3.66518 4.54062 3.06185 4.73062 2.24852 4.73062H0.908516V7.64062H-0.0014843V0.670625H2.24852C3.03518 0.670625 3.63185 0.860625 4.03852 1.24062C4.45185 1.62062 4.65852 2.11062 4.65852 2.71062ZM2.24852 3.98062C2.75518 3.98062 3.12852 3.87062 3.36852 3.65062C3.60852 3.43062 3.72852 3.11729 3.72852 2.71062C3.72852 1.85062 3.23518 1.42062 2.24852 1.42062H0.908516V3.98062H2.24852ZM10.7895 4.69062C10.7895 4.86396 10.7795 5.04729 10.7595 5.24062H6.37953C6.41286 5.78062 6.5962 6.20396 6.92953 6.51062C7.26953 6.81062 7.67953 6.96062 8.15953 6.96062C8.55286 6.96062 8.87953 6.87062 9.13953 6.69062C9.4062 6.50396 9.59286 6.25729 9.69953 5.95062H10.6795C10.5329 6.47729 10.2395 6.90729 9.79953 7.24062C9.35953 7.56729 8.81286 7.73063 8.15953 7.73063C7.63953 7.73063 7.17286 7.61396 6.75953 7.38062C6.35286 7.14729 6.03286 6.81729 5.79953 6.39062C5.5662 5.95729 5.44953 5.45729 5.44953 4.89062C5.44953 4.32396 5.56286 3.82729 5.78953 3.40062C6.0162 2.97396 6.33286 2.64729 6.73953 2.42062C7.15286 2.18729 7.6262 2.07062 8.15953 2.07062C8.67953 2.07062 9.13953 2.18396 9.53953 2.41062C9.93953 2.63729 10.2462 2.95062 10.4595 3.35062C10.6795 3.74396 10.7895 4.19062 10.7895 4.69062ZM9.84953 4.50062C9.84953 4.15396 9.77286 3.85729 9.61953 3.61062C9.4662 3.35729 9.2562 3.16729 8.98953 3.04062C8.72953 2.90729 8.43953 2.84062 8.11953 2.84062C7.65953 2.84062 7.2662 2.98729 6.93953 3.28062C6.61953 3.57396 6.4362 3.98062 6.38953 4.50062H9.84953ZM12.9007 3.05062C13.0607 2.73729 13.2874 2.49396 13.5807 2.32062C13.8807 2.14729 14.244 2.06062 14.6707 2.06062V3.00062H14.4307C13.4107 3.00062 12.9007 3.55396 12.9007 4.66062V7.64062H11.9907V2.16062H12.9007V3.05062ZM17.9512 2.91062H16.8012V7.64062H15.8912V2.91062H15.1812V2.16062H15.8912V1.77062C15.8912 1.15729 16.0478 0.710625 16.3612 0.430625C16.6812 0.143958 17.1912 0.000624418 17.8912 0.000624418V0.760625C17.4912 0.760625 17.2078 0.840625 17.0412 1.00062C16.8812 1.15396 16.8012 1.41062 16.8012 1.77062V2.16062H17.9512V2.91062ZM24.0122 4.69062C24.0122 4.86396 24.0022 5.04729 23.9822 5.24062H19.6022C19.6355 5.78062 19.8189 6.20396 20.1522 6.51062C20.4922 6.81062 20.9022 6.96062 21.3822 6.96062C21.7755 6.96062 22.1022 6.87062 22.3622 6.69062C22.6289 6.50396 22.8155 6.25729 22.9222 5.95062H23.9022C23.7555 6.47729 23.4622 6.90729 23.0222 7.24062C22.5822 7.56729 22.0355 7.73063 21.3822 7.73063C20.8622 7.73063 20.3955 7.61396 19.9822 7.38062C19.5755 7.14729 19.2555 6.81729 19.0222 6.39062C18.7889 5.95729 18.6722 5.45729 18.6722 4.89062C18.6722 4.32396 18.7855 3.82729 19.0122 3.40062C19.2389 2.97396 19.5555 2.64729 19.9622 2.42062C20.3755 2.18729 20.8489 2.07062 21.3822 2.07062C21.9022 2.07062 22.3622 2.18396 22.7622 2.41062C23.1622 2.63729 23.4689 2.95062 23.6822 3.35062C23.9022 3.74396 24.0122 4.19062 24.0122 4.69062ZM23.0722 4.50062C23.0722 4.15396 22.9955 3.85729 22.8422 3.61062C22.6889 3.35729 22.4789 3.16729 22.2122 3.04062C21.9522 2.90729 21.6622 2.84062 21.3422 2.84062C20.8822 2.84062 20.4889 2.98729 20.1622 3.28062C19.8422 3.57396 19.6589 3.98062 19.6122 4.50062H23.0722ZM24.8734 4.89062C24.8734 4.32396 24.9867 3.83062 25.2134 3.41062C25.44 2.98396 25.7534 2.65396 26.1534 2.42062C26.56 2.18729 27.0234 2.07062 27.5434 2.07062C28.2167 2.07062 28.77 2.23396 29.2034 2.56062C29.6434 2.88729 29.9334 3.34062 30.0734 3.92062H29.0934C29 3.58729 28.8167 3.32396 28.5434 3.13062C28.2767 2.93729 27.9434 2.84062 27.5434 2.84062C27.0234 2.84062 26.6034 3.02062 26.2834 3.38062C25.9634 3.73396 25.8034 4.23729 25.8034 4.89062C25.8034 5.55062 25.9634 6.06062 26.2834 6.42062C26.6034 6.78062 27.0234 6.96062 27.5434 6.96062C27.9434 6.96062 28.2767 6.86729 28.5434 6.68062C28.81 6.49396 28.9934 6.22729 29.0934 5.88062H30.0734C29.9267 6.44062 29.6334 6.89062 29.1934 7.23062C28.7534 7.56396 28.2034 7.73063 27.5434 7.73063C27.0234 7.73063 26.56 7.61396 26.1534 7.38062C25.7534 7.14729 25.44 6.81729 25.2134 6.39062C24.9867 5.96396 24.8734 5.46396 24.8734 4.89062ZM32.3976 2.91062V6.14062C32.3976 6.40729 32.4542 6.59729 32.5676 6.71062C32.6809 6.81729 32.8776 6.87062 33.1576 6.87062H33.8276V7.64062H33.0076C32.5009 7.64062 32.1209 7.52396 31.8676 7.29062C31.6142 7.05729 31.4876 6.67396 31.4876 6.14062V2.91062H30.7776V2.16062H31.4876V0.780625H32.3976V2.16062H33.8276V2.91062H32.3976ZM39.8262 2.91062H38.6762V7.64062H37.7662V2.91062H37.0562V2.16062H37.7662V1.77062C37.7662 1.15729 37.9228 0.710625 38.2362 0.430625C38.5562 0.143958 39.0662 0.000624418 39.7662 0.000624418V0.760625C39.3662 0.760625 39.0828 0.840625 38.9162 1.00062C38.7562 1.15396 38.6762 1.41062 38.6762 1.77062V2.16062H39.8262V2.91062ZM43.2772 7.73063C42.7639 7.73063 42.2972 7.61396 41.8772 7.38062C41.4639 7.14729 41.1372 6.81729 40.8972 6.39062C40.6639 5.95729 40.5472 5.45729 40.5472 4.89062C40.5472 4.33062 40.6672 3.83729 40.9072 3.41062C41.1539 2.97729 41.4872 2.64729 41.9072 2.42062C42.3272 2.18729 42.7972 2.07062 43.3172 2.07062C43.8372 2.07062 44.3072 2.18729 44.7272 2.42062C45.1472 2.64729 45.4772 2.97396 45.7172 3.40062C45.9639 3.82729 46.0872 4.32396 46.0872 4.89062C46.0872 5.45729 45.9605 5.95729 45.7072 6.39062C45.4605 6.81729 45.1239 7.14729 44.6972 7.38062C44.2705 7.61396 43.7972 7.73063 43.2772 7.73063ZM43.2772 6.93062C43.6039 6.93062 43.9105 6.85396 44.1972 6.70062C44.4839 6.54729 44.7139 6.31729 44.8872 6.01062C45.0672 5.70396 45.1572 5.33062 45.1572 4.89062C45.1572 4.45062 45.0705 4.07729 44.8972 3.77062C44.7239 3.46396 44.4972 3.23729 44.2172 3.09062C43.9372 2.93729 43.6339 2.86062 43.3072 2.86062C42.9739 2.86062 42.6672 2.93729 42.3872 3.09062C42.1139 3.23729 41.8939 3.46396 41.7272 3.77062C41.5605 4.07729 41.4772 4.45062 41.4772 4.89062C41.4772 5.33729 41.5572 5.71396 41.7172 6.02062C41.8839 6.32729 42.1039 6.55729 42.3772 6.71062C42.6505 6.85729 42.9505 6.93062 43.2772 6.93062ZM48.1937 3.05062C48.3537 2.73729 48.5803 2.49396 48.8737 2.32062C49.1737 2.14729 49.537 2.06062 49.9637 2.06062V3.00062H49.7237C48.7037 3.00062 48.1937 3.55396 48.1937 4.66062V7.64062H47.2837V2.16062H48.1937V3.05062ZM53.3402 4.89062C53.3402 4.32396 53.4535 3.83062 53.6802 3.41062C53.9068 2.98396 54.2202 2.65396 54.6202 2.42062C55.0268 2.18729 55.4902 2.07062 56.0102 2.07062C56.6835 2.07062 57.2368 2.23396 57.6702 2.56062C58.1102 2.88729 58.4002 3.34062 58.5402 3.92062H57.5602C57.4668 3.58729 57.2835 3.32396 57.0102 3.13062C56.7435 2.93729 56.4102 2.84062 56.0102 2.84062C55.4902 2.84062 55.0702 3.02062 54.7502 3.38062C54.4302 3.73396 54.2702 4.23729 54.2702 4.89062C54.2702 5.55062 54.4302 6.06062 54.7502 6.42062C55.0702 6.78062 55.4902 6.96062 56.0102 6.96062C56.4102 6.96062 56.7435 6.86729 57.0102 6.68062C57.2768 6.49396 57.4602 6.22729 57.5602 5.88062H58.5402C58.3935 6.44062 58.1002 6.89062 57.6602 7.23062C57.2202 7.56396 56.6702 7.73063 56.0102 7.73063C55.4902 7.73063 55.0268 7.61396 54.6202 7.38062C54.2202 7.14729 53.9068 6.81729 53.6802 6.39062C53.4535 5.96396 53.3402 5.46396 53.3402 4.89062ZM62.4744 2.06062C62.8877 2.06062 63.261 2.15062 63.5944 2.33062C63.9277 2.50396 64.1877 2.76729 64.3744 3.12062C64.5677 3.47396 64.6644 3.90396 64.6644 4.41062V7.64062H63.7644V4.54062C63.7644 3.99396 63.6277 3.57729 63.3544 3.29062C63.081 2.99729 62.7077 2.85062 62.2344 2.85062C61.7544 2.85062 61.371 3.00062 61.0844 3.30062C60.8044 3.60062 60.6644 4.03729 60.6644 4.61062V7.64062H59.7544V0.240625H60.6644V2.94062C60.8444 2.66062 61.091 2.44396 61.4044 2.29062C61.7244 2.13729 62.081 2.06062 62.4744 2.06062ZM71.0109 2.16062V7.64062H70.1009V6.83062C69.9275 7.11062 69.6842 7.33062 69.3709 7.49062C69.0642 7.64396 68.7242 7.72063 68.3509 7.72063C67.9242 7.72063 67.5409 7.63396 67.2009 7.46062C66.8609 7.28062 66.5909 7.01396 66.3909 6.66062C66.1975 6.30729 66.1009 5.87729 66.1009 5.37062V2.16062H67.0009V5.25062C67.0009 5.79062 67.1375 6.20729 67.4109 6.50062C67.6842 6.78729 68.0575 6.93062 68.5309 6.93062C69.0175 6.93062 69.4009 6.78062 69.6809 6.48062C69.9609 6.18062 70.1009 5.74396 70.1009 5.17062V2.16062H71.0109ZM73.6573 2.91062V6.14062C73.6573 6.40729 73.714 6.59729 73.8273 6.71062C73.9407 6.81729 74.1373 6.87062 74.4173 6.87062H75.0873V7.64062H74.2673C73.7607 7.64062 73.3807 7.52396 73.1273 7.29062C72.874 7.05729 72.7473 6.67396 72.7473 6.14062V2.91062H72.0373V2.16062H72.7473V0.780625H73.6573V2.16062H75.0873V2.91062H73.6573ZM78.8599 2.06062C79.5266 2.06062 80.0666 2.26396 80.4799 2.67062C80.8933 3.07062 81.0999 3.65062 81.0999 4.41062V7.64062H80.1999V4.54062C80.1999 3.99396 80.0633 3.57729 79.7899 3.29062C79.5166 2.99729 79.1433 2.85062 78.6699 2.85062C78.1899 2.85062 77.8066 3.00062 77.5199 3.30062C77.2399 3.60062 77.0999 4.03729 77.0999 4.61062V7.64062H76.1899V2.16062H77.0999V2.94062C77.2799 2.66062 77.5233 2.44396 77.8299 2.29062C78.1433 2.13729 78.4866 2.06062 78.8599 2.06062ZM87.5864 4.69062C87.5864 4.86396 87.5764 5.04729 87.5564 5.24062H83.1764C83.2097 5.78062 83.3931 6.20396 83.7264 6.51062C84.0664 6.81062 84.4764 6.96062 84.9564 6.96062C85.3497 6.96062 85.6764 6.87062 85.9364 6.69062C86.2031 6.50396 86.3897 6.25729 86.4964 5.95062H87.4764C87.3297 6.47729 87.0364 6.90729 86.5964 7.24062C86.1564 7.56729 85.6097 7.73063 84.9564 7.73063C84.4364 7.73063 83.9697 7.61396 83.5564 7.38062C83.1497 7.14729 82.8297 6.81729 82.5964 6.39062C82.3631 5.95729 82.2464 5.45729 82.2464 4.89062C82.2464 4.32396 82.3597 3.82729 82.5864 3.40062C82.8131 2.97396 83.1297 2.64729 83.5364 2.42062C83.9497 2.18729 84.4231 2.07062 84.9564 2.07062C85.4764 2.07062 85.9364 2.18396 86.3364 2.41062C86.7364 2.63729 87.0431 2.95062 87.2564 3.35062C87.4764 3.74396 87.5864 4.19062 87.5864 4.69062ZM86.6464 4.50062C86.6464 4.15396 86.5697 3.85729 86.4164 3.61062C86.2631 3.35729 86.0531 3.16729 85.7864 3.04062C85.5264 2.90729 85.2364 2.84062 84.9164 2.84062C84.4564 2.84062 84.0631 2.98729 83.7364 3.28062C83.4164 3.57396 83.2331 3.98062 83.1864 4.50062H86.6464ZM93.5076 2.16062L90.2076 10.2206H89.2676L90.3476 7.58062L88.1376 2.16062H89.1476L90.8676 6.60062L92.5676 2.16062H93.5076ZM96.3623 7.73063C95.9423 7.73063 95.5657 7.66063 95.2323 7.52062C94.899 7.37396 94.6357 7.17396 94.4423 6.92062C94.249 6.66062 94.1423 6.36396 94.1223 6.03062H95.0623C95.089 6.30396 95.2157 6.52729 95.4423 6.70062C95.6757 6.87396 95.979 6.96062 96.3523 6.96062C96.699 6.96062 96.9723 6.88396 97.1723 6.73062C97.3723 6.57729 97.4723 6.38396 97.4723 6.15062C97.4723 5.91062 97.3657 5.73396 97.1523 5.62062C96.939 5.50062 96.609 5.38396 96.1623 5.27062C95.7557 5.16396 95.4223 5.05729 95.1623 4.95062C94.909 4.83729 94.689 4.67396 94.5023 4.46062C94.3223 4.24062 94.2323 3.95396 94.2323 3.60062C94.2323 3.32062 94.3157 3.06396 94.4823 2.83062C94.649 2.59729 94.8857 2.41396 95.1923 2.28062C95.499 2.14062 95.849 2.07062 96.2423 2.07062C96.849 2.07062 97.339 2.22396 97.7123 2.53062C98.0857 2.83729 98.2857 3.25729 98.3123 3.79062H97.4023C97.3823 3.50396 97.2657 3.27396 97.0523 3.10062C96.8457 2.92729 96.5657 2.84062 96.2123 2.84062C95.8857 2.84062 95.6257 2.91062 95.4323 3.05062C95.239 3.19062 95.1423 3.37396 95.1423 3.60062C95.1423 3.78062 95.199 3.93062 95.3123 4.05062C95.4323 4.16396 95.579 4.25729 95.7523 4.33062C95.9323 4.39729 96.179 4.47396 96.4923 4.56062C96.8857 4.66729 97.2057 4.77396 97.4523 4.88062C97.699 4.98062 97.909 5.13396 98.0823 5.34062C98.2623 5.54729 98.3557 5.81729 98.3623 6.15062C98.3623 6.45062 98.279 6.72062 98.1123 6.96062C97.9457 7.20062 97.709 7.39062 97.4023 7.53062C97.1023 7.66396 96.7557 7.73063 96.3623 7.73063ZM100.587 6.38062L99.467 9.07063H98.857L99.587 6.38062H100.587ZM105.205 3.17062C105.385 2.85729 105.652 2.59729 106.005 2.39062C106.365 2.17729 106.782 2.07062 107.255 2.07062C107.742 2.07062 108.182 2.18729 108.575 2.42062C108.975 2.65396 109.289 2.98396 109.515 3.41062C109.742 3.83062 109.855 4.32062 109.855 4.88062C109.855 5.43396 109.742 5.92729 109.515 6.36062C109.289 6.79396 108.975 7.13062 108.575 7.37062C108.182 7.61063 107.742 7.73063 107.255 7.73063C106.789 7.73063 106.375 7.62729 106.015 7.42062C105.662 7.20729 105.392 6.94396 105.205 6.63062V10.2406H104.295V2.16062H105.205V3.17062ZM108.925 4.88062C108.925 4.46729 108.842 4.10729 108.675 3.80062C108.509 3.49396 108.282 3.26062 107.995 3.10062C107.715 2.94062 107.405 2.86062 107.065 2.86062C106.732 2.86062 106.422 2.94396 106.135 3.11062C105.855 3.27062 105.629 3.50729 105.455 3.82062C105.289 4.12729 105.205 4.48396 105.205 4.89062C105.205 5.30396 105.289 5.66729 105.455 5.98062C105.629 6.28729 105.855 6.52396 106.135 6.69062C106.422 6.85062 106.732 6.93062 107.065 6.93062C107.405 6.93062 107.715 6.85062 107.995 6.69062C108.282 6.52396 108.509 6.28729 108.675 5.98062C108.842 5.66729 108.925 5.30062 108.925 4.88062ZM111.523 1.27062C111.35 1.27062 111.203 1.21062 111.083 1.09062C110.963 0.970625 110.903 0.823958 110.903 0.650624C110.903 0.477291 110.963 0.330625 111.083 0.210625C111.203 0.0906247 111.35 0.0306246 111.523 0.0306246C111.69 0.0306246 111.83 0.0906247 111.943 0.210625C112.063 0.330625 112.123 0.477291 112.123 0.650624C112.123 0.823958 112.063 0.970625 111.943 1.09062C111.83 1.21062 111.69 1.27062 111.523 1.27062ZM111.963 2.16062V7.64062H111.053V2.16062H111.963ZM113.174 4.89062C113.174 4.32396 113.287 3.83062 113.514 3.41062C113.741 2.98396 114.054 2.65396 114.454 2.42062C114.861 2.18729 115.324 2.07062 115.844 2.07062C116.517 2.07062 117.071 2.23396 117.504 2.56062C117.944 2.88729 118.234 3.34062 118.374 3.92062H117.394C117.301 3.58729 117.117 3.32396 116.844 3.13062C116.577 2.93729 116.244 2.84062 115.844 2.84062C115.324 2.84062 114.904 3.02062 114.584 3.38062C114.264 3.73396 114.104 4.23729 114.104 4.89062C114.104 5.55062 114.264 6.06062 114.584 6.42062C114.904 6.78062 115.324 6.96062 115.844 6.96062C116.244 6.96062 116.577 6.86729 116.844 6.68062C117.111 6.49396 117.294 6.22729 117.394 5.88062H118.374C118.227 6.44062 117.934 6.89062 117.494 7.23062C117.054 7.56396 116.504 7.73063 115.844 7.73063C115.324 7.73063 114.861 7.61396 114.454 7.38062C114.054 7.14729 113.741 6.81729 113.514 6.39062C113.287 5.96396 113.174 5.46396 113.174 4.89062ZM122.648 7.64062L120.498 5.22062V7.64062H119.588V0.240625H120.498V4.59062L122.608 2.16062H123.878L121.298 4.89062L123.888 7.64062H122.648ZM125.645 0.240625V7.64062H124.735V0.240625H125.645ZM132.196 4.69062C132.196 4.86396 132.186 5.04729 132.166 5.24062H127.786C127.819 5.78062 128.002 6.20396 128.336 6.51062C128.676 6.81062 129.086 6.96062 129.566 6.96062C129.959 6.96062 130.286 6.87062 130.546 6.69062C130.812 6.50396 130.999 6.25729 131.106 5.95062H132.086C131.939 6.47729 131.646 6.90729 131.206 7.24062C130.766 7.56729 130.219 7.73063 129.566 7.73063C129.046 7.73063 128.579 7.61396 128.166 7.38062C127.759 7.14729 127.439 6.81729 127.206 6.39062C126.972 5.95729 126.856 5.45729 126.856 4.89062C126.856 4.32396 126.969 3.82729 127.196 3.40062C127.422 2.97396 127.739 2.64729 128.146 2.42062C128.559 2.18729 129.032 2.07062 129.566 2.07062C130.086 2.07062 130.546 2.18396 130.946 2.41062C131.346 2.63729 131.652 2.95062 131.866 3.35062C132.086 3.74396 132.196 4.19062 132.196 4.69062ZM131.256 4.50062C131.256 4.15396 131.179 3.85729 131.026 3.61062C130.872 3.35729 130.662 3.16729 130.396 3.04062C130.136 2.90729 129.846 2.84062 129.526 2.84062C129.066 2.84062 128.672 2.98729 128.346 3.28062C128.026 3.57396 127.842 3.98062 127.796 4.50062H131.256ZM135.337 7.73063C134.917 7.73063 134.54 7.66063 134.207 7.52062C133.874 7.37396 133.61 7.17396 133.417 6.92062C133.224 6.66062 133.117 6.36396 133.097 6.03062H134.037C134.064 6.30396 134.19 6.52729 134.417 6.70062C134.65 6.87396 134.954 6.96062 135.327 6.96062C135.674 6.96062 135.947 6.88396 136.147 6.73062C136.347 6.57729 136.447 6.38396 136.447 6.15062C136.447 5.91062 136.34 5.73396 136.127 5.62062C135.914 5.50062 135.584 5.38396 135.137 5.27062C134.73 5.16396 134.397 5.05729 134.137 4.95062C133.884 4.83729 133.664 4.67396 133.477 4.46062C133.297 4.24062 133.207 3.95396 133.207 3.60062C133.207 3.32062 133.29 3.06396 133.457 2.83062C133.624 2.59729 133.86 2.41396 134.167 2.28062C134.474 2.14062 134.824 2.07062 135.217 2.07062C135.824 2.07062 136.314 2.22396 136.687 2.53062C137.06 2.83729 137.26 3.25729 137.287 3.79062H136.377C136.357 3.50396 136.24 3.27396 136.027 3.10062C135.82 2.92729 135.54 2.84062 135.187 2.84062C134.86 2.84062 134.6 2.91062 134.407 3.05062C134.214 3.19062 134.117 3.37396 134.117 3.60062C134.117 3.78062 134.174 3.93062 134.287 4.05062C134.407 4.16396 134.554 4.25729 134.727 4.33062C134.907 4.39729 135.154 4.47396 135.467 4.56062C135.86 4.66729 136.18 4.77396 136.427 4.88062C136.674 4.98062 136.884 5.13396 137.057 5.34062C137.237 5.54729 137.33 5.81729 137.337 6.15062C137.337 6.45062 137.254 6.72062 137.087 6.96062C136.92 7.20062 136.684 7.39062 136.377 7.53062C136.077 7.66396 135.73 7.73063 135.337 7.73063ZM139.562 6.38062L138.442 9.07063H137.832L138.562 6.38062H139.562ZM145.21 7.73063C144.79 7.73063 144.413 7.66063 144.08 7.52062C143.747 7.37396 143.483 7.17396 143.29 6.92062C143.097 6.66062 142.99 6.36396 142.97 6.03062H143.91C143.937 6.30396 144.063 6.52729 144.29 6.70062C144.523 6.87396 144.827 6.96062 145.2 6.96062C145.547 6.96062 145.82 6.88396 146.02 6.73062C146.22 6.57729 146.32 6.38396 146.32 6.15062C146.32 5.91062 146.213 5.73396 146 5.62062C145.787 5.50062 145.457 5.38396 145.01 5.27062C144.603 5.16396 144.27 5.05729 144.01 4.95062C143.757 4.83729 143.537 4.67396 143.35 4.46062C143.17 4.24062 143.08 3.95396 143.08 3.60062C143.08 3.32062 143.163 3.06396 143.33 2.83062C143.497 2.59729 143.733 2.41396 144.04 2.28062C144.347 2.14062 144.697 2.07062 145.09 2.07062C145.697 2.07062 146.187 2.22396 146.56 2.53062C146.933 2.83729 147.133 3.25729 147.16 3.79062H146.25C146.23 3.50396 146.113 3.27396 145.9 3.10062C145.693 2.92729 145.413 2.84062 145.06 2.84062C144.733 2.84062 144.473 2.91062 144.28 3.05062C144.087 3.19062 143.99 3.37396 143.99 3.60062C143.99 3.78062 144.047 3.93062 144.16 4.05062C144.28 4.16396 144.427 4.25729 144.6 4.33062C144.78 4.39729 145.027 4.47396 145.34 4.56062C145.733 4.66729 146.053 4.77396 146.3 4.88062C146.547 4.98062 146.757 5.13396 146.93 5.34062C147.11 5.54729 147.203 5.81729 147.21 6.15062C147.21 6.45062 147.127 6.72062 146.96 6.96062C146.793 7.20062 146.557 7.39062 146.25 7.53062C145.95 7.66396 145.603 7.73063 145.21 7.73063ZM155.795 2.16062L154.085 7.64062H153.145L151.825 3.29062L150.505 7.64062H149.565L147.845 2.16062H148.775L150.035 6.76062L151.395 2.16062H152.325L153.655 6.77062L154.895 2.16062H155.795ZM161.698 4.69062C161.698 4.86396 161.688 5.04729 161.668 5.24062H157.288C157.321 5.78062 157.504 6.20396 157.838 6.51062C158.178 6.81062 158.588 6.96062 159.068 6.96062C159.461 6.96062 159.788 6.87062 160.048 6.69062C160.314 6.50396 160.501 6.25729 160.608 5.95062H161.588C161.441 6.47729 161.148 6.90729 160.708 7.24062C160.268 7.56729 159.721 7.73063 159.068 7.73063C158.548 7.73063 158.081 7.61396 157.668 7.38062C157.261 7.14729 156.941 6.81729 156.708 6.39062C156.474 5.95729 156.358 5.45729 156.358 4.89062C156.358 4.32396 156.471 3.82729 156.698 3.40062C156.924 2.97396 157.241 2.64729 157.648 2.42062C158.061 2.18729 158.534 2.07062 159.068 2.07062C159.588 2.07062 160.048 2.18396 160.448 2.41062C160.848 2.63729 161.154 2.95062 161.368 3.35062C161.588 3.74396 161.698 4.19062 161.698 4.69062ZM160.758 4.50062C160.758 4.15396 160.681 3.85729 160.528 3.61062C160.374 3.35729 160.164 3.16729 159.898 3.04062C159.638 2.90729 159.348 2.84062 159.028 2.84062C158.568 2.84062 158.174 2.98729 157.848 3.28062C157.528 3.57396 157.344 3.98062 157.298 4.50062H160.758ZM167.899 4.69062C167.899 4.86396 167.889 5.04729 167.869 5.24062H163.489C163.522 5.78062 163.706 6.20396 164.039 6.51062C164.379 6.81062 164.789 6.96062 165.269 6.96062C165.662 6.96062 165.989 6.87062 166.249 6.69062C166.516 6.50396 166.702 6.25729 166.809 5.95062H167.789C167.642 6.47729 167.349 6.90729 166.909 7.24062C166.469 7.56729 165.922 7.73063 165.269 7.73063C164.749 7.73063 164.282 7.61396 163.869 7.38062C163.462 7.14729 163.142 6.81729 162.909 6.39062C162.676 5.95729 162.559 5.45729 162.559 4.89062C162.559 4.32396 162.672 3.82729 162.899 3.40062C163.126 2.97396 163.442 2.64729 163.849 2.42062C164.262 2.18729 164.736 2.07062 165.269 2.07062C165.789 2.07062 166.249 2.18396 166.649 2.41062C167.049 2.63729 167.356 2.95062 167.569 3.35062C167.789 3.74396 167.899 4.19062 167.899 4.69062ZM166.959 4.50062C166.959 4.15396 166.882 3.85729 166.729 3.61062C166.576 3.35729 166.366 3.16729 166.099 3.04062C165.839 2.90729 165.549 2.84062 165.229 2.84062C164.769 2.84062 164.376 2.98729 164.049 3.28062C163.729 3.57396 163.546 3.98062 163.499 4.50062H166.959ZM170.21 2.91062V6.14062C170.21 6.40729 170.267 6.59729 170.38 6.71062C170.493 6.81729 170.69 6.87062 170.97 6.87062H171.64V7.64062H170.82C170.313 7.64062 169.933 7.52396 169.68 7.29062C169.427 7.05729 169.3 6.67396 169.3 6.14062V2.91062H168.59V2.16062H169.3V0.780625H170.21V2.16062H171.64V2.91062H170.21ZM174.683 7.73063C174.263 7.73063 173.886 7.66063 173.553 7.52062C173.219 7.37396 172.956 7.17396 172.763 6.92062C172.569 6.66062 172.463 6.36396 172.443 6.03062H173.383C173.409 6.30396 173.536 6.52729 173.763 6.70062C173.996 6.87396 174.299 6.96062 174.673 6.96062C175.019 6.96062 175.293 6.88396 175.493 6.73062C175.693 6.57729 175.793 6.38396 175.793 6.15062C175.793 5.91062 175.686 5.73396 175.473 5.62062C175.259 5.50062 174.929 5.38396 174.483 5.27062C174.076 5.16396 173.743 5.05729 173.483 4.95062C173.229 4.83729 173.009 4.67396 172.823 4.46062C172.643 4.24062 172.553 3.95396 172.553 3.60062C172.553 3.32062 172.636 3.06396 172.803 2.83062C172.969 2.59729 173.206 2.41396 173.513 2.28062C173.819 2.14062 174.169 2.07062 174.563 2.07062C175.169 2.07062 175.659 2.22396 176.033 2.53062C176.406 2.83729 176.606 3.25729 176.633 3.79062H175.723C175.703 3.50396 175.586 3.27396 175.373 3.10062C175.166 2.92729 174.886 2.84062 174.533 2.84062C174.206 2.84062 173.946 2.91062 173.753 3.05062C173.559 3.19062 173.463 3.37396 173.463 3.60062C173.463 3.78062 173.519 3.93062 173.633 4.05062C173.753 4.16396 173.899 4.25729 174.073 4.33062C174.253 4.39729 174.499 4.47396 174.813 4.56062C175.206 4.66729 175.526 4.77396 175.773 4.88062C176.019 4.98062 176.229 5.13396 176.403 5.34062C176.583 5.54729 176.676 5.81729 176.683 6.15062C176.683 6.45062 176.599 6.72062 176.433 6.96062C176.266 7.20062 176.029 7.39062 175.723 7.53062C175.423 7.66396 175.076 7.73063 174.683 7.73063ZM178.907 6.38062L177.787 9.07063H177.177L177.907 6.38062H178.907ZM182.276 4.88062C182.276 4.32062 182.389 3.83062 182.616 3.41062C182.842 2.98396 183.152 2.65396 183.546 2.42062C183.946 2.18729 184.389 2.07062 184.876 2.07062C185.356 2.07062 185.772 2.17396 186.126 2.38062C186.479 2.58729 186.742 2.84729 186.916 3.16062V2.16062H187.836V7.64062H186.916V6.62062C186.736 6.94062 186.466 7.20729 186.106 7.42062C185.752 7.62729 185.339 7.73063 184.866 7.73063C184.379 7.73063 183.939 7.61063 183.546 7.37062C183.152 7.13062 182.842 6.79396 182.616 6.36062C182.389 5.92729 182.276 5.43396 182.276 4.88062ZM186.916 4.89062C186.916 4.47729 186.832 4.11729 186.666 3.81062C186.499 3.50396 186.272 3.27062 185.986 3.11062C185.706 2.94396 185.396 2.86062 185.056 2.86062C184.716 2.86062 184.406 2.94062 184.126 3.10062C183.846 3.26062 183.622 3.49396 183.456 3.80062C183.289 4.10729 183.206 4.46729 183.206 4.88062C183.206 5.30062 183.289 5.66729 183.456 5.98062C183.622 6.28729 183.846 6.52396 184.126 6.69062C184.406 6.85062 184.716 6.93062 185.056 6.93062C185.396 6.93062 185.706 6.85062 185.986 6.69062C186.272 6.52396 186.499 6.28729 186.666 5.98062C186.832 5.66729 186.916 5.30396 186.916 4.89062ZM192.044 2.06062C192.71 2.06062 193.25 2.26396 193.664 2.67062C194.077 3.07062 194.284 3.65062 194.284 4.41062V7.64062H193.384V4.54062C193.384 3.99396 193.247 3.57729 192.974 3.29062C192.7 2.99729 192.327 2.85062 191.854 2.85062C191.374 2.85062 190.99 3.00062 190.704 3.30062C190.424 3.60062 190.284 4.03729 190.284 4.61062V7.64062H189.374V2.16062H190.284V2.94062C190.464 2.66062 190.707 2.44396 191.014 2.29062C191.327 2.13729 191.67 2.06062 192.044 2.06062ZM195.43 4.88062C195.43 4.32062 195.543 3.83062 195.77 3.41062C195.997 2.98396 196.307 2.65396 196.7 2.42062C197.1 2.18729 197.547 2.07062 198.04 2.07062C198.467 2.07062 198.863 2.17062 199.23 2.37062C199.597 2.56396 199.877 2.82062 200.07 3.14062V0.240625H200.99V7.64062H200.07V6.61062C199.89 6.93729 199.623 7.20729 199.27 7.42062C198.917 7.62729 198.503 7.73063 198.03 7.73063C197.543 7.73063 197.1 7.61063 196.7 7.37062C196.307 7.13062 195.997 6.79396 195.77 6.36062C195.543 5.92729 195.43 5.43396 195.43 4.88062ZM200.07 4.89062C200.07 4.47729 199.987 4.11729 199.82 3.81062C199.653 3.50396 199.427 3.27062 199.14 3.11062C198.86 2.94396 198.55 2.86062 198.21 2.86062C197.87 2.86062 197.56 2.94062 197.28 3.10062C197 3.26062 196.777 3.49396 196.61 3.80062C196.443 4.10729 196.36 4.46729 196.36 4.88062C196.36 5.30062 196.443 5.66729 196.61 5.98062C196.777 6.28729 197 6.52396 197.28 6.69062C197.56 6.85062 197.87 6.93062 198.21 6.93062C198.55 6.93062 198.86 6.85062 199.14 6.69062C199.427 6.52396 199.653 6.28729 199.82 5.98062C199.987 5.66729 200.07 5.30396 200.07 4.89062ZM207.134 7.73063C206.714 7.73063 206.337 7.66063 206.004 7.52062C205.67 7.37396 205.407 7.17396 205.214 6.92062C205.02 6.66062 204.914 6.36396 204.894 6.03062H205.834C205.86 6.30396 205.987 6.52729 206.214 6.70062C206.447 6.87396 206.75 6.96062 207.124 6.96062C207.47 6.96062 207.744 6.88396 207.944 6.73062C208.144 6.57729 208.244 6.38396 208.244 6.15062C208.244 5.91062 208.137 5.73396 207.924 5.62062C207.71 5.50062 207.38 5.38396 206.934 5.27062C206.527 5.16396 206.194 5.05729 205.934 4.95062C205.68 4.83729 205.46 4.67396 205.274 4.46062C205.094 4.24062 205.004 3.95396 205.004 3.60062C205.004 3.32062 205.087 3.06396 205.254 2.83062C205.42 2.59729 205.657 2.41396 205.964 2.28062C206.27 2.14062 206.62 2.07062 207.014 2.07062C207.62 2.07062 208.11 2.22396 208.484 2.53062C208.857 2.83729 209.057 3.25729 209.084 3.79062H208.174C208.154 3.50396 208.037 3.27396 207.824 3.10062C207.617 2.92729 207.337 2.84062 206.984 2.84062C206.657 2.84062 206.397 2.91062 206.204 3.05062C206.01 3.19062 205.914 3.37396 205.914 3.60062C205.914 3.78062 205.97 3.93062 206.084 4.05062C206.204 4.16396 206.35 4.25729 206.524 4.33062C206.704 4.39729 206.95 4.47396 207.264 4.56062C207.657 4.66729 207.977 4.77396 208.224 4.88062C208.47 4.98062 208.68 5.13396 208.854 5.34062C209.034 5.54729 209.127 5.81729 209.134 6.15062C209.134 6.45062 209.05 6.72062 208.884 6.96062C208.717 7.20062 208.48 7.39062 208.174 7.53062C207.874 7.66396 207.527 7.73063 207.134 7.73063ZM217.008 2.06062C217.435 2.06062 217.815 2.15062 218.148 2.33062C218.482 2.50396 218.745 2.76729 218.938 3.12062C219.132 3.47396 219.228 3.90396 219.228 4.41062V7.64062H218.328V4.54062C218.328 3.99396 218.192 3.57729 217.918 3.29062C217.652 2.99729 217.288 2.85062 216.828 2.85062C216.355 2.85062 215.978 3.00396 215.698 3.31062C215.418 3.61062 215.278 4.04729 215.278 4.62062V7.64062H214.378V4.54062C214.378 3.99396 214.242 3.57729 213.968 3.29062C213.702 2.99729 213.338 2.85062 212.878 2.85062C212.405 2.85062 212.028 3.00396 211.748 3.31062C211.468 3.61062 211.328 4.04729 211.328 4.62062V7.64062H210.418V2.16062H211.328V2.95062C211.508 2.66396 211.748 2.44396 212.048 2.29062C212.355 2.13729 212.692 2.06062 213.058 2.06062C213.518 2.06062 213.925 2.16396 214.278 2.37062C214.632 2.57729 214.895 2.88062 215.068 3.28062C215.222 2.89396 215.475 2.59396 215.828 2.38062C216.182 2.16729 216.575 2.06062 217.008 2.06062ZM220.381 4.88062C220.381 4.32062 220.495 3.83062 220.721 3.41062C220.948 2.98396 221.258 2.65396 221.651 2.42062C222.051 2.18729 222.495 2.07062 222.981 2.07062C223.461 2.07062 223.878 2.17396 224.231 2.38062C224.585 2.58729 224.848 2.84729 225.021 3.16062V2.16062H225.941V7.64062H225.021V6.62062C224.841 6.94062 224.571 7.20729 224.211 7.42062C223.858 7.62729 223.445 7.73063 222.971 7.73063C222.485 7.73063 222.045 7.61063 221.651 7.37062C221.258 7.13062 220.948 6.79396 220.721 6.36062C220.495 5.92729 220.381 5.43396 220.381 4.88062ZM225.021 4.89062C225.021 4.47729 224.938 4.11729 224.771 3.81062C224.605 3.50396 224.378 3.27062 224.091 3.11062C223.811 2.94396 223.501 2.86062 223.161 2.86062C222.821 2.86062 222.511 2.94062 222.231 3.10062C221.951 3.26062 221.728 3.49396 221.561 3.80062C221.395 4.10729 221.311 4.46729 221.311 4.88062C221.311 5.30062 221.395 5.66729 221.561 5.98062C221.728 6.28729 221.951 6.52396 222.231 6.69062C222.511 6.85062 222.821 6.93062 223.161 6.93062C223.501 6.93062 223.811 6.85062 224.091 6.69062C224.378 6.52396 224.605 6.28729 224.771 5.98062C224.938 5.66729 225.021 5.30396 225.021 4.89062ZM228.389 0.240625V7.64062H227.479V0.240625H228.389ZM230.85 0.240625V7.64062H229.94V0.240625H230.85ZM237.007 7.73063C236.587 7.73063 236.21 7.66063 235.877 7.52062C235.544 7.37396 235.28 7.17396 235.087 6.92062C234.894 6.66062 234.787 6.36396 234.767 6.03062H235.707C235.734 6.30396 235.86 6.52729 236.087 6.70062C236.32 6.87396 236.624 6.96062 236.997 6.96062C237.344 6.96062 237.617 6.88396 237.817 6.73062C238.017 6.57729 238.117 6.38396 238.117 6.15062C238.117 5.91062 238.01 5.73396 237.797 5.62062C237.584 5.50062 237.254 5.38396 236.807 5.27062C236.4 5.16396 236.067 5.05729 235.807 4.95062C235.554 4.83729 235.334 4.67396 235.147 4.46062C234.967 4.24062 234.877 3.95396 234.877 3.60062C234.877 3.32062 234.96 3.06396 235.127 2.83062C235.294 2.59729 235.53 2.41396 235.837 2.28062C236.144 2.14062 236.494 2.07062 236.887 2.07062C237.494 2.07062 237.984 2.22396 238.357 2.53062C238.73 2.83729 238.93 3.25729 238.957 3.79062H238.047C238.027 3.50396 237.91 3.27396 237.697 3.10062C237.49 2.92729 237.21 2.84062 236.857 2.84062C236.53 2.84062 236.27 2.91062 236.077 3.05062C235.884 3.19062 235.787 3.37396 235.787 3.60062C235.787 3.78062 235.844 3.93062 235.957 4.05062C236.077 4.16396 236.224 4.25729 236.397 4.33062C236.577 4.39729 236.824 4.47396 237.137 4.56062C237.53 4.66729 237.85 4.77396 238.097 4.88062C238.344 4.98062 238.554 5.13396 238.727 5.34062C238.907 5.54729 239 5.81729 239.007 6.15062C239.007 6.45062 238.924 6.72062 238.757 6.96062C238.59 7.20062 238.354 7.39062 238.047 7.53062C237.747 7.66396 237.4 7.73063 237.007 7.73063ZM242.961 2.06062C243.628 2.06062 244.168 2.26396 244.581 2.67062C244.995 3.07062 245.201 3.65062 245.201 4.41062V7.64062H244.301V4.54062C244.301 3.99396 244.165 3.57729 243.891 3.29062C243.618 2.99729 243.245 2.85062 242.771 2.85062C242.291 2.85062 241.908 3.00062 241.621 3.30062C241.341 3.60062 241.201 4.03729 241.201 4.61062V7.64062H240.291V2.16062H241.201V2.94062C241.381 2.66062 241.625 2.44396 241.931 2.29062C242.245 2.13729 242.588 2.06062 242.961 2.06062ZM246.348 4.88062C246.348 4.32062 246.461 3.83062 246.688 3.41062C246.915 2.98396 247.225 2.65396 247.618 2.42062C248.018 2.18729 248.461 2.07062 248.948 2.07062C249.428 2.07062 249.845 2.17396 250.198 2.38062C250.551 2.58729 250.815 2.84729 250.988 3.16062V2.16062H251.908V7.64062H250.988V6.62062C250.808 6.94062 250.538 7.20729 250.178 7.42062C249.825 7.62729 249.411 7.73063 248.938 7.73063C248.451 7.73063 248.011 7.61063 247.618 7.37062C247.225 7.13062 246.915 6.79396 246.688 6.36062C246.461 5.92729 246.348 5.43396 246.348 4.88062ZM250.988 4.89062C250.988 4.47729 250.905 4.11729 250.738 3.81062C250.571 3.50396 250.345 3.27062 250.058 3.11062C249.778 2.94396 249.468 2.86062 249.128 2.86062C248.788 2.86062 248.478 2.94062 248.198 3.10062C247.918 3.26062 247.695 3.49396 247.528 3.80062C247.361 4.10729 247.278 4.46729 247.278 4.88062C247.278 5.30062 247.361 5.66729 247.528 5.98062C247.695 6.28729 247.918 6.52396 248.198 6.69062C248.478 6.85062 248.788 6.93062 249.128 6.93062C249.468 6.93062 249.778 6.85062 250.058 6.69062C250.345 6.52396 250.571 6.28729 250.738 5.98062C250.905 5.66729 250.988 5.30396 250.988 4.89062ZM253.106 4.89062C253.106 4.32396 253.219 3.83062 253.446 3.41062C253.672 2.98396 253.986 2.65396 254.386 2.42062C254.792 2.18729 255.256 2.07062 255.776 2.07062C256.449 2.07062 257.002 2.23396 257.436 2.56062C257.876 2.88729 258.166 3.34062 258.306 3.92062H257.326C257.232 3.58729 257.049 3.32396 256.776 3.13062C256.509 2.93729 256.176 2.84062 255.776 2.84062C255.256 2.84062 254.836 3.02062 254.516 3.38062C254.196 3.73396 254.036 4.23729 254.036 4.89062C254.036 5.55062 254.196 6.06062 254.516 6.42062C254.836 6.78062 255.256 6.96062 255.776 6.96062C256.176 6.96062 256.509 6.86729 256.776 6.68062C257.042 6.49396 257.226 6.22729 257.326 5.88062H258.306C258.159 6.44062 257.866 6.89062 257.426 7.23062C256.986 7.56396 256.436 7.73063 255.776 7.73063C255.256 7.73063 254.792 7.61396 254.386 7.38062C253.986 7.14729 253.672 6.81729 253.446 6.39062C253.219 5.96396 253.106 5.46396 253.106 4.89062ZM262.58 7.64062L260.43 5.22062V7.64062H259.52V0.240625H260.43V4.59062L262.54 2.16062H263.81L261.23 4.89062L263.82 7.64062H262.58ZM268.243 3.17062C268.423 2.85729 268.689 2.59729 269.043 2.39062C269.403 2.17729 269.819 2.07062 270.293 2.07062C270.779 2.07062 271.219 2.18729 271.612 2.42062C272.012 2.65396 272.326 2.98396 272.553 3.41062C272.779 3.83062 272.893 4.32062 272.893 4.88062C272.893 5.43396 272.779 5.92729 272.553 6.36062C272.326 6.79396 272.012 7.13062 271.612 7.37062C271.219 7.61063 270.779 7.73063 270.293 7.73063C269.826 7.73063 269.413 7.62729 269.053 7.42062C268.699 7.20729 268.429 6.94396 268.243 6.63062V10.2406H267.333V2.16062H268.243V3.17062ZM271.963 4.88062C271.963 4.46729 271.879 4.10729 271.713 3.80062C271.546 3.49396 271.319 3.26062 271.033 3.10062C270.753 2.94062 270.443 2.86062 270.103 2.86062C269.769 2.86062 269.459 2.94396 269.173 3.11062C268.893 3.27062 268.666 3.50729 268.493 3.82062C268.326 4.12729 268.243 4.48396 268.243 4.89062C268.243 5.30396 268.326 5.66729 268.493 5.98062C268.666 6.28729 268.893 6.52396 269.173 6.69062C269.459 6.85062 269.769 6.93062 270.103 6.93062C270.443 6.93062 270.753 6.85062 271.033 6.69062C271.319 6.52396 271.546 6.28729 271.713 5.98062C271.879 5.66729 271.963 5.30062 271.963 4.88062ZM276.48 7.73063C275.967 7.73063 275.5 7.61396 275.08 7.38062C274.667 7.14729 274.34 6.81729 274.1 6.39062C273.867 5.95729 273.75 5.45729 273.75 4.89062C273.75 4.33062 273.87 3.83729 274.11 3.41062C274.357 2.97729 274.69 2.64729 275.11 2.42062C275.53 2.18729 276 2.07062 276.52 2.07062C277.04 2.07062 277.51 2.18729 277.93 2.42062C278.35 2.64729 278.68 2.97396 278.92 3.40062C279.167 3.82729 279.29 4.32396 279.29 4.89062C279.29 5.45729 279.164 5.95729 278.91 6.39062C278.664 6.81729 278.327 7.14729 277.9 7.38062C277.474 7.61396 277 7.73063 276.48 7.73063ZM276.48 6.93062C276.807 6.93062 277.114 6.85396 277.4 6.70062C277.687 6.54729 277.917 6.31729 278.09 6.01062C278.27 5.70396 278.36 5.33062 278.36 4.89062C278.36 4.45062 278.274 4.07729 278.1 3.77062C277.927 3.46396 277.7 3.23729 277.42 3.09062C277.14 2.93729 276.837 2.86062 276.51 2.86062C276.177 2.86062 275.87 2.93729 275.59 3.09062C275.317 3.23729 275.097 3.46396 274.93 3.77062C274.764 4.07729 274.68 4.45062 274.68 4.89062C274.68 5.33729 274.76 5.71396 274.92 6.02062C275.087 6.32729 275.307 6.55729 275.58 6.71062C275.854 6.85729 276.154 6.93062 276.48 6.93062ZM281.397 3.05062C281.557 2.73729 281.783 2.49396 282.077 2.32062C282.377 2.14729 282.74 2.06062 283.167 2.06062V3.00062H282.927C281.907 3.00062 281.397 3.55396 281.397 4.66062V7.64062H280.487V2.16062H281.397V3.05062ZM285.327 2.91062V6.14062C285.327 6.40729 285.384 6.59729 285.497 6.71062C285.611 6.81729 285.807 6.87062 286.087 6.87062H286.757V7.64062H285.937C285.431 7.64062 285.051 7.52396 284.797 7.29062C284.544 7.05729 284.417 6.67396 284.417 6.14062V2.91062H283.707V2.16062H284.417V0.780625H285.327V2.16062H286.757V2.91062H285.327ZM288.33 1.27062C288.157 1.27062 288.01 1.21062 287.89 1.09062C287.77 0.970625 287.71 0.823958 287.71 0.650624C287.71 0.477291 287.77 0.330625 287.89 0.210625C288.01 0.0906247 288.157 0.0306246 288.33 0.0306246C288.497 0.0306246 288.637 0.0906247 288.75 0.210625C288.87 0.330625 288.93 0.477291 288.93 0.650624C288.93 0.823958 288.87 0.970625 288.75 1.09062C288.637 1.21062 288.497 1.27062 288.33 1.27062ZM288.77 2.16062V7.64062H287.86V2.16062H288.77ZM292.711 7.73063C292.197 7.73063 291.731 7.61396 291.311 7.38062C290.897 7.14729 290.571 6.81729 290.331 6.39062C290.097 5.95729 289.981 5.45729 289.981 4.89062C289.981 4.33062 290.101 3.83729 290.341 3.41062C290.587 2.97729 290.921 2.64729 291.341 2.42062C291.761 2.18729 292.231 2.07062 292.751 2.07062C293.271 2.07062 293.741 2.18729 294.161 2.42062C294.581 2.64729 294.911 2.97396 295.151 3.40062C295.397 3.82729 295.521 4.32396 295.521 4.89062C295.521 5.45729 295.394 5.95729 295.141 6.39062C294.894 6.81729 294.557 7.14729 294.131 7.38062C293.704 7.61396 293.231 7.73063 292.711 7.73063ZM292.711 6.93062C293.037 6.93062 293.344 6.85396 293.631 6.70062C293.917 6.54729 294.147 6.31729 294.321 6.01062C294.501 5.70396 294.591 5.33062 294.591 4.89062C294.591 4.45062 294.504 4.07729 294.331 3.77062C294.157 3.46396 293.931 3.23729 293.651 3.09062C293.371 2.93729 293.067 2.86062 292.741 2.86062C292.407 2.86062 292.101 2.93729 291.821 3.09062C291.547 3.23729 291.327 3.46396 291.161 3.77062C290.994 4.07729 290.911 4.45062 290.911 4.89062C290.911 5.33729 290.991 5.71396 291.151 6.02062C291.317 6.32729 291.537 6.55729 291.811 6.71062C292.084 6.85729 292.384 6.93062 292.711 6.93062ZM299.387 2.06062C300.054 2.06062 300.594 2.26396 301.007 2.67062C301.421 3.07062 301.627 3.65062 301.627 4.41062V7.64062H300.727V4.54062C300.727 3.99396 300.591 3.57729 300.317 3.29062C300.044 2.99729 299.671 2.85062 299.197 2.85062C298.717 2.85062 298.334 3.00062 298.047 3.30062C297.767 3.60062 297.627 4.03729 297.627 4.61062V7.64062H296.717V2.16062H297.627V2.94062C297.807 2.66062 298.051 2.44396 298.357 2.29062C298.671 2.13729 299.014 2.06062 299.387 2.06062ZM305.054 7.73063C304.634 7.73063 304.257 7.66063 303.924 7.52062C303.59 7.37396 303.327 7.17396 303.134 6.92062C302.94 6.66062 302.834 6.36396 302.814 6.03062H303.754C303.78 6.30396 303.907 6.52729 304.134 6.70062C304.367 6.87396 304.67 6.96062 305.044 6.96062C305.39 6.96062 305.664 6.88396 305.864 6.73062C306.064 6.57729 306.164 6.38396 306.164 6.15062C306.164 5.91062 306.057 5.73396 305.844 5.62062C305.63 5.50062 305.3 5.38396 304.854 5.27062C304.447 5.16396 304.114 5.05729 303.854 4.95062C303.6 4.83729 303.38 4.67396 303.194 4.46062C303.014 4.24062 302.924 3.95396 302.924 3.60062C302.924 3.32062 303.007 3.06396 303.174 2.83062C303.34 2.59729 303.577 2.41396 303.884 2.28062C304.19 2.14062 304.54 2.07062 304.934 2.07062C305.54 2.07062 306.03 2.22396 306.404 2.53062C306.777 2.83729 306.977 3.25729 307.004 3.79062H306.094C306.074 3.50396 305.957 3.27396 305.744 3.10062C305.537 2.92729 305.257 2.84062 304.904 2.84062C304.577 2.84062 304.317 2.91062 304.124 3.05062C303.93 3.19062 303.834 3.37396 303.834 3.60062C303.834 3.78062 303.89 3.93062 304.004 4.05062C304.124 4.16396 304.27 4.25729 304.444 4.33062C304.624 4.39729 304.87 4.47396 305.184 4.56062C305.577 4.66729 305.897 4.77396 306.144 4.88062C306.39 4.98062 306.6 5.13396 306.774 5.34062C306.954 5.54729 307.047 5.81729 307.054 6.15062C307.054 6.45062 306.97 6.72062 306.804 6.96062C306.637 7.20062 306.4 7.39062 306.094 7.53062C305.794 7.66396 305.447 7.73063 305.054 7.73063ZM308.628 7.70063C308.455 7.70063 308.308 7.64062 308.188 7.52062C308.068 7.40062 308.008 7.25396 308.008 7.08062C308.008 6.90729 308.068 6.76062 308.188 6.64062C308.308 6.52062 308.455 6.46062 308.628 6.46062C308.795 6.46062 308.935 6.52062 309.048 6.64062C309.168 6.76062 309.228 6.90729 309.228 7.08062C309.228 7.25396 309.168 7.40062 309.048 7.52062C308.935 7.64062 308.795 7.70063 308.628 7.70063ZM314.014 6.90062H316.454V7.64062H313.104V0.670625H314.014V6.90062ZM317.89 1.27062C317.717 1.27062 317.57 1.21062 317.45 1.09062C317.33 0.970625 317.27 0.823958 317.27 0.650624C317.27 0.477291 317.33 0.330625 317.45 0.210625C317.57 0.0906247 317.717 0.0306246 317.89 0.0306246C318.057 0.0306246 318.197 0.0906247 318.31 0.210625C318.43 0.330625 318.49 0.477291 318.49 0.650624C318.49 0.823958 318.43 0.970625 318.31 1.09062C318.197 1.21062 318.057 1.27062 317.89 1.27062ZM318.33 2.16062V7.64062H317.42V2.16062H318.33ZM322.141 2.07062C322.615 2.07062 323.028 2.17396 323.381 2.38062C323.741 2.58729 324.008 2.84729 324.181 3.16062V2.16062H325.101V7.76063C325.101 8.26063 324.995 8.70396 324.781 9.09063C324.568 9.48396 324.261 9.79063 323.861 10.0106C323.468 10.2306 323.008 10.3406 322.481 10.3406C321.761 10.3406 321.161 10.1706 320.681 9.83063C320.201 9.49063 319.918 9.02729 319.831 8.44063H320.731C320.831 8.77396 321.038 9.04063 321.351 9.24063C321.665 9.44729 322.041 9.55063 322.481 9.55063C322.981 9.55063 323.388 9.39396 323.701 9.08063C324.021 8.76729 324.181 8.32729 324.181 7.76063V6.61062C324.001 6.93062 323.735 7.19729 323.381 7.41062C323.028 7.62396 322.615 7.73063 322.141 7.73063C321.655 7.73063 321.211 7.61063 320.811 7.37062C320.418 7.13062 320.108 6.79396 319.881 6.36062C319.655 5.92729 319.541 5.43396 319.541 4.88062C319.541 4.32062 319.655 3.83062 319.881 3.41062C320.108 2.98396 320.418 2.65396 320.811 2.42062C321.211 2.18729 321.655 2.07062 322.141 2.07062ZM324.181 4.89062C324.181 4.47729 324.098 4.11729 323.931 3.81062C323.765 3.50396 323.538 3.27062 323.251 3.11062C322.971 2.94396 322.661 2.86062 322.321 2.86062C321.981 2.86062 321.671 2.94062 321.391 3.10062C321.111 3.26062 320.888 3.49396 320.721 3.80062C320.555 4.10729 320.471 4.46729 320.471 4.88062C320.471 5.30062 320.555 5.66729 320.721 5.98062C320.888 6.28729 321.111 6.52396 321.391 6.69062C321.671 6.85062 321.981 6.93062 322.321 6.93062C322.661 6.93062 322.971 6.85062 323.251 6.69062C323.538 6.52396 323.765 6.28729 323.931 5.98062C324.098 5.66729 324.181 5.30396 324.181 4.89062ZM329.359 2.06062C329.772 2.06062 330.146 2.15062 330.479 2.33062C330.812 2.50396 331.072 2.76729 331.259 3.12062C331.452 3.47396 331.549 3.90396 331.549 4.41062V7.64062H330.649V4.54062C330.649 3.99396 330.512 3.57729 330.239 3.29062C329.966 2.99729 329.592 2.85062 329.119 2.85062C328.639 2.85062 328.256 3.00062 327.969 3.30062C327.689 3.60062 327.549 4.03729 327.549 4.61062V7.64062H326.639V0.240625H327.549V2.94062C327.729 2.66062 327.976 2.44396 328.289 2.29062C328.609 2.13729 328.966 2.06062 329.359 2.06062ZM334.146 2.91062V6.14062C334.146 6.40729 334.202 6.59729 334.316 6.71062C334.429 6.81729 334.626 6.87062 334.906 6.87062H335.576V7.64062H334.756C334.249 7.64062 333.869 7.52396 333.616 7.29062C333.362 7.05729 333.236 6.67396 333.236 6.14062V2.91062H332.526V2.16062H333.236V0.780625H334.146V2.16062H335.576V2.91062H334.146ZM343.978 2.16062L342.268 7.64062H341.328L340.008 3.29062L338.688 7.64062H337.748L336.028 2.16062H336.958L338.218 6.76062L339.578 2.16062H340.508L341.838 6.77062L343.078 2.16062H343.978ZM349.881 4.69062C349.881 4.86396 349.871 5.04729 349.851 5.24062H345.471C345.505 5.78062 345.688 6.20396 346.021 6.51062C346.361 6.81062 346.771 6.96062 347.251 6.96062C347.645 6.96062 347.971 6.87062 348.231 6.69062C348.498 6.50396 348.685 6.25729 348.791 5.95062H349.771C349.625 6.47729 349.331 6.90729 348.891 7.24062C348.451 7.56729 347.905 7.73063 347.251 7.73063C346.731 7.73063 346.265 7.61396 345.851 7.38062C345.445 7.14729 345.125 6.81729 344.891 6.39062C344.658 5.95729 344.541 5.45729 344.541 4.89062C344.541 4.32396 344.655 3.82729 344.881 3.40062C345.108 2.97396 345.425 2.64729 345.831 2.42062C346.245 2.18729 346.718 2.07062 347.251 2.07062C347.771 2.07062 348.231 2.18396 348.631 2.41062C349.031 2.63729 349.338 2.95062 349.551 3.35062C349.771 3.74396 349.881 4.19062 349.881 4.69062ZM348.941 4.50062C348.941 4.15396 348.865 3.85729 348.711 3.61062C348.558 3.35729 348.348 3.16729 348.081 3.04062C347.821 2.90729 347.531 2.84062 347.211 2.84062C346.751 2.84062 346.358 2.98729 346.031 3.28062C345.711 3.57396 345.528 3.98062 345.481 4.50062H348.941ZM351.553 1.27062C351.379 1.27062 351.233 1.21062 351.113 1.09062C350.993 0.970625 350.933 0.823958 350.933 0.650624C350.933 0.477291 350.993 0.330625 351.113 0.210625C351.233 0.0906247 351.379 0.0306246 351.553 0.0306246C351.719 0.0306246 351.859 0.0906247 351.973 0.210625C352.093 0.330625 352.153 0.477291 352.153 0.650624C352.153 0.823958 352.093 0.970625 351.973 1.09062C351.859 1.21062 351.719 1.27062 351.553 1.27062ZM351.993 2.16062V7.64062H351.083V2.16062H351.993ZM355.803 2.07062C356.277 2.07062 356.69 2.17396 357.043 2.38062C357.403 2.58729 357.67 2.84729 357.843 3.16062V2.16062H358.763V7.76063C358.763 8.26063 358.657 8.70396 358.443 9.09063C358.23 9.48396 357.923 9.79063 357.523 10.0106C357.13 10.2306 356.67 10.3406 356.143 10.3406C355.423 10.3406 354.823 10.1706 354.343 9.83063C353.863 9.49063 353.58 9.02729 353.493 8.44063H354.393C354.493 8.77396 354.7 9.04063 355.013 9.24063C355.327 9.44729 355.703 9.55063 356.143 9.55063C356.643 9.55063 357.05 9.39396 357.363 9.08063C357.683 8.76729 357.843 8.32729 357.843 7.76063V6.61062C357.663 6.93062 357.397 7.19729 357.043 7.41062C356.69 7.62396 356.277 7.73063 355.803 7.73063C355.317 7.73063 354.873 7.61063 354.473 7.37062C354.08 7.13062 353.77 6.79396 353.543 6.36062C353.317 5.92729 353.203 5.43396 353.203 4.88062C353.203 4.32062 353.317 3.83062 353.543 3.41062C353.77 2.98396 354.08 2.65396 354.473 2.42062C354.873 2.18729 355.317 2.07062 355.803 2.07062ZM357.843 4.89062C357.843 4.47729 357.76 4.11729 357.593 3.81062C357.427 3.50396 357.2 3.27062 356.913 3.11062C356.633 2.94396 356.323 2.86062 355.983 2.86062C355.643 2.86062 355.333 2.94062 355.053 3.10062C354.773 3.26062 354.55 3.49396 354.383 3.80062C354.217 4.10729 354.133 4.46729 354.133 4.88062C354.133 5.30062 354.217 5.66729 354.383 5.98062C354.55 6.28729 354.773 6.52396 355.053 6.69062C355.333 6.85062 355.643 6.93062 355.983 6.93062C356.323 6.93062 356.633 6.85062 356.913 6.69062C357.2 6.52396 357.427 6.28729 357.593 5.98062C357.76 5.66729 357.843 5.30396 357.843 4.89062ZM363.021 2.06062C363.435 2.06062 363.808 2.15062 364.141 2.33062C364.475 2.50396 364.735 2.76729 364.921 3.12062C365.115 3.47396 365.211 3.90396 365.211 4.41062V7.64062H364.311V4.54062C364.311 3.99396 364.175 3.57729 363.901 3.29062C363.628 2.99729 363.255 2.85062 362.781 2.85062C362.301 2.85062 361.918 3.00062 361.631 3.30062C361.351 3.60062 361.211 4.03729 361.211 4.61062V7.64062H360.301V0.240625H361.211V2.94062C361.391 2.66062 361.638 2.44396 361.951 2.29062C362.271 2.13729 362.628 2.06062 363.021 2.06062ZM367.808 2.91062V6.14062C367.808 6.40729 367.864 6.59729 367.978 6.71062C368.091 6.81729 368.288 6.87062 368.568 6.87062H369.238V7.64062H368.418C367.911 7.64062 367.531 7.52396 367.278 7.29062C367.024 7.05729 366.898 6.67396 366.898 6.14062V2.91062H366.188V2.16062H366.898V0.780625H367.808V2.16062H369.238V2.91062H367.808ZM371.28 6.38062L370.16 9.07063H369.55L370.28 6.38062H371.28ZM56.3398 17.9106H55.1898V22.6406H54.2798V17.9106H53.5698V17.1606H54.2798V16.7706C54.2798 16.1573 54.4365 15.7106 54.7498 15.4306C55.0698 15.144 55.5798 15.0006 56.2798 15.0006V15.7606C55.8798 15.7606 55.5965 15.8406 55.4298 16.0006C55.2698 16.154 55.1898 16.4106 55.1898 16.7706V17.1606H56.3398V17.9106ZM59.7909 22.7306C59.2775 22.7306 58.8109 22.614 58.3909 22.3806C57.9775 22.1473 57.6509 21.8173 57.4109 21.3906C57.1775 20.9573 57.0609 20.4573 57.0609 19.8906C57.0609 19.3306 57.1809 18.8373 57.4209 18.4106C57.6675 17.9773 58.0009 17.6473 58.4209 17.4206C58.8409 17.1873 59.3109 17.0706 59.8309 17.0706C60.3509 17.0706 60.8209 17.1873 61.2409 17.4206C61.6609 17.6473 61.9909 17.974 62.2309 18.4006C62.4775 18.8273 62.6009 19.324 62.6009 19.8906C62.6009 20.4573 62.4742 20.9573 62.2209 21.3906C61.9742 21.8173 61.6375 22.1473 61.2109 22.3806C60.7842 22.614 60.3109 22.7306 59.7909 22.7306ZM59.7909 21.9306C60.1175 21.9306 60.4242 21.854 60.7109 21.7006C60.9975 21.5473 61.2275 21.3173 61.4009 21.0106C61.5809 20.704 61.6709 20.3306 61.6709 19.8906C61.6709 19.4506 61.5842 19.0773 61.4109 18.7706C61.2375 18.464 61.0109 18.2373 60.7309 18.0906C60.4509 17.9373 60.1475 17.8606 59.8209 17.8606C59.4875 17.8606 59.1809 17.9373 58.9009 18.0906C58.6275 18.2373 58.4075 18.464 58.2409 18.7706C58.0742 19.0773 57.9909 19.4506 57.9909 19.8906C57.9909 20.3373 58.0709 20.714 58.2309 21.0206C58.3975 21.3273 58.6175 21.5573 58.8909 21.7106C59.1642 21.8573 59.4642 21.9306 59.7909 21.9306ZM66.1873 22.7306C65.674 22.7306 65.2073 22.614 64.7873 22.3806C64.374 22.1473 64.0473 21.8173 63.8073 21.3906C63.574 20.9573 63.4573 20.4573 63.4573 19.8906C63.4573 19.3306 63.5773 18.8373 63.8173 18.4106C64.064 17.9773 64.3973 17.6473 64.8173 17.4206C65.2373 17.1873 65.7073 17.0706 66.2273 17.0706C66.7473 17.0706 67.2173 17.1873 67.6373 17.4206C68.0573 17.6473 68.3873 17.974 68.6273 18.4006C68.874 18.8273 68.9973 19.324 68.9973 19.8906C68.9973 20.4573 68.8707 20.9573 68.6173 21.3906C68.3707 21.8173 68.034 22.1473 67.6073 22.3806C67.1807 22.614 66.7073 22.7306 66.1873 22.7306ZM66.1873 21.9306C66.514 21.9306 66.8207 21.854 67.1073 21.7006C67.394 21.5473 67.624 21.3173 67.7973 21.0106C67.9773 20.704 68.0673 20.3306 68.0673 19.8906C68.0673 19.4506 67.9807 19.0773 67.8073 18.7706C67.634 18.464 67.4073 18.2373 67.1273 18.0906C66.8473 17.9373 66.544 17.8606 66.2173 17.8606C65.884 17.8606 65.5773 17.9373 65.2973 18.0906C65.024 18.2373 64.804 18.464 64.6373 18.7706C64.4707 19.0773 64.3873 19.4506 64.3873 19.8906C64.3873 20.3373 64.4673 20.714 64.6273 21.0206C64.794 21.3273 65.014 21.5573 65.2873 21.7106C65.5607 21.8573 65.8607 21.9306 66.1873 21.9306ZM69.8538 19.8806C69.8538 19.3206 69.9672 18.8306 70.1938 18.4106C70.4205 17.984 70.7305 17.654 71.1238 17.4206C71.5238 17.1873 71.9705 17.0706 72.4638 17.0706C72.8905 17.0706 73.2872 17.1706 73.6538 17.3706C74.0205 17.564 74.3005 17.8206 74.4938 18.1406V15.2406H75.4138V22.6406H74.4938V21.6106C74.3138 21.9373 74.0472 22.2073 73.6938 22.4206C73.3405 22.6273 72.9272 22.7306 72.4538 22.7306C71.9672 22.7306 71.5238 22.6106 71.1238 22.3706C70.7305 22.1306 70.4205 21.794 70.1938 21.3606C69.9672 20.9273 69.8538 20.434 69.8538 19.8806ZM74.4938 19.8906C74.4938 19.4773 74.4105 19.1173 74.2438 18.8106C74.0772 18.504 73.8505 18.2706 73.5638 18.1106C73.2838 17.944 72.9738 17.8606 72.6338 17.8606C72.2938 17.8606 71.9838 17.9406 71.7038 18.1006C71.4238 18.2606 71.2005 18.494 71.0338 18.8006C70.8672 19.1073 70.7838 19.4673 70.7838 19.8806C70.7838 20.3006 70.8672 20.6673 71.0338 20.9806C71.2005 21.2873 71.4238 21.524 71.7038 21.6906C71.9838 21.8506 72.2938 21.9306 72.6338 21.9306C72.9738 21.9306 73.2838 21.8506 73.5638 21.6906C73.8505 21.524 74.0772 21.2873 74.2438 20.9806C74.4105 20.6673 74.4938 20.304 74.4938 19.8906ZM80.7516 18.5906V19.3606H76.7616V18.5906H80.7516ZM84.7195 17.0706C85.1928 17.0706 85.6061 17.174 85.9595 17.3806C86.3195 17.5873 86.5861 17.8473 86.7595 18.1606V17.1606H87.6795V22.7606C87.6795 23.2606 87.5728 23.704 87.3595 24.0906C87.1461 24.484 86.8395 24.7906 86.4395 25.0106C86.0461 25.2306 85.5861 25.3406 85.0595 25.3406C84.3395 25.3406 83.7395 25.1706 83.2595 24.8306C82.7795 24.4906 82.4961 24.0273 82.4095 23.4406H83.3095C83.4095 23.774 83.6161 24.0406 83.9295 24.2406C84.2428 24.4473 84.6195 24.5506 85.0595 24.5506C85.5595 24.5506 85.9661 24.394 86.2795 24.0806C86.5995 23.7673 86.7595 23.3273 86.7595 22.7606V21.6106C86.5795 21.9306 86.3128 22.1973 85.9595 22.4106C85.6061 22.624 85.1928 22.7306 84.7195 22.7306C84.2328 22.7306 83.7895 22.6106 83.3895 22.3706C82.9961 22.1306 82.6861 21.794 82.4595 21.3606C82.2328 20.9273 82.1195 20.434 82.1195 19.8806C82.1195 19.3206 82.2328 18.8306 82.4595 18.4106C82.6861 17.984 82.9961 17.654 83.3895 17.4206C83.7895 17.1873 84.2328 17.0706 84.7195 17.0706ZM86.7595 19.8906C86.7595 19.4773 86.6761 19.1173 86.5095 18.8106C86.3428 18.504 86.1161 18.2706 85.8295 18.1106C85.5495 17.944 85.2395 17.8606 84.8995 17.8606C84.5595 17.8606 84.2495 17.9406 83.9695 18.1006C83.6895 18.2606 83.4661 18.494 83.2995 18.8006C83.1328 19.1073 83.0495 19.4673 83.0495 19.8806C83.0495 20.3006 83.1328 20.6673 83.2995 20.9806C83.4661 21.2873 83.6895 21.524 83.9695 21.6906C84.2495 21.8506 84.5595 21.9306 84.8995 21.9306C85.2395 21.9306 85.5495 21.8506 85.8295 21.6906C86.1161 21.524 86.3428 21.2873 86.5095 20.9806C86.6761 20.6673 86.7595 20.304 86.7595 19.8906ZM90.1273 18.0506C90.2873 17.7373 90.5139 17.494 90.8073 17.3206C91.1073 17.1473 91.4706 17.0606 91.8973 17.0606V18.0006H91.6573C90.6373 18.0006 90.1273 18.554 90.1273 19.6606V22.6406H89.2173V17.1606H90.1273V18.0506ZM92.6077 19.8806C92.6077 19.3206 92.7211 18.8306 92.9477 18.4106C93.1744 17.984 93.4844 17.654 93.8777 17.4206C94.2777 17.1873 94.7211 17.0706 95.2077 17.0706C95.6877 17.0706 96.1044 17.174 96.4577 17.3806C96.8111 17.5873 97.0744 17.8473 97.2477 18.1606V17.1606H98.1677V22.6406H97.2477V21.6206C97.0677 21.9406 96.7977 22.2073 96.4377 22.4206C96.0844 22.6273 95.6711 22.7306 95.1977 22.7306C94.7111 22.7306 94.2711 22.6106 93.8777 22.3706C93.4844 22.1306 93.1744 21.794 92.9477 21.3606C92.7211 20.9273 92.6077 20.434 92.6077 19.8806ZM97.2477 19.8906C97.2477 19.4773 97.1644 19.1173 96.9977 18.8106C96.8311 18.504 96.6044 18.2706 96.3177 18.1106C96.0377 17.944 95.7277 17.8606 95.3877 17.8606C95.0477 17.8606 94.7377 17.9406 94.4577 18.1006C94.1777 18.2606 93.9544 18.494 93.7877 18.8006C93.6211 19.1073 93.5377 19.4673 93.5377 19.8806C93.5377 20.3006 93.6211 20.6673 93.7877 20.9806C93.9544 21.2873 94.1777 21.524 94.4577 21.6906C94.7377 21.8506 95.0477 21.9306 95.3877 21.9306C95.7277 21.9306 96.0377 21.8506 96.3177 21.6906C96.6044 21.524 96.8311 21.2873 96.9977 20.9806C97.1644 20.6673 97.2477 20.304 97.2477 19.8906ZM99.3655 19.8806C99.3655 19.3206 99.4789 18.8306 99.7055 18.4106C99.9322 17.984 100.242 17.654 100.636 17.4206C101.036 17.1873 101.482 17.0706 101.976 17.0706C102.402 17.0706 102.799 17.1706 103.166 17.3706C103.532 17.564 103.812 17.8206 104.006 18.1406V15.2406H104.926V22.6406H104.006V21.6106C103.826 21.9373 103.559 22.2073 103.206 22.4206C102.852 22.6273 102.439 22.7306 101.966 22.7306C101.479 22.7306 101.036 22.6106 100.636 22.3706C100.242 22.1306 99.9322 21.794 99.7055 21.3606C99.4789 20.9273 99.3655 20.434 99.3655 19.8806ZM104.006 19.8906C104.006 19.4773 103.922 19.1173 103.756 18.8106C103.589 18.504 103.362 18.2706 103.076 18.1106C102.796 17.944 102.486 17.8606 102.146 17.8606C101.806 17.8606 101.496 17.9406 101.216 18.1006C100.936 18.2606 100.712 18.494 100.546 18.8006C100.379 19.1073 100.296 19.4673 100.296 19.8806C100.296 20.3006 100.379 20.6673 100.546 20.9806C100.712 21.2873 100.936 21.524 101.216 21.6906C101.496 21.8506 101.806 21.9306 102.146 21.9306C102.486 21.9306 102.796 21.8506 103.076 21.6906C103.362 21.524 103.589 21.2873 103.756 20.9806C103.922 20.6673 104.006 20.304 104.006 19.8906ZM111.463 19.6906C111.463 19.864 111.453 20.0473 111.433 20.2406H107.053C107.087 20.7806 107.27 21.204 107.603 21.5106C107.943 21.8106 108.353 21.9606 108.833 21.9606C109.227 21.9606 109.553 21.8706 109.813 21.6906C110.08 21.504 110.267 21.2573 110.373 20.9506H111.353C111.207 21.4773 110.913 21.9073 110.473 22.2406C110.033 22.5673 109.487 22.7306 108.833 22.7306C108.313 22.7306 107.847 22.614 107.433 22.3806C107.027 22.1473 106.707 21.8173 106.473 21.3906C106.24 20.9573 106.123 20.4573 106.123 19.8906C106.123 19.324 106.237 18.8273 106.463 18.4006C106.69 17.974 107.007 17.6473 107.413 17.4206C107.827 17.1873 108.3 17.0706 108.833 17.0706C109.353 17.0706 109.813 17.184 110.213 17.4106C110.613 17.6373 110.92 17.9506 111.133 18.3506C111.353 18.744 111.463 19.1906 111.463 19.6906ZM110.523 19.5006C110.523 19.154 110.447 18.8573 110.293 18.6106C110.14 18.3573 109.93 18.1673 109.663 18.0406C109.403 17.9073 109.113 17.8406 108.793 17.8406C108.333 17.8406 107.94 17.9873 107.613 18.2806C107.293 18.574 107.11 18.9806 107.063 19.5006H110.523ZM113.605 21.3806L112.485 24.0706H111.875L112.605 21.3806H113.605ZM116.973 19.8806C116.973 19.3206 117.086 18.8306 117.313 18.4106C117.54 17.984 117.85 17.654 118.243 17.4206C118.643 17.1873 119.086 17.0706 119.573 17.0706C120.053 17.0706 120.47 17.174 120.823 17.3806C121.176 17.5873 121.44 17.8473 121.613 18.1606V17.1606H122.533V22.6406H121.613V21.6206C121.433 21.9406 121.163 22.2073 120.803 22.4206C120.45 22.6273 120.036 22.7306 119.563 22.7306C119.076 22.7306 118.636 22.6106 118.243 22.3706C117.85 22.1306 117.54 21.794 117.313 21.3606C117.086 20.9273 116.973 20.434 116.973 19.8806ZM121.613 19.8906C121.613 19.4773 121.53 19.1173 121.363 18.8106C121.196 18.504 120.97 18.2706 120.683 18.1106C120.403 17.944 120.093 17.8606 119.753 17.8606C119.413 17.8606 119.103 17.9406 118.823 18.1006C118.543 18.2606 118.32 18.494 118.153 18.8006C117.986 19.1073 117.903 19.4673 117.903 19.8806C117.903 20.3006 117.986 20.6673 118.153 20.9806C118.32 21.2873 118.543 21.524 118.823 21.6906C119.103 21.8506 119.413 21.9306 119.753 21.9306C120.093 21.9306 120.403 21.8506 120.683 21.6906C120.97 21.524 121.196 21.2873 121.363 20.9806C121.53 20.6673 121.613 20.304 121.613 19.8906ZM126.741 17.0606C127.407 17.0606 127.947 17.264 128.361 17.6706C128.774 18.0706 128.981 18.6506 128.981 19.4106V22.6406H128.081V19.5406C128.081 18.994 127.944 18.5773 127.671 18.2906C127.397 17.9973 127.024 17.8506 126.551 17.8506C126.071 17.8506 125.687 18.0006 125.401 18.3006C125.121 18.6006 124.981 19.0373 124.981 19.6106V22.6406H124.071V17.1606H124.981V17.9406C125.161 17.6606 125.404 17.444 125.711 17.2906C126.024 17.1373 126.367 17.0606 126.741 17.0606ZM130.127 19.8806C130.127 19.3206 130.241 18.8306 130.467 18.4106C130.694 17.984 131.004 17.654 131.397 17.4206C131.797 17.1873 132.244 17.0706 132.737 17.0706C133.164 17.0706 133.561 17.1706 133.927 17.3706C134.294 17.564 134.574 17.8206 134.767 18.1406V15.2406H135.687V22.6406H134.767V21.6106C134.587 21.9373 134.321 22.2073 133.967 22.4206C133.614 22.6273 133.201 22.7306 132.727 22.7306C132.241 22.7306 131.797 22.6106 131.397 22.3706C131.004 22.1306 130.694 21.794 130.467 21.3606C130.241 20.9273 130.127 20.434 130.127 19.8806ZM134.767 19.8906C134.767 19.4773 134.684 19.1173 134.517 18.8106C134.351 18.504 134.124 18.2706 133.837 18.1106C133.557 17.944 133.247 17.8606 132.907 17.8606C132.567 17.8606 132.257 17.9406 131.977 18.1006C131.697 18.2606 131.474 18.494 131.307 18.8006C131.141 19.1073 131.057 19.4673 131.057 19.8806C131.057 20.3006 131.141 20.6673 131.307 20.9806C131.474 21.2873 131.697 21.524 131.977 21.6906C132.257 21.8506 132.567 21.9306 132.907 21.9306C133.247 21.9306 133.557 21.8506 133.837 21.6906C134.124 21.524 134.351 21.2873 134.517 20.9806C134.684 20.6673 134.767 20.304 134.767 19.8906ZM140.361 16.2706C140.188 16.2706 140.041 16.2106 139.921 16.0906C139.801 15.9706 139.741 15.824 139.741 15.6506C139.741 15.4773 139.801 15.3306 139.921 15.2106C140.041 15.0906 140.188 15.0306 140.361 15.0306C140.528 15.0306 140.668 15.0906 140.781 15.2106C140.901 15.3306 140.961 15.4773 140.961 15.6506C140.961 15.824 140.901 15.9706 140.781 16.0906C140.668 16.2106 140.528 16.2706 140.361 16.2706ZM140.801 17.1606V22.6406H139.891V17.1606H140.801ZM142.012 19.8806C142.012 19.3206 142.125 18.8306 142.352 18.4106C142.579 17.984 142.889 17.654 143.282 17.4206C143.682 17.1873 144.129 17.0706 144.622 17.0706C145.049 17.0706 145.445 17.1706 145.812 17.3706C146.179 17.564 146.459 17.8206 146.652 18.1406V15.2406H147.572V22.6406H146.652V21.6106C146.472 21.9373 146.205 22.2073 145.852 22.4206C145.499 22.6273 145.085 22.7306 144.612 22.7306C144.125 22.7306 143.682 22.6106 143.282 22.3706C142.889 22.1306 142.579 21.794 142.352 21.3606C142.125 20.9273 142.012 20.434 142.012 19.8806ZM146.652 19.8906C146.652 19.4773 146.569 19.1173 146.402 18.8106C146.235 18.504 146.009 18.2706 145.722 18.1106C145.442 17.944 145.132 17.8606 144.792 17.8606C144.452 17.8606 144.142 17.9406 143.862 18.1006C143.582 18.2606 143.359 18.494 143.192 18.8006C143.025 19.1073 142.942 19.4673 142.942 19.8806C142.942 20.3006 143.025 20.6673 143.192 20.9806C143.359 21.2873 143.582 21.524 143.862 21.6906C144.142 21.8506 144.452 21.9306 144.792 21.9306C145.132 21.9306 145.442 21.8506 145.722 21.6906C146.009 21.524 146.235 21.2873 146.402 20.9806C146.569 20.6673 146.652 20.304 146.652 19.8906ZM154.11 19.6906C154.11 19.864 154.1 20.0473 154.08 20.2406H149.7C149.733 20.7806 149.917 21.204 150.25 21.5106C150.59 21.8106 151 21.9606 151.48 21.9606C151.873 21.9606 152.2 21.8706 152.46 21.6906C152.727 21.504 152.913 21.2573 153.02 20.9506H154C153.853 21.4773 153.56 21.9073 153.12 22.2406C152.68 22.5673 152.133 22.7306 151.48 22.7306C150.96 22.7306 150.493 22.614 150.08 22.3806C149.673 22.1473 149.353 21.8173 149.12 21.3906C148.887 20.9573 148.77 20.4573 148.77 19.8906C148.77 19.324 148.883 18.8273 149.11 18.4006C149.337 17.974 149.653 17.6473 150.06 17.4206C150.473 17.1873 150.947 17.0706 151.48 17.0706C152 17.0706 152.46 17.184 152.86 17.4106C153.26 17.6373 153.567 17.9506 153.78 18.3506C154 18.744 154.11 19.1906 154.11 19.6906ZM153.17 19.5006C153.17 19.154 153.093 18.8573 152.94 18.6106C152.787 18.3573 152.577 18.1673 152.31 18.0406C152.05 17.9073 151.76 17.8406 151.44 17.8406C150.98 17.8406 150.587 17.9873 150.26 18.2806C149.94 18.574 149.757 18.9806 149.71 19.5006H153.17ZM154.971 19.8806C154.971 19.3206 155.084 18.8306 155.311 18.4106C155.538 17.984 155.848 17.654 156.241 17.4206C156.641 17.1873 157.084 17.0706 157.571 17.0706C158.051 17.0706 158.468 17.174 158.821 17.3806C159.174 17.5873 159.438 17.8473 159.611 18.1606V17.1606H160.531V22.6406H159.611V21.6206C159.431 21.9406 159.161 22.2073 158.801 22.4206C158.448 22.6273 158.034 22.7306 157.561 22.7306C157.074 22.7306 156.634 22.6106 156.241 22.3706C155.848 22.1306 155.538 21.794 155.311 21.3606C155.084 20.9273 154.971 20.434 154.971 19.8806ZM159.611 19.8906C159.611 19.4773 159.528 19.1173 159.361 18.8106C159.194 18.504 158.968 18.2706 158.681 18.1106C158.401 17.944 158.091 17.8606 157.751 17.8606C157.411 17.8606 157.101 17.9406 156.821 18.1006C156.541 18.2606 156.318 18.494 156.151 18.8006C155.984 19.1073 155.901 19.4673 155.901 19.8806C155.901 20.3006 155.984 20.6673 156.151 20.9806C156.318 21.2873 156.541 21.524 156.821 21.6906C157.101 21.8506 157.411 21.9306 157.751 21.9306C158.091 21.9306 158.401 21.8506 158.681 21.6906C158.968 21.524 159.194 21.2873 159.361 20.9806C159.528 20.6673 159.611 20.304 159.611 19.8906ZM162.979 15.2406V22.6406H162.069V15.2406H162.979ZM169.426 17.9106H168.276V22.6406H167.366V17.9106H166.656V17.1606H167.366V16.7706C167.366 16.1573 167.522 15.7106 167.836 15.4306C168.156 15.144 168.666 15.0006 169.366 15.0006V15.7606C168.966 15.7606 168.682 15.8406 168.516 16.0006C168.356 16.154 168.276 16.4106 168.276 16.7706V17.1606H169.426V17.9106ZM172.877 22.7306C172.363 22.7306 171.897 22.614 171.477 22.3806C171.063 22.1473 170.737 21.8173 170.497 21.3906C170.263 20.9573 170.147 20.4573 170.147 19.8906C170.147 19.3306 170.267 18.8373 170.507 18.4106C170.753 17.9773 171.087 17.6473 171.507 17.4206C171.927 17.1873 172.397 17.0706 172.917 17.0706C173.437 17.0706 173.907 17.1873 174.327 17.4206C174.747 17.6473 175.077 17.974 175.317 18.4006C175.563 18.8273 175.687 19.324 175.687 19.8906C175.687 20.4573 175.56 20.9573 175.307 21.3906C175.06 21.8173 174.723 22.1473 174.297 22.3806C173.87 22.614 173.397 22.7306 172.877 22.7306ZM172.877 21.9306C173.203 21.9306 173.51 21.854 173.797 21.7006C174.083 21.5473 174.313 21.3173 174.487 21.0106C174.667 20.704 174.757 20.3306 174.757 19.8906C174.757 19.4506 174.67 19.0773 174.497 18.7706C174.323 18.464 174.097 18.2373 173.817 18.0906C173.537 17.9373 173.233 17.8606 172.907 17.8606C172.573 17.8606 172.267 17.9373 171.987 18.0906C171.713 18.2373 171.493 18.464 171.327 18.7706C171.16 19.0773 171.077 19.4506 171.077 19.8906C171.077 20.3373 171.157 20.714 171.317 21.0206C171.483 21.3273 171.703 21.5573 171.977 21.7106C172.25 21.8573 172.55 21.9306 172.877 21.9306ZM177.793 18.0506C177.953 17.7373 178.18 17.494 178.473 17.3206C178.773 17.1473 179.137 17.0606 179.563 17.0606V18.0006H179.323C178.303 18.0006 177.793 18.554 177.793 19.6606V22.6406H176.883V17.1606H177.793V18.0506ZM184.19 18.0506C184.35 17.7373 184.576 17.494 184.87 17.3206C185.17 17.1473 185.533 17.0606 185.96 17.0606V18.0006H185.72C184.7 18.0006 184.19 18.554 184.19 19.6606V22.6406H183.28V17.1606H184.19V18.0506ZM192.01 19.6906C192.01 19.864 192 20.0473 191.98 20.2406H187.6C187.634 20.7806 187.817 21.204 188.15 21.5106C188.49 21.8106 188.9 21.9606 189.38 21.9606C189.774 21.9606 190.1 21.8706 190.36 21.6906C190.627 21.504 190.814 21.2573 190.92 20.9506H191.9C191.754 21.4773 191.46 21.9073 191.02 22.2406C190.58 22.5673 190.034 22.7306 189.38 22.7306C188.86 22.7306 188.394 22.614 187.98 22.3806C187.574 22.1473 187.254 21.8173 187.02 21.3906C186.787 20.9573 186.67 20.4573 186.67 19.8906C186.67 19.324 186.784 18.8273 187.01 18.4006C187.237 17.974 187.554 17.6473 187.96 17.4206C188.374 17.1873 188.847 17.0706 189.38 17.0706C189.9 17.0706 190.36 17.184 190.76 17.4106C191.16 17.6373 191.467 17.9506 191.68 18.3506C191.9 18.744 192.01 19.1906 192.01 19.6906ZM191.07 19.5006C191.07 19.154 190.994 18.8573 190.84 18.6106C190.687 18.3573 190.477 18.1673 190.21 18.0406C189.95 17.9073 189.66 17.8406 189.34 17.8406C188.88 17.8406 188.487 17.9873 188.16 18.2806C187.84 18.574 187.657 18.9806 187.61 19.5006H191.07ZM194.321 17.9106V21.1406C194.321 21.4073 194.378 21.5973 194.491 21.7106C194.605 21.8173 194.801 21.8706 195.081 21.8706H195.751V22.6406H194.931C194.425 22.6406 194.045 22.524 193.791 22.2906C193.538 22.0573 193.411 21.674 193.411 21.1406V17.9106H192.701V17.1606H193.411V15.7806H194.321V17.1606H195.751V17.9106H194.321ZM196.514 19.8806C196.514 19.3206 196.627 18.8306 196.854 18.4106C197.081 17.984 197.391 17.654 197.784 17.4206C198.184 17.1873 198.627 17.0706 199.114 17.0706C199.594 17.0706 200.011 17.174 200.364 17.3806C200.717 17.5873 200.981 17.8473 201.154 18.1606V17.1606H202.074V22.6406H201.154V21.6206C200.974 21.9406 200.704 22.2073 200.344 22.4206C199.991 22.6273 199.577 22.7306 199.104 22.7306C198.617 22.7306 198.177 22.6106 197.784 22.3706C197.391 22.1306 197.081 21.794 196.854 21.3606C196.627 20.9273 196.514 20.434 196.514 19.8806ZM201.154 19.8906C201.154 19.4773 201.071 19.1173 200.904 18.8106C200.737 18.504 200.511 18.2706 200.224 18.1106C199.944 17.944 199.634 17.8606 199.294 17.8606C198.954 17.8606 198.644 17.9406 198.364 18.1006C198.084 18.2606 197.861 18.494 197.694 18.8006C197.527 19.1073 197.444 19.4673 197.444 19.8806C197.444 20.3006 197.527 20.6673 197.694 20.9806C197.861 21.2873 198.084 21.524 198.364 21.6906C198.644 21.8506 198.954 21.9306 199.294 21.9306C199.634 21.9306 199.944 21.8506 200.224 21.6906C200.511 21.524 200.737 21.2873 200.904 20.9806C201.071 20.6673 201.154 20.304 201.154 19.8906ZM204.082 16.2706C203.908 16.2706 203.762 16.2106 203.642 16.0906C203.522 15.9706 203.462 15.824 203.462 15.6506C203.462 15.4773 203.522 15.3306 203.642 15.2106C203.762 15.0906 203.908 15.0306 204.082 15.0306C204.248 15.0306 204.388 15.0906 204.502 15.2106C204.622 15.3306 204.682 15.4773 204.682 15.6506C204.682 15.824 204.622 15.9706 204.502 16.0906C204.388 16.2106 204.248 16.2706 204.082 16.2706ZM204.522 17.1606V22.6406H203.612V17.1606H204.522ZM206.983 15.2406V22.6406H206.073V15.2406H206.983ZM213.59 22.7306C213.076 22.7306 212.61 22.614 212.19 22.3806C211.776 22.1473 211.45 21.8173 211.21 21.3906C210.976 20.9573 210.86 20.4573 210.86 19.8906C210.86 19.3306 210.98 18.8373 211.22 18.4106C211.466 17.9773 211.8 17.6473 212.22 17.4206C212.64 17.1873 213.11 17.0706 213.63 17.0706C214.15 17.0706 214.62 17.1873 215.04 17.4206C215.46 17.6473 215.79 17.974 216.03 18.4006C216.276 18.8273 216.4 19.324 216.4 19.8906C216.4 20.4573 216.273 20.9573 216.02 21.3906C215.773 21.8173 215.436 22.1473 215.01 22.3806C214.583 22.614 214.11 22.7306 213.59 22.7306ZM213.59 21.9306C213.916 21.9306 214.223 21.854 214.51 21.7006C214.796 21.5473 215.026 21.3173 215.2 21.0106C215.38 20.704 215.47 20.3306 215.47 19.8906C215.47 19.4506 215.383 19.0773 215.21 18.7706C215.036 18.464 214.81 18.2373 214.53 18.0906C214.25 17.9373 213.946 17.8606 213.62 17.8606C213.286 17.8606 212.98 17.9373 212.7 18.0906C212.426 18.2373 212.206 18.464 212.04 18.7706C211.873 19.0773 211.79 19.4506 211.79 19.8906C211.79 20.3373 211.87 20.714 212.03 21.0206C212.196 21.3273 212.416 21.5573 212.69 21.7106C212.963 21.8573 213.263 21.9306 213.59 21.9306ZM218.506 18.0506C218.666 17.7373 218.893 17.494 219.186 17.3206C219.486 17.1473 219.85 17.0606 220.276 17.0606V18.0006H220.036C219.016 18.0006 218.506 18.554 218.506 19.6606V22.6406H217.596V17.1606H218.506V18.0506ZM225.103 17.9106V21.1406C225.103 21.4073 225.159 21.5973 225.273 21.7106C225.386 21.8173 225.583 21.8706 225.863 21.8706H226.533V22.6406H225.713C225.206 22.6406 224.826 22.524 224.573 22.2906C224.319 22.0573 224.193 21.674 224.193 21.1406V17.9106H223.483V17.1606H224.193V15.7806H225.103V17.1606H226.533V17.9106H225.103ZM227.295 19.8806C227.295 19.3206 227.409 18.8306 227.635 18.4106C227.862 17.984 228.172 17.654 228.565 17.4206C228.965 17.1873 229.409 17.0706 229.895 17.0706C230.375 17.0706 230.792 17.174 231.145 17.3806C231.499 17.5873 231.762 17.8473 231.935 18.1606V17.1606H232.855V22.6406H231.935V21.6206C231.755 21.9406 231.485 22.2073 231.125 22.4206C230.772 22.6273 230.359 22.7306 229.885 22.7306C229.399 22.7306 228.959 22.6106 228.565 22.3706C228.172 22.1306 227.862 21.794 227.635 21.3606C227.409 20.9273 227.295 20.434 227.295 19.8806ZM231.935 19.8906C231.935 19.4773 231.852 19.1173 231.685 18.8106C231.519 18.504 231.292 18.2706 231.005 18.1106C230.725 17.944 230.415 17.8606 230.075 17.8606C229.735 17.8606 229.425 17.9406 229.145 18.1006C228.865 18.2606 228.642 18.494 228.475 18.8006C228.309 19.1073 228.225 19.4673 228.225 19.8806C228.225 20.3006 228.309 20.6673 228.475 20.9806C228.642 21.2873 228.865 21.524 229.145 21.6906C229.425 21.8506 229.735 21.9306 230.075 21.9306C230.415 21.9306 230.725 21.8506 231.005 21.6906C231.292 21.524 231.519 21.2873 231.685 20.9806C231.852 20.6673 231.935 20.304 231.935 19.8906ZM237.453 22.6406L235.303 20.2206V22.6406H234.393V15.2406H235.303V19.5906L237.413 17.1606H238.683L236.103 19.8906L238.693 22.6406H237.453ZM244.54 19.6906C244.54 19.864 244.53 20.0473 244.51 20.2406H240.13C240.163 20.7806 240.346 21.204 240.68 21.5106C241.02 21.8106 241.43 21.9606 241.91 21.9606C242.303 21.9606 242.63 21.8706 242.89 21.6906C243.156 21.504 243.343 21.2573 243.45 20.9506H244.43C244.283 21.4773 243.99 21.9073 243.55 22.2406C243.11 22.5673 242.563 22.7306 241.91 22.7306C241.39 22.7306 240.923 22.614 240.51 22.3806C240.103 22.1473 239.783 21.8173 239.55 21.3906C239.316 20.9573 239.2 20.4573 239.2 19.8906C239.2 19.324 239.313 18.8273 239.54 18.4006C239.766 17.974 240.083 17.6473 240.49 17.4206C240.903 17.1873 241.376 17.0706 241.91 17.0706C242.43 17.0706 242.89 17.184 243.29 17.4106C243.69 17.6373 243.996 17.9506 244.21 18.3506C244.43 18.744 244.54 19.1906 244.54 19.6906ZM243.6 19.5006C243.6 19.154 243.523 18.8573 243.37 18.6106C243.216 18.3573 243.006 18.1673 242.74 18.0406C242.48 17.9073 242.19 17.8406 241.87 17.8406C241.41 17.8406 241.016 17.9873 240.69 18.2806C240.37 18.574 240.186 18.9806 240.14 19.5006H243.6ZM245.401 19.8806C245.401 19.3206 245.514 18.8306 245.741 18.4106C245.967 17.984 246.277 17.654 246.671 17.4206C247.071 17.1873 247.514 17.0706 248.001 17.0706C248.481 17.0706 248.897 17.174 249.251 17.3806C249.604 17.5873 249.867 17.8473 250.041 18.1606V17.1606H250.961V22.6406H250.041V21.6206C249.861 21.9406 249.591 22.2073 249.231 22.4206C248.877 22.6273 248.464 22.7306 247.991 22.7306C247.504 22.7306 247.064 22.6106 246.671 22.3706C246.277 22.1306 245.967 21.794 245.741 21.3606C245.514 20.9273 245.401 20.434 245.401 19.8806ZM250.041 19.8906C250.041 19.4773 249.957 19.1173 249.791 18.8106C249.624 18.504 249.397 18.2706 249.111 18.1106C248.831 17.944 248.521 17.8606 248.181 17.8606C247.841 17.8606 247.531 17.9406 247.251 18.1006C246.971 18.2606 246.747 18.494 246.581 18.8006C246.414 19.1073 246.331 19.4673 246.331 19.8806C246.331 20.3006 246.414 20.6673 246.581 20.9806C246.747 21.2873 246.971 21.524 247.251 21.6906C247.531 21.8506 247.841 21.9306 248.181 21.9306C248.521 21.9306 248.831 21.8506 249.111 21.6906C249.397 21.524 249.624 21.2873 249.791 20.9806C249.957 20.6673 250.041 20.304 250.041 19.8906ZM259.799 17.1606L258.089 22.6406H257.149L255.829 18.2906L254.509 22.6406H253.569L251.849 17.1606H252.779L254.039 21.7606L255.399 17.1606H256.329L257.659 21.7706L258.899 17.1606H259.799ZM260.362 19.8806C260.362 19.3206 260.475 18.8306 260.702 18.4106C260.928 17.984 261.238 17.654 261.632 17.4206C262.032 17.1873 262.475 17.0706 262.962 17.0706C263.442 17.0706 263.858 17.174 264.212 17.3806C264.565 17.5873 264.828 17.8473 265.002 18.1606V17.1606H265.922V22.6406H265.002V21.6206C264.822 21.9406 264.552 22.2073 264.192 22.4206C263.838 22.6273 263.425 22.7306 262.952 22.7306C262.465 22.7306 262.025 22.6106 261.632 22.3706C261.238 22.1306 260.928 21.794 260.702 21.3606C260.475 20.9273 260.362 20.434 260.362 19.8806ZM265.002 19.8906C265.002 19.4773 264.918 19.1173 264.752 18.8106C264.585 18.504 264.358 18.2706 264.072 18.1106C263.792 17.944 263.482 17.8606 263.142 17.8606C262.802 17.8606 262.492 17.9406 262.212 18.1006C261.932 18.2606 261.708 18.494 261.542 18.8006C261.375 19.1073 261.292 19.4673 261.292 19.8806C261.292 20.3006 261.375 20.6673 261.542 20.9806C261.708 21.2873 261.932 21.524 262.212 21.6906C262.492 21.8506 262.802 21.9306 263.142 21.9306C263.482 21.9306 263.792 21.8506 264.072 21.6906C264.358 21.524 264.585 21.2873 264.752 20.9806C264.918 20.6673 265.002 20.304 265.002 19.8906ZM272.179 17.1606L268.879 25.2206H267.939L269.019 22.5806L266.809 17.1606H267.819L269.539 21.6006L271.239 17.1606H272.179ZM276.67 18.1706C276.85 17.8573 277.117 17.5973 277.47 17.3906C277.83 17.1773 278.247 17.0706 278.72 17.0706C279.207 17.0706 279.647 17.1873 280.04 17.4206C280.44 17.654 280.754 17.984 280.98 18.4106C281.207 18.8306 281.32 19.3206 281.32 19.8806C281.32 20.434 281.207 20.9273 280.98 21.3606C280.754 21.794 280.44 22.1306 280.04 22.3706C279.647 22.6106 279.207 22.7306 278.72 22.7306C278.254 22.7306 277.84 22.6273 277.48 22.4206C277.127 22.2073 276.857 21.944 276.67 21.6306V25.2406H275.76V17.1606H276.67V18.1706ZM280.39 19.8806C280.39 19.4673 280.307 19.1073 280.14 18.8006C279.974 18.494 279.747 18.2606 279.46 18.1006C279.18 17.9406 278.87 17.8606 278.53 17.8606C278.197 17.8606 277.887 17.944 277.6 18.1106C277.32 18.2706 277.094 18.5073 276.92 18.8206C276.754 19.1273 276.67 19.484 276.67 19.8906C276.67 20.304 276.754 20.6673 276.92 20.9806C277.094 21.2873 277.32 21.524 277.6 21.6906C277.887 21.8506 278.197 21.9306 278.53 21.9306C278.87 21.9306 279.18 21.8506 279.46 21.6906C279.747 21.524 279.974 21.2873 280.14 20.9806C280.307 20.6673 280.39 20.3006 280.39 19.8806ZM282.178 19.8806C282.178 19.3206 282.291 18.8306 282.518 18.4106C282.745 17.984 283.055 17.654 283.448 17.4206C283.848 17.1873 284.291 17.0706 284.778 17.0706C285.258 17.0706 285.675 17.174 286.028 17.3806C286.381 17.5873 286.645 17.8473 286.818 18.1606V17.1606H287.738V22.6406H286.818V21.6206C286.638 21.9406 286.368 22.2073 286.008 22.4206C285.655 22.6273 285.241 22.7306 284.768 22.7306C284.281 22.7306 283.841 22.6106 283.448 22.3706C283.055 22.1306 282.745 21.794 282.518 21.3606C282.291 20.9273 282.178 20.434 282.178 19.8806ZM286.818 19.8906C286.818 19.4773 286.735 19.1173 286.568 18.8106C286.401 18.504 286.175 18.2706 285.888 18.1106C285.608 17.944 285.298 17.8606 284.958 17.8606C284.618 17.8606 284.308 17.9406 284.028 18.1006C283.748 18.2606 283.525 18.494 283.358 18.8006C283.191 19.1073 283.108 19.4673 283.108 19.8806C283.108 20.3006 283.191 20.6673 283.358 20.9806C283.525 21.2873 283.748 21.524 284.028 21.6906C284.308 21.8506 284.618 21.9306 284.958 21.9306C285.298 21.9306 285.608 21.8506 285.888 21.6906C286.175 21.524 286.401 21.2873 286.568 20.9806C286.735 20.6673 286.818 20.304 286.818 19.8906ZM288.936 19.8906C288.936 19.324 289.049 18.8306 289.276 18.4106C289.503 17.984 289.816 17.654 290.216 17.4206C290.623 17.1873 291.086 17.0706 291.606 17.0706C292.279 17.0706 292.833 17.234 293.266 17.5606C293.706 17.8873 293.996 18.3406 294.136 18.9206H293.156C293.063 18.5873 292.879 18.324 292.606 18.1306C292.339 17.9373 292.006 17.8406 291.606 17.8406C291.086 17.8406 290.666 18.0206 290.346 18.3806C290.026 18.734 289.866 19.2373 289.866 19.8906C289.866 20.5506 290.026 21.0606 290.346 21.4206C290.666 21.7806 291.086 21.9606 291.606 21.9606C292.006 21.9606 292.339 21.8673 292.606 21.6806C292.873 21.494 293.056 21.2273 293.156 20.8806H294.136C293.989 21.4406 293.696 21.8906 293.256 22.2306C292.816 22.564 292.266 22.7306 291.606 22.7306C291.086 22.7306 290.623 22.614 290.216 22.3806C289.816 22.1473 289.503 21.8173 289.276 21.3906C289.049 20.964 288.936 20.464 288.936 19.8906ZM298.41 22.6406L296.26 20.2206V22.6406H295.35V15.2406H296.26V19.5906L298.37 17.1606H299.64L297.06 19.8906L299.65 22.6406H298.41ZM300.967 16.2706C300.793 16.2706 300.647 16.2106 300.527 16.0906C300.407 15.9706 300.347 15.824 300.347 15.6506C300.347 15.4773 300.407 15.3306 300.527 15.2106C300.647 15.0906 300.793 15.0306 300.967 15.0306C301.133 15.0306 301.273 15.0906 301.387 15.2106C301.507 15.3306 301.567 15.4773 301.567 15.6506C301.567 15.824 301.507 15.9706 301.387 16.0906C301.273 16.2106 301.133 16.2706 300.967 16.2706ZM301.407 17.1606V22.6406H300.497V17.1606H301.407ZM305.628 17.0606C306.294 17.0606 306.834 17.264 307.248 17.6706C307.661 18.0706 307.868 18.6506 307.868 19.4106V22.6406H306.968V19.5406C306.968 18.994 306.831 18.5773 306.558 18.2906C306.284 17.9973 305.911 17.8506 305.438 17.8506C304.958 17.8506 304.574 18.0006 304.288 18.3006C304.008 18.6006 303.868 19.0373 303.868 19.6106V22.6406H302.958V17.1606H303.868V17.9406C304.048 17.6606 304.291 17.444 304.598 17.2906C304.911 17.1373 305.254 17.0606 305.628 17.0606ZM311.614 17.0706C312.087 17.0706 312.501 17.174 312.854 17.3806C313.214 17.5873 313.481 17.8473 313.654 18.1606V17.1606H314.574V22.7606C314.574 23.2606 314.467 23.704 314.254 24.0906C314.041 24.484 313.734 24.7906 313.334 25.0106C312.941 25.2306 312.481 25.3406 311.954 25.3406C311.234 25.3406 310.634 25.1706 310.154 24.8306C309.674 24.4906 309.391 24.0273 309.304 23.4406H310.204C310.304 23.774 310.511 24.0406 310.824 24.2406C311.137 24.4473 311.514 24.5506 311.954 24.5506C312.454 24.5506 312.861 24.394 313.174 24.0806C313.494 23.7673 313.654 23.3273 313.654 22.7606V21.6106C313.474 21.9306 313.207 22.1973 312.854 22.4106C312.501 22.624 312.087 22.7306 311.614 22.7306C311.127 22.7306 310.684 22.6106 310.284 22.3706C309.891 22.1306 309.581 21.794 309.354 21.3606C309.127 20.9273 309.014 20.434 309.014 19.8806C309.014 19.3206 309.127 18.8306 309.354 18.4106C309.581 17.984 309.891 17.654 310.284 17.4206C310.684 17.1873 311.127 17.0706 311.614 17.0706ZM313.654 19.8906C313.654 19.4773 313.571 19.1173 313.404 18.8106C313.237 18.504 313.011 18.2706 312.724 18.1106C312.444 17.944 312.134 17.8606 311.794 17.8606C311.454 17.8606 311.144 17.9406 310.864 18.1006C310.584 18.2606 310.361 18.494 310.194 18.8006C310.027 19.1073 309.944 19.4673 309.944 19.8806C309.944 20.3006 310.027 20.6673 310.194 20.9806C310.361 21.2873 310.584 21.524 310.864 21.6906C311.144 21.8506 311.454 21.9306 311.794 21.9306C312.134 21.9306 312.444 21.8506 312.724 21.6906C313.011 21.524 313.237 21.2873 313.404 20.9806C313.571 20.6673 313.654 20.304 313.654 19.8906ZM316.402 22.7006C316.228 22.7006 316.082 22.6406 315.962 22.5206C315.842 22.4006 315.782 22.254 315.782 22.0806C315.782 21.9073 315.842 21.7606 315.962 21.6406C316.082 21.5206 316.228 21.4606 316.402 21.4606C316.568 21.4606 316.708 21.5206 316.822 21.6406C316.942 21.7606 317.002 21.9073 317.002 22.0806C317.002 22.254 316.942 22.4006 316.822 22.5206C316.708 22.6406 316.568 22.7006 316.402 22.7006Z" fill="#716A6A"/>
</svg>
