<svg width="143" height="37" viewBox="0 0 143 37" fill="none" xmlns="http://www.w3.org/2000/svg">
<rect width="36.5" height="36.5" rx="18.25" fill="white"/>
<path d="M16.4154 20.9974V18.2474M20.082 20.9974V18.2474M23.7487 20.9974V18.2474M9.08203 14.5807V10.9141M27.4154 12.7474H9.08203M27.4154 14.5807V10.9141M12.7487 20.9974V18.2474" stroke="#031022" stroke-opacity="0.66" stroke-width="2.06182" stroke-linecap="round" stroke-linejoin="round"/>
<path d="M25.582 18.248H10.9154C9.90284 18.248 9.08203 19.0689 9.08203 20.0814V23.748C9.08203 24.7606 9.90284 25.5814 10.9154 25.5814H25.582C26.5946 25.5814 27.4154 24.7606 27.4154 23.748V20.0814C27.4154 19.0689 26.5946 18.248 25.582 18.248Z" stroke="#031022" stroke-opacity="0.66" stroke-width="2.06182" stroke-linecap="round" stroke-linejoin="round"/>
<path d="M49.725 11.4827C49.725 12.0127 49.6367 12.4993 49.46 12.9427C49.2833 13.386 49.035 13.7677 48.715 14.0877C48.395 14.4077 48.01 14.656 47.56 14.8327C47.11 15.0093 46.61 15.0977 46.06 15.0977H43.305V7.86766H46.06C46.61 7.86766 47.11 7.95766 47.56 8.13766C48.01 8.31432 48.395 8.56266 48.715 8.88266C49.035 9.19932 49.2833 9.57932 49.46 10.0227C49.6367 10.466 49.725 10.9527 49.725 11.4827ZM48.345 11.4827C48.345 11.086 48.2917 10.731 48.185 10.4177C48.0817 10.101 47.93 9.83432 47.73 9.61766C47.5333 9.39766 47.2933 9.22932 47.01 9.11266C46.73 8.99599 46.4133 8.93766 46.06 8.93766H44.655V14.0277H46.06C46.4133 14.0277 46.73 13.9693 47.01 13.8527C47.2933 13.736 47.5333 13.5693 47.73 13.3527C47.93 13.1327 48.0817 12.866 48.185 12.5527C48.2917 12.236 48.345 11.8793 48.345 11.4827ZM51.9095 9.96766V15.0977H50.6695V9.96766H51.9095ZM52.0795 8.47266C52.0795 8.57932 52.0579 8.67932 52.0145 8.77266C51.9712 8.86599 51.9129 8.94766 51.8395 9.01766C51.7695 9.08766 51.6862 9.14432 51.5895 9.18766C51.4929 9.22766 51.3895 9.24766 51.2795 9.24766C51.1729 9.24766 51.0712 9.22766 50.9745 9.18766C50.8812 9.14432 50.7995 9.08766 50.7295 9.01766C50.6595 8.94766 50.6029 8.86599 50.5595 8.77266C50.5195 8.67932 50.4995 8.57932 50.4995 8.47266C50.4995 8.36266 50.5195 8.25932 50.5595 8.16266C50.6029 8.06599 50.6595 7.98266 50.7295 7.91266C50.7995 7.84266 50.8812 7.78766 50.9745 7.74766C51.0712 7.70432 51.1729 7.68266 51.2795 7.68266C51.3895 7.68266 51.4929 7.70432 51.5895 7.74766C51.6862 7.78766 51.7695 7.84266 51.8395 7.91266C51.9129 7.98266 51.9712 8.06599 52.0145 8.16266C52.0579 8.25932 52.0795 8.36266 52.0795 8.47266ZM53.1686 15.0977V9.96766H53.9236C54.0836 9.96766 54.1886 10.0427 54.2386 10.1927L54.3186 10.5727C54.4086 10.4727 54.5019 10.381 54.5986 10.2977C54.6986 10.2143 54.8036 10.1427 54.9136 10.0827C55.0269 10.0227 55.1469 9.97599 55.2736 9.94266C55.4036 9.90599 55.5453 9.88766 55.6986 9.88766C56.0219 9.88766 56.2869 9.97599 56.4936 10.1527C56.7036 10.326 56.8603 10.5577 56.9636 10.8477C57.0436 10.6777 57.1436 10.5327 57.2636 10.4127C57.3836 10.2893 57.5153 10.1893 57.6586 10.1127C57.8019 10.036 57.9536 9.97932 58.1136 9.94266C58.2769 9.90599 58.4403 9.88766 58.6036 9.88766C58.8869 9.88766 59.1386 9.93099 59.3586 10.0177C59.5786 10.1043 59.7636 10.231 59.9136 10.3977C60.0636 10.5643 60.1769 10.7677 60.2536 11.0077C60.3336 11.2477 60.3736 11.5227 60.3736 11.8327V15.0977H59.1386V11.8327C59.1386 11.506 59.0669 11.261 58.9236 11.0977C58.7803 10.931 58.5703 10.8477 58.2936 10.8477C58.1669 10.8477 58.0486 10.8693 57.9386 10.9127C57.8319 10.956 57.7369 11.0193 57.6536 11.1027C57.5736 11.1827 57.5103 11.2843 57.4636 11.4077C57.4169 11.531 57.3936 11.6727 57.3936 11.8327V15.0977H56.1536V11.8327C56.1536 11.4893 56.0836 11.2393 55.9436 11.0827C55.8069 10.926 55.6053 10.8477 55.3386 10.8477C55.1586 10.8477 54.9903 10.8927 54.8336 10.9827C54.6803 11.0693 54.5369 11.1893 54.4036 11.3427V15.0977H53.1686ZM64.8525 11.9427C64.8525 11.7827 64.8292 11.6327 64.7825 11.4927C64.7392 11.3493 64.6725 11.2243 64.5825 11.1177C64.4925 11.011 64.3775 10.9277 64.2375 10.8677C64.1008 10.8043 63.9408 10.7727 63.7575 10.7727C63.4008 10.7727 63.1192 10.8743 62.9125 11.0777C62.7092 11.281 62.5792 11.5693 62.5225 11.9427H64.8525ZM62.4975 12.6877C62.5175 12.951 62.5642 13.1793 62.6375 13.3727C62.7108 13.5627 62.8075 13.721 62.9275 13.8477C63.0475 13.971 63.1892 14.0643 63.3525 14.1277C63.5192 14.1877 63.7025 14.2177 63.9025 14.2177C64.1025 14.2177 64.2742 14.1943 64.4175 14.1477C64.5642 14.101 64.6908 14.0493 64.7975 13.9927C64.9075 13.936 65.0025 13.8843 65.0825 13.8377C65.1658 13.791 65.2458 13.7677 65.3225 13.7677C65.4258 13.7677 65.5025 13.806 65.5525 13.8827L65.9075 14.3327C65.7708 14.4927 65.6175 14.6277 65.4475 14.7377C65.2775 14.8443 65.0992 14.931 64.9125 14.9977C64.7292 15.061 64.5408 15.106 64.3475 15.1327C64.1575 15.1593 63.9725 15.1727 63.7925 15.1727C63.4358 15.1727 63.1042 15.1143 62.7975 14.9977C62.4908 14.8777 62.2242 14.7027 61.9975 14.4727C61.7708 14.2393 61.5925 13.9527 61.4625 13.6127C61.3325 13.2693 61.2675 12.8727 61.2675 12.4227C61.2675 12.0727 61.3242 11.7443 61.4375 11.4377C61.5508 11.1277 61.7125 10.8593 61.9225 10.6327C62.1358 10.4027 62.3942 10.221 62.6975 10.0877C63.0042 9.95432 63.3492 9.88766 63.7325 9.88766C64.0558 9.88766 64.3542 9.93932 64.6275 10.0427C64.9008 10.146 65.1358 10.2977 65.3325 10.4977C65.5292 10.6943 65.6825 10.9377 65.7925 11.2277C65.9058 11.5143 65.9625 11.8427 65.9625 12.2127C65.9625 12.3993 65.9425 12.526 65.9025 12.5927C65.8625 12.656 65.7858 12.6877 65.6725 12.6877H62.4975ZM68.0443 10.5977C68.1476 10.4943 68.256 10.3993 68.3693 10.3127C68.486 10.2227 68.6076 10.1477 68.7343 10.0877C68.8643 10.0243 69.0026 9.97599 69.1493 9.94266C69.296 9.90599 69.456 9.88766 69.6293 9.88766C69.9093 9.88766 70.1576 9.93599 70.3743 10.0327C70.591 10.126 70.771 10.2593 70.9143 10.4327C71.061 10.6027 71.171 10.8077 71.2443 11.0477C71.321 11.2843 71.3593 11.546 71.3593 11.8327V15.0977H70.1243V11.8327C70.1243 11.5193 70.0526 11.2777 69.9093 11.1077C69.766 10.9343 69.5476 10.8477 69.2543 10.8477C69.041 10.8477 68.841 10.896 68.6543 10.9927C68.4676 11.0893 68.291 11.221 68.1243 11.3877V15.0977H66.8893V9.96766H67.6443C67.8043 9.96766 67.9093 10.0427 67.9593 10.1927L68.0443 10.5977ZM75.6638 10.9677C75.6305 11.021 75.5955 11.0593 75.5588 11.0827C75.5222 11.1027 75.4755 11.1127 75.4188 11.1127C75.3588 11.1127 75.2938 11.096 75.2238 11.0627C75.1572 11.0293 75.0788 10.9927 74.9888 10.9527C74.8988 10.9093 74.7955 10.871 74.6788 10.8377C74.5655 10.8043 74.4305 10.7877 74.2738 10.7877C74.0305 10.7877 73.8388 10.8393 73.6988 10.9427C73.5622 11.046 73.4938 11.181 73.4938 11.3477C73.4938 11.4577 73.5288 11.551 73.5988 11.6277C73.6722 11.701 73.7672 11.766 73.8838 11.8227C74.0038 11.8793 74.1388 11.931 74.2888 11.9777C74.4388 12.021 74.5905 12.0693 74.7438 12.1227C74.9005 12.176 75.0538 12.2377 75.2038 12.3077C75.3538 12.3743 75.4872 12.461 75.6038 12.5677C75.7238 12.671 75.8188 12.796 75.8888 12.9427C75.9622 13.0893 75.9988 13.266 75.9988 13.4727C75.9988 13.7193 75.9538 13.9477 75.8638 14.1577C75.7772 14.3643 75.6472 14.5443 75.4738 14.6977C75.3005 14.8477 75.0855 14.966 74.8288 15.0527C74.5755 15.136 74.2822 15.1777 73.9488 15.1777C73.7722 15.1777 73.5988 15.161 73.4288 15.1277C73.2622 15.0977 73.1005 15.0543 72.9438 14.9977C72.7905 14.941 72.6472 14.8743 72.5138 14.7977C72.3838 14.721 72.2688 14.6377 72.1688 14.5477L72.4538 14.0777C72.4905 14.021 72.5338 13.9777 72.5838 13.9477C72.6338 13.9177 72.6972 13.9027 72.7738 13.9027C72.8505 13.9027 72.9222 13.9243 72.9888 13.9677C73.0588 14.011 73.1388 14.0577 73.2288 14.1077C73.3188 14.1577 73.4238 14.2043 73.5438 14.2477C73.6672 14.291 73.8222 14.3127 74.0088 14.3127C74.1555 14.3127 74.2805 14.296 74.3838 14.2627C74.4905 14.226 74.5772 14.1793 74.6438 14.1227C74.7138 14.066 74.7638 14.001 74.7938 13.9277C74.8272 13.851 74.8438 13.7727 74.8438 13.6927C74.8438 13.5727 74.8072 13.4743 74.7338 13.3977C74.6638 13.321 74.5688 13.2543 74.4488 13.1977C74.3322 13.141 74.1972 13.091 74.0438 13.0477C73.8938 13.001 73.7388 12.951 73.5788 12.8977C73.4222 12.8443 73.2672 12.7827 73.1138 12.7127C72.9638 12.6393 72.8288 12.5477 72.7088 12.4377C72.5922 12.3277 72.4972 12.1927 72.4238 12.0327C72.3538 11.8727 72.3188 11.6793 72.3188 11.4527C72.3188 11.2427 72.3605 11.0427 72.4438 10.8527C72.5272 10.6627 72.6488 10.4977 72.8088 10.3577C72.9722 10.2143 73.1738 10.101 73.4138 10.0177C73.6572 9.93099 73.9372 9.88766 74.2538 9.88766C74.6072 9.88766 74.9288 9.94599 75.2188 10.0627C75.5088 10.1793 75.7505 10.3327 75.9438 10.5227L75.6638 10.9677ZM78.2084 9.96766V15.0977H76.9684V9.96766H78.2084ZM78.3784 8.47266C78.3784 8.57932 78.3567 8.67932 78.3134 8.77266C78.27 8.86599 78.2117 8.94766 78.1384 9.01766C78.0684 9.08766 77.985 9.14432 77.8884 9.18766C77.7917 9.22766 77.6884 9.24766 77.5784 9.24766C77.4717 9.24766 77.37 9.22766 77.2734 9.18766C77.18 9.14432 77.0984 9.08766 77.0284 9.01766C76.9584 8.94766 76.9017 8.86599 76.8584 8.77266C76.8184 8.67932 76.7984 8.57932 76.7984 8.47266C76.7984 8.36266 76.8184 8.25932 76.8584 8.16266C76.9017 8.06599 76.9584 7.98266 77.0284 7.91266C77.0984 7.84266 77.18 7.78766 77.2734 7.74766C77.37 7.70432 77.4717 7.68266 77.5784 7.68266C77.6884 7.68266 77.7917 7.70432 77.8884 7.74766C77.985 7.78766 78.0684 7.84266 78.1384 7.91266C78.2117 7.98266 78.27 8.06599 78.3134 8.16266C78.3567 8.25932 78.3784 8.36266 78.3784 8.47266ZM81.7374 9.88766C82.1174 9.88766 82.4624 9.94932 82.7724 10.0727C83.0858 10.196 83.3524 10.371 83.5724 10.5977C83.7958 10.8243 83.9674 11.101 84.0874 11.4277C84.2074 11.7543 84.2674 12.1193 84.2674 12.5227C84.2674 12.9293 84.2074 13.296 84.0874 13.6227C83.9674 13.9493 83.7958 14.2277 83.5724 14.4577C83.3524 14.6877 83.0858 14.8643 82.7724 14.9877C82.4624 15.111 82.1174 15.1727 81.7374 15.1727C81.3541 15.1727 81.0058 15.111 80.6924 14.9877C80.3791 14.8643 80.1108 14.6877 79.8874 14.4577C79.6674 14.2277 79.4958 13.9493 79.3724 13.6227C79.2524 13.296 79.1924 12.9293 79.1924 12.5227C79.1924 12.1193 79.2524 11.7543 79.3724 11.4277C79.4958 11.101 79.6674 10.8243 79.8874 10.5977C80.1108 10.371 80.3791 10.196 80.6924 10.0727C81.0058 9.94932 81.3541 9.88766 81.7374 9.88766ZM81.7374 14.2227C82.1641 14.2227 82.4791 14.0793 82.6824 13.7927C82.8891 13.506 82.9924 13.086 82.9924 12.5327C82.9924 11.9793 82.8891 11.5577 82.6824 11.2677C82.4791 10.9777 82.1641 10.8327 81.7374 10.8327C81.3041 10.8327 80.9824 10.9793 80.7724 11.2727C80.5658 11.5627 80.4624 11.9827 80.4624 12.5327C80.4624 13.0827 80.5658 13.5027 80.7724 13.7927C80.9824 14.0793 81.3041 14.2227 81.7374 14.2227ZM86.3646 10.5977C86.4679 10.4943 86.5763 10.3993 86.6896 10.3127C86.8063 10.2227 86.9279 10.1477 87.0546 10.0877C87.1846 10.0243 87.3229 9.97599 87.4696 9.94266C87.6163 9.90599 87.7763 9.88766 87.9496 9.88766C88.2296 9.88766 88.4779 9.93599 88.6946 10.0327C88.9113 10.126 89.0913 10.2593 89.2346 10.4327C89.3813 10.6027 89.4913 10.8077 89.5646 11.0477C89.6413 11.2843 89.6796 11.546 89.6796 11.8327V15.0977H88.4446V11.8327C88.4446 11.5193 88.3729 11.2777 88.2296 11.1077C88.0863 10.9343 87.8679 10.8477 87.5746 10.8477C87.3613 10.8477 87.1613 10.896 86.9746 10.9927C86.7879 11.0893 86.6113 11.221 86.4446 11.3877V15.0977H85.2096V9.96766H85.9646C86.1246 9.96766 86.2296 10.0427 86.2796 10.1927L86.3646 10.5977Z" fill="#5D5A5A"/>
<path d="M42.804 23.2823V22.6183H44.308V28.4023H43.572V23.2823H42.804ZM45.5425 24.0743C45.5798 23.5837 45.7692 23.1997 46.1105 22.9223C46.4518 22.645 46.8945 22.5063 47.4385 22.5063C47.8012 22.5063 48.1132 22.573 48.3745 22.7063C48.6412 22.8343 48.8412 23.0103 48.9745 23.2343C49.1132 23.4583 49.1825 23.7117 49.1825 23.9943C49.1825 24.325 49.0865 24.6103 48.8945 24.8503C48.7078 25.0903 48.4625 25.245 48.1585 25.3143V25.3543C48.5052 25.4397 48.7798 25.6077 48.9825 25.8583C49.1852 26.109 49.2865 26.437 49.2865 26.8423C49.2865 27.1463 49.2172 27.421 49.0785 27.6663C48.9398 27.9063 48.7318 28.0957 48.4545 28.2343C48.1772 28.373 47.8438 28.4423 47.4545 28.4423C46.8892 28.4423 46.4252 28.2957 46.0625 28.0023C45.6998 27.7037 45.4972 27.2823 45.4545 26.7383H46.1585C46.1958 27.0583 46.3265 27.3197 46.5505 27.5223C46.7745 27.725 47.0732 27.8263 47.4465 27.8263C47.8198 27.8263 48.1025 27.7303 48.2945 27.5383C48.4918 27.341 48.5905 27.0877 48.5905 26.7783C48.5905 26.3783 48.4572 26.0903 48.1905 25.9143C47.9238 25.7383 47.5212 25.6503 46.9825 25.6503H46.7985V25.0423H46.9905C47.4812 25.037 47.8518 24.957 48.1025 24.8023C48.3532 24.6423 48.4785 24.397 48.4785 24.0663C48.4785 23.7837 48.3852 23.557 48.1985 23.3863C48.0172 23.2157 47.7558 23.1303 47.4145 23.1303C47.0838 23.1303 46.8172 23.2157 46.6145 23.3863C46.4118 23.557 46.2918 23.7863 46.2545 24.0743H45.5425ZM50.0774 23.2823V22.6183H51.5814V28.4023H50.8454V23.2823H50.0774ZM55.6719 20.8663L53.4799 29.7623H52.7599L54.9439 20.8663H55.6719ZM59.8254 25.3943C59.5268 25.277 59.2974 25.1063 59.1374 24.8823C58.9774 24.6583 58.8974 24.3863 58.8974 24.0663C58.8974 23.7783 58.9694 23.5197 59.1134 23.2903C59.2574 23.0557 59.4708 22.8717 59.7534 22.7383C60.0414 22.5997 60.3881 22.5303 60.7934 22.5303C61.1988 22.5303 61.5428 22.5997 61.8254 22.7383C62.1134 22.8717 62.3294 23.0557 62.4734 23.2903C62.6228 23.5197 62.6974 23.7783 62.6974 24.0663C62.6974 24.3757 62.6148 24.6477 62.4494 24.8823C62.2841 25.1117 62.0574 25.2823 61.7694 25.3943C62.1001 25.4957 62.3614 25.6743 62.5534 25.9303C62.7508 26.181 62.8494 26.485 62.8494 26.8423C62.8494 27.189 62.7641 27.493 62.5934 27.7543C62.4228 28.0103 62.1801 28.2103 61.8654 28.3543C61.5561 28.493 61.1988 28.5623 60.7934 28.5623C60.3881 28.5623 60.0308 28.493 59.7214 28.3543C59.4174 28.2103 59.1801 28.0103 59.0094 27.7543C58.8388 27.493 58.7534 27.189 58.7534 26.8423C58.7534 26.485 58.8494 26.1783 59.0414 25.9223C59.2334 25.6663 59.4948 25.4903 59.8254 25.3943ZM61.9934 24.1543C61.9934 23.829 61.8868 23.5783 61.6734 23.4023C61.4601 23.2263 61.1668 23.1383 60.7934 23.1383C60.4254 23.1383 60.1348 23.2263 59.9214 23.4023C59.7081 23.5783 59.6014 23.8317 59.6014 24.1623C59.6014 24.461 59.7108 24.701 59.9294 24.8823C60.1534 25.0637 60.4414 25.1543 60.7934 25.1543C61.1508 25.1543 61.4388 25.0637 61.6574 24.8823C61.8814 24.6957 61.9934 24.453 61.9934 24.1543ZM60.7934 25.7143C60.3988 25.7143 60.0761 25.8077 59.8254 25.9943C59.5748 26.1757 59.4494 26.4503 59.4494 26.8183C59.4494 27.1597 59.5694 27.4343 59.8094 27.6423C60.0548 27.8503 60.3828 27.9543 60.7934 27.9543C61.2041 27.9543 61.5294 27.8503 61.7694 27.6423C62.0094 27.4343 62.1294 27.1597 62.1294 26.8183C62.1294 26.461 62.0068 26.189 61.7614 26.0023C61.5161 25.8103 61.1934 25.7143 60.7934 25.7143ZM63.6403 27.1143V26.5623L66.4483 22.6743H67.3203V26.4823H68.1203V27.1143H67.3203V28.4023H66.6003V27.1143H63.6403ZM66.6323 23.4343L64.4803 26.4823H66.6323V23.4343ZM74.3324 27.2023L73.0604 25.9303L71.7884 27.2023L71.3084 26.7223L72.5804 25.4503L71.3324 24.2023L71.7964 23.7303L73.0524 24.9863L74.3084 23.7303L74.7884 24.2103L73.5324 25.4663L74.7964 26.7383L74.3324 27.2023ZM79.1898 26.8503C79.2431 27.1543 79.3658 27.389 79.5578 27.5543C79.7551 27.7197 80.0191 27.8023 80.3498 27.8023C80.7925 27.8023 81.1178 27.629 81.3258 27.2823C81.5391 26.9357 81.6405 26.3517 81.6298 25.5303C81.5178 25.7703 81.3311 25.9597 81.0698 26.0983C80.8085 26.2317 80.5178 26.2983 80.1978 26.2983C79.8405 26.2983 79.5205 26.2263 79.2378 26.0823C78.9605 25.933 78.7418 25.717 78.5818 25.4343C78.4218 25.1517 78.3418 24.8103 78.3418 24.4103C78.3418 23.8397 78.5071 23.381 78.8378 23.0343C79.1685 22.6823 79.6378 22.5063 80.2458 22.5063C80.9925 22.5063 81.5151 22.749 81.8138 23.2343C82.1178 23.7197 82.2698 24.4423 82.2698 25.4023C82.2698 26.0743 82.2085 26.629 82.0858 27.0663C81.9685 27.5037 81.7658 27.837 81.4778 28.0663C81.1951 28.2957 80.8058 28.4103 80.3098 28.4103C79.7658 28.4103 79.3418 28.2637 79.0378 27.9703C78.7338 27.677 78.5605 27.3037 78.5178 26.8503H79.1898ZM80.3178 25.6823C80.6751 25.6823 80.9685 25.573 81.1978 25.3543C81.4271 25.1303 81.5418 24.829 81.5418 24.4503C81.5418 24.0503 81.4298 23.7277 81.2058 23.4823C80.9818 23.237 80.6671 23.1143 80.2618 23.1143C79.8885 23.1143 79.5898 23.2317 79.3658 23.4663C79.1471 23.701 79.0378 24.0103 79.0378 24.3943C79.0378 24.7837 79.1471 25.0957 79.3658 25.3303C79.5845 25.565 79.9018 25.6823 80.3178 25.6823ZM83.1169 27.1143V26.5623L85.9249 22.6743H86.7969V26.4823H87.5969V27.1143H86.7969V28.4023H86.0769V27.1143H83.1169ZM86.1089 23.4343L83.9569 26.4823H86.1089V23.4343ZM91.1641 20.8663L88.9721 29.7623H88.2521L90.4361 20.8663H91.1641ZM91.9528 27.1143V26.5623L94.7608 22.6743H95.6328V26.4823H96.4328V27.1143H95.6328V28.4023H94.9128V27.1143H91.9528ZM94.9448 23.4343L92.7928 26.4823H94.9448V23.4343ZM100.384 23.9943C100.267 23.4023 99.9014 23.1063 99.2881 23.1063C98.8134 23.1063 98.4587 23.2903 98.2241 23.6583C97.9894 24.021 97.8747 24.621 97.8801 25.4583C98.0027 25.181 98.2054 24.965 98.4881 24.8103C98.7761 24.6503 99.0961 24.5703 99.4481 24.5703C99.9974 24.5703 100.435 24.741 100.76 25.0823C101.091 25.4237 101.256 25.8957 101.256 26.4983C101.256 26.861 101.184 27.1863 101.04 27.4743C100.901 27.7623 100.688 27.9917 100.4 28.1623C100.117 28.333 99.7734 28.4183 99.3681 28.4183C98.8187 28.4183 98.3894 28.2957 98.0801 28.0503C97.7707 27.805 97.5547 27.4663 97.4321 27.0343C97.3094 26.6023 97.2481 26.069 97.2481 25.4343C97.2481 23.477 97.9307 22.4983 99.2961 22.4983C99.8187 22.4983 100.229 22.6397 100.528 22.9223C100.827 23.205 101.003 23.5623 101.056 23.9943H100.384ZM99.2961 25.1863C99.0667 25.1863 98.8507 25.2343 98.6481 25.3303C98.4454 25.421 98.2801 25.5623 98.1521 25.7543C98.0294 25.941 97.9681 26.1703 97.9681 26.4423C97.9681 26.8477 98.0854 27.1783 98.3201 27.4343C98.5547 27.685 98.8907 27.8103 99.3281 27.8103C99.7014 27.8103 99.9974 27.6957 100.216 27.4663C100.44 27.2317 100.552 26.917 100.552 26.5223C100.552 26.1063 100.445 25.781 100.232 25.5463C100.019 25.3063 99.7067 25.1863 99.2961 25.1863ZM107.723 27.2023L106.451 25.9303L105.179 27.2023L104.699 26.7223L105.971 25.4503L104.723 24.2023L105.187 23.7303L106.443 24.9863L107.699 23.7303L108.179 24.2103L106.923 25.4663L108.187 26.7383L107.723 27.2023ZM111.468 27.1143V26.5623L114.276 22.6743H115.148V26.4823H115.948V27.1143H115.148V28.4023H114.428V27.1143H111.468ZM114.46 23.4343L112.308 26.4823H114.46V23.4343ZM116.5 27.1143V26.5623L119.308 22.6743H120.18V26.4823H120.98V27.1143H120.18V28.4023H119.46V27.1143H116.5ZM119.492 23.4343L117.34 26.4823H119.492V23.4343ZM131.365 23.9383C131.706 23.9383 132.01 24.0103 132.277 24.1543C132.543 24.293 132.754 24.5037 132.909 24.7863C133.063 25.069 133.141 25.413 133.141 25.8183V28.4023H132.421V25.9223C132.421 25.485 132.311 25.1517 132.093 24.9223C131.879 24.6877 131.589 24.5703 131.221 24.5703C130.842 24.5703 130.541 24.693 130.317 24.9383C130.093 25.1783 129.981 25.5277 129.981 25.9863V28.4023H129.261V25.9223C129.261 25.485 129.151 25.1517 128.933 24.9223C128.719 24.6877 128.429 24.5703 128.061 24.5703C127.682 24.5703 127.381 24.693 127.157 24.9383C126.933 25.1783 126.821 25.5277 126.821 25.9863V28.4023H126.093V24.0183H126.821V24.6503C126.965 24.421 127.157 24.245 127.397 24.1223C127.642 23.9997 127.911 23.9383 128.205 23.9383C128.573 23.9383 128.898 24.021 129.181 24.1863C129.463 24.3517 129.674 24.5943 129.813 24.9143C129.935 24.605 130.138 24.365 130.421 24.1943C130.703 24.0237 131.018 23.9383 131.365 23.9383ZM139.607 23.9383C139.948 23.9383 140.252 24.0103 140.519 24.1543C140.785 24.293 140.996 24.5037 141.151 24.7863C141.305 25.069 141.383 25.413 141.383 25.8183V28.4023H140.663V25.9223C140.663 25.485 140.553 25.1517 140.335 24.9223C140.121 24.6877 139.831 24.5703 139.463 24.5703C139.084 24.5703 138.783 24.693 138.559 24.9383C138.335 25.1783 138.223 25.5277 138.223 25.9863V28.4023H137.503V25.9223C137.503 25.485 137.393 25.1517 137.175 24.9223C136.961 24.6877 136.671 24.5703 136.303 24.5703C135.924 24.5703 135.623 24.693 135.399 24.9383C135.175 25.1783 135.063 25.5277 135.063 25.9863V28.4023H134.335V24.0183H135.063V24.6503C135.207 24.421 135.399 24.245 135.639 24.1223C135.884 23.9997 136.153 23.9383 136.447 23.9383C136.815 23.9383 137.14 24.021 137.423 24.1863C137.705 24.3517 137.916 24.5943 138.055 24.9143C138.177 24.605 138.38 24.365 138.663 24.1943C138.945 24.0237 139.26 23.9383 139.607 23.9383Z" fill="#5D5A5A"/>
</svg>
