<svg width="271" height="117" viewBox="0 0 271 117" fill="none" xmlns="http://www.w3.org/2000/svg">
<g filter="url(#filter0_d_1467_429)">
<path d="M49.9888 65V57.448L62.4048 38.376C63.3435 36.968 64.2181 35.6027 65.0288 34.28C65.8821 32.9573 66.5648 31.6133 67.0768 30.248C67.6315 28.8827 67.9088 27.4533 67.9088 25.96C67.9088 24.4667 67.6101 23.3573 67.0128 22.632C66.4155 21.9067 65.6048 21.544 64.5808 21.544C63.4288 21.544 62.5328 21.864 61.8928 22.504C61.2528 23.144 60.8048 23.9973 60.5488 25.064C60.3355 26.1307 60.2288 27.3253 60.2288 28.648V31.208H49.8608V28.456C49.8608 25.384 50.3515 22.6533 51.3328 20.264C52.3141 17.832 53.8715 15.9333 56.0048 14.568C58.1381 13.16 60.9328 12.456 64.3888 12.456C69.0395 12.456 72.5381 13.672 74.8848 16.104C77.2741 18.4933 78.4688 21.8427 78.4688 26.152C78.4688 28.2427 78.1275 30.184 77.4448 31.976C76.8048 33.768 75.9301 35.5173 74.8208 37.224C73.7541 38.888 72.6021 40.6373 71.3648 42.472L61.8928 56.616H77.0608V65H49.9888ZM97.8398 65.96C94.0425 65.96 91.1625 65.2987 89.1998 63.976C87.2798 62.6107 85.9785 60.712 85.2958 58.28C84.6131 55.848 84.2718 53.032 84.2718 49.832H94.5758C94.5758 51.7947 94.6825 53.3947 94.8958 54.632C95.1091 55.8693 95.4931 56.7653 96.0478 57.32C96.6451 57.832 97.4771 58.0667 98.5438 58.024C99.6531 57.9813 100.442 57.5333 100.912 56.68C101.381 55.8267 101.658 54.6107 101.744 53.032C101.872 51.4107 101.936 49.4693 101.936 47.208C101.936 45.5013 101.829 43.9867 101.616 42.664C101.445 41.3413 101.061 40.296 100.464 39.528C99.9091 38.7173 99.0558 38.312 97.9038 38.312C96.8371 38.312 95.9625 38.696 95.2798 39.464C94.5971 40.232 94.1065 41.4267 93.8078 43.048H84.5918L85.5518 13.16H109.744V22.12H94.1278L93.5518 32.808C93.9785 32.2107 94.7891 31.6987 95.9838 31.272C97.1785 30.8027 98.4585 30.504 99.8238 30.376C102.469 30.0773 104.688 30.568 106.48 31.848C108.314 33.0853 109.68 34.984 110.576 37.544C111.514 40.104 111.984 43.24 111.984 46.952C111.984 49.7253 111.813 52.2853 111.472 54.632C111.13 56.936 110.469 58.9413 109.488 60.648C108.506 62.312 107.077 63.6133 105.2 64.552C103.322 65.4907 100.869 65.96 97.8398 65.96ZM132.962 65.96C129.848 65.96 127.245 65.3413 125.154 64.104C123.064 62.824 121.485 61.0747 120.418 58.856C119.352 56.6373 118.818 54.056 118.818 51.112V27.624C118.818 24.5947 119.309 21.9493 120.29 19.688C121.314 17.384 122.872 15.592 124.962 14.312C127.053 13.032 129.72 12.392 132.962 12.392C136.205 12.392 138.85 13.032 140.898 14.312C142.989 15.592 144.525 17.384 145.506 19.688C146.53 21.9493 147.042 24.5947 147.042 27.624V51.112C147.042 54.0133 146.509 56.5947 145.442 58.856C144.376 61.0747 142.797 62.824 140.706 64.104C138.616 65.3413 136.034 65.96 132.962 65.96ZM132.962 56.424C133.986 56.424 134.712 56.104 135.138 55.464C135.608 54.7813 135.885 54.0133 135.97 53.16C136.098 52.264 136.162 51.496 136.162 50.856V27.88C136.162 27.1547 136.12 26.344 136.034 25.448C135.949 24.5093 135.672 23.6987 135.202 23.016C134.776 22.2907 134.029 21.928 132.962 21.928C131.896 21.928 131.128 22.2907 130.658 23.016C130.232 23.6987 129.976 24.5093 129.89 25.448C129.805 26.344 129.762 27.1547 129.762 27.88V50.856C129.762 51.496 129.826 52.264 129.954 53.16C130.082 54.0133 130.36 54.7813 130.786 55.464C131.256 56.104 131.981 56.424 132.962 56.424ZM155.478 65L156.374 13.16H168.662L174.358 43.304L180.502 13.16H192.342L193.238 65H185.11L184.15 30.504L178.134 65H170.902L164.502 30.248L163.734 65H155.478ZM202.012 65V13.16H213.468V57.256H225.372V65H202.012Z" fill="#A64210"/>
<path d="M13.4681 110.432C11.2841 110.432 9.55605 110.048 8.28405 109.28C7.01205 108.512 6.10005 107.408 5.54805 105.968C4.99605 104.528 4.72005 102.812 4.72005 100.82V89.984C4.72005 87.968 4.99605 86.252 5.54805 84.836C6.10005 83.42 7.01205 82.34 8.28405 81.596C9.55605 80.828 11.2841 80.444 13.4681 80.444C15.6761 80.444 17.4161 80.828 18.6881 81.596C19.9841 82.34 20.9081 83.42 21.4601 84.836C22.0121 86.252 22.2881 87.968 22.2881 89.984V100.82C22.2881 102.812 22.0121 104.528 21.4601 105.968C20.9081 107.408 19.9841 108.512 18.6881 109.28C17.4161 110.048 15.6761 110.432 13.4681 110.432ZM13.4681 105.86C14.1401 105.86 14.6321 105.692 14.9441 105.356C15.2561 105.02 15.4601 104.588 15.5561 104.06C15.6521 103.532 15.7001 102.992 15.7001 102.44V88.4C15.7001 87.824 15.6521 87.284 15.5561 86.78C15.4601 86.252 15.2561 85.82 14.9441 85.484C14.6321 85.148 14.1401 84.98 13.4681 84.98C12.8441 84.98 12.3761 85.148 12.0641 85.484C11.7521 85.82 11.5481 86.252 11.4521 86.78C11.3561 87.284 11.3081 87.824 11.3081 88.4V102.44C11.3081 102.992 11.3441 103.532 11.4161 104.06C11.5121 104.588 11.7041 105.02 11.9921 105.356C12.3041 105.692 12.7961 105.86 13.4681 105.86ZM30.5366 110L25.2806 80.84H30.7886L33.9206 100.64L36.8366 80.84H42.6686L37.3406 110H30.5366ZM43.6833 110L49.1913 80.84H56.5353L61.9713 110H56.0313L55.0593 103.844H50.7753L49.7673 110H43.6833ZM51.3513 99.992H54.4473L52.8993 88.616L51.3513 99.992ZM65.6354 110V80.84H72.0794V105.644H78.7754V110H65.6354ZM100.599 110.432C98.3913 110.432 96.6393 110.036 95.3433 109.244C94.0713 108.428 93.1713 107.3 92.6433 105.86C92.1153 104.396 91.8513 102.68 91.8513 100.712V90.2C91.8513 88.184 92.1153 86.456 92.6433 85.016C93.1713 83.552 94.0713 82.424 95.3433 81.632C96.6393 80.84 98.3913 80.444 100.599 80.444C102.759 80.444 104.439 80.804 105.639 81.524C106.863 82.22 107.727 83.204 108.231 84.476C108.735 85.748 108.987 87.212 108.987 88.868V91.388H102.687V88.472C102.687 87.896 102.651 87.344 102.579 86.816C102.531 86.288 102.363 85.856 102.075 85.52C101.787 85.16 101.295 84.98 100.599 84.98C99.9273 84.98 99.4233 85.16 99.0873 85.52C98.7753 85.88 98.5713 86.336 98.4753 86.888C98.4033 87.416 98.3673 87.98 98.3673 88.58V102.296C98.3673 102.944 98.4153 103.544 98.5113 104.096C98.6313 104.624 98.8473 105.056 99.1593 105.392C99.4953 105.704 99.9753 105.86 100.599 105.86C101.271 105.86 101.751 105.692 102.039 105.356C102.327 104.996 102.507 104.54 102.579 103.988C102.651 103.436 102.687 102.872 102.687 102.296V99.236H108.987V101.756C108.987 103.412 108.735 104.9 108.231 106.22C107.751 107.516 106.899 108.548 105.675 109.316C104.475 110.06 102.783 110.432 100.599 110.432ZM121.604 110.432C119.42 110.432 117.692 110.048 116.42 109.28C115.148 108.512 114.236 107.408 113.684 105.968C113.132 104.528 112.856 102.812 112.856 100.82V89.984C112.856 87.968 113.132 86.252 113.684 84.836C114.236 83.42 115.148 82.34 116.42 81.596C117.692 80.828 119.42 80.444 121.604 80.444C123.812 80.444 125.552 80.828 126.824 81.596C128.12 82.34 129.044 83.42 129.596 84.836C130.148 86.252 130.424 87.968 130.424 89.984V100.82C130.424 102.812 130.148 104.528 129.596 105.968C129.044 107.408 128.12 108.512 126.824 109.28C125.552 110.048 123.812 110.432 121.604 110.432ZM121.604 105.86C122.276 105.86 122.768 105.692 123.08 105.356C123.392 105.02 123.596 104.588 123.692 104.06C123.788 103.532 123.836 102.992 123.836 102.44V88.4C123.836 87.824 123.788 87.284 123.692 86.78C123.596 86.252 123.392 85.82 123.08 85.484C122.768 85.148 122.276 84.98 121.604 84.98C120.98 84.98 120.512 85.148 120.2 85.484C119.888 85.82 119.684 86.252 119.588 86.78C119.492 87.284 119.444 87.824 119.444 88.4V102.44C119.444 102.992 119.48 103.532 119.552 104.06C119.648 104.588 119.84 105.02 120.128 105.356C120.44 105.692 120.932 105.86 121.604 105.86ZM135.066 110V80.84H139.602L145.578 94.88V80.84H150.906V110H146.55L140.574 94.88V110H135.066ZM158.594 110V85.628H154.202V80.84H169.43V85.628H165.074V110H158.594ZM169.696 110L175.204 80.84H182.548L187.984 110H182.044L181.072 103.844H176.788L175.78 110H169.696ZM177.364 99.992H180.46L178.912 88.616L177.364 99.992ZM191.684 110V80.84H198.128V110H191.684ZM203.196 110V80.84H207.732L213.708 94.88V80.84H219.036V110H214.68L208.704 94.88V110H203.196ZM224.096 110V80.84H237.2V85.232H230.54V92.468H235.616V96.932H230.54V105.644H237.272V110H224.096ZM240.917 110V80.84H248.945C250.913 80.84 252.617 81.056 254.057 81.488C255.497 81.92 256.613 82.7 257.405 83.828C258.221 84.932 258.629 86.504 258.629 88.544C258.629 89.744 258.533 90.812 258.341 91.748C258.149 92.684 257.789 93.5 257.261 94.196C256.757 94.868 256.025 95.432 255.065 95.888L259.061 110H252.401L249.197 96.932H247.361V110H240.917ZM247.361 93.224H249.161C250.073 93.224 250.781 93.068 251.285 92.756C251.789 92.42 252.137 91.952 252.329 91.352C252.545 90.728 252.653 89.984 252.653 89.12C252.653 87.872 252.425 86.9 251.969 86.204C251.513 85.508 250.673 85.16 249.449 85.16H247.361V93.224Z" fill="#A64210"/>
</g>
<defs>
<filter id="filter0_d_1467_429" x="-1.76395" y="-3.72" width="277.44" height="123.44" filterUnits="userSpaceOnUse" color-interpolation-filters="sRGB">
<feFlood flood-opacity="0" result="BackgroundImageFix"/>
<feColorMatrix in="SourceAlpha" type="matrix" values="0 0 0 0 0 0 0 0 0 0 0 0 0 0 0 0 0 0 127 0" result="hardAlpha"/>
<feOffset dy="1"/>
<feGaussianBlur stdDeviation="2.36"/>
<feComposite in2="hardAlpha" operator="out"/>
<feColorMatrix type="matrix" values="0 0 0 0 0 0 0 0 0 0 0 0 0 0 0 0 0 0 0.11 0"/>
<feBlend mode="normal" in2="BackgroundImageFix" result="effect1_dropShadow_1467_429"/>
<feBlend mode="normal" in="SourceGraphic" in2="effect1_dropShadow_1467_429" result="shape"/>
</filter>
</defs>
</svg>
