<svg width="253" height="123" viewBox="0 0 253 123" fill="none" xmlns="http://www.w3.org/2000/svg">
<g filter="url(#filter0_d_967_4503)">
<path d="M71.0143 65.96C67.2169 65.96 64.3369 65.2987 62.3743 63.976C60.4543 62.6107 59.1529 60.712 58.4703 58.28C57.7876 55.848 57.4463 53.032 57.4463 49.832H67.7503C67.7503 51.7947 67.8569 53.3947 68.0703 54.632C68.2836 55.8693 68.6676 56.7653 69.2223 57.32C69.8196 57.832 70.6516 58.0667 71.7183 58.024C72.8276 57.9813 73.6169 57.5333 74.0863 56.68C74.5556 55.8267 74.8329 54.6107 74.9183 53.032C75.0463 51.4107 75.1103 49.4693 75.1103 47.208C75.1103 45.5013 75.0036 43.9867 74.7903 42.664C74.6196 41.3413 74.2356 40.296 73.6383 39.528C73.0836 38.7173 72.2303 38.312 71.0783 38.312C70.0116 38.312 69.1369 38.696 68.4543 39.464C67.7716 40.232 67.2809 41.4267 66.9823 43.048H57.7663L58.7263 13.16H82.9183V22.12H67.3023L66.7263 32.808C67.1529 32.2107 67.9636 31.6987 69.1583 31.272C70.3529 30.8027 71.6329 30.504 72.9983 30.376C75.6436 30.0773 77.8623 30.568 79.6543 31.848C81.4889 33.0853 82.8543 34.984 83.7503 37.544C84.6889 40.104 85.1583 43.24 85.1583 46.952C85.1583 49.7253 84.9876 52.2853 84.6463 54.632C84.3049 56.936 83.6436 58.9413 82.6623 60.648C81.6809 62.312 80.2516 63.6133 78.3743 64.552C76.4969 65.4907 74.0436 65.96 71.0143 65.96ZM106.137 65.96C103.022 65.96 100.419 65.3413 98.3288 64.104C96.2381 62.824 94.6594 61.0747 93.5928 58.856C92.5261 56.6373 91.9928 54.056 91.9928 51.112V27.624C91.9928 24.5947 92.4834 21.9493 93.4648 19.688C94.4888 17.384 96.0461 15.592 98.1368 14.312C100.227 13.032 102.894 12.392 106.137 12.392C109.379 12.392 112.025 13.032 114.073 14.312C116.163 15.592 117.699 17.384 118.681 19.688C119.705 21.9493 120.217 24.5947 120.217 27.624V51.112C120.217 54.0133 119.683 56.5947 118.617 58.856C117.55 61.0747 115.971 62.824 113.881 64.104C111.79 65.3413 109.209 65.96 106.137 65.96ZM106.137 56.424C107.161 56.424 107.886 56.104 108.313 55.464C108.782 54.7813 109.059 54.0133 109.145 53.16C109.273 52.264 109.337 51.496 109.337 50.856V27.88C109.337 27.1547 109.294 26.344 109.209 25.448C109.123 24.5093 108.846 23.6987 108.377 23.016C107.95 22.2907 107.203 21.928 106.137 21.928C105.07 21.928 104.302 22.2907 103.833 23.016C103.406 23.6987 103.15 24.5093 103.065 25.448C102.979 26.344 102.937 27.1547 102.937 27.88V50.856C102.937 51.496 103.001 52.264 103.129 53.16C103.257 54.0133 103.534 54.7813 103.961 55.464C104.43 56.104 105.155 56.424 106.137 56.424ZM142.604 65.96C139.49 65.96 136.887 65.3413 134.796 64.104C132.706 62.824 131.127 61.0747 130.06 58.856C128.994 56.6373 128.46 54.056 128.46 51.112V27.624C128.46 24.5947 128.951 21.9493 129.932 19.688C130.956 17.384 132.514 15.592 134.604 14.312C136.695 13.032 139.362 12.392 142.604 12.392C145.847 12.392 148.492 13.032 150.54 14.312C152.631 15.592 154.167 17.384 155.148 19.688C156.172 21.9493 156.684 24.5947 156.684 27.624V51.112C156.684 54.0133 156.151 56.5947 155.084 58.856C154.018 61.0747 152.439 62.824 150.348 64.104C148.258 65.3413 145.676 65.96 142.604 65.96ZM142.604 56.424C143.628 56.424 144.354 56.104 144.78 55.464C145.25 54.7813 145.527 54.0133 145.612 53.16C145.74 52.264 145.804 51.496 145.804 50.856V27.88C145.804 27.1547 145.762 26.344 145.676 25.448C145.591 24.5093 145.314 23.6987 144.844 23.016C144.418 22.2907 143.671 21.928 142.604 21.928C141.538 21.928 140.77 22.2907 140.3 23.016C139.874 23.6987 139.618 24.5093 139.532 25.448C139.447 26.344 139.404 27.1547 139.404 27.88V50.856C139.404 51.496 139.468 52.264 139.596 53.16C139.724 54.0133 140.002 54.7813 140.428 55.464C140.898 56.104 141.623 56.424 142.604 56.424ZM178.816 65.768C175.232 65.768 172.394 65.0213 170.304 63.528C168.256 62.0347 166.784 59.944 165.888 57.256C165.034 54.5253 164.608 51.3893 164.608 47.848V30.44C164.608 26.7707 165.077 23.592 166.016 20.904C166.954 18.216 168.554 16.1467 170.816 14.696C173.12 13.2027 176.234 12.456 180.16 12.456C184 12.456 187.008 13.096 189.184 14.376C191.402 15.656 192.981 17.4267 193.92 19.688C194.858 21.9493 195.328 24.5947 195.328 27.624V30.952H184.128V26.728C184.128 25.6187 184.042 24.5947 183.872 23.656C183.744 22.7173 183.402 21.9707 182.848 21.416C182.336 20.8187 181.482 20.52 180.288 20.52C179.05 20.52 178.154 20.8613 177.6 21.544C177.045 22.184 176.682 22.9947 176.512 23.976C176.384 24.9573 176.32 25.9813 176.32 27.048V51.048C176.32 52.2 176.426 53.288 176.64 54.312C176.896 55.2933 177.322 56.104 177.92 56.744C178.56 57.3413 179.456 57.64 180.608 57.64C181.802 57.64 182.72 57.32 183.36 56.68C184 56.04 184.448 55.208 184.704 54.184C184.96 53.16 185.088 52.072 185.088 50.92V44.84H180.416V38.12H195.392V65H187.84L187.2 60.712C186.517 62.1627 185.514 63.3787 184.192 64.36C182.869 65.2987 181.077 65.768 178.816 65.768Z" fill="white"/>
<path d="M13.108 110.432C11.284 110.432 9.76001 110.108 8.53601 109.46C7.31201 108.812 6.38801 107.816 5.76401 106.472C5.14001 105.104 4.79201 103.34 4.72001 101.18L10.228 100.352C10.252 101.6 10.36 102.608 10.552 103.376C10.768 104.144 11.056 104.696 11.416 105.032C11.8 105.368 12.256 105.536 12.784 105.536C13.456 105.536 13.888 105.308 14.08 104.852C14.296 104.396 14.404 103.916 14.404 103.412C14.404 102.212 14.116 101.204 13.54 100.388C12.964 99.548 12.184 98.708 11.2 97.868L8.68001 95.672C7.57601 94.736 6.64001 93.68 5.87201 92.504C5.12801 91.304 4.75601 89.828 4.75601 88.076C4.75601 85.604 5.48801 83.72 6.95201 82.424C8.41601 81.104 10.408 80.444 12.928 80.444C14.488 80.444 15.736 80.708 16.672 81.236C17.632 81.764 18.352 82.46 18.832 83.324C19.336 84.164 19.672 85.064 19.84 86.024C20.032 86.96 20.14 87.86 20.164 88.724L14.62 89.408C14.596 88.544 14.536 87.8 14.44 87.176C14.368 86.528 14.2 86.036 13.936 85.7C13.672 85.34 13.264 85.16 12.712 85.16C12.112 85.16 11.668 85.412 11.38 85.916C11.116 86.42 10.984 86.924 10.984 87.428C10.984 88.508 11.236 89.396 11.74 90.092C12.268 90.764 12.952 91.472 13.792 92.216L16.204 94.34C17.476 95.42 18.544 96.644 19.408 98.012C20.296 99.38 20.74 101.072 20.74 103.088C20.74 104.456 20.428 105.704 19.804 106.832C19.18 107.936 18.292 108.812 17.14 109.46C16.012 110.108 14.668 110.432 13.108 110.432ZM26.9202 110L23.3922 80.84H28.8642L30.5922 97.832L32.7882 80.876H37.0722L39.3762 97.724L41.1402 80.84H46.5402L43.0482 110H37.4322L34.9482 92.396L32.6082 110H26.9202ZM50.4018 110V80.84H63.5058V85.232H56.8458V92.468H61.9218V96.932H56.8458V105.644H63.5778V110H50.4018ZM67.2233 110V80.84H80.3273V85.232H73.6673V92.468H78.7433V96.932H73.6673V105.644H80.3993V110H67.2233ZM86.6729 110V85.628H82.2809V80.84H97.5089V85.628H93.1529V110H86.6729ZM110.727 110V80.84H118.323C119.571 80.84 120.747 80.936 121.851 81.128C122.979 81.32 123.975 81.692 124.839 82.244C125.703 82.772 126.375 83.54 126.855 84.548C127.359 85.532 127.611 86.84 127.611 88.472C127.611 89.648 127.431 90.644 127.071 91.46C126.735 92.252 126.243 92.888 125.595 93.368C124.971 93.848 124.215 94.172 123.327 94.34C124.455 94.484 125.403 94.856 126.171 95.456C126.939 96.032 127.515 96.812 127.899 97.796C128.307 98.78 128.511 99.968 128.511 101.36C128.511 102.872 128.307 104.18 127.899 105.284C127.515 106.364 126.951 107.252 126.207 107.948C125.463 108.644 124.539 109.16 123.435 109.496C122.355 109.832 121.107 110 119.691 110H110.727ZM117.171 105.5H118.539C119.955 105.5 120.927 105.14 121.455 104.42C122.007 103.7 122.283 102.644 122.283 101.252C122.283 100.148 122.163 99.272 121.923 98.624C121.683 97.976 121.287 97.508 120.735 97.22C120.183 96.908 119.439 96.752 118.503 96.752H117.171V105.5ZM117.171 92.504H118.431C119.415 92.504 120.159 92.36 120.663 92.072C121.167 91.76 121.503 91.316 121.671 90.74C121.863 90.164 121.959 89.468 121.959 88.652C121.959 87.884 121.815 87.248 121.527 86.744C121.263 86.216 120.855 85.82 120.303 85.556C119.775 85.292 119.103 85.16 118.287 85.16H117.171V92.504ZM140.963 110.432C138.779 110.432 137.051 110.048 135.779 109.28C134.507 108.512 133.595 107.408 133.043 105.968C132.491 104.528 132.215 102.812 132.215 100.82V89.984C132.215 87.968 132.491 86.252 133.043 84.836C133.595 83.42 134.507 82.34 135.779 81.596C137.051 80.828 138.779 80.444 140.963 80.444C143.171 80.444 144.911 80.828 146.183 81.596C147.479 82.34 148.403 83.42 148.955 84.836C149.507 86.252 149.783 87.968 149.783 89.984V100.82C149.783 102.812 149.507 104.528 148.955 105.968C148.403 107.408 147.479 108.512 146.183 109.28C144.911 110.048 143.171 110.432 140.963 110.432ZM140.963 105.86C141.635 105.86 142.127 105.692 142.439 105.356C142.751 105.02 142.955 104.588 143.051 104.06C143.147 103.532 143.195 102.992 143.195 102.44V88.4C143.195 87.824 143.147 87.284 143.051 86.78C142.955 86.252 142.751 85.82 142.439 85.484C142.127 85.148 141.635 84.98 140.963 84.98C140.339 84.98 139.871 85.148 139.559 85.484C139.247 85.82 139.043 86.252 138.947 86.78C138.851 87.284 138.803 87.824 138.803 88.4V102.44C138.803 102.992 138.839 103.532 138.911 104.06C139.007 104.588 139.199 105.02 139.487 105.356C139.799 105.692 140.291 105.86 140.963 105.86ZM151.919 110L157.571 94.304L152.171 80.84H158.255L161.459 88.724L164.051 80.84H169.415L164.303 95.996L169.991 110H163.943L160.379 101.288L157.247 110H151.919ZM181.823 116.408C180.239 116.432 178.919 116.12 177.863 115.472C176.807 114.848 175.955 113.972 175.307 112.844C174.683 111.716 174.215 110.408 173.903 108.92C173.591 107.408 173.387 105.776 173.291 104.024C173.195 102.272 173.147 100.472 173.147 98.624C173.147 96.632 173.195 94.736 173.291 92.936C173.387 91.136 173.591 89.48 173.903 87.968C174.215 86.432 174.683 85.112 175.307 84.008C175.955 82.904 176.807 82.052 177.863 81.452C178.919 80.828 180.239 80.516 181.823 80.516V84.62C181.151 84.62 180.599 84.932 180.167 85.556C179.735 86.18 179.399 87.092 179.159 88.292C178.919 89.468 178.751 90.92 178.655 92.648C178.583 94.376 178.547 96.368 178.547 98.624C178.547 100.904 178.595 102.896 178.691 104.6C178.787 106.304 178.955 107.732 179.195 108.884C179.459 110.012 179.795 110.864 180.203 111.44C180.635 112.016 181.175 112.304 181.823 112.304V116.408ZM185.995 110V80.84H192.439V110H185.995ZM197.399 110L197.903 80.84H204.815L208.019 97.796L211.475 80.84H218.135L218.639 110H214.067L213.527 90.596L210.143 110H206.075L202.475 90.452L202.043 110H197.399ZM223.574 110V80.84H230.018V105.644H236.714V110H223.574ZM239.355 116.408V112.304C240.003 112.304 240.531 112.016 240.939 111.44C241.371 110.864 241.707 110 241.947 108.848C242.187 107.696 242.355 106.268 242.451 104.564C242.547 102.86 242.595 100.868 242.595 98.588C242.595 96.332 242.547 94.34 242.451 92.612C242.379 90.884 242.223 89.432 241.983 88.256C241.767 87.056 241.443 86.156 241.011 85.556C240.603 84.932 240.051 84.62 239.355 84.62V80.516C240.939 80.516 242.259 80.816 243.315 81.416C244.371 82.016 245.211 82.88 245.835 84.008C246.483 85.112 246.963 86.42 247.275 87.932C247.587 89.444 247.791 91.1 247.887 92.9C247.983 94.7 248.031 96.596 248.031 98.588C248.031 100.436 247.983 102.236 247.887 103.988C247.791 105.74 247.587 107.372 247.275 108.884C246.963 110.396 246.483 111.716 245.835 112.844C245.211 113.972 244.371 114.848 243.315 115.472C242.259 116.12 240.939 116.432 239.355 116.408Z" fill="white"/>
</g>
<defs>
<filter id="filter0_d_967_4503" x="0.000215054" y="-3.72" width="252.751" height="125.884" filterUnits="userSpaceOnUse" color-interpolation-filters="sRGB">
<feFlood flood-opacity="0" result="BackgroundImageFix"/>
<feColorMatrix in="SourceAlpha" type="matrix" values="0 0 0 0 0 0 0 0 0 0 0 0 0 0 0 0 0 0 127 0" result="hardAlpha"/>
<feOffset dy="1"/>
<feGaussianBlur stdDeviation="2.36"/>
<feComposite in2="hardAlpha" operator="out"/>
<feColorMatrix type="matrix" values="0 0 0 0 0 0 0 0 0 0 0 0 0 0 0 0 0 0 0.25 0"/>
<feBlend mode="normal" in2="BackgroundImageFix" result="effect1_dropShadow_967_4503"/>
<feBlend mode="normal" in="SourceGraphic" in2="effect1_dropShadow_967_4503" result="shape"/>
</filter>
</defs>
</svg>
