<svg width="390" height="39" viewBox="0 0 390 39" fill="none" xmlns="http://www.w3.org/2000/svg">
<g filter="url(#filter0_d_808_50)">
<path d="M11.9906 32.4258C9.95569 32.4258 8.41238 32.0714 7.36063 31.3626C6.33175 30.631 5.6344 29.6135 5.26858 28.3103C4.90276 27.0071 4.71984 25.498 4.71984 23.7832H10.2415C10.2415 24.835 10.2987 25.6924 10.413 26.3554C10.5273 27.0185 10.7331 27.4986 11.0303 27.7959C11.3504 28.0702 11.7962 28.196 12.3678 28.1731C12.9623 28.1503 13.3853 27.9102 13.6368 27.4529C13.8883 26.9956 14.0369 26.344 14.0826 25.498C14.1512 24.6292 14.1855 23.5889 14.1855 22.3771C14.1855 21.4625 14.1284 20.6509 14.0141 19.9421C13.9226 19.2333 13.7168 18.6731 13.3967 18.2616C13.0995 17.8272 12.6422 17.61 12.0249 17.61C11.4533 17.61 10.9846 17.8157 10.6187 18.2273C10.2529 18.6388 9.98999 19.279 9.82994 20.1479H4.89132L5.40576 4.13164H18.3696V8.93308H10.0014L9.69276 14.6605C9.9214 14.3404 10.3558 14.066 10.996 13.8374C11.6362 13.5859 12.3221 13.4259 13.0538 13.3573C14.4713 13.1972 15.6603 13.4601 16.6205 14.1461C17.6037 14.8091 18.3353 15.8266 18.8155 17.1984C19.3185 18.5702 19.57 20.2507 19.57 22.2399C19.57 23.7261 19.4785 25.0979 19.2956 26.3554C19.1127 27.5901 18.7583 28.6647 18.2325 29.5793C17.7066 30.4709 16.9406 31.1683 15.9346 31.6713C14.9286 32.1743 13.6139 32.4258 11.9906 32.4258ZM30.8118 32.4258C29.1428 32.4258 27.7481 32.0943 26.6277 31.4312C25.5074 30.7453 24.6614 29.8079 24.0898 28.619C23.5182 27.43 23.2324 26.0468 23.2324 24.4692V11.8825C23.2324 10.2592 23.4954 8.84162 24.0212 7.62983C24.57 6.39518 25.4045 5.43489 26.5248 4.74897C27.6452 4.06305 29.0742 3.72009 30.8118 3.72009C32.5495 3.72009 33.9671 4.06305 35.0645 4.74897C36.1849 5.43489 37.008 6.39518 37.5338 7.62983C38.0826 8.84162 38.357 10.2592 38.357 11.8825V24.4692C38.357 26.0239 38.0712 27.4072 37.4996 28.619C36.928 29.8079 36.082 30.7453 34.9616 31.4312C33.8413 32.0943 32.458 32.4258 30.8118 32.4258ZM30.8118 27.3157C31.3606 27.3157 31.7493 27.1442 31.9779 26.8013C32.2294 26.4355 32.378 26.0239 32.4237 25.5666C32.4923 25.0865 32.5266 24.6749 32.5266 24.332V12.0197C32.5266 11.631 32.5038 11.1966 32.458 10.7165C32.4123 10.2135 32.2637 9.77905 32.0122 9.41322C31.7836 9.02454 31.3834 8.83019 30.8118 8.83019C30.2402 8.83019 29.8287 9.02454 29.5772 9.41322C29.3485 9.77905 29.2114 10.2135 29.1656 10.7165C29.1199 11.1966 29.097 11.631 29.097 12.0197V24.332C29.097 24.6749 29.1313 25.0865 29.1999 25.5666C29.2685 26.0239 29.4171 26.4355 29.6458 26.8013C29.8973 27.1442 30.286 27.3157 30.8118 27.3157ZM50.3538 32.4258C48.6848 32.4258 47.2901 32.0943 46.1697 31.4312C45.0494 30.7453 44.2034 29.8079 43.6318 28.619C43.0602 27.43 42.7744 26.0468 42.7744 24.4692V11.8825C42.7744 10.2592 43.0374 8.84162 43.5632 7.62983C44.112 6.39518 44.9465 5.43489 46.0668 4.74897C47.1872 4.06305 48.6162 3.72009 50.3538 3.72009C52.0915 3.72009 53.5091 4.06305 54.6065 4.74897C55.7269 5.43489 56.55 6.39518 57.0758 7.62983C57.6246 8.84162 57.899 10.2592 57.899 11.8825V24.4692C57.899 26.0239 57.6132 27.4072 57.0416 28.619C56.47 29.8079 55.624 30.7453 54.5036 31.4312C53.3833 32.0943 52 32.4258 50.3538 32.4258ZM50.3538 27.3157C50.9026 27.3157 51.2913 27.1442 51.5199 26.8013C51.7714 26.4355 51.92 26.0239 51.9657 25.5666C52.0343 25.0865 52.0686 24.6749 52.0686 24.332V12.0197C52.0686 11.631 52.0458 11.1966 52 10.7165C51.9543 10.2135 51.8057 9.77905 51.5542 9.41322C51.3256 9.02454 50.9254 8.83019 50.3538 8.83019C49.7822 8.83019 49.3707 9.02454 49.1192 9.41322C48.8905 9.77905 48.7534 10.2135 48.7076 10.7165C48.6619 11.1966 48.639 11.631 48.639 12.0197V24.332C48.639 24.6749 48.6733 25.0865 48.7419 25.5666C48.8105 26.0239 48.9591 26.4355 49.1878 26.8013C49.4393 27.1442 49.828 27.3157 50.3538 27.3157ZM62.4193 31.9114L62.8995 4.13164H69.4843L72.5366 20.285L75.829 4.13164H82.1738L82.6539 31.9114H78.2983L77.7839 13.4259L74.5601 31.9114H70.6846L67.255 13.2887L66.8435 31.9114H62.4193ZM87.356 31.9114V4.13164H93.4949V27.7616H99.874V31.9114H87.356ZM112.708 31.9114V4.13164H120.356C122.231 4.13164 123.854 4.33742 125.226 4.74897C126.598 5.16052 127.661 5.9036 128.416 6.97821C129.193 8.02995 129.582 9.52754 129.582 11.471C129.582 12.6142 129.49 13.6316 129.307 14.5233C129.125 15.415 128.782 16.1924 128.279 16.8554C127.798 17.4956 127.101 18.0329 126.187 18.4674L129.993 31.9114H123.649L120.596 19.4619H118.847V31.9114H112.708ZM118.847 15.9295H120.562C121.431 15.9295 122.105 15.7808 122.585 15.4836C123.066 15.1635 123.397 14.7177 123.58 14.1461C123.786 13.5516 123.889 12.8428 123.889 12.0197C123.889 10.8308 123.671 9.9048 123.237 9.24174C122.803 8.57869 122.002 8.24716 120.836 8.24716H118.847V15.9295ZM141.647 32.3229C139.566 32.3229 137.92 31.9571 136.708 31.2255C135.497 30.4938 134.628 29.4421 134.102 28.0702C133.576 26.6984 133.313 25.0636 133.313 23.1659V12.8428C133.313 10.9222 133.576 9.28747 134.102 7.9385C134.628 6.58952 135.497 5.56064 136.708 4.85186C137.92 4.12021 139.566 3.75439 141.647 3.75439C143.75 3.75439 145.408 4.12021 146.62 4.85186C147.855 5.56064 148.735 6.58952 149.261 7.9385C149.787 9.28747 150.05 10.9222 150.05 12.8428V23.1659C150.05 25.0636 149.787 26.6984 149.261 28.0702C148.735 29.4421 147.855 30.4938 146.62 31.2255C145.408 31.9571 143.75 32.3229 141.647 32.3229ZM141.647 27.9673C142.287 27.9673 142.756 27.8073 143.053 27.4872C143.35 27.1671 143.545 26.7556 143.636 26.2525C143.728 25.7495 143.773 25.2351 143.773 24.7092V11.3338C143.773 10.7851 143.728 10.2706 143.636 9.79048C143.545 9.28747 143.35 8.87592 143.053 8.55582C142.756 8.23573 142.287 8.07568 141.647 8.07568C141.053 8.07568 140.607 8.23573 140.309 8.55582C140.012 8.87592 139.818 9.28747 139.726 9.79048C139.635 10.2706 139.589 10.7851 139.589 11.3338V24.7092C139.589 25.2351 139.624 25.7495 139.692 26.2525C139.784 26.7556 139.967 27.1671 140.241 27.4872C140.538 27.8073 141.007 27.9673 141.647 27.9673ZM162.497 32.3229C160.37 32.3229 158.701 31.98 157.49 31.294C156.301 30.5853 155.466 29.5678 154.986 28.2417C154.506 26.8927 154.266 25.2465 154.266 23.3031V4.13164H160.336V24.2291C160.336 24.8007 160.382 25.3723 160.473 25.9439C160.565 26.5155 160.759 26.9842 161.056 27.35C161.376 27.7158 161.857 27.8987 162.497 27.8987C163.16 27.8987 163.64 27.7158 163.937 27.35C164.234 26.9842 164.417 26.5155 164.486 25.9439C164.577 25.3723 164.623 24.8007 164.623 24.2291V4.13164H170.728V23.3031C170.728 25.2465 170.476 26.8927 169.973 28.2417C169.493 29.5678 168.659 30.5853 167.47 31.294C166.281 31.98 164.623 32.3229 162.497 32.3229ZM175.32 31.9114V4.13164H179.641L185.334 17.5071V4.13164H190.41V31.9114H186.26L180.567 17.5071V31.9114H175.32ZM195.23 31.9114V4.13164H202.261C204.684 4.13164 206.571 4.44031 207.92 5.05764C209.269 5.6521 210.218 6.60095 210.766 7.9042C211.315 9.18458 211.589 10.8537 211.589 12.9114V22.9944C211.589 25.075 211.315 26.7784 210.766 28.1045C210.218 29.4078 209.269 30.3681 207.92 30.9854C206.594 31.6027 204.73 31.9114 202.329 31.9114H195.23ZM201.369 27.6587H202.329C203.267 27.6587 203.941 27.5215 204.353 27.2471C204.764 26.9728 205.016 26.5612 205.107 26.0125C205.222 25.4637 205.279 24.7778 205.279 23.9547V11.8482C205.279 11.0251 205.21 10.3621 205.073 9.85907C204.959 9.35606 204.696 8.99024 204.284 8.7616C203.873 8.53296 203.21 8.41864 202.295 8.41864H201.369V27.6587ZM233.429 32.3229C231.325 32.3229 229.656 31.9457 228.422 31.1912C227.21 30.4138 226.353 29.3392 225.85 27.9673C225.346 26.5726 225.095 24.9379 225.095 23.063V13.0486C225.095 11.128 225.346 9.48182 225.85 8.10998C226.353 6.71527 227.21 5.64067 228.422 4.88616C229.656 4.13165 231.325 3.75439 233.429 3.75439C235.487 3.75439 237.087 4.09735 238.23 4.78327C239.396 5.44632 240.22 6.38375 240.7 7.59554C241.18 8.80733 241.42 10.202 241.42 11.7796V14.1804H235.418V11.4024C235.418 10.8537 235.384 10.3278 235.315 9.82477C235.269 9.32177 235.109 8.91022 234.835 8.59012C234.561 8.24716 234.092 8.07568 233.429 8.07568C232.789 8.07568 232.309 8.24716 231.988 8.59012C231.691 8.93308 231.497 9.3675 231.405 9.89337C231.337 10.3964 231.303 10.9337 231.303 11.5053V24.572C231.303 25.1894 231.348 25.761 231.44 26.2868C231.554 26.7898 231.76 27.2014 232.057 27.5215C232.377 27.8187 232.834 27.9673 233.429 27.9673C234.069 27.9673 234.526 27.8073 234.801 27.4872C235.075 27.1442 235.247 26.7098 235.315 26.184C235.384 25.6581 235.418 25.1208 235.418 24.572V21.6569H241.42V24.0576C241.42 25.6352 241.18 27.0528 240.7 28.3103C240.242 29.545 239.431 30.5281 238.265 31.2598C237.121 31.9685 235.51 32.3229 233.429 32.3229ZM253.44 32.3229C251.359 32.3229 249.713 31.9571 248.501 31.2255C247.289 30.4938 246.421 29.4421 245.895 28.0702C245.369 26.6984 245.106 25.0636 245.106 23.1659V12.8428C245.106 10.9222 245.369 9.28747 245.895 7.9385C246.421 6.58952 247.289 5.56064 248.501 4.85186C249.713 4.12021 251.359 3.75439 253.44 3.75439C255.543 3.75439 257.201 4.12021 258.413 4.85186C259.647 5.56064 260.528 6.58952 261.053 7.9385C261.579 9.28747 261.842 10.9222 261.842 12.8428V23.1659C261.842 25.0636 261.579 26.6984 261.053 28.0702C260.528 29.4421 259.647 30.4938 258.413 31.2255C257.201 31.9571 255.543 32.3229 253.44 32.3229ZM253.44 27.9673C254.08 27.9673 254.549 27.8073 254.846 27.4872C255.143 27.1671 255.338 26.7556 255.429 26.2525C255.52 25.7495 255.566 25.2351 255.566 24.7092V11.3338C255.566 10.7851 255.52 10.2706 255.429 9.79048C255.338 9.28747 255.143 8.87592 254.846 8.55582C254.549 8.23573 254.08 8.07568 253.44 8.07568C252.845 8.07568 252.399 8.23573 252.102 8.55582C251.805 8.87592 251.611 9.28747 251.519 9.79048C251.428 10.2706 251.382 10.7851 251.382 11.3338V24.7092C251.382 25.2351 251.416 25.7495 251.485 26.2525C251.576 26.7556 251.759 27.1671 252.034 27.4872C252.331 27.8073 252.8 27.9673 253.44 27.9673ZM266.264 31.9114V4.13164H270.586L276.279 17.5071V4.13164H281.355V31.9114H277.205L271.512 17.5071V31.9114H266.264ZM288.678 31.9114V8.69301H284.494V4.13164H299.001V8.69301H294.852V31.9114H288.678ZM299.255 31.9114L304.502 4.13164H311.499L316.677 31.9114H311.018L310.092 26.0468H306.011L305.051 31.9114H299.255ZM306.56 22.3771H309.509L308.035 11.5396L306.56 22.3771ZM320.202 31.9114V4.13164H326.341V31.9114H320.202ZM331.169 31.9114V4.13164H335.491L341.184 17.5071V4.13164H346.26V31.9114H342.11L336.417 17.5071V31.9114H331.169ZM351.08 31.9114V4.13164H363.564V8.31575H357.219V15.2092H362.055V19.4619H357.219V27.7616H363.632V31.9114H351.08ZM367.105 31.9114V4.13164H374.753C376.628 4.13164 378.251 4.33742 379.623 4.74897C380.995 5.16052 382.058 5.9036 382.813 6.97821C383.59 8.02995 383.979 9.52754 383.979 11.471C383.979 12.6142 383.887 13.6316 383.704 14.5233C383.522 15.415 383.179 16.1924 382.676 16.8554C382.195 17.4956 381.498 18.0329 380.583 18.4674L384.39 31.9114H378.046L374.993 19.4619H373.244V31.9114H367.105ZM373.244 15.9295H374.959C375.828 15.9295 376.502 15.7808 376.982 15.4836C377.463 15.1635 377.794 14.7177 377.977 14.1461C378.183 13.5516 378.286 12.8428 378.286 12.0197C378.286 10.8308 378.068 9.9048 377.634 9.24174C377.2 8.57869 376.399 8.24716 375.233 8.24716H373.244V15.9295Z" fill="white"/>
</g>
<defs>
<filter id="filter0_d_808_50" x="-0.000273228" y="0.000215054" width="389.111" height="38.1456" filterUnits="userSpaceOnUse" color-interpolation-filters="sRGB">
<feFlood flood-opacity="0" result="BackgroundImageFix"/>
<feColorMatrix in="SourceAlpha" type="matrix" values="0 0 0 0 0 0 0 0 0 0 0 0 0 0 0 0 0 0 127 0" result="hardAlpha"/>
<feOffset dy="1"/>
<feGaussianBlur stdDeviation="2.36"/>
<feComposite in2="hardAlpha" operator="out"/>
<feColorMatrix type="matrix" values="0 0 0 0 0 0 0 0 0 0 0 0 0 0 0 0 0 0 0.25 0"/>
<feBlend mode="normal" in2="BackgroundImageFix" result="effect1_dropShadow_808_50"/>
<feBlend mode="normal" in="SourceGraphic" in2="effect1_dropShadow_808_50" result="shape"/>
</filter>
</defs>
</svg>
